<?xml version="1.0" encoding="UTF-8" standalone="no"?>
<!DOCTYPE svg PUBLIC "-//W3C//DTD SVG 1.1//EN"
 "http://www.w3.org/Graphics/SVG/1.1/DTD/svg11.dtd">
<!-- Generated by graphviz version 2.43.0 (0)
 -->
<!-- Title: /home/runner/work/diffblue&#45;cbmc/diffblue&#45;cbmc/src/analyses/variable&#45;sensitivity/abstract_value_object.h Pages: 1 -->
<svg width="1328pt" height="339pt"
 viewBox="0.00 0.00 1328.00 339.00" xmlns="http://www.w3.org/2000/svg" xmlns:xlink="http://www.w3.org/1999/xlink">
<g id="graph0" class="graph" transform="scale(1 1) rotate(0) translate(4 335)">
<title>/home/runner/work/diffblue&#45;cbmc/diffblue&#45;cbmc/src/analyses/variable&#45;sensitivity/abstract_value_object.h</title>
<!-- Node1 -->
<g id="node1" class="node">
<title>Node1</title>
<g id="a_node1"><a xlink:title="Common behaviour for abstract objects modelling values &#45; constants, intervals, etc.">
<polygon fill="#bfbfbf" stroke="black" points="527,-278.5 527,-330.5 688,-330.5 688,-278.5 527,-278.5"/>
<text text-anchor="start" x="535" y="-318.5" font-family="Helvetica,sans-Serif" font-size="10.00">/home/runner/work/diffblue</text>
<text text-anchor="start" x="535" y="-307.5" font-family="Helvetica,sans-Serif" font-size="10.00">&#45;cbmc/diffblue&#45;cbmc/src</text>
<text text-anchor="start" x="535" y="-296.5" font-family="Helvetica,sans-Serif" font-size="10.00">/analyses/variable&#45;sensitivity</text>
<text text-anchor="middle" x="607.5" y="-285.5" font-family="Helvetica,sans-Serif" font-size="10.00">/abstract_value_object.h</text>
</a>
</g>
</g>
<!-- Node2 -->
<g id="node2" class="node">
<title>Node2</title>
<g id="a_node2"><a xlink:href="abstract__object__set_8h.html" target="_top" xlink:title="an unordered set of value objects">
<polygon fill="none" stroke="black" points="256,-189.5 256,-241.5 417,-241.5 417,-189.5 256,-189.5"/>
<text text-anchor="start" x="264" y="-229.5" font-family="Helvetica,sans-Serif" font-size="10.00">/home/runner/work/diffblue</text>
<text text-anchor="start" x="264" y="-218.5" font-family="Helvetica,sans-Serif" font-size="10.00">&#45;cbmc/diffblue&#45;cbmc/src</text>
<text text-anchor="start" x="264" y="-207.5" font-family="Helvetica,sans-Serif" font-size="10.00">/analyses/variable&#45;sensitivity</text>
<text text-anchor="middle" x="336.5" y="-196.5" font-family="Helvetica,sans-Serif" font-size="10.00">/abstract_object_set.h</text>
</a>
</g>
</g>
<!-- Node1&#45;&gt;Node2 -->
<g id="edge1" class="edge">
<title>Node1&#45;&gt;Node2</title>
<path fill="none" stroke="midnightblue" d="M519.59,-275.28C485.72,-264.4 447.31,-252.07 414.44,-241.52"/>
<polygon fill="midnightblue" stroke="midnightblue" points="518.89,-278.73 529.48,-278.45 521.03,-272.06 518.89,-278.73"/>
</g>
<!-- Node4 -->
<g id="node4" class="node">
<title>Node4</title>
<g id="a_node4"><a xlink:href="value__set__abstract__object_8h.html" target="_top" xlink:title="Value Set Abstract Object.">
<polygon fill="none" stroke="black" points="399,-100.5 399,-152.5 560,-152.5 560,-100.5 399,-100.5"/>
<text text-anchor="start" x="407" y="-140.5" font-family="Helvetica,sans-Serif" font-size="10.00">/home/runner/work/diffblue</text>
<text text-anchor="start" x="407" y="-129.5" font-family="Helvetica,sans-Serif" font-size="10.00">&#45;cbmc/diffblue&#45;cbmc/src</text>
<text text-anchor="start" x="407" y="-118.5" font-family="Helvetica,sans-Serif" font-size="10.00">/analyses/variable&#45;sensitivity</text>
<text text-anchor="middle" x="479.5" y="-107.5" font-family="Helvetica,sans-Serif" font-size="10.00">/value_set_abstract_object.h</text>
</a>
</g>
</g>
<!-- Node1&#45;&gt;Node4 -->
<g id="edge23" class="edge">
<title>Node1&#45;&gt;Node4</title>
<path fill="none" stroke="midnightblue" d="M583.14,-270C558.27,-235.8 520.22,-183.49 497.81,-152.67"/>
<polygon fill="midnightblue" stroke="midnightblue" points="580.45,-272.25 589.16,-278.28 586.11,-268.14 580.45,-272.25"/>
</g>
<!-- Node5 -->
<g id="node5" class="node">
<title>Node5</title>
<g id="a_node5"><a xlink:href="abstract__value__object_8cpp.html" target="_top" xlink:title=" ">
<polygon fill="none" stroke="black" points="437,-6 437,-58 598,-58 598,-6 437,-6"/>
<text text-anchor="start" x="445" y="-46" font-family="Helvetica,sans-Serif" font-size="10.00">/home/runner/work/diffblue</text>
<text text-anchor="start" x="445" y="-35" font-family="Helvetica,sans-Serif" font-size="10.00">&#45;cbmc/diffblue&#45;cbmc/src</text>
<text text-anchor="start" x="445" y="-24" font-family="Helvetica,sans-Serif" font-size="10.00">/analyses/variable&#45;sensitivity</text>
<text text-anchor="middle" x="517.5" y="-13" font-family="Helvetica,sans-Serif" font-size="10.00">/abstract_value_object.cpp</text>
</a>
</g>
</g>
<!-- Node1&#45;&gt;Node5 -->
<g id="edge10" class="edge">
<title>Node1&#45;&gt;Node5</title>
<path fill="none" stroke="midnightblue" d="M605.93,-268.02C602.96,-226.18 594.37,-155.34 569.5,-100 562.68,-84.82 551.75,-69.99 541.67,-58.16"/>
<polygon fill="midnightblue" stroke="midnightblue" points="602.46,-268.5 606.59,-278.25 609.44,-268.05 602.46,-268.5"/>
</g>
<!-- Node10 -->
<g id="node10" class="node">
<title>Node10</title>
<g id="a_node10"><a xlink:href="constant__abstract__value_8h.html" target="_top" xlink:title="An abstraction of a single value that just stores a constant.">
<polygon fill="none" stroke="black" points="617,-100.5 617,-152.5 778,-152.5 778,-100.5 617,-100.5"/>
<text text-anchor="start" x="625" y="-140.5" font-family="Helvetica,sans-Serif" font-size="10.00">/home/runner/work/diffblue</text>
<text text-anchor="start" x="625" y="-129.5" font-family="Helvetica,sans-Serif" font-size="10.00">&#45;cbmc/diffblue&#45;cbmc/src</text>
<text text-anchor="start" x="625" y="-118.5" font-family="Helvetica,sans-Serif" font-size="10.00">/analyses/variable&#45;sensitivity</text>
<text text-anchor="middle" x="697.5" y="-107.5" font-family="Helvetica,sans-Serif" font-size="10.00">/constant_abstract_value.h</text>
</a>
</g>
</g>
<!-- Node1&#45;&gt;Node10 -->
<g id="edge11" class="edge">
<title>Node1&#45;&gt;Node10</title>
<path fill="none" stroke="midnightblue" d="M615.43,-268.38C621.6,-244.95 631.49,-213.98 645.5,-189 652.75,-176.07 662.91,-163.31 672.33,-152.79"/>
<polygon fill="midnightblue" stroke="midnightblue" points="612,-267.69 612.94,-278.24 618.78,-269.4 612,-267.69"/>
</g>
<!-- Node12 -->
<g id="node12" class="node">
<title>Node12</title>
<g id="a_node12"><a xlink:href="full__array__abstract__object_8cpp.html" target="_top" xlink:title=" ">
<polygon fill="none" stroke="black" points="654,-189.5 654,-241.5 821,-241.5 821,-189.5 654,-189.5"/>
<text text-anchor="start" x="662" y="-229.5" font-family="Helvetica,sans-Serif" font-size="10.00">/home/runner/work/diffblue</text>
<text text-anchor="start" x="662" y="-218.5" font-family="Helvetica,sans-Serif" font-size="10.00">&#45;cbmc/diffblue&#45;cbmc/src</text>
<text text-anchor="start" x="662" y="-207.5" font-family="Helvetica,sans-Serif" font-size="10.00">/analyses/variable&#45;sensitivity</text>
<text text-anchor="middle" x="737.5" y="-196.5" font-family="Helvetica,sans-Serif" font-size="10.00">/full_array_abstract_object.cpp</text>
</a>
</g>
</g>
<!-- Node1&#45;&gt;Node12 -->
<g id="edge16" class="edge">
<title>Node1&#45;&gt;Node12</title>
<path fill="none" stroke="midnightblue" d="M653.82,-272.5C668.96,-262.37 685.57,-251.25 699.98,-241.61"/>
<polygon fill="midnightblue" stroke="midnightblue" points="651.47,-269.87 645.1,-278.34 655.36,-275.68 651.47,-269.87"/>
</g>
<!-- Node13 -->
<g id="node13" class="node">
<title>Node13</title>
<g id="a_node13"><a xlink:href="interval__abstract__value_8h.html" target="_top" xlink:title="An interval to represent a set of possible values.">
<polygon fill="none" stroke="black" points="797,-100.5 797,-152.5 958,-152.5 958,-100.5 797,-100.5"/>
<text text-anchor="start" x="805" y="-140.5" font-family="Helvetica,sans-Serif" font-size="10.00">/home/runner/work/diffblue</text>
<text text-anchor="start" x="805" y="-129.5" font-family="Helvetica,sans-Serif" font-size="10.00">&#45;cbmc/diffblue&#45;cbmc/src</text>
<text text-anchor="start" x="805" y="-118.5" font-family="Helvetica,sans-Serif" font-size="10.00">/analyses/variable&#45;sensitivity</text>
<text text-anchor="middle" x="877.5" y="-107.5" font-family="Helvetica,sans-Serif" font-size="10.00">/interval_abstract_value.h</text>
</a>
</g>
</g>
<!-- Node1&#45;&gt;Node13 -->
<g id="edge17" class="edge">
<title>Node1&#45;&gt;Node13</title>
<path fill="none" stroke="midnightblue" d="M698.21,-297.05C742.64,-289.64 794.25,-274.13 830.5,-242 856.71,-218.77 868.6,-178.7 873.78,-152.66"/>
<polygon fill="midnightblue" stroke="midnightblue" points="697.6,-293.6 688.26,-298.6 698.68,-300.52 697.6,-293.6"/>
</g>
<!-- Node3 -->
<g id="node3" class="node">
<title>Node3</title>
<g id="a_node3"><a xlink:href="abstract__object__set_8cpp.html" target="_top" xlink:title=" ">
<polygon fill="none" stroke="black" points="220,-100.5 220,-152.5 381,-152.5 381,-100.5 220,-100.5"/>
<text text-anchor="start" x="228" y="-140.5" font-family="Helvetica,sans-Serif" font-size="10.00">/home/runner/work/diffblue</text>
<text text-anchor="start" x="228" y="-129.5" font-family="Helvetica,sans-Serif" font-size="10.00">&#45;cbmc/diffblue&#45;cbmc/src</text>
<text text-anchor="start" x="228" y="-118.5" font-family="Helvetica,sans-Serif" font-size="10.00">/analyses/variable&#45;sensitivity</text>
<text text-anchor="middle" x="300.5" y="-107.5" font-family="Helvetica,sans-Serif" font-size="10.00">/abstract_object_set.cpp</text>
</a>
</g>
</g>
<!-- Node2&#45;&gt;Node3 -->
<g id="edge2" class="edge">
<title>Node2&#45;&gt;Node3</title>
<path fill="none" stroke="midnightblue" d="M322.25,-180.06C318.46,-170.9 314.43,-161.17 310.89,-152.61"/>
<polygon fill="midnightblue" stroke="midnightblue" points="319.03,-181.43 326.09,-189.34 325.5,-178.76 319.03,-181.43"/>
</g>
<!-- Node2&#45;&gt;Node4 -->
<g id="edge3" class="edge">
<title>Node2&#45;&gt;Node4</title>
<path fill="none" stroke="midnightblue" d="M386.52,-184.07C403.42,-173.79 422.09,-162.43 438.23,-152.61"/>
<polygon fill="midnightblue" stroke="midnightblue" points="384.59,-181.15 377.86,-189.34 388.22,-187.13 384.59,-181.15"/>
</g>
<!-- Node8 -->
<g id="node8" class="node">
<title>Node8</title>
<g id="a_node8"><a xlink:href="value__set__pointer__abstract__object_8h.html" target="_top" xlink:title="Value Set of Pointer Abstract Object.">
<polygon fill="none" stroke="black" points="5.5,-100.5 5.5,-152.5 201.5,-152.5 201.5,-100.5 5.5,-100.5"/>
<text text-anchor="start" x="13.5" y="-140.5" font-family="Helvetica,sans-Serif" font-size="10.00">/home/runner/work/diffblue</text>
<text text-anchor="start" x="13.5" y="-129.5" font-family="Helvetica,sans-Serif" font-size="10.00">&#45;cbmc/diffblue&#45;cbmc/src</text>
<text text-anchor="start" x="13.5" y="-118.5" font-family="Helvetica,sans-Serif" font-size="10.00">/analyses/variable&#45;sensitivity</text>
<text text-anchor="middle" x="103.5" y="-107.5" font-family="Helvetica,sans-Serif" font-size="10.00">/value_set_pointer_abstract_object.h</text>
</a>
</g>
</g>
<!-- Node2&#45;&gt;Node8 -->
<g id="edge7" class="edge">
<title>Node2&#45;&gt;Node8</title>
<path fill="none" stroke="midnightblue" d="M259.79,-185.86C230.95,-175.09 198.4,-162.94 170.51,-152.52"/>
<polygon fill="midnightblue" stroke="midnightblue" points="258.83,-189.23 269.42,-189.45 261.28,-182.68 258.83,-189.23"/>
</g>
<!-- Node4&#45;&gt;Node5 -->
<g id="edge4" class="edge">
<title>Node4&#45;&gt;Node5</title>
<path fill="none" stroke="midnightblue" d="M493.82,-90.65C498.24,-79.88 503.03,-68.23 507.13,-58.25"/>
<polygon fill="midnightblue" stroke="midnightblue" points="490.45,-89.64 489.88,-100.22 496.92,-92.3 490.45,-89.64"/>
</g>
<!-- Node6 -->
<g id="node6" class="node">
<title>Node6</title>
<g id="a_node6"><a xlink:href="value__set__abstract__object_8cpp.html" target="_top" xlink:title="Value Set Abstract Object.">
<polygon fill="none" stroke="black" points="795,-6 795,-58 962,-58 962,-6 795,-6"/>
<text text-anchor="start" x="803" y="-46" font-family="Helvetica,sans-Serif" font-size="10.00">/home/runner/work/diffblue</text>
<text text-anchor="start" x="803" y="-35" font-family="Helvetica,sans-Serif" font-size="10.00">&#45;cbmc/diffblue&#45;cbmc/src</text>
<text text-anchor="start" x="803" y="-24" font-family="Helvetica,sans-Serif" font-size="10.00">/analyses/variable&#45;sensitivity</text>
<text text-anchor="middle" x="878.5" y="-13" font-family="Helvetica,sans-Serif" font-size="10.00">/value_set_abstract_object.cpp</text>
</a>
</g>
</g>
<!-- Node4&#45;&gt;Node6 -->
<g id="edge5" class="edge">
<title>Node4&#45;&gt;Node6</title>
<path fill="none" stroke="midnightblue" d="M570.06,-107.5C658.68,-89.87 781.16,-65.43 786.5,-64 793.26,-62.19 800.24,-60.16 807.2,-58.01"/>
<polygon fill="midnightblue" stroke="midnightblue" points="569.37,-104.07 560.24,-109.45 570.74,-110.94 569.37,-104.07"/>
</g>
<!-- Node7 -->
<g id="node7" class="node">
<title>Node7</title>
<g id="a_node7"><a xlink:href="variable__sensitivity__object__factory_8cpp.html" target="_top" xlink:title=" ">
<polygon fill="none" stroke="black" points="258,-0.5 258,-63.5 419,-63.5 419,-0.5 258,-0.5"/>
<text text-anchor="start" x="266" y="-51.5" font-family="Helvetica,sans-Serif" font-size="10.00">/home/runner/work/diffblue</text>
<text text-anchor="start" x="266" y="-40.5" font-family="Helvetica,sans-Serif" font-size="10.00">&#45;cbmc/diffblue&#45;cbmc/src</text>
<text text-anchor="start" x="266" y="-29.5" font-family="Helvetica,sans-Serif" font-size="10.00">/analyses/variable&#45;sensitivity</text>
<text text-anchor="start" x="266" y="-18.5" font-family="Helvetica,sans-Serif" font-size="10.00">/variable_sensitivity_object</text>
<text text-anchor="middle" x="338.5" y="-7.5" font-family="Helvetica,sans-Serif" font-size="10.00">_factory.cpp</text>
</a>
</g>
</g>
<!-- Node4&#45;&gt;Node7 -->
<g id="edge6" class="edge">
<title>Node4&#45;&gt;Node7</title>
<path fill="none" stroke="midnightblue" d="M432.59,-94.73C417.36,-84.73 400.46,-73.65 385.24,-63.66"/>
<polygon fill="midnightblue" stroke="midnightblue" points="431.06,-97.91 441.34,-100.47 434.9,-92.06 431.06,-97.91"/>
</g>
<!-- Node8&#45;&gt;Node7 -->
<g id="edge9" class="edge">
<title>Node8&#45;&gt;Node7</title>
<path fill="none" stroke="midnightblue" d="M176.74,-96.67C203.38,-86.19 233.57,-74.3 260.6,-63.66"/>
<polygon fill="midnightblue" stroke="midnightblue" points="175.12,-93.55 167.09,-100.47 177.68,-100.06 175.12,-93.55"/>
</g>
<!-- Node9 -->
<g id="node9" class="node">
<title>Node9</title>
<g id="a_node9"><a xlink:href="value__set__pointer__abstract__object_8cpp.html" target="_top" xlink:title="Value Set of Pointer Abstract Object.">
<polygon fill="none" stroke="black" points="0,-6 0,-58 207,-58 207,-6 0,-6"/>
<text text-anchor="start" x="8" y="-46" font-family="Helvetica,sans-Serif" font-size="10.00">/home/runner/work/diffblue</text>
<text text-anchor="start" x="8" y="-35" font-family="Helvetica,sans-Serif" font-size="10.00">&#45;cbmc/diffblue&#45;cbmc/src</text>
<text text-anchor="start" x="8" y="-24" font-family="Helvetica,sans-Serif" font-size="10.00">/analyses/variable&#45;sensitivity</text>
<text text-anchor="middle" x="103.5" y="-13" font-family="Helvetica,sans-Serif" font-size="10.00">/value_set_pointer_abstract_object.cpp</text>
</a>
</g>
</g>
<!-- Node8&#45;&gt;Node9 -->
<g id="edge8" class="edge">
<title>Node8&#45;&gt;Node9</title>
<path fill="none" stroke="midnightblue" d="M103.5,-89.99C103.5,-79.41 103.5,-68.03 103.5,-58.25"/>
<polygon fill="midnightblue" stroke="midnightblue" points="100,-90.22 103.5,-100.22 107,-90.22 100,-90.22"/>
</g>
<!-- Node10&#45;&gt;Node5 -->
<g id="edge12" class="edge">
<title>Node10&#45;&gt;Node5</title>
<path fill="none" stroke="midnightblue" d="M639.88,-95.89C616.16,-83.7 588.97,-69.73 566.25,-58.05"/>
<polygon fill="midnightblue" stroke="midnightblue" points="638.3,-99.01 648.79,-100.47 641.49,-92.78 638.3,-99.01"/>
</g>
<!-- Node10&#45;&gt;Node6 -->
<g id="edge14" class="edge">
<title>Node10&#45;&gt;Node6</title>
<path fill="none" stroke="midnightblue" d="M755.44,-95.89C779.3,-83.7 806.64,-69.73 829.48,-58.05"/>
<polygon fill="midnightblue" stroke="midnightblue" points="753.79,-92.8 746.48,-100.47 756.98,-99.03 753.79,-92.8"/>
</g>
<!-- Node10&#45;&gt;Node7 -->
<g id="edge15" class="edge">
<title>Node10&#45;&gt;Node7</title>
<path fill="none" stroke="midnightblue" d="M606.86,-107.49C554.15,-96.36 486.65,-80.98 427.5,-64 424.83,-63.23 422.12,-62.43 419.38,-61.6"/>
<polygon fill="midnightblue" stroke="midnightblue" points="606.36,-110.96 616.86,-109.58 607.79,-104.1 606.36,-110.96"/>
</g>
<!-- Node11 -->
<g id="node11" class="node">
<title>Node11</title>
<g id="a_node11"><a xlink:href="constant__abstract__value_8cpp.html" target="_top" xlink:title=" ">
<polygon fill="none" stroke="black" points="616,-6 616,-58 777,-58 777,-6 616,-6"/>
<text text-anchor="start" x="624" y="-46" font-family="Helvetica,sans-Serif" font-size="10.00">/home/runner/work/diffblue</text>
<text text-anchor="start" x="624" y="-35" font-family="Helvetica,sans-Serif" font-size="10.00">&#45;cbmc/diffblue&#45;cbmc/src</text>
<text text-anchor="start" x="624" y="-24" font-family="Helvetica,sans-Serif" font-size="10.00">/analyses/variable&#45;sensitivity</text>
<text text-anchor="middle" x="696.5" y="-13" font-family="Helvetica,sans-Serif" font-size="10.00">/constant_abstract_value.cpp</text>
</a>
</g>
</g>
<!-- Node10&#45;&gt;Node11 -->
<g id="edge13" class="edge">
<title>Node10&#45;&gt;Node11</title>
<path fill="none" stroke="midnightblue" d="M697.12,-89.99C697,-79.41 696.88,-68.03 696.77,-58.25"/>
<polygon fill="midnightblue" stroke="midnightblue" points="693.62,-90.26 697.23,-100.22 700.62,-90.19 693.62,-90.26"/>
</g>
<!-- Node13&#45;&gt;Node5 -->
<g id="edge19" class="edge">
<title>Node13&#45;&gt;Node5</title>
<path fill="none" stroke="midnightblue" d="M786.56,-99.87C706.39,-81.17 683.17,-84.5 607.5,-64 600.96,-62.23 594.21,-60.23 587.48,-58.12"/>
<polygon fill="midnightblue" stroke="midnightblue" points="786.09,-103.35 796.63,-102.26 787.71,-96.54 786.09,-103.35"/>
</g>
<!-- Node13&#45;&gt;Node6 -->
<g id="edge21" class="edge">
<title>Node13&#45;&gt;Node6</title>
<path fill="none" stroke="midnightblue" d="M877.88,-89.99C878,-79.41 878.12,-68.03 878.23,-58.25"/>
<polygon fill="midnightblue" stroke="midnightblue" points="874.38,-90.19 877.77,-100.22 881.38,-90.26 874.38,-90.19"/>
</g>
<!-- Node13&#45;&gt;Node7 -->
<g id="edge22" class="edge">
<title>Node13&#45;&gt;Node7</title>
<path fill="none" stroke="midnightblue" d="M786.57,-99.99C627.64,-71.12 581.29,-97.97 427.5,-64 424.78,-63.4 422.04,-62.74 419.27,-62.04"/>
<polygon fill="midnightblue" stroke="midnightblue" points="786.24,-103.49 796.71,-101.88 787.52,-96.61 786.24,-103.49"/>
</g>
<!-- Node14 -->
<g id="node14" class="node">
<title>Node14</title>
<g id="a_node14"><a xlink:href="abstract__environment_8cpp.html" target="_top" xlink:title=" ">
<polygon fill="none" stroke="black" points="1159,-6 1159,-58 1320,-58 1320,-6 1159,-6"/>
<text text-anchor="start" x="1167" y="-46" font-family="Helvetica,sans-Serif" font-size="10.00">/home/runner/work/diffblue</text>
<text text-anchor="start" x="1167" y="-35" font-family="Helvetica,sans-Serif" font-size="10.00">&#45;cbmc/diffblue&#45;cbmc/src</text>
<text text-anchor="start" x="1167" y="-24" font-family="Helvetica,sans-Serif" font-size="10.00">/analyses/variable&#45;sensitivity</text>
<text text-anchor="middle" x="1239.5" y="-13" font-family="Helvetica,sans-Serif" font-size="10.00">/abstract_environment.cpp</text>
</a>
</g>
</g>
<!-- Node13&#45;&gt;Node14 -->
<g id="edge18" class="edge">
<title>Node13&#45;&gt;Node14</title>
<path fill="none" stroke="midnightblue" d="M967.94,-107.82C1021.42,-96.7 1090.25,-81.22 1150.5,-64 1156.79,-62.2 1163.29,-60.21 1169.78,-58.12"/>
<polygon fill="midnightblue" stroke="midnightblue" points="967.23,-104.39 958.14,-109.84 968.64,-111.25 967.23,-104.39"/>
</g>
<!-- Node15 -->
<g id="node15" class="node">
<title>Node15</title>
<g id="a_node15"><a xlink:href="interval__abstract__value_8cpp.html" target="_top" xlink:title=" ">
<polygon fill="none" stroke="black" points="980,-6 980,-58 1141,-58 1141,-6 980,-6"/>
<text text-anchor="start" x="988" y="-46" font-family="Helvetica,sans-Serif" font-size="10.00">/home/runner/work/diffblue</text>
<text text-anchor="start" x="988" y="-35" font-family="Helvetica,sans-Serif" font-size="10.00">&#45;cbmc/diffblue&#45;cbmc/src</text>
<text text-anchor="start" x="988" y="-24" font-family="Helvetica,sans-Serif" font-size="10.00">/analyses/variable&#45;sensitivity</text>
<text text-anchor="middle" x="1060.5" y="-13" font-family="Helvetica,sans-Serif" font-size="10.00">/interval_abstract_value.cpp</text>
</a>
</g>
</g>
<!-- Node13&#45;&gt;Node15 -->
<g id="edge20" class="edge">
<title>Node13&#45;&gt;Node15</title>
<path fill="none" stroke="midnightblue" d="M936.08,-95.89C960.2,-83.7 987.84,-69.73 1010.94,-58.05"/>
<polygon fill="midnightblue" stroke="midnightblue" points="934.37,-92.83 927.02,-100.47 937.53,-99.08 934.37,-92.83"/>
</g>
</g>
</svg>
