<?xml version="1.0" encoding="UTF-8" standalone="no"?>
<!DOCTYPE svg PUBLIC "-//W3C//DTD SVG 1.1//EN"
 "http://www.w3.org/Graphics/SVG/1.1/DTD/svg11.dtd">
<!-- Generated by graphviz version 2.43.0 (0)
 -->
<!-- Title: /home/runner/work/diffblue&#45;cbmc/diffblue&#45;cbmc/src/goto&#45;instrument/wmm/abstract_event.h Pages: 1 -->
<svg width="1108pt" height="328pt"
 viewBox="0.00 0.00 1108.00 328.00" xmlns="http://www.w3.org/2000/svg" xmlns:xlink="http://www.w3.org/1999/xlink">
<g id="graph0" class="graph" transform="scale(1 1) rotate(0) translate(4 324)">
<title>/home/runner/work/diffblue&#45;cbmc/diffblue&#45;cbmc/src/goto&#45;instrument/wmm/abstract_event.h</title>
<!-- Node1 -->
<g id="node1" class="node">
<title>Node1</title>
<g id="a_node1"><a xlink:title="abstract events">
<polygon fill="#bfbfbf" stroke="black" points="200,-267.5 200,-319.5 372,-319.5 372,-267.5 200,-267.5"/>
<text text-anchor="start" x="208" y="-307.5" font-family="Helvetica,sans-Serif" font-size="10.00">/home/runner/work/diffblue</text>
<text text-anchor="start" x="208" y="-296.5" font-family="Helvetica,sans-Serif" font-size="10.00">&#45;cbmc/diffblue&#45;cbmc/src</text>
<text text-anchor="start" x="208" y="-285.5" font-family="Helvetica,sans-Serif" font-size="10.00">/goto&#45;instrument/wmm/abstract</text>
<text text-anchor="middle" x="286" y="-274.5" font-family="Helvetica,sans-Serif" font-size="10.00">_event.h</text>
</a>
</g>
</g>
<!-- Node2 -->
<g id="node2" class="node">
<title>Node2</title>
<g id="a_node2"><a xlink:href="abstract__event_8cpp.html" target="_top" xlink:title="abstract events">
<polygon fill="none" stroke="black" points="0,-178.5 0,-230.5 172,-230.5 172,-178.5 0,-178.5"/>
<text text-anchor="start" x="8" y="-218.5" font-family="Helvetica,sans-Serif" font-size="10.00">/home/runner/work/diffblue</text>
<text text-anchor="start" x="8" y="-207.5" font-family="Helvetica,sans-Serif" font-size="10.00">&#45;cbmc/diffblue&#45;cbmc/src</text>
<text text-anchor="start" x="8" y="-196.5" font-family="Helvetica,sans-Serif" font-size="10.00">/goto&#45;instrument/wmm/abstract</text>
<text text-anchor="middle" x="86" y="-185.5" font-family="Helvetica,sans-Serif" font-size="10.00">_event.cpp</text>
</a>
</g>
</g>
<!-- Node1&#45;&gt;Node2 -->
<g id="edge1" class="edge">
<title>Node1&#45;&gt;Node2</title>
<path fill="none" stroke="midnightblue" d="M219.19,-263.44C194.67,-252.77 167.15,-240.8 143.52,-230.52"/>
<polygon fill="midnightblue" stroke="midnightblue" points="217.85,-266.67 228.42,-267.45 220.65,-260.25 217.85,-266.67"/>
</g>
<!-- Node3 -->
<g id="node3" class="node">
<title>Node3</title>
<g id="a_node3"><a xlink:href="data__dp_8cpp.html" target="_top" xlink:title="data dependencies">
<polygon fill="none" stroke="black" points="190.5,-184 190.5,-225 381.5,-225 381.5,-184 190.5,-184"/>
<text text-anchor="start" x="198.5" y="-213" font-family="Helvetica,sans-Serif" font-size="10.00">/home/runner/work/diffblue</text>
<text text-anchor="start" x="198.5" y="-202" font-family="Helvetica,sans-Serif" font-size="10.00">&#45;cbmc/diffblue&#45;cbmc/src</text>
<text text-anchor="middle" x="286" y="-191" font-family="Helvetica,sans-Serif" font-size="10.00">/goto&#45;instrument/wmm/data_dp.cpp</text>
</a>
</g>
</g>
<!-- Node1&#45;&gt;Node3 -->
<g id="edge2" class="edge">
<title>Node1&#45;&gt;Node3</title>
<path fill="none" stroke="midnightblue" d="M286,-257.16C286,-246.21 286,-234.55 286,-225.08"/>
<polygon fill="midnightblue" stroke="midnightblue" points="282.5,-257.34 286,-267.34 289.5,-257.34 282.5,-257.34"/>
</g>
<!-- Node4 -->
<g id="node4" class="node">
<title>Node4</title>
<g id="a_node4"><a xlink:href="event__graph_8h.html" target="_top" xlink:title="graph of abstract events">
<polygon fill="none" stroke="black" points="400,-178.5 400,-230.5 560,-230.5 560,-178.5 400,-178.5"/>
<text text-anchor="start" x="408" y="-218.5" font-family="Helvetica,sans-Serif" font-size="10.00">/home/runner/work/diffblue</text>
<text text-anchor="start" x="408" y="-207.5" font-family="Helvetica,sans-Serif" font-size="10.00">&#45;cbmc/diffblue&#45;cbmc/src</text>
<text text-anchor="start" x="408" y="-196.5" font-family="Helvetica,sans-Serif" font-size="10.00">/goto&#45;instrument/wmm/event</text>
<text text-anchor="middle" x="480" y="-185.5" font-family="Helvetica,sans-Serif" font-size="10.00">_graph.h</text>
</a>
</g>
</g>
<!-- Node1&#45;&gt;Node4 -->
<g id="edge3" class="edge">
<title>Node1&#45;&gt;Node4</title>
<path fill="none" stroke="midnightblue" d="M351.12,-263.29C374.83,-252.67 401.39,-240.76 424.21,-230.52"/>
<polygon fill="midnightblue" stroke="midnightblue" points="349.54,-260.17 341.85,-267.45 352.41,-266.55 349.54,-260.17"/>
</g>
<!-- Node5 -->
<g id="node5" class="node">
<title>Node5</title>
<g id="a_node5"><a xlink:href="cycle__collection_8cpp.html" target="_top" xlink:title="collection of cycles in graph of abstract events">
<polygon fill="none" stroke="black" points="116,-89.5 116,-141.5 274,-141.5 274,-89.5 116,-89.5"/>
<text text-anchor="start" x="124" y="-129.5" font-family="Helvetica,sans-Serif" font-size="10.00">/home/runner/work/diffblue</text>
<text text-anchor="start" x="124" y="-118.5" font-family="Helvetica,sans-Serif" font-size="10.00">&#45;cbmc/diffblue&#45;cbmc/src</text>
<text text-anchor="start" x="124" y="-107.5" font-family="Helvetica,sans-Serif" font-size="10.00">/goto&#45;instrument/wmm/cycle</text>
<text text-anchor="middle" x="195" y="-96.5" font-family="Helvetica,sans-Serif" font-size="10.00">_collection.cpp</text>
</a>
</g>
</g>
<!-- Node4&#45;&gt;Node5 -->
<g id="edge4" class="edge">
<title>Node4&#45;&gt;Node5</title>
<path fill="none" stroke="midnightblue" d="M390.02,-176.03C352.81,-164.67 310.04,-151.62 274.05,-140.63"/>
<polygon fill="midnightblue" stroke="midnightblue" points="389.27,-179.46 399.85,-179.03 391.31,-172.77 389.27,-179.46"/>
</g>
<!-- Node6 -->
<g id="node6" class="node">
<title>Node6</title>
<g id="a_node6"><a xlink:href="event__graph_8cpp.html" target="_top" xlink:title="graph of abstract events">
<polygon fill="none" stroke="black" points="292,-89.5 292,-141.5 452,-141.5 452,-89.5 292,-89.5"/>
<text text-anchor="start" x="300" y="-129.5" font-family="Helvetica,sans-Serif" font-size="10.00">/home/runner/work/diffblue</text>
<text text-anchor="start" x="300" y="-118.5" font-family="Helvetica,sans-Serif" font-size="10.00">&#45;cbmc/diffblue&#45;cbmc/src</text>
<text text-anchor="start" x="300" y="-107.5" font-family="Helvetica,sans-Serif" font-size="10.00">/goto&#45;instrument/wmm/event</text>
<text text-anchor="middle" x="372" y="-96.5" font-family="Helvetica,sans-Serif" font-size="10.00">_graph.cpp</text>
</a>
</g>
</g>
<!-- Node4&#45;&gt;Node6 -->
<g id="edge5" class="edge">
<title>Node4&#45;&gt;Node6</title>
<path fill="none" stroke="midnightblue" d="M440.81,-171.93C428.43,-161.96 414.91,-151.07 403.17,-141.61"/>
<polygon fill="midnightblue" stroke="midnightblue" points="438.78,-174.79 448.76,-178.34 443.17,-169.34 438.78,-174.79"/>
</g>
<!-- Node7 -->
<g id="node7" class="node">
<title>Node7</title>
<g id="a_node7"><a xlink:href="goto2graph_8h.html" target="_top" xlink:title="Instrumenter.">
<polygon fill="none" stroke="black" points="508.5,-95 508.5,-136 705.5,-136 705.5,-95 508.5,-95"/>
<text text-anchor="start" x="516.5" y="-124" font-family="Helvetica,sans-Serif" font-size="10.00">/home/runner/work/diffblue</text>
<text text-anchor="start" x="516.5" y="-113" font-family="Helvetica,sans-Serif" font-size="10.00">&#45;cbmc/diffblue&#45;cbmc/src</text>
<text text-anchor="middle" x="607" y="-102" font-family="Helvetica,sans-Serif" font-size="10.00">/goto&#45;instrument/wmm/goto2graph.h</text>
</a>
</g>
</g>
<!-- Node4&#45;&gt;Node7 -->
<g id="edge6" class="edge">
<title>Node4&#45;&gt;Node7</title>
<path fill="none" stroke="midnightblue" d="M525.24,-172.51C542.95,-160.37 562.74,-146.82 578.41,-136.08"/>
<polygon fill="midnightblue" stroke="midnightblue" points="523.01,-169.8 516.73,-178.34 526.96,-175.57 523.01,-169.8"/>
</g>
<!-- Node9 -->
<g id="node9" class="node">
<title>Node9</title>
<g id="a_node9"><a xlink:href="instrumenter__pensieve_8h.html" target="_top" xlink:title="Instrumenter.">
<polygon fill="none" stroke="black" points="289.5,-0.5 289.5,-52.5 484.5,-52.5 484.5,-0.5 289.5,-0.5"/>
<text text-anchor="start" x="297.5" y="-40.5" font-family="Helvetica,sans-Serif" font-size="10.00">/home/runner/work/diffblue</text>
<text text-anchor="start" x="297.5" y="-29.5" font-family="Helvetica,sans-Serif" font-size="10.00">&#45;cbmc/diffblue&#45;cbmc/src</text>
<text text-anchor="start" x="297.5" y="-18.5" font-family="Helvetica,sans-Serif" font-size="10.00">/goto&#45;instrument/wmm/instrumenter</text>
<text text-anchor="middle" x="387" y="-7.5" font-family="Helvetica,sans-Serif" font-size="10.00">_pensieve.h</text>
</a>
</g>
</g>
<!-- Node4&#45;&gt;Node9 -->
<g id="edge11" class="edge">
<title>Node4&#45;&gt;Node9</title>
<path fill="none" stroke="midnightblue" d="M480.42,-168.13C479.26,-144.34 474.8,-113.05 461,-89 452.85,-74.8 440.1,-62.46 427.46,-52.64"/>
<polygon fill="midnightblue" stroke="midnightblue" points="476.93,-168.27 480.74,-178.15 483.92,-168.04 476.93,-168.27"/>
</g>
<!-- Node12 -->
<g id="node12" class="node">
<title>Node12</title>
<g id="a_node12"><a xlink:href="pair__collection_8cpp.html" target="_top" xlink:title="collection of pairs (for Pensieve&#39;s static delay&#45;set analysis) in graph of abstract events">
<polygon fill="none" stroke="black" points="723.5,-89.5 723.5,-141.5 874.5,-141.5 874.5,-89.5 723.5,-89.5"/>
<text text-anchor="start" x="731.5" y="-129.5" font-family="Helvetica,sans-Serif" font-size="10.00">/home/runner/work/diffblue</text>
<text text-anchor="start" x="731.5" y="-118.5" font-family="Helvetica,sans-Serif" font-size="10.00">&#45;cbmc/diffblue&#45;cbmc/src</text>
<text text-anchor="start" x="731.5" y="-107.5" font-family="Helvetica,sans-Serif" font-size="10.00">/goto&#45;instrument/wmm/pair</text>
<text text-anchor="middle" x="799" y="-96.5" font-family="Helvetica,sans-Serif" font-size="10.00">_collection.cpp</text>
</a>
</g>
</g>
<!-- Node4&#45;&gt;Node12 -->
<g id="edge12" class="edge">
<title>Node4&#45;&gt;Node12</title>
<path fill="none" stroke="midnightblue" d="M569.93,-180.84C613.8,-169.56 667.27,-155.48 715,-142 717.79,-141.21 720.62,-140.4 723.48,-139.58"/>
<polygon fill="midnightblue" stroke="midnightblue" points="568.97,-177.47 560.15,-183.34 570.71,-184.25 568.97,-177.47"/>
</g>
<!-- Node8 -->
<g id="node8" class="node">
<title>Node8</title>
<g id="a_node8"><a xlink:href="goto2graph_8cpp.html" target="_top" xlink:title="Turns a goto&#45;program into an abstract event graph.">
<polygon fill="none" stroke="black" points="503,-6 503,-47 711,-47 711,-6 503,-6"/>
<text text-anchor="start" x="511" y="-35" font-family="Helvetica,sans-Serif" font-size="10.00">/home/runner/work/diffblue</text>
<text text-anchor="start" x="511" y="-24" font-family="Helvetica,sans-Serif" font-size="10.00">&#45;cbmc/diffblue&#45;cbmc/src</text>
<text text-anchor="middle" x="607" y="-13" font-family="Helvetica,sans-Serif" font-size="10.00">/goto&#45;instrument/wmm/goto2graph.cpp</text>
</a>
</g>
</g>
<!-- Node7&#45;&gt;Node8 -->
<g id="edge7" class="edge">
<title>Node7&#45;&gt;Node8</title>
<path fill="none" stroke="midnightblue" d="M607,-84.44C607,-72.1 607,-58.16 607,-47.16"/>
<polygon fill="midnightblue" stroke="midnightblue" points="603.5,-84.76 607,-94.76 610.5,-84.76 603.5,-84.76"/>
</g>
<!-- Node7&#45;&gt;Node9 -->
<g id="edge8" class="edge">
<title>Node7&#45;&gt;Node9</title>
<path fill="none" stroke="midnightblue" d="M548.09,-91.2C517.94,-79.28 481.2,-64.75 450.43,-52.58"/>
<polygon fill="midnightblue" stroke="midnightblue" points="547.04,-94.55 557.63,-94.98 549.62,-88.04 547.04,-94.55"/>
</g>
<!-- Node10 -->
<g id="node10" class="node">
<title>Node10</title>
<g id="a_node10"><a xlink:href="instrumenter__strategies_8cpp.html" target="_top" xlink:title="Strategies for picking the abstract events to instrument.">
<polygon fill="none" stroke="black" points="729.5,-0.5 729.5,-52.5 924.5,-52.5 924.5,-0.5 729.5,-0.5"/>
<text text-anchor="start" x="737.5" y="-40.5" font-family="Helvetica,sans-Serif" font-size="10.00">/home/runner/work/diffblue</text>
<text text-anchor="start" x="737.5" y="-29.5" font-family="Helvetica,sans-Serif" font-size="10.00">&#45;cbmc/diffblue&#45;cbmc/src</text>
<text text-anchor="start" x="737.5" y="-18.5" font-family="Helvetica,sans-Serif" font-size="10.00">/goto&#45;instrument/wmm/instrumenter</text>
<text text-anchor="middle" x="827" y="-7.5" font-family="Helvetica,sans-Serif" font-size="10.00">_strategies.cpp</text>
</a>
</g>
</g>
<!-- Node7&#45;&gt;Node10 -->
<g id="edge9" class="edge">
<title>Node7&#45;&gt;Node10</title>
<path fill="none" stroke="midnightblue" d="M665.91,-91.2C696.06,-79.28 732.8,-64.75 763.57,-52.58"/>
<polygon fill="midnightblue" stroke="midnightblue" points="664.38,-88.04 656.37,-94.98 666.96,-94.55 664.38,-88.04"/>
</g>
<!-- Node11 -->
<g id="node11" class="node">
<title>Node11</title>
<g id="a_node11"><a xlink:href="weak__memory_8cpp.html" target="_top" xlink:title="Weak Memory Instrumentation for Threaded Goto Programs.">
<polygon fill="none" stroke="black" points="942,-0.5 942,-52.5 1100,-52.5 1100,-0.5 942,-0.5"/>
<text text-anchor="start" x="950" y="-40.5" font-family="Helvetica,sans-Serif" font-size="10.00">/home/runner/work/diffblue</text>
<text text-anchor="start" x="950" y="-29.5" font-family="Helvetica,sans-Serif" font-size="10.00">&#45;cbmc/diffblue&#45;cbmc/src</text>
<text text-anchor="start" x="950" y="-18.5" font-family="Helvetica,sans-Serif" font-size="10.00">/goto&#45;instrument/wmm/weak</text>
<text text-anchor="middle" x="1021" y="-7.5" font-family="Helvetica,sans-Serif" font-size="10.00">_memory.cpp</text>
</a>
</g>
</g>
<!-- Node7&#45;&gt;Node11 -->
<g id="edge10" class="edge">
<title>Node7&#45;&gt;Node11</title>
<path fill="none" stroke="midnightblue" d="M697.21,-92.71C703.22,-91.41 709.19,-90.16 715,-89 811.72,-69.66 837.83,-74.91 934,-53 936.61,-52.41 939.25,-51.78 941.92,-51.12"/>
<polygon fill="midnightblue" stroke="midnightblue" points="696.09,-89.38 687.07,-94.95 697.59,-96.21 696.09,-89.38"/>
</g>
</g>
</svg>
