<?xml version="1.0" encoding="UTF-8" standalone="no"?>
<!DOCTYPE svg PUBLIC "-//W3C//DTD SVG 1.1//EN"
 "http://www.w3.org/Graphics/SVG/1.1/DTD/svg11.dtd">
<!-- Generated by graphviz version 2.43.0 (0)
 -->
<!-- Title: /home/runner/work/diffblue&#45;cbmc/diffblue&#45;cbmc/src/analyses/variable&#45;sensitivity/abstract_pointer_object.h Pages: 1 -->
<svg width="849pt" height="250pt"
 viewBox="0.00 0.00 849.00 250.00" xmlns="http://www.w3.org/2000/svg" xmlns:xlink="http://www.w3.org/1999/xlink">
<g id="graph0" class="graph" transform="scale(1 1) rotate(0) translate(4 246)">
<title>/home/runner/work/diffblue&#45;cbmc/diffblue&#45;cbmc/src/analyses/variable&#45;sensitivity/abstract_pointer_object.h</title>
<!-- Node1 -->
<g id="node1" class="node">
<title>Node1</title>
<g id="a_node1"><a xlink:title="The base of all pointer abstractions.">
<polygon fill="#bfbfbf" stroke="black" points="333.5,-189.5 333.5,-241.5 494.5,-241.5 494.5,-189.5 333.5,-189.5"/>
<text text-anchor="start" x="341.5" y="-229.5" font-family="Helvetica,sans-Serif" font-size="10.00">/home/runner/work/diffblue</text>
<text text-anchor="start" x="341.5" y="-218.5" font-family="Helvetica,sans-Serif" font-size="10.00">&#45;cbmc/diffblue&#45;cbmc/src</text>
<text text-anchor="start" x="341.5" y="-207.5" font-family="Helvetica,sans-Serif" font-size="10.00">/analyses/variable&#45;sensitivity</text>
<text text-anchor="middle" x="414" y="-196.5" font-family="Helvetica,sans-Serif" font-size="10.00">/abstract_pointer_object.h</text>
</a>
</g>
</g>
<!-- Node2 -->
<g id="node2" class="node">
<title>Node2</title>
<g id="a_node2"><a xlink:href="abstract__pointer__object_8cpp.html" target="_top" xlink:title=" ">
<polygon fill="none" stroke="black" points="33.5,-100.5 33.5,-152.5 194.5,-152.5 194.5,-100.5 33.5,-100.5"/>
<text text-anchor="start" x="41.5" y="-140.5" font-family="Helvetica,sans-Serif" font-size="10.00">/home/runner/work/diffblue</text>
<text text-anchor="start" x="41.5" y="-129.5" font-family="Helvetica,sans-Serif" font-size="10.00">&#45;cbmc/diffblue&#45;cbmc/src</text>
<text text-anchor="start" x="41.5" y="-118.5" font-family="Helvetica,sans-Serif" font-size="10.00">/analyses/variable&#45;sensitivity</text>
<text text-anchor="middle" x="114" y="-107.5" font-family="Helvetica,sans-Serif" font-size="10.00">/abstract_pointer_object.cpp</text>
</a>
</g>
</g>
<!-- Node1&#45;&gt;Node2 -->
<g id="edge1" class="edge">
<title>Node1&#45;&gt;Node2</title>
<path fill="none" stroke="midnightblue" d="M323.49,-188.25C282.5,-176.36 234.42,-162.42 194.67,-150.9"/>
<polygon fill="midnightblue" stroke="midnightblue" points="322.63,-191.65 333.21,-191.07 324.58,-184.92 322.63,-191.65"/>
</g>
<!-- Node3 -->
<g id="node3" class="node">
<title>Node3</title>
<g id="a_node3"><a xlink:href="constant__pointer__abstract__object_8h.html" target="_top" xlink:title="An abstraction of a pointer that tracks a single pointer.">
<polygon fill="none" stroke="black" points="212.5,-100.5 212.5,-152.5 403.5,-152.5 403.5,-100.5 212.5,-100.5"/>
<text text-anchor="start" x="220.5" y="-140.5" font-family="Helvetica,sans-Serif" font-size="10.00">/home/runner/work/diffblue</text>
<text text-anchor="start" x="220.5" y="-129.5" font-family="Helvetica,sans-Serif" font-size="10.00">&#45;cbmc/diffblue&#45;cbmc/src</text>
<text text-anchor="start" x="220.5" y="-118.5" font-family="Helvetica,sans-Serif" font-size="10.00">/analyses/variable&#45;sensitivity</text>
<text text-anchor="middle" x="308" y="-107.5" font-family="Helvetica,sans-Serif" font-size="10.00">/constant_pointer_abstract_object.h</text>
</a>
</g>
</g>
<!-- Node1&#45;&gt;Node3 -->
<g id="edge2" class="edge">
<title>Node1&#45;&gt;Node3</title>
<path fill="none" stroke="midnightblue" d="M375.54,-182.93C363.38,-172.96 350.12,-162.07 338.59,-152.61"/>
<polygon fill="midnightblue" stroke="midnightblue" points="373.39,-185.7 383.34,-189.34 377.83,-180.29 373.39,-185.7"/>
</g>
<!-- Node7 -->
<g id="node7" class="node">
<title>Node7</title>
<g id="a_node7"><a xlink:href="two__value__pointer__abstract__object_8h.html" target="_top" xlink:title=" ">
<polygon fill="none" stroke="black" points="636.5,-100.5 636.5,-152.5 835.5,-152.5 835.5,-100.5 636.5,-100.5"/>
<text text-anchor="start" x="644.5" y="-140.5" font-family="Helvetica,sans-Serif" font-size="10.00">/home/runner/work/diffblue</text>
<text text-anchor="start" x="644.5" y="-129.5" font-family="Helvetica,sans-Serif" font-size="10.00">&#45;cbmc/diffblue&#45;cbmc/src</text>
<text text-anchor="start" x="644.5" y="-118.5" font-family="Helvetica,sans-Serif" font-size="10.00">/analyses/variable&#45;sensitivity</text>
<text text-anchor="middle" x="736" y="-107.5" font-family="Helvetica,sans-Serif" font-size="10.00">/two_value_pointer_abstract_object.h</text>
</a>
</g>
</g>
<!-- Node1&#45;&gt;Node7 -->
<g id="edge6" class="edge">
<title>Node1&#45;&gt;Node7</title>
<path fill="none" stroke="midnightblue" d="M504.53,-190.04C547.91,-178.32 599.8,-164.3 643.44,-152.51"/>
<polygon fill="midnightblue" stroke="midnightblue" points="503.58,-186.67 494.84,-192.66 505.41,-193.43 503.58,-186.67"/>
</g>
<!-- Node9 -->
<g id="node9" class="node">
<title>Node9</title>
<g id="a_node9"><a xlink:href="value__set__pointer__abstract__object_8h.html" target="_top" xlink:title="Value Set of Pointer Abstract Object.">
<polygon fill="none" stroke="black" points="422,-100.5 422,-152.5 618,-152.5 618,-100.5 422,-100.5"/>
<text text-anchor="start" x="430" y="-140.5" font-family="Helvetica,sans-Serif" font-size="10.00">/home/runner/work/diffblue</text>
<text text-anchor="start" x="430" y="-129.5" font-family="Helvetica,sans-Serif" font-size="10.00">&#45;cbmc/diffblue&#45;cbmc/src</text>
<text text-anchor="start" x="430" y="-118.5" font-family="Helvetica,sans-Serif" font-size="10.00">/analyses/variable&#45;sensitivity</text>
<text text-anchor="middle" x="520" y="-107.5" font-family="Helvetica,sans-Serif" font-size="10.00">/value_set_pointer_abstract_object.h</text>
</a>
</g>
</g>
<!-- Node1&#45;&gt;Node9 -->
<g id="edge9" class="edge">
<title>Node1&#45;&gt;Node9</title>
<path fill="none" stroke="midnightblue" d="M452.46,-182.93C464.62,-172.96 477.88,-162.07 489.41,-152.61"/>
<polygon fill="midnightblue" stroke="midnightblue" points="450.17,-180.29 444.66,-189.34 454.61,-185.7 450.17,-180.29"/>
</g>
<!-- Node4 -->
<g id="node4" class="node">
<title>Node4</title>
<g id="a_node4"><a xlink:href="constant__pointer__abstract__object_8cpp.html" target="_top" xlink:title=" ">
<polygon fill="none" stroke="black" points="0,-6 0,-58 202,-58 202,-6 0,-6"/>
<text text-anchor="start" x="8" y="-46" font-family="Helvetica,sans-Serif" font-size="10.00">/home/runner/work/diffblue</text>
<text text-anchor="start" x="8" y="-35" font-family="Helvetica,sans-Serif" font-size="10.00">&#45;cbmc/diffblue&#45;cbmc/src</text>
<text text-anchor="start" x="8" y="-24" font-family="Helvetica,sans-Serif" font-size="10.00">/analyses/variable&#45;sensitivity</text>
<text text-anchor="middle" x="101" y="-13" font-family="Helvetica,sans-Serif" font-size="10.00">/constant_pointer_abstract_object.cpp</text>
</a>
</g>
</g>
<!-- Node3&#45;&gt;Node4 -->
<g id="edge3" class="edge">
<title>Node3&#45;&gt;Node4</title>
<path fill="none" stroke="midnightblue" d="M242.82,-96.37C215.28,-84.07 183.53,-69.88 157.06,-58.05"/>
<polygon fill="midnightblue" stroke="midnightblue" points="241.42,-99.58 251.98,-100.47 244.28,-93.19 241.42,-99.58"/>
</g>
<!-- Node5 -->
<g id="node5" class="node">
<title>Node5</title>
<g id="a_node5"><a xlink:href="value__set__pointer__abstract__object_8cpp.html" target="_top" xlink:title="Value Set of Pointer Abstract Object.">
<polygon fill="none" stroke="black" points="220.5,-6 220.5,-58 427.5,-58 427.5,-6 220.5,-6"/>
<text text-anchor="start" x="228.5" y="-46" font-family="Helvetica,sans-Serif" font-size="10.00">/home/runner/work/diffblue</text>
<text text-anchor="start" x="228.5" y="-35" font-family="Helvetica,sans-Serif" font-size="10.00">&#45;cbmc/diffblue&#45;cbmc/src</text>
<text text-anchor="start" x="228.5" y="-24" font-family="Helvetica,sans-Serif" font-size="10.00">/analyses/variable&#45;sensitivity</text>
<text text-anchor="middle" x="324" y="-13" font-family="Helvetica,sans-Serif" font-size="10.00">/value_set_pointer_abstract_object.cpp</text>
</a>
</g>
</g>
<!-- Node3&#45;&gt;Node5 -->
<g id="edge4" class="edge">
<title>Node3&#45;&gt;Node5</title>
<path fill="none" stroke="midnightblue" d="M314.08,-90.32C315.93,-79.65 317.92,-68.13 319.63,-58.25"/>
<polygon fill="midnightblue" stroke="midnightblue" points="310.63,-89.77 312.37,-100.22 317.53,-90.97 310.63,-89.77"/>
</g>
<!-- Node6 -->
<g id="node6" class="node">
<title>Node6</title>
<g id="a_node6"><a xlink:href="variable__sensitivity__object__factory_8cpp.html" target="_top" xlink:title=" ">
<polygon fill="none" stroke="black" points="445.5,-0.5 445.5,-63.5 606.5,-63.5 606.5,-0.5 445.5,-0.5"/>
<text text-anchor="start" x="453.5" y="-51.5" font-family="Helvetica,sans-Serif" font-size="10.00">/home/runner/work/diffblue</text>
<text text-anchor="start" x="453.5" y="-40.5" font-family="Helvetica,sans-Serif" font-size="10.00">&#45;cbmc/diffblue&#45;cbmc/src</text>
<text text-anchor="start" x="453.5" y="-29.5" font-family="Helvetica,sans-Serif" font-size="10.00">/analyses/variable&#45;sensitivity</text>
<text text-anchor="start" x="453.5" y="-18.5" font-family="Helvetica,sans-Serif" font-size="10.00">/variable_sensitivity_object</text>
<text text-anchor="middle" x="526" y="-7.5" font-family="Helvetica,sans-Serif" font-size="10.00">_factory.cpp</text>
</a>
</g>
</g>
<!-- Node3&#45;&gt;Node6 -->
<g id="edge5" class="edge">
<title>Node3&#45;&gt;Node6</title>
<path fill="none" stroke="midnightblue" d="M376.26,-96.54C400.9,-86.08 428.77,-74.26 453.74,-63.66"/>
<polygon fill="midnightblue" stroke="midnightblue" points="374.83,-93.34 366.99,-100.47 377.57,-99.78 374.83,-93.34"/>
</g>
<!-- Node7&#45;&gt;Node6 -->
<g id="edge8" class="edge">
<title>Node7&#45;&gt;Node6</title>
<path fill="none" stroke="midnightblue" d="M669.93,-96.4C646.28,-85.98 619.55,-74.21 595.61,-63.66"/>
<polygon fill="midnightblue" stroke="midnightblue" points="668.61,-99.64 679.17,-100.47 671.43,-93.23 668.61,-99.64"/>
</g>
<!-- Node8 -->
<g id="node8" class="node">
<title>Node8</title>
<g id="a_node8"><a xlink:href="two__value__pointer__abstract__object_8cpp.html" target="_top" xlink:title=" ">
<polygon fill="none" stroke="black" points="631,-6 631,-58 841,-58 841,-6 631,-6"/>
<text text-anchor="start" x="639" y="-46" font-family="Helvetica,sans-Serif" font-size="10.00">/home/runner/work/diffblue</text>
<text text-anchor="start" x="639" y="-35" font-family="Helvetica,sans-Serif" font-size="10.00">&#45;cbmc/diffblue&#45;cbmc/src</text>
<text text-anchor="start" x="639" y="-24" font-family="Helvetica,sans-Serif" font-size="10.00">/analyses/variable&#45;sensitivity</text>
<text text-anchor="middle" x="736" y="-13" font-family="Helvetica,sans-Serif" font-size="10.00">/two_value_pointer_abstract_object.cpp</text>
</a>
</g>
</g>
<!-- Node7&#45;&gt;Node8 -->
<g id="edge7" class="edge">
<title>Node7&#45;&gt;Node8</title>
<path fill="none" stroke="midnightblue" d="M736,-89.99C736,-79.41 736,-68.03 736,-58.25"/>
<polygon fill="midnightblue" stroke="midnightblue" points="732.5,-90.22 736,-100.22 739.5,-90.22 732.5,-90.22"/>
</g>
<!-- Node9&#45;&gt;Node5 -->
<g id="edge10" class="edge">
<title>Node9&#45;&gt;Node5</title>
<path fill="none" stroke="midnightblue" d="M457.6,-96.05C431.69,-83.82 401.93,-69.78 377.08,-58.05"/>
<polygon fill="midnightblue" stroke="midnightblue" points="456.42,-99.37 466.96,-100.47 459.41,-93.03 456.42,-99.37"/>
</g>
<!-- Node9&#45;&gt;Node6 -->
<g id="edge11" class="edge">
<title>Node9&#45;&gt;Node6</title>
<path fill="none" stroke="midnightblue" d="M522.29,-90.23C522.86,-81.43 523.47,-72.06 524.02,-63.51"/>
<polygon fill="midnightblue" stroke="midnightblue" points="518.79,-90.02 521.64,-100.22 525.78,-90.47 518.79,-90.02"/>
</g>
</g>
</svg>
