<?xml version="1.0" encoding="UTF-8" standalone="no"?>
<!DOCTYPE svg PUBLIC "-//W3C//DTD SVG 1.1//EN"
 "http://www.w3.org/Graphics/SVG/1.1/DTD/svg11.dtd">
<!-- Generated by graphviz version 2.43.0 (0)
 -->
<!-- Title: /home/runner/work/diffblue&#45;cbmc/diffblue&#45;cbmc/src/analyses/variable&#45;sensitivity/abstract_aggregate_object.h Pages: 1 -->
<svg width="983pt" height="250pt"
 viewBox="0.00 0.00 983.00 250.00" xmlns="http://www.w3.org/2000/svg" xmlns:xlink="http://www.w3.org/1999/xlink">
<g id="graph0" class="graph" transform="scale(1 1) rotate(0) translate(4 246)">
<title>/home/runner/work/diffblue&#45;cbmc/diffblue&#45;cbmc/src/analyses/variable&#45;sensitivity/abstract_aggregate_object.h</title>
<!-- Node1 -->
<g id="node1" class="node">
<title>Node1</title>
<g id="a_node1"><a xlink:title="Common behaviour for abstract objects modelling aggregate values &#45; arrays, structs,...">
<polygon fill="#bfbfbf" stroke="black" points="406,-189.5 406,-241.5 567,-241.5 567,-189.5 406,-189.5"/>
<text text-anchor="start" x="414" y="-229.5" font-family="Helvetica,sans-Serif" font-size="10.00">/home/runner/work/diffblue</text>
<text text-anchor="start" x="414" y="-218.5" font-family="Helvetica,sans-Serif" font-size="10.00">&#45;cbmc/diffblue&#45;cbmc/src</text>
<text text-anchor="start" x="414" y="-207.5" font-family="Helvetica,sans-Serif" font-size="10.00">/analyses/variable&#45;sensitivity</text>
<text text-anchor="middle" x="486.5" y="-196.5" font-family="Helvetica,sans-Serif" font-size="10.00">/abstract_aggregate_object.h</text>
</a>
</g>
</g>
<!-- Node2 -->
<g id="node2" class="node">
<title>Node2</title>
<g id="a_node2"><a xlink:href="full__array__abstract__object_8h.html" target="_top" xlink:title="An abstraction of an array value.">
<polygon fill="none" stroke="black" points="3,-100.5 3,-152.5 164,-152.5 164,-100.5 3,-100.5"/>
<text text-anchor="start" x="11" y="-140.5" font-family="Helvetica,sans-Serif" font-size="10.00">/home/runner/work/diffblue</text>
<text text-anchor="start" x="11" y="-129.5" font-family="Helvetica,sans-Serif" font-size="10.00">&#45;cbmc/diffblue&#45;cbmc/src</text>
<text text-anchor="start" x="11" y="-118.5" font-family="Helvetica,sans-Serif" font-size="10.00">/analyses/variable&#45;sensitivity</text>
<text text-anchor="middle" x="83.5" y="-107.5" font-family="Helvetica,sans-Serif" font-size="10.00">/full_array_abstract_object.h</text>
</a>
</g>
</g>
<!-- Node1&#45;&gt;Node2 -->
<g id="edge1" class="edge">
<title>Node1&#45;&gt;Node2</title>
<path fill="none" stroke="midnightblue" d="M395.83,-198.72C333.11,-187.31 247.88,-170.81 173.5,-153 170.5,-152.28 167.45,-151.53 164.37,-150.75"/>
<polygon fill="midnightblue" stroke="midnightblue" points="395.23,-202.17 405.69,-200.51 396.48,-195.28 395.23,-202.17"/>
</g>
<!-- Node5 -->
<g id="node5" class="node">
<title>Node5</title>
<g id="a_node5"><a xlink:href="full__struct__abstract__object_8h.html" target="_top" xlink:title="An abstraction of a structure that stores one abstract object per field.">
<polygon fill="none" stroke="black" points="810,-100.5 810,-152.5 971,-152.5 971,-100.5 810,-100.5"/>
<text text-anchor="start" x="818" y="-140.5" font-family="Helvetica,sans-Serif" font-size="10.00">/home/runner/work/diffblue</text>
<text text-anchor="start" x="818" y="-129.5" font-family="Helvetica,sans-Serif" font-size="10.00">&#45;cbmc/diffblue&#45;cbmc/src</text>
<text text-anchor="start" x="818" y="-118.5" font-family="Helvetica,sans-Serif" font-size="10.00">/analyses/variable&#45;sensitivity</text>
<text text-anchor="middle" x="890.5" y="-107.5" font-family="Helvetica,sans-Serif" font-size="10.00">/full_struct_abstract_object.h</text>
</a>
</g>
</g>
<!-- Node1&#45;&gt;Node5 -->
<g id="edge4" class="edge">
<title>Node1&#45;&gt;Node5</title>
<path fill="none" stroke="midnightblue" d="M577.12,-198.95C640.31,-187.58 726.42,-171.05 801.5,-153 804.16,-152.36 806.85,-151.69 809.57,-151.01"/>
<polygon fill="midnightblue" stroke="midnightblue" points="576.41,-195.52 567.18,-200.73 577.64,-202.41 576.41,-195.52"/>
</g>
<!-- Node7 -->
<g id="node7" class="node">
<title>Node7</title>
<g id="a_node7"><a xlink:href="two__value__array__abstract__object_8h.html" target="_top" xlink:title="The base type of all abstract array representations.">
<polygon fill="none" stroke="black" points="182.5,-100.5 182.5,-152.5 372.5,-152.5 372.5,-100.5 182.5,-100.5"/>
<text text-anchor="start" x="190.5" y="-140.5" font-family="Helvetica,sans-Serif" font-size="10.00">/home/runner/work/diffblue</text>
<text text-anchor="start" x="190.5" y="-129.5" font-family="Helvetica,sans-Serif" font-size="10.00">&#45;cbmc/diffblue&#45;cbmc/src</text>
<text text-anchor="start" x="190.5" y="-118.5" font-family="Helvetica,sans-Serif" font-size="10.00">/analyses/variable&#45;sensitivity</text>
<text text-anchor="middle" x="277.5" y="-107.5" font-family="Helvetica,sans-Serif" font-size="10.00">/two_value_array_abstract_object.h</text>
</a>
</g>
</g>
<!-- Node1&#45;&gt;Node7 -->
<g id="edge7" class="edge">
<title>Node1&#45;&gt;Node7</title>
<path fill="none" stroke="midnightblue" d="M417.02,-185.58C391.31,-174.88 362.41,-162.85 337.61,-152.52"/>
<polygon fill="midnightblue" stroke="midnightblue" points="415.75,-188.84 426.33,-189.45 418.44,-182.38 415.75,-188.84"/>
</g>
<!-- Node8 -->
<g id="node8" class="node">
<title>Node8</title>
<g id="a_node8"><a xlink:href="two__value__struct__abstract__object_8h.html" target="_top" xlink:title="The base of all structure abstractions.">
<polygon fill="none" stroke="black" points="390.5,-100.5 390.5,-152.5 582.5,-152.5 582.5,-100.5 390.5,-100.5"/>
<text text-anchor="start" x="398.5" y="-140.5" font-family="Helvetica,sans-Serif" font-size="10.00">/home/runner/work/diffblue</text>
<text text-anchor="start" x="398.5" y="-129.5" font-family="Helvetica,sans-Serif" font-size="10.00">&#45;cbmc/diffblue&#45;cbmc/src</text>
<text text-anchor="start" x="398.5" y="-118.5" font-family="Helvetica,sans-Serif" font-size="10.00">/analyses/variable&#45;sensitivity</text>
<text text-anchor="middle" x="486.5" y="-107.5" font-family="Helvetica,sans-Serif" font-size="10.00">/two_value_struct_abstract_object.h</text>
</a>
</g>
</g>
<!-- Node1&#45;&gt;Node8 -->
<g id="edge9" class="edge">
<title>Node1&#45;&gt;Node8</title>
<path fill="none" stroke="midnightblue" d="M486.5,-179.19C486.5,-170.28 486.5,-160.9 486.5,-152.61"/>
<polygon fill="midnightblue" stroke="midnightblue" points="483,-179.34 486.5,-189.34 490,-179.34 483,-179.34"/>
</g>
<!-- Node9 -->
<g id="node9" class="node">
<title>Node9</title>
<g id="a_node9"><a xlink:href="two__value__union__abstract__object_8h.html" target="_top" xlink:title="The base of all union abstractions.">
<polygon fill="none" stroke="black" points="601,-100.5 601,-152.5 792,-152.5 792,-100.5 601,-100.5"/>
<text text-anchor="start" x="609" y="-140.5" font-family="Helvetica,sans-Serif" font-size="10.00">/home/runner/work/diffblue</text>
<text text-anchor="start" x="609" y="-129.5" font-family="Helvetica,sans-Serif" font-size="10.00">&#45;cbmc/diffblue&#45;cbmc/src</text>
<text text-anchor="start" x="609" y="-118.5" font-family="Helvetica,sans-Serif" font-size="10.00">/analyses/variable&#45;sensitivity</text>
<text text-anchor="middle" x="696.5" y="-107.5" font-family="Helvetica,sans-Serif" font-size="10.00">/two_value_union_abstract_object.h</text>
</a>
</g>
</g>
<!-- Node1&#45;&gt;Node9 -->
<g id="edge11" class="edge">
<title>Node1&#45;&gt;Node9</title>
<path fill="none" stroke="midnightblue" d="M556.32,-185.58C582.14,-174.88 611.18,-162.85 636.1,-152.52"/>
<polygon fill="midnightblue" stroke="midnightblue" points="554.86,-182.39 546.96,-189.45 557.54,-188.86 554.86,-182.39"/>
</g>
<!-- Node3 -->
<g id="node3" class="node">
<title>Node3</title>
<g id="a_node3"><a xlink:href="full__array__abstract__object_8cpp.html" target="_top" xlink:title=" ">
<polygon fill="none" stroke="black" points="0,-6 0,-58 167,-58 167,-6 0,-6"/>
<text text-anchor="start" x="8" y="-46" font-family="Helvetica,sans-Serif" font-size="10.00">/home/runner/work/diffblue</text>
<text text-anchor="start" x="8" y="-35" font-family="Helvetica,sans-Serif" font-size="10.00">&#45;cbmc/diffblue&#45;cbmc/src</text>
<text text-anchor="start" x="8" y="-24" font-family="Helvetica,sans-Serif" font-size="10.00">/analyses/variable&#45;sensitivity</text>
<text text-anchor="middle" x="83.5" y="-13" font-family="Helvetica,sans-Serif" font-size="10.00">/full_array_abstract_object.cpp</text>
</a>
</g>
</g>
<!-- Node2&#45;&gt;Node3 -->
<g id="edge2" class="edge">
<title>Node2&#45;&gt;Node3</title>
<path fill="none" stroke="midnightblue" d="M83.5,-89.99C83.5,-79.41 83.5,-68.03 83.5,-58.25"/>
<polygon fill="midnightblue" stroke="midnightblue" points="80,-90.22 83.5,-100.22 87,-90.22 80,-90.22"/>
</g>
<!-- Node4 -->
<g id="node4" class="node">
<title>Node4</title>
<g id="a_node4"><a xlink:href="variable__sensitivity__object__factory_8cpp.html" target="_top" xlink:title=" ">
<polygon fill="none" stroke="black" points="406,-0.5 406,-63.5 567,-63.5 567,-0.5 406,-0.5"/>
<text text-anchor="start" x="414" y="-51.5" font-family="Helvetica,sans-Serif" font-size="10.00">/home/runner/work/diffblue</text>
<text text-anchor="start" x="414" y="-40.5" font-family="Helvetica,sans-Serif" font-size="10.00">&#45;cbmc/diffblue&#45;cbmc/src</text>
<text text-anchor="start" x="414" y="-29.5" font-family="Helvetica,sans-Serif" font-size="10.00">/analyses/variable&#45;sensitivity</text>
<text text-anchor="start" x="414" y="-18.5" font-family="Helvetica,sans-Serif" font-size="10.00">/variable_sensitivity_object</text>
<text text-anchor="middle" x="486.5" y="-7.5" font-family="Helvetica,sans-Serif" font-size="10.00">_factory.cpp</text>
</a>
</g>
</g>
<!-- Node2&#45;&gt;Node4 -->
<g id="edge3" class="edge">
<title>Node2&#45;&gt;Node4</title>
<path fill="none" stroke="midnightblue" d="M174.15,-99.9C258.64,-79.11 344.7,-61.06 405.76,-48.78"/>
<polygon fill="midnightblue" stroke="midnightblue" points="173.25,-96.51 164.39,-102.31 174.93,-103.31 173.25,-96.51"/>
</g>
<!-- Node5&#45;&gt;Node4 -->
<g id="edge6" class="edge">
<title>Node5&#45;&gt;Node4</title>
<path fill="none" stroke="midnightblue" d="M799.83,-99.64C715.55,-78.85 628.61,-60.77 567.12,-48.54"/>
<polygon fill="midnightblue" stroke="midnightblue" points="799.01,-103.04 809.56,-102.05 800.7,-96.24 799.01,-103.04"/>
</g>
<!-- Node6 -->
<g id="node6" class="node">
<title>Node6</title>
<g id="a_node6"><a xlink:href="full__struct__abstract__object_8cpp.html" target="_top" xlink:title=" ">
<polygon fill="none" stroke="black" points="806,-6 806,-58 975,-58 975,-6 806,-6"/>
<text text-anchor="start" x="814" y="-46" font-family="Helvetica,sans-Serif" font-size="10.00">/home/runner/work/diffblue</text>
<text text-anchor="start" x="814" y="-35" font-family="Helvetica,sans-Serif" font-size="10.00">&#45;cbmc/diffblue&#45;cbmc/src</text>
<text text-anchor="start" x="814" y="-24" font-family="Helvetica,sans-Serif" font-size="10.00">/analyses/variable&#45;sensitivity</text>
<text text-anchor="middle" x="890.5" y="-13" font-family="Helvetica,sans-Serif" font-size="10.00">/full_struct_abstract_object.cpp</text>
</a>
</g>
</g>
<!-- Node5&#45;&gt;Node6 -->
<g id="edge5" class="edge">
<title>Node5&#45;&gt;Node6</title>
<path fill="none" stroke="midnightblue" d="M890.5,-89.99C890.5,-79.41 890.5,-68.03 890.5,-58.25"/>
<polygon fill="midnightblue" stroke="midnightblue" points="887,-90.22 890.5,-100.22 894,-90.22 887,-90.22"/>
</g>
<!-- Node7&#45;&gt;Node4 -->
<g id="edge8" class="edge">
<title>Node7&#45;&gt;Node4</title>
<path fill="none" stroke="midnightblue" d="M343.26,-96.4C366.8,-85.98 393.39,-74.21 417.22,-63.66"/>
<polygon fill="midnightblue" stroke="midnightblue" points="341.79,-93.22 334.06,-100.47 344.62,-99.62 341.79,-93.22"/>
</g>
<!-- Node8&#45;&gt;Node4 -->
<g id="edge10" class="edge">
<title>Node8&#45;&gt;Node4</title>
<path fill="none" stroke="midnightblue" d="M486.5,-89.94C486.5,-81.23 486.5,-71.97 486.5,-63.51"/>
<polygon fill="midnightblue" stroke="midnightblue" points="483,-90.22 486.5,-100.22 490,-90.22 483,-90.22"/>
</g>
<!-- Node9&#45;&gt;Node4 -->
<g id="edge12" class="edge">
<title>Node9&#45;&gt;Node4</title>
<path fill="none" stroke="midnightblue" d="M630.43,-96.4C606.78,-85.98 580.05,-74.21 556.11,-63.66"/>
<polygon fill="midnightblue" stroke="midnightblue" points="629.11,-99.64 639.67,-100.47 631.93,-93.23 629.11,-99.64"/>
</g>
</g>
</svg>
