<?xml version="1.0" encoding="UTF-8" standalone="no"?>
<!DOCTYPE svg PUBLIC "-//W3C//DTD SVG 1.1//EN"
 "http://www.w3.org/Graphics/SVG/1.1/DTD/svg11.dtd">
<!-- Generated by graphviz version 2.43.0 (0)
 -->
<!-- Title: /home/runner/work/diffblue&#45;cbmc/diffblue&#45;cbmc/src/goto&#45;instrument/accelerate/acceleration_utils.h Pages: 1 -->
<svg width="1089pt" height="328pt"
 viewBox="0.00 0.00 1089.00 328.00" xmlns="http://www.w3.org/2000/svg" xmlns:xlink="http://www.w3.org/1999/xlink">
<g id="graph0" class="graph" transform="scale(1 1) rotate(0) translate(4 324)">
<title>/home/runner/work/diffblue&#45;cbmc/diffblue&#45;cbmc/src/goto&#45;instrument/accelerate/acceleration_utils.h</title>
<!-- Node1 -->
<g id="node1" class="node">
<title>Node1</title>
<g id="a_node1"><a xlink:title="Loop Acceleration.">
<polygon fill="#bfbfbf" stroke="black" points="368,-267.5 368,-319.5 520,-319.5 520,-267.5 368,-267.5"/>
<text text-anchor="start" x="376" y="-307.5" font-family="Helvetica,sans-Serif" font-size="10.00">/home/runner/work/diffblue</text>
<text text-anchor="start" x="376" y="-296.5" font-family="Helvetica,sans-Serif" font-size="10.00">&#45;cbmc/diffblue&#45;cbmc/src</text>
<text text-anchor="start" x="376" y="-285.5" font-family="Helvetica,sans-Serif" font-size="10.00">/goto&#45;instrument/accelerate</text>
<text text-anchor="middle" x="444" y="-274.5" font-family="Helvetica,sans-Serif" font-size="10.00">/acceleration_utils.h</text>
</a>
</g>
</g>
<!-- Node2 -->
<g id="node2" class="node">
<title>Node2</title>
<g id="a_node2"><a xlink:href="accelerate_8h.html" target="_top" xlink:title="Loop Acceleration.">
<polygon fill="none" stroke="black" points="0,-178.5 0,-230.5 152,-230.5 152,-178.5 0,-178.5"/>
<text text-anchor="start" x="8" y="-218.5" font-family="Helvetica,sans-Serif" font-size="10.00">/home/runner/work/diffblue</text>
<text text-anchor="start" x="8" y="-207.5" font-family="Helvetica,sans-Serif" font-size="10.00">&#45;cbmc/diffblue&#45;cbmc/src</text>
<text text-anchor="start" x="8" y="-196.5" font-family="Helvetica,sans-Serif" font-size="10.00">/goto&#45;instrument/accelerate</text>
<text text-anchor="middle" x="76" y="-185.5" font-family="Helvetica,sans-Serif" font-size="10.00">/accelerate.h</text>
</a>
</g>
</g>
<!-- Node1&#45;&gt;Node2 -->
<g id="edge1" class="edge">
<title>Node1&#45;&gt;Node2</title>
<path fill="none" stroke="midnightblue" d="M358.02,-275.62C301.72,-264.12 226.67,-247.96 161,-231 158.17,-230.27 155.28,-229.5 152.38,-228.72"/>
<polygon fill="midnightblue" stroke="midnightblue" points="357.45,-279.08 367.95,-277.64 358.85,-272.22 357.45,-279.08"/>
</g>
<!-- Node5 -->
<g id="node5" class="node">
<title>Node5</title>
<g id="a_node5"><a xlink:href="acceleration__utils_8cpp.html" target="_top" xlink:title="Loop Acceleration.">
<polygon fill="none" stroke="black" points="170,-178.5 170,-230.5 322,-230.5 322,-178.5 170,-178.5"/>
<text text-anchor="start" x="178" y="-218.5" font-family="Helvetica,sans-Serif" font-size="10.00">/home/runner/work/diffblue</text>
<text text-anchor="start" x="178" y="-207.5" font-family="Helvetica,sans-Serif" font-size="10.00">&#45;cbmc/diffblue&#45;cbmc/src</text>
<text text-anchor="start" x="178" y="-196.5" font-family="Helvetica,sans-Serif" font-size="10.00">/goto&#45;instrument/accelerate</text>
<text text-anchor="middle" x="246" y="-185.5" font-family="Helvetica,sans-Serif" font-size="10.00">/acceleration_utils.cpp</text>
</a>
</g>
</g>
<!-- Node1&#45;&gt;Node5 -->
<g id="edge4" class="edge">
<title>Node1&#45;&gt;Node5</title>
<path fill="none" stroke="midnightblue" d="M377.53,-263.29C353.34,-252.67 326.24,-240.76 302.94,-230.52"/>
<polygon fill="midnightblue" stroke="midnightblue" points="376.43,-266.63 387,-267.45 379.25,-260.23 376.43,-266.63"/>
</g>
<!-- Node6 -->
<g id="node6" class="node">
<title>Node6</title>
<g id="a_node6"><a xlink:href="disjunctive__polynomial__acceleration_8h.html" target="_top" xlink:title="Loop Acceleration.">
<polygon fill="none" stroke="black" points="340.5,-178.5 340.5,-230.5 547.5,-230.5 547.5,-178.5 340.5,-178.5"/>
<text text-anchor="start" x="348.5" y="-218.5" font-family="Helvetica,sans-Serif" font-size="10.00">/home/runner/work/diffblue</text>
<text text-anchor="start" x="348.5" y="-207.5" font-family="Helvetica,sans-Serif" font-size="10.00">&#45;cbmc/diffblue&#45;cbmc/src</text>
<text text-anchor="start" x="348.5" y="-196.5" font-family="Helvetica,sans-Serif" font-size="10.00">/goto&#45;instrument/accelerate</text>
<text text-anchor="middle" x="444" y="-185.5" font-family="Helvetica,sans-Serif" font-size="10.00">/disjunctive_polynomial_acceleration.h</text>
</a>
</g>
</g>
<!-- Node1&#45;&gt;Node6 -->
<g id="edge5" class="edge">
<title>Node1&#45;&gt;Node6</title>
<path fill="none" stroke="midnightblue" d="M444,-257.19C444,-248.28 444,-238.9 444,-230.61"/>
<polygon fill="midnightblue" stroke="midnightblue" points="440.5,-257.34 444,-267.34 447.5,-257.34 440.5,-257.34"/>
</g>
<!-- Node8 -->
<g id="node8" class="node">
<title>Node8</title>
<g id="a_node8"><a xlink:href="polynomial__accelerator_8h.html" target="_top" xlink:title="Loop Acceleration.">
<polygon fill="none" stroke="black" points="566,-178.5 566,-230.5 718,-230.5 718,-178.5 566,-178.5"/>
<text text-anchor="start" x="574" y="-218.5" font-family="Helvetica,sans-Serif" font-size="10.00">/home/runner/work/diffblue</text>
<text text-anchor="start" x="574" y="-207.5" font-family="Helvetica,sans-Serif" font-size="10.00">&#45;cbmc/diffblue&#45;cbmc/src</text>
<text text-anchor="start" x="574" y="-196.5" font-family="Helvetica,sans-Serif" font-size="10.00">/goto&#45;instrument/accelerate</text>
<text text-anchor="middle" x="642" y="-185.5" font-family="Helvetica,sans-Serif" font-size="10.00">/polynomial_accelerator.h</text>
</a>
</g>
</g>
<!-- Node1&#45;&gt;Node8 -->
<g id="edge7" class="edge">
<title>Node1&#45;&gt;Node8</title>
<path fill="none" stroke="midnightblue" d="M510.47,-263.29C534.66,-252.67 561.76,-240.76 585.06,-230.52"/>
<polygon fill="midnightblue" stroke="midnightblue" points="508.75,-260.23 501,-267.45 511.57,-266.63 508.75,-260.23"/>
</g>
<!-- Node12 -->
<g id="node12" class="node">
<title>Node12</title>
<g id="a_node12"><a xlink:href="sat__path__enumerator_8h.html" target="_top" xlink:title="Loop Acceleration.">
<polygon fill="none" stroke="black" points="744,-178.5 744,-230.5 896,-230.5 896,-178.5 744,-178.5"/>
<text text-anchor="start" x="752" y="-218.5" font-family="Helvetica,sans-Serif" font-size="10.00">/home/runner/work/diffblue</text>
<text text-anchor="start" x="752" y="-207.5" font-family="Helvetica,sans-Serif" font-size="10.00">&#45;cbmc/diffblue&#45;cbmc/src</text>
<text text-anchor="start" x="752" y="-196.5" font-family="Helvetica,sans-Serif" font-size="10.00">/goto&#45;instrument/accelerate</text>
<text text-anchor="middle" x="820" y="-185.5" font-family="Helvetica,sans-Serif" font-size="10.00">/sat_path_enumerator.h</text>
</a>
</g>
</g>
<!-- Node1&#45;&gt;Node12 -->
<g id="edge13" class="edge">
<title>Node1&#45;&gt;Node12</title>
<path fill="none" stroke="midnightblue" d="M530.14,-275.03C586.36,-263.32 661.25,-247.15 727,-231 732.53,-229.64 738.23,-228.2 743.96,-226.71"/>
<polygon fill="midnightblue" stroke="midnightblue" points="529.31,-271.63 520.23,-277.09 530.73,-278.48 529.31,-271.63"/>
</g>
<!-- Node3 -->
<g id="node3" class="node">
<title>Node3</title>
<g id="a_node3"><a xlink:href="accelerate_8cpp.html" target="_top" xlink:title="Loop Acceleration.">
<polygon fill="none" stroke="black" points="277,-0.5 277,-52.5 429,-52.5 429,-0.5 277,-0.5"/>
<text text-anchor="start" x="285" y="-40.5" font-family="Helvetica,sans-Serif" font-size="10.00">/home/runner/work/diffblue</text>
<text text-anchor="start" x="285" y="-29.5" font-family="Helvetica,sans-Serif" font-size="10.00">&#45;cbmc/diffblue&#45;cbmc/src</text>
<text text-anchor="start" x="285" y="-18.5" font-family="Helvetica,sans-Serif" font-size="10.00">/goto&#45;instrument/accelerate</text>
<text text-anchor="middle" x="353" y="-7.5" font-family="Helvetica,sans-Serif" font-size="10.00">/accelerate.cpp</text>
</a>
</g>
</g>
<!-- Node2&#45;&gt;Node3 -->
<g id="edge2" class="edge">
<title>Node2&#45;&gt;Node3</title>
<path fill="none" stroke="midnightblue" d="M72.33,-167.92C71.78,-142.75 75.52,-109.89 95,-89 119.5,-62.74 209.94,-45.64 276.87,-36.3"/>
<polygon fill="midnightblue" stroke="midnightblue" points="68.85,-168.35 72.8,-178.18 75.84,-168.03 68.85,-168.35"/>
</g>
<!-- Node4 -->
<g id="node4" class="node">
<title>Node4</title>
<g id="a_node4"><a xlink:href="goto__instrument__parse__options_8cpp.html" target="_top" xlink:title="Main Module.">
<polygon fill="none" stroke="black" points="104,-89.5 104,-141.5 286,-141.5 286,-89.5 104,-89.5"/>
<text text-anchor="start" x="112" y="-129.5" font-family="Helvetica,sans-Serif" font-size="10.00">/home/runner/work/diffblue</text>
<text text-anchor="start" x="112" y="-118.5" font-family="Helvetica,sans-Serif" font-size="10.00">&#45;cbmc/diffblue&#45;cbmc/src</text>
<text text-anchor="start" x="112" y="-107.5" font-family="Helvetica,sans-Serif" font-size="10.00">/goto&#45;instrument/goto_instrument</text>
<text text-anchor="middle" x="195" y="-96.5" font-family="Helvetica,sans-Serif" font-size="10.00">_parse_options.cpp</text>
</a>
</g>
</g>
<!-- Node2&#45;&gt;Node4 -->
<g id="edge3" class="edge">
<title>Node2&#45;&gt;Node4</title>
<path fill="none" stroke="midnightblue" d="M118.79,-172.22C132.54,-162.16 147.59,-151.16 160.66,-141.61"/>
<polygon fill="midnightblue" stroke="midnightblue" points="116.43,-169.61 110.42,-178.34 120.56,-175.26 116.43,-169.61"/>
</g>
<!-- Node7 -->
<g id="node7" class="node">
<title>Node7</title>
<g id="a_node7"><a xlink:href="disjunctive__polynomial__acceleration_8cpp.html" target="_top" xlink:title="Loop Acceleration.">
<polygon fill="none" stroke="black" points="321,-89.5 321,-141.5 539,-141.5 539,-89.5 321,-89.5"/>
<text text-anchor="start" x="329" y="-129.5" font-family="Helvetica,sans-Serif" font-size="10.00">/home/runner/work/diffblue</text>
<text text-anchor="start" x="329" y="-118.5" font-family="Helvetica,sans-Serif" font-size="10.00">&#45;cbmc/diffblue&#45;cbmc/src</text>
<text text-anchor="start" x="329" y="-107.5" font-family="Helvetica,sans-Serif" font-size="10.00">/goto&#45;instrument/accelerate</text>
<text text-anchor="middle" x="430" y="-96.5" font-family="Helvetica,sans-Serif" font-size="10.00">/disjunctive_polynomial_acceleration.cpp</text>
</a>
</g>
</g>
<!-- Node6&#45;&gt;Node7 -->
<g id="edge6" class="edge">
<title>Node6&#45;&gt;Node7</title>
<path fill="none" stroke="midnightblue" d="M438.32,-168.19C436.88,-159.28 435.37,-149.9 434.04,-141.61"/>
<polygon fill="midnightblue" stroke="midnightblue" points="434.91,-169.02 439.95,-178.34 441.82,-167.91 434.91,-169.02"/>
</g>
<!-- Node8&#45;&gt;Node7 -->
<g id="edge8" class="edge">
<title>Node8&#45;&gt;Node7</title>
<path fill="none" stroke="midnightblue" d="M571.52,-174.58C545.45,-163.88 516.13,-151.85 490.97,-141.52"/>
<polygon fill="midnightblue" stroke="midnightblue" points="570.39,-177.89 580.97,-178.45 573.04,-171.42 570.39,-177.89"/>
</g>
<!-- Node9 -->
<g id="node9" class="node">
<title>Node9</title>
<g id="a_node9"><a xlink:href="enumerating__loop__acceleration_8h.html" target="_top" xlink:title="Loop Acceleration.">
<polygon fill="none" stroke="black" points="729,-89.5 729,-141.5 911,-141.5 911,-89.5 729,-89.5"/>
<text text-anchor="start" x="737" y="-129.5" font-family="Helvetica,sans-Serif" font-size="10.00">/home/runner/work/diffblue</text>
<text text-anchor="start" x="737" y="-118.5" font-family="Helvetica,sans-Serif" font-size="10.00">&#45;cbmc/diffblue&#45;cbmc/src</text>
<text text-anchor="start" x="737" y="-107.5" font-family="Helvetica,sans-Serif" font-size="10.00">/goto&#45;instrument/accelerate</text>
<text text-anchor="middle" x="820" y="-96.5" font-family="Helvetica,sans-Serif" font-size="10.00">/enumerating_loop_acceleration.h</text>
</a>
</g>
</g>
<!-- Node8&#45;&gt;Node9 -->
<g id="edge9" class="edge">
<title>Node8&#45;&gt;Node9</title>
<path fill="none" stroke="midnightblue" d="M702.53,-173.92C724.02,-163.41 747.98,-151.7 768.63,-141.61"/>
<polygon fill="midnightblue" stroke="midnightblue" points="700.93,-170.8 693.48,-178.34 704.01,-177.09 700.93,-170.8"/>
</g>
<!-- Node11 -->
<g id="node11" class="node">
<title>Node11</title>
<g id="a_node11"><a xlink:href="polynomial__accelerator_8cpp.html" target="_top" xlink:title="Loop Acceleration.">
<polygon fill="none" stroke="black" points="557,-89.5 557,-141.5 711,-141.5 711,-89.5 557,-89.5"/>
<text text-anchor="start" x="565" y="-129.5" font-family="Helvetica,sans-Serif" font-size="10.00">/home/runner/work/diffblue</text>
<text text-anchor="start" x="565" y="-118.5" font-family="Helvetica,sans-Serif" font-size="10.00">&#45;cbmc/diffblue&#45;cbmc/src</text>
<text text-anchor="start" x="565" y="-107.5" font-family="Helvetica,sans-Serif" font-size="10.00">/goto&#45;instrument/accelerate</text>
<text text-anchor="middle" x="634" y="-96.5" font-family="Helvetica,sans-Serif" font-size="10.00">/polynomial_accelerator.cpp</text>
</a>
</g>
</g>
<!-- Node8&#45;&gt;Node11 -->
<g id="edge12" class="edge">
<title>Node8&#45;&gt;Node11</title>
<path fill="none" stroke="midnightblue" d="M638.75,-168.19C637.93,-159.28 637.07,-149.9 636.31,-141.61"/>
<polygon fill="midnightblue" stroke="midnightblue" points="635.29,-168.7 639.69,-178.34 642.26,-168.06 635.29,-168.7"/>
</g>
<!-- Node9&#45;&gt;Node3 -->
<g id="edge10" class="edge">
<title>Node9&#45;&gt;Node3</title>
<path fill="none" stroke="midnightblue" d="M718.9,-88.83C613.11,-66.82 501.48,-49.11 429.26,-38.38"/>
<polygon fill="midnightblue" stroke="midnightblue" points="718.28,-92.28 728.79,-90.91 719.72,-85.43 718.28,-92.28"/>
</g>
<!-- Node10 -->
<g id="node10" class="node">
<title>Node10</title>
<g id="a_node10"><a xlink:href="enumerating__loop__acceleration_8cpp.html" target="_top" xlink:title="Loop Acceleration.">
<polygon fill="none" stroke="black" points="723,-0.5 723,-52.5 917,-52.5 917,-0.5 723,-0.5"/>
<text text-anchor="start" x="731" y="-40.5" font-family="Helvetica,sans-Serif" font-size="10.00">/home/runner/work/diffblue</text>
<text text-anchor="start" x="731" y="-29.5" font-family="Helvetica,sans-Serif" font-size="10.00">&#45;cbmc/diffblue&#45;cbmc/src</text>
<text text-anchor="start" x="731" y="-18.5" font-family="Helvetica,sans-Serif" font-size="10.00">/goto&#45;instrument/accelerate</text>
<text text-anchor="middle" x="820" y="-7.5" font-family="Helvetica,sans-Serif" font-size="10.00">/enumerating_loop_acceleration.cpp</text>
</a>
</g>
</g>
<!-- Node9&#45;&gt;Node10 -->
<g id="edge11" class="edge">
<title>Node9&#45;&gt;Node10</title>
<path fill="none" stroke="midnightblue" d="M820,-79.19C820,-70.28 820,-60.9 820,-52.61"/>
<polygon fill="midnightblue" stroke="midnightblue" points="816.5,-79.34 820,-89.34 823.5,-79.34 816.5,-79.34"/>
</g>
<!-- Node12&#45;&gt;Node9 -->
<g id="edge14" class="edge">
<title>Node12&#45;&gt;Node9</title>
<path fill="none" stroke="midnightblue" d="M820,-168.19C820,-159.28 820,-149.9 820,-141.61"/>
<polygon fill="midnightblue" stroke="midnightblue" points="816.5,-168.34 820,-178.34 823.5,-168.34 816.5,-168.34"/>
</g>
<!-- Node13 -->
<g id="node13" class="node">
<title>Node13</title>
<g id="a_node13"><a xlink:href="sat__path__enumerator_8cpp.html" target="_top" xlink:title="Loop Acceleration.">
<polygon fill="none" stroke="black" points="929,-89.5 929,-141.5 1081,-141.5 1081,-89.5 929,-89.5"/>
<text text-anchor="start" x="937" y="-129.5" font-family="Helvetica,sans-Serif" font-size="10.00">/home/runner/work/diffblue</text>
<text text-anchor="start" x="937" y="-118.5" font-family="Helvetica,sans-Serif" font-size="10.00">&#45;cbmc/diffblue&#45;cbmc/src</text>
<text text-anchor="start" x="937" y="-107.5" font-family="Helvetica,sans-Serif" font-size="10.00">/goto&#45;instrument/accelerate</text>
<text text-anchor="middle" x="1005" y="-96.5" font-family="Helvetica,sans-Serif" font-size="10.00">/sat_path_enumerator.cpp</text>
</a>
</g>
</g>
<!-- Node12&#45;&gt;Node13 -->
<g id="edge15" class="edge">
<title>Node12&#45;&gt;Node13</title>
<path fill="none" stroke="midnightblue" d="M882.61,-174.06C905.02,-163.52 930.05,-151.75 951.61,-141.61"/>
<polygon fill="midnightblue" stroke="midnightblue" points="881.07,-170.91 873.51,-178.34 884.05,-177.25 881.07,-170.91"/>
</g>
</g>
</svg>
