<?xml version="1.0" encoding="UTF-8" standalone="no"?>
<!DOCTYPE svg PUBLIC "-//W3C//DTD SVG 1.1//EN"
 "http://www.w3.org/Graphics/SVG/1.1/DTD/svg11.dtd">
<!-- Generated by graphviz version 2.43.0 (0)
 -->
<!-- Title: /home/runner/work/diffblue&#45;cbmc/diffblue&#45;cbmc/src/pointer&#45;analysis/add_failed_symbols.h Pages: 1 -->
<svg width="1699pt" height="150pt"
 viewBox="0.00 0.00 1698.50 150.00" xmlns="http://www.w3.org/2000/svg" xmlns:xlink="http://www.w3.org/1999/xlink">
<g id="graph0" class="graph" transform="scale(1 1) rotate(0) translate(4 146)">
<title>/home/runner/work/diffblue&#45;cbmc/diffblue&#45;cbmc/src/pointer&#45;analysis/add_failed_symbols.h</title>
<!-- Node1 -->
<g id="node1" class="node">
<title>Node1</title>
<g id="a_node1"><a xlink:title="Pointer Dereferencing.">
<polygon fill="#bfbfbf" stroke="black" points="794.5,-89.5 794.5,-141.5 946.5,-141.5 946.5,-89.5 794.5,-89.5"/>
<text text-anchor="start" x="802.5" y="-129.5" font-family="Helvetica,sans-Serif" font-size="10.00">/home/runner/work/diffblue</text>
<text text-anchor="start" x="802.5" y="-118.5" font-family="Helvetica,sans-Serif" font-size="10.00">&#45;cbmc/diffblue&#45;cbmc/src</text>
<text text-anchor="start" x="802.5" y="-107.5" font-family="Helvetica,sans-Serif" font-size="10.00">/pointer&#45;analysis/add_failed</text>
<text text-anchor="middle" x="870.5" y="-96.5" font-family="Helvetica,sans-Serif" font-size="10.00">_symbols.h</text>
</a>
</g>
</g>
<!-- Node2 -->
<g id="node2" class="node">
<title>Node2</title>
<g id="a_node2"><a xlink:href="cbmc__parse__options_8cpp.html" target="_top" xlink:title="CBMC Command Line Option Processing.">
<polygon fill="none" stroke="black" points="0,-6 0,-47 169,-47 169,-6 0,-6"/>
<text text-anchor="start" x="8" y="-35" font-family="Helvetica,sans-Serif" font-size="10.00">/home/runner/work/diffblue</text>
<text text-anchor="start" x="8" y="-24" font-family="Helvetica,sans-Serif" font-size="10.00">&#45;cbmc/diffblue&#45;cbmc/src</text>
<text text-anchor="middle" x="84.5" y="-13" font-family="Helvetica,sans-Serif" font-size="10.00">/cbmc/cbmc_parse_options.cpp</text>
</a>
</g>
</g>
<!-- Node1&#45;&gt;Node2 -->
<g id="edge1" class="edge">
<title>Node1&#45;&gt;Node2</title>
<path fill="none" stroke="midnightblue" d="M784.39,-111.72C652.87,-106.38 394.46,-91.58 178.5,-53 169.43,-51.38 159.96,-49.29 150.67,-47.01"/>
<polygon fill="midnightblue" stroke="midnightblue" points="784.27,-115.22 794.4,-112.12 784.55,-108.22 784.27,-115.22"/>
</g>
<!-- Node3 -->
<g id="node3" class="node">
<title>Node3</title>
<g id="a_node3"><a xlink:href="goto__instrument__parse__options_8cpp.html" target="_top" xlink:title="Main Module.">
<polygon fill="none" stroke="black" points="187.5,-0.5 187.5,-52.5 369.5,-52.5 369.5,-0.5 187.5,-0.5"/>
<text text-anchor="start" x="195.5" y="-40.5" font-family="Helvetica,sans-Serif" font-size="10.00">/home/runner/work/diffblue</text>
<text text-anchor="start" x="195.5" y="-29.5" font-family="Helvetica,sans-Serif" font-size="10.00">&#45;cbmc/diffblue&#45;cbmc/src</text>
<text text-anchor="start" x="195.5" y="-18.5" font-family="Helvetica,sans-Serif" font-size="10.00">/goto&#45;instrument/goto_instrument</text>
<text text-anchor="middle" x="278.5" y="-7.5" font-family="Helvetica,sans-Serif" font-size="10.00">_parse_options.cpp</text>
</a>
</g>
</g>
<!-- Node1&#45;&gt;Node3 -->
<g id="edge2" class="edge">
<title>Node1&#45;&gt;Node3</title>
<path fill="none" stroke="midnightblue" d="M783.96,-106.99C685.3,-97.67 519.41,-79.66 378.5,-53 375.6,-52.45 372.65,-51.87 369.68,-51.25"/>
<polygon fill="midnightblue" stroke="midnightblue" points="783.9,-110.5 794.18,-107.95 784.55,-103.53 783.9,-110.5"/>
</g>
<!-- Node4 -->
<g id="node4" class="node">
<title>Node4</title>
<g id="a_node4"><a xlink:href="goto__symex__state_8cpp.html" target="_top" xlink:title="Symbolic Execution.">
<polygon fill="none" stroke="black" points="388,-6 388,-47 579,-47 579,-6 388,-6"/>
<text text-anchor="start" x="396" y="-35" font-family="Helvetica,sans-Serif" font-size="10.00">/home/runner/work/diffblue</text>
<text text-anchor="start" x="396" y="-24" font-family="Helvetica,sans-Serif" font-size="10.00">&#45;cbmc/diffblue&#45;cbmc/src</text>
<text text-anchor="middle" x="483.5" y="-13" font-family="Helvetica,sans-Serif" font-size="10.00">/goto&#45;symex/goto_symex_state.cpp</text>
</a>
</g>
</g>
<!-- Node1&#45;&gt;Node4 -->
<g id="edge3" class="edge">
<title>Node1&#45;&gt;Node4</title>
<path fill="none" stroke="midnightblue" d="M784.5,-96.43C728.34,-84.48 653.47,-68.25 587.5,-53 579.26,-51.09 570.66,-49.06 562.1,-47"/>
<polygon fill="midnightblue" stroke="midnightblue" points="783.9,-99.88 794.41,-98.53 785.35,-93.03 783.9,-99.88"/>
</g>
<!-- Node5 -->
<g id="node5" class="node">
<title>Node5</title>
<g id="a_node5"><a xlink:href="symex__goto_8cpp.html" target="_top" xlink:title="Symbolic Execution.">
<polygon fill="none" stroke="black" points="597,-6 597,-47 758,-47 758,-6 597,-6"/>
<text text-anchor="start" x="605" y="-35" font-family="Helvetica,sans-Serif" font-size="10.00">/home/runner/work/diffblue</text>
<text text-anchor="start" x="605" y="-24" font-family="Helvetica,sans-Serif" font-size="10.00">&#45;cbmc/diffblue&#45;cbmc/src</text>
<text text-anchor="middle" x="677.5" y="-13" font-family="Helvetica,sans-Serif" font-size="10.00">/goto&#45;symex/symex_goto.cpp</text>
</a>
</g>
</g>
<!-- Node1&#45;&gt;Node5 -->
<g id="edge4" class="edge">
<title>Node1&#45;&gt;Node5</title>
<path fill="none" stroke="midnightblue" d="M805.66,-85.27C777.81,-72.72 746.01,-58.38 721.06,-47.13"/>
<polygon fill="midnightblue" stroke="midnightblue" points="804.38,-88.53 814.94,-89.45 807.26,-82.15 804.38,-88.53"/>
</g>
<!-- Node6 -->
<g id="node6" class="node">
<title>Node6</title>
<g id="a_node6"><a xlink:href="cegis__verifier_8cpp.html" target="_top" xlink:title="Verifier for Counterexample&#45;Guided Synthesis.">
<polygon fill="none" stroke="black" points="776,-6 776,-47 965,-47 965,-6 776,-6"/>
<text text-anchor="start" x="784" y="-35" font-family="Helvetica,sans-Serif" font-size="10.00">/home/runner/work/diffblue</text>
<text text-anchor="start" x="784" y="-24" font-family="Helvetica,sans-Serif" font-size="10.00">&#45;cbmc/diffblue&#45;cbmc/src</text>
<text text-anchor="middle" x="870.5" y="-13" font-family="Helvetica,sans-Serif" font-size="10.00">/goto&#45;synthesizer/cegis_verifier.cpp</text>
</a>
</g>
</g>
<!-- Node1&#45;&gt;Node6 -->
<g id="edge5" class="edge">
<title>Node1&#45;&gt;Node6</title>
<path fill="none" stroke="midnightblue" d="M870.5,-79.16C870.5,-68.21 870.5,-56.55 870.5,-47.08"/>
<polygon fill="midnightblue" stroke="midnightblue" points="867,-79.34 870.5,-89.34 874,-79.34 867,-79.34"/>
</g>
<!-- Node7 -->
<g id="node7" class="node">
<title>Node7</title>
<g id="a_node7"><a xlink:href="api_8cpp.html" target="_top" xlink:title=" ">
<polygon fill="none" stroke="black" points="983,-6 983,-47 1132,-47 1132,-6 983,-6"/>
<text text-anchor="start" x="991" y="-35" font-family="Helvetica,sans-Serif" font-size="10.00">/home/runner/work/diffblue</text>
<text text-anchor="start" x="991" y="-24" font-family="Helvetica,sans-Serif" font-size="10.00">&#45;cbmc/diffblue&#45;cbmc/src</text>
<text text-anchor="middle" x="1057.5" y="-13" font-family="Helvetica,sans-Serif" font-size="10.00">/libcprover&#45;cpp/api.cpp</text>
</a>
</g>
</g>
<!-- Node1&#45;&gt;Node7 -->
<g id="edge6" class="edge">
<title>Node1&#45;&gt;Node7</title>
<path fill="none" stroke="midnightblue" d="M933.68,-85.11C960.57,-72.59 991.22,-58.34 1015.3,-47.13"/>
<polygon fill="midnightblue" stroke="midnightblue" points="931.93,-82.06 924.34,-89.45 934.88,-88.41 931.93,-82.06"/>
</g>
<!-- Node8 -->
<g id="node8" class="node">
<title>Node8</title>
<g id="a_node8"><a xlink:href="add__failed__symbols_8cpp.html" target="_top" xlink:title="Pointer Dereferencing.">
<polygon fill="none" stroke="black" points="1150.5,-0.5 1150.5,-52.5 1302.5,-52.5 1302.5,-0.5 1150.5,-0.5"/>
<text text-anchor="start" x="1158.5" y="-40.5" font-family="Helvetica,sans-Serif" font-size="10.00">/home/runner/work/diffblue</text>
<text text-anchor="start" x="1158.5" y="-29.5" font-family="Helvetica,sans-Serif" font-size="10.00">&#45;cbmc/diffblue&#45;cbmc/src</text>
<text text-anchor="start" x="1158.5" y="-18.5" font-family="Helvetica,sans-Serif" font-size="10.00">/pointer&#45;analysis/add_failed</text>
<text text-anchor="middle" x="1226.5" y="-7.5" font-family="Helvetica,sans-Serif" font-size="10.00">_symbols.cpp</text>
</a>
</g>
</g>
<!-- Node1&#45;&gt;Node8 -->
<g id="edge7" class="edge">
<title>Node1&#45;&gt;Node8</title>
<path fill="none" stroke="midnightblue" d="M956.55,-96.54C1010,-85 1080.01,-69.18 1141.5,-53 1144.33,-52.26 1147.21,-51.48 1150.11,-50.68"/>
<polygon fill="midnightblue" stroke="midnightblue" points="955.81,-93.12 946.77,-98.65 957.28,-99.97 955.81,-93.12"/>
</g>
<!-- Node9 -->
<g id="node9" class="node">
<title>Node9</title>
<g id="a_node9"><a xlink:href="value__set_8cpp.html" target="_top" xlink:title="Value Set.">
<polygon fill="none" stroke="black" points="1321,-6 1321,-47 1490,-47 1490,-6 1321,-6"/>
<text text-anchor="start" x="1329" y="-35" font-family="Helvetica,sans-Serif" font-size="10.00">/home/runner/work/diffblue</text>
<text text-anchor="start" x="1329" y="-24" font-family="Helvetica,sans-Serif" font-size="10.00">&#45;cbmc/diffblue&#45;cbmc/src</text>
<text text-anchor="middle" x="1405.5" y="-13" font-family="Helvetica,sans-Serif" font-size="10.00">/pointer&#45;analysis/value_set.cpp</text>
</a>
</g>
</g>
<!-- Node1&#45;&gt;Node9 -->
<g id="edge8" class="edge">
<title>Node1&#45;&gt;Node9</title>
<path fill="none" stroke="midnightblue" d="M956.77,-105.73C1046.07,-95.9 1189.35,-77.98 1311.5,-53 1319.95,-51.27 1328.76,-49.22 1337.46,-47.04"/>
<polygon fill="midnightblue" stroke="midnightblue" points="956.25,-102.27 946.69,-106.83 957.01,-109.23 956.25,-102.27"/>
</g>
<!-- Node10 -->
<g id="node10" class="node">
<title>Node10</title>
<g id="a_node10"><a xlink:href="jbmc__parse__options_8cpp.html" target="_top" xlink:title="JBMC Command Line Option Processing.">
<polygon fill="none" stroke="black" points="1508.5,-6 1508.5,-47 1690.5,-47 1690.5,-6 1508.5,-6"/>
<text text-anchor="start" x="1516.5" y="-35" font-family="Helvetica,sans-Serif" font-size="10.00">/home/runner/work/diffblue</text>
<text text-anchor="start" x="1516.5" y="-24" font-family="Helvetica,sans-Serif" font-size="10.00">&#45;cbmc/diffblue&#45;cbmc/jbmc</text>
<text text-anchor="middle" x="1599.5" y="-13" font-family="Helvetica,sans-Serif" font-size="10.00">/src/jbmc/jbmc_parse_options.cpp</text>
</a>
</g>
</g>
<!-- Node1&#45;&gt;Node10 -->
<g id="edge9" class="edge">
<title>Node1&#45;&gt;Node10</title>
<path fill="none" stroke="midnightblue" d="M956.53,-110.24C1078.19,-103.29 1307.13,-86.73 1499.5,-53 1508.94,-51.34 1518.8,-49.27 1528.5,-47.02"/>
<polygon fill="midnightblue" stroke="midnightblue" points="956.31,-106.75 946.52,-110.81 956.71,-113.74 956.31,-106.75"/>
</g>
</g>
</svg>
