<?xml version="1.0" encoding="UTF-8" standalone="no"?>
<!DOCTYPE svg PUBLIC "-//W3C//DTD SVG 1.1//EN"
 "http://www.w3.org/Graphics/SVG/1.1/DTD/svg11.dtd">
<!-- Generated by graphviz version 2.43.0 (0)
 -->
<!-- Title: /home/runner/work/diffblue&#45;cbmc/diffblue&#45;cbmc/src/goto&#45;programs/adjust_float_expressions.h Pages: 1 -->
<svg width="2801pt" height="150pt"
 viewBox="0.00 0.00 2800.50 150.00" xmlns="http://www.w3.org/2000/svg" xmlns:xlink="http://www.w3.org/1999/xlink">
<g id="graph0" class="graph" transform="scale(1 1) rotate(0) translate(4 146)">
<title>/home/runner/work/diffblue&#45;cbmc/diffblue&#45;cbmc/src/goto&#45;programs/adjust_float_expressions.h</title>
<!-- Node1 -->
<g id="node1" class="node">
<title>Node1</title>
<g id="a_node1"><a xlink:title="Symbolic Execution.">
<polygon fill="#bfbfbf" stroke="black" points="1357,-89.5 1357,-141.5 1509,-141.5 1509,-89.5 1357,-89.5"/>
<text text-anchor="start" x="1365" y="-129.5" font-family="Helvetica,sans-Serif" font-size="10.00">/home/runner/work/diffblue</text>
<text text-anchor="start" x="1365" y="-118.5" font-family="Helvetica,sans-Serif" font-size="10.00">&#45;cbmc/diffblue&#45;cbmc/src</text>
<text text-anchor="start" x="1365" y="-107.5" font-family="Helvetica,sans-Serif" font-size="10.00">/goto&#45;programs/adjust_float</text>
<text text-anchor="middle" x="1433" y="-96.5" font-family="Helvetica,sans-Serif" font-size="10.00">_expressions.h</text>
</a>
</g>
</g>
<!-- Node2 -->
<g id="node2" class="node">
<title>Node2</title>
<g id="a_node2"><a xlink:href="constant__propagator_8cpp.html" target="_top" xlink:title="Constant Propagation.">
<polygon fill="none" stroke="black" points="0,-6 0,-47 186,-47 186,-6 0,-6"/>
<text text-anchor="start" x="8" y="-35" font-family="Helvetica,sans-Serif" font-size="10.00">/home/runner/work/diffblue</text>
<text text-anchor="start" x="8" y="-24" font-family="Helvetica,sans-Serif" font-size="10.00">&#45;cbmc/diffblue&#45;cbmc/src</text>
<text text-anchor="middle" x="93" y="-13" font-family="Helvetica,sans-Serif" font-size="10.00">/analyses/constant_propagator.cpp</text>
</a>
</g>
</g>
<!-- Node1&#45;&gt;Node2 -->
<g id="edge1" class="edge">
<title>Node1&#45;&gt;Node2</title>
<path fill="none" stroke="midnightblue" d="M1346.48,-112.4C1103.43,-106.16 417.7,-86.05 195,-53 184.71,-51.47 173.94,-49.36 163.42,-47"/>
<polygon fill="midnightblue" stroke="midnightblue" points="1346.59,-115.91 1356.68,-112.66 1346.77,-108.91 1346.59,-115.91"/>
</g>
<!-- Node3 -->
<g id="node3" class="node">
<title>Node3</title>
<g id="a_node3"><a xlink:href="abstract__value__object_8cpp.html" target="_top" xlink:title=" ">
<polygon fill="none" stroke="black" points="204.5,-0.5 204.5,-52.5 365.5,-52.5 365.5,-0.5 204.5,-0.5"/>
<text text-anchor="start" x="212.5" y="-40.5" font-family="Helvetica,sans-Serif" font-size="10.00">/home/runner/work/diffblue</text>
<text text-anchor="start" x="212.5" y="-29.5" font-family="Helvetica,sans-Serif" font-size="10.00">&#45;cbmc/diffblue&#45;cbmc/src</text>
<text text-anchor="start" x="212.5" y="-18.5" font-family="Helvetica,sans-Serif" font-size="10.00">/analyses/variable&#45;sensitivity</text>
<text text-anchor="middle" x="285" y="-7.5" font-family="Helvetica,sans-Serif" font-size="10.00">/abstract_value_object.cpp</text>
</a>
</g>
</g>
<!-- Node1&#45;&gt;Node3 -->
<g id="edge2" class="edge">
<title>Node1&#45;&gt;Node3</title>
<path fill="none" stroke="midnightblue" d="M1346.67,-111.91C1128.88,-104.98 561.18,-84.4 375,-53 371.96,-52.49 368.87,-51.91 365.76,-51.28"/>
<polygon fill="midnightblue" stroke="midnightblue" points="1346.67,-115.41 1356.78,-112.23 1346.89,-108.41 1346.67,-115.41"/>
</g>
<!-- Node4 -->
<g id="node4" class="node">
<title>Node4</title>
<g id="a_node4"><a xlink:href="ansi__c__internal__additions_8cpp.html" target="_top" xlink:title=" ">
<polygon fill="none" stroke="black" points="384,-6 384,-47 580,-47 580,-6 384,-6"/>
<text text-anchor="start" x="392" y="-35" font-family="Helvetica,sans-Serif" font-size="10.00">/home/runner/work/diffblue</text>
<text text-anchor="start" x="392" y="-24" font-family="Helvetica,sans-Serif" font-size="10.00">&#45;cbmc/diffblue&#45;cbmc/src</text>
<text text-anchor="middle" x="482" y="-13" font-family="Helvetica,sans-Serif" font-size="10.00">/ansi&#45;c/ansi_c_internal_additions.cpp</text>
</a>
</g>
</g>
<!-- Node1&#45;&gt;Node4 -->
<g id="edge3" class="edge">
<title>Node1&#45;&gt;Node4</title>
<path fill="none" stroke="midnightblue" d="M1346.48,-112.86C1192.9,-108.92 862.92,-95.78 588,-53 577.71,-51.4 566.95,-49.31 556.4,-47.01"/>
<polygon fill="midnightblue" stroke="midnightblue" points="1346.7,-116.37 1356.78,-113.12 1346.87,-109.37 1346.7,-116.37"/>
</g>
<!-- Node5 -->
<g id="node5" class="node">
<title>Node5</title>
<g id="a_node5"><a xlink:href="c__typecheck__expr_8cpp.html" target="_top" xlink:title="ANSI&#45;C Language Type Checking.">
<polygon fill="none" stroke="black" points="597.5,-6 597.5,-47 756.5,-47 756.5,-6 597.5,-6"/>
<text text-anchor="start" x="605.5" y="-35" font-family="Helvetica,sans-Serif" font-size="10.00">/home/runner/work/diffblue</text>
<text text-anchor="start" x="605.5" y="-24" font-family="Helvetica,sans-Serif" font-size="10.00">&#45;cbmc/diffblue&#45;cbmc/src</text>
<text text-anchor="middle" x="677" y="-13" font-family="Helvetica,sans-Serif" font-size="10.00">/ansi&#45;c/c_typecheck_expr.cpp</text>
</a>
</g>
</g>
<!-- Node1&#45;&gt;Node5 -->
<g id="edge4" class="edge">
<title>Node1&#45;&gt;Node5</title>
<path fill="none" stroke="midnightblue" d="M1346.72,-111.7C1218.91,-106.39 972.15,-91.68 766,-53 757.47,-51.4 748.58,-49.34 739.86,-47.08"/>
<polygon fill="midnightblue" stroke="midnightblue" points="1346.71,-115.2 1356.84,-112.11 1346.99,-108.21 1346.71,-115.2"/>
</g>
<!-- Node6 -->
<g id="node6" class="node">
<title>Node6</title>
<g id="a_node6"><a xlink:href="cpp__internal__additions_8cpp.html" target="_top" xlink:title=" ">
<polygon fill="none" stroke="black" points="775,-6 775,-47 945,-47 945,-6 775,-6"/>
<text text-anchor="start" x="783" y="-35" font-family="Helvetica,sans-Serif" font-size="10.00">/home/runner/work/diffblue</text>
<text text-anchor="start" x="783" y="-24" font-family="Helvetica,sans-Serif" font-size="10.00">&#45;cbmc/diffblue&#45;cbmc/src</text>
<text text-anchor="middle" x="860" y="-13" font-family="Helvetica,sans-Serif" font-size="10.00">/cpp/cpp_internal_additions.cpp</text>
</a>
</g>
</g>
<!-- Node1&#45;&gt;Node6 -->
<g id="edge5" class="edge">
<title>Node1&#45;&gt;Node6</title>
<path fill="none" stroke="midnightblue" d="M1347,-107.05C1250.68,-97.87 1090.21,-80.09 954,-53 945.38,-51.29 936.38,-49.21 927.51,-47"/>
<polygon fill="midnightblue" stroke="midnightblue" points="1346.7,-110.53 1356.98,-107.99 1347.36,-103.56 1346.7,-110.53"/>
</g>
<!-- Node7 -->
<g id="node7" class="node">
<title>Node7</title>
<g id="a_node7"><a xlink:href="cprover__parse__options_8cpp.html" target="_top" xlink:title="cprover Command Line Options Processing">
<polygon fill="none" stroke="black" points="963,-6 963,-47 1153,-47 1153,-6 963,-6"/>
<text text-anchor="start" x="971" y="-35" font-family="Helvetica,sans-Serif" font-size="10.00">/home/runner/work/diffblue</text>
<text text-anchor="start" x="971" y="-24" font-family="Helvetica,sans-Serif" font-size="10.00">&#45;cbmc/diffblue&#45;cbmc/src</text>
<text text-anchor="middle" x="1058" y="-13" font-family="Helvetica,sans-Serif" font-size="10.00">/cprover/cprover_parse_options.cpp</text>
</a>
</g>
</g>
<!-- Node1&#45;&gt;Node7 -->
<g id="edge6" class="edge">
<title>Node1&#45;&gt;Node7</title>
<path fill="none" stroke="midnightblue" d="M1347.23,-95.43C1293.88,-83.47 1223.88,-67.61 1162,-53 1153.95,-51.1 1145.55,-49.09 1137.18,-47.06"/>
<polygon fill="midnightblue" stroke="midnightblue" points="1346.47,-98.85 1356.99,-97.62 1348,-92.02 1346.47,-98.85"/>
</g>
<!-- Node8 -->
<g id="node8" class="node">
<title>Node8</title>
<g id="a_node8"><a xlink:href="full__slicer_8cpp.html" target="_top" xlink:title="Slicing.">
<polygon fill="none" stroke="black" points="1171,-6 1171,-47 1339,-47 1339,-6 1171,-6"/>
<text text-anchor="start" x="1179" y="-35" font-family="Helvetica,sans-Serif" font-size="10.00">/home/runner/work/diffblue</text>
<text text-anchor="start" x="1179" y="-24" font-family="Helvetica,sans-Serif" font-size="10.00">&#45;cbmc/diffblue&#45;cbmc/src</text>
<text text-anchor="middle" x="1255" y="-13" font-family="Helvetica,sans-Serif" font-size="10.00">/goto&#45;instrument/full_slicer.cpp</text>
</a>
</g>
</g>
<!-- Node1&#45;&gt;Node8 -->
<g id="edge7" class="edge">
<title>Node1&#45;&gt;Node8</title>
<path fill="none" stroke="midnightblue" d="M1372.29,-84.83C1346.79,-72.36 1317.83,-58.21 1295.06,-47.08"/>
<polygon fill="midnightblue" stroke="midnightblue" points="1370.99,-88.09 1381.52,-89.34 1374.07,-81.8 1370.99,-88.09"/>
</g>
<!-- Node9 -->
<g id="node9" class="node">
<title>Node9</title>
<g id="a_node9"><a xlink:href="adjust__float__expressions_8cpp.html" target="_top" xlink:title="Symbolic Execution.">
<polygon fill="none" stroke="black" points="1357,-0.5 1357,-52.5 1509,-52.5 1509,-0.5 1357,-0.5"/>
<text text-anchor="start" x="1365" y="-40.5" font-family="Helvetica,sans-Serif" font-size="10.00">/home/runner/work/diffblue</text>
<text text-anchor="start" x="1365" y="-29.5" font-family="Helvetica,sans-Serif" font-size="10.00">&#45;cbmc/diffblue&#45;cbmc/src</text>
<text text-anchor="start" x="1365" y="-18.5" font-family="Helvetica,sans-Serif" font-size="10.00">/goto&#45;programs/adjust_float</text>
<text text-anchor="middle" x="1433" y="-7.5" font-family="Helvetica,sans-Serif" font-size="10.00">_expressions.cpp</text>
</a>
</g>
</g>
<!-- Node1&#45;&gt;Node9 -->
<g id="edge8" class="edge">
<title>Node1&#45;&gt;Node9</title>
<path fill="none" stroke="midnightblue" d="M1433,-79.19C1433,-70.28 1433,-60.9 1433,-52.61"/>
<polygon fill="midnightblue" stroke="midnightblue" points="1429.5,-79.34 1433,-89.34 1436.5,-79.34 1429.5,-79.34"/>
</g>
<!-- Node10 -->
<g id="node10" class="node">
<title>Node10</title>
<g id="a_node10"><a xlink:href="process__goto__program_8cpp.html" target="_top" xlink:title="Get a Goto Program.">
<polygon fill="none" stroke="black" points="1527.5,-0.5 1527.5,-52.5 1686.5,-52.5 1686.5,-0.5 1527.5,-0.5"/>
<text text-anchor="start" x="1535.5" y="-40.5" font-family="Helvetica,sans-Serif" font-size="10.00">/home/runner/work/diffblue</text>
<text text-anchor="start" x="1535.5" y="-29.5" font-family="Helvetica,sans-Serif" font-size="10.00">&#45;cbmc/diffblue&#45;cbmc/src</text>
<text text-anchor="start" x="1535.5" y="-18.5" font-family="Helvetica,sans-Serif" font-size="10.00">/goto&#45;programs/process_goto</text>
<text text-anchor="middle" x="1607" y="-7.5" font-family="Helvetica,sans-Serif" font-size="10.00">_program.cpp</text>
</a>
</g>
</g>
<!-- Node1&#45;&gt;Node10 -->
<g id="edge9" class="edge">
<title>Node1&#45;&gt;Node10</title>
<path fill="none" stroke="midnightblue" d="M1492.45,-84.78C1513.38,-74.31 1536.69,-62.66 1556.79,-52.61"/>
<polygon fill="midnightblue" stroke="midnightblue" points="1490.71,-81.73 1483.33,-89.34 1493.84,-87.99 1490.71,-81.73"/>
</g>
<!-- Node11 -->
<g id="node11" class="node">
<title>Node11</title>
<g id="a_node11"><a xlink:href="remove__internal__symbols_8cpp.html" target="_top" xlink:title="Remove symbols that are internal only.">
<polygon fill="none" stroke="black" points="1704.5,-0.5 1704.5,-52.5 1853.5,-52.5 1853.5,-0.5 1704.5,-0.5"/>
<text text-anchor="start" x="1712.5" y="-40.5" font-family="Helvetica,sans-Serif" font-size="10.00">/home/runner/work/diffblue</text>
<text text-anchor="start" x="1712.5" y="-29.5" font-family="Helvetica,sans-Serif" font-size="10.00">&#45;cbmc/diffblue&#45;cbmc/src</text>
<text text-anchor="start" x="1712.5" y="-18.5" font-family="Helvetica,sans-Serif" font-size="10.00">/linking/remove_internal</text>
<text text-anchor="middle" x="1779" y="-7.5" font-family="Helvetica,sans-Serif" font-size="10.00">_symbols.cpp</text>
</a>
</g>
</g>
<!-- Node1&#45;&gt;Node11 -->
<g id="edge10" class="edge">
<title>Node1&#45;&gt;Node11</title>
<path fill="none" stroke="midnightblue" d="M1518.79,-95.99C1570.37,-84.48 1637.21,-68.89 1696,-53 1698.76,-52.25 1701.58,-51.48 1704.41,-50.68"/>
<polygon fill="midnightblue" stroke="midnightblue" points="1518.02,-92.58 1509.02,-98.17 1519.54,-99.41 1518.02,-92.58"/>
</g>
<!-- Node12 -->
<g id="node12" class="node">
<title>Node12</title>
<g id="a_node12"><a xlink:href="statement__list__entry__point_8cpp.html" target="_top" xlink:title="Statement List Language Entry Point.">
<polygon fill="none" stroke="black" points="1871.5,-0.5 1871.5,-52.5 2020.5,-52.5 2020.5,-0.5 1871.5,-0.5"/>
<text text-anchor="start" x="1879.5" y="-40.5" font-family="Helvetica,sans-Serif" font-size="10.00">/home/runner/work/diffblue</text>
<text text-anchor="start" x="1879.5" y="-29.5" font-family="Helvetica,sans-Serif" font-size="10.00">&#45;cbmc/diffblue&#45;cbmc/src</text>
<text text-anchor="start" x="1879.5" y="-18.5" font-family="Helvetica,sans-Serif" font-size="10.00">/statement&#45;list/statement</text>
<text text-anchor="middle" x="1946" y="-7.5" font-family="Helvetica,sans-Serif" font-size="10.00">_list_entry_point.cpp</text>
</a>
</g>
</g>
<!-- Node1&#45;&gt;Node12 -->
<g id="edge11" class="edge">
<title>Node1&#45;&gt;Node12</title>
<path fill="none" stroke="midnightblue" d="M1519.51,-106.14C1606.86,-96.76 1745.31,-79.33 1863,-53 1865.8,-52.37 1868.63,-51.7 1871.49,-50.99"/>
<polygon fill="midnightblue" stroke="midnightblue" points="1518.96,-102.68 1509.38,-107.21 1519.7,-109.64 1518.96,-102.68"/>
</g>
<!-- Node13 -->
<g id="node13" class="node">
<title>Node13</title>
<g id="a_node13"><a xlink:href="java__bytecode__internal__additions_8cpp.html" target="_top" xlink:title=" ">
<polygon fill="none" stroke="black" points="2039,-0.5 2039,-52.5 2221,-52.5 2221,-0.5 2039,-0.5"/>
<text text-anchor="start" x="2047" y="-40.5" font-family="Helvetica,sans-Serif" font-size="10.00">/home/runner/work/diffblue</text>
<text text-anchor="start" x="2047" y="-29.5" font-family="Helvetica,sans-Serif" font-size="10.00">&#45;cbmc/diffblue&#45;cbmc/jbmc</text>
<text text-anchor="start" x="2047" y="-18.5" font-family="Helvetica,sans-Serif" font-size="10.00">/src/java_bytecode/java_bytecode</text>
<text text-anchor="middle" x="2130" y="-7.5" font-family="Helvetica,sans-Serif" font-size="10.00">_internal_additions.cpp</text>
</a>
</g>
</g>
<!-- Node1&#45;&gt;Node13 -->
<g id="edge12" class="edge">
<title>Node1&#45;&gt;Node13</title>
<path fill="none" stroke="midnightblue" d="M1519.66,-109.58C1636.31,-102.05 1850.02,-85.04 2030,-53 2032.91,-52.48 2035.86,-51.92 2038.83,-51.34"/>
<polygon fill="midnightblue" stroke="midnightblue" points="1519.12,-106.11 1509.36,-110.24 1519.56,-113.09 1519.12,-106.11"/>
</g>
<!-- Node14 -->
<g id="node14" class="node">
<title>Node14</title>
<g id="a_node14"><a xlink:href="java__entry__point_8cpp.html" target="_top" xlink:title=" ">
<polygon fill="none" stroke="black" points="2239.5,-0.5 2239.5,-52.5 2402.5,-52.5 2402.5,-0.5 2239.5,-0.5"/>
<text text-anchor="start" x="2247.5" y="-40.5" font-family="Helvetica,sans-Serif" font-size="10.00">/home/runner/work/diffblue</text>
<text text-anchor="start" x="2247.5" y="-29.5" font-family="Helvetica,sans-Serif" font-size="10.00">&#45;cbmc/diffblue&#45;cbmc/jbmc</text>
<text text-anchor="start" x="2247.5" y="-18.5" font-family="Helvetica,sans-Serif" font-size="10.00">/src/java_bytecode/java_entry</text>
<text text-anchor="middle" x="2321" y="-7.5" font-family="Helvetica,sans-Serif" font-size="10.00">_point.cpp</text>
</a>
</g>
</g>
<!-- Node1&#45;&gt;Node14 -->
<g id="edge13" class="edge">
<title>Node1&#45;&gt;Node14</title>
<path fill="none" stroke="midnightblue" d="M1519.48,-113.37C1666.54,-110.21 1974.27,-98.25 2230,-53 2233.07,-52.46 2236.18,-51.85 2239.32,-51.2"/>
<polygon fill="midnightblue" stroke="midnightblue" points="1519.1,-109.87 1509.17,-113.58 1519.24,-116.87 1519.1,-109.87"/>
</g>
<!-- Node15 -->
<g id="node15" class="node">
<title>Node15</title>
<g id="a_node15"><a xlink:href="jbmc__parse__options_8cpp.html" target="_top" xlink:title="JBMC Command Line Option Processing.">
<polygon fill="none" stroke="black" points="2421,-6 2421,-47 2603,-47 2603,-6 2421,-6"/>
<text text-anchor="start" x="2429" y="-35" font-family="Helvetica,sans-Serif" font-size="10.00">/home/runner/work/diffblue</text>
<text text-anchor="start" x="2429" y="-24" font-family="Helvetica,sans-Serif" font-size="10.00">&#45;cbmc/diffblue&#45;cbmc/jbmc</text>
<text text-anchor="middle" x="2512" y="-13" font-family="Helvetica,sans-Serif" font-size="10.00">/src/jbmc/jbmc_parse_options.cpp</text>
</a>
</g>
</g>
<!-- Node1&#45;&gt;Node15 -->
<g id="edge14" class="edge">
<title>Node1&#45;&gt;Node15</title>
<path fill="none" stroke="midnightblue" d="M1519.28,-114.48C1690.56,-113.24 2085.17,-104.47 2412,-53 2421.91,-51.44 2432.27,-49.34 2442.41,-47.02"/>
<polygon fill="midnightblue" stroke="midnightblue" points="1519.04,-110.98 1509.07,-114.54 1519.09,-117.98 1519.04,-110.98"/>
</g>
<!-- Node16 -->
<g id="node16" class="node">
<title>Node16</title>
<g id="a_node16"><a xlink:href="jdiff__parse__options_8cpp.html" target="_top" xlink:title="JDIFF Command Line Option Processing.">
<polygon fill="none" stroke="black" points="2621.5,-6 2621.5,-47 2792.5,-47 2792.5,-6 2621.5,-6"/>
<text text-anchor="start" x="2629.5" y="-35" font-family="Helvetica,sans-Serif" font-size="10.00">/home/runner/work/diffblue</text>
<text text-anchor="start" x="2629.5" y="-24" font-family="Helvetica,sans-Serif" font-size="10.00">&#45;cbmc/diffblue&#45;cbmc/jbmc</text>
<text text-anchor="middle" x="2707" y="-13" font-family="Helvetica,sans-Serif" font-size="10.00">/src/jdiff/jdiff_parse_options.cpp</text>
</a>
</g>
</g>
<!-- Node1&#45;&gt;Node16 -->
<g id="edge15" class="edge">
<title>Node1&#45;&gt;Node16</title>
<path fill="none" stroke="midnightblue" d="M1519.49,-112.35C1754.52,-106.12 2401.43,-86.37 2612,-53 2621.61,-51.48 2631.66,-49.37 2641.46,-47.01"/>
<polygon fill="midnightblue" stroke="midnightblue" points="1519.19,-108.85 1509.28,-112.62 1519.37,-115.85 1519.19,-108.85"/>
</g>
</g>
</svg>
