<?xml version="1.0" encoding="UTF-8" standalone="no"?>
<!DOCTYPE svg PUBLIC "-//W3C//DTD SVG 1.1//EN"
 "http://www.w3.org/Graphics/SVG/1.1/DTD/svg11.dtd">
<!-- Generated by graphviz version 2.43.0 (0)
 -->
<!-- Title: /home/runner/work/diffblue&#45;cbmc/diffblue&#45;cbmc/src/ansi&#45;c/ansi_c_language.h Pages: 1 -->
<svg width="3255pt" height="228pt"
 viewBox="0.00 0.00 3254.50 228.00" xmlns="http://www.w3.org/2000/svg" xmlns:xlink="http://www.w3.org/1999/xlink">
<g id="graph0" class="graph" transform="scale(1 1) rotate(0) translate(4 224)">
<title>/home/runner/work/diffblue&#45;cbmc/diffblue&#45;cbmc/src/ansi&#45;c/ansi_c_language.h</title>
<!-- Node1 -->
<g id="node1" class="node">
<title>Node1</title>
<g id="a_node1"><a xlink:title=" ">
<polygon fill="#bfbfbf" stroke="black" points="1489,-178.5 1489,-219.5 1638,-219.5 1638,-178.5 1489,-178.5"/>
<text text-anchor="start" x="1497" y="-207.5" font-family="Helvetica,sans-Serif" font-size="10.00">/home/runner/work/diffblue</text>
<text text-anchor="start" x="1497" y="-196.5" font-family="Helvetica,sans-Serif" font-size="10.00">&#45;cbmc/diffblue&#45;cbmc/src</text>
<text text-anchor="middle" x="1563.5" y="-185.5" font-family="Helvetica,sans-Serif" font-size="10.00">/ansi&#45;c/ansi_c_language.h</text>
</a>
</g>
</g>
<!-- Node2 -->
<g id="node2" class="node">
<title>Node2</title>
<g id="a_node2"><a xlink:href="ansi__c__language_8cpp.html" target="_top" xlink:title=" ">
<polygon fill="none" stroke="black" points="0,-95 0,-136 153,-136 153,-95 0,-95"/>
<text text-anchor="start" x="8" y="-124" font-family="Helvetica,sans-Serif" font-size="10.00">/home/runner/work/diffblue</text>
<text text-anchor="start" x="8" y="-113" font-family="Helvetica,sans-Serif" font-size="10.00">&#45;cbmc/diffblue&#45;cbmc/src</text>
<text text-anchor="middle" x="76.5" y="-102" font-family="Helvetica,sans-Serif" font-size="10.00">/ansi&#45;c/ansi_c_language.cpp</text>
</a>
</g>
</g>
<!-- Node1&#45;&gt;Node2 -->
<g id="edge1" class="edge">
<title>Node1&#45;&gt;Node2</title>
<path fill="none" stroke="midnightblue" d="M1478.52,-197.4C1215.47,-195.11 416.97,-184.72 161.5,-142 152.69,-140.53 143.5,-138.41 134.57,-136.02"/>
<polygon fill="midnightblue" stroke="midnightblue" points="1478.74,-200.9 1488.77,-197.49 1478.8,-193.9 1478.74,-200.9"/>
</g>
<!-- Node3 -->
<g id="node3" class="node">
<title>Node3</title>
<g id="a_node3"><a xlink:href="ansi-c_2cprover__library_8cpp.html" target="_top" xlink:title=" ">
<polygon fill="none" stroke="black" points="171,-95 171,-136 320,-136 320,-95 171,-95"/>
<text text-anchor="start" x="179" y="-124" font-family="Helvetica,sans-Serif" font-size="10.00">/home/runner/work/diffblue</text>
<text text-anchor="start" x="179" y="-113" font-family="Helvetica,sans-Serif" font-size="10.00">&#45;cbmc/diffblue&#45;cbmc/src</text>
<text text-anchor="middle" x="245.5" y="-102" font-family="Helvetica,sans-Serif" font-size="10.00">/ansi&#45;c/cprover_library.cpp</text>
</a>
</g>
</g>
<!-- Node1&#45;&gt;Node3 -->
<g id="edge2" class="edge">
<title>Node1&#45;&gt;Node3</title>
<path fill="none" stroke="midnightblue" d="M1478.76,-196.75C1238.25,-192.78 554.54,-178.53 333.5,-142 324.55,-140.52 315.23,-138.44 306.14,-136.09"/>
<polygon fill="midnightblue" stroke="midnightblue" points="1478.79,-200.25 1488.84,-196.91 1478.9,-193.25 1478.79,-200.25"/>
</g>
<!-- Node4 -->
<g id="node4" class="node">
<title>Node4</title>
<g id="a_node4"><a xlink:href="cbmc__languages_8cpp.html" target="_top" xlink:title="Language Registration.">
<polygon fill="none" stroke="black" points="201,-6 201,-47 352,-47 352,-6 201,-6"/>
<text text-anchor="start" x="209" y="-35" font-family="Helvetica,sans-Serif" font-size="10.00">/home/runner/work/diffblue</text>
<text text-anchor="start" x="209" y="-24" font-family="Helvetica,sans-Serif" font-size="10.00">&#45;cbmc/diffblue&#45;cbmc/src</text>
<text text-anchor="middle" x="276.5" y="-13" font-family="Helvetica,sans-Serif" font-size="10.00">/cbmc/cbmc_languages.cpp</text>
</a>
</g>
</g>
<!-- Node1&#45;&gt;Node4 -->
<g id="edge3" class="edge">
<title>Node1&#45;&gt;Node4</title>
<path fill="none" stroke="midnightblue" d="M1478.76,-198.27C1221.88,-198.51 463.46,-194.69 366.5,-142 341.03,-128.16 346.32,-111.86 328.5,-89 317.33,-74.66 304.09,-59.03 293.77,-47.11"/>
<polygon fill="midnightblue" stroke="midnightblue" points="1478.79,-201.77 1488.79,-198.26 1478.78,-194.77 1478.79,-201.77"/>
</g>
<!-- Node5 -->
<g id="node5" class="node">
<title>Node5</title>
<g id="a_node5"><a xlink:href="cbmc__parse__options_8h.html" target="_top" xlink:title="CBMC Command Line Option Processing.">
<polygon fill="none" stroke="black" points="375.5,-95 375.5,-136 533.5,-136 533.5,-95 375.5,-95"/>
<text text-anchor="start" x="383.5" y="-124" font-family="Helvetica,sans-Serif" font-size="10.00">/home/runner/work/diffblue</text>
<text text-anchor="start" x="383.5" y="-113" font-family="Helvetica,sans-Serif" font-size="10.00">&#45;cbmc/diffblue&#45;cbmc/src</text>
<text text-anchor="middle" x="454.5" y="-102" font-family="Helvetica,sans-Serif" font-size="10.00">/cbmc/cbmc_parse_options.h</text>
</a>
</g>
</g>
<!-- Node1&#45;&gt;Node5 -->
<g id="edge4" class="edge">
<title>Node1&#45;&gt;Node5</title>
<path fill="none" stroke="midnightblue" d="M1478.73,-195.83C1267.47,-190.02 721.69,-172.47 542.5,-142 533.56,-140.48 524.24,-138.37 515.15,-136.02"/>
<polygon fill="midnightblue" stroke="midnightblue" points="1478.75,-199.33 1488.84,-196.11 1478.94,-192.33 1478.75,-199.33"/>
</g>
<!-- Node9 -->
<g id="node9" class="node">
<title>Node9</title>
<g id="a_node9"><a xlink:href="cprover__parse__options_8cpp.html" target="_top" xlink:title="cprover Command Line Options Processing">
<polygon fill="none" stroke="black" points="551.5,-95 551.5,-136 741.5,-136 741.5,-95 551.5,-95"/>
<text text-anchor="start" x="559.5" y="-124" font-family="Helvetica,sans-Serif" font-size="10.00">/home/runner/work/diffblue</text>
<text text-anchor="start" x="559.5" y="-113" font-family="Helvetica,sans-Serif" font-size="10.00">&#45;cbmc/diffblue&#45;cbmc/src</text>
<text text-anchor="middle" x="646.5" y="-102" font-family="Helvetica,sans-Serif" font-size="10.00">/cprover/cprover_parse_options.cpp</text>
</a>
</g>
</g>
<!-- Node1&#45;&gt;Node9 -->
<g id="edge9" class="edge">
<title>Node1&#45;&gt;Node9</title>
<path fill="none" stroke="midnightblue" d="M1478.36,-196.93C1329.76,-194 1013.81,-183.04 750.5,-142 740.31,-140.41 729.64,-138.31 719.19,-136"/>
<polygon fill="midnightblue" stroke="midnightblue" points="1478.7,-200.44 1488.76,-197.13 1478.83,-193.44 1478.7,-200.44"/>
</g>
<!-- Node10 -->
<g id="node10" class="node">
<title>Node10</title>
<g id="a_node10"><a xlink:href="goto__analyzer__languages_8cpp.html" target="_top" xlink:title="Language Registration.">
<polygon fill="none" stroke="black" points="760,-89.5 760,-141.5 919,-141.5 919,-89.5 760,-89.5"/>
<text text-anchor="start" x="768" y="-129.5" font-family="Helvetica,sans-Serif" font-size="10.00">/home/runner/work/diffblue</text>
<text text-anchor="start" x="768" y="-118.5" font-family="Helvetica,sans-Serif" font-size="10.00">&#45;cbmc/diffblue&#45;cbmc/src</text>
<text text-anchor="start" x="768" y="-107.5" font-family="Helvetica,sans-Serif" font-size="10.00">/goto&#45;analyzer/goto_analyzer</text>
<text text-anchor="middle" x="839.5" y="-96.5" font-family="Helvetica,sans-Serif" font-size="10.00">_languages.cpp</text>
</a>
</g>
</g>
<!-- Node1&#45;&gt;Node10 -->
<g id="edge10" class="edge">
<title>Node1&#45;&gt;Node10</title>
<path fill="none" stroke="midnightblue" d="M1478.51,-195.66C1356.04,-191.12 1123.24,-178.14 928.5,-142 925.5,-141.44 922.45,-140.83 919.38,-140.17"/>
<polygon fill="midnightblue" stroke="midnightblue" points="1478.46,-199.16 1488.58,-196.02 1478.71,-192.16 1478.46,-199.16"/>
</g>
<!-- Node11 -->
<g id="node11" class="node">
<title>Node11</title>
<g id="a_node11"><a xlink:href="goto__cc__languages_8cpp.html" target="_top" xlink:title="Language Registration.">
<polygon fill="none" stroke="black" points="937.5,-95 937.5,-136 1109.5,-136 1109.5,-95 937.5,-95"/>
<text text-anchor="start" x="945.5" y="-124" font-family="Helvetica,sans-Serif" font-size="10.00">/home/runner/work/diffblue</text>
<text text-anchor="start" x="945.5" y="-113" font-family="Helvetica,sans-Serif" font-size="10.00">&#45;cbmc/diffblue&#45;cbmc/src</text>
<text text-anchor="middle" x="1023.5" y="-102" font-family="Helvetica,sans-Serif" font-size="10.00">/goto&#45;cc/goto_cc_languages.cpp</text>
</a>
</g>
</g>
<!-- Node1&#45;&gt;Node11 -->
<g id="edge11" class="edge">
<title>Node1&#45;&gt;Node11</title>
<path fill="none" stroke="midnightblue" d="M1478.85,-190.83C1388.91,-182.4 1242.84,-166.39 1118.5,-142 1109.79,-140.29 1100.69,-138.22 1091.73,-136.01"/>
<polygon fill="midnightblue" stroke="midnightblue" points="1478.71,-194.33 1488.99,-191.77 1479.36,-187.36 1478.71,-194.33"/>
</g>
<!-- Node12 -->
<g id="node12" class="node">
<title>Node12</title>
<g id="a_node12"><a xlink:href="goto__diff__languages_8cpp.html" target="_top" xlink:title="Language Registration.">
<polygon fill="none" stroke="black" points="1127.5,-95 1127.5,-136 1309.5,-136 1309.5,-95 1127.5,-95"/>
<text text-anchor="start" x="1135.5" y="-124" font-family="Helvetica,sans-Serif" font-size="10.00">/home/runner/work/diffblue</text>
<text text-anchor="start" x="1135.5" y="-113" font-family="Helvetica,sans-Serif" font-size="10.00">&#45;cbmc/diffblue&#45;cbmc/src</text>
<text text-anchor="middle" x="1218.5" y="-102" font-family="Helvetica,sans-Serif" font-size="10.00">/goto&#45;diff/goto_diff_languages.cpp</text>
</a>
</g>
</g>
<!-- Node1&#45;&gt;Node12 -->
<g id="edge12" class="edge">
<title>Node1&#45;&gt;Node12</title>
<path fill="none" stroke="midnightblue" d="M1478.98,-179.23C1431.71,-168.59 1371.75,-154.87 1318.5,-142 1310.66,-140.11 1302.49,-138.09 1294.35,-136.05"/>
<polygon fill="midnightblue" stroke="midnightblue" points="1478.35,-182.67 1488.87,-181.45 1479.88,-175.84 1478.35,-182.67"/>
</g>
<!-- Node13 -->
<g id="node13" class="node">
<title>Node13</title>
<g id="a_node13"><a xlink:href="memory__predicates_8cpp.html" target="_top" xlink:title="Predicates to specify memory footprint in function contracts.">
<polygon fill="none" stroke="black" points="1328,-89.5 1328,-141.5 1477,-141.5 1477,-89.5 1328,-89.5"/>
<text text-anchor="start" x="1336" y="-129.5" font-family="Helvetica,sans-Serif" font-size="10.00">/home/runner/work/diffblue</text>
<text text-anchor="start" x="1336" y="-118.5" font-family="Helvetica,sans-Serif" font-size="10.00">&#45;cbmc/diffblue&#45;cbmc/src</text>
<text text-anchor="start" x="1336" y="-107.5" font-family="Helvetica,sans-Serif" font-size="10.00">/goto&#45;instrument/contracts</text>
<text text-anchor="middle" x="1402.5" y="-96.5" font-family="Helvetica,sans-Serif" font-size="10.00">/memory_predicates.cpp</text>
</a>
</g>
</g>
<!-- Node1&#45;&gt;Node13 -->
<g id="edge13" class="edge">
<title>Node1&#45;&gt;Node13</title>
<path fill="none" stroke="midnightblue" d="M1515.95,-173.93C1495.82,-163.74 1472.37,-151.87 1452.04,-141.58"/>
<polygon fill="midnightblue" stroke="midnightblue" points="1514.43,-177.08 1524.94,-178.48 1517.6,-170.84 1514.43,-177.08"/>
</g>
<!-- Node14 -->
<g id="node14" class="node">
<title>Node14</title>
<g id="a_node14"><a xlink:href="goto__instrument__languages_8cpp.html" target="_top" xlink:title="Language Registration.">
<polygon fill="none" stroke="black" points="1332.5,-0.5 1332.5,-52.5 1514.5,-52.5 1514.5,-0.5 1332.5,-0.5"/>
<text text-anchor="start" x="1340.5" y="-40.5" font-family="Helvetica,sans-Serif" font-size="10.00">/home/runner/work/diffblue</text>
<text text-anchor="start" x="1340.5" y="-29.5" font-family="Helvetica,sans-Serif" font-size="10.00">&#45;cbmc/diffblue&#45;cbmc/src</text>
<text text-anchor="start" x="1340.5" y="-18.5" font-family="Helvetica,sans-Serif" font-size="10.00">/goto&#45;instrument/goto_instrument</text>
<text text-anchor="middle" x="1423.5" y="-7.5" font-family="Helvetica,sans-Serif" font-size="10.00">_languages.cpp</text>
</a>
</g>
</g>
<!-- Node1&#45;&gt;Node14 -->
<g id="edge14" class="edge">
<title>Node1&#45;&gt;Node14</title>
<path fill="none" stroke="midnightblue" d="M1543.58,-170.1C1520.73,-138.12 1486.3,-89.95 1485.5,-89 1474.79,-76.42 1461.96,-63.4 1450.75,-52.6"/>
<polygon fill="midnightblue" stroke="midnightblue" points="1540.73,-172.14 1549.39,-178.24 1546.43,-168.07 1540.73,-172.14"/>
</g>
<!-- Node15 -->
<g id="node15" class="node">
<title>Node15</title>
<g id="a_node15"><a xlink:href="goto__instrument__parse__options_8cpp.html" target="_top" xlink:title="Main Module.">
<polygon fill="none" stroke="black" points="1732.5,-0.5 1732.5,-52.5 1914.5,-52.5 1914.5,-0.5 1732.5,-0.5"/>
<text text-anchor="start" x="1740.5" y="-40.5" font-family="Helvetica,sans-Serif" font-size="10.00">/home/runner/work/diffblue</text>
<text text-anchor="start" x="1740.5" y="-29.5" font-family="Helvetica,sans-Serif" font-size="10.00">&#45;cbmc/diffblue&#45;cbmc/src</text>
<text text-anchor="start" x="1740.5" y="-18.5" font-family="Helvetica,sans-Serif" font-size="10.00">/goto&#45;instrument/goto_instrument</text>
<text text-anchor="middle" x="1823.5" y="-7.5" font-family="Helvetica,sans-Serif" font-size="10.00">_parse_options.cpp</text>
</a>
</g>
</g>
<!-- Node1&#45;&gt;Node15 -->
<g id="edge15" class="edge">
<title>Node1&#45;&gt;Node15</title>
<path fill="none" stroke="midnightblue" d="M1648.03,-179.02C1673.91,-170.53 1701.36,-158.58 1723.5,-142 1746.7,-124.63 1742.7,-111.06 1761.5,-89 1772.22,-76.42 1785.05,-63.41 1796.25,-52.6"/>
<polygon fill="midnightblue" stroke="midnightblue" points="1646.69,-175.77 1638.2,-182.11 1648.79,-182.45 1646.69,-175.77"/>
</g>
<!-- Node16 -->
<g id="node16" class="node">
<title>Node16</title>
<g id="a_node16"><a xlink:href="goto__instrument__parse__options_8h.html" target="_top" xlink:title="Command Line Parsing.">
<polygon fill="none" stroke="black" points="1532.5,-89.5 1532.5,-141.5 1714.5,-141.5 1714.5,-89.5 1532.5,-89.5"/>
<text text-anchor="start" x="1540.5" y="-129.5" font-family="Helvetica,sans-Serif" font-size="10.00">/home/runner/work/diffblue</text>
<text text-anchor="start" x="1540.5" y="-118.5" font-family="Helvetica,sans-Serif" font-size="10.00">&#45;cbmc/diffblue&#45;cbmc/src</text>
<text text-anchor="start" x="1540.5" y="-107.5" font-family="Helvetica,sans-Serif" font-size="10.00">/goto&#45;instrument/goto_instrument</text>
<text text-anchor="middle" x="1623.5" y="-96.5" font-family="Helvetica,sans-Serif" font-size="10.00">_parse_options.h</text>
</a>
</g>
</g>
<!-- Node1&#45;&gt;Node16 -->
<g id="edge16" class="edge">
<title>Node1&#45;&gt;Node16</title>
<path fill="none" stroke="midnightblue" d="M1584.03,-170.12C1590.84,-160.87 1598.37,-150.63 1605.02,-141.61"/>
<polygon fill="midnightblue" stroke="midnightblue" points="1581.13,-168.14 1578.02,-178.27 1586.77,-172.29 1581.13,-168.14"/>
</g>
<!-- Node18 -->
<g id="node18" class="node">
<title>Node18</title>
<g id="a_node18"><a xlink:href="model__argc__argv_8cpp.html" target="_top" xlink:title="Initialize command line arguments.">
<polygon fill="none" stroke="black" points="1770.5,-89.5 1770.5,-141.5 1928.5,-141.5 1928.5,-89.5 1770.5,-89.5"/>
<text text-anchor="start" x="1778.5" y="-129.5" font-family="Helvetica,sans-Serif" font-size="10.00">/home/runner/work/diffblue</text>
<text text-anchor="start" x="1778.5" y="-118.5" font-family="Helvetica,sans-Serif" font-size="10.00">&#45;cbmc/diffblue&#45;cbmc/src</text>
<text text-anchor="start" x="1778.5" y="-107.5" font-family="Helvetica,sans-Serif" font-size="10.00">/goto&#45;instrument/model_argc</text>
<text text-anchor="middle" x="1849.5" y="-96.5" font-family="Helvetica,sans-Serif" font-size="10.00">_argv.cpp</text>
</a>
</g>
</g>
<!-- Node1&#45;&gt;Node18 -->
<g id="edge20" class="edge">
<title>Node1&#45;&gt;Node18</title>
<path fill="none" stroke="midnightblue" d="M1641.71,-175.71C1681.72,-164.31 1730.3,-150.47 1770.42,-139.03"/>
<polygon fill="midnightblue" stroke="midnightblue" points="1640.66,-172.37 1632,-178.48 1642.58,-179.1 1640.66,-172.37"/>
</g>
<!-- Node19 -->
<g id="node19" class="node">
<title>Node19</title>
<g id="a_node19"><a xlink:href="goto__synthesizer__languages_8cpp.html" target="_top" xlink:title="Language Registration.">
<polygon fill="none" stroke="black" points="1946.5,-89.5 1946.5,-141.5 2134.5,-141.5 2134.5,-89.5 1946.5,-89.5"/>
<text text-anchor="start" x="1954.5" y="-129.5" font-family="Helvetica,sans-Serif" font-size="10.00">/home/runner/work/diffblue</text>
<text text-anchor="start" x="1954.5" y="-118.5" font-family="Helvetica,sans-Serif" font-size="10.00">&#45;cbmc/diffblue&#45;cbmc/src</text>
<text text-anchor="start" x="1954.5" y="-107.5" font-family="Helvetica,sans-Serif" font-size="10.00">/goto&#45;synthesizer/goto_synthesizer</text>
<text text-anchor="middle" x="2040.5" y="-96.5" font-family="Helvetica,sans-Serif" font-size="10.00">_languages.cpp</text>
</a>
</g>
</g>
<!-- Node1&#45;&gt;Node19 -->
<g id="edge21" class="edge">
<title>Node1&#45;&gt;Node19</title>
<path fill="none" stroke="midnightblue" d="M1648.02,-187.65C1724.08,-177.79 1838.73,-161.58 1937.5,-142 1940.39,-141.43 1943.32,-140.83 1946.28,-140.2"/>
<polygon fill="midnightblue" stroke="midnightblue" points="1647.48,-184.19 1638.01,-188.94 1648.38,-191.14 1647.48,-184.19"/>
</g>
<!-- Node20 -->
<g id="node20" class="node">
<title>Node20</title>
<g id="a_node20"><a xlink:href="api_8cpp.html" target="_top" xlink:title=" ">
<polygon fill="none" stroke="black" points="2153,-95 2153,-136 2302,-136 2302,-95 2153,-95"/>
<text text-anchor="start" x="2161" y="-124" font-family="Helvetica,sans-Serif" font-size="10.00">/home/runner/work/diffblue</text>
<text text-anchor="start" x="2161" y="-113" font-family="Helvetica,sans-Serif" font-size="10.00">&#45;cbmc/diffblue&#45;cbmc/src</text>
<text text-anchor="middle" x="2227.5" y="-102" font-family="Helvetica,sans-Serif" font-size="10.00">/libcprover&#45;cpp/api.cpp</text>
</a>
</g>
</g>
<!-- Node1&#45;&gt;Node20 -->
<g id="edge22" class="edge">
<title>Node1&#45;&gt;Node20</title>
<path fill="none" stroke="midnightblue" d="M1648.38,-195.08C1762.07,-189.96 1969.63,-176.43 2143.5,-142 2151.57,-140.4 2159.98,-138.34 2168.22,-136.09"/>
<polygon fill="midnightblue" stroke="midnightblue" points="1648.18,-191.58 1638.35,-195.52 1648.49,-198.57 1648.18,-191.58"/>
</g>
<!-- Node21 -->
<g id="node21" class="node">
<title>Node21</title>
<g id="a_node21"><a xlink:href="memory__analyzer__parse__options_8cpp.html" target="_top" xlink:title="Commandline parser for the memory analyzer executing main work.">
<polygon fill="none" stroke="black" points="2320.5,-89.5 2320.5,-141.5 2518.5,-141.5 2518.5,-89.5 2320.5,-89.5"/>
<text text-anchor="start" x="2328.5" y="-129.5" font-family="Helvetica,sans-Serif" font-size="10.00">/home/runner/work/diffblue</text>
<text text-anchor="start" x="2328.5" y="-118.5" font-family="Helvetica,sans-Serif" font-size="10.00">&#45;cbmc/diffblue&#45;cbmc/src</text>
<text text-anchor="start" x="2328.5" y="-107.5" font-family="Helvetica,sans-Serif" font-size="10.00">/memory&#45;analyzer/memory_analyzer</text>
<text text-anchor="middle" x="2419.5" y="-96.5" font-family="Helvetica,sans-Serif" font-size="10.00">_parse_options.cpp</text>
</a>
</g>
</g>
<!-- Node1&#45;&gt;Node21 -->
<g id="edge23" class="edge">
<title>Node1&#45;&gt;Node21</title>
<path fill="none" stroke="midnightblue" d="M1648.44,-195.98C1787.69,-191.7 2072.94,-178.86 2311.5,-142 2314.45,-141.54 2317.44,-141.05 2320.45,-140.52"/>
<polygon fill="midnightblue" stroke="midnightblue" points="1648.15,-192.49 1638.26,-196.29 1648.36,-199.48 1648.15,-192.49"/>
</g>
<!-- Node22 -->
<g id="node22" class="node">
<title>Node22</title>
<g id="a_node22"><a xlink:href="symtab2gb__parse__options_8cpp.html" target="_top" xlink:title=" ">
<polygon fill="none" stroke="black" points="2536.5,-89.5 2536.5,-141.5 2700.5,-141.5 2700.5,-89.5 2536.5,-89.5"/>
<text text-anchor="start" x="2544.5" y="-129.5" font-family="Helvetica,sans-Serif" font-size="10.00">/home/runner/work/diffblue</text>
<text text-anchor="start" x="2544.5" y="-118.5" font-family="Helvetica,sans-Serif" font-size="10.00">&#45;cbmc/diffblue&#45;cbmc/src</text>
<text text-anchor="start" x="2544.5" y="-107.5" font-family="Helvetica,sans-Serif" font-size="10.00">/symtab2gb/symtab2gb_parse</text>
<text text-anchor="middle" x="2618.5" y="-96.5" font-family="Helvetica,sans-Serif" font-size="10.00">_options.cpp</text>
</a>
</g>
</g>
<!-- Node1&#45;&gt;Node22 -->
<g id="edge24" class="edge">
<title>Node1&#45;&gt;Node22</title>
<path fill="none" stroke="midnightblue" d="M1648.18,-195.42C1850.87,-188.86 2359.51,-170.08 2527.5,-142 2530.41,-141.51 2533.37,-140.97 2536.34,-140.38"/>
<polygon fill="midnightblue" stroke="midnightblue" points="1648.07,-191.92 1638.18,-195.74 1648.29,-198.92 1648.07,-191.92"/>
</g>
<!-- Node23 -->
<g id="node23" class="node">
<title>Node23</title>
<g id="a_node23"><a xlink:href="janalyzer__parse__options_8cpp.html" target="_top" xlink:title="JANALYZER Command Line Option Processing.">
<polygon fill="none" stroke="black" points="2719,-89.5 2719,-141.5 2868,-141.5 2868,-89.5 2719,-89.5"/>
<text text-anchor="start" x="2727" y="-129.5" font-family="Helvetica,sans-Serif" font-size="10.00">/home/runner/work/diffblue</text>
<text text-anchor="start" x="2727" y="-118.5" font-family="Helvetica,sans-Serif" font-size="10.00">&#45;cbmc/diffblue&#45;cbmc/jbmc</text>
<text text-anchor="start" x="2727" y="-107.5" font-family="Helvetica,sans-Serif" font-size="10.00">/src/janalyzer/janalyzer</text>
<text text-anchor="middle" x="2793.5" y="-96.5" font-family="Helvetica,sans-Serif" font-size="10.00">_parse_options.cpp</text>
</a>
</g>
</g>
<!-- Node1&#45;&gt;Node23 -->
<g id="edge25" class="edge">
<title>Node1&#45;&gt;Node23</title>
<path fill="none" stroke="midnightblue" d="M1648.37,-196.55C1877.59,-192.22 2505.58,-177.38 2709.5,-142 2712.5,-141.48 2715.55,-140.88 2718.61,-140.23"/>
<polygon fill="midnightblue" stroke="midnightblue" points="1648.02,-193.06 1638.09,-196.75 1648.15,-200.06 1648.02,-193.06"/>
</g>
<!-- Node24 -->
<g id="node24" class="node">
<title>Node24</title>
<g id="a_node24"><a xlink:href="jbmc__parse__options_8cpp.html" target="_top" xlink:title="JBMC Command Line Option Processing.">
<polygon fill="none" stroke="black" points="2886.5,-95 2886.5,-136 3068.5,-136 3068.5,-95 2886.5,-95"/>
<text text-anchor="start" x="2894.5" y="-124" font-family="Helvetica,sans-Serif" font-size="10.00">/home/runner/work/diffblue</text>
<text text-anchor="start" x="2894.5" y="-113" font-family="Helvetica,sans-Serif" font-size="10.00">&#45;cbmc/diffblue&#45;cbmc/jbmc</text>
<text text-anchor="middle" x="2977.5" y="-102" font-family="Helvetica,sans-Serif" font-size="10.00">/src/jbmc/jbmc_parse_options.cpp</text>
</a>
</g>
</g>
<!-- Node1&#45;&gt;Node24 -->
<g id="edge26" class="edge">
<title>Node1&#45;&gt;Node24</title>
<path fill="none" stroke="midnightblue" d="M1648.23,-196.68C1899.68,-192.4 2638.95,-177.11 2877.5,-142 2887.69,-140.5 2898.35,-138.39 2908.75,-136.01"/>
<polygon fill="midnightblue" stroke="midnightblue" points="1648,-193.18 1638.06,-196.85 1648.12,-200.18 1648,-193.18"/>
</g>
<!-- Node25 -->
<g id="node25" class="node">
<title>Node25</title>
<g id="a_node25"><a xlink:href="get__goto__model__from__c_8cpp.html" target="_top" xlink:title=" ">
<polygon fill="none" stroke="black" points="3086.5,-89.5 3086.5,-141.5 3246.5,-141.5 3246.5,-89.5 3086.5,-89.5"/>
<text text-anchor="start" x="3094.5" y="-129.5" font-family="Helvetica,sans-Serif" font-size="10.00">/home/runner/work/diffblue</text>
<text text-anchor="start" x="3094.5" y="-118.5" font-family="Helvetica,sans-Serif" font-size="10.00">&#45;cbmc/diffblue&#45;cbmc/unit</text>
<text text-anchor="start" x="3094.5" y="-107.5" font-family="Helvetica,sans-Serif" font-size="10.00">/testing&#45;utils/get_goto_model</text>
<text text-anchor="middle" x="3166.5" y="-96.5" font-family="Helvetica,sans-Serif" font-size="10.00">_from_c.cpp</text>
</a>
</g>
</g>
<!-- Node1&#45;&gt;Node25 -->
<g id="edge27" class="edge">
<title>Node1&#45;&gt;Node25</title>
<path fill="none" stroke="midnightblue" d="M1648.51,-197.56C1925.33,-195.7 2799.09,-186.36 3077.5,-142 3080.36,-141.54 3083.25,-141.03 3086.17,-140.46"/>
<polygon fill="midnightblue" stroke="midnightblue" points="1648.1,-194.06 1638.13,-197.63 1648.15,-201.06 1648.1,-194.06"/>
</g>
<!-- Node5&#45;&gt;Node4 -->
<g id="edge5" class="edge">
<title>Node5&#45;&gt;Node4</title>
<path fill="none" stroke="midnightblue" d="M405.36,-90.48C377.43,-76.83 342.9,-59.96 316.62,-47.11"/>
<polygon fill="midnightblue" stroke="midnightblue" points="404.03,-93.73 414.55,-94.98 407.11,-87.44 404.03,-93.73"/>
</g>
<!-- Node6 -->
<g id="node6" class="node">
<title>Node6</title>
<g id="a_node6"><a xlink:href="cbmc__main_8cpp.html" target="_top" xlink:title="CBMC Main Module.">
<polygon fill="none" stroke="black" points="764,-6 764,-47 913,-47 913,-6 764,-6"/>
<text text-anchor="start" x="772" y="-35" font-family="Helvetica,sans-Serif" font-size="10.00">/home/runner/work/diffblue</text>
<text text-anchor="start" x="772" y="-24" font-family="Helvetica,sans-Serif" font-size="10.00">&#45;cbmc/diffblue&#45;cbmc/src</text>
<text text-anchor="middle" x="838.5" y="-13" font-family="Helvetica,sans-Serif" font-size="10.00">/cbmc/cbmc_main.cpp</text>
</a>
</g>
</g>
<!-- Node5&#45;&gt;Node6 -->
<g id="edge6" class="edge">
<title>Node5&#45;&gt;Node6</title>
<path fill="none" stroke="midnightblue" d="M528.43,-92.42C533.18,-91.21 537.9,-90.05 542.5,-89 635.66,-67.67 661.48,-74.92 754.5,-53 761.92,-51.25 769.64,-49.21 777.27,-47.07"/>
<polygon fill="midnightblue" stroke="midnightblue" points="527.46,-89.06 518.68,-94.99 529.24,-95.83 527.46,-89.06"/>
</g>
<!-- Node7 -->
<g id="node7" class="node">
<title>Node7</title>
<g id="a_node7"><a xlink:href="cbmc__parse__options_8cpp.html" target="_top" xlink:title="CBMC Command Line Option Processing.">
<polygon fill="none" stroke="black" points="370,-6 370,-47 539,-47 539,-6 370,-6"/>
<text text-anchor="start" x="378" y="-35" font-family="Helvetica,sans-Serif" font-size="10.00">/home/runner/work/diffblue</text>
<text text-anchor="start" x="378" y="-24" font-family="Helvetica,sans-Serif" font-size="10.00">&#45;cbmc/diffblue&#45;cbmc/src</text>
<text text-anchor="middle" x="454.5" y="-13" font-family="Helvetica,sans-Serif" font-size="10.00">/cbmc/cbmc_parse_options.cpp</text>
</a>
</g>
</g>
<!-- Node5&#45;&gt;Node7 -->
<g id="edge7" class="edge">
<title>Node5&#45;&gt;Node7</title>
<path fill="none" stroke="midnightblue" d="M454.5,-84.44C454.5,-72.1 454.5,-58.16 454.5,-47.16"/>
<polygon fill="midnightblue" stroke="midnightblue" points="451,-84.76 454.5,-94.76 458,-84.76 451,-84.76"/>
</g>
<!-- Node8 -->
<g id="node8" class="node">
<title>Node8</title>
<g id="a_node8"><a xlink:href="goto__synthesizer__parse__options_8cpp.html" target="_top" xlink:title="Main Module.">
<polygon fill="none" stroke="black" points="557.5,-0.5 557.5,-52.5 745.5,-52.5 745.5,-0.5 557.5,-0.5"/>
<text text-anchor="start" x="565.5" y="-40.5" font-family="Helvetica,sans-Serif" font-size="10.00">/home/runner/work/diffblue</text>
<text text-anchor="start" x="565.5" y="-29.5" font-family="Helvetica,sans-Serif" font-size="10.00">&#45;cbmc/diffblue&#45;cbmc/src</text>
<text text-anchor="start" x="565.5" y="-18.5" font-family="Helvetica,sans-Serif" font-size="10.00">/goto&#45;synthesizer/goto_synthesizer</text>
<text text-anchor="middle" x="651.5" y="-7.5" font-family="Helvetica,sans-Serif" font-size="10.00">_parse_options.cpp</text>
</a>
</g>
</g>
<!-- Node5&#45;&gt;Node8 -->
<g id="edge8" class="edge">
<title>Node5&#45;&gt;Node8</title>
<path fill="none" stroke="midnightblue" d="M507.96,-90.89C534.82,-79.03 567.38,-64.65 594.7,-52.58"/>
<polygon fill="midnightblue" stroke="midnightblue" points="506.44,-87.73 498.71,-94.98 509.27,-94.14 506.44,-87.73"/>
</g>
<!-- Node16&#45;&gt;Node14 -->
<g id="edge17" class="edge">
<title>Node16&#45;&gt;Node14</title>
<path fill="none" stroke="midnightblue" d="M1556.69,-85.44C1532.17,-74.77 1504.65,-62.8 1481.02,-52.52"/>
<polygon fill="midnightblue" stroke="midnightblue" points="1555.35,-88.67 1565.92,-89.45 1558.15,-82.25 1555.35,-88.67"/>
</g>
<!-- Node16&#45;&gt;Node15 -->
<g id="edge19" class="edge">
<title>Node16&#45;&gt;Node15</title>
<path fill="none" stroke="midnightblue" d="M1690.31,-85.44C1714.83,-74.77 1742.35,-62.8 1765.98,-52.52"/>
<polygon fill="midnightblue" stroke="midnightblue" points="1688.85,-82.25 1681.08,-89.45 1691.65,-88.67 1688.85,-82.25"/>
</g>
<!-- Node17 -->
<g id="node17" class="node">
<title>Node17</title>
<g id="a_node17"><a xlink:href="goto__instrument__main_8cpp.html" target="_top" xlink:title="Main Module.">
<polygon fill="none" stroke="black" points="1532.5,-0.5 1532.5,-52.5 1714.5,-52.5 1714.5,-0.5 1532.5,-0.5"/>
<text text-anchor="start" x="1540.5" y="-40.5" font-family="Helvetica,sans-Serif" font-size="10.00">/home/runner/work/diffblue</text>
<text text-anchor="start" x="1540.5" y="-29.5" font-family="Helvetica,sans-Serif" font-size="10.00">&#45;cbmc/diffblue&#45;cbmc/src</text>
<text text-anchor="start" x="1540.5" y="-18.5" font-family="Helvetica,sans-Serif" font-size="10.00">/goto&#45;instrument/goto_instrument</text>
<text text-anchor="middle" x="1623.5" y="-7.5" font-family="Helvetica,sans-Serif" font-size="10.00">_main.cpp</text>
</a>
</g>
</g>
<!-- Node16&#45;&gt;Node17 -->
<g id="edge18" class="edge">
<title>Node16&#45;&gt;Node17</title>
<path fill="none" stroke="midnightblue" d="M1623.5,-79.19C1623.5,-70.28 1623.5,-60.9 1623.5,-52.61"/>
<polygon fill="midnightblue" stroke="midnightblue" points="1620,-79.34 1623.5,-89.34 1627,-79.34 1620,-79.34"/>
</g>
</g>
</svg>
