<?xml version="1.0" encoding="UTF-8" standalone="no"?>
<!DOCTYPE svg PUBLIC "-//W3C//DTD SVG 1.1//EN"
 "http://www.w3.org/Graphics/SVG/1.1/DTD/svg11.dtd">
<!-- Generated by graphviz version 2.43.0 (0)
 -->
<!-- Title: /home/runner/work/diffblue&#45;cbmc/diffblue&#45;cbmc/src/util/array_name.h Pages: 1 -->
<svg width="330pt" height="139pt"
 viewBox="0.00 0.00 330.00 139.00" xmlns="http://www.w3.org/2000/svg" xmlns:xlink="http://www.w3.org/1999/xlink">
<g id="graph0" class="graph" transform="scale(1 1) rotate(0) translate(4 135)">
<title>/home/runner/work/diffblue&#45;cbmc/diffblue&#45;cbmc/src/util/array_name.h</title>
<!-- Node1 -->
<g id="node1" class="node">
<title>Node1</title>
<g id="a_node1"><a xlink:title="Misc Utilities.">
<polygon fill="#bfbfbf" stroke="black" points="88,-89.5 88,-130.5 237,-130.5 237,-89.5 88,-89.5"/>
<text text-anchor="start" x="96" y="-118.5" font-family="Helvetica,sans-Serif" font-size="10.00">/home/runner/work/diffblue</text>
<text text-anchor="start" x="96" y="-107.5" font-family="Helvetica,sans-Serif" font-size="10.00">&#45;cbmc/diffblue&#45;cbmc/src</text>
<text text-anchor="middle" x="162.5" y="-96.5" font-family="Helvetica,sans-Serif" font-size="10.00">/util/array_name.h</text>
</a>
</g>
</g>
<!-- Node2 -->
<g id="node2" class="node">
<title>Node2</title>
<g id="a_node2"><a xlink:href="goto__check__c_8cpp.html" target="_top" xlink:title="Checks for Errors in C/C++ Programs.">
<polygon fill="none" stroke="black" points="0,-0.5 0,-52.5 155,-52.5 155,-0.5 0,-0.5"/>
<text text-anchor="start" x="8" y="-40.5" font-family="Helvetica,sans-Serif" font-size="10.00">/home/runner/work/diffblue</text>
<text text-anchor="start" x="8" y="-29.5" font-family="Helvetica,sans-Serif" font-size="10.00">&#45;cbmc/diffblue&#45;cbmc/src</text>
<text text-anchor="start" x="8" y="-18.5" font-family="Helvetica,sans-Serif" font-size="10.00">/ansi&#45;c/goto&#45;conversion/goto</text>
<text text-anchor="middle" x="77.5" y="-7.5" font-family="Helvetica,sans-Serif" font-size="10.00">_check_c.cpp</text>
</a>
</g>
</g>
<!-- Node1&#45;&gt;Node2 -->
<g id="edge1" class="edge">
<title>Node1&#45;&gt;Node2</title>
<path fill="none" stroke="midnightblue" d="M134.6,-82.24C124.65,-72.71 113.48,-62 103.69,-52.61"/>
<polygon fill="midnightblue" stroke="midnightblue" points="132.28,-84.88 141.92,-89.27 137.13,-79.82 132.28,-84.88"/>
</g>
<!-- Node3 -->
<g id="node3" class="node">
<title>Node3</title>
<g id="a_node3"><a xlink:href="array__name_8cpp.html" target="_top" xlink:title="Misc Utilities.">
<polygon fill="none" stroke="black" points="173,-6 173,-47 322,-47 322,-6 173,-6"/>
<text text-anchor="start" x="181" y="-35" font-family="Helvetica,sans-Serif" font-size="10.00">/home/runner/work/diffblue</text>
<text text-anchor="start" x="181" y="-24" font-family="Helvetica,sans-Serif" font-size="10.00">&#45;cbmc/diffblue&#45;cbmc/src</text>
<text text-anchor="middle" x="247.5" y="-13" font-family="Helvetica,sans-Serif" font-size="10.00">/util/array_name.cpp</text>
</a>
</g>
</g>
<!-- Node1&#45;&gt;Node3 -->
<g id="edge2" class="edge">
<title>Node1&#45;&gt;Node3</title>
<path fill="none" stroke="midnightblue" d="M190.62,-82.04C202.54,-70.6 216.18,-57.53 227.11,-47.05"/>
<polygon fill="midnightblue" stroke="midnightblue" points="187.87,-79.82 183.08,-89.27 192.72,-84.88 187.87,-79.82"/>
</g>
</g>
</svg>
