<?xml version="1.0" encoding="UTF-8" standalone="no"?>
<!DOCTYPE svg PUBLIC "-//W3C//DTD SVG 1.1//EN"
 "http://www.w3.org/Graphics/SVG/1.1/DTD/svg11.dtd">
<!-- Generated by graphviz version 2.43.0 (0)
 -->
<!-- Title: /home/runner/work/diffblue&#45;cbmc/diffblue&#45;cbmc/src/solvers/prop/bdd_expr.h Pages: 1 -->
<svg width="527pt" height="128pt"
 viewBox="0.00 0.00 527.00 128.00" xmlns="http://www.w3.org/2000/svg" xmlns:xlink="http://www.w3.org/1999/xlink">
<g id="graph0" class="graph" transform="scale(1 1) rotate(0) translate(4 124)">
<title>/home/runner/work/diffblue&#45;cbmc/diffblue&#45;cbmc/src/solvers/prop/bdd_expr.h</title>
<!-- Node1 -->
<g id="node1" class="node">
<title>Node1</title>
<g id="a_node1"><a xlink:title="Conversion between exprt and miniBDD.">
<polygon fill="#bfbfbf" stroke="black" points="185,-78.5 185,-119.5 334,-119.5 334,-78.5 185,-78.5"/>
<text text-anchor="start" x="193" y="-107.5" font-family="Helvetica,sans-Serif" font-size="10.00">/home/runner/work/diffblue</text>
<text text-anchor="start" x="193" y="-96.5" font-family="Helvetica,sans-Serif" font-size="10.00">&#45;cbmc/diffblue&#45;cbmc/src</text>
<text text-anchor="middle" x="259.5" y="-85.5" font-family="Helvetica,sans-Serif" font-size="10.00">/solvers/prop/bdd_expr.h</text>
</a>
</g>
</g>
<!-- Node2 -->
<g id="node2" class="node">
<title>Node2</title>
<g id="a_node2"><a xlink:href="guard__bdd_8cpp.html" target="_top" xlink:title="Implementation of guards using BDDs.">
<polygon fill="none" stroke="black" points="0,-0.5 0,-41.5 149,-41.5 149,-0.5 0,-0.5"/>
<text text-anchor="start" x="8" y="-29.5" font-family="Helvetica,sans-Serif" font-size="10.00">/home/runner/work/diffblue</text>
<text text-anchor="start" x="8" y="-18.5" font-family="Helvetica,sans-Serif" font-size="10.00">&#45;cbmc/diffblue&#45;cbmc/src</text>
<text text-anchor="middle" x="74.5" y="-7.5" font-family="Helvetica,sans-Serif" font-size="10.00">/analyses/guard_bdd.cpp</text>
</a>
</g>
</g>
<!-- Node1&#45;&gt;Node2 -->
<g id="edge1" class="edge">
<title>Node1&#45;&gt;Node2</title>
<path fill="none" stroke="midnightblue" d="M202.56,-74.61C176.74,-64 146.56,-51.6 121.98,-41.51"/>
<polygon fill="midnightblue" stroke="midnightblue" points="201.28,-77.87 211.86,-78.43 203.94,-71.39 201.28,-77.87"/>
</g>
<!-- Node3 -->
<g id="node3" class="node">
<title>Node3</title>
<g id="a_node3"><a xlink:href="bv__pointers_8cpp.html" target="_top" xlink:title=" ">
<polygon fill="none" stroke="black" points="167,-0.5 167,-41.5 352,-41.5 352,-0.5 167,-0.5"/>
<text text-anchor="start" x="175" y="-29.5" font-family="Helvetica,sans-Serif" font-size="10.00">/home/runner/work/diffblue</text>
<text text-anchor="start" x="175" y="-18.5" font-family="Helvetica,sans-Serif" font-size="10.00">&#45;cbmc/diffblue&#45;cbmc/src</text>
<text text-anchor="middle" x="259.5" y="-7.5" font-family="Helvetica,sans-Serif" font-size="10.00">/solvers/flattening/bv_pointers.cpp</text>
</a>
</g>
</g>
<!-- Node1&#45;&gt;Node3 -->
<g id="edge2" class="edge">
<title>Node1&#45;&gt;Node3</title>
<path fill="none" stroke="midnightblue" d="M259.5,-68.3C259.5,-59.3 259.5,-49.65 259.5,-41.51"/>
<polygon fill="midnightblue" stroke="midnightblue" points="256,-68.43 259.5,-78.43 263,-68.43 256,-68.43"/>
</g>
<!-- Node4 -->
<g id="node4" class="node">
<title>Node4</title>
<g id="a_node4"><a xlink:href="bdd__expr_8cpp.html" target="_top" xlink:title="Conversion between exprt and miniBDD.">
<polygon fill="none" stroke="black" points="370,-0.5 370,-41.5 519,-41.5 519,-0.5 370,-0.5"/>
<text text-anchor="start" x="378" y="-29.5" font-family="Helvetica,sans-Serif" font-size="10.00">/home/runner/work/diffblue</text>
<text text-anchor="start" x="378" y="-18.5" font-family="Helvetica,sans-Serif" font-size="10.00">&#45;cbmc/diffblue&#45;cbmc/src</text>
<text text-anchor="middle" x="444.5" y="-7.5" font-family="Helvetica,sans-Serif" font-size="10.00">/solvers/prop/bdd_expr.cpp</text>
</a>
</g>
</g>
<!-- Node1&#45;&gt;Node4 -->
<g id="edge3" class="edge">
<title>Node1&#45;&gt;Node4</title>
<path fill="none" stroke="midnightblue" d="M316.44,-74.61C342.26,-64 372.44,-51.6 397.02,-41.51"/>
<polygon fill="midnightblue" stroke="midnightblue" points="315.06,-71.39 307.14,-78.43 317.72,-77.87 315.06,-71.39"/>
</g>
</g>
</svg>
