<?xml version="1.0" encoding="UTF-8" standalone="no"?>
<!DOCTYPE svg PUBLIC "-//W3C//DTD SVG 1.1//EN"
 "http://www.w3.org/Graphics/SVG/1.1/DTD/svg11.dtd">
<!-- Generated by graphviz version 2.43.0 (0)
 -->
<!-- Title: /home/runner/work/diffblue&#45;cbmc/diffblue&#45;cbmc/src/solvers/flattening/boolbv_type.h Pages: 1 -->
<svg width="1159pt" height="139pt"
 viewBox="0.00 0.00 1159.00 139.00" xmlns="http://www.w3.org/2000/svg" xmlns:xlink="http://www.w3.org/1999/xlink">
<g id="graph0" class="graph" transform="scale(1 1) rotate(0) translate(4 135)">
<title>/home/runner/work/diffblue&#45;cbmc/diffblue&#45;cbmc/src/solvers/flattening/boolbv_type.h</title>
<!-- Node1 -->
<g id="node1" class="node">
<title>Node1</title>
<g id="a_node1"><a xlink:title=" ">
<polygon fill="#bfbfbf" stroke="black" points="487.5,-89.5 487.5,-130.5 663.5,-130.5 663.5,-89.5 487.5,-89.5"/>
<text text-anchor="start" x="495.5" y="-118.5" font-family="Helvetica,sans-Serif" font-size="10.00">/home/runner/work/diffblue</text>
<text text-anchor="start" x="495.5" y="-107.5" font-family="Helvetica,sans-Serif" font-size="10.00">&#45;cbmc/diffblue&#45;cbmc/src</text>
<text text-anchor="middle" x="575.5" y="-96.5" font-family="Helvetica,sans-Serif" font-size="10.00">/solvers/flattening/boolbv_type.h</text>
</a>
</g>
</g>
<!-- Node2 -->
<g id="node2" class="node">
<title>Node2</title>
<g id="a_node2"><a xlink:href="boolbv__abs_8cpp.html" target="_top" xlink:title=" ">
<polygon fill="none" stroke="black" points="0,-0.5 0,-52.5 149,-52.5 149,-0.5 0,-0.5"/>
<text text-anchor="start" x="8" y="-40.5" font-family="Helvetica,sans-Serif" font-size="10.00">/home/runner/work/diffblue</text>
<text text-anchor="start" x="8" y="-29.5" font-family="Helvetica,sans-Serif" font-size="10.00">&#45;cbmc/diffblue&#45;cbmc/src</text>
<text text-anchor="start" x="8" y="-18.5" font-family="Helvetica,sans-Serif" font-size="10.00">/solvers/flattening/boolbv</text>
<text text-anchor="middle" x="74.5" y="-7.5" font-family="Helvetica,sans-Serif" font-size="10.00">_abs.cpp</text>
</a>
</g>
</g>
<!-- Node1&#45;&gt;Node2 -->
<g id="edge1" class="edge">
<title>Node1&#45;&gt;Node2</title>
<path fill="none" stroke="midnightblue" d="M476.91,-100.42C391.7,-91.91 265.58,-76.67 157.5,-53 154.7,-52.39 151.86,-51.72 149,-51.02"/>
<polygon fill="midnightblue" stroke="midnightblue" points="476.8,-103.93 487.1,-101.43 477.49,-96.96 476.8,-103.93"/>
</g>
<!-- Node3 -->
<g id="node3" class="node">
<title>Node3</title>
<g id="a_node3"><a xlink:href="boolbv__bv__rel_8cpp.html" target="_top" xlink:title=" ">
<polygon fill="none" stroke="black" points="167,-0.5 167,-52.5 316,-52.5 316,-0.5 167,-0.5"/>
<text text-anchor="start" x="175" y="-40.5" font-family="Helvetica,sans-Serif" font-size="10.00">/home/runner/work/diffblue</text>
<text text-anchor="start" x="175" y="-29.5" font-family="Helvetica,sans-Serif" font-size="10.00">&#45;cbmc/diffblue&#45;cbmc/src</text>
<text text-anchor="start" x="175" y="-18.5" font-family="Helvetica,sans-Serif" font-size="10.00">/solvers/flattening/boolbv</text>
<text text-anchor="middle" x="241.5" y="-7.5" font-family="Helvetica,sans-Serif" font-size="10.00">_bv_rel.cpp</text>
</a>
</g>
</g>
<!-- Node1&#45;&gt;Node3 -->
<g id="edge2" class="edge">
<title>Node1&#45;&gt;Node3</title>
<path fill="none" stroke="midnightblue" d="M477.6,-89.03C431.02,-79.05 374.67,-66.28 324.5,-53 321.73,-52.27 318.92,-51.5 316.08,-50.71"/>
<polygon fill="midnightblue" stroke="midnightblue" points="476.88,-92.45 487.39,-91.11 478.34,-85.6 476.88,-92.45"/>
</g>
<!-- Node4 -->
<g id="node4" class="node">
<title>Node4</title>
<g id="a_node4"><a xlink:href="boolbv__get_8cpp.html" target="_top" xlink:title=" ">
<polygon fill="none" stroke="black" points="334,-0.5 334,-52.5 483,-52.5 483,-0.5 334,-0.5"/>
<text text-anchor="start" x="342" y="-40.5" font-family="Helvetica,sans-Serif" font-size="10.00">/home/runner/work/diffblue</text>
<text text-anchor="start" x="342" y="-29.5" font-family="Helvetica,sans-Serif" font-size="10.00">&#45;cbmc/diffblue&#45;cbmc/src</text>
<text text-anchor="start" x="342" y="-18.5" font-family="Helvetica,sans-Serif" font-size="10.00">/solvers/flattening/boolbv</text>
<text text-anchor="middle" x="408.5" y="-7.5" font-family="Helvetica,sans-Serif" font-size="10.00">_get.cpp</text>
</a>
</g>
</g>
<!-- Node1&#45;&gt;Node4 -->
<g id="edge3" class="edge">
<title>Node1&#45;&gt;Node4</title>
<path fill="none" stroke="midnightblue" d="M526.46,-85.07C505.52,-74.85 481.07,-62.92 459.88,-52.58"/>
<polygon fill="midnightblue" stroke="midnightblue" points="524.98,-88.24 535.5,-89.48 528.05,-81.95 524.98,-88.24"/>
</g>
<!-- Node5 -->
<g id="node5" class="node">
<title>Node5</title>
<g id="a_node5"><a xlink:href="boolbv__ieee__float__rel_8cpp.html" target="_top" xlink:title=" ">
<polygon fill="none" stroke="black" points="501,-0.5 501,-52.5 650,-52.5 650,-0.5 501,-0.5"/>
<text text-anchor="start" x="509" y="-40.5" font-family="Helvetica,sans-Serif" font-size="10.00">/home/runner/work/diffblue</text>
<text text-anchor="start" x="509" y="-29.5" font-family="Helvetica,sans-Serif" font-size="10.00">&#45;cbmc/diffblue&#45;cbmc/src</text>
<text text-anchor="start" x="509" y="-18.5" font-family="Helvetica,sans-Serif" font-size="10.00">/solvers/flattening/boolbv</text>
<text text-anchor="middle" x="575.5" y="-7.5" font-family="Helvetica,sans-Serif" font-size="10.00">_ieee_float_rel.cpp</text>
</a>
</g>
</g>
<!-- Node1&#45;&gt;Node5 -->
<g id="edge4" class="edge">
<title>Node1&#45;&gt;Node5</title>
<path fill="none" stroke="midnightblue" d="M575.5,-79.12C575.5,-70.41 575.5,-60.99 575.5,-52.61"/>
<polygon fill="midnightblue" stroke="midnightblue" points="572,-79.27 575.5,-89.27 579,-79.27 572,-79.27"/>
</g>
<!-- Node6 -->
<g id="node6" class="node">
<title>Node6</title>
<g id="a_node6"><a xlink:href="boolbv__type_8cpp.html" target="_top" xlink:title=" ">
<polygon fill="none" stroke="black" points="668,-0.5 668,-52.5 817,-52.5 817,-0.5 668,-0.5"/>
<text text-anchor="start" x="676" y="-40.5" font-family="Helvetica,sans-Serif" font-size="10.00">/home/runner/work/diffblue</text>
<text text-anchor="start" x="676" y="-29.5" font-family="Helvetica,sans-Serif" font-size="10.00">&#45;cbmc/diffblue&#45;cbmc/src</text>
<text text-anchor="start" x="676" y="-18.5" font-family="Helvetica,sans-Serif" font-size="10.00">/solvers/flattening/boolbv</text>
<text text-anchor="middle" x="742.5" y="-7.5" font-family="Helvetica,sans-Serif" font-size="10.00">_type.cpp</text>
</a>
</g>
</g>
<!-- Node1&#45;&gt;Node6 -->
<g id="edge5" class="edge">
<title>Node1&#45;&gt;Node6</title>
<path fill="none" stroke="midnightblue" d="M624.54,-85.07C645.48,-74.85 669.93,-62.92 691.12,-52.58"/>
<polygon fill="midnightblue" stroke="midnightblue" points="622.95,-81.95 615.5,-89.48 626.02,-88.24 622.95,-81.95"/>
</g>
<!-- Node7 -->
<g id="node7" class="node">
<title>Node7</title>
<g id="a_node7"><a xlink:href="boolbv__typecast_8cpp.html" target="_top" xlink:title=" ">
<polygon fill="none" stroke="black" points="835,-0.5 835,-52.5 984,-52.5 984,-0.5 835,-0.5"/>
<text text-anchor="start" x="843" y="-40.5" font-family="Helvetica,sans-Serif" font-size="10.00">/home/runner/work/diffblue</text>
<text text-anchor="start" x="843" y="-29.5" font-family="Helvetica,sans-Serif" font-size="10.00">&#45;cbmc/diffblue&#45;cbmc/src</text>
<text text-anchor="start" x="843" y="-18.5" font-family="Helvetica,sans-Serif" font-size="10.00">/solvers/flattening/boolbv</text>
<text text-anchor="middle" x="909.5" y="-7.5" font-family="Helvetica,sans-Serif" font-size="10.00">_typecast.cpp</text>
</a>
</g>
</g>
<!-- Node1&#45;&gt;Node7 -->
<g id="edge6" class="edge">
<title>Node1&#45;&gt;Node7</title>
<path fill="none" stroke="midnightblue" d="M673.4,-89.03C719.98,-79.05 776.33,-66.28 826.5,-53 829.27,-52.27 832.08,-51.5 834.92,-50.71"/>
<polygon fill="midnightblue" stroke="midnightblue" points="672.66,-85.6 663.61,-91.11 674.12,-92.45 672.66,-85.6"/>
</g>
<!-- Node8 -->
<g id="node8" class="node">
<title>Node8</title>
<g id="a_node8"><a xlink:href="boolbv__unary__minus_8cpp.html" target="_top" xlink:title=" ">
<polygon fill="none" stroke="black" points="1002,-0.5 1002,-52.5 1151,-52.5 1151,-0.5 1002,-0.5"/>
<text text-anchor="start" x="1010" y="-40.5" font-family="Helvetica,sans-Serif" font-size="10.00">/home/runner/work/diffblue</text>
<text text-anchor="start" x="1010" y="-29.5" font-family="Helvetica,sans-Serif" font-size="10.00">&#45;cbmc/diffblue&#45;cbmc/src</text>
<text text-anchor="start" x="1010" y="-18.5" font-family="Helvetica,sans-Serif" font-size="10.00">/solvers/flattening/boolbv</text>
<text text-anchor="middle" x="1076.5" y="-7.5" font-family="Helvetica,sans-Serif" font-size="10.00">_unary_minus.cpp</text>
</a>
</g>
</g>
<!-- Node1&#45;&gt;Node8 -->
<g id="edge7" class="edge">
<title>Node1&#45;&gt;Node8</title>
<path fill="none" stroke="midnightblue" d="M674.09,-100.42C759.3,-91.91 885.42,-76.67 993.5,-53 996.3,-52.39 999.14,-51.72 1002,-51.02"/>
<polygon fill="midnightblue" stroke="midnightblue" points="673.51,-96.96 663.9,-101.43 674.2,-103.93 673.51,-96.96"/>
</g>
</g>
</svg>
