<?xml version="1.0" encoding="UTF-8" standalone="no"?>
<!DOCTYPE svg PUBLIC "-//W3C//DTD SVG 1.1//EN"
 "http://www.w3.org/Graphics/SVG/1.1/DTD/svg11.dtd">
<!-- Generated by graphviz version 2.43.0 (0)
 -->
<!-- Title: /home/runner/work/diffblue&#45;cbmc/diffblue&#45;cbmc/src/goto&#45;symex/build_goto_trace.h Pages: 1 -->
<svg width="2513pt" height="306pt"
 viewBox="0.00 0.00 2513.00 306.00" xmlns="http://www.w3.org/2000/svg" xmlns:xlink="http://www.w3.org/1999/xlink">
<g id="graph0" class="graph" transform="scale(1 1) rotate(0) translate(4 302)">
<title>/home/runner/work/diffblue&#45;cbmc/diffblue&#45;cbmc/src/goto&#45;symex/build_goto_trace.h</title>
<!-- Node1 -->
<g id="node1" class="node">
<title>Node1</title>
<g id="a_node1"><a xlink:title="Traces of GOTO Programs.">
<polygon fill="#bfbfbf" stroke="black" points="1098,-256.5 1098,-297.5 1269,-297.5 1269,-256.5 1098,-256.5"/>
<text text-anchor="start" x="1106" y="-285.5" font-family="Helvetica,sans-Serif" font-size="10.00">/home/runner/work/diffblue</text>
<text text-anchor="start" x="1106" y="-274.5" font-family="Helvetica,sans-Serif" font-size="10.00">&#45;cbmc/diffblue&#45;cbmc/src</text>
<text text-anchor="middle" x="1183.5" y="-263.5" font-family="Helvetica,sans-Serif" font-size="10.00">/goto&#45;symex/build_goto_trace.h</text>
</a>
</g>
</g>
<!-- Node2 -->
<g id="node2" class="node">
<title>Node2</title>
<g id="a_node2"><a xlink:href="bmc__util_8cpp.html" target="_top" xlink:title="Bounded Model Checking Utilities.">
<polygon fill="none" stroke="black" points="181,-95 181,-136 330,-136 330,-95 181,-95"/>
<text text-anchor="start" x="189" y="-124" font-family="Helvetica,sans-Serif" font-size="10.00">/home/runner/work/diffblue</text>
<text text-anchor="start" x="189" y="-113" font-family="Helvetica,sans-Serif" font-size="10.00">&#45;cbmc/diffblue&#45;cbmc/src</text>
<text text-anchor="middle" x="255.5" y="-102" font-family="Helvetica,sans-Serif" font-size="10.00">/goto&#45;checker/bmc_util.cpp</text>
</a>
</g>
</g>
<!-- Node1&#45;&gt;Node2 -->
<g id="edge1" class="edge">
<title>Node1&#45;&gt;Node2</title>
<path fill="none" stroke="midnightblue" d="M1087.74,-265.27C930.19,-246.63 607,-204.21 338.5,-142 331.01,-140.26 323.21,-138.21 315.52,-136.03"/>
<polygon fill="midnightblue" stroke="midnightblue" points="1087.54,-268.77 1097.88,-266.47 1088.36,-261.82 1087.54,-268.77"/>
</g>
<!-- Node3 -->
<g id="node3" class="node">
<title>Node3</title>
<g id="a_node3"><a xlink:href="bmc__util_8h.html" target="_top" xlink:title="Bounded Model Checking Utilities.">
<polygon fill="none" stroke="black" points="1109,-178.5 1109,-219.5 1258,-219.5 1258,-178.5 1109,-178.5"/>
<text text-anchor="start" x="1117" y="-207.5" font-family="Helvetica,sans-Serif" font-size="10.00">/home/runner/work/diffblue</text>
<text text-anchor="start" x="1117" y="-196.5" font-family="Helvetica,sans-Serif" font-size="10.00">&#45;cbmc/diffblue&#45;cbmc/src</text>
<text text-anchor="middle" x="1183.5" y="-185.5" font-family="Helvetica,sans-Serif" font-size="10.00">/goto&#45;checker/bmc_util.h</text>
</a>
</g>
</g>
<!-- Node1&#45;&gt;Node3 -->
<g id="edge2" class="edge">
<title>Node1&#45;&gt;Node3</title>
<path fill="none" stroke="midnightblue" d="M1183.5,-246.3C1183.5,-237.3 1183.5,-227.65 1183.5,-219.51"/>
<polygon fill="midnightblue" stroke="midnightblue" points="1180,-246.43 1183.5,-256.43 1187,-246.43 1180,-246.43"/>
</g>
<!-- Node24 -->
<g id="node24" class="node">
<title>Node24</title>
<g id="a_node24"><a xlink:href="build__goto__trace_8cpp.html" target="_top" xlink:title="Traces of GOTO Programs.">
<polygon fill="none" stroke="black" points="1276.5,-178.5 1276.5,-219.5 1458.5,-219.5 1458.5,-178.5 1276.5,-178.5"/>
<text text-anchor="start" x="1284.5" y="-207.5" font-family="Helvetica,sans-Serif" font-size="10.00">/home/runner/work/diffblue</text>
<text text-anchor="start" x="1284.5" y="-196.5" font-family="Helvetica,sans-Serif" font-size="10.00">&#45;cbmc/diffblue&#45;cbmc/src</text>
<text text-anchor="middle" x="1367.5" y="-185.5" font-family="Helvetica,sans-Serif" font-size="10.00">/goto&#45;symex/build_goto_trace.cpp</text>
</a>
</g>
</g>
<!-- Node1&#45;&gt;Node24 -->
<g id="edge32" class="edge">
<title>Node1&#45;&gt;Node24</title>
<path fill="none" stroke="midnightblue" d="M1240.13,-252.61C1265.81,-242 1295.83,-229.6 1320.28,-219.51"/>
<polygon fill="midnightblue" stroke="midnightblue" points="1238.79,-249.38 1230.88,-256.43 1241.46,-255.85 1238.79,-249.38"/>
</g>
<!-- Node3&#45;&gt;Node2 -->
<g id="edge14" class="edge">
<title>Node3&#45;&gt;Node2</title>
<path fill="none" stroke="midnightblue" d="M1098.53,-194.87C914.18,-187.68 482.54,-168.53 338.5,-142 330.2,-140.47 321.56,-138.39 313.12,-136.07"/>
<polygon fill="midnightblue" stroke="midnightblue" points="1098.58,-198.38 1108.71,-195.27 1098.86,-191.38 1098.58,-198.38"/>
</g>
<!-- Node4 -->
<g id="node4" class="node">
<title>Node4</title>
<g id="a_node4"><a xlink:href="cbmc__parse__options_8cpp.html" target="_top" xlink:title="CBMC Command Line Option Processing.">
<polygon fill="none" stroke="black" points="543,-6 543,-47 712,-47 712,-6 543,-6"/>
<text text-anchor="start" x="551" y="-35" font-family="Helvetica,sans-Serif" font-size="10.00">/home/runner/work/diffblue</text>
<text text-anchor="start" x="551" y="-24" font-family="Helvetica,sans-Serif" font-size="10.00">&#45;cbmc/diffblue&#45;cbmc/src</text>
<text text-anchor="middle" x="627.5" y="-13" font-family="Helvetica,sans-Serif" font-size="10.00">/cbmc/cbmc_parse_options.cpp</text>
</a>
</g>
</g>
<!-- Node3&#45;&gt;Node4 -->
<g id="edge3" class="edge">
<title>Node3&#45;&gt;Node4</title>
<path fill="none" stroke="midnightblue" d="M1098.75,-196.7C935.14,-193.32 588.66,-181.51 552.5,-142 536.6,-124.62 542.42,-110.29 552.5,-89 560.71,-71.65 576.48,-57.56 591.45,-47.26"/>
<polygon fill="midnightblue" stroke="midnightblue" points="1098.71,-200.2 1108.78,-196.9 1098.85,-193.2 1098.71,-200.2"/>
</g>
<!-- Node5 -->
<g id="node5" class="node">
<title>Node5</title>
<g id="a_node5"><a xlink:href="cbmc__parse__options_8h.html" target="_top" xlink:title="CBMC Command Line Option Processing.">
<polygon fill="none" stroke="black" points="347.5,-95 347.5,-136 505.5,-136 505.5,-95 347.5,-95"/>
<text text-anchor="start" x="355.5" y="-124" font-family="Helvetica,sans-Serif" font-size="10.00">/home/runner/work/diffblue</text>
<text text-anchor="start" x="355.5" y="-113" font-family="Helvetica,sans-Serif" font-size="10.00">&#45;cbmc/diffblue&#45;cbmc/src</text>
<text text-anchor="middle" x="426.5" y="-102" font-family="Helvetica,sans-Serif" font-size="10.00">/cbmc/cbmc_parse_options.h</text>
</a>
</g>
</g>
<!-- Node3&#45;&gt;Node5 -->
<g id="edge4" class="edge">
<title>Node3&#45;&gt;Node5</title>
<path fill="none" stroke="midnightblue" d="M1098.69,-195.82C971.83,-191.44 725.5,-178.61 519.5,-142 510.52,-140.4 501.14,-138.33 491.95,-136.06"/>
<polygon fill="midnightblue" stroke="midnightblue" points="1098.62,-199.32 1108.73,-196.16 1098.86,-192.32 1098.62,-199.32"/>
</g>
<!-- Node9 -->
<g id="node9" class="node">
<title>Node9</title>
<g id="a_node9"><a xlink:href="all__properties__verifier__with__trace__storage_8h.html" target="_top" xlink:title="Goto verifier for verifying all properties that stores traces.">
<polygon fill="none" stroke="black" points="743.5,-89.5 743.5,-141.5 907.5,-141.5 907.5,-89.5 743.5,-89.5"/>
<text text-anchor="start" x="751.5" y="-129.5" font-family="Helvetica,sans-Serif" font-size="10.00">/home/runner/work/diffblue</text>
<text text-anchor="start" x="751.5" y="-118.5" font-family="Helvetica,sans-Serif" font-size="10.00">&#45;cbmc/diffblue&#45;cbmc/src</text>
<text text-anchor="start" x="751.5" y="-107.5" font-family="Helvetica,sans-Serif" font-size="10.00">/goto&#45;checker/all_properties</text>
<text text-anchor="middle" x="825.5" y="-96.5" font-family="Helvetica,sans-Serif" font-size="10.00">_verifier_with_trace_storage.h</text>
</a>
</g>
</g>
<!-- Node3&#45;&gt;Node9 -->
<g id="edge9" class="edge">
<title>Node3&#45;&gt;Node9</title>
<path fill="none" stroke="midnightblue" d="M1098.99,-181.77C1046.31,-171.28 977.22,-156.86 916.5,-142 913.63,-141.3 910.72,-140.57 907.78,-139.82"/>
<polygon fill="midnightblue" stroke="midnightblue" points="1098.48,-185.24 1108.97,-183.75 1099.84,-178.37 1098.48,-185.24"/>
</g>
<!-- Node13 -->
<g id="node13" class="node">
<title>Node13</title>
<g id="a_node13"><a xlink:href="cover__goals__verifier__with__trace__storage_8h.html" target="_top" xlink:title="Goto verifier for covering goals that stores traces.">
<polygon fill="none" stroke="black" points="561.5,-89.5 561.5,-141.5 725.5,-141.5 725.5,-89.5 561.5,-89.5"/>
<text text-anchor="start" x="569.5" y="-129.5" font-family="Helvetica,sans-Serif" font-size="10.00">/home/runner/work/diffblue</text>
<text text-anchor="start" x="569.5" y="-118.5" font-family="Helvetica,sans-Serif" font-size="10.00">&#45;cbmc/diffblue&#45;cbmc/src</text>
<text text-anchor="start" x="569.5" y="-107.5" font-family="Helvetica,sans-Serif" font-size="10.00">/goto&#45;checker/cover_goals</text>
<text text-anchor="middle" x="643.5" y="-96.5" font-family="Helvetica,sans-Serif" font-size="10.00">_verifier_with_trace_storage.h</text>
</a>
</g>
</g>
<!-- Node3&#45;&gt;Node13 -->
<g id="edge15" class="edge">
<title>Node3&#45;&gt;Node13</title>
<path fill="none" stroke="midnightblue" d="M1098.43,-191.2C1007.68,-183.06 860,-167.26 734.5,-142 731.6,-141.42 728.67,-140.79 725.71,-140.13"/>
<polygon fill="midnightblue" stroke="midnightblue" points="1098.4,-194.71 1108.67,-192.11 1099.02,-187.74 1098.4,-194.71"/>
</g>
<!-- Node14 -->
<g id="node14" class="node">
<title>Node14</title>
<g id="a_node14"><a xlink:href="multi__path__symex__checker_8cpp.html" target="_top" xlink:title="Goto Checker using Bounded Model Checking.">
<polygon fill="none" stroke="black" points="1481,-89.5 1481,-141.5 1630,-141.5 1630,-89.5 1481,-89.5"/>
<text text-anchor="start" x="1489" y="-129.5" font-family="Helvetica,sans-Serif" font-size="10.00">/home/runner/work/diffblue</text>
<text text-anchor="start" x="1489" y="-118.5" font-family="Helvetica,sans-Serif" font-size="10.00">&#45;cbmc/diffblue&#45;cbmc/src</text>
<text text-anchor="start" x="1489" y="-107.5" font-family="Helvetica,sans-Serif" font-size="10.00">/goto&#45;checker/multi_path</text>
<text text-anchor="middle" x="1555.5" y="-96.5" font-family="Helvetica,sans-Serif" font-size="10.00">_symex_checker.cpp</text>
</a>
</g>
</g>
<!-- Node3&#45;&gt;Node14 -->
<g id="edge17" class="edge">
<title>Node3&#45;&gt;Node14</title>
<path fill="none" stroke="midnightblue" d="M1268.05,-177.96C1359.39,-159.58 1385.02,-162.68 1471.5,-142 1474.61,-141.26 1477.78,-140.46 1480.97,-139.63"/>
<polygon fill="midnightblue" stroke="midnightblue" points="1267.2,-174.56 1258.1,-180 1268.6,-181.42 1267.2,-174.56"/>
</g>
<!-- Node15 -->
<g id="node15" class="node">
<title>Node15</title>
<g id="a_node15"><a xlink:href="multi__path__symex__only__checker_8cpp.html" target="_top" xlink:title="Goto Checker using Multi&#45;Path Symbolic Execution only (no SAT solving)">
<polygon fill="none" stroke="black" points="1648,-89.5 1648,-141.5 1797,-141.5 1797,-89.5 1648,-89.5"/>
<text text-anchor="start" x="1656" y="-129.5" font-family="Helvetica,sans-Serif" font-size="10.00">/home/runner/work/diffblue</text>
<text text-anchor="start" x="1656" y="-118.5" font-family="Helvetica,sans-Serif" font-size="10.00">&#45;cbmc/diffblue&#45;cbmc/src</text>
<text text-anchor="start" x="1656" y="-107.5" font-family="Helvetica,sans-Serif" font-size="10.00">/goto&#45;checker/multi_path</text>
<text text-anchor="middle" x="1722.5" y="-96.5" font-family="Helvetica,sans-Serif" font-size="10.00">_symex_only_checker.cpp</text>
</a>
</g>
</g>
<!-- Node3&#45;&gt;Node15 -->
<g id="edge18" class="edge">
<title>Node3&#45;&gt;Node15</title>
<path fill="none" stroke="midnightblue" d="M1268.06,-178.05C1433.16,-151.61 1479.8,-173.92 1639.5,-142 1642.16,-141.47 1644.86,-140.89 1647.57,-140.26"/>
<polygon fill="midnightblue" stroke="midnightblue" points="1267.35,-174.62 1258.05,-179.69 1268.48,-181.53 1267.35,-174.62"/>
</g>
<!-- Node16 -->
<g id="node16" class="node">
<title>Node16</title>
<g id="a_node16"><a xlink:href="report__util_8cpp.html" target="_top" xlink:title="Bounded Model Checking Utilities.">
<polygon fill="none" stroke="black" points="1815.5,-95 1815.5,-136 1971.5,-136 1971.5,-95 1815.5,-95"/>
<text text-anchor="start" x="1823.5" y="-124" font-family="Helvetica,sans-Serif" font-size="10.00">/home/runner/work/diffblue</text>
<text text-anchor="start" x="1823.5" y="-113" font-family="Helvetica,sans-Serif" font-size="10.00">&#45;cbmc/diffblue&#45;cbmc/src</text>
<text text-anchor="middle" x="1893.5" y="-102" font-family="Helvetica,sans-Serif" font-size="10.00">/goto&#45;checker/report_util.cpp</text>
</a>
</g>
</g>
<!-- Node3&#45;&gt;Node16 -->
<g id="edge19" class="edge">
<title>Node3&#45;&gt;Node16</title>
<path fill="none" stroke="midnightblue" d="M1268.05,-178.08C1506.7,-143.2 1573.35,-183.44 1806.5,-142 1815.18,-140.46 1824.22,-138.37 1833.06,-136.05"/>
<polygon fill="midnightblue" stroke="midnightblue" points="1267.4,-174.64 1258.03,-179.57 1268.43,-181.56 1267.4,-174.64"/>
</g>
<!-- Node17 -->
<g id="node17" class="node">
<title>Node17</title>
<g id="a_node17"><a xlink:href="single__loop__incremental__symex__checker_8cpp.html" target="_top" xlink:title="Goto Checker using multi&#45;path symbolic execution with incremental unwinding of a specified loop.">
<polygon fill="none" stroke="black" points="1990,-89.5 1990,-141.5 2171,-141.5 2171,-89.5 1990,-89.5"/>
<text text-anchor="start" x="1998" y="-129.5" font-family="Helvetica,sans-Serif" font-size="10.00">/home/runner/work/diffblue</text>
<text text-anchor="start" x="1998" y="-118.5" font-family="Helvetica,sans-Serif" font-size="10.00">&#45;cbmc/diffblue&#45;cbmc/src</text>
<text text-anchor="start" x="1998" y="-107.5" font-family="Helvetica,sans-Serif" font-size="10.00">/goto&#45;checker/single_loop</text>
<text text-anchor="middle" x="2080.5" y="-96.5" font-family="Helvetica,sans-Serif" font-size="10.00">_incremental_symex_checker.cpp</text>
</a>
</g>
</g>
<!-- Node3&#45;&gt;Node17 -->
<g id="edge20" class="edge">
<title>Node3&#45;&gt;Node17</title>
<path fill="none" stroke="midnightblue" d="M1268.36,-178.05C1583.45,-134.26 1670.14,-188.93 1980.5,-142 1983.6,-141.53 1986.74,-141.01 1989.91,-140.44"/>
<polygon fill="midnightblue" stroke="midnightblue" points="1267.43,-174.64 1258.02,-179.51 1268.41,-181.58 1267.43,-174.64"/>
</g>
<!-- Node18 -->
<g id="node18" class="node">
<title>Node18</title>
<g id="a_node18"><a xlink:href="single__path__symex__checker_8cpp.html" target="_top" xlink:title="Goto Checker using Single Path Symbolic Execution.">
<polygon fill="none" stroke="black" points="2189,-89.5 2189,-141.5 2338,-141.5 2338,-89.5 2189,-89.5"/>
<text text-anchor="start" x="2197" y="-129.5" font-family="Helvetica,sans-Serif" font-size="10.00">/home/runner/work/diffblue</text>
<text text-anchor="start" x="2197" y="-118.5" font-family="Helvetica,sans-Serif" font-size="10.00">&#45;cbmc/diffblue&#45;cbmc/src</text>
<text text-anchor="start" x="2197" y="-107.5" font-family="Helvetica,sans-Serif" font-size="10.00">/goto&#45;checker/single_path</text>
<text text-anchor="middle" x="2263.5" y="-96.5" font-family="Helvetica,sans-Serif" font-size="10.00">_symex_checker.cpp</text>
</a>
</g>
</g>
<!-- Node3&#45;&gt;Node18 -->
<g id="edge21" class="edge">
<title>Node3&#45;&gt;Node18</title>
<path fill="none" stroke="midnightblue" d="M1268.21,-178.08C1671.66,-124.15 1783.5,-209.63 2180.5,-142 2183.17,-141.54 2185.88,-141.03 2188.61,-140.46"/>
<polygon fill="midnightblue" stroke="midnightblue" points="1267.45,-174.65 1258.01,-179.47 1268.39,-181.59 1267.45,-174.65"/>
</g>
<!-- Node19 -->
<g id="node19" class="node">
<title>Node19</title>
<g id="a_node19"><a xlink:href="single__path__symex__only__checker_8cpp.html" target="_top" xlink:title="Goto Checker using Single Path Symbolic Execution only.">
<polygon fill="none" stroke="black" points="2356,-89.5 2356,-141.5 2505,-141.5 2505,-89.5 2356,-89.5"/>
<text text-anchor="start" x="2364" y="-129.5" font-family="Helvetica,sans-Serif" font-size="10.00">/home/runner/work/diffblue</text>
<text text-anchor="start" x="2364" y="-118.5" font-family="Helvetica,sans-Serif" font-size="10.00">&#45;cbmc/diffblue&#45;cbmc/src</text>
<text text-anchor="start" x="2364" y="-107.5" font-family="Helvetica,sans-Serif" font-size="10.00">/goto&#45;checker/single_path</text>
<text text-anchor="middle" x="2430.5" y="-96.5" font-family="Helvetica,sans-Serif" font-size="10.00">_symex_only_checker.cpp</text>
</a>
</g>
</g>
<!-- Node3&#45;&gt;Node19 -->
<g id="edge22" class="edge">
<title>Node3&#45;&gt;Node19</title>
<path fill="none" stroke="midnightblue" d="M1268.27,-178.08C1745.35,-115.57 1877.17,-220.65 2347.5,-142 2350.18,-141.55 2352.89,-141.04 2355.61,-140.48"/>
<polygon fill="midnightblue" stroke="midnightblue" points="1267.46,-174.65 1258.01,-179.44 1268.38,-181.59 1267.46,-174.65"/>
</g>
<!-- Node20 -->
<g id="node20" class="node">
<title>Node20</title>
<g id="a_node20"><a xlink:href="stop__on__fail__verifier_8h.html" target="_top" xlink:title="Goto Verifier for stopping at the first failing property.">
<polygon fill="none" stroke="black" points="926,-89.5 926,-141.5 1075,-141.5 1075,-89.5 926,-89.5"/>
<text text-anchor="start" x="934" y="-129.5" font-family="Helvetica,sans-Serif" font-size="10.00">/home/runner/work/diffblue</text>
<text text-anchor="start" x="934" y="-118.5" font-family="Helvetica,sans-Serif" font-size="10.00">&#45;cbmc/diffblue&#45;cbmc/src</text>
<text text-anchor="start" x="934" y="-107.5" font-family="Helvetica,sans-Serif" font-size="10.00">/goto&#45;checker/stop_on_fail</text>
<text text-anchor="middle" x="1000.5" y="-96.5" font-family="Helvetica,sans-Serif" font-size="10.00">_verifier.h</text>
</a>
</g>
</g>
<!-- Node3&#45;&gt;Node20 -->
<g id="edge23" class="edge">
<title>Node3&#45;&gt;Node20</title>
<path fill="none" stroke="midnightblue" d="M1130.37,-174.34C1107.29,-164.06 1080.23,-152.01 1056.81,-141.58"/>
<polygon fill="midnightblue" stroke="midnightblue" points="1129.11,-177.61 1139.67,-178.48 1131.96,-171.21 1129.11,-177.61"/>
</g>
<!-- Node21 -->
<g id="node21" class="node">
<title>Node21</title>
<g id="a_node21"><a xlink:href="stop__on__fail__verifier__with__fault__localization_8h.html" target="_top" xlink:title="Goto Verifier for stopping at the first failing property and localizing the fault.">
<polygon fill="none" stroke="black" points="1093,-89.5 1093,-141.5 1274,-141.5 1274,-89.5 1093,-89.5"/>
<text text-anchor="start" x="1101" y="-129.5" font-family="Helvetica,sans-Serif" font-size="10.00">/home/runner/work/diffblue</text>
<text text-anchor="start" x="1101" y="-118.5" font-family="Helvetica,sans-Serif" font-size="10.00">&#45;cbmc/diffblue&#45;cbmc/src</text>
<text text-anchor="start" x="1101" y="-107.5" font-family="Helvetica,sans-Serif" font-size="10.00">/goto&#45;checker/stop_on_fail</text>
<text text-anchor="middle" x="1183.5" y="-96.5" font-family="Helvetica,sans-Serif" font-size="10.00">_verifier_with_fault_localization.h</text>
</a>
</g>
</g>
<!-- Node3&#45;&gt;Node21 -->
<g id="edge26" class="edge">
<title>Node3&#45;&gt;Node21</title>
<path fill="none" stroke="midnightblue" d="M1183.5,-168.12C1183.5,-159.41 1183.5,-149.99 1183.5,-141.61"/>
<polygon fill="midnightblue" stroke="midnightblue" points="1180,-168.27 1183.5,-178.27 1187,-168.27 1180,-168.27"/>
</g>
<!-- Node22 -->
<g id="node22" class="node">
<title>Node22</title>
<g id="a_node22"><a xlink:href="jbmc__parse__options_8h.html" target="_top" xlink:title="JBMC Command Line Option Processing.">
<polygon fill="none" stroke="black" points="1292.5,-95 1292.5,-136 1462.5,-136 1462.5,-95 1292.5,-95"/>
<text text-anchor="start" x="1300.5" y="-124" font-family="Helvetica,sans-Serif" font-size="10.00">/home/runner/work/diffblue</text>
<text text-anchor="start" x="1300.5" y="-113" font-family="Helvetica,sans-Serif" font-size="10.00">&#45;cbmc/diffblue&#45;cbmc/jbmc</text>
<text text-anchor="middle" x="1377.5" y="-102" font-family="Helvetica,sans-Serif" font-size="10.00">/src/jbmc/jbmc_parse_options.h</text>
</a>
</g>
</g>
<!-- Node3&#45;&gt;Node22 -->
<g id="edge29" class="edge">
<title>Node3&#45;&gt;Node22</title>
<path fill="none" stroke="midnightblue" d="M1239.56,-174.45C1268.58,-162.26 1303.59,-147.55 1331.08,-136"/>
<polygon fill="midnightblue" stroke="midnightblue" points="1237.83,-171.38 1229.97,-178.48 1240.54,-177.83 1237.83,-171.38"/>
</g>
<!-- Node5&#45;&gt;Node4 -->
<g id="edge7" class="edge">
<title>Node5&#45;&gt;Node4</title>
<path fill="none" stroke="midnightblue" d="M481.17,-90.84C512.85,-77.12 552.26,-60.07 582.19,-47.11"/>
<polygon fill="midnightblue" stroke="midnightblue" points="479.4,-87.79 471.61,-94.98 482.18,-94.22 479.4,-87.79"/>
</g>
<!-- Node6 -->
<g id="node6" class="node">
<title>Node6</title>
<g id="a_node6"><a xlink:href="cbmc__languages_8cpp.html" target="_top" xlink:title="Language Registration.">
<polygon fill="none" stroke="black" points="0,-6 0,-47 151,-47 151,-6 0,-6"/>
<text text-anchor="start" x="8" y="-35" font-family="Helvetica,sans-Serif" font-size="10.00">/home/runner/work/diffblue</text>
<text text-anchor="start" x="8" y="-24" font-family="Helvetica,sans-Serif" font-size="10.00">&#45;cbmc/diffblue&#45;cbmc/src</text>
<text text-anchor="middle" x="75.5" y="-13" font-family="Helvetica,sans-Serif" font-size="10.00">/cbmc/cbmc_languages.cpp</text>
</a>
</g>
</g>
<!-- Node5&#45;&gt;Node6 -->
<g id="edge5" class="edge">
<title>Node5&#45;&gt;Node6</title>
<path fill="none" stroke="midnightblue" d="M351.6,-92.34C347.18,-91.17 342.79,-90.05 338.5,-89 259.68,-69.69 238.19,-72.81 159.5,-53 152.41,-51.21 145.02,-49.2 137.7,-47.11"/>
<polygon fill="midnightblue" stroke="midnightblue" points="350.74,-95.73 361.31,-94.95 352.56,-88.97 350.74,-95.73"/>
</g>
<!-- Node7 -->
<g id="node7" class="node">
<title>Node7</title>
<g id="a_node7"><a xlink:href="cbmc__main_8cpp.html" target="_top" xlink:title="CBMC Main Module.">
<polygon fill="none" stroke="black" points="169,-6 169,-47 318,-47 318,-6 169,-6"/>
<text text-anchor="start" x="177" y="-35" font-family="Helvetica,sans-Serif" font-size="10.00">/home/runner/work/diffblue</text>
<text text-anchor="start" x="177" y="-24" font-family="Helvetica,sans-Serif" font-size="10.00">&#45;cbmc/diffblue&#45;cbmc/src</text>
<text text-anchor="middle" x="243.5" y="-13" font-family="Helvetica,sans-Serif" font-size="10.00">/cbmc/cbmc_main.cpp</text>
</a>
</g>
</g>
<!-- Node5&#45;&gt;Node7 -->
<g id="edge6" class="edge">
<title>Node5&#45;&gt;Node7</title>
<path fill="none" stroke="midnightblue" d="M376.35,-90.66C347.57,-76.98 311.89,-60.01 284.75,-47.11"/>
<polygon fill="midnightblue" stroke="midnightblue" points="374.9,-93.84 385.43,-94.98 377.9,-87.52 374.9,-93.84"/>
</g>
<!-- Node8 -->
<g id="node8" class="node">
<title>Node8</title>
<g id="a_node8"><a xlink:href="goto__synthesizer__parse__options_8cpp.html" target="_top" xlink:title="Main Module.">
<polygon fill="none" stroke="black" points="336.5,-0.5 336.5,-52.5 524.5,-52.5 524.5,-0.5 336.5,-0.5"/>
<text text-anchor="start" x="344.5" y="-40.5" font-family="Helvetica,sans-Serif" font-size="10.00">/home/runner/work/diffblue</text>
<text text-anchor="start" x="344.5" y="-29.5" font-family="Helvetica,sans-Serif" font-size="10.00">&#45;cbmc/diffblue&#45;cbmc/src</text>
<text text-anchor="start" x="344.5" y="-18.5" font-family="Helvetica,sans-Serif" font-size="10.00">/goto&#45;synthesizer/goto_synthesizer</text>
<text text-anchor="middle" x="430.5" y="-7.5" font-family="Helvetica,sans-Serif" font-size="10.00">_parse_options.cpp</text>
</a>
</g>
</g>
<!-- Node5&#45;&gt;Node8 -->
<g id="edge8" class="edge">
<title>Node5&#45;&gt;Node8</title>
<path fill="none" stroke="midnightblue" d="M427.88,-84.51C428.35,-74.17 428.88,-62.71 429.34,-52.79"/>
<polygon fill="midnightblue" stroke="midnightblue" points="424.37,-84.61 427.41,-94.76 431.36,-84.93 424.37,-84.61"/>
</g>
<!-- Node9&#45;&gt;Node4 -->
<g id="edge10" class="edge">
<title>Node9&#45;&gt;Node4</title>
<path fill="none" stroke="midnightblue" d="M758.98,-85.27C730.41,-72.72 697.79,-58.38 672.18,-47.13"/>
<polygon fill="midnightblue" stroke="midnightblue" points="757.93,-88.63 768.5,-89.45 760.75,-82.23 757.93,-88.63"/>
</g>
<!-- Node10 -->
<g id="node10" class="node">
<title>Node10</title>
<g id="a_node10"><a xlink:href="cegis__verifier_8cpp.html" target="_top" xlink:title="Verifier for Counterexample&#45;Guided Synthesis.">
<polygon fill="none" stroke="black" points="730,-6 730,-47 919,-47 919,-6 730,-6"/>
<text text-anchor="start" x="738" y="-35" font-family="Helvetica,sans-Serif" font-size="10.00">/home/runner/work/diffblue</text>
<text text-anchor="start" x="738" y="-24" font-family="Helvetica,sans-Serif" font-size="10.00">&#45;cbmc/diffblue&#45;cbmc/src</text>
<text text-anchor="middle" x="824.5" y="-13" font-family="Helvetica,sans-Serif" font-size="10.00">/goto&#45;synthesizer/cegis_verifier.cpp</text>
</a>
</g>
</g>
<!-- Node9&#45;&gt;Node10 -->
<g id="edge11" class="edge">
<title>Node9&#45;&gt;Node10</title>
<path fill="none" stroke="midnightblue" d="M825.09,-79.16C824.97,-68.21 824.83,-56.55 824.73,-47.08"/>
<polygon fill="midnightblue" stroke="midnightblue" points="821.6,-79.38 825.21,-89.34 828.6,-79.3 821.6,-79.38"/>
</g>
<!-- Node11 -->
<g id="node11" class="node">
<title>Node11</title>
<g id="a_node11"><a xlink:href="api_8cpp.html" target="_top" xlink:title=" ">
<polygon fill="none" stroke="black" points="937,-6 937,-47 1086,-47 1086,-6 937,-6"/>
<text text-anchor="start" x="945" y="-35" font-family="Helvetica,sans-Serif" font-size="10.00">/home/runner/work/diffblue</text>
<text text-anchor="start" x="945" y="-24" font-family="Helvetica,sans-Serif" font-size="10.00">&#45;cbmc/diffblue&#45;cbmc/src</text>
<text text-anchor="middle" x="1011.5" y="-13" font-family="Helvetica,sans-Serif" font-size="10.00">/libcprover&#45;cpp/api.cpp</text>
</a>
</g>
</g>
<!-- Node9&#45;&gt;Node11 -->
<g id="edge12" class="edge">
<title>Node9&#45;&gt;Node11</title>
<path fill="none" stroke="midnightblue" d="M888.58,-84.99C915.32,-72.49 945.74,-58.26 969.63,-47.08"/>
<polygon fill="midnightblue" stroke="midnightblue" points="886.87,-81.93 879.3,-89.34 889.84,-88.27 886.87,-81.93"/>
</g>
<!-- Node12 -->
<g id="node12" class="node">
<title>Node12</title>
<g id="a_node12"><a xlink:href="jbmc__parse__options_8cpp.html" target="_top" xlink:title="JBMC Command Line Option Processing.">
<polygon fill="none" stroke="black" points="1104.5,-6 1104.5,-47 1286.5,-47 1286.5,-6 1104.5,-6"/>
<text text-anchor="start" x="1112.5" y="-35" font-family="Helvetica,sans-Serif" font-size="10.00">/home/runner/work/diffblue</text>
<text text-anchor="start" x="1112.5" y="-24" font-family="Helvetica,sans-Serif" font-size="10.00">&#45;cbmc/diffblue&#45;cbmc/jbmc</text>
<text text-anchor="middle" x="1195.5" y="-13" font-family="Helvetica,sans-Serif" font-size="10.00">/src/jbmc/jbmc_parse_options.cpp</text>
</a>
</g>
</g>
<!-- Node9&#45;&gt;Node12 -->
<g id="edge13" class="edge">
<title>Node9&#45;&gt;Node12</title>
<path fill="none" stroke="midnightblue" d="M917.69,-88.78C996.68,-70.13 1018.87,-70.19 1094.5,-53 1102.7,-51.14 1111.25,-49.11 1119.76,-47.04"/>
<polygon fill="midnightblue" stroke="midnightblue" points="916.68,-85.43 907.77,-91.15 918.31,-92.23 916.68,-85.43"/>
</g>
<!-- Node13&#45;&gt;Node4 -->
<g id="edge16" class="edge">
<title>Node13&#45;&gt;Node4</title>
<path fill="none" stroke="midnightblue" d="M637.06,-79.49C635.03,-68.45 632.86,-56.65 631.1,-47.08"/>
<polygon fill="midnightblue" stroke="midnightblue" points="633.62,-80.13 638.87,-89.34 640.51,-78.87 633.62,-80.13"/>
</g>
<!-- Node20&#45;&gt;Node4 -->
<g id="edge24" class="edge">
<title>Node20&#45;&gt;Node4</title>
<path fill="none" stroke="midnightblue" d="M916.15,-89.04C828.7,-68.4 803.81,-72.03 720.5,-53 712.58,-51.19 704.33,-49.15 696.15,-47.04"/>
<polygon fill="midnightblue" stroke="midnightblue" points="915.42,-92.47 925.97,-91.4 917.06,-85.66 915.42,-92.47"/>
</g>
<!-- Node20&#45;&gt;Node12 -->
<g id="edge25" class="edge">
<title>Node20&#45;&gt;Node12</title>
<path fill="none" stroke="midnightblue" d="M1066.01,-85.27C1094.15,-72.72 1126.28,-58.38 1151.49,-47.13"/>
<polygon fill="midnightblue" stroke="midnightblue" points="1064.35,-82.18 1056.64,-89.45 1067.2,-88.57 1064.35,-82.18"/>
</g>
<!-- Node21&#45;&gt;Node4 -->
<g id="edge27" class="edge">
<title>Node21&#45;&gt;Node4</title>
<path fill="none" stroke="midnightblue" d="M1082.63,-88.98C921.98,-61.76 876.64,-81.93 720.5,-53 711.69,-51.37 702.51,-49.3 693.48,-47.06"/>
<polygon fill="midnightblue" stroke="midnightblue" points="1082.43,-92.5 1092.88,-90.76 1083.62,-85.6 1082.43,-92.5"/>
</g>
<!-- Node21&#45;&gt;Node12 -->
<g id="edge28" class="edge">
<title>Node21&#45;&gt;Node12</title>
<path fill="none" stroke="midnightblue" d="M1188.38,-79.16C1189.88,-68.21 1191.49,-56.55 1192.8,-47.08"/>
<polygon fill="midnightblue" stroke="midnightblue" points="1184.87,-78.95 1186.97,-89.34 1191.8,-79.91 1184.87,-78.95"/>
</g>
<!-- Node22&#45;&gt;Node12 -->
<g id="edge31" class="edge">
<title>Node22&#45;&gt;Node12</title>
<path fill="none" stroke="midnightblue" d="M1327.62,-90.66C1299,-76.98 1263.51,-60.01 1236.52,-47.11"/>
<polygon fill="midnightblue" stroke="midnightblue" points="1326.12,-93.82 1336.66,-94.98 1329.14,-87.5 1326.12,-93.82"/>
</g>
<!-- Node23 -->
<g id="node23" class="node">
<title>Node23</title>
<g id="a_node23"><a xlink:href="jbmc__main_8cpp.html" target="_top" xlink:title="CBMC Main Module.">
<polygon fill="none" stroke="black" points="1305,-6 1305,-47 1454,-47 1454,-6 1305,-6"/>
<text text-anchor="start" x="1313" y="-35" font-family="Helvetica,sans-Serif" font-size="10.00">/home/runner/work/diffblue</text>
<text text-anchor="start" x="1313" y="-24" font-family="Helvetica,sans-Serif" font-size="10.00">&#45;cbmc/diffblue&#45;cbmc/jbmc</text>
<text text-anchor="middle" x="1379.5" y="-13" font-family="Helvetica,sans-Serif" font-size="10.00">/src/jbmc/jbmc_main.cpp</text>
</a>
</g>
</g>
<!-- Node22&#45;&gt;Node23 -->
<g id="edge30" class="edge">
<title>Node22&#45;&gt;Node23</title>
<path fill="none" stroke="midnightblue" d="M1378.19,-84.44C1378.47,-72.1 1378.8,-58.16 1379.05,-47.16"/>
<polygon fill="midnightblue" stroke="midnightblue" points="1374.68,-84.68 1377.95,-94.76 1381.68,-84.84 1374.68,-84.68"/>
</g>
</g>
</svg>
