<?xml version="1.0" encoding="UTF-8" standalone="no"?>
<!DOCTYPE svg PUBLIC "-//W3C//DTD SVG 1.1//EN"
 "http://www.w3.org/Graphics/SVG/1.1/DTD/svg11.dtd">
<!-- Generated by graphviz version 2.43.0 (0)
 -->
<!-- Title: /home/runner/work/diffblue&#45;cbmc/diffblue&#45;cbmc/src/goto&#45;analyzer/build_analyzer.h Pages: 1 -->
<svg width="366pt" height="139pt"
 viewBox="0.00 0.00 366.00 139.00" xmlns="http://www.w3.org/2000/svg" xmlns:xlink="http://www.w3.org/1999/xlink">
<g id="graph0" class="graph" transform="scale(1 1) rotate(0) translate(4 135)">
<title>/home/runner/work/diffblue&#45;cbmc/diffblue&#45;cbmc/src/goto&#45;analyzer/build_analyzer.h</title>
<!-- Node1 -->
<g id="node1" class="node">
<title>Node1</title>
<g id="a_node1"><a xlink:title=" ">
<polygon fill="#bfbfbf" stroke="black" points="99.5,-89.5 99.5,-130.5 269.5,-130.5 269.5,-89.5 99.5,-89.5"/>
<text text-anchor="start" x="107.5" y="-118.5" font-family="Helvetica,sans-Serif" font-size="10.00">/home/runner/work/diffblue</text>
<text text-anchor="start" x="107.5" y="-107.5" font-family="Helvetica,sans-Serif" font-size="10.00">&#45;cbmc/diffblue&#45;cbmc/src</text>
<text text-anchor="middle" x="184.5" y="-96.5" font-family="Helvetica,sans-Serif" font-size="10.00">/goto&#45;analyzer/build_analyzer.h</text>
</a>
</g>
</g>
<!-- Node2 -->
<g id="node2" class="node">
<title>Node2</title>
<g id="a_node2"><a xlink:href="build__analyzer_8cpp.html" target="_top" xlink:title=" ">
<polygon fill="none" stroke="black" points="0,-6 0,-47 181,-47 181,-6 0,-6"/>
<text text-anchor="start" x="8" y="-35" font-family="Helvetica,sans-Serif" font-size="10.00">/home/runner/work/diffblue</text>
<text text-anchor="start" x="8" y="-24" font-family="Helvetica,sans-Serif" font-size="10.00">&#45;cbmc/diffblue&#45;cbmc/src</text>
<text text-anchor="middle" x="90.5" y="-13" font-family="Helvetica,sans-Serif" font-size="10.00">/goto&#45;analyzer/build_analyzer.cpp</text>
</a>
</g>
</g>
<!-- Node1&#45;&gt;Node2 -->
<g id="edge1" class="edge">
<title>Node1&#45;&gt;Node2</title>
<path fill="none" stroke="midnightblue" d="M154.15,-82.69C140.79,-71.1 125.36,-57.73 113.05,-47.05"/>
<polygon fill="midnightblue" stroke="midnightblue" points="151.9,-85.36 161.75,-89.27 156.48,-80.08 151.9,-85.36"/>
</g>
<!-- Node3 -->
<g id="node3" class="node">
<title>Node3</title>
<g id="a_node3"><a xlink:href="goto__analyzer__parse__options_8cpp.html" target="_top" xlink:title="Goto&#45;Analyser Command Line Option Processing.">
<polygon fill="none" stroke="black" points="199,-0.5 199,-52.5 358,-52.5 358,-0.5 199,-0.5"/>
<text text-anchor="start" x="207" y="-40.5" font-family="Helvetica,sans-Serif" font-size="10.00">/home/runner/work/diffblue</text>
<text text-anchor="start" x="207" y="-29.5" font-family="Helvetica,sans-Serif" font-size="10.00">&#45;cbmc/diffblue&#45;cbmc/src</text>
<text text-anchor="start" x="207" y="-18.5" font-family="Helvetica,sans-Serif" font-size="10.00">/goto&#45;analyzer/goto_analyzer</text>
<text text-anchor="middle" x="278.5" y="-7.5" font-family="Helvetica,sans-Serif" font-size="10.00">_parse_options.cpp</text>
</a>
</g>
</g>
<!-- Node1&#45;&gt;Node3 -->
<g id="edge2" class="edge">
<title>Node1&#45;&gt;Node3</title>
<path fill="none" stroke="midnightblue" d="M215.04,-82.52C226.12,-72.92 238.6,-62.09 249.54,-52.61"/>
<polygon fill="midnightblue" stroke="midnightblue" points="212.52,-80.08 207.25,-89.27 217.1,-85.36 212.52,-80.08"/>
</g>
</g>
</svg>
