<?xml version="1.0" encoding="UTF-8" standalone="no"?>
<!DOCTYPE svg PUBLIC "-//W3C//DTD SVG 1.1//EN"
 "http://www.w3.org/Graphics/SVG/1.1/DTD/svg11.dtd">
<!-- Generated by graphviz version 2.43.0 (0)
 -->
<!-- Title: /home/runner/work/diffblue&#45;cbmc/diffblue&#45;cbmc/src/solvers/flattening/bv_pointers.h Pages: 1 -->
<svg width="2825pt" height="406pt"
 viewBox="0.00 0.00 2824.50 406.00" xmlns="http://www.w3.org/2000/svg" xmlns:xlink="http://www.w3.org/1999/xlink">
<g id="graph0" class="graph" transform="scale(1 1) rotate(0) translate(4 402)">
<title>/home/runner/work/diffblue&#45;cbmc/diffblue&#45;cbmc/src/solvers/flattening/bv_pointers.h</title>
<!-- Node1 -->
<g id="node1" class="node">
<title>Node1</title>
<g id="a_node1"><a xlink:title=" ">
<polygon fill="#bfbfbf" stroke="black" points="1581.5,-356.5 1581.5,-397.5 1754.5,-397.5 1754.5,-356.5 1581.5,-356.5"/>
<text text-anchor="start" x="1589.5" y="-385.5" font-family="Helvetica,sans-Serif" font-size="10.00">/home/runner/work/diffblue</text>
<text text-anchor="start" x="1589.5" y="-374.5" font-family="Helvetica,sans-Serif" font-size="10.00">&#45;cbmc/diffblue&#45;cbmc/src</text>
<text text-anchor="middle" x="1668" y="-363.5" font-family="Helvetica,sans-Serif" font-size="10.00">/solvers/flattening/bv_pointers.h</text>
</a>
</g>
</g>
<!-- Node2 -->
<g id="node2" class="node">
<title>Node2</title>
<g id="a_node2"><a xlink:href="scratch__program_8h.html" target="_top" xlink:title="Loop Acceleration.">
<polygon fill="none" stroke="black" points="512,-267.5 512,-319.5 664,-319.5 664,-267.5 512,-267.5"/>
<text text-anchor="start" x="520" y="-307.5" font-family="Helvetica,sans-Serif" font-size="10.00">/home/runner/work/diffblue</text>
<text text-anchor="start" x="520" y="-296.5" font-family="Helvetica,sans-Serif" font-size="10.00">&#45;cbmc/diffblue&#45;cbmc/src</text>
<text text-anchor="start" x="520" y="-285.5" font-family="Helvetica,sans-Serif" font-size="10.00">/goto&#45;instrument/accelerate</text>
<text text-anchor="middle" x="588" y="-274.5" font-family="Helvetica,sans-Serif" font-size="10.00">/scratch_program.h</text>
</a>
</g>
</g>
<!-- Node1&#45;&gt;Node2 -->
<g id="edge1" class="edge">
<title>Node1&#45;&gt;Node2</title>
<path fill="none" stroke="midnightblue" d="M1571.25,-368.7C1359.05,-352.69 856.35,-314.75 664.35,-300.26"/>
<polygon fill="midnightblue" stroke="midnightblue" points="1571.21,-372.21 1581.44,-369.47 1571.74,-365.23 1571.21,-372.21"/>
</g>
<!-- Node9 -->
<g id="node9" class="node">
<title>Node9</title>
<g id="a_node9"><a xlink:href="bv__dimacs_8h.html" target="_top" xlink:title="Writing DIMACS Files.">
<polygon fill="none" stroke="black" points="1486.5,-273 1486.5,-314 1655.5,-314 1655.5,-273 1486.5,-273"/>
<text text-anchor="start" x="1494.5" y="-302" font-family="Helvetica,sans-Serif" font-size="10.00">/home/runner/work/diffblue</text>
<text text-anchor="start" x="1494.5" y="-291" font-family="Helvetica,sans-Serif" font-size="10.00">&#45;cbmc/diffblue&#45;cbmc/src</text>
<text text-anchor="middle" x="1571" y="-280" font-family="Helvetica,sans-Serif" font-size="10.00">/solvers/flattening/bv_dimacs.h</text>
</a>
</g>
</g>
<!-- Node1&#45;&gt;Node9 -->
<g id="edge8" class="edge">
<title>Node1&#45;&gt;Node9</title>
<path fill="none" stroke="midnightblue" d="M1636.69,-349.69C1622.9,-338.1 1606.98,-324.73 1594.26,-314.05"/>
<polygon fill="midnightblue" stroke="midnightblue" points="1634.61,-352.52 1644.52,-356.27 1639.11,-347.16 1634.61,-352.52"/>
</g>
<!-- Node12 -->
<g id="node12" class="node">
<title>Node12</title>
<g id="a_node12"><a xlink:href="bv__minimize_8h.html" target="_top" xlink:title="SAT&#45;optimizer for minimizing expressions.">
<polygon fill="none" stroke="black" points="1277.5,-273 1277.5,-314 1456.5,-314 1456.5,-273 1277.5,-273"/>
<text text-anchor="start" x="1285.5" y="-302" font-family="Helvetica,sans-Serif" font-size="10.00">/home/runner/work/diffblue</text>
<text text-anchor="start" x="1285.5" y="-291" font-family="Helvetica,sans-Serif" font-size="10.00">&#45;cbmc/diffblue&#45;cbmc/src</text>
<text text-anchor="middle" x="1367" y="-280" font-family="Helvetica,sans-Serif" font-size="10.00">/solvers/flattening/bv_minimize.h</text>
</a>
</g>
</g>
<!-- Node1&#45;&gt;Node12 -->
<g id="edge11" class="edge">
<title>Node1&#45;&gt;Node12</title>
<path fill="none" stroke="midnightblue" d="M1585.97,-353.79C1540.02,-341.35 1483.25,-325.98 1439.03,-314"/>
<polygon fill="midnightblue" stroke="midnightblue" points="1585.34,-357.24 1595.9,-356.48 1587.17,-350.49 1585.34,-357.24"/>
</g>
<!-- Node19 -->
<g id="node19" class="node">
<title>Node19</title>
<g id="a_node19"><a xlink:href="bv__pointers_8cpp.html" target="_top" xlink:title=" ">
<polygon fill="none" stroke="black" points="1673.5,-273 1673.5,-314 1858.5,-314 1858.5,-273 1673.5,-273"/>
<text text-anchor="start" x="1681.5" y="-302" font-family="Helvetica,sans-Serif" font-size="10.00">/home/runner/work/diffblue</text>
<text text-anchor="start" x="1681.5" y="-291" font-family="Helvetica,sans-Serif" font-size="10.00">&#45;cbmc/diffblue&#45;cbmc/src</text>
<text text-anchor="middle" x="1766" y="-280" font-family="Helvetica,sans-Serif" font-size="10.00">/solvers/flattening/bv_pointers.cpp</text>
</a>
</g>
</g>
<!-- Node1&#45;&gt;Node19 -->
<g id="edge18" class="edge">
<title>Node1&#45;&gt;Node19</title>
<path fill="none" stroke="midnightblue" d="M1699.64,-349.69C1713.57,-338.1 1729.65,-324.73 1742.5,-314.05"/>
<polygon fill="midnightblue" stroke="midnightblue" points="1697.17,-347.19 1691.72,-356.27 1701.65,-352.57 1697.17,-347.19"/>
</g>
<!-- Node20 -->
<g id="node20" class="node">
<title>Node20</title>
<g id="a_node20"><a xlink:href="bv__refinement_8h.html" target="_top" xlink:title="Abstraction Refinement Loop.">
<polygon fill="none" stroke="black" points="1876,-273 1876,-314 2070,-314 2070,-273 1876,-273"/>
<text text-anchor="start" x="1884" y="-302" font-family="Helvetica,sans-Serif" font-size="10.00">/home/runner/work/diffblue</text>
<text text-anchor="start" x="1884" y="-291" font-family="Helvetica,sans-Serif" font-size="10.00">&#45;cbmc/diffblue&#45;cbmc/src</text>
<text text-anchor="middle" x="1973" y="-280" font-family="Helvetica,sans-Serif" font-size="10.00">/solvers/refinement/bv_refinement.h</text>
</a>
</g>
</g>
<!-- Node1&#45;&gt;Node20 -->
<g id="edge19" class="edge">
<title>Node1&#45;&gt;Node20</title>
<path fill="none" stroke="midnightblue" d="M1750.82,-353.87C1797.44,-341.41 1855.11,-326 1900.01,-314"/>
<polygon fill="midnightblue" stroke="midnightblue" points="1749.81,-350.52 1741.06,-356.48 1751.62,-357.28 1749.81,-350.52"/>
</g>
<!-- Node34 -->
<g id="node34" class="node">
<title>Node34</title>
<g id="a_node34"><a xlink:href="string__constraint_8cpp.html" target="_top" xlink:title=" ">
<polygon fill="none" stroke="black" points="2088,-273 2088,-314 2284,-314 2284,-273 2088,-273"/>
<text text-anchor="start" x="2096" y="-302" font-family="Helvetica,sans-Serif" font-size="10.00">/home/runner/work/diffblue</text>
<text text-anchor="start" x="2096" y="-291" font-family="Helvetica,sans-Serif" font-size="10.00">&#45;cbmc/diffblue&#45;cbmc/src</text>
<text text-anchor="middle" x="2186" y="-280" font-family="Helvetica,sans-Serif" font-size="10.00">/solvers/strings/string_constraint.cpp</text>
</a>
</g>
</g>
<!-- Node1&#45;&gt;Node34 -->
<g id="edge35" class="edge">
<title>Node1&#45;&gt;Node34</title>
<path fill="none" stroke="midnightblue" d="M1764.58,-365.56C1848.15,-355.89 1972.03,-339.98 2079,-320 2088.39,-318.25 2098.19,-316.21 2107.88,-314.06"/>
<polygon fill="midnightblue" stroke="midnightblue" points="1764.13,-362.09 1754.6,-366.71 1764.93,-369.05 1764.13,-362.09"/>
</g>
<!-- Node3 -->
<g id="node3" class="node">
<title>Node3</title>
<g id="a_node3"><a xlink:href="accelerate_8cpp.html" target="_top" xlink:title="Loop Acceleration.">
<polygon fill="none" stroke="black" points="512,-178.5 512,-230.5 664,-230.5 664,-178.5 512,-178.5"/>
<text text-anchor="start" x="520" y="-218.5" font-family="Helvetica,sans-Serif" font-size="10.00">/home/runner/work/diffblue</text>
<text text-anchor="start" x="520" y="-207.5" font-family="Helvetica,sans-Serif" font-size="10.00">&#45;cbmc/diffblue&#45;cbmc/src</text>
<text text-anchor="start" x="520" y="-196.5" font-family="Helvetica,sans-Serif" font-size="10.00">/goto&#45;instrument/accelerate</text>
<text text-anchor="middle" x="588" y="-185.5" font-family="Helvetica,sans-Serif" font-size="10.00">/accelerate.cpp</text>
</a>
</g>
</g>
<!-- Node2&#45;&gt;Node3 -->
<g id="edge2" class="edge">
<title>Node2&#45;&gt;Node3</title>
<path fill="none" stroke="midnightblue" d="M588,-257.19C588,-248.28 588,-238.9 588,-230.61"/>
<polygon fill="midnightblue" stroke="midnightblue" points="584.5,-257.34 588,-267.34 591.5,-257.34 584.5,-257.34"/>
</g>
<!-- Node4 -->
<g id="node4" class="node">
<title>Node4</title>
<g id="a_node4"><a xlink:href="acceleration__utils_8cpp.html" target="_top" xlink:title="Loop Acceleration.">
<polygon fill="none" stroke="black" points="682,-178.5 682,-230.5 834,-230.5 834,-178.5 682,-178.5"/>
<text text-anchor="start" x="690" y="-218.5" font-family="Helvetica,sans-Serif" font-size="10.00">/home/runner/work/diffblue</text>
<text text-anchor="start" x="690" y="-207.5" font-family="Helvetica,sans-Serif" font-size="10.00">&#45;cbmc/diffblue&#45;cbmc/src</text>
<text text-anchor="start" x="690" y="-196.5" font-family="Helvetica,sans-Serif" font-size="10.00">/goto&#45;instrument/accelerate</text>
<text text-anchor="middle" x="758" y="-185.5" font-family="Helvetica,sans-Serif" font-size="10.00">/acceleration_utils.cpp</text>
</a>
</g>
</g>
<!-- Node2&#45;&gt;Node4 -->
<g id="edge3" class="edge">
<title>Node2&#45;&gt;Node4</title>
<path fill="none" stroke="midnightblue" d="M646.08,-262.78C666.53,-252.31 689.3,-240.66 708.94,-230.61"/>
<polygon fill="midnightblue" stroke="midnightblue" points="644.48,-259.66 637.17,-267.34 647.67,-265.9 644.48,-259.66"/>
</g>
<!-- Node5 -->
<g id="node5" class="node">
<title>Node5</title>
<g id="a_node5"><a xlink:href="disjunctive__polynomial__acceleration_8cpp.html" target="_top" xlink:title="Loop Acceleration.">
<polygon fill="none" stroke="black" points="852,-178.5 852,-230.5 1070,-230.5 1070,-178.5 852,-178.5"/>
<text text-anchor="start" x="860" y="-218.5" font-family="Helvetica,sans-Serif" font-size="10.00">/home/runner/work/diffblue</text>
<text text-anchor="start" x="860" y="-207.5" font-family="Helvetica,sans-Serif" font-size="10.00">&#45;cbmc/diffblue&#45;cbmc/src</text>
<text text-anchor="start" x="860" y="-196.5" font-family="Helvetica,sans-Serif" font-size="10.00">/goto&#45;instrument/accelerate</text>
<text text-anchor="middle" x="961" y="-185.5" font-family="Helvetica,sans-Serif" font-size="10.00">/disjunctive_polynomial_acceleration.cpp</text>
</a>
</g>
</g>
<!-- Node2&#45;&gt;Node5 -->
<g id="edge4" class="edge">
<title>Node2&#45;&gt;Node5</title>
<path fill="none" stroke="midnightblue" d="M674.17,-272.4C727.59,-259.94 796.65,-243.83 853.61,-230.55"/>
<polygon fill="midnightblue" stroke="midnightblue" points="673.33,-269 664.38,-274.68 674.92,-275.82 673.33,-269"/>
</g>
<!-- Node6 -->
<g id="node6" class="node">
<title>Node6</title>
<g id="a_node6"><a xlink:href="polynomial__accelerator_8cpp.html" target="_top" xlink:title="Loop Acceleration.">
<polygon fill="none" stroke="black" points="0,-178.5 0,-230.5 154,-230.5 154,-178.5 0,-178.5"/>
<text text-anchor="start" x="8" y="-218.5" font-family="Helvetica,sans-Serif" font-size="10.00">/home/runner/work/diffblue</text>
<text text-anchor="start" x="8" y="-207.5" font-family="Helvetica,sans-Serif" font-size="10.00">&#45;cbmc/diffblue&#45;cbmc/src</text>
<text text-anchor="start" x="8" y="-196.5" font-family="Helvetica,sans-Serif" font-size="10.00">/goto&#45;instrument/accelerate</text>
<text text-anchor="middle" x="77" y="-185.5" font-family="Helvetica,sans-Serif" font-size="10.00">/polynomial_accelerator.cpp</text>
</a>
</g>
</g>
<!-- Node2&#45;&gt;Node6 -->
<g id="edge5" class="edge">
<title>Node2&#45;&gt;Node6</title>
<path fill="none" stroke="midnightblue" d="M501.77,-283.72C415.44,-274.07 279.1,-256.47 163,-231 160.11,-230.37 157.18,-229.69 154.22,-228.97"/>
<polygon fill="midnightblue" stroke="midnightblue" points="501.46,-287.21 511.78,-284.83 502.23,-280.25 501.46,-287.21"/>
</g>
<!-- Node7 -->
<g id="node7" class="node">
<title>Node7</title>
<g id="a_node7"><a xlink:href="sat__path__enumerator_8cpp.html" target="_top" xlink:title="Loop Acceleration.">
<polygon fill="none" stroke="black" points="172,-178.5 172,-230.5 324,-230.5 324,-178.5 172,-178.5"/>
<text text-anchor="start" x="180" y="-218.5" font-family="Helvetica,sans-Serif" font-size="10.00">/home/runner/work/diffblue</text>
<text text-anchor="start" x="180" y="-207.5" font-family="Helvetica,sans-Serif" font-size="10.00">&#45;cbmc/diffblue&#45;cbmc/src</text>
<text text-anchor="start" x="180" y="-196.5" font-family="Helvetica,sans-Serif" font-size="10.00">/goto&#45;instrument/accelerate</text>
<text text-anchor="middle" x="248" y="-185.5" font-family="Helvetica,sans-Serif" font-size="10.00">/sat_path_enumerator.cpp</text>
</a>
</g>
</g>
<!-- Node2&#45;&gt;Node7 -->
<g id="edge6" class="edge">
<title>Node2&#45;&gt;Node7</title>
<path fill="none" stroke="midnightblue" d="M501.81,-272.95C452.26,-261.41 388.93,-246.12 333,-231 330.17,-230.24 327.3,-229.44 324.4,-228.64"/>
<polygon fill="midnightblue" stroke="midnightblue" points="501.32,-276.43 511.85,-275.28 502.9,-269.61 501.32,-276.43"/>
</g>
<!-- Node8 -->
<g id="node8" class="node">
<title>Node8</title>
<g id="a_node8"><a xlink:href="scratch__program_8cpp.html" target="_top" xlink:title="Loop Acceleration.">
<polygon fill="none" stroke="black" points="342,-178.5 342,-230.5 494,-230.5 494,-178.5 342,-178.5"/>
<text text-anchor="start" x="350" y="-218.5" font-family="Helvetica,sans-Serif" font-size="10.00">/home/runner/work/diffblue</text>
<text text-anchor="start" x="350" y="-207.5" font-family="Helvetica,sans-Serif" font-size="10.00">&#45;cbmc/diffblue&#45;cbmc/src</text>
<text text-anchor="start" x="350" y="-196.5" font-family="Helvetica,sans-Serif" font-size="10.00">/goto&#45;instrument/accelerate</text>
<text text-anchor="middle" x="418" y="-185.5" font-family="Helvetica,sans-Serif" font-size="10.00">/scratch_program.cpp</text>
</a>
</g>
</g>
<!-- Node2&#45;&gt;Node8 -->
<g id="edge7" class="edge">
<title>Node2&#45;&gt;Node8</title>
<path fill="none" stroke="midnightblue" d="M529.92,-262.78C509.47,-252.31 486.7,-240.66 467.06,-230.61"/>
<polygon fill="midnightblue" stroke="midnightblue" points="528.33,-265.9 538.83,-267.34 531.52,-259.66 528.33,-265.9"/>
</g>
<!-- Node10 -->
<g id="node10" class="node">
<title>Node10</title>
<g id="a_node10"><a xlink:href="solver__factory_8cpp.html" target="_top" xlink:title="Solver Factory.">
<polygon fill="none" stroke="black" points="1640,-95 1640,-136 1814,-136 1814,-95 1640,-95"/>
<text text-anchor="start" x="1648" y="-124" font-family="Helvetica,sans-Serif" font-size="10.00">/home/runner/work/diffblue</text>
<text text-anchor="start" x="1648" y="-113" font-family="Helvetica,sans-Serif" font-size="10.00">&#45;cbmc/diffblue&#45;cbmc/src</text>
<text text-anchor="middle" x="1727" y="-102" font-family="Helvetica,sans-Serif" font-size="10.00">/goto&#45;checker/solver_factory.cpp</text>
</a>
</g>
</g>
<!-- Node9&#45;&gt;Node10 -->
<g id="edge9" class="edge">
<title>Node9&#45;&gt;Node10</title>
<path fill="none" stroke="midnightblue" d="M1622.83,-267.6C1639.36,-257.87 1656.78,-245.52 1670,-231 1695.71,-202.75 1712.6,-160.78 1720.92,-136.27"/>
<polygon fill="midnightblue" stroke="midnightblue" points="1620.73,-264.77 1613.76,-272.74 1624.19,-270.86 1620.73,-264.77"/>
</g>
<!-- Node11 -->
<g id="node11" class="node">
<title>Node11</title>
<g id="a_node11"><a xlink:href="bv__dimacs_8cpp.html" target="_top" xlink:title="Writing DIMACS Files.">
<polygon fill="none" stroke="black" points="1481,-184 1481,-225 1661,-225 1661,-184 1481,-184"/>
<text text-anchor="start" x="1489" y="-213" font-family="Helvetica,sans-Serif" font-size="10.00">/home/runner/work/diffblue</text>
<text text-anchor="start" x="1489" y="-202" font-family="Helvetica,sans-Serif" font-size="10.00">&#45;cbmc/diffblue&#45;cbmc/src</text>
<text text-anchor="middle" x="1571" y="-191" font-family="Helvetica,sans-Serif" font-size="10.00">/solvers/flattening/bv_dimacs.cpp</text>
</a>
</g>
</g>
<!-- Node9&#45;&gt;Node11 -->
<g id="edge10" class="edge">
<title>Node9&#45;&gt;Node11</title>
<path fill="none" stroke="midnightblue" d="M1571,-262.44C1571,-250.1 1571,-236.16 1571,-225.16"/>
<polygon fill="midnightblue" stroke="midnightblue" points="1567.5,-262.76 1571,-272.76 1574.5,-262.76 1567.5,-262.76"/>
</g>
<!-- Node13 -->
<g id="node13" class="node">
<title>Node13</title>
<g id="a_node13"><a xlink:href="counterexample__beautification_8h.html" target="_top" xlink:title="Counterexample Beautification.">
<polygon fill="none" stroke="black" points="1088.5,-178.5 1088.5,-230.5 1253.5,-230.5 1253.5,-178.5 1088.5,-178.5"/>
<text text-anchor="start" x="1096.5" y="-218.5" font-family="Helvetica,sans-Serif" font-size="10.00">/home/runner/work/diffblue</text>
<text text-anchor="start" x="1096.5" y="-207.5" font-family="Helvetica,sans-Serif" font-size="10.00">&#45;cbmc/diffblue&#45;cbmc/src</text>
<text text-anchor="start" x="1096.5" y="-196.5" font-family="Helvetica,sans-Serif" font-size="10.00">/goto&#45;checker/counterexample</text>
<text text-anchor="middle" x="1171" y="-185.5" font-family="Helvetica,sans-Serif" font-size="10.00">_beautification.h</text>
</a>
</g>
</g>
<!-- Node12&#45;&gt;Node13 -->
<g id="edge12" class="edge">
<title>Node12&#45;&gt;Node13</title>
<path fill="none" stroke="midnightblue" d="M1313.81,-268.89C1287.09,-257.03 1254.69,-242.65 1227.51,-230.58"/>
<polygon fill="midnightblue" stroke="midnightblue" points="1312.45,-272.12 1323.01,-272.98 1315.29,-265.72 1312.45,-272.12"/>
</g>
<!-- Node18 -->
<g id="node18" class="node">
<title>Node18</title>
<g id="a_node18"><a xlink:href="bv__minimize_8cpp.html" target="_top" xlink:title=" ">
<polygon fill="none" stroke="black" points="1271.5,-184 1271.5,-225 1462.5,-225 1462.5,-184 1271.5,-184"/>
<text text-anchor="start" x="1279.5" y="-213" font-family="Helvetica,sans-Serif" font-size="10.00">/home/runner/work/diffblue</text>
<text text-anchor="start" x="1279.5" y="-202" font-family="Helvetica,sans-Serif" font-size="10.00">&#45;cbmc/diffblue&#45;cbmc/src</text>
<text text-anchor="middle" x="1367" y="-191" font-family="Helvetica,sans-Serif" font-size="10.00">/solvers/flattening/bv_minimize.cpp</text>
</a>
</g>
</g>
<!-- Node12&#45;&gt;Node18 -->
<g id="edge17" class="edge">
<title>Node12&#45;&gt;Node18</title>
<path fill="none" stroke="midnightblue" d="M1367,-262.44C1367,-250.1 1367,-236.16 1367,-225.16"/>
<polygon fill="midnightblue" stroke="midnightblue" points="1363.5,-262.76 1367,-272.76 1370.5,-262.76 1363.5,-262.76"/>
</g>
<!-- Node14 -->
<g id="node14" class="node">
<title>Node14</title>
<g id="a_node14"><a xlink:href="counterexample__beautification_8cpp.html" target="_top" xlink:title="Counterexample Beautification using Incremental SAT.">
<polygon fill="none" stroke="black" points="821.5,-89.5 821.5,-141.5 986.5,-141.5 986.5,-89.5 821.5,-89.5"/>
<text text-anchor="start" x="829.5" y="-129.5" font-family="Helvetica,sans-Serif" font-size="10.00">/home/runner/work/diffblue</text>
<text text-anchor="start" x="829.5" y="-118.5" font-family="Helvetica,sans-Serif" font-size="10.00">&#45;cbmc/diffblue&#45;cbmc/src</text>
<text text-anchor="start" x="829.5" y="-107.5" font-family="Helvetica,sans-Serif" font-size="10.00">/goto&#45;checker/counterexample</text>
<text text-anchor="middle" x="904" y="-96.5" font-family="Helvetica,sans-Serif" font-size="10.00">_beautification.cpp</text>
</a>
</g>
</g>
<!-- Node13&#45;&gt;Node14 -->
<g id="edge13" class="edge">
<title>Node13&#45;&gt;Node14</title>
<path fill="none" stroke="midnightblue" d="M1084.39,-175.28C1051.02,-164.4 1013.17,-152.07 980.79,-141.52"/>
<polygon fill="midnightblue" stroke="midnightblue" points="1083.54,-178.68 1094.13,-178.45 1085.71,-172.03 1083.54,-178.68"/>
</g>
<!-- Node15 -->
<g id="node15" class="node">
<title>Node15</title>
<g id="a_node15"><a xlink:href="multi__path__symex__checker_8cpp.html" target="_top" xlink:title="Goto Checker using Bounded Model Checking.">
<polygon fill="none" stroke="black" points="1004.5,-89.5 1004.5,-141.5 1153.5,-141.5 1153.5,-89.5 1004.5,-89.5"/>
<text text-anchor="start" x="1012.5" y="-129.5" font-family="Helvetica,sans-Serif" font-size="10.00">/home/runner/work/diffblue</text>
<text text-anchor="start" x="1012.5" y="-118.5" font-family="Helvetica,sans-Serif" font-size="10.00">&#45;cbmc/diffblue&#45;cbmc/src</text>
<text text-anchor="start" x="1012.5" y="-107.5" font-family="Helvetica,sans-Serif" font-size="10.00">/goto&#45;checker/multi_path</text>
<text text-anchor="middle" x="1079" y="-96.5" font-family="Helvetica,sans-Serif" font-size="10.00">_symex_checker.cpp</text>
</a>
</g>
</g>
<!-- Node13&#45;&gt;Node15 -->
<g id="edge14" class="edge">
<title>Node13&#45;&gt;Node15</title>
<path fill="none" stroke="midnightblue" d="M1137.02,-171.36C1126.63,-161.54 1115.37,-150.89 1105.55,-141.61"/>
<polygon fill="midnightblue" stroke="midnightblue" points="1134.72,-174.01 1144.39,-178.34 1139.53,-168.92 1134.72,-174.01"/>
</g>
<!-- Node16 -->
<g id="node16" class="node">
<title>Node16</title>
<g id="a_node16"><a xlink:href="single__loop__incremental__symex__checker_8cpp.html" target="_top" xlink:title="Goto Checker using multi&#45;path symbolic execution with incremental unwinding of a specified loop.">
<polygon fill="none" stroke="black" points="1171.5,-89.5 1171.5,-141.5 1352.5,-141.5 1352.5,-89.5 1171.5,-89.5"/>
<text text-anchor="start" x="1179.5" y="-129.5" font-family="Helvetica,sans-Serif" font-size="10.00">/home/runner/work/diffblue</text>
<text text-anchor="start" x="1179.5" y="-118.5" font-family="Helvetica,sans-Serif" font-size="10.00">&#45;cbmc/diffblue&#45;cbmc/src</text>
<text text-anchor="start" x="1179.5" y="-107.5" font-family="Helvetica,sans-Serif" font-size="10.00">/goto&#45;checker/single_loop</text>
<text text-anchor="middle" x="1262" y="-96.5" font-family="Helvetica,sans-Serif" font-size="10.00">_incremental_symex_checker.cpp</text>
</a>
</g>
</g>
<!-- Node13&#45;&gt;Node16 -->
<g id="edge15" class="edge">
<title>Node13&#45;&gt;Node16</title>
<path fill="none" stroke="midnightblue" d="M1204.61,-171.36C1214.89,-161.54 1226.03,-150.89 1235.74,-141.61"/>
<polygon fill="midnightblue" stroke="midnightblue" points="1202.13,-168.9 1197.32,-178.34 1206.97,-173.96 1202.13,-168.9"/>
</g>
<!-- Node17 -->
<g id="node17" class="node">
<title>Node17</title>
<g id="a_node17"><a xlink:href="single__path__symex__checker_8cpp.html" target="_top" xlink:title="Goto Checker using Single Path Symbolic Execution.">
<polygon fill="none" stroke="black" points="1370.5,-89.5 1370.5,-141.5 1519.5,-141.5 1519.5,-89.5 1370.5,-89.5"/>
<text text-anchor="start" x="1378.5" y="-129.5" font-family="Helvetica,sans-Serif" font-size="10.00">/home/runner/work/diffblue</text>
<text text-anchor="start" x="1378.5" y="-118.5" font-family="Helvetica,sans-Serif" font-size="10.00">&#45;cbmc/diffblue&#45;cbmc/src</text>
<text text-anchor="start" x="1378.5" y="-107.5" font-family="Helvetica,sans-Serif" font-size="10.00">/goto&#45;checker/single_path</text>
<text text-anchor="middle" x="1445" y="-96.5" font-family="Helvetica,sans-Serif" font-size="10.00">_symex_checker.cpp</text>
</a>
</g>
</g>
<!-- Node13&#45;&gt;Node17 -->
<g id="edge16" class="edge">
<title>Node13&#45;&gt;Node17</title>
<path fill="none" stroke="midnightblue" d="M1259.82,-175.3C1295.55,-163.95 1336.28,-151.02 1370.43,-140.18"/>
<polygon fill="midnightblue" stroke="midnightblue" points="1258.36,-172.09 1249.88,-178.45 1260.47,-178.76 1258.36,-172.09"/>
</g>
<!-- Node20&#45;&gt;Node10 -->
<g id="edge20" class="edge">
<title>Node20&#45;&gt;Node10</title>
<path fill="none" stroke="midnightblue" d="M1883.25,-270.55C1821.95,-255.18 1750.92,-236.44 1746,-231 1722.48,-205 1722.15,-161.45 1724.36,-136.21"/>
<polygon fill="midnightblue" stroke="midnightblue" points="1882.45,-273.96 1893,-272.99 1884.15,-267.17 1882.45,-273.96"/>
</g>
<!-- Node21 -->
<g id="node21" class="node">
<title>Node21</title>
<g id="a_node21"><a xlink:href="bv__refinement__loop_8cpp.html" target="_top" xlink:title=" ">
<polygon fill="none" stroke="black" points="1754.5,-178.5 1754.5,-230.5 1939.5,-230.5 1939.5,-178.5 1754.5,-178.5"/>
<text text-anchor="start" x="1762.5" y="-218.5" font-family="Helvetica,sans-Serif" font-size="10.00">/home/runner/work/diffblue</text>
<text text-anchor="start" x="1762.5" y="-207.5" font-family="Helvetica,sans-Serif" font-size="10.00">&#45;cbmc/diffblue&#45;cbmc/src</text>
<text text-anchor="start" x="1762.5" y="-196.5" font-family="Helvetica,sans-Serif" font-size="10.00">/solvers/refinement/bv_refinement</text>
<text text-anchor="middle" x="1847" y="-185.5" font-family="Helvetica,sans-Serif" font-size="10.00">_loop.cpp</text>
</a>
</g>
</g>
<!-- Node20&#45;&gt;Node21 -->
<g id="edge21" class="edge">
<title>Node20&#45;&gt;Node21</title>
<path fill="none" stroke="midnightblue" d="M1936.31,-267.17C1919.63,-255.65 1899.96,-242.07 1883.33,-230.58"/>
<polygon fill="midnightblue" stroke="midnightblue" points="1934.51,-270.17 1944.72,-272.98 1938.48,-264.41 1934.51,-270.17"/>
</g>
<!-- Node22 -->
<g id="node22" class="node">
<title>Node22</title>
<g id="a_node22"><a xlink:href="refine__arithmetic_8cpp.html" target="_top" xlink:title=" ">
<polygon fill="none" stroke="black" points="1957.5,-178.5 1957.5,-230.5 2106.5,-230.5 2106.5,-178.5 1957.5,-178.5"/>
<text text-anchor="start" x="1965.5" y="-218.5" font-family="Helvetica,sans-Serif" font-size="10.00">/home/runner/work/diffblue</text>
<text text-anchor="start" x="1965.5" y="-207.5" font-family="Helvetica,sans-Serif" font-size="10.00">&#45;cbmc/diffblue&#45;cbmc/src</text>
<text text-anchor="start" x="1965.5" y="-196.5" font-family="Helvetica,sans-Serif" font-size="10.00">/solvers/refinement/refine</text>
<text text-anchor="middle" x="2032" y="-185.5" font-family="Helvetica,sans-Serif" font-size="10.00">_arithmetic.cpp</text>
</a>
</g>
</g>
<!-- Node20&#45;&gt;Node22 -->
<g id="edge22" class="edge">
<title>Node20&#45;&gt;Node22</title>
<path fill="none" stroke="midnightblue" d="M1992.02,-264.45C1999.36,-253.63 2007.7,-241.34 2014.85,-230.79"/>
<polygon fill="midnightblue" stroke="midnightblue" points="1989.1,-262.52 1986.39,-272.76 1994.9,-266.45 1989.1,-262.52"/>
</g>
<!-- Node23 -->
<g id="node23" class="node">
<title>Node23</title>
<g id="a_node23"><a xlink:href="refine__arrays_8cpp.html" target="_top" xlink:title=" ">
<polygon fill="none" stroke="black" points="2124.5,-178.5 2124.5,-230.5 2273.5,-230.5 2273.5,-178.5 2124.5,-178.5"/>
<text text-anchor="start" x="2132.5" y="-218.5" font-family="Helvetica,sans-Serif" font-size="10.00">/home/runner/work/diffblue</text>
<text text-anchor="start" x="2132.5" y="-207.5" font-family="Helvetica,sans-Serif" font-size="10.00">&#45;cbmc/diffblue&#45;cbmc/src</text>
<text text-anchor="start" x="2132.5" y="-196.5" font-family="Helvetica,sans-Serif" font-size="10.00">/solvers/refinement/refine</text>
<text text-anchor="middle" x="2199" y="-185.5" font-family="Helvetica,sans-Serif" font-size="10.00">_arrays.cpp</text>
</a>
</g>
</g>
<!-- Node20&#45;&gt;Node23 -->
<g id="edge23" class="edge">
<title>Node20&#45;&gt;Node23</title>
<path fill="none" stroke="midnightblue" d="M2033.12,-269.36C2064.17,-257.4 2102.09,-242.81 2133.84,-230.58"/>
<polygon fill="midnightblue" stroke="midnightblue" points="2031.79,-266.12 2023.72,-272.98 2034.31,-272.65 2031.79,-266.12"/>
</g>
<!-- Node24 -->
<g id="node24" class="node">
<title>Node24</title>
<g id="a_node24"><a xlink:href="string__refinement_8h.html" target="_top" xlink:title="String support via creating string constraints and progressively instantiating the universal constrai...">
<polygon fill="none" stroke="black" points="2291.5,-184 2291.5,-225 2480.5,-225 2480.5,-184 2291.5,-184"/>
<text text-anchor="start" x="2299.5" y="-213" font-family="Helvetica,sans-Serif" font-size="10.00">/home/runner/work/diffblue</text>
<text text-anchor="start" x="2299.5" y="-202" font-family="Helvetica,sans-Serif" font-size="10.00">&#45;cbmc/diffblue&#45;cbmc/src</text>
<text text-anchor="middle" x="2386" y="-191" font-family="Helvetica,sans-Serif" font-size="10.00">/solvers/strings/string_refinement.h</text>
</a>
</g>
</g>
<!-- Node20&#45;&gt;Node24 -->
<g id="edge24" class="edge">
<title>Node20&#45;&gt;Node24</title>
<path fill="none" stroke="midnightblue" d="M2061.73,-270.73C2067.57,-269.43 2073.36,-268.17 2079,-267 2169.13,-248.22 2192.93,-250.07 2283,-231 2291.65,-229.17 2300.68,-227.13 2309.64,-225.02"/>
<polygon fill="midnightblue" stroke="midnightblue" points="2060.87,-267.34 2051.89,-272.96 2062.42,-274.16 2060.87,-267.34"/>
</g>
<!-- Node24&#45;&gt;Node10 -->
<g id="edge30" class="edge">
<title>Node24&#45;&gt;Node10</title>
<path fill="none" stroke="midnightblue" d="M2302.99,-181.83C2296.25,-180.41 2289.53,-179.11 2283,-178 2114.88,-149.43 2070.31,-162.37 1901,-142 1872.66,-138.59 1841.81,-134.27 1814.06,-130.16"/>
<polygon fill="midnightblue" stroke="midnightblue" points="2302.34,-185.27 2312.85,-183.98 2303.83,-178.43 2302.34,-185.27"/>
</g>
<!-- Node25 -->
<g id="node25" class="node">
<title>Node25</title>
<g id="a_node25"><a xlink:href="cbmc__parse__options_8h.html" target="_top" xlink:title="CBMC Command Line Option Processing.">
<polygon fill="none" stroke="black" points="2307,-95 2307,-136 2465,-136 2465,-95 2307,-95"/>
<text text-anchor="start" x="2315" y="-124" font-family="Helvetica,sans-Serif" font-size="10.00">/home/runner/work/diffblue</text>
<text text-anchor="start" x="2315" y="-113" font-family="Helvetica,sans-Serif" font-size="10.00">&#45;cbmc/diffblue&#45;cbmc/src</text>
<text text-anchor="middle" x="2386" y="-102" font-family="Helvetica,sans-Serif" font-size="10.00">/cbmc/cbmc_parse_options.h</text>
</a>
</g>
</g>
<!-- Node24&#45;&gt;Node25 -->
<g id="edge25" class="edge">
<title>Node24&#45;&gt;Node25</title>
<path fill="none" stroke="midnightblue" d="M2386,-173.44C2386,-161.1 2386,-147.16 2386,-136.16"/>
<polygon fill="midnightblue" stroke="midnightblue" points="2382.5,-173.76 2386,-183.76 2389.5,-173.76 2382.5,-173.76"/>
</g>
<!-- Node30 -->
<g id="node30" class="node">
<title>Node30</title>
<g id="a_node30"><a xlink:href="string__refinement_8cpp.html" target="_top" xlink:title="String support via creating string constraints and progressively instantiating the universal constrai...">
<polygon fill="none" stroke="black" points="2483,-95 2483,-136 2683,-136 2683,-95 2483,-95"/>
<text text-anchor="start" x="2491" y="-124" font-family="Helvetica,sans-Serif" font-size="10.00">/home/runner/work/diffblue</text>
<text text-anchor="start" x="2491" y="-113" font-family="Helvetica,sans-Serif" font-size="10.00">&#45;cbmc/diffblue&#45;cbmc/src</text>
<text text-anchor="middle" x="2583" y="-102" font-family="Helvetica,sans-Serif" font-size="10.00">/solvers/strings/string_refinement.cpp</text>
</a>
</g>
</g>
<!-- Node24&#45;&gt;Node30 -->
<g id="edge31" class="edge">
<title>Node24&#45;&gt;Node30</title>
<path fill="none" stroke="midnightblue" d="M2439.58,-179.84C2470.63,-166.12 2509.26,-149.07 2538.6,-136.11"/>
<polygon fill="midnightblue" stroke="midnightblue" points="2437.94,-176.73 2430.21,-183.98 2440.77,-183.14 2437.94,-176.73"/>
</g>
<!-- Node31 -->
<g id="node31" class="node">
<title>Node31</title>
<g id="a_node31"><a xlink:href="jbmc__parse__options_8h.html" target="_top" xlink:title="JBMC Command Line Option Processing.">
<polygon fill="none" stroke="black" points="1910,-95 1910,-136 2080,-136 2080,-95 1910,-95"/>
<text text-anchor="start" x="1918" y="-124" font-family="Helvetica,sans-Serif" font-size="10.00">/home/runner/work/diffblue</text>
<text text-anchor="start" x="1918" y="-113" font-family="Helvetica,sans-Serif" font-size="10.00">&#45;cbmc/diffblue&#45;cbmc/jbmc</text>
<text text-anchor="middle" x="1995" y="-102" font-family="Helvetica,sans-Serif" font-size="10.00">/src/jbmc/jbmc_parse_options.h</text>
</a>
</g>
</g>
<!-- Node24&#45;&gt;Node31 -->
<g id="edge32" class="edge">
<title>Node24&#45;&gt;Node31</title>
<path fill="none" stroke="midnightblue" d="M2298.24,-181.57C2293.08,-180.35 2287.98,-179.15 2283,-178 2214.99,-162.33 2137.63,-145.88 2080.22,-133.94"/>
<polygon fill="midnightblue" stroke="midnightblue" points="2297.63,-185.02 2308.17,-183.95 2299.26,-178.22 2297.63,-185.02"/>
</g>
<!-- Node26 -->
<g id="node26" class="node">
<title>Node26</title>
<g id="a_node26"><a xlink:href="cbmc__languages_8cpp.html" target="_top" xlink:title="Language Registration.">
<polygon fill="none" stroke="black" points="2498.5,-6 2498.5,-47 2649.5,-47 2649.5,-6 2498.5,-6"/>
<text text-anchor="start" x="2506.5" y="-35" font-family="Helvetica,sans-Serif" font-size="10.00">/home/runner/work/diffblue</text>
<text text-anchor="start" x="2506.5" y="-24" font-family="Helvetica,sans-Serif" font-size="10.00">&#45;cbmc/diffblue&#45;cbmc/src</text>
<text text-anchor="middle" x="2574" y="-13" font-family="Helvetica,sans-Serif" font-size="10.00">/cbmc/cbmc_languages.cpp</text>
</a>
</g>
</g>
<!-- Node25&#45;&gt;Node26 -->
<g id="edge26" class="edge">
<title>Node25&#45;&gt;Node26</title>
<path fill="none" stroke="midnightblue" d="M2437.52,-90.66C2467.08,-76.98 2503.75,-60.01 2531.63,-47.11"/>
<polygon fill="midnightblue" stroke="midnightblue" points="2435.8,-87.6 2428.19,-94.98 2438.74,-93.95 2435.8,-87.6"/>
</g>
<!-- Node27 -->
<g id="node27" class="node">
<title>Node27</title>
<g id="a_node27"><a xlink:href="cbmc__main_8cpp.html" target="_top" xlink:title="CBMC Main Module.">
<polygon fill="none" stroke="black" points="2667.5,-6 2667.5,-47 2816.5,-47 2816.5,-6 2667.5,-6"/>
<text text-anchor="start" x="2675.5" y="-35" font-family="Helvetica,sans-Serif" font-size="10.00">/home/runner/work/diffblue</text>
<text text-anchor="start" x="2675.5" y="-24" font-family="Helvetica,sans-Serif" font-size="10.00">&#45;cbmc/diffblue&#45;cbmc/src</text>
<text text-anchor="middle" x="2742" y="-13" font-family="Helvetica,sans-Serif" font-size="10.00">/cbmc/cbmc_main.cpp</text>
</a>
</g>
</g>
<!-- Node25&#45;&gt;Node27 -->
<g id="edge27" class="edge">
<title>Node25&#45;&gt;Node27</title>
<path fill="none" stroke="midnightblue" d="M2460.89,-92.31C2465.32,-91.15 2469.71,-90.04 2474,-89 2555.42,-69.32 2577.74,-73.33 2659,-53 2666.17,-51.21 2673.63,-49.17 2681.01,-47.04"/>
<polygon fill="midnightblue" stroke="midnightblue" points="2459.94,-88.94 2451.18,-94.91 2461.75,-95.7 2459.94,-88.94"/>
</g>
<!-- Node28 -->
<g id="node28" class="node">
<title>Node28</title>
<g id="a_node28"><a xlink:href="cbmc__parse__options_8cpp.html" target="_top" xlink:title="CBMC Command Line Option Processing.">
<polygon fill="none" stroke="black" points="2104.5,-6 2104.5,-47 2273.5,-47 2273.5,-6 2104.5,-6"/>
<text text-anchor="start" x="2112.5" y="-35" font-family="Helvetica,sans-Serif" font-size="10.00">/home/runner/work/diffblue</text>
<text text-anchor="start" x="2112.5" y="-24" font-family="Helvetica,sans-Serif" font-size="10.00">&#45;cbmc/diffblue&#45;cbmc/src</text>
<text text-anchor="middle" x="2189" y="-13" font-family="Helvetica,sans-Serif" font-size="10.00">/cbmc/cbmc_parse_options.cpp</text>
</a>
</g>
</g>
<!-- Node25&#45;&gt;Node28 -->
<g id="edge28" class="edge">
<title>Node25&#45;&gt;Node28</title>
<path fill="none" stroke="midnightblue" d="M2332.42,-90.84C2301.37,-77.12 2262.74,-60.07 2233.4,-47.11"/>
<polygon fill="midnightblue" stroke="midnightblue" points="2331.23,-94.14 2341.79,-94.98 2334.06,-87.73 2331.23,-94.14"/>
</g>
<!-- Node29 -->
<g id="node29" class="node">
<title>Node29</title>
<g id="a_node29"><a xlink:href="goto__synthesizer__parse__options_8cpp.html" target="_top" xlink:title="Main Module.">
<polygon fill="none" stroke="black" points="2292,-0.5 2292,-52.5 2480,-52.5 2480,-0.5 2292,-0.5"/>
<text text-anchor="start" x="2300" y="-40.5" font-family="Helvetica,sans-Serif" font-size="10.00">/home/runner/work/diffblue</text>
<text text-anchor="start" x="2300" y="-29.5" font-family="Helvetica,sans-Serif" font-size="10.00">&#45;cbmc/diffblue&#45;cbmc/src</text>
<text text-anchor="start" x="2300" y="-18.5" font-family="Helvetica,sans-Serif" font-size="10.00">/goto&#45;synthesizer/goto_synthesizer</text>
<text text-anchor="middle" x="2386" y="-7.5" font-family="Helvetica,sans-Serif" font-size="10.00">_parse_options.cpp</text>
</a>
</g>
</g>
<!-- Node25&#45;&gt;Node29 -->
<g id="edge29" class="edge">
<title>Node25&#45;&gt;Node29</title>
<path fill="none" stroke="midnightblue" d="M2386,-84.51C2386,-74.17 2386,-62.71 2386,-52.79"/>
<polygon fill="midnightblue" stroke="midnightblue" points="2382.5,-84.76 2386,-94.76 2389.5,-84.76 2382.5,-84.76"/>
</g>
<!-- Node32 -->
<g id="node32" class="node">
<title>Node32</title>
<g id="a_node32"><a xlink:href="jbmc__main_8cpp.html" target="_top" xlink:title="CBMC Main Module.">
<polygon fill="none" stroke="black" points="1736.5,-6 1736.5,-47 1885.5,-47 1885.5,-6 1736.5,-6"/>
<text text-anchor="start" x="1744.5" y="-35" font-family="Helvetica,sans-Serif" font-size="10.00">/home/runner/work/diffblue</text>
<text text-anchor="start" x="1744.5" y="-24" font-family="Helvetica,sans-Serif" font-size="10.00">&#45;cbmc/diffblue&#45;cbmc/jbmc</text>
<text text-anchor="middle" x="1811" y="-13" font-family="Helvetica,sans-Serif" font-size="10.00">/src/jbmc/jbmc_main.cpp</text>
</a>
</g>
</g>
<!-- Node31&#45;&gt;Node32 -->
<g id="edge33" class="edge">
<title>Node31&#45;&gt;Node32</title>
<path fill="none" stroke="midnightblue" d="M1944.58,-90.66C1915.64,-76.98 1879.76,-60.01 1852.47,-47.11"/>
<polygon fill="midnightblue" stroke="midnightblue" points="1943.17,-93.87 1953.71,-94.98 1946.16,-87.54 1943.17,-93.87"/>
</g>
<!-- Node33 -->
<g id="node33" class="node">
<title>Node33</title>
<g id="a_node33"><a xlink:href="jbmc__parse__options_8cpp.html" target="_top" xlink:title="JBMC Command Line Option Processing.">
<polygon fill="none" stroke="black" points="1904,-6 1904,-47 2086,-47 2086,-6 1904,-6"/>
<text text-anchor="start" x="1912" y="-35" font-family="Helvetica,sans-Serif" font-size="10.00">/home/runner/work/diffblue</text>
<text text-anchor="start" x="1912" y="-24" font-family="Helvetica,sans-Serif" font-size="10.00">&#45;cbmc/diffblue&#45;cbmc/jbmc</text>
<text text-anchor="middle" x="1995" y="-13" font-family="Helvetica,sans-Serif" font-size="10.00">/src/jbmc/jbmc_parse_options.cpp</text>
</a>
</g>
</g>
<!-- Node31&#45;&gt;Node33 -->
<g id="edge34" class="edge">
<title>Node31&#45;&gt;Node33</title>
<path fill="none" stroke="midnightblue" d="M1995,-84.44C1995,-72.1 1995,-58.16 1995,-47.16"/>
<polygon fill="midnightblue" stroke="midnightblue" points="1991.5,-84.76 1995,-94.76 1998.5,-84.76 1991.5,-84.76"/>
</g>
</g>
</svg>
