<?xml version="1.0" encoding="UTF-8" standalone="no"?>
<!DOCTYPE svg PUBLIC "-//W3C//DTD SVG 1.1//EN"
 "http://www.w3.org/Graphics/SVG/1.1/DTD/svg11.dtd">
<!-- Generated by graphviz version 2.43.0 (0)
 -->
<!-- Title: /home/runner/work/diffblue&#45;cbmc/diffblue&#45;cbmc/src/solvers/refinement/bv_refinement.h Pages: 1 -->
<svg width="1134pt" height="306pt"
 viewBox="0.00 0.00 1133.52 306.00" xmlns="http://www.w3.org/2000/svg" xmlns:xlink="http://www.w3.org/1999/xlink">
<g id="graph0" class="graph" transform="scale(1 1) rotate(0) translate(4 302)">
<title>/home/runner/work/diffblue&#45;cbmc/diffblue&#45;cbmc/src/solvers/refinement/bv_refinement.h</title>
<!-- Node1 -->
<g id="node1" class="node">
<title>Node1</title>
<g id="a_node1"><a xlink:title="Abstraction Refinement Loop.">
<polygon fill="#bfbfbf" stroke="black" points="200.52,-256.5 200.52,-297.5 394.52,-297.5 394.52,-256.5 200.52,-256.5"/>
<text text-anchor="start" x="208.52" y="-285.5" font-family="Helvetica,sans-Serif" font-size="10.00">/home/runner/work/diffblue</text>
<text text-anchor="start" x="208.52" y="-274.5" font-family="Helvetica,sans-Serif" font-size="10.00">&#45;cbmc/diffblue&#45;cbmc/src</text>
<text text-anchor="middle" x="297.52" y="-263.5" font-family="Helvetica,sans-Serif" font-size="10.00">/solvers/refinement/bv_refinement.h</text>
</a>
</g>
</g>
<!-- Node2 -->
<g id="node2" class="node">
<title>Node2</title>
<g id="a_node2"><a xlink:href="solver__factory_8cpp.html" target="_top" xlink:title="Solver Factory.">
<polygon fill="none" stroke="black" points="44.52,-89.5 44.52,-130.5 218.52,-130.5 218.52,-89.5 44.52,-89.5"/>
<text text-anchor="start" x="52.52" y="-118.5" font-family="Helvetica,sans-Serif" font-size="10.00">/home/runner/work/diffblue</text>
<text text-anchor="start" x="52.52" y="-107.5" font-family="Helvetica,sans-Serif" font-size="10.00">&#45;cbmc/diffblue&#45;cbmc/src</text>
<text text-anchor="middle" x="131.52" y="-96.5" font-family="Helvetica,sans-Serif" font-size="10.00">/goto&#45;checker/solver_factory.cpp</text>
</a>
</g>
</g>
<!-- Node1&#45;&gt;Node2 -->
<g id="edge1" class="edge">
<title>Node1&#45;&gt;Node2</title>
<path fill="none" stroke="midnightblue" d="M190.48,-269.06C118.74,-261.93 33.37,-247.74 10.52,-220 -4.46,-201.82 -2.17,-186.85 10.52,-167 21.05,-150.52 37.81,-138.82 55.54,-130.53"/>
<polygon fill="midnightblue" stroke="midnightblue" points="190.21,-272.56 200.5,-270.03 190.88,-265.59 190.21,-272.56"/>
</g>
<!-- Node3 -->
<g id="node3" class="node">
<title>Node3</title>
<g id="a_node3"><a xlink:href="bv__refinement__loop_8cpp.html" target="_top" xlink:title=" ">
<polygon fill="none" stroke="black" points="20.02,-167.5 20.02,-219.5 205.02,-219.5 205.02,-167.5 20.02,-167.5"/>
<text text-anchor="start" x="28.02" y="-207.5" font-family="Helvetica,sans-Serif" font-size="10.00">/home/runner/work/diffblue</text>
<text text-anchor="start" x="28.02" y="-196.5" font-family="Helvetica,sans-Serif" font-size="10.00">&#45;cbmc/diffblue&#45;cbmc/src</text>
<text text-anchor="start" x="28.02" y="-185.5" font-family="Helvetica,sans-Serif" font-size="10.00">/solvers/refinement/bv_refinement</text>
<text text-anchor="middle" x="112.52" y="-174.5" font-family="Helvetica,sans-Serif" font-size="10.00">_loop.cpp</text>
</a>
</g>
</g>
<!-- Node1&#45;&gt;Node3 -->
<g id="edge2" class="edge">
<title>Node1&#45;&gt;Node3</title>
<path fill="none" stroke="midnightblue" d="M243.81,-252.34C220.48,-242.06 193.12,-230.01 169.44,-219.58"/>
<polygon fill="midnightblue" stroke="midnightblue" points="242.64,-255.65 253.2,-256.48 245.46,-249.24 242.64,-255.65"/>
</g>
<!-- Node4 -->
<g id="node4" class="node">
<title>Node4</title>
<g id="a_node4"><a xlink:href="refine__arithmetic_8cpp.html" target="_top" xlink:title=" ">
<polygon fill="none" stroke="black" points="223.02,-167.5 223.02,-219.5 372.02,-219.5 372.02,-167.5 223.02,-167.5"/>
<text text-anchor="start" x="231.02" y="-207.5" font-family="Helvetica,sans-Serif" font-size="10.00">/home/runner/work/diffblue</text>
<text text-anchor="start" x="231.02" y="-196.5" font-family="Helvetica,sans-Serif" font-size="10.00">&#45;cbmc/diffblue&#45;cbmc/src</text>
<text text-anchor="start" x="231.02" y="-185.5" font-family="Helvetica,sans-Serif" font-size="10.00">/solvers/refinement/refine</text>
<text text-anchor="middle" x="297.52" y="-174.5" font-family="Helvetica,sans-Serif" font-size="10.00">_arithmetic.cpp</text>
</a>
</g>
</g>
<!-- Node1&#45;&gt;Node4 -->
<g id="edge3" class="edge">
<title>Node1&#45;&gt;Node4</title>
<path fill="none" stroke="midnightblue" d="M297.52,-246.12C297.52,-237.41 297.52,-227.99 297.52,-219.61"/>
<polygon fill="midnightblue" stroke="midnightblue" points="294.02,-246.27 297.52,-256.27 301.02,-246.27 294.02,-246.27"/>
</g>
<!-- Node5 -->
<g id="node5" class="node">
<title>Node5</title>
<g id="a_node5"><a xlink:href="refine__arrays_8cpp.html" target="_top" xlink:title=" ">
<polygon fill="none" stroke="black" points="390.02,-167.5 390.02,-219.5 539.02,-219.5 539.02,-167.5 390.02,-167.5"/>
<text text-anchor="start" x="398.02" y="-207.5" font-family="Helvetica,sans-Serif" font-size="10.00">/home/runner/work/diffblue</text>
<text text-anchor="start" x="398.02" y="-196.5" font-family="Helvetica,sans-Serif" font-size="10.00">&#45;cbmc/diffblue&#45;cbmc/src</text>
<text text-anchor="start" x="398.02" y="-185.5" font-family="Helvetica,sans-Serif" font-size="10.00">/solvers/refinement/refine</text>
<text text-anchor="middle" x="464.52" y="-174.5" font-family="Helvetica,sans-Serif" font-size="10.00">_arrays.cpp</text>
</a>
</g>
</g>
<!-- Node1&#45;&gt;Node5 -->
<g id="edge4" class="edge">
<title>Node1&#45;&gt;Node5</title>
<path fill="none" stroke="midnightblue" d="M346.56,-252.07C367.5,-241.85 391.94,-229.92 413.13,-219.58"/>
<polygon fill="midnightblue" stroke="midnightblue" points="344.97,-248.95 337.52,-256.48 348.04,-255.24 344.97,-248.95"/>
</g>
<!-- Node6 -->
<g id="node6" class="node">
<title>Node6</title>
<g id="a_node6"><a xlink:href="string__refinement_8h.html" target="_top" xlink:title="String support via creating string constraints and progressively instantiating the universal constrai...">
<polygon fill="none" stroke="black" points="557.02,-173 557.02,-214 746.02,-214 746.02,-173 557.02,-173"/>
<text text-anchor="start" x="565.02" y="-202" font-family="Helvetica,sans-Serif" font-size="10.00">/home/runner/work/diffblue</text>
<text text-anchor="start" x="565.02" y="-191" font-family="Helvetica,sans-Serif" font-size="10.00">&#45;cbmc/diffblue&#45;cbmc/src</text>
<text text-anchor="middle" x="651.52" y="-180" font-family="Helvetica,sans-Serif" font-size="10.00">/solvers/strings/string_refinement.h</text>
</a>
</g>
</g>
<!-- Node1&#45;&gt;Node6 -->
<g id="edge5" class="edge">
<title>Node1&#45;&gt;Node6</title>
<path fill="none" stroke="midnightblue" d="M396.66,-254.27C442.6,-244.08 497.89,-231.64 547.52,-220 555.66,-218.09 564.16,-216.06 572.63,-214.02"/>
<polygon fill="midnightblue" stroke="midnightblue" points="395.71,-250.9 386.71,-256.48 397.23,-257.73 395.71,-250.9"/>
</g>
<!-- Node6&#45;&gt;Node2 -->
<g id="edge11" class="edge">
<title>Node6&#45;&gt;Node2</title>
<path fill="none" stroke="midnightblue" d="M566.06,-170.78C559.8,-169.42 553.57,-168.15 547.52,-167 434.74,-145.65 303.27,-129.37 218.8,-120.01"/>
<polygon fill="midnightblue" stroke="midnightblue" points="565.37,-174.21 575.89,-172.96 566.89,-167.38 565.37,-174.21"/>
</g>
<!-- Node7 -->
<g id="node7" class="node">
<title>Node7</title>
<g id="a_node7"><a xlink:href="cbmc__parse__options_8h.html" target="_top" xlink:title="CBMC Command Line Option Processing.">
<polygon fill="none" stroke="black" points="375.52,-89.5 375.52,-130.5 533.52,-130.5 533.52,-89.5 375.52,-89.5"/>
<text text-anchor="start" x="383.52" y="-118.5" font-family="Helvetica,sans-Serif" font-size="10.00">/home/runner/work/diffblue</text>
<text text-anchor="start" x="383.52" y="-107.5" font-family="Helvetica,sans-Serif" font-size="10.00">&#45;cbmc/diffblue&#45;cbmc/src</text>
<text text-anchor="middle" x="454.52" y="-96.5" font-family="Helvetica,sans-Serif" font-size="10.00">/cbmc/cbmc_parse_options.h</text>
</a>
</g>
</g>
<!-- Node6&#45;&gt;Node7 -->
<g id="edge6" class="edge">
<title>Node6&#45;&gt;Node7</title>
<path fill="none" stroke="midnightblue" d="M594.97,-169.11C565.43,-156.89 529.69,-142.1 501.66,-130.5"/>
<polygon fill="midnightblue" stroke="midnightblue" points="593.75,-172.39 604.33,-172.98 596.43,-165.92 593.75,-172.39"/>
</g>
<!-- Node12 -->
<g id="node12" class="node">
<title>Node12</title>
<g id="a_node12"><a xlink:href="string__refinement_8cpp.html" target="_top" xlink:title="String support via creating string constraints and progressively instantiating the universal constrai...">
<polygon fill="none" stroke="black" points="551.52,-89.5 551.52,-130.5 751.52,-130.5 751.52,-89.5 551.52,-89.5"/>
<text text-anchor="start" x="559.52" y="-118.5" font-family="Helvetica,sans-Serif" font-size="10.00">/home/runner/work/diffblue</text>
<text text-anchor="start" x="559.52" y="-107.5" font-family="Helvetica,sans-Serif" font-size="10.00">&#45;cbmc/diffblue&#45;cbmc/src</text>
<text text-anchor="middle" x="651.52" y="-96.5" font-family="Helvetica,sans-Serif" font-size="10.00">/solvers/strings/string_refinement.cpp</text>
</a>
</g>
</g>
<!-- Node6&#45;&gt;Node12 -->
<g id="edge12" class="edge">
<title>Node6&#45;&gt;Node12</title>
<path fill="none" stroke="midnightblue" d="M651.52,-162.56C651.52,-151.88 651.52,-140.13 651.52,-130.55"/>
<polygon fill="midnightblue" stroke="midnightblue" points="648.02,-162.77 651.52,-172.77 655.02,-162.77 648.02,-162.77"/>
</g>
<!-- Node13 -->
<g id="node13" class="node">
<title>Node13</title>
<g id="a_node13"><a xlink:href="jbmc__parse__options_8h.html" target="_top" xlink:title="JBMC Command Line Option Processing.">
<polygon fill="none" stroke="black" points="769.52,-89.5 769.52,-130.5 939.52,-130.5 939.52,-89.5 769.52,-89.5"/>
<text text-anchor="start" x="777.52" y="-118.5" font-family="Helvetica,sans-Serif" font-size="10.00">/home/runner/work/diffblue</text>
<text text-anchor="start" x="777.52" y="-107.5" font-family="Helvetica,sans-Serif" font-size="10.00">&#45;cbmc/diffblue&#45;cbmc/jbmc</text>
<text text-anchor="middle" x="854.52" y="-96.5" font-family="Helvetica,sans-Serif" font-size="10.00">/src/jbmc/jbmc_parse_options.h</text>
</a>
</g>
</g>
<!-- Node6&#45;&gt;Node13 -->
<g id="edge13" class="edge">
<title>Node6&#45;&gt;Node13</title>
<path fill="none" stroke="midnightblue" d="M709.78,-169.11C740.23,-156.89 777.05,-142.1 805.94,-130.5"/>
<polygon fill="midnightblue" stroke="midnightblue" points="708.12,-166 700.14,-172.98 710.72,-172.5 708.12,-166"/>
</g>
<!-- Node8 -->
<g id="node8" class="node">
<title>Node8</title>
<g id="a_node8"><a xlink:href="cbmc__languages_8cpp.html" target="_top" xlink:title="Language Registration.">
<polygon fill="none" stroke="black" points="38.02,-6 38.02,-47 189.02,-47 189.02,-6 38.02,-6"/>
<text text-anchor="start" x="46.02" y="-35" font-family="Helvetica,sans-Serif" font-size="10.00">/home/runner/work/diffblue</text>
<text text-anchor="start" x="46.02" y="-24" font-family="Helvetica,sans-Serif" font-size="10.00">&#45;cbmc/diffblue&#45;cbmc/src</text>
<text text-anchor="middle" x="113.52" y="-13" font-family="Helvetica,sans-Serif" font-size="10.00">/cbmc/cbmc_languages.cpp</text>
</a>
</g>
</g>
<!-- Node7&#45;&gt;Node8 -->
<g id="edge7" class="edge">
<title>Node7&#45;&gt;Node8</title>
<path fill="none" stroke="midnightblue" d="M365.33,-91.4C315.69,-81.15 252.92,-67.42 197.52,-53 190.58,-51.2 183.37,-49.19 176.2,-47.13"/>
<polygon fill="midnightblue" stroke="midnightblue" points="364.89,-94.88 375.39,-93.47 366.3,-88.03 364.89,-94.88"/>
</g>
<!-- Node9 -->
<g id="node9" class="node">
<title>Node9</title>
<g id="a_node9"><a xlink:href="cbmc__main_8cpp.html" target="_top" xlink:title="CBMC Main Module.">
<polygon fill="none" stroke="black" points="207.02,-6 207.02,-47 356.02,-47 356.02,-6 207.02,-6"/>
<text text-anchor="start" x="215.02" y="-35" font-family="Helvetica,sans-Serif" font-size="10.00">/home/runner/work/diffblue</text>
<text text-anchor="start" x="215.02" y="-24" font-family="Helvetica,sans-Serif" font-size="10.00">&#45;cbmc/diffblue&#45;cbmc/src</text>
<text text-anchor="middle" x="281.52" y="-13" font-family="Helvetica,sans-Serif" font-size="10.00">/cbmc/cbmc_main.cpp</text>
</a>
</g>
</g>
<!-- Node7&#45;&gt;Node9 -->
<g id="edge8" class="edge">
<title>Node7&#45;&gt;Node9</title>
<path fill="none" stroke="midnightblue" d="M403.85,-85.13C378.1,-73 347.21,-58.45 322.92,-47"/>
<polygon fill="midnightblue" stroke="midnightblue" points="402.54,-88.38 413.08,-89.48 405.52,-82.05 402.54,-88.38"/>
</g>
<!-- Node10 -->
<g id="node10" class="node">
<title>Node10</title>
<g id="a_node10"><a xlink:href="cbmc__parse__options_8cpp.html" target="_top" xlink:title="CBMC Command Line Option Processing.">
<polygon fill="none" stroke="black" points="374.02,-6 374.02,-47 543.02,-47 543.02,-6 374.02,-6"/>
<text text-anchor="start" x="382.02" y="-35" font-family="Helvetica,sans-Serif" font-size="10.00">/home/runner/work/diffblue</text>
<text text-anchor="start" x="382.02" y="-24" font-family="Helvetica,sans-Serif" font-size="10.00">&#45;cbmc/diffblue&#45;cbmc/src</text>
<text text-anchor="middle" x="458.52" y="-13" font-family="Helvetica,sans-Serif" font-size="10.00">/cbmc/cbmc_parse_options.cpp</text>
</a>
</g>
</g>
<!-- Node7&#45;&gt;Node10 -->
<g id="edge9" class="edge">
<title>Node7&#45;&gt;Node10</title>
<path fill="none" stroke="midnightblue" d="M455.99,-79.06C456.51,-68.38 457.09,-56.63 457.56,-47.05"/>
<polygon fill="midnightblue" stroke="midnightblue" points="452.48,-79.11 455.48,-89.27 459.47,-79.45 452.48,-79.11"/>
</g>
<!-- Node11 -->
<g id="node11" class="node">
<title>Node11</title>
<g id="a_node11"><a xlink:href="goto__synthesizer__parse__options_8cpp.html" target="_top" xlink:title="Main Module.">
<polygon fill="none" stroke="black" points="561.52,-0.5 561.52,-52.5 749.52,-52.5 749.52,-0.5 561.52,-0.5"/>
<text text-anchor="start" x="569.52" y="-40.5" font-family="Helvetica,sans-Serif" font-size="10.00">/home/runner/work/diffblue</text>
<text text-anchor="start" x="569.52" y="-29.5" font-family="Helvetica,sans-Serif" font-size="10.00">&#45;cbmc/diffblue&#45;cbmc/src</text>
<text text-anchor="start" x="569.52" y="-18.5" font-family="Helvetica,sans-Serif" font-size="10.00">/goto&#45;synthesizer/goto_synthesizer</text>
<text text-anchor="middle" x="655.52" y="-7.5" font-family="Helvetica,sans-Serif" font-size="10.00">_parse_options.cpp</text>
</a>
</g>
</g>
<!-- Node7&#45;&gt;Node11 -->
<g id="edge10" class="edge">
<title>Node7&#45;&gt;Node11</title>
<path fill="none" stroke="midnightblue" d="M512.19,-85.61C537.69,-75.28 567.71,-63.1 593.67,-52.58"/>
<polygon fill="midnightblue" stroke="midnightblue" points="510.61,-82.48 502.66,-89.48 513.24,-88.96 510.61,-82.48"/>
</g>
<!-- Node14 -->
<g id="node14" class="node">
<title>Node14</title>
<g id="a_node14"><a xlink:href="jbmc__main_8cpp.html" target="_top" xlink:title="CBMC Main Module.">
<polygon fill="none" stroke="black" points="776.02,-6 776.02,-47 925.02,-47 925.02,-6 776.02,-6"/>
<text text-anchor="start" x="784.02" y="-35" font-family="Helvetica,sans-Serif" font-size="10.00">/home/runner/work/diffblue</text>
<text text-anchor="start" x="784.02" y="-24" font-family="Helvetica,sans-Serif" font-size="10.00">&#45;cbmc/diffblue&#45;cbmc/jbmc</text>
<text text-anchor="middle" x="850.52" y="-13" font-family="Helvetica,sans-Serif" font-size="10.00">/src/jbmc/jbmc_main.cpp</text>
</a>
</g>
</g>
<!-- Node13&#45;&gt;Node14 -->
<g id="edge14" class="edge">
<title>Node13&#45;&gt;Node14</title>
<path fill="none" stroke="midnightblue" d="M853.05,-79.06C852.52,-68.38 851.95,-56.63 851.48,-47.05"/>
<polygon fill="midnightblue" stroke="midnightblue" points="849.56,-79.45 853.55,-89.27 856.55,-79.11 849.56,-79.45"/>
</g>
<!-- Node15 -->
<g id="node15" class="node">
<title>Node15</title>
<g id="a_node15"><a xlink:href="jbmc__parse__options_8cpp.html" target="_top" xlink:title="JBMC Command Line Option Processing.">
<polygon fill="none" stroke="black" points="943.52,-6 943.52,-47 1125.52,-47 1125.52,-6 943.52,-6"/>
<text text-anchor="start" x="951.52" y="-35" font-family="Helvetica,sans-Serif" font-size="10.00">/home/runner/work/diffblue</text>
<text text-anchor="start" x="951.52" y="-24" font-family="Helvetica,sans-Serif" font-size="10.00">&#45;cbmc/diffblue&#45;cbmc/jbmc</text>
<text text-anchor="middle" x="1034.52" y="-13" font-family="Helvetica,sans-Serif" font-size="10.00">/src/jbmc/jbmc_parse_options.cpp</text>
</a>
</g>
</g>
<!-- Node13&#45;&gt;Node15 -->
<g id="edge15" class="edge">
<title>Node13&#45;&gt;Node15</title>
<path fill="none" stroke="midnightblue" d="M906.88,-85.29C933.74,-73.13 966.05,-58.5 991.44,-47"/>
<polygon fill="midnightblue" stroke="midnightblue" points="905.3,-82.17 897.63,-89.48 908.18,-88.54 905.3,-82.17"/>
</g>
</g>
</svg>
