<?xml version="1.0" encoding="UTF-8" standalone="no"?>
<!DOCTYPE svg PUBLIC "-//W3C//DTD SVG 1.1//EN"
 "http://www.w3.org/Graphics/SVG/1.1/DTD/svg11.dtd">
<!-- Generated by graphviz version 2.43.0 (0)
 -->
<!-- Title: /home/runner/work/diffblue&#45;cbmc/diffblue&#45;cbmc/jbmc/src/java_bytecode/bytecode_info.h Pages: 1 -->
<svg width="2702pt" height="584pt"
 viewBox="0.00 0.00 2701.52 584.00" xmlns="http://www.w3.org/2000/svg" xmlns:xlink="http://www.w3.org/1999/xlink">
<g id="graph0" class="graph" transform="scale(1 1) rotate(0) translate(4 580)">
<title>/home/runner/work/diffblue&#45;cbmc/diffblue&#45;cbmc/jbmc/src/java_bytecode/bytecode_info.h</title>
<!-- Node1 -->
<g id="node1" class="node">
<title>Node1</title>
<g id="a_node1"><a xlink:title=" ">
<polygon fill="#bfbfbf" stroke="black" points="263.5,-534.5 263.5,-575.5 452.5,-575.5 452.5,-534.5 263.5,-534.5"/>
<text text-anchor="start" x="271.5" y="-563.5" font-family="Helvetica,sans-Serif" font-size="10.00">/home/runner/work/diffblue</text>
<text text-anchor="start" x="271.5" y="-552.5" font-family="Helvetica,sans-Serif" font-size="10.00">&#45;cbmc/diffblue&#45;cbmc/jbmc</text>
<text text-anchor="middle" x="358" y="-541.5" font-family="Helvetica,sans-Serif" font-size="10.00">/src/java_bytecode/bytecode_info.h</text>
</a>
</g>
</g>
<!-- Node2 -->
<g id="node2" class="node">
<title>Node2</title>
<g id="a_node2"><a xlink:href="bytecode__info_8cpp.html" target="_top" xlink:title=" ">
<polygon fill="none" stroke="black" points="0,-445.5 0,-497.5 156,-497.5 156,-445.5 0,-445.5"/>
<text text-anchor="start" x="8" y="-485.5" font-family="Helvetica,sans-Serif" font-size="10.00">/home/runner/work/diffblue</text>
<text text-anchor="start" x="8" y="-474.5" font-family="Helvetica,sans-Serif" font-size="10.00">&#45;cbmc/diffblue&#45;cbmc/jbmc</text>
<text text-anchor="start" x="8" y="-463.5" font-family="Helvetica,sans-Serif" font-size="10.00">/src/java_bytecode/bytecode</text>
<text text-anchor="middle" x="78" y="-452.5" font-family="Helvetica,sans-Serif" font-size="10.00">_info.cpp</text>
</a>
</g>
</g>
<!-- Node1&#45;&gt;Node2 -->
<g id="edge1" class="edge">
<title>Node1&#45;&gt;Node2</title>
<path fill="none" stroke="midnightblue" d="M280.79,-531.65C245.48,-521.42 203.12,-509.12 165,-498 162.13,-497.16 159.21,-496.31 156.25,-495.45"/>
<polygon fill="midnightblue" stroke="midnightblue" points="279.97,-535.06 290.55,-534.48 281.92,-528.33 279.97,-535.06"/>
</g>
<!-- Node3 -->
<g id="node3" class="node">
<title>Node3</title>
<g id="a_node3"><a xlink:href="java__bytecode__convert__method_8cpp.html" target="_top" xlink:title="JAVA Bytecode Language Conversion.">
<polygon fill="none" stroke="black" points="305,-0.5 305,-52.5 487,-52.5 487,-0.5 305,-0.5"/>
<text text-anchor="start" x="313" y="-40.5" font-family="Helvetica,sans-Serif" font-size="10.00">/home/runner/work/diffblue</text>
<text text-anchor="start" x="313" y="-29.5" font-family="Helvetica,sans-Serif" font-size="10.00">&#45;cbmc/diffblue&#45;cbmc/jbmc</text>
<text text-anchor="start" x="313" y="-18.5" font-family="Helvetica,sans-Serif" font-size="10.00">/src/java_bytecode/java_bytecode</text>
<text text-anchor="middle" x="396" y="-7.5" font-family="Helvetica,sans-Serif" font-size="10.00">_convert_method.cpp</text>
</a>
</g>
</g>
<!-- Node1&#45;&gt;Node3 -->
<g id="edge2" class="edge">
<title>Node1&#45;&gt;Node3</title>
<path fill="none" stroke="midnightblue" d="M358,-524.11C358,-490.07 358,-432.78 358,-383.5 358,-383.5 358,-383.5 358,-203.5 358,-148.8 375.76,-86.64 386.99,-52.78"/>
<polygon fill="midnightblue" stroke="midnightblue" points="354.5,-524.31 358,-534.31 361.5,-524.31 354.5,-524.31"/>
</g>
<!-- Node4 -->
<g id="node4" class="node">
<title>Node4</title>
<g id="a_node4"><a xlink:href="java__bytecode__parse__tree_8h.html" target="_top" xlink:title=" ">
<polygon fill="none" stroke="black" points="746,-445.5 746,-497.5 928,-497.5 928,-445.5 746,-445.5"/>
<text text-anchor="start" x="754" y="-485.5" font-family="Helvetica,sans-Serif" font-size="10.00">/home/runner/work/diffblue</text>
<text text-anchor="start" x="754" y="-474.5" font-family="Helvetica,sans-Serif" font-size="10.00">&#45;cbmc/diffblue&#45;cbmc/jbmc</text>
<text text-anchor="start" x="754" y="-463.5" font-family="Helvetica,sans-Serif" font-size="10.00">/src/java_bytecode/java_bytecode</text>
<text text-anchor="middle" x="837" y="-452.5" font-family="Helvetica,sans-Serif" font-size="10.00">_parse_tree.h</text>
</a>
</g>
</g>
<!-- Node1&#45;&gt;Node4 -->
<g id="edge3" class="edge">
<title>Node1&#45;&gt;Node4</title>
<path fill="none" stroke="midnightblue" d="M462.52,-536.22C547.1,-521.83 665.02,-501.76 745.81,-488.02"/>
<polygon fill="midnightblue" stroke="midnightblue" points="461.91,-532.77 452.63,-537.9 463.08,-539.67 461.91,-532.77"/>
</g>
<!-- Node27 -->
<g id="node27" class="node">
<title>Node27</title>
<g id="a_node27"><a xlink:href="java__bytecode__parser_8cpp.html" target="_top" xlink:title=" ">
<polygon fill="none" stroke="black" points="1612,-356.5 1612,-408.5 1794,-408.5 1794,-356.5 1612,-356.5"/>
<text text-anchor="start" x="1620" y="-396.5" font-family="Helvetica,sans-Serif" font-size="10.00">/home/runner/work/diffblue</text>
<text text-anchor="start" x="1620" y="-385.5" font-family="Helvetica,sans-Serif" font-size="10.00">&#45;cbmc/diffblue&#45;cbmc/jbmc</text>
<text text-anchor="start" x="1620" y="-374.5" font-family="Helvetica,sans-Serif" font-size="10.00">/src/java_bytecode/java_bytecode</text>
<text text-anchor="middle" x="1703" y="-363.5" font-family="Helvetica,sans-Serif" font-size="10.00">_parser.cpp</text>
</a>
</g>
</g>
<!-- Node1&#45;&gt;Node27 -->
<g id="edge53" class="edge">
<title>Node1&#45;&gt;Node27</title>
<path fill="none" stroke="midnightblue" d="M462.87,-547.15C678.13,-531.9 1184.76,-489.98 1603,-409 1605.9,-408.44 1608.85,-407.84 1611.81,-407.22"/>
<polygon fill="midnightblue" stroke="midnightblue" points="462.57,-543.66 452.84,-547.85 463.07,-550.64 462.57,-543.66"/>
</g>
<!-- Node34 -->
<g id="node34" class="node">
<title>Node34</title>
<g id="a_node34"><a xlink:href="pattern_8h.html" target="_top" xlink:title="Pattern matching for bytecode instructions.">
<polygon fill="none" stroke="black" points="174.5,-451 174.5,-492 329.5,-492 329.5,-451 174.5,-451"/>
<text text-anchor="start" x="182.5" y="-480" font-family="Helvetica,sans-Serif" font-size="10.00">/home/runner/work/diffblue</text>
<text text-anchor="start" x="182.5" y="-469" font-family="Helvetica,sans-Serif" font-size="10.00">&#45;cbmc/diffblue&#45;cbmc/jbmc</text>
<text text-anchor="middle" x="252" y="-458" font-family="Helvetica,sans-Serif" font-size="10.00">/src/java_bytecode/pattern.h</text>
</a>
</g>
</g>
<!-- Node1&#45;&gt;Node34 -->
<g id="edge54" class="edge">
<title>Node1&#45;&gt;Node34</title>
<path fill="none" stroke="midnightblue" d="M324.47,-528.22C309.29,-516.55 291.63,-502.97 277.55,-492.14"/>
<polygon fill="midnightblue" stroke="midnightblue" points="322.55,-531.16 332.61,-534.48 326.82,-525.61 322.55,-531.16"/>
</g>
<!-- Node5 -->
<g id="node5" class="node">
<title>Node5</title>
<g id="a_node5"><a xlink:href="ci__lazy__methods_8h.html" target="_top" xlink:title="Collect methods needed to be loaded using the lazy method.">
<polygon fill="none" stroke="black" points="1264.5,-356.5 1264.5,-408.5 1413.5,-408.5 1413.5,-356.5 1264.5,-356.5"/>
<text text-anchor="start" x="1272.5" y="-396.5" font-family="Helvetica,sans-Serif" font-size="10.00">/home/runner/work/diffblue</text>
<text text-anchor="start" x="1272.5" y="-385.5" font-family="Helvetica,sans-Serif" font-size="10.00">&#45;cbmc/diffblue&#45;cbmc/jbmc</text>
<text text-anchor="start" x="1272.5" y="-374.5" font-family="Helvetica,sans-Serif" font-size="10.00">/src/java_bytecode/ci_lazy</text>
<text text-anchor="middle" x="1339" y="-363.5" font-family="Helvetica,sans-Serif" font-size="10.00">_methods.h</text>
</a>
</g>
</g>
<!-- Node4&#45;&gt;Node5 -->
<g id="edge4" class="edge">
<title>Node4&#45;&gt;Node5</title>
<path fill="none" stroke="midnightblue" d="M938.41,-459.86C1023.54,-449.9 1148.05,-432.96 1255,-409 1258.12,-408.3 1261.3,-407.54 1264.5,-406.74"/>
<polygon fill="midnightblue" stroke="midnightblue" points="937.75,-456.41 928.22,-461.04 938.56,-463.36 937.75,-456.41"/>
</g>
<!-- Node21 -->
<g id="node21" class="node">
<title>Node21</title>
<g id="a_node21"><a xlink:href="java__bytecode__convert__class_8h.html" target="_top" xlink:title="JAVA Bytecode Language Conversion.">
<polygon fill="none" stroke="black" points="884,-267.5 884,-319.5 1066,-319.5 1066,-267.5 884,-267.5"/>
<text text-anchor="start" x="892" y="-307.5" font-family="Helvetica,sans-Serif" font-size="10.00">/home/runner/work/diffblue</text>
<text text-anchor="start" x="892" y="-296.5" font-family="Helvetica,sans-Serif" font-size="10.00">&#45;cbmc/diffblue&#45;cbmc/jbmc</text>
<text text-anchor="start" x="892" y="-285.5" font-family="Helvetica,sans-Serif" font-size="10.00">/src/java_bytecode/java_bytecode</text>
<text text-anchor="middle" x="975" y="-274.5" font-family="Helvetica,sans-Serif" font-size="10.00">_convert_class.h</text>
</a>
</g>
</g>
<!-- Node4&#45;&gt;Node21 -->
<g id="edge24" class="edge">
<title>Node4&#45;&gt;Node21</title>
<path fill="none" stroke="midnightblue" d="M842.12,-435.44C847.13,-411.07 856.79,-378.98 875,-356 886.71,-341.22 903.01,-329.09 919.06,-319.63"/>
<polygon fill="midnightblue" stroke="midnightblue" points="838.66,-434.88 840.24,-445.35 845.54,-436.18 838.66,-434.88"/>
</g>
<!-- Node22 -->
<g id="node22" class="node">
<title>Node22</title>
<g id="a_node22"><a xlink:href="java__bytecode__convert__method__class_8h.html" target="_top" xlink:title="JAVA Bytecode Language Conversion.">
<polygon fill="none" stroke="black" points="570,-178.5 570,-230.5 752,-230.5 752,-178.5 570,-178.5"/>
<text text-anchor="start" x="578" y="-218.5" font-family="Helvetica,sans-Serif" font-size="10.00">/home/runner/work/diffblue</text>
<text text-anchor="start" x="578" y="-207.5" font-family="Helvetica,sans-Serif" font-size="10.00">&#45;cbmc/diffblue&#45;cbmc/jbmc</text>
<text text-anchor="start" x="578" y="-196.5" font-family="Helvetica,sans-Serif" font-size="10.00">/src/java_bytecode/java_bytecode</text>
<text text-anchor="middle" x="661" y="-185.5" font-family="Helvetica,sans-Serif" font-size="10.00">_convert_method_class.h</text>
</a>
</g>
</g>
<!-- Node4&#45;&gt;Node22 -->
<g id="edge36" class="edge">
<title>Node4&#45;&gt;Node22</title>
<path fill="none" stroke="midnightblue" d="M794.97,-438.74C784.74,-429.81 774.36,-419.62 766,-409 720.64,-351.36 686.13,-271.1 670.38,-230.77"/>
<polygon fill="midnightblue" stroke="midnightblue" points="792.83,-441.51 802.72,-445.3 797.35,-436.17 792.83,-441.51"/>
</g>
<!-- Node23 -->
<g id="node23" class="node">
<title>Node23</title>
<g id="a_node23"><a xlink:href="java__bytecode__convert__method_8h.html" target="_top" xlink:title="JAVA Bytecode Language Conversion.">
<polygon fill="none" stroke="black" points="808,-89.5 808,-141.5 990,-141.5 990,-89.5 808,-89.5"/>
<text text-anchor="start" x="816" y="-129.5" font-family="Helvetica,sans-Serif" font-size="10.00">/home/runner/work/diffblue</text>
<text text-anchor="start" x="816" y="-118.5" font-family="Helvetica,sans-Serif" font-size="10.00">&#45;cbmc/diffblue&#45;cbmc/jbmc</text>
<text text-anchor="start" x="816" y="-107.5" font-family="Helvetica,sans-Serif" font-size="10.00">/src/java_bytecode/java_bytecode</text>
<text text-anchor="middle" x="899" y="-96.5" font-family="Helvetica,sans-Serif" font-size="10.00">_convert_method.h</text>
</a>
</g>
</g>
<!-- Node4&#45;&gt;Node23 -->
<g id="edge35" class="edge">
<title>Node4&#45;&gt;Node23</title>
<path fill="none" stroke="midnightblue" d="M838.5,-435.18C839.78,-412.47 842.06,-382.39 846,-356 857.78,-277.03 880.74,-185.26 892.18,-141.8"/>
<polygon fill="midnightblue" stroke="midnightblue" points="835,-435.2 837.97,-445.37 841.99,-435.57 835,-435.2"/>
</g>
<!-- Node24 -->
<g id="node24" class="node">
<title>Node24</title>
<g id="a_node24"><a xlink:href="lambda__synthesis_8cpp.html" target="_top" xlink:title="Java lambda code synthesis.">
<polygon fill="none" stroke="black" points="689.5,-0.5 689.5,-52.5 838.5,-52.5 838.5,-0.5 689.5,-0.5"/>
<text text-anchor="start" x="697.5" y="-40.5" font-family="Helvetica,sans-Serif" font-size="10.00">/home/runner/work/diffblue</text>
<text text-anchor="start" x="697.5" y="-29.5" font-family="Helvetica,sans-Serif" font-size="10.00">&#45;cbmc/diffblue&#45;cbmc/jbmc</text>
<text text-anchor="start" x="697.5" y="-18.5" font-family="Helvetica,sans-Serif" font-size="10.00">/src/java_bytecode/lambda</text>
<text text-anchor="middle" x="764" y="-7.5" font-family="Helvetica,sans-Serif" font-size="10.00">_synthesis.cpp</text>
</a>
</g>
</g>
<!-- Node4&#45;&gt;Node24 -->
<g id="edge46" class="edge">
<title>Node4&#45;&gt;Node24</title>
<path fill="none" stroke="midnightblue" d="M818.81,-436.17C802.13,-401.45 780,-345.73 780,-294.5 780,-294.5 780,-294.5 780,-203.5 780,-149.5 772.44,-86.56 767.71,-52.5"/>
<polygon fill="midnightblue" stroke="midnightblue" points="815.79,-437.96 823.35,-445.38 822.07,-434.87 815.79,-437.96"/>
</g>
<!-- Node26 -->
<g id="node26" class="node">
<title>Node26</title>
<g id="a_node26"><a xlink:href="java__bytecode__parse__tree_8cpp.html" target="_top" xlink:title=" ">
<polygon fill="none" stroke="black" points="884,-356.5 884,-408.5 1066,-408.5 1066,-356.5 884,-356.5"/>
<text text-anchor="start" x="892" y="-396.5" font-family="Helvetica,sans-Serif" font-size="10.00">/home/runner/work/diffblue</text>
<text text-anchor="start" x="892" y="-385.5" font-family="Helvetica,sans-Serif" font-size="10.00">&#45;cbmc/diffblue&#45;cbmc/jbmc</text>
<text text-anchor="start" x="892" y="-374.5" font-family="Helvetica,sans-Serif" font-size="10.00">/src/java_bytecode/java_bytecode</text>
<text text-anchor="middle" x="975" y="-363.5" font-family="Helvetica,sans-Serif" font-size="10.00">_parse_tree.cpp</text>
</a>
</g>
</g>
<!-- Node4&#45;&gt;Node26 -->
<g id="edge37" class="edge">
<title>Node4&#45;&gt;Node26</title>
<path fill="none" stroke="midnightblue" d="M885.72,-439.79C901.91,-429.58 919.74,-418.34 935.17,-408.61"/>
<polygon fill="midnightblue" stroke="midnightblue" points="883.51,-437.04 876.92,-445.34 887.24,-442.96 883.51,-437.04"/>
</g>
<!-- Node4&#45;&gt;Node27 -->
<g id="edge38" class="edge">
<title>Node4&#45;&gt;Node27</title>
<path fill="none" stroke="midnightblue" d="M938.48,-467.82C1085.78,-462.7 1367.01,-448.27 1603,-409 1605.92,-408.51 1608.87,-407.99 1611.85,-407.42"/>
<polygon fill="midnightblue" stroke="midnightblue" points="937.99,-464.34 928.11,-468.18 938.22,-471.33 937.99,-464.34"/>
</g>
<!-- Node28 -->
<g id="node28" class="node">
<title>Node28</title>
<g id="a_node28"><a xlink:href="java__class__loader_8h.html" target="_top" xlink:title=" ">
<polygon fill="none" stroke="black" points="1432,-356.5 1432,-408.5 1594,-408.5 1594,-356.5 1432,-356.5"/>
<text text-anchor="start" x="1440" y="-396.5" font-family="Helvetica,sans-Serif" font-size="10.00">/home/runner/work/diffblue</text>
<text text-anchor="start" x="1440" y="-385.5" font-family="Helvetica,sans-Serif" font-size="10.00">&#45;cbmc/diffblue&#45;cbmc/jbmc</text>
<text text-anchor="start" x="1440" y="-374.5" font-family="Helvetica,sans-Serif" font-size="10.00">/src/java_bytecode/java_class</text>
<text text-anchor="middle" x="1513" y="-363.5" font-family="Helvetica,sans-Serif" font-size="10.00">_loader.h</text>
</a>
</g>
</g>
<!-- Node4&#45;&gt;Node28 -->
<g id="edge39" class="edge">
<title>Node4&#45;&gt;Node28</title>
<path fill="none" stroke="midnightblue" d="M938.18,-465.05C1055.41,-457.54 1254,-441.13 1422,-409 1425.22,-408.38 1428.5,-407.71 1431.8,-406.99"/>
<polygon fill="midnightblue" stroke="midnightblue" points="937.9,-461.56 928.14,-465.69 938.34,-468.55 937.9,-461.56"/>
</g>
<!-- Node30 -->
<g id="node30" class="node">
<title>Node30</title>
<g id="a_node30"><a xlink:href="java__class__loader__base_8cpp.html" target="_top" xlink:title=" ">
<polygon fill="none" stroke="black" points="1084,-356.5 1084,-408.5 1246,-408.5 1246,-356.5 1084,-356.5"/>
<text text-anchor="start" x="1092" y="-396.5" font-family="Helvetica,sans-Serif" font-size="10.00">/home/runner/work/diffblue</text>
<text text-anchor="start" x="1092" y="-385.5" font-family="Helvetica,sans-Serif" font-size="10.00">&#45;cbmc/diffblue&#45;cbmc/jbmc</text>
<text text-anchor="start" x="1092" y="-374.5" font-family="Helvetica,sans-Serif" font-size="10.00">/src/java_bytecode/java_class</text>
<text text-anchor="middle" x="1165" y="-363.5" font-family="Helvetica,sans-Serif" font-size="10.00">_loader_base.cpp</text>
</a>
</g>
</g>
<!-- Node4&#45;&gt;Node30 -->
<g id="edge45" class="edge">
<title>Node4&#45;&gt;Node30</title>
<path fill="none" stroke="midnightblue" d="M937.88,-444.98C980.28,-434.12 1030.1,-421.16 1075,-409 1077.82,-408.24 1080.69,-407.45 1083.59,-406.66"/>
<polygon fill="midnightblue" stroke="midnightblue" points="936.93,-441.61 928.11,-447.49 938.66,-448.4 936.93,-441.61"/>
</g>
<!-- Node31 -->
<g id="node31" class="node">
<title>Node31</title>
<g id="a_node31"><a xlink:href="lambda__synthesis_8h.html" target="_top" xlink:title="Java lambda code synthesis.">
<polygon fill="none" stroke="black" points="423.5,-89.5 423.5,-141.5 572.5,-141.5 572.5,-89.5 423.5,-89.5"/>
<text text-anchor="start" x="431.5" y="-129.5" font-family="Helvetica,sans-Serif" font-size="10.00">/home/runner/work/diffblue</text>
<text text-anchor="start" x="431.5" y="-118.5" font-family="Helvetica,sans-Serif" font-size="10.00">&#45;cbmc/diffblue&#45;cbmc/jbmc</text>
<text text-anchor="start" x="431.5" y="-107.5" font-family="Helvetica,sans-Serif" font-size="10.00">/src/java_bytecode/lambda</text>
<text text-anchor="middle" x="498" y="-96.5" font-family="Helvetica,sans-Serif" font-size="10.00">_synthesis.h</text>
</a>
</g>
</g>
<!-- Node4&#45;&gt;Node31 -->
<g id="edge47" class="edge">
<title>Node4&#45;&gt;Node31</title>
<path fill="none" stroke="midnightblue" d="M775.52,-440.54C759.1,-431.38 741.82,-420.62 727,-409 641.88,-342.25 624.45,-318.61 561,-231 540.11,-202.15 521.15,-165.62 509.6,-141.68"/>
<polygon fill="midnightblue" stroke="midnightblue" points="774.08,-443.74 784.54,-445.46 777.44,-437.6 774.08,-443.74"/>
</g>
<!-- Node32 -->
<g id="node32" class="node">
<title>Node32</title>
<g id="a_node32"><a xlink:href="require__parse__tree_8h.html" target="_top" xlink:title="Utilties for inspecting java_parse_treet.">
<polygon fill="none" stroke="black" points="385.5,-356.5 385.5,-408.5 534.5,-408.5 534.5,-356.5 385.5,-356.5"/>
<text text-anchor="start" x="393.5" y="-396.5" font-family="Helvetica,sans-Serif" font-size="10.00">/home/runner/work/diffblue</text>
<text text-anchor="start" x="393.5" y="-385.5" font-family="Helvetica,sans-Serif" font-size="10.00">&#45;cbmc/diffblue&#45;cbmc/jbmc</text>
<text text-anchor="start" x="393.5" y="-374.5" font-family="Helvetica,sans-Serif" font-size="10.00">/unit/java&#45;testing&#45;utils</text>
<text text-anchor="middle" x="460" y="-363.5" font-family="Helvetica,sans-Serif" font-size="10.00">/require_parse_tree.h</text>
</a>
</g>
</g>
<!-- Node4&#45;&gt;Node32 -->
<g id="edge51" class="edge">
<title>Node4&#45;&gt;Node32</title>
<path fill="none" stroke="midnightblue" d="M735.96,-450.86C680.28,-439.58 610.07,-424.58 548,-409 543.68,-407.92 539.25,-406.76 534.79,-405.57"/>
<polygon fill="midnightblue" stroke="midnightblue" points="735.33,-454.31 745.82,-452.86 736.71,-447.45 735.33,-454.31"/>
</g>
<!-- Node6 -->
<g id="node6" class="node">
<title>Node6</title>
<g id="a_node6"><a xlink:href="ci__lazy__methods_8cpp.html" target="_top" xlink:title=" ">
<polygon fill="none" stroke="black" points="1159.5,-178.5 1159.5,-230.5 1308.5,-230.5 1308.5,-178.5 1159.5,-178.5"/>
<text text-anchor="start" x="1167.5" y="-218.5" font-family="Helvetica,sans-Serif" font-size="10.00">/home/runner/work/diffblue</text>
<text text-anchor="start" x="1167.5" y="-207.5" font-family="Helvetica,sans-Serif" font-size="10.00">&#45;cbmc/diffblue&#45;cbmc/jbmc</text>
<text text-anchor="start" x="1167.5" y="-196.5" font-family="Helvetica,sans-Serif" font-size="10.00">/src/java_bytecode/ci_lazy</text>
<text text-anchor="middle" x="1234" y="-185.5" font-family="Helvetica,sans-Serif" font-size="10.00">_methods.cpp</text>
</a>
</g>
</g>
<!-- Node5&#45;&gt;Node6 -->
<g id="edge5" class="edge">
<title>Node5&#45;&gt;Node6</title>
<path fill="none" stroke="midnightblue" d="M1318.76,-347.57C1298.35,-313.36 1267.33,-261.36 1249.02,-230.67"/>
<polygon fill="midnightblue" stroke="midnightblue" points="1315.83,-349.49 1323.96,-356.28 1321.84,-345.9 1315.83,-349.49"/>
</g>
<!-- Node7 -->
<g id="node7" class="node">
<title>Node7</title>
<g id="a_node7"><a xlink:href="java__bytecode__convert__class_8cpp.html" target="_top" xlink:title="JAVA Bytecode Language Conversion.">
<polygon fill="none" stroke="black" points="857,-0.5 857,-52.5 1039,-52.5 1039,-0.5 857,-0.5"/>
<text text-anchor="start" x="865" y="-40.5" font-family="Helvetica,sans-Serif" font-size="10.00">/home/runner/work/diffblue</text>
<text text-anchor="start" x="865" y="-29.5" font-family="Helvetica,sans-Serif" font-size="10.00">&#45;cbmc/diffblue&#45;cbmc/jbmc</text>
<text text-anchor="start" x="865" y="-18.5" font-family="Helvetica,sans-Serif" font-size="10.00">/src/java_bytecode/java_bytecode</text>
<text text-anchor="middle" x="948" y="-7.5" font-family="Helvetica,sans-Serif" font-size="10.00">_convert_class.cpp</text>
</a>
</g>
</g>
<!-- Node5&#45;&gt;Node7 -->
<g id="edge6" class="edge">
<title>Node5&#45;&gt;Node7</title>
<path fill="none" stroke="midnightblue" d="M1254.41,-353.34C1216,-340.08 1177.45,-325.89 1170,-320 1073.59,-243.79 1098.66,-181.72 1018,-89 1006.75,-76.06 992.81,-63.3 980.34,-52.77"/>
<polygon fill="midnightblue" stroke="midnightblue" points="1253.55,-356.75 1264.15,-356.69 1255.83,-350.13 1253.55,-356.75"/>
</g>
<!-- Node8 -->
<g id="node8" class="node">
<title>Node8</title>
<g id="a_node8"><a xlink:href="java__bytecode__language_8cpp.html" target="_top" xlink:title=" ">
<polygon fill="none" stroke="black" points="1057,-0.5 1057,-52.5 1239,-52.5 1239,-0.5 1057,-0.5"/>
<text text-anchor="start" x="1065" y="-40.5" font-family="Helvetica,sans-Serif" font-size="10.00">/home/runner/work/diffblue</text>
<text text-anchor="start" x="1065" y="-29.5" font-family="Helvetica,sans-Serif" font-size="10.00">&#45;cbmc/diffblue&#45;cbmc/jbmc</text>
<text text-anchor="start" x="1065" y="-18.5" font-family="Helvetica,sans-Serif" font-size="10.00">/src/java_bytecode/java_bytecode</text>
<text text-anchor="middle" x="1148" y="-7.5" font-family="Helvetica,sans-Serif" font-size="10.00">_language.cpp</text>
</a>
</g>
</g>
<!-- Node5&#45;&gt;Node8 -->
<g id="edge7" class="edge">
<title>Node5&#45;&gt;Node8</title>
<path fill="none" stroke="midnightblue" d="M1276.98,-351.25C1232.67,-325.89 1176.42,-285.13 1150,-231 1121.41,-172.42 1132.99,-92.58 1141.69,-52.55"/>
<polygon fill="midnightblue" stroke="midnightblue" points="1275.51,-354.44 1285.95,-356.27 1278.93,-348.33 1275.51,-354.44"/>
</g>
<!-- Node9 -->
<g id="node9" class="node">
<title>Node9</title>
<g id="a_node9"><a xlink:href="java__bytecode__language_8h.html" target="_top" xlink:title=" ">
<polygon fill="none" stroke="black" points="1721,-267.5 1721,-319.5 1903,-319.5 1903,-267.5 1721,-267.5"/>
<text text-anchor="start" x="1729" y="-307.5" font-family="Helvetica,sans-Serif" font-size="10.00">/home/runner/work/diffblue</text>
<text text-anchor="start" x="1729" y="-296.5" font-family="Helvetica,sans-Serif" font-size="10.00">&#45;cbmc/diffblue&#45;cbmc/jbmc</text>
<text text-anchor="start" x="1729" y="-285.5" font-family="Helvetica,sans-Serif" font-size="10.00">/src/java_bytecode/java_bytecode</text>
<text text-anchor="middle" x="1812" y="-274.5" font-family="Helvetica,sans-Serif" font-size="10.00">_language.h</text>
</a>
</g>
</g>
<!-- Node5&#45;&gt;Node9 -->
<g id="edge8" class="edge">
<title>Node5&#45;&gt;Node9</title>
<path fill="none" stroke="midnightblue" d="M1423.56,-356.01C1531.05,-331.77 1644.06,-315.22 1720.93,-305.29"/>
<polygon fill="midnightblue" stroke="midnightblue" points="1422.48,-352.66 1413.51,-358.3 1424.04,-359.49 1422.48,-352.66"/>
</g>
<!-- Node9&#45;&gt;Node6 -->
<g id="edge13" class="edge">
<title>Node9&#45;&gt;Node6</title>
<path fill="none" stroke="midnightblue" d="M1710.72,-285.12C1610.06,-276.57 1451.67,-259.82 1317,-231 1314.35,-230.43 1311.66,-229.82 1308.95,-229.17"/>
<polygon fill="midnightblue" stroke="midnightblue" points="1710.62,-288.62 1720.88,-285.97 1711.21,-281.65 1710.62,-288.62"/>
</g>
<!-- Node9&#45;&gt;Node8 -->
<g id="edge14" class="edge">
<title>Node9&#45;&gt;Node8</title>
<path fill="none" stroke="midnightblue" d="M1913.16,-267.31C2028.37,-257.12 2578.26,-286.86 2632,-231 2675.76,-185.52 2676.69,-134.54 2633,-89 2584.63,-38.58 1554.8,-29.45 1239.15,-27.84"/>
<polygon fill="midnightblue" stroke="midnightblue" points="1912.67,-263.84 1903.13,-268.46 1913.47,-270.8 1912.67,-263.84"/>
</g>
<!-- Node10 -->
<g id="node10" class="node">
<title>Node10</title>
<g id="a_node10"><a xlink:href="janalyzer__parse__options_8cpp.html" target="_top" xlink:title="JANALYZER Command Line Option Processing.">
<polygon fill="none" stroke="black" points="1788.5,-89.5 1788.5,-141.5 1937.5,-141.5 1937.5,-89.5 1788.5,-89.5"/>
<text text-anchor="start" x="1796.5" y="-129.5" font-family="Helvetica,sans-Serif" font-size="10.00">/home/runner/work/diffblue</text>
<text text-anchor="start" x="1796.5" y="-118.5" font-family="Helvetica,sans-Serif" font-size="10.00">&#45;cbmc/diffblue&#45;cbmc/jbmc</text>
<text text-anchor="start" x="1796.5" y="-107.5" font-family="Helvetica,sans-Serif" font-size="10.00">/src/janalyzer/janalyzer</text>
<text text-anchor="middle" x="1863" y="-96.5" font-family="Helvetica,sans-Serif" font-size="10.00">_parse_options.cpp</text>
</a>
</g>
</g>
<!-- Node9&#45;&gt;Node10 -->
<g id="edge9" class="edge">
<title>Node9&#45;&gt;Node10</title>
<path fill="none" stroke="midnightblue" d="M1832.96,-258.31C1837.53,-249.65 1841.91,-240.19 1845,-231 1855,-201.24 1859.5,-165.24 1861.48,-141.64"/>
<polygon fill="midnightblue" stroke="midnightblue" points="1829.74,-256.89 1827.98,-267.34 1835.88,-260.27 1829.74,-256.89"/>
</g>
<!-- Node11 -->
<g id="node11" class="node">
<title>Node11</title>
<g id="a_node11"><a xlink:href="janalyzer__parse__options_8h.html" target="_top" xlink:title="JANALYZER Command Line Option Processing.">
<polygon fill="none" stroke="black" points="1890.5,-178.5 1890.5,-230.5 2039.5,-230.5 2039.5,-178.5 1890.5,-178.5"/>
<text text-anchor="start" x="1898.5" y="-218.5" font-family="Helvetica,sans-Serif" font-size="10.00">/home/runner/work/diffblue</text>
<text text-anchor="start" x="1898.5" y="-207.5" font-family="Helvetica,sans-Serif" font-size="10.00">&#45;cbmc/diffblue&#45;cbmc/jbmc</text>
<text text-anchor="start" x="1898.5" y="-196.5" font-family="Helvetica,sans-Serif" font-size="10.00">/src/janalyzer/janalyzer</text>
<text text-anchor="middle" x="1965" y="-185.5" font-family="Helvetica,sans-Serif" font-size="10.00">_parse_options.h</text>
</a>
</g>
</g>
<!-- Node9&#45;&gt;Node11 -->
<g id="edge10" class="edge">
<title>Node9&#45;&gt;Node11</title>
<path fill="none" stroke="midnightblue" d="M1865.02,-262.35C1883.23,-252 1903.41,-240.52 1920.85,-230.61"/>
<polygon fill="midnightblue" stroke="midnightblue" points="1863.22,-259.35 1856.25,-267.34 1866.68,-265.44 1863.22,-259.35"/>
</g>
<!-- Node13 -->
<g id="node13" class="node">
<title>Node13</title>
<g id="a_node13"><a xlink:href="java__entry__point_8cpp.html" target="_top" xlink:title=" ">
<polygon fill="none" stroke="black" points="2057.5,-178.5 2057.5,-230.5 2220.5,-230.5 2220.5,-178.5 2057.5,-178.5"/>
<text text-anchor="start" x="2065.5" y="-218.5" font-family="Helvetica,sans-Serif" font-size="10.00">/home/runner/work/diffblue</text>
<text text-anchor="start" x="2065.5" y="-207.5" font-family="Helvetica,sans-Serif" font-size="10.00">&#45;cbmc/diffblue&#45;cbmc/jbmc</text>
<text text-anchor="start" x="2065.5" y="-196.5" font-family="Helvetica,sans-Serif" font-size="10.00">/src/java_bytecode/java_entry</text>
<text text-anchor="middle" x="2139" y="-185.5" font-family="Helvetica,sans-Serif" font-size="10.00">_point.cpp</text>
</a>
</g>
</g>
<!-- Node9&#45;&gt;Node13 -->
<g id="edge15" class="edge">
<title>Node9&#45;&gt;Node13</title>
<path fill="none" stroke="midnightblue" d="M1913.13,-266.49C1965.23,-253.05 2023.13,-238.02 2049,-231 2051.66,-230.28 2054.37,-229.54 2057.1,-228.79"/>
<polygon fill="midnightblue" stroke="midnightblue" points="1911.95,-263.18 1903.14,-269.07 1913.7,-269.96 1911.95,-263.18"/>
</g>
<!-- Node14 -->
<g id="node14" class="node">
<title>Node14</title>
<g id="a_node14"><a xlink:href="lazy__goto__model_8cpp.html" target="_top" xlink:title="Author: Diffblue Ltd.">
<polygon fill="none" stroke="black" points="2239,-178.5 2239,-230.5 2397,-230.5 2397,-178.5 2239,-178.5"/>
<text text-anchor="start" x="2247" y="-218.5" font-family="Helvetica,sans-Serif" font-size="10.00">/home/runner/work/diffblue</text>
<text text-anchor="start" x="2247" y="-207.5" font-family="Helvetica,sans-Serif" font-size="10.00">&#45;cbmc/diffblue&#45;cbmc/jbmc</text>
<text text-anchor="start" x="2247" y="-196.5" font-family="Helvetica,sans-Serif" font-size="10.00">/src/java_bytecode/lazy_goto</text>
<text text-anchor="middle" x="2318" y="-185.5" font-family="Helvetica,sans-Serif" font-size="10.00">_model.cpp</text>
</a>
</g>
</g>
<!-- Node9&#45;&gt;Node14 -->
<g id="edge16" class="edge">
<title>Node9&#45;&gt;Node14</title>
<path fill="none" stroke="midnightblue" d="M1913.03,-266.93C2053.69,-242.13 2093.66,-258.27 2230,-231 2232.81,-230.44 2235.66,-229.83 2238.52,-229.18"/>
<polygon fill="midnightblue" stroke="midnightblue" points="1912.39,-263.49 1903.17,-268.7 1913.63,-270.38 1912.39,-263.49"/>
</g>
<!-- Node15 -->
<g id="node15" class="node">
<title>Node15</title>
<g id="a_node15"><a xlink:href="jbmc__parse__options_8cpp.html" target="_top" xlink:title="JBMC Command Line Option Processing.">
<polygon fill="none" stroke="black" points="2274,-95 2274,-136 2456,-136 2456,-95 2274,-95"/>
<text text-anchor="start" x="2282" y="-124" font-family="Helvetica,sans-Serif" font-size="10.00">/home/runner/work/diffblue</text>
<text text-anchor="start" x="2282" y="-113" font-family="Helvetica,sans-Serif" font-size="10.00">&#45;cbmc/diffblue&#45;cbmc/jbmc</text>
<text text-anchor="middle" x="2365" y="-102" font-family="Helvetica,sans-Serif" font-size="10.00">/src/jbmc/jbmc_parse_options.cpp</text>
</a>
</g>
</g>
<!-- Node9&#45;&gt;Node15 -->
<g id="edge17" class="edge">
<title>Node9&#45;&gt;Node15</title>
<path fill="none" stroke="midnightblue" d="M1913.11,-267.34C2000.21,-259.2 2370.14,-269.57 2406,-231 2430.87,-204.25 2403.4,-161.36 2382.98,-136.37"/>
<polygon fill="midnightblue" stroke="midnightblue" points="1912.65,-263.87 1903.15,-268.55 1913.5,-270.81 1912.65,-263.87"/>
</g>
<!-- Node16 -->
<g id="node16" class="node">
<title>Node16</title>
<g id="a_node16"><a xlink:href="jbmc__parse__options_8h.html" target="_top" xlink:title="JBMC Command Line Option Processing.">
<polygon fill="none" stroke="black" points="2453,-184 2453,-225 2623,-225 2623,-184 2453,-184"/>
<text text-anchor="start" x="2461" y="-213" font-family="Helvetica,sans-Serif" font-size="10.00">/home/runner/work/diffblue</text>
<text text-anchor="start" x="2461" y="-202" font-family="Helvetica,sans-Serif" font-size="10.00">&#45;cbmc/diffblue&#45;cbmc/jbmc</text>
<text text-anchor="middle" x="2538" y="-191" font-family="Helvetica,sans-Serif" font-size="10.00">/src/jbmc/jbmc_parse_options.h</text>
</a>
</g>
</g>
<!-- Node9&#45;&gt;Node16 -->
<g id="edge18" class="edge">
<title>Node9&#45;&gt;Node16</title>
<path fill="none" stroke="midnightblue" d="M1913.26,-266.94C2145.64,-230.92 2210.52,-267.91 2439,-231 2448.72,-229.43 2458.89,-227.34 2468.84,-225.03"/>
<polygon fill="midnightblue" stroke="midnightblue" points="1912.47,-263.52 1903.14,-268.53 1913.57,-270.43 1912.47,-263.52"/>
</g>
<!-- Node18 -->
<g id="node18" class="node">
<title>Node18</title>
<g id="a_node18"><a xlink:href="jdiff__languages_8cpp.html" target="_top" xlink:title="Language Registration.">
<polygon fill="none" stroke="black" points="1326.5,-184 1326.5,-225 1479.5,-225 1479.5,-184 1326.5,-184"/>
<text text-anchor="start" x="1334.5" y="-213" font-family="Helvetica,sans-Serif" font-size="10.00">/home/runner/work/diffblue</text>
<text text-anchor="start" x="1334.5" y="-202" font-family="Helvetica,sans-Serif" font-size="10.00">&#45;cbmc/diffblue&#45;cbmc/jbmc</text>
<text text-anchor="middle" x="1403" y="-191" font-family="Helvetica,sans-Serif" font-size="10.00">/src/jdiff/jdiff_languages.cpp</text>
</a>
</g>
</g>
<!-- Node9&#45;&gt;Node18 -->
<g id="edge21" class="edge">
<title>Node9&#45;&gt;Node18</title>
<path fill="none" stroke="midnightblue" d="M1710.56,-276.03C1646.4,-264.93 1561.91,-249.05 1488,-231 1480.67,-229.21 1473.03,-227.17 1465.46,-225.04"/>
<polygon fill="midnightblue" stroke="midnightblue" points="1710.23,-279.53 1720.68,-277.77 1711.42,-272.63 1710.23,-279.53"/>
</g>
<!-- Node19 -->
<g id="node19" class="node">
<title>Node19</title>
<g id="a_node19"><a xlink:href="jdiff__parse__options_8cpp.html" target="_top" xlink:title="JDIFF Command Line Option Processing.">
<polygon fill="none" stroke="black" points="1497.5,-184 1497.5,-225 1668.5,-225 1668.5,-184 1497.5,-184"/>
<text text-anchor="start" x="1505.5" y="-213" font-family="Helvetica,sans-Serif" font-size="10.00">/home/runner/work/diffblue</text>
<text text-anchor="start" x="1505.5" y="-202" font-family="Helvetica,sans-Serif" font-size="10.00">&#45;cbmc/diffblue&#45;cbmc/jbmc</text>
<text text-anchor="middle" x="1583" y="-191" font-family="Helvetica,sans-Serif" font-size="10.00">/src/jdiff/jdiff_parse_options.cpp</text>
</a>
</g>
</g>
<!-- Node9&#45;&gt;Node19 -->
<g id="edge22" class="edge">
<title>Node9&#45;&gt;Node19</title>
<path fill="none" stroke="midnightblue" d="M1736.36,-263.76C1703.01,-251.09 1664.68,-236.53 1634.68,-225.13"/>
<polygon fill="midnightblue" stroke="midnightblue" points="1735.48,-267.17 1746.07,-267.45 1737.97,-260.63 1735.48,-267.17"/>
</g>
<!-- Node20 -->
<g id="node20" class="node">
<title>Node20</title>
<g id="a_node20"><a xlink:href="load__java__class_8cpp.html" target="_top" xlink:title=" ">
<polygon fill="none" stroke="black" points="1686.5,-178.5 1686.5,-230.5 1835.5,-230.5 1835.5,-178.5 1686.5,-178.5"/>
<text text-anchor="start" x="1694.5" y="-218.5" font-family="Helvetica,sans-Serif" font-size="10.00">/home/runner/work/diffblue</text>
<text text-anchor="start" x="1694.5" y="-207.5" font-family="Helvetica,sans-Serif" font-size="10.00">&#45;cbmc/diffblue&#45;cbmc/jbmc</text>
<text text-anchor="start" x="1694.5" y="-196.5" font-family="Helvetica,sans-Serif" font-size="10.00">/unit/java&#45;testing&#45;utils</text>
<text text-anchor="middle" x="1761" y="-185.5" font-family="Helvetica,sans-Serif" font-size="10.00">/load_java_class.cpp</text>
</a>
</g>
</g>
<!-- Node9&#45;&gt;Node20 -->
<g id="edge23" class="edge">
<title>Node9&#45;&gt;Node20</title>
<path fill="none" stroke="midnightblue" d="M1792.15,-258.64C1786.68,-249.31 1780.84,-239.35 1775.72,-230.61"/>
<polygon fill="midnightblue" stroke="midnightblue" points="1789.17,-260.48 1797.25,-267.34 1795.21,-256.94 1789.17,-260.48"/>
</g>
<!-- Node11&#45;&gt;Node10 -->
<g id="edge12" class="edge">
<title>Node11&#45;&gt;Node10</title>
<path fill="none" stroke="midnightblue" d="M1927.66,-171.65C1916.05,-161.75 1903.42,-150.98 1892.44,-141.61"/>
<polygon fill="midnightblue" stroke="midnightblue" points="1925.62,-174.51 1935.5,-178.34 1930.16,-169.18 1925.62,-174.51"/>
</g>
<!-- Node12 -->
<g id="node12" class="node">
<title>Node12</title>
<g id="a_node12"><a xlink:href="janalyzer__main_8cpp.html" target="_top" xlink:title="JANALYZER Main Module.">
<polygon fill="none" stroke="black" points="1955.5,-89.5 1955.5,-141.5 2104.5,-141.5 2104.5,-89.5 1955.5,-89.5"/>
<text text-anchor="start" x="1963.5" y="-129.5" font-family="Helvetica,sans-Serif" font-size="10.00">/home/runner/work/diffblue</text>
<text text-anchor="start" x="1963.5" y="-118.5" font-family="Helvetica,sans-Serif" font-size="10.00">&#45;cbmc/diffblue&#45;cbmc/jbmc</text>
<text text-anchor="start" x="1963.5" y="-107.5" font-family="Helvetica,sans-Serif" font-size="10.00">/src/janalyzer/janalyzer</text>
<text text-anchor="middle" x="2030" y="-96.5" font-family="Helvetica,sans-Serif" font-size="10.00">_main.cpp</text>
</a>
</g>
</g>
<!-- Node11&#45;&gt;Node12 -->
<g id="edge11" class="edge">
<title>Node11&#45;&gt;Node12</title>
<path fill="none" stroke="midnightblue" d="M1989.87,-170.22C1996.96,-160.72 2004.58,-150.53 2011.24,-141.61"/>
<polygon fill="midnightblue" stroke="midnightblue" points="1986.98,-168.23 1983.8,-178.34 1992.59,-172.42 1986.98,-168.23"/>
</g>
<!-- Node16&#45;&gt;Node15 -->
<g id="edge20" class="edge">
<title>Node16&#45;&gt;Node15</title>
<path fill="none" stroke="midnightblue" d="M2490.24,-179.48C2463.09,-165.83 2429.54,-148.96 2403.99,-136.11"/>
<polygon fill="midnightblue" stroke="midnightblue" points="2488.67,-182.61 2499.18,-183.98 2491.81,-176.36 2488.67,-182.61"/>
</g>
<!-- Node17 -->
<g id="node17" class="node">
<title>Node17</title>
<g id="a_node17"><a xlink:href="jbmc__main_8cpp.html" target="_top" xlink:title="CBMC Main Module.">
<polygon fill="none" stroke="black" points="2474.5,-95 2474.5,-136 2623.5,-136 2623.5,-95 2474.5,-95"/>
<text text-anchor="start" x="2482.5" y="-124" font-family="Helvetica,sans-Serif" font-size="10.00">/home/runner/work/diffblue</text>
<text text-anchor="start" x="2482.5" y="-113" font-family="Helvetica,sans-Serif" font-size="10.00">&#45;cbmc/diffblue&#45;cbmc/jbmc</text>
<text text-anchor="middle" x="2549" y="-102" font-family="Helvetica,sans-Serif" font-size="10.00">/src/jbmc/jbmc_main.cpp</text>
</a>
</g>
</g>
<!-- Node16&#45;&gt;Node17 -->
<g id="edge19" class="edge">
<title>Node16&#45;&gt;Node17</title>
<path fill="none" stroke="midnightblue" d="M2541.75,-173.81C2543.33,-161.38 2545.11,-147.27 2546.51,-136.16"/>
<polygon fill="midnightblue" stroke="midnightblue" points="2538.28,-173.4 2540.5,-183.76 2545.22,-174.28 2538.28,-173.4"/>
</g>
<!-- Node21&#45;&gt;Node7 -->
<g id="edge25" class="edge">
<title>Node21&#45;&gt;Node7</title>
<path fill="none" stroke="midnightblue" d="M988.48,-257.61C1002.39,-216.18 1019.41,-145.58 999,-89 994.15,-75.56 984.95,-62.98 975.68,-52.74"/>
<polygon fill="midnightblue" stroke="midnightblue" points="985.11,-256.64 985.13,-267.23 991.73,-258.94 985.11,-256.64"/>
</g>
<!-- Node21&#45;&gt;Node8 -->
<g id="edge34" class="edge">
<title>Node21&#45;&gt;Node8</title>
<path fill="none" stroke="midnightblue" d="M997.45,-259C1003.49,-249.93 1010.02,-240.1 1016,-231 1058.11,-166.96 1107.06,-91.12 1131.84,-52.63"/>
<polygon fill="midnightblue" stroke="midnightblue" points="994.47,-257.15 991.83,-267.41 1000.29,-261.04 994.47,-257.15"/>
</g>
<!-- Node21&#45;&gt;Node22 -->
<g id="edge26" class="edge">
<title>Node21&#45;&gt;Node22</title>
<path fill="none" stroke="midnightblue" d="M874.91,-264.77C835.24,-253.78 789.96,-241.23 751.31,-230.52"/>
<polygon fill="midnightblue" stroke="midnightblue" points="874.03,-268.16 884.6,-267.45 875.9,-261.41 874.03,-268.16"/>
</g>
<!-- Node22&#45;&gt;Node3 -->
<g id="edge27" class="edge">
<title>Node22&#45;&gt;Node3</title>
<path fill="none" stroke="midnightblue" d="M559.8,-189.79C500.73,-179.66 433.99,-163.84 414,-142 391.99,-117.96 390.63,-78.49 392.59,-52.75"/>
<polygon fill="midnightblue" stroke="midnightblue" points="559.52,-193.29 569.96,-191.49 560.68,-186.39 559.52,-193.29"/>
</g>
<!-- Node22&#45;&gt;Node23 -->
<g id="edge28" class="edge">
<title>Node22&#45;&gt;Node23</title>
<path fill="none" stroke="midnightblue" d="M738.97,-175C768.53,-164.19 801.94,-151.98 830.55,-141.52"/>
<polygon fill="midnightblue" stroke="midnightblue" points="737.71,-171.73 729.52,-178.45 740.11,-178.31 737.71,-171.73"/>
</g>
<!-- Node25 -->
<g id="node25" class="node">
<title>Node25</title>
<g id="a_node25"><a xlink:href="java__local__variable__table_8cpp.html" target="_top" xlink:title="Java local variable table processing.">
<polygon fill="none" stroke="black" points="590.5,-89.5 590.5,-141.5 751.5,-141.5 751.5,-89.5 590.5,-89.5"/>
<text text-anchor="start" x="598.5" y="-129.5" font-family="Helvetica,sans-Serif" font-size="10.00">/home/runner/work/diffblue</text>
<text text-anchor="start" x="598.5" y="-118.5" font-family="Helvetica,sans-Serif" font-size="10.00">&#45;cbmc/diffblue&#45;cbmc/jbmc</text>
<text text-anchor="start" x="598.5" y="-107.5" font-family="Helvetica,sans-Serif" font-size="10.00">/src/java_bytecode/java_local</text>
<text text-anchor="middle" x="671" y="-96.5" font-family="Helvetica,sans-Serif" font-size="10.00">_variable_table.cpp</text>
</a>
</g>
</g>
<!-- Node22&#45;&gt;Node25 -->
<g id="edge33" class="edge">
<title>Node22&#45;&gt;Node25</title>
<path fill="none" stroke="midnightblue" d="M665.06,-168.19C666.08,-159.28 667.16,-149.9 668.11,-141.61"/>
<polygon fill="midnightblue" stroke="midnightblue" points="661.56,-168 663.89,-178.34 668.51,-168.8 661.56,-168"/>
</g>
<!-- Node23&#45;&gt;Node3 -->
<g id="edge30" class="edge">
<title>Node23&#45;&gt;Node3</title>
<path fill="none" stroke="midnightblue" d="M797.68,-95.74C785,-93.44 772.2,-91.15 760,-89 667.22,-72.65 560.97,-54.8 487.31,-42.56"/>
<polygon fill="midnightblue" stroke="midnightblue" points="797.35,-99.24 807.81,-97.58 798.6,-92.35 797.35,-99.24"/>
</g>
<!-- Node23&#45;&gt;Node7 -->
<g id="edge29" class="edge">
<title>Node23&#45;&gt;Node7</title>
<path fill="none" stroke="midnightblue" d="M918.23,-80.35C923.44,-71.1 928.99,-61.26 933.86,-52.61"/>
<polygon fill="midnightblue" stroke="midnightblue" points="915.03,-78.91 913.17,-89.34 921.13,-82.34 915.03,-78.91"/>
</g>
<!-- Node23&#45;&gt;Node8 -->
<g id="edge31" class="edge">
<title>Node23&#45;&gt;Node8</title>
<path fill="none" stroke="midnightblue" d="M980.17,-86.14C1011.2,-75.3 1046.32,-63.03 1076.39,-52.52"/>
<polygon fill="midnightblue" stroke="midnightblue" points="978.97,-82.85 970.69,-89.45 981.28,-89.46 978.97,-82.85"/>
</g>
<!-- Node23&#45;&gt;Node24 -->
<g id="edge32" class="edge">
<title>Node23&#45;&gt;Node24</title>
<path fill="none" stroke="midnightblue" d="M851.34,-83.79C835.5,-73.58 818.06,-62.34 802.96,-52.61"/>
<polygon fill="midnightblue" stroke="midnightblue" points="849.65,-86.86 859.95,-89.34 853.44,-80.98 849.65,-86.86"/>
</g>
<!-- Node28&#45;&gt;Node6 -->
<g id="edge40" class="edge">
<title>Node28&#45;&gt;Node6</title>
<path fill="none" stroke="midnightblue" d="M1464.62,-350.98C1410.64,-316.93 1324.31,-262.47 1273.99,-230.73"/>
<polygon fill="midnightblue" stroke="midnightblue" points="1463,-354.1 1473.32,-356.47 1466.73,-348.17 1463,-354.1"/>
</g>
<!-- Node28&#45;&gt;Node8 -->
<g id="edge42" class="edge">
<title>Node28&#45;&gt;Node8</title>
<path fill="none" stroke="midnightblue" d="M1604.42,-356C1854.36,-317.38 2508.18,-407.56 2661,-231 2702.3,-183.28 2705.71,-134.52 2662,-89 2612.58,-37.53 1559.1,-29.13 1239.27,-27.76"/>
<polygon fill="midnightblue" stroke="midnightblue" points="1603.56,-352.59 1594.26,-357.68 1604.7,-359.5 1603.56,-352.59"/>
</g>
<!-- Node28&#45;&gt;Node9 -->
<g id="edge43" class="edge">
<title>Node28&#45;&gt;Node9</title>
<path fill="none" stroke="midnightblue" d="M1604.02,-355.01C1642.8,-343.73 1687.8,-330.64 1726,-319.52"/>
<polygon fill="midnightblue" stroke="midnightblue" points="1602.93,-351.69 1594.31,-357.84 1604.89,-358.41 1602.93,-351.69"/>
</g>
<!-- Node28&#45;&gt;Node21 -->
<g id="edge41" class="edge">
<title>Node28&#45;&gt;Node21</title>
<path fill="none" stroke="midnightblue" d="M1422.3,-356.06C1422.2,-356.04 1422.1,-356.02 1422,-356 1300.05,-330.65 1157.15,-313.06 1066.37,-303.38"/>
<polygon fill="midnightblue" stroke="midnightblue" points="1421.25,-359.42 1431.77,-358.15 1422.76,-352.58 1421.25,-359.42"/>
</g>
<!-- Node29 -->
<g id="node29" class="node">
<title>Node29</title>
<g id="a_node29"><a xlink:href="java__class__loader_8cpp.html" target="_top" xlink:title=" ">
<polygon fill="none" stroke="black" points="1921,-267.5 1921,-319.5 2083,-319.5 2083,-267.5 1921,-267.5"/>
<text text-anchor="start" x="1929" y="-307.5" font-family="Helvetica,sans-Serif" font-size="10.00">/home/runner/work/diffblue</text>
<text text-anchor="start" x="1929" y="-296.5" font-family="Helvetica,sans-Serif" font-size="10.00">&#45;cbmc/diffblue&#45;cbmc/jbmc</text>
<text text-anchor="start" x="1929" y="-285.5" font-family="Helvetica,sans-Serif" font-size="10.00">/src/java_bytecode/java_class</text>
<text text-anchor="middle" x="2002" y="-274.5" font-family="Helvetica,sans-Serif" font-size="10.00">_loader.cpp</text>
</a>
</g>
</g>
<!-- Node28&#45;&gt;Node29 -->
<g id="edge44" class="edge">
<title>Node28&#45;&gt;Node29</title>
<path fill="none" stroke="midnightblue" d="M1604.27,-355.89C1740.44,-329.88 1779.56,-346.3 1912,-320 1914.87,-319.43 1917.78,-318.82 1920.71,-318.16"/>
<polygon fill="midnightblue" stroke="midnightblue" points="1603.44,-352.49 1594.29,-357.84 1604.78,-359.36 1603.44,-352.49"/>
</g>
<!-- Node31&#45;&gt;Node3 -->
<g id="edge48" class="edge">
<title>Node31&#45;&gt;Node3</title>
<path fill="none" stroke="midnightblue" d="M460.66,-82.65C449.05,-72.75 436.42,-61.98 425.44,-52.61"/>
<polygon fill="midnightblue" stroke="midnightblue" points="458.62,-85.51 468.5,-89.34 463.16,-80.18 458.62,-85.51"/>
</g>
<!-- Node31&#45;&gt;Node8 -->
<g id="edge49" class="edge">
<title>Node31&#45;&gt;Node8</title>
<path fill="none" stroke="midnightblue" d="M582.77,-88.83C787.34,-51.32 845.81,-86.32 1048,-53 1050.92,-52.52 1053.87,-51.99 1056.85,-51.43"/>
<polygon fill="midnightblue" stroke="midnightblue" points="582.1,-85.39 572.91,-90.67 583.39,-92.28 582.1,-85.39"/>
</g>
<!-- Node31&#45;&gt;Node24 -->
<g id="edge50" class="edge">
<title>Node31&#45;&gt;Node24</title>
<path fill="none" stroke="midnightblue" d="M582.34,-86.91C616.67,-75.69 656.02,-62.82 689.3,-51.93"/>
<polygon fill="midnightblue" stroke="midnightblue" points="581.22,-83.6 572.8,-90.03 583.4,-90.25 581.22,-83.6"/>
</g>
<!-- Node33 -->
<g id="node33" class="node">
<title>Node33</title>
<g id="a_node33"><a xlink:href="require__parse__tree_8cpp.html" target="_top" xlink:title=" ">
<polygon fill="none" stroke="black" points="385.5,-267.5 385.5,-319.5 534.5,-319.5 534.5,-267.5 385.5,-267.5"/>
<text text-anchor="start" x="393.5" y="-307.5" font-family="Helvetica,sans-Serif" font-size="10.00">/home/runner/work/diffblue</text>
<text text-anchor="start" x="393.5" y="-296.5" font-family="Helvetica,sans-Serif" font-size="10.00">&#45;cbmc/diffblue&#45;cbmc/jbmc</text>
<text text-anchor="start" x="393.5" y="-285.5" font-family="Helvetica,sans-Serif" font-size="10.00">/unit/java&#45;testing&#45;utils</text>
<text text-anchor="middle" x="460" y="-274.5" font-family="Helvetica,sans-Serif" font-size="10.00">/require_parse_tree.cpp</text>
</a>
</g>
</g>
<!-- Node32&#45;&gt;Node33 -->
<g id="edge52" class="edge">
<title>Node32&#45;&gt;Node33</title>
<path fill="none" stroke="midnightblue" d="M460,-346.19C460,-337.28 460,-327.9 460,-319.61"/>
<polygon fill="midnightblue" stroke="midnightblue" points="456.5,-346.34 460,-356.34 463.5,-346.34 456.5,-346.34"/>
</g>
<!-- Node34&#45;&gt;Node3 -->
<g id="edge55" class="edge">
<title>Node34&#45;&gt;Node3</title>
<path fill="none" stroke="midnightblue" d="M261.27,-441.01C271.34,-406.32 286,-346.82 286,-294.5 286,-294.5 286,-294.5 286,-203.5 286,-142.06 334.79,-84.39 367.39,-52.72"/>
<polygon fill="midnightblue" stroke="midnightblue" points="257.81,-440.36 258.32,-450.94 264.52,-442.36 257.81,-440.36"/>
</g>
</g>
</svg>
