<?xml version="1.0" encoding="UTF-8" standalone="no"?>
<!DOCTYPE svg PUBLIC "-//W3C//DTD SVG 1.1//EN"
 "http://www.w3.org/Graphics/SVG/1.1/DTD/svg11.dtd">
<!-- Generated by graphviz version 2.43.0 (0)
 -->
<!-- Title: /home/runner/work/diffblue&#45;cbmc/diffblue&#45;cbmc/jbmc/src/java_bytecode/bytecode_info.cpp Pages: 1 -->
<svg width="164pt" height="173pt"
 viewBox="0.00 0.00 164.00 173.00" xmlns="http://www.w3.org/2000/svg" xmlns:xlink="http://www.w3.org/1999/xlink">
<g id="graph0" class="graph" transform="scale(1 1) rotate(0) translate(4 169)">
<title>/home/runner/work/diffblue&#45;cbmc/diffblue&#45;cbmc/jbmc/src/java_bytecode/bytecode_info.cpp</title>
<!-- Node1 -->
<g id="node1" class="node">
<title>Node1</title>
<g id="a_node1"><a xlink:title=" ">
<polygon fill="#bfbfbf" stroke="black" points="0,-112.5 0,-164.5 156,-164.5 156,-112.5 0,-112.5"/>
<text text-anchor="start" x="8" y="-152.5" font-family="Helvetica,sans-Serif" font-size="10.00">/home/runner/work/diffblue</text>
<text text-anchor="start" x="8" y="-141.5" font-family="Helvetica,sans-Serif" font-size="10.00">&#45;cbmc/diffblue&#45;cbmc/jbmc</text>
<text text-anchor="start" x="8" y="-130.5" font-family="Helvetica,sans-Serif" font-size="10.00">/src/java_bytecode/bytecode</text>
<text text-anchor="middle" x="78" y="-119.5" font-family="Helvetica,sans-Serif" font-size="10.00">_info.cpp</text>
</a>
</g>
</g>
<!-- Node2 -->
<g id="node2" class="node">
<title>Node2</title>
<g id="a_node2"><a xlink:href="bytecode__info_8h.html" target="_top" xlink:title=" ">
<polygon fill="none" stroke="black" points="30.5,-56.5 30.5,-75.5 125.5,-75.5 125.5,-56.5 30.5,-56.5"/>
<text text-anchor="middle" x="78" y="-63.5" font-family="Helvetica,sans-Serif" font-size="10.00">bytecode_info.h</text>
</a>
</g>
</g>
<!-- Node1&#45;&gt;Node2 -->
<g id="edge1" class="edge">
<title>Node1&#45;&gt;Node2</title>
<path fill="none" stroke="midnightblue" d="M78,-112.45C78,-103.73 78,-94.1 78,-85.96"/>
<polygon fill="midnightblue" stroke="midnightblue" points="81.5,-85.7 78,-75.7 74.5,-85.7 81.5,-85.7"/>
</g>
<!-- Node3 -->
<g id="node3" class="node">
<title>Node3</title>
<g id="a_node3"><a xlink:title=" ">
<polygon fill="none" stroke="#bfbfbf" points="53,-0.5 53,-19.5 103,-19.5 103,-0.5 53,-0.5"/>
<text text-anchor="middle" x="78" y="-7.5" font-family="Helvetica,sans-Serif" font-size="10.00">cstdint</text>
</a>
</g>
</g>
<!-- Node2&#45;&gt;Node3 -->
<g id="edge2" class="edge">
<title>Node2&#45;&gt;Node3</title>
<path fill="none" stroke="midnightblue" d="M78,-56.08C78,-49.01 78,-38.86 78,-29.99"/>
<polygon fill="midnightblue" stroke="midnightblue" points="81.5,-29.75 78,-19.75 74.5,-29.75 81.5,-29.75"/>
</g>
</g>
</svg>
