<?xml version="1.0" encoding="UTF-8" standalone="no"?>
<!DOCTYPE svg PUBLIC "-//W3C//DTD SVG 1.1//EN"
 "http://www.w3.org/Graphics/SVG/1.1/DTD/svg11.dtd">
<!-- Generated by graphviz version 2.43.0 (0)
 -->
<!-- Title: /home/runner/work/diffblue&#45;cbmc/diffblue&#45;cbmc/src/libcprover&#45;rust/include/c_api.h Pages: 1 -->
<svg width="393pt" height="173pt"
 viewBox="0.00 0.00 392.50 173.00" xmlns="http://www.w3.org/2000/svg" xmlns:xlink="http://www.w3.org/1999/xlink">
<g id="graph0" class="graph" transform="scale(1 1) rotate(0) translate(4 169)">
<title>/home/runner/work/diffblue&#45;cbmc/diffblue&#45;cbmc/src/libcprover&#45;rust/include/c_api.h</title>
<!-- Node1 -->
<g id="node1" class="node">
<title>Node1</title>
<g id="a_node1"><a xlink:title=" ">
<polygon fill="#bfbfbf" stroke="black" points="95.5,-112.5 95.5,-164.5 244.5,-164.5 244.5,-112.5 95.5,-112.5"/>
<text text-anchor="start" x="103.5" y="-152.5" font-family="Helvetica,sans-Serif" font-size="10.00">/home/runner/work/diffblue</text>
<text text-anchor="start" x="103.5" y="-141.5" font-family="Helvetica,sans-Serif" font-size="10.00">&#45;cbmc/diffblue&#45;cbmc/src</text>
<text text-anchor="start" x="103.5" y="-130.5" font-family="Helvetica,sans-Serif" font-size="10.00">/libcprover&#45;rust/include</text>
<text text-anchor="middle" x="170" y="-119.5" font-family="Helvetica,sans-Serif" font-size="10.00">/c_api.h</text>
</a>
</g>
</g>
<!-- Node2 -->
<g id="node2" class="node">
<title>Node2</title>
<g id="a_node2"><a xlink:title=" ">
<polygon fill="none" stroke="#bfbfbf" points="0,-56.5 0,-75.5 58,-75.5 58,-56.5 0,-56.5"/>
<text text-anchor="middle" x="29" y="-63.5" font-family="Helvetica,sans-Serif" font-size="10.00">memory</text>
</a>
</g>
</g>
<!-- Node1&#45;&gt;Node2 -->
<g id="edge1" class="edge">
<title>Node1&#45;&gt;Node2</title>
<path fill="none" stroke="midnightblue" d="M119.89,-112.45C98.12,-101.56 73.51,-89.25 55.39,-80.2"/>
<polygon fill="midnightblue" stroke="midnightblue" points="56.56,-76.87 46.05,-75.53 53.43,-83.13 56.56,-76.87"/>
</g>
<!-- Node3 -->
<g id="node3" class="node">
<title>Node3</title>
<g id="a_node3"><a xlink:title=" ">
<polygon fill="none" stroke="#bfbfbf" points="76.5,-56.5 76.5,-75.5 141.5,-75.5 141.5,-56.5 76.5,-56.5"/>
<text text-anchor="middle" x="109" y="-63.5" font-family="Helvetica,sans-Serif" font-size="10.00">stdexcept</text>
</a>
</g>
</g>
<!-- Node1&#45;&gt;Node3 -->
<g id="edge2" class="edge">
<title>Node1&#45;&gt;Node3</title>
<path fill="none" stroke="midnightblue" d="M148.32,-112.45C140,-102.83 130.72,-92.1 123.27,-83.49"/>
<polygon fill="midnightblue" stroke="midnightblue" points="125.71,-80.97 116.52,-75.7 120.42,-85.55 125.71,-80.97"/>
</g>
<!-- Node4 -->
<g id="node4" class="node">
<title>Node4</title>
<g id="a_node4"><a xlink:title=" ">
<polygon fill="none" stroke="#bfbfbf" points="229,-0.5 229,-19.5 273,-19.5 273,-0.5 229,-0.5"/>
<text text-anchor="middle" x="251" y="-7.5" font-family="Helvetica,sans-Serif" font-size="10.00">string</text>
</a>
</g>
</g>
<!-- Node1&#45;&gt;Node4 -->
<g id="edge3" class="edge">
<title>Node1&#45;&gt;Node4</title>
<path fill="none" stroke="midnightblue" d="M171.72,-112.18C173.91,-95.11 178.85,-72.73 190,-56 198.61,-43.09 212.23,-32.52 224.42,-24.88"/>
<polygon fill="midnightblue" stroke="midnightblue" points="226.52,-27.71 233.36,-19.62 222.97,-21.68 226.52,-27.71"/>
</g>
<!-- Node5 -->
<g id="node5" class="node">
<title>Node5</title>
<g id="a_node5"><a xlink:title=" ">
<polygon fill="none" stroke="#bfbfbf" points="198.5,-56.5 198.5,-75.5 263.5,-75.5 263.5,-56.5 198.5,-56.5"/>
<text text-anchor="middle" x="231" y="-63.5" font-family="Helvetica,sans-Serif" font-size="10.00">rust/cxx.h</text>
</a>
</g>
</g>
<!-- Node1&#45;&gt;Node5 -->
<g id="edge4" class="edge">
<title>Node1&#45;&gt;Node5</title>
<path fill="none" stroke="midnightblue" d="M191.68,-112.45C200,-102.83 209.28,-92.1 216.73,-83.49"/>
<polygon fill="midnightblue" stroke="midnightblue" points="219.58,-85.55 223.48,-75.7 214.29,-80.97 219.58,-85.55"/>
</g>
<!-- Node6 -->
<g id="node6" class="node">
<title>Node6</title>
<g id="a_node6"><a xlink:href="c__errors_8h.html" target="_top" xlink:title=" ">
<polygon fill="none" stroke="black" points="281.5,-56.5 281.5,-75.5 384.5,-75.5 384.5,-56.5 281.5,-56.5"/>
<text text-anchor="middle" x="333" y="-63.5" font-family="Helvetica,sans-Serif" font-size="10.00">include/c_errors.h</text>
</a>
</g>
</g>
<!-- Node1&#45;&gt;Node6 -->
<g id="edge5" class="edge">
<title>Node1&#45;&gt;Node6</title>
<path fill="none" stroke="midnightblue" d="M227.93,-112.45C253.68,-101.31 282.87,-88.68 303.93,-79.57"/>
<polygon fill="midnightblue" stroke="midnightblue" points="305.5,-82.71 313.29,-75.53 302.72,-76.28 305.5,-82.71"/>
</g>
<!-- Node6&#45;&gt;Node4 -->
<g id="edge6" class="edge">
<title>Node6&#45;&gt;Node4</title>
<path fill="none" stroke="midnightblue" d="M319.83,-56.32C307.15,-47.98 287.77,-35.21 272.79,-25.35"/>
<polygon fill="midnightblue" stroke="midnightblue" points="274.42,-22.23 264.14,-19.65 270.57,-28.08 274.42,-22.23"/>
</g>
</g>
</svg>
