<?xml version="1.0" encoding="UTF-8" standalone="no"?>
<!DOCTYPE svg PUBLIC "-//W3C//DTD SVG 1.1//EN"
 "http://www.w3.org/Graphics/SVG/1.1/DTD/svg11.dtd">
<!-- Generated by graphviz version 2.43.0 (0)
 -->
<!-- Title: /home/runner/work/diffblue&#45;cbmc/diffblue&#45;cbmc/src/crangler/c_defines.cpp Pages: 1 -->
<svg width="559pt" height="218pt"
 viewBox="0.00 0.00 559.00 218.00" xmlns="http://www.w3.org/2000/svg" xmlns:xlink="http://www.w3.org/1999/xlink">
<g id="graph0" class="graph" transform="scale(1 1) rotate(0) translate(4 214)">
<title>/home/runner/work/diffblue&#45;cbmc/diffblue&#45;cbmc/src/crangler/c_defines.cpp</title>
<!-- Node1 -->
<g id="node1" class="node">
<title>Node1</title>
<g id="a_node1"><a xlink:title="c_defines">
<polygon fill="#bfbfbf" stroke="black" points="267.5,-168.5 267.5,-209.5 416.5,-209.5 416.5,-168.5 267.5,-168.5"/>
<text text-anchor="start" x="275.5" y="-197.5" font-family="Helvetica,sans-Serif" font-size="10.00">/home/runner/work/diffblue</text>
<text text-anchor="start" x="275.5" y="-186.5" font-family="Helvetica,sans-Serif" font-size="10.00">&#45;cbmc/diffblue&#45;cbmc/src</text>
<text text-anchor="middle" x="342" y="-175.5" font-family="Helvetica,sans-Serif" font-size="10.00">/crangler/c_defines.cpp</text>
</a>
</g>
</g>
<!-- Node2 -->
<g id="node2" class="node">
<title>Node2</title>
<g id="a_node2"><a xlink:href="c__defines_8h.html" target="_top" xlink:title="c_defines">
<polygon fill="none" stroke="black" points="203.5,-112.5 203.5,-131.5 274.5,-131.5 274.5,-112.5 203.5,-112.5"/>
<text text-anchor="middle" x="239" y="-119.5" font-family="Helvetica,sans-Serif" font-size="10.00">c_defines.h</text>
</a>
</g>
</g>
<!-- Node1&#45;&gt;Node2 -->
<g id="edge1" class="edge">
<title>Node1&#45;&gt;Node2</title>
<path fill="none" stroke="midnightblue" d="M311.1,-168.5C295.15,-158.44 276.06,-146.38 261.52,-137.21"/>
<polygon fill="midnightblue" stroke="midnightblue" points="263.04,-134.03 252.71,-131.65 259.3,-139.95 263.04,-134.03"/>
</g>
<!-- Node7 -->
<g id="node7" class="node">
<title>Node7</title>
<g id="a_node7"><a xlink:href="cscanner_8h.html" target="_top" xlink:title="cscanner">
<polygon fill="none" stroke="black" points="409,-112.5 409,-131.5 477,-131.5 477,-112.5 409,-112.5"/>
<text text-anchor="middle" x="443" y="-119.5" font-family="Helvetica,sans-Serif" font-size="10.00">cscanner.h</text>
</a>
</g>
</g>
<!-- Node1&#45;&gt;Node7 -->
<g id="edge6" class="edge">
<title>Node1&#45;&gt;Node7</title>
<path fill="none" stroke="midnightblue" d="M372.3,-168.5C387.94,-158.44 406.66,-146.38 420.91,-137.21"/>
<polygon fill="midnightblue" stroke="midnightblue" points="423.04,-140.01 429.56,-131.65 419.25,-134.12 423.04,-140.01"/>
</g>
<!-- Node10 -->
<g id="node10" class="node">
<title>Node10</title>
<g id="a_node10"><a xlink:href="prefix_8h.html" target="_top" xlink:title=" ">
<polygon fill="none" stroke="black" points="0,-56.5 0,-75.5 72,-75.5 72,-56.5 0,-56.5"/>
<text text-anchor="middle" x="36" y="-63.5" font-family="Helvetica,sans-Serif" font-size="10.00">util/prefix.h</text>
</a>
</g>
</g>
<!-- Node1&#45;&gt;Node10 -->
<g id="edge12" class="edge">
<title>Node1&#45;&gt;Node10</title>
<path fill="none" stroke="midnightblue" d="M289.12,-168.41C260.82,-157.82 225.43,-144.41 194,-132 149.19,-114.31 97.64,-92.9 65.94,-79.61"/>
<polygon fill="midnightblue" stroke="midnightblue" points="66.95,-76.24 56.38,-75.6 64.24,-82.7 66.95,-76.24"/>
</g>
<!-- Node11 -->
<g id="node11" class="node">
<title>Node11</title>
<g id="a_node11"><a xlink:href="string__utils_8h.html" target="_top" xlink:title=" ">
<polygon fill="none" stroke="black" points="293,-112.5 293,-131.5 391,-131.5 391,-112.5 293,-112.5"/>
<text text-anchor="middle" x="342" y="-119.5" font-family="Helvetica,sans-Serif" font-size="10.00">util/string_utils.h</text>
</a>
</g>
</g>
<!-- Node1&#45;&gt;Node11 -->
<g id="edge14" class="edge">
<title>Node1&#45;&gt;Node11</title>
<path fill="none" stroke="midnightblue" d="M342,-168.5C342,-160.07 342,-150.24 342,-141.87"/>
<polygon fill="midnightblue" stroke="midnightblue" points="345.5,-141.65 342,-131.65 338.5,-141.65 345.5,-141.65"/>
</g>
<!-- Node12 -->
<g id="node12" class="node">
<title>Node12</title>
<g id="a_node12"><a xlink:title=" ">
<polygon fill="none" stroke="#bfbfbf" points="495,-112.5 495,-131.5 551,-131.5 551,-112.5 495,-112.5"/>
<text text-anchor="middle" x="523" y="-119.5" font-family="Helvetica,sans-Serif" font-size="10.00">sstream</text>
</a>
</g>
</g>
<!-- Node1&#45;&gt;Node12 -->
<g id="edge17" class="edge">
<title>Node1&#45;&gt;Node12</title>
<path fill="none" stroke="midnightblue" d="M396.31,-168.5C426.59,-157.62 463.35,-144.42 489.46,-135.05"/>
<polygon fill="midnightblue" stroke="midnightblue" points="490.68,-138.33 498.91,-131.65 488.31,-131.74 490.68,-138.33"/>
</g>
<!-- Node3 -->
<g id="node3" class="node">
<title>Node3</title>
<g id="a_node3"><a xlink:title=" ">
<polygon fill="none" stroke="#bfbfbf" points="240,-56.5 240,-75.5 296,-75.5 296,-56.5 240,-56.5"/>
<text text-anchor="middle" x="268" y="-63.5" font-family="Helvetica,sans-Serif" font-size="10.00">optional</text>
</a>
</g>
</g>
<!-- Node2&#45;&gt;Node3 -->
<g id="edge2" class="edge">
<title>Node2&#45;&gt;Node3</title>
<path fill="none" stroke="midnightblue" d="M243.79,-112.08C247.76,-104.69 253.53,-93.95 258.43,-84.81"/>
<polygon fill="midnightblue" stroke="midnightblue" points="261.65,-86.22 263.3,-75.75 255.49,-82.91 261.65,-86.22"/>
</g>
<!-- Node4 -->
<g id="node4" class="node">
<title>Node4</title>
<g id="a_node4"><a xlink:title=" ">
<polygon fill="none" stroke="#bfbfbf" points="248,-0.5 248,-19.5 292,-19.5 292,-0.5 248,-0.5"/>
<text text-anchor="middle" x="270" y="-7.5" font-family="Helvetica,sans-Serif" font-size="10.00">string</text>
</a>
</g>
</g>
<!-- Node2&#45;&gt;Node4 -->
<g id="edge3" class="edge">
<title>Node2&#45;&gt;Node4</title>
<path fill="none" stroke="midnightblue" d="M203.49,-115.65C159.77,-107.51 94.15,-89.34 119,-56 146.19,-19.53 201.77,-11.45 237.39,-10.27"/>
<polygon fill="midnightblue" stroke="midnightblue" points="237.8,-13.76 247.75,-10.1 237.69,-6.76 237.8,-13.76"/>
</g>
<!-- Node5 -->
<g id="node5" class="node">
<title>Node5</title>
<g id="a_node5"><a xlink:title=" ">
<polygon fill="none" stroke="#bfbfbf" points="128.5,-56.5 128.5,-75.5 221.5,-75.5 221.5,-56.5 128.5,-56.5"/>
<text text-anchor="middle" x="175" y="-63.5" font-family="Helvetica,sans-Serif" font-size="10.00">unordered_map</text>
</a>
</g>
</g>
<!-- Node2&#45;&gt;Node5 -->
<g id="edge4" class="edge">
<title>Node2&#45;&gt;Node5</title>
<path fill="none" stroke="midnightblue" d="M228.72,-112.32C219.16,-104.26 204.72,-92.08 193.22,-82.37"/>
<polygon fill="midnightblue" stroke="midnightblue" points="195.37,-79.61 185.47,-75.83 190.86,-84.96 195.37,-79.61"/>
</g>
<!-- Node6 -->
<g id="node6" class="node">
<title>Node6</title>
<g id="a_node6"><a xlink:title=" ">
<polygon fill="none" stroke="#bfbfbf" points="314.5,-56.5 314.5,-75.5 361.5,-75.5 361.5,-56.5 314.5,-56.5"/>
<text text-anchor="middle" x="338" y="-63.5" font-family="Helvetica,sans-Serif" font-size="10.00">vector</text>
</a>
</g>
</g>
<!-- Node2&#45;&gt;Node6 -->
<g id="edge5" class="edge">
<title>Node2&#45;&gt;Node6</title>
<path fill="none" stroke="midnightblue" d="M254.91,-112.32C270.64,-103.74 294.94,-90.49 313.21,-80.52"/>
<polygon fill="midnightblue" stroke="midnightblue" points="315.03,-83.52 322.13,-75.65 311.68,-77.37 315.03,-83.52"/>
</g>
<!-- Node7&#45;&gt;Node6 -->
<g id="edge8" class="edge">
<title>Node7&#45;&gt;Node6</title>
<path fill="none" stroke="midnightblue" d="M426.13,-112.32C409.29,-103.66 383.19,-90.24 363.76,-80.25"/>
<polygon fill="midnightblue" stroke="midnightblue" points="365.32,-77.12 354.83,-75.65 362.12,-83.34 365.32,-77.12"/>
</g>
<!-- Node8 -->
<g id="node8" class="node">
<title>Node8</title>
<g id="a_node8"><a xlink:title=" ">
<polygon fill="none" stroke="#bfbfbf" points="451,-0.5 451,-19.5 499,-19.5 499,-0.5 451,-0.5"/>
<text text-anchor="middle" x="475" y="-7.5" font-family="Helvetica,sans-Serif" font-size="10.00">iosfwd</text>
</a>
</g>
</g>
<!-- Node7&#45;&gt;Node8 -->
<g id="edge7" class="edge">
<title>Node7&#45;&gt;Node8</title>
<path fill="none" stroke="midnightblue" d="M455.21,-112.24C465.35,-104.14 479.04,-91.11 485,-76 490.95,-60.91 487.22,-42.56 482.72,-29.21"/>
<polygon fill="midnightblue" stroke="midnightblue" points="485.94,-27.83 479.11,-19.73 479.4,-30.32 485.94,-27.83"/>
</g>
<!-- Node9 -->
<g id="node9" class="node">
<title>Node9</title>
<g id="a_node9"><a xlink:href="ctoken_8h.html" target="_top" xlink:title="ctoken">
<polygon fill="none" stroke="black" points="418,-56.5 418,-75.5 476,-75.5 476,-56.5 418,-56.5"/>
<text text-anchor="middle" x="447" y="-63.5" font-family="Helvetica,sans-Serif" font-size="10.00">ctoken.h</text>
</a>
</g>
</g>
<!-- Node7&#45;&gt;Node9 -->
<g id="edge9" class="edge">
<title>Node7&#45;&gt;Node9</title>
<path fill="none" stroke="midnightblue" d="M443.66,-112.08C444.18,-105.01 444.94,-94.86 445.59,-85.99"/>
<polygon fill="midnightblue" stroke="midnightblue" points="449.1,-85.98 446.35,-75.75 442.12,-85.47 449.1,-85.98"/>
</g>
<!-- Node9&#45;&gt;Node4 -->
<g id="edge11" class="edge">
<title>Node9&#45;&gt;Node4</title>
<path fill="none" stroke="midnightblue" d="M418.95,-56.44C387.06,-46.71 335.11,-30.86 301.76,-20.69"/>
<polygon fill="midnightblue" stroke="midnightblue" points="302.63,-17.3 292.04,-17.73 300.59,-23.99 302.63,-17.3"/>
</g>
<!-- Node9&#45;&gt;Node8 -->
<g id="edge10" class="edge">
<title>Node9&#45;&gt;Node8</title>
<path fill="none" stroke="midnightblue" d="M451.62,-56.08C455.46,-48.69 461.02,-37.95 465.76,-28.81"/>
<polygon fill="midnightblue" stroke="midnightblue" points="468.97,-30.24 470.46,-19.75 462.75,-27.02 468.97,-30.24"/>
</g>
<!-- Node10&#45;&gt;Node4 -->
<g id="edge13" class="edge">
<title>Node10&#45;&gt;Node4</title>
<path fill="none" stroke="midnightblue" d="M72.05,-56.68C117.41,-46.21 194.61,-28.4 237.98,-18.39"/>
<polygon fill="midnightblue" stroke="midnightblue" points="239.03,-21.74 247.99,-16.08 237.45,-14.92 239.03,-21.74"/>
</g>
<!-- Node11&#45;&gt;Node4 -->
<g id="edge15" class="edge">
<title>Node11&#45;&gt;Node4</title>
<path fill="none" stroke="midnightblue" d="M351.35,-112.15C363.85,-99.21 383.11,-74.66 371,-56 355.88,-32.72 325.62,-21.38 302.14,-15.92"/>
<polygon fill="midnightblue" stroke="midnightblue" points="302.74,-12.47 292.24,-13.86 301.32,-19.32 302.74,-12.47"/>
</g>
<!-- Node11&#45;&gt;Node6 -->
<g id="edge16" class="edge">
<title>Node11&#45;&gt;Node6</title>
<path fill="none" stroke="midnightblue" d="M341.34,-112.08C340.82,-105.01 340.06,-94.86 339.41,-85.99"/>
<polygon fill="midnightblue" stroke="midnightblue" points="342.88,-85.47 338.65,-75.75 335.9,-85.98 342.88,-85.47"/>
</g>
</g>
</svg>
