<?xml version="1.0" encoding="UTF-8" standalone="no"?>
<!DOCTYPE svg PUBLIC "-//W3C//DTD SVG 1.1//EN"
 "http://www.w3.org/Graphics/SVG/1.1/DTD/svg11.dtd">
<!-- Generated by graphviz version 2.43.0 (0)
 -->
<!-- Title: /home/runner/work/diffblue&#45;cbmc/diffblue&#45;cbmc/src/ansi&#45;c/c_expr.h Pages: 1 -->
<svg width="3323pt" height="150pt"
 viewBox="0.00 0.00 3322.50 150.00" xmlns="http://www.w3.org/2000/svg" xmlns:xlink="http://www.w3.org/1999/xlink">
<g id="graph0" class="graph" transform="scale(1 1) rotate(0) translate(4 146)">
<title>/home/runner/work/diffblue&#45;cbmc/diffblue&#45;cbmc/src/ansi&#45;c/c_expr.h</title>
<!-- Node1 -->
<g id="node1" class="node">
<title>Node1</title>
<g id="a_node1"><a xlink:title="API to expression classes that are internal to the C frontend.">
<polygon fill="#bfbfbf" stroke="black" points="1524,-100.5 1524,-141.5 1673,-141.5 1673,-100.5 1524,-100.5"/>
<text text-anchor="start" x="1532" y="-129.5" font-family="Helvetica,sans-Serif" font-size="10.00">/home/runner/work/diffblue</text>
<text text-anchor="start" x="1532" y="-118.5" font-family="Helvetica,sans-Serif" font-size="10.00">&#45;cbmc/diffblue&#45;cbmc/src</text>
<text text-anchor="middle" x="1598.5" y="-107.5" font-family="Helvetica,sans-Serif" font-size="10.00">/ansi&#45;c/c_expr.h</text>
</a>
</g>
</g>
<!-- Node2 -->
<g id="node2" class="node">
<title>Node2</title>
<g id="a_node2"><a xlink:href="c__expr_8cpp.html" target="_top" xlink:title=" ">
<polygon fill="none" stroke="black" points="0,-11.5 0,-52.5 149,-52.5 149,-11.5 0,-11.5"/>
<text text-anchor="start" x="8" y="-40.5" font-family="Helvetica,sans-Serif" font-size="10.00">/home/runner/work/diffblue</text>
<text text-anchor="start" x="8" y="-29.5" font-family="Helvetica,sans-Serif" font-size="10.00">&#45;cbmc/diffblue&#45;cbmc/src</text>
<text text-anchor="middle" x="74.5" y="-18.5" font-family="Helvetica,sans-Serif" font-size="10.00">/ansi&#45;c/c_expr.cpp</text>
</a>
</g>
</g>
<!-- Node1&#45;&gt;Node2 -->
<g id="edge1" class="edge">
<title>Node1&#45;&gt;Node2</title>
<path fill="none" stroke="midnightblue" d="M1513.76,-120.23C1245.84,-120.41 419.39,-116.58 157.5,-64 144.68,-61.43 131.22,-57.14 118.97,-52.57"/>
<polygon fill="midnightblue" stroke="midnightblue" points="1513.82,-123.73 1523.81,-120.22 1513.81,-116.73 1513.82,-123.73"/>
</g>
<!-- Node3 -->
<g id="node3" class="node">
<title>Node3</title>
<g id="a_node3"><a xlink:href="c__typecheck__code_8cpp.html" target="_top" xlink:title="C Language Type Checking.">
<polygon fill="none" stroke="black" points="167,-11.5 167,-52.5 328,-52.5 328,-11.5 167,-11.5"/>
<text text-anchor="start" x="175" y="-40.5" font-family="Helvetica,sans-Serif" font-size="10.00">/home/runner/work/diffblue</text>
<text text-anchor="start" x="175" y="-29.5" font-family="Helvetica,sans-Serif" font-size="10.00">&#45;cbmc/diffblue&#45;cbmc/src</text>
<text text-anchor="middle" x="247.5" y="-18.5" font-family="Helvetica,sans-Serif" font-size="10.00">/ansi&#45;c/c_typecheck_code.cpp</text>
</a>
</g>
</g>
<!-- Node1&#45;&gt;Node3 -->
<g id="edge2" class="edge">
<title>Node1&#45;&gt;Node3</title>
<path fill="none" stroke="midnightblue" d="M1513.61,-119.44C1268.53,-117.31 562.89,-107.48 336.5,-64 322.84,-61.38 308.44,-57.08 295.3,-52.51"/>
<polygon fill="midnightblue" stroke="midnightblue" points="1513.86,-122.94 1523.89,-119.53 1513.92,-115.94 1513.86,-122.94"/>
</g>
<!-- Node4 -->
<g id="node4" class="node">
<title>Node4</title>
<g id="a_node4"><a xlink:href="c__typecheck__expr_8cpp.html" target="_top" xlink:title="ANSI&#45;C Language Type Checking.">
<polygon fill="none" stroke="black" points="346,-11.5 346,-52.5 505,-52.5 505,-11.5 346,-11.5"/>
<text text-anchor="start" x="354" y="-40.5" font-family="Helvetica,sans-Serif" font-size="10.00">/home/runner/work/diffblue</text>
<text text-anchor="start" x="354" y="-29.5" font-family="Helvetica,sans-Serif" font-size="10.00">&#45;cbmc/diffblue&#45;cbmc/src</text>
<text text-anchor="middle" x="425.5" y="-18.5" font-family="Helvetica,sans-Serif" font-size="10.00">/ansi&#45;c/c_typecheck_expr.cpp</text>
</a>
</g>
</g>
<!-- Node1&#45;&gt;Node4 -->
<g id="edge3" class="edge">
<title>Node1&#45;&gt;Node4</title>
<path fill="none" stroke="midnightblue" d="M1513.52,-118.71C1292.81,-114.88 705.3,-101.37 514.5,-64 501.01,-61.36 486.79,-57.11 473.78,-52.6"/>
<polygon fill="midnightblue" stroke="midnightblue" points="1513.69,-122.22 1523.75,-118.89 1513.81,-115.22 1513.69,-122.22"/>
</g>
<!-- Node5 -->
<g id="node5" class="node">
<title>Node5</title>
<g id="a_node5"><a xlink:href="c__typecheck__gcc__polymorphic__builtins_8cpp.html" target="_top" xlink:title="ANSI&#45;C Language Type Checking.">
<polygon fill="none" stroke="black" points="523.5,-6 523.5,-58 723.5,-58 723.5,-6 523.5,-6"/>
<text text-anchor="start" x="531.5" y="-46" font-family="Helvetica,sans-Serif" font-size="10.00">/home/runner/work/diffblue</text>
<text text-anchor="start" x="531.5" y="-35" font-family="Helvetica,sans-Serif" font-size="10.00">&#45;cbmc/diffblue&#45;cbmc/src</text>
<text text-anchor="start" x="531.5" y="-24" font-family="Helvetica,sans-Serif" font-size="10.00">/ansi&#45;c/c_typecheck_gcc_polymorphic</text>
<text text-anchor="middle" x="623.5" y="-13" font-family="Helvetica,sans-Serif" font-size="10.00">_builtins.cpp</text>
</a>
</g>
</g>
<!-- Node1&#45;&gt;Node5 -->
<g id="edge4" class="edge">
<title>Node1&#45;&gt;Node5</title>
<path fill="none" stroke="midnightblue" d="M1513.28,-120.46C1357.2,-119.99 1015.51,-112.82 732.5,-64 723.29,-62.41 713.75,-60.34 704.31,-58.03"/>
<polygon fill="midnightblue" stroke="midnightblue" points="1513.73,-123.96 1523.74,-120.48 1513.74,-116.96 1513.73,-123.96"/>
</g>
<!-- Node6 -->
<g id="node6" class="node">
<title>Node6</title>
<g id="a_node6"><a xlink:href="goto__check__c_8cpp.html" target="_top" xlink:title="Checks for Errors in C/C++ Programs.">
<polygon fill="none" stroke="black" points="742,-6 742,-58 897,-58 897,-6 742,-6"/>
<text text-anchor="start" x="750" y="-46" font-family="Helvetica,sans-Serif" font-size="10.00">/home/runner/work/diffblue</text>
<text text-anchor="start" x="750" y="-35" font-family="Helvetica,sans-Serif" font-size="10.00">&#45;cbmc/diffblue&#45;cbmc/src</text>
<text text-anchor="start" x="750" y="-24" font-family="Helvetica,sans-Serif" font-size="10.00">/ansi&#45;c/goto&#45;conversion/goto</text>
<text text-anchor="middle" x="819.5" y="-13" font-family="Helvetica,sans-Serif" font-size="10.00">_check_c.cpp</text>
</a>
</g>
</g>
<!-- Node1&#45;&gt;Node6 -->
<g id="edge5" class="edge">
<title>Node1&#45;&gt;Node6</title>
<path fill="none" stroke="midnightblue" d="M1513.95,-120.34C1382.35,-119.27 1121.22,-110.72 905.5,-64 898.21,-62.42 890.7,-60.38 883.29,-58.09"/>
<polygon fill="midnightblue" stroke="midnightblue" points="1513.94,-123.84 1523.97,-120.41 1513.99,-116.84 1513.94,-123.84"/>
</g>
<!-- Node7 -->
<g id="node7" class="node">
<title>Node7</title>
<g id="a_node7"><a xlink:href="goto__convert__side__effect_8cpp.html" target="_top" xlink:title="Program Transformation.">
<polygon fill="none" stroke="black" points="915,-6 915,-58 1070,-58 1070,-6 915,-6"/>
<text text-anchor="start" x="923" y="-46" font-family="Helvetica,sans-Serif" font-size="10.00">/home/runner/work/diffblue</text>
<text text-anchor="start" x="923" y="-35" font-family="Helvetica,sans-Serif" font-size="10.00">&#45;cbmc/diffblue&#45;cbmc/src</text>
<text text-anchor="start" x="923" y="-24" font-family="Helvetica,sans-Serif" font-size="10.00">/ansi&#45;c/goto&#45;conversion/goto</text>
<text text-anchor="middle" x="992.5" y="-13" font-family="Helvetica,sans-Serif" font-size="10.00">_convert_side_effect.cpp</text>
</a>
</g>
</g>
<!-- Node1&#45;&gt;Node7 -->
<g id="edge6" class="edge">
<title>Node1&#45;&gt;Node7</title>
<path fill="none" stroke="midnightblue" d="M1513.84,-117.08C1410.07,-112.09 1229.42,-98.8 1078.5,-64 1071.39,-62.36 1064.05,-60.31 1056.81,-58.05"/>
<polygon fill="midnightblue" stroke="midnightblue" points="1513.8,-120.58 1523.95,-117.55 1514.12,-113.59 1513.8,-120.58"/>
</g>
<!-- Node8 -->
<g id="node8" class="node">
<title>Node8</title>
<g id="a_node8"><a xlink:href="contracts_8cpp.html" target="_top" xlink:title="Verify and use annotated loop and function contracts.">
<polygon fill="none" stroke="black" points="1088,-6 1088,-58 1237,-58 1237,-6 1088,-6"/>
<text text-anchor="start" x="1096" y="-46" font-family="Helvetica,sans-Serif" font-size="10.00">/home/runner/work/diffblue</text>
<text text-anchor="start" x="1096" y="-35" font-family="Helvetica,sans-Serif" font-size="10.00">&#45;cbmc/diffblue&#45;cbmc/src</text>
<text text-anchor="start" x="1096" y="-24" font-family="Helvetica,sans-Serif" font-size="10.00">/goto&#45;instrument/contracts</text>
<text text-anchor="middle" x="1162.5" y="-13" font-family="Helvetica,sans-Serif" font-size="10.00">/contracts.cpp</text>
</a>
</g>
</g>
<!-- Node1&#45;&gt;Node8 -->
<g id="edge7" class="edge">
<title>Node1&#45;&gt;Node8</title>
<path fill="none" stroke="midnightblue" d="M1513.96,-111.41C1441.83,-102.93 1335.77,-87.76 1245.5,-64 1238.95,-62.28 1232.21,-60.23 1225.52,-58.02"/>
<polygon fill="midnightblue" stroke="midnightblue" points="1513.58,-114.88 1523.91,-112.56 1514.38,-107.93 1513.58,-114.88"/>
</g>
<!-- Node9 -->
<g id="node9" class="node">
<title>Node9</title>
<g id="a_node9"><a xlink:href="dfcc_8cpp.html" target="_top" xlink:title=" ">
<polygon fill="none" stroke="black" points="1255,-6 1255,-58 1404,-58 1404,-6 1255,-6"/>
<text text-anchor="start" x="1263" y="-46" font-family="Helvetica,sans-Serif" font-size="10.00">/home/runner/work/diffblue</text>
<text text-anchor="start" x="1263" y="-35" font-family="Helvetica,sans-Serif" font-size="10.00">&#45;cbmc/diffblue&#45;cbmc/src</text>
<text text-anchor="start" x="1263" y="-24" font-family="Helvetica,sans-Serif" font-size="10.00">/goto&#45;instrument/contracts</text>
<text text-anchor="middle" x="1329.5" y="-13" font-family="Helvetica,sans-Serif" font-size="10.00">/dynamic&#45;frames/dfcc.cpp</text>
</a>
</g>
</g>
<!-- Node1&#45;&gt;Node9 -->
<g id="edge8" class="edge">
<title>Node1&#45;&gt;Node9</title>
<path fill="none" stroke="midnightblue" d="M1520.02,-97.6C1486.71,-87.78 1447.55,-75.81 1412.5,-64 1406.96,-62.13 1401.24,-60.14 1395.51,-58.09"/>
<polygon fill="midnightblue" stroke="midnightblue" points="1519.12,-100.99 1529.7,-100.45 1521.09,-94.27 1519.12,-100.99"/>
</g>
<!-- Node10 -->
<g id="node10" class="node">
<title>Node10</title>
<g id="a_node10"><a xlink:href="dfcc__contract__clauses__codegen_8cpp.html" target="_top" xlink:title=" ">
<polygon fill="none" stroke="black" points="1421.5,-0.5 1421.5,-63.5 1589.5,-63.5 1589.5,-0.5 1421.5,-0.5"/>
<text text-anchor="start" x="1429.5" y="-51.5" font-family="Helvetica,sans-Serif" font-size="10.00">/home/runner/work/diffblue</text>
<text text-anchor="start" x="1429.5" y="-40.5" font-family="Helvetica,sans-Serif" font-size="10.00">&#45;cbmc/diffblue&#45;cbmc/src</text>
<text text-anchor="start" x="1429.5" y="-29.5" font-family="Helvetica,sans-Serif" font-size="10.00">/goto&#45;instrument/contracts</text>
<text text-anchor="start" x="1429.5" y="-18.5" font-family="Helvetica,sans-Serif" font-size="10.00">/dynamic&#45;frames/dfcc_contract</text>
<text text-anchor="middle" x="1505.5" y="-7.5" font-family="Helvetica,sans-Serif" font-size="10.00">_clauses_codegen.cpp</text>
</a>
</g>
</g>
<!-- Node1&#45;&gt;Node10 -->
<g id="edge9" class="edge">
<title>Node1&#45;&gt;Node10</title>
<path fill="none" stroke="midnightblue" d="M1570.01,-93.34C1559.95,-83.94 1548.57,-73.29 1538.2,-63.59"/>
<polygon fill="midnightblue" stroke="midnightblue" points="1567.7,-95.98 1577.4,-100.26 1572.49,-90.87 1567.7,-95.98"/>
</g>
<!-- Node11 -->
<g id="node11" class="node">
<title>Node11</title>
<g id="a_node11"><a xlink:href="dfcc__contract__functions_8cpp.html" target="_top" xlink:title=" ">
<polygon fill="none" stroke="black" points="1607.5,-0.5 1607.5,-63.5 1775.5,-63.5 1775.5,-0.5 1607.5,-0.5"/>
<text text-anchor="start" x="1615.5" y="-51.5" font-family="Helvetica,sans-Serif" font-size="10.00">/home/runner/work/diffblue</text>
<text text-anchor="start" x="1615.5" y="-40.5" font-family="Helvetica,sans-Serif" font-size="10.00">&#45;cbmc/diffblue&#45;cbmc/src</text>
<text text-anchor="start" x="1615.5" y="-29.5" font-family="Helvetica,sans-Serif" font-size="10.00">/goto&#45;instrument/contracts</text>
<text text-anchor="start" x="1615.5" y="-18.5" font-family="Helvetica,sans-Serif" font-size="10.00">/dynamic&#45;frames/dfcc_contract</text>
<text text-anchor="middle" x="1691.5" y="-7.5" font-family="Helvetica,sans-Serif" font-size="10.00">_functions.cpp</text>
</a>
</g>
</g>
<!-- Node1&#45;&gt;Node11 -->
<g id="edge10" class="edge">
<title>Node1&#45;&gt;Node11</title>
<path fill="none" stroke="midnightblue" d="M1626.99,-93.34C1637.05,-83.94 1648.43,-73.29 1658.8,-63.59"/>
<polygon fill="midnightblue" stroke="midnightblue" points="1624.51,-90.87 1619.6,-100.26 1629.3,-95.98 1624.51,-90.87"/>
</g>
<!-- Node12 -->
<g id="node12" class="node">
<title>Node12</title>
<g id="a_node12"><a xlink:href="dfcc__contract__handler_8cpp.html" target="_top" xlink:title=" ">
<polygon fill="none" stroke="black" points="1793.5,-0.5 1793.5,-63.5 1961.5,-63.5 1961.5,-0.5 1793.5,-0.5"/>
<text text-anchor="start" x="1801.5" y="-51.5" font-family="Helvetica,sans-Serif" font-size="10.00">/home/runner/work/diffblue</text>
<text text-anchor="start" x="1801.5" y="-40.5" font-family="Helvetica,sans-Serif" font-size="10.00">&#45;cbmc/diffblue&#45;cbmc/src</text>
<text text-anchor="start" x="1801.5" y="-29.5" font-family="Helvetica,sans-Serif" font-size="10.00">/goto&#45;instrument/contracts</text>
<text text-anchor="start" x="1801.5" y="-18.5" font-family="Helvetica,sans-Serif" font-size="10.00">/dynamic&#45;frames/dfcc_contract</text>
<text text-anchor="middle" x="1877.5" y="-7.5" font-family="Helvetica,sans-Serif" font-size="10.00">_handler.cpp</text>
</a>
</g>
</g>
<!-- Node1&#45;&gt;Node12 -->
<g id="edge11" class="edge">
<title>Node1&#45;&gt;Node12</title>
<path fill="none" stroke="midnightblue" d="M1675.13,-97.48C1708.76,-87.45 1748.66,-75.37 1784.5,-64 1787.42,-63.07 1790.39,-62.12 1793.39,-61.16"/>
<polygon fill="midnightblue" stroke="midnightblue" points="1673.95,-94.18 1665.36,-100.38 1675.95,-100.89 1673.95,-94.18"/>
</g>
<!-- Node13 -->
<g id="node13" class="node">
<title>Node13</title>
<g id="a_node13"><a xlink:href="dfcc__instrument_8cpp.html" target="_top" xlink:title=" ">
<polygon fill="none" stroke="black" points="1979.5,-6 1979.5,-58 2181.5,-58 2181.5,-6 1979.5,-6"/>
<text text-anchor="start" x="1987.5" y="-46" font-family="Helvetica,sans-Serif" font-size="10.00">/home/runner/work/diffblue</text>
<text text-anchor="start" x="1987.5" y="-35" font-family="Helvetica,sans-Serif" font-size="10.00">&#45;cbmc/diffblue&#45;cbmc/src</text>
<text text-anchor="start" x="1987.5" y="-24" font-family="Helvetica,sans-Serif" font-size="10.00">/goto&#45;instrument/contracts</text>
<text text-anchor="middle" x="2080.5" y="-13" font-family="Helvetica,sans-Serif" font-size="10.00">/dynamic&#45;frames/dfcc_instrument.cpp</text>
</a>
</g>
</g>
<!-- Node1&#45;&gt;Node13 -->
<g id="edge12" class="edge">
<title>Node1&#45;&gt;Node13</title>
<path fill="none" stroke="midnightblue" d="M1683.07,-110.34C1758.83,-100.95 1872.73,-85.05 1970.5,-64 1978.74,-62.23 1987.28,-60.19 1995.79,-58.02"/>
<polygon fill="midnightblue" stroke="midnightblue" points="1682.6,-106.87 1673.11,-111.56 1683.46,-113.81 1682.6,-106.87"/>
</g>
<!-- Node14 -->
<g id="node14" class="node">
<title>Node14</title>
<g id="a_node14"><a xlink:href="dfcc__library_8cpp.html" target="_top" xlink:title=" ">
<polygon fill="none" stroke="black" points="2200,-6 2200,-58 2379,-58 2379,-6 2200,-6"/>
<text text-anchor="start" x="2208" y="-46" font-family="Helvetica,sans-Serif" font-size="10.00">/home/runner/work/diffblue</text>
<text text-anchor="start" x="2208" y="-35" font-family="Helvetica,sans-Serif" font-size="10.00">&#45;cbmc/diffblue&#45;cbmc/src</text>
<text text-anchor="start" x="2208" y="-24" font-family="Helvetica,sans-Serif" font-size="10.00">/goto&#45;instrument/contracts</text>
<text text-anchor="middle" x="2289.5" y="-13" font-family="Helvetica,sans-Serif" font-size="10.00">/dynamic&#45;frames/dfcc_library.cpp</text>
</a>
</g>
</g>
<!-- Node1&#45;&gt;Node14 -->
<g id="edge13" class="edge">
<title>Node1&#45;&gt;Node14</title>
<path fill="none" stroke="midnightblue" d="M1683.26,-117.54C1798.92,-112.93 2012.2,-99.94 2190.5,-64 2198.62,-62.36 2207.02,-60.31 2215.34,-58.05"/>
<polygon fill="midnightblue" stroke="midnightblue" points="1682.92,-114.05 1673.06,-117.94 1683.19,-121.05 1682.92,-114.05"/>
</g>
<!-- Node15 -->
<g id="node15" class="node">
<title>Node15</title>
<g id="a_node15"><a xlink:href="dfcc__swap__and__wrap_8cpp.html" target="_top" xlink:title=" ">
<polygon fill="none" stroke="black" points="2397,-0.5 2397,-63.5 2574,-63.5 2574,-0.5 2397,-0.5"/>
<text text-anchor="start" x="2405" y="-51.5" font-family="Helvetica,sans-Serif" font-size="10.00">/home/runner/work/diffblue</text>
<text text-anchor="start" x="2405" y="-40.5" font-family="Helvetica,sans-Serif" font-size="10.00">&#45;cbmc/diffblue&#45;cbmc/src</text>
<text text-anchor="start" x="2405" y="-29.5" font-family="Helvetica,sans-Serif" font-size="10.00">/goto&#45;instrument/contracts</text>
<text text-anchor="start" x="2405" y="-18.5" font-family="Helvetica,sans-Serif" font-size="10.00">/dynamic&#45;frames/dfcc_swap_and</text>
<text text-anchor="middle" x="2485.5" y="-7.5" font-family="Helvetica,sans-Serif" font-size="10.00">_wrap.cpp</text>
</a>
</g>
</g>
<!-- Node1&#45;&gt;Node15 -->
<g id="edge14" class="edge">
<title>Node1&#45;&gt;Node15</title>
<path fill="none" stroke="midnightblue" d="M1683.25,-120.58C1828.83,-120.11 2135.17,-112.73 2388.5,-64 2391.28,-63.47 2394.09,-62.88 2396.91,-62.24"/>
<polygon fill="midnightblue" stroke="midnightblue" points="1683.05,-117.08 1673.05,-120.6 1683.06,-124.08 1683.05,-117.08"/>
</g>
<!-- Node16 -->
<g id="node16" class="node">
<title>Node16</title>
<g id="a_node16"><a xlink:href="dfcc__wrapper__program_8cpp.html" target="_top" xlink:title=" ">
<polygon fill="none" stroke="black" points="2591.5,-0.5 2591.5,-63.5 2759.5,-63.5 2759.5,-0.5 2591.5,-0.5"/>
<text text-anchor="start" x="2599.5" y="-51.5" font-family="Helvetica,sans-Serif" font-size="10.00">/home/runner/work/diffblue</text>
<text text-anchor="start" x="2599.5" y="-40.5" font-family="Helvetica,sans-Serif" font-size="10.00">&#45;cbmc/diffblue&#45;cbmc/src</text>
<text text-anchor="start" x="2599.5" y="-29.5" font-family="Helvetica,sans-Serif" font-size="10.00">/goto&#45;instrument/contracts</text>
<text text-anchor="start" x="2599.5" y="-18.5" font-family="Helvetica,sans-Serif" font-size="10.00">/dynamic&#45;frames/dfcc_wrapper</text>
<text text-anchor="middle" x="2675.5" y="-7.5" font-family="Helvetica,sans-Serif" font-size="10.00">_program.cpp</text>
</a>
</g>
</g>
<!-- Node1&#45;&gt;Node16 -->
<g id="edge15" class="edge">
<title>Node1&#45;&gt;Node16</title>
<path fill="none" stroke="midnightblue" d="M1683.26,-118.1C1889.31,-113 2412.13,-97.12 2583.5,-64 2586.07,-63.5 2588.66,-62.95 2591.26,-62.36"/>
<polygon fill="midnightblue" stroke="midnightblue" points="1683.01,-114.6 1673.1,-118.34 1683.18,-121.6 1683.01,-114.6"/>
</g>
<!-- Node17 -->
<g id="node17" class="node">
<title>Node17</title>
<g id="a_node17"><a xlink:href="instrument__spec__assigns_8cpp.html" target="_top" xlink:title="Specify write set in code contracts.">
<polygon fill="none" stroke="black" points="2778,-6 2778,-58 2941,-58 2941,-6 2778,-6"/>
<text text-anchor="start" x="2786" y="-46" font-family="Helvetica,sans-Serif" font-size="10.00">/home/runner/work/diffblue</text>
<text text-anchor="start" x="2786" y="-35" font-family="Helvetica,sans-Serif" font-size="10.00">&#45;cbmc/diffblue&#45;cbmc/src</text>
<text text-anchor="start" x="2786" y="-24" font-family="Helvetica,sans-Serif" font-size="10.00">/goto&#45;instrument/contracts</text>
<text text-anchor="middle" x="2859.5" y="-13" font-family="Helvetica,sans-Serif" font-size="10.00">/instrument_spec_assigns.cpp</text>
</a>
</g>
</g>
<!-- Node1&#45;&gt;Node17 -->
<g id="edge16" class="edge">
<title>Node1&#45;&gt;Node17</title>
<path fill="none" stroke="midnightblue" d="M1683.21,-119.02C1915.72,-115.84 2560.34,-103.62 2768.5,-64 2776.53,-62.47 2784.83,-60.39 2792.98,-58.03"/>
<polygon fill="midnightblue" stroke="midnightblue" points="1683.07,-115.52 1673.12,-119.16 1683.16,-122.52 1683.07,-115.52"/>
</g>
<!-- Node18 -->
<g id="node18" class="node">
<title>Node18</title>
<g id="a_node18"><a xlink:href="utils_8cpp.html" target="_top" xlink:title=" ">
<polygon fill="none" stroke="black" points="2959,-6 2959,-58 3108,-58 3108,-6 2959,-6"/>
<text text-anchor="start" x="2967" y="-46" font-family="Helvetica,sans-Serif" font-size="10.00">/home/runner/work/diffblue</text>
<text text-anchor="start" x="2967" y="-35" font-family="Helvetica,sans-Serif" font-size="10.00">&#45;cbmc/diffblue&#45;cbmc/src</text>
<text text-anchor="start" x="2967" y="-24" font-family="Helvetica,sans-Serif" font-size="10.00">/goto&#45;instrument/contracts</text>
<text text-anchor="middle" x="3033.5" y="-13" font-family="Helvetica,sans-Serif" font-size="10.00">/utils.cpp</text>
</a>
</g>
</g>
<!-- Node1&#45;&gt;Node18 -->
<g id="edge17" class="edge">
<title>Node1&#45;&gt;Node18</title>
<path fill="none" stroke="midnightblue" d="M1683.25,-119.98C1939.99,-119.36 2706.51,-113.31 2950.5,-64 2957.89,-62.51 2965.49,-60.45 2972.95,-58.1"/>
<polygon fill="midnightblue" stroke="midnightblue" points="1683.23,-116.48 1673.24,-120 1683.25,-123.48 1683.23,-116.48"/>
</g>
<!-- Node19 -->
<g id="node19" class="node">
<title>Node19</title>
<g id="a_node19"><a xlink:href="remove__vector_8cpp.html" target="_top" xlink:title="Remove &#39;vector&#39; data type.">
<polygon fill="none" stroke="black" points="3126.5,-11.5 3126.5,-52.5 3314.5,-52.5 3314.5,-11.5 3126.5,-11.5"/>
<text text-anchor="start" x="3134.5" y="-40.5" font-family="Helvetica,sans-Serif" font-size="10.00">/home/runner/work/diffblue</text>
<text text-anchor="start" x="3134.5" y="-29.5" font-family="Helvetica,sans-Serif" font-size="10.00">&#45;cbmc/diffblue&#45;cbmc/src</text>
<text text-anchor="middle" x="3220.5" y="-18.5" font-family="Helvetica,sans-Serif" font-size="10.00">/goto&#45;programs/remove_vector.cpp</text>
</a>
</g>
</g>
<!-- Node1&#45;&gt;Node19 -->
<g id="edge18" class="edge">
<title>Node1&#45;&gt;Node19</title>
<path fill="none" stroke="midnightblue" d="M1683.4,-119.72C1960.76,-118.35 2838.33,-110.37 3117.5,-64 3133.16,-61.4 3149.77,-57.11 3164.98,-52.54"/>
<polygon fill="midnightblue" stroke="midnightblue" points="1683.38,-116.22 1673.39,-119.77 1683.41,-123.22 1683.38,-116.22"/>
</g>
</g>
</svg>
