<?xml version="1.0" encoding="UTF-8" standalone="no"?>
<!DOCTYPE svg PUBLIC "-//W3C//DTD SVG 1.1//EN"
 "http://www.w3.org/Graphics/SVG/1.1/DTD/svg11.dtd">
<!-- Generated by graphviz version 2.43.0 (0)
 -->
<!-- Title: /home/runner/work/diffblue&#45;cbmc/diffblue&#45;cbmc/src/ansi&#45;c/c_misc.cpp Pages: 1 -->
<svg width="157pt" height="162pt"
 viewBox="0.00 0.00 157.00 162.00" xmlns="http://www.w3.org/2000/svg" xmlns:xlink="http://www.w3.org/1999/xlink">
<g id="graph0" class="graph" transform="scale(1 1) rotate(0) translate(4 158)">
<title>/home/runner/work/diffblue&#45;cbmc/diffblue&#45;cbmc/src/ansi&#45;c/c_misc.cpp</title>
<!-- Node1 -->
<g id="node1" class="node">
<title>Node1</title>
<g id="a_node1"><a xlink:title="ANSI&#45;C Misc Utilities.">
<polygon fill="#bfbfbf" stroke="black" points="0,-112.5 0,-153.5 149,-153.5 149,-112.5 0,-112.5"/>
<text text-anchor="start" x="8" y="-141.5" font-family="Helvetica,sans-Serif" font-size="10.00">/home/runner/work/diffblue</text>
<text text-anchor="start" x="8" y="-130.5" font-family="Helvetica,sans-Serif" font-size="10.00">&#45;cbmc/diffblue&#45;cbmc/src</text>
<text text-anchor="middle" x="74.5" y="-119.5" font-family="Helvetica,sans-Serif" font-size="10.00">/ansi&#45;c/c_misc.cpp</text>
</a>
</g>
</g>
<!-- Node2 -->
<g id="node2" class="node">
<title>Node2</title>
<g id="a_node2"><a xlink:href="c__misc_8h.html" target="_top" xlink:title="ANSI&#45;C Misc Utilities.">
<polygon fill="none" stroke="black" points="7,-56.5 7,-75.5 66,-75.5 66,-56.5 7,-56.5"/>
<text text-anchor="middle" x="36.5" y="-63.5" font-family="Helvetica,sans-Serif" font-size="10.00">c_misc.h</text>
</a>
</g>
</g>
<!-- Node1&#45;&gt;Node2 -->
<g id="edge1" class="edge">
<title>Node1&#45;&gt;Node2</title>
<path fill="none" stroke="midnightblue" d="M63.1,-112.5C57.89,-103.59 51.77,-93.11 46.71,-84.46"/>
<polygon fill="midnightblue" stroke="midnightblue" points="49.63,-82.52 41.56,-75.65 43.58,-86.05 49.63,-82.52"/>
</g>
<!-- Node4 -->
<g id="node4" class="node">
<title>Node4</title>
<g id="a_node4"><a xlink:title=" ">
<polygon fill="none" stroke="#bfbfbf" points="84.5,-56.5 84.5,-75.5 140.5,-75.5 140.5,-56.5 84.5,-56.5"/>
<text text-anchor="middle" x="112.5" y="-63.5" font-family="Helvetica,sans-Serif" font-size="10.00">sstream</text>
</a>
</g>
</g>
<!-- Node1&#45;&gt;Node4 -->
<g id="edge3" class="edge">
<title>Node1&#45;&gt;Node4</title>
<path fill="none" stroke="midnightblue" d="M85.9,-112.5C91.11,-103.59 97.23,-93.11 102.29,-84.46"/>
<polygon fill="midnightblue" stroke="midnightblue" points="105.42,-86.05 107.44,-75.65 99.37,-82.52 105.42,-86.05"/>
</g>
<!-- Node3 -->
<g id="node3" class="node">
<title>Node3</title>
<g id="a_node3"><a xlink:title=" ">
<polygon fill="none" stroke="#bfbfbf" points="14.5,-0.5 14.5,-19.5 58.5,-19.5 58.5,-0.5 14.5,-0.5"/>
<text text-anchor="middle" x="36.5" y="-7.5" font-family="Helvetica,sans-Serif" font-size="10.00">string</text>
</a>
</g>
</g>
<!-- Node2&#45;&gt;Node3 -->
<g id="edge2" class="edge">
<title>Node2&#45;&gt;Node3</title>
<path fill="none" stroke="midnightblue" d="M36.5,-56.08C36.5,-49.01 36.5,-38.86 36.5,-29.99"/>
<polygon fill="midnightblue" stroke="midnightblue" points="40,-29.75 36.5,-19.75 33,-29.75 40,-29.75"/>
</g>
</g>
</svg>
