<?xml version="1.0" encoding="UTF-8" standalone="no"?>
<!DOCTYPE svg PUBLIC "-//W3C//DTD SVG 1.1//EN"
 "http://www.w3.org/Graphics/SVG/1.1/DTD/svg11.dtd">
<!-- Generated by graphviz version 2.43.0 (0)
 -->
<!-- Title: /home/runner/work/diffblue&#45;cbmc/diffblue&#45;cbmc/src/ansi&#45;c/c_object_factory_parameters.h Pages: 1 -->
<svg width="4666pt" height="328pt"
 viewBox="0.00 0.00 4666.00 328.00" xmlns="http://www.w3.org/2000/svg" xmlns:xlink="http://www.w3.org/1999/xlink">
<g id="graph0" class="graph" transform="scale(1 1) rotate(0) translate(4 324)">
<title>/home/runner/work/diffblue&#45;cbmc/diffblue&#45;cbmc/src/ansi&#45;c/c_object_factory_parameters.h</title>
<!-- Node1 -->
<g id="node1" class="node">
<title>Node1</title>
<g id="a_node1"><a xlink:title=" ">
<polygon fill="#bfbfbf" stroke="black" points="3757,-267.5 3757,-319.5 3906,-319.5 3906,-267.5 3757,-267.5"/>
<text text-anchor="start" x="3765" y="-307.5" font-family="Helvetica,sans-Serif" font-size="10.00">/home/runner/work/diffblue</text>
<text text-anchor="start" x="3765" y="-296.5" font-family="Helvetica,sans-Serif" font-size="10.00">&#45;cbmc/diffblue&#45;cbmc/src</text>
<text text-anchor="start" x="3765" y="-285.5" font-family="Helvetica,sans-Serif" font-size="10.00">/ansi&#45;c/c_object_factory</text>
<text text-anchor="middle" x="3831.5" y="-274.5" font-family="Helvetica,sans-Serif" font-size="10.00">_parameters.h</text>
</a>
</g>
</g>
<!-- Node2 -->
<g id="node2" class="node">
<title>Node2</title>
<g id="a_node2"><a xlink:href="ansi__c__language_8h.html" target="_top" xlink:title=" ">
<polygon fill="none" stroke="black" points="1963,-184 1963,-225 2112,-225 2112,-184 1963,-184"/>
<text text-anchor="start" x="1971" y="-213" font-family="Helvetica,sans-Serif" font-size="10.00">/home/runner/work/diffblue</text>
<text text-anchor="start" x="1971" y="-202" font-family="Helvetica,sans-Serif" font-size="10.00">&#45;cbmc/diffblue&#45;cbmc/src</text>
<text text-anchor="middle" x="2037.5" y="-191" font-family="Helvetica,sans-Serif" font-size="10.00">/ansi&#45;c/ansi_c_language.h</text>
</a>
</g>
</g>
<!-- Node1&#45;&gt;Node2 -->
<g id="edge1" class="edge">
<title>Node1&#45;&gt;Node2</title>
<path fill="none" stroke="midnightblue" d="M3746.87,-288.4C3441.71,-273.6 2400.67,-223.11 2112.16,-209.12"/>
<polygon fill="midnightblue" stroke="midnightblue" points="3746.82,-291.9 3756.98,-288.89 3747.16,-284.91 3746.82,-291.9"/>
</g>
<!-- Node16 -->
<g id="node16" class="node">
<title>Node16</title>
<g id="a_node16"><a xlink:href="goto__instrument__parse__options_8cpp.html" target="_top" xlink:title="Main Module.">
<polygon fill="none" stroke="black" points="3259.5,-0.5 3259.5,-52.5 3441.5,-52.5 3441.5,-0.5 3259.5,-0.5"/>
<text text-anchor="start" x="3267.5" y="-40.5" font-family="Helvetica,sans-Serif" font-size="10.00">/home/runner/work/diffblue</text>
<text text-anchor="start" x="3267.5" y="-29.5" font-family="Helvetica,sans-Serif" font-size="10.00">&#45;cbmc/diffblue&#45;cbmc/src</text>
<text text-anchor="start" x="3267.5" y="-18.5" font-family="Helvetica,sans-Serif" font-size="10.00">/goto&#45;instrument/goto_instrument</text>
<text text-anchor="middle" x="3350.5" y="-7.5" font-family="Helvetica,sans-Serif" font-size="10.00">_parse_options.cpp</text>
</a>
</g>
</g>
<!-- Node1&#45;&gt;Node16 -->
<g id="edge43" class="edge">
<title>Node1&#45;&gt;Node16</title>
<path fill="none" stroke="midnightblue" d="M3746.72,-284.83C3670.03,-276.17 3564.64,-259.46 3534.5,-231 3487,-186.15 3539.42,-138.25 3496.5,-89 3481.95,-72.31 3462.12,-60.03 3441.76,-51.05"/>
<polygon fill="midnightblue" stroke="midnightblue" points="3746.54,-288.33 3756.87,-285.94 3747.31,-281.37 3746.54,-288.33"/>
</g>
<!-- Node27 -->
<g id="node27" class="node">
<title>Node27</title>
<g id="a_node27"><a xlink:href="c__nondet__symbol__factory_8cpp.html" target="_top" xlink:title="C Nondet Symbol Factory.">
<polygon fill="none" stroke="black" points="3543.5,-184 3543.5,-225 3739.5,-225 3739.5,-184 3543.5,-184"/>
<text text-anchor="start" x="3551.5" y="-213" font-family="Helvetica,sans-Serif" font-size="10.00">/home/runner/work/diffblue</text>
<text text-anchor="start" x="3551.5" y="-202" font-family="Helvetica,sans-Serif" font-size="10.00">&#45;cbmc/diffblue&#45;cbmc/src</text>
<text text-anchor="middle" x="3641.5" y="-191" font-family="Helvetica,sans-Serif" font-size="10.00">/ansi&#45;c/c_nondet_symbol_factory.cpp</text>
</a>
</g>
</g>
<!-- Node1&#45;&gt;Node27 -->
<g id="edge29" class="edge">
<title>Node1&#45;&gt;Node27</title>
<path fill="none" stroke="midnightblue" d="M3767.67,-263.27C3740.25,-250.72 3708.95,-236.38 3684.38,-225.13"/>
<polygon fill="midnightblue" stroke="midnightblue" points="3766.25,-266.47 3776.8,-267.45 3769.16,-260.11 3766.25,-266.47"/>
</g>
<!-- Node28 -->
<g id="node28" class="node">
<title>Node28</title>
<g id="a_node28"><a xlink:href="c__object__factory__parameters_8cpp.html" target="_top" xlink:title=" ">
<polygon fill="none" stroke="black" points="3757,-178.5 3757,-230.5 3906,-230.5 3906,-178.5 3757,-178.5"/>
<text text-anchor="start" x="3765" y="-218.5" font-family="Helvetica,sans-Serif" font-size="10.00">/home/runner/work/diffblue</text>
<text text-anchor="start" x="3765" y="-207.5" font-family="Helvetica,sans-Serif" font-size="10.00">&#45;cbmc/diffblue&#45;cbmc/src</text>
<text text-anchor="start" x="3765" y="-196.5" font-family="Helvetica,sans-Serif" font-size="10.00">/ansi&#45;c/c_object_factory</text>
<text text-anchor="middle" x="3831.5" y="-185.5" font-family="Helvetica,sans-Serif" font-size="10.00">_parameters.cpp</text>
</a>
</g>
</g>
<!-- Node1&#45;&gt;Node28 -->
<g id="edge30" class="edge">
<title>Node1&#45;&gt;Node28</title>
<path fill="none" stroke="midnightblue" d="M3831.5,-257.19C3831.5,-248.28 3831.5,-238.9 3831.5,-230.61"/>
<polygon fill="midnightblue" stroke="midnightblue" points="3828,-257.34 3831.5,-267.34 3835,-257.34 3828,-257.34"/>
</g>
<!-- Node29 -->
<g id="node29" class="node">
<title>Node29</title>
<g id="a_node29"><a xlink:href="cpp__language_8h.html" target="_top" xlink:title="C++ Language Module.">
<polygon fill="none" stroke="black" points="354,-184 354,-225 503,-225 503,-184 354,-184"/>
<text text-anchor="start" x="362" y="-213" font-family="Helvetica,sans-Serif" font-size="10.00">/home/runner/work/diffblue</text>
<text text-anchor="start" x="362" y="-202" font-family="Helvetica,sans-Serif" font-size="10.00">&#45;cbmc/diffblue&#45;cbmc/src</text>
<text text-anchor="middle" x="428.5" y="-191" font-family="Helvetica,sans-Serif" font-size="10.00">/cpp/cpp_language.h</text>
</a>
</g>
</g>
<!-- Node1&#45;&gt;Node29 -->
<g id="edge31" class="edge">
<title>Node1&#45;&gt;Node29</title>
<path fill="none" stroke="midnightblue" d="M3746.65,-290.33C3271.95,-278.19 950.54,-218.85 503.18,-207.41"/>
<polygon fill="midnightblue" stroke="midnightblue" points="3746.77,-293.83 3756.86,-290.59 3746.95,-286.84 3746.77,-293.83"/>
</g>
<!-- Node31 -->
<g id="node31" class="node">
<title>Node31</title>
<g id="a_node31"><a xlink:href="compile_8cpp.html" target="_top" xlink:title="Compile and link source and object files.">
<polygon fill="none" stroke="black" points="3924,-184 3924,-225 4073,-225 4073,-184 3924,-184"/>
<text text-anchor="start" x="3932" y="-213" font-family="Helvetica,sans-Serif" font-size="10.00">/home/runner/work/diffblue</text>
<text text-anchor="start" x="3932" y="-202" font-family="Helvetica,sans-Serif" font-size="10.00">&#45;cbmc/diffblue&#45;cbmc/src</text>
<text text-anchor="middle" x="3998.5" y="-191" font-family="Helvetica,sans-Serif" font-size="10.00">/goto&#45;cc/compile.cpp</text>
</a>
</g>
</g>
<!-- Node1&#45;&gt;Node31 -->
<g id="edge39" class="edge">
<title>Node1&#45;&gt;Node31</title>
<path fill="none" stroke="midnightblue" d="M3888.77,-262.66C3912.62,-250.24 3939.65,-236.16 3960.91,-225.08"/>
<polygon fill="midnightblue" stroke="midnightblue" points="3887.05,-259.61 3879.8,-267.34 3890.29,-265.82 3887.05,-259.61"/>
</g>
<!-- Node32 -->
<g id="node32" class="node">
<title>Node32</title>
<g id="a_node32"><a xlink:href="dfcc_8cpp.html" target="_top" xlink:title=" ">
<polygon fill="none" stroke="black" points="4091,-178.5 4091,-230.5 4240,-230.5 4240,-178.5 4091,-178.5"/>
<text text-anchor="start" x="4099" y="-218.5" font-family="Helvetica,sans-Serif" font-size="10.00">/home/runner/work/diffblue</text>
<text text-anchor="start" x="4099" y="-207.5" font-family="Helvetica,sans-Serif" font-size="10.00">&#45;cbmc/diffblue&#45;cbmc/src</text>
<text text-anchor="start" x="4099" y="-196.5" font-family="Helvetica,sans-Serif" font-size="10.00">/goto&#45;instrument/contracts</text>
<text text-anchor="middle" x="4165.5" y="-185.5" font-family="Helvetica,sans-Serif" font-size="10.00">/dynamic&#45;frames/dfcc.cpp</text>
</a>
</g>
</g>
<!-- Node1&#45;&gt;Node32 -->
<g id="edge40" class="edge">
<title>Node1&#45;&gt;Node32</title>
<path fill="none" stroke="midnightblue" d="M3916.09,-273.06C3964.91,-261.52 4027.37,-246.21 4082.5,-231 4085.26,-230.24 4088.07,-229.45 4090.9,-228.64"/>
<polygon fill="midnightblue" stroke="midnightblue" points="3915.13,-269.69 3906.2,-275.39 3916.74,-276.5 3915.13,-269.69"/>
</g>
<!-- Node33 -->
<g id="node33" class="node">
<title>Node33</title>
<g id="a_node33"><a xlink:href="dfcc__instrument_8cpp.html" target="_top" xlink:title=" ">
<polygon fill="none" stroke="black" points="4258.5,-178.5 4258.5,-230.5 4460.5,-230.5 4460.5,-178.5 4258.5,-178.5"/>
<text text-anchor="start" x="4266.5" y="-218.5" font-family="Helvetica,sans-Serif" font-size="10.00">/home/runner/work/diffblue</text>
<text text-anchor="start" x="4266.5" y="-207.5" font-family="Helvetica,sans-Serif" font-size="10.00">&#45;cbmc/diffblue&#45;cbmc/src</text>
<text text-anchor="start" x="4266.5" y="-196.5" font-family="Helvetica,sans-Serif" font-size="10.00">/goto&#45;instrument/contracts</text>
<text text-anchor="middle" x="4359.5" y="-185.5" font-family="Helvetica,sans-Serif" font-size="10.00">/dynamic&#45;frames/dfcc_instrument.cpp</text>
</a>
</g>
</g>
<!-- Node1&#45;&gt;Node33 -->
<g id="edge41" class="edge">
<title>Node1&#45;&gt;Node33</title>
<path fill="none" stroke="midnightblue" d="M3916.26,-282.09C4000.95,-271.21 4134.71,-252.71 4249.5,-231 4252.39,-230.45 4255.32,-229.88 4258.27,-229.29"/>
<polygon fill="midnightblue" stroke="midnightblue" points="3915.66,-278.64 3906.18,-283.38 3916.54,-285.59 3915.66,-278.64"/>
</g>
<!-- Node34 -->
<g id="node34" class="node">
<title>Node34</title>
<g id="a_node34"><a xlink:href="dfcc__library_8cpp.html" target="_top" xlink:title=" ">
<polygon fill="none" stroke="black" points="4479,-178.5 4479,-230.5 4658,-230.5 4658,-178.5 4479,-178.5"/>
<text text-anchor="start" x="4487" y="-218.5" font-family="Helvetica,sans-Serif" font-size="10.00">/home/runner/work/diffblue</text>
<text text-anchor="start" x="4487" y="-207.5" font-family="Helvetica,sans-Serif" font-size="10.00">&#45;cbmc/diffblue&#45;cbmc/src</text>
<text text-anchor="start" x="4487" y="-196.5" font-family="Helvetica,sans-Serif" font-size="10.00">/goto&#45;instrument/contracts</text>
<text text-anchor="middle" x="4568.5" y="-185.5" font-family="Helvetica,sans-Serif" font-size="10.00">/dynamic&#45;frames/dfcc_library.cpp</text>
</a>
</g>
</g>
<!-- Node1&#45;&gt;Node34 -->
<g id="edge42" class="edge">
<title>Node1&#45;&gt;Node34</title>
<path fill="none" stroke="midnightblue" d="M3916.26,-288.54C4039.01,-281.86 4273.09,-265.54 4469.5,-231 4472.56,-230.46 4475.66,-229.88 4478.79,-229.26"/>
<polygon fill="midnightblue" stroke="midnightblue" points="3915.97,-285.05 3906.17,-289.08 3916.34,-292.04 3915.97,-285.05"/>
</g>
<!-- Node3 -->
<g id="node3" class="node">
<title>Node3</title>
<g id="a_node3"><a xlink:href="ansi__c__language_8cpp.html" target="_top" xlink:title=" ">
<polygon fill="none" stroke="black" points="2684,-95 2684,-136 2837,-136 2837,-95 2684,-95"/>
<text text-anchor="start" x="2692" y="-124" font-family="Helvetica,sans-Serif" font-size="10.00">/home/runner/work/diffblue</text>
<text text-anchor="start" x="2692" y="-113" font-family="Helvetica,sans-Serif" font-size="10.00">&#45;cbmc/diffblue&#45;cbmc/src</text>
<text text-anchor="middle" x="2760.5" y="-102" font-family="Helvetica,sans-Serif" font-size="10.00">/ansi&#45;c/ansi_c_language.cpp</text>
</a>
</g>
</g>
<!-- Node2&#45;&gt;Node3 -->
<g id="edge2" class="edge">
<title>Node2&#45;&gt;Node3</title>
<path fill="none" stroke="midnightblue" d="M2122.3,-200.49C2245.08,-194.96 2479.06,-180.04 2674.5,-142 2682.75,-140.39 2691.35,-138.33 2699.78,-136.07"/>
<polygon fill="midnightblue" stroke="midnightblue" points="2122.05,-197 2112.21,-200.93 2122.36,-203.99 2122.05,-197"/>
</g>
<!-- Node4 -->
<g id="node4" class="node">
<title>Node4</title>
<g id="a_node4"><a xlink:href="ansi-c_2cprover__library_8cpp.html" target="_top" xlink:title=" ">
<polygon fill="none" stroke="black" points="2855,-95 2855,-136 3004,-136 3004,-95 2855,-95"/>
<text text-anchor="start" x="2863" y="-124" font-family="Helvetica,sans-Serif" font-size="10.00">/home/runner/work/diffblue</text>
<text text-anchor="start" x="2863" y="-113" font-family="Helvetica,sans-Serif" font-size="10.00">&#45;cbmc/diffblue&#45;cbmc/src</text>
<text text-anchor="middle" x="2929.5" y="-102" font-family="Helvetica,sans-Serif" font-size="10.00">/ansi&#45;c/cprover_library.cpp</text>
</a>
</g>
</g>
<!-- Node2&#45;&gt;Node4 -->
<g id="edge3" class="edge">
<title>Node2&#45;&gt;Node4</title>
<path fill="none" stroke="midnightblue" d="M2122.5,-203.22C2270.79,-201.36 2585.81,-191.32 2846.5,-142 2854.65,-140.46 2863.12,-138.4 2871.41,-136.12"/>
<polygon fill="midnightblue" stroke="midnightblue" points="2122.08,-199.72 2112.12,-203.34 2122.16,-206.72 2122.08,-199.72"/>
</g>
<!-- Node5 -->
<g id="node5" class="node">
<title>Node5</title>
<g id="a_node5"><a xlink:href="cbmc__languages_8cpp.html" target="_top" xlink:title="Language Registration.">
<polygon fill="none" stroke="black" points="781,-6 781,-47 932,-47 932,-6 781,-6"/>
<text text-anchor="start" x="789" y="-35" font-family="Helvetica,sans-Serif" font-size="10.00">/home/runner/work/diffblue</text>
<text text-anchor="start" x="789" y="-24" font-family="Helvetica,sans-Serif" font-size="10.00">&#45;cbmc/diffblue&#45;cbmc/src</text>
<text text-anchor="middle" x="856.5" y="-13" font-family="Helvetica,sans-Serif" font-size="10.00">/cbmc/cbmc_languages.cpp</text>
</a>
</g>
</g>
<!-- Node2&#45;&gt;Node5 -->
<g id="edge4" class="edge">
<title>Node2&#45;&gt;Node5</title>
<path fill="none" stroke="midnightblue" d="M1952.8,-202.38C1727.26,-198.83 1123.85,-185.35 1045.5,-142 1020.14,-127.97 1030.26,-106.95 1007.5,-89 992.22,-76.95 949.79,-60.1 913.79,-47.09"/>
<polygon fill="midnightblue" stroke="midnightblue" points="1952.88,-205.88 1962.93,-202.54 1952.99,-198.89 1952.88,-205.88"/>
</g>
<!-- Node6 -->
<g id="node6" class="node">
<title>Node6</title>
<g id="a_node6"><a xlink:href="cbmc__parse__options_8h.html" target="_top" xlink:title="CBMC Command Line Option Processing.">
<polygon fill="none" stroke="black" points="1054.5,-95 1054.5,-136 1212.5,-136 1212.5,-95 1054.5,-95"/>
<text text-anchor="start" x="1062.5" y="-124" font-family="Helvetica,sans-Serif" font-size="10.00">/home/runner/work/diffblue</text>
<text text-anchor="start" x="1062.5" y="-113" font-family="Helvetica,sans-Serif" font-size="10.00">&#45;cbmc/diffblue&#45;cbmc/src</text>
<text text-anchor="middle" x="1133.5" y="-102" font-family="Helvetica,sans-Serif" font-size="10.00">/cbmc/cbmc_parse_options.h</text>
</a>
</g>
</g>
<!-- Node2&#45;&gt;Node6 -->
<g id="edge5" class="edge">
<title>Node2&#45;&gt;Node6</title>
<path fill="none" stroke="midnightblue" d="M1952.75,-202.96C1803.54,-200.71 1484.69,-190.11 1220.5,-142 1211.98,-140.45 1203.11,-138.39 1194.43,-136.11"/>
<polygon fill="midnightblue" stroke="midnightblue" points="1952.72,-206.46 1962.77,-203.1 1952.82,-199.46 1952.72,-206.46"/>
</g>
<!-- Node10 -->
<g id="node10" class="node">
<title>Node10</title>
<g id="a_node10"><a xlink:href="cprover__parse__options_8cpp.html" target="_top" xlink:title="cprover Command Line Options Processing">
<polygon fill="none" stroke="black" points="3297.5,-95 3297.5,-136 3487.5,-136 3487.5,-95 3297.5,-95"/>
<text text-anchor="start" x="3305.5" y="-124" font-family="Helvetica,sans-Serif" font-size="10.00">/home/runner/work/diffblue</text>
<text text-anchor="start" x="3305.5" y="-113" font-family="Helvetica,sans-Serif" font-size="10.00">&#45;cbmc/diffblue&#45;cbmc/src</text>
<text text-anchor="middle" x="3392.5" y="-102" font-family="Helvetica,sans-Serif" font-size="10.00">/cprover/cprover_parse_options.cpp</text>
</a>
</g>
</g>
<!-- Node2&#45;&gt;Node10 -->
<g id="edge10" class="edge">
<title>Node2&#45;&gt;Node10</title>
<path fill="none" stroke="midnightblue" d="M2122.4,-201.31C2365.04,-194.73 3058.45,-173.61 3283.5,-142 3294.37,-140.47 3305.76,-138.38 3316.9,-136.04"/>
<polygon fill="midnightblue" stroke="midnightblue" points="2122.13,-197.81 2112.23,-201.58 2122.32,-204.81 2122.13,-197.81"/>
</g>
<!-- Node11 -->
<g id="node11" class="node">
<title>Node11</title>
<g id="a_node11"><a xlink:href="goto__analyzer__languages_8cpp.html" target="_top" xlink:title="Language Registration.">
<polygon fill="none" stroke="black" points="443,-89.5 443,-141.5 602,-141.5 602,-89.5 443,-89.5"/>
<text text-anchor="start" x="451" y="-129.5" font-family="Helvetica,sans-Serif" font-size="10.00">/home/runner/work/diffblue</text>
<text text-anchor="start" x="451" y="-118.5" font-family="Helvetica,sans-Serif" font-size="10.00">&#45;cbmc/diffblue&#45;cbmc/src</text>
<text text-anchor="start" x="451" y="-107.5" font-family="Helvetica,sans-Serif" font-size="10.00">/goto&#45;analyzer/goto_analyzer</text>
<text text-anchor="middle" x="522.5" y="-96.5" font-family="Helvetica,sans-Serif" font-size="10.00">_languages.cpp</text>
</a>
</g>
</g>
<!-- Node2&#45;&gt;Node11 -->
<g id="edge11" class="edge">
<title>Node2&#45;&gt;Node11</title>
<path fill="none" stroke="midnightblue" d="M1952.47,-202.46C1686.42,-198.8 872.03,-184.33 611.5,-142 608.49,-141.51 605.43,-140.95 602.35,-140.34"/>
<polygon fill="midnightblue" stroke="midnightblue" points="1952.8,-205.97 1962.84,-202.6 1952.89,-198.97 1952.8,-205.97"/>
</g>
<!-- Node12 -->
<g id="node12" class="node">
<title>Node12</title>
<g id="a_node12"><a xlink:href="goto__cc__languages_8cpp.html" target="_top" xlink:title="Language Registration.">
<polygon fill="none" stroke="black" points="620.5,-95 620.5,-136 792.5,-136 792.5,-95 620.5,-95"/>
<text text-anchor="start" x="628.5" y="-124" font-family="Helvetica,sans-Serif" font-size="10.00">/home/runner/work/diffblue</text>
<text text-anchor="start" x="628.5" y="-113" font-family="Helvetica,sans-Serif" font-size="10.00">&#45;cbmc/diffblue&#45;cbmc/src</text>
<text text-anchor="middle" x="706.5" y="-102" font-family="Helvetica,sans-Serif" font-size="10.00">/goto&#45;cc/goto_cc_languages.cpp</text>
</a>
</g>
</g>
<!-- Node2&#45;&gt;Node12 -->
<g id="edge12" class="edge">
<title>Node2&#45;&gt;Node12</title>
<path fill="none" stroke="midnightblue" d="M1952.8,-201.63C1711.59,-195.93 1024.07,-177 801.5,-142 791.88,-140.49 781.84,-138.38 772.04,-136.03"/>
<polygon fill="midnightblue" stroke="midnightblue" points="1952.84,-205.13 1962.92,-201.87 1953,-198.13 1952.84,-205.13"/>
</g>
<!-- Node13 -->
<g id="node13" class="node">
<title>Node13</title>
<g id="a_node13"><a xlink:href="goto__diff__languages_8cpp.html" target="_top" xlink:title="Language Registration.">
<polygon fill="none" stroke="black" points="242.5,-95 242.5,-136 424.5,-136 424.5,-95 242.5,-95"/>
<text text-anchor="start" x="250.5" y="-124" font-family="Helvetica,sans-Serif" font-size="10.00">/home/runner/work/diffblue</text>
<text text-anchor="start" x="250.5" y="-113" font-family="Helvetica,sans-Serif" font-size="10.00">&#45;cbmc/diffblue&#45;cbmc/src</text>
<text text-anchor="middle" x="333.5" y="-102" font-family="Helvetica,sans-Serif" font-size="10.00">/goto&#45;diff/goto_diff_languages.cpp</text>
</a>
</g>
</g>
<!-- Node2&#45;&gt;Node13 -->
<g id="edge13" class="edge">
<title>Node2&#45;&gt;Node13</title>
<path fill="none" stroke="midnightblue" d="M1952.42,-202.61C1664.9,-199.23 730.78,-185.11 433.5,-142 423.3,-140.52 412.64,-138.42 402.24,-136.05"/>
<polygon fill="midnightblue" stroke="midnightblue" points="1952.74,-206.11 1962.78,-202.73 1952.83,-199.11 1952.74,-206.11"/>
</g>
<!-- Node14 -->
<g id="node14" class="node">
<title>Node14</title>
<g id="a_node14"><a xlink:href="memory__predicates_8cpp.html" target="_top" xlink:title="Predicates to specify memory footprint in function contracts.">
<polygon fill="none" stroke="black" points="1230,-89.5 1230,-141.5 1379,-141.5 1379,-89.5 1230,-89.5"/>
<text text-anchor="start" x="1238" y="-129.5" font-family="Helvetica,sans-Serif" font-size="10.00">/home/runner/work/diffblue</text>
<text text-anchor="start" x="1238" y="-118.5" font-family="Helvetica,sans-Serif" font-size="10.00">&#45;cbmc/diffblue&#45;cbmc/src</text>
<text text-anchor="start" x="1238" y="-107.5" font-family="Helvetica,sans-Serif" font-size="10.00">/goto&#45;instrument/contracts</text>
<text text-anchor="middle" x="1304.5" y="-96.5" font-family="Helvetica,sans-Serif" font-size="10.00">/memory_predicates.cpp</text>
</a>
</g>
</g>
<!-- Node2&#45;&gt;Node14 -->
<g id="edge14" class="edge">
<title>Node2&#45;&gt;Node14</title>
<path fill="none" stroke="midnightblue" d="M1952.44,-200.97C1827.51,-196.01 1587.55,-181.76 1387.5,-142 1384.84,-141.47 1382.14,-140.89 1379.43,-140.27"/>
<polygon fill="midnightblue" stroke="midnightblue" points="1952.57,-204.48 1962.7,-201.37 1952.84,-197.48 1952.57,-204.48"/>
</g>
<!-- Node15 -->
<g id="node15" class="node">
<title>Node15</title>
<g id="a_node15"><a xlink:href="goto__instrument__languages_8cpp.html" target="_top" xlink:title="Language Registration.">
<polygon fill="none" stroke="black" points="2859.5,-0.5 2859.5,-52.5 3041.5,-52.5 3041.5,-0.5 2859.5,-0.5"/>
<text text-anchor="start" x="2867.5" y="-40.5" font-family="Helvetica,sans-Serif" font-size="10.00">/home/runner/work/diffblue</text>
<text text-anchor="start" x="2867.5" y="-29.5" font-family="Helvetica,sans-Serif" font-size="10.00">&#45;cbmc/diffblue&#45;cbmc/src</text>
<text text-anchor="start" x="2867.5" y="-18.5" font-family="Helvetica,sans-Serif" font-size="10.00">/goto&#45;instrument/goto_instrument</text>
<text text-anchor="middle" x="2950.5" y="-7.5" font-family="Helvetica,sans-Serif" font-size="10.00">_languages.cpp</text>
</a>
</g>
</g>
<!-- Node2&#45;&gt;Node15 -->
<g id="edge15" class="edge">
<title>Node2&#45;&gt;Node15</title>
<path fill="none" stroke="midnightblue" d="M2122.21,-201.28C2353.95,-194.79 2983.19,-174.28 3013.5,-142 3029.62,-124.83 3022.65,-110.71 3013.5,-89 3007.63,-75.05 2996.87,-62.7 2985.89,-52.79"/>
<polygon fill="midnightblue" stroke="midnightblue" points="2122.04,-197.78 2112.14,-201.56 2122.24,-204.78 2122.04,-197.78"/>
</g>
<!-- Node2&#45;&gt;Node16 -->
<g id="edge16" class="edge">
<title>Node2&#45;&gt;Node16</title>
<path fill="none" stroke="midnightblue" d="M2122.47,-203.42C2381.93,-202.61 3152.22,-195.65 3250.5,-142 3275.94,-128.11 3269.7,-111.06 3288.5,-89 3299.22,-76.42 3312.05,-63.41 3323.25,-52.6"/>
<polygon fill="midnightblue" stroke="midnightblue" points="2122.34,-199.93 2112.35,-203.45 2122.36,-206.93 2122.34,-199.93"/>
</g>
<!-- Node17 -->
<g id="node17" class="node">
<title>Node17</title>
<g id="a_node17"><a xlink:href="goto__instrument__parse__options_8h.html" target="_top" xlink:title="Command Line Parsing.">
<polygon fill="none" stroke="black" points="3059.5,-89.5 3059.5,-141.5 3241.5,-141.5 3241.5,-89.5 3059.5,-89.5"/>
<text text-anchor="start" x="3067.5" y="-129.5" font-family="Helvetica,sans-Serif" font-size="10.00">/home/runner/work/diffblue</text>
<text text-anchor="start" x="3067.5" y="-118.5" font-family="Helvetica,sans-Serif" font-size="10.00">&#45;cbmc/diffblue&#45;cbmc/src</text>
<text text-anchor="start" x="3067.5" y="-107.5" font-family="Helvetica,sans-Serif" font-size="10.00">/goto&#45;instrument/goto_instrument</text>
<text text-anchor="middle" x="3150.5" y="-96.5" font-family="Helvetica,sans-Serif" font-size="10.00">_parse_options.h</text>
</a>
</g>
</g>
<!-- Node2&#45;&gt;Node17 -->
<g id="edge17" class="edge">
<title>Node2&#45;&gt;Node17</title>
<path fill="none" stroke="midnightblue" d="M2122.39,-203.38C2296.49,-202.03 2706.17,-193.14 3045.5,-142 3050.04,-141.32 3054.68,-140.53 3059.35,-139.66"/>
<polygon fill="midnightblue" stroke="midnightblue" points="2122.24,-199.88 2112.27,-203.45 2122.29,-206.88 2122.24,-199.88"/>
</g>
<!-- Node19 -->
<g id="node19" class="node">
<title>Node19</title>
<g id="a_node19"><a xlink:href="model__argc__argv_8cpp.html" target="_top" xlink:title="Initialize command line arguments.">
<polygon fill="none" stroke="black" points="1396.5,-89.5 1396.5,-141.5 1554.5,-141.5 1554.5,-89.5 1396.5,-89.5"/>
<text text-anchor="start" x="1404.5" y="-129.5" font-family="Helvetica,sans-Serif" font-size="10.00">/home/runner/work/diffblue</text>
<text text-anchor="start" x="1404.5" y="-118.5" font-family="Helvetica,sans-Serif" font-size="10.00">&#45;cbmc/diffblue&#45;cbmc/src</text>
<text text-anchor="start" x="1404.5" y="-107.5" font-family="Helvetica,sans-Serif" font-size="10.00">/goto&#45;instrument/model_argc</text>
<text text-anchor="middle" x="1475.5" y="-96.5" font-family="Helvetica,sans-Serif" font-size="10.00">_argv.cpp</text>
</a>
</g>
</g>
<!-- Node2&#45;&gt;Node19 -->
<g id="edge21" class="edge">
<title>Node2&#45;&gt;Node19</title>
<path fill="none" stroke="midnightblue" d="M1952.66,-196.55C1857.12,-187.79 1697.55,-170.35 1562.5,-142 1559.88,-141.45 1557.23,-140.86 1554.55,-140.24"/>
<polygon fill="midnightblue" stroke="midnightblue" points="1952.57,-200.06 1962.85,-197.47 1953.21,-193.08 1952.57,-200.06"/>
</g>
<!-- Node20 -->
<g id="node20" class="node">
<title>Node20</title>
<g id="a_node20"><a xlink:href="goto__synthesizer__languages_8cpp.html" target="_top" xlink:title="Language Registration.">
<polygon fill="none" stroke="black" points="810.5,-89.5 810.5,-141.5 998.5,-141.5 998.5,-89.5 810.5,-89.5"/>
<text text-anchor="start" x="818.5" y="-129.5" font-family="Helvetica,sans-Serif" font-size="10.00">/home/runner/work/diffblue</text>
<text text-anchor="start" x="818.5" y="-118.5" font-family="Helvetica,sans-Serif" font-size="10.00">&#45;cbmc/diffblue&#45;cbmc/src</text>
<text text-anchor="start" x="818.5" y="-107.5" font-family="Helvetica,sans-Serif" font-size="10.00">/goto&#45;synthesizer/goto_synthesizer</text>
<text text-anchor="middle" x="904.5" y="-96.5" font-family="Helvetica,sans-Serif" font-size="10.00">_languages.cpp</text>
</a>
</g>
</g>
<!-- Node2&#45;&gt;Node20 -->
<g id="edge22" class="edge">
<title>Node2&#45;&gt;Node20</title>
<path fill="none" stroke="midnightblue" d="M1952.53,-203.32C1776.3,-201.88 1358.58,-192.85 1012.5,-142 1007.93,-141.33 1003.26,-140.56 998.56,-139.71"/>
<polygon fill="midnightblue" stroke="midnightblue" points="1952.75,-206.83 1962.77,-203.4 1952.8,-199.83 1952.75,-206.83"/>
</g>
<!-- Node21 -->
<g id="node21" class="node">
<title>Node21</title>
<g id="a_node21"><a xlink:href="api_8cpp.html" target="_top" xlink:title=" ">
<polygon fill="none" stroke="black" points="1572,-95 1572,-136 1721,-136 1721,-95 1572,-95"/>
<text text-anchor="start" x="1580" y="-124" font-family="Helvetica,sans-Serif" font-size="10.00">/home/runner/work/diffblue</text>
<text text-anchor="start" x="1580" y="-113" font-family="Helvetica,sans-Serif" font-size="10.00">&#45;cbmc/diffblue&#45;cbmc/src</text>
<text text-anchor="middle" x="1646.5" y="-102" font-family="Helvetica,sans-Serif" font-size="10.00">/libcprover&#45;cpp/api.cpp</text>
</a>
</g>
</g>
<!-- Node2&#45;&gt;Node21 -->
<g id="edge23" class="edge">
<title>Node2&#45;&gt;Node21</title>
<path fill="none" stroke="midnightblue" d="M1952.8,-188.82C1890.88,-177.53 1805.03,-160.73 1730.5,-142 1723.41,-140.22 1716.02,-138.21 1708.7,-136.12"/>
<polygon fill="midnightblue" stroke="midnightblue" points="1952.45,-192.31 1962.92,-190.65 1953.7,-185.42 1952.45,-192.31"/>
</g>
<!-- Node22 -->
<g id="node22" class="node">
<title>Node22</title>
<g id="a_node22"><a xlink:href="memory__analyzer__parse__options_8cpp.html" target="_top" xlink:title="Commandline parser for the memory analyzer executing main work.">
<polygon fill="none" stroke="black" points="1739.5,-89.5 1739.5,-141.5 1937.5,-141.5 1937.5,-89.5 1739.5,-89.5"/>
<text text-anchor="start" x="1747.5" y="-129.5" font-family="Helvetica,sans-Serif" font-size="10.00">/home/runner/work/diffblue</text>
<text text-anchor="start" x="1747.5" y="-118.5" font-family="Helvetica,sans-Serif" font-size="10.00">&#45;cbmc/diffblue&#45;cbmc/src</text>
<text text-anchor="start" x="1747.5" y="-107.5" font-family="Helvetica,sans-Serif" font-size="10.00">/memory&#45;analyzer/memory_analyzer</text>
<text text-anchor="middle" x="1838.5" y="-96.5" font-family="Helvetica,sans-Serif" font-size="10.00">_parse_options.cpp</text>
</a>
</g>
</g>
<!-- Node2&#45;&gt;Node22 -->
<g id="edge24" class="edge">
<title>Node2&#45;&gt;Node22</title>
<path fill="none" stroke="midnightblue" d="M1983.5,-179.89C1956.36,-168.03 1923.47,-153.65 1895.88,-141.58"/>
<polygon fill="midnightblue" stroke="midnightblue" points="1982.28,-183.18 1992.84,-183.98 1985.08,-176.76 1982.28,-183.18"/>
</g>
<!-- Node23 -->
<g id="node23" class="node">
<title>Node23</title>
<g id="a_node23"><a xlink:href="symtab2gb__parse__options_8cpp.html" target="_top" xlink:title=" ">
<polygon fill="none" stroke="black" points="1955.5,-89.5 1955.5,-141.5 2119.5,-141.5 2119.5,-89.5 1955.5,-89.5"/>
<text text-anchor="start" x="1963.5" y="-129.5" font-family="Helvetica,sans-Serif" font-size="10.00">/home/runner/work/diffblue</text>
<text text-anchor="start" x="1963.5" y="-118.5" font-family="Helvetica,sans-Serif" font-size="10.00">&#45;cbmc/diffblue&#45;cbmc/src</text>
<text text-anchor="start" x="1963.5" y="-107.5" font-family="Helvetica,sans-Serif" font-size="10.00">/symtab2gb/symtab2gb_parse</text>
<text text-anchor="middle" x="2037.5" y="-96.5" font-family="Helvetica,sans-Serif" font-size="10.00">_options.cpp</text>
</a>
</g>
</g>
<!-- Node2&#45;&gt;Node23 -->
<g id="edge25" class="edge">
<title>Node2&#45;&gt;Node23</title>
<path fill="none" stroke="midnightblue" d="M2037.5,-173.51C2037.5,-163.17 2037.5,-151.71 2037.5,-141.79"/>
<polygon fill="midnightblue" stroke="midnightblue" points="2034,-173.76 2037.5,-183.76 2041,-173.76 2034,-173.76"/>
</g>
<!-- Node24 -->
<g id="node24" class="node">
<title>Node24</title>
<g id="a_node24"><a xlink:href="janalyzer__parse__options_8cpp.html" target="_top" xlink:title="JANALYZER Command Line Option Processing.">
<polygon fill="none" stroke="black" points="2138,-89.5 2138,-141.5 2287,-141.5 2287,-89.5 2138,-89.5"/>
<text text-anchor="start" x="2146" y="-129.5" font-family="Helvetica,sans-Serif" font-size="10.00">/home/runner/work/diffblue</text>
<text text-anchor="start" x="2146" y="-118.5" font-family="Helvetica,sans-Serif" font-size="10.00">&#45;cbmc/diffblue&#45;cbmc/jbmc</text>
<text text-anchor="start" x="2146" y="-107.5" font-family="Helvetica,sans-Serif" font-size="10.00">/src/janalyzer/janalyzer</text>
<text text-anchor="middle" x="2212.5" y="-96.5" font-family="Helvetica,sans-Serif" font-size="10.00">_parse_options.cpp</text>
</a>
</g>
</g>
<!-- Node2&#45;&gt;Node24 -->
<g id="edge26" class="edge">
<title>Node2&#45;&gt;Node24</title>
<path fill="none" stroke="midnightblue" d="M2085.93,-179.42C2109.61,-167.65 2138.1,-153.49 2162.04,-141.58"/>
<polygon fill="midnightblue" stroke="midnightblue" points="2084.17,-176.39 2076.77,-183.98 2087.29,-182.66 2084.17,-176.39"/>
</g>
<!-- Node25 -->
<g id="node25" class="node">
<title>Node25</title>
<g id="a_node25"><a xlink:href="jbmc__parse__options_8cpp.html" target="_top" xlink:title="JBMC Command Line Option Processing.">
<polygon fill="none" stroke="black" points="2305.5,-95 2305.5,-136 2487.5,-136 2487.5,-95 2305.5,-95"/>
<text text-anchor="start" x="2313.5" y="-124" font-family="Helvetica,sans-Serif" font-size="10.00">/home/runner/work/diffblue</text>
<text text-anchor="start" x="2313.5" y="-113" font-family="Helvetica,sans-Serif" font-size="10.00">&#45;cbmc/diffblue&#45;cbmc/jbmc</text>
<text text-anchor="middle" x="2396.5" y="-102" font-family="Helvetica,sans-Serif" font-size="10.00">/src/jbmc/jbmc_parse_options.cpp</text>
</a>
</g>
</g>
<!-- Node2&#45;&gt;Node25 -->
<g id="edge27" class="edge">
<title>Node2&#45;&gt;Node25</title>
<path fill="none" stroke="midnightblue" d="M2121.96,-183.67C2172.37,-171.75 2237.64,-156.2 2295.5,-142 2303.32,-140.08 2311.47,-138.06 2319.6,-136.03"/>
<polygon fill="midnightblue" stroke="midnightblue" points="2121.01,-180.29 2112.08,-186 2122.61,-187.11 2121.01,-180.29"/>
</g>
<!-- Node26 -->
<g id="node26" class="node">
<title>Node26</title>
<g id="a_node26"><a xlink:href="get__goto__model__from__c_8cpp.html" target="_top" xlink:title=" ">
<polygon fill="none" stroke="black" points="2505.5,-89.5 2505.5,-141.5 2665.5,-141.5 2665.5,-89.5 2505.5,-89.5"/>
<text text-anchor="start" x="2513.5" y="-129.5" font-family="Helvetica,sans-Serif" font-size="10.00">/home/runner/work/diffblue</text>
<text text-anchor="start" x="2513.5" y="-118.5" font-family="Helvetica,sans-Serif" font-size="10.00">&#45;cbmc/diffblue&#45;cbmc/unit</text>
<text text-anchor="start" x="2513.5" y="-107.5" font-family="Helvetica,sans-Serif" font-size="10.00">/testing&#45;utils/get_goto_model</text>
<text text-anchor="middle" x="2585.5" y="-96.5" font-family="Helvetica,sans-Serif" font-size="10.00">_from_c.cpp</text>
</a>
</g>
</g>
<!-- Node2&#45;&gt;Node26 -->
<g id="edge28" class="edge">
<title>Node2&#45;&gt;Node26</title>
<path fill="none" stroke="midnightblue" d="M2122.56,-195.85C2215.18,-186.66 2367.36,-169 2496.5,-142 2499.33,-141.41 2502.21,-140.77 2505.1,-140.1"/>
<polygon fill="midnightblue" stroke="midnightblue" points="2122.01,-192.39 2112.4,-196.85 2122.69,-199.36 2122.01,-192.39"/>
</g>
<!-- Node6&#45;&gt;Node5 -->
<g id="edge6" class="edge">
<title>Node6&#45;&gt;Node5</title>
<path fill="none" stroke="midnightblue" d="M1061.52,-91.89C1017.32,-78.01 961.26,-60.4 918.94,-47.11"/>
<polygon fill="midnightblue" stroke="midnightblue" points="1060.75,-95.32 1071.34,-94.98 1062.84,-88.64 1060.75,-95.32"/>
</g>
<!-- Node7 -->
<g id="node7" class="node">
<title>Node7</title>
<g id="a_node7"><a xlink:href="cbmc__main_8cpp.html" target="_top" xlink:title="CBMC Main Module.">
<polygon fill="none" stroke="black" points="1344,-6 1344,-47 1493,-47 1493,-6 1344,-6"/>
<text text-anchor="start" x="1352" y="-35" font-family="Helvetica,sans-Serif" font-size="10.00">/home/runner/work/diffblue</text>
<text text-anchor="start" x="1352" y="-24" font-family="Helvetica,sans-Serif" font-size="10.00">&#45;cbmc/diffblue&#45;cbmc/src</text>
<text text-anchor="middle" x="1418.5" y="-13" font-family="Helvetica,sans-Serif" font-size="10.00">/cbmc/cbmc_main.cpp</text>
</a>
</g>
</g>
<!-- Node6&#45;&gt;Node7 -->
<g id="edge7" class="edge">
<title>Node6&#45;&gt;Node7</title>
<path fill="none" stroke="midnightblue" d="M1207.27,-91.98C1252.8,-78.08 1310.63,-60.43 1354.26,-47.11"/>
<polygon fill="midnightblue" stroke="midnightblue" points="1206,-88.71 1197.46,-94.98 1208.05,-95.4 1206,-88.71"/>
</g>
<!-- Node8 -->
<g id="node8" class="node">
<title>Node8</title>
<g id="a_node8"><a xlink:href="cbmc__parse__options_8cpp.html" target="_top" xlink:title="CBMC Command Line Option Processing.">
<polygon fill="none" stroke="black" points="950,-6 950,-47 1119,-47 1119,-6 950,-6"/>
<text text-anchor="start" x="958" y="-35" font-family="Helvetica,sans-Serif" font-size="10.00">/home/runner/work/diffblue</text>
<text text-anchor="start" x="958" y="-24" font-family="Helvetica,sans-Serif" font-size="10.00">&#45;cbmc/diffblue&#45;cbmc/src</text>
<text text-anchor="middle" x="1034.5" y="-13" font-family="Helvetica,sans-Serif" font-size="10.00">/cbmc/cbmc_parse_options.cpp</text>
</a>
</g>
</g>
<!-- Node6&#45;&gt;Node8 -->
<g id="edge8" class="edge">
<title>Node6&#45;&gt;Node8</title>
<path fill="none" stroke="midnightblue" d="M1103.49,-88.13C1088.49,-74.95 1070.66,-59.27 1056.88,-47.16"/>
<polygon fill="midnightblue" stroke="midnightblue" points="1101.21,-90.79 1111.04,-94.76 1105.83,-85.53 1101.21,-90.79"/>
</g>
<!-- Node9 -->
<g id="node9" class="node">
<title>Node9</title>
<g id="a_node9"><a xlink:href="goto__synthesizer__parse__options_8cpp.html" target="_top" xlink:title="Main Module.">
<polygon fill="none" stroke="black" points="1137.5,-0.5 1137.5,-52.5 1325.5,-52.5 1325.5,-0.5 1137.5,-0.5"/>
<text text-anchor="start" x="1145.5" y="-40.5" font-family="Helvetica,sans-Serif" font-size="10.00">/home/runner/work/diffblue</text>
<text text-anchor="start" x="1145.5" y="-29.5" font-family="Helvetica,sans-Serif" font-size="10.00">&#45;cbmc/diffblue&#45;cbmc/src</text>
<text text-anchor="start" x="1145.5" y="-18.5" font-family="Helvetica,sans-Serif" font-size="10.00">/goto&#45;synthesizer/goto_synthesizer</text>
<text text-anchor="middle" x="1231.5" y="-7.5" font-family="Helvetica,sans-Serif" font-size="10.00">_parse_options.cpp</text>
</a>
</g>
</g>
<!-- Node6&#45;&gt;Node9 -->
<g id="edge9" class="edge">
<title>Node6&#45;&gt;Node9</title>
<path fill="none" stroke="midnightblue" d="M1163.29,-88.05C1175.91,-76.85 1190.54,-63.86 1203.01,-52.79"/>
<polygon fill="midnightblue" stroke="midnightblue" points="1160.89,-85.5 1155.74,-94.76 1165.54,-90.74 1160.89,-85.5"/>
</g>
<!-- Node17&#45;&gt;Node15 -->
<g id="edge18" class="edge">
<title>Node17&#45;&gt;Node15</title>
<path fill="none" stroke="midnightblue" d="M3083.69,-85.44C3059.17,-74.77 3031.65,-62.8 3008.02,-52.52"/>
<polygon fill="midnightblue" stroke="midnightblue" points="3082.35,-88.67 3092.92,-89.45 3085.15,-82.25 3082.35,-88.67"/>
</g>
<!-- Node17&#45;&gt;Node16 -->
<g id="edge20" class="edge">
<title>Node17&#45;&gt;Node16</title>
<path fill="none" stroke="midnightblue" d="M3217.31,-85.44C3241.83,-74.77 3269.35,-62.8 3292.98,-52.52"/>
<polygon fill="midnightblue" stroke="midnightblue" points="3215.85,-82.25 3208.08,-89.45 3218.65,-88.67 3215.85,-82.25"/>
</g>
<!-- Node18 -->
<g id="node18" class="node">
<title>Node18</title>
<g id="a_node18"><a xlink:href="goto__instrument__main_8cpp.html" target="_top" xlink:title="Main Module.">
<polygon fill="none" stroke="black" points="3059.5,-0.5 3059.5,-52.5 3241.5,-52.5 3241.5,-0.5 3059.5,-0.5"/>
<text text-anchor="start" x="3067.5" y="-40.5" font-family="Helvetica,sans-Serif" font-size="10.00">/home/runner/work/diffblue</text>
<text text-anchor="start" x="3067.5" y="-29.5" font-family="Helvetica,sans-Serif" font-size="10.00">&#45;cbmc/diffblue&#45;cbmc/src</text>
<text text-anchor="start" x="3067.5" y="-18.5" font-family="Helvetica,sans-Serif" font-size="10.00">/goto&#45;instrument/goto_instrument</text>
<text text-anchor="middle" x="3150.5" y="-7.5" font-family="Helvetica,sans-Serif" font-size="10.00">_main.cpp</text>
</a>
</g>
</g>
<!-- Node17&#45;&gt;Node18 -->
<g id="edge19" class="edge">
<title>Node17&#45;&gt;Node18</title>
<path fill="none" stroke="midnightblue" d="M3150.5,-79.19C3150.5,-70.28 3150.5,-60.9 3150.5,-52.61"/>
<polygon fill="midnightblue" stroke="midnightblue" points="3147,-79.34 3150.5,-89.34 3154,-79.34 3147,-79.34"/>
</g>
<!-- Node29&#45;&gt;Node5 -->
<g id="edge32" class="edge">
<title>Node29&#45;&gt;Node5</title>
<path fill="none" stroke="midnightblue" d="M343.63,-191.52C286.39,-181.5 218.2,-165.1 200.5,-142 186.18,-123.3 184.64,-106.42 200.5,-89 238.96,-46.77 616.79,-33 780.97,-28.99"/>
<polygon fill="midnightblue" stroke="midnightblue" points="343.36,-195.02 353.81,-193.25 344.54,-188.12 343.36,-195.02"/>
</g>
<!-- Node29&#45;&gt;Node11 -->
<g id="edge34" class="edge">
<title>Node29&#45;&gt;Node11</title>
<path fill="none" stroke="midnightblue" d="M457.42,-176.73C469.44,-165.6 483.33,-152.75 495.18,-141.79"/>
<polygon fill="midnightblue" stroke="midnightblue" points="454.79,-174.4 449.83,-183.76 459.55,-179.53 454.79,-174.4"/>
</g>
<!-- Node29&#45;&gt;Node12 -->
<g id="edge35" class="edge">
<title>Node29&#45;&gt;Node12</title>
<path fill="none" stroke="midnightblue" d="M500.46,-180.98C544.87,-167.08 601.27,-149.43 643.84,-136.11"/>
<polygon fill="midnightblue" stroke="midnightblue" points="499.39,-177.65 490.89,-183.98 501.48,-184.33 499.39,-177.65"/>
</g>
<!-- Node29&#45;&gt;Node13 -->
<g id="edge36" class="edge">
<title>Node29&#45;&gt;Node13</title>
<path fill="none" stroke="midnightblue" d="M399.3,-176.76C385,-163.66 368.07,-148.16 354.97,-136.16"/>
<polygon fill="midnightblue" stroke="midnightblue" points="397.2,-179.59 406.94,-183.76 401.93,-174.42 397.2,-179.59"/>
</g>
<!-- Node29&#45;&gt;Node15 -->
<g id="edge37" class="edge">
<title>Node29&#45;&gt;Node15</title>
<path fill="none" stroke="midnightblue" d="M343.5,-199.01C303.33,-192.09 258.75,-176.44 233.5,-142 219.57,-123 217.03,-105.84 233.5,-89 245.24,-76.99 2387.7,-37.65 2859.36,-29.14"/>
<polygon fill="midnightblue" stroke="midnightblue" points="343.18,-202.5 353.6,-200.59 344.26,-195.59 343.18,-202.5"/>
</g>
<!-- Node29&#45;&gt;Node20 -->
<g id="edge38" class="edge">
<title>Node29&#45;&gt;Node20</title>
<path fill="none" stroke="midnightblue" d="M513.11,-191.51C588.94,-180.29 703.07,-162.27 801.5,-142 804.39,-141.41 807.32,-140.79 810.27,-140.15"/>
<polygon fill="midnightblue" stroke="midnightblue" points="512.51,-188.06 503.13,-192.97 513.53,-194.98 512.51,-188.06"/>
</g>
<!-- Node30 -->
<g id="node30" class="node">
<title>Node30</title>
<g id="a_node30"><a xlink:href="cpp__language_8cpp.html" target="_top" xlink:title="C++ Language Module.">
<polygon fill="none" stroke="black" points="0,-95 0,-136 149,-136 149,-95 0,-95"/>
<text text-anchor="start" x="8" y="-124" font-family="Helvetica,sans-Serif" font-size="10.00">/home/runner/work/diffblue</text>
<text text-anchor="start" x="8" y="-113" font-family="Helvetica,sans-Serif" font-size="10.00">&#45;cbmc/diffblue&#45;cbmc/src</text>
<text text-anchor="middle" x="74.5" y="-102" font-family="Helvetica,sans-Serif" font-size="10.00">/cpp/cpp_language.cpp</text>
</a>
</g>
</g>
<!-- Node29&#45;&gt;Node30 -->
<g id="edge33" class="edge">
<title>Node29&#45;&gt;Node30</title>
<path fill="none" stroke="midnightblue" d="M344.06,-185.22C291.63,-173.56 222.94,-157.73 162.5,-142 155.42,-140.16 148.04,-138.15 140.7,-136.11"/>
<polygon fill="midnightblue" stroke="midnightblue" points="343.47,-188.67 353.99,-187.42 344.99,-181.84 343.47,-188.67"/>
</g>
</g>
</svg>
