<?xml version="1.0" encoding="UTF-8" standalone="no"?>
<!DOCTYPE svg PUBLIC "-//W3C//DTD SVG 1.1//EN"
 "http://www.w3.org/Graphics/SVG/1.1/DTD/svg11.dtd">
<!-- Generated by graphviz version 2.43.0 (0)
 -->
<!-- Title: /home/runner/work/diffblue&#45;cbmc/diffblue&#45;cbmc/src/ansi&#45;c/c_qualifiers.h Pages: 1 -->
<svg width="2574pt" height="217pt"
 viewBox="0.00 0.00 2573.50 217.00" xmlns="http://www.w3.org/2000/svg" xmlns:xlink="http://www.w3.org/1999/xlink">
<g id="graph0" class="graph" transform="scale(1 1) rotate(0) translate(4 213)">
<title>/home/runner/work/diffblue&#45;cbmc/diffblue&#45;cbmc/src/ansi&#45;c/c_qualifiers.h</title>
<!-- Node1 -->
<g id="node1" class="node">
<title>Node1</title>
<g id="a_node1"><a xlink:title=" ">
<polygon fill="#bfbfbf" stroke="black" points="1137.5,-167.5 1137.5,-208.5 1286.5,-208.5 1286.5,-167.5 1137.5,-167.5"/>
<text text-anchor="start" x="1145.5" y="-196.5" font-family="Helvetica,sans-Serif" font-size="10.00">/home/runner/work/diffblue</text>
<text text-anchor="start" x="1145.5" y="-185.5" font-family="Helvetica,sans-Serif" font-size="10.00">&#45;cbmc/diffblue&#45;cbmc/src</text>
<text text-anchor="middle" x="1212" y="-174.5" font-family="Helvetica,sans-Serif" font-size="10.00">/ansi&#45;c/c_qualifiers.h</text>
</a>
</g>
</g>
<!-- Node2 -->
<g id="node2" class="node">
<title>Node2</title>
<g id="a_node2"><a xlink:href="ansi__c__convert__type_8h.html" target="_top" xlink:title="ANSI&#45;C Language Conversion.">
<polygon fill="none" stroke="black" points="216.5,-84 216.5,-125 377.5,-125 377.5,-84 216.5,-84"/>
<text text-anchor="start" x="224.5" y="-113" font-family="Helvetica,sans-Serif" font-size="10.00">/home/runner/work/diffblue</text>
<text text-anchor="start" x="224.5" y="-102" font-family="Helvetica,sans-Serif" font-size="10.00">&#45;cbmc/diffblue&#45;cbmc/src</text>
<text text-anchor="middle" x="297" y="-91" font-family="Helvetica,sans-Serif" font-size="10.00">/ansi&#45;c/ansi_c_convert_type.h</text>
</a>
</g>
</g>
<!-- Node1&#45;&gt;Node2 -->
<g id="edge1" class="edge">
<title>Node1&#45;&gt;Node2</title>
<path fill="none" stroke="midnightblue" d="M1127,-185.44C979.79,-181.76 668.17,-169.7 408,-131 397.24,-129.4 385.99,-127.31 374.94,-125.02"/>
<polygon fill="midnightblue" stroke="midnightblue" points="1127.23,-188.94 1137.31,-185.69 1127.4,-181.95 1127.23,-188.94"/>
</g>
<!-- Node4 -->
<g id="node4" class="node">
<title>Node4</title>
<g id="a_node4"><a xlink:href="c__typecheck__type_8cpp.html" target="_top" xlink:title="C++ Language Type Checking.">
<polygon fill="none" stroke="black" points="358,-0.5 358,-41.5 518,-41.5 518,-0.5 358,-0.5"/>
<text text-anchor="start" x="366" y="-29.5" font-family="Helvetica,sans-Serif" font-size="10.00">/home/runner/work/diffblue</text>
<text text-anchor="start" x="366" y="-18.5" font-family="Helvetica,sans-Serif" font-size="10.00">&#45;cbmc/diffblue&#45;cbmc/src</text>
<text text-anchor="middle" x="438" y="-7.5" font-family="Helvetica,sans-Serif" font-size="10.00">/ansi&#45;c/c_typecheck_type.cpp</text>
</a>
</g>
</g>
<!-- Node1&#45;&gt;Node4 -->
<g id="edge8" class="edge">
<title>Node1&#45;&gt;Node4</title>
<path fill="none" stroke="midnightblue" d="M1126.99,-187.14C936.1,-186.59 486.45,-180.03 440,-131 417.61,-107.37 424.4,-66.29 431.27,-41.87"/>
<polygon fill="midnightblue" stroke="midnightblue" points="1127.25,-190.65 1137.26,-187.17 1127.26,-183.65 1127.25,-190.65"/>
</g>
<!-- Node6 -->
<g id="node6" class="node">
<title>Node6</title>
<g id="a_node6"><a xlink:href="c__qualifiers_8cpp.html" target="_top" xlink:title=" ">
<polygon fill="none" stroke="black" points="449.5,-84 449.5,-125 598.5,-125 598.5,-84 449.5,-84"/>
<text text-anchor="start" x="457.5" y="-113" font-family="Helvetica,sans-Serif" font-size="10.00">/home/runner/work/diffblue</text>
<text text-anchor="start" x="457.5" y="-102" font-family="Helvetica,sans-Serif" font-size="10.00">&#45;cbmc/diffblue&#45;cbmc/src</text>
<text text-anchor="middle" x="524" y="-91" font-family="Helvetica,sans-Serif" font-size="10.00">/ansi&#45;c/c_qualifiers.cpp</text>
</a>
</g>
</g>
<!-- Node1&#45;&gt;Node6 -->
<g id="edge5" class="edge">
<title>Node1&#45;&gt;Node6</title>
<path fill="none" stroke="midnightblue" d="M1127.22,-184.64C1009.48,-180.13 790.25,-167.23 607,-131 598.87,-129.39 590.4,-127.3 582.11,-125"/>
<polygon fill="midnightblue" stroke="midnightblue" points="1127.13,-188.14 1137.25,-185.02 1127.39,-181.15 1127.13,-188.14"/>
</g>
<!-- Node7 -->
<g id="node7" class="node">
<title>Node7</title>
<g id="a_node7"><a xlink:href="c__typecast_8cpp.html" target="_top" xlink:title=" ">
<polygon fill="none" stroke="black" points="616.5,-84 616.5,-125 765.5,-125 765.5,-84 616.5,-84"/>
<text text-anchor="start" x="624.5" y="-113" font-family="Helvetica,sans-Serif" font-size="10.00">/home/runner/work/diffblue</text>
<text text-anchor="start" x="624.5" y="-102" font-family="Helvetica,sans-Serif" font-size="10.00">&#45;cbmc/diffblue&#45;cbmc/src</text>
<text text-anchor="middle" x="691" y="-91" font-family="Helvetica,sans-Serif" font-size="10.00">/ansi&#45;c/c_typecast.cpp</text>
</a>
</g>
</g>
<!-- Node1&#45;&gt;Node7 -->
<g id="edge6" class="edge">
<title>Node1&#45;&gt;Node7</title>
<path fill="none" stroke="midnightblue" d="M1127.32,-180.49C1038.56,-172.67 895.4,-157.21 774,-131 766.34,-129.35 758.36,-127.31 750.52,-125.12"/>
<polygon fill="midnightblue" stroke="midnightblue" points="1127.07,-183.99 1137.33,-181.37 1127.67,-177.01 1127.07,-183.99"/>
</g>
<!-- Node8 -->
<g id="node8" class="node">
<title>Node8</title>
<g id="a_node8"><a xlink:href="c__typecheck__expr_8cpp.html" target="_top" xlink:title="ANSI&#45;C Language Type Checking.">
<polygon fill="none" stroke="black" points="783.5,-84 783.5,-125 942.5,-125 942.5,-84 783.5,-84"/>
<text text-anchor="start" x="791.5" y="-113" font-family="Helvetica,sans-Serif" font-size="10.00">/home/runner/work/diffblue</text>
<text text-anchor="start" x="791.5" y="-102" font-family="Helvetica,sans-Serif" font-size="10.00">&#45;cbmc/diffblue&#45;cbmc/src</text>
<text text-anchor="middle" x="863" y="-91" font-family="Helvetica,sans-Serif" font-size="10.00">/ansi&#45;c/c_typecheck_expr.cpp</text>
</a>
</g>
</g>
<!-- Node1&#45;&gt;Node8 -->
<g id="edge7" class="edge">
<title>Node1&#45;&gt;Node8</title>
<path fill="none" stroke="midnightblue" d="M1127.39,-170.42C1076.13,-159.99 1009.56,-145.75 951,-131 943.75,-129.17 936.2,-127.16 928.69,-125.09"/>
<polygon fill="midnightblue" stroke="midnightblue" points="1126.93,-173.9 1137.43,-172.46 1128.32,-167.04 1126.93,-173.9"/>
</g>
<!-- Node9 -->
<g id="node9" class="node">
<title>Node9</title>
<g id="a_node9"><a xlink:href="expr2c_8cpp.html" target="_top" xlink:title=" ">
<polygon fill="none" stroke="black" points="960.5,-84 960.5,-125 1109.5,-125 1109.5,-84 960.5,-84"/>
<text text-anchor="start" x="968.5" y="-113" font-family="Helvetica,sans-Serif" font-size="10.00">/home/runner/work/diffblue</text>
<text text-anchor="start" x="968.5" y="-102" font-family="Helvetica,sans-Serif" font-size="10.00">&#45;cbmc/diffblue&#45;cbmc/src</text>
<text text-anchor="middle" x="1035" y="-91" font-family="Helvetica,sans-Serif" font-size="10.00">/ansi&#45;c/expr2c.cpp</text>
</a>
</g>
</g>
<!-- Node1&#45;&gt;Node9 -->
<g id="edge9" class="edge">
<title>Node1&#45;&gt;Node9</title>
<path fill="none" stroke="midnightblue" d="M1160.51,-163.29C1134.1,-151.13 1102.33,-136.5 1077.36,-125"/>
<polygon fill="midnightblue" stroke="midnightblue" points="1159.06,-166.48 1169.6,-167.48 1161.98,-160.12 1159.06,-166.48"/>
</g>
<!-- Node10 -->
<g id="node10" class="node">
<title>Node10</title>
<g id="a_node10"><a xlink:href="cpp__typecheck__compound__type_8cpp.html" target="_top" xlink:title="C++ Language Type Checking.">
<polygon fill="none" stroke="black" points="1127.5,-78.5 1127.5,-130.5 1296.5,-130.5 1296.5,-78.5 1127.5,-78.5"/>
<text text-anchor="start" x="1135.5" y="-118.5" font-family="Helvetica,sans-Serif" font-size="10.00">/home/runner/work/diffblue</text>
<text text-anchor="start" x="1135.5" y="-107.5" font-family="Helvetica,sans-Serif" font-size="10.00">&#45;cbmc/diffblue&#45;cbmc/src</text>
<text text-anchor="start" x="1135.5" y="-96.5" font-family="Helvetica,sans-Serif" font-size="10.00">/cpp/cpp_typecheck_compound</text>
<text text-anchor="middle" x="1212" y="-85.5" font-family="Helvetica,sans-Serif" font-size="10.00">_type.cpp</text>
</a>
</g>
</g>
<!-- Node1&#45;&gt;Node10 -->
<g id="edge10" class="edge">
<title>Node1&#45;&gt;Node10</title>
<path fill="none" stroke="midnightblue" d="M1212,-157.12C1212,-148.41 1212,-138.99 1212,-130.61"/>
<polygon fill="midnightblue" stroke="midnightblue" points="1208.5,-157.27 1212,-167.27 1215.5,-157.27 1208.5,-157.27"/>
</g>
<!-- Node11 -->
<g id="node11" class="node">
<title>Node11</title>
<g id="a_node11"><a xlink:href="cpp__typecheck__conversions_8cpp.html" target="_top" xlink:title="C++ Language Type Checking.">
<polygon fill="none" stroke="black" points="1314.5,-84 1314.5,-125 1511.5,-125 1511.5,-84 1314.5,-84"/>
<text text-anchor="start" x="1322.5" y="-113" font-family="Helvetica,sans-Serif" font-size="10.00">/home/runner/work/diffblue</text>
<text text-anchor="start" x="1322.5" y="-102" font-family="Helvetica,sans-Serif" font-size="10.00">&#45;cbmc/diffblue&#45;cbmc/src</text>
<text text-anchor="middle" x="1413" y="-91" font-family="Helvetica,sans-Serif" font-size="10.00">/cpp/cpp_typecheck_conversions.cpp</text>
</a>
</g>
</g>
<!-- Node1&#45;&gt;Node11 -->
<g id="edge11" class="edge">
<title>Node1&#45;&gt;Node11</title>
<path fill="none" stroke="midnightblue" d="M1269.69,-163.61C1299.84,-151.39 1336.3,-136.6 1364.9,-125"/>
<polygon fill="midnightblue" stroke="midnightblue" points="1268.1,-160.48 1260.14,-167.48 1270.73,-166.96 1268.1,-160.48"/>
</g>
<!-- Node12 -->
<g id="node12" class="node">
<title>Node12</title>
<g id="a_node12"><a xlink:href="cpp__typecheck__enum__type_8cpp.html" target="_top" xlink:title="C++ Language Type Checking.">
<polygon fill="none" stroke="black" points="1529.5,-84 1529.5,-125 1722.5,-125 1722.5,-84 1529.5,-84"/>
<text text-anchor="start" x="1537.5" y="-113" font-family="Helvetica,sans-Serif" font-size="10.00">/home/runner/work/diffblue</text>
<text text-anchor="start" x="1537.5" y="-102" font-family="Helvetica,sans-Serif" font-size="10.00">&#45;cbmc/diffblue&#45;cbmc/src</text>
<text text-anchor="middle" x="1626" y="-91" font-family="Helvetica,sans-Serif" font-size="10.00">/cpp/cpp_typecheck_enum_type.cpp</text>
</a>
</g>
</g>
<!-- Node1&#45;&gt;Node12 -->
<g id="edge12" class="edge">
<title>Node1&#45;&gt;Node12</title>
<path fill="none" stroke="midnightblue" d="M1296.73,-172.92C1358.74,-162.29 1444.82,-146.86 1520,-131 1528.7,-129.16 1537.79,-127.14 1546.81,-125.06"/>
<polygon fill="midnightblue" stroke="midnightblue" points="1295.87,-169.51 1286.6,-174.65 1297.05,-176.41 1295.87,-169.51"/>
</g>
<!-- Node13 -->
<g id="node13" class="node">
<title>Node13</title>
<g id="a_node13"><a xlink:href="cpp__typecheck__expr_8cpp.html" target="_top" xlink:title="C++ Language Type Checking.">
<polygon fill="none" stroke="black" points="1740.5,-84 1740.5,-125 1899.5,-125 1899.5,-84 1740.5,-84"/>
<text text-anchor="start" x="1748.5" y="-113" font-family="Helvetica,sans-Serif" font-size="10.00">/home/runner/work/diffblue</text>
<text text-anchor="start" x="1748.5" y="-102" font-family="Helvetica,sans-Serif" font-size="10.00">&#45;cbmc/diffblue&#45;cbmc/src</text>
<text text-anchor="middle" x="1820" y="-91" font-family="Helvetica,sans-Serif" font-size="10.00">/cpp/cpp_typecheck_expr.cpp</text>
</a>
</g>
</g>
<!-- Node1&#45;&gt;Node13 -->
<g id="edge13" class="edge">
<title>Node1&#45;&gt;Node13</title>
<path fill="none" stroke="midnightblue" d="M1296.57,-182.34C1399.85,-175.63 1579.51,-160.65 1731,-131 1739.36,-129.36 1748.07,-127.31 1756.64,-125.09"/>
<polygon fill="midnightblue" stroke="midnightblue" points="1296.27,-178.86 1286.51,-182.99 1296.72,-185.84 1296.27,-178.86"/>
</g>
<!-- Node14 -->
<g id="node14" class="node">
<title>Node14</title>
<g id="a_node14"><a xlink:href="cpp__typecheck__type_8cpp.html" target="_top" xlink:title="C++ Language Type Checking.">
<polygon fill="none" stroke="black" points="1918,-84 1918,-125 2078,-125 2078,-84 1918,-84"/>
<text text-anchor="start" x="1926" y="-113" font-family="Helvetica,sans-Serif" font-size="10.00">/home/runner/work/diffblue</text>
<text text-anchor="start" x="1926" y="-102" font-family="Helvetica,sans-Serif" font-size="10.00">&#45;cbmc/diffblue&#45;cbmc/src</text>
<text text-anchor="middle" x="1998" y="-91" font-family="Helvetica,sans-Serif" font-size="10.00">/cpp/cpp_typecheck_type.cpp</text>
</a>
</g>
</g>
<!-- Node1&#45;&gt;Node14 -->
<g id="edge14" class="edge">
<title>Node1&#45;&gt;Node14</title>
<path fill="none" stroke="midnightblue" d="M1296.55,-185.52C1428.23,-182.02 1689.84,-170.29 1908,-131 1916.79,-129.42 1925.96,-127.34 1934.94,-125.05"/>
<polygon fill="midnightblue" stroke="midnightblue" points="1296.43,-182.02 1286.52,-185.78 1296.61,-189.02 1296.43,-182.02"/>
</g>
<!-- Node15 -->
<g id="node15" class="node">
<title>Node15</title>
<g id="a_node15"><a xlink:href="expr2cpp_8cpp.html" target="_top" xlink:title=" ">
<polygon fill="none" stroke="black" points="2096.5,-84 2096.5,-125 2245.5,-125 2245.5,-84 2096.5,-84"/>
<text text-anchor="start" x="2104.5" y="-113" font-family="Helvetica,sans-Serif" font-size="10.00">/home/runner/work/diffblue</text>
<text text-anchor="start" x="2104.5" y="-102" font-family="Helvetica,sans-Serif" font-size="10.00">&#45;cbmc/diffblue&#45;cbmc/src</text>
<text text-anchor="middle" x="2171" y="-91" font-family="Helvetica,sans-Serif" font-size="10.00">/cpp/expr2cpp.cpp</text>
</a>
</g>
</g>
<!-- Node1&#45;&gt;Node15 -->
<g id="edge15" class="edge">
<title>Node1&#45;&gt;Node15</title>
<path fill="none" stroke="midnightblue" d="M1296.9,-184.06C1486,-177.12 1936.98,-158.19 2087,-131 2095.4,-129.48 2104.14,-127.4 2112.68,-125.09"/>
<polygon fill="midnightblue" stroke="midnightblue" points="1296.6,-180.57 1286.73,-184.43 1296.85,-187.57 1296.6,-180.57"/>
</g>
<!-- Node16 -->
<g id="node16" class="node">
<title>Node16</title>
<g id="a_node16"><a xlink:href="java__qualifiers_8h.html" target="_top" xlink:title="Java&#45;specific type qualifiers.">
<polygon fill="none" stroke="black" points="2263.5,-84 2263.5,-125 2454.5,-125 2454.5,-84 2263.5,-84"/>
<text text-anchor="start" x="2271.5" y="-113" font-family="Helvetica,sans-Serif" font-size="10.00">/home/runner/work/diffblue</text>
<text text-anchor="start" x="2271.5" y="-102" font-family="Helvetica,sans-Serif" font-size="10.00">&#45;cbmc/diffblue&#45;cbmc/jbmc</text>
<text text-anchor="middle" x="2359" y="-91" font-family="Helvetica,sans-Serif" font-size="10.00">/src/java_bytecode/java_qualifiers.h</text>
</a>
</g>
</g>
<!-- Node1&#45;&gt;Node16 -->
<g id="edge16" class="edge">
<title>Node1&#45;&gt;Node16</title>
<path fill="none" stroke="midnightblue" d="M1296.79,-187.72C1475.04,-188.08 1901.25,-182.86 2254,-131 2264.49,-129.46 2275.46,-127.36 2286.19,-125.01"/>
<polygon fill="midnightblue" stroke="midnightblue" points="1296.71,-184.22 1286.7,-187.69 1296.69,-191.22 1296.71,-184.22"/>
</g>
<!-- Node3 -->
<g id="node3" class="node">
<title>Node3</title>
<g id="a_node3"><a xlink:href="ansi__c__convert__type_8cpp.html" target="_top" xlink:title="SpecC Language Conversion.">
<polygon fill="none" stroke="black" points="0,-0.5 0,-41.5 172,-41.5 172,-0.5 0,-0.5"/>
<text text-anchor="start" x="8" y="-29.5" font-family="Helvetica,sans-Serif" font-size="10.00">/home/runner/work/diffblue</text>
<text text-anchor="start" x="8" y="-18.5" font-family="Helvetica,sans-Serif" font-size="10.00">&#45;cbmc/diffblue&#45;cbmc/src</text>
<text text-anchor="middle" x="86" y="-7.5" font-family="Helvetica,sans-Serif" font-size="10.00">/ansi&#45;c/ansi_c_convert_type.cpp</text>
</a>
</g>
</g>
<!-- Node2&#45;&gt;Node3 -->
<g id="edge2" class="edge">
<title>Node2&#45;&gt;Node3</title>
<path fill="none" stroke="midnightblue" d="M236.85,-80.27C205.13,-68.01 166.65,-53.15 136.49,-41.5"/>
<polygon fill="midnightblue" stroke="midnightblue" points="235.87,-83.64 246.46,-83.98 238.39,-77.11 235.87,-83.64"/>
</g>
<!-- Node2&#45;&gt;Node4 -->
<g id="edge3" class="edge">
<title>Node2&#45;&gt;Node4</title>
<path fill="none" stroke="midnightblue" d="M339.65,-78.85C360.27,-66.93 384.67,-52.82 404.01,-41.64"/>
<polygon fill="midnightblue" stroke="midnightblue" points="337.68,-75.94 330.77,-83.98 341.18,-82 337.68,-75.94"/>
</g>
<!-- Node5 -->
<g id="node5" class="node">
<title>Node5</title>
<g id="a_node5"><a xlink:href="cpp__convert__type_8cpp.html" target="_top" xlink:title="C++ Language Type Conversion.">
<polygon fill="none" stroke="black" points="190.5,-0.5 190.5,-41.5 339.5,-41.5 339.5,-0.5 190.5,-0.5"/>
<text text-anchor="start" x="198.5" y="-29.5" font-family="Helvetica,sans-Serif" font-size="10.00">/home/runner/work/diffblue</text>
<text text-anchor="start" x="198.5" y="-18.5" font-family="Helvetica,sans-Serif" font-size="10.00">&#45;cbmc/diffblue&#45;cbmc/src</text>
<text text-anchor="middle" x="265" y="-7.5" font-family="Helvetica,sans-Serif" font-size="10.00">/cpp/cpp_convert_type.cpp</text>
</a>
</g>
</g>
<!-- Node2&#45;&gt;Node5 -->
<g id="edge4" class="edge">
<title>Node2&#45;&gt;Node5</title>
<path fill="none" stroke="midnightblue" d="M285.51,-74.23C281.24,-63.37 276.52,-51.33 272.67,-41.55"/>
<polygon fill="midnightblue" stroke="midnightblue" points="282.34,-75.74 289.25,-83.77 288.86,-73.18 282.34,-75.74"/>
</g>
<!-- Node17 -->
<g id="node17" class="node">
<title>Node17</title>
<g id="a_node17"><a xlink:href="expr2java_8cpp.html" target="_top" xlink:title=" ">
<polygon fill="none" stroke="black" points="2164,-0.5 2164,-41.5 2344,-41.5 2344,-0.5 2164,-0.5"/>
<text text-anchor="start" x="2172" y="-29.5" font-family="Helvetica,sans-Serif" font-size="10.00">/home/runner/work/diffblue</text>
<text text-anchor="start" x="2172" y="-18.5" font-family="Helvetica,sans-Serif" font-size="10.00">&#45;cbmc/diffblue&#45;cbmc/jbmc</text>
<text text-anchor="middle" x="2254" y="-7.5" font-family="Helvetica,sans-Serif" font-size="10.00">/src/java_bytecode/expr2java.cpp</text>
</a>
</g>
</g>
<!-- Node16&#45;&gt;Node17 -->
<g id="edge17" class="edge">
<title>Node16&#45;&gt;Node17</title>
<path fill="none" stroke="midnightblue" d="M2325.79,-77.72C2310.75,-66.05 2293.26,-52.47 2279.31,-41.64"/>
<polygon fill="midnightblue" stroke="midnightblue" points="2323.8,-80.61 2333.85,-83.98 2328.1,-75.08 2323.8,-80.61"/>
</g>
<!-- Node18 -->
<g id="node18" class="node">
<title>Node18</title>
<g id="a_node18"><a xlink:href="java__qualifiers_8cpp.html" target="_top" xlink:title="Java&#45;specific type qualifiers.">
<polygon fill="none" stroke="black" points="2362.5,-0.5 2362.5,-41.5 2565.5,-41.5 2565.5,-0.5 2362.5,-0.5"/>
<text text-anchor="start" x="2370.5" y="-29.5" font-family="Helvetica,sans-Serif" font-size="10.00">/home/runner/work/diffblue</text>
<text text-anchor="start" x="2370.5" y="-18.5" font-family="Helvetica,sans-Serif" font-size="10.00">&#45;cbmc/diffblue&#45;cbmc/jbmc</text>
<text text-anchor="middle" x="2464" y="-7.5" font-family="Helvetica,sans-Serif" font-size="10.00">/src/java_bytecode/java_qualifiers.cpp</text>
</a>
</g>
</g>
<!-- Node16&#45;&gt;Node18 -->
<g id="edge18" class="edge">
<title>Node16&#45;&gt;Node18</title>
<path fill="none" stroke="midnightblue" d="M2392.21,-77.72C2407.25,-66.05 2424.74,-52.47 2438.69,-41.64"/>
<polygon fill="midnightblue" stroke="midnightblue" points="2389.9,-75.08 2384.15,-83.98 2394.2,-80.61 2389.9,-75.08"/>
</g>
</g>
</svg>
