<?xml version="1.0" encoding="UTF-8" standalone="no"?>
<!DOCTYPE svg PUBLIC "-//W3C//DTD SVG 1.1//EN"
 "http://www.w3.org/Graphics/SVG/1.1/DTD/svg11.dtd">
<!-- Generated by graphviz version 2.43.0 (0)
 -->
<!-- Title: /home/runner/work/diffblue&#45;cbmc/diffblue&#45;cbmc/src/ansi&#45;c/c_storage_spec.h Pages: 1 -->
<svg width="872pt" height="206pt"
 viewBox="0.00 0.00 871.50 206.00" xmlns="http://www.w3.org/2000/svg" xmlns:xlink="http://www.w3.org/1999/xlink">
<g id="graph0" class="graph" transform="scale(1 1) rotate(0) translate(4 202)">
<title>/home/runner/work/diffblue&#45;cbmc/diffblue&#45;cbmc/src/ansi&#45;c/c_storage_spec.h</title>
<!-- Node1 -->
<g id="node1" class="node">
<title>Node1</title>
<g id="a_node1"><a xlink:title=" ">
<polygon fill="#bfbfbf" stroke="black" points="451.5,-156.5 451.5,-197.5 600.5,-197.5 600.5,-156.5 451.5,-156.5"/>
<text text-anchor="start" x="459.5" y="-185.5" font-family="Helvetica,sans-Serif" font-size="10.00">/home/runner/work/diffblue</text>
<text text-anchor="start" x="459.5" y="-174.5" font-family="Helvetica,sans-Serif" font-size="10.00">&#45;cbmc/diffblue&#45;cbmc/src</text>
<text text-anchor="middle" x="526" y="-163.5" font-family="Helvetica,sans-Serif" font-size="10.00">/ansi&#45;c/c_storage_spec.h</text>
</a>
</g>
</g>
<!-- Node2 -->
<g id="node2" class="node">
<title>Node2</title>
<g id="a_node2"><a xlink:href="ansi__c__convert__type_8h.html" target="_top" xlink:title="ANSI&#45;C Language Conversion.">
<polygon fill="none" stroke="black" points="189.5,-78.5 189.5,-119.5 350.5,-119.5 350.5,-78.5 189.5,-78.5"/>
<text text-anchor="start" x="197.5" y="-107.5" font-family="Helvetica,sans-Serif" font-size="10.00">/home/runner/work/diffblue</text>
<text text-anchor="start" x="197.5" y="-96.5" font-family="Helvetica,sans-Serif" font-size="10.00">&#45;cbmc/diffblue&#45;cbmc/src</text>
<text text-anchor="middle" x="270" y="-85.5" font-family="Helvetica,sans-Serif" font-size="10.00">/ansi&#45;c/ansi_c_convert_type.h</text>
</a>
</g>
</g>
<!-- Node1&#45;&gt;Node2 -->
<g id="edge1" class="edge">
<title>Node1&#45;&gt;Node2</title>
<path fill="none" stroke="midnightblue" d="M450.48,-153.58C414.05,-142.76 370.75,-129.91 335.7,-119.51"/>
<polygon fill="midnightblue" stroke="midnightblue" points="449.49,-156.94 460.07,-156.43 451.48,-150.23 449.49,-156.94"/>
</g>
<!-- Node6 -->
<g id="node6" class="node">
<title>Node6</title>
<g id="a_node6"><a xlink:href="ansi__c__parser_8cpp.html" target="_top" xlink:title=" ">
<polygon fill="none" stroke="black" points="368.5,-78.5 368.5,-119.5 517.5,-119.5 517.5,-78.5 368.5,-78.5"/>
<text text-anchor="start" x="376.5" y="-107.5" font-family="Helvetica,sans-Serif" font-size="10.00">/home/runner/work/diffblue</text>
<text text-anchor="start" x="376.5" y="-96.5" font-family="Helvetica,sans-Serif" font-size="10.00">&#45;cbmc/diffblue&#45;cbmc/src</text>
<text text-anchor="middle" x="443" y="-85.5" font-family="Helvetica,sans-Serif" font-size="10.00">/ansi&#45;c/ansi_c_parser.cpp</text>
</a>
</g>
</g>
<!-- Node1&#45;&gt;Node6 -->
<g id="edge5" class="edge">
<title>Node1&#45;&gt;Node6</title>
<path fill="none" stroke="midnightblue" d="M497.05,-149.49C486.28,-139.63 474.26,-128.63 464.3,-119.51"/>
<polygon fill="midnightblue" stroke="midnightblue" points="494.89,-152.26 504.63,-156.43 499.61,-147.09 494.89,-152.26"/>
</g>
<!-- Node7 -->
<g id="node7" class="node">
<title>Node7</title>
<g id="a_node7"><a xlink:href="c__storage__spec_8cpp.html" target="_top" xlink:title=" ">
<polygon fill="none" stroke="black" points="535.5,-78.5 535.5,-119.5 684.5,-119.5 684.5,-78.5 535.5,-78.5"/>
<text text-anchor="start" x="543.5" y="-107.5" font-family="Helvetica,sans-Serif" font-size="10.00">/home/runner/work/diffblue</text>
<text text-anchor="start" x="543.5" y="-96.5" font-family="Helvetica,sans-Serif" font-size="10.00">&#45;cbmc/diffblue&#45;cbmc/src</text>
<text text-anchor="middle" x="610" y="-85.5" font-family="Helvetica,sans-Serif" font-size="10.00">/ansi&#45;c/c_storage_spec.cpp</text>
</a>
</g>
</g>
<!-- Node1&#45;&gt;Node7 -->
<g id="edge6" class="edge">
<title>Node1&#45;&gt;Node7</title>
<path fill="none" stroke="midnightblue" d="M555.3,-149.49C566.2,-139.63 578.36,-128.63 588.44,-119.51"/>
<polygon fill="midnightblue" stroke="midnightblue" points="552.7,-147.12 547.63,-156.43 557.4,-152.31 552.7,-147.12"/>
</g>
<!-- Node8 -->
<g id="node8" class="node">
<title>Node8</title>
<g id="a_node8"><a xlink:href="c__typecheck__base_8cpp.html" target="_top" xlink:title="ANSI&#45;C Conversion / Type Checking.">
<polygon fill="none" stroke="black" points="702.5,-78.5 702.5,-119.5 863.5,-119.5 863.5,-78.5 702.5,-78.5"/>
<text text-anchor="start" x="710.5" y="-107.5" font-family="Helvetica,sans-Serif" font-size="10.00">/home/runner/work/diffblue</text>
<text text-anchor="start" x="710.5" y="-96.5" font-family="Helvetica,sans-Serif" font-size="10.00">&#45;cbmc/diffblue&#45;cbmc/src</text>
<text text-anchor="middle" x="783" y="-85.5" font-family="Helvetica,sans-Serif" font-size="10.00">/ansi&#45;c/c_typecheck_base.cpp</text>
</a>
</g>
</g>
<!-- Node1&#45;&gt;Node8 -->
<g id="edge7" class="edge">
<title>Node1&#45;&gt;Node8</title>
<path fill="none" stroke="midnightblue" d="M601.81,-153.58C638.39,-142.76 681.85,-129.91 717.04,-119.51"/>
<polygon fill="midnightblue" stroke="midnightblue" points="600.78,-150.24 592.18,-156.43 602.77,-156.95 600.78,-150.24"/>
</g>
<!-- Node3 -->
<g id="node3" class="node">
<title>Node3</title>
<g id="a_node3"><a xlink:href="ansi__c__convert__type_8cpp.html" target="_top" xlink:title="SpecC Language Conversion.">
<polygon fill="none" stroke="black" points="0,-0.5 0,-41.5 172,-41.5 172,-0.5 0,-0.5"/>
<text text-anchor="start" x="8" y="-29.5" font-family="Helvetica,sans-Serif" font-size="10.00">/home/runner/work/diffblue</text>
<text text-anchor="start" x="8" y="-18.5" font-family="Helvetica,sans-Serif" font-size="10.00">&#45;cbmc/diffblue&#45;cbmc/src</text>
<text text-anchor="middle" x="86" y="-7.5" font-family="Helvetica,sans-Serif" font-size="10.00">/ansi&#45;c/ansi_c_convert_type.cpp</text>
</a>
</g>
</g>
<!-- Node2&#45;&gt;Node3 -->
<g id="edge2" class="edge">
<title>Node2&#45;&gt;Node3</title>
<path fill="none" stroke="midnightblue" d="M213.37,-74.61C187.69,-64 157.67,-51.6 133.22,-41.51"/>
<polygon fill="midnightblue" stroke="midnightblue" points="212.04,-77.85 222.62,-78.43 214.71,-71.38 212.04,-77.85"/>
</g>
<!-- Node4 -->
<g id="node4" class="node">
<title>Node4</title>
<g id="a_node4"><a xlink:href="c__typecheck__type_8cpp.html" target="_top" xlink:title="C++ Language Type Checking.">
<polygon fill="none" stroke="black" points="190,-0.5 190,-41.5 350,-41.5 350,-0.5 190,-0.5"/>
<text text-anchor="start" x="198" y="-29.5" font-family="Helvetica,sans-Serif" font-size="10.00">/home/runner/work/diffblue</text>
<text text-anchor="start" x="198" y="-18.5" font-family="Helvetica,sans-Serif" font-size="10.00">&#45;cbmc/diffblue&#45;cbmc/src</text>
<text text-anchor="middle" x="270" y="-7.5" font-family="Helvetica,sans-Serif" font-size="10.00">/ansi&#45;c/c_typecheck_type.cpp</text>
</a>
</g>
</g>
<!-- Node2&#45;&gt;Node4 -->
<g id="edge3" class="edge">
<title>Node2&#45;&gt;Node4</title>
<path fill="none" stroke="midnightblue" d="M270,-68.3C270,-59.3 270,-49.65 270,-41.51"/>
<polygon fill="midnightblue" stroke="midnightblue" points="266.5,-68.43 270,-78.43 273.5,-68.43 266.5,-68.43"/>
</g>
<!-- Node5 -->
<g id="node5" class="node">
<title>Node5</title>
<g id="a_node5"><a xlink:href="cpp__convert__type_8cpp.html" target="_top" xlink:title="C++ Language Type Conversion.">
<polygon fill="none" stroke="black" points="368.5,-0.5 368.5,-41.5 517.5,-41.5 517.5,-0.5 368.5,-0.5"/>
<text text-anchor="start" x="376.5" y="-29.5" font-family="Helvetica,sans-Serif" font-size="10.00">/home/runner/work/diffblue</text>
<text text-anchor="start" x="376.5" y="-18.5" font-family="Helvetica,sans-Serif" font-size="10.00">&#45;cbmc/diffblue&#45;cbmc/src</text>
<text text-anchor="middle" x="443" y="-7.5" font-family="Helvetica,sans-Serif" font-size="10.00">/cpp/cpp_convert_type.cpp</text>
</a>
</g>
</g>
<!-- Node2&#45;&gt;Node5 -->
<g id="edge4" class="edge">
<title>Node2&#45;&gt;Node5</title>
<path fill="none" stroke="midnightblue" d="M323.88,-74.33C347.89,-63.78 375.82,-51.51 398.6,-41.51"/>
<polygon fill="midnightblue" stroke="midnightblue" points="322.3,-71.2 314.55,-78.43 325.12,-77.61 322.3,-71.2"/>
</g>
</g>
</svg>
