<?xml version="1.0" encoding="UTF-8" standalone="no"?>
<!DOCTYPE svg PUBLIC "-//W3C//DTD SVG 1.1//EN"
 "http://www.w3.org/Graphics/SVG/1.1/DTD/svg11.dtd">
<!-- Generated by graphviz version 2.43.0 (0)
 -->
<!-- Title: /home/runner/work/diffblue&#45;cbmc/diffblue&#45;cbmc/src/analyses/call_graph.h Pages: 1 -->
<svg width="768pt" height="317pt"
 viewBox="0.00 0.00 768.00 317.00" xmlns="http://www.w3.org/2000/svg" xmlns:xlink="http://www.w3.org/1999/xlink">
<g id="graph0" class="graph" transform="scale(1 1) rotate(0) translate(4 313)">
<title>/home/runner/work/diffblue&#45;cbmc/diffblue&#45;cbmc/src/analyses/call_graph.h</title>
<!-- Node1 -->
<g id="node1" class="node">
<title>Node1</title>
<g id="a_node1"><a xlink:title="Function Call Graphs.">
<polygon fill="#bfbfbf" stroke="black" points="384.5,-267.5 384.5,-308.5 533.5,-308.5 533.5,-267.5 384.5,-267.5"/>
<text text-anchor="start" x="392.5" y="-296.5" font-family="Helvetica,sans-Serif" font-size="10.00">/home/runner/work/diffblue</text>
<text text-anchor="start" x="392.5" y="-285.5" font-family="Helvetica,sans-Serif" font-size="10.00">&#45;cbmc/diffblue&#45;cbmc/src</text>
<text text-anchor="middle" x="459" y="-274.5" font-family="Helvetica,sans-Serif" font-size="10.00">/analyses/call_graph.h</text>
</a>
</g>
</g>
<!-- Node2 -->
<g id="node2" class="node">
<title>Node2</title>
<g id="a_node2"><a xlink:href="call__graph_8cpp.html" target="_top" xlink:title="Function Call Graphs.">
<polygon fill="none" stroke="black" points="25.5,-184 25.5,-225 174.5,-225 174.5,-184 25.5,-184"/>
<text text-anchor="start" x="33.5" y="-213" font-family="Helvetica,sans-Serif" font-size="10.00">/home/runner/work/diffblue</text>
<text text-anchor="start" x="33.5" y="-202" font-family="Helvetica,sans-Serif" font-size="10.00">&#45;cbmc/diffblue&#45;cbmc/src</text>
<text text-anchor="middle" x="100" y="-191" font-family="Helvetica,sans-Serif" font-size="10.00">/analyses/call_graph.cpp</text>
</a>
</g>
</g>
<!-- Node1&#45;&gt;Node2 -->
<g id="edge1" class="edge">
<title>Node1&#45;&gt;Node2</title>
<path fill="none" stroke="midnightblue" d="M374.43,-272.06C319.56,-261.82 246.68,-247.2 183,-231 175.99,-229.22 168.69,-227.2 161.45,-225.11"/>
<polygon fill="midnightblue" stroke="midnightblue" points="373.99,-275.54 384.46,-273.92 375.27,-268.66 373.99,-275.54"/>
</g>
<!-- Node3 -->
<g id="node3" class="node">
<title>Node3</title>
<g id="a_node3"><a xlink:href="call__graph__helpers_8h.html" target="_top" xlink:title="Function Call Graph Helpers.">
<polygon fill="none" stroke="black" points="192.5,-184 192.5,-225 359.5,-225 359.5,-184 192.5,-184"/>
<text text-anchor="start" x="200.5" y="-213" font-family="Helvetica,sans-Serif" font-size="10.00">/home/runner/work/diffblue</text>
<text text-anchor="start" x="200.5" y="-202" font-family="Helvetica,sans-Serif" font-size="10.00">&#45;cbmc/diffblue&#45;cbmc/src</text>
<text text-anchor="middle" x="276" y="-191" font-family="Helvetica,sans-Serif" font-size="10.00">/analyses/call_graph_helpers.h</text>
</a>
</g>
</g>
<!-- Node1&#45;&gt;Node3 -->
<g id="edge2" class="edge">
<title>Node1&#45;&gt;Node3</title>
<path fill="none" stroke="midnightblue" d="M405.76,-263.29C378.46,-251.13 345.61,-236.5 319.79,-225"/>
<polygon fill="midnightblue" stroke="midnightblue" points="404.61,-266.61 415.17,-267.48 407.46,-260.21 404.61,-266.61"/>
</g>
<!-- Node6 -->
<g id="node6" class="node">
<title>Node6</title>
<g id="a_node6"><a xlink:href="aggressive__slicer_8h.html" target="_top" xlink:title="Aggressive slicer Consider the control flow graph of the goto program and a criterion description of ...">
<polygon fill="none" stroke="black" points="381.5,-178.5 381.5,-230.5 536.5,-230.5 536.5,-178.5 381.5,-178.5"/>
<text text-anchor="start" x="389.5" y="-218.5" font-family="Helvetica,sans-Serif" font-size="10.00">/home/runner/work/diffblue</text>
<text text-anchor="start" x="389.5" y="-207.5" font-family="Helvetica,sans-Serif" font-size="10.00">&#45;cbmc/diffblue&#45;cbmc/src</text>
<text text-anchor="start" x="389.5" y="-196.5" font-family="Helvetica,sans-Serif" font-size="10.00">/goto&#45;instrument/aggressive</text>
<text text-anchor="middle" x="459" y="-185.5" font-family="Helvetica,sans-Serif" font-size="10.00">_slicer.h</text>
</a>
</g>
</g>
<!-- Node1&#45;&gt;Node6 -->
<g id="edge5" class="edge">
<title>Node1&#45;&gt;Node6</title>
<path fill="none" stroke="midnightblue" d="M459,-257.12C459,-248.41 459,-238.99 459,-230.61"/>
<polygon fill="midnightblue" stroke="midnightblue" points="455.5,-257.27 459,-267.27 462.5,-257.27 455.5,-257.27"/>
</g>
<!-- Node10 -->
<g id="node10" class="node">
<title>Node10</title>
<g id="a_node10"><a xlink:href="goto__instrument__parse__options_8cpp.html" target="_top" xlink:title="Main Module.">
<polygon fill="none" stroke="black" points="530,-0.5 530,-52.5 712,-52.5 712,-0.5 530,-0.5"/>
<text text-anchor="start" x="538" y="-40.5" font-family="Helvetica,sans-Serif" font-size="10.00">/home/runner/work/diffblue</text>
<text text-anchor="start" x="538" y="-29.5" font-family="Helvetica,sans-Serif" font-size="10.00">&#45;cbmc/diffblue&#45;cbmc/src</text>
<text text-anchor="start" x="538" y="-18.5" font-family="Helvetica,sans-Serif" font-size="10.00">/goto&#45;instrument/goto_instrument</text>
<text text-anchor="middle" x="621" y="-7.5" font-family="Helvetica,sans-Serif" font-size="10.00">_parse_options.cpp</text>
</a>
</g>
</g>
<!-- Node1&#45;&gt;Node10 -->
<g id="edge11" class="edge">
<title>Node1&#45;&gt;Node10</title>
<path fill="none" stroke="midnightblue" d="M508.93,-262.05C522.04,-253.62 535.22,-243.2 545,-231 588.86,-176.26 609.11,-93.64 616.9,-52.55"/>
<polygon fill="midnightblue" stroke="midnightblue" points="507.07,-259.08 500.37,-267.29 510.73,-265.05 507.07,-259.08"/>
</g>
<!-- Node11 -->
<g id="node11" class="node">
<title>Node11</title>
<g id="a_node11"><a xlink:href="slice__global__inits_8cpp.html" target="_top" xlink:title="Remove initializations of unused global variables.">
<polygon fill="none" stroke="black" points="608,-178.5 608,-230.5 760,-230.5 760,-178.5 608,-178.5"/>
<text text-anchor="start" x="616" y="-218.5" font-family="Helvetica,sans-Serif" font-size="10.00">/home/runner/work/diffblue</text>
<text text-anchor="start" x="616" y="-207.5" font-family="Helvetica,sans-Serif" font-size="10.00">&#45;cbmc/diffblue&#45;cbmc/src</text>
<text text-anchor="start" x="616" y="-196.5" font-family="Helvetica,sans-Serif" font-size="10.00">/goto&#45;programs/slice_global</text>
<text text-anchor="middle" x="684" y="-185.5" font-family="Helvetica,sans-Serif" font-size="10.00">_inits.cpp</text>
</a>
</g>
</g>
<!-- Node1&#45;&gt;Node11 -->
<g id="edge12" class="edge">
<title>Node1&#45;&gt;Node11</title>
<path fill="none" stroke="midnightblue" d="M522.44,-264.02C551.22,-253.6 585.33,-241.24 614.77,-230.58"/>
<polygon fill="midnightblue" stroke="midnightblue" points="521.1,-260.78 512.89,-267.48 523.49,-267.36 521.1,-260.78"/>
</g>
<!-- Node4 -->
<g id="node4" class="node">
<title>Node4</title>
<g id="a_node4"><a xlink:href="call__graph__helpers_8cpp.html" target="_top" xlink:title="Function Call Graph Helpers.">
<polygon fill="none" stroke="black" points="0,-95 0,-136 178,-136 178,-95 0,-95"/>
<text text-anchor="start" x="8" y="-124" font-family="Helvetica,sans-Serif" font-size="10.00">/home/runner/work/diffblue</text>
<text text-anchor="start" x="8" y="-113" font-family="Helvetica,sans-Serif" font-size="10.00">&#45;cbmc/diffblue&#45;cbmc/src</text>
<text text-anchor="middle" x="89" y="-102" font-family="Helvetica,sans-Serif" font-size="10.00">/analyses/call_graph_helpers.cpp</text>
</a>
</g>
</g>
<!-- Node3&#45;&gt;Node4 -->
<g id="edge3" class="edge">
<title>Node3&#45;&gt;Node4</title>
<path fill="none" stroke="midnightblue" d="M224.75,-179.66C195.35,-165.98 158.88,-149.01 131.15,-136.11"/>
<polygon fill="midnightblue" stroke="midnightblue" points="223.49,-182.93 234.03,-183.98 226.44,-176.58 223.49,-182.93"/>
</g>
<!-- Node5 -->
<g id="node5" class="node">
<title>Node5</title>
<g id="a_node5"><a xlink:href="aggressive__slicer_8cpp.html" target="_top" xlink:title="Aggressive program slicer.">
<polygon fill="none" stroke="black" points="196.5,-89.5 196.5,-141.5 351.5,-141.5 351.5,-89.5 196.5,-89.5"/>
<text text-anchor="start" x="204.5" y="-129.5" font-family="Helvetica,sans-Serif" font-size="10.00">/home/runner/work/diffblue</text>
<text text-anchor="start" x="204.5" y="-118.5" font-family="Helvetica,sans-Serif" font-size="10.00">&#45;cbmc/diffblue&#45;cbmc/src</text>
<text text-anchor="start" x="204.5" y="-107.5" font-family="Helvetica,sans-Serif" font-size="10.00">/goto&#45;instrument/aggressive</text>
<text text-anchor="middle" x="274" y="-96.5" font-family="Helvetica,sans-Serif" font-size="10.00">_slicer.cpp</text>
</a>
</g>
</g>
<!-- Node3&#45;&gt;Node5 -->
<g id="edge4" class="edge">
<title>Node3&#45;&gt;Node5</title>
<path fill="none" stroke="midnightblue" d="M275.31,-173.51C275.07,-163.17 274.81,-151.71 274.58,-141.79"/>
<polygon fill="midnightblue" stroke="midnightblue" points="271.82,-173.84 275.55,-183.76 278.82,-173.68 271.82,-173.84"/>
</g>
<!-- Node6&#45;&gt;Node5 -->
<g id="edge6" class="edge">
<title>Node6&#45;&gt;Node5</title>
<path fill="none" stroke="midnightblue" d="M396.39,-174.06C373.98,-163.52 348.95,-151.75 327.39,-141.61"/>
<polygon fill="midnightblue" stroke="midnightblue" points="394.95,-177.25 405.49,-178.34 397.93,-170.91 394.95,-177.25"/>
</g>
<!-- Node7 -->
<g id="node7" class="node">
<title>Node7</title>
<g id="a_node7"><a xlink:href="goto__instrument__parse__options_8h.html" target="_top" xlink:title="Command Line Parsing.">
<polygon fill="none" stroke="black" points="370,-89.5 370,-141.5 552,-141.5 552,-89.5 370,-89.5"/>
<text text-anchor="start" x="378" y="-129.5" font-family="Helvetica,sans-Serif" font-size="10.00">/home/runner/work/diffblue</text>
<text text-anchor="start" x="378" y="-118.5" font-family="Helvetica,sans-Serif" font-size="10.00">&#45;cbmc/diffblue&#45;cbmc/src</text>
<text text-anchor="start" x="378" y="-107.5" font-family="Helvetica,sans-Serif" font-size="10.00">/goto&#45;instrument/goto_instrument</text>
<text text-anchor="middle" x="461" y="-96.5" font-family="Helvetica,sans-Serif" font-size="10.00">_parse_options.h</text>
</a>
</g>
</g>
<!-- Node6&#45;&gt;Node7 -->
<g id="edge7" class="edge">
<title>Node6&#45;&gt;Node7</title>
<path fill="none" stroke="midnightblue" d="M459.81,-168.19C460.02,-159.28 460.23,-149.9 460.42,-141.61"/>
<polygon fill="midnightblue" stroke="midnightblue" points="456.31,-168.26 459.58,-178.34 463.31,-168.42 456.31,-168.26"/>
</g>
<!-- Node8 -->
<g id="node8" class="node">
<title>Node8</title>
<g id="a_node8"><a xlink:href="goto__instrument__languages_8cpp.html" target="_top" xlink:title="Language Registration.">
<polygon fill="none" stroke="black" points="130,-0.5 130,-52.5 312,-52.5 312,-0.5 130,-0.5"/>
<text text-anchor="start" x="138" y="-40.5" font-family="Helvetica,sans-Serif" font-size="10.00">/home/runner/work/diffblue</text>
<text text-anchor="start" x="138" y="-29.5" font-family="Helvetica,sans-Serif" font-size="10.00">&#45;cbmc/diffblue&#45;cbmc/src</text>
<text text-anchor="start" x="138" y="-18.5" font-family="Helvetica,sans-Serif" font-size="10.00">/goto&#45;instrument/goto_instrument</text>
<text text-anchor="middle" x="221" y="-7.5" font-family="Helvetica,sans-Serif" font-size="10.00">_languages.cpp</text>
</a>
</g>
</g>
<!-- Node7&#45;&gt;Node8 -->
<g id="edge8" class="edge">
<title>Node7&#45;&gt;Node8</title>
<path fill="none" stroke="midnightblue" d="M382.37,-86C352.57,-75.19 318.88,-62.98 290.02,-52.52"/>
<polygon fill="midnightblue" stroke="midnightblue" points="381.31,-89.34 391.9,-89.45 383.7,-82.75 381.31,-89.34"/>
</g>
<!-- Node9 -->
<g id="node9" class="node">
<title>Node9</title>
<g id="a_node9"><a xlink:href="goto__instrument__main_8cpp.html" target="_top" xlink:title="Main Module.">
<polygon fill="none" stroke="black" points="330,-0.5 330,-52.5 512,-52.5 512,-0.5 330,-0.5"/>
<text text-anchor="start" x="338" y="-40.5" font-family="Helvetica,sans-Serif" font-size="10.00">/home/runner/work/diffblue</text>
<text text-anchor="start" x="338" y="-29.5" font-family="Helvetica,sans-Serif" font-size="10.00">&#45;cbmc/diffblue&#45;cbmc/src</text>
<text text-anchor="start" x="338" y="-18.5" font-family="Helvetica,sans-Serif" font-size="10.00">/goto&#45;instrument/goto_instrument</text>
<text text-anchor="middle" x="421" y="-7.5" font-family="Helvetica,sans-Serif" font-size="10.00">_main.cpp</text>
</a>
</g>
</g>
<!-- Node7&#45;&gt;Node9 -->
<g id="edge9" class="edge">
<title>Node7&#45;&gt;Node9</title>
<path fill="none" stroke="midnightblue" d="M445.17,-80.06C440.95,-70.9 436.48,-61.17 432.54,-52.61"/>
<polygon fill="midnightblue" stroke="midnightblue" points="442.07,-81.71 449.43,-89.34 448.43,-78.79 442.07,-81.71"/>
</g>
<!-- Node7&#45;&gt;Node10 -->
<g id="edge10" class="edge">
<title>Node7&#45;&gt;Node10</title>
<path fill="none" stroke="midnightblue" d="M516.18,-84.49C535.3,-74.1 556.51,-62.57 574.83,-52.61"/>
<polygon fill="midnightblue" stroke="midnightblue" points="514.39,-81.48 507.28,-89.34 517.74,-87.63 514.39,-81.48"/>
</g>
</g>
</svg>
