<?xml version="1.0" encoding="UTF-8" standalone="no"?>
<!DOCTYPE svg PUBLIC "-//W3C//DTD SVG 1.1//EN"
 "http://www.w3.org/Graphics/SVG/1.1/DTD/svg11.dtd">
<!-- Generated by graphviz version 2.43.0 (0)
 -->
<!-- Title: /home/runner/work/diffblue&#45;cbmc/diffblue&#45;cbmc/src/analyses/call_stack_history.h Pages: 1 -->
<svg width="380pt" height="128pt"
 viewBox="0.00 0.00 380.00 128.00" xmlns="http://www.w3.org/2000/svg" xmlns:xlink="http://www.w3.org/1999/xlink">
<g id="graph0" class="graph" transform="scale(1 1) rotate(0) translate(4 124)">
<title>/home/runner/work/diffblue&#45;cbmc/diffblue&#45;cbmc/src/analyses/call_stack_history.h</title>
<!-- Node1 -->
<g id="node1" class="node">
<title>Node1</title>
<g id="a_node1"><a xlink:title="History for tracking the call stack and performing interprocedural analysis.">
<polygon fill="#bfbfbf" stroke="black" points="103,-78.5 103,-119.5 264,-119.5 264,-78.5 103,-78.5"/>
<text text-anchor="start" x="111" y="-107.5" font-family="Helvetica,sans-Serif" font-size="10.00">/home/runner/work/diffblue</text>
<text text-anchor="start" x="111" y="-96.5" font-family="Helvetica,sans-Serif" font-size="10.00">&#45;cbmc/diffblue&#45;cbmc/src</text>
<text text-anchor="middle" x="183.5" y="-85.5" font-family="Helvetica,sans-Serif" font-size="10.00">/analyses/call_stack_history.h</text>
</a>
</g>
</g>
<!-- Node2 -->
<g id="node2" class="node">
<title>Node2</title>
<g id="a_node2"><a xlink:href="call__stack__history_8cpp.html" target="_top" xlink:title="History for tracking the call stack and performing interprocedural analysis.">
<polygon fill="none" stroke="black" points="0,-0.5 0,-41.5 173,-41.5 173,-0.5 0,-0.5"/>
<text text-anchor="start" x="8" y="-29.5" font-family="Helvetica,sans-Serif" font-size="10.00">/home/runner/work/diffblue</text>
<text text-anchor="start" x="8" y="-18.5" font-family="Helvetica,sans-Serif" font-size="10.00">&#45;cbmc/diffblue&#45;cbmc/src</text>
<text text-anchor="middle" x="86.5" y="-7.5" font-family="Helvetica,sans-Serif" font-size="10.00">/analyses/call_stack_history.cpp</text>
</a>
</g>
</g>
<!-- Node1&#45;&gt;Node2 -->
<g id="edge1" class="edge">
<title>Node1&#45;&gt;Node2</title>
<path fill="none" stroke="midnightblue" d="M150.4,-72.06C137.63,-62.06 123.26,-50.8 111.4,-41.51"/>
<polygon fill="midnightblue" stroke="midnightblue" points="148.49,-75.02 158.52,-78.43 152.81,-69.51 148.49,-75.02"/>
</g>
<!-- Node3 -->
<g id="node3" class="node">
<title>Node3</title>
<g id="a_node3"><a xlink:href="build__analyzer_8cpp.html" target="_top" xlink:title=" ">
<polygon fill="none" stroke="black" points="191,-0.5 191,-41.5 372,-41.5 372,-0.5 191,-0.5"/>
<text text-anchor="start" x="199" y="-29.5" font-family="Helvetica,sans-Serif" font-size="10.00">/home/runner/work/diffblue</text>
<text text-anchor="start" x="199" y="-18.5" font-family="Helvetica,sans-Serif" font-size="10.00">&#45;cbmc/diffblue&#45;cbmc/src</text>
<text text-anchor="middle" x="281.5" y="-7.5" font-family="Helvetica,sans-Serif" font-size="10.00">/goto&#45;analyzer/build_analyzer.cpp</text>
</a>
</g>
</g>
<!-- Node1&#45;&gt;Node3 -->
<g id="edge2" class="edge">
<title>Node1&#45;&gt;Node3</title>
<path fill="none" stroke="midnightblue" d="M216.94,-72.06C229.85,-62.06 244.36,-50.8 256.35,-41.51"/>
<polygon fill="midnightblue" stroke="midnightblue" points="214.49,-69.53 208.74,-78.43 218.78,-75.07 214.49,-69.53"/>
</g>
</g>
</svg>
