<?xml version="1.0" encoding="UTF-8" standalone="no"?>
<!DOCTYPE svg PUBLIC "-//W3C//DTD SVG 1.1//EN"
 "http://www.w3.org/Graphics/SVG/1.1/DTD/svg11.dtd">
<!-- Generated by graphviz version 2.43.0 (0)
 -->
<!-- Title: /home/runner/work/diffblue&#45;cbmc/diffblue&#45;cbmc/src/linking/casting_replace_symbol.h Pages: 1 -->
<svg width="407pt" height="239pt"
 viewBox="0.00 0.00 407.00 239.00" xmlns="http://www.w3.org/2000/svg" xmlns:xlink="http://www.w3.org/1999/xlink">
<g id="graph0" class="graph" transform="scale(1 1) rotate(0) translate(4 235)">
<title>/home/runner/work/diffblue&#45;cbmc/diffblue&#45;cbmc/src/linking/casting_replace_symbol.h</title>
<!-- Node1 -->
<g id="node1" class="node">
<title>Node1</title>
<g id="a_node1"><a xlink:title="ANSI&#45;C Linking.">
<polygon fill="#bfbfbf" stroke="black" points="83,-178.5 83,-230.5 232,-230.5 232,-178.5 83,-178.5"/>
<text text-anchor="start" x="91" y="-218.5" font-family="Helvetica,sans-Serif" font-size="10.00">/home/runner/work/diffblue</text>
<text text-anchor="start" x="91" y="-207.5" font-family="Helvetica,sans-Serif" font-size="10.00">&#45;cbmc/diffblue&#45;cbmc/src</text>
<text text-anchor="start" x="91" y="-196.5" font-family="Helvetica,sans-Serif" font-size="10.00">/linking/casting_replace</text>
<text text-anchor="middle" x="157.5" y="-185.5" font-family="Helvetica,sans-Serif" font-size="10.00">_symbol.h</text>
</a>
</g>
</g>
<!-- Node2 -->
<g id="node2" class="node">
<title>Node2</title>
<g id="a_node2"><a xlink:href="casting__replace__symbol_8cpp.html" target="_top" xlink:title="ANSI&#45;C Linking.">
<polygon fill="none" stroke="black" points="0,-89.5 0,-141.5 149,-141.5 149,-89.5 0,-89.5"/>
<text text-anchor="start" x="8" y="-129.5" font-family="Helvetica,sans-Serif" font-size="10.00">/home/runner/work/diffblue</text>
<text text-anchor="start" x="8" y="-118.5" font-family="Helvetica,sans-Serif" font-size="10.00">&#45;cbmc/diffblue&#45;cbmc/src</text>
<text text-anchor="start" x="8" y="-107.5" font-family="Helvetica,sans-Serif" font-size="10.00">/linking/casting_replace</text>
<text text-anchor="middle" x="74.5" y="-96.5" font-family="Helvetica,sans-Serif" font-size="10.00">_symbol.cpp</text>
</a>
</g>
</g>
<!-- Node1&#45;&gt;Node2 -->
<g id="edge1" class="edge">
<title>Node1&#45;&gt;Node2</title>
<path fill="none" stroke="midnightblue" d="M126.57,-171.08C117.27,-161.34 107.22,-150.8 98.45,-141.61"/>
<polygon fill="midnightblue" stroke="midnightblue" points="124.06,-173.52 133.49,-178.34 129.12,-168.68 124.06,-173.52"/>
</g>
<!-- Node3 -->
<g id="node3" class="node">
<title>Node3</title>
<g id="a_node3"><a xlink:href="linking__class_8h.html" target="_top" xlink:title="ANSI&#45;C Linking.">
<polygon fill="none" stroke="black" points="167,-95 167,-136 316,-136 316,-95 167,-95"/>
<text text-anchor="start" x="175" y="-124" font-family="Helvetica,sans-Serif" font-size="10.00">/home/runner/work/diffblue</text>
<text text-anchor="start" x="175" y="-113" font-family="Helvetica,sans-Serif" font-size="10.00">&#45;cbmc/diffblue&#45;cbmc/src</text>
<text text-anchor="middle" x="241.5" y="-102" font-family="Helvetica,sans-Serif" font-size="10.00">/linking/linking_class.h</text>
</a>
</g>
</g>
<!-- Node1&#45;&gt;Node3 -->
<g id="edge2" class="edge">
<title>Node1&#45;&gt;Node3</title>
<path fill="none" stroke="midnightblue" d="M189.03,-170.85C200.32,-159.15 212.7,-146.33 222.59,-136.08"/>
<polygon fill="midnightblue" stroke="midnightblue" points="186.22,-168.71 181.8,-178.34 191.26,-173.57 186.22,-168.71"/>
</g>
<!-- Node4 -->
<g id="node4" class="node">
<title>Node4</title>
<g id="a_node4"><a xlink:href="link__goto__model_8cpp.html" target="_top" xlink:title="Link Goto Programs.">
<polygon fill="none" stroke="black" points="83,-0.5 83,-52.5 232,-52.5 232,-0.5 83,-0.5"/>
<text text-anchor="start" x="91" y="-40.5" font-family="Helvetica,sans-Serif" font-size="10.00">/home/runner/work/diffblue</text>
<text text-anchor="start" x="91" y="-29.5" font-family="Helvetica,sans-Serif" font-size="10.00">&#45;cbmc/diffblue&#45;cbmc/src</text>
<text text-anchor="start" x="91" y="-18.5" font-family="Helvetica,sans-Serif" font-size="10.00">/goto&#45;programs/link_goto</text>
<text text-anchor="middle" x="157.5" y="-7.5" font-family="Helvetica,sans-Serif" font-size="10.00">_model.cpp</text>
</a>
</g>
</g>
<!-- Node3&#45;&gt;Node4 -->
<g id="edge3" class="edge">
<title>Node3&#45;&gt;Node4</title>
<path fill="none" stroke="midnightblue" d="M215.35,-87.41C204.68,-76.36 192.4,-63.65 181.92,-52.79"/>
<polygon fill="midnightblue" stroke="midnightblue" points="212.98,-90 222.44,-94.76 218.01,-85.13 212.98,-90"/>
</g>
<!-- Node5 -->
<g id="node5" class="node">
<title>Node5</title>
<g id="a_node5"><a xlink:href="linking_8cpp.html" target="_top" xlink:title="ANSI&#45;C Linking.">
<polygon fill="none" stroke="black" points="250,-6 250,-47 399,-47 399,-6 250,-6"/>
<text text-anchor="start" x="258" y="-35" font-family="Helvetica,sans-Serif" font-size="10.00">/home/runner/work/diffblue</text>
<text text-anchor="start" x="258" y="-24" font-family="Helvetica,sans-Serif" font-size="10.00">&#45;cbmc/diffblue&#45;cbmc/src</text>
<text text-anchor="middle" x="324.5" y="-13" font-family="Helvetica,sans-Serif" font-size="10.00">/linking/linking.cpp</text>
</a>
</g>
</g>
<!-- Node3&#45;&gt;Node5 -->
<g id="edge4" class="edge">
<title>Node3&#45;&gt;Node5</title>
<path fill="none" stroke="midnightblue" d="M267.36,-87.4C279.78,-74.37 294.4,-59.05 305.74,-47.16"/>
<polygon fill="midnightblue" stroke="midnightblue" points="264.7,-85.11 260.33,-94.76 269.77,-89.94 264.7,-85.11"/>
</g>
</g>
</svg>
