<?xml version="1.0" encoding="UTF-8" standalone="no"?>
<!DOCTYPE svg PUBLIC "-//W3C//DTD SVG 1.1//EN"
 "http://www.w3.org/Graphics/SVG/1.1/DTD/svg11.dtd">
<!-- Generated by graphviz version 2.43.0 (0)
 -->
<!-- Title: /home/runner/work/diffblue&#45;cbmc/diffblue&#45;cbmc/src/goto&#45;synthesizer/cegis_verifier.h Pages: 1 -->
<svg width="608pt" height="228pt"
 viewBox="0.00 0.00 607.50 228.00" xmlns="http://www.w3.org/2000/svg" xmlns:xlink="http://www.w3.org/1999/xlink">
<g id="graph0" class="graph" transform="scale(1 1) rotate(0) translate(4 224)">
<title>/home/runner/work/diffblue&#45;cbmc/diffblue&#45;cbmc/src/goto&#45;synthesizer/cegis_verifier.h</title>
<!-- Node1 -->
<g id="node1" class="node">
<title>Node1</title>
<g id="a_node1"><a xlink:title="Verifier for Counterexample&#45;Guided Synthesis.">
<polygon fill="#bfbfbf" stroke="black" points="219.5,-178.5 219.5,-219.5 397.5,-219.5 397.5,-178.5 219.5,-178.5"/>
<text text-anchor="start" x="227.5" y="-207.5" font-family="Helvetica,sans-Serif" font-size="10.00">/home/runner/work/diffblue</text>
<text text-anchor="start" x="227.5" y="-196.5" font-family="Helvetica,sans-Serif" font-size="10.00">&#45;cbmc/diffblue&#45;cbmc/src</text>
<text text-anchor="middle" x="308.5" y="-185.5" font-family="Helvetica,sans-Serif" font-size="10.00">/goto&#45;synthesizer/cegis_verifier.h</text>
</a>
</g>
</g>
<!-- Node2 -->
<g id="node2" class="node">
<title>Node2</title>
<g id="a_node2"><a xlink:href="cegis__evaluator_8h.html" target="_top" xlink:title="Evaluate if an expression is consistent with examples.">
<polygon fill="none" stroke="black" points="5.5,-95 5.5,-136 195.5,-136 195.5,-95 5.5,-95"/>
<text text-anchor="start" x="13.5" y="-124" font-family="Helvetica,sans-Serif" font-size="10.00">/home/runner/work/diffblue</text>
<text text-anchor="start" x="13.5" y="-113" font-family="Helvetica,sans-Serif" font-size="10.00">&#45;cbmc/diffblue&#45;cbmc/src</text>
<text text-anchor="middle" x="100.5" y="-102" font-family="Helvetica,sans-Serif" font-size="10.00">/goto&#45;synthesizer/cegis_evaluator.h</text>
</a>
</g>
</g>
<!-- Node1&#45;&gt;Node2 -->
<g id="edge1" class="edge">
<title>Node1&#45;&gt;Node2</title>
<path fill="none" stroke="midnightblue" d="M249.2,-174.77C217.93,-162.51 180,-147.65 150.27,-136"/>
<polygon fill="midnightblue" stroke="midnightblue" points="248.09,-178.09 258.68,-178.48 250.64,-171.57 248.09,-178.09"/>
</g>
<!-- Node5 -->
<g id="node5" class="node">
<title>Node5</title>
<g id="a_node5"><a xlink:href="cegis__verifier_8cpp.html" target="_top" xlink:title="Verifier for Counterexample&#45;Guided Synthesis.">
<polygon fill="none" stroke="black" points="214,-95 214,-136 403,-136 403,-95 214,-95"/>
<text text-anchor="start" x="222" y="-124" font-family="Helvetica,sans-Serif" font-size="10.00">/home/runner/work/diffblue</text>
<text text-anchor="start" x="222" y="-113" font-family="Helvetica,sans-Serif" font-size="10.00">&#45;cbmc/diffblue&#45;cbmc/src</text>
<text text-anchor="middle" x="308.5" y="-102" font-family="Helvetica,sans-Serif" font-size="10.00">/goto&#45;synthesizer/cegis_verifier.cpp</text>
</a>
</g>
</g>
<!-- Node1&#45;&gt;Node5 -->
<g id="edge4" class="edge">
<title>Node1&#45;&gt;Node5</title>
<path fill="none" stroke="midnightblue" d="M308.5,-168.06C308.5,-157.38 308.5,-145.63 308.5,-136.05"/>
<polygon fill="midnightblue" stroke="midnightblue" points="305,-168.27 308.5,-178.27 312,-168.27 305,-168.27"/>
</g>
<!-- Node6 -->
<g id="node6" class="node">
<title>Node6</title>
<g id="a_node6"><a xlink:href="enumerative__loop__contracts__synthesizer_8h.html" target="_top" xlink:title="Enumerative Loop Contracts Synthesizer.">
<polygon fill="none" stroke="black" points="421,-89.5 421,-141.5 588,-141.5 588,-89.5 421,-89.5"/>
<text text-anchor="start" x="429" y="-129.5" font-family="Helvetica,sans-Serif" font-size="10.00">/home/runner/work/diffblue</text>
<text text-anchor="start" x="429" y="-118.5" font-family="Helvetica,sans-Serif" font-size="10.00">&#45;cbmc/diffblue&#45;cbmc/src</text>
<text text-anchor="start" x="429" y="-107.5" font-family="Helvetica,sans-Serif" font-size="10.00">/goto&#45;synthesizer/enumerative</text>
<text text-anchor="middle" x="504.5" y="-96.5" font-family="Helvetica,sans-Serif" font-size="10.00">_loop_contracts_synthesizer.h</text>
</a>
</g>
</g>
<!-- Node1&#45;&gt;Node6 -->
<g id="edge5" class="edge">
<title>Node1&#45;&gt;Node6</title>
<path fill="none" stroke="midnightblue" d="M364.74,-174.61C389.61,-164.28 418.88,-152.1 444.19,-141.58"/>
<polygon fill="midnightblue" stroke="midnightblue" points="363.34,-171.41 355.45,-178.48 366.02,-177.87 363.34,-171.41"/>
</g>
<!-- Node3 -->
<g id="node3" class="node">
<title>Node3</title>
<g id="a_node3"><a xlink:href="cegis__evaluator_8cpp.html" target="_top" xlink:title="Evaluate if an expression is consistent with examples.">
<polygon fill="none" stroke="black" points="0,-6 0,-47 201,-47 201,-6 0,-6"/>
<text text-anchor="start" x="8" y="-35" font-family="Helvetica,sans-Serif" font-size="10.00">/home/runner/work/diffblue</text>
<text text-anchor="start" x="8" y="-24" font-family="Helvetica,sans-Serif" font-size="10.00">&#45;cbmc/diffblue&#45;cbmc/src</text>
<text text-anchor="middle" x="100.5" y="-13" font-family="Helvetica,sans-Serif" font-size="10.00">/goto&#45;synthesizer/cegis_evaluator.cpp</text>
</a>
</g>
</g>
<!-- Node2&#45;&gt;Node3 -->
<g id="edge2" class="edge">
<title>Node2&#45;&gt;Node3</title>
<path fill="none" stroke="midnightblue" d="M100.5,-84.44C100.5,-72.1 100.5,-58.16 100.5,-47.16"/>
<polygon fill="midnightblue" stroke="midnightblue" points="97,-84.76 100.5,-94.76 104,-84.76 97,-84.76"/>
</g>
<!-- Node4 -->
<g id="node4" class="node">
<title>Node4</title>
<g id="a_node4"><a xlink:href="enumerative__loop__contracts__synthesizer_8cpp.html" target="_top" xlink:title="Enumerative Loop Contracts Synthesizer.">
<polygon fill="none" stroke="black" points="219.5,-0.5 219.5,-52.5 393.5,-52.5 393.5,-0.5 219.5,-0.5"/>
<text text-anchor="start" x="227.5" y="-40.5" font-family="Helvetica,sans-Serif" font-size="10.00">/home/runner/work/diffblue</text>
<text text-anchor="start" x="227.5" y="-29.5" font-family="Helvetica,sans-Serif" font-size="10.00">&#45;cbmc/diffblue&#45;cbmc/src</text>
<text text-anchor="start" x="227.5" y="-18.5" font-family="Helvetica,sans-Serif" font-size="10.00">/goto&#45;synthesizer/enumerative</text>
<text text-anchor="middle" x="306.5" y="-7.5" font-family="Helvetica,sans-Serif" font-size="10.00">_loop_contracts_synthesizer.cpp</text>
</a>
</g>
</g>
<!-- Node2&#45;&gt;Node4 -->
<g id="edge3" class="edge">
<title>Node2&#45;&gt;Node4</title>
<path fill="none" stroke="midnightblue" d="M156.03,-91.05C184.19,-79.15 218.42,-64.7 247.1,-52.58"/>
<polygon fill="midnightblue" stroke="midnightblue" points="154.58,-87.86 146.73,-94.98 157.3,-94.31 154.58,-87.86"/>
</g>
<!-- Node6&#45;&gt;Node4 -->
<g id="edge6" class="edge">
<title>Node6&#45;&gt;Node4</title>
<path fill="none" stroke="midnightblue" d="M438.03,-85.29C413.84,-74.67 386.74,-62.76 363.44,-52.52"/>
<polygon fill="midnightblue" stroke="midnightblue" points="436.93,-88.63 447.5,-89.45 439.75,-82.23 436.93,-88.63"/>
</g>
<!-- Node7 -->
<g id="node7" class="node">
<title>Node7</title>
<g id="a_node7"><a xlink:href="goto__synthesizer__parse__options_8cpp.html" target="_top" xlink:title="Main Module.">
<polygon fill="none" stroke="black" points="411.5,-0.5 411.5,-52.5 599.5,-52.5 599.5,-0.5 411.5,-0.5"/>
<text text-anchor="start" x="419.5" y="-40.5" font-family="Helvetica,sans-Serif" font-size="10.00">/home/runner/work/diffblue</text>
<text text-anchor="start" x="419.5" y="-29.5" font-family="Helvetica,sans-Serif" font-size="10.00">&#45;cbmc/diffblue&#45;cbmc/src</text>
<text text-anchor="start" x="419.5" y="-18.5" font-family="Helvetica,sans-Serif" font-size="10.00">/goto&#45;synthesizer/goto_synthesizer</text>
<text text-anchor="middle" x="505.5" y="-7.5" font-family="Helvetica,sans-Serif" font-size="10.00">_parse_options.cpp</text>
</a>
</g>
</g>
<!-- Node6&#45;&gt;Node7 -->
<g id="edge7" class="edge">
<title>Node6&#45;&gt;Node7</title>
<path fill="none" stroke="midnightblue" d="M504.91,-79.19C505.01,-70.28 505.12,-60.9 505.21,-52.61"/>
<polygon fill="midnightblue" stroke="midnightblue" points="501.4,-79.3 504.79,-89.34 508.4,-79.38 501.4,-79.3"/>
</g>
</g>
</svg>
