<?xml version="1.0" encoding="UTF-8" standalone="no"?>
<!DOCTYPE svg PUBLIC "-//W3C//DTD SVG 1.1//EN"
 "http://www.w3.org/Graphics/SVG/1.1/DTD/svg11.dtd">
<!-- Generated by graphviz version 2.43.0 (0)
 -->
<!-- Title: /home/runner/work/diffblue&#45;cbmc/diffblue&#45;cbmc/src/goto&#45;instrument/contracts/cfg_info.h Pages: 1 -->
<svg width="893pt" height="161pt"
 viewBox="0.00 0.00 892.50 161.00" xmlns="http://www.w3.org/2000/svg" xmlns:xlink="http://www.w3.org/1999/xlink">
<g id="graph0" class="graph" transform="scale(1 1) rotate(0) translate(4 157)">
<title>/home/runner/work/diffblue&#45;cbmc/diffblue&#45;cbmc/src/goto&#45;instrument/contracts/cfg_info.h</title>
<!-- Node1 -->
<g id="node1" class="node">
<title>Node1</title>
<g id="a_node1"><a xlink:title="Classes providing CFG&#45;based information about symbols to guide simplifications in function and loop a...">
<polygon fill="#bfbfbf" stroke="black" points="348,-100.5 348,-152.5 497,-152.5 497,-100.5 348,-100.5"/>
<text text-anchor="start" x="356" y="-140.5" font-family="Helvetica,sans-Serif" font-size="10.00">/home/runner/work/diffblue</text>
<text text-anchor="start" x="356" y="-129.5" font-family="Helvetica,sans-Serif" font-size="10.00">&#45;cbmc/diffblue&#45;cbmc/src</text>
<text text-anchor="start" x="356" y="-118.5" font-family="Helvetica,sans-Serif" font-size="10.00">/goto&#45;instrument/contracts</text>
<text text-anchor="middle" x="422.5" y="-107.5" font-family="Helvetica,sans-Serif" font-size="10.00">/cfg_info.h</text>
</a>
</g>
</g>
<!-- Node2 -->
<g id="node2" class="node">
<title>Node2</title>
<g id="a_node2"><a xlink:href="contracts_8cpp.html" target="_top" xlink:title="Verify and use annotated loop and function contracts.">
<polygon fill="none" stroke="black" points="0,-6 0,-58 149,-58 149,-6 0,-6"/>
<text text-anchor="start" x="8" y="-46" font-family="Helvetica,sans-Serif" font-size="10.00">/home/runner/work/diffblue</text>
<text text-anchor="start" x="8" y="-35" font-family="Helvetica,sans-Serif" font-size="10.00">&#45;cbmc/diffblue&#45;cbmc/src</text>
<text text-anchor="start" x="8" y="-24" font-family="Helvetica,sans-Serif" font-size="10.00">/goto&#45;instrument/contracts</text>
<text text-anchor="middle" x="74.5" y="-13" font-family="Helvetica,sans-Serif" font-size="10.00">/contracts.cpp</text>
</a>
</g>
</g>
<!-- Node1&#45;&gt;Node2 -->
<g id="edge1" class="edge">
<title>Node1&#45;&gt;Node2</title>
<path fill="none" stroke="midnightblue" d="M337.93,-108.79C285.53,-97.72 217.08,-81.96 157.5,-64 151.46,-62.18 145.23,-60.15 139.02,-58.02"/>
<polygon fill="midnightblue" stroke="midnightblue" points="337.35,-112.25 347.86,-110.87 338.79,-105.4 337.35,-112.25"/>
</g>
<!-- Node3 -->
<g id="node3" class="node">
<title>Node3</title>
<g id="a_node3"><a xlink:href="dfcc_8cpp.html" target="_top" xlink:title=" ">
<polygon fill="none" stroke="black" points="167,-6 167,-58 316,-58 316,-6 167,-6"/>
<text text-anchor="start" x="175" y="-46" font-family="Helvetica,sans-Serif" font-size="10.00">/home/runner/work/diffblue</text>
<text text-anchor="start" x="175" y="-35" font-family="Helvetica,sans-Serif" font-size="10.00">&#45;cbmc/diffblue&#45;cbmc/src</text>
<text text-anchor="start" x="175" y="-24" font-family="Helvetica,sans-Serif" font-size="10.00">/goto&#45;instrument/contracts</text>
<text text-anchor="middle" x="241.5" y="-13" font-family="Helvetica,sans-Serif" font-size="10.00">/dynamic&#45;frames/dfcc.cpp</text>
</a>
</g>
</g>
<!-- Node1&#45;&gt;Node3 -->
<g id="edge2" class="edge">
<title>Node1&#45;&gt;Node3</title>
<path fill="none" stroke="midnightblue" d="M364.56,-95.89C340.7,-83.7 313.36,-69.73 290.52,-58.05"/>
<polygon fill="midnightblue" stroke="midnightblue" points="363.02,-99.03 373.52,-100.47 366.21,-92.8 363.02,-99.03"/>
</g>
<!-- Node4 -->
<g id="node4" class="node">
<title>Node4</title>
<g id="a_node4"><a xlink:href="dfcc__swap__and__wrap_8cpp.html" target="_top" xlink:title=" ">
<polygon fill="none" stroke="black" points="334,-0.5 334,-63.5 511,-63.5 511,-0.5 334,-0.5"/>
<text text-anchor="start" x="342" y="-51.5" font-family="Helvetica,sans-Serif" font-size="10.00">/home/runner/work/diffblue</text>
<text text-anchor="start" x="342" y="-40.5" font-family="Helvetica,sans-Serif" font-size="10.00">&#45;cbmc/diffblue&#45;cbmc/src</text>
<text text-anchor="start" x="342" y="-29.5" font-family="Helvetica,sans-Serif" font-size="10.00">/goto&#45;instrument/contracts</text>
<text text-anchor="start" x="342" y="-18.5" font-family="Helvetica,sans-Serif" font-size="10.00">/dynamic&#45;frames/dfcc_swap_and</text>
<text text-anchor="middle" x="422.5" y="-7.5" font-family="Helvetica,sans-Serif" font-size="10.00">_wrap.cpp</text>
</a>
</g>
</g>
<!-- Node1&#45;&gt;Node4 -->
<g id="edge3" class="edge">
<title>Node1&#45;&gt;Node4</title>
<path fill="none" stroke="midnightblue" d="M422.5,-89.94C422.5,-81.23 422.5,-71.97 422.5,-63.51"/>
<polygon fill="midnightblue" stroke="midnightblue" points="419,-90.22 422.5,-100.22 426,-90.22 419,-90.22"/>
</g>
<!-- Node5 -->
<g id="node5" class="node">
<title>Node5</title>
<g id="a_node5"><a xlink:href="instrument__spec__assigns_8cpp.html" target="_top" xlink:title="Specify write set in code contracts.">
<polygon fill="none" stroke="black" points="529,-6 529,-58 692,-58 692,-6 529,-6"/>
<text text-anchor="start" x="537" y="-46" font-family="Helvetica,sans-Serif" font-size="10.00">/home/runner/work/diffblue</text>
<text text-anchor="start" x="537" y="-35" font-family="Helvetica,sans-Serif" font-size="10.00">&#45;cbmc/diffblue&#45;cbmc/src</text>
<text text-anchor="start" x="537" y="-24" font-family="Helvetica,sans-Serif" font-size="10.00">/goto&#45;instrument/contracts</text>
<text text-anchor="middle" x="610.5" y="-13" font-family="Helvetica,sans-Serif" font-size="10.00">/instrument_spec_assigns.cpp</text>
</a>
</g>
</g>
<!-- Node1&#45;&gt;Node5 -->
<g id="edge4" class="edge">
<title>Node1&#45;&gt;Node5</title>
<path fill="none" stroke="midnightblue" d="M482.35,-96.05C507.21,-83.82 535.75,-69.78 559.58,-58.05"/>
<polygon fill="midnightblue" stroke="midnightblue" points="480.8,-92.91 473.38,-100.47 483.89,-99.19 480.8,-92.91"/>
</g>
<!-- Node6 -->
<g id="node6" class="node">
<title>Node6</title>
<g id="a_node6"><a xlink:href="enumerative__loop__contracts__synthesizer_8cpp.html" target="_top" xlink:title="Enumerative Loop Contracts Synthesizer.">
<polygon fill="none" stroke="black" points="710.5,-6 710.5,-58 884.5,-58 884.5,-6 710.5,-6"/>
<text text-anchor="start" x="718.5" y="-46" font-family="Helvetica,sans-Serif" font-size="10.00">/home/runner/work/diffblue</text>
<text text-anchor="start" x="718.5" y="-35" font-family="Helvetica,sans-Serif" font-size="10.00">&#45;cbmc/diffblue&#45;cbmc/src</text>
<text text-anchor="start" x="718.5" y="-24" font-family="Helvetica,sans-Serif" font-size="10.00">/goto&#45;synthesizer/enumerative</text>
<text text-anchor="middle" x="797.5" y="-13" font-family="Helvetica,sans-Serif" font-size="10.00">_loop_contracts_synthesizer.cpp</text>
</a>
</g>
</g>
<!-- Node1&#45;&gt;Node6 -->
<g id="edge5" class="edge">
<title>Node1&#45;&gt;Node6</title>
<path fill="none" stroke="midnightblue" d="M507.08,-109.04C562.67,-97.69 636.81,-81.53 701.5,-64 708.26,-62.17 715.25,-60.15 722.24,-58.05"/>
<polygon fill="midnightblue" stroke="midnightblue" points="506.38,-105.61 497.28,-111.03 507.78,-112.47 506.38,-105.61"/>
</g>
</g>
</svg>
