<?xml version="1.0" encoding="UTF-8" standalone="no"?>
<!DOCTYPE svg PUBLIC "-//W3C//DTD SVG 1.1//EN"
 "http://www.w3.org/Graphics/SVG/1.1/DTD/svg11.dtd">
<!-- Generated by graphviz version 2.43.0 (0)
 -->
<!-- Title: /home/runner/work/diffblue&#45;cbmc/diffblue&#45;cbmc/jbmc/src/java_bytecode/ci_lazy_methods_needed.h Pages: 1 -->
<svg width="2204pt" height="328pt"
 viewBox="0.00 0.00 2203.50 328.00" xmlns="http://www.w3.org/2000/svg" xmlns:xlink="http://www.w3.org/1999/xlink">
<g id="graph0" class="graph" transform="scale(1 1) rotate(0) translate(4 324)">
<title>/home/runner/work/diffblue&#45;cbmc/diffblue&#45;cbmc/jbmc/src/java_bytecode/ci_lazy_methods_needed.h</title>
<!-- Node1 -->
<g id="node1" class="node">
<title>Node1</title>
<g id="a_node1"><a xlink:title="Context&#45;insensitive lazy methods container.">
<polygon fill="#bfbfbf" stroke="black" points="519.5,-267.5 519.5,-319.5 668.5,-319.5 668.5,-267.5 519.5,-267.5"/>
<text text-anchor="start" x="527.5" y="-307.5" font-family="Helvetica,sans-Serif" font-size="10.00">/home/runner/work/diffblue</text>
<text text-anchor="start" x="527.5" y="-296.5" font-family="Helvetica,sans-Serif" font-size="10.00">&#45;cbmc/diffblue&#45;cbmc/jbmc</text>
<text text-anchor="start" x="527.5" y="-285.5" font-family="Helvetica,sans-Serif" font-size="10.00">/src/java_bytecode/ci_lazy</text>
<text text-anchor="middle" x="594" y="-274.5" font-family="Helvetica,sans-Serif" font-size="10.00">_methods_needed.h</text>
</a>
</g>
</g>
<!-- Node2 -->
<g id="node2" class="node">
<title>Node2</title>
<g id="a_node2"><a xlink:href="assignments__from__json_8cpp.html" target="_top" xlink:title=" ">
<polygon fill="none" stroke="black" points="144.5,-178.5 144.5,-230.5 317.5,-230.5 317.5,-178.5 144.5,-178.5"/>
<text text-anchor="start" x="152.5" y="-218.5" font-family="Helvetica,sans-Serif" font-size="10.00">/home/runner/work/diffblue</text>
<text text-anchor="start" x="152.5" y="-207.5" font-family="Helvetica,sans-Serif" font-size="10.00">&#45;cbmc/diffblue&#45;cbmc/jbmc</text>
<text text-anchor="start" x="152.5" y="-196.5" font-family="Helvetica,sans-Serif" font-size="10.00">/src/java_bytecode/assignments</text>
<text text-anchor="middle" x="231" y="-185.5" font-family="Helvetica,sans-Serif" font-size="10.00">_from_json.cpp</text>
</a>
</g>
</g>
<!-- Node1&#45;&gt;Node2 -->
<g id="edge1" class="edge">
<title>Node1&#45;&gt;Node2</title>
<path fill="none" stroke="midnightblue" d="M509.31,-273.9C456.48,-262.09 387.14,-246.22 326,-231 323.27,-230.32 320.49,-229.62 317.69,-228.91"/>
<polygon fill="midnightblue" stroke="midnightblue" points="508.79,-277.37 519.31,-276.13 510.31,-270.54 508.79,-277.37"/>
</g>
<!-- Node3 -->
<g id="node3" class="node">
<title>Node3</title>
<g id="a_node3"><a xlink:href="ci__lazy__methods__needed_8cpp.html" target="_top" xlink:title="Context&#45;insensitive lazy methods container.">
<polygon fill="none" stroke="black" points="335.5,-178.5 335.5,-230.5 484.5,-230.5 484.5,-178.5 335.5,-178.5"/>
<text text-anchor="start" x="343.5" y="-218.5" font-family="Helvetica,sans-Serif" font-size="10.00">/home/runner/work/diffblue</text>
<text text-anchor="start" x="343.5" y="-207.5" font-family="Helvetica,sans-Serif" font-size="10.00">&#45;cbmc/diffblue&#45;cbmc/jbmc</text>
<text text-anchor="start" x="343.5" y="-196.5" font-family="Helvetica,sans-Serif" font-size="10.00">/src/java_bytecode/ci_lazy</text>
<text text-anchor="middle" x="410" y="-185.5" font-family="Helvetica,sans-Serif" font-size="10.00">_methods_needed.cpp</text>
</a>
</g>
</g>
<!-- Node1&#45;&gt;Node3 -->
<g id="edge2" class="edge">
<title>Node1&#45;&gt;Node3</title>
<path fill="none" stroke="midnightblue" d="M531.73,-263.06C509.44,-252.52 484.54,-240.75 463.1,-230.61"/>
<polygon fill="midnightblue" stroke="midnightblue" points="530.24,-266.23 540.78,-267.34 533.24,-259.9 530.24,-266.23"/>
</g>
<!-- Node4 -->
<g id="node4" class="node">
<title>Node4</title>
<g id="a_node4"><a xlink:href="java__bytecode__convert__method__class_8h.html" target="_top" xlink:title="JAVA Bytecode Language Conversion.">
<polygon fill="none" stroke="black" points="503,-178.5 503,-230.5 685,-230.5 685,-178.5 503,-178.5"/>
<text text-anchor="start" x="511" y="-218.5" font-family="Helvetica,sans-Serif" font-size="10.00">/home/runner/work/diffblue</text>
<text text-anchor="start" x="511" y="-207.5" font-family="Helvetica,sans-Serif" font-size="10.00">&#45;cbmc/diffblue&#45;cbmc/jbmc</text>
<text text-anchor="start" x="511" y="-196.5" font-family="Helvetica,sans-Serif" font-size="10.00">/src/java_bytecode/java_bytecode</text>
<text text-anchor="middle" x="594" y="-185.5" font-family="Helvetica,sans-Serif" font-size="10.00">_convert_method_class.h</text>
</a>
</g>
</g>
<!-- Node1&#45;&gt;Node4 -->
<g id="edge3" class="edge">
<title>Node1&#45;&gt;Node4</title>
<path fill="none" stroke="midnightblue" d="M594,-257.19C594,-248.28 594,-238.9 594,-230.61"/>
<polygon fill="midnightblue" stroke="midnightblue" points="590.5,-257.34 594,-267.34 597.5,-257.34 590.5,-257.34"/>
</g>
<!-- Node11 -->
<g id="node11" class="node">
<title>Node11</title>
<g id="a_node11"><a xlink:href="java__bytecode__language_8h.html" target="_top" xlink:title=" ">
<polygon fill="none" stroke="black" points="1093,-178.5 1093,-230.5 1275,-230.5 1275,-178.5 1093,-178.5"/>
<text text-anchor="start" x="1101" y="-218.5" font-family="Helvetica,sans-Serif" font-size="10.00">/home/runner/work/diffblue</text>
<text text-anchor="start" x="1101" y="-207.5" font-family="Helvetica,sans-Serif" font-size="10.00">&#45;cbmc/diffblue&#45;cbmc/jbmc</text>
<text text-anchor="start" x="1101" y="-196.5" font-family="Helvetica,sans-Serif" font-size="10.00">/src/java_bytecode/java_bytecode</text>
<text text-anchor="middle" x="1184" y="-185.5" font-family="Helvetica,sans-Serif" font-size="10.00">_language.h</text>
</a>
</g>
</g>
<!-- Node1&#45;&gt;Node11 -->
<g id="edge11" class="edge">
<title>Node1&#45;&gt;Node11</title>
<path fill="none" stroke="midnightblue" d="M678.79,-280C788.8,-263.78 980,-235.58 1092.98,-218.92"/>
<polygon fill="midnightblue" stroke="midnightblue" points="678.11,-276.56 668.72,-281.48 679.13,-283.49 678.11,-276.56"/>
</g>
<!-- Node24 -->
<g id="node24" class="node">
<title>Node24</title>
<g id="a_node24"><a xlink:href="java__static__initializers_8cpp.html" target="_top" xlink:title=" ">
<polygon fill="none" stroke="black" points="1293,-178.5 1293,-230.5 1457,-230.5 1457,-178.5 1293,-178.5"/>
<text text-anchor="start" x="1301" y="-218.5" font-family="Helvetica,sans-Serif" font-size="10.00">/home/runner/work/diffblue</text>
<text text-anchor="start" x="1301" y="-207.5" font-family="Helvetica,sans-Serif" font-size="10.00">&#45;cbmc/diffblue&#45;cbmc/jbmc</text>
<text text-anchor="start" x="1301" y="-196.5" font-family="Helvetica,sans-Serif" font-size="10.00">/src/java_bytecode/java_static</text>
<text text-anchor="middle" x="1375" y="-185.5" font-family="Helvetica,sans-Serif" font-size="10.00">_initializers.cpp</text>
</a>
</g>
</g>
<!-- Node1&#45;&gt;Node24 -->
<g id="edge27" class="edge">
<title>Node1&#45;&gt;Node24</title>
<path fill="none" stroke="midnightblue" d="M678.99,-289.96C809.89,-284.92 1068.32,-270.48 1284,-231 1286.91,-230.47 1289.85,-229.89 1292.82,-229.26"/>
<polygon fill="midnightblue" stroke="midnightblue" points="678.5,-286.48 668.63,-290.35 678.76,-293.47 678.5,-286.48"/>
</g>
<!-- Node5 -->
<g id="node5" class="node">
<title>Node5</title>
<g id="a_node5"><a xlink:href="java__bytecode__convert__method_8cpp.html" target="_top" xlink:title="JAVA Bytecode Language Conversion.">
<polygon fill="none" stroke="black" points="0,-0.5 0,-52.5 182,-52.5 182,-0.5 0,-0.5"/>
<text text-anchor="start" x="8" y="-40.5" font-family="Helvetica,sans-Serif" font-size="10.00">/home/runner/work/diffblue</text>
<text text-anchor="start" x="8" y="-29.5" font-family="Helvetica,sans-Serif" font-size="10.00">&#45;cbmc/diffblue&#45;cbmc/jbmc</text>
<text text-anchor="start" x="8" y="-18.5" font-family="Helvetica,sans-Serif" font-size="10.00">/src/java_bytecode/java_bytecode</text>
<text text-anchor="middle" x="91" y="-7.5" font-family="Helvetica,sans-Serif" font-size="10.00">_convert_method.cpp</text>
</a>
</g>
</g>
<!-- Node4&#45;&gt;Node5 -->
<g id="edge4" class="edge">
<title>Node4&#45;&gt;Node5</title>
<path fill="none" stroke="midnightblue" d="M493.31,-178.07C493.2,-178.05 493.1,-178.02 493,-178 409.51,-159.53 384.59,-170.58 304,-142 239.3,-119.06 170.36,-78.72 128.99,-52.56"/>
<polygon fill="midnightblue" stroke="midnightblue" points="492.42,-181.45 502.94,-180.25 493.96,-174.63 492.42,-181.45"/>
</g>
<!-- Node6 -->
<g id="node6" class="node">
<title>Node6</title>
<g id="a_node6"><a xlink:href="java__bytecode__convert__method_8h.html" target="_top" xlink:title="JAVA Bytecode Language Conversion.">
<polygon fill="none" stroke="black" points="313,-89.5 313,-141.5 495,-141.5 495,-89.5 313,-89.5"/>
<text text-anchor="start" x="321" y="-129.5" font-family="Helvetica,sans-Serif" font-size="10.00">/home/runner/work/diffblue</text>
<text text-anchor="start" x="321" y="-118.5" font-family="Helvetica,sans-Serif" font-size="10.00">&#45;cbmc/diffblue&#45;cbmc/jbmc</text>
<text text-anchor="start" x="321" y="-107.5" font-family="Helvetica,sans-Serif" font-size="10.00">/src/java_bytecode/java_bytecode</text>
<text text-anchor="middle" x="404" y="-96.5" font-family="Helvetica,sans-Serif" font-size="10.00">_convert_method.h</text>
</a>
</g>
</g>
<!-- Node4&#45;&gt;Node6 -->
<g id="edge5" class="edge">
<title>Node4&#45;&gt;Node6</title>
<path fill="none" stroke="midnightblue" d="M529.91,-174.15C506.77,-163.56 480.9,-151.71 458.64,-141.52"/>
<polygon fill="midnightblue" stroke="midnightblue" points="528.75,-177.47 539.3,-178.45 531.66,-171.11 528.75,-177.47"/>
</g>
<!-- Node10 -->
<g id="node10" class="node">
<title>Node10</title>
<g id="a_node10"><a xlink:href="java__local__variable__table_8cpp.html" target="_top" xlink:title="Java local variable table processing.">
<polygon fill="none" stroke="black" points="513.5,-89.5 513.5,-141.5 674.5,-141.5 674.5,-89.5 513.5,-89.5"/>
<text text-anchor="start" x="521.5" y="-129.5" font-family="Helvetica,sans-Serif" font-size="10.00">/home/runner/work/diffblue</text>
<text text-anchor="start" x="521.5" y="-118.5" font-family="Helvetica,sans-Serif" font-size="10.00">&#45;cbmc/diffblue&#45;cbmc/jbmc</text>
<text text-anchor="start" x="521.5" y="-107.5" font-family="Helvetica,sans-Serif" font-size="10.00">/src/java_bytecode/java_local</text>
<text text-anchor="middle" x="594" y="-96.5" font-family="Helvetica,sans-Serif" font-size="10.00">_variable_table.cpp</text>
</a>
</g>
</g>
<!-- Node4&#45;&gt;Node10 -->
<g id="edge10" class="edge">
<title>Node4&#45;&gt;Node10</title>
<path fill="none" stroke="midnightblue" d="M594,-168.19C594,-159.28 594,-149.9 594,-141.61"/>
<polygon fill="midnightblue" stroke="midnightblue" points="590.5,-168.34 594,-178.34 597.5,-168.34 590.5,-168.34"/>
</g>
<!-- Node6&#45;&gt;Node5 -->
<g id="edge7" class="edge">
<title>Node6&#45;&gt;Node5</title>
<path fill="none" stroke="midnightblue" d="M304.23,-86.77C264.68,-75.78 219.55,-63.23 181.02,-52.52"/>
<polygon fill="midnightblue" stroke="midnightblue" points="303.32,-90.15 313.89,-89.45 305.19,-83.4 303.32,-90.15"/>
</g>
<!-- Node7 -->
<g id="node7" class="node">
<title>Node7</title>
<g id="a_node7"><a xlink:href="java__bytecode__convert__class_8cpp.html" target="_top" xlink:title="JAVA Bytecode Language Conversion.">
<polygon fill="none" stroke="black" points="200,-0.5 200,-52.5 382,-52.5 382,-0.5 200,-0.5"/>
<text text-anchor="start" x="208" y="-40.5" font-family="Helvetica,sans-Serif" font-size="10.00">/home/runner/work/diffblue</text>
<text text-anchor="start" x="208" y="-29.5" font-family="Helvetica,sans-Serif" font-size="10.00">&#45;cbmc/diffblue&#45;cbmc/jbmc</text>
<text text-anchor="start" x="208" y="-18.5" font-family="Helvetica,sans-Serif" font-size="10.00">/src/java_bytecode/java_bytecode</text>
<text text-anchor="middle" x="291" y="-7.5" font-family="Helvetica,sans-Serif" font-size="10.00">_convert_class.cpp</text>
</a>
</g>
</g>
<!-- Node6&#45;&gt;Node7 -->
<g id="edge6" class="edge">
<title>Node6&#45;&gt;Node7</title>
<path fill="none" stroke="midnightblue" d="M363.37,-83.22C350.31,-73.16 336.02,-62.16 323.61,-52.61"/>
<polygon fill="midnightblue" stroke="midnightblue" points="361.26,-86.01 371.32,-89.34 365.53,-80.46 361.26,-86.01"/>
</g>
<!-- Node8 -->
<g id="node8" class="node">
<title>Node8</title>
<g id="a_node8"><a xlink:href="java__bytecode__language_8cpp.html" target="_top" xlink:title=" ">
<polygon fill="none" stroke="black" points="568,-0.5 568,-52.5 750,-52.5 750,-0.5 568,-0.5"/>
<text text-anchor="start" x="576" y="-40.5" font-family="Helvetica,sans-Serif" font-size="10.00">/home/runner/work/diffblue</text>
<text text-anchor="start" x="576" y="-29.5" font-family="Helvetica,sans-Serif" font-size="10.00">&#45;cbmc/diffblue&#45;cbmc/jbmc</text>
<text text-anchor="start" x="576" y="-18.5" font-family="Helvetica,sans-Serif" font-size="10.00">/src/java_bytecode/java_bytecode</text>
<text text-anchor="middle" x="659" y="-7.5" font-family="Helvetica,sans-Serif" font-size="10.00">_language.cpp</text>
</a>
</g>
</g>
<!-- Node6&#45;&gt;Node8 -->
<g id="edge8" class="edge">
<title>Node6&#45;&gt;Node8</title>
<path fill="none" stroke="midnightblue" d="M487.13,-86.14C518.9,-75.3 554.87,-63.03 585.66,-52.52"/>
<polygon fill="midnightblue" stroke="midnightblue" points="485.75,-82.91 477.41,-89.45 488.01,-89.54 485.75,-82.91"/>
</g>
<!-- Node9 -->
<g id="node9" class="node">
<title>Node9</title>
<g id="a_node9"><a xlink:href="lambda__synthesis_8cpp.html" target="_top" xlink:title="Java lambda code synthesis.">
<polygon fill="none" stroke="black" points="400.5,-0.5 400.5,-52.5 549.5,-52.5 549.5,-0.5 400.5,-0.5"/>
<text text-anchor="start" x="408.5" y="-40.5" font-family="Helvetica,sans-Serif" font-size="10.00">/home/runner/work/diffblue</text>
<text text-anchor="start" x="408.5" y="-29.5" font-family="Helvetica,sans-Serif" font-size="10.00">&#45;cbmc/diffblue&#45;cbmc/jbmc</text>
<text text-anchor="start" x="408.5" y="-18.5" font-family="Helvetica,sans-Serif" font-size="10.00">/src/java_bytecode/lambda</text>
<text text-anchor="middle" x="475" y="-7.5" font-family="Helvetica,sans-Serif" font-size="10.00">_synthesis.cpp</text>
</a>
</g>
</g>
<!-- Node6&#45;&gt;Node9 -->
<g id="edge9" class="edge">
<title>Node6&#45;&gt;Node9</title>
<path fill="none" stroke="midnightblue" d="M430.93,-81.5C438.75,-71.92 447.16,-61.62 454.51,-52.61"/>
<polygon fill="midnightblue" stroke="midnightblue" points="428.15,-79.38 424.54,-89.34 433.57,-83.8 428.15,-79.38"/>
</g>
<!-- Node11&#45;&gt;Node8 -->
<g id="edge17" class="edge">
<title>Node11&#45;&gt;Node8</title>
<path fill="none" stroke="midnightblue" d="M1082.6,-198.16C971.42,-190.77 801.4,-174.48 746,-142 710.46,-121.17 684.59,-79.62 670.69,-52.72"/>
<polygon fill="midnightblue" stroke="midnightblue" points="1082.63,-201.67 1092.84,-198.83 1083.09,-194.69 1082.63,-201.67"/>
</g>
<!-- Node12 -->
<g id="node12" class="node">
<title>Node12</title>
<g id="a_node12"><a xlink:href="janalyzer__parse__options_8cpp.html" target="_top" xlink:title="JANALYZER Command Line Option Processing.">
<polygon fill="none" stroke="black" points="768.5,-0.5 768.5,-52.5 917.5,-52.5 917.5,-0.5 768.5,-0.5"/>
<text text-anchor="start" x="776.5" y="-40.5" font-family="Helvetica,sans-Serif" font-size="10.00">/home/runner/work/diffblue</text>
<text text-anchor="start" x="776.5" y="-29.5" font-family="Helvetica,sans-Serif" font-size="10.00">&#45;cbmc/diffblue&#45;cbmc/jbmc</text>
<text text-anchor="start" x="776.5" y="-18.5" font-family="Helvetica,sans-Serif" font-size="10.00">/src/janalyzer/janalyzer</text>
<text text-anchor="middle" x="843" y="-7.5" font-family="Helvetica,sans-Serif" font-size="10.00">_parse_options.cpp</text>
</a>
</g>
</g>
<!-- Node11&#45;&gt;Node12 -->
<g id="edge12" class="edge">
<title>Node11&#45;&gt;Node12</title>
<path fill="none" stroke="midnightblue" d="M1082.41,-203.48C970.22,-201.04 799.99,-189.35 759,-142 743.58,-124.19 748.34,-110.01 759,-89 766.52,-74.17 779.49,-62.06 793.01,-52.62"/>
<polygon fill="midnightblue" stroke="midnightblue" points="1082.67,-206.99 1092.74,-203.68 1082.81,-199.99 1082.67,-206.99"/>
</g>
<!-- Node13 -->
<g id="node13" class="node">
<title>Node13</title>
<g id="a_node13"><a xlink:href="janalyzer__parse__options_8h.html" target="_top" xlink:title="JANALYZER Command Line Option Processing.">
<polygon fill="none" stroke="black" points="768.5,-89.5 768.5,-141.5 917.5,-141.5 917.5,-89.5 768.5,-89.5"/>
<text text-anchor="start" x="776.5" y="-129.5" font-family="Helvetica,sans-Serif" font-size="10.00">/home/runner/work/diffblue</text>
<text text-anchor="start" x="776.5" y="-118.5" font-family="Helvetica,sans-Serif" font-size="10.00">&#45;cbmc/diffblue&#45;cbmc/jbmc</text>
<text text-anchor="start" x="776.5" y="-107.5" font-family="Helvetica,sans-Serif" font-size="10.00">/src/janalyzer/janalyzer</text>
<text text-anchor="middle" x="843" y="-96.5" font-family="Helvetica,sans-Serif" font-size="10.00">_parse_options.h</text>
</a>
</g>
</g>
<!-- Node11&#45;&gt;Node13 -->
<g id="edge13" class="edge">
<title>Node11&#45;&gt;Node13</title>
<path fill="none" stroke="midnightblue" d="M1082.86,-180.97C1035.11,-169.93 977.43,-156.01 926,-142 923.24,-141.25 920.43,-140.47 917.59,-139.66"/>
<polygon fill="midnightblue" stroke="midnightblue" points="1082.36,-184.45 1092.89,-183.28 1083.94,-177.63 1082.36,-184.45"/>
</g>
<!-- Node15 -->
<g id="node15" class="node">
<title>Node15</title>
<g id="a_node15"><a xlink:href="ci__lazy__methods_8cpp.html" target="_top" xlink:title=" ">
<polygon fill="none" stroke="black" points="935.5,-89.5 935.5,-141.5 1084.5,-141.5 1084.5,-89.5 935.5,-89.5"/>
<text text-anchor="start" x="943.5" y="-129.5" font-family="Helvetica,sans-Serif" font-size="10.00">/home/runner/work/diffblue</text>
<text text-anchor="start" x="943.5" y="-118.5" font-family="Helvetica,sans-Serif" font-size="10.00">&#45;cbmc/diffblue&#45;cbmc/jbmc</text>
<text text-anchor="start" x="943.5" y="-107.5" font-family="Helvetica,sans-Serif" font-size="10.00">/src/java_bytecode/ci_lazy</text>
<text text-anchor="middle" x="1010" y="-96.5" font-family="Helvetica,sans-Serif" font-size="10.00">_methods.cpp</text>
</a>
</g>
</g>
<!-- Node11&#45;&gt;Node15 -->
<g id="edge16" class="edge">
<title>Node11&#45;&gt;Node15</title>
<path fill="none" stroke="midnightblue" d="M1124.55,-173.78C1103.62,-163.31 1080.31,-151.66 1060.21,-141.61"/>
<polygon fill="midnightblue" stroke="midnightblue" points="1123.16,-176.99 1133.67,-178.34 1126.29,-170.73 1123.16,-176.99"/>
</g>
<!-- Node16 -->
<g id="node16" class="node">
<title>Node16</title>
<g id="a_node16"><a xlink:href="java__entry__point_8cpp.html" target="_top" xlink:title=" ">
<polygon fill="none" stroke="black" points="1102.5,-89.5 1102.5,-141.5 1265.5,-141.5 1265.5,-89.5 1102.5,-89.5"/>
<text text-anchor="start" x="1110.5" y="-129.5" font-family="Helvetica,sans-Serif" font-size="10.00">/home/runner/work/diffblue</text>
<text text-anchor="start" x="1110.5" y="-118.5" font-family="Helvetica,sans-Serif" font-size="10.00">&#45;cbmc/diffblue&#45;cbmc/jbmc</text>
<text text-anchor="start" x="1110.5" y="-107.5" font-family="Helvetica,sans-Serif" font-size="10.00">/src/java_bytecode/java_entry</text>
<text text-anchor="middle" x="1184" y="-96.5" font-family="Helvetica,sans-Serif" font-size="10.00">_point.cpp</text>
</a>
</g>
</g>
<!-- Node11&#45;&gt;Node16 -->
<g id="edge18" class="edge">
<title>Node11&#45;&gt;Node16</title>
<path fill="none" stroke="midnightblue" d="M1184,-168.19C1184,-159.28 1184,-149.9 1184,-141.61"/>
<polygon fill="midnightblue" stroke="midnightblue" points="1180.5,-168.34 1184,-178.34 1187.5,-168.34 1180.5,-168.34"/>
</g>
<!-- Node17 -->
<g id="node17" class="node">
<title>Node17</title>
<g id="a_node17"><a xlink:href="lazy__goto__model_8cpp.html" target="_top" xlink:title="Author: Diffblue Ltd.">
<polygon fill="none" stroke="black" points="1284,-89.5 1284,-141.5 1442,-141.5 1442,-89.5 1284,-89.5"/>
<text text-anchor="start" x="1292" y="-129.5" font-family="Helvetica,sans-Serif" font-size="10.00">/home/runner/work/diffblue</text>
<text text-anchor="start" x="1292" y="-118.5" font-family="Helvetica,sans-Serif" font-size="10.00">&#45;cbmc/diffblue&#45;cbmc/jbmc</text>
<text text-anchor="start" x="1292" y="-107.5" font-family="Helvetica,sans-Serif" font-size="10.00">/src/java_bytecode/lazy_goto</text>
<text text-anchor="middle" x="1363" y="-96.5" font-family="Helvetica,sans-Serif" font-size="10.00">_model.cpp</text>
</a>
</g>
</g>
<!-- Node11&#45;&gt;Node17 -->
<g id="edge19" class="edge">
<title>Node11&#45;&gt;Node17</title>
<path fill="none" stroke="midnightblue" d="M1244.87,-173.92C1266.48,-163.41 1290.57,-151.7 1311.34,-141.61"/>
<polygon fill="midnightblue" stroke="midnightblue" points="1243.24,-170.82 1235.77,-178.34 1246.3,-177.11 1243.24,-170.82"/>
</g>
<!-- Node18 -->
<g id="node18" class="node">
<title>Node18</title>
<g id="a_node18"><a xlink:href="jbmc__parse__options_8cpp.html" target="_top" xlink:title="JBMC Command Line Option Processing.">
<polygon fill="none" stroke="black" points="1379,-6 1379,-47 1561,-47 1561,-6 1379,-6"/>
<text text-anchor="start" x="1387" y="-35" font-family="Helvetica,sans-Serif" font-size="10.00">/home/runner/work/diffblue</text>
<text text-anchor="start" x="1387" y="-24" font-family="Helvetica,sans-Serif" font-size="10.00">&#45;cbmc/diffblue&#45;cbmc/jbmc</text>
<text text-anchor="middle" x="1470" y="-13" font-family="Helvetica,sans-Serif" font-size="10.00">/src/jbmc/jbmc_parse_options.cpp</text>
</a>
</g>
</g>
<!-- Node11&#45;&gt;Node18 -->
<g id="edge20" class="edge">
<title>Node11&#45;&gt;Node18</title>
<path fill="none" stroke="midnightblue" d="M1285.21,-177.96C1361.27,-163.44 1400.76,-194.7 1451,-142 1475.19,-116.62 1475.28,-72.85 1472.85,-47.41"/>
<polygon fill="midnightblue" stroke="midnightblue" points="1284.3,-174.57 1275.25,-180.08 1285.76,-181.42 1284.3,-174.57"/>
</g>
<!-- Node19 -->
<g id="node19" class="node">
<title>Node19</title>
<g id="a_node19"><a xlink:href="jbmc__parse__options_8h.html" target="_top" xlink:title="JBMC Command Line Option Processing.">
<polygon fill="none" stroke="black" points="1498,-95 1498,-136 1668,-136 1668,-95 1498,-95"/>
<text text-anchor="start" x="1506" y="-124" font-family="Helvetica,sans-Serif" font-size="10.00">/home/runner/work/diffblue</text>
<text text-anchor="start" x="1506" y="-113" font-family="Helvetica,sans-Serif" font-size="10.00">&#45;cbmc/diffblue&#45;cbmc/jbmc</text>
<text text-anchor="middle" x="1583" y="-102" font-family="Helvetica,sans-Serif" font-size="10.00">/src/jbmc/jbmc_parse_options.h</text>
</a>
</g>
</g>
<!-- Node11&#45;&gt;Node19 -->
<g id="edge21" class="edge">
<title>Node11&#45;&gt;Node19</title>
<path fill="none" stroke="midnightblue" d="M1285.19,-177.81C1373.99,-158.97 1398.87,-160.6 1484,-142 1492.32,-140.18 1501.01,-138.15 1509.62,-136.05"/>
<polygon fill="midnightblue" stroke="midnightblue" points="1284.26,-174.43 1275.22,-179.95 1285.73,-181.27 1284.26,-174.43"/>
</g>
<!-- Node21 -->
<g id="node21" class="node">
<title>Node21</title>
<g id="a_node21"><a xlink:href="jdiff__languages_8cpp.html" target="_top" xlink:title="Language Registration.">
<polygon fill="none" stroke="black" points="1686.5,-95 1686.5,-136 1839.5,-136 1839.5,-95 1686.5,-95"/>
<text text-anchor="start" x="1694.5" y="-124" font-family="Helvetica,sans-Serif" font-size="10.00">/home/runner/work/diffblue</text>
<text text-anchor="start" x="1694.5" y="-113" font-family="Helvetica,sans-Serif" font-size="10.00">&#45;cbmc/diffblue&#45;cbmc/jbmc</text>
<text text-anchor="middle" x="1763" y="-102" font-family="Helvetica,sans-Serif" font-size="10.00">/src/jdiff/jdiff_languages.cpp</text>
</a>
</g>
</g>
<!-- Node11&#45;&gt;Node21 -->
<g id="edge24" class="edge">
<title>Node11&#45;&gt;Node21</title>
<path fill="none" stroke="midnightblue" d="M1285.13,-177.93C1458.67,-149.21 1507.95,-174.48 1677,-142 1685.26,-140.41 1693.86,-138.36 1702.29,-136.11"/>
<polygon fill="midnightblue" stroke="midnightblue" points="1284.43,-174.5 1275.16,-179.62 1285.6,-181.4 1284.43,-174.5"/>
</g>
<!-- Node22 -->
<g id="node22" class="node">
<title>Node22</title>
<g id="a_node22"><a xlink:href="jdiff__parse__options_8cpp.html" target="_top" xlink:title="JDIFF Command Line Option Processing.">
<polygon fill="none" stroke="black" points="1857.5,-95 1857.5,-136 2028.5,-136 2028.5,-95 1857.5,-95"/>
<text text-anchor="start" x="1865.5" y="-124" font-family="Helvetica,sans-Serif" font-size="10.00">/home/runner/work/diffblue</text>
<text text-anchor="start" x="1865.5" y="-113" font-family="Helvetica,sans-Serif" font-size="10.00">&#45;cbmc/diffblue&#45;cbmc/jbmc</text>
<text text-anchor="middle" x="1943" y="-102" font-family="Helvetica,sans-Serif" font-size="10.00">/src/jdiff/jdiff_parse_options.cpp</text>
</a>
</g>
</g>
<!-- Node11&#45;&gt;Node22 -->
<g id="edge25" class="edge">
<title>Node11&#45;&gt;Node22</title>
<path fill="none" stroke="midnightblue" d="M1285.22,-177.95C1534.37,-139.9 1604.04,-182.6 1849,-142 1858.34,-140.45 1868.09,-138.36 1877.63,-136.04"/>
<polygon fill="midnightblue" stroke="midnightblue" points="1284.48,-174.52 1275.14,-179.52 1285.56,-181.44 1284.48,-174.52"/>
</g>
<!-- Node23 -->
<g id="node23" class="node">
<title>Node23</title>
<g id="a_node23"><a xlink:href="load__java__class_8cpp.html" target="_top" xlink:title=" ">
<polygon fill="none" stroke="black" points="2046.5,-89.5 2046.5,-141.5 2195.5,-141.5 2195.5,-89.5 2046.5,-89.5"/>
<text text-anchor="start" x="2054.5" y="-129.5" font-family="Helvetica,sans-Serif" font-size="10.00">/home/runner/work/diffblue</text>
<text text-anchor="start" x="2054.5" y="-118.5" font-family="Helvetica,sans-Serif" font-size="10.00">&#45;cbmc/diffblue&#45;cbmc/jbmc</text>
<text text-anchor="start" x="2054.5" y="-107.5" font-family="Helvetica,sans-Serif" font-size="10.00">/unit/java&#45;testing&#45;utils</text>
<text text-anchor="middle" x="2121" y="-96.5" font-family="Helvetica,sans-Serif" font-size="10.00">/load_java_class.cpp</text>
</a>
</g>
</g>
<!-- Node11&#45;&gt;Node23 -->
<g id="edge26" class="edge">
<title>Node11&#45;&gt;Node23</title>
<path fill="none" stroke="midnightblue" d="M1285.04,-177.99C1617.6,-129.68 1710.74,-199.15 2038,-142 2040.67,-141.53 2043.38,-141.01 2046.1,-140.43"/>
<polygon fill="midnightblue" stroke="midnightblue" points="1284.51,-174.53 1275.13,-179.45 1285.53,-181.46 1284.51,-174.53"/>
</g>
<!-- Node13&#45;&gt;Node12 -->
<g id="edge15" class="edge">
<title>Node13&#45;&gt;Node12</title>
<path fill="none" stroke="midnightblue" d="M843,-79.19C843,-70.28 843,-60.9 843,-52.61"/>
<polygon fill="midnightblue" stroke="midnightblue" points="839.5,-79.34 843,-89.34 846.5,-79.34 839.5,-79.34"/>
</g>
<!-- Node14 -->
<g id="node14" class="node">
<title>Node14</title>
<g id="a_node14"><a xlink:href="janalyzer__main_8cpp.html" target="_top" xlink:title="JANALYZER Main Module.">
<polygon fill="none" stroke="black" points="935.5,-0.5 935.5,-52.5 1084.5,-52.5 1084.5,-0.5 935.5,-0.5"/>
<text text-anchor="start" x="943.5" y="-40.5" font-family="Helvetica,sans-Serif" font-size="10.00">/home/runner/work/diffblue</text>
<text text-anchor="start" x="943.5" y="-29.5" font-family="Helvetica,sans-Serif" font-size="10.00">&#45;cbmc/diffblue&#45;cbmc/jbmc</text>
<text text-anchor="start" x="943.5" y="-18.5" font-family="Helvetica,sans-Serif" font-size="10.00">/src/janalyzer/janalyzer</text>
<text text-anchor="middle" x="1010" y="-7.5" font-family="Helvetica,sans-Serif" font-size="10.00">_main.cpp</text>
</a>
</g>
</g>
<!-- Node13&#45;&gt;Node14 -->
<g id="edge14" class="edge">
<title>Node13&#45;&gt;Node14</title>
<path fill="none" stroke="midnightblue" d="M900.33,-84.64C920.35,-74.2 942.6,-62.61 961.81,-52.61"/>
<polygon fill="midnightblue" stroke="midnightblue" points="898.55,-81.61 891.3,-89.34 901.79,-87.82 898.55,-81.61"/>
</g>
<!-- Node19&#45;&gt;Node18 -->
<g id="edge23" class="edge">
<title>Node19&#45;&gt;Node18</title>
<path fill="none" stroke="midnightblue" d="M1549.5,-88.71C1532.27,-75.44 1511.61,-59.53 1495.67,-47.26"/>
<polygon fill="midnightblue" stroke="midnightblue" points="1547.58,-91.65 1557.64,-94.98 1551.85,-86.1 1547.58,-91.65"/>
</g>
<!-- Node20 -->
<g id="node20" class="node">
<title>Node20</title>
<g id="a_node20"><a xlink:href="jbmc__main_8cpp.html" target="_top" xlink:title="CBMC Main Module.">
<polygon fill="none" stroke="black" points="1579.5,-6 1579.5,-47 1728.5,-47 1728.5,-6 1579.5,-6"/>
<text text-anchor="start" x="1587.5" y="-35" font-family="Helvetica,sans-Serif" font-size="10.00">/home/runner/work/diffblue</text>
<text text-anchor="start" x="1587.5" y="-24" font-family="Helvetica,sans-Serif" font-size="10.00">&#45;cbmc/diffblue&#45;cbmc/jbmc</text>
<text text-anchor="middle" x="1654" y="-13" font-family="Helvetica,sans-Serif" font-size="10.00">/src/jbmc/jbmc_main.cpp</text>
</a>
</g>
</g>
<!-- Node19&#45;&gt;Node20 -->
<g id="edge22" class="edge">
<title>Node19&#45;&gt;Node20</title>
<path fill="none" stroke="midnightblue" d="M1605.72,-86.67C1616.21,-73.8 1628.43,-58.83 1637.95,-47.16"/>
<polygon fill="midnightblue" stroke="midnightblue" points="1602.72,-84.8 1599.11,-94.76 1608.15,-89.22 1602.72,-84.8"/>
</g>
</g>
</svg>
