<?xml version="1.0" encoding="UTF-8" standalone="no"?>
<!DOCTYPE svg PUBLIC "-//W3C//DTD SVG 1.1//EN"
 "http://www.w3.org/Graphics/SVG/1.1/DTD/svg11.dtd">
<!-- Generated by graphviz version 2.43.0 (0)
 -->
<!-- Title: /home/runner/work/diffblue&#45;cbmc/diffblue&#45;cbmc/src/goto&#45;programs/class_hierarchy.h Pages: 1 -->
<svg width="2541pt" height="406pt"
 viewBox="0.00 0.00 2540.50 406.00" xmlns="http://www.w3.org/2000/svg" xmlns:xlink="http://www.w3.org/1999/xlink">
<g id="graph0" class="graph" transform="scale(1 1) rotate(0) translate(4 402)">
<title>/home/runner/work/diffblue&#45;cbmc/diffblue&#45;cbmc/src/goto&#45;programs/class_hierarchy.h</title>
<!-- Node1 -->
<g id="node1" class="node">
<title>Node1</title>
<g id="a_node1"><a xlink:title="Class Hierarchy.">
<polygon fill="#bfbfbf" stroke="black" points="1078,-356.5 1078,-397.5 1256,-397.5 1256,-356.5 1078,-356.5"/>
<text text-anchor="start" x="1086" y="-385.5" font-family="Helvetica,sans-Serif" font-size="10.00">/home/runner/work/diffblue</text>
<text text-anchor="start" x="1086" y="-374.5" font-family="Helvetica,sans-Serif" font-size="10.00">&#45;cbmc/diffblue&#45;cbmc/src</text>
<text text-anchor="middle" x="1167" y="-363.5" font-family="Helvetica,sans-Serif" font-size="10.00">/goto&#45;programs/class_hierarchy.h</text>
</a>
</g>
</g>
<!-- Node2 -->
<g id="node2" class="node">
<title>Node2</title>
<g id="a_node2"><a xlink:href="uncaught__exceptions__analysis_8h.html" target="_top" xlink:title="Over&#45;approximative uncaught exceptions analysis.">
<polygon fill="none" stroke="black" points="223,-267.5 223,-319.5 393,-319.5 393,-267.5 223,-267.5"/>
<text text-anchor="start" x="231" y="-307.5" font-family="Helvetica,sans-Serif" font-size="10.00">/home/runner/work/diffblue</text>
<text text-anchor="start" x="231" y="-296.5" font-family="Helvetica,sans-Serif" font-size="10.00">&#45;cbmc/diffblue&#45;cbmc/src</text>
<text text-anchor="start" x="231" y="-285.5" font-family="Helvetica,sans-Serif" font-size="10.00">/analyses/uncaught_exceptions</text>
<text text-anchor="middle" x="308" y="-274.5" font-family="Helvetica,sans-Serif" font-size="10.00">_analysis.h</text>
</a>
</g>
</g>
<!-- Node1&#45;&gt;Node2 -->
<g id="edge1" class="edge">
<title>Node1&#45;&gt;Node2</title>
<path fill="none" stroke="midnightblue" d="M1067.83,-372.57C925.89,-366.72 656.89,-352.19 430,-320 418,-318.3 405.42,-316.12 393.07,-313.76"/>
<polygon fill="midnightblue" stroke="midnightblue" points="1067.69,-376.06 1077.82,-372.97 1067.97,-369.07 1067.69,-376.06"/>
</g>
<!-- Node6 -->
<g id="node6" class="node">
<title>Node6</title>
<g id="a_node6"><a xlink:href="taint__analysis_8cpp.html" target="_top" xlink:title="Taint Analysis.">
<polygon fill="none" stroke="black" points="439.5,-273 439.5,-314 618.5,-314 618.5,-273 439.5,-273"/>
<text text-anchor="start" x="447.5" y="-302" font-family="Helvetica,sans-Serif" font-size="10.00">/home/runner/work/diffblue</text>
<text text-anchor="start" x="447.5" y="-291" font-family="Helvetica,sans-Serif" font-size="10.00">&#45;cbmc/diffblue&#45;cbmc/src</text>
<text text-anchor="middle" x="529" y="-280" font-family="Helvetica,sans-Serif" font-size="10.00">/goto&#45;analyzer/taint_analysis.cpp</text>
</a>
</g>
</g>
<!-- Node1&#45;&gt;Node6 -->
<g id="edge5" class="edge">
<title>Node1&#45;&gt;Node6</title>
<path fill="none" stroke="midnightblue" d="M1067.47,-369.63C959.8,-361.79 783.35,-346.19 633,-320 623.38,-318.33 613.34,-316.26 603.44,-314.05"/>
<polygon fill="midnightblue" stroke="midnightblue" points="1067.45,-373.13 1077.67,-370.36 1067.95,-366.15 1067.45,-373.13"/>
</g>
<!-- Node7 -->
<g id="node7" class="node">
<title>Node7</title>
<g id="a_node7"><a xlink:href="goto__instrument__parse__options_8cpp.html" target="_top" xlink:title="Main Module.">
<polygon fill="none" stroke="black" points="556,-178.5 556,-230.5 738,-230.5 738,-178.5 556,-178.5"/>
<text text-anchor="start" x="564" y="-218.5" font-family="Helvetica,sans-Serif" font-size="10.00">/home/runner/work/diffblue</text>
<text text-anchor="start" x="564" y="-207.5" font-family="Helvetica,sans-Serif" font-size="10.00">&#45;cbmc/diffblue&#45;cbmc/src</text>
<text text-anchor="start" x="564" y="-196.5" font-family="Helvetica,sans-Serif" font-size="10.00">/goto&#45;instrument/goto_instrument</text>
<text text-anchor="middle" x="647" y="-185.5" font-family="Helvetica,sans-Serif" font-size="10.00">_parse_options.cpp</text>
</a>
</g>
</g>
<!-- Node1&#45;&gt;Node7 -->
<g id="edge6" class="edge">
<title>Node1&#45;&gt;Node7</title>
<path fill="none" stroke="midnightblue" d="M1067.74,-371.26C930,-363.73 694.54,-347.06 666,-320 642.17,-297.4 640.98,-257.16 643.26,-230.91"/>
<polygon fill="midnightblue" stroke="midnightblue" points="1067.71,-374.76 1077.89,-371.81 1068.09,-367.77 1067.71,-374.76"/>
</g>
<!-- Node8 -->
<g id="node8" class="node">
<title>Node8</title>
<g id="a_node8"><a xlink:href="goto__instrument__parse__options_8h.html" target="_top" xlink:title="Command Line Parsing.">
<polygon fill="none" stroke="black" points="675,-267.5 675,-319.5 857,-319.5 857,-267.5 675,-267.5"/>
<text text-anchor="start" x="683" y="-307.5" font-family="Helvetica,sans-Serif" font-size="10.00">/home/runner/work/diffblue</text>
<text text-anchor="start" x="683" y="-296.5" font-family="Helvetica,sans-Serif" font-size="10.00">&#45;cbmc/diffblue&#45;cbmc/src</text>
<text text-anchor="start" x="683" y="-285.5" font-family="Helvetica,sans-Serif" font-size="10.00">/goto&#45;instrument/goto_instrument</text>
<text text-anchor="middle" x="766" y="-274.5" font-family="Helvetica,sans-Serif" font-size="10.00">_parse_options.h</text>
</a>
</g>
</g>
<!-- Node1&#45;&gt;Node8 -->
<g id="edge7" class="edge">
<title>Node1&#45;&gt;Node8</title>
<path fill="none" stroke="midnightblue" d="M1067.75,-359.23C1008.91,-348.86 932.98,-334.75 866,-320 863.11,-319.36 860.18,-318.7 857.23,-318.03"/>
<polygon fill="midnightblue" stroke="midnightblue" points="1067.33,-362.71 1077.79,-360.99 1068.54,-355.81 1067.33,-362.71"/>
</g>
<!-- Node11 -->
<g id="node11" class="node">
<title>Node11</title>
<g id="a_node11"><a xlink:href="class__hierarchy_8cpp.html" target="_top" xlink:title="Class Hierarchy.">
<polygon fill="none" stroke="black" points="875.5,-273 875.5,-314 1064.5,-314 1064.5,-273 875.5,-273"/>
<text text-anchor="start" x="883.5" y="-302" font-family="Helvetica,sans-Serif" font-size="10.00">/home/runner/work/diffblue</text>
<text text-anchor="start" x="883.5" y="-291" font-family="Helvetica,sans-Serif" font-size="10.00">&#45;cbmc/diffblue&#45;cbmc/src</text>
<text text-anchor="middle" x="970" y="-280" font-family="Helvetica,sans-Serif" font-size="10.00">/goto&#45;programs/class_hierarchy.cpp</text>
</a>
</g>
</g>
<!-- Node1&#45;&gt;Node11 -->
<g id="edge11" class="edge">
<title>Node1&#45;&gt;Node11</title>
<path fill="none" stroke="midnightblue" d="M1110.46,-352.61C1080.91,-340.39 1045.18,-325.6 1017.14,-314"/>
<polygon fill="midnightblue" stroke="midnightblue" points="1109.24,-355.89 1119.81,-356.48 1111.91,-349.42 1109.24,-355.89"/>
</g>
<!-- Node12 -->
<g id="node12" class="node">
<title>Node12</title>
<g id="a_node12"><a xlink:href="remove__virtual__functions_8cpp.html" target="_top" xlink:title="Remove Virtual Function (Method) Calls.">
<polygon fill="none" stroke="black" points="1082.5,-267.5 1082.5,-319.5 1251.5,-319.5 1251.5,-267.5 1082.5,-267.5"/>
<text text-anchor="start" x="1090.5" y="-307.5" font-family="Helvetica,sans-Serif" font-size="10.00">/home/runner/work/diffblue</text>
<text text-anchor="start" x="1090.5" y="-296.5" font-family="Helvetica,sans-Serif" font-size="10.00">&#45;cbmc/diffblue&#45;cbmc/src</text>
<text text-anchor="start" x="1090.5" y="-285.5" font-family="Helvetica,sans-Serif" font-size="10.00">/goto&#45;programs/remove_virtual</text>
<text text-anchor="middle" x="1167" y="-274.5" font-family="Helvetica,sans-Serif" font-size="10.00">_functions.cpp</text>
</a>
</g>
</g>
<!-- Node1&#45;&gt;Node12 -->
<g id="edge12" class="edge">
<title>Node1&#45;&gt;Node12</title>
<path fill="none" stroke="midnightblue" d="M1167,-346.12C1167,-337.41 1167,-327.99 1167,-319.61"/>
<polygon fill="midnightblue" stroke="midnightblue" points="1163.5,-346.27 1167,-356.27 1170.5,-346.27 1163.5,-346.27"/>
</g>
<!-- Node13 -->
<g id="node13" class="node">
<title>Node13</title>
<g id="a_node13"><a xlink:href="ci__lazy__methods_8h.html" target="_top" xlink:title="Collect methods needed to be loaded using the lazy method.">
<polygon fill="none" stroke="black" points="1306.5,-267.5 1306.5,-319.5 1455.5,-319.5 1455.5,-267.5 1306.5,-267.5"/>
<text text-anchor="start" x="1314.5" y="-307.5" font-family="Helvetica,sans-Serif" font-size="10.00">/home/runner/work/diffblue</text>
<text text-anchor="start" x="1314.5" y="-296.5" font-family="Helvetica,sans-Serif" font-size="10.00">&#45;cbmc/diffblue&#45;cbmc/jbmc</text>
<text text-anchor="start" x="1314.5" y="-285.5" font-family="Helvetica,sans-Serif" font-size="10.00">/src/java_bytecode/ci_lazy</text>
<text text-anchor="middle" x="1381" y="-274.5" font-family="Helvetica,sans-Serif" font-size="10.00">_methods.h</text>
</a>
</g>
</g>
<!-- Node1&#45;&gt;Node13 -->
<g id="edge13" class="edge">
<title>Node1&#45;&gt;Node13</title>
<path fill="none" stroke="midnightblue" d="M1227.69,-352.89C1254.99,-342.49 1287.27,-330.2 1315.16,-319.58"/>
<polygon fill="midnightblue" stroke="midnightblue" points="1226.36,-349.65 1218.26,-356.48 1228.85,-356.19 1226.36,-349.65"/>
</g>
<!-- Node16 -->
<g id="node16" class="node">
<title>Node16</title>
<g id="a_node16"><a xlink:href="java__bytecode__language_8cpp.html" target="_top" xlink:title=" ">
<polygon fill="none" stroke="black" points="808,-89.5 808,-141.5 990,-141.5 990,-89.5 808,-89.5"/>
<text text-anchor="start" x="816" y="-129.5" font-family="Helvetica,sans-Serif" font-size="10.00">/home/runner/work/diffblue</text>
<text text-anchor="start" x="816" y="-118.5" font-family="Helvetica,sans-Serif" font-size="10.00">&#45;cbmc/diffblue&#45;cbmc/jbmc</text>
<text text-anchor="start" x="816" y="-107.5" font-family="Helvetica,sans-Serif" font-size="10.00">/src/java_bytecode/java_bytecode</text>
<text text-anchor="middle" x="899" y="-96.5" font-family="Helvetica,sans-Serif" font-size="10.00">_language.cpp</text>
</a>
</g>
</g>
<!-- Node1&#45;&gt;Node16 -->
<g id="edge33" class="edge">
<title>Node1&#45;&gt;Node16</title>
<path fill="none" stroke="midnightblue" d="M1228.48,-351.24C1241.07,-343.21 1252.69,-332.93 1260,-320 1271.59,-299.49 1270.28,-288.19 1260,-267 1203.84,-151.29 1123.8,-173.09 999,-142 996.04,-141.26 993.04,-140.51 990.01,-139.75"/>
<polygon fill="midnightblue" stroke="midnightblue" points="1226.49,-348.35 1219.65,-356.45 1230.04,-354.38 1226.49,-348.35"/>
</g>
<!-- Node24 -->
<g id="node24" class="node">
<title>Node24</title>
<g id="a_node24"><a xlink:href="jbmc__parse__options_8h.html" target="_top" xlink:title="JBMC Command Line Option Processing.">
<polygon fill="none" stroke="black" points="2302,-95 2302,-136 2472,-136 2472,-95 2302,-95"/>
<text text-anchor="start" x="2310" y="-124" font-family="Helvetica,sans-Serif" font-size="10.00">/home/runner/work/diffblue</text>
<text text-anchor="start" x="2310" y="-113" font-family="Helvetica,sans-Serif" font-size="10.00">&#45;cbmc/diffblue&#45;cbmc/jbmc</text>
<text text-anchor="middle" x="2387" y="-102" font-family="Helvetica,sans-Serif" font-size="10.00">/src/jbmc/jbmc_parse_options.h</text>
</a>
</g>
</g>
<!-- Node1&#45;&gt;Node24 -->
<g id="edge36" class="edge">
<title>Node1&#45;&gt;Node24</title>
<path fill="none" stroke="midnightblue" d="M1266.02,-358.06C1323.83,-347.4 1398.14,-333.39 1464,-320 1827.75,-246.05 1918.11,-224.59 2280,-142 2288.38,-140.09 2297.12,-138.06 2305.83,-136.02"/>
<polygon fill="midnightblue" stroke="midnightblue" points="1265.35,-354.62 1256.15,-359.87 1266.62,-361.51 1265.35,-354.62"/>
</g>
<!-- Node29 -->
<g id="node29" class="node">
<title>Node29</title>
<g id="a_node29"><a xlink:href="java__static__initializers_8cpp.html" target="_top" xlink:title=" ">
<polygon fill="none" stroke="black" points="1821,-267.5 1821,-319.5 1985,-319.5 1985,-267.5 1821,-267.5"/>
<text text-anchor="start" x="1829" y="-307.5" font-family="Helvetica,sans-Serif" font-size="10.00">/home/runner/work/diffblue</text>
<text text-anchor="start" x="1829" y="-296.5" font-family="Helvetica,sans-Serif" font-size="10.00">&#45;cbmc/diffblue&#45;cbmc/jbmc</text>
<text text-anchor="start" x="1829" y="-285.5" font-family="Helvetica,sans-Serif" font-size="10.00">/src/java_bytecode/java_static</text>
<text text-anchor="middle" x="1903" y="-274.5" font-family="Helvetica,sans-Serif" font-size="10.00">_initializers.cpp</text>
</a>
</g>
</g>
<!-- Node1&#45;&gt;Node29 -->
<g id="edge34" class="edge">
<title>Node1&#45;&gt;Node29</title>
<path fill="none" stroke="midnightblue" d="M1266.19,-372.62C1392.59,-367.1 1617.4,-353.22 1807,-320 1811.59,-319.2 1816.27,-318.28 1820.99,-317.28"/>
<polygon fill="midnightblue" stroke="midnightblue" points="1265.99,-369.12 1256.15,-373.05 1266.29,-376.12 1265.99,-369.12"/>
</g>
<!-- Node30 -->
<g id="node30" class="node">
<title>Node30</title>
<g id="a_node30"><a xlink:href="remove__instanceof_8cpp.html" target="_top" xlink:title="Remove Instance&#45;of Operators.">
<polygon fill="none" stroke="black" points="2003.5,-267.5 2003.5,-319.5 2152.5,-319.5 2152.5,-267.5 2003.5,-267.5"/>
<text text-anchor="start" x="2011.5" y="-307.5" font-family="Helvetica,sans-Serif" font-size="10.00">/home/runner/work/diffblue</text>
<text text-anchor="start" x="2011.5" y="-296.5" font-family="Helvetica,sans-Serif" font-size="10.00">&#45;cbmc/diffblue&#45;cbmc/jbmc</text>
<text text-anchor="start" x="2011.5" y="-285.5" font-family="Helvetica,sans-Serif" font-size="10.00">/src/java_bytecode/remove</text>
<text text-anchor="middle" x="2078" y="-274.5" font-family="Helvetica,sans-Serif" font-size="10.00">_instanceof.cpp</text>
</a>
</g>
</g>
<!-- Node1&#45;&gt;Node30 -->
<g id="edge35" class="edge">
<title>Node1&#45;&gt;Node30</title>
<path fill="none" stroke="midnightblue" d="M1266.3,-376.52C1422.48,-375.71 1734.47,-367.54 1994,-320 1997,-319.45 2000.04,-318.83 2003.1,-318.16"/>
<polygon fill="midnightblue" stroke="midnightblue" points="1266.23,-373.02 1256.24,-376.56 1266.26,-380.02 1266.23,-373.02"/>
</g>
<!-- Node3 -->
<g id="node3" class="node">
<title>Node3</title>
<g id="a_node3"><a xlink:href="uncaught__exceptions__analysis_8cpp.html" target="_top" xlink:title="Over&#45;approximating uncaught exceptions analysis.">
<polygon fill="none" stroke="black" points="0,-178.5 0,-230.5 170,-230.5 170,-178.5 0,-178.5"/>
<text text-anchor="start" x="8" y="-218.5" font-family="Helvetica,sans-Serif" font-size="10.00">/home/runner/work/diffblue</text>
<text text-anchor="start" x="8" y="-207.5" font-family="Helvetica,sans-Serif" font-size="10.00">&#45;cbmc/diffblue&#45;cbmc/src</text>
<text text-anchor="start" x="8" y="-196.5" font-family="Helvetica,sans-Serif" font-size="10.00">/analyses/uncaught_exceptions</text>
<text text-anchor="middle" x="85" y="-185.5" font-family="Helvetica,sans-Serif" font-size="10.00">_analysis.cpp</text>
</a>
</g>
</g>
<!-- Node2&#45;&gt;Node3 -->
<g id="edge2" class="edge">
<title>Node2&#45;&gt;Node3</title>
<path fill="none" stroke="midnightblue" d="M234.22,-263.72C206.71,-252.98 175.71,-240.89 149.13,-230.52"/>
<polygon fill="midnightblue" stroke="midnightblue" points="233.21,-267.08 243.8,-267.45 235.75,-260.56 233.21,-267.08"/>
</g>
<!-- Node4 -->
<g id="node4" class="node">
<title>Node4</title>
<g id="a_node4"><a xlink:href="java__bytecode__convert__method_8cpp.html" target="_top" xlink:title="JAVA Bytecode Language Conversion.">
<polygon fill="none" stroke="black" points="188,-178.5 188,-230.5 370,-230.5 370,-178.5 188,-178.5"/>
<text text-anchor="start" x="196" y="-218.5" font-family="Helvetica,sans-Serif" font-size="10.00">/home/runner/work/diffblue</text>
<text text-anchor="start" x="196" y="-207.5" font-family="Helvetica,sans-Serif" font-size="10.00">&#45;cbmc/diffblue&#45;cbmc/jbmc</text>
<text text-anchor="start" x="196" y="-196.5" font-family="Helvetica,sans-Serif" font-size="10.00">/src/java_bytecode/java_bytecode</text>
<text text-anchor="middle" x="279" y="-185.5" font-family="Helvetica,sans-Serif" font-size="10.00">_convert_method.cpp</text>
</a>
</g>
</g>
<!-- Node2&#45;&gt;Node4 -->
<g id="edge3" class="edge">
<title>Node2&#45;&gt;Node4</title>
<path fill="none" stroke="midnightblue" d="M296.42,-257.77C293.4,-248.69 290.19,-239.08 287.37,-230.61"/>
<polygon fill="midnightblue" stroke="midnightblue" points="293.13,-258.96 299.61,-267.34 299.77,-256.74 293.13,-258.96"/>
</g>
<!-- Node5 -->
<g id="node5" class="node">
<title>Node5</title>
<g id="a_node5"><a xlink:href="remove__exceptions_8cpp.html" target="_top" xlink:title="Remove exception handling.">
<polygon fill="none" stroke="black" points="388.5,-178.5 388.5,-230.5 537.5,-230.5 537.5,-178.5 388.5,-178.5"/>
<text text-anchor="start" x="396.5" y="-218.5" font-family="Helvetica,sans-Serif" font-size="10.00">/home/runner/work/diffblue</text>
<text text-anchor="start" x="396.5" y="-207.5" font-family="Helvetica,sans-Serif" font-size="10.00">&#45;cbmc/diffblue&#45;cbmc/jbmc</text>
<text text-anchor="start" x="396.5" y="-196.5" font-family="Helvetica,sans-Serif" font-size="10.00">/src/java_bytecode/remove</text>
<text text-anchor="middle" x="463" y="-185.5" font-family="Helvetica,sans-Serif" font-size="10.00">_exceptions.cpp</text>
</a>
</g>
</g>
<!-- Node2&#45;&gt;Node5 -->
<g id="edge4" class="edge">
<title>Node2&#45;&gt;Node5</title>
<path fill="none" stroke="midnightblue" d="M361.71,-262.35C380.16,-252 400.61,-240.52 418.27,-230.61"/>
<polygon fill="midnightblue" stroke="midnightblue" points="359.84,-259.39 352.83,-267.34 363.27,-265.49 359.84,-259.39"/>
</g>
<!-- Node8&#45;&gt;Node7 -->
<g id="edge10" class="edge">
<title>Node8&#45;&gt;Node7</title>
<path fill="none" stroke="midnightblue" d="M723.21,-261.22C709.46,-251.16 694.41,-240.16 681.34,-230.61"/>
<polygon fill="midnightblue" stroke="midnightblue" points="721.44,-264.26 731.58,-267.34 725.57,-258.61 721.44,-264.26"/>
</g>
<!-- Node9 -->
<g id="node9" class="node">
<title>Node9</title>
<g id="a_node9"><a xlink:href="goto__instrument__languages_8cpp.html" target="_top" xlink:title="Language Registration.">
<polygon fill="none" stroke="black" points="756,-178.5 756,-230.5 938,-230.5 938,-178.5 756,-178.5"/>
<text text-anchor="start" x="764" y="-218.5" font-family="Helvetica,sans-Serif" font-size="10.00">/home/runner/work/diffblue</text>
<text text-anchor="start" x="764" y="-207.5" font-family="Helvetica,sans-Serif" font-size="10.00">&#45;cbmc/diffblue&#45;cbmc/src</text>
<text text-anchor="start" x="764" y="-196.5" font-family="Helvetica,sans-Serif" font-size="10.00">/goto&#45;instrument/goto_instrument</text>
<text text-anchor="middle" x="847" y="-185.5" font-family="Helvetica,sans-Serif" font-size="10.00">_languages.cpp</text>
</a>
</g>
</g>
<!-- Node8&#45;&gt;Node9 -->
<g id="edge8" class="edge">
<title>Node8&#45;&gt;Node9</title>
<path fill="none" stroke="midnightblue" d="M796.45,-259.79C805.45,-250.13 815.15,-239.71 823.62,-230.61"/>
<polygon fill="midnightblue" stroke="midnightblue" points="793.68,-257.63 789.43,-267.34 798.8,-262.4 793.68,-257.63"/>
</g>
<!-- Node10 -->
<g id="node10" class="node">
<title>Node10</title>
<g id="a_node10"><a xlink:href="goto__instrument__main_8cpp.html" target="_top" xlink:title="Main Module.">
<polygon fill="none" stroke="black" points="956,-178.5 956,-230.5 1138,-230.5 1138,-178.5 956,-178.5"/>
<text text-anchor="start" x="964" y="-218.5" font-family="Helvetica,sans-Serif" font-size="10.00">/home/runner/work/diffblue</text>
<text text-anchor="start" x="964" y="-207.5" font-family="Helvetica,sans-Serif" font-size="10.00">&#45;cbmc/diffblue&#45;cbmc/src</text>
<text text-anchor="start" x="964" y="-196.5" font-family="Helvetica,sans-Serif" font-size="10.00">/goto&#45;instrument/goto_instrument</text>
<text text-anchor="middle" x="1047" y="-185.5" font-family="Helvetica,sans-Serif" font-size="10.00">_main.cpp</text>
</a>
</g>
</g>
<!-- Node8&#45;&gt;Node10 -->
<g id="edge9" class="edge">
<title>Node8&#45;&gt;Node10</title>
<path fill="none" stroke="midnightblue" d="M856.7,-264.42C891.93,-253.51 931.96,-241.12 966.18,-230.52"/>
<polygon fill="midnightblue" stroke="midnightblue" points="855.42,-261.15 846.9,-267.45 857.49,-267.84 855.42,-261.15"/>
</g>
<!-- Node14 -->
<g id="node14" class="node">
<title>Node14</title>
<g id="a_node14"><a xlink:href="ci__lazy__methods_8cpp.html" target="_top" xlink:title=" ">
<polygon fill="none" stroke="black" points="1008.5,-89.5 1008.5,-141.5 1157.5,-141.5 1157.5,-89.5 1008.5,-89.5"/>
<text text-anchor="start" x="1016.5" y="-129.5" font-family="Helvetica,sans-Serif" font-size="10.00">/home/runner/work/diffblue</text>
<text text-anchor="start" x="1016.5" y="-118.5" font-family="Helvetica,sans-Serif" font-size="10.00">&#45;cbmc/diffblue&#45;cbmc/jbmc</text>
<text text-anchor="start" x="1016.5" y="-107.5" font-family="Helvetica,sans-Serif" font-size="10.00">/src/java_bytecode/ci_lazy</text>
<text text-anchor="middle" x="1083" y="-96.5" font-family="Helvetica,sans-Serif" font-size="10.00">_methods.cpp</text>
</a>
</g>
</g>
<!-- Node13&#45;&gt;Node14 -->
<g id="edge14" class="edge">
<title>Node13&#45;&gt;Node14</title>
<path fill="none" stroke="midnightblue" d="M1374.52,-257.25C1367.93,-231.51 1355.13,-197.79 1331,-178 1272.97,-130.4 1238.6,-161.04 1166,-142 1163.23,-141.27 1160.41,-140.51 1157.57,-139.73"/>
<polygon fill="midnightblue" stroke="midnightblue" points="1371.12,-258.09 1376.82,-267.02 1377.93,-256.49 1371.12,-258.09"/>
</g>
<!-- Node15 -->
<g id="node15" class="node">
<title>Node15</title>
<g id="a_node15"><a xlink:href="java__bytecode__convert__class_8cpp.html" target="_top" xlink:title="JAVA Bytecode Language Conversion.">
<polygon fill="none" stroke="black" points="1583,-178.5 1583,-230.5 1765,-230.5 1765,-178.5 1583,-178.5"/>
<text text-anchor="start" x="1591" y="-218.5" font-family="Helvetica,sans-Serif" font-size="10.00">/home/runner/work/diffblue</text>
<text text-anchor="start" x="1591" y="-207.5" font-family="Helvetica,sans-Serif" font-size="10.00">&#45;cbmc/diffblue&#45;cbmc/jbmc</text>
<text text-anchor="start" x="1591" y="-196.5" font-family="Helvetica,sans-Serif" font-size="10.00">/src/java_bytecode/java_bytecode</text>
<text text-anchor="middle" x="1674" y="-185.5" font-family="Helvetica,sans-Serif" font-size="10.00">_convert_class.cpp</text>
</a>
</g>
</g>
<!-- Node13&#45;&gt;Node15 -->
<g id="edge15" class="edge">
<title>Node13&#45;&gt;Node15</title>
<path fill="none" stroke="midnightblue" d="M1465.44,-267.43C1504.44,-255.85 1550.62,-242.13 1589.61,-230.56"/>
<polygon fill="midnightblue" stroke="midnightblue" points="1464.28,-264.12 1455.69,-270.32 1466.28,-270.83 1464.28,-264.12"/>
</g>
<!-- Node13&#45;&gt;Node16 -->
<g id="edge16" class="edge">
<title>Node13&#45;&gt;Node16</title>
<path fill="none" stroke="midnightblue" d="M1353.6,-259.55C1346.16,-250.4 1338.17,-240.39 1331,-231 1313.41,-207.97 1317.93,-192.79 1293,-178 1179.77,-110.85 1128.38,-166.31 999,-142 996.09,-141.45 993.15,-140.87 990.18,-140.26"/>
<polygon fill="midnightblue" stroke="midnightblue" points="1350.93,-261.82 1359.97,-267.34 1356.35,-257.39 1350.93,-261.82"/>
</g>
<!-- Node17 -->
<g id="node17" class="node">
<title>Node17</title>
<g id="a_node17"><a xlink:href="java__bytecode__language_8h.html" target="_top" xlink:title=" ">
<polygon fill="none" stroke="black" points="1383,-178.5 1383,-230.5 1565,-230.5 1565,-178.5 1383,-178.5"/>
<text text-anchor="start" x="1391" y="-218.5" font-family="Helvetica,sans-Serif" font-size="10.00">/home/runner/work/diffblue</text>
<text text-anchor="start" x="1391" y="-207.5" font-family="Helvetica,sans-Serif" font-size="10.00">&#45;cbmc/diffblue&#45;cbmc/jbmc</text>
<text text-anchor="start" x="1391" y="-196.5" font-family="Helvetica,sans-Serif" font-size="10.00">/src/java_bytecode/java_bytecode</text>
<text text-anchor="middle" x="1474" y="-185.5" font-family="Helvetica,sans-Serif" font-size="10.00">_language.h</text>
</a>
</g>
</g>
<!-- Node13&#45;&gt;Node17 -->
<g id="edge17" class="edge">
<title>Node13&#45;&gt;Node17</title>
<path fill="none" stroke="midnightblue" d="M1415.35,-260.36C1425.85,-250.54 1437.24,-239.89 1447.16,-230.61"/>
<polygon fill="midnightblue" stroke="midnightblue" points="1412.81,-257.95 1407.9,-267.34 1417.59,-263.06 1412.81,-257.95"/>
</g>
<!-- Node17&#45;&gt;Node14 -->
<g id="edge22" class="edge">
<title>Node17&#45;&gt;Node14</title>
<path fill="none" stroke="midnightblue" d="M1372.82,-178.81C1371.54,-178.54 1370.27,-178.27 1369,-178 1279.32,-159.18 1255.07,-163.5 1166,-142 1163.22,-141.33 1160.39,-140.62 1157.54,-139.87"/>
<polygon fill="midnightblue" stroke="midnightblue" points="1372.22,-182.26 1382.74,-180.97 1373.71,-175.42 1372.22,-182.26"/>
</g>
<!-- Node17&#45;&gt;Node16 -->
<g id="edge23" class="edge">
<title>Node17&#45;&gt;Node16</title>
<path fill="none" stroke="midnightblue" d="M1372.83,-184.57C1358.8,-182.21 1344.56,-179.94 1331,-178 1184.08,-156.96 1145.05,-168.4 999,-142 996.09,-141.47 993.14,-140.91 990.17,-140.31"/>
<polygon fill="midnightblue" stroke="midnightblue" points="1372.54,-188.07 1382.99,-186.31 1373.72,-181.17 1372.54,-188.07"/>
</g>
<!-- Node18 -->
<g id="node18" class="node">
<title>Node18</title>
<g id="a_node18"><a xlink:href="janalyzer__parse__options_8cpp.html" target="_top" xlink:title="JANALYZER Command Line Option Processing.">
<polygon fill="none" stroke="black" points="1348.5,-0.5 1348.5,-52.5 1497.5,-52.5 1497.5,-0.5 1348.5,-0.5"/>
<text text-anchor="start" x="1356.5" y="-40.5" font-family="Helvetica,sans-Serif" font-size="10.00">/home/runner/work/diffblue</text>
<text text-anchor="start" x="1356.5" y="-29.5" font-family="Helvetica,sans-Serif" font-size="10.00">&#45;cbmc/diffblue&#45;cbmc/jbmc</text>
<text text-anchor="start" x="1356.5" y="-18.5" font-family="Helvetica,sans-Serif" font-size="10.00">/src/janalyzer/janalyzer</text>
<text text-anchor="middle" x="1423" y="-7.5" font-family="Helvetica,sans-Serif" font-size="10.00">_parse_options.cpp</text>
</a>
</g>
</g>
<!-- Node17&#45;&gt;Node18 -->
<g id="edge18" class="edge">
<title>Node17&#45;&gt;Node18</title>
<path fill="none" stroke="midnightblue" d="M1412.45,-172.2C1401.8,-163.89 1392.18,-153.85 1386,-142 1370.84,-112.91 1388.19,-76.44 1403.88,-52.58"/>
<polygon fill="midnightblue" stroke="midnightblue" points="1410.61,-175.19 1420.76,-178.22 1414.72,-169.52 1410.61,-175.19"/>
</g>
<!-- Node19 -->
<g id="node19" class="node">
<title>Node19</title>
<g id="a_node19"><a xlink:href="janalyzer__parse__options_8h.html" target="_top" xlink:title="JANALYZER Command Line Option Processing.">
<polygon fill="none" stroke="black" points="1570.5,-89.5 1570.5,-141.5 1719.5,-141.5 1719.5,-89.5 1570.5,-89.5"/>
<text text-anchor="start" x="1578.5" y="-129.5" font-family="Helvetica,sans-Serif" font-size="10.00">/home/runner/work/diffblue</text>
<text text-anchor="start" x="1578.5" y="-118.5" font-family="Helvetica,sans-Serif" font-size="10.00">&#45;cbmc/diffblue&#45;cbmc/jbmc</text>
<text text-anchor="start" x="1578.5" y="-107.5" font-family="Helvetica,sans-Serif" font-size="10.00">/src/janalyzer/janalyzer</text>
<text text-anchor="middle" x="1645" y="-96.5" font-family="Helvetica,sans-Serif" font-size="10.00">_parse_options.h</text>
</a>
</g>
</g>
<!-- Node17&#45;&gt;Node19 -->
<g id="edge19" class="edge">
<title>Node17&#45;&gt;Node19</title>
<path fill="none" stroke="midnightblue" d="M1532.42,-173.78C1553,-163.31 1575.9,-151.66 1595.65,-141.61"/>
<polygon fill="midnightblue" stroke="midnightblue" points="1530.79,-170.68 1523.46,-178.34 1533.96,-176.92 1530.79,-170.68"/>
</g>
<!-- Node21 -->
<g id="node21" class="node">
<title>Node21</title>
<g id="a_node21"><a xlink:href="java__entry__point_8cpp.html" target="_top" xlink:title=" ">
<polygon fill="none" stroke="black" points="1175.5,-89.5 1175.5,-141.5 1338.5,-141.5 1338.5,-89.5 1175.5,-89.5"/>
<text text-anchor="start" x="1183.5" y="-129.5" font-family="Helvetica,sans-Serif" font-size="10.00">/home/runner/work/diffblue</text>
<text text-anchor="start" x="1183.5" y="-118.5" font-family="Helvetica,sans-Serif" font-size="10.00">&#45;cbmc/diffblue&#45;cbmc/jbmc</text>
<text text-anchor="start" x="1183.5" y="-107.5" font-family="Helvetica,sans-Serif" font-size="10.00">/src/java_bytecode/java_entry</text>
<text text-anchor="middle" x="1257" y="-96.5" font-family="Helvetica,sans-Serif" font-size="10.00">_point.cpp</text>
</a>
</g>
</g>
<!-- Node17&#45;&gt;Node21 -->
<g id="edge24" class="edge">
<title>Node17&#45;&gt;Node21</title>
<path fill="none" stroke="midnightblue" d="M1402.21,-174.72C1375.43,-163.98 1345.27,-151.89 1319.41,-141.52"/>
<polygon fill="midnightblue" stroke="midnightblue" points="1400.94,-177.98 1411.53,-178.45 1403.55,-171.48 1400.94,-177.98"/>
</g>
<!-- Node22 -->
<g id="node22" class="node">
<title>Node22</title>
<g id="a_node22"><a xlink:href="lazy__goto__model_8cpp.html" target="_top" xlink:title="Author: Diffblue Ltd.">
<polygon fill="none" stroke="black" points="1395,-89.5 1395,-141.5 1553,-141.5 1553,-89.5 1395,-89.5"/>
<text text-anchor="start" x="1403" y="-129.5" font-family="Helvetica,sans-Serif" font-size="10.00">/home/runner/work/diffblue</text>
<text text-anchor="start" x="1403" y="-118.5" font-family="Helvetica,sans-Serif" font-size="10.00">&#45;cbmc/diffblue&#45;cbmc/jbmc</text>
<text text-anchor="start" x="1403" y="-107.5" font-family="Helvetica,sans-Serif" font-size="10.00">/src/java_bytecode/lazy_goto</text>
<text text-anchor="middle" x="1474" y="-96.5" font-family="Helvetica,sans-Serif" font-size="10.00">_model.cpp</text>
</a>
</g>
</g>
<!-- Node17&#45;&gt;Node22 -->
<g id="edge25" class="edge">
<title>Node17&#45;&gt;Node22</title>
<path fill="none" stroke="midnightblue" d="M1474,-168.19C1474,-159.28 1474,-149.9 1474,-141.61"/>
<polygon fill="midnightblue" stroke="midnightblue" points="1470.5,-168.34 1474,-178.34 1477.5,-168.34 1470.5,-168.34"/>
</g>
<!-- Node23 -->
<g id="node23" class="node">
<title>Node23</title>
<g id="a_node23"><a xlink:href="jbmc__parse__options_8cpp.html" target="_top" xlink:title="JBMC Command Line Option Processing.">
<polygon fill="none" stroke="black" points="2183,-6 2183,-47 2365,-47 2365,-6 2183,-6"/>
<text text-anchor="start" x="2191" y="-35" font-family="Helvetica,sans-Serif" font-size="10.00">/home/runner/work/diffblue</text>
<text text-anchor="start" x="2191" y="-24" font-family="Helvetica,sans-Serif" font-size="10.00">&#45;cbmc/diffblue&#45;cbmc/jbmc</text>
<text text-anchor="middle" x="2274" y="-13" font-family="Helvetica,sans-Serif" font-size="10.00">/src/jbmc/jbmc_parse_options.cpp</text>
</a>
</g>
</g>
<!-- Node17&#45;&gt;Node23 -->
<g id="edge26" class="edge">
<title>Node17&#45;&gt;Node23</title>
<path fill="none" stroke="midnightblue" d="M1575.32,-178.28C1685.9,-168.27 2200.45,-190.78 2255,-142 2281.44,-118.36 2280.5,-73.11 2277.34,-47.13"/>
<polygon fill="midnightblue" stroke="midnightblue" points="1574.66,-174.84 1565.13,-179.47 1575.47,-181.79 1574.66,-174.84"/>
</g>
<!-- Node17&#45;&gt;Node24 -->
<g id="edge27" class="edge">
<title>Node17&#45;&gt;Node24</title>
<path fill="none" stroke="midnightblue" d="M1575.46,-177.92C1890.04,-131.77 1977.26,-189.36 2288,-142 2298,-140.48 2308.46,-138.37 2318.67,-136.01"/>
<polygon fill="midnightblue" stroke="midnightblue" points="1574.51,-174.53 1565.13,-179.46 1575.54,-181.45 1574.51,-174.53"/>
</g>
<!-- Node26 -->
<g id="node26" class="node">
<title>Node26</title>
<g id="a_node26"><a xlink:href="jdiff__languages_8cpp.html" target="_top" xlink:title="Language Registration.">
<polygon fill="none" stroke="black" points="1737.5,-95 1737.5,-136 1890.5,-136 1890.5,-95 1737.5,-95"/>
<text text-anchor="start" x="1745.5" y="-124" font-family="Helvetica,sans-Serif" font-size="10.00">/home/runner/work/diffblue</text>
<text text-anchor="start" x="1745.5" y="-113" font-family="Helvetica,sans-Serif" font-size="10.00">&#45;cbmc/diffblue&#45;cbmc/jbmc</text>
<text text-anchor="middle" x="1814" y="-102" font-family="Helvetica,sans-Serif" font-size="10.00">/src/jdiff/jdiff_languages.cpp</text>
</a>
</g>
</g>
<!-- Node17&#45;&gt;Node26 -->
<g id="edge30" class="edge">
<title>Node17&#45;&gt;Node26</title>
<path fill="none" stroke="midnightblue" d="M1575.3,-177.71C1643.98,-161.16 1663.11,-159.19 1728,-142 1734.92,-140.17 1742.14,-138.17 1749.31,-136.12"/>
<polygon fill="midnightblue" stroke="midnightblue" points="1574.16,-174.39 1565.27,-180.15 1575.81,-181.19 1574.16,-174.39"/>
</g>
<!-- Node27 -->
<g id="node27" class="node">
<title>Node27</title>
<g id="a_node27"><a xlink:href="jdiff__parse__options_8cpp.html" target="_top" xlink:title="JDIFF Command Line Option Processing.">
<polygon fill="none" stroke="black" points="1908.5,-95 1908.5,-136 2079.5,-136 2079.5,-95 1908.5,-95"/>
<text text-anchor="start" x="1916.5" y="-124" font-family="Helvetica,sans-Serif" font-size="10.00">/home/runner/work/diffblue</text>
<text text-anchor="start" x="1916.5" y="-113" font-family="Helvetica,sans-Serif" font-size="10.00">&#45;cbmc/diffblue&#45;cbmc/jbmc</text>
<text text-anchor="middle" x="1994" y="-102" font-family="Helvetica,sans-Serif" font-size="10.00">/src/jdiff/jdiff_parse_options.cpp</text>
</a>
</g>
</g>
<!-- Node17&#45;&gt;Node27 -->
<g id="edge31" class="edge">
<title>Node17&#45;&gt;Node27</title>
<path fill="none" stroke="midnightblue" d="M1575.23,-177.89C1718.79,-152.72 1759.39,-168.31 1899,-142 1907.89,-140.32 1917.18,-138.25 1926.31,-136.01"/>
<polygon fill="midnightblue" stroke="midnightblue" points="1574.4,-174.49 1565.17,-179.69 1575.63,-181.38 1574.4,-174.49"/>
</g>
<!-- Node28 -->
<g id="node28" class="node">
<title>Node28</title>
<g id="a_node28"><a xlink:href="load__java__class_8cpp.html" target="_top" xlink:title=" ">
<polygon fill="none" stroke="black" points="2097.5,-89.5 2097.5,-141.5 2246.5,-141.5 2246.5,-89.5 2097.5,-89.5"/>
<text text-anchor="start" x="2105.5" y="-129.5" font-family="Helvetica,sans-Serif" font-size="10.00">/home/runner/work/diffblue</text>
<text text-anchor="start" x="2105.5" y="-118.5" font-family="Helvetica,sans-Serif" font-size="10.00">&#45;cbmc/diffblue&#45;cbmc/jbmc</text>
<text text-anchor="start" x="2105.5" y="-107.5" font-family="Helvetica,sans-Serif" font-size="10.00">/unit/java&#45;testing&#45;utils</text>
<text text-anchor="middle" x="2172" y="-96.5" font-family="Helvetica,sans-Serif" font-size="10.00">/load_java_class.cpp</text>
</a>
</g>
</g>
<!-- Node17&#45;&gt;Node28 -->
<g id="edge32" class="edge">
<title>Node17&#45;&gt;Node28</title>
<path fill="none" stroke="midnightblue" d="M1575.02,-177.97C1801.89,-142.73 1865.98,-182.93 2088,-142 2091,-141.45 2094.04,-140.83 2097.1,-140.15"/>
<polygon fill="midnightblue" stroke="midnightblue" points="1574.47,-174.52 1565.14,-179.54 1575.57,-181.43 1574.47,-174.52"/>
</g>
<!-- Node19&#45;&gt;Node18 -->
<g id="edge21" class="edge">
<title>Node19&#45;&gt;Node18</title>
<path fill="none" stroke="midnightblue" d="M1571.55,-85.72C1544.16,-74.98 1513.31,-62.89 1486.85,-52.52"/>
<polygon fill="midnightblue" stroke="midnightblue" points="1570.5,-89.06 1581.09,-89.45 1573.05,-82.55 1570.5,-89.06"/>
</g>
<!-- Node20 -->
<g id="node20" class="node">
<title>Node20</title>
<g id="a_node20"><a xlink:href="janalyzer__main_8cpp.html" target="_top" xlink:title="JANALYZER Main Module.">
<polygon fill="none" stroke="black" points="1570.5,-0.5 1570.5,-52.5 1719.5,-52.5 1719.5,-0.5 1570.5,-0.5"/>
<text text-anchor="start" x="1578.5" y="-40.5" font-family="Helvetica,sans-Serif" font-size="10.00">/home/runner/work/diffblue</text>
<text text-anchor="start" x="1578.5" y="-29.5" font-family="Helvetica,sans-Serif" font-size="10.00">&#45;cbmc/diffblue&#45;cbmc/jbmc</text>
<text text-anchor="start" x="1578.5" y="-18.5" font-family="Helvetica,sans-Serif" font-size="10.00">/src/janalyzer/janalyzer</text>
<text text-anchor="middle" x="1645" y="-7.5" font-family="Helvetica,sans-Serif" font-size="10.00">_main.cpp</text>
</a>
</g>
</g>
<!-- Node19&#45;&gt;Node20 -->
<g id="edge20" class="edge">
<title>Node19&#45;&gt;Node20</title>
<path fill="none" stroke="midnightblue" d="M1645,-79.19C1645,-70.28 1645,-60.9 1645,-52.61"/>
<polygon fill="midnightblue" stroke="midnightblue" points="1641.5,-79.34 1645,-89.34 1648.5,-79.34 1641.5,-79.34"/>
</g>
<!-- Node24&#45;&gt;Node23 -->
<g id="edge29" class="edge">
<title>Node24&#45;&gt;Node23</title>
<path fill="none" stroke="midnightblue" d="M2353.5,-88.71C2336.27,-75.44 2315.61,-59.53 2299.67,-47.26"/>
<polygon fill="midnightblue" stroke="midnightblue" points="2351.58,-91.65 2361.64,-94.98 2355.85,-86.1 2351.58,-91.65"/>
</g>
<!-- Node25 -->
<g id="node25" class="node">
<title>Node25</title>
<g id="a_node25"><a xlink:href="jbmc__main_8cpp.html" target="_top" xlink:title="CBMC Main Module.">
<polygon fill="none" stroke="black" points="2383.5,-6 2383.5,-47 2532.5,-47 2532.5,-6 2383.5,-6"/>
<text text-anchor="start" x="2391.5" y="-35" font-family="Helvetica,sans-Serif" font-size="10.00">/home/runner/work/diffblue</text>
<text text-anchor="start" x="2391.5" y="-24" font-family="Helvetica,sans-Serif" font-size="10.00">&#45;cbmc/diffblue&#45;cbmc/jbmc</text>
<text text-anchor="middle" x="2458" y="-13" font-family="Helvetica,sans-Serif" font-size="10.00">/src/jbmc/jbmc_main.cpp</text>
</a>
</g>
</g>
<!-- Node24&#45;&gt;Node25 -->
<g id="edge28" class="edge">
<title>Node24&#45;&gt;Node25</title>
<path fill="none" stroke="midnightblue" d="M2409.72,-86.67C2420.21,-73.8 2432.43,-58.83 2441.95,-47.16"/>
<polygon fill="midnightblue" stroke="midnightblue" points="2406.72,-84.8 2403.11,-94.76 2412.15,-89.22 2406.72,-84.8"/>
</g>
</g>
</svg>
