<?xml version="1.0" encoding="UTF-8" standalone="no"?>
<!DOCTYPE svg PUBLIC "-//W3C//DTD SVG 1.1//EN"
 "http://www.w3.org/Graphics/SVG/1.1/DTD/svg11.dtd">
<!-- Generated by graphviz version 2.43.0 (0)
 -->
<!-- Title: /home/runner/work/diffblue&#45;cbmc/diffblue&#45;cbmc/src/goto&#45;programs/class_identifier.h Pages: 1 -->
<svg width="1633pt" height="139pt"
 viewBox="0.00 0.00 1632.50 139.00" xmlns="http://www.w3.org/2000/svg" xmlns:xlink="http://www.w3.org/1999/xlink">
<g id="graph0" class="graph" transform="scale(1 1) rotate(0) translate(4 135)">
<title>/home/runner/work/diffblue&#45;cbmc/diffblue&#45;cbmc/src/goto&#45;programs/class_identifier.h</title>
<!-- Node1 -->
<g id="node1" class="node">
<title>Node1</title>
<g id="a_node1"><a xlink:title="Extract class identifier.">
<polygon fill="#bfbfbf" stroke="black" points="761,-89.5 761,-130.5 937,-130.5 937,-89.5 761,-89.5"/>
<text text-anchor="start" x="769" y="-118.5" font-family="Helvetica,sans-Serif" font-size="10.00">/home/runner/work/diffblue</text>
<text text-anchor="start" x="769" y="-107.5" font-family="Helvetica,sans-Serif" font-size="10.00">&#45;cbmc/diffblue&#45;cbmc/src</text>
<text text-anchor="middle" x="849" y="-96.5" font-family="Helvetica,sans-Serif" font-size="10.00">/goto&#45;programs/class_identifier.h</text>
</a>
</g>
</g>
<!-- Node2 -->
<g id="node2" class="node">
<title>Node2</title>
<g id="a_node2"><a xlink:href="class__identifier_8cpp.html" target="_top" xlink:title="Extract class identifier.">
<polygon fill="none" stroke="black" points="0,-6 0,-47 188,-47 188,-6 0,-6"/>
<text text-anchor="start" x="8" y="-35" font-family="Helvetica,sans-Serif" font-size="10.00">/home/runner/work/diffblue</text>
<text text-anchor="start" x="8" y="-24" font-family="Helvetica,sans-Serif" font-size="10.00">&#45;cbmc/diffblue&#45;cbmc/src</text>
<text text-anchor="middle" x="94" y="-13" font-family="Helvetica,sans-Serif" font-size="10.00">/goto&#45;programs/class_identifier.cpp</text>
</a>
</g>
</g>
<!-- Node1&#45;&gt;Node2 -->
<g id="edge1" class="edge">
<title>Node1&#45;&gt;Node2</title>
<path fill="none" stroke="midnightblue" d="M750.74,-105.37C622.6,-99.54 391.79,-85.27 197,-53 187.19,-51.37 176.93,-49.3 166.85,-47.04"/>
<polygon fill="midnightblue" stroke="midnightblue" points="750.78,-108.87 760.92,-105.82 751.09,-101.88 750.78,-108.87"/>
</g>
<!-- Node3 -->
<g id="node3" class="node">
<title>Node3</title>
<g id="a_node3"><a xlink:href="remove__virtual__functions_8cpp.html" target="_top" xlink:title="Remove Virtual Function (Method) Calls.">
<polygon fill="none" stroke="black" points="206.5,-0.5 206.5,-52.5 375.5,-52.5 375.5,-0.5 206.5,-0.5"/>
<text text-anchor="start" x="214.5" y="-40.5" font-family="Helvetica,sans-Serif" font-size="10.00">/home/runner/work/diffblue</text>
<text text-anchor="start" x="214.5" y="-29.5" font-family="Helvetica,sans-Serif" font-size="10.00">&#45;cbmc/diffblue&#45;cbmc/src</text>
<text text-anchor="start" x="214.5" y="-18.5" font-family="Helvetica,sans-Serif" font-size="10.00">/goto&#45;programs/remove_virtual</text>
<text text-anchor="middle" x="291" y="-7.5" font-family="Helvetica,sans-Serif" font-size="10.00">_functions.cpp</text>
</a>
</g>
</g>
<!-- Node1&#45;&gt;Node3 -->
<g id="edge2" class="edge">
<title>Node1&#45;&gt;Node3</title>
<path fill="none" stroke="midnightblue" d="M750.85,-101.42C656.29,-93.12 509.49,-77.62 384,-53 381.21,-52.45 378.38,-51.86 375.52,-51.24"/>
<polygon fill="midnightblue" stroke="midnightblue" points="750.71,-104.92 760.98,-102.3 751.32,-97.95 750.71,-104.92"/>
</g>
<!-- Node4 -->
<g id="node4" class="node">
<title>Node4</title>
<g id="a_node4"><a xlink:href="assignments__from__json_8cpp.html" target="_top" xlink:title=" ">
<polygon fill="none" stroke="black" points="393.5,-0.5 393.5,-52.5 566.5,-52.5 566.5,-0.5 393.5,-0.5"/>
<text text-anchor="start" x="401.5" y="-40.5" font-family="Helvetica,sans-Serif" font-size="10.00">/home/runner/work/diffblue</text>
<text text-anchor="start" x="401.5" y="-29.5" font-family="Helvetica,sans-Serif" font-size="10.00">&#45;cbmc/diffblue&#45;cbmc/jbmc</text>
<text text-anchor="start" x="401.5" y="-18.5" font-family="Helvetica,sans-Serif" font-size="10.00">/src/java_bytecode/assignments</text>
<text text-anchor="middle" x="480" y="-7.5" font-family="Helvetica,sans-Serif" font-size="10.00">_from_json.cpp</text>
</a>
</g>
</g>
<!-- Node1&#45;&gt;Node4 -->
<g id="edge3" class="edge">
<title>Node1&#45;&gt;Node4</title>
<path fill="none" stroke="midnightblue" d="M750.83,-90.43C698.47,-80.15 633.04,-66.71 575,-53 572.26,-52.35 569.47,-51.68 566.67,-51"/>
<polygon fill="midnightblue" stroke="midnightblue" points="750.3,-93.9 760.78,-92.38 751.64,-87.03 750.3,-93.9"/>
</g>
<!-- Node5 -->
<g id="node5" class="node">
<title>Node5</title>
<g id="a_node5"><a xlink:href="java__entry__point_8cpp.html" target="_top" xlink:title=" ">
<polygon fill="none" stroke="black" points="584.5,-0.5 584.5,-52.5 747.5,-52.5 747.5,-0.5 584.5,-0.5"/>
<text text-anchor="start" x="592.5" y="-40.5" font-family="Helvetica,sans-Serif" font-size="10.00">/home/runner/work/diffblue</text>
<text text-anchor="start" x="592.5" y="-29.5" font-family="Helvetica,sans-Serif" font-size="10.00">&#45;cbmc/diffblue&#45;cbmc/jbmc</text>
<text text-anchor="start" x="592.5" y="-18.5" font-family="Helvetica,sans-Serif" font-size="10.00">/src/java_bytecode/java_entry</text>
<text text-anchor="middle" x="666" y="-7.5" font-family="Helvetica,sans-Serif" font-size="10.00">_point.cpp</text>
</a>
</g>
</g>
<!-- Node1&#45;&gt;Node5 -->
<g id="edge4" class="edge">
<title>Node1&#45;&gt;Node5</title>
<path fill="none" stroke="midnightblue" d="M795.87,-85.34C772.79,-75.06 745.73,-63.01 722.31,-52.58"/>
<polygon fill="midnightblue" stroke="midnightblue" points="794.61,-88.61 805.17,-89.48 797.46,-82.21 794.61,-88.61"/>
</g>
<!-- Node6 -->
<g id="node6" class="node">
<title>Node6</title>
<g id="a_node6"><a xlink:href="java__object__factory_8cpp.html" target="_top" xlink:title=" ">
<polygon fill="none" stroke="black" points="765.5,-0.5 765.5,-52.5 932.5,-52.5 932.5,-0.5 765.5,-0.5"/>
<text text-anchor="start" x="773.5" y="-40.5" font-family="Helvetica,sans-Serif" font-size="10.00">/home/runner/work/diffblue</text>
<text text-anchor="start" x="773.5" y="-29.5" font-family="Helvetica,sans-Serif" font-size="10.00">&#45;cbmc/diffblue&#45;cbmc/jbmc</text>
<text text-anchor="start" x="773.5" y="-18.5" font-family="Helvetica,sans-Serif" font-size="10.00">/src/java_bytecode/java_object</text>
<text text-anchor="middle" x="849" y="-7.5" font-family="Helvetica,sans-Serif" font-size="10.00">_factory.cpp</text>
</a>
</g>
</g>
<!-- Node1&#45;&gt;Node6 -->
<g id="edge5" class="edge">
<title>Node1&#45;&gt;Node6</title>
<path fill="none" stroke="midnightblue" d="M849,-79.12C849,-70.41 849,-60.99 849,-52.61"/>
<polygon fill="midnightblue" stroke="midnightblue" points="845.5,-79.27 849,-89.27 852.5,-79.27 845.5,-79.27"/>
</g>
<!-- Node7 -->
<g id="node7" class="node">
<title>Node7</title>
<g id="a_node7"><a xlink:href="java__root__class_8cpp.html" target="_top" xlink:title=" ">
<polygon fill="none" stroke="black" points="950.5,-0.5 950.5,-52.5 1107.5,-52.5 1107.5,-0.5 950.5,-0.5"/>
<text text-anchor="start" x="958.5" y="-40.5" font-family="Helvetica,sans-Serif" font-size="10.00">/home/runner/work/diffblue</text>
<text text-anchor="start" x="958.5" y="-29.5" font-family="Helvetica,sans-Serif" font-size="10.00">&#45;cbmc/diffblue&#45;cbmc/jbmc</text>
<text text-anchor="start" x="958.5" y="-18.5" font-family="Helvetica,sans-Serif" font-size="10.00">/src/java_bytecode/java_root</text>
<text text-anchor="middle" x="1029" y="-7.5" font-family="Helvetica,sans-Serif" font-size="10.00">_class.cpp</text>
</a>
</g>
</g>
<!-- Node1&#45;&gt;Node7 -->
<g id="edge6" class="edge">
<title>Node1&#45;&gt;Node7</title>
<path fill="none" stroke="midnightblue" d="M901.26,-85.34C923.96,-75.06 950.57,-63.01 973.62,-52.58"/>
<polygon fill="midnightblue" stroke="midnightblue" points="899.78,-82.17 892.11,-89.48 902.67,-88.54 899.78,-82.17"/>
</g>
<!-- Node8 -->
<g id="node8" class="node">
<title>Node8</title>
<g id="a_node8"><a xlink:href="java__string__library__preprocess_8cpp.html" target="_top" xlink:title="Java_string_libraries_preprocess, gives code for methods on strings of the java standard library.">
<polygon fill="none" stroke="black" points="1125.5,-0.5 1125.5,-52.5 1290.5,-52.5 1290.5,-0.5 1125.5,-0.5"/>
<text text-anchor="start" x="1133.5" y="-40.5" font-family="Helvetica,sans-Serif" font-size="10.00">/home/runner/work/diffblue</text>
<text text-anchor="start" x="1133.5" y="-29.5" font-family="Helvetica,sans-Serif" font-size="10.00">&#45;cbmc/diffblue&#45;cbmc/jbmc</text>
<text text-anchor="start" x="1133.5" y="-18.5" font-family="Helvetica,sans-Serif" font-size="10.00">/src/java_bytecode/java_string</text>
<text text-anchor="middle" x="1208" y="-7.5" font-family="Helvetica,sans-Serif" font-size="10.00">_library_preprocess.cpp</text>
</a>
</g>
</g>
<!-- Node1&#45;&gt;Node8 -->
<g id="edge7" class="edge">
<title>Node1&#45;&gt;Node8</title>
<path fill="none" stroke="midnightblue" d="M947.15,-90.14C998.02,-79.94 1061.05,-66.67 1117,-53 1119.71,-52.34 1122.46,-51.65 1125.24,-50.95"/>
<polygon fill="midnightblue" stroke="midnightblue" points="946.27,-86.74 937.15,-92.13 947.64,-93.61 946.27,-86.74"/>
</g>
<!-- Node9 -->
<g id="node9" class="node">
<title>Node9</title>
<g id="a_node9"><a xlink:href="remove__instanceof_8cpp.html" target="_top" xlink:title="Remove Instance&#45;of Operators.">
<polygon fill="none" stroke="black" points="1308.5,-0.5 1308.5,-52.5 1457.5,-52.5 1457.5,-0.5 1308.5,-0.5"/>
<text text-anchor="start" x="1316.5" y="-40.5" font-family="Helvetica,sans-Serif" font-size="10.00">/home/runner/work/diffblue</text>
<text text-anchor="start" x="1316.5" y="-29.5" font-family="Helvetica,sans-Serif" font-size="10.00">&#45;cbmc/diffblue&#45;cbmc/jbmc</text>
<text text-anchor="start" x="1316.5" y="-18.5" font-family="Helvetica,sans-Serif" font-size="10.00">/src/java_bytecode/remove</text>
<text text-anchor="middle" x="1383" y="-7.5" font-family="Helvetica,sans-Serif" font-size="10.00">_instanceof.cpp</text>
</a>
</g>
</g>
<!-- Node1&#45;&gt;Node9 -->
<g id="edge8" class="edge">
<title>Node1&#45;&gt;Node9</title>
<path fill="none" stroke="midnightblue" d="M947.19,-101.78C1039.1,-93.85 1179.9,-78.7 1300,-53 1302.65,-52.43 1305.34,-51.82 1308.05,-51.17"/>
<polygon fill="midnightblue" stroke="midnightblue" points="946.73,-98.31 937.06,-102.64 947.32,-105.28 946.73,-98.31"/>
</g>
<!-- Node10 -->
<g id="node10" class="node">
<title>Node10</title>
<g id="a_node10"><a xlink:href="remove__java__new_8cpp.html" target="_top" xlink:title="Remove Java New Operators.">
<polygon fill="none" stroke="black" points="1475.5,-0.5 1475.5,-52.5 1624.5,-52.5 1624.5,-0.5 1475.5,-0.5"/>
<text text-anchor="start" x="1483.5" y="-40.5" font-family="Helvetica,sans-Serif" font-size="10.00">/home/runner/work/diffblue</text>
<text text-anchor="start" x="1483.5" y="-29.5" font-family="Helvetica,sans-Serif" font-size="10.00">&#45;cbmc/diffblue&#45;cbmc/jbmc</text>
<text text-anchor="start" x="1483.5" y="-18.5" font-family="Helvetica,sans-Serif" font-size="10.00">/src/java_bytecode/remove</text>
<text text-anchor="middle" x="1550" y="-7.5" font-family="Helvetica,sans-Serif" font-size="10.00">_java_new.cpp</text>
</a>
</g>
</g>
<!-- Node1&#45;&gt;Node10 -->
<g id="edge9" class="edge">
<title>Node1&#45;&gt;Node10</title>
<path fill="none" stroke="midnightblue" d="M947.18,-106.38C1069.84,-101.68 1285.66,-88.67 1467,-53 1469.66,-52.48 1472.36,-51.9 1475.08,-51.28"/>
<polygon fill="midnightblue" stroke="midnightblue" points="946.92,-102.89 937.06,-106.76 947.18,-109.89 946.92,-102.89"/>
</g>
</g>
</svg>
