<?xml version="1.0" encoding="UTF-8" standalone="no"?>
<!DOCTYPE svg PUBLIC "-//W3C//DTD SVG 1.1//EN"
 "http://www.w3.org/Graphics/SVG/1.1/DTD/svg11.dtd">
<!-- Generated by graphviz version 2.43.0 (0)
 -->
<!-- Title: /home/runner/work/diffblue&#45;cbmc/diffblue&#45;cbmc/src/solvers/sat/cnf_clause_list.h Pages: 1 -->
<svg width="1772pt" height="529pt"
 viewBox="0.00 0.00 1772.00 529.00" xmlns="http://www.w3.org/2000/svg" xmlns:xlink="http://www.w3.org/1999/xlink">
<g id="graph0" class="graph" transform="scale(1 1) rotate(0) translate(4 525)">
<title>/home/runner/work/diffblue&#45;cbmc/diffblue&#45;cbmc/src/solvers/sat/cnf_clause_list.h</title>
<!-- Node1 -->
<g id="node1" class="node">
<title>Node1</title>
<g id="a_node1"><a xlink:title="CNF Generation.">
<polygon fill="#bfbfbf" stroke="black" points="595,-479.5 595,-520.5 752,-520.5 752,-479.5 595,-479.5"/>
<text text-anchor="start" x="603" y="-508.5" font-family="Helvetica,sans-Serif" font-size="10.00">/home/runner/work/diffblue</text>
<text text-anchor="start" x="603" y="-497.5" font-family="Helvetica,sans-Serif" font-size="10.00">&#45;cbmc/diffblue&#45;cbmc/src</text>
<text text-anchor="middle" x="673.5" y="-486.5" font-family="Helvetica,sans-Serif" font-size="10.00">/solvers/sat/cnf_clause_list.h</text>
</a>
</g>
</g>
<!-- Node2 -->
<g id="node2" class="node">
<title>Node2</title>
<g id="a_node2"><a xlink:href="cnf__clause__list_8cpp.html" target="_top" xlink:title="CNF Generation.">
<polygon fill="none" stroke="black" points="325.5,-401.5 325.5,-442.5 493.5,-442.5 493.5,-401.5 325.5,-401.5"/>
<text text-anchor="start" x="333.5" y="-430.5" font-family="Helvetica,sans-Serif" font-size="10.00">/home/runner/work/diffblue</text>
<text text-anchor="start" x="333.5" y="-419.5" font-family="Helvetica,sans-Serif" font-size="10.00">&#45;cbmc/diffblue&#45;cbmc/src</text>
<text text-anchor="middle" x="409.5" y="-408.5" font-family="Helvetica,sans-Serif" font-size="10.00">/solvers/sat/cnf_clause_list.cpp</text>
</a>
</g>
</g>
<!-- Node1&#45;&gt;Node2 -->
<g id="edge1" class="edge">
<title>Node1&#45;&gt;Node2</title>
<path fill="none" stroke="midnightblue" d="M595.62,-476.58C558.05,-465.76 513.4,-452.91 477.26,-442.51"/>
<polygon fill="midnightblue" stroke="midnightblue" points="594.94,-480.03 605.51,-479.43 596.87,-473.3 594.94,-480.03"/>
</g>
<!-- Node3 -->
<g id="node3" class="node">
<title>Node3</title>
<g id="a_node3"><a xlink:href="dimacs__cnf_8h.html" target="_top" xlink:title=" ">
<polygon fill="none" stroke="black" points="730,-401.5 730,-442.5 879,-442.5 879,-401.5 730,-401.5"/>
<text text-anchor="start" x="738" y="-430.5" font-family="Helvetica,sans-Serif" font-size="10.00">/home/runner/work/diffblue</text>
<text text-anchor="start" x="738" y="-419.5" font-family="Helvetica,sans-Serif" font-size="10.00">&#45;cbmc/diffblue&#45;cbmc/src</text>
<text text-anchor="middle" x="804.5" y="-408.5" font-family="Helvetica,sans-Serif" font-size="10.00">/solvers/sat/dimacs_cnf.h</text>
</a>
</g>
</g>
<!-- Node1&#45;&gt;Node3 -->
<g id="edge2" class="edge">
<title>Node1&#45;&gt;Node3</title>
<path fill="none" stroke="midnightblue" d="M716.24,-474.2C733.97,-463.92 754.24,-452.16 770.88,-442.51"/>
<polygon fill="midnightblue" stroke="midnightblue" points="714.13,-471.38 707.24,-479.43 717.64,-477.44 714.13,-471.38"/>
</g>
<!-- Node32 -->
<g id="node32" class="node">
<title>Node32</title>
<g id="a_node32"><a xlink:href="external__sat_8h.html" target="_top" xlink:title="Allows calling an external SAT solver to allow faster integration of newer SAT solvers.">
<polygon fill="none" stroke="black" points="511,-401.5 511,-442.5 660,-442.5 660,-401.5 511,-401.5"/>
<text text-anchor="start" x="519" y="-430.5" font-family="Helvetica,sans-Serif" font-size="10.00">/home/runner/work/diffblue</text>
<text text-anchor="start" x="519" y="-419.5" font-family="Helvetica,sans-Serif" font-size="10.00">&#45;cbmc/diffblue&#45;cbmc/src</text>
<text text-anchor="middle" x="585.5" y="-408.5" font-family="Helvetica,sans-Serif" font-size="10.00">/solvers/sat/external_sat.h</text>
</a>
</g>
</g>
<!-- Node1&#45;&gt;Node32 -->
<g id="edge31" class="edge">
<title>Node1&#45;&gt;Node32</title>
<path fill="none" stroke="midnightblue" d="M643.14,-472.78C631.63,-462.84 618.75,-451.72 608.09,-442.51"/>
<polygon fill="midnightblue" stroke="midnightblue" points="640.98,-475.54 650.84,-479.43 645.56,-470.24 640.98,-475.54"/>
</g>
<!-- Node33 -->
<g id="node33" class="node">
<title>Node33</title>
<g id="a_node33"><a xlink:href="satcheck__zchaff_8h.html" target="_top" xlink:title=" ">
<polygon fill="none" stroke="black" points="1260,-401.5 1260,-442.5 1423,-442.5 1423,-401.5 1260,-401.5"/>
<text text-anchor="start" x="1268" y="-430.5" font-family="Helvetica,sans-Serif" font-size="10.00">/home/runner/work/diffblue</text>
<text text-anchor="start" x="1268" y="-419.5" font-family="Helvetica,sans-Serif" font-size="10.00">&#45;cbmc/diffblue&#45;cbmc/src</text>
<text text-anchor="middle" x="1341.5" y="-408.5" font-family="Helvetica,sans-Serif" font-size="10.00">/solvers/sat/satcheck_zchaff.h</text>
</a>
</g>
</g>
<!-- Node1&#45;&gt;Node33 -->
<g id="edge34" class="edge">
<title>Node1&#45;&gt;Node33</title>
<path fill="none" stroke="midnightblue" d="M762.04,-488.93C892.27,-474.11 1133.63,-446.65 1259.82,-432.29"/>
<polygon fill="midnightblue" stroke="midnightblue" points="761.63,-485.45 752.09,-490.06 762.42,-492.41 761.63,-485.45"/>
</g>
<!-- Node4 -->
<g id="node4" class="node">
<title>Node4</title>
<g id="a_node4"><a xlink:href="solver__factory_8cpp.html" target="_top" xlink:title="Solver Factory.">
<polygon fill="none" stroke="black" points="262.5,-323.5 262.5,-364.5 436.5,-364.5 436.5,-323.5 262.5,-323.5"/>
<text text-anchor="start" x="270.5" y="-352.5" font-family="Helvetica,sans-Serif" font-size="10.00">/home/runner/work/diffblue</text>
<text text-anchor="start" x="270.5" y="-341.5" font-family="Helvetica,sans-Serif" font-size="10.00">&#45;cbmc/diffblue&#45;cbmc/src</text>
<text text-anchor="middle" x="349.5" y="-330.5" font-family="Helvetica,sans-Serif" font-size="10.00">/goto&#45;checker/solver_factory.cpp</text>
</a>
</g>
</g>
<!-- Node3&#45;&gt;Node4 -->
<g id="edge3" class="edge">
<title>Node3&#45;&gt;Node4</title>
<path fill="none" stroke="midnightblue" d="M719.9,-408.31C630.86,-394.86 496.67,-374.31 445.5,-365 442.57,-364.47 439.59,-363.91 436.58,-363.34"/>
<polygon fill="midnightblue" stroke="midnightblue" points="719.58,-411.8 729.99,-409.83 720.62,-404.88 719.58,-411.8"/>
</g>
<!-- Node5 -->
<g id="node5" class="node">
<title>Node5</title>
<g id="a_node5"><a xlink:href="bv__dimacs_8cpp.html" target="_top" xlink:title="Writing DIMACS Files.">
<polygon fill="none" stroke="black" points="808.5,-323.5 808.5,-364.5 988.5,-364.5 988.5,-323.5 808.5,-323.5"/>
<text text-anchor="start" x="816.5" y="-352.5" font-family="Helvetica,sans-Serif" font-size="10.00">/home/runner/work/diffblue</text>
<text text-anchor="start" x="816.5" y="-341.5" font-family="Helvetica,sans-Serif" font-size="10.00">&#45;cbmc/diffblue&#45;cbmc/src</text>
<text text-anchor="middle" x="898.5" y="-330.5" font-family="Helvetica,sans-Serif" font-size="10.00">/solvers/flattening/bv_dimacs.cpp</text>
</a>
</g>
</g>
<!-- Node3&#45;&gt;Node5 -->
<g id="edge4" class="edge">
<title>Node3&#45;&gt;Node5</title>
<path fill="none" stroke="midnightblue" d="M836.58,-395.06C848.96,-385.06 862.87,-373.8 874.37,-364.51"/>
<polygon fill="midnightblue" stroke="midnightblue" points="834.28,-392.42 828.71,-401.43 838.68,-397.86 834.28,-392.42"/>
</g>
<!-- Node6 -->
<g id="node6" class="node">
<title>Node6</title>
<g id="a_node6"><a xlink:href="qdimacs__cnf_8h.html" target="_top" xlink:title=" ">
<polygon fill="none" stroke="black" points="1007,-323.5 1007,-364.5 1156,-364.5 1156,-323.5 1007,-323.5"/>
<text text-anchor="start" x="1015" y="-352.5" font-family="Helvetica,sans-Serif" font-size="10.00">/home/runner/work/diffblue</text>
<text text-anchor="start" x="1015" y="-341.5" font-family="Helvetica,sans-Serif" font-size="10.00">&#45;cbmc/diffblue&#45;cbmc/src</text>
<text text-anchor="middle" x="1081.5" y="-330.5" font-family="Helvetica,sans-Serif" font-size="10.00">/solvers/qbf/qdimacs_cnf.h</text>
</a>
</g>
</g>
<!-- Node3&#45;&gt;Node6 -->
<g id="edge5" class="edge">
<title>Node3&#45;&gt;Node6</title>
<path fill="none" stroke="midnightblue" d="M885.71,-398.72C925.24,-387.87 972.32,-374.96 1010.41,-364.51"/>
<polygon fill="midnightblue" stroke="midnightblue" points="884.55,-395.41 875.83,-401.43 886.4,-402.16 884.55,-395.41"/>
</g>
<!-- Node26 -->
<g id="node26" class="node">
<title>Node26</title>
<g id="a_node26"><a xlink:href="dimacs__cnf_8cpp.html" target="_top" xlink:title=" ">
<polygon fill="none" stroke="black" points="1174,-323.5 1174,-364.5 1325,-364.5 1325,-323.5 1174,-323.5"/>
<text text-anchor="start" x="1182" y="-352.5" font-family="Helvetica,sans-Serif" font-size="10.00">/home/runner/work/diffblue</text>
<text text-anchor="start" x="1182" y="-341.5" font-family="Helvetica,sans-Serif" font-size="10.00">&#45;cbmc/diffblue&#45;cbmc/src</text>
<text text-anchor="middle" x="1249.5" y="-330.5" font-family="Helvetica,sans-Serif" font-size="10.00">/solvers/sat/dimacs_cnf.cpp</text>
</a>
</g>
</g>
<!-- Node3&#45;&gt;Node26 -->
<g id="edge25" class="edge">
<title>Node3&#45;&gt;Node26</title>
<path fill="none" stroke="midnightblue" d="M889.24,-409.8C962.61,-399.64 1071.44,-383.46 1165.5,-365 1168.15,-364.48 1170.84,-363.93 1173.55,-363.37"/>
<polygon fill="midnightblue" stroke="midnightblue" points="888.56,-406.36 879.13,-411.2 889.51,-413.3 888.56,-406.36"/>
</g>
<!-- Node27 -->
<g id="node27" class="node">
<title>Node27</title>
<g id="a_node27"><a xlink:href="external__sat_8cpp.html" target="_top" xlink:title="Allows call an external SAT solver to allow faster integration of newer SAT solvers.">
<polygon fill="none" stroke="black" points="455,-323.5 455,-364.5 612,-364.5 612,-323.5 455,-323.5"/>
<text text-anchor="start" x="463" y="-352.5" font-family="Helvetica,sans-Serif" font-size="10.00">/home/runner/work/diffblue</text>
<text text-anchor="start" x="463" y="-341.5" font-family="Helvetica,sans-Serif" font-size="10.00">&#45;cbmc/diffblue&#45;cbmc/src</text>
<text text-anchor="middle" x="533.5" y="-330.5" font-family="Helvetica,sans-Serif" font-size="10.00">/solvers/sat/external_sat.cpp</text>
</a>
</g>
</g>
<!-- Node3&#45;&gt;Node27 -->
<g id="edge26" class="edge">
<title>Node3&#45;&gt;Node27</title>
<path fill="none" stroke="midnightblue" d="M725.05,-398.72C686.38,-387.87 640.32,-374.96 603.05,-364.51"/>
<polygon fill="midnightblue" stroke="midnightblue" points="724.14,-402.1 734.71,-401.43 726.03,-395.36 724.14,-402.1"/>
</g>
<!-- Node28 -->
<g id="node28" class="node">
<title>Node28</title>
<g id="a_node28"><a xlink:href="pbs__dimacs__cnf_8h.html" target="_top" xlink:title=" ">
<polygon fill="none" stroke="black" points="1343.5,-323.5 1343.5,-364.5 1505.5,-364.5 1505.5,-323.5 1343.5,-323.5"/>
<text text-anchor="start" x="1351.5" y="-352.5" font-family="Helvetica,sans-Serif" font-size="10.00">/home/runner/work/diffblue</text>
<text text-anchor="start" x="1351.5" y="-341.5" font-family="Helvetica,sans-Serif" font-size="10.00">&#45;cbmc/diffblue&#45;cbmc/src</text>
<text text-anchor="middle" x="1424.5" y="-330.5" font-family="Helvetica,sans-Serif" font-size="10.00">/solvers/sat/pbs_dimacs_cnf.h</text>
</a>
</g>
</g>
<!-- Node3&#45;&gt;Node28 -->
<g id="edge27" class="edge">
<title>Node3&#45;&gt;Node28</title>
<path fill="none" stroke="midnightblue" d="M889.25,-415.02C994.21,-406.94 1178.3,-390.52 1334.5,-365 1337.34,-364.54 1340.23,-364.04 1343.15,-363.51"/>
<polygon fill="midnightblue" stroke="midnightblue" points="888.73,-411.55 879.03,-415.8 889.26,-418.53 888.73,-411.55"/>
</g>
<!-- Node30 -->
<g id="node30" class="node">
<title>Node30</title>
<g id="a_node30"><a xlink:href="satcheck__zcore_8h.html" target="_top" xlink:title=" ">
<polygon fill="none" stroke="black" points="630.5,-323.5 630.5,-364.5 790.5,-364.5 790.5,-323.5 630.5,-323.5"/>
<text text-anchor="start" x="638.5" y="-352.5" font-family="Helvetica,sans-Serif" font-size="10.00">/home/runner/work/diffblue</text>
<text text-anchor="start" x="638.5" y="-341.5" font-family="Helvetica,sans-Serif" font-size="10.00">&#45;cbmc/diffblue&#45;cbmc/src</text>
<text text-anchor="middle" x="710.5" y="-330.5" font-family="Helvetica,sans-Serif" font-size="10.00">/solvers/sat/satcheck_zcore.h</text>
</a>
</g>
</g>
<!-- Node3&#45;&gt;Node30 -->
<g id="edge29" class="edge">
<title>Node3&#45;&gt;Node30</title>
<path fill="none" stroke="midnightblue" d="M772.42,-395.06C760.04,-385.06 746.13,-373.8 734.63,-364.51"/>
<polygon fill="midnightblue" stroke="midnightblue" points="770.32,-397.86 780.29,-401.43 774.72,-392.42 770.32,-397.86"/>
</g>
<!-- Node7 -->
<g id="node7" class="node">
<title>Node7</title>
<g id="a_node7"><a xlink:href="qbf__quantor_8h.html" target="_top" xlink:title=" ">
<polygon fill="none" stroke="black" points="923,-245.5 923,-286.5 1072,-286.5 1072,-245.5 923,-245.5"/>
<text text-anchor="start" x="931" y="-274.5" font-family="Helvetica,sans-Serif" font-size="10.00">/home/runner/work/diffblue</text>
<text text-anchor="start" x="931" y="-263.5" font-family="Helvetica,sans-Serif" font-size="10.00">&#45;cbmc/diffblue&#45;cbmc/src</text>
<text text-anchor="middle" x="997.5" y="-252.5" font-family="Helvetica,sans-Serif" font-size="10.00">/solvers/qbf/qbf_quantor.h</text>
</a>
</g>
</g>
<!-- Node6&#45;&gt;Node7 -->
<g id="edge6" class="edge">
<title>Node6&#45;&gt;Node7</title>
<path fill="none" stroke="midnightblue" d="M1052.2,-316.49C1041.3,-306.63 1029.14,-295.63 1019.06,-286.51"/>
<polygon fill="midnightblue" stroke="midnightblue" points="1050.1,-319.31 1059.87,-323.43 1054.8,-314.12 1050.1,-319.31"/>
</g>
<!-- Node9 -->
<g id="node9" class="node">
<title>Node9</title>
<g id="a_node9"><a xlink:href="qbf__qube_8h.html" target="_top" xlink:title=" ">
<polygon fill="none" stroke="black" points="1090,-245.5 1090,-286.5 1239,-286.5 1239,-245.5 1090,-245.5"/>
<text text-anchor="start" x="1098" y="-274.5" font-family="Helvetica,sans-Serif" font-size="10.00">/home/runner/work/diffblue</text>
<text text-anchor="start" x="1098" y="-263.5" font-family="Helvetica,sans-Serif" font-size="10.00">&#45;cbmc/diffblue&#45;cbmc/src</text>
<text text-anchor="middle" x="1164.5" y="-252.5" font-family="Helvetica,sans-Serif" font-size="10.00">/solvers/qbf/qbf_qube.h</text>
</a>
</g>
</g>
<!-- Node6&#45;&gt;Node9 -->
<g id="edge8" class="edge">
<title>Node6&#45;&gt;Node9</title>
<path fill="none" stroke="midnightblue" d="M1110.45,-316.49C1121.22,-306.63 1133.24,-295.63 1143.2,-286.51"/>
<polygon fill="midnightblue" stroke="midnightblue" points="1107.89,-314.09 1102.87,-323.43 1112.61,-319.26 1107.89,-314.09"/>
</g>
<!-- Node11 -->
<g id="node11" class="node">
<title>Node11</title>
<g id="a_node11"><a xlink:href="qbf__skizzo_8h.html" target="_top" xlink:title=" ">
<polygon fill="none" stroke="black" points="1257,-245.5 1257,-286.5 1406,-286.5 1406,-245.5 1257,-245.5"/>
<text text-anchor="start" x="1265" y="-274.5" font-family="Helvetica,sans-Serif" font-size="10.00">/home/runner/work/diffblue</text>
<text text-anchor="start" x="1265" y="-263.5" font-family="Helvetica,sans-Serif" font-size="10.00">&#45;cbmc/diffblue&#45;cbmc/src</text>
<text text-anchor="middle" x="1331.5" y="-252.5" font-family="Helvetica,sans-Serif" font-size="10.00">/solvers/qbf/qbf_skizzo.h</text>
</a>
</g>
</g>
<!-- Node6&#45;&gt;Node11 -->
<g id="edge10" class="edge">
<title>Node6&#45;&gt;Node11</title>
<path fill="none" stroke="midnightblue" d="M1155.7,-320.44C1191.19,-309.66 1233.25,-296.87 1267.34,-286.51"/>
<polygon fill="midnightblue" stroke="midnightblue" points="1154.43,-317.17 1145.88,-323.43 1156.47,-323.87 1154.43,-317.17"/>
</g>
<!-- Node13 -->
<g id="node13" class="node">
<title>Node13</title>
<g id="a_node13"><a xlink:href="qbf__squolem_8h.html" target="_top" xlink:title="Squolem Backend.">
<polygon fill="none" stroke="black" points="1424,-245.5 1424,-286.5 1573,-286.5 1573,-245.5 1424,-245.5"/>
<text text-anchor="start" x="1432" y="-274.5" font-family="Helvetica,sans-Serif" font-size="10.00">/home/runner/work/diffblue</text>
<text text-anchor="start" x="1432" y="-263.5" font-family="Helvetica,sans-Serif" font-size="10.00">&#45;cbmc/diffblue&#45;cbmc/src</text>
<text text-anchor="middle" x="1498.5" y="-252.5" font-family="Helvetica,sans-Serif" font-size="10.00">/solvers/qbf/qbf_squolem.h</text>
</a>
</g>
</g>
<!-- Node6&#45;&gt;Node13 -->
<g id="edge12" class="edge">
<title>Node6&#45;&gt;Node13</title>
<path fill="none" stroke="midnightblue" d="M1166.04,-323C1277.51,-302.31 1308.38,-307.57 1415.5,-287 1418.27,-286.47 1421.08,-285.91 1423.91,-285.32"/>
<polygon fill="midnightblue" stroke="midnightblue" points="1165.26,-319.58 1156.08,-324.87 1166.55,-326.46 1165.26,-319.58"/>
</g>
<!-- Node15 -->
<g id="node15" class="node">
<title>Node15</title>
<g id="a_node15"><a xlink:href="qdimacs__cnf_8cpp.html" target="_top" xlink:title=" ">
<polygon fill="none" stroke="black" points="566.5,-245.5 566.5,-286.5 724.5,-286.5 724.5,-245.5 566.5,-245.5"/>
<text text-anchor="start" x="574.5" y="-274.5" font-family="Helvetica,sans-Serif" font-size="10.00">/home/runner/work/diffblue</text>
<text text-anchor="start" x="574.5" y="-263.5" font-family="Helvetica,sans-Serif" font-size="10.00">&#45;cbmc/diffblue&#45;cbmc/src</text>
<text text-anchor="middle" x="645.5" y="-252.5" font-family="Helvetica,sans-Serif" font-size="10.00">/solvers/qbf/qdimacs_cnf.cpp</text>
</a>
</g>
</g>
<!-- Node6&#45;&gt;Node15 -->
<g id="edge14" class="edge">
<title>Node6&#45;&gt;Node15</title>
<path fill="none" stroke="midnightblue" d="M996.81,-322.98C879.33,-301.62 846.83,-307.56 733.5,-287 730.57,-286.47 727.59,-285.91 724.59,-285.32"/>
<polygon fill="midnightblue" stroke="midnightblue" points="996.46,-326.47 1006.93,-324.84 997.73,-319.59 996.46,-326.47"/>
</g>
<!-- Node16 -->
<g id="node16" class="node">
<title>Node16</title>
<g id="a_node16"><a xlink:href="qdimacs__core_8h.html" target="_top" xlink:title=" ">
<polygon fill="none" stroke="black" points="743,-245.5 743,-286.5 896,-286.5 896,-245.5 743,-245.5"/>
<text text-anchor="start" x="751" y="-274.5" font-family="Helvetica,sans-Serif" font-size="10.00">/home/runner/work/diffblue</text>
<text text-anchor="start" x="751" y="-263.5" font-family="Helvetica,sans-Serif" font-size="10.00">&#45;cbmc/diffblue&#45;cbmc/src</text>
<text text-anchor="middle" x="819.5" y="-252.5" font-family="Helvetica,sans-Serif" font-size="10.00">/solvers/qbf/qdimacs_core.h</text>
</a>
</g>
</g>
<!-- Node6&#45;&gt;Node16 -->
<g id="edge15" class="edge">
<title>Node6&#45;&gt;Node16</title>
<path fill="none" stroke="midnightblue" d="M1004.21,-320.58C966.92,-309.76 922.62,-296.91 886.74,-286.51"/>
<polygon fill="midnightblue" stroke="midnightblue" points="1003.45,-324 1014.03,-323.43 1005.4,-317.28 1003.45,-324"/>
</g>
<!-- Node8 -->
<g id="node8" class="node">
<title>Node8</title>
<g id="a_node8"><a xlink:href="qbf__quantor_8cpp.html" target="_top" xlink:title=" ">
<polygon fill="none" stroke="black" points="920,-167.5 920,-208.5 1075,-208.5 1075,-167.5 920,-167.5"/>
<text text-anchor="start" x="928" y="-196.5" font-family="Helvetica,sans-Serif" font-size="10.00">/home/runner/work/diffblue</text>
<text text-anchor="start" x="928" y="-185.5" font-family="Helvetica,sans-Serif" font-size="10.00">&#45;cbmc/diffblue&#45;cbmc/src</text>
<text text-anchor="middle" x="997.5" y="-174.5" font-family="Helvetica,sans-Serif" font-size="10.00">/solvers/qbf/qbf_quantor.cpp</text>
</a>
</g>
</g>
<!-- Node7&#45;&gt;Node8 -->
<g id="edge7" class="edge">
<title>Node7&#45;&gt;Node8</title>
<path fill="none" stroke="midnightblue" d="M997.5,-235.3C997.5,-226.3 997.5,-216.65 997.5,-208.51"/>
<polygon fill="midnightblue" stroke="midnightblue" points="994,-235.43 997.5,-245.43 1001,-235.43 994,-235.43"/>
</g>
<!-- Node10 -->
<g id="node10" class="node">
<title>Node10</title>
<g id="a_node10"><a xlink:href="qbf__qube_8cpp.html" target="_top" xlink:title=" ">
<polygon fill="none" stroke="black" points="1093,-167.5 1093,-208.5 1242,-208.5 1242,-167.5 1093,-167.5"/>
<text text-anchor="start" x="1101" y="-196.5" font-family="Helvetica,sans-Serif" font-size="10.00">/home/runner/work/diffblue</text>
<text text-anchor="start" x="1101" y="-185.5" font-family="Helvetica,sans-Serif" font-size="10.00">&#45;cbmc/diffblue&#45;cbmc/src</text>
<text text-anchor="middle" x="1167.5" y="-174.5" font-family="Helvetica,sans-Serif" font-size="10.00">/solvers/qbf/qbf_qube.cpp</text>
</a>
</g>
</g>
<!-- Node9&#45;&gt;Node10 -->
<g id="edge9" class="edge">
<title>Node9&#45;&gt;Node10</title>
<path fill="none" stroke="midnightblue" d="M1165.67,-235.3C1166.03,-226.3 1166.41,-216.65 1166.73,-208.51"/>
<polygon fill="midnightblue" stroke="midnightblue" points="1162.17,-235.3 1165.27,-245.43 1169.16,-235.57 1162.17,-235.3"/>
</g>
<!-- Node12 -->
<g id="node12" class="node">
<title>Node12</title>
<g id="a_node12"><a xlink:href="qbf__skizzo_8cpp.html" target="_top" xlink:title=" ">
<polygon fill="none" stroke="black" points="1260,-167.5 1260,-208.5 1409,-208.5 1409,-167.5 1260,-167.5"/>
<text text-anchor="start" x="1268" y="-196.5" font-family="Helvetica,sans-Serif" font-size="10.00">/home/runner/work/diffblue</text>
<text text-anchor="start" x="1268" y="-185.5" font-family="Helvetica,sans-Serif" font-size="10.00">&#45;cbmc/diffblue&#45;cbmc/src</text>
<text text-anchor="middle" x="1334.5" y="-174.5" font-family="Helvetica,sans-Serif" font-size="10.00">/solvers/qbf/qbf_skizzo.cpp</text>
</a>
</g>
</g>
<!-- Node11&#45;&gt;Node12 -->
<g id="edge11" class="edge">
<title>Node11&#45;&gt;Node12</title>
<path fill="none" stroke="midnightblue" d="M1332.67,-235.3C1333.03,-226.3 1333.41,-216.65 1333.73,-208.51"/>
<polygon fill="midnightblue" stroke="midnightblue" points="1329.17,-235.3 1332.27,-245.43 1336.16,-235.57 1329.17,-235.3"/>
</g>
<!-- Node14 -->
<g id="node14" class="node">
<title>Node14</title>
<g id="a_node14"><a xlink:href="qbf__squolem_8cpp.html" target="_top" xlink:title="Squolem Backend.">
<polygon fill="none" stroke="black" points="1427.5,-167.5 1427.5,-208.5 1587.5,-208.5 1587.5,-167.5 1427.5,-167.5"/>
<text text-anchor="start" x="1435.5" y="-196.5" font-family="Helvetica,sans-Serif" font-size="10.00">/home/runner/work/diffblue</text>
<text text-anchor="start" x="1435.5" y="-185.5" font-family="Helvetica,sans-Serif" font-size="10.00">&#45;cbmc/diffblue&#45;cbmc/src</text>
<text text-anchor="middle" x="1507.5" y="-174.5" font-family="Helvetica,sans-Serif" font-size="10.00">/solvers/qbf/qbf_squolem.cpp</text>
</a>
</g>
</g>
<!-- Node13&#45;&gt;Node14 -->
<g id="edge13" class="edge">
<title>Node13&#45;&gt;Node14</title>
<path fill="none" stroke="midnightblue" d="M1502.02,-235.3C1503.08,-226.3 1504.23,-216.65 1505.19,-208.51"/>
<polygon fill="midnightblue" stroke="midnightblue" points="1498.52,-235.09 1500.82,-245.43 1505.47,-235.91 1498.52,-235.09"/>
</g>
<!-- Node17 -->
<g id="node17" class="node">
<title>Node17</title>
<g id="a_node17"><a xlink:href="qbf__bdd__core_8h.html" target="_top" xlink:title=" ">
<polygon fill="none" stroke="black" points="193,-167.5 193,-208.5 344,-208.5 344,-167.5 193,-167.5"/>
<text text-anchor="start" x="201" y="-196.5" font-family="Helvetica,sans-Serif" font-size="10.00">/home/runner/work/diffblue</text>
<text text-anchor="start" x="201" y="-185.5" font-family="Helvetica,sans-Serif" font-size="10.00">&#45;cbmc/diffblue&#45;cbmc/src</text>
<text text-anchor="middle" x="268.5" y="-174.5" font-family="Helvetica,sans-Serif" font-size="10.00">/solvers/qbf/qbf_bdd_core.h</text>
</a>
</g>
</g>
<!-- Node16&#45;&gt;Node17 -->
<g id="edge16" class="edge">
<title>Node16&#45;&gt;Node17</title>
<path fill="none" stroke="midnightblue" d="M732.66,-244.99C566.93,-218.67 521.24,-234.46 359.5,-209 354.55,-208.22 349.46,-207.34 344.34,-206.38"/>
<polygon fill="midnightblue" stroke="midnightblue" points="732.28,-248.47 742.71,-246.61 733.39,-241.56 732.28,-248.47"/>
</g>
<!-- Node21 -->
<g id="node21" class="node">
<title>Node21</title>
<g id="a_node21"><a xlink:href="qbf__qube__core_8h.html" target="_top" xlink:title=" ">
<polygon fill="none" stroke="black" points="369,-167.5 369,-208.5 526,-208.5 526,-167.5 369,-167.5"/>
<text text-anchor="start" x="377" y="-196.5" font-family="Helvetica,sans-Serif" font-size="10.00">/home/runner/work/diffblue</text>
<text text-anchor="start" x="377" y="-185.5" font-family="Helvetica,sans-Serif" font-size="10.00">&#45;cbmc/diffblue&#45;cbmc/src</text>
<text text-anchor="middle" x="447.5" y="-174.5" font-family="Helvetica,sans-Serif" font-size="10.00">/solvers/qbf/qbf_qube_core.h</text>
</a>
</g>
</g>
<!-- Node16&#45;&gt;Node21 -->
<g id="edge20" class="edge">
<title>Node16&#45;&gt;Node21</title>
<path fill="none" stroke="midnightblue" d="M732.67,-244.88C643.79,-226.81 619.45,-226.44 534.5,-209 531.77,-208.44 528.99,-207.86 526.18,-207.26"/>
<polygon fill="midnightblue" stroke="midnightblue" points="732.15,-248.35 742.65,-246.93 733.56,-241.49 732.15,-248.35"/>
</g>
<!-- Node23 -->
<g id="node23" class="node">
<title>Node23</title>
<g id="a_node23"><a xlink:href="qbf__squolem__core_8h.html" target="_top" xlink:title="Squolem Backend (with Proofs)">
<polygon fill="none" stroke="black" points="544,-167.5 544,-208.5 719,-208.5 719,-167.5 544,-167.5"/>
<text text-anchor="start" x="552" y="-196.5" font-family="Helvetica,sans-Serif" font-size="10.00">/home/runner/work/diffblue</text>
<text text-anchor="start" x="552" y="-185.5" font-family="Helvetica,sans-Serif" font-size="10.00">&#45;cbmc/diffblue&#45;cbmc/src</text>
<text text-anchor="middle" x="631.5" y="-174.5" font-family="Helvetica,sans-Serif" font-size="10.00">/solvers/qbf/qbf_squolem_core.h</text>
</a>
</g>
</g>
<!-- Node16&#45;&gt;Node23 -->
<g id="edge22" class="edge">
<title>Node16&#45;&gt;Node23</title>
<path fill="none" stroke="midnightblue" d="M761.64,-241.61C735.4,-231 704.72,-218.6 679.75,-208.51"/>
<polygon fill="midnightblue" stroke="midnightblue" points="760.5,-244.93 771.09,-245.43 763.13,-238.44 760.5,-244.93"/>
</g>
<!-- Node25 -->
<g id="node25" class="node">
<title>Node25</title>
<g id="a_node25"><a xlink:href="qdimacs__core_8cpp.html" target="_top" xlink:title=" ">
<polygon fill="none" stroke="black" points="737.5,-167.5 737.5,-208.5 901.5,-208.5 901.5,-167.5 737.5,-167.5"/>
<text text-anchor="start" x="745.5" y="-196.5" font-family="Helvetica,sans-Serif" font-size="10.00">/home/runner/work/diffblue</text>
<text text-anchor="start" x="745.5" y="-185.5" font-family="Helvetica,sans-Serif" font-size="10.00">&#45;cbmc/diffblue&#45;cbmc/src</text>
<text text-anchor="middle" x="819.5" y="-174.5" font-family="Helvetica,sans-Serif" font-size="10.00">/solvers/qbf/qdimacs_core.cpp</text>
</a>
</g>
</g>
<!-- Node16&#45;&gt;Node25 -->
<g id="edge24" class="edge">
<title>Node16&#45;&gt;Node25</title>
<path fill="none" stroke="midnightblue" d="M819.5,-235.3C819.5,-226.3 819.5,-216.65 819.5,-208.51"/>
<polygon fill="midnightblue" stroke="midnightblue" points="816,-235.43 819.5,-245.43 823,-235.43 816,-235.43"/>
</g>
<!-- Node18 -->
<g id="node18" class="node">
<title>Node18</title>
<g id="a_node18"><a xlink:href="qbf__bdd__core_8cpp.html" target="_top" xlink:title=" ">
<polygon fill="none" stroke="black" points="187.5,-84 187.5,-125 349.5,-125 349.5,-84 187.5,-84"/>
<text text-anchor="start" x="195.5" y="-113" font-family="Helvetica,sans-Serif" font-size="10.00">/home/runner/work/diffblue</text>
<text text-anchor="start" x="195.5" y="-102" font-family="Helvetica,sans-Serif" font-size="10.00">&#45;cbmc/diffblue&#45;cbmc/src</text>
<text text-anchor="middle" x="268.5" y="-91" font-family="Helvetica,sans-Serif" font-size="10.00">/solvers/qbf/qbf_bdd_core.cpp</text>
</a>
</g>
</g>
<!-- Node17&#45;&gt;Node18 -->
<g id="edge17" class="edge">
<title>Node17&#45;&gt;Node18</title>
<path fill="none" stroke="midnightblue" d="M268.5,-157.06C268.5,-146.38 268.5,-134.63 268.5,-125.05"/>
<polygon fill="midnightblue" stroke="midnightblue" points="265,-157.27 268.5,-167.27 272,-157.27 265,-157.27"/>
</g>
<!-- Node19 -->
<g id="node19" class="node">
<title>Node19</title>
<g id="a_node19"><a xlink:href="qbf__skizzo__core_8h.html" target="_top" xlink:title=" ">
<polygon fill="none" stroke="black" points="5.5,-84 5.5,-125 169.5,-125 169.5,-84 5.5,-84"/>
<text text-anchor="start" x="13.5" y="-113" font-family="Helvetica,sans-Serif" font-size="10.00">/home/runner/work/diffblue</text>
<text text-anchor="start" x="13.5" y="-102" font-family="Helvetica,sans-Serif" font-size="10.00">&#45;cbmc/diffblue&#45;cbmc/src</text>
<text text-anchor="middle" x="87.5" y="-91" font-family="Helvetica,sans-Serif" font-size="10.00">/solvers/qbf/qbf_skizzo_core.h</text>
</a>
</g>
</g>
<!-- Node17&#45;&gt;Node19 -->
<g id="edge18" class="edge">
<title>Node17&#45;&gt;Node19</title>
<path fill="none" stroke="midnightblue" d="M215.84,-163.29C188.84,-151.13 156.35,-136.5 130.81,-125"/>
<polygon fill="midnightblue" stroke="midnightblue" points="214.59,-166.56 225.15,-167.48 217.46,-160.18 214.59,-166.56"/>
</g>
<!-- Node20 -->
<g id="node20" class="node">
<title>Node20</title>
<g id="a_node20"><a xlink:href="qbf__skizzo__core_8cpp.html" target="_top" xlink:title=" ">
<polygon fill="none" stroke="black" points="0,-0.5 0,-41.5 175,-41.5 175,-0.5 0,-0.5"/>
<text text-anchor="start" x="8" y="-29.5" font-family="Helvetica,sans-Serif" font-size="10.00">/home/runner/work/diffblue</text>
<text text-anchor="start" x="8" y="-18.5" font-family="Helvetica,sans-Serif" font-size="10.00">&#45;cbmc/diffblue&#45;cbmc/src</text>
<text text-anchor="middle" x="87.5" y="-7.5" font-family="Helvetica,sans-Serif" font-size="10.00">/solvers/qbf/qbf_skizzo_core.cpp</text>
</a>
</g>
</g>
<!-- Node19&#45;&gt;Node20 -->
<g id="edge19" class="edge">
<title>Node19&#45;&gt;Node20</title>
<path fill="none" stroke="midnightblue" d="M87.5,-73.56C87.5,-62.88 87.5,-51.13 87.5,-41.55"/>
<polygon fill="midnightblue" stroke="midnightblue" points="84,-73.77 87.5,-83.77 91,-73.77 84,-73.77"/>
</g>
<!-- Node22 -->
<g id="node22" class="node">
<title>Node22</title>
<g id="a_node22"><a xlink:href="qbf__qube__core_8cpp.html" target="_top" xlink:title=" ">
<polygon fill="none" stroke="black" points="367.5,-84 367.5,-125 535.5,-125 535.5,-84 367.5,-84"/>
<text text-anchor="start" x="375.5" y="-113" font-family="Helvetica,sans-Serif" font-size="10.00">/home/runner/work/diffblue</text>
<text text-anchor="start" x="375.5" y="-102" font-family="Helvetica,sans-Serif" font-size="10.00">&#45;cbmc/diffblue&#45;cbmc/src</text>
<text text-anchor="middle" x="451.5" y="-91" font-family="Helvetica,sans-Serif" font-size="10.00">/solvers/qbf/qbf_qube_core.cpp</text>
</a>
</g>
</g>
<!-- Node21&#45;&gt;Node22 -->
<g id="edge21" class="edge">
<title>Node21&#45;&gt;Node22</title>
<path fill="none" stroke="midnightblue" d="M448.97,-157.06C449.49,-146.38 450.07,-134.63 450.54,-125.05"/>
<polygon fill="midnightblue" stroke="midnightblue" points="445.46,-157.11 448.47,-167.27 452.45,-157.45 445.46,-157.11"/>
</g>
<!-- Node24 -->
<g id="node24" class="node">
<title>Node24</title>
<g id="a_node24"><a xlink:href="qbf__squolem__core_8cpp.html" target="_top" xlink:title="Squolem Backend (with proofs)">
<polygon fill="none" stroke="black" points="557,-78.5 557,-130.5 706,-130.5 706,-78.5 557,-78.5"/>
<text text-anchor="start" x="565" y="-118.5" font-family="Helvetica,sans-Serif" font-size="10.00">/home/runner/work/diffblue</text>
<text text-anchor="start" x="565" y="-107.5" font-family="Helvetica,sans-Serif" font-size="10.00">&#45;cbmc/diffblue&#45;cbmc/src</text>
<text text-anchor="start" x="565" y="-96.5" font-family="Helvetica,sans-Serif" font-size="10.00">/solvers/qbf/qbf_squolem</text>
<text text-anchor="middle" x="631.5" y="-85.5" font-family="Helvetica,sans-Serif" font-size="10.00">_core.cpp</text>
</a>
</g>
</g>
<!-- Node23&#45;&gt;Node24 -->
<g id="edge23" class="edge">
<title>Node23&#45;&gt;Node24</title>
<path fill="none" stroke="midnightblue" d="M631.5,-157.12C631.5,-148.41 631.5,-138.99 631.5,-130.61"/>
<polygon fill="midnightblue" stroke="midnightblue" points="628,-157.27 631.5,-167.27 635,-157.27 628,-157.27"/>
</g>
<!-- Node29 -->
<g id="node29" class="node">
<title>Node29</title>
<g id="a_node29"><a xlink:href="pbs__dimacs__cnf_8cpp.html" target="_top" xlink:title=" ">
<polygon fill="none" stroke="black" points="1591,-245.5 1591,-286.5 1764,-286.5 1764,-245.5 1591,-245.5"/>
<text text-anchor="start" x="1599" y="-274.5" font-family="Helvetica,sans-Serif" font-size="10.00">/home/runner/work/diffblue</text>
<text text-anchor="start" x="1599" y="-263.5" font-family="Helvetica,sans-Serif" font-size="10.00">&#45;cbmc/diffblue&#45;cbmc/src</text>
<text text-anchor="middle" x="1677.5" y="-252.5" font-family="Helvetica,sans-Serif" font-size="10.00">/solvers/sat/pbs_dimacs_cnf.cpp</text>
</a>
</g>
</g>
<!-- Node28&#45;&gt;Node29 -->
<g id="edge28" class="edge">
<title>Node28&#45;&gt;Node29</title>
<path fill="none" stroke="midnightblue" d="M1499.59,-320.44C1535.5,-309.66 1578.07,-296.87 1612.57,-286.51"/>
<polygon fill="midnightblue" stroke="midnightblue" points="1498.22,-317.2 1489.65,-323.43 1500.24,-323.9 1498.22,-317.2"/>
</g>
<!-- Node31 -->
<g id="node31" class="node">
<title>Node31</title>
<g id="a_node31"><a xlink:href="satcheck__zcore_8cpp.html" target="_top" xlink:title=" ">
<polygon fill="none" stroke="black" points="377,-245.5 377,-286.5 548,-286.5 548,-245.5 377,-245.5"/>
<text text-anchor="start" x="385" y="-274.5" font-family="Helvetica,sans-Serif" font-size="10.00">/home/runner/work/diffblue</text>
<text text-anchor="start" x="385" y="-263.5" font-family="Helvetica,sans-Serif" font-size="10.00">&#45;cbmc/diffblue&#45;cbmc/src</text>
<text text-anchor="middle" x="462.5" y="-252.5" font-family="Helvetica,sans-Serif" font-size="10.00">/solvers/sat/satcheck_zcore.cpp</text>
</a>
</g>
</g>
<!-- Node30&#45;&gt;Node31 -->
<g id="edge30" class="edge">
<title>Node30&#45;&gt;Node31</title>
<path fill="none" stroke="midnightblue" d="M636.89,-320.44C601.69,-309.66 559.96,-296.87 526.15,-286.51"/>
<polygon fill="midnightblue" stroke="midnightblue" points="636.05,-323.84 646.63,-323.43 638.1,-317.15 636.05,-323.84"/>
</g>
<!-- Node32&#45;&gt;Node4 -->
<g id="edge32" class="edge">
<title>Node32&#45;&gt;Node4</title>
<path fill="none" stroke="midnightblue" d="M515.02,-398.3C481.62,-387.55 442.11,-374.82 410.07,-364.51"/>
<polygon fill="midnightblue" stroke="midnightblue" points="514.13,-401.69 524.72,-401.43 516.28,-395.03 514.13,-401.69"/>
</g>
<!-- Node32&#45;&gt;Node27 -->
<g id="edge33" class="edge">
<title>Node32&#45;&gt;Node27</title>
<path fill="none" stroke="midnightblue" d="M566.37,-393.05C559.89,-383.57 552.78,-373.18 546.85,-364.51"/>
<polygon fill="midnightblue" stroke="midnightblue" points="563.57,-395.15 572.11,-401.43 569.35,-391.2 563.57,-395.15"/>
</g>
<!-- Node34 -->
<g id="node34" class="node">
<title>Node34</title>
<g id="a_node34"><a xlink:href="satcheck__zchaff_8cpp.html" target="_top" xlink:title=" ">
<polygon fill="none" stroke="black" points="1523.5,-323.5 1523.5,-364.5 1697.5,-364.5 1697.5,-323.5 1523.5,-323.5"/>
<text text-anchor="start" x="1531.5" y="-352.5" font-family="Helvetica,sans-Serif" font-size="10.00">/home/runner/work/diffblue</text>
<text text-anchor="start" x="1531.5" y="-341.5" font-family="Helvetica,sans-Serif" font-size="10.00">&#45;cbmc/diffblue&#45;cbmc/src</text>
<text text-anchor="middle" x="1610.5" y="-330.5" font-family="Helvetica,sans-Serif" font-size="10.00">/solvers/sat/satcheck_zchaff.cpp</text>
</a>
</g>
</g>
<!-- Node33&#45;&gt;Node34 -->
<g id="edge35" class="edge">
<title>Node33&#45;&gt;Node34</title>
<path fill="none" stroke="midnightblue" d="M1420.85,-398.58C1459.14,-387.76 1504.63,-374.91 1541.46,-364.51"/>
<polygon fill="midnightblue" stroke="midnightblue" points="1419.45,-395.34 1410.77,-401.43 1421.35,-402.08 1419.45,-395.34"/>
</g>
</g>
</svg>
