<?xml version="1.0" encoding="UTF-8" standalone="no"?>
<!DOCTYPE svg PUBLIC "-//W3C//DTD SVG 1.1//EN"
 "http://www.w3.org/Graphics/SVG/1.1/DTD/svg11.dtd">
<!-- Generated by graphviz version 2.43.0 (0)
 -->
<!-- Title: /home/runner/work/diffblue&#45;cbmc/diffblue&#45;cbmc/jbmc/src/java_bytecode/code_with_references.h Pages: 1 -->
<svg width="2047pt" height="328pt"
 viewBox="0.00 0.00 2047.00 328.00" xmlns="http://www.w3.org/2000/svg" xmlns:xlink="http://www.w3.org/1999/xlink">
<g id="graph0" class="graph" transform="scale(1 1) rotate(0) translate(4 324)">
<title>/home/runner/work/diffblue&#45;cbmc/diffblue&#45;cbmc/jbmc/src/java_bytecode/code_with_references.h</title>
<!-- Node1 -->
<g id="node1" class="node">
<title>Node1</title>
<g id="a_node1"><a xlink:title=" ">
<polygon fill="#bfbfbf" stroke="black" points="249,-267.5 249,-319.5 410,-319.5 410,-267.5 249,-267.5"/>
<text text-anchor="start" x="257" y="-307.5" font-family="Helvetica,sans-Serif" font-size="10.00">/home/runner/work/diffblue</text>
<text text-anchor="start" x="257" y="-296.5" font-family="Helvetica,sans-Serif" font-size="10.00">&#45;cbmc/diffblue&#45;cbmc/jbmc</text>
<text text-anchor="start" x="257" y="-285.5" font-family="Helvetica,sans-Serif" font-size="10.00">/src/java_bytecode/code_with</text>
<text text-anchor="middle" x="329.5" y="-274.5" font-family="Helvetica,sans-Serif" font-size="10.00">_references.h</text>
</a>
</g>
</g>
<!-- Node2 -->
<g id="node2" class="node">
<title>Node2</title>
<g id="a_node2"><a xlink:href="assignments__from__json_8cpp.html" target="_top" xlink:title=" ">
<polygon fill="none" stroke="black" points="0,-89.5 0,-141.5 173,-141.5 173,-89.5 0,-89.5"/>
<text text-anchor="start" x="8" y="-129.5" font-family="Helvetica,sans-Serif" font-size="10.00">/home/runner/work/diffblue</text>
<text text-anchor="start" x="8" y="-118.5" font-family="Helvetica,sans-Serif" font-size="10.00">&#45;cbmc/diffblue&#45;cbmc/jbmc</text>
<text text-anchor="start" x="8" y="-107.5" font-family="Helvetica,sans-Serif" font-size="10.00">/src/java_bytecode/assignments</text>
<text text-anchor="middle" x="86.5" y="-96.5" font-family="Helvetica,sans-Serif" font-size="10.00">_from_json.cpp</text>
</a>
</g>
</g>
<!-- Node1&#45;&gt;Node2 -->
<g id="edge1" class="edge">
<title>Node1&#45;&gt;Node2</title>
<path fill="none" stroke="midnightblue" d="M238.86,-278.39C205.2,-269.41 168.65,-254.79 141.5,-231 114.63,-207.45 99.74,-167.86 92.43,-141.95"/>
<polygon fill="midnightblue" stroke="midnightblue" points="238.18,-281.82 248.73,-280.88 239.89,-275.04 238.18,-281.82"/>
</g>
<!-- Node3 -->
<g id="node3" class="node">
<title>Node3</title>
<g id="a_node3"><a xlink:href="assignments__from__json_8h.html" target="_top" xlink:title=" ">
<polygon fill="none" stroke="black" points="151,-178.5 151,-230.5 324,-230.5 324,-178.5 151,-178.5"/>
<text text-anchor="start" x="159" y="-218.5" font-family="Helvetica,sans-Serif" font-size="10.00">/home/runner/work/diffblue</text>
<text text-anchor="start" x="159" y="-207.5" font-family="Helvetica,sans-Serif" font-size="10.00">&#45;cbmc/diffblue&#45;cbmc/jbmc</text>
<text text-anchor="start" x="159" y="-196.5" font-family="Helvetica,sans-Serif" font-size="10.00">/src/java_bytecode/assignments</text>
<text text-anchor="middle" x="237.5" y="-185.5" font-family="Helvetica,sans-Serif" font-size="10.00">_from_json.h</text>
</a>
</g>
</g>
<!-- Node1&#45;&gt;Node3 -->
<g id="edge2" class="edge">
<title>Node1&#45;&gt;Node3</title>
<path fill="none" stroke="midnightblue" d="M295.52,-260.36C285.13,-250.54 273.87,-239.89 264.05,-230.61"/>
<polygon fill="midnightblue" stroke="midnightblue" points="293.22,-263.01 302.89,-267.34 298.03,-257.92 293.22,-263.01"/>
</g>
<!-- Node5 -->
<g id="node5" class="node">
<title>Node5</title>
<g id="a_node5"><a xlink:href="code__with__references_8cpp.html" target="_top" xlink:title=" ">
<polygon fill="none" stroke="black" points="342,-178.5 342,-230.5 503,-230.5 503,-178.5 342,-178.5"/>
<text text-anchor="start" x="350" y="-218.5" font-family="Helvetica,sans-Serif" font-size="10.00">/home/runner/work/diffblue</text>
<text text-anchor="start" x="350" y="-207.5" font-family="Helvetica,sans-Serif" font-size="10.00">&#45;cbmc/diffblue&#45;cbmc/jbmc</text>
<text text-anchor="start" x="350" y="-196.5" font-family="Helvetica,sans-Serif" font-size="10.00">/src/java_bytecode/code_with</text>
<text text-anchor="middle" x="422.5" y="-185.5" font-family="Helvetica,sans-Serif" font-size="10.00">_references.cpp</text>
</a>
</g>
</g>
<!-- Node1&#45;&gt;Node5 -->
<g id="edge5" class="edge">
<title>Node1&#45;&gt;Node5</title>
<path fill="none" stroke="midnightblue" d="M363.85,-260.36C374.35,-250.54 385.74,-239.89 395.66,-230.61"/>
<polygon fill="midnightblue" stroke="midnightblue" points="361.31,-257.95 356.4,-267.34 366.09,-263.06 361.31,-257.95"/>
</g>
<!-- Node6 -->
<g id="node6" class="node">
<title>Node6</title>
<g id="a_node6"><a xlink:href="java__bytecode__language_8h.html" target="_top" xlink:title=" ">
<polygon fill="none" stroke="black" points="1025.5,-178.5 1025.5,-230.5 1207.5,-230.5 1207.5,-178.5 1025.5,-178.5"/>
<text text-anchor="start" x="1033.5" y="-218.5" font-family="Helvetica,sans-Serif" font-size="10.00">/home/runner/work/diffblue</text>
<text text-anchor="start" x="1033.5" y="-207.5" font-family="Helvetica,sans-Serif" font-size="10.00">&#45;cbmc/diffblue&#45;cbmc/jbmc</text>
<text text-anchor="start" x="1033.5" y="-196.5" font-family="Helvetica,sans-Serif" font-size="10.00">/src/java_bytecode/java_bytecode</text>
<text text-anchor="middle" x="1116.5" y="-185.5" font-family="Helvetica,sans-Serif" font-size="10.00">_language.h</text>
</a>
</g>
</g>
<!-- Node1&#45;&gt;Node6 -->
<g id="edge6" class="edge">
<title>Node1&#45;&gt;Node6</title>
<path fill="none" stroke="midnightblue" d="M420.21,-282.47C571.48,-265.75 873.6,-232.35 1025.24,-215.59"/>
<polygon fill="midnightblue" stroke="midnightblue" points="419.58,-279.02 410.02,-283.6 420.35,-285.98 419.58,-279.02"/>
</g>
<!-- Node3&#45;&gt;Node2 -->
<g id="edge3" class="edge">
<title>Node3&#45;&gt;Node2</title>
<path fill="none" stroke="midnightblue" d="M184.69,-173.07C166.84,-162.79 147.13,-151.43 130.08,-141.61"/>
<polygon fill="midnightblue" stroke="midnightblue" points="183.41,-176.38 193.82,-178.34 186.91,-170.31 183.41,-176.38"/>
</g>
<!-- Node4 -->
<g id="node4" class="node">
<title>Node4</title>
<g id="a_node4"><a xlink:href="java__static__initializers_8cpp.html" target="_top" xlink:title=" ">
<polygon fill="none" stroke="black" points="191.5,-89.5 191.5,-141.5 355.5,-141.5 355.5,-89.5 191.5,-89.5"/>
<text text-anchor="start" x="199.5" y="-129.5" font-family="Helvetica,sans-Serif" font-size="10.00">/home/runner/work/diffblue</text>
<text text-anchor="start" x="199.5" y="-118.5" font-family="Helvetica,sans-Serif" font-size="10.00">&#45;cbmc/diffblue&#45;cbmc/jbmc</text>
<text text-anchor="start" x="199.5" y="-107.5" font-family="Helvetica,sans-Serif" font-size="10.00">/src/java_bytecode/java_static</text>
<text text-anchor="middle" x="273.5" y="-96.5" font-family="Helvetica,sans-Serif" font-size="10.00">_initializers.cpp</text>
</a>
</g>
</g>
<!-- Node3&#45;&gt;Node4 -->
<g id="edge4" class="edge">
<title>Node3&#45;&gt;Node4</title>
<path fill="none" stroke="midnightblue" d="M251.75,-169.06C255.54,-159.9 259.57,-150.17 263.11,-141.61"/>
<polygon fill="midnightblue" stroke="midnightblue" points="248.5,-167.76 247.91,-178.34 254.97,-170.43 248.5,-167.76"/>
</g>
<!-- Node7 -->
<g id="node7" class="node">
<title>Node7</title>
<g id="a_node7"><a xlink:href="janalyzer__parse__options_8cpp.html" target="_top" xlink:title="JANALYZER Command Line Option Processing.">
<polygon fill="none" stroke="black" points="309,-0.5 309,-52.5 458,-52.5 458,-0.5 309,-0.5"/>
<text text-anchor="start" x="317" y="-40.5" font-family="Helvetica,sans-Serif" font-size="10.00">/home/runner/work/diffblue</text>
<text text-anchor="start" x="317" y="-29.5" font-family="Helvetica,sans-Serif" font-size="10.00">&#45;cbmc/diffblue&#45;cbmc/jbmc</text>
<text text-anchor="start" x="317" y="-18.5" font-family="Helvetica,sans-Serif" font-size="10.00">/src/janalyzer/janalyzer</text>
<text text-anchor="middle" x="383.5" y="-7.5" font-family="Helvetica,sans-Serif" font-size="10.00">_parse_options.cpp</text>
</a>
</g>
</g>
<!-- Node6&#45;&gt;Node7 -->
<g id="edge7" class="edge">
<title>Node6&#45;&gt;Node7</title>
<path fill="none" stroke="midnightblue" d="M1015.39,-201.59C828.84,-197.11 445.43,-182.95 401.5,-142 377.36,-119.5 376.76,-78.84 379.45,-52.52"/>
<polygon fill="midnightblue" stroke="midnightblue" points="1015.41,-205.1 1025.49,-201.83 1015.57,-198.1 1015.41,-205.1"/>
</g>
<!-- Node8 -->
<g id="node8" class="node">
<title>Node8</title>
<g id="a_node8"><a xlink:href="janalyzer__parse__options_8h.html" target="_top" xlink:title="JANALYZER Command Line Option Processing.">
<polygon fill="none" stroke="black" points="411,-89.5 411,-141.5 560,-141.5 560,-89.5 411,-89.5"/>
<text text-anchor="start" x="419" y="-129.5" font-family="Helvetica,sans-Serif" font-size="10.00">/home/runner/work/diffblue</text>
<text text-anchor="start" x="419" y="-118.5" font-family="Helvetica,sans-Serif" font-size="10.00">&#45;cbmc/diffblue&#45;cbmc/jbmc</text>
<text text-anchor="start" x="419" y="-107.5" font-family="Helvetica,sans-Serif" font-size="10.00">/src/janalyzer/janalyzer</text>
<text text-anchor="middle" x="485.5" y="-96.5" font-family="Helvetica,sans-Serif" font-size="10.00">_parse_options.h</text>
</a>
</g>
</g>
<!-- Node6&#45;&gt;Node8 -->
<g id="edge8" class="edge">
<title>Node6&#45;&gt;Node8</title>
<path fill="none" stroke="midnightblue" d="M1014.86,-197.78C904.17,-190.23 722.34,-173.97 568.5,-142 565.84,-141.45 563.15,-140.85 560.44,-140.21"/>
<polygon fill="midnightblue" stroke="midnightblue" points="1014.81,-201.28 1025.02,-198.46 1015.27,-194.3 1014.81,-201.28"/>
</g>
<!-- Node10 -->
<g id="node10" class="node">
<title>Node10</title>
<g id="a_node10"><a xlink:href="ci__lazy__methods_8cpp.html" target="_top" xlink:title=" ">
<polygon fill="none" stroke="black" points="578,-89.5 578,-141.5 727,-141.5 727,-89.5 578,-89.5"/>
<text text-anchor="start" x="586" y="-129.5" font-family="Helvetica,sans-Serif" font-size="10.00">/home/runner/work/diffblue</text>
<text text-anchor="start" x="586" y="-118.5" font-family="Helvetica,sans-Serif" font-size="10.00">&#45;cbmc/diffblue&#45;cbmc/jbmc</text>
<text text-anchor="start" x="586" y="-107.5" font-family="Helvetica,sans-Serif" font-size="10.00">/src/java_bytecode/ci_lazy</text>
<text text-anchor="middle" x="652.5" y="-96.5" font-family="Helvetica,sans-Serif" font-size="10.00">_methods.cpp</text>
</a>
</g>
</g>
<!-- Node6&#45;&gt;Node10 -->
<g id="edge11" class="edge">
<title>Node6&#45;&gt;Node10</title>
<path fill="none" stroke="midnightblue" d="M1015.06,-190.86C938.1,-180.35 829.96,-163.65 736.5,-142 733.38,-141.28 730.21,-140.5 727.01,-139.69"/>
<polygon fill="midnightblue" stroke="midnightblue" points="1014.85,-194.36 1025.23,-192.23 1015.79,-187.42 1014.85,-194.36"/>
</g>
<!-- Node11 -->
<g id="node11" class="node">
<title>Node11</title>
<g id="a_node11"><a xlink:href="java__bytecode__language_8cpp.html" target="_top" xlink:title=" ">
<polygon fill="none" stroke="black" points="745.5,-89.5 745.5,-141.5 927.5,-141.5 927.5,-89.5 745.5,-89.5"/>
<text text-anchor="start" x="753.5" y="-129.5" font-family="Helvetica,sans-Serif" font-size="10.00">/home/runner/work/diffblue</text>
<text text-anchor="start" x="753.5" y="-118.5" font-family="Helvetica,sans-Serif" font-size="10.00">&#45;cbmc/diffblue&#45;cbmc/jbmc</text>
<text text-anchor="start" x="753.5" y="-107.5" font-family="Helvetica,sans-Serif" font-size="10.00">/src/java_bytecode/java_bytecode</text>
<text text-anchor="middle" x="836.5" y="-96.5" font-family="Helvetica,sans-Serif" font-size="10.00">_language.cpp</text>
</a>
</g>
</g>
<!-- Node6&#45;&gt;Node11 -->
<g id="edge12" class="edge">
<title>Node6&#45;&gt;Node11</title>
<path fill="none" stroke="midnightblue" d="M1026.12,-175.42C991.02,-164.51 951.13,-152.12 917.03,-141.52"/>
<polygon fill="midnightblue" stroke="midnightblue" points="1025.3,-178.83 1035.89,-178.45 1027.38,-172.14 1025.3,-178.83"/>
</g>
<!-- Node12 -->
<g id="node12" class="node">
<title>Node12</title>
<g id="a_node12"><a xlink:href="java__entry__point_8cpp.html" target="_top" xlink:title=" ">
<polygon fill="none" stroke="black" points="946,-89.5 946,-141.5 1109,-141.5 1109,-89.5 946,-89.5"/>
<text text-anchor="start" x="954" y="-129.5" font-family="Helvetica,sans-Serif" font-size="10.00">/home/runner/work/diffblue</text>
<text text-anchor="start" x="954" y="-118.5" font-family="Helvetica,sans-Serif" font-size="10.00">&#45;cbmc/diffblue&#45;cbmc/jbmc</text>
<text text-anchor="start" x="954" y="-107.5" font-family="Helvetica,sans-Serif" font-size="10.00">/src/java_bytecode/java_entry</text>
<text text-anchor="middle" x="1027.5" y="-96.5" font-family="Helvetica,sans-Serif" font-size="10.00">_point.cpp</text>
</a>
</g>
</g>
<!-- Node6&#45;&gt;Node12 -->
<g id="edge13" class="edge">
<title>Node6&#45;&gt;Node12</title>
<path fill="none" stroke="midnightblue" d="M1083.33,-171.08C1073.37,-161.34 1062.59,-150.8 1053.18,-141.61"/>
<polygon fill="midnightblue" stroke="midnightblue" points="1081.16,-173.85 1090.76,-178.34 1086.05,-168.84 1081.16,-173.85"/>
</g>
<!-- Node13 -->
<g id="node13" class="node">
<title>Node13</title>
<g id="a_node13"><a xlink:href="lazy__goto__model_8cpp.html" target="_top" xlink:title="Author: Diffblue Ltd.">
<polygon fill="none" stroke="black" points="1127.5,-89.5 1127.5,-141.5 1285.5,-141.5 1285.5,-89.5 1127.5,-89.5"/>
<text text-anchor="start" x="1135.5" y="-129.5" font-family="Helvetica,sans-Serif" font-size="10.00">/home/runner/work/diffblue</text>
<text text-anchor="start" x="1135.5" y="-118.5" font-family="Helvetica,sans-Serif" font-size="10.00">&#45;cbmc/diffblue&#45;cbmc/jbmc</text>
<text text-anchor="start" x="1135.5" y="-107.5" font-family="Helvetica,sans-Serif" font-size="10.00">/src/java_bytecode/lazy_goto</text>
<text text-anchor="middle" x="1206.5" y="-96.5" font-family="Helvetica,sans-Serif" font-size="10.00">_model.cpp</text>
</a>
</g>
</g>
<!-- Node6&#45;&gt;Node13 -->
<g id="edge14" class="edge">
<title>Node6&#45;&gt;Node13</title>
<path fill="none" stroke="midnightblue" d="M1149.75,-171.36C1159.9,-161.54 1170.92,-150.89 1180.53,-141.61"/>
<polygon fill="midnightblue" stroke="midnightblue" points="1147.29,-168.87 1142.53,-178.34 1152.15,-173.9 1147.29,-168.87"/>
</g>
<!-- Node14 -->
<g id="node14" class="node">
<title>Node14</title>
<g id="a_node14"><a xlink:href="jbmc__parse__options_8cpp.html" target="_top" xlink:title="JBMC Command Line Option Processing.">
<polygon fill="none" stroke="black" points="1222.5,-6 1222.5,-47 1404.5,-47 1404.5,-6 1222.5,-6"/>
<text text-anchor="start" x="1230.5" y="-35" font-family="Helvetica,sans-Serif" font-size="10.00">/home/runner/work/diffblue</text>
<text text-anchor="start" x="1230.5" y="-24" font-family="Helvetica,sans-Serif" font-size="10.00">&#45;cbmc/diffblue&#45;cbmc/jbmc</text>
<text text-anchor="middle" x="1313.5" y="-13" font-family="Helvetica,sans-Serif" font-size="10.00">/src/jbmc/jbmc_parse_options.cpp</text>
</a>
</g>
</g>
<!-- Node6&#45;&gt;Node14 -->
<g id="edge15" class="edge">
<title>Node6&#45;&gt;Node14</title>
<path fill="none" stroke="midnightblue" d="M1217.66,-188.57C1246.31,-179.56 1274.98,-165.12 1294.5,-142 1316.99,-115.37 1317.76,-72.44 1315.9,-47.4"/>
<polygon fill="midnightblue" stroke="midnightblue" points="1216.57,-185.25 1207.96,-191.43 1218.54,-191.96 1216.57,-185.25"/>
</g>
<!-- Node15 -->
<g id="node15" class="node">
<title>Node15</title>
<g id="a_node15"><a xlink:href="jbmc__parse__options_8h.html" target="_top" xlink:title="JBMC Command Line Option Processing.">
<polygon fill="none" stroke="black" points="1341.5,-95 1341.5,-136 1511.5,-136 1511.5,-95 1341.5,-95"/>
<text text-anchor="start" x="1349.5" y="-124" font-family="Helvetica,sans-Serif" font-size="10.00">/home/runner/work/diffblue</text>
<text text-anchor="start" x="1349.5" y="-113" font-family="Helvetica,sans-Serif" font-size="10.00">&#45;cbmc/diffblue&#45;cbmc/jbmc</text>
<text text-anchor="middle" x="1426.5" y="-102" font-family="Helvetica,sans-Serif" font-size="10.00">/src/jbmc/jbmc_parse_options.h</text>
</a>
</g>
</g>
<!-- Node6&#45;&gt;Node15 -->
<g id="edge16" class="edge">
<title>Node6&#45;&gt;Node15</title>
<path fill="none" stroke="midnightblue" d="M1215.43,-175.74C1261.36,-162.85 1314.88,-147.82 1356.54,-136.13"/>
<polygon fill="midnightblue" stroke="midnightblue" points="1214.43,-172.38 1205.75,-178.45 1216.32,-179.12 1214.43,-172.38"/>
</g>
<!-- Node17 -->
<g id="node17" class="node">
<title>Node17</title>
<g id="a_node17"><a xlink:href="jdiff__languages_8cpp.html" target="_top" xlink:title="Language Registration.">
<polygon fill="none" stroke="black" points="1530,-95 1530,-136 1683,-136 1683,-95 1530,-95"/>
<text text-anchor="start" x="1538" y="-124" font-family="Helvetica,sans-Serif" font-size="10.00">/home/runner/work/diffblue</text>
<text text-anchor="start" x="1538" y="-113" font-family="Helvetica,sans-Serif" font-size="10.00">&#45;cbmc/diffblue&#45;cbmc/jbmc</text>
<text text-anchor="middle" x="1606.5" y="-102" font-family="Helvetica,sans-Serif" font-size="10.00">/src/jdiff/jdiff_languages.cpp</text>
</a>
</g>
</g>
<!-- Node6&#45;&gt;Node17 -->
<g id="edge19" class="edge">
<title>Node6&#45;&gt;Node17</title>
<path fill="none" stroke="midnightblue" d="M1217.9,-191.98C1300.04,-181.71 1418.47,-164.78 1520.5,-142 1528.25,-140.27 1536.33,-138.22 1544.29,-136.04"/>
<polygon fill="midnightblue" stroke="midnightblue" points="1217.31,-188.53 1207.82,-193.23 1218.17,-195.47 1217.31,-188.53"/>
</g>
<!-- Node18 -->
<g id="node18" class="node">
<title>Node18</title>
<g id="a_node18"><a xlink:href="jdiff__parse__options_8cpp.html" target="_top" xlink:title="JDIFF Command Line Option Processing.">
<polygon fill="none" stroke="black" points="1701,-95 1701,-136 1872,-136 1872,-95 1701,-95"/>
<text text-anchor="start" x="1709" y="-124" font-family="Helvetica,sans-Serif" font-size="10.00">/home/runner/work/diffblue</text>
<text text-anchor="start" x="1709" y="-113" font-family="Helvetica,sans-Serif" font-size="10.00">&#45;cbmc/diffblue&#45;cbmc/jbmc</text>
<text text-anchor="middle" x="1786.5" y="-102" font-family="Helvetica,sans-Serif" font-size="10.00">/src/jdiff/jdiff_parse_options.cpp</text>
</a>
</g>
</g>
<!-- Node6&#45;&gt;Node18 -->
<g id="edge20" class="edge">
<title>Node6&#45;&gt;Node18</title>
<path fill="none" stroke="midnightblue" d="M1218.19,-197.53C1333.83,-189.62 1527.95,-172.9 1692.5,-142 1701.31,-140.35 1710.5,-138.28 1719.53,-136.05"/>
<polygon fill="midnightblue" stroke="midnightblue" points="1217.68,-194.06 1207.93,-198.23 1218.15,-201.04 1217.68,-194.06"/>
</g>
<!-- Node19 -->
<g id="node19" class="node">
<title>Node19</title>
<g id="a_node19"><a xlink:href="load__java__class_8cpp.html" target="_top" xlink:title=" ">
<polygon fill="none" stroke="black" points="1890,-89.5 1890,-141.5 2039,-141.5 2039,-89.5 1890,-89.5"/>
<text text-anchor="start" x="1898" y="-129.5" font-family="Helvetica,sans-Serif" font-size="10.00">/home/runner/work/diffblue</text>
<text text-anchor="start" x="1898" y="-118.5" font-family="Helvetica,sans-Serif" font-size="10.00">&#45;cbmc/diffblue&#45;cbmc/jbmc</text>
<text text-anchor="start" x="1898" y="-107.5" font-family="Helvetica,sans-Serif" font-size="10.00">/unit/java&#45;testing&#45;utils</text>
<text text-anchor="middle" x="1964.5" y="-96.5" font-family="Helvetica,sans-Serif" font-size="10.00">/load_java_class.cpp</text>
</a>
</g>
</g>
<!-- Node6&#45;&gt;Node19 -->
<g id="edge21" class="edge">
<title>Node6&#45;&gt;Node19</title>
<path fill="none" stroke="midnightblue" d="M1218.12,-202.34C1365.56,-199.09 1646.83,-186.92 1881.5,-142 1884.17,-141.49 1886.87,-140.93 1889.58,-140.32"/>
<polygon fill="midnightblue" stroke="midnightblue" points="1217.66,-198.85 1207.74,-202.56 1217.81,-205.85 1217.66,-198.85"/>
</g>
<!-- Node8&#45;&gt;Node7 -->
<g id="edge10" class="edge">
<title>Node8&#45;&gt;Node7</title>
<path fill="none" stroke="midnightblue" d="M448.16,-82.65C436.55,-72.75 423.92,-61.98 412.94,-52.61"/>
<polygon fill="midnightblue" stroke="midnightblue" points="446.12,-85.51 456,-89.34 450.66,-80.18 446.12,-85.51"/>
</g>
<!-- Node9 -->
<g id="node9" class="node">
<title>Node9</title>
<g id="a_node9"><a xlink:href="janalyzer__main_8cpp.html" target="_top" xlink:title="JANALYZER Main Module.">
<polygon fill="none" stroke="black" points="476,-0.5 476,-52.5 625,-52.5 625,-0.5 476,-0.5"/>
<text text-anchor="start" x="484" y="-40.5" font-family="Helvetica,sans-Serif" font-size="10.00">/home/runner/work/diffblue</text>
<text text-anchor="start" x="484" y="-29.5" font-family="Helvetica,sans-Serif" font-size="10.00">&#45;cbmc/diffblue&#45;cbmc/jbmc</text>
<text text-anchor="start" x="484" y="-18.5" font-family="Helvetica,sans-Serif" font-size="10.00">/src/janalyzer/janalyzer</text>
<text text-anchor="middle" x="550.5" y="-7.5" font-family="Helvetica,sans-Serif" font-size="10.00">_main.cpp</text>
</a>
</g>
</g>
<!-- Node8&#45;&gt;Node9 -->
<g id="edge9" class="edge">
<title>Node8&#45;&gt;Node9</title>
<path fill="none" stroke="midnightblue" d="M510.37,-81.22C517.46,-71.72 525.08,-61.53 531.74,-52.61"/>
<polygon fill="midnightblue" stroke="midnightblue" points="507.48,-79.23 504.3,-89.34 513.09,-83.42 507.48,-79.23"/>
</g>
<!-- Node15&#45;&gt;Node14 -->
<g id="edge18" class="edge">
<title>Node15&#45;&gt;Node14</title>
<path fill="none" stroke="midnightblue" d="M1393,-88.71C1375.77,-75.44 1355.11,-59.53 1339.17,-47.26"/>
<polygon fill="midnightblue" stroke="midnightblue" points="1391.08,-91.65 1401.14,-94.98 1395.35,-86.1 1391.08,-91.65"/>
</g>
<!-- Node16 -->
<g id="node16" class="node">
<title>Node16</title>
<g id="a_node16"><a xlink:href="jbmc__main_8cpp.html" target="_top" xlink:title="CBMC Main Module.">
<polygon fill="none" stroke="black" points="1423,-6 1423,-47 1572,-47 1572,-6 1423,-6"/>
<text text-anchor="start" x="1431" y="-35" font-family="Helvetica,sans-Serif" font-size="10.00">/home/runner/work/diffblue</text>
<text text-anchor="start" x="1431" y="-24" font-family="Helvetica,sans-Serif" font-size="10.00">&#45;cbmc/diffblue&#45;cbmc/jbmc</text>
<text text-anchor="middle" x="1497.5" y="-13" font-family="Helvetica,sans-Serif" font-size="10.00">/src/jbmc/jbmc_main.cpp</text>
</a>
</g>
</g>
<!-- Node15&#45;&gt;Node16 -->
<g id="edge17" class="edge">
<title>Node15&#45;&gt;Node16</title>
<path fill="none" stroke="midnightblue" d="M1449.22,-86.67C1459.71,-73.8 1471.93,-58.83 1481.45,-47.16"/>
<polygon fill="midnightblue" stroke="midnightblue" points="1446.22,-84.8 1442.61,-94.76 1451.65,-89.22 1446.22,-84.8"/>
</g>
</g>
</svg>
