<?xml version="1.0" encoding="UTF-8" standalone="no"?>
<!DOCTYPE svg PUBLIC "-//W3C//DTD SVG 1.1//EN"
 "http://www.w3.org/Graphics/SVG/1.1/DTD/svg11.dtd">
<!-- Generated by graphviz version 2.43.0 (0)
 -->
<!-- Title: /home/runner/work/diffblue&#45;cbmc/diffblue&#45;cbmc/src/goto&#45;harness/common_harness_generator_options.h Pages: 1 -->
<svg width="680pt" height="328pt"
 viewBox="0.00 0.00 679.50 328.00" xmlns="http://www.w3.org/2000/svg" xmlns:xlink="http://www.w3.org/1999/xlink">
<g id="graph0" class="graph" transform="scale(1 1) rotate(0) translate(4 324)">
<title>/home/runner/work/diffblue&#45;cbmc/diffblue&#45;cbmc/src/goto&#45;harness/common_harness_generator_options.h</title>
<!-- Node1 -->
<g id="node1" class="node">
<title>Node1</title>
<g id="a_node1"><a xlink:title=" ">
<polygon fill="#bfbfbf" stroke="black" points="260,-267.5 260,-319.5 433,-319.5 433,-267.5 260,-267.5"/>
<text text-anchor="start" x="268" y="-307.5" font-family="Helvetica,sans-Serif" font-size="10.00">/home/runner/work/diffblue</text>
<text text-anchor="start" x="268" y="-296.5" font-family="Helvetica,sans-Serif" font-size="10.00">&#45;cbmc/diffblue&#45;cbmc/src</text>
<text text-anchor="start" x="268" y="-285.5" font-family="Helvetica,sans-Serif" font-size="10.00">/goto&#45;harness/common_harness</text>
<text text-anchor="middle" x="346.5" y="-274.5" font-family="Helvetica,sans-Serif" font-size="10.00">_generator_options.h</text>
</a>
</g>
</g>
<!-- Node2 -->
<g id="node2" class="node">
<title>Node2</title>
<g id="a_node2"><a xlink:href="function__harness__generator__options_8h.html" target="_top" xlink:title=" ">
<polygon fill="none" stroke="black" points="69.5,-178.5 69.5,-230.5 239.5,-230.5 239.5,-178.5 69.5,-178.5"/>
<text text-anchor="start" x="77.5" y="-218.5" font-family="Helvetica,sans-Serif" font-size="10.00">/home/runner/work/diffblue</text>
<text text-anchor="start" x="77.5" y="-207.5" font-family="Helvetica,sans-Serif" font-size="10.00">&#45;cbmc/diffblue&#45;cbmc/src</text>
<text text-anchor="start" x="77.5" y="-196.5" font-family="Helvetica,sans-Serif" font-size="10.00">/goto&#45;harness/function_harness</text>
<text text-anchor="middle" x="154.5" y="-185.5" font-family="Helvetica,sans-Serif" font-size="10.00">_generator_options.h</text>
</a>
</g>
</g>
<!-- Node1&#45;&gt;Node2 -->
<g id="edge1" class="edge">
<title>Node1&#45;&gt;Node2</title>
<path fill="none" stroke="midnightblue" d="M282.05,-263.29C258.59,-252.67 232.3,-240.76 209.72,-230.52"/>
<polygon fill="midnightblue" stroke="midnightblue" points="280.67,-266.51 291.22,-267.45 283.56,-260.14 280.67,-266.51"/>
</g>
<!-- Node7 -->
<g id="node7" class="node">
<title>Node7</title>
<g id="a_node7"><a xlink:href="memory__snapshot__harness__generator__options_8h.html" target="_top" xlink:title=" ">
<polygon fill="none" stroke="black" points="258,-178.5 258,-230.5 435,-230.5 435,-178.5 258,-178.5"/>
<text text-anchor="start" x="266" y="-218.5" font-family="Helvetica,sans-Serif" font-size="10.00">/home/runner/work/diffblue</text>
<text text-anchor="start" x="266" y="-207.5" font-family="Helvetica,sans-Serif" font-size="10.00">&#45;cbmc/diffblue&#45;cbmc/src</text>
<text text-anchor="start" x="266" y="-196.5" font-family="Helvetica,sans-Serif" font-size="10.00">/goto&#45;harness/memory_snapshot</text>
<text text-anchor="middle" x="346.5" y="-185.5" font-family="Helvetica,sans-Serif" font-size="10.00">_harness_generator_options.h</text>
</a>
</g>
</g>
<!-- Node1&#45;&gt;Node7 -->
<g id="edge6" class="edge">
<title>Node1&#45;&gt;Node7</title>
<path fill="none" stroke="midnightblue" d="M346.5,-257.19C346.5,-248.28 346.5,-238.9 346.5,-230.61"/>
<polygon fill="midnightblue" stroke="midnightblue" points="343,-257.34 346.5,-267.34 350,-257.34 343,-257.34"/>
</g>
<!-- Node9 -->
<g id="node9" class="node">
<title>Node9</title>
<g id="a_node9"><a xlink:href="recursive__initialization_8cpp.html" target="_top" xlink:title=" ">
<polygon fill="none" stroke="black" points="453.5,-184 453.5,-225 671.5,-225 671.5,-184 453.5,-184"/>
<text text-anchor="start" x="461.5" y="-213" font-family="Helvetica,sans-Serif" font-size="10.00">/home/runner/work/diffblue</text>
<text text-anchor="start" x="461.5" y="-202" font-family="Helvetica,sans-Serif" font-size="10.00">&#45;cbmc/diffblue&#45;cbmc/src</text>
<text text-anchor="middle" x="562.5" y="-191" font-family="Helvetica,sans-Serif" font-size="10.00">/goto&#45;harness/recursive_initialization.cpp</text>
</a>
</g>
</g>
<!-- Node1&#45;&gt;Node9 -->
<g id="edge9" class="edge">
<title>Node1&#45;&gt;Node9</title>
<path fill="none" stroke="midnightblue" d="M418.26,-263.6C449.61,-250.97 485.58,-236.48 513.75,-225.13"/>
<polygon fill="midnightblue" stroke="midnightblue" points="416.65,-260.47 408.69,-267.45 419.27,-266.96 416.65,-260.47"/>
</g>
<!-- Node3 -->
<g id="node3" class="node">
<title>Node3</title>
<g id="a_node3"><a xlink:href="function__call__harness__generator_8cpp.html" target="_top" xlink:title=" ">
<polygon fill="none" stroke="black" points="0,-89.5 0,-141.5 149,-141.5 149,-89.5 0,-89.5"/>
<text text-anchor="start" x="8" y="-129.5" font-family="Helvetica,sans-Serif" font-size="10.00">/home/runner/work/diffblue</text>
<text text-anchor="start" x="8" y="-118.5" font-family="Helvetica,sans-Serif" font-size="10.00">&#45;cbmc/diffblue&#45;cbmc/src</text>
<text text-anchor="start" x="8" y="-107.5" font-family="Helvetica,sans-Serif" font-size="10.00">/goto&#45;harness/function_call</text>
<text text-anchor="middle" x="74.5" y="-96.5" font-family="Helvetica,sans-Serif" font-size="10.00">_harness_generator.cpp</text>
</a>
</g>
</g>
<!-- Node2&#45;&gt;Node3 -->
<g id="edge2" class="edge">
<title>Node2&#45;&gt;Node3</title>
<path fill="none" stroke="midnightblue" d="M124.42,-170.79C115.54,-161.13 105.96,-150.71 97.59,-141.61"/>
<polygon fill="midnightblue" stroke="midnightblue" points="122.02,-173.34 131.36,-178.34 127.17,-168.61 122.02,-173.34"/>
</g>
<!-- Node4 -->
<g id="node4" class="node">
<title>Node4</title>
<g id="a_node4"><a xlink:href="goto__harness__parse__options_8h.html" target="_top" xlink:title=" ">
<polygon fill="none" stroke="black" points="167.5,-89.5 167.5,-141.5 319.5,-141.5 319.5,-89.5 167.5,-89.5"/>
<text text-anchor="start" x="175.5" y="-129.5" font-family="Helvetica,sans-Serif" font-size="10.00">/home/runner/work/diffblue</text>
<text text-anchor="start" x="175.5" y="-118.5" font-family="Helvetica,sans-Serif" font-size="10.00">&#45;cbmc/diffblue&#45;cbmc/src</text>
<text text-anchor="start" x="175.5" y="-107.5" font-family="Helvetica,sans-Serif" font-size="10.00">/goto&#45;harness/goto_harness</text>
<text text-anchor="middle" x="243.5" y="-96.5" font-family="Helvetica,sans-Serif" font-size="10.00">_parse_options.h</text>
</a>
</g>
</g>
<!-- Node2&#45;&gt;Node4 -->
<g id="edge3" class="edge">
<title>Node2&#45;&gt;Node4</title>
<path fill="none" stroke="midnightblue" d="M187.67,-171.08C197.63,-161.34 208.41,-150.8 217.82,-141.61"/>
<polygon fill="midnightblue" stroke="midnightblue" points="184.95,-168.84 180.24,-178.34 189.84,-173.85 184.95,-168.84"/>
</g>
<!-- Node5 -->
<g id="node5" class="node">
<title>Node5</title>
<g id="a_node5"><a xlink:href="goto__harness__main_8cpp.html" target="_top" xlink:title=" ">
<polygon fill="none" stroke="black" points="82.5,-0.5 82.5,-52.5 234.5,-52.5 234.5,-0.5 82.5,-0.5"/>
<text text-anchor="start" x="90.5" y="-40.5" font-family="Helvetica,sans-Serif" font-size="10.00">/home/runner/work/diffblue</text>
<text text-anchor="start" x="90.5" y="-29.5" font-family="Helvetica,sans-Serif" font-size="10.00">&#45;cbmc/diffblue&#45;cbmc/src</text>
<text text-anchor="start" x="90.5" y="-18.5" font-family="Helvetica,sans-Serif" font-size="10.00">/goto&#45;harness/goto_harness</text>
<text text-anchor="middle" x="158.5" y="-7.5" font-family="Helvetica,sans-Serif" font-size="10.00">_main.cpp</text>
</a>
</g>
</g>
<!-- Node4&#45;&gt;Node5 -->
<g id="edge4" class="edge">
<title>Node4&#45;&gt;Node5</title>
<path fill="none" stroke="midnightblue" d="M211.82,-82.08C202.3,-72.34 192.01,-61.8 183.03,-52.61"/>
<polygon fill="midnightblue" stroke="midnightblue" points="209.42,-84.63 218.91,-89.34 214.43,-79.74 209.42,-84.63"/>
</g>
<!-- Node6 -->
<g id="node6" class="node">
<title>Node6</title>
<g id="a_node6"><a xlink:href="goto__harness__parse__options_8cpp.html" target="_top" xlink:title=" ">
<polygon fill="none" stroke="black" points="252.5,-0.5 252.5,-52.5 404.5,-52.5 404.5,-0.5 252.5,-0.5"/>
<text text-anchor="start" x="260.5" y="-40.5" font-family="Helvetica,sans-Serif" font-size="10.00">/home/runner/work/diffblue</text>
<text text-anchor="start" x="260.5" y="-29.5" font-family="Helvetica,sans-Serif" font-size="10.00">&#45;cbmc/diffblue&#45;cbmc/src</text>
<text text-anchor="start" x="260.5" y="-18.5" font-family="Helvetica,sans-Serif" font-size="10.00">/goto&#45;harness/goto_harness</text>
<text text-anchor="middle" x="328.5" y="-7.5" font-family="Helvetica,sans-Serif" font-size="10.00">_parse_options.cpp</text>
</a>
</g>
</g>
<!-- Node4&#45;&gt;Node6 -->
<g id="edge5" class="edge">
<title>Node4&#45;&gt;Node6</title>
<path fill="none" stroke="midnightblue" d="M275.18,-82.08C284.7,-72.34 294.99,-61.8 303.97,-52.61"/>
<polygon fill="midnightblue" stroke="midnightblue" points="272.57,-79.74 268.09,-89.34 277.58,-84.63 272.57,-79.74"/>
</g>
<!-- Node7&#45;&gt;Node4 -->
<g id="edge7" class="edge">
<title>Node7&#45;&gt;Node4</title>
<path fill="none" stroke="midnightblue" d="M308.79,-171.65C297.07,-161.75 284.32,-150.98 273.22,-141.61"/>
<polygon fill="midnightblue" stroke="midnightblue" points="306.81,-174.56 316.71,-178.34 311.33,-169.21 306.81,-174.56"/>
</g>
<!-- Node8 -->
<g id="node8" class="node">
<title>Node8</title>
<g id="a_node8"><a xlink:href="memory__snapshot__harness__generator_8cpp.html" target="_top" xlink:title=" ">
<polygon fill="none" stroke="black" points="338,-89.5 338,-141.5 515,-141.5 515,-89.5 338,-89.5"/>
<text text-anchor="start" x="346" y="-129.5" font-family="Helvetica,sans-Serif" font-size="10.00">/home/runner/work/diffblue</text>
<text text-anchor="start" x="346" y="-118.5" font-family="Helvetica,sans-Serif" font-size="10.00">&#45;cbmc/diffblue&#45;cbmc/src</text>
<text text-anchor="start" x="346" y="-107.5" font-family="Helvetica,sans-Serif" font-size="10.00">/goto&#45;harness/memory_snapshot</text>
<text text-anchor="middle" x="426.5" y="-96.5" font-family="Helvetica,sans-Serif" font-size="10.00">_harness_generator.cpp</text>
</a>
</g>
</g>
<!-- Node7&#45;&gt;Node8 -->
<g id="edge8" class="edge">
<title>Node7&#45;&gt;Node8</title>
<path fill="none" stroke="midnightblue" d="M376.58,-170.79C385.46,-161.13 395.04,-150.71 403.41,-141.61"/>
<polygon fill="midnightblue" stroke="midnightblue" points="373.83,-168.61 369.64,-178.34 378.98,-173.34 373.83,-168.61"/>
</g>
</g>
</svg>
