<?xml version="1.0" encoding="UTF-8" standalone="no"?>
<!DOCTYPE svg PUBLIC "-//W3C//DTD SVG 1.1//EN"
 "http://www.w3.org/Graphics/SVG/1.1/DTD/svg11.dtd">
<!-- Generated by graphviz version 2.43.0 (0)
 -->
<!-- Title: /home/runner/work/diffblue&#45;cbmc/diffblue&#45;cbmc/src/goto&#45;instrument/accelerate/cone_of_influence.h Pages: 1 -->
<svg width="1506pt" height="417pt"
 viewBox="0.00 0.00 1506.00 417.00" xmlns="http://www.w3.org/2000/svg" xmlns:xlink="http://www.w3.org/1999/xlink">
<g id="graph0" class="graph" transform="scale(1 1) rotate(0) translate(4 413)">
<title>/home/runner/work/diffblue&#45;cbmc/diffblue&#45;cbmc/src/goto&#45;instrument/accelerate/cone_of_influence.h</title>
<!-- Node1 -->
<g id="node1" class="node">
<title>Node1</title>
<g id="a_node1"><a xlink:title="Loop Acceleration.">
<polygon fill="#bfbfbf" stroke="black" points="854,-356.5 854,-408.5 1006,-408.5 1006,-356.5 854,-356.5"/>
<text text-anchor="start" x="862" y="-396.5" font-family="Helvetica,sans-Serif" font-size="10.00">/home/runner/work/diffblue</text>
<text text-anchor="start" x="862" y="-385.5" font-family="Helvetica,sans-Serif" font-size="10.00">&#45;cbmc/diffblue&#45;cbmc/src</text>
<text text-anchor="start" x="862" y="-374.5" font-family="Helvetica,sans-Serif" font-size="10.00">/goto&#45;instrument/accelerate</text>
<text text-anchor="middle" x="930" y="-363.5" font-family="Helvetica,sans-Serif" font-size="10.00">/cone_of_influence.h</text>
</a>
</g>
</g>
<!-- Node2 -->
<g id="node2" class="node">
<title>Node2</title>
<g id="a_node2"><a xlink:href="acceleration__utils_8cpp.html" target="_top" xlink:title="Loop Acceleration.">
<polygon fill="none" stroke="black" points="854,-178.5 854,-230.5 1006,-230.5 1006,-178.5 854,-178.5"/>
<text text-anchor="start" x="862" y="-218.5" font-family="Helvetica,sans-Serif" font-size="10.00">/home/runner/work/diffblue</text>
<text text-anchor="start" x="862" y="-207.5" font-family="Helvetica,sans-Serif" font-size="10.00">&#45;cbmc/diffblue&#45;cbmc/src</text>
<text text-anchor="start" x="862" y="-196.5" font-family="Helvetica,sans-Serif" font-size="10.00">/goto&#45;instrument/accelerate</text>
<text text-anchor="middle" x="930" y="-185.5" font-family="Helvetica,sans-Serif" font-size="10.00">/acceleration_utils.cpp</text>
</a>
</g>
</g>
<!-- Node1&#45;&gt;Node2 -->
<g id="edge1" class="edge">
<title>Node1&#45;&gt;Node2</title>
<path fill="none" stroke="midnightblue" d="M930,-346.25C930,-312.04 930,-260.97 930,-230.67"/>
<polygon fill="midnightblue" stroke="midnightblue" points="926.5,-346.28 930,-356.28 933.5,-346.28 926.5,-346.28"/>
</g>
<!-- Node3 -->
<g id="node3" class="node">
<title>Node3</title>
<g id="a_node3"><a xlink:href="acceleration__utils_8h.html" target="_top" xlink:title="Loop Acceleration.">
<polygon fill="none" stroke="black" points="633,-267.5 633,-319.5 785,-319.5 785,-267.5 633,-267.5"/>
<text text-anchor="start" x="641" y="-307.5" font-family="Helvetica,sans-Serif" font-size="10.00">/home/runner/work/diffblue</text>
<text text-anchor="start" x="641" y="-296.5" font-family="Helvetica,sans-Serif" font-size="10.00">&#45;cbmc/diffblue&#45;cbmc/src</text>
<text text-anchor="start" x="641" y="-285.5" font-family="Helvetica,sans-Serif" font-size="10.00">/goto&#45;instrument/accelerate</text>
<text text-anchor="middle" x="709" y="-274.5" font-family="Helvetica,sans-Serif" font-size="10.00">/acceleration_utils.h</text>
</a>
</g>
</g>
<!-- Node1&#45;&gt;Node3 -->
<g id="edge2" class="edge">
<title>Node1&#45;&gt;Node3</title>
<path fill="none" stroke="midnightblue" d="M856.88,-352.72C829.61,-341.98 798.9,-329.89 772.56,-319.52"/>
<polygon fill="midnightblue" stroke="midnightblue" points="855.79,-356.05 866.37,-356.45 858.35,-349.53 855.79,-356.05"/>
</g>
<!-- Node7 -->
<g id="node7" class="node">
<title>Node7</title>
<g id="a_node7"><a xlink:href="disjunctive__polynomial__acceleration_8h.html" target="_top" xlink:title="Loop Acceleration.">
<polygon fill="none" stroke="black" points="628.5,-178.5 628.5,-230.5 835.5,-230.5 835.5,-178.5 628.5,-178.5"/>
<text text-anchor="start" x="636.5" y="-218.5" font-family="Helvetica,sans-Serif" font-size="10.00">/home/runner/work/diffblue</text>
<text text-anchor="start" x="636.5" y="-207.5" font-family="Helvetica,sans-Serif" font-size="10.00">&#45;cbmc/diffblue&#45;cbmc/src</text>
<text text-anchor="start" x="636.5" y="-196.5" font-family="Helvetica,sans-Serif" font-size="10.00">/goto&#45;instrument/accelerate</text>
<text text-anchor="middle" x="732" y="-185.5" font-family="Helvetica,sans-Serif" font-size="10.00">/disjunctive_polynomial_acceleration.h</text>
</a>
</g>
</g>
<!-- Node1&#45;&gt;Node7 -->
<g id="edge20" class="edge">
<title>Node1&#45;&gt;Node7</title>
<path fill="none" stroke="midnightblue" d="M893.77,-349.3C855.34,-315.14 795.43,-261.88 760.32,-230.67"/>
<polygon fill="midnightblue" stroke="midnightblue" points="891.83,-352.26 901.63,-356.28 896.48,-347.02 891.83,-352.26"/>
</g>
<!-- Node8 -->
<g id="node8" class="node">
<title>Node8</title>
<g id="a_node8"><a xlink:href="disjunctive__polynomial__acceleration_8cpp.html" target="_top" xlink:title="Loop Acceleration.">
<polygon fill="none" stroke="black" points="623,-89.5 623,-141.5 841,-141.5 841,-89.5 623,-89.5"/>
<text text-anchor="start" x="631" y="-129.5" font-family="Helvetica,sans-Serif" font-size="10.00">/home/runner/work/diffblue</text>
<text text-anchor="start" x="631" y="-118.5" font-family="Helvetica,sans-Serif" font-size="10.00">&#45;cbmc/diffblue&#45;cbmc/src</text>
<text text-anchor="start" x="631" y="-107.5" font-family="Helvetica,sans-Serif" font-size="10.00">/goto&#45;instrument/accelerate</text>
<text text-anchor="middle" x="732" y="-96.5" font-family="Helvetica,sans-Serif" font-size="10.00">/disjunctive_polynomial_acceleration.cpp</text>
</a>
</g>
</g>
<!-- Node1&#45;&gt;Node8 -->
<g id="edge19" class="edge">
<title>Node1&#45;&gt;Node8</title>
<path fill="none" stroke="midnightblue" d="M962.78,-348.94C1001.89,-306.1 1057.05,-230.17 1015,-178 993.03,-150.74 911.23,-134.94 841.19,-126.2"/>
<polygon fill="midnightblue" stroke="midnightblue" points="960.19,-346.58 955.93,-356.28 965.31,-351.35 960.19,-346.58"/>
</g>
<!-- Node9 -->
<g id="node9" class="node">
<title>Node9</title>
<g id="a_node9"><a xlink:href="polynomial__accelerator_8h.html" target="_top" xlink:title="Loop Acceleration.">
<polygon fill="none" stroke="black" points="458,-178.5 458,-230.5 610,-230.5 610,-178.5 458,-178.5"/>
<text text-anchor="start" x="466" y="-218.5" font-family="Helvetica,sans-Serif" font-size="10.00">/home/runner/work/diffblue</text>
<text text-anchor="start" x="466" y="-207.5" font-family="Helvetica,sans-Serif" font-size="10.00">&#45;cbmc/diffblue&#45;cbmc/src</text>
<text text-anchor="start" x="466" y="-196.5" font-family="Helvetica,sans-Serif" font-size="10.00">/goto&#45;instrument/accelerate</text>
<text text-anchor="middle" x="534" y="-185.5" font-family="Helvetica,sans-Serif" font-size="10.00">/polynomial_accelerator.h</text>
</a>
</g>
</g>
<!-- Node1&#45;&gt;Node9 -->
<g id="edge27" class="edge">
<title>Node1&#45;&gt;Node9</title>
<path fill="none" stroke="midnightblue" d="M843.76,-379.97C779.03,-375.24 690.48,-360.9 624,-320 588.68,-298.27 561.68,-257.39 546.83,-230.82"/>
<polygon fill="midnightblue" stroke="midnightblue" points="843.73,-383.47 853.94,-380.64 844.19,-376.49 843.73,-383.47"/>
</g>
<!-- Node12 -->
<g id="node12" class="node">
<title>Node12</title>
<g id="a_node12"><a xlink:href="polynomial__accelerator_8cpp.html" target="_top" xlink:title="Loop Acceleration.">
<polygon fill="none" stroke="black" points="1098,-89.5 1098,-141.5 1252,-141.5 1252,-89.5 1098,-89.5"/>
<text text-anchor="start" x="1106" y="-129.5" font-family="Helvetica,sans-Serif" font-size="10.00">/home/runner/work/diffblue</text>
<text text-anchor="start" x="1106" y="-118.5" font-family="Helvetica,sans-Serif" font-size="10.00">&#45;cbmc/diffblue&#45;cbmc/src</text>
<text text-anchor="start" x="1106" y="-107.5" font-family="Helvetica,sans-Serif" font-size="10.00">/goto&#45;instrument/accelerate</text>
<text text-anchor="middle" x="1175" y="-96.5" font-family="Helvetica,sans-Serif" font-size="10.00">/polynomial_accelerator.cpp</text>
</a>
</g>
</g>
<!-- Node1&#45;&gt;Node12 -->
<g id="edge26" class="edge">
<title>Node1&#45;&gt;Node12</title>
<path fill="none" stroke="midnightblue" d="M1016.2,-373.92C1092.01,-365.44 1194.59,-348.93 1223,-320 1267.54,-274.65 1265.13,-236.38 1240,-178 1233.92,-163.87 1222.82,-151.48 1211.49,-141.58"/>
<polygon fill="midnightblue" stroke="midnightblue" points="1015.72,-370.45 1006.16,-375.01 1016.48,-377.41 1015.72,-370.45"/>
</g>
<!-- Node13 -->
<g id="node13" class="node">
<title>Node13</title>
<g id="a_node13"><a xlink:href="sat__path__enumerator_8h.html" target="_top" xlink:title="Loop Acceleration.">
<polygon fill="none" stroke="black" points="118,-178.5 118,-230.5 270,-230.5 270,-178.5 118,-178.5"/>
<text text-anchor="start" x="126" y="-218.5" font-family="Helvetica,sans-Serif" font-size="10.00">/home/runner/work/diffblue</text>
<text text-anchor="start" x="126" y="-207.5" font-family="Helvetica,sans-Serif" font-size="10.00">&#45;cbmc/diffblue&#45;cbmc/src</text>
<text text-anchor="start" x="126" y="-196.5" font-family="Helvetica,sans-Serif" font-size="10.00">/goto&#45;instrument/accelerate</text>
<text text-anchor="middle" x="194" y="-185.5" font-family="Helvetica,sans-Serif" font-size="10.00">/sat_path_enumerator.h</text>
</a>
</g>
</g>
<!-- Node1&#45;&gt;Node13 -->
<g id="edge28" class="edge">
<title>Node1&#45;&gt;Node13</title>
<path fill="none" stroke="midnightblue" d="M843.55,-370.16C769.39,-359.65 659.95,-342.29 566,-320 459.98,-294.84 339.93,-255.95 265.59,-230.61"/>
<polygon fill="midnightblue" stroke="midnightblue" points="843.39,-373.67 853.78,-371.59 844.36,-366.73 843.39,-373.67"/>
</g>
<!-- Node15 -->
<g id="node15" class="node">
<title>Node15</title>
<g id="a_node15"><a xlink:href="cone__of__influence_8cpp.html" target="_top" xlink:title="Loop Acceleration.">
<polygon fill="none" stroke="black" points="1346,-267.5 1346,-319.5 1498,-319.5 1498,-267.5 1346,-267.5"/>
<text text-anchor="start" x="1354" y="-307.5" font-family="Helvetica,sans-Serif" font-size="10.00">/home/runner/work/diffblue</text>
<text text-anchor="start" x="1354" y="-296.5" font-family="Helvetica,sans-Serif" font-size="10.00">&#45;cbmc/diffblue&#45;cbmc/src</text>
<text text-anchor="start" x="1354" y="-285.5" font-family="Helvetica,sans-Serif" font-size="10.00">/goto&#45;instrument/accelerate</text>
<text text-anchor="middle" x="1422" y="-274.5" font-family="Helvetica,sans-Serif" font-size="10.00">/cone_of_influence.cpp</text>
</a>
</g>
</g>
<!-- Node1&#45;&gt;Node15 -->
<g id="edge18" class="edge">
<title>Node1&#45;&gt;Node15</title>
<path fill="none" stroke="midnightblue" d="M1016.09,-371.48C1097.87,-361.21 1224.04,-343.46 1332,-320 1336.44,-319.03 1340.99,-317.98 1345.57,-316.85"/>
<polygon fill="midnightblue" stroke="midnightblue" points="1015.58,-368.01 1006.09,-372.72 1016.44,-374.96 1015.58,-368.01"/>
</g>
<!-- Node16 -->
<g id="node16" class="node">
<title>Node16</title>
<g id="a_node16"><a xlink:href="overflow__instrumenter_8h.html" target="_top" xlink:title="Loop Acceleration.">
<polygon fill="none" stroke="black" points="1062,-267.5 1062,-319.5 1214,-319.5 1214,-267.5 1062,-267.5"/>
<text text-anchor="start" x="1070" y="-307.5" font-family="Helvetica,sans-Serif" font-size="10.00">/home/runner/work/diffblue</text>
<text text-anchor="start" x="1070" y="-296.5" font-family="Helvetica,sans-Serif" font-size="10.00">&#45;cbmc/diffblue&#45;cbmc/src</text>
<text text-anchor="start" x="1070" y="-285.5" font-family="Helvetica,sans-Serif" font-size="10.00">/goto&#45;instrument/accelerate</text>
<text text-anchor="middle" x="1138" y="-274.5" font-family="Helvetica,sans-Serif" font-size="10.00">/overflow_instrumenter.h</text>
</a>
</g>
</g>
<!-- Node1&#45;&gt;Node16 -->
<g id="edge21" class="edge">
<title>Node1&#45;&gt;Node16</title>
<path fill="none" stroke="midnightblue" d="M999.15,-352.58C1024.73,-341.88 1053.5,-329.85 1078.18,-319.52"/>
<polygon fill="midnightblue" stroke="midnightblue" points="997.76,-349.36 989.88,-356.45 1000.46,-355.82 997.76,-349.36"/>
</g>
<!-- Node3&#45;&gt;Node2 -->
<g id="edge6" class="edge">
<title>Node3&#45;&gt;Node2</title>
<path fill="none" stroke="midnightblue" d="M782.12,-263.72C809.39,-252.98 840.1,-240.89 866.44,-230.52"/>
<polygon fill="midnightblue" stroke="midnightblue" points="780.65,-260.53 772.63,-267.45 783.21,-267.05 780.65,-260.53"/>
</g>
<!-- Node4 -->
<g id="node4" class="node">
<title>Node4</title>
<g id="a_node4"><a xlink:href="accelerate_8h.html" target="_top" xlink:title="Loop Acceleration.">
<polygon fill="none" stroke="black" points="288,-178.5 288,-230.5 440,-230.5 440,-178.5 288,-178.5"/>
<text text-anchor="start" x="296" y="-218.5" font-family="Helvetica,sans-Serif" font-size="10.00">/home/runner/work/diffblue</text>
<text text-anchor="start" x="296" y="-207.5" font-family="Helvetica,sans-Serif" font-size="10.00">&#45;cbmc/diffblue&#45;cbmc/src</text>
<text text-anchor="start" x="296" y="-196.5" font-family="Helvetica,sans-Serif" font-size="10.00">/goto&#45;instrument/accelerate</text>
<text text-anchor="middle" x="364" y="-185.5" font-family="Helvetica,sans-Serif" font-size="10.00">/accelerate.h</text>
</a>
</g>
</g>
<!-- Node3&#45;&gt;Node4 -->
<g id="edge3" class="edge">
<title>Node3&#45;&gt;Node4</title>
<path fill="none" stroke="midnightblue" d="M622.81,-273.46C572.03,-261.91 506.65,-246.45 449,-231 446.17,-230.24 443.3,-229.46 440.39,-228.65"/>
<polygon fill="midnightblue" stroke="midnightblue" points="622.24,-276.92 632.76,-275.72 623.78,-270.09 622.24,-276.92"/>
</g>
<!-- Node3&#45;&gt;Node7 -->
<g id="edge7" class="edge">
<title>Node3&#45;&gt;Node7</title>
<path fill="none" stroke="midnightblue" d="M718.26,-257.48C720.64,-248.49 723.15,-238.99 725.36,-230.61"/>
<polygon fill="midnightblue" stroke="midnightblue" points="714.82,-256.77 715.65,-267.34 721.59,-258.56 714.82,-256.77"/>
</g>
<!-- Node3&#45;&gt;Node9 -->
<g id="edge9" class="edge">
<title>Node3&#45;&gt;Node9</title>
<path fill="none" stroke="midnightblue" d="M649.21,-262.78C628.16,-252.31 604.72,-240.66 584.5,-230.61"/>
<polygon fill="midnightblue" stroke="midnightblue" points="647.87,-266.02 658.38,-267.34 650.99,-259.75 647.87,-266.02"/>
</g>
<!-- Node3&#45;&gt;Node13 -->
<g id="edge15" class="edge">
<title>Node3&#45;&gt;Node13</title>
<path fill="none" stroke="midnightblue" d="M622.52,-283.97C535.2,-274.47 396.78,-256.94 279,-231 276.14,-230.37 273.24,-229.69 270.31,-228.98"/>
<polygon fill="midnightblue" stroke="midnightblue" points="622.33,-287.47 632.65,-285.07 623.08,-280.51 622.33,-287.47"/>
</g>
<!-- Node5 -->
<g id="node5" class="node">
<title>Node5</title>
<g id="a_node5"><a xlink:href="accelerate_8cpp.html" target="_top" xlink:title="Loop Acceleration.">
<polygon fill="none" stroke="black" points="340,-0.5 340,-52.5 492,-52.5 492,-0.5 340,-0.5"/>
<text text-anchor="start" x="348" y="-40.5" font-family="Helvetica,sans-Serif" font-size="10.00">/home/runner/work/diffblue</text>
<text text-anchor="start" x="348" y="-29.5" font-family="Helvetica,sans-Serif" font-size="10.00">&#45;cbmc/diffblue&#45;cbmc/src</text>
<text text-anchor="start" x="348" y="-18.5" font-family="Helvetica,sans-Serif" font-size="10.00">/goto&#45;instrument/accelerate</text>
<text text-anchor="middle" x="416" y="-7.5" font-family="Helvetica,sans-Serif" font-size="10.00">/accelerate.cpp</text>
</a>
</g>
</g>
<!-- Node4&#45;&gt;Node5 -->
<g id="edge4" class="edge">
<title>Node4&#45;&gt;Node5</title>
<path fill="none" stroke="midnightblue" d="M374.28,-168.69C384.39,-134.48 399.57,-83.1 408.56,-52.67"/>
<polygon fill="midnightblue" stroke="midnightblue" points="370.93,-167.7 371.45,-178.28 377.64,-169.69 370.93,-167.7"/>
</g>
<!-- Node6 -->
<g id="node6" class="node">
<title>Node6</title>
<g id="a_node6"><a xlink:href="goto__instrument__parse__options_8cpp.html" target="_top" xlink:title="Main Module.">
<polygon fill="none" stroke="black" points="408,-89.5 408,-141.5 590,-141.5 590,-89.5 408,-89.5"/>
<text text-anchor="start" x="416" y="-129.5" font-family="Helvetica,sans-Serif" font-size="10.00">/home/runner/work/diffblue</text>
<text text-anchor="start" x="416" y="-118.5" font-family="Helvetica,sans-Serif" font-size="10.00">&#45;cbmc/diffblue&#45;cbmc/src</text>
<text text-anchor="start" x="416" y="-107.5" font-family="Helvetica,sans-Serif" font-size="10.00">/goto&#45;instrument/goto_instrument</text>
<text text-anchor="middle" x="499" y="-96.5" font-family="Helvetica,sans-Serif" font-size="10.00">_parse_options.cpp</text>
</a>
</g>
</g>
<!-- Node4&#45;&gt;Node6 -->
<g id="edge5" class="edge">
<title>Node4&#45;&gt;Node6</title>
<path fill="none" stroke="midnightblue" d="M411.66,-172.79C427.5,-162.58 444.94,-151.34 460.04,-141.61"/>
<polygon fill="midnightblue" stroke="midnightblue" points="409.56,-169.98 403.05,-178.34 413.35,-175.86 409.56,-169.98"/>
</g>
<!-- Node7&#45;&gt;Node8 -->
<g id="edge8" class="edge">
<title>Node7&#45;&gt;Node8</title>
<path fill="none" stroke="midnightblue" d="M732,-168.19C732,-159.28 732,-149.9 732,-141.61"/>
<polygon fill="midnightblue" stroke="midnightblue" points="728.5,-168.34 732,-178.34 735.5,-168.34 728.5,-168.34"/>
</g>
<!-- Node9&#45;&gt;Node8 -->
<g id="edge10" class="edge">
<title>Node9&#45;&gt;Node8</title>
<path fill="none" stroke="midnightblue" d="M600.47,-174.29C624.66,-163.67 651.76,-151.76 675.06,-141.52"/>
<polygon fill="midnightblue" stroke="midnightblue" points="598.75,-171.23 591,-178.45 601.57,-177.63 598.75,-171.23"/>
</g>
<!-- Node10 -->
<g id="node10" class="node">
<title>Node10</title>
<g id="a_node10"><a xlink:href="enumerating__loop__acceleration_8h.html" target="_top" xlink:title="Loop Acceleration.">
<polygon fill="none" stroke="black" points="170,-89.5 170,-141.5 352,-141.5 352,-89.5 170,-89.5"/>
<text text-anchor="start" x="178" y="-129.5" font-family="Helvetica,sans-Serif" font-size="10.00">/home/runner/work/diffblue</text>
<text text-anchor="start" x="178" y="-118.5" font-family="Helvetica,sans-Serif" font-size="10.00">&#45;cbmc/diffblue&#45;cbmc/src</text>
<text text-anchor="start" x="178" y="-107.5" font-family="Helvetica,sans-Serif" font-size="10.00">/goto&#45;instrument/accelerate</text>
<text text-anchor="middle" x="261" y="-96.5" font-family="Helvetica,sans-Serif" font-size="10.00">/enumerating_loop_acceleration.h</text>
</a>
</g>
</g>
<!-- Node9&#45;&gt;Node10 -->
<g id="edge11" class="edge">
<title>Node9&#45;&gt;Node10</title>
<path fill="none" stroke="midnightblue" d="M448.28,-176.18C413.47,-165.09 373.52,-152.36 339.49,-141.51"/>
<polygon fill="midnightblue" stroke="midnightblue" points="447.36,-179.56 457.95,-179.27 449.49,-172.89 447.36,-179.56"/>
</g>
<!-- Node9&#45;&gt;Node12 -->
<g id="edge14" class="edge">
<title>Node9&#45;&gt;Node12</title>
<path fill="none" stroke="midnightblue" d="M620.2,-178.13C795.87,-143.37 991.69,-127.46 1097.57,-120.72"/>
<polygon fill="midnightblue" stroke="midnightblue" points="619.37,-174.73 610.26,-180.12 620.75,-181.59 619.37,-174.73"/>
</g>
<!-- Node10&#45;&gt;Node5 -->
<g id="edge12" class="edge">
<title>Node10&#45;&gt;Node5</title>
<path fill="none" stroke="midnightblue" d="M314.71,-84.35C333.16,-74 353.61,-62.52 371.27,-52.61"/>
<polygon fill="midnightblue" stroke="midnightblue" points="312.84,-81.39 305.83,-89.34 316.27,-87.49 312.84,-81.39"/>
</g>
<!-- Node11 -->
<g id="node11" class="node">
<title>Node11</title>
<g id="a_node11"><a xlink:href="enumerating__loop__acceleration_8cpp.html" target="_top" xlink:title="Loop Acceleration.">
<polygon fill="none" stroke="black" points="128,-0.5 128,-52.5 322,-52.5 322,-0.5 128,-0.5"/>
<text text-anchor="start" x="136" y="-40.5" font-family="Helvetica,sans-Serif" font-size="10.00">/home/runner/work/diffblue</text>
<text text-anchor="start" x="136" y="-29.5" font-family="Helvetica,sans-Serif" font-size="10.00">&#45;cbmc/diffblue&#45;cbmc/src</text>
<text text-anchor="start" x="136" y="-18.5" font-family="Helvetica,sans-Serif" font-size="10.00">/goto&#45;instrument/accelerate</text>
<text text-anchor="middle" x="225" y="-7.5" font-family="Helvetica,sans-Serif" font-size="10.00">/enumerating_loop_acceleration.cpp</text>
</a>
</g>
</g>
<!-- Node10&#45;&gt;Node11 -->
<g id="edge13" class="edge">
<title>Node10&#45;&gt;Node11</title>
<path fill="none" stroke="midnightblue" d="M246.75,-80.06C242.96,-70.9 238.93,-61.17 235.39,-52.61"/>
<polygon fill="midnightblue" stroke="midnightblue" points="243.53,-81.43 250.59,-89.34 250,-78.76 243.53,-81.43"/>
</g>
<!-- Node13&#45;&gt;Node10 -->
<g id="edge16" class="edge">
<title>Node13&#45;&gt;Node10</title>
<path fill="none" stroke="midnightblue" d="M219.63,-170.22C226.95,-160.72 234.79,-150.53 241.66,-141.61"/>
<polygon fill="midnightblue" stroke="midnightblue" points="216.71,-168.28 213.38,-178.34 222.25,-172.55 216.71,-168.28"/>
</g>
<!-- Node14 -->
<g id="node14" class="node">
<title>Node14</title>
<g id="a_node14"><a xlink:href="sat__path__enumerator_8cpp.html" target="_top" xlink:title="Loop Acceleration.">
<polygon fill="none" stroke="black" points="0,-89.5 0,-141.5 152,-141.5 152,-89.5 0,-89.5"/>
<text text-anchor="start" x="8" y="-129.5" font-family="Helvetica,sans-Serif" font-size="10.00">/home/runner/work/diffblue</text>
<text text-anchor="start" x="8" y="-118.5" font-family="Helvetica,sans-Serif" font-size="10.00">&#45;cbmc/diffblue&#45;cbmc/src</text>
<text text-anchor="start" x="8" y="-107.5" font-family="Helvetica,sans-Serif" font-size="10.00">/goto&#45;instrument/accelerate</text>
<text text-anchor="middle" x="76" y="-96.5" font-family="Helvetica,sans-Serif" font-size="10.00">/sat_path_enumerator.cpp</text>
</a>
</g>
</g>
<!-- Node13&#45;&gt;Node14 -->
<g id="edge17" class="edge">
<title>Node13&#45;&gt;Node14</title>
<path fill="none" stroke="midnightblue" d="M151.57,-172.22C137.93,-162.16 123.01,-151.16 110.05,-141.61"/>
<polygon fill="midnightblue" stroke="midnightblue" points="149.74,-175.22 159.87,-178.34 153.9,-169.58 149.74,-175.22"/>
</g>
<!-- Node16&#45;&gt;Node2 -->
<g id="edge23" class="edge">
<title>Node16&#45;&gt;Node2</title>
<path fill="none" stroke="midnightblue" d="M1068.85,-263.58C1043.27,-252.88 1014.5,-240.85 989.82,-230.52"/>
<polygon fill="midnightblue" stroke="midnightblue" points="1067.54,-266.82 1078.12,-267.45 1070.24,-260.36 1067.54,-266.82"/>
</g>
<!-- Node16&#45;&gt;Node5 -->
<g id="edge22" class="edge">
<title>Node16&#45;&gt;Node5</title>
<path fill="none" stroke="midnightblue" d="M1205.78,-262.13C1218.72,-253.67 1231.01,-243.34 1240,-231 1277.58,-179.45 1304.44,-135.72 1261,-89 1209.23,-33.32 689.93,-27.46 492.04,-27.27"/>
<polygon fill="midnightblue" stroke="midnightblue" points="1203.88,-259.19 1197.21,-267.43 1207.56,-265.15 1203.88,-259.19"/>
</g>
<!-- Node16&#45;&gt;Node12 -->
<g id="edge25" class="edge">
<title>Node16&#45;&gt;Node12</title>
<path fill="none" stroke="midnightblue" d="M1196.8,-261.41C1207.36,-253.02 1216.93,-242.89 1223,-231 1233.71,-210.02 1230.66,-200.27 1223,-178 1218.42,-164.68 1209.64,-152.03 1200.82,-141.71"/>
<polygon fill="midnightblue" stroke="midnightblue" points="1194.53,-258.73 1188.57,-267.49 1198.69,-264.36 1194.53,-258.73"/>
</g>
<!-- Node17 -->
<g id="node17" class="node">
<title>Node17</title>
<g id="a_node17"><a xlink:href="overflow__instrumenter_8cpp.html" target="_top" xlink:title="Loop Acceleration.">
<polygon fill="none" stroke="black" points="1062,-178.5 1062,-230.5 1214,-230.5 1214,-178.5 1062,-178.5"/>
<text text-anchor="start" x="1070" y="-218.5" font-family="Helvetica,sans-Serif" font-size="10.00">/home/runner/work/diffblue</text>
<text text-anchor="start" x="1070" y="-207.5" font-family="Helvetica,sans-Serif" font-size="10.00">&#45;cbmc/diffblue&#45;cbmc/src</text>
<text text-anchor="start" x="1070" y="-196.5" font-family="Helvetica,sans-Serif" font-size="10.00">/goto&#45;instrument/accelerate</text>
<text text-anchor="middle" x="1138" y="-185.5" font-family="Helvetica,sans-Serif" font-size="10.00">/overflow_instrumenter.cpp</text>
</a>
</g>
</g>
<!-- Node16&#45;&gt;Node17 -->
<g id="edge24" class="edge">
<title>Node16&#45;&gt;Node17</title>
<path fill="none" stroke="midnightblue" d="M1138,-257.19C1138,-248.28 1138,-238.9 1138,-230.61"/>
<polygon fill="midnightblue" stroke="midnightblue" points="1134.5,-257.34 1138,-267.34 1141.5,-257.34 1134.5,-257.34"/>
</g>
</g>
</svg>
