<?xml version="1.0" encoding="UTF-8" standalone="no"?>
<!DOCTYPE svg PUBLIC "-//W3C//DTD SVG 1.1//EN"
 "http://www.w3.org/Graphics/SVG/1.1/DTD/svg11.dtd">
<!-- Generated by graphviz version 2.43.0 (0)
 -->
<!-- Title: /home/runner/work/diffblue&#45;cbmc/diffblue&#45;cbmc/src/analyses/variable&#45;sensitivity/constant_pointer_abstract_object.h Pages: 1 -->
<svg width="615pt" height="161pt"
 viewBox="0.00 0.00 614.50 161.00" xmlns="http://www.w3.org/2000/svg" xmlns:xlink="http://www.w3.org/1999/xlink">
<g id="graph0" class="graph" transform="scale(1 1) rotate(0) translate(4 157)">
<title>/home/runner/work/diffblue&#45;cbmc/diffblue&#45;cbmc/src/analyses/variable&#45;sensitivity/constant_pointer_abstract_object.h</title>
<!-- Node1 -->
<g id="node1" class="node">
<title>Node1</title>
<g id="a_node1"><a xlink:title="An abstraction of a pointer that tracks a single pointer.">
<polygon fill="#bfbfbf" stroke="black" points="228.5,-100.5 228.5,-152.5 419.5,-152.5 419.5,-100.5 228.5,-100.5"/>
<text text-anchor="start" x="236.5" y="-140.5" font-family="Helvetica,sans-Serif" font-size="10.00">/home/runner/work/diffblue</text>
<text text-anchor="start" x="236.5" y="-129.5" font-family="Helvetica,sans-Serif" font-size="10.00">&#45;cbmc/diffblue&#45;cbmc/src</text>
<text text-anchor="start" x="236.5" y="-118.5" font-family="Helvetica,sans-Serif" font-size="10.00">/analyses/variable&#45;sensitivity</text>
<text text-anchor="middle" x="324" y="-107.5" font-family="Helvetica,sans-Serif" font-size="10.00">/constant_pointer_abstract_object.h</text>
</a>
</g>
</g>
<!-- Node2 -->
<g id="node2" class="node">
<title>Node2</title>
<g id="a_node2"><a xlink:href="constant__pointer__abstract__object_8cpp.html" target="_top" xlink:title=" ">
<polygon fill="none" stroke="black" points="0,-6 0,-58 202,-58 202,-6 0,-6"/>
<text text-anchor="start" x="8" y="-46" font-family="Helvetica,sans-Serif" font-size="10.00">/home/runner/work/diffblue</text>
<text text-anchor="start" x="8" y="-35" font-family="Helvetica,sans-Serif" font-size="10.00">&#45;cbmc/diffblue&#45;cbmc/src</text>
<text text-anchor="start" x="8" y="-24" font-family="Helvetica,sans-Serif" font-size="10.00">/analyses/variable&#45;sensitivity</text>
<text text-anchor="middle" x="101" y="-13" font-family="Helvetica,sans-Serif" font-size="10.00">/constant_pointer_abstract_object.cpp</text>
</a>
</g>
</g>
<!-- Node1&#45;&gt;Node2 -->
<g id="edge1" class="edge">
<title>Node1&#45;&gt;Node2</title>
<path fill="none" stroke="midnightblue" d="M254.17,-96.53C224.41,-84.19 190.03,-69.93 161.4,-58.05"/>
<polygon fill="midnightblue" stroke="midnightblue" points="253.08,-99.87 263.65,-100.47 255.76,-93.4 253.08,-99.87"/>
</g>
<!-- Node3 -->
<g id="node3" class="node">
<title>Node3</title>
<g id="a_node3"><a xlink:href="value__set__pointer__abstract__object_8cpp.html" target="_top" xlink:title="Value Set of Pointer Abstract Object.">
<polygon fill="none" stroke="black" points="220.5,-6 220.5,-58 427.5,-58 427.5,-6 220.5,-6"/>
<text text-anchor="start" x="228.5" y="-46" font-family="Helvetica,sans-Serif" font-size="10.00">/home/runner/work/diffblue</text>
<text text-anchor="start" x="228.5" y="-35" font-family="Helvetica,sans-Serif" font-size="10.00">&#45;cbmc/diffblue&#45;cbmc/src</text>
<text text-anchor="start" x="228.5" y="-24" font-family="Helvetica,sans-Serif" font-size="10.00">/analyses/variable&#45;sensitivity</text>
<text text-anchor="middle" x="324" y="-13" font-family="Helvetica,sans-Serif" font-size="10.00">/value_set_pointer_abstract_object.cpp</text>
</a>
</g>
</g>
<!-- Node1&#45;&gt;Node3 -->
<g id="edge2" class="edge">
<title>Node1&#45;&gt;Node3</title>
<path fill="none" stroke="midnightblue" d="M324,-89.99C324,-79.41 324,-68.03 324,-58.25"/>
<polygon fill="midnightblue" stroke="midnightblue" points="320.5,-90.22 324,-100.22 327.5,-90.22 320.5,-90.22"/>
</g>
<!-- Node4 -->
<g id="node4" class="node">
<title>Node4</title>
<g id="a_node4"><a xlink:href="variable__sensitivity__object__factory_8cpp.html" target="_top" xlink:title=" ">
<polygon fill="none" stroke="black" points="445.5,-0.5 445.5,-63.5 606.5,-63.5 606.5,-0.5 445.5,-0.5"/>
<text text-anchor="start" x="453.5" y="-51.5" font-family="Helvetica,sans-Serif" font-size="10.00">/home/runner/work/diffblue</text>
<text text-anchor="start" x="453.5" y="-40.5" font-family="Helvetica,sans-Serif" font-size="10.00">&#45;cbmc/diffblue&#45;cbmc/src</text>
<text text-anchor="start" x="453.5" y="-29.5" font-family="Helvetica,sans-Serif" font-size="10.00">/analyses/variable&#45;sensitivity</text>
<text text-anchor="start" x="453.5" y="-18.5" font-family="Helvetica,sans-Serif" font-size="10.00">/variable_sensitivity_object</text>
<text text-anchor="middle" x="526" y="-7.5" font-family="Helvetica,sans-Serif" font-size="10.00">_factory.cpp</text>
</a>
</g>
</g>
<!-- Node1&#45;&gt;Node4 -->
<g id="edge3" class="edge">
<title>Node1&#45;&gt;Node4</title>
<path fill="none" stroke="midnightblue" d="M387.86,-96.26C410.53,-85.87 436.11,-74.16 459.04,-63.66"/>
<polygon fill="midnightblue" stroke="midnightblue" points="386.3,-93.12 378.66,-100.47 389.21,-99.49 386.3,-93.12"/>
</g>
</g>
</svg>
