<?xml version="1.0" encoding="UTF-8" standalone="no"?>
<!DOCTYPE svg PUBLIC "-//W3C//DTD SVG 1.1//EN"
 "http://www.w3.org/Graphics/SVG/1.1/DTD/svg11.dtd">
<!-- Generated by graphviz version 2.43.0 (0)
 -->
<!-- Title: /home/runner/work/diffblue&#45;cbmc/diffblue&#45;cbmc/src/analyses/variable&#45;sensitivity/context_abstract_object.h Pages: 1 -->
<svg width="1295pt" height="339pt"
 viewBox="0.00 0.00 1295.00 339.00" xmlns="http://www.w3.org/2000/svg" xmlns:xlink="http://www.w3.org/1999/xlink">
<g id="graph0" class="graph" transform="scale(1 1) rotate(0) translate(4 335)">
<title>/home/runner/work/diffblue&#45;cbmc/diffblue&#45;cbmc/src/analyses/variable&#45;sensitivity/context_abstract_object.h</title>
<!-- Node1 -->
<g id="node1" class="node">
<title>Node1</title>
<g id="a_node1"><a xlink:title="General implementation of a an abstract_objectt which can track side information in the form of a &#39;co...">
<polygon fill="#bfbfbf" stroke="black" points="449,-278.5 449,-330.5 610,-330.5 610,-278.5 449,-278.5"/>
<text text-anchor="start" x="457" y="-318.5" font-family="Helvetica,sans-Serif" font-size="10.00">/home/runner/work/diffblue</text>
<text text-anchor="start" x="457" y="-307.5" font-family="Helvetica,sans-Serif" font-size="10.00">&#45;cbmc/diffblue&#45;cbmc/src</text>
<text text-anchor="start" x="457" y="-296.5" font-family="Helvetica,sans-Serif" font-size="10.00">/analyses/variable&#45;sensitivity</text>
<text text-anchor="middle" x="529.5" y="-285.5" font-family="Helvetica,sans-Serif" font-size="10.00">/context_abstract_object.h</text>
</a>
</g>
</g>
<!-- Node2 -->
<g id="node2" class="node">
<title>Node2</title>
<g id="a_node2"><a xlink:href="abstract__environment_8cpp.html" target="_top" xlink:title=" ">
<polygon fill="none" stroke="black" points="0,-189.5 0,-241.5 161,-241.5 161,-189.5 0,-189.5"/>
<text text-anchor="start" x="8" y="-229.5" font-family="Helvetica,sans-Serif" font-size="10.00">/home/runner/work/diffblue</text>
<text text-anchor="start" x="8" y="-218.5" font-family="Helvetica,sans-Serif" font-size="10.00">&#45;cbmc/diffblue&#45;cbmc/src</text>
<text text-anchor="start" x="8" y="-207.5" font-family="Helvetica,sans-Serif" font-size="10.00">/analyses/variable&#45;sensitivity</text>
<text text-anchor="middle" x="80.5" y="-196.5" font-family="Helvetica,sans-Serif" font-size="10.00">/abstract_environment.cpp</text>
</a>
</g>
</g>
<!-- Node1&#45;&gt;Node2 -->
<g id="edge1" class="edge">
<title>Node1&#45;&gt;Node2</title>
<path fill="none" stroke="midnightblue" d="M438.83,-290.83C365.7,-279.94 260.43,-262.73 169.5,-242 166.84,-241.39 164.13,-240.75 161.41,-240.09"/>
<polygon fill="midnightblue" stroke="midnightblue" points="438.53,-294.32 448.93,-292.33 439.55,-287.4 438.53,-294.32"/>
</g>
<!-- Node3 -->
<g id="node3" class="node">
<title>Node3</title>
<g id="a_node3"><a xlink:href="abstract__value__object_8cpp.html" target="_top" xlink:title=" ">
<polygon fill="none" stroke="black" points="179,-189.5 179,-241.5 340,-241.5 340,-189.5 179,-189.5"/>
<text text-anchor="start" x="187" y="-229.5" font-family="Helvetica,sans-Serif" font-size="10.00">/home/runner/work/diffblue</text>
<text text-anchor="start" x="187" y="-218.5" font-family="Helvetica,sans-Serif" font-size="10.00">&#45;cbmc/diffblue&#45;cbmc/src</text>
<text text-anchor="start" x="187" y="-207.5" font-family="Helvetica,sans-Serif" font-size="10.00">/analyses/variable&#45;sensitivity</text>
<text text-anchor="middle" x="259.5" y="-196.5" font-family="Helvetica,sans-Serif" font-size="10.00">/abstract_value_object.cpp</text>
</a>
</g>
</g>
<!-- Node1&#45;&gt;Node3 -->
<g id="edge2" class="edge">
<title>Node1&#45;&gt;Node3</title>
<path fill="none" stroke="midnightblue" d="M441.92,-275.28C408.17,-264.4 369.9,-252.07 337.15,-241.52"/>
<polygon fill="midnightblue" stroke="midnightblue" points="441.18,-278.72 451.77,-278.45 443.32,-272.05 441.18,-278.72"/>
</g>
<!-- Node4 -->
<g id="node4" class="node">
<title>Node4</title>
<g id="a_node4"><a xlink:href="context__abstract__object_8cpp.html" target="_top" xlink:title=" ">
<polygon fill="none" stroke="black" points="358,-189.5 358,-241.5 519,-241.5 519,-189.5 358,-189.5"/>
<text text-anchor="start" x="366" y="-229.5" font-family="Helvetica,sans-Serif" font-size="10.00">/home/runner/work/diffblue</text>
<text text-anchor="start" x="366" y="-218.5" font-family="Helvetica,sans-Serif" font-size="10.00">&#45;cbmc/diffblue&#45;cbmc/src</text>
<text text-anchor="start" x="366" y="-207.5" font-family="Helvetica,sans-Serif" font-size="10.00">/analyses/variable&#45;sensitivity</text>
<text text-anchor="middle" x="438.5" y="-196.5" font-family="Helvetica,sans-Serif" font-size="10.00">/context_abstract_object.cpp</text>
</a>
</g>
</g>
<!-- Node1&#45;&gt;Node4 -->
<g id="edge3" class="edge">
<title>Node1&#45;&gt;Node4</title>
<path fill="none" stroke="midnightblue" d="M495.89,-271.36C485.61,-261.54 474.47,-250.89 464.76,-241.61"/>
<polygon fill="midnightblue" stroke="midnightblue" points="493.53,-273.96 503.18,-278.34 498.37,-268.9 493.53,-273.96"/>
</g>
<!-- Node5 -->
<g id="node5" class="node">
<title>Node5</title>
<g id="a_node5"><a xlink:href="value__set__abstract__object_8cpp.html" target="_top" xlink:title="Value Set Abstract Object.">
<polygon fill="none" stroke="black" points="537,-189.5 537,-241.5 704,-241.5 704,-189.5 537,-189.5"/>
<text text-anchor="start" x="545" y="-229.5" font-family="Helvetica,sans-Serif" font-size="10.00">/home/runner/work/diffblue</text>
<text text-anchor="start" x="545" y="-218.5" font-family="Helvetica,sans-Serif" font-size="10.00">&#45;cbmc/diffblue&#45;cbmc/src</text>
<text text-anchor="start" x="545" y="-207.5" font-family="Helvetica,sans-Serif" font-size="10.00">/analyses/variable&#45;sensitivity</text>
<text text-anchor="middle" x="620.5" y="-196.5" font-family="Helvetica,sans-Serif" font-size="10.00">/value_set_abstract_object.cpp</text>
</a>
</g>
</g>
<!-- Node1&#45;&gt;Node5 -->
<g id="edge4" class="edge">
<title>Node1&#45;&gt;Node5</title>
<path fill="none" stroke="midnightblue" d="M563.11,-271.36C573.39,-261.54 584.53,-250.89 594.24,-241.61"/>
<polygon fill="midnightblue" stroke="midnightblue" points="560.63,-268.9 555.82,-278.34 565.47,-273.96 560.63,-268.9"/>
</g>
<!-- Node6 -->
<g id="node6" class="node">
<title>Node6</title>
<g id="a_node6"><a xlink:href="value__set__pointer__abstract__object_8cpp.html" target="_top" xlink:title="Value Set of Pointer Abstract Object.">
<polygon fill="none" stroke="black" points="722,-189.5 722,-241.5 929,-241.5 929,-189.5 722,-189.5"/>
<text text-anchor="start" x="730" y="-229.5" font-family="Helvetica,sans-Serif" font-size="10.00">/home/runner/work/diffblue</text>
<text text-anchor="start" x="730" y="-218.5" font-family="Helvetica,sans-Serif" font-size="10.00">&#45;cbmc/diffblue&#45;cbmc/src</text>
<text text-anchor="start" x="730" y="-207.5" font-family="Helvetica,sans-Serif" font-size="10.00">/analyses/variable&#45;sensitivity</text>
<text text-anchor="middle" x="825.5" y="-196.5" font-family="Helvetica,sans-Serif" font-size="10.00">/value_set_pointer_abstract_object.cpp</text>
</a>
</g>
</g>
<!-- Node1&#45;&gt;Node6 -->
<g id="edge5" class="edge">
<title>Node1&#45;&gt;Node6</title>
<path fill="none" stroke="midnightblue" d="M619.98,-276.91C658.26,-265.65 702.63,-252.61 740.32,-241.54"/>
<polygon fill="midnightblue" stroke="midnightblue" points="618.99,-273.55 610.38,-279.73 620.96,-280.26 618.99,-273.55"/>
</g>
<!-- Node7 -->
<g id="node7" class="node">
<title>Node7</title>
<g id="a_node7"><a xlink:href="write__location__context_8h.html" target="_top" xlink:title="Maintain a context in the variable sensitvity domain that records write locations for a given abstrac...">
<polygon fill="none" stroke="black" points="947,-189.5 947,-241.5 1108,-241.5 1108,-189.5 947,-189.5"/>
<text text-anchor="start" x="955" y="-229.5" font-family="Helvetica,sans-Serif" font-size="10.00">/home/runner/work/diffblue</text>
<text text-anchor="start" x="955" y="-218.5" font-family="Helvetica,sans-Serif" font-size="10.00">&#45;cbmc/diffblue&#45;cbmc/src</text>
<text text-anchor="start" x="955" y="-207.5" font-family="Helvetica,sans-Serif" font-size="10.00">/analyses/variable&#45;sensitivity</text>
<text text-anchor="middle" x="1027.5" y="-196.5" font-family="Helvetica,sans-Serif" font-size="10.00">/write_location_context.h</text>
</a>
</g>
</g>
<!-- Node1&#45;&gt;Node7 -->
<g id="edge6" class="edge">
<title>Node1&#45;&gt;Node7</title>
<path fill="none" stroke="midnightblue" d="M620.34,-293.15C703.42,-282.9 829.45,-265.35 937.5,-242 940.52,-241.35 943.58,-240.65 946.67,-239.92"/>
<polygon fill="midnightblue" stroke="midnightblue" points="619.67,-289.71 610.17,-294.4 620.52,-296.66 619.67,-289.71"/>
</g>
<!-- Node8 -->
<g id="node8" class="node">
<title>Node8</title>
<g id="a_node8"><a xlink:href="data__dependency__context_8h.html" target="_top" xlink:title="Maintain data dependencies as a context in the variable sensitivity domain.">
<polygon fill="none" stroke="black" points="763,-100.5 763,-152.5 924,-152.5 924,-100.5 763,-100.5"/>
<text text-anchor="start" x="771" y="-140.5" font-family="Helvetica,sans-Serif" font-size="10.00">/home/runner/work/diffblue</text>
<text text-anchor="start" x="771" y="-129.5" font-family="Helvetica,sans-Serif" font-size="10.00">&#45;cbmc/diffblue&#45;cbmc/src</text>
<text text-anchor="start" x="771" y="-118.5" font-family="Helvetica,sans-Serif" font-size="10.00">/analyses/variable&#45;sensitivity</text>
<text text-anchor="middle" x="843.5" y="-107.5" font-family="Helvetica,sans-Serif" font-size="10.00">/data_dependency_context.h</text>
</a>
</g>
</g>
<!-- Node7&#45;&gt;Node8 -->
<g id="edge7" class="edge">
<title>Node7&#45;&gt;Node8</title>
<path fill="none" stroke="midnightblue" d="M965.23,-185.06C942.94,-174.52 918.04,-162.75 896.6,-152.61"/>
<polygon fill="midnightblue" stroke="midnightblue" points="963.74,-188.23 974.28,-189.34 966.74,-181.9 963.74,-188.23"/>
</g>
<!-- Node12 -->
<g id="node12" class="node">
<title>Node12</title>
<g id="a_node12"><a xlink:href="liveness__context_8h.html" target="_top" xlink:title="Maintain a context in the variable sensitvity domain that records the liveness region for a given abs...">
<polygon fill="none" stroke="black" points="947,-100.5 947,-152.5 1108,-152.5 1108,-100.5 947,-100.5"/>
<text text-anchor="start" x="955" y="-140.5" font-family="Helvetica,sans-Serif" font-size="10.00">/home/runner/work/diffblue</text>
<text text-anchor="start" x="955" y="-129.5" font-family="Helvetica,sans-Serif" font-size="10.00">&#45;cbmc/diffblue&#45;cbmc/src</text>
<text text-anchor="start" x="955" y="-118.5" font-family="Helvetica,sans-Serif" font-size="10.00">/analyses/variable&#45;sensitivity</text>
<text text-anchor="middle" x="1027.5" y="-107.5" font-family="Helvetica,sans-Serif" font-size="10.00">/liveness_context.h</text>
</a>
</g>
</g>
<!-- Node7&#45;&gt;Node12 -->
<g id="edge11" class="edge">
<title>Node7&#45;&gt;Node12</title>
<path fill="none" stroke="midnightblue" d="M1027.5,-179.19C1027.5,-170.28 1027.5,-160.9 1027.5,-152.61"/>
<polygon fill="midnightblue" stroke="midnightblue" points="1024,-179.34 1027.5,-189.34 1031,-179.34 1024,-179.34"/>
</g>
<!-- Node14 -->
<g id="node14" class="node">
<title>Node14</title>
<g id="a_node14"><a xlink:href="write__location__context_8cpp.html" target="_top" xlink:title=" ">
<polygon fill="none" stroke="black" points="1126,-100.5 1126,-152.5 1287,-152.5 1287,-100.5 1126,-100.5"/>
<text text-anchor="start" x="1134" y="-140.5" font-family="Helvetica,sans-Serif" font-size="10.00">/home/runner/work/diffblue</text>
<text text-anchor="start" x="1134" y="-129.5" font-family="Helvetica,sans-Serif" font-size="10.00">&#45;cbmc/diffblue&#45;cbmc/src</text>
<text text-anchor="start" x="1134" y="-118.5" font-family="Helvetica,sans-Serif" font-size="10.00">/analyses/variable&#45;sensitivity</text>
<text text-anchor="middle" x="1206.5" y="-107.5" font-family="Helvetica,sans-Serif" font-size="10.00">/write_location_context.cpp</text>
</a>
</g>
</g>
<!-- Node7&#45;&gt;Node14 -->
<g id="edge14" class="edge">
<title>Node7&#45;&gt;Node14</title>
<path fill="none" stroke="midnightblue" d="M1088.37,-184.92C1109.98,-174.41 1134.07,-162.7 1154.84,-152.61"/>
<polygon fill="midnightblue" stroke="midnightblue" points="1086.74,-181.82 1079.27,-189.34 1089.8,-188.11 1086.74,-181.82"/>
</g>
<!-- Node9 -->
<g id="node9" class="node">
<title>Node9</title>
<g id="a_node9"><a xlink:href="data__dependency__context_8cpp.html" target="_top" xlink:title="Maintain data dependencies as a context in the variable sensitivity domain.">
<polygon fill="none" stroke="black" points="562.5,-6 562.5,-58 730.5,-58 730.5,-6 562.5,-6"/>
<text text-anchor="start" x="570.5" y="-46" font-family="Helvetica,sans-Serif" font-size="10.00">/home/runner/work/diffblue</text>
<text text-anchor="start" x="570.5" y="-35" font-family="Helvetica,sans-Serif" font-size="10.00">&#45;cbmc/diffblue&#45;cbmc/src</text>
<text text-anchor="start" x="570.5" y="-24" font-family="Helvetica,sans-Serif" font-size="10.00">/analyses/variable&#45;sensitivity</text>
<text text-anchor="middle" x="646.5" y="-13" font-family="Helvetica,sans-Serif" font-size="10.00">/data_dependency_context.cpp</text>
</a>
</g>
</g>
<!-- Node8&#45;&gt;Node9 -->
<g id="edge8" class="edge">
<title>Node8&#45;&gt;Node9</title>
<path fill="none" stroke="midnightblue" d="M781.13,-96.21C755,-83.94 724.93,-69.83 699.85,-58.05"/>
<polygon fill="midnightblue" stroke="midnightblue" points="779.65,-99.39 790.19,-100.47 782.62,-93.05 779.65,-99.39"/>
</g>
<!-- Node10 -->
<g id="node10" class="node">
<title>Node10</title>
<g id="a_node10"><a xlink:href="variable__sensitivity__dependence__graph_8cpp.html" target="_top" xlink:title=" ">
<polygon fill="none" stroke="black" points="748.5,-0.5 748.5,-63.5 928.5,-63.5 928.5,-0.5 748.5,-0.5"/>
<text text-anchor="start" x="756.5" y="-51.5" font-family="Helvetica,sans-Serif" font-size="10.00">/home/runner/work/diffblue</text>
<text text-anchor="start" x="756.5" y="-40.5" font-family="Helvetica,sans-Serif" font-size="10.00">&#45;cbmc/diffblue&#45;cbmc/src</text>
<text text-anchor="start" x="756.5" y="-29.5" font-family="Helvetica,sans-Serif" font-size="10.00">/analyses/variable&#45;sensitivity</text>
<text text-anchor="start" x="756.5" y="-18.5" font-family="Helvetica,sans-Serif" font-size="10.00">/variable_sensitivity_dependence</text>
<text text-anchor="middle" x="838.5" y="-7.5" font-family="Helvetica,sans-Serif" font-size="10.00">_graph.cpp</text>
</a>
</g>
</g>
<!-- Node8&#45;&gt;Node10 -->
<g id="edge9" class="edge">
<title>Node8&#45;&gt;Node10</title>
<path fill="none" stroke="midnightblue" d="M841.59,-90.23C841.12,-81.43 840.61,-72.06 840.15,-63.51"/>
<polygon fill="midnightblue" stroke="midnightblue" points="838.1,-90.43 842.13,-100.22 845.09,-90.05 838.1,-90.43"/>
</g>
<!-- Node11 -->
<g id="node11" class="node">
<title>Node11</title>
<g id="a_node11"><a xlink:href="variable__sensitivity__object__factory_8cpp.html" target="_top" xlink:title=" ">
<polygon fill="none" stroke="black" points="947,-0.5 947,-63.5 1108,-63.5 1108,-0.5 947,-0.5"/>
<text text-anchor="start" x="955" y="-51.5" font-family="Helvetica,sans-Serif" font-size="10.00">/home/runner/work/diffblue</text>
<text text-anchor="start" x="955" y="-40.5" font-family="Helvetica,sans-Serif" font-size="10.00">&#45;cbmc/diffblue&#45;cbmc/src</text>
<text text-anchor="start" x="955" y="-29.5" font-family="Helvetica,sans-Serif" font-size="10.00">/analyses/variable&#45;sensitivity</text>
<text text-anchor="start" x="955" y="-18.5" font-family="Helvetica,sans-Serif" font-size="10.00">/variable_sensitivity_object</text>
<text text-anchor="middle" x="1027.5" y="-7.5" font-family="Helvetica,sans-Serif" font-size="10.00">_factory.cpp</text>
</a>
</g>
</g>
<!-- Node8&#45;&gt;Node11 -->
<g id="edge10" class="edge">
<title>Node8&#45;&gt;Node11</title>
<path fill="none" stroke="midnightblue" d="M902.49,-95.84C922.94,-85.56 945.9,-74.02 966.51,-63.66"/>
<polygon fill="midnightblue" stroke="midnightblue" points="900.66,-92.85 893.29,-100.47 903.8,-99.1 900.66,-92.85"/>
</g>
<!-- Node12&#45;&gt;Node11 -->
<g id="edge13" class="edge">
<title>Node12&#45;&gt;Node11</title>
<path fill="none" stroke="midnightblue" d="M1027.5,-89.94C1027.5,-81.23 1027.5,-71.97 1027.5,-63.51"/>
<polygon fill="midnightblue" stroke="midnightblue" points="1024,-90.22 1027.5,-100.22 1031,-90.22 1024,-90.22"/>
</g>
<!-- Node13 -->
<g id="node13" class="node">
<title>Node13</title>
<g id="a_node13"><a xlink:href="liveness__context_8cpp.html" target="_top" xlink:title=" ">
<polygon fill="none" stroke="black" points="1126,-6 1126,-58 1287,-58 1287,-6 1126,-6"/>
<text text-anchor="start" x="1134" y="-46" font-family="Helvetica,sans-Serif" font-size="10.00">/home/runner/work/diffblue</text>
<text text-anchor="start" x="1134" y="-35" font-family="Helvetica,sans-Serif" font-size="10.00">&#45;cbmc/diffblue&#45;cbmc/src</text>
<text text-anchor="start" x="1134" y="-24" font-family="Helvetica,sans-Serif" font-size="10.00">/analyses/variable&#45;sensitivity</text>
<text text-anchor="middle" x="1206.5" y="-13" font-family="Helvetica,sans-Serif" font-size="10.00">/liveness_context.cpp</text>
</a>
</g>
</g>
<!-- Node12&#45;&gt;Node13 -->
<g id="edge12" class="edge">
<title>Node12&#45;&gt;Node13</title>
<path fill="none" stroke="midnightblue" d="M1085.11,-95.73C1108.63,-83.58 1135.53,-69.67 1158.02,-58.05"/>
<polygon fill="midnightblue" stroke="midnightblue" points="1083.22,-92.77 1075.94,-100.47 1086.43,-98.99 1083.22,-92.77"/>
</g>
</g>
</svg>
