<?xml version="1.0" encoding="UTF-8" standalone="no"?>
<!DOCTYPE svg PUBLIC "-//W3C//DTD SVG 1.1//EN"
 "http://www.w3.org/Graphics/SVG/1.1/DTD/svg11.dtd">
<!-- Generated by graphviz version 2.43.0 (0)
 -->
<!-- Title: /home/runner/work/diffblue&#45;cbmc/diffblue&#45;cbmc/src/util/cout_message.h Pages: 1 -->
<svg width="1987pt" height="295pt"
 viewBox="0.00 0.00 1987.00 295.00" xmlns="http://www.w3.org/2000/svg" xmlns:xlink="http://www.w3.org/1999/xlink">
<g id="graph0" class="graph" transform="scale(1 1) rotate(0) translate(4 291)">
<title>/home/runner/work/diffblue&#45;cbmc/diffblue&#45;cbmc/src/util/cout_message.h</title>
<!-- Node1 -->
<g id="node1" class="node">
<title>Node1</title>
<g id="a_node1"><a xlink:title=" ">
<polygon fill="#bfbfbf" stroke="black" points="761.5,-245.5 761.5,-286.5 910.5,-286.5 910.5,-245.5 761.5,-245.5"/>
<text text-anchor="start" x="769.5" y="-274.5" font-family="Helvetica,sans-Serif" font-size="10.00">/home/runner/work/diffblue</text>
<text text-anchor="start" x="769.5" y="-263.5" font-family="Helvetica,sans-Serif" font-size="10.00">&#45;cbmc/diffblue&#45;cbmc/src</text>
<text text-anchor="middle" x="836" y="-252.5" font-family="Helvetica,sans-Serif" font-size="10.00">/util/cout_message.h</text>
</a>
</g>
</g>
<!-- Node2 -->
<g id="node2" class="node">
<title>Node2</title>
<g id="a_node2"><a xlink:href="counterexample__found_8cpp.html" target="_top" xlink:title="Counterexample Found.">
<polygon fill="none" stroke="black" points="0,-162 0,-203 192,-203 192,-162 0,-162"/>
<text text-anchor="start" x="8" y="-191" font-family="Helvetica,sans-Serif" font-size="10.00">/home/runner/work/diffblue</text>
<text text-anchor="start" x="8" y="-180" font-family="Helvetica,sans-Serif" font-size="10.00">&#45;cbmc/diffblue&#45;cbmc/src</text>
<text text-anchor="middle" x="96" y="-169" font-family="Helvetica,sans-Serif" font-size="10.00">/cprover/counterexample_found.cpp</text>
</a>
</g>
</g>
<!-- Node1&#45;&gt;Node2 -->
<g id="edge1" class="edge">
<title>Node1&#45;&gt;Node2</title>
<path fill="none" stroke="midnightblue" d="M751.2,-261.58C628.96,-255.72 396.44,-241.16 201,-209 191,-207.36 180.55,-205.27 170.29,-203"/>
<polygon fill="midnightblue" stroke="midnightblue" points="751.09,-265.08 761.25,-262.05 751.42,-258.08 751.09,-265.08"/>
</g>
<!-- Node3 -->
<g id="node3" class="node">
<title>Node3</title>
<g id="a_node3"><a xlink:href="cprover__parse__options_8cpp.html" target="_top" xlink:title="cprover Command Line Options Processing">
<polygon fill="none" stroke="black" points="210,-162 210,-203 400,-203 400,-162 210,-162"/>
<text text-anchor="start" x="218" y="-191" font-family="Helvetica,sans-Serif" font-size="10.00">/home/runner/work/diffblue</text>
<text text-anchor="start" x="218" y="-180" font-family="Helvetica,sans-Serif" font-size="10.00">&#45;cbmc/diffblue&#45;cbmc/src</text>
<text text-anchor="middle" x="305" y="-169" font-family="Helvetica,sans-Serif" font-size="10.00">/cprover/cprover_parse_options.cpp</text>
</a>
</g>
</g>
<!-- Node1&#45;&gt;Node3 -->
<g id="edge2" class="edge">
<title>Node1&#45;&gt;Node3</title>
<path fill="none" stroke="midnightblue" d="M751.14,-256.65C664.66,-247.5 526.87,-231.11 409,-209 399.68,-207.25 389.95,-205.19 380.34,-203"/>
<polygon fill="midnightblue" stroke="midnightblue" points="750.86,-260.14 761.17,-257.71 751.59,-253.18 750.86,-260.14"/>
</g>
<!-- Node4 -->
<g id="node4" class="node">
<title>Node4</title>
<g id="a_node4"><a xlink:href="inductiveness_8cpp.html" target="_top" xlink:title="Inductiveness.">
<polygon fill="none" stroke="black" points="418.5,-162 418.5,-203 567.5,-203 567.5,-162 418.5,-162"/>
<text text-anchor="start" x="426.5" y="-191" font-family="Helvetica,sans-Serif" font-size="10.00">/home/runner/work/diffblue</text>
<text text-anchor="start" x="426.5" y="-180" font-family="Helvetica,sans-Serif" font-size="10.00">&#45;cbmc/diffblue&#45;cbmc/src</text>
<text text-anchor="middle" x="493" y="-169" font-family="Helvetica,sans-Serif" font-size="10.00">/cprover/inductiveness.cpp</text>
</a>
</g>
</g>
<!-- Node1&#45;&gt;Node4 -->
<g id="edge3" class="edge">
<title>Node1&#45;&gt;Node4</title>
<path fill="none" stroke="midnightblue" d="M751.35,-248.68C700.3,-238.37 634.12,-224.16 576,-209 569,-207.17 561.7,-205.14 554.47,-203.03"/>
<polygon fill="midnightblue" stroke="midnightblue" points="750.86,-252.15 761.35,-250.69 752.24,-245.29 750.86,-252.15"/>
</g>
<!-- Node5 -->
<g id="node5" class="node">
<title>Node5</title>
<g id="a_node5"><a xlink:href="crangler__parse__options_8cpp.html" target="_top" xlink:title="CRANGLER Command Line Option Processing.">
<polygon fill="none" stroke="black" points="585.5,-156.5 585.5,-208.5 734.5,-208.5 734.5,-156.5 585.5,-156.5"/>
<text text-anchor="start" x="593.5" y="-196.5" font-family="Helvetica,sans-Serif" font-size="10.00">/home/runner/work/diffblue</text>
<text text-anchor="start" x="593.5" y="-185.5" font-family="Helvetica,sans-Serif" font-size="10.00">&#45;cbmc/diffblue&#45;cbmc/src</text>
<text text-anchor="start" x="593.5" y="-174.5" font-family="Helvetica,sans-Serif" font-size="10.00">/crangler/crangler_parse</text>
<text text-anchor="middle" x="660" y="-163.5" font-family="Helvetica,sans-Serif" font-size="10.00">_options.cpp</text>
</a>
</g>
</g>
<!-- Node1&#45;&gt;Node5 -->
<g id="edge4" class="edge">
<title>Node1&#45;&gt;Node5</title>
<path fill="none" stroke="midnightblue" d="M784.61,-241.2C762.48,-230.95 736.58,-218.96 714.15,-208.58"/>
<polygon fill="midnightblue" stroke="midnightblue" points="783.3,-244.45 793.84,-245.48 786.24,-238.1 783.3,-244.45"/>
</g>
<!-- Node6 -->
<g id="node6" class="node">
<title>Node6</title>
<g id="a_node6"><a xlink:href="cl__message__handler_8h.html" target="_top" xlink:title=" ">
<polygon fill="none" stroke="black" points="752.5,-162 752.5,-203 919.5,-203 919.5,-162 752.5,-162"/>
<text text-anchor="start" x="760.5" y="-191" font-family="Helvetica,sans-Serif" font-size="10.00">/home/runner/work/diffblue</text>
<text text-anchor="start" x="760.5" y="-180" font-family="Helvetica,sans-Serif" font-size="10.00">&#45;cbmc/diffblue&#45;cbmc/src</text>
<text text-anchor="middle" x="836" y="-169" font-family="Helvetica,sans-Serif" font-size="10.00">/goto&#45;cc/cl_message_handler.h</text>
</a>
</g>
</g>
<!-- Node1&#45;&gt;Node6 -->
<g id="edge5" class="edge">
<title>Node1&#45;&gt;Node6</title>
<path fill="none" stroke="midnightblue" d="M836,-235.06C836,-224.38 836,-212.63 836,-203.05"/>
<polygon fill="midnightblue" stroke="midnightblue" points="832.5,-235.27 836,-245.27 839.5,-235.27 832.5,-235.27"/>
</g>
<!-- Node13 -->
<g id="node13" class="node">
<title>Node13</title>
<g id="a_node13"><a xlink:href="cw__mode_8h.html" target="_top" xlink:title="Base class for command line interpretation.">
<polygon fill="none" stroke="black" points="937.5,-162 937.5,-203 1086.5,-203 1086.5,-162 937.5,-162"/>
<text text-anchor="start" x="945.5" y="-191" font-family="Helvetica,sans-Serif" font-size="10.00">/home/runner/work/diffblue</text>
<text text-anchor="start" x="945.5" y="-180" font-family="Helvetica,sans-Serif" font-size="10.00">&#45;cbmc/diffblue&#45;cbmc/src</text>
<text text-anchor="middle" x="1012" y="-169" font-family="Helvetica,sans-Serif" font-size="10.00">/goto&#45;cc/cw_mode.h</text>
</a>
</g>
</g>
<!-- Node1&#45;&gt;Node13 -->
<g id="edge13" class="edge">
<title>Node1&#45;&gt;Node13</title>
<path fill="none" stroke="midnightblue" d="M887.55,-241.13C913.74,-229 945.16,-214.45 969.88,-203"/>
<polygon fill="midnightblue" stroke="midnightblue" points="885.76,-238.1 878.16,-245.48 888.7,-244.45 885.76,-238.1"/>
</g>
<!-- Node15 -->
<g id="node15" class="node">
<title>Node15</title>
<g id="a_node15"><a xlink:href="gcc__message__handler_8h.html" target="_top" xlink:title=" ">
<polygon fill="none" stroke="black" points="1195.5,-162 1195.5,-203 1370.5,-203 1370.5,-162 1195.5,-162"/>
<text text-anchor="start" x="1203.5" y="-191" font-family="Helvetica,sans-Serif" font-size="10.00">/home/runner/work/diffblue</text>
<text text-anchor="start" x="1203.5" y="-180" font-family="Helvetica,sans-Serif" font-size="10.00">&#45;cbmc/diffblue&#45;cbmc/src</text>
<text text-anchor="middle" x="1283" y="-169" font-family="Helvetica,sans-Serif" font-size="10.00">/goto&#45;cc/gcc_message_handler.h</text>
</a>
</g>
</g>
<!-- Node1&#45;&gt;Node15 -->
<g id="edge16" class="edge">
<title>Node1&#45;&gt;Node15</title>
<path fill="none" stroke="midnightblue" d="M920.43,-249.61C998.97,-235.29 1115.54,-214.03 1195.17,-199.51"/>
<polygon fill="midnightblue" stroke="midnightblue" points="919.78,-246.17 910.57,-251.4 921.03,-253.05 919.78,-246.17"/>
</g>
<!-- Node25 -->
<g id="node25" class="node">
<title>Node25</title>
<g id="a_node25"><a xlink:href="cout__message_8cpp.html" target="_top" xlink:title=" ">
<polygon fill="none" stroke="black" points="1388.5,-162 1388.5,-203 1537.5,-203 1537.5,-162 1388.5,-162"/>
<text text-anchor="start" x="1396.5" y="-191" font-family="Helvetica,sans-Serif" font-size="10.00">/home/runner/work/diffblue</text>
<text text-anchor="start" x="1396.5" y="-180" font-family="Helvetica,sans-Serif" font-size="10.00">&#45;cbmc/diffblue&#45;cbmc/src</text>
<text text-anchor="middle" x="1463" y="-169" font-family="Helvetica,sans-Serif" font-size="10.00">/util/cout_message.cpp</text>
</a>
</g>
</g>
<!-- Node1&#45;&gt;Node25 -->
<g id="edge30" class="edge">
<title>Node1&#45;&gt;Node25</title>
<path fill="none" stroke="midnightblue" d="M920.76,-261.41C1028.44,-255.68 1219.56,-241.58 1380,-209 1387.98,-207.38 1396.28,-205.31 1404.42,-203.05"/>
<polygon fill="midnightblue" stroke="midnightblue" points="920.41,-257.92 910.61,-261.94 920.77,-264.91 920.41,-257.92"/>
</g>
<!-- Node26 -->
<g id="node26" class="node">
<title>Node26</title>
<g id="a_node26"><a xlink:href="ui__message_8cpp.html" target="_top" xlink:title=" ">
<polygon fill="none" stroke="black" points="1555.5,-162 1555.5,-203 1704.5,-203 1704.5,-162 1555.5,-162"/>
<text text-anchor="start" x="1563.5" y="-191" font-family="Helvetica,sans-Serif" font-size="10.00">/home/runner/work/diffblue</text>
<text text-anchor="start" x="1563.5" y="-180" font-family="Helvetica,sans-Serif" font-size="10.00">&#45;cbmc/diffblue&#45;cbmc/src</text>
<text text-anchor="middle" x="1630" y="-169" font-family="Helvetica,sans-Serif" font-size="10.00">/util/ui_message.cpp</text>
</a>
</g>
</g>
<!-- Node1&#45;&gt;Node26 -->
<g id="edge31" class="edge">
<title>Node1&#45;&gt;Node26</title>
<path fill="none" stroke="midnightblue" d="M920.87,-264.31C1055,-261.88 1323.7,-251.56 1547,-209 1555.14,-207.45 1563.62,-205.39 1571.91,-203.1"/>
<polygon fill="midnightblue" stroke="midnightblue" points="920.6,-260.81 910.67,-264.48 920.72,-267.81 920.6,-260.81"/>
</g>
<!-- Node7 -->
<g id="node7" class="node">
<title>Node7</title>
<g id="a_node7"><a xlink:href="cl__message__handler_8cpp.html" target="_top" xlink:title=" ">
<polygon fill="none" stroke="black" points="392,-78.5 392,-119.5 570,-119.5 570,-78.5 392,-78.5"/>
<text text-anchor="start" x="400" y="-107.5" font-family="Helvetica,sans-Serif" font-size="10.00">/home/runner/work/diffblue</text>
<text text-anchor="start" x="400" y="-96.5" font-family="Helvetica,sans-Serif" font-size="10.00">&#45;cbmc/diffblue&#45;cbmc/src</text>
<text text-anchor="middle" x="481" y="-85.5" font-family="Helvetica,sans-Serif" font-size="10.00">/goto&#45;cc/cl_message_handler.cpp</text>
</a>
</g>
</g>
<!-- Node6&#45;&gt;Node7 -->
<g id="edge6" class="edge">
<title>Node6&#45;&gt;Node7</title>
<path fill="none" stroke="midnightblue" d="M756.51,-159.38C751.95,-158.21 747.42,-157.08 743,-156 710.69,-148.12 632.72,-131.57 570.19,-118.5"/>
<polygon fill="midnightblue" stroke="midnightblue" points="755.98,-162.86 766.54,-161.99 757.74,-156.09 755.98,-162.86"/>
</g>
<!-- Node8 -->
<g id="node8" class="node">
<title>Node8</title>
<g id="a_node8"><a xlink:href="ms__cl__mode_8h.html" target="_top" xlink:title="Visual Studio CL Mode.">
<polygon fill="none" stroke="black" points="754.5,-78.5 754.5,-119.5 903.5,-119.5 903.5,-78.5 754.5,-78.5"/>
<text text-anchor="start" x="762.5" y="-107.5" font-family="Helvetica,sans-Serif" font-size="10.00">/home/runner/work/diffblue</text>
<text text-anchor="start" x="762.5" y="-96.5" font-family="Helvetica,sans-Serif" font-size="10.00">&#45;cbmc/diffblue&#45;cbmc/src</text>
<text text-anchor="middle" x="829" y="-85.5" font-family="Helvetica,sans-Serif" font-size="10.00">/goto&#45;cc/ms_cl_mode.h</text>
</a>
</g>
</g>
<!-- Node6&#45;&gt;Node8 -->
<g id="edge7" class="edge">
<title>Node6&#45;&gt;Node8</title>
<path fill="none" stroke="midnightblue" d="M833.43,-151.56C832.51,-140.88 831.5,-129.13 830.68,-119.55"/>
<polygon fill="midnightblue" stroke="midnightblue" points="829.96,-152.11 834.31,-161.77 836.94,-151.51 829.96,-152.11"/>
</g>
<!-- Node11 -->
<g id="node11" class="node">
<title>Node11</title>
<g id="a_node11"><a xlink:href="ms__link__mode_8h.html" target="_top" xlink:title="Visual Studio Link Mode.">
<polygon fill="none" stroke="black" points="587.5,-78.5 587.5,-119.5 736.5,-119.5 736.5,-78.5 587.5,-78.5"/>
<text text-anchor="start" x="595.5" y="-107.5" font-family="Helvetica,sans-Serif" font-size="10.00">/home/runner/work/diffblue</text>
<text text-anchor="start" x="595.5" y="-96.5" font-family="Helvetica,sans-Serif" font-size="10.00">&#45;cbmc/diffblue&#45;cbmc/src</text>
<text text-anchor="middle" x="662" y="-85.5" font-family="Helvetica,sans-Serif" font-size="10.00">/goto&#45;cc/ms_link_mode.h</text>
</a>
</g>
</g>
<!-- Node6&#45;&gt;Node11 -->
<g id="edge10" class="edge">
<title>Node6&#45;&gt;Node11</title>
<path fill="none" stroke="midnightblue" d="M785.04,-157.63C759.14,-145.5 728.08,-130.95 703.64,-119.5"/>
<polygon fill="midnightblue" stroke="midnightblue" points="783.78,-160.91 794.32,-161.98 786.75,-154.57 783.78,-160.91"/>
</g>
<!-- Node9 -->
<g id="node9" class="node">
<title>Node9</title>
<g id="a_node9"><a xlink:href="goto__cc__main_8cpp.html" target="_top" xlink:title="GOTO&#45;CC Main Module.">
<polygon fill="none" stroke="black" points="958.5,-0.5 958.5,-41.5 1107.5,-41.5 1107.5,-0.5 958.5,-0.5"/>
<text text-anchor="start" x="966.5" y="-29.5" font-family="Helvetica,sans-Serif" font-size="10.00">/home/runner/work/diffblue</text>
<text text-anchor="start" x="966.5" y="-18.5" font-family="Helvetica,sans-Serif" font-size="10.00">&#45;cbmc/diffblue&#45;cbmc/src</text>
<text text-anchor="middle" x="1033" y="-7.5" font-family="Helvetica,sans-Serif" font-size="10.00">/goto&#45;cc/goto_cc_main.cpp</text>
</a>
</g>
</g>
<!-- Node8&#45;&gt;Node9 -->
<g id="edge8" class="edge">
<title>Node8&#45;&gt;Node9</title>
<path fill="none" stroke="midnightblue" d="M891.04,-74.89C919.68,-64.22 953.31,-51.69 980.64,-41.51"/>
<polygon fill="midnightblue" stroke="midnightblue" points="889.68,-71.66 881.54,-78.43 892.13,-78.22 889.68,-71.66"/>
</g>
<!-- Node10 -->
<g id="node10" class="node">
<title>Node10</title>
<g id="a_node10"><a xlink:href="ms__cl__mode_8cpp.html" target="_top" xlink:title="Visual Studio CL Mode.">
<polygon fill="none" stroke="black" points="754.5,-0.5 754.5,-41.5 903.5,-41.5 903.5,-0.5 754.5,-0.5"/>
<text text-anchor="start" x="762.5" y="-29.5" font-family="Helvetica,sans-Serif" font-size="10.00">/home/runner/work/diffblue</text>
<text text-anchor="start" x="762.5" y="-18.5" font-family="Helvetica,sans-Serif" font-size="10.00">&#45;cbmc/diffblue&#45;cbmc/src</text>
<text text-anchor="middle" x="829" y="-7.5" font-family="Helvetica,sans-Serif" font-size="10.00">/goto&#45;cc/ms_cl_mode.cpp</text>
</a>
</g>
</g>
<!-- Node8&#45;&gt;Node10 -->
<g id="edge9" class="edge">
<title>Node8&#45;&gt;Node10</title>
<path fill="none" stroke="midnightblue" d="M829,-68.3C829,-59.3 829,-49.65 829,-41.51"/>
<polygon fill="midnightblue" stroke="midnightblue" points="825.5,-68.43 829,-78.43 832.5,-68.43 825.5,-68.43"/>
</g>
<!-- Node11&#45;&gt;Node9 -->
<g id="edge11" class="edge">
<title>Node11&#45;&gt;Node9</title>
<path fill="none" stroke="midnightblue" d="M746.54,-77.7C823.92,-61 902.37,-45.97 958.22,-35.6"/>
<polygon fill="midnightblue" stroke="midnightblue" points="745.65,-74.31 736.62,-79.85 747.14,-81.15 745.65,-74.31"/>
</g>
<!-- Node12 -->
<g id="node12" class="node">
<title>Node12</title>
<g id="a_node12"><a xlink:href="ms__link__mode_8cpp.html" target="_top" xlink:title="Visual Studio Link Mode.">
<polygon fill="none" stroke="black" points="587,-0.5 587,-41.5 737,-41.5 737,-0.5 587,-0.5"/>
<text text-anchor="start" x="595" y="-29.5" font-family="Helvetica,sans-Serif" font-size="10.00">/home/runner/work/diffblue</text>
<text text-anchor="start" x="595" y="-18.5" font-family="Helvetica,sans-Serif" font-size="10.00">&#45;cbmc/diffblue&#45;cbmc/src</text>
<text text-anchor="middle" x="662" y="-7.5" font-family="Helvetica,sans-Serif" font-size="10.00">/goto&#45;cc/ms_link_mode.cpp</text>
</a>
</g>
</g>
<!-- Node11&#45;&gt;Node12 -->
<g id="edge12" class="edge">
<title>Node11&#45;&gt;Node12</title>
<path fill="none" stroke="midnightblue" d="M662,-68.3C662,-59.3 662,-49.65 662,-41.51"/>
<polygon fill="midnightblue" stroke="midnightblue" points="658.5,-68.43 662,-78.43 665.5,-68.43 658.5,-68.43"/>
</g>
<!-- Node13&#45;&gt;Node9 -->
<g id="edge15" class="edge">
<title>Node13&#45;&gt;Node9</title>
<path fill="none" stroke="midnightblue" d="M1050.98,-155.44C1062.17,-145.76 1072.96,-133.74 1079,-120 1086.51,-102.91 1085.29,-95.57 1079,-78 1074.08,-64.26 1064.17,-51.47 1054.81,-41.6"/>
<polygon fill="midnightblue" stroke="midnightblue" points="1048.77,-152.72 1043.23,-161.75 1053.2,-158.15 1048.77,-152.72"/>
</g>
<!-- Node14 -->
<g id="node14" class="node">
<title>Node14</title>
<g id="a_node14"><a xlink:href="cw__mode_8cpp.html" target="_top" xlink:title="Command line option container.">
<polygon fill="none" stroke="black" points="921.5,-78.5 921.5,-119.5 1070.5,-119.5 1070.5,-78.5 921.5,-78.5"/>
<text text-anchor="start" x="929.5" y="-107.5" font-family="Helvetica,sans-Serif" font-size="10.00">/home/runner/work/diffblue</text>
<text text-anchor="start" x="929.5" y="-96.5" font-family="Helvetica,sans-Serif" font-size="10.00">&#45;cbmc/diffblue&#45;cbmc/src</text>
<text text-anchor="middle" x="996" y="-85.5" font-family="Helvetica,sans-Serif" font-size="10.00">/goto&#45;cc/cw_mode.cpp</text>
</a>
</g>
</g>
<!-- Node13&#45;&gt;Node14 -->
<g id="edge14" class="edge">
<title>Node13&#45;&gt;Node14</title>
<path fill="none" stroke="midnightblue" d="M1006.19,-151.9C1004.07,-141.13 1001.74,-129.23 999.84,-119.55"/>
<polygon fill="midnightblue" stroke="midnightblue" points="1002.77,-152.63 1008.13,-161.77 1009.63,-151.28 1002.77,-152.63"/>
</g>
<!-- Node16 -->
<g id="node16" class="node">
<title>Node16</title>
<g id="a_node16"><a xlink:href="armcc__mode_8h.html" target="_top" xlink:title="Base class for command line interpretation for CL.">
<polygon fill="none" stroke="black" points="1125.5,-78.5 1125.5,-119.5 1274.5,-119.5 1274.5,-78.5 1125.5,-78.5"/>
<text text-anchor="start" x="1133.5" y="-107.5" font-family="Helvetica,sans-Serif" font-size="10.00">/home/runner/work/diffblue</text>
<text text-anchor="start" x="1133.5" y="-96.5" font-family="Helvetica,sans-Serif" font-size="10.00">&#45;cbmc/diffblue&#45;cbmc/src</text>
<text text-anchor="middle" x="1200" y="-85.5" font-family="Helvetica,sans-Serif" font-size="10.00">/goto&#45;cc/armcc_mode.h</text>
</a>
</g>
</g>
<!-- Node15&#45;&gt;Node16 -->
<g id="edge17" class="edge">
<title>Node15&#45;&gt;Node16</title>
<path fill="none" stroke="midnightblue" d="M1255.54,-154.54C1243.9,-143.1 1230.58,-130.03 1219.91,-119.55"/>
<polygon fill="midnightblue" stroke="midnightblue" points="1253.32,-157.26 1262.91,-161.77 1258.22,-152.27 1253.32,-157.26"/>
</g>
<!-- Node18 -->
<g id="node18" class="node">
<title>Node18</title>
<g id="a_node18"><a xlink:href="as__mode_8h.html" target="_top" xlink:title="Assembler Mode.">
<polygon fill="none" stroke="black" points="1292.5,-78.5 1292.5,-119.5 1441.5,-119.5 1441.5,-78.5 1292.5,-78.5"/>
<text text-anchor="start" x="1300.5" y="-107.5" font-family="Helvetica,sans-Serif" font-size="10.00">/home/runner/work/diffblue</text>
<text text-anchor="start" x="1300.5" y="-96.5" font-family="Helvetica,sans-Serif" font-size="10.00">&#45;cbmc/diffblue&#45;cbmc/src</text>
<text text-anchor="middle" x="1367" y="-85.5" font-family="Helvetica,sans-Serif" font-size="10.00">/goto&#45;cc/as_mode.h</text>
</a>
</g>
</g>
<!-- Node15&#45;&gt;Node18 -->
<g id="edge20" class="edge">
<title>Node15&#45;&gt;Node18</title>
<path fill="none" stroke="midnightblue" d="M1310.79,-154.54C1322.57,-143.1 1336.05,-130.03 1346.85,-119.55"/>
<polygon fill="midnightblue" stroke="midnightblue" points="1308.07,-152.3 1303.33,-161.77 1312.95,-157.32 1308.07,-152.3"/>
</g>
<!-- Node20 -->
<g id="node20" class="node">
<title>Node20</title>
<g id="a_node20"><a xlink:href="gcc__message__handler_8cpp.html" target="_top" xlink:title=" ">
<polygon fill="none" stroke="black" points="1793,-78.5 1793,-119.5 1979,-119.5 1979,-78.5 1793,-78.5"/>
<text text-anchor="start" x="1801" y="-107.5" font-family="Helvetica,sans-Serif" font-size="10.00">/home/runner/work/diffblue</text>
<text text-anchor="start" x="1801" y="-96.5" font-family="Helvetica,sans-Serif" font-size="10.00">&#45;cbmc/diffblue&#45;cbmc/src</text>
<text text-anchor="middle" x="1886" y="-85.5" font-family="Helvetica,sans-Serif" font-size="10.00">/goto&#45;cc/gcc_message_handler.cpp</text>
</a>
</g>
</g>
<!-- Node15&#45;&gt;Node20 -->
<g id="edge23" class="edge">
<title>Node15&#45;&gt;Node20</title>
<path fill="none" stroke="midnightblue" d="M1361.4,-159.69C1367.67,-158.32 1373.92,-157.06 1380,-156 1558.02,-124.92 1606.11,-145.59 1785,-120 1787.57,-119.63 1790.16,-119.24 1792.79,-118.83"/>
<polygon fill="midnightblue" stroke="midnightblue" points="1360.54,-156.3 1351.57,-161.95 1362.1,-163.12 1360.54,-156.3"/>
</g>
<!-- Node21 -->
<g id="node21" class="node">
<title>Node21</title>
<g id="a_node21"><a xlink:href="gcc__mode_8h.html" target="_top" xlink:title="Base class for command line interpretation.">
<polygon fill="none" stroke="black" points="1459.5,-78.5 1459.5,-119.5 1608.5,-119.5 1608.5,-78.5 1459.5,-78.5"/>
<text text-anchor="start" x="1467.5" y="-107.5" font-family="Helvetica,sans-Serif" font-size="10.00">/home/runner/work/diffblue</text>
<text text-anchor="start" x="1467.5" y="-96.5" font-family="Helvetica,sans-Serif" font-size="10.00">&#45;cbmc/diffblue&#45;cbmc/src</text>
<text text-anchor="middle" x="1534" y="-85.5" font-family="Helvetica,sans-Serif" font-size="10.00">/goto&#45;cc/gcc_mode.h</text>
</a>
</g>
</g>
<!-- Node15&#45;&gt;Node21 -->
<g id="edge24" class="edge">
<title>Node15&#45;&gt;Node21</title>
<path fill="none" stroke="midnightblue" d="M1353.09,-158.74C1391.11,-146.4 1437.6,-131.3 1473.94,-119.5"/>
<polygon fill="midnightblue" stroke="midnightblue" points="1351.55,-155.56 1343.12,-161.98 1353.71,-162.22 1351.55,-155.56"/>
</g>
<!-- Node23 -->
<g id="node23" class="node">
<title>Node23</title>
<g id="a_node23"><a xlink:href="ld__mode_8h.html" target="_top" xlink:title="Base class for command line interpretation.">
<polygon fill="none" stroke="black" points="1626.5,-78.5 1626.5,-119.5 1775.5,-119.5 1775.5,-78.5 1626.5,-78.5"/>
<text text-anchor="start" x="1634.5" y="-107.5" font-family="Helvetica,sans-Serif" font-size="10.00">/home/runner/work/diffblue</text>
<text text-anchor="start" x="1634.5" y="-96.5" font-family="Helvetica,sans-Serif" font-size="10.00">&#45;cbmc/diffblue&#45;cbmc/src</text>
<text text-anchor="middle" x="1701" y="-85.5" font-family="Helvetica,sans-Serif" font-size="10.00">/goto&#45;cc/ld_mode.h</text>
</a>
</g>
</g>
<!-- Node15&#45;&gt;Node23 -->
<g id="edge27" class="edge">
<title>Node15&#45;&gt;Node23</title>
<path fill="none" stroke="midnightblue" d="M1363.69,-159.59C1369.2,-158.31 1374.67,-157.1 1380,-156 1484.77,-134.37 1513.01,-140.55 1618,-120 1620.76,-119.46 1623.57,-118.89 1626.41,-118.29"/>
<polygon fill="midnightblue" stroke="midnightblue" points="1362.7,-156.23 1353.78,-161.96 1364.32,-163.04 1362.7,-156.23"/>
</g>
<!-- Node16&#45;&gt;Node9 -->
<g id="edge19" class="edge">
<title>Node16&#45;&gt;Node9</title>
<path fill="none" stroke="midnightblue" d="M1147.68,-74.19C1124.58,-63.67 1097.75,-51.47 1075.86,-41.51"/>
<polygon fill="midnightblue" stroke="midnightblue" points="1146.44,-77.47 1156.99,-78.43 1149.34,-71.1 1146.44,-77.47"/>
</g>
<!-- Node17 -->
<g id="node17" class="node">
<title>Node17</title>
<g id="a_node17"><a xlink:href="armcc__mode_8cpp.html" target="_top" xlink:title="Command line option container.">
<polygon fill="none" stroke="black" points="1125.5,-0.5 1125.5,-41.5 1274.5,-41.5 1274.5,-0.5 1125.5,-0.5"/>
<text text-anchor="start" x="1133.5" y="-29.5" font-family="Helvetica,sans-Serif" font-size="10.00">/home/runner/work/diffblue</text>
<text text-anchor="start" x="1133.5" y="-18.5" font-family="Helvetica,sans-Serif" font-size="10.00">&#45;cbmc/diffblue&#45;cbmc/src</text>
<text text-anchor="middle" x="1200" y="-7.5" font-family="Helvetica,sans-Serif" font-size="10.00">/goto&#45;cc/armcc_mode.cpp</text>
</a>
</g>
</g>
<!-- Node16&#45;&gt;Node17 -->
<g id="edge18" class="edge">
<title>Node16&#45;&gt;Node17</title>
<path fill="none" stroke="midnightblue" d="M1200,-68.3C1200,-59.3 1200,-49.65 1200,-41.51"/>
<polygon fill="midnightblue" stroke="midnightblue" points="1196.5,-68.43 1200,-78.43 1203.5,-68.43 1196.5,-68.43"/>
</g>
<!-- Node18&#45;&gt;Node9 -->
<g id="edge22" class="edge">
<title>Node18&#45;&gt;Node9</title>
<path fill="none" stroke="midnightblue" d="M1282.54,-77.69C1208.33,-60.89 1188.01,-58.11 1117,-42 1113.93,-41.3 1110.8,-40.59 1107.64,-39.86"/>
<polygon fill="midnightblue" stroke="midnightblue" points="1281.84,-81.12 1292.36,-79.93 1283.39,-74.29 1281.84,-81.12"/>
</g>
<!-- Node19 -->
<g id="node19" class="node">
<title>Node19</title>
<g id="a_node19"><a xlink:href="as__mode_8cpp.html" target="_top" xlink:title="Assembler Mode.">
<polygon fill="none" stroke="black" points="1292.5,-0.5 1292.5,-41.5 1441.5,-41.5 1441.5,-0.5 1292.5,-0.5"/>
<text text-anchor="start" x="1300.5" y="-29.5" font-family="Helvetica,sans-Serif" font-size="10.00">/home/runner/work/diffblue</text>
<text text-anchor="start" x="1300.5" y="-18.5" font-family="Helvetica,sans-Serif" font-size="10.00">&#45;cbmc/diffblue&#45;cbmc/src</text>
<text text-anchor="middle" x="1367" y="-7.5" font-family="Helvetica,sans-Serif" font-size="10.00">/goto&#45;cc/as_mode.cpp</text>
</a>
</g>
</g>
<!-- Node18&#45;&gt;Node19 -->
<g id="edge21" class="edge">
<title>Node18&#45;&gt;Node19</title>
<path fill="none" stroke="midnightblue" d="M1367,-68.3C1367,-59.3 1367,-49.65 1367,-41.51"/>
<polygon fill="midnightblue" stroke="midnightblue" points="1363.5,-68.43 1367,-78.43 1370.5,-68.43 1363.5,-68.43"/>
</g>
<!-- Node21&#45;&gt;Node9 -->
<g id="edge26" class="edge">
<title>Node21&#45;&gt;Node9</title>
<path fill="none" stroke="midnightblue" d="M1449.57,-77.86C1302.14,-53.08 1260.98,-66.8 1117,-42 1113.9,-41.47 1110.74,-40.88 1107.55,-40.27"/>
<polygon fill="midnightblue" stroke="midnightblue" points="1448.99,-81.32 1459.44,-79.55 1450.17,-74.42 1448.99,-81.32"/>
</g>
<!-- Node22 -->
<g id="node22" class="node">
<title>Node22</title>
<g id="a_node22"><a xlink:href="gcc__mode_8cpp.html" target="_top" xlink:title="GCC Mode.">
<polygon fill="none" stroke="black" points="1459.5,-0.5 1459.5,-41.5 1608.5,-41.5 1608.5,-0.5 1459.5,-0.5"/>
<text text-anchor="start" x="1467.5" y="-29.5" font-family="Helvetica,sans-Serif" font-size="10.00">/home/runner/work/diffblue</text>
<text text-anchor="start" x="1467.5" y="-18.5" font-family="Helvetica,sans-Serif" font-size="10.00">&#45;cbmc/diffblue&#45;cbmc/src</text>
<text text-anchor="middle" x="1534" y="-7.5" font-family="Helvetica,sans-Serif" font-size="10.00">/goto&#45;cc/gcc_mode.cpp</text>
</a>
</g>
</g>
<!-- Node21&#45;&gt;Node22 -->
<g id="edge25" class="edge">
<title>Node21&#45;&gt;Node22</title>
<path fill="none" stroke="midnightblue" d="M1534,-68.3C1534,-59.3 1534,-49.65 1534,-41.51"/>
<polygon fill="midnightblue" stroke="midnightblue" points="1530.5,-68.43 1534,-78.43 1537.5,-68.43 1530.5,-68.43"/>
</g>
<!-- Node23&#45;&gt;Node9 -->
<g id="edge28" class="edge">
<title>Node23&#45;&gt;Node9</title>
<path fill="none" stroke="midnightblue" d="M1616.5,-77.9C1395.62,-44.67 1334.41,-75.47 1117,-42 1113.89,-41.52 1110.72,-40.99 1107.53,-40.41"/>
<polygon fill="midnightblue" stroke="midnightblue" points="1616.04,-81.37 1626.46,-79.43 1617.1,-74.45 1616.04,-81.37"/>
</g>
<!-- Node24 -->
<g id="node24" class="node">
<title>Node24</title>
<g id="a_node24"><a xlink:href="ld__mode_8cpp.html" target="_top" xlink:title="LD Mode.">
<polygon fill="none" stroke="black" points="1626.5,-0.5 1626.5,-41.5 1775.5,-41.5 1775.5,-0.5 1626.5,-0.5"/>
<text text-anchor="start" x="1634.5" y="-29.5" font-family="Helvetica,sans-Serif" font-size="10.00">/home/runner/work/diffblue</text>
<text text-anchor="start" x="1634.5" y="-18.5" font-family="Helvetica,sans-Serif" font-size="10.00">&#45;cbmc/diffblue&#45;cbmc/src</text>
<text text-anchor="middle" x="1701" y="-7.5" font-family="Helvetica,sans-Serif" font-size="10.00">/goto&#45;cc/ld_mode.cpp</text>
</a>
</g>
</g>
<!-- Node23&#45;&gt;Node24 -->
<g id="edge29" class="edge">
<title>Node23&#45;&gt;Node24</title>
<path fill="none" stroke="midnightblue" d="M1701,-68.3C1701,-59.3 1701,-49.65 1701,-41.51"/>
<polygon fill="midnightblue" stroke="midnightblue" points="1697.5,-68.43 1701,-78.43 1704.5,-68.43 1697.5,-68.43"/>
</g>
</g>
</svg>
