<?xml version="1.0" encoding="UTF-8" standalone="no"?>
<!DOCTYPE svg PUBLIC "-//W3C//DTD SVG 1.1//EN"
 "http://www.w3.org/Graphics/SVG/1.1/DTD/svg11.dtd">
<!-- Generated by graphviz version 2.43.0 (0)
 -->
<!-- Title: /home/runner/work/diffblue&#45;cbmc/diffblue&#45;cbmc/src/goto&#45;instrument/cover_basic_blocks.h Pages: 1 -->
<svg width="744pt" height="150pt"
 viewBox="0.00 0.00 744.00 150.00" xmlns="http://www.w3.org/2000/svg" xmlns:xlink="http://www.w3.org/1999/xlink">
<g id="graph0" class="graph" transform="scale(1 1) rotate(0) translate(4 146)">
<title>/home/runner/work/diffblue&#45;cbmc/diffblue&#45;cbmc/src/goto&#45;instrument/cover_basic_blocks.h</title>
<!-- Node1 -->
<g id="node1" class="node">
<title>Node1</title>
<g id="a_node1"><a xlink:title="Basic blocks detection for Coverage Instrumentation.">
<polygon fill="#bfbfbf" stroke="black" points="262,-89.5 262,-141.5 421,-141.5 421,-89.5 262,-89.5"/>
<text text-anchor="start" x="270" y="-129.5" font-family="Helvetica,sans-Serif" font-size="10.00">/home/runner/work/diffblue</text>
<text text-anchor="start" x="270" y="-118.5" font-family="Helvetica,sans-Serif" font-size="10.00">&#45;cbmc/diffblue&#45;cbmc/src</text>
<text text-anchor="start" x="270" y="-107.5" font-family="Helvetica,sans-Serif" font-size="10.00">/goto&#45;instrument/cover_basic</text>
<text text-anchor="middle" x="341.5" y="-96.5" font-family="Helvetica,sans-Serif" font-size="10.00">_blocks.h</text>
</a>
</g>
</g>
<!-- Node2 -->
<g id="node2" class="node">
<title>Node2</title>
<g id="a_node2"><a xlink:href="cover_8cpp.html" target="_top" xlink:title="Coverage Instrumentation.">
<polygon fill="none" stroke="black" points="0,-6 0,-47 149,-47 149,-6 0,-6"/>
<text text-anchor="start" x="8" y="-35" font-family="Helvetica,sans-Serif" font-size="10.00">/home/runner/work/diffblue</text>
<text text-anchor="start" x="8" y="-24" font-family="Helvetica,sans-Serif" font-size="10.00">&#45;cbmc/diffblue&#45;cbmc/src</text>
<text text-anchor="middle" x="74.5" y="-13" font-family="Helvetica,sans-Serif" font-size="10.00">/goto&#45;instrument/cover.cpp</text>
</a>
</g>
</g>
<!-- Node1&#45;&gt;Node2 -->
<g id="edge1" class="edge">
<title>Node1&#45;&gt;Node2</title>
<path fill="none" stroke="midnightblue" d="M254.8,-86.25C215.58,-73.47 170.18,-58.68 134.76,-47.13"/>
<polygon fill="midnightblue" stroke="midnightblue" points="254.04,-89.68 264.63,-89.45 256.21,-83.03 254.04,-89.68"/>
</g>
<!-- Node3 -->
<g id="node3" class="node">
<title>Node3</title>
<g id="a_node3"><a xlink:href="cover__basic__blocks_8cpp.html" target="_top" xlink:title="Basic blocks detection for Coverage Instrumentation.">
<polygon fill="none" stroke="black" points="167,-0.5 167,-52.5 326,-52.5 326,-0.5 167,-0.5"/>
<text text-anchor="start" x="175" y="-40.5" font-family="Helvetica,sans-Serif" font-size="10.00">/home/runner/work/diffblue</text>
<text text-anchor="start" x="175" y="-29.5" font-family="Helvetica,sans-Serif" font-size="10.00">&#45;cbmc/diffblue&#45;cbmc/src</text>
<text text-anchor="start" x="175" y="-18.5" font-family="Helvetica,sans-Serif" font-size="10.00">/goto&#45;instrument/cover_basic</text>
<text text-anchor="middle" x="246.5" y="-7.5" font-family="Helvetica,sans-Serif" font-size="10.00">_blocks.cpp</text>
</a>
</g>
</g>
<!-- Node1&#45;&gt;Node3 -->
<g id="edge2" class="edge">
<title>Node1&#45;&gt;Node3</title>
<path fill="none" stroke="midnightblue" d="M306.41,-82.36C295.68,-72.54 284.05,-61.89 273.92,-52.61"/>
<polygon fill="midnightblue" stroke="midnightblue" points="304.28,-85.16 314.02,-89.34 309.01,-80 304.28,-85.16"/>
</g>
<!-- Node4 -->
<g id="node4" class="node">
<title>Node4</title>
<g id="a_node4"><a xlink:href="cover__instrument__branch_8cpp.html" target="_top" xlink:title="Coverage Instrumentation for Branches.">
<polygon fill="none" stroke="black" points="344,-0.5 344,-52.5 531,-52.5 531,-0.5 344,-0.5"/>
<text text-anchor="start" x="352" y="-40.5" font-family="Helvetica,sans-Serif" font-size="10.00">/home/runner/work/diffblue</text>
<text text-anchor="start" x="352" y="-29.5" font-family="Helvetica,sans-Serif" font-size="10.00">&#45;cbmc/diffblue&#45;cbmc/src</text>
<text text-anchor="start" x="352" y="-18.5" font-family="Helvetica,sans-Serif" font-size="10.00">/goto&#45;instrument/cover_instrument</text>
<text text-anchor="middle" x="437.5" y="-7.5" font-family="Helvetica,sans-Serif" font-size="10.00">_branch.cpp</text>
</a>
</g>
</g>
<!-- Node1&#45;&gt;Node4 -->
<g id="edge3" class="edge">
<title>Node1&#45;&gt;Node4</title>
<path fill="none" stroke="midnightblue" d="M376.96,-82.36C387.8,-72.54 399.55,-61.89 409.8,-52.61"/>
<polygon fill="midnightblue" stroke="midnightblue" points="374.33,-80.03 369.27,-89.34 379.03,-85.21 374.33,-80.03"/>
</g>
<!-- Node5 -->
<g id="node5" class="node">
<title>Node5</title>
<g id="a_node5"><a xlink:href="cover__instrument__location_8cpp.html" target="_top" xlink:title="Coverage Instrumentation for Location, i.e.">
<polygon fill="none" stroke="black" points="549,-0.5 549,-52.5 736,-52.5 736,-0.5 549,-0.5"/>
<text text-anchor="start" x="557" y="-40.5" font-family="Helvetica,sans-Serif" font-size="10.00">/home/runner/work/diffblue</text>
<text text-anchor="start" x="557" y="-29.5" font-family="Helvetica,sans-Serif" font-size="10.00">&#45;cbmc/diffblue&#45;cbmc/src</text>
<text text-anchor="start" x="557" y="-18.5" font-family="Helvetica,sans-Serif" font-size="10.00">/goto&#45;instrument/cover_instrument</text>
<text text-anchor="middle" x="642.5" y="-7.5" font-family="Helvetica,sans-Serif" font-size="10.00">_location.cpp</text>
</a>
</g>
</g>
<!-- Node1&#45;&gt;Node5 -->
<g id="edge4" class="edge">
<title>Node1&#45;&gt;Node5</title>
<path fill="none" stroke="midnightblue" d="M431,-88.63C470.5,-77.21 516.75,-63.85 555.91,-52.53"/>
<polygon fill="midnightblue" stroke="midnightblue" points="430.01,-85.27 421.37,-91.41 431.95,-92 430.01,-85.27"/>
</g>
</g>
</svg>
