<?xml version="1.0" encoding="UTF-8" standalone="no"?>
<!DOCTYPE svg PUBLIC "-//W3C//DTD SVG 1.1//EN"
 "http://www.w3.org/Graphics/SVG/1.1/DTD/svg11.dtd">
<!-- Generated by graphviz version 2.43.0 (0)
 -->
<!-- Title: /home/runner/work/diffblue&#45;cbmc/diffblue&#45;cbmc/src/goto&#45;instrument/cover_util.h Pages: 1 -->
<svg width="794pt" height="139pt"
 viewBox="0.00 0.00 793.50 139.00" xmlns="http://www.w3.org/2000/svg" xmlns:xlink="http://www.w3.org/1999/xlink">
<g id="graph0" class="graph" transform="scale(1 1) rotate(0) translate(4 135)">
<title>/home/runner/work/diffblue&#45;cbmc/diffblue&#45;cbmc/src/goto&#45;instrument/cover_util.h</title>
<!-- Node1 -->
<g id="node1" class="node">
<title>Node1</title>
<g id="a_node1"><a xlink:title="Coverage Instrumentation Utilities.">
<polygon fill="#bfbfbf" stroke="black" points="321.5,-89.5 321.5,-130.5 479.5,-130.5 479.5,-89.5 321.5,-89.5"/>
<text text-anchor="start" x="329.5" y="-118.5" font-family="Helvetica,sans-Serif" font-size="10.00">/home/runner/work/diffblue</text>
<text text-anchor="start" x="329.5" y="-107.5" font-family="Helvetica,sans-Serif" font-size="10.00">&#45;cbmc/diffblue&#45;cbmc/src</text>
<text text-anchor="middle" x="400.5" y="-96.5" font-family="Helvetica,sans-Serif" font-size="10.00">/goto&#45;instrument/cover_util.h</text>
</a>
</g>
</g>
<!-- Node2 -->
<g id="node2" class="node">
<title>Node2</title>
<g id="a_node2"><a xlink:href="cover__instrument__condition_8cpp.html" target="_top" xlink:title="Coverage Instrumentation for Conditions.">
<polygon fill="none" stroke="black" points="0,-0.5 0,-52.5 187,-52.5 187,-0.5 0,-0.5"/>
<text text-anchor="start" x="8" y="-40.5" font-family="Helvetica,sans-Serif" font-size="10.00">/home/runner/work/diffblue</text>
<text text-anchor="start" x="8" y="-29.5" font-family="Helvetica,sans-Serif" font-size="10.00">&#45;cbmc/diffblue&#45;cbmc/src</text>
<text text-anchor="start" x="8" y="-18.5" font-family="Helvetica,sans-Serif" font-size="10.00">/goto&#45;instrument/cover_instrument</text>
<text text-anchor="middle" x="93.5" y="-7.5" font-family="Helvetica,sans-Serif" font-size="10.00">_condition.cpp</text>
</a>
</g>
</g>
<!-- Node1&#45;&gt;Node2 -->
<g id="edge1" class="edge">
<title>Node1&#45;&gt;Node2</title>
<path fill="none" stroke="midnightblue" d="M317.2,-86.88C276.98,-76.21 228.58,-63.36 187.1,-52.35"/>
<polygon fill="midnightblue" stroke="midnightblue" points="316.4,-90.3 326.97,-89.48 318.2,-83.53 316.4,-90.3"/>
</g>
<!-- Node3 -->
<g id="node3" class="node">
<title>Node3</title>
<g id="a_node3"><a xlink:href="cover__instrument__decision_8cpp.html" target="_top" xlink:title="Coverage Instrumentation for Decisions.">
<polygon fill="none" stroke="black" points="205,-0.5 205,-52.5 392,-52.5 392,-0.5 205,-0.5"/>
<text text-anchor="start" x="213" y="-40.5" font-family="Helvetica,sans-Serif" font-size="10.00">/home/runner/work/diffblue</text>
<text text-anchor="start" x="213" y="-29.5" font-family="Helvetica,sans-Serif" font-size="10.00">&#45;cbmc/diffblue&#45;cbmc/src</text>
<text text-anchor="start" x="213" y="-18.5" font-family="Helvetica,sans-Serif" font-size="10.00">/goto&#45;instrument/cover_instrument</text>
<text text-anchor="middle" x="298.5" y="-7.5" font-family="Helvetica,sans-Serif" font-size="10.00">_decision.cpp</text>
</a>
</g>
</g>
<!-- Node1&#45;&gt;Node3 -->
<g id="edge2" class="edge">
<title>Node1&#45;&gt;Node3</title>
<path fill="none" stroke="midnightblue" d="M367.97,-83.01C355.85,-73.32 342.11,-62.35 330.07,-52.73"/>
<polygon fill="midnightblue" stroke="midnightblue" points="366.07,-85.97 376.07,-89.48 370.44,-80.5 366.07,-85.97"/>
</g>
<!-- Node4 -->
<g id="node4" class="node">
<title>Node4</title>
<g id="a_node4"><a xlink:href="cover__instrument__mcdc_8cpp.html" target="_top" xlink:title="Coverage Instrumentation for MC/DC.">
<polygon fill="none" stroke="black" points="410,-0.5 410,-52.5 597,-52.5 597,-0.5 410,-0.5"/>
<text text-anchor="start" x="418" y="-40.5" font-family="Helvetica,sans-Serif" font-size="10.00">/home/runner/work/diffblue</text>
<text text-anchor="start" x="418" y="-29.5" font-family="Helvetica,sans-Serif" font-size="10.00">&#45;cbmc/diffblue&#45;cbmc/src</text>
<text text-anchor="start" x="418" y="-18.5" font-family="Helvetica,sans-Serif" font-size="10.00">/goto&#45;instrument/cover_instrument</text>
<text text-anchor="middle" x="503.5" y="-7.5" font-family="Helvetica,sans-Serif" font-size="10.00">_mcdc.cpp</text>
</a>
</g>
</g>
<!-- Node1&#45;&gt;Node4 -->
<g id="edge3" class="edge">
<title>Node1&#45;&gt;Node4</title>
<path fill="none" stroke="midnightblue" d="M433.35,-83.01C445.59,-73.32 459.46,-62.35 471.62,-52.73"/>
<polygon fill="midnightblue" stroke="midnightblue" points="430.84,-80.53 425.17,-89.48 435.18,-86.02 430.84,-80.53"/>
</g>
<!-- Node5 -->
<g id="node5" class="node">
<title>Node5</title>
<g id="a_node5"><a xlink:href="cover__util_8cpp.html" target="_top" xlink:title="Coverage Instrumentation Utilities.">
<polygon fill="none" stroke="black" points="615.5,-6 615.5,-47 785.5,-47 785.5,-6 615.5,-6"/>
<text text-anchor="start" x="623.5" y="-35" font-family="Helvetica,sans-Serif" font-size="10.00">/home/runner/work/diffblue</text>
<text text-anchor="start" x="623.5" y="-24" font-family="Helvetica,sans-Serif" font-size="10.00">&#45;cbmc/diffblue&#45;cbmc/src</text>
<text text-anchor="middle" x="700.5" y="-13" font-family="Helvetica,sans-Serif" font-size="10.00">/goto&#45;instrument/cover_util.cpp</text>
</a>
</g>
</g>
<!-- Node1&#45;&gt;Node5 -->
<g id="edge4" class="edge">
<title>Node1&#45;&gt;Node5</title>
<path fill="none" stroke="midnightblue" d="M482.26,-86.79C528.05,-74.35 584.63,-58.98 628.71,-47"/>
<polygon fill="midnightblue" stroke="midnightblue" points="481.09,-83.48 472.36,-89.48 482.93,-90.23 481.09,-83.48"/>
</g>
</g>
</svg>
