<?xml version="1.0" encoding="UTF-8" standalone="no"?>
<!DOCTYPE svg PUBLIC "-//W3C//DTD SVG 1.1//EN"
 "http://www.w3.org/Graphics/SVG/1.1/DTD/svg11.dtd">
<!-- Generated by graphviz version 2.43.0 (0)
 -->
<!-- Title: /home/runner/work/diffblue&#45;cbmc/diffblue&#45;cbmc/src/goto&#45;instrument/cover_filter.h Pages: 1 -->
<svg width="1790pt" height="317pt"
 viewBox="0.00 0.00 1790.00 317.00" xmlns="http://www.w3.org/2000/svg" xmlns:xlink="http://www.w3.org/1999/xlink">
<g id="graph0" class="graph" transform="scale(1 1) rotate(0) translate(4 313)">
<title>/home/runner/work/diffblue&#45;cbmc/diffblue&#45;cbmc/src/goto&#45;instrument/cover_filter.h</title>
<!-- Node1 -->
<g id="node1" class="node">
<title>Node1</title>
<g id="a_node1"><a xlink:title="Filters for the Coverage Instrumentation.">
<polygon fill="#bfbfbf" stroke="black" points="1149.5,-267.5 1149.5,-308.5 1313.5,-308.5 1313.5,-267.5 1149.5,-267.5"/>
<text text-anchor="start" x="1157.5" y="-296.5" font-family="Helvetica,sans-Serif" font-size="10.00">/home/runner/work/diffblue</text>
<text text-anchor="start" x="1157.5" y="-285.5" font-family="Helvetica,sans-Serif" font-size="10.00">&#45;cbmc/diffblue&#45;cbmc/src</text>
<text text-anchor="middle" x="1231.5" y="-274.5" font-family="Helvetica,sans-Serif" font-size="10.00">/goto&#45;instrument/cover_filter.h</text>
</a>
</g>
</g>
<!-- Node2 -->
<g id="node2" class="node">
<title>Node2</title>
<g id="a_node2"><a xlink:href="cover_8h.html" target="_top" xlink:title="Coverage Instrumentation.">
<polygon fill="none" stroke="black" points="878,-184 878,-225 1027,-225 1027,-184 878,-184"/>
<text text-anchor="start" x="886" y="-213" font-family="Helvetica,sans-Serif" font-size="10.00">/home/runner/work/diffblue</text>
<text text-anchor="start" x="886" y="-202" font-family="Helvetica,sans-Serif" font-size="10.00">&#45;cbmc/diffblue&#45;cbmc/src</text>
<text text-anchor="middle" x="952.5" y="-191" font-family="Helvetica,sans-Serif" font-size="10.00">/goto&#45;instrument/cover.h</text>
</a>
</g>
</g>
<!-- Node1&#45;&gt;Node2 -->
<g id="edge1" class="edge">
<title>Node1&#45;&gt;Node2</title>
<path fill="none" stroke="midnightblue" d="M1151.7,-264.59C1116.09,-254.49 1073.65,-242.31 1035.5,-231 1029.14,-229.11 1022.52,-227.12 1015.9,-225.12"/>
<polygon fill="midnightblue" stroke="midnightblue" points="1150.98,-268.02 1161.55,-267.38 1152.89,-261.28 1150.98,-268.02"/>
</g>
<!-- Node17 -->
<g id="node17" class="node">
<title>Node17</title>
<g id="a_node17"><a xlink:href="cover__filter_8cpp.html" target="_top" xlink:title="Filters for the Coverage Instrumentation.">
<polygon fill="none" stroke="black" points="1044.5,-184 1044.5,-225 1220.5,-225 1220.5,-184 1044.5,-184"/>
<text text-anchor="start" x="1052.5" y="-213" font-family="Helvetica,sans-Serif" font-size="10.00">/home/runner/work/diffblue</text>
<text text-anchor="start" x="1052.5" y="-202" font-family="Helvetica,sans-Serif" font-size="10.00">&#45;cbmc/diffblue&#45;cbmc/src</text>
<text text-anchor="middle" x="1132.5" y="-191" font-family="Helvetica,sans-Serif" font-size="10.00">/goto&#45;instrument/cover_filter.cpp</text>
</a>
</g>
</g>
<!-- Node1&#45;&gt;Node17 -->
<g id="edge19" class="edge">
<title>Node1&#45;&gt;Node17</title>
<path fill="none" stroke="midnightblue" d="M1199.79,-260.89C1185.7,-249.3 1169.39,-235.87 1156.36,-225.14"/>
<polygon fill="midnightblue" stroke="midnightblue" points="1197.84,-263.83 1207.79,-267.48 1202.29,-258.42 1197.84,-263.83"/>
</g>
<!-- Node18 -->
<g id="node18" class="node">
<title>Node18</title>
<g id="a_node18"><a xlink:href="cover__instrument__branch_8cpp.html" target="_top" xlink:title="Coverage Instrumentation for Branches.">
<polygon fill="none" stroke="black" points="1238,-178.5 1238,-230.5 1425,-230.5 1425,-178.5 1238,-178.5"/>
<text text-anchor="start" x="1246" y="-218.5" font-family="Helvetica,sans-Serif" font-size="10.00">/home/runner/work/diffblue</text>
<text text-anchor="start" x="1246" y="-207.5" font-family="Helvetica,sans-Serif" font-size="10.00">&#45;cbmc/diffblue&#45;cbmc/src</text>
<text text-anchor="start" x="1246" y="-196.5" font-family="Helvetica,sans-Serif" font-size="10.00">/goto&#45;instrument/cover_instrument</text>
<text text-anchor="middle" x="1331.5" y="-185.5" font-family="Helvetica,sans-Serif" font-size="10.00">_branch.cpp</text>
</a>
</g>
</g>
<!-- Node1&#45;&gt;Node18 -->
<g id="edge20" class="edge">
<title>Node1&#45;&gt;Node18</title>
<path fill="none" stroke="midnightblue" d="M1263.39,-261.01C1275.28,-251.32 1288.74,-240.35 1300.55,-230.73"/>
<polygon fill="midnightblue" stroke="midnightblue" points="1260.99,-258.45 1255.45,-267.48 1265.42,-263.87 1260.99,-258.45"/>
</g>
<!-- Node19 -->
<g id="node19" class="node">
<title>Node19</title>
<g id="a_node19"><a xlink:href="cover__instrument__location_8cpp.html" target="_top" xlink:title="Coverage Instrumentation for Location, i.e.">
<polygon fill="none" stroke="black" points="1443,-178.5 1443,-230.5 1630,-230.5 1630,-178.5 1443,-178.5"/>
<text text-anchor="start" x="1451" y="-218.5" font-family="Helvetica,sans-Serif" font-size="10.00">/home/runner/work/diffblue</text>
<text text-anchor="start" x="1451" y="-207.5" font-family="Helvetica,sans-Serif" font-size="10.00">&#45;cbmc/diffblue&#45;cbmc/src</text>
<text text-anchor="start" x="1451" y="-196.5" font-family="Helvetica,sans-Serif" font-size="10.00">/goto&#45;instrument/cover_instrument</text>
<text text-anchor="middle" x="1536.5" y="-185.5" font-family="Helvetica,sans-Serif" font-size="10.00">_location.cpp</text>
</a>
</g>
</g>
<!-- Node1&#45;&gt;Node19 -->
<g id="edge21" class="edge">
<title>Node1&#45;&gt;Node19</title>
<path fill="none" stroke="midnightblue" d="M1314.22,-264.9C1353.99,-254.27 1401.84,-241.48 1442.94,-230.5"/>
<polygon fill="midnightblue" stroke="midnightblue" points="1313.31,-261.52 1304.56,-267.48 1315.12,-268.28 1313.31,-261.52"/>
</g>
<!-- Node3 -->
<g id="node3" class="node">
<title>Node3</title>
<g id="a_node3"><a xlink:href="cbmc__parse__options_8cpp.html" target="_top" xlink:title="CBMC Command Line Option Processing.">
<polygon fill="none" stroke="black" points="0,-6 0,-47 169,-47 169,-6 0,-6"/>
<text text-anchor="start" x="8" y="-35" font-family="Helvetica,sans-Serif" font-size="10.00">/home/runner/work/diffblue</text>
<text text-anchor="start" x="8" y="-24" font-family="Helvetica,sans-Serif" font-size="10.00">&#45;cbmc/diffblue&#45;cbmc/src</text>
<text text-anchor="middle" x="84.5" y="-13" font-family="Helvetica,sans-Serif" font-size="10.00">/cbmc/cbmc_parse_options.cpp</text>
</a>
</g>
</g>
<!-- Node2&#45;&gt;Node3 -->
<g id="edge2" class="edge">
<title>Node2&#45;&gt;Node3</title>
<path fill="none" stroke="midnightblue" d="M867.76,-203.36C748.55,-201.29 525.45,-190.49 342.5,-142 258.66,-119.78 167.42,-73.55 119.09,-47.13"/>
<polygon fill="midnightblue" stroke="midnightblue" points="867.86,-206.87 877.91,-203.52 867.97,-199.87 867.86,-206.87"/>
</g>
<!-- Node4 -->
<g id="node4" class="node">
<title>Node4</title>
<g id="a_node4"><a xlink:href="cbmc__parse__options_8h.html" target="_top" xlink:title="CBMC Command Line Option Processing.">
<polygon fill="none" stroke="black" points="351.5,-95 351.5,-136 509.5,-136 509.5,-95 351.5,-95"/>
<text text-anchor="start" x="359.5" y="-124" font-family="Helvetica,sans-Serif" font-size="10.00">/home/runner/work/diffblue</text>
<text text-anchor="start" x="359.5" y="-113" font-family="Helvetica,sans-Serif" font-size="10.00">&#45;cbmc/diffblue&#45;cbmc/src</text>
<text text-anchor="middle" x="430.5" y="-102" font-family="Helvetica,sans-Serif" font-size="10.00">/cbmc/cbmc_parse_options.h</text>
</a>
</g>
</g>
<!-- Node2&#45;&gt;Node4 -->
<g id="edge3" class="edge">
<title>Node2&#45;&gt;Node4</title>
<path fill="none" stroke="midnightblue" d="M868.01,-189.42C768.98,-172.91 606.13,-145.77 509.51,-129.67"/>
<polygon fill="midnightblue" stroke="midnightblue" points="867.55,-192.89 877.99,-191.08 868.7,-185.98 867.55,-192.89"/>
</g>
<!-- Node8 -->
<g id="node8" class="node">
<title>Node8</title>
<g id="a_node8"><a xlink:href="goto__diff__parse__options_8cpp.html" target="_top" xlink:title="GOTO&#45;DIFF Command Line Option Processing.">
<polygon fill="none" stroke="black" points="730,-0.5 730,-52.5 879,-52.5 879,-0.5 730,-0.5"/>
<text text-anchor="start" x="738" y="-40.5" font-family="Helvetica,sans-Serif" font-size="10.00">/home/runner/work/diffblue</text>
<text text-anchor="start" x="738" y="-29.5" font-family="Helvetica,sans-Serif" font-size="10.00">&#45;cbmc/diffblue&#45;cbmc/src</text>
<text text-anchor="start" x="738" y="-18.5" font-family="Helvetica,sans-Serif" font-size="10.00">/goto&#45;diff/goto_diff_parse</text>
<text text-anchor="middle" x="804.5" y="-7.5" font-family="Helvetica,sans-Serif" font-size="10.00">_options.cpp</text>
</a>
</g>
</g>
<!-- Node2&#45;&gt;Node8 -->
<g id="edge8" class="edge">
<title>Node2&#45;&gt;Node8</title>
<path fill="none" stroke="midnightblue" d="M910.77,-178.25C896.27,-168.17 880.61,-155.69 868.5,-142 844.51,-114.88 825.63,-77.28 814.77,-52.68"/>
<polygon fill="midnightblue" stroke="midnightblue" points="908.9,-181.2 919.15,-183.9 912.82,-175.4 908.9,-181.2"/>
</g>
<!-- Node9 -->
<g id="node9" class="node">
<title>Node9</title>
<g id="a_node9"><a xlink:href="goto__diff__parse__options_8h.html" target="_top" xlink:title="GOTO&#45;DIFF Command Line Option Processing.">
<polygon fill="none" stroke="black" points="878,-89.5 878,-141.5 1027,-141.5 1027,-89.5 878,-89.5"/>
<text text-anchor="start" x="886" y="-129.5" font-family="Helvetica,sans-Serif" font-size="10.00">/home/runner/work/diffblue</text>
<text text-anchor="start" x="886" y="-118.5" font-family="Helvetica,sans-Serif" font-size="10.00">&#45;cbmc/diffblue&#45;cbmc/src</text>
<text text-anchor="start" x="886" y="-107.5" font-family="Helvetica,sans-Serif" font-size="10.00">/goto&#45;diff/goto_diff_parse</text>
<text text-anchor="middle" x="952.5" y="-96.5" font-family="Helvetica,sans-Serif" font-size="10.00">_options.h</text>
</a>
</g>
</g>
<!-- Node2&#45;&gt;Node9 -->
<g id="edge9" class="edge">
<title>Node2&#45;&gt;Node9</title>
<path fill="none" stroke="midnightblue" d="M952.5,-173.51C952.5,-163.17 952.5,-151.71 952.5,-141.79"/>
<polygon fill="midnightblue" stroke="midnightblue" points="949,-173.76 952.5,-183.76 956,-173.76 949,-173.76"/>
</g>
<!-- Node12 -->
<g id="node12" class="node">
<title>Node12</title>
<g id="a_node12"><a xlink:href="cover_8cpp.html" target="_top" xlink:title="Coverage Instrumentation.">
<polygon fill="none" stroke="black" points="1045,-95 1045,-136 1194,-136 1194,-95 1045,-95"/>
<text text-anchor="start" x="1053" y="-124" font-family="Helvetica,sans-Serif" font-size="10.00">/home/runner/work/diffblue</text>
<text text-anchor="start" x="1053" y="-113" font-family="Helvetica,sans-Serif" font-size="10.00">&#45;cbmc/diffblue&#45;cbmc/src</text>
<text text-anchor="middle" x="1119.5" y="-102" font-family="Helvetica,sans-Serif" font-size="10.00">/goto&#45;instrument/cover.cpp</text>
</a>
</g>
</g>
<!-- Node2&#45;&gt;Node12 -->
<g id="edge13" class="edge">
<title>Node2&#45;&gt;Node12</title>
<path fill="none" stroke="midnightblue" d="M998.95,-179.3C1025.09,-165.68 1057.31,-148.9 1081.86,-136.11"/>
<polygon fill="midnightblue" stroke="midnightblue" points="997.23,-176.25 989.98,-183.98 1000.46,-182.46 997.23,-176.25"/>
</g>
<!-- Node13 -->
<g id="node13" class="node">
<title>Node13</title>
<g id="a_node13"><a xlink:href="jdiff__parse__options_8cpp.html" target="_top" xlink:title="JDIFF Command Line Option Processing.">
<polygon fill="none" stroke="black" points="1273,-6 1273,-47 1444,-47 1444,-6 1273,-6"/>
<text text-anchor="start" x="1281" y="-35" font-family="Helvetica,sans-Serif" font-size="10.00">/home/runner/work/diffblue</text>
<text text-anchor="start" x="1281" y="-24" font-family="Helvetica,sans-Serif" font-size="10.00">&#45;cbmc/diffblue&#45;cbmc/jbmc</text>
<text text-anchor="middle" x="1358.5" y="-13" font-family="Helvetica,sans-Serif" font-size="10.00">/src/jdiff/jdiff_parse_options.cpp</text>
</a>
</g>
</g>
<!-- Node2&#45;&gt;Node13 -->
<g id="edge14" class="edge">
<title>Node2&#45;&gt;Node13</title>
<path fill="none" stroke="midnightblue" d="M1023.81,-181.16C1027.75,-180.06 1031.67,-179 1035.5,-178 1108.97,-158.83 1133.26,-173.15 1202.5,-142 1256.12,-117.88 1309.33,-73.23 1337.63,-47.39"/>
<polygon fill="midnightblue" stroke="midnightblue" points="1022.63,-177.86 1013.97,-183.97 1024.55,-184.59 1022.63,-177.86"/>
</g>
<!-- Node14 -->
<g id="node14" class="node">
<title>Node14</title>
<g id="a_node14"><a xlink:href="jdiff__parse__options_8h.html" target="_top" xlink:title="JDIFF Command Line Option Processing.">
<polygon fill="none" stroke="black" points="1341.5,-95 1341.5,-136 1501.5,-136 1501.5,-95 1341.5,-95"/>
<text text-anchor="start" x="1349.5" y="-124" font-family="Helvetica,sans-Serif" font-size="10.00">/home/runner/work/diffblue</text>
<text text-anchor="start" x="1349.5" y="-113" font-family="Helvetica,sans-Serif" font-size="10.00">&#45;cbmc/diffblue&#45;cbmc/jbmc</text>
<text text-anchor="middle" x="1421.5" y="-102" font-family="Helvetica,sans-Serif" font-size="10.00">/src/jdiff/jdiff_parse_options.h</text>
</a>
</g>
</g>
<!-- Node2&#45;&gt;Node14 -->
<g id="edge15" class="edge">
<title>Node2&#45;&gt;Node14</title>
<path fill="none" stroke="midnightblue" d="M1021.99,-181.23C1026.54,-180.06 1031.07,-178.97 1035.5,-178 1155.08,-151.94 1188.02,-163.49 1308.5,-142 1319.19,-140.09 1330.4,-137.86 1341.43,-135.51"/>
<polygon fill="midnightblue" stroke="midnightblue" points="1020.77,-177.93 1012.03,-183.91 1022.59,-184.69 1020.77,-177.93"/>
</g>
<!-- Node4&#45;&gt;Node3 -->
<g id="edge6" class="edge">
<title>Node4&#45;&gt;Node3</title>
<path fill="none" stroke="midnightblue" d="M341.58,-93.56C293.01,-81.95 231.85,-67.05 177.5,-53 170.13,-51.09 162.43,-49.06 154.77,-47"/>
<polygon fill="midnightblue" stroke="midnightblue" points="340.9,-96.99 351.44,-95.91 342.52,-90.18 340.9,-96.99"/>
</g>
<!-- Node5 -->
<g id="node5" class="node">
<title>Node5</title>
<g id="a_node5"><a xlink:href="cbmc__languages_8cpp.html" target="_top" xlink:title="Language Registration.">
<polygon fill="none" stroke="black" points="187,-6 187,-47 338,-47 338,-6 187,-6"/>
<text text-anchor="start" x="195" y="-35" font-family="Helvetica,sans-Serif" font-size="10.00">/home/runner/work/diffblue</text>
<text text-anchor="start" x="195" y="-24" font-family="Helvetica,sans-Serif" font-size="10.00">&#45;cbmc/diffblue&#45;cbmc/src</text>
<text text-anchor="middle" x="262.5" y="-13" font-family="Helvetica,sans-Serif" font-size="10.00">/cbmc/cbmc_languages.cpp</text>
</a>
</g>
</g>
<!-- Node4&#45;&gt;Node5 -->
<g id="edge4" class="edge">
<title>Node4&#45;&gt;Node5</title>
<path fill="none" stroke="midnightblue" d="M383.77,-90.3C357.48,-76.68 325.06,-59.9 300.37,-47.11"/>
<polygon fill="midnightblue" stroke="midnightblue" points="382.31,-93.48 392.8,-94.98 385.53,-87.27 382.31,-93.48"/>
</g>
<!-- Node6 -->
<g id="node6" class="node">
<title>Node6</title>
<g id="a_node6"><a xlink:href="cbmc__main_8cpp.html" target="_top" xlink:title="CBMC Main Module.">
<polygon fill="none" stroke="black" points="356,-6 356,-47 505,-47 505,-6 356,-6"/>
<text text-anchor="start" x="364" y="-35" font-family="Helvetica,sans-Serif" font-size="10.00">/home/runner/work/diffblue</text>
<text text-anchor="start" x="364" y="-24" font-family="Helvetica,sans-Serif" font-size="10.00">&#45;cbmc/diffblue&#45;cbmc/src</text>
<text text-anchor="middle" x="430.5" y="-13" font-family="Helvetica,sans-Serif" font-size="10.00">/cbmc/cbmc_main.cpp</text>
</a>
</g>
</g>
<!-- Node4&#45;&gt;Node6 -->
<g id="edge5" class="edge">
<title>Node4&#45;&gt;Node6</title>
<path fill="none" stroke="midnightblue" d="M430.5,-84.44C430.5,-72.1 430.5,-58.16 430.5,-47.16"/>
<polygon fill="midnightblue" stroke="midnightblue" points="427,-84.76 430.5,-94.76 434,-84.76 427,-84.76"/>
</g>
<!-- Node7 -->
<g id="node7" class="node">
<title>Node7</title>
<g id="a_node7"><a xlink:href="goto__synthesizer__parse__options_8cpp.html" target="_top" xlink:title="Main Module.">
<polygon fill="none" stroke="black" points="523.5,-0.5 523.5,-52.5 711.5,-52.5 711.5,-0.5 523.5,-0.5"/>
<text text-anchor="start" x="531.5" y="-40.5" font-family="Helvetica,sans-Serif" font-size="10.00">/home/runner/work/diffblue</text>
<text text-anchor="start" x="531.5" y="-29.5" font-family="Helvetica,sans-Serif" font-size="10.00">&#45;cbmc/diffblue&#45;cbmc/src</text>
<text text-anchor="start" x="531.5" y="-18.5" font-family="Helvetica,sans-Serif" font-size="10.00">/goto&#45;synthesizer/goto_synthesizer</text>
<text text-anchor="middle" x="617.5" y="-7.5" font-family="Helvetica,sans-Serif" font-size="10.00">_parse_options.cpp</text>
</a>
</g>
</g>
<!-- Node4&#45;&gt;Node7 -->
<g id="edge7" class="edge">
<title>Node4&#45;&gt;Node7</title>
<path fill="none" stroke="midnightblue" d="M481.58,-90.74C507.01,-78.9 537.77,-64.59 563.58,-52.58"/>
<polygon fill="midnightblue" stroke="midnightblue" points="480.06,-87.58 472.47,-94.98 483.01,-93.93 480.06,-87.58"/>
</g>
<!-- Node9&#45;&gt;Node8 -->
<g id="edge12" class="edge">
<title>Node9&#45;&gt;Node8</title>
<path fill="none" stroke="midnightblue" d="M900.73,-84.07C883.24,-73.79 863.92,-62.43 847.21,-52.61"/>
<polygon fill="midnightblue" stroke="midnightblue" points="899.3,-87.29 909.69,-89.34 902.85,-81.25 899.3,-87.29"/>
</g>
<!-- Node10 -->
<g id="node10" class="node">
<title>Node10</title>
<g id="a_node10"><a xlink:href="goto__diff__languages_8cpp.html" target="_top" xlink:title="Language Registration.">
<polygon fill="none" stroke="black" points="897.5,-6 897.5,-47 1079.5,-47 1079.5,-6 897.5,-6"/>
<text text-anchor="start" x="905.5" y="-35" font-family="Helvetica,sans-Serif" font-size="10.00">/home/runner/work/diffblue</text>
<text text-anchor="start" x="905.5" y="-24" font-family="Helvetica,sans-Serif" font-size="10.00">&#45;cbmc/diffblue&#45;cbmc/src</text>
<text text-anchor="middle" x="988.5" y="-13" font-family="Helvetica,sans-Serif" font-size="10.00">/goto&#45;diff/goto_diff_languages.cpp</text>
</a>
</g>
</g>
<!-- Node9&#45;&gt;Node10 -->
<g id="edge10" class="edge">
<title>Node9&#45;&gt;Node10</title>
<path fill="none" stroke="midnightblue" d="M966.85,-79.83C971.46,-68.69 976.4,-56.74 980.4,-47.08"/>
<polygon fill="midnightblue" stroke="midnightblue" points="963.5,-78.76 962.91,-89.34 969.97,-81.43 963.5,-78.76"/>
</g>
<!-- Node11 -->
<g id="node11" class="node">
<title>Node11</title>
<g id="a_node11"><a xlink:href="goto__diff__main_8cpp.html" target="_top" xlink:title="GOTO&#45;DIFF Main Module.">
<polygon fill="none" stroke="black" points="1098,-6 1098,-47 1255,-47 1255,-6 1098,-6"/>
<text text-anchor="start" x="1106" y="-35" font-family="Helvetica,sans-Serif" font-size="10.00">/home/runner/work/diffblue</text>
<text text-anchor="start" x="1106" y="-24" font-family="Helvetica,sans-Serif" font-size="10.00">&#45;cbmc/diffblue&#45;cbmc/src</text>
<text text-anchor="middle" x="1176.5" y="-13" font-family="Helvetica,sans-Serif" font-size="10.00">/goto&#45;diff/goto_diff_main.cpp</text>
</a>
</g>
</g>
<!-- Node9&#45;&gt;Node11 -->
<g id="edge11" class="edge">
<title>Node9&#45;&gt;Node11</title>
<path fill="none" stroke="midnightblue" d="M1026.49,-85.76C1059.11,-73.09 1096.6,-58.53 1125.95,-47.13"/>
<polygon fill="midnightblue" stroke="midnightblue" points="1025.04,-82.57 1016.99,-89.45 1027.58,-89.09 1025.04,-82.57"/>
</g>
<!-- Node14&#45;&gt;Node13 -->
<g id="edge18" class="edge">
<title>Node14&#45;&gt;Node13</title>
<path fill="none" stroke="midnightblue" d="M1401.08,-86.3C1391.82,-73.52 1381.11,-58.72 1372.74,-47.16"/>
<polygon fill="midnightblue" stroke="midnightblue" points="1398.5,-88.71 1407.2,-94.76 1404.17,-84.61 1398.5,-88.71"/>
</g>
<!-- Node15 -->
<g id="node15" class="node">
<title>Node15</title>
<g id="a_node15"><a xlink:href="jdiff__languages_8cpp.html" target="_top" xlink:title="Language Registration.">
<polygon fill="none" stroke="black" points="1462,-6 1462,-47 1615,-47 1615,-6 1462,-6"/>
<text text-anchor="start" x="1470" y="-35" font-family="Helvetica,sans-Serif" font-size="10.00">/home/runner/work/diffblue</text>
<text text-anchor="start" x="1470" y="-24" font-family="Helvetica,sans-Serif" font-size="10.00">&#45;cbmc/diffblue&#45;cbmc/jbmc</text>
<text text-anchor="middle" x="1538.5" y="-13" font-family="Helvetica,sans-Serif" font-size="10.00">/src/jdiff/jdiff_languages.cpp</text>
</a>
</g>
</g>
<!-- Node14&#45;&gt;Node15 -->
<g id="edge16" class="edge">
<title>Node14&#45;&gt;Node15</title>
<path fill="none" stroke="midnightblue" d="M1456.19,-88.71C1474.02,-75.44 1495.42,-59.53 1511.93,-47.26"/>
<polygon fill="midnightblue" stroke="midnightblue" points="1453.69,-86.2 1447.76,-94.98 1457.87,-91.82 1453.69,-86.2"/>
</g>
<!-- Node16 -->
<g id="node16" class="node">
<title>Node16</title>
<g id="a_node16"><a xlink:href="jdiff__main_8cpp.html" target="_top" xlink:title="JDIFF Main Module.">
<polygon fill="none" stroke="black" points="1633,-6 1633,-47 1782,-47 1782,-6 1633,-6"/>
<text text-anchor="start" x="1641" y="-35" font-family="Helvetica,sans-Serif" font-size="10.00">/home/runner/work/diffblue</text>
<text text-anchor="start" x="1641" y="-24" font-family="Helvetica,sans-Serif" font-size="10.00">&#45;cbmc/diffblue&#45;cbmc/jbmc</text>
<text text-anchor="middle" x="1707.5" y="-13" font-family="Helvetica,sans-Serif" font-size="10.00">/src/jdiff/jdiff_main.cpp</text>
</a>
</g>
</g>
<!-- Node14&#45;&gt;Node16 -->
<g id="edge17" class="edge">
<title>Node14&#45;&gt;Node16</title>
<path fill="none" stroke="midnightblue" d="M1496.47,-91.86C1534.79,-80.27 1582.14,-65.92 1624.5,-53 1630.84,-51.06 1637.46,-49.04 1644.06,-47.02"/>
<polygon fill="midnightblue" stroke="midnightblue" points="1494.99,-88.66 1486.43,-94.9 1497.01,-95.36 1494.99,-88.66"/>
</g>
</g>
</svg>
