<?xml version="1.0" encoding="UTF-8" standalone="no"?>
<!DOCTYPE svg PUBLIC "-//W3C//DTD SVG 1.1//EN"
 "http://www.w3.org/Graphics/SVG/1.1/DTD/svg11.dtd">
<!-- Generated by graphviz version 2.43.0 (0)
 -->
<!-- Title: /home/runner/work/diffblue&#45;cbmc/diffblue&#45;cbmc/src/cpp/cpp_typecheck.h Pages: 1 -->
<svg width="5233pt" height="139pt"
 viewBox="0.00 0.00 5233.00 139.00" xmlns="http://www.w3.org/2000/svg" xmlns:xlink="http://www.w3.org/1999/xlink">
<g id="graph0" class="graph" transform="scale(1 1) rotate(0) translate(4 135)">
<title>/home/runner/work/diffblue&#45;cbmc/diffblue&#45;cbmc/src/cpp/cpp_typecheck.h</title>
<!-- Node1 -->
<g id="node1" class="node">
<title>Node1</title>
<g id="a_node1"><a xlink:title="C++ Language Type Checking.">
<polygon fill="#bfbfbf" stroke="black" points="2550,-89.5 2550,-130.5 2699,-130.5 2699,-89.5 2550,-89.5"/>
<text text-anchor="start" x="2558" y="-118.5" font-family="Helvetica,sans-Serif" font-size="10.00">/home/runner/work/diffblue</text>
<text text-anchor="start" x="2558" y="-107.5" font-family="Helvetica,sans-Serif" font-size="10.00">&#45;cbmc/diffblue&#45;cbmc/src</text>
<text text-anchor="middle" x="2624.5" y="-96.5" font-family="Helvetica,sans-Serif" font-size="10.00">/cpp/cpp_typecheck.h</text>
</a>
</g>
</g>
<!-- Node2 -->
<g id="node2" class="node">
<title>Node2</title>
<g id="a_node2"><a xlink:href="cpp__constructor_8cpp.html" target="_top" xlink:title="C++ Language Type Checking.">
<polygon fill="none" stroke="black" points="0,-6 0,-47 149,-47 149,-6 0,-6"/>
<text text-anchor="start" x="8" y="-35" font-family="Helvetica,sans-Serif" font-size="10.00">/home/runner/work/diffblue</text>
<text text-anchor="start" x="8" y="-24" font-family="Helvetica,sans-Serif" font-size="10.00">&#45;cbmc/diffblue&#45;cbmc/src</text>
<text text-anchor="middle" x="74.5" y="-13" font-family="Helvetica,sans-Serif" font-size="10.00">/cpp/cpp_constructor.cpp</text>
</a>
</g>
</g>
<!-- Node1&#45;&gt;Node2 -->
<g id="edge1" class="edge">
<title>Node1&#45;&gt;Node2</title>
<path fill="none" stroke="midnightblue" d="M2539.59,-108.46C2133.16,-105.68 396.24,-91.62 157.5,-53 148.72,-51.58 139.58,-49.46 130.71,-47.04"/>
<polygon fill="midnightblue" stroke="midnightblue" points="2539.78,-111.96 2549.8,-108.53 2539.83,-104.96 2539.78,-111.96"/>
</g>
<!-- Node3 -->
<g id="node3" class="node">
<title>Node3</title>
<g id="a_node3"><a xlink:href="cpp__declarator__converter_8cpp.html" target="_top" xlink:title="C++ Language Type Checking.">
<polygon fill="none" stroke="black" points="167,-6 167,-47 350,-47 350,-6 167,-6"/>
<text text-anchor="start" x="175" y="-35" font-family="Helvetica,sans-Serif" font-size="10.00">/home/runner/work/diffblue</text>
<text text-anchor="start" x="175" y="-24" font-family="Helvetica,sans-Serif" font-size="10.00">&#45;cbmc/diffblue&#45;cbmc/src</text>
<text text-anchor="middle" x="258.5" y="-13" font-family="Helvetica,sans-Serif" font-size="10.00">/cpp/cpp_declarator_converter.cpp</text>
</a>
</g>
</g>
<!-- Node1&#45;&gt;Node3 -->
<g id="edge2" class="edge">
<title>Node1&#45;&gt;Node3</title>
<path fill="none" stroke="midnightblue" d="M2539.86,-109.45C2182.03,-110.98 791.91,-112.84 358.5,-53 348.12,-51.57 337.26,-49.46 326.68,-47.05"/>
<polygon fill="midnightblue" stroke="midnightblue" points="2539.91,-112.95 2549.89,-109.41 2539.88,-105.95 2539.91,-112.95"/>
</g>
<!-- Node4 -->
<g id="node4" class="node">
<title>Node4</title>
<g id="a_node4"><a xlink:href="cpp__destructor_8cpp.html" target="_top" xlink:title="C++ Language Type Checking.">
<polygon fill="none" stroke="black" points="368,-6 368,-47 517,-47 517,-6 368,-6"/>
<text text-anchor="start" x="376" y="-35" font-family="Helvetica,sans-Serif" font-size="10.00">/home/runner/work/diffblue</text>
<text text-anchor="start" x="376" y="-24" font-family="Helvetica,sans-Serif" font-size="10.00">&#45;cbmc/diffblue&#45;cbmc/src</text>
<text text-anchor="middle" x="442.5" y="-13" font-family="Helvetica,sans-Serif" font-size="10.00">/cpp/cpp_destructor.cpp</text>
</a>
</g>
</g>
<!-- Node1&#45;&gt;Node4 -->
<g id="edge3" class="edge">
<title>Node1&#45;&gt;Node4</title>
<path fill="none" stroke="midnightblue" d="M2539.95,-108.1C2172.82,-104 726.26,-85.89 525.5,-53 516.72,-51.56 507.58,-49.43 498.71,-47.01"/>
<polygon fill="midnightblue" stroke="midnightblue" points="2539.94,-111.6 2549.98,-108.21 2540.02,-104.6 2539.94,-111.6"/>
</g>
<!-- Node5 -->
<g id="node5" class="node">
<title>Node5</title>
<g id="a_node5"><a xlink:href="cpp__instantiate__template_8cpp.html" target="_top" xlink:title="C++ Language Type Checking.">
<polygon fill="none" stroke="black" points="535,-6 535,-47 720,-47 720,-6 535,-6"/>
<text text-anchor="start" x="543" y="-35" font-family="Helvetica,sans-Serif" font-size="10.00">/home/runner/work/diffblue</text>
<text text-anchor="start" x="543" y="-24" font-family="Helvetica,sans-Serif" font-size="10.00">&#45;cbmc/diffblue&#45;cbmc/src</text>
<text text-anchor="middle" x="627.5" y="-13" font-family="Helvetica,sans-Serif" font-size="10.00">/cpp/cpp_instantiate_template.cpp</text>
</a>
</g>
</g>
<!-- Node1&#45;&gt;Node5 -->
<g id="edge4" class="edge">
<title>Node1&#45;&gt;Node5</title>
<path fill="none" stroke="midnightblue" d="M2539.77,-108.95C2219.89,-108.37 1085.74,-102.77 728.5,-53 718.02,-51.54 707.06,-49.42 696.38,-47.01"/>
<polygon fill="midnightblue" stroke="midnightblue" points="2539.89,-112.45 2549.9,-108.96 2539.91,-105.45 2539.89,-112.45"/>
</g>
<!-- Node6 -->
<g id="node6" class="node">
<title>Node6</title>
<g id="a_node6"><a xlink:href="cpp__is__pod_8cpp.html" target="_top" xlink:title="C++ Language Type Checking.">
<polygon fill="none" stroke="black" points="738,-6 738,-47 887,-47 887,-6 738,-6"/>
<text text-anchor="start" x="746" y="-35" font-family="Helvetica,sans-Serif" font-size="10.00">/home/runner/work/diffblue</text>
<text text-anchor="start" x="746" y="-24" font-family="Helvetica,sans-Serif" font-size="10.00">&#45;cbmc/diffblue&#45;cbmc/src</text>
<text text-anchor="middle" x="812.5" y="-13" font-family="Helvetica,sans-Serif" font-size="10.00">/cpp/cpp_is_pod.cpp</text>
</a>
</g>
</g>
<!-- Node1&#45;&gt;Node6 -->
<g id="edge5" class="edge">
<title>Node1&#45;&gt;Node6</title>
<path fill="none" stroke="midnightblue" d="M2539.45,-109.23C2237.4,-109.57 1217.18,-106.64 895.5,-53 886.88,-51.56 877.9,-49.47 869.17,-47.09"/>
<polygon fill="midnightblue" stroke="midnightblue" points="2539.9,-112.73 2549.89,-109.21 2539.89,-105.73 2539.9,-112.73"/>
</g>
<!-- Node7 -->
<g id="node7" class="node">
<title>Node7</title>
<g id="a_node7"><a xlink:href="cpp__language_8cpp.html" target="_top" xlink:title="C++ Language Module.">
<polygon fill="none" stroke="black" points="905,-6 905,-47 1054,-47 1054,-6 905,-6"/>
<text text-anchor="start" x="913" y="-35" font-family="Helvetica,sans-Serif" font-size="10.00">/home/runner/work/diffblue</text>
<text text-anchor="start" x="913" y="-24" font-family="Helvetica,sans-Serif" font-size="10.00">&#45;cbmc/diffblue&#45;cbmc/src</text>
<text text-anchor="middle" x="979.5" y="-13" font-family="Helvetica,sans-Serif" font-size="10.00">/cpp/cpp_language.cpp</text>
</a>
</g>
</g>
<!-- Node1&#45;&gt;Node7 -->
<g id="edge6" class="edge">
<title>Node1&#45;&gt;Node7</title>
<path fill="none" stroke="midnightblue" d="M2539.63,-108.88C2257.15,-108.03 1350.27,-101.5 1062.5,-53 1053.88,-51.55 1044.9,-49.44 1036.18,-47.06"/>
<polygon fill="midnightblue" stroke="midnightblue" points="2539.81,-112.38 2549.82,-108.91 2539.83,-105.38 2539.81,-112.38"/>
</g>
<!-- Node8 -->
<g id="node8" class="node">
<title>Node8</title>
<g id="a_node8"><a xlink:href="cpp__typecheck_8cpp.html" target="_top" xlink:title="C++ Language Type Checking.">
<polygon fill="none" stroke="black" points="1072,-6 1072,-47 1221,-47 1221,-6 1072,-6"/>
<text text-anchor="start" x="1080" y="-35" font-family="Helvetica,sans-Serif" font-size="10.00">/home/runner/work/diffblue</text>
<text text-anchor="start" x="1080" y="-24" font-family="Helvetica,sans-Serif" font-size="10.00">&#45;cbmc/diffblue&#45;cbmc/src</text>
<text text-anchor="middle" x="1146.5" y="-13" font-family="Helvetica,sans-Serif" font-size="10.00">/cpp/cpp_typecheck.cpp</text>
</a>
</g>
</g>
<!-- Node1&#45;&gt;Node8 -->
<g id="edge7" class="edge">
<title>Node1&#45;&gt;Node8</title>
<path fill="none" stroke="midnightblue" d="M2539.47,-108.45C2277.23,-106.32 1483.4,-96.35 1229.5,-53 1220.88,-51.53 1211.91,-49.41 1203.18,-47.03"/>
<polygon fill="midnightblue" stroke="midnightblue" points="2539.67,-111.96 2549.7,-108.54 2539.73,-104.96 2539.67,-111.96"/>
</g>
<!-- Node9 -->
<g id="node9" class="node">
<title>Node9</title>
<g id="a_node9"><a xlink:href="cpp__typecheck__bases_8cpp.html" target="_top" xlink:title="C++ Language Type Checking.">
<polygon fill="none" stroke="black" points="1239,-6 1239,-47 1406,-47 1406,-6 1239,-6"/>
<text text-anchor="start" x="1247" y="-35" font-family="Helvetica,sans-Serif" font-size="10.00">/home/runner/work/diffblue</text>
<text text-anchor="start" x="1247" y="-24" font-family="Helvetica,sans-Serif" font-size="10.00">&#45;cbmc/diffblue&#45;cbmc/src</text>
<text text-anchor="middle" x="1322.5" y="-13" font-family="Helvetica,sans-Serif" font-size="10.00">/cpp/cpp_typecheck_bases.cpp</text>
</a>
</g>
</g>
<!-- Node1&#45;&gt;Node9 -->
<g id="edge8" class="edge">
<title>Node1&#45;&gt;Node9</title>
<path fill="none" stroke="midnightblue" d="M2539.55,-107.54C2301.57,-103.07 1631.66,-87.67 1414.5,-53 1405.17,-51.51 1395.43,-49.42 1385.94,-47.07"/>
<polygon fill="midnightblue" stroke="midnightblue" points="2539.81,-111.05 2549.87,-107.74 2539.94,-104.05 2539.81,-111.05"/>
</g>
<!-- Node10 -->
<g id="node10" class="node">
<title>Node10</title>
<g id="a_node10"><a xlink:href="cpp__typecheck__code_8cpp.html" target="_top" xlink:title="C++ Language Type Checking.">
<polygon fill="none" stroke="black" points="1424,-6 1424,-47 1585,-47 1585,-6 1424,-6"/>
<text text-anchor="start" x="1432" y="-35" font-family="Helvetica,sans-Serif" font-size="10.00">/home/runner/work/diffblue</text>
<text text-anchor="start" x="1432" y="-24" font-family="Helvetica,sans-Serif" font-size="10.00">&#45;cbmc/diffblue&#45;cbmc/src</text>
<text text-anchor="middle" x="1504.5" y="-13" font-family="Helvetica,sans-Serif" font-size="10.00">/cpp/cpp_typecheck_code.cpp</text>
</a>
</g>
</g>
<!-- Node1&#45;&gt;Node10 -->
<g id="edge9" class="edge">
<title>Node1&#45;&gt;Node10</title>
<path fill="none" stroke="midnightblue" d="M2539.68,-106.85C2326.92,-101.06 1774.71,-83.48 1593.5,-53 1584.47,-51.48 1575.04,-49.37 1565.85,-47.02"/>
<polygon fill="midnightblue" stroke="midnightblue" points="2539.76,-110.35 2549.85,-107.12 2539.95,-103.35 2539.76,-110.35"/>
</g>
<!-- Node11 -->
<g id="node11" class="node">
<title>Node11</title>
<g id="a_node11"><a xlink:href="cpp__typecheck__compound__type_8cpp.html" target="_top" xlink:title="C++ Language Type Checking.">
<polygon fill="none" stroke="black" points="1603,-0.5 1603,-52.5 1772,-52.5 1772,-0.5 1603,-0.5"/>
<text text-anchor="start" x="1611" y="-40.5" font-family="Helvetica,sans-Serif" font-size="10.00">/home/runner/work/diffblue</text>
<text text-anchor="start" x="1611" y="-29.5" font-family="Helvetica,sans-Serif" font-size="10.00">&#45;cbmc/diffblue&#45;cbmc/src</text>
<text text-anchor="start" x="1611" y="-18.5" font-family="Helvetica,sans-Serif" font-size="10.00">/cpp/cpp_typecheck_compound</text>
<text text-anchor="middle" x="1687.5" y="-7.5" font-family="Helvetica,sans-Serif" font-size="10.00">_type.cpp</text>
</a>
</g>
</g>
<!-- Node1&#45;&gt;Node11 -->
<g id="edge10" class="edge">
<title>Node1&#45;&gt;Node11</title>
<path fill="none" stroke="midnightblue" d="M2539.54,-108.91C2386.77,-107.52 2056.03,-98.89 1781.5,-53 1778.41,-52.48 1775.28,-51.91 1772.13,-51.29"/>
<polygon fill="midnightblue" stroke="midnightblue" points="2539.76,-112.41 2549.78,-108.99 2539.81,-105.41 2539.76,-112.41"/>
</g>
<!-- Node12 -->
<g id="node12" class="node">
<title>Node12</title>
<g id="a_node12"><a xlink:href="cpp__typecheck__constructor_8cpp.html" target="_top" xlink:title="C++ Language Type Checking.">
<polygon fill="none" stroke="black" points="1790.5,-6 1790.5,-47 1982.5,-47 1982.5,-6 1790.5,-6"/>
<text text-anchor="start" x="1798.5" y="-35" font-family="Helvetica,sans-Serif" font-size="10.00">/home/runner/work/diffblue</text>
<text text-anchor="start" x="1798.5" y="-24" font-family="Helvetica,sans-Serif" font-size="10.00">&#45;cbmc/diffblue&#45;cbmc/src</text>
<text text-anchor="middle" x="1886.5" y="-13" font-family="Helvetica,sans-Serif" font-size="10.00">/cpp/cpp_typecheck_constructor.cpp</text>
</a>
</g>
</g>
<!-- Node1&#45;&gt;Node12 -->
<g id="edge11" class="edge">
<title>Node1&#45;&gt;Node12</title>
<path fill="none" stroke="midnightblue" d="M2539.97,-105.56C2418.12,-99.68 2186.32,-85.09 1991.5,-53 1981.6,-51.37 1971.25,-49.31 1961.07,-47.06"/>
<polygon fill="midnightblue" stroke="midnightblue" points="2539.83,-109.05 2549.98,-106.03 2540.16,-102.06 2539.83,-109.05"/>
</g>
<!-- Node13 -->
<g id="node13" class="node">
<title>Node13</title>
<g id="a_node13"><a xlink:href="cpp__typecheck__conversions_8cpp.html" target="_top" xlink:title="C++ Language Type Checking.">
<polygon fill="none" stroke="black" points="2001,-6 2001,-47 2198,-47 2198,-6 2001,-6"/>
<text text-anchor="start" x="2009" y="-35" font-family="Helvetica,sans-Serif" font-size="10.00">/home/runner/work/diffblue</text>
<text text-anchor="start" x="2009" y="-24" font-family="Helvetica,sans-Serif" font-size="10.00">&#45;cbmc/diffblue&#45;cbmc/src</text>
<text text-anchor="middle" x="2099.5" y="-13" font-family="Helvetica,sans-Serif" font-size="10.00">/cpp/cpp_typecheck_conversions.cpp</text>
</a>
</g>
</g>
<!-- Node1&#45;&gt;Node13 -->
<g id="edge12" class="edge">
<title>Node1&#45;&gt;Node13</title>
<path fill="none" stroke="midnightblue" d="M2539.68,-100.17C2454.95,-90.76 2321.16,-74.29 2206.5,-53 2197.02,-51.24 2187.11,-49.18 2177.32,-47.01"/>
<polygon fill="midnightblue" stroke="midnightblue" points="2539.44,-103.67 2549.77,-101.29 2540.21,-96.71 2539.44,-103.67"/>
</g>
<!-- Node14 -->
<g id="node14" class="node">
<title>Node14</title>
<g id="a_node14"><a xlink:href="cpp__typecheck__declaration_8cpp.html" target="_top" xlink:title="C++ Language Type Checking.">
<polygon fill="none" stroke="black" points="2216,-6 2216,-47 2409,-47 2409,-6 2216,-6"/>
<text text-anchor="start" x="2224" y="-35" font-family="Helvetica,sans-Serif" font-size="10.00">/home/runner/work/diffblue</text>
<text text-anchor="start" x="2224" y="-24" font-family="Helvetica,sans-Serif" font-size="10.00">&#45;cbmc/diffblue&#45;cbmc/src</text>
<text text-anchor="middle" x="2312.5" y="-13" font-family="Helvetica,sans-Serif" font-size="10.00">/cpp/cpp_typecheck_declaration.cpp</text>
</a>
</g>
</g>
<!-- Node1&#45;&gt;Node14 -->
<g id="edge13" class="edge">
<title>Node1&#45;&gt;Node14</title>
<path fill="none" stroke="midnightblue" d="M2540.07,-86.95C2492.34,-74.48 2433.19,-59.03 2387.16,-47"/>
<polygon fill="midnightblue" stroke="midnightblue" points="2539.21,-90.34 2549.77,-89.48 2540.98,-83.56 2539.21,-90.34"/>
</g>
<!-- Node15 -->
<g id="node15" class="node">
<title>Node15</title>
<g id="a_node15"><a xlink:href="cpp__typecheck__destructor_8cpp.html" target="_top" xlink:title="C++ Language Type Checking.">
<polygon fill="none" stroke="black" points="2427,-6 2427,-47 2614,-47 2614,-6 2427,-6"/>
<text text-anchor="start" x="2435" y="-35" font-family="Helvetica,sans-Serif" font-size="10.00">/home/runner/work/diffblue</text>
<text text-anchor="start" x="2435" y="-24" font-family="Helvetica,sans-Serif" font-size="10.00">&#45;cbmc/diffblue&#45;cbmc/src</text>
<text text-anchor="middle" x="2520.5" y="-13" font-family="Helvetica,sans-Serif" font-size="10.00">/cpp/cpp_typecheck_destructor.cpp</text>
</a>
</g>
</g>
<!-- Node1&#45;&gt;Node15 -->
<g id="edge14" class="edge">
<title>Node1&#45;&gt;Node15</title>
<path fill="none" stroke="midnightblue" d="M2591.6,-83.22C2576.71,-71.55 2559.39,-57.97 2545.57,-47.14"/>
<polygon fill="midnightblue" stroke="midnightblue" points="2589.56,-86.07 2599.59,-89.48 2593.88,-80.56 2589.56,-86.07"/>
</g>
<!-- Node16 -->
<g id="node16" class="node">
<title>Node16</title>
<g id="a_node16"><a xlink:href="cpp__typecheck__enum__type_8cpp.html" target="_top" xlink:title="C++ Language Type Checking.">
<polygon fill="none" stroke="black" points="2632,-6 2632,-47 2825,-47 2825,-6 2632,-6"/>
<text text-anchor="start" x="2640" y="-35" font-family="Helvetica,sans-Serif" font-size="10.00">/home/runner/work/diffblue</text>
<text text-anchor="start" x="2640" y="-24" font-family="Helvetica,sans-Serif" font-size="10.00">&#45;cbmc/diffblue&#45;cbmc/src</text>
<text text-anchor="middle" x="2728.5" y="-13" font-family="Helvetica,sans-Serif" font-size="10.00">/cpp/cpp_typecheck_enum_type.cpp</text>
</a>
</g>
</g>
<!-- Node1&#45;&gt;Node16 -->
<g id="edge15" class="edge">
<title>Node1&#45;&gt;Node16</title>
<path fill="none" stroke="midnightblue" d="M2657.4,-83.22C2672.29,-71.55 2689.61,-57.97 2703.43,-47.14"/>
<polygon fill="midnightblue" stroke="midnightblue" points="2655.12,-80.56 2649.41,-89.48 2659.44,-86.07 2655.12,-80.56"/>
</g>
<!-- Node17 -->
<g id="node17" class="node">
<title>Node17</title>
<g id="a_node17"><a xlink:href="cpp__typecheck__expr_8cpp.html" target="_top" xlink:title="C++ Language Type Checking.">
<polygon fill="none" stroke="black" points="2843,-6 2843,-47 3002,-47 3002,-6 2843,-6"/>
<text text-anchor="start" x="2851" y="-35" font-family="Helvetica,sans-Serif" font-size="10.00">/home/runner/work/diffblue</text>
<text text-anchor="start" x="2851" y="-24" font-family="Helvetica,sans-Serif" font-size="10.00">&#45;cbmc/diffblue&#45;cbmc/src</text>
<text text-anchor="middle" x="2922.5" y="-13" font-family="Helvetica,sans-Serif" font-size="10.00">/cpp/cpp_typecheck_expr.cpp</text>
</a>
</g>
</g>
<!-- Node1&#45;&gt;Node17 -->
<g id="edge16" class="edge">
<title>Node1&#45;&gt;Node17</title>
<path fill="none" stroke="midnightblue" d="M2709.51,-86.77C2747.76,-76.66 2793.45,-64.42 2834.5,-53 2841.4,-51.08 2848.59,-49.05 2855.76,-47"/>
<polygon fill="midnightblue" stroke="midnightblue" points="2708.22,-83.49 2699.44,-89.43 2710.01,-90.26 2708.22,-83.49"/>
</g>
<!-- Node18 -->
<g id="node18" class="node">
<title>Node18</title>
<g id="a_node18"><a xlink:href="cpp__typecheck__fargs_8cpp.html" target="_top" xlink:title="C++ Language Type Checking.">
<polygon fill="none" stroke="black" points="3020,-6 3020,-47 3183,-47 3183,-6 3020,-6"/>
<text text-anchor="start" x="3028" y="-35" font-family="Helvetica,sans-Serif" font-size="10.00">/home/runner/work/diffblue</text>
<text text-anchor="start" x="3028" y="-24" font-family="Helvetica,sans-Serif" font-size="10.00">&#45;cbmc/diffblue&#45;cbmc/src</text>
<text text-anchor="middle" x="3101.5" y="-13" font-family="Helvetica,sans-Serif" font-size="10.00">/cpp/cpp_typecheck_fargs.cpp</text>
</a>
</g>
</g>
<!-- Node1&#45;&gt;Node18 -->
<g id="edge17" class="edge">
<title>Node1&#45;&gt;Node18</title>
<path fill="none" stroke="midnightblue" d="M2709.57,-99.97C2788.36,-90.84 2908.56,-74.93 3011.5,-53 3019.6,-51.27 3028.05,-49.22 3036.38,-47.05"/>
<polygon fill="midnightblue" stroke="midnightblue" points="2708.74,-96.54 2699.21,-101.16 2709.54,-103.5 2708.74,-96.54"/>
</g>
<!-- Node19 -->
<g id="node19" class="node">
<title>Node19</title>
<g id="a_node19"><a xlink:href="cpp__typecheck__function_8cpp.html" target="_top" xlink:title="C++ Language Type Checking.">
<polygon fill="none" stroke="black" points="3201.5,-6 3201.5,-47 3379.5,-47 3379.5,-6 3201.5,-6"/>
<text text-anchor="start" x="3209.5" y="-35" font-family="Helvetica,sans-Serif" font-size="10.00">/home/runner/work/diffblue</text>
<text text-anchor="start" x="3209.5" y="-24" font-family="Helvetica,sans-Serif" font-size="10.00">&#45;cbmc/diffblue&#45;cbmc/src</text>
<text text-anchor="middle" x="3290.5" y="-13" font-family="Helvetica,sans-Serif" font-size="10.00">/cpp/cpp_typecheck_function.cpp</text>
</a>
</g>
</g>
<!-- Node1&#45;&gt;Node19 -->
<g id="edge18" class="edge">
<title>Node1&#45;&gt;Node19</title>
<path fill="none" stroke="midnightblue" d="M2709.62,-104.77C2821.21,-98.27 3022.7,-83.27 3192.5,-53 3201.76,-51.35 3211.43,-49.27 3220.93,-47.03"/>
<polygon fill="midnightblue" stroke="midnightblue" points="2709.22,-101.28 2699.44,-105.35 2709.62,-108.27 2709.22,-101.28"/>
</g>
<!-- Node20 -->
<g id="node20" class="node">
<title>Node20</title>
<g id="a_node20"><a xlink:href="cpp__typecheck__initializer_8cpp.html" target="_top" xlink:title="C++ Language Type Checking.">
<polygon fill="none" stroke="black" points="3398,-6 3398,-47 3581,-47 3581,-6 3398,-6"/>
<text text-anchor="start" x="3406" y="-35" font-family="Helvetica,sans-Serif" font-size="10.00">/home/runner/work/diffblue</text>
<text text-anchor="start" x="3406" y="-24" font-family="Helvetica,sans-Serif" font-size="10.00">&#45;cbmc/diffblue&#45;cbmc/src</text>
<text text-anchor="middle" x="3489.5" y="-13" font-family="Helvetica,sans-Serif" font-size="10.00">/cpp/cpp_typecheck_initializer.cpp</text>
</a>
</g>
</g>
<!-- Node1&#45;&gt;Node20 -->
<g id="edge19" class="edge">
<title>Node1&#45;&gt;Node20</title>
<path fill="none" stroke="midnightblue" d="M2709.36,-107.59C2850.97,-104.17 3144.02,-92.51 3388.5,-53 3398.32,-51.41 3408.58,-49.33 3418.64,-47.04"/>
<polygon fill="midnightblue" stroke="midnightblue" points="2708.94,-104.1 2699.02,-107.84 2709.1,-111.1 2708.94,-104.1"/>
</g>
<!-- Node21 -->
<g id="node21" class="node">
<title>Node21</title>
<g id="a_node21"><a xlink:href="cpp__typecheck__linkage__spec_8cpp.html" target="_top" xlink:title="C++ Language Type Checking.">
<polygon fill="none" stroke="black" points="3599,-0.5 3599,-52.5 3752,-52.5 3752,-0.5 3599,-0.5"/>
<text text-anchor="start" x="3607" y="-40.5" font-family="Helvetica,sans-Serif" font-size="10.00">/home/runner/work/diffblue</text>
<text text-anchor="start" x="3607" y="-29.5" font-family="Helvetica,sans-Serif" font-size="10.00">&#45;cbmc/diffblue&#45;cbmc/src</text>
<text text-anchor="start" x="3607" y="-18.5" font-family="Helvetica,sans-Serif" font-size="10.00">/cpp/cpp_typecheck_linkage</text>
<text text-anchor="middle" x="3675.5" y="-7.5" font-family="Helvetica,sans-Serif" font-size="10.00">_spec.cpp</text>
</a>
</g>
</g>
<!-- Node1&#45;&gt;Node21 -->
<g id="edge20" class="edge">
<title>Node1&#45;&gt;Node21</title>
<path fill="none" stroke="midnightblue" d="M2709.02,-106.63C2911.96,-100.54 3422.32,-82.68 3590.5,-53 3593.23,-52.52 3596,-51.98 3598.78,-51.39"/>
<polygon fill="midnightblue" stroke="midnightblue" points="2708.9,-103.13 2699.01,-106.93 2709.11,-110.13 2708.9,-103.13"/>
</g>
<!-- Node22 -->
<g id="node22" class="node">
<title>Node22</title>
<g id="a_node22"><a xlink:href="cpp__typecheck__method__bodies_8cpp.html" target="_top" xlink:title="C++ Language Type Checking.">
<polygon fill="none" stroke="black" points="3770,-0.5 3770,-52.5 3925,-52.5 3925,-0.5 3770,-0.5"/>
<text text-anchor="start" x="3778" y="-40.5" font-family="Helvetica,sans-Serif" font-size="10.00">/home/runner/work/diffblue</text>
<text text-anchor="start" x="3778" y="-29.5" font-family="Helvetica,sans-Serif" font-size="10.00">&#45;cbmc/diffblue&#45;cbmc/src</text>
<text text-anchor="start" x="3778" y="-18.5" font-family="Helvetica,sans-Serif" font-size="10.00">/cpp/cpp_typecheck_method</text>
<text text-anchor="middle" x="3847.5" y="-7.5" font-family="Helvetica,sans-Serif" font-size="10.00">_bodies.cpp</text>
</a>
</g>
</g>
<!-- Node1&#45;&gt;Node22 -->
<g id="edge21" class="edge">
<title>Node1&#45;&gt;Node22</title>
<path fill="none" stroke="midnightblue" d="M2709.5,-107.44C2937.56,-102.85 3559.31,-87.44 3761.5,-53 3764.26,-52.53 3767.06,-52 3769.88,-51.42"/>
<polygon fill="midnightblue" stroke="midnightblue" points="2709.2,-103.95 2699.27,-107.65 2709.34,-110.95 2709.2,-103.95"/>
</g>
<!-- Node23 -->
<g id="node23" class="node">
<title>Node23</title>
<g id="a_node23"><a xlink:href="cpp__typecheck__namespace_8cpp.html" target="_top" xlink:title="C++ Language Type Checking.">
<polygon fill="none" stroke="black" points="3943.5,-6 3943.5,-47 4137.5,-47 4137.5,-6 3943.5,-6"/>
<text text-anchor="start" x="3951.5" y="-35" font-family="Helvetica,sans-Serif" font-size="10.00">/home/runner/work/diffblue</text>
<text text-anchor="start" x="3951.5" y="-24" font-family="Helvetica,sans-Serif" font-size="10.00">&#45;cbmc/diffblue&#45;cbmc/src</text>
<text text-anchor="middle" x="4040.5" y="-13" font-family="Helvetica,sans-Serif" font-size="10.00">/cpp/cpp_typecheck_namespace.cpp</text>
</a>
</g>
</g>
<!-- Node1&#45;&gt;Node23 -->
<g id="edge22" class="edge">
<title>Node1&#45;&gt;Node23</title>
<path fill="none" stroke="midnightblue" d="M2709.39,-107.52C2960.44,-102.79 3696.59,-86.38 3934.5,-53 3945.18,-51.5 3956.37,-49.41 3967.29,-47.05"/>
<polygon fill="midnightblue" stroke="midnightblue" points="2709.17,-104.02 2699.23,-107.71 2709.3,-111.02 2709.17,-104.02"/>
</g>
<!-- Node24 -->
<g id="node24" class="node">
<title>Node24</title>
<g id="a_node24"><a xlink:href="cpp__typecheck__resolve_8cpp.html" target="_top" xlink:title="C++ Language Type Checking.">
<polygon fill="none" stroke="black" points="4155.5,-6 4155.5,-47 4329.5,-47 4329.5,-6 4155.5,-6"/>
<text text-anchor="start" x="4163.5" y="-35" font-family="Helvetica,sans-Serif" font-size="10.00">/home/runner/work/diffblue</text>
<text text-anchor="start" x="4163.5" y="-24" font-family="Helvetica,sans-Serif" font-size="10.00">&#45;cbmc/diffblue&#45;cbmc/src</text>
<text text-anchor="middle" x="4242.5" y="-13" font-family="Helvetica,sans-Serif" font-size="10.00">/cpp/cpp_typecheck_resolve.cpp</text>
</a>
</g>
</g>
<!-- Node1&#45;&gt;Node24 -->
<g id="edge23" class="edge">
<title>Node1&#45;&gt;Node24</title>
<path fill="none" stroke="midnightblue" d="M2709.44,-108.36C2987.09,-105.89 3866.03,-94.87 4146.5,-53 4156.39,-51.52 4166.73,-49.41 4176.8,-47.02"/>
<polygon fill="midnightblue" stroke="midnightblue" points="2709,-104.87 2699.03,-108.45 2709.06,-111.87 2709,-104.87"/>
</g>
<!-- Node25 -->
<g id="node25" class="node">
<title>Node25</title>
<g id="a_node25"><a xlink:href="cpp__typecheck__static__assert_8cpp.html" target="_top" xlink:title="C++ Language Type Checking.">
<polygon fill="none" stroke="black" points="4348,-0.5 4348,-52.5 4497,-52.5 4497,-0.5 4348,-0.5"/>
<text text-anchor="start" x="4356" y="-40.5" font-family="Helvetica,sans-Serif" font-size="10.00">/home/runner/work/diffblue</text>
<text text-anchor="start" x="4356" y="-29.5" font-family="Helvetica,sans-Serif" font-size="10.00">&#45;cbmc/diffblue&#45;cbmc/src</text>
<text text-anchor="start" x="4356" y="-18.5" font-family="Helvetica,sans-Serif" font-size="10.00">/cpp/cpp_typecheck_static</text>
<text text-anchor="middle" x="4422.5" y="-7.5" font-family="Helvetica,sans-Serif" font-size="10.00">_assert.cpp</text>
</a>
</g>
</g>
<!-- Node1&#45;&gt;Node25 -->
<g id="edge24" class="edge">
<title>Node1&#45;&gt;Node25</title>
<path fill="none" stroke="midnightblue" d="M2709.83,-109.16C3010.52,-109.27 4019.89,-105.63 4338.5,-53 4341.51,-52.5 4344.56,-51.93 4347.63,-51.29"/>
<polygon fill="midnightblue" stroke="midnightblue" points="2709.43,-105.66 2699.43,-109.16 2709.43,-112.66 2709.43,-105.66"/>
</g>
<!-- Node26 -->
<g id="node26" class="node">
<title>Node26</title>
<g id="a_node26"><a xlink:href="cpp__typecheck__template_8cpp.html" target="_top" xlink:title="C++ Language Type Checking.">
<polygon fill="none" stroke="black" points="4515.5,-6 4515.5,-47 4697.5,-47 4697.5,-6 4515.5,-6"/>
<text text-anchor="start" x="4523.5" y="-35" font-family="Helvetica,sans-Serif" font-size="10.00">/home/runner/work/diffblue</text>
<text text-anchor="start" x="4523.5" y="-24" font-family="Helvetica,sans-Serif" font-size="10.00">&#45;cbmc/diffblue&#45;cbmc/src</text>
<text text-anchor="middle" x="4606.5" y="-13" font-family="Helvetica,sans-Serif" font-size="10.00">/cpp/cpp_typecheck_template.cpp</text>
</a>
</g>
</g>
<!-- Node1&#45;&gt;Node26 -->
<g id="edge25" class="edge">
<title>Node1&#45;&gt;Node26</title>
<path fill="none" stroke="midnightblue" d="M2709.15,-108.95C3027.41,-108.39 4152.16,-102.83 4506.5,-53 4516.88,-51.54 4527.74,-49.42 4538.31,-47.01"/>
<polygon fill="midnightblue" stroke="midnightblue" points="2709.06,-105.45 2699.07,-108.97 2709.07,-112.45 2709.06,-105.45"/>
</g>
<!-- Node27 -->
<g id="node27" class="node">
<title>Node27</title>
<g id="a_node27"><a xlink:href="cpp__typecheck__type_8cpp.html" target="_top" xlink:title="C++ Language Type Checking.">
<polygon fill="none" stroke="black" points="4715.5,-6 4715.5,-47 4875.5,-47 4875.5,-6 4715.5,-6"/>
<text text-anchor="start" x="4723.5" y="-35" font-family="Helvetica,sans-Serif" font-size="10.00">/home/runner/work/diffblue</text>
<text text-anchor="start" x="4723.5" y="-24" font-family="Helvetica,sans-Serif" font-size="10.00">&#45;cbmc/diffblue&#45;cbmc/src</text>
<text text-anchor="middle" x="4795.5" y="-13" font-family="Helvetica,sans-Serif" font-size="10.00">/cpp/cpp_typecheck_type.cpp</text>
</a>
</g>
</g>
<!-- Node1&#45;&gt;Node27 -->
<g id="edge26" class="edge">
<title>Node1&#45;&gt;Node27</title>
<path fill="none" stroke="midnightblue" d="M2709.53,-107.98C3075.54,-103.41 4507.28,-83.71 4706.5,-53 4715.71,-51.58 4725.32,-49.49 4734.67,-47.12"/>
<polygon fill="midnightblue" stroke="midnightblue" points="2709.23,-104.48 2699.27,-108.11 2709.31,-111.48 2709.23,-104.48"/>
</g>
<!-- Node28 -->
<g id="node28" class="node">
<title>Node28</title>
<g id="a_node28"><a xlink:href="cpp__typecheck__using_8cpp.html" target="_top" xlink:title="C++ Language Type Checking.">
<polygon fill="none" stroke="black" points="4893.5,-6 4893.5,-47 5057.5,-47 5057.5,-6 4893.5,-6"/>
<text text-anchor="start" x="4901.5" y="-35" font-family="Helvetica,sans-Serif" font-size="10.00">/home/runner/work/diffblue</text>
<text text-anchor="start" x="4901.5" y="-24" font-family="Helvetica,sans-Serif" font-size="10.00">&#45;cbmc/diffblue&#45;cbmc/src</text>
<text text-anchor="middle" x="4975.5" y="-13" font-family="Helvetica,sans-Serif" font-size="10.00">/cpp/cpp_typecheck_using.cpp</text>
</a>
</g>
</g>
<!-- Node1&#45;&gt;Node28 -->
<g id="edge27" class="edge">
<title>Node1&#45;&gt;Node28</title>
<path fill="none" stroke="midnightblue" d="M2709.39,-108.14C3094.36,-104.1 4666.76,-85.68 4884.5,-53 4894.07,-51.56 4904.07,-49.43 4913.78,-47.01"/>
<polygon fill="midnightblue" stroke="midnightblue" points="2709.13,-104.65 2699.16,-108.25 2709.2,-111.65 2709.13,-104.65"/>
</g>
<!-- Node29 -->
<g id="node29" class="node">
<title>Node29</title>
<g id="a_node29"><a xlink:href="cpp__typecheck__virtual__table_8cpp.html" target="_top" xlink:title="C++ Language Type Checking.">
<polygon fill="none" stroke="black" points="5076,-0.5 5076,-52.5 5225,-52.5 5225,-0.5 5076,-0.5"/>
<text text-anchor="start" x="5084" y="-40.5" font-family="Helvetica,sans-Serif" font-size="10.00">/home/runner/work/diffblue</text>
<text text-anchor="start" x="5084" y="-29.5" font-family="Helvetica,sans-Serif" font-size="10.00">&#45;cbmc/diffblue&#45;cbmc/src</text>
<text text-anchor="start" x="5084" y="-18.5" font-family="Helvetica,sans-Serif" font-size="10.00">/cpp/cpp_typecheck_virtual</text>
<text text-anchor="middle" x="5150.5" y="-7.5" font-family="Helvetica,sans-Serif" font-size="10.00">_table.cpp</text>
</a>
</g>
</g>
<!-- Node1&#45;&gt;Node29 -->
<g id="edge28" class="edge">
<title>Node1&#45;&gt;Node29</title>
<path fill="none" stroke="midnightblue" d="M2709.21,-108.42C3112.73,-105.48 4830.25,-90.84 5066.5,-53 5069.51,-52.52 5072.56,-51.96 5075.63,-51.33"/>
<polygon fill="midnightblue" stroke="midnightblue" points="2709.04,-104.92 2699.07,-108.5 2709.1,-111.92 2709.04,-104.92"/>
</g>
</g>
</svg>
