<?xml version="1.0" encoding="UTF-8" standalone="no"?>
<!DOCTYPE svg PUBLIC "-//W3C//DTD SVG 1.1//EN"
 "http://www.w3.org/Graphics/SVG/1.1/DTD/svg11.dtd">
<!-- Generated by graphviz version 2.43.0 (0)
 -->
<!-- Title: /home/runner/work/diffblue&#45;cbmc/diffblue&#45;cbmc/src/cpp/cpp_enum_type.h Pages: 1 -->
<svg width="535pt" height="128pt"
 viewBox="0.00 0.00 535.00 128.00" xmlns="http://www.w3.org/2000/svg" xmlns:xlink="http://www.w3.org/1999/xlink">
<g id="graph0" class="graph" transform="scale(1 1) rotate(0) translate(4 124)">
<title>/home/runner/work/diffblue&#45;cbmc/diffblue&#45;cbmc/src/cpp/cpp_enum_type.h</title>
<!-- Node1 -->
<g id="node1" class="node">
<title>Node1</title>
<g id="a_node1"><a xlink:title="C++ Language Type Checking.">
<polygon fill="#bfbfbf" stroke="black" points="189,-78.5 189,-119.5 338,-119.5 338,-78.5 189,-78.5"/>
<text text-anchor="start" x="197" y="-107.5" font-family="Helvetica,sans-Serif" font-size="10.00">/home/runner/work/diffblue</text>
<text text-anchor="start" x="197" y="-96.5" font-family="Helvetica,sans-Serif" font-size="10.00">&#45;cbmc/diffblue&#45;cbmc/src</text>
<text text-anchor="middle" x="263.5" y="-85.5" font-family="Helvetica,sans-Serif" font-size="10.00">/cpp/cpp_enum_type.h</text>
</a>
</g>
</g>
<!-- Node2 -->
<g id="node2" class="node">
<title>Node2</title>
<g id="a_node2"><a xlink:href="cpp__enum__type_8cpp.html" target="_top" xlink:title="C++ Language Type Checking.">
<polygon fill="none" stroke="black" points="0,-0.5 0,-41.5 149,-41.5 149,-0.5 0,-0.5"/>
<text text-anchor="start" x="8" y="-29.5" font-family="Helvetica,sans-Serif" font-size="10.00">/home/runner/work/diffblue</text>
<text text-anchor="start" x="8" y="-18.5" font-family="Helvetica,sans-Serif" font-size="10.00">&#45;cbmc/diffblue&#45;cbmc/src</text>
<text text-anchor="middle" x="74.5" y="-7.5" font-family="Helvetica,sans-Serif" font-size="10.00">/cpp/cpp_enum_type.cpp</text>
</a>
</g>
</g>
<!-- Node1&#45;&gt;Node2 -->
<g id="edge1" class="edge">
<title>Node1&#45;&gt;Node2</title>
<path fill="none" stroke="midnightblue" d="M205.33,-74.61C178.95,-64 148.11,-51.6 123.01,-41.51"/>
<polygon fill="midnightblue" stroke="midnightblue" points="204.24,-77.94 214.83,-78.43 206.86,-71.45 204.24,-77.94"/>
</g>
<!-- Node3 -->
<g id="node3" class="node">
<title>Node3</title>
<g id="a_node3"><a xlink:href="cpp__typecheck__enum__type_8cpp.html" target="_top" xlink:title="C++ Language Type Checking.">
<polygon fill="none" stroke="black" points="167,-0.5 167,-41.5 360,-41.5 360,-0.5 167,-0.5"/>
<text text-anchor="start" x="175" y="-29.5" font-family="Helvetica,sans-Serif" font-size="10.00">/home/runner/work/diffblue</text>
<text text-anchor="start" x="175" y="-18.5" font-family="Helvetica,sans-Serif" font-size="10.00">&#45;cbmc/diffblue&#45;cbmc/src</text>
<text text-anchor="middle" x="263.5" y="-7.5" font-family="Helvetica,sans-Serif" font-size="10.00">/cpp/cpp_typecheck_enum_type.cpp</text>
</a>
</g>
</g>
<!-- Node1&#45;&gt;Node3 -->
<g id="edge2" class="edge">
<title>Node1&#45;&gt;Node3</title>
<path fill="none" stroke="midnightblue" d="M263.5,-68.3C263.5,-59.3 263.5,-49.65 263.5,-41.51"/>
<polygon fill="midnightblue" stroke="midnightblue" points="260,-68.43 263.5,-78.43 267,-68.43 260,-68.43"/>
</g>
<!-- Node4 -->
<g id="node4" class="node">
<title>Node4</title>
<g id="a_node4"><a xlink:href="parse_8cpp.html" target="_top" xlink:title="C++ Language Parsing.">
<polygon fill="none" stroke="black" points="378,-0.5 378,-41.5 527,-41.5 527,-0.5 378,-0.5"/>
<text text-anchor="start" x="386" y="-29.5" font-family="Helvetica,sans-Serif" font-size="10.00">/home/runner/work/diffblue</text>
<text text-anchor="start" x="386" y="-18.5" font-family="Helvetica,sans-Serif" font-size="10.00">&#45;cbmc/diffblue&#45;cbmc/src</text>
<text text-anchor="middle" x="452.5" y="-7.5" font-family="Helvetica,sans-Serif" font-size="10.00">/cpp/parse.cpp</text>
</a>
</g>
</g>
<!-- Node1&#45;&gt;Node4 -->
<g id="edge3" class="edge">
<title>Node1&#45;&gt;Node4</title>
<path fill="none" stroke="midnightblue" d="M321.67,-74.61C348.05,-64 378.89,-51.6 403.99,-41.51"/>
<polygon fill="midnightblue" stroke="midnightblue" points="320.14,-71.45 312.17,-78.43 322.76,-77.94 320.14,-71.45"/>
</g>
</g>
</svg>
