<?xml version="1.0" encoding="UTF-8" standalone="no"?>
<!DOCTYPE svg PUBLIC "-//W3C//DTD SVG 1.1//EN"
 "http://www.w3.org/Graphics/SVG/1.1/DTD/svg11.dtd">
<!-- Generated by graphviz version 2.43.0 (0)
 -->
<!-- Title: /home/runner/work/diffblue&#45;cbmc/diffblue&#45;cbmc/src/cpp/cpp_namespace_spec.h Pages: 1 -->
<svg width="6710pt" height="373pt"
 viewBox="0.00 0.00 6710.00 373.00" xmlns="http://www.w3.org/2000/svg" xmlns:xlink="http://www.w3.org/1999/xlink">
<g id="graph0" class="graph" transform="scale(1 1) rotate(0) translate(4 369)">
<title>/home/runner/work/diffblue&#45;cbmc/diffblue&#45;cbmc/src/cpp/cpp_namespace_spec.h</title>
<!-- Node1 -->
<g id="node1" class="node">
<title>Node1</title>
<g id="a_node1"><a xlink:title="C++ Language Type Checking.">
<polygon fill="#bfbfbf" stroke="black" points="1311,-323.5 1311,-364.5 1466,-364.5 1466,-323.5 1311,-323.5"/>
<text text-anchor="start" x="1319" y="-352.5" font-family="Helvetica,sans-Serif" font-size="10.00">/home/runner/work/diffblue</text>
<text text-anchor="start" x="1319" y="-341.5" font-family="Helvetica,sans-Serif" font-size="10.00">&#45;cbmc/diffblue&#45;cbmc/src</text>
<text text-anchor="middle" x="1388.5" y="-330.5" font-family="Helvetica,sans-Serif" font-size="10.00">/cpp/cpp_namespace_spec.h</text>
</a>
</g>
</g>
<!-- Node2 -->
<g id="node2" class="node">
<title>Node2</title>
<g id="a_node2"><a xlink:href="cpp__item_8h.html" target="_top" xlink:title="C++ Language Type Checking.">
<polygon fill="none" stroke="black" points="1226,-245.5 1226,-286.5 1375,-286.5 1375,-245.5 1226,-245.5"/>
<text text-anchor="start" x="1234" y="-274.5" font-family="Helvetica,sans-Serif" font-size="10.00">/home/runner/work/diffblue</text>
<text text-anchor="start" x="1234" y="-263.5" font-family="Helvetica,sans-Serif" font-size="10.00">&#45;cbmc/diffblue&#45;cbmc/src</text>
<text text-anchor="middle" x="1300.5" y="-252.5" font-family="Helvetica,sans-Serif" font-size="10.00">/cpp/cpp_item.h</text>
</a>
</g>
</g>
<!-- Node1&#45;&gt;Node2 -->
<g id="edge1" class="edge">
<title>Node1&#45;&gt;Node2</title>
<path fill="none" stroke="midnightblue" d="M1358.14,-316.78C1346.63,-306.84 1333.75,-295.72 1323.09,-286.51"/>
<polygon fill="midnightblue" stroke="midnightblue" points="1355.98,-319.54 1365.84,-323.43 1360.56,-314.24 1355.98,-319.54"/>
</g>
<!-- Node44 -->
<g id="node44" class="node">
<title>Node44</title>
<g id="a_node44"><a xlink:href="cpp__namespace__spec_8cpp.html" target="_top" xlink:title="C++ Language Type Checking.">
<polygon fill="none" stroke="black" points="1393,-245.5 1393,-286.5 1560,-286.5 1560,-245.5 1393,-245.5"/>
<text text-anchor="start" x="1401" y="-274.5" font-family="Helvetica,sans-Serif" font-size="10.00">/home/runner/work/diffblue</text>
<text text-anchor="start" x="1401" y="-263.5" font-family="Helvetica,sans-Serif" font-size="10.00">&#45;cbmc/diffblue&#45;cbmc/src</text>
<text text-anchor="middle" x="1476.5" y="-252.5" font-family="Helvetica,sans-Serif" font-size="10.00">/cpp/cpp_namespace_spec.cpp</text>
</a>
</g>
</g>
<!-- Node1&#45;&gt;Node44 -->
<g id="edge45" class="edge">
<title>Node1&#45;&gt;Node44</title>
<path fill="none" stroke="midnightblue" d="M1418.86,-316.78C1430.37,-306.84 1443.25,-295.72 1453.91,-286.51"/>
<polygon fill="midnightblue" stroke="midnightblue" points="1416.44,-314.24 1411.16,-323.43 1421.02,-319.54 1416.44,-314.24"/>
</g>
<!-- Node3 -->
<g id="node3" class="node">
<title>Node3</title>
<g id="a_node3"><a xlink:href="cpp__parse__tree_8h.html" target="_top" xlink:title="C++ Parser.">
<polygon fill="none" stroke="black" points="1226,-167.5 1226,-208.5 1375,-208.5 1375,-167.5 1226,-167.5"/>
<text text-anchor="start" x="1234" y="-196.5" font-family="Helvetica,sans-Serif" font-size="10.00">/home/runner/work/diffblue</text>
<text text-anchor="start" x="1234" y="-185.5" font-family="Helvetica,sans-Serif" font-size="10.00">&#45;cbmc/diffblue&#45;cbmc/src</text>
<text text-anchor="middle" x="1300.5" y="-174.5" font-family="Helvetica,sans-Serif" font-size="10.00">/cpp/cpp_parse_tree.h</text>
</a>
</g>
</g>
<!-- Node2&#45;&gt;Node3 -->
<g id="edge2" class="edge">
<title>Node2&#45;&gt;Node3</title>
<path fill="none" stroke="midnightblue" d="M1300.5,-235.3C1300.5,-226.3 1300.5,-216.65 1300.5,-208.51"/>
<polygon fill="midnightblue" stroke="midnightblue" points="1297,-235.43 1300.5,-245.43 1304,-235.43 1297,-235.43"/>
</g>
<!-- Node4 -->
<g id="node4" class="node">
<title>Node4</title>
<g id="a_node4"><a xlink:href="cpp__language_8h.html" target="_top" xlink:title="C++ Language Module.">
<polygon fill="none" stroke="black" points="653,-89.5 653,-130.5 802,-130.5 802,-89.5 653,-89.5"/>
<text text-anchor="start" x="661" y="-118.5" font-family="Helvetica,sans-Serif" font-size="10.00">/home/runner/work/diffblue</text>
<text text-anchor="start" x="661" y="-107.5" font-family="Helvetica,sans-Serif" font-size="10.00">&#45;cbmc/diffblue&#45;cbmc/src</text>
<text text-anchor="middle" x="727.5" y="-96.5" font-family="Helvetica,sans-Serif" font-size="10.00">/cpp/cpp_language.h</text>
</a>
</g>
</g>
<!-- Node3&#45;&gt;Node4 -->
<g id="edge3" class="edge">
<title>Node3&#45;&gt;Node4</title>
<path fill="none" stroke="midnightblue" d="M1215.65,-175.75C1103.74,-160.9 908.57,-135.02 802.06,-120.89"/>
<polygon fill="midnightblue" stroke="midnightblue" points="1215.51,-179.26 1225.88,-177.1 1216.43,-172.32 1215.51,-179.26"/>
</g>
<!-- Node12 -->
<g id="node12" class="node">
<title>Node12</title>
<g id="a_node12"><a xlink:href="cpp__parse__tree_8cpp.html" target="_top" xlink:title="C++ Parser.">
<polygon fill="none" stroke="black" points="1143,-89.5 1143,-130.5 1292,-130.5 1292,-89.5 1143,-89.5"/>
<text text-anchor="start" x="1151" y="-118.5" font-family="Helvetica,sans-Serif" font-size="10.00">/home/runner/work/diffblue</text>
<text text-anchor="start" x="1151" y="-107.5" font-family="Helvetica,sans-Serif" font-size="10.00">&#45;cbmc/diffblue&#45;cbmc/src</text>
<text text-anchor="middle" x="1217.5" y="-96.5" font-family="Helvetica,sans-Serif" font-size="10.00">/cpp/cpp_parse_tree.cpp</text>
</a>
</g>
</g>
<!-- Node3&#45;&gt;Node12 -->
<g id="edge11" class="edge">
<title>Node3&#45;&gt;Node12</title>
<path fill="none" stroke="midnightblue" d="M1271.55,-160.49C1260.78,-150.63 1248.76,-139.63 1238.8,-130.51"/>
<polygon fill="midnightblue" stroke="midnightblue" points="1269.39,-163.26 1279.13,-167.43 1274.11,-158.09 1269.39,-163.26"/>
</g>
<!-- Node13 -->
<g id="node13" class="node">
<title>Node13</title>
<g id="a_node13"><a xlink:href="cpp__parser_8h.html" target="_top" xlink:title="C++ Parser.">
<polygon fill="none" stroke="black" points="1310,-89.5 1310,-130.5 1459,-130.5 1459,-89.5 1310,-89.5"/>
<text text-anchor="start" x="1318" y="-118.5" font-family="Helvetica,sans-Serif" font-size="10.00">/home/runner/work/diffblue</text>
<text text-anchor="start" x="1318" y="-107.5" font-family="Helvetica,sans-Serif" font-size="10.00">&#45;cbmc/diffblue&#45;cbmc/src</text>
<text text-anchor="middle" x="1384.5" y="-96.5" font-family="Helvetica,sans-Serif" font-size="10.00">/cpp/cpp_parser.h</text>
</a>
</g>
</g>
<!-- Node3&#45;&gt;Node13 -->
<g id="edge12" class="edge">
<title>Node3&#45;&gt;Node13</title>
<path fill="none" stroke="midnightblue" d="M1329.8,-160.49C1340.7,-150.63 1352.86,-139.63 1362.94,-130.51"/>
<polygon fill="midnightblue" stroke="midnightblue" points="1327.2,-158.12 1322.13,-167.43 1331.9,-163.31 1327.2,-158.12"/>
</g>
<!-- Node16 -->
<g id="node16" class="node">
<title>Node16</title>
<g id="a_node16"><a xlink:href="cpp__typecheck_8h.html" target="_top" xlink:title="C++ Language Type Checking.">
<polygon fill="none" stroke="black" points="3923,-89.5 3923,-130.5 4072,-130.5 4072,-89.5 3923,-89.5"/>
<text text-anchor="start" x="3931" y="-118.5" font-family="Helvetica,sans-Serif" font-size="10.00">/home/runner/work/diffblue</text>
<text text-anchor="start" x="3931" y="-107.5" font-family="Helvetica,sans-Serif" font-size="10.00">&#45;cbmc/diffblue&#45;cbmc/src</text>
<text text-anchor="middle" x="3997.5" y="-96.5" font-family="Helvetica,sans-Serif" font-size="10.00">/cpp/cpp_typecheck.h</text>
</a>
</g>
</g>
<!-- Node3&#45;&gt;Node16 -->
<g id="edge16" class="edge">
<title>Node3&#45;&gt;Node16</title>
<path fill="none" stroke="midnightblue" d="M1385.31,-184.61C1792.09,-173.15 3539.33,-123.91 3922.88,-113.1"/>
<polygon fill="midnightblue" stroke="midnightblue" points="1384.99,-181.12 1375.09,-184.9 1385.19,-188.11 1384.99,-181.12"/>
</g>
<!-- Node5 -->
<g id="node5" class="node">
<title>Node5</title>
<g id="a_node5"><a xlink:href="cbmc__languages_8cpp.html" target="_top" xlink:title="Language Registration.">
<polygon fill="none" stroke="black" points="0,-6 0,-47 151,-47 151,-6 0,-6"/>
<text text-anchor="start" x="8" y="-35" font-family="Helvetica,sans-Serif" font-size="10.00">/home/runner/work/diffblue</text>
<text text-anchor="start" x="8" y="-24" font-family="Helvetica,sans-Serif" font-size="10.00">&#45;cbmc/diffblue&#45;cbmc/src</text>
<text text-anchor="middle" x="75.5" y="-13" font-family="Helvetica,sans-Serif" font-size="10.00">/cbmc/cbmc_languages.cpp</text>
</a>
</g>
</g>
<!-- Node4&#45;&gt;Node5 -->
<g id="edge4" class="edge">
<title>Node4&#45;&gt;Node5</title>
<path fill="none" stroke="midnightblue" d="M642.64,-105.83C530.94,-100.48 328.9,-86.72 159.5,-53 151.43,-51.39 143.02,-49.33 134.79,-47.07"/>
<polygon fill="midnightblue" stroke="midnightblue" points="642.69,-109.34 652.84,-106.31 643.01,-102.35 642.69,-109.34"/>
</g>
<!-- Node6 -->
<g id="node6" class="node">
<title>Node6</title>
<g id="a_node6"><a xlink:href="cpp__language_8cpp.html" target="_top" xlink:title="C++ Language Module.">
<polygon fill="none" stroke="black" points="1143,-6 1143,-47 1292,-47 1292,-6 1143,-6"/>
<text text-anchor="start" x="1151" y="-35" font-family="Helvetica,sans-Serif" font-size="10.00">/home/runner/work/diffblue</text>
<text text-anchor="start" x="1151" y="-24" font-family="Helvetica,sans-Serif" font-size="10.00">&#45;cbmc/diffblue&#45;cbmc/src</text>
<text text-anchor="middle" x="1217.5" y="-13" font-family="Helvetica,sans-Serif" font-size="10.00">/cpp/cpp_language.cpp</text>
</a>
</g>
</g>
<!-- Node4&#45;&gt;Node6 -->
<g id="edge5" class="edge">
<title>Node4&#45;&gt;Node6</title>
<path fill="none" stroke="midnightblue" d="M812.3,-101.24C894.91,-92.75 1023.75,-77.07 1133.5,-53 1141.24,-51.3 1149.3,-49.24 1157.24,-47.04"/>
<polygon fill="midnightblue" stroke="midnightblue" points="811.8,-97.77 802.21,-102.26 812.51,-104.73 811.8,-97.77"/>
</g>
<!-- Node7 -->
<g id="node7" class="node">
<title>Node7</title>
<g id="a_node7"><a xlink:href="goto__analyzer__languages_8cpp.html" target="_top" xlink:title="Language Registration.">
<polygon fill="none" stroke="black" points="169,-0.5 169,-52.5 328,-52.5 328,-0.5 169,-0.5"/>
<text text-anchor="start" x="177" y="-40.5" font-family="Helvetica,sans-Serif" font-size="10.00">/home/runner/work/diffblue</text>
<text text-anchor="start" x="177" y="-29.5" font-family="Helvetica,sans-Serif" font-size="10.00">&#45;cbmc/diffblue&#45;cbmc/src</text>
<text text-anchor="start" x="177" y="-18.5" font-family="Helvetica,sans-Serif" font-size="10.00">/goto&#45;analyzer/goto_analyzer</text>
<text text-anchor="middle" x="248.5" y="-7.5" font-family="Helvetica,sans-Serif" font-size="10.00">_languages.cpp</text>
</a>
</g>
</g>
<!-- Node4&#45;&gt;Node7 -->
<g id="edge6" class="edge">
<title>Node4&#45;&gt;Node7</title>
<path fill="none" stroke="midnightblue" d="M642.98,-100.23C563.58,-91.21 441.74,-75.31 337.5,-53 334.51,-52.36 331.48,-51.68 328.42,-50.96"/>
<polygon fill="midnightblue" stroke="midnightblue" points="642.6,-103.71 652.93,-101.36 643.38,-96.76 642.6,-103.71"/>
</g>
<!-- Node8 -->
<g id="node8" class="node">
<title>Node8</title>
<g id="a_node8"><a xlink:href="goto__cc__languages_8cpp.html" target="_top" xlink:title="Language Registration.">
<polygon fill="none" stroke="black" points="346.5,-6 346.5,-47 518.5,-47 518.5,-6 346.5,-6"/>
<text text-anchor="start" x="354.5" y="-35" font-family="Helvetica,sans-Serif" font-size="10.00">/home/runner/work/diffblue</text>
<text text-anchor="start" x="354.5" y="-24" font-family="Helvetica,sans-Serif" font-size="10.00">&#45;cbmc/diffblue&#45;cbmc/src</text>
<text text-anchor="middle" x="432.5" y="-13" font-family="Helvetica,sans-Serif" font-size="10.00">/goto&#45;cc/goto_cc_languages.cpp</text>
</a>
</g>
</g>
<!-- Node4&#45;&gt;Node8 -->
<g id="edge7" class="edge">
<title>Node4&#45;&gt;Node8</title>
<path fill="none" stroke="midnightblue" d="M647.11,-86.79C602.07,-74.35 546.43,-58.98 503.09,-47"/>
<polygon fill="midnightblue" stroke="midnightblue" points="646.27,-90.19 656.84,-89.48 648.13,-83.44 646.27,-90.19"/>
</g>
<!-- Node9 -->
<g id="node9" class="node">
<title>Node9</title>
<g id="a_node9"><a xlink:href="goto__diff__languages_8cpp.html" target="_top" xlink:title="Language Registration.">
<polygon fill="none" stroke="black" points="536.5,-6 536.5,-47 718.5,-47 718.5,-6 536.5,-6"/>
<text text-anchor="start" x="544.5" y="-35" font-family="Helvetica,sans-Serif" font-size="10.00">/home/runner/work/diffblue</text>
<text text-anchor="start" x="544.5" y="-24" font-family="Helvetica,sans-Serif" font-size="10.00">&#45;cbmc/diffblue&#45;cbmc/src</text>
<text text-anchor="middle" x="627.5" y="-13" font-family="Helvetica,sans-Serif" font-size="10.00">/goto&#45;diff/goto_diff_languages.cpp</text>
</a>
</g>
</g>
<!-- Node4&#45;&gt;Node9 -->
<g id="edge8" class="edge">
<title>Node4&#45;&gt;Node9</title>
<path fill="none" stroke="midnightblue" d="M695.47,-82.89C681.24,-71.3 664.77,-57.87 651.6,-47.14"/>
<polygon fill="midnightblue" stroke="midnightblue" points="693.58,-85.87 703.55,-89.48 698.01,-80.45 693.58,-85.87"/>
</g>
<!-- Node10 -->
<g id="node10" class="node">
<title>Node10</title>
<g id="a_node10"><a xlink:href="goto__instrument__languages_8cpp.html" target="_top" xlink:title="Language Registration.">
<polygon fill="none" stroke="black" points="736.5,-0.5 736.5,-52.5 918.5,-52.5 918.5,-0.5 736.5,-0.5"/>
<text text-anchor="start" x="744.5" y="-40.5" font-family="Helvetica,sans-Serif" font-size="10.00">/home/runner/work/diffblue</text>
<text text-anchor="start" x="744.5" y="-29.5" font-family="Helvetica,sans-Serif" font-size="10.00">&#45;cbmc/diffblue&#45;cbmc/src</text>
<text text-anchor="start" x="744.5" y="-18.5" font-family="Helvetica,sans-Serif" font-size="10.00">/goto&#45;instrument/goto_instrument</text>
<text text-anchor="middle" x="827.5" y="-7.5" font-family="Helvetica,sans-Serif" font-size="10.00">_languages.cpp</text>
</a>
</g>
</g>
<!-- Node4&#45;&gt;Node10 -->
<g id="edge9" class="edge">
<title>Node4&#45;&gt;Node10</title>
<path fill="none" stroke="midnightblue" d="M759.39,-83.01C771.28,-73.32 784.74,-62.35 796.55,-52.73"/>
<polygon fill="midnightblue" stroke="midnightblue" points="756.99,-80.45 751.45,-89.48 761.42,-85.87 756.99,-80.45"/>
</g>
<!-- Node11 -->
<g id="node11" class="node">
<title>Node11</title>
<g id="a_node11"><a xlink:href="goto__synthesizer__languages_8cpp.html" target="_top" xlink:title="Language Registration.">
<polygon fill="none" stroke="black" points="936.5,-0.5 936.5,-52.5 1124.5,-52.5 1124.5,-0.5 936.5,-0.5"/>
<text text-anchor="start" x="944.5" y="-40.5" font-family="Helvetica,sans-Serif" font-size="10.00">/home/runner/work/diffblue</text>
<text text-anchor="start" x="944.5" y="-29.5" font-family="Helvetica,sans-Serif" font-size="10.00">&#45;cbmc/diffblue&#45;cbmc/src</text>
<text text-anchor="start" x="944.5" y="-18.5" font-family="Helvetica,sans-Serif" font-size="10.00">/goto&#45;synthesizer/goto_synthesizer</text>
<text text-anchor="middle" x="1030.5" y="-7.5" font-family="Helvetica,sans-Serif" font-size="10.00">_languages.cpp</text>
</a>
</g>
</g>
<!-- Node4&#45;&gt;Node11 -->
<g id="edge10" class="edge">
<title>Node4&#45;&gt;Node11</title>
<path fill="none" stroke="midnightblue" d="M809.93,-86.83C849.39,-76.21 896.81,-63.46 937.55,-52.5"/>
<polygon fill="midnightblue" stroke="midnightblue" points="808.82,-83.5 800.08,-89.48 810.64,-90.26 808.82,-83.5"/>
</g>
<!-- Node13&#45;&gt;Node6 -->
<g id="edge13" class="edge">
<title>Node13&#45;&gt;Node6</title>
<path fill="none" stroke="midnightblue" d="M1335.26,-84.97C1310.48,-72.87 1280.82,-58.4 1257.46,-47"/>
<polygon fill="midnightblue" stroke="midnightblue" points="1333.98,-88.24 1344.5,-89.48 1337.05,-81.95 1333.98,-88.24"/>
</g>
<!-- Node14 -->
<g id="node14" class="node">
<title>Node14</title>
<g id="a_node14"><a xlink:href="cpp__parser_8cpp.html" target="_top" xlink:title="C++ Parser.">
<polygon fill="none" stroke="black" points="1310,-6 1310,-47 1459,-47 1459,-6 1310,-6"/>
<text text-anchor="start" x="1318" y="-35" font-family="Helvetica,sans-Serif" font-size="10.00">/home/runner/work/diffblue</text>
<text text-anchor="start" x="1318" y="-24" font-family="Helvetica,sans-Serif" font-size="10.00">&#45;cbmc/diffblue&#45;cbmc/src</text>
<text text-anchor="middle" x="1384.5" y="-13" font-family="Helvetica,sans-Serif" font-size="10.00">/cpp/cpp_parser.cpp</text>
</a>
</g>
</g>
<!-- Node13&#45;&gt;Node14 -->
<g id="edge14" class="edge">
<title>Node13&#45;&gt;Node14</title>
<path fill="none" stroke="midnightblue" d="M1384.5,-79.06C1384.5,-68.38 1384.5,-56.63 1384.5,-47.05"/>
<polygon fill="midnightblue" stroke="midnightblue" points="1381,-79.27 1384.5,-89.27 1388,-79.27 1381,-79.27"/>
</g>
<!-- Node15 -->
<g id="node15" class="node">
<title>Node15</title>
<g id="a_node15"><a xlink:href="parse_8cpp.html" target="_top" xlink:title="C++ Language Parsing.">
<polygon fill="none" stroke="black" points="1477,-6 1477,-47 1626,-47 1626,-6 1477,-6"/>
<text text-anchor="start" x="1485" y="-35" font-family="Helvetica,sans-Serif" font-size="10.00">/home/runner/work/diffblue</text>
<text text-anchor="start" x="1485" y="-24" font-family="Helvetica,sans-Serif" font-size="10.00">&#45;cbmc/diffblue&#45;cbmc/src</text>
<text text-anchor="middle" x="1551.5" y="-13" font-family="Helvetica,sans-Serif" font-size="10.00">/cpp/parse.cpp</text>
</a>
</g>
</g>
<!-- Node13&#45;&gt;Node15 -->
<g id="edge15" class="edge">
<title>Node13&#45;&gt;Node15</title>
<path fill="none" stroke="midnightblue" d="M1433.74,-84.97C1458.52,-72.87 1488.18,-58.4 1511.54,-47"/>
<polygon fill="midnightblue" stroke="midnightblue" points="1431.95,-81.95 1424.5,-89.48 1435.02,-88.24 1431.95,-81.95"/>
</g>
<!-- Node16&#45;&gt;Node6 -->
<g id="edge22" class="edge">
<title>Node16&#45;&gt;Node6</title>
<path fill="none" stroke="midnightblue" d="M3912.85,-108.64C3484.19,-106.61 1563.16,-95.23 1300.5,-53 1291.72,-51.59 1282.58,-49.47 1273.71,-47.05"/>
<polygon fill="midnightblue" stroke="midnightblue" points="3912.98,-112.14 3922.99,-108.68 3913.01,-105.14 3912.98,-112.14"/>
</g>
<!-- Node17 -->
<g id="node17" class="node">
<title>Node17</title>
<g id="a_node17"><a xlink:href="cpp__constructor_8cpp.html" target="_top" xlink:title="C++ Language Type Checking.">
<polygon fill="none" stroke="black" points="1644,-6 1644,-47 1793,-47 1793,-6 1644,-6"/>
<text text-anchor="start" x="1652" y="-35" font-family="Helvetica,sans-Serif" font-size="10.00">/home/runner/work/diffblue</text>
<text text-anchor="start" x="1652" y="-24" font-family="Helvetica,sans-Serif" font-size="10.00">&#45;cbmc/diffblue&#45;cbmc/src</text>
<text text-anchor="middle" x="1718.5" y="-13" font-family="Helvetica,sans-Serif" font-size="10.00">/cpp/cpp_constructor.cpp</text>
</a>
</g>
</g>
<!-- Node16&#45;&gt;Node17 -->
<g id="edge17" class="edge">
<title>Node16&#45;&gt;Node17</title>
<path fill="none" stroke="midnightblue" d="M3912.81,-108.2C3534.94,-104.47 2012.24,-87.4 1801.5,-53 1792.72,-51.57 1783.58,-49.44 1774.71,-47.02"/>
<polygon fill="midnightblue" stroke="midnightblue" points="3912.82,-111.7 3922.86,-108.3 3912.89,-104.7 3912.82,-111.7"/>
</g>
<!-- Node18 -->
<g id="node18" class="node">
<title>Node18</title>
<g id="a_node18"><a xlink:href="cpp__declarator__converter_8cpp.html" target="_top" xlink:title="C++ Language Type Checking.">
<polygon fill="none" stroke="black" points="1811,-6 1811,-47 1994,-47 1994,-6 1811,-6"/>
<text text-anchor="start" x="1819" y="-35" font-family="Helvetica,sans-Serif" font-size="10.00">/home/runner/work/diffblue</text>
<text text-anchor="start" x="1819" y="-24" font-family="Helvetica,sans-Serif" font-size="10.00">&#45;cbmc/diffblue&#45;cbmc/src</text>
<text text-anchor="middle" x="1902.5" y="-13" font-family="Helvetica,sans-Serif" font-size="10.00">/cpp/cpp_declarator_converter.cpp</text>
</a>
</g>
</g>
<!-- Node16&#45;&gt;Node18 -->
<g id="edge18" class="edge">
<title>Node16&#45;&gt;Node18</title>
<path fill="none" stroke="midnightblue" d="M3912.29,-109.12C3581.2,-109.19 2379.84,-105.74 2002.5,-53 1992.12,-51.55 1981.26,-49.43 1970.69,-47.02"/>
<polygon fill="midnightblue" stroke="midnightblue" points="3912.77,-112.62 3922.77,-109.12 3912.77,-105.62 3912.77,-112.62"/>
</g>
<!-- Node19 -->
<g id="node19" class="node">
<title>Node19</title>
<g id="a_node19"><a xlink:href="cpp__destructor_8cpp.html" target="_top" xlink:title="C++ Language Type Checking.">
<polygon fill="none" stroke="black" points="2012,-6 2012,-47 2161,-47 2161,-6 2012,-6"/>
<text text-anchor="start" x="2020" y="-35" font-family="Helvetica,sans-Serif" font-size="10.00">/home/runner/work/diffblue</text>
<text text-anchor="start" x="2020" y="-24" font-family="Helvetica,sans-Serif" font-size="10.00">&#45;cbmc/diffblue&#45;cbmc/src</text>
<text text-anchor="middle" x="2086.5" y="-13" font-family="Helvetica,sans-Serif" font-size="10.00">/cpp/cpp_destructor.cpp</text>
</a>
</g>
</g>
<!-- Node16&#45;&gt;Node19 -->
<g id="edge19" class="edge">
<title>Node16&#45;&gt;Node19</title>
<path fill="none" stroke="midnightblue" d="M3912.63,-109.4C3599.76,-110.42 2511.44,-109.71 2169.5,-53 2160.87,-51.57 2151.9,-49.48 2143.17,-47.1"/>
<polygon fill="midnightblue" stroke="midnightblue" points="3913,-112.9 3922.99,-109.37 3912.97,-105.9 3913,-112.9"/>
</g>
<!-- Node20 -->
<g id="node20" class="node">
<title>Node20</title>
<g id="a_node20"><a xlink:href="cpp__instantiate__template_8cpp.html" target="_top" xlink:title="C++ Language Type Checking.">
<polygon fill="none" stroke="black" points="2179,-6 2179,-47 2364,-47 2364,-6 2179,-6"/>
<text text-anchor="start" x="2187" y="-35" font-family="Helvetica,sans-Serif" font-size="10.00">/home/runner/work/diffblue</text>
<text text-anchor="start" x="2187" y="-24" font-family="Helvetica,sans-Serif" font-size="10.00">&#45;cbmc/diffblue&#45;cbmc/src</text>
<text text-anchor="middle" x="2271.5" y="-13" font-family="Helvetica,sans-Serif" font-size="10.00">/cpp/cpp_instantiate_template.cpp</text>
</a>
</g>
</g>
<!-- Node16&#45;&gt;Node20 -->
<g id="edge20" class="edge">
<title>Node16&#45;&gt;Node20</title>
<path fill="none" stroke="midnightblue" d="M3912.74,-108.46C3623.16,-106.24 2674.26,-95.8 2372.5,-53 2362.11,-51.53 2351.25,-49.41 2340.66,-47.02"/>
<polygon fill="midnightblue" stroke="midnightblue" points="3912.74,-111.96 3922.77,-108.53 3912.79,-104.96 3912.74,-111.96"/>
</g>
<!-- Node21 -->
<g id="node21" class="node">
<title>Node21</title>
<g id="a_node21"><a xlink:href="cpp__is__pod_8cpp.html" target="_top" xlink:title="C++ Language Type Checking.">
<polygon fill="none" stroke="black" points="2382,-6 2382,-47 2531,-47 2531,-6 2382,-6"/>
<text text-anchor="start" x="2390" y="-35" font-family="Helvetica,sans-Serif" font-size="10.00">/home/runner/work/diffblue</text>
<text text-anchor="start" x="2390" y="-24" font-family="Helvetica,sans-Serif" font-size="10.00">&#45;cbmc/diffblue&#45;cbmc/src</text>
<text text-anchor="middle" x="2456.5" y="-13" font-family="Helvetica,sans-Serif" font-size="10.00">/cpp/cpp_is_pod.cpp</text>
</a>
</g>
</g>
<!-- Node16&#45;&gt;Node21 -->
<g id="edge21" class="edge">
<title>Node16&#45;&gt;Node21</title>
<path fill="none" stroke="midnightblue" d="M3912.82,-108.63C3643.1,-106.99 2806.25,-98.3 2539.5,-53 2530.88,-51.54 2521.91,-49.43 2513.18,-47.04"/>
<polygon fill="midnightblue" stroke="midnightblue" points="3912.92,-112.13 3922.94,-108.69 3912.96,-105.13 3912.92,-112.13"/>
</g>
<!-- Node22 -->
<g id="node22" class="node">
<title>Node22</title>
<g id="a_node22"><a xlink:href="cpp__typecheck_8cpp.html" target="_top" xlink:title="C++ Language Type Checking.">
<polygon fill="none" stroke="black" points="2549,-6 2549,-47 2698,-47 2698,-6 2549,-6"/>
<text text-anchor="start" x="2557" y="-35" font-family="Helvetica,sans-Serif" font-size="10.00">/home/runner/work/diffblue</text>
<text text-anchor="start" x="2557" y="-24" font-family="Helvetica,sans-Serif" font-size="10.00">&#45;cbmc/diffblue&#45;cbmc/src</text>
<text text-anchor="middle" x="2623.5" y="-13" font-family="Helvetica,sans-Serif" font-size="10.00">/cpp/cpp_typecheck.cpp</text>
</a>
</g>
</g>
<!-- Node16&#45;&gt;Node22 -->
<g id="edge23" class="edge">
<title>Node16&#45;&gt;Node22</title>
<path fill="none" stroke="midnightblue" d="M3912.86,-108.14C3664.34,-105.16 2939.55,-93.18 2706.5,-53 2697.88,-51.51 2688.91,-49.39 2680.19,-47"/>
<polygon fill="midnightblue" stroke="midnightblue" points="3912.88,-111.64 3922.92,-108.26 3912.96,-104.64 3912.88,-111.64"/>
</g>
<!-- Node23 -->
<g id="node23" class="node">
<title>Node23</title>
<g id="a_node23"><a xlink:href="cpp__typecheck__bases_8cpp.html" target="_top" xlink:title="C++ Language Type Checking.">
<polygon fill="none" stroke="black" points="2716,-6 2716,-47 2883,-47 2883,-6 2716,-6"/>
<text text-anchor="start" x="2724" y="-35" font-family="Helvetica,sans-Serif" font-size="10.00">/home/runner/work/diffblue</text>
<text text-anchor="start" x="2724" y="-24" font-family="Helvetica,sans-Serif" font-size="10.00">&#45;cbmc/diffblue&#45;cbmc/src</text>
<text text-anchor="middle" x="2799.5" y="-13" font-family="Helvetica,sans-Serif" font-size="10.00">/cpp/cpp_typecheck_bases.cpp</text>
</a>
</g>
</g>
<!-- Node16&#45;&gt;Node23 -->
<g id="edge24" class="edge">
<title>Node16&#45;&gt;Node23</title>
<path fill="none" stroke="midnightblue" d="M3912.86,-107.12C3689.5,-101.78 3087.88,-84.79 2891.5,-53 2882.17,-51.49 2872.44,-49.39 2862.94,-47.03"/>
<polygon fill="midnightblue" stroke="midnightblue" points="3912.81,-110.62 3922.89,-107.36 3912.98,-103.62 3912.81,-110.62"/>
</g>
<!-- Node24 -->
<g id="node24" class="node">
<title>Node24</title>
<g id="a_node24"><a xlink:href="cpp__typecheck__code_8cpp.html" target="_top" xlink:title="C++ Language Type Checking.">
<polygon fill="none" stroke="black" points="2901,-6 2901,-47 3062,-47 3062,-6 2901,-6"/>
<text text-anchor="start" x="2909" y="-35" font-family="Helvetica,sans-Serif" font-size="10.00">/home/runner/work/diffblue</text>
<text text-anchor="start" x="2909" y="-24" font-family="Helvetica,sans-Serif" font-size="10.00">&#45;cbmc/diffblue&#45;cbmc/src</text>
<text text-anchor="middle" x="2981.5" y="-13" font-family="Helvetica,sans-Serif" font-size="10.00">/cpp/cpp_typecheck_code.cpp</text>
</a>
</g>
</g>
<!-- Node16&#45;&gt;Node24 -->
<g id="edge25" class="edge">
<title>Node16&#45;&gt;Node24</title>
<path fill="none" stroke="midnightblue" d="M3912.91,-106.26C3715.91,-99.49 3231.09,-80.52 3070.5,-53 3061.63,-51.48 3052.38,-49.4 3043.34,-47.09"/>
<polygon fill="midnightblue" stroke="midnightblue" points="3912.81,-109.76 3922.92,-106.6 3913.05,-102.76 3912.81,-109.76"/>
</g>
<!-- Node25 -->
<g id="node25" class="node">
<title>Node25</title>
<g id="a_node25"><a xlink:href="cpp__typecheck__compound__type_8cpp.html" target="_top" xlink:title="C++ Language Type Checking.">
<polygon fill="none" stroke="black" points="3080,-0.5 3080,-52.5 3249,-52.5 3249,-0.5 3080,-0.5"/>
<text text-anchor="start" x="3088" y="-40.5" font-family="Helvetica,sans-Serif" font-size="10.00">/home/runner/work/diffblue</text>
<text text-anchor="start" x="3088" y="-29.5" font-family="Helvetica,sans-Serif" font-size="10.00">&#45;cbmc/diffblue&#45;cbmc/src</text>
<text text-anchor="start" x="3088" y="-18.5" font-family="Helvetica,sans-Serif" font-size="10.00">/cpp/cpp_typecheck_compound</text>
<text text-anchor="middle" x="3164.5" y="-7.5" font-family="Helvetica,sans-Serif" font-size="10.00">_type.cpp</text>
</a>
</g>
</g>
<!-- Node16&#45;&gt;Node25 -->
<g id="edge26" class="edge">
<title>Node16&#45;&gt;Node25</title>
<path fill="none" stroke="midnightblue" d="M3912.9,-107.78C3774.91,-104.63 3493.24,-93.36 3258.5,-53 3255.42,-52.47 3252.29,-51.88 3249.14,-51.25"/>
<polygon fill="midnightblue" stroke="midnightblue" points="3912.91,-111.28 3922.98,-108 3913.06,-104.28 3912.91,-111.28"/>
</g>
<!-- Node26 -->
<g id="node26" class="node">
<title>Node26</title>
<g id="a_node26"><a xlink:href="cpp__typecheck__constructor_8cpp.html" target="_top" xlink:title="C++ Language Type Checking.">
<polygon fill="none" stroke="black" points="3267.5,-6 3267.5,-47 3459.5,-47 3459.5,-6 3267.5,-6"/>
<text text-anchor="start" x="3275.5" y="-35" font-family="Helvetica,sans-Serif" font-size="10.00">/home/runner/work/diffblue</text>
<text text-anchor="start" x="3275.5" y="-24" font-family="Helvetica,sans-Serif" font-size="10.00">&#45;cbmc/diffblue&#45;cbmc/src</text>
<text text-anchor="middle" x="3363.5" y="-13" font-family="Helvetica,sans-Serif" font-size="10.00">/cpp/cpp_typecheck_constructor.cpp</text>
</a>
</g>
</g>
<!-- Node16&#45;&gt;Node26 -->
<g id="edge27" class="edge">
<title>Node16&#45;&gt;Node26</title>
<path fill="none" stroke="midnightblue" d="M3912.38,-103.49C3807.45,-95.89 3623.93,-79.98 3468.5,-53 3458.8,-51.32 3448.66,-49.25 3438.67,-47.03"/>
<polygon fill="midnightblue" stroke="midnightblue" points="3912.38,-106.99 3922.6,-104.22 3912.88,-100.01 3912.38,-106.99"/>
</g>
<!-- Node27 -->
<g id="node27" class="node">
<title>Node27</title>
<g id="a_node27"><a xlink:href="cpp__typecheck__conversions_8cpp.html" target="_top" xlink:title="C++ Language Type Checking.">
<polygon fill="none" stroke="black" points="3478,-6 3478,-47 3675,-47 3675,-6 3478,-6"/>
<text text-anchor="start" x="3486" y="-35" font-family="Helvetica,sans-Serif" font-size="10.00">/home/runner/work/diffblue</text>
<text text-anchor="start" x="3486" y="-24" font-family="Helvetica,sans-Serif" font-size="10.00">&#45;cbmc/diffblue&#45;cbmc/src</text>
<text text-anchor="middle" x="3576.5" y="-13" font-family="Helvetica,sans-Serif" font-size="10.00">/cpp/cpp_typecheck_conversions.cpp</text>
</a>
</g>
</g>
<!-- Node16&#45;&gt;Node27 -->
<g id="edge28" class="edge">
<title>Node16&#45;&gt;Node27</title>
<path fill="none" stroke="midnightblue" d="M3912.78,-95.25C3849.44,-84.64 3760.82,-69.09 3683.5,-53 3674.62,-51.15 3665.35,-49.11 3656.14,-47.01"/>
<polygon fill="midnightblue" stroke="midnightblue" points="3912.28,-98.71 3922.72,-96.91 3913.43,-91.81 3912.28,-98.71"/>
</g>
<!-- Node28 -->
<g id="node28" class="node">
<title>Node28</title>
<g id="a_node28"><a xlink:href="cpp__typecheck__declaration_8cpp.html" target="_top" xlink:title="C++ Language Type Checking.">
<polygon fill="none" stroke="black" points="3693,-6 3693,-47 3886,-47 3886,-6 3693,-6"/>
<text text-anchor="start" x="3701" y="-35" font-family="Helvetica,sans-Serif" font-size="10.00">/home/runner/work/diffblue</text>
<text text-anchor="start" x="3701" y="-24" font-family="Helvetica,sans-Serif" font-size="10.00">&#45;cbmc/diffblue&#45;cbmc/src</text>
<text text-anchor="middle" x="3789.5" y="-13" font-family="Helvetica,sans-Serif" font-size="10.00">/cpp/cpp_typecheck_declaration.cpp</text>
</a>
</g>
</g>
<!-- Node16&#45;&gt;Node28 -->
<g id="edge29" class="edge">
<title>Node16&#45;&gt;Node28</title>
<path fill="none" stroke="midnightblue" d="M3938.2,-85.77C3906.93,-73.51 3869,-58.65 3839.27,-47"/>
<polygon fill="midnightblue" stroke="midnightblue" points="3937.09,-89.09 3947.68,-89.48 3939.64,-82.57 3937.09,-89.09"/>
</g>
<!-- Node29 -->
<g id="node29" class="node">
<title>Node29</title>
<g id="a_node29"><a xlink:href="cpp__typecheck__destructor_8cpp.html" target="_top" xlink:title="C++ Language Type Checking.">
<polygon fill="none" stroke="black" points="3904,-6 3904,-47 4091,-47 4091,-6 3904,-6"/>
<text text-anchor="start" x="3912" y="-35" font-family="Helvetica,sans-Serif" font-size="10.00">/home/runner/work/diffblue</text>
<text text-anchor="start" x="3912" y="-24" font-family="Helvetica,sans-Serif" font-size="10.00">&#45;cbmc/diffblue&#45;cbmc/src</text>
<text text-anchor="middle" x="3997.5" y="-13" font-family="Helvetica,sans-Serif" font-size="10.00">/cpp/cpp_typecheck_destructor.cpp</text>
</a>
</g>
</g>
<!-- Node16&#45;&gt;Node29 -->
<g id="edge30" class="edge">
<title>Node16&#45;&gt;Node29</title>
<path fill="none" stroke="midnightblue" d="M3997.5,-79.06C3997.5,-68.38 3997.5,-56.63 3997.5,-47.05"/>
<polygon fill="midnightblue" stroke="midnightblue" points="3994,-79.27 3997.5,-89.27 4001,-79.27 3994,-79.27"/>
</g>
<!-- Node30 -->
<g id="node30" class="node">
<title>Node30</title>
<g id="a_node30"><a xlink:href="cpp__typecheck__enum__type_8cpp.html" target="_top" xlink:title="C++ Language Type Checking.">
<polygon fill="none" stroke="black" points="4109,-6 4109,-47 4302,-47 4302,-6 4109,-6"/>
<text text-anchor="start" x="4117" y="-35" font-family="Helvetica,sans-Serif" font-size="10.00">/home/runner/work/diffblue</text>
<text text-anchor="start" x="4117" y="-24" font-family="Helvetica,sans-Serif" font-size="10.00">&#45;cbmc/diffblue&#45;cbmc/src</text>
<text text-anchor="middle" x="4205.5" y="-13" font-family="Helvetica,sans-Serif" font-size="10.00">/cpp/cpp_typecheck_enum_type.cpp</text>
</a>
</g>
</g>
<!-- Node16&#45;&gt;Node30 -->
<g id="edge31" class="edge">
<title>Node16&#45;&gt;Node30</title>
<path fill="none" stroke="midnightblue" d="M4056.8,-85.77C4088.07,-73.51 4126,-58.65 4155.73,-47"/>
<polygon fill="midnightblue" stroke="midnightblue" points="4055.36,-82.57 4047.32,-89.48 4057.91,-89.09 4055.36,-82.57"/>
</g>
<!-- Node31 -->
<g id="node31" class="node">
<title>Node31</title>
<g id="a_node31"><a xlink:href="cpp__typecheck__expr_8cpp.html" target="_top" xlink:title="C++ Language Type Checking.">
<polygon fill="none" stroke="black" points="4320,-6 4320,-47 4479,-47 4479,-6 4320,-6"/>
<text text-anchor="start" x="4328" y="-35" font-family="Helvetica,sans-Serif" font-size="10.00">/home/runner/work/diffblue</text>
<text text-anchor="start" x="4328" y="-24" font-family="Helvetica,sans-Serif" font-size="10.00">&#45;cbmc/diffblue&#45;cbmc/src</text>
<text text-anchor="middle" x="4399.5" y="-13" font-family="Helvetica,sans-Serif" font-size="10.00">/cpp/cpp_typecheck_expr.cpp</text>
</a>
</g>
</g>
<!-- Node16&#45;&gt;Node31 -->
<g id="edge32" class="edge">
<title>Node16&#45;&gt;Node31</title>
<path fill="none" stroke="midnightblue" d="M4082.14,-96.39C4145.62,-86.33 4234.46,-70.98 4311.5,-53 4319.09,-51.23 4327,-49.2 4334.83,-47.08"/>
<polygon fill="midnightblue" stroke="midnightblue" points="4081.51,-92.94 4072.18,-97.96 4082.6,-99.86 4081.51,-92.94"/>
</g>
<!-- Node32 -->
<g id="node32" class="node">
<title>Node32</title>
<g id="a_node32"><a xlink:href="cpp__typecheck__fargs_8cpp.html" target="_top" xlink:title="C++ Language Type Checking.">
<polygon fill="none" stroke="black" points="4497,-6 4497,-47 4660,-47 4660,-6 4497,-6"/>
<text text-anchor="start" x="4505" y="-35" font-family="Helvetica,sans-Serif" font-size="10.00">/home/runner/work/diffblue</text>
<text text-anchor="start" x="4505" y="-24" font-family="Helvetica,sans-Serif" font-size="10.00">&#45;cbmc/diffblue&#45;cbmc/src</text>
<text text-anchor="middle" x="4578.5" y="-13" font-family="Helvetica,sans-Serif" font-size="10.00">/cpp/cpp_typecheck_fargs.cpp</text>
</a>
</g>
</g>
<!-- Node16&#45;&gt;Node32 -->
<g id="edge33" class="edge">
<title>Node16&#45;&gt;Node32</title>
<path fill="none" stroke="midnightblue" d="M4082.3,-103.53C4180.68,-96.22 4347.45,-80.83 4488.5,-53 4496.94,-51.33 4505.75,-49.26 4514.4,-47.03"/>
<polygon fill="midnightblue" stroke="midnightblue" points="4081.83,-100.06 4072.11,-104.28 4082.34,-107.04 4081.83,-100.06"/>
</g>
<!-- Node33 -->
<g id="node33" class="node">
<title>Node33</title>
<g id="a_node33"><a xlink:href="cpp__typecheck__function_8cpp.html" target="_top" xlink:title="C++ Language Type Checking.">
<polygon fill="none" stroke="black" points="4678.5,-6 4678.5,-47 4856.5,-47 4856.5,-6 4678.5,-6"/>
<text text-anchor="start" x="4686.5" y="-35" font-family="Helvetica,sans-Serif" font-size="10.00">/home/runner/work/diffblue</text>
<text text-anchor="start" x="4686.5" y="-24" font-family="Helvetica,sans-Serif" font-size="10.00">&#45;cbmc/diffblue&#45;cbmc/src</text>
<text text-anchor="middle" x="4767.5" y="-13" font-family="Helvetica,sans-Serif" font-size="10.00">/cpp/cpp_typecheck_function.cpp</text>
</a>
</g>
</g>
<!-- Node16&#45;&gt;Node33 -->
<g id="edge34" class="edge">
<title>Node16&#45;&gt;Node33</title>
<path fill="none" stroke="midnightblue" d="M4082.23,-106.59C4210.24,-101.91 4460.22,-88.68 4669.5,-53 4678.95,-51.39 4688.81,-49.31 4698.49,-47.03"/>
<polygon fill="midnightblue" stroke="midnightblue" points="4081.97,-103.1 4072.1,-106.95 4082.22,-110.09 4081.97,-103.1"/>
</g>
<!-- Node34 -->
<g id="node34" class="node">
<title>Node34</title>
<g id="a_node34"><a xlink:href="cpp__typecheck__initializer_8cpp.html" target="_top" xlink:title="C++ Language Type Checking.">
<polygon fill="none" stroke="black" points="4875,-6 4875,-47 5058,-47 5058,-6 4875,-6"/>
<text text-anchor="start" x="4883" y="-35" font-family="Helvetica,sans-Serif" font-size="10.00">/home/runner/work/diffblue</text>
<text text-anchor="start" x="4883" y="-24" font-family="Helvetica,sans-Serif" font-size="10.00">&#45;cbmc/diffblue&#45;cbmc/src</text>
<text text-anchor="middle" x="4966.5" y="-13" font-family="Helvetica,sans-Serif" font-size="10.00">/cpp/cpp_typecheck_initializer.cpp</text>
</a>
</g>
</g>
<!-- Node16&#45;&gt;Node34 -->
<g id="edge35" class="edge">
<title>Node16&#45;&gt;Node34</title>
<path fill="none" stroke="midnightblue" d="M4082.48,-108.66C4238.56,-106.88 4580.96,-97.71 4865.5,-53 4875.42,-51.44 4885.78,-49.36 4895.93,-47.06"/>
<polygon fill="midnightblue" stroke="midnightblue" points="4081.99,-105.16 4072.02,-108.77 4082.06,-112.16 4081.99,-105.16"/>
</g>
<!-- Node35 -->
<g id="node35" class="node">
<title>Node35</title>
<g id="a_node35"><a xlink:href="cpp__typecheck__linkage__spec_8cpp.html" target="_top" xlink:title="C++ Language Type Checking.">
<polygon fill="none" stroke="black" points="5076,-0.5 5076,-52.5 5229,-52.5 5229,-0.5 5076,-0.5"/>
<text text-anchor="start" x="5084" y="-40.5" font-family="Helvetica,sans-Serif" font-size="10.00">/home/runner/work/diffblue</text>
<text text-anchor="start" x="5084" y="-29.5" font-family="Helvetica,sans-Serif" font-size="10.00">&#45;cbmc/diffblue&#45;cbmc/src</text>
<text text-anchor="start" x="5084" y="-18.5" font-family="Helvetica,sans-Serif" font-size="10.00">/cpp/cpp_typecheck_linkage</text>
<text text-anchor="middle" x="5152.5" y="-7.5" font-family="Helvetica,sans-Serif" font-size="10.00">_spec.cpp</text>
</a>
</g>
</g>
<!-- Node16&#45;&gt;Node35 -->
<g id="edge36" class="edge">
<title>Node16&#45;&gt;Node35</title>
<path fill="none" stroke="midnightblue" d="M4082.47,-107.17C4301.02,-102.06 4878.74,-85.77 5067.5,-53 5070.23,-52.53 5073,-51.99 5075.79,-51.41"/>
<polygon fill="midnightblue" stroke="midnightblue" points="4082.25,-103.68 4072.33,-107.41 4082.41,-110.68 4082.25,-103.68"/>
</g>
<!-- Node36 -->
<g id="node36" class="node">
<title>Node36</title>
<g id="a_node36"><a xlink:href="cpp__typecheck__method__bodies_8cpp.html" target="_top" xlink:title="C++ Language Type Checking.">
<polygon fill="none" stroke="black" points="5247,-0.5 5247,-52.5 5402,-52.5 5402,-0.5 5247,-0.5"/>
<text text-anchor="start" x="5255" y="-40.5" font-family="Helvetica,sans-Serif" font-size="10.00">/home/runner/work/diffblue</text>
<text text-anchor="start" x="5255" y="-29.5" font-family="Helvetica,sans-Serif" font-size="10.00">&#45;cbmc/diffblue&#45;cbmc/src</text>
<text text-anchor="start" x="5255" y="-18.5" font-family="Helvetica,sans-Serif" font-size="10.00">/cpp/cpp_typecheck_method</text>
<text text-anchor="middle" x="5324.5" y="-7.5" font-family="Helvetica,sans-Serif" font-size="10.00">_bodies.cpp</text>
</a>
</g>
</g>
<!-- Node16&#45;&gt;Node36 -->
<g id="edge37" class="edge">
<title>Node16&#45;&gt;Node36</title>
<path fill="none" stroke="midnightblue" d="M4082.16,-107.86C4324.08,-104.17 5015.33,-90.54 5238.5,-53 5241.26,-52.53 5244.07,-52.01 5246.88,-51.43"/>
<polygon fill="midnightblue" stroke="midnightblue" points="4081.96,-104.36 4072.01,-108.01 4082.07,-111.36 4081.96,-104.36"/>
</g>
<!-- Node37 -->
<g id="node37" class="node">
<title>Node37</title>
<g id="a_node37"><a xlink:href="cpp__typecheck__namespace_8cpp.html" target="_top" xlink:title="C++ Language Type Checking.">
<polygon fill="none" stroke="black" points="5420.5,-6 5420.5,-47 5614.5,-47 5614.5,-6 5420.5,-6"/>
<text text-anchor="start" x="5428.5" y="-35" font-family="Helvetica,sans-Serif" font-size="10.00">/home/runner/work/diffblue</text>
<text text-anchor="start" x="5428.5" y="-24" font-family="Helvetica,sans-Serif" font-size="10.00">&#45;cbmc/diffblue&#45;cbmc/src</text>
<text text-anchor="middle" x="5517.5" y="-13" font-family="Helvetica,sans-Serif" font-size="10.00">/cpp/cpp_typecheck_namespace.cpp</text>
</a>
</g>
</g>
<!-- Node16&#45;&gt;Node37 -->
<g id="edge38" class="edge">
<title>Node16&#45;&gt;Node37</title>
<path fill="none" stroke="midnightblue" d="M4082.65,-107.82C4347.21,-103.81 5152.6,-88.91 5411.5,-53 5422.28,-51.5 5433.57,-49.39 5444.58,-47.02"/>
<polygon fill="midnightblue" stroke="midnightblue" points="4082.29,-104.33 4072.34,-107.98 4082.39,-111.33 4082.29,-104.33"/>
</g>
<!-- Node38 -->
<g id="node38" class="node">
<title>Node38</title>
<g id="a_node38"><a xlink:href="cpp__typecheck__resolve_8cpp.html" target="_top" xlink:title="C++ Language Type Checking.">
<polygon fill="none" stroke="black" points="5632.5,-6 5632.5,-47 5806.5,-47 5806.5,-6 5632.5,-6"/>
<text text-anchor="start" x="5640.5" y="-35" font-family="Helvetica,sans-Serif" font-size="10.00">/home/runner/work/diffblue</text>
<text text-anchor="start" x="5640.5" y="-24" font-family="Helvetica,sans-Serif" font-size="10.00">&#45;cbmc/diffblue&#45;cbmc/src</text>
<text text-anchor="middle" x="5719.5" y="-13" font-family="Helvetica,sans-Serif" font-size="10.00">/cpp/cpp_typecheck_resolve.cpp</text>
</a>
</g>
</g>
<!-- Node16&#45;&gt;Node38 -->
<g id="edge39" class="edge">
<title>Node16&#45;&gt;Node38</title>
<path fill="none" stroke="midnightblue" d="M4082.33,-108.6C4372.16,-106.83 5321.82,-97.68 5623.5,-53 5633.39,-51.53 5643.73,-49.42 5653.81,-47.04"/>
<polygon fill="midnightblue" stroke="midnightblue" points="4082.28,-105.1 4072.3,-108.66 4082.32,-112.1 4082.28,-105.1"/>
</g>
<!-- Node39 -->
<g id="node39" class="node">
<title>Node39</title>
<g id="a_node39"><a xlink:href="cpp__typecheck__static__assert_8cpp.html" target="_top" xlink:title="C++ Language Type Checking.">
<polygon fill="none" stroke="black" points="5825,-0.5 5825,-52.5 5974,-52.5 5974,-0.5 5825,-0.5"/>
<text text-anchor="start" x="5833" y="-40.5" font-family="Helvetica,sans-Serif" font-size="10.00">/home/runner/work/diffblue</text>
<text text-anchor="start" x="5833" y="-29.5" font-family="Helvetica,sans-Serif" font-size="10.00">&#45;cbmc/diffblue&#45;cbmc/src</text>
<text text-anchor="start" x="5833" y="-18.5" font-family="Helvetica,sans-Serif" font-size="10.00">/cpp/cpp_typecheck_static</text>
<text text-anchor="middle" x="5899.5" y="-7.5" font-family="Helvetica,sans-Serif" font-size="10.00">_assert.cpp</text>
</a>
</g>
</g>
<!-- Node16&#45;&gt;Node39 -->
<g id="edge40" class="edge">
<title>Node16&#45;&gt;Node39</title>
<path fill="none" stroke="midnightblue" d="M4082.43,-109.35C4394.26,-110.17 5475.53,-108.83 5815.5,-53 5818.51,-52.51 5821.56,-51.93 5824.63,-51.3"/>
<polygon fill="midnightblue" stroke="midnightblue" points="4082.11,-105.85 4072.11,-109.32 4082.1,-112.85 4082.11,-105.85"/>
</g>
<!-- Node40 -->
<g id="node40" class="node">
<title>Node40</title>
<g id="a_node40"><a xlink:href="cpp__typecheck__template_8cpp.html" target="_top" xlink:title="C++ Language Type Checking.">
<polygon fill="none" stroke="black" points="5992.5,-6 5992.5,-47 6174.5,-47 6174.5,-6 5992.5,-6"/>
<text text-anchor="start" x="6000.5" y="-35" font-family="Helvetica,sans-Serif" font-size="10.00">/home/runner/work/diffblue</text>
<text text-anchor="start" x="6000.5" y="-24" font-family="Helvetica,sans-Serif" font-size="10.00">&#45;cbmc/diffblue&#45;cbmc/src</text>
<text text-anchor="middle" x="6083.5" y="-13" font-family="Helvetica,sans-Serif" font-size="10.00">/cpp/cpp_typecheck_template.cpp</text>
</a>
</g>
</g>
<!-- Node16&#45;&gt;Node40 -->
<g id="edge41" class="edge">
<title>Node16&#45;&gt;Node40</title>
<path fill="none" stroke="midnightblue" d="M4082.6,-109.11C4412.6,-109.13 5607.97,-105.51 5983.5,-53 5993.88,-51.55 6004.74,-49.43 6015.31,-47.02"/>
<polygon fill="midnightblue" stroke="midnightblue" points="4082.16,-105.61 4072.16,-109.1 4082.16,-112.61 4082.16,-105.61"/>
</g>
<!-- Node41 -->
<g id="node41" class="node">
<title>Node41</title>
<g id="a_node41"><a xlink:href="cpp__typecheck__type_8cpp.html" target="_top" xlink:title="C++ Language Type Checking.">
<polygon fill="none" stroke="black" points="6192.5,-6 6192.5,-47 6352.5,-47 6352.5,-6 6192.5,-6"/>
<text text-anchor="start" x="6200.5" y="-35" font-family="Helvetica,sans-Serif" font-size="10.00">/home/runner/work/diffblue</text>
<text text-anchor="start" x="6200.5" y="-24" font-family="Helvetica,sans-Serif" font-size="10.00">&#45;cbmc/diffblue&#45;cbmc/src</text>
<text text-anchor="middle" x="6272.5" y="-13" font-family="Helvetica,sans-Serif" font-size="10.00">/cpp/cpp_typecheck_type.cpp</text>
</a>
</g>
</g>
<!-- Node16&#45;&gt;Node41 -->
<g id="edge42" class="edge">
<title>Node16&#45;&gt;Node41</title>
<path fill="none" stroke="midnightblue" d="M4082.1,-108.1C4458.71,-103.92 5973.46,-85.24 6183.5,-53 6192.87,-51.56 6202.65,-49.43 6212.15,-47"/>
<polygon fill="midnightblue" stroke="midnightblue" points="4082.05,-104.6 4072.09,-108.21 4082.13,-111.6 4082.05,-104.6"/>
</g>
<!-- Node42 -->
<g id="node42" class="node">
<title>Node42</title>
<g id="a_node42"><a xlink:href="cpp__typecheck__using_8cpp.html" target="_top" xlink:title="C++ Language Type Checking.">
<polygon fill="none" stroke="black" points="6370.5,-6 6370.5,-47 6534.5,-47 6534.5,-6 6370.5,-6"/>
<text text-anchor="start" x="6378.5" y="-35" font-family="Helvetica,sans-Serif" font-size="10.00">/home/runner/work/diffblue</text>
<text text-anchor="start" x="6378.5" y="-24" font-family="Helvetica,sans-Serif" font-size="10.00">&#45;cbmc/diffblue&#45;cbmc/src</text>
<text text-anchor="middle" x="6452.5" y="-13" font-family="Helvetica,sans-Serif" font-size="10.00">/cpp/cpp_typecheck_using.cpp</text>
</a>
</g>
</g>
<!-- Node16&#45;&gt;Node42 -->
<g id="edge43" class="edge">
<title>Node16&#45;&gt;Node42</title>
<path fill="none" stroke="midnightblue" d="M4082.37,-108.24C4478.16,-104.55 6132.98,-87.17 6361.5,-53 6371.07,-51.57 6381.07,-49.44 6390.78,-47.02"/>
<polygon fill="midnightblue" stroke="midnightblue" points="4082.11,-104.75 4072.14,-108.34 4082.17,-111.75 4082.11,-104.75"/>
</g>
<!-- Node43 -->
<g id="node43" class="node">
<title>Node43</title>
<g id="a_node43"><a xlink:href="cpp__typecheck__virtual__table_8cpp.html" target="_top" xlink:title="C++ Language Type Checking.">
<polygon fill="none" stroke="black" points="6553,-0.5 6553,-52.5 6702,-52.5 6702,-0.5 6553,-0.5"/>
<text text-anchor="start" x="6561" y="-40.5" font-family="Helvetica,sans-Serif" font-size="10.00">/home/runner/work/diffblue</text>
<text text-anchor="start" x="6561" y="-29.5" font-family="Helvetica,sans-Serif" font-size="10.00">&#45;cbmc/diffblue&#45;cbmc/src</text>
<text text-anchor="start" x="6561" y="-18.5" font-family="Helvetica,sans-Serif" font-size="10.00">/cpp/cpp_typecheck_virtual</text>
<text text-anchor="middle" x="6627.5" y="-7.5" font-family="Helvetica,sans-Serif" font-size="10.00">_table.cpp</text>
</a>
</g>
</g>
<!-- Node16&#45;&gt;Node43 -->
<g id="edge44" class="edge">
<title>Node16&#45;&gt;Node43</title>
<path fill="none" stroke="midnightblue" d="M4082.42,-108.51C4496.78,-105.91 6296.51,-92.44 6543.5,-53 6546.51,-52.52 6549.56,-51.96 6552.63,-51.33"/>
<polygon fill="midnightblue" stroke="midnightblue" points="4082.28,-105.01 4072.3,-108.57 4082.33,-112.01 4082.28,-105.01"/>
</g>
</g>
</svg>
