<?xml version="1.0" encoding="UTF-8" standalone="no"?>
<!DOCTYPE svg PUBLIC "-//W3C//DTD SVG 1.1//EN"
 "http://www.w3.org/Graphics/SVG/1.1/DTD/svg11.dtd">
<!-- Generated by graphviz version 2.43.0 (0)
 -->
<!-- Title: /home/runner/work/diffblue&#45;cbmc/diffblue&#45;cbmc/src/cpp/cpp_type2name.h Pages: 1 -->
<svg width="1858pt" height="139pt"
 viewBox="0.00 0.00 1857.50 139.00" xmlns="http://www.w3.org/2000/svg" xmlns:xlink="http://www.w3.org/1999/xlink">
<g id="graph0" class="graph" transform="scale(1 1) rotate(0) translate(4 135)">
<title>/home/runner/work/diffblue&#45;cbmc/diffblue&#45;cbmc/src/cpp/cpp_type2name.h</title>
<!-- Node1 -->
<g id="node1" class="node">
<title>Node1</title>
<g id="a_node1"><a xlink:title="C++ Language Module.">
<polygon fill="#bfbfbf" stroke="black" points="839,-89.5 839,-130.5 988,-130.5 988,-89.5 839,-89.5"/>
<text text-anchor="start" x="847" y="-118.5" font-family="Helvetica,sans-Serif" font-size="10.00">/home/runner/work/diffblue</text>
<text text-anchor="start" x="847" y="-107.5" font-family="Helvetica,sans-Serif" font-size="10.00">&#45;cbmc/diffblue&#45;cbmc/src</text>
<text text-anchor="middle" x="913.5" y="-96.5" font-family="Helvetica,sans-Serif" font-size="10.00">/cpp/cpp_type2name.h</text>
</a>
</g>
</g>
<!-- Node2 -->
<g id="node2" class="node">
<title>Node2</title>
<g id="a_node2"><a xlink:href="cpp__declarator__converter_8cpp.html" target="_top" xlink:title="C++ Language Type Checking.">
<polygon fill="none" stroke="black" points="0,-6 0,-47 183,-47 183,-6 0,-6"/>
<text text-anchor="start" x="8" y="-35" font-family="Helvetica,sans-Serif" font-size="10.00">/home/runner/work/diffblue</text>
<text text-anchor="start" x="8" y="-24" font-family="Helvetica,sans-Serif" font-size="10.00">&#45;cbmc/diffblue&#45;cbmc/src</text>
<text text-anchor="middle" x="91.5" y="-13" font-family="Helvetica,sans-Serif" font-size="10.00">/cpp/cpp_declarator_converter.cpp</text>
</a>
</g>
</g>
<!-- Node1&#45;&gt;Node2 -->
<g id="edge1" class="edge">
<title>Node1&#45;&gt;Node2</title>
<path fill="none" stroke="midnightblue" d="M828.63,-107.15C693.11,-103.13 419.84,-90.68 191.5,-53 181.78,-51.4 171.62,-49.3 161.65,-47.01"/>
<polygon fill="midnightblue" stroke="midnightblue" points="828.84,-110.65 838.94,-107.44 829.04,-103.66 828.84,-110.65"/>
</g>
<!-- Node3 -->
<g id="node3" class="node">
<title>Node3</title>
<g id="a_node3"><a xlink:href="cpp__instantiate__template_8cpp.html" target="_top" xlink:title="C++ Language Type Checking.">
<polygon fill="none" stroke="black" points="201,-6 201,-47 386,-47 386,-6 201,-6"/>
<text text-anchor="start" x="209" y="-35" font-family="Helvetica,sans-Serif" font-size="10.00">/home/runner/work/diffblue</text>
<text text-anchor="start" x="209" y="-24" font-family="Helvetica,sans-Serif" font-size="10.00">&#45;cbmc/diffblue&#45;cbmc/src</text>
<text text-anchor="middle" x="293.5" y="-13" font-family="Helvetica,sans-Serif" font-size="10.00">/cpp/cpp_instantiate_template.cpp</text>
</a>
</g>
</g>
<!-- Node1&#45;&gt;Node3 -->
<g id="edge2" class="edge">
<title>Node1&#45;&gt;Node3</title>
<path fill="none" stroke="midnightblue" d="M828.64,-103.5C725.44,-95.98 546.23,-80.2 394.5,-53 385.15,-51.32 375.39,-49.26 365.78,-47.05"/>
<polygon fill="midnightblue" stroke="midnightblue" points="828.47,-107 838.69,-104.23 828.97,-100.02 828.47,-107"/>
</g>
<!-- Node4 -->
<g id="node4" class="node">
<title>Node4</title>
<g id="a_node4"><a xlink:href="cpp__language_8cpp.html" target="_top" xlink:title="C++ Language Module.">
<polygon fill="none" stroke="black" points="404,-6 404,-47 553,-47 553,-6 404,-6"/>
<text text-anchor="start" x="412" y="-35" font-family="Helvetica,sans-Serif" font-size="10.00">/home/runner/work/diffblue</text>
<text text-anchor="start" x="412" y="-24" font-family="Helvetica,sans-Serif" font-size="10.00">&#45;cbmc/diffblue&#45;cbmc/src</text>
<text text-anchor="middle" x="478.5" y="-13" font-family="Helvetica,sans-Serif" font-size="10.00">/cpp/cpp_language.cpp</text>
</a>
</g>
</g>
<!-- Node1&#45;&gt;Node4 -->
<g id="edge3" class="edge">
<title>Node1&#45;&gt;Node4</title>
<path fill="none" stroke="midnightblue" d="M828.42,-98.87C756.72,-89.52 651.7,-73.92 561.5,-53 554.01,-51.26 546.21,-49.21 538.52,-47.03"/>
<polygon fill="midnightblue" stroke="midnightblue" points="828.38,-102.39 838.75,-100.2 829.28,-95.45 828.38,-102.39"/>
</g>
<!-- Node5 -->
<g id="node5" class="node">
<title>Node5</title>
<g id="a_node5"><a xlink:href="cpp__type2name_8cpp.html" target="_top" xlink:title="C++ Language Module.">
<polygon fill="none" stroke="black" points="571,-6 571,-47 720,-47 720,-6 571,-6"/>
<text text-anchor="start" x="579" y="-35" font-family="Helvetica,sans-Serif" font-size="10.00">/home/runner/work/diffblue</text>
<text text-anchor="start" x="579" y="-24" font-family="Helvetica,sans-Serif" font-size="10.00">&#45;cbmc/diffblue&#45;cbmc/src</text>
<text text-anchor="middle" x="645.5" y="-13" font-family="Helvetica,sans-Serif" font-size="10.00">/cpp/cpp_type2name.cpp</text>
</a>
</g>
</g>
<!-- Node1&#45;&gt;Node5 -->
<g id="edge4" class="edge">
<title>Node1&#45;&gt;Node5</title>
<path fill="none" stroke="midnightblue" d="M839.05,-86.54C805.29,-76.34 764.87,-64.09 728.5,-53 722.16,-51.07 715.54,-49.04 708.93,-47.02"/>
<polygon fill="midnightblue" stroke="midnightblue" points="838.25,-89.96 848.84,-89.5 840.28,-83.26 838.25,-89.96"/>
</g>
<!-- Node6 -->
<g id="node6" class="node">
<title>Node6</title>
<g id="a_node6"><a xlink:href="cpp__typecheck__compound__type_8cpp.html" target="_top" xlink:title="C++ Language Type Checking.">
<polygon fill="none" stroke="black" points="738,-0.5 738,-52.5 907,-52.5 907,-0.5 738,-0.5"/>
<text text-anchor="start" x="746" y="-40.5" font-family="Helvetica,sans-Serif" font-size="10.00">/home/runner/work/diffblue</text>
<text text-anchor="start" x="746" y="-29.5" font-family="Helvetica,sans-Serif" font-size="10.00">&#45;cbmc/diffblue&#45;cbmc/src</text>
<text text-anchor="start" x="746" y="-18.5" font-family="Helvetica,sans-Serif" font-size="10.00">/cpp/cpp_typecheck_compound</text>
<text text-anchor="middle" x="822.5" y="-7.5" font-family="Helvetica,sans-Serif" font-size="10.00">_type.cpp</text>
</a>
</g>
</g>
<!-- Node1&#45;&gt;Node6 -->
<g id="edge5" class="edge">
<title>Node1&#45;&gt;Node6</title>
<path fill="none" stroke="midnightblue" d="M883.94,-82.52C873.21,-72.92 861.13,-62.09 850.53,-52.61"/>
<polygon fill="midnightblue" stroke="midnightblue" points="881.69,-85.21 891.47,-89.27 886.36,-79.99 881.69,-85.21"/>
</g>
<!-- Node7 -->
<g id="node7" class="node">
<title>Node7</title>
<g id="a_node7"><a xlink:href="cpp__typecheck__expr_8cpp.html" target="_top" xlink:title="C++ Language Type Checking.">
<polygon fill="none" stroke="black" points="925,-6 925,-47 1084,-47 1084,-6 925,-6"/>
<text text-anchor="start" x="933" y="-35" font-family="Helvetica,sans-Serif" font-size="10.00">/home/runner/work/diffblue</text>
<text text-anchor="start" x="933" y="-24" font-family="Helvetica,sans-Serif" font-size="10.00">&#45;cbmc/diffblue&#45;cbmc/src</text>
<text text-anchor="middle" x="1004.5" y="-13" font-family="Helvetica,sans-Serif" font-size="10.00">/cpp/cpp_typecheck_expr.cpp</text>
</a>
</g>
</g>
<!-- Node1&#45;&gt;Node7 -->
<g id="edge6" class="edge">
<title>Node1&#45;&gt;Node7</title>
<path fill="none" stroke="midnightblue" d="M943.24,-82.36C956.09,-70.85 970.86,-57.63 982.67,-47.05"/>
<polygon fill="midnightblue" stroke="midnightblue" points="940.64,-79.99 935.53,-89.27 945.31,-85.21 940.64,-79.99"/>
</g>
<!-- Node8 -->
<g id="node8" class="node">
<title>Node8</title>
<g id="a_node8"><a xlink:href="cpp__typecheck__function_8cpp.html" target="_top" xlink:title="C++ Language Type Checking.">
<polygon fill="none" stroke="black" points="1101.5,-6 1101.5,-47 1279.5,-47 1279.5,-6 1101.5,-6"/>
<text text-anchor="start" x="1109.5" y="-35" font-family="Helvetica,sans-Serif" font-size="10.00">/home/runner/work/diffblue</text>
<text text-anchor="start" x="1109.5" y="-24" font-family="Helvetica,sans-Serif" font-size="10.00">&#45;cbmc/diffblue&#45;cbmc/src</text>
<text text-anchor="middle" x="1190.5" y="-13" font-family="Helvetica,sans-Serif" font-size="10.00">/cpp/cpp_typecheck_function.cpp</text>
</a>
</g>
</g>
<!-- Node1&#45;&gt;Node8 -->
<g id="edge7" class="edge">
<title>Node1&#45;&gt;Node8</title>
<path fill="none" stroke="midnightblue" d="M989.52,-86.63C1031.71,-74.22 1083.69,-58.93 1124.21,-47"/>
<polygon fill="midnightblue" stroke="midnightblue" points="988.45,-83.3 979.85,-89.48 990.43,-90.01 988.45,-83.3"/>
</g>
<!-- Node9 -->
<g id="node9" class="node">
<title>Node9</title>
<g id="a_node9"><a xlink:href="cpp__typecheck__resolve_8cpp.html" target="_top" xlink:title="C++ Language Type Checking.">
<polygon fill="none" stroke="black" points="1297.5,-6 1297.5,-47 1471.5,-47 1471.5,-6 1297.5,-6"/>
<text text-anchor="start" x="1305.5" y="-35" font-family="Helvetica,sans-Serif" font-size="10.00">/home/runner/work/diffblue</text>
<text text-anchor="start" x="1305.5" y="-24" font-family="Helvetica,sans-Serif" font-size="10.00">&#45;cbmc/diffblue&#45;cbmc/src</text>
<text text-anchor="middle" x="1384.5" y="-13" font-family="Helvetica,sans-Serif" font-size="10.00">/cpp/cpp_typecheck_resolve.cpp</text>
</a>
</g>
</g>
<!-- Node1&#45;&gt;Node9 -->
<g id="edge8" class="edge">
<title>Node1&#45;&gt;Node9</title>
<path fill="none" stroke="midnightblue" d="M998.33,-99.07C1074.64,-89.49 1189.64,-73.45 1288.5,-53 1297.03,-51.24 1305.93,-49.18 1314.72,-47.01"/>
<polygon fill="midnightblue" stroke="midnightblue" points="997.77,-95.61 988.28,-100.32 998.64,-102.56 997.77,-95.61"/>
</g>
<!-- Node10 -->
<g id="node10" class="node">
<title>Node10</title>
<g id="a_node10"><a xlink:href="cpp__typecheck__template_8cpp.html" target="_top" xlink:title="C++ Language Type Checking.">
<polygon fill="none" stroke="black" points="1489.5,-6 1489.5,-47 1671.5,-47 1671.5,-6 1489.5,-6"/>
<text text-anchor="start" x="1497.5" y="-35" font-family="Helvetica,sans-Serif" font-size="10.00">/home/runner/work/diffblue</text>
<text text-anchor="start" x="1497.5" y="-24" font-family="Helvetica,sans-Serif" font-size="10.00">&#45;cbmc/diffblue&#45;cbmc/src</text>
<text text-anchor="middle" x="1580.5" y="-13" font-family="Helvetica,sans-Serif" font-size="10.00">/cpp/cpp_typecheck_template.cpp</text>
</a>
</g>
</g>
<!-- Node1&#45;&gt;Node10 -->
<g id="edge9" class="edge">
<title>Node1&#45;&gt;Node10</title>
<path fill="none" stroke="midnightblue" d="M998.45,-104.63C1109.81,-97.98 1310.92,-82.82 1480.5,-53 1489.94,-51.34 1499.8,-49.26 1509.5,-47.01"/>
<polygon fill="midnightblue" stroke="midnightblue" points="998.07,-101.14 988.29,-105.22 998.48,-108.13 998.07,-101.14"/>
</g>
<!-- Node11 -->
<g id="node11" class="node">
<title>Node11</title>
<g id="a_node11"><a xlink:href="dump__c_8cpp.html" target="_top" xlink:title="Dump Goto&#45;Program as C/C++ Source.">
<polygon fill="none" stroke="black" points="1689.5,-6 1689.5,-47 1849.5,-47 1849.5,-6 1689.5,-6"/>
<text text-anchor="start" x="1697.5" y="-35" font-family="Helvetica,sans-Serif" font-size="10.00">/home/runner/work/diffblue</text>
<text text-anchor="start" x="1697.5" y="-24" font-family="Helvetica,sans-Serif" font-size="10.00">&#45;cbmc/diffblue&#45;cbmc/src</text>
<text text-anchor="middle" x="1769.5" y="-13" font-family="Helvetica,sans-Serif" font-size="10.00">/goto&#45;instrument/dump_c.cpp</text>
</a>
</g>
</g>
<!-- Node1&#45;&gt;Node11 -->
<g id="edge10" class="edge">
<title>Node1&#45;&gt;Node11</title>
<path fill="none" stroke="midnightblue" d="M998.56,-108.49C1140.83,-106.37 1435.56,-96.55 1680.5,-53 1689.2,-51.45 1698.28,-49.39 1707.16,-47.11"/>
<polygon fill="midnightblue" stroke="midnightblue" points="998.12,-105 988.17,-108.64 998.22,-112 998.12,-105"/>
</g>
</g>
</svg>
