<?xml version="1.0" encoding="UTF-8" standalone="no"?>
<!DOCTYPE svg PUBLIC "-//W3C//DTD SVG 1.1//EN"
 "http://www.w3.org/Graphics/SVG/1.1/DTD/svg11.dtd">
<!-- Generated by graphviz version 2.43.0 (0)
 -->
<!-- Title: /home/runner/work/diffblue&#45;cbmc/diffblue&#45;cbmc/src/crangler/cscanner.cpp Pages: 1 -->
<svg width="183pt" height="218pt"
 viewBox="0.00 0.00 182.50 218.00" xmlns="http://www.w3.org/2000/svg" xmlns:xlink="http://www.w3.org/1999/xlink">
<g id="graph0" class="graph" transform="scale(1 1) rotate(0) translate(4 214)">
<title>/home/runner/work/diffblue&#45;cbmc/diffblue&#45;cbmc/src/crangler/cscanner.cpp</title>
<!-- Node1 -->
<g id="node1" class="node">
<title>Node1</title>
<g id="a_node1"><a xlink:title=" ">
<polygon fill="#bfbfbf" stroke="black" points="0,-168.5 0,-209.5 149,-209.5 149,-168.5 0,-168.5"/>
<text text-anchor="start" x="8" y="-197.5" font-family="Helvetica,sans-Serif" font-size="10.00">/home/runner/work/diffblue</text>
<text text-anchor="start" x="8" y="-186.5" font-family="Helvetica,sans-Serif" font-size="10.00">&#45;cbmc/diffblue&#45;cbmc/src</text>
<text text-anchor="middle" x="74.5" y="-175.5" font-family="Helvetica,sans-Serif" font-size="10.00">/crangler/cscanner.cpp</text>
</a>
</g>
</g>
<!-- Node2 -->
<g id="node2" class="node">
<title>Node2</title>
<g id="a_node2"><a xlink:href="cscanner_8h.html" target="_top" xlink:title="cscanner">
<polygon fill="none" stroke="black" points="40.5,-112.5 40.5,-131.5 108.5,-131.5 108.5,-112.5 40.5,-112.5"/>
<text text-anchor="middle" x="74.5" y="-119.5" font-family="Helvetica,sans-Serif" font-size="10.00">cscanner.h</text>
</a>
</g>
</g>
<!-- Node1&#45;&gt;Node2 -->
<g id="edge1" class="edge">
<title>Node1&#45;&gt;Node2</title>
<path fill="none" stroke="midnightblue" d="M74.5,-168.5C74.5,-160.07 74.5,-150.24 74.5,-141.87"/>
<polygon fill="midnightblue" stroke="midnightblue" points="78,-141.65 74.5,-131.65 71,-141.65 78,-141.65"/>
</g>
<!-- Node3 -->
<g id="node3" class="node">
<title>Node3</title>
<g id="a_node3"><a xlink:title=" ">
<polygon fill="none" stroke="#bfbfbf" points="28.5,-0.5 28.5,-19.5 76.5,-19.5 76.5,-0.5 28.5,-0.5"/>
<text text-anchor="middle" x="52.5" y="-7.5" font-family="Helvetica,sans-Serif" font-size="10.00">iosfwd</text>
</a>
</g>
</g>
<!-- Node2&#45;&gt;Node3 -->
<g id="edge2" class="edge">
<title>Node2&#45;&gt;Node3</title>
<path fill="none" stroke="midnightblue" d="M65.48,-112.34C57.43,-103.93 46.2,-90.36 41.5,-76 36.44,-60.55 40.38,-42.24 44.89,-28.99"/>
<polygon fill="midnightblue" stroke="midnightblue" points="48.18,-30.2 48.47,-19.61 41.64,-27.7 48.18,-30.2"/>
</g>
<!-- Node4 -->
<g id="node4" class="node">
<title>Node4</title>
<g id="a_node4"><a xlink:title=" ">
<polygon fill="none" stroke="#bfbfbf" points="51,-56.5 51,-75.5 98,-75.5 98,-56.5 51,-56.5"/>
<text text-anchor="middle" x="74.5" y="-63.5" font-family="Helvetica,sans-Serif" font-size="10.00">vector</text>
</a>
</g>
</g>
<!-- Node2&#45;&gt;Node4 -->
<g id="edge3" class="edge">
<title>Node2&#45;&gt;Node4</title>
<path fill="none" stroke="midnightblue" d="M74.5,-112.08C74.5,-105.01 74.5,-94.86 74.5,-85.99"/>
<polygon fill="midnightblue" stroke="midnightblue" points="78,-85.75 74.5,-75.75 71,-85.75 78,-85.75"/>
</g>
<!-- Node5 -->
<g id="node5" class="node">
<title>Node5</title>
<g id="a_node5"><a xlink:href="ctoken_8h.html" target="_top" xlink:title="ctoken">
<polygon fill="none" stroke="black" points="116.5,-56.5 116.5,-75.5 174.5,-75.5 174.5,-56.5 116.5,-56.5"/>
<text text-anchor="middle" x="145.5" y="-63.5" font-family="Helvetica,sans-Serif" font-size="10.00">ctoken.h</text>
</a>
</g>
</g>
<!-- Node2&#45;&gt;Node5 -->
<g id="edge4" class="edge">
<title>Node2&#45;&gt;Node5</title>
<path fill="none" stroke="midnightblue" d="M85.91,-112.32C96.61,-104.18 112.84,-91.84 125.66,-82.09"/>
<polygon fill="midnightblue" stroke="midnightblue" points="128.04,-84.67 133.89,-75.83 123.81,-79.1 128.04,-84.67"/>
</g>
<!-- Node5&#45;&gt;Node3 -->
<g id="edge5" class="edge">
<title>Node5&#45;&gt;Node3</title>
<path fill="none" stroke="midnightblue" d="M130.56,-56.32C115.91,-47.82 93.37,-34.73 76.26,-24.8"/>
<polygon fill="midnightblue" stroke="midnightblue" points="77.81,-21.65 67.4,-19.65 74.3,-27.7 77.81,-21.65"/>
</g>
<!-- Node6 -->
<g id="node6" class="node">
<title>Node6</title>
<g id="a_node6"><a xlink:title=" ">
<polygon fill="none" stroke="#bfbfbf" points="123.5,-0.5 123.5,-19.5 167.5,-19.5 167.5,-0.5 123.5,-0.5"/>
<text text-anchor="middle" x="145.5" y="-7.5" font-family="Helvetica,sans-Serif" font-size="10.00">string</text>
</a>
</g>
</g>
<!-- Node5&#45;&gt;Node6 -->
<g id="edge6" class="edge">
<title>Node5&#45;&gt;Node6</title>
<path fill="none" stroke="midnightblue" d="M145.5,-56.08C145.5,-49.01 145.5,-38.86 145.5,-29.99"/>
<polygon fill="midnightblue" stroke="midnightblue" points="149,-29.75 145.5,-19.75 142,-29.75 149,-29.75"/>
</g>
</g>
</svg>
