<?xml version="1.0" encoding="UTF-8" standalone="no"?>
<!DOCTYPE svg PUBLIC "-//W3C//DTD SVG 1.1//EN"
 "http://www.w3.org/Graphics/SVG/1.1/DTD/svg11.dtd">
<!-- Generated by graphviz version 2.43.0 (0)
 -->
<!-- Title: /home/runner/work/diffblue&#45;cbmc/diffblue&#45;cbmc/src/util/dense_integer_map.h Pages: 1 -->
<svg width="481pt" height="162pt"
 viewBox="0.00 0.00 481.00 162.00" xmlns="http://www.w3.org/2000/svg" xmlns:xlink="http://www.w3.org/1999/xlink">
<g id="graph0" class="graph" transform="scale(1 1) rotate(0) translate(4 158)">
<title>/home/runner/work/diffblue&#45;cbmc/diffblue&#45;cbmc/src/util/dense_integer_map.h</title>
<!-- Node1 -->
<g id="node1" class="node">
<title>Node1</title>
<g id="a_node1"><a xlink:title="Dense integer map.">
<polygon fill="#bfbfbf" stroke="black" points="207,-112.5 207,-153.5 356,-153.5 356,-112.5 207,-112.5"/>
<text text-anchor="start" x="215" y="-141.5" font-family="Helvetica,sans-Serif" font-size="10.00">/home/runner/work/diffblue</text>
<text text-anchor="start" x="215" y="-130.5" font-family="Helvetica,sans-Serif" font-size="10.00">&#45;cbmc/diffblue&#45;cbmc/src</text>
<text text-anchor="middle" x="281.5" y="-119.5" font-family="Helvetica,sans-Serif" font-size="10.00">/util/dense_integer_map.h</text>
</a>
</g>
</g>
<!-- Node2 -->
<g id="node2" class="node">
<title>Node2</title>
<g id="a_node2"><a xlink:href="src_2util_2invariant_8h.html" target="_top" xlink:title=" ">
<polygon fill="none" stroke="black" points="85.5,-56.5 85.5,-75.5 173.5,-75.5 173.5,-56.5 85.5,-56.5"/>
<text text-anchor="middle" x="129.5" y="-63.5" font-family="Helvetica,sans-Serif" font-size="10.00">util/invariant.h</text>
</a>
</g>
</g>
<!-- Node1&#45;&gt;Node2 -->
<g id="edge1" class="edge">
<title>Node1&#45;&gt;Node2</title>
<path fill="none" stroke="midnightblue" d="M235.89,-112.5C211.02,-101.86 180.95,-89 159.13,-79.67"/>
<polygon fill="midnightblue" stroke="midnightblue" points="160.3,-76.37 149.73,-75.65 157.55,-82.8 160.3,-76.37"/>
</g>
<!-- Node7 -->
<g id="node7" class="node">
<title>Node7</title>
<g id="a_node7"><a xlink:title=" ">
<polygon fill="none" stroke="#bfbfbf" points="191.5,-56.5 191.5,-75.5 241.5,-75.5 241.5,-56.5 191.5,-56.5"/>
<text text-anchor="middle" x="216.5" y="-63.5" font-family="Helvetica,sans-Serif" font-size="10.00">cstdint</text>
</a>
</g>
</g>
<!-- Node1&#45;&gt;Node7 -->
<g id="edge6" class="edge">
<title>Node1&#45;&gt;Node7</title>
<path fill="none" stroke="midnightblue" d="M262,-112.5C252.51,-103.01 241.26,-91.76 232.31,-82.81"/>
<polygon fill="midnightblue" stroke="midnightblue" points="234.7,-80.25 225.15,-75.65 229.75,-85.2 234.7,-80.25"/>
</g>
<!-- Node8 -->
<g id="node8" class="node">
<title>Node8</title>
<g id="a_node8"><a xlink:title=" ">
<polygon fill="none" stroke="#bfbfbf" points="259.5,-56.5 259.5,-75.5 303.5,-75.5 303.5,-56.5 259.5,-56.5"/>
<text text-anchor="middle" x="281.5" y="-63.5" font-family="Helvetica,sans-Serif" font-size="10.00">limits</text>
</a>
</g>
</g>
<!-- Node1&#45;&gt;Node8 -->
<g id="edge7" class="edge">
<title>Node1&#45;&gt;Node8</title>
<path fill="none" stroke="midnightblue" d="M281.5,-112.5C281.5,-104.07 281.5,-94.24 281.5,-85.87"/>
<polygon fill="midnightblue" stroke="midnightblue" points="285,-85.65 281.5,-75.65 278,-85.65 285,-85.65"/>
</g>
<!-- Node9 -->
<g id="node9" class="node">
<title>Node9</title>
<g id="a_node9"><a xlink:title=" ">
<polygon fill="none" stroke="#bfbfbf" points="321.5,-56.5 321.5,-75.5 407.5,-75.5 407.5,-56.5 321.5,-56.5"/>
<text text-anchor="middle" x="364.5" y="-63.5" font-family="Helvetica,sans-Serif" font-size="10.00">unordered_set</text>
</a>
</g>
</g>
<!-- Node1&#45;&gt;Node9 -->
<g id="edge8" class="edge">
<title>Node1&#45;&gt;Node9</title>
<path fill="none" stroke="midnightblue" d="M306.4,-112.5C318.88,-102.72 333.76,-91.07 345.34,-82.01"/>
<polygon fill="midnightblue" stroke="midnightblue" points="347.74,-84.57 353.45,-75.65 343.42,-79.06 347.74,-84.57"/>
</g>
<!-- Node10 -->
<g id="node10" class="node">
<title>Node10</title>
<g id="a_node10"><a xlink:title=" ">
<polygon fill="none" stroke="#bfbfbf" points="426,-56.5 426,-75.5 473,-75.5 473,-56.5 426,-56.5"/>
<text text-anchor="middle" x="449.5" y="-63.5" font-family="Helvetica,sans-Serif" font-size="10.00">vector</text>
</a>
</g>
</g>
<!-- Node1&#45;&gt;Node10 -->
<g id="edge9" class="edge">
<title>Node1&#45;&gt;Node10</title>
<path fill="none" stroke="midnightblue" d="M331.91,-112.5C359.77,-101.72 393.54,-88.65 417.72,-79.29"/>
<polygon fill="midnightblue" stroke="midnightblue" points="419.07,-82.53 427.14,-75.65 416.55,-76 419.07,-82.53"/>
</g>
<!-- Node3 -->
<g id="node3" class="node">
<title>Node3</title>
<g id="a_node3"><a xlink:title=" ">
<polygon fill="none" stroke="#bfbfbf" points="0,-0.5 0,-19.5 49,-19.5 49,-0.5 0,-0.5"/>
<text text-anchor="middle" x="24.5" y="-7.5" font-family="Helvetica,sans-Serif" font-size="10.00">cstdlib</text>
</a>
</g>
</g>
<!-- Node2&#45;&gt;Node3 -->
<g id="edge2" class="edge">
<title>Node2&#45;&gt;Node3</title>
<path fill="none" stroke="midnightblue" d="M112.63,-56.32C95.79,-47.66 69.69,-34.24 50.26,-24.25"/>
<polygon fill="midnightblue" stroke="midnightblue" points="51.82,-21.12 41.33,-19.65 48.62,-27.34 51.82,-21.12"/>
</g>
<!-- Node4 -->
<g id="node4" class="node">
<title>Node4</title>
<g id="a_node4"><a xlink:title=" ">
<polygon fill="none" stroke="#bfbfbf" points="67.5,-0.5 67.5,-19.5 123.5,-19.5 123.5,-0.5 67.5,-0.5"/>
<text text-anchor="middle" x="95.5" y="-7.5" font-family="Helvetica,sans-Serif" font-size="10.00">sstream</text>
</a>
</g>
</g>
<!-- Node2&#45;&gt;Node4 -->
<g id="edge3" class="edge">
<title>Node2&#45;&gt;Node4</title>
<path fill="none" stroke="midnightblue" d="M123.89,-56.08C119.13,-48.53 112.18,-37.49 106.35,-28.23"/>
<polygon fill="midnightblue" stroke="midnightblue" points="109.3,-26.35 101.01,-19.75 103.38,-30.08 109.3,-26.35"/>
</g>
<!-- Node5 -->
<g id="node5" class="node">
<title>Node5</title>
<g id="a_node5"><a xlink:title=" ">
<polygon fill="none" stroke="#bfbfbf" points="141.5,-0.5 141.5,-19.5 185.5,-19.5 185.5,-0.5 141.5,-0.5"/>
<text text-anchor="middle" x="163.5" y="-7.5" font-family="Helvetica,sans-Serif" font-size="10.00">string</text>
</a>
</g>
</g>
<!-- Node2&#45;&gt;Node5 -->
<g id="edge4" class="edge">
<title>Node2&#45;&gt;Node5</title>
<path fill="none" stroke="midnightblue" d="M135.11,-56.08C139.87,-48.53 146.82,-37.49 152.65,-28.23"/>
<polygon fill="midnightblue" stroke="midnightblue" points="155.62,-30.08 157.99,-19.75 149.7,-26.35 155.62,-30.08"/>
</g>
<!-- Node6 -->
<g id="node6" class="node">
<title>Node6</title>
<g id="a_node6"><a xlink:title=" ">
<polygon fill="none" stroke="#bfbfbf" points="204,-0.5 204,-19.5 273,-19.5 273,-0.5 204,-0.5"/>
<text text-anchor="middle" x="238.5" y="-7.5" font-family="Helvetica,sans-Serif" font-size="10.00">type_traits</text>
</a>
</g>
</g>
<!-- Node2&#45;&gt;Node6 -->
<g id="edge5" class="edge">
<title>Node2&#45;&gt;Node6</title>
<path fill="none" stroke="midnightblue" d="M147.01,-56.32C164.57,-47.62 191.83,-34.12 212.03,-24.11"/>
<polygon fill="midnightblue" stroke="midnightblue" points="213.62,-27.23 221.03,-19.65 210.52,-20.96 213.62,-27.23"/>
</g>
</g>
</svg>
