<?xml version="1.0" encoding="UTF-8" standalone="no"?>
<!DOCTYPE svg PUBLIC "-//W3C//DTD SVG 1.1//EN"
 "http://www.w3.org/Graphics/SVG/1.1/DTD/svg11.dtd">
<!-- Generated by graphviz version 2.43.0 (0)
 -->
<!-- Title: /home/runner/work/diffblue&#45;cbmc/diffblue&#45;cbmc/src/analyses/dependence_graph.h Pages: 1 -->
<svg width="1470pt" height="228pt"
 viewBox="0.00 0.00 1470.00 228.00" xmlns="http://www.w3.org/2000/svg" xmlns:xlink="http://www.w3.org/1999/xlink">
<g id="graph0" class="graph" transform="scale(1 1) rotate(0) translate(4 224)">
<title>/home/runner/work/diffblue&#45;cbmc/diffblue&#45;cbmc/src/analyses/dependence_graph.h</title>
<!-- Node1 -->
<g id="node1" class="node">
<title>Node1</title>
<g id="a_node1"><a xlink:title="Field&#45;Sensitive Program Dependence Analysis, Litvak et al., FSE 2010.">
<polygon fill="#bfbfbf" stroke="black" points="643,-178.5 643,-219.5 810,-219.5 810,-178.5 643,-178.5"/>
<text text-anchor="start" x="651" y="-207.5" font-family="Helvetica,sans-Serif" font-size="10.00">/home/runner/work/diffblue</text>
<text text-anchor="start" x="651" y="-196.5" font-family="Helvetica,sans-Serif" font-size="10.00">&#45;cbmc/diffblue&#45;cbmc/src</text>
<text text-anchor="middle" x="726.5" y="-185.5" font-family="Helvetica,sans-Serif" font-size="10.00">/analyses/dependence_graph.h</text>
</a>
</g>
</g>
<!-- Node2 -->
<g id="node2" class="node">
<title>Node2</title>
<g id="a_node2"><a xlink:href="dependence__graph_8cpp.html" target="_top" xlink:title="Field&#45;Sensitive Program Dependence Analysis, Litvak et al., FSE 2010.">
<polygon fill="none" stroke="black" points="0,-95 0,-136 179,-136 179,-95 0,-95"/>
<text text-anchor="start" x="8" y="-124" font-family="Helvetica,sans-Serif" font-size="10.00">/home/runner/work/diffblue</text>
<text text-anchor="start" x="8" y="-113" font-family="Helvetica,sans-Serif" font-size="10.00">&#45;cbmc/diffblue&#45;cbmc/src</text>
<text text-anchor="middle" x="89.5" y="-102" font-family="Helvetica,sans-Serif" font-size="10.00">/analyses/dependence_graph.cpp</text>
</a>
</g>
</g>
<!-- Node1&#45;&gt;Node2 -->
<g id="edge1" class="edge">
<title>Node1&#45;&gt;Node2</title>
<path fill="none" stroke="midnightblue" d="M632.63,-192.56C524.61,-185.31 342.2,-170 187.5,-142 178.33,-140.34 168.76,-138.28 159.34,-136.04"/>
<polygon fill="midnightblue" stroke="midnightblue" points="632.64,-196.07 642.85,-193.24 633.1,-189.08 632.64,-196.07"/>
</g>
<!-- Node3 -->
<g id="node3" class="node">
<title>Node3</title>
<g id="a_node3"><a xlink:href="build__analyzer_8cpp.html" target="_top" xlink:title=" ">
<polygon fill="none" stroke="black" points="197,-95 197,-136 378,-136 378,-95 197,-95"/>
<text text-anchor="start" x="205" y="-124" font-family="Helvetica,sans-Serif" font-size="10.00">/home/runner/work/diffblue</text>
<text text-anchor="start" x="205" y="-113" font-family="Helvetica,sans-Serif" font-size="10.00">&#45;cbmc/diffblue&#45;cbmc/src</text>
<text text-anchor="middle" x="287.5" y="-102" font-family="Helvetica,sans-Serif" font-size="10.00">/goto&#45;analyzer/build_analyzer.cpp</text>
</a>
</g>
</g>
<!-- Node1&#45;&gt;Node3 -->
<g id="edge2" class="edge">
<title>Node1&#45;&gt;Node3</title>
<path fill="none" stroke="midnightblue" d="M633.06,-184.9C564.52,-174.73 469.35,-159.46 386.5,-142 377.99,-140.21 369.11,-138.17 360.32,-136.04"/>
<polygon fill="midnightblue" stroke="midnightblue" points="632.57,-188.36 642.98,-186.36 633.59,-181.44 632.57,-188.36"/>
</g>
<!-- Node4 -->
<g id="node4" class="node">
<title>Node4</title>
<g id="a_node4"><a xlink:href="static__show__domain_8cpp.html" target="_top" xlink:title=" ">
<polygon fill="none" stroke="black" points="396,-89.5 396,-141.5 545,-141.5 545,-89.5 396,-89.5"/>
<text text-anchor="start" x="404" y="-129.5" font-family="Helvetica,sans-Serif" font-size="10.00">/home/runner/work/diffblue</text>
<text text-anchor="start" x="404" y="-118.5" font-family="Helvetica,sans-Serif" font-size="10.00">&#45;cbmc/diffblue&#45;cbmc/src</text>
<text text-anchor="start" x="404" y="-107.5" font-family="Helvetica,sans-Serif" font-size="10.00">/goto&#45;analyzer/static_show</text>
<text text-anchor="middle" x="470.5" y="-96.5" font-family="Helvetica,sans-Serif" font-size="10.00">_domain.cpp</text>
</a>
</g>
</g>
<!-- Node1&#45;&gt;Node4 -->
<g id="edge3" class="edge">
<title>Node1&#45;&gt;Node4</title>
<path fill="none" stroke="midnightblue" d="M655.23,-175.31C620.9,-164.38 579.75,-151.28 545.01,-140.22"/>
<polygon fill="midnightblue" stroke="midnightblue" points="654.59,-178.78 665.18,-178.48 656.71,-172.11 654.59,-178.78"/>
</g>
<!-- Node5 -->
<g id="node5" class="node">
<title>Node5</title>
<g id="a_node5"><a xlink:href="change__impact_8cpp.html" target="_top" xlink:title="Data and control&#45;dependencies of syntactic diff.">
<polygon fill="none" stroke="black" points="562.5,-95 562.5,-136 720.5,-136 720.5,-95 562.5,-95"/>
<text text-anchor="start" x="570.5" y="-124" font-family="Helvetica,sans-Serif" font-size="10.00">/home/runner/work/diffblue</text>
<text text-anchor="start" x="570.5" y="-113" font-family="Helvetica,sans-Serif" font-size="10.00">&#45;cbmc/diffblue&#45;cbmc/src</text>
<text text-anchor="middle" x="641.5" y="-102" font-family="Helvetica,sans-Serif" font-size="10.00">/goto&#45;diff/change_impact.cpp</text>
</a>
</g>
</g>
<!-- Node1&#45;&gt;Node5 -->
<g id="edge4" class="edge">
<title>Node1&#45;&gt;Node5</title>
<path fill="none" stroke="midnightblue" d="M698.38,-171.04C686.46,-159.6 672.82,-146.53 661.89,-136.05"/>
<polygon fill="midnightblue" stroke="midnightblue" points="696.28,-173.88 705.92,-178.27 701.13,-168.82 696.28,-173.88"/>
</g>
<!-- Node6 -->
<g id="node6" class="node">
<title>Node6</title>
<g id="a_node6"><a xlink:href="full__slicer__class_8h.html" target="_top" xlink:title="Goto Program Slicing.">
<polygon fill="none" stroke="black" points="738,-89.5 738,-141.5 887,-141.5 887,-89.5 738,-89.5"/>
<text text-anchor="start" x="746" y="-129.5" font-family="Helvetica,sans-Serif" font-size="10.00">/home/runner/work/diffblue</text>
<text text-anchor="start" x="746" y="-118.5" font-family="Helvetica,sans-Serif" font-size="10.00">&#45;cbmc/diffblue&#45;cbmc/src</text>
<text text-anchor="start" x="746" y="-107.5" font-family="Helvetica,sans-Serif" font-size="10.00">/goto&#45;instrument/full_slicer</text>
<text text-anchor="middle" x="812.5" y="-96.5" font-family="Helvetica,sans-Serif" font-size="10.00">_class.h</text>
</a>
</g>
</g>
<!-- Node1&#45;&gt;Node6 -->
<g id="edge5" class="edge">
<title>Node1&#45;&gt;Node6</title>
<path fill="none" stroke="midnightblue" d="M754.73,-171.24C764.8,-161.71 776.09,-151 786.01,-141.61"/>
<polygon fill="midnightblue" stroke="midnightblue" points="752.17,-168.85 747.32,-178.27 756.98,-173.93 752.17,-168.85"/>
</g>
<!-- Node9 -->
<g id="node9" class="node">
<title>Node9</title>
<g id="a_node9"><a xlink:href="goto__instrument__parse__options_8cpp.html" target="_top" xlink:title="Main Module.">
<polygon fill="none" stroke="black" points="905.5,-89.5 905.5,-141.5 1087.5,-141.5 1087.5,-89.5 905.5,-89.5"/>
<text text-anchor="start" x="913.5" y="-129.5" font-family="Helvetica,sans-Serif" font-size="10.00">/home/runner/work/diffblue</text>
<text text-anchor="start" x="913.5" y="-118.5" font-family="Helvetica,sans-Serif" font-size="10.00">&#45;cbmc/diffblue&#45;cbmc/src</text>
<text text-anchor="start" x="913.5" y="-107.5" font-family="Helvetica,sans-Serif" font-size="10.00">/goto&#45;instrument/goto_instrument</text>
<text text-anchor="middle" x="996.5" y="-96.5" font-family="Helvetica,sans-Serif" font-size="10.00">_parse_options.cpp</text>
</a>
</g>
</g>
<!-- Node1&#45;&gt;Node9 -->
<g id="edge8" class="edge">
<title>Node1&#45;&gt;Node9</title>
<path fill="none" stroke="midnightblue" d="M800.85,-175.56C835.83,-165 877.68,-152.37 913.68,-141.5"/>
<polygon fill="midnightblue" stroke="midnightblue" points="799.73,-172.24 791.17,-178.48 801.76,-178.94 799.73,-172.24"/>
</g>
<!-- Node10 -->
<g id="node10" class="node">
<title>Node10</title>
<g id="a_node10"><a xlink:href="cegis__verifier_8cpp.html" target="_top" xlink:title="Verifier for Counterexample&#45;Guided Synthesis.">
<polygon fill="none" stroke="black" points="1106,-95 1106,-136 1295,-136 1295,-95 1106,-95"/>
<text text-anchor="start" x="1114" y="-124" font-family="Helvetica,sans-Serif" font-size="10.00">/home/runner/work/diffblue</text>
<text text-anchor="start" x="1114" y="-113" font-family="Helvetica,sans-Serif" font-size="10.00">&#45;cbmc/diffblue&#45;cbmc/src</text>
<text text-anchor="middle" x="1200.5" y="-102" font-family="Helvetica,sans-Serif" font-size="10.00">/goto&#45;synthesizer/cegis_verifier.cpp</text>
</a>
</g>
</g>
<!-- Node1&#45;&gt;Node10 -->
<g id="edge9" class="edge">
<title>Node1&#45;&gt;Node10</title>
<path fill="none" stroke="midnightblue" d="M820.63,-186.14C895.65,-176.11 1003.22,-160.46 1096.5,-142 1105.53,-140.21 1114.95,-138.17 1124.28,-136.02"/>
<polygon fill="midnightblue" stroke="midnightblue" points="819.72,-182.73 810.27,-187.52 820.64,-189.67 819.72,-182.73"/>
</g>
<!-- Node11 -->
<g id="node11" class="node">
<title>Node11</title>
<g id="a_node11"><a xlink:href="janalyzer__parse__options_8cpp.html" target="_top" xlink:title="JANALYZER Command Line Option Processing.">
<polygon fill="none" stroke="black" points="1313,-89.5 1313,-141.5 1462,-141.5 1462,-89.5 1313,-89.5"/>
<text text-anchor="start" x="1321" y="-129.5" font-family="Helvetica,sans-Serif" font-size="10.00">/home/runner/work/diffblue</text>
<text text-anchor="start" x="1321" y="-118.5" font-family="Helvetica,sans-Serif" font-size="10.00">&#45;cbmc/diffblue&#45;cbmc/jbmc</text>
<text text-anchor="start" x="1321" y="-107.5" font-family="Helvetica,sans-Serif" font-size="10.00">/src/janalyzer/janalyzer</text>
<text text-anchor="middle" x="1387.5" y="-96.5" font-family="Helvetica,sans-Serif" font-size="10.00">_parse_options.cpp</text>
</a>
</g>
</g>
<!-- Node1&#45;&gt;Node11 -->
<g id="edge10" class="edge">
<title>Node1&#45;&gt;Node11</title>
<path fill="none" stroke="midnightblue" d="M820.24,-194.72C935.28,-189.37 1135.84,-175.72 1304.5,-142 1307.16,-141.47 1309.86,-140.88 1312.57,-140.26"/>
<polygon fill="midnightblue" stroke="midnightblue" points="819.9,-191.23 810.06,-195.18 820.21,-198.22 819.9,-191.23"/>
</g>
<!-- Node7 -->
<g id="node7" class="node">
<title>Node7</title>
<g id="a_node7"><a xlink:href="full__slicer_8cpp.html" target="_top" xlink:title="Slicing.">
<polygon fill="none" stroke="black" points="637.5,-6 637.5,-47 805.5,-47 805.5,-6 637.5,-6"/>
<text text-anchor="start" x="645.5" y="-35" font-family="Helvetica,sans-Serif" font-size="10.00">/home/runner/work/diffblue</text>
<text text-anchor="start" x="645.5" y="-24" font-family="Helvetica,sans-Serif" font-size="10.00">&#45;cbmc/diffblue&#45;cbmc/src</text>
<text text-anchor="middle" x="721.5" y="-13" font-family="Helvetica,sans-Serif" font-size="10.00">/goto&#45;instrument/full_slicer.cpp</text>
</a>
</g>
</g>
<!-- Node6&#45;&gt;Node7 -->
<g id="edge6" class="edge">
<title>Node6&#45;&gt;Node7</title>
<path fill="none" stroke="midnightblue" d="M778.7,-82.18C766.36,-70.39 752.8,-57.43 741.98,-47.08"/>
<polygon fill="midnightblue" stroke="midnightblue" points="776.53,-84.96 786.18,-89.34 781.37,-79.9 776.53,-84.96"/>
</g>
<!-- Node8 -->
<g id="node8" class="node">
<title>Node8</title>
<g id="a_node8"><a xlink:href="reachability__slicer_8cpp.html" target="_top" xlink:title="Reachability Slicer Consider the control flow graph of the goto program and a criterion,...">
<polygon fill="none" stroke="black" points="823,-0.5 823,-52.5 982,-52.5 982,-0.5 823,-0.5"/>
<text text-anchor="start" x="831" y="-40.5" font-family="Helvetica,sans-Serif" font-size="10.00">/home/runner/work/diffblue</text>
<text text-anchor="start" x="831" y="-29.5" font-family="Helvetica,sans-Serif" font-size="10.00">&#45;cbmc/diffblue&#45;cbmc/src</text>
<text text-anchor="start" x="831" y="-18.5" font-family="Helvetica,sans-Serif" font-size="10.00">/goto&#45;instrument/reachability</text>
<text text-anchor="middle" x="902.5" y="-7.5" font-family="Helvetica,sans-Serif" font-size="10.00">_slicer.cpp</text>
</a>
</g>
</g>
<!-- Node6&#45;&gt;Node8 -->
<g id="edge7" class="edge">
<title>Node6&#45;&gt;Node8</title>
<path fill="none" stroke="midnightblue" d="M845.75,-82.36C855.9,-72.54 866.92,-61.89 876.53,-52.61"/>
<polygon fill="midnightblue" stroke="midnightblue" points="843.29,-79.87 838.53,-89.34 848.15,-84.9 843.29,-79.87"/>
</g>
</g>
</svg>
