<?xml version="1.0" encoding="UTF-8" standalone="no"?>
<!DOCTYPE svg PUBLIC "-//W3C//DTD SVG 1.1//EN"
 "http://www.w3.org/Graphics/SVG/1.1/DTD/svg11.dtd">
<!-- Generated by graphviz version 2.43.0 (0)
 -->
<!-- Title: /home/runner/work/diffblue&#45;cbmc/diffblue&#45;cbmc/src/ansi&#45;c/goto&#45;conversion/destructor.h Pages: 1 -->
<svg width="1454pt" height="150pt"
 viewBox="0.00 0.00 1453.50 150.00" xmlns="http://www.w3.org/2000/svg" xmlns:xlink="http://www.w3.org/1999/xlink">
<g id="graph0" class="graph" transform="scale(1 1) rotate(0) translate(4 146)">
<title>/home/runner/work/diffblue&#45;cbmc/diffblue&#45;cbmc/src/ansi&#45;c/goto&#45;conversion/destructor.h</title>
<!-- Node1 -->
<g id="node1" class="node">
<title>Node1</title>
<g id="a_node1"><a xlink:title="Destructor Calls.">
<polygon fill="#bfbfbf" stroke="black" points="644.5,-100.5 644.5,-141.5 835.5,-141.5 835.5,-100.5 644.5,-100.5"/>
<text text-anchor="start" x="652.5" y="-129.5" font-family="Helvetica,sans-Serif" font-size="10.00">/home/runner/work/diffblue</text>
<text text-anchor="start" x="652.5" y="-118.5" font-family="Helvetica,sans-Serif" font-size="10.00">&#45;cbmc/diffblue&#45;cbmc/src</text>
<text text-anchor="middle" x="740" y="-107.5" font-family="Helvetica,sans-Serif" font-size="10.00">/ansi&#45;c/goto&#45;conversion/destructor.h</text>
</a>
</g>
</g>
<!-- Node2 -->
<g id="node2" class="node">
<title>Node2</title>
<g id="a_node2"><a xlink:href="builtin__functions_8cpp.html" target="_top" xlink:title="Program Transformation.">
<polygon fill="none" stroke="black" points="0,-6 0,-58 164,-58 164,-6 0,-6"/>
<text text-anchor="start" x="8" y="-46" font-family="Helvetica,sans-Serif" font-size="10.00">/home/runner/work/diffblue</text>
<text text-anchor="start" x="8" y="-35" font-family="Helvetica,sans-Serif" font-size="10.00">&#45;cbmc/diffblue&#45;cbmc/src</text>
<text text-anchor="start" x="8" y="-24" font-family="Helvetica,sans-Serif" font-size="10.00">/ansi&#45;c/goto&#45;conversion/builtin</text>
<text text-anchor="middle" x="82" y="-13" font-family="Helvetica,sans-Serif" font-size="10.00">_functions.cpp</text>
</a>
</g>
</g>
<!-- Node1&#45;&gt;Node2 -->
<g id="edge1" class="edge">
<title>Node1&#45;&gt;Node2</title>
<path fill="none" stroke="midnightblue" d="M634.22,-116.8C519.48,-111.66 331.47,-98.34 173,-64 165.5,-62.37 157.75,-60.33 150.09,-58.07"/>
<polygon fill="midnightblue" stroke="midnightblue" points="634.27,-120.31 644.41,-117.25 634.57,-113.32 634.27,-120.31"/>
</g>
<!-- Node3 -->
<g id="node3" class="node">
<title>Node3</title>
<g id="a_node3"><a xlink:href="destructor_8cpp.html" target="_top" xlink:title="Destructor Calls.">
<polygon fill="none" stroke="black" points="182.5,-11.5 182.5,-52.5 385.5,-52.5 385.5,-11.5 182.5,-11.5"/>
<text text-anchor="start" x="190.5" y="-40.5" font-family="Helvetica,sans-Serif" font-size="10.00">/home/runner/work/diffblue</text>
<text text-anchor="start" x="190.5" y="-29.5" font-family="Helvetica,sans-Serif" font-size="10.00">&#45;cbmc/diffblue&#45;cbmc/src</text>
<text text-anchor="middle" x="284" y="-18.5" font-family="Helvetica,sans-Serif" font-size="10.00">/ansi&#45;c/goto&#45;conversion/destructor.cpp</text>
</a>
</g>
</g>
<!-- Node1&#45;&gt;Node3 -->
<g id="edge2" class="edge">
<title>Node1&#45;&gt;Node3</title>
<path fill="none" stroke="midnightblue" d="M634.37,-106.1C565.54,-96.26 473.99,-81.68 394,-64 379.18,-60.72 363.39,-56.64 348.54,-52.52"/>
<polygon fill="midnightblue" stroke="midnightblue" points="633.96,-109.58 644.35,-107.52 634.94,-102.64 633.96,-109.58"/>
</g>
<!-- Node4 -->
<g id="node4" class="node">
<title>Node4</title>
<g id="a_node4"><a xlink:href="goto__clean__expr_8cpp.html" target="_top" xlink:title="Program Transformation.">
<polygon fill="none" stroke="black" points="403.5,-6 403.5,-58 558.5,-58 558.5,-6 403.5,-6"/>
<text text-anchor="start" x="411.5" y="-46" font-family="Helvetica,sans-Serif" font-size="10.00">/home/runner/work/diffblue</text>
<text text-anchor="start" x="411.5" y="-35" font-family="Helvetica,sans-Serif" font-size="10.00">&#45;cbmc/diffblue&#45;cbmc/src</text>
<text text-anchor="start" x="411.5" y="-24" font-family="Helvetica,sans-Serif" font-size="10.00">/ansi&#45;c/goto&#45;conversion/goto</text>
<text text-anchor="middle" x="481" y="-13" font-family="Helvetica,sans-Serif" font-size="10.00">_clean_expr.cpp</text>
</a>
</g>
</g>
<!-- Node1&#45;&gt;Node4 -->
<g id="edge3" class="edge">
<title>Node1&#45;&gt;Node4</title>
<path fill="none" stroke="midnightblue" d="M667.89,-97.24C636.78,-87.27 600.02,-75.29 567,-64 561.44,-62.1 555.7,-60.1 549.93,-58.07"/>
<polygon fill="midnightblue" stroke="midnightblue" points="667.19,-100.69 677.78,-100.41 669.32,-94.03 667.19,-100.69"/>
</g>
<!-- Node5 -->
<g id="node5" class="node">
<title>Node5</title>
<g id="a_node5"><a xlink:href="goto__convert_8cpp.html" target="_top" xlink:title="Program Transformation.">
<polygon fill="none" stroke="black" points="576.5,-6 576.5,-58 731.5,-58 731.5,-6 576.5,-6"/>
<text text-anchor="start" x="584.5" y="-46" font-family="Helvetica,sans-Serif" font-size="10.00">/home/runner/work/diffblue</text>
<text text-anchor="start" x="584.5" y="-35" font-family="Helvetica,sans-Serif" font-size="10.00">&#45;cbmc/diffblue&#45;cbmc/src</text>
<text text-anchor="start" x="584.5" y="-24" font-family="Helvetica,sans-Serif" font-size="10.00">/ansi&#45;c/goto&#45;conversion/goto</text>
<text text-anchor="middle" x="654" y="-13" font-family="Helvetica,sans-Serif" font-size="10.00">_convert.cpp</text>
</a>
</g>
</g>
<!-- Node1&#45;&gt;Node5 -->
<g id="edge4" class="edge">
<title>Node1&#45;&gt;Node5</title>
<path fill="none" stroke="midnightblue" d="M713.23,-92.91C702.3,-81.86 689.73,-69.15 679,-58.29"/>
<polygon fill="midnightblue" stroke="midnightblue" points="710.97,-95.61 720.49,-100.26 715.94,-90.69 710.97,-95.61"/>
</g>
<!-- Node6 -->
<g id="node6" class="node">
<title>Node6</title>
<g id="a_node6"><a xlink:href="goto__convert__function__call_8cpp.html" target="_top" xlink:title="Program Transformation.">
<polygon fill="none" stroke="black" points="749.5,-6 749.5,-58 904.5,-58 904.5,-6 749.5,-6"/>
<text text-anchor="start" x="757.5" y="-46" font-family="Helvetica,sans-Serif" font-size="10.00">/home/runner/work/diffblue</text>
<text text-anchor="start" x="757.5" y="-35" font-family="Helvetica,sans-Serif" font-size="10.00">&#45;cbmc/diffblue&#45;cbmc/src</text>
<text text-anchor="start" x="757.5" y="-24" font-family="Helvetica,sans-Serif" font-size="10.00">/ansi&#45;c/goto&#45;conversion/goto</text>
<text text-anchor="middle" x="827" y="-13" font-family="Helvetica,sans-Serif" font-size="10.00">_convert_function_call.cpp</text>
</a>
</g>
</g>
<!-- Node1&#45;&gt;Node6 -->
<g id="edge5" class="edge">
<title>Node1&#45;&gt;Node6</title>
<path fill="none" stroke="midnightblue" d="M767.09,-92.91C778.14,-81.86 790.85,-69.15 801.71,-58.29"/>
<polygon fill="midnightblue" stroke="midnightblue" points="764.34,-90.71 759.74,-100.26 769.29,-95.66 764.34,-90.71"/>
</g>
<!-- Node7 -->
<g id="node7" class="node">
<title>Node7</title>
<g id="a_node7"><a xlink:href="goto__convert__side__effect_8cpp.html" target="_top" xlink:title="Program Transformation.">
<polygon fill="none" stroke="black" points="922.5,-6 922.5,-58 1077.5,-58 1077.5,-6 922.5,-6"/>
<text text-anchor="start" x="930.5" y="-46" font-family="Helvetica,sans-Serif" font-size="10.00">/home/runner/work/diffblue</text>
<text text-anchor="start" x="930.5" y="-35" font-family="Helvetica,sans-Serif" font-size="10.00">&#45;cbmc/diffblue&#45;cbmc/src</text>
<text text-anchor="start" x="930.5" y="-24" font-family="Helvetica,sans-Serif" font-size="10.00">/ansi&#45;c/goto&#45;conversion/goto</text>
<text text-anchor="middle" x="1000" y="-13" font-family="Helvetica,sans-Serif" font-size="10.00">_convert_side_effect.cpp</text>
</a>
</g>
</g>
<!-- Node1&#45;&gt;Node7 -->
<g id="edge6" class="edge">
<title>Node1&#45;&gt;Node7</title>
<path fill="none" stroke="midnightblue" d="M812.13,-97.4C843.51,-87.41 880.66,-75.37 914,-64 919.56,-62.1 925.31,-60.11 931.07,-58.08"/>
<polygon fill="midnightblue" stroke="midnightblue" points="811.06,-94.07 802.59,-100.43 813.18,-100.74 811.06,-94.07"/>
</g>
<!-- Node8 -->
<g id="node8" class="node">
<title>Node8</title>
<g id="a_node8"><a xlink:href="dfcc__contract__clauses__codegen_8cpp.html" target="_top" xlink:title=" ">
<polygon fill="none" stroke="black" points="1096,-0.5 1096,-63.5 1264,-63.5 1264,-0.5 1096,-0.5"/>
<text text-anchor="start" x="1104" y="-51.5" font-family="Helvetica,sans-Serif" font-size="10.00">/home/runner/work/diffblue</text>
<text text-anchor="start" x="1104" y="-40.5" font-family="Helvetica,sans-Serif" font-size="10.00">&#45;cbmc/diffblue&#45;cbmc/src</text>
<text text-anchor="start" x="1104" y="-29.5" font-family="Helvetica,sans-Serif" font-size="10.00">/goto&#45;instrument/contracts</text>
<text text-anchor="start" x="1104" y="-18.5" font-family="Helvetica,sans-Serif" font-size="10.00">/dynamic&#45;frames/dfcc_contract</text>
<text text-anchor="middle" x="1180" y="-7.5" font-family="Helvetica,sans-Serif" font-size="10.00">_clauses_codegen.cpp</text>
</a>
</g>
</g>
<!-- Node1&#45;&gt;Node8 -->
<g id="edge7" class="edge">
<title>Node1&#45;&gt;Node8</title>
<path fill="none" stroke="midnightblue" d="M845.87,-107.44C915.06,-98.12 1007.08,-83.63 1087,-64 1089.89,-63.29 1092.82,-62.53 1095.78,-61.74"/>
<polygon fill="midnightblue" stroke="midnightblue" points="845.28,-103.99 835.83,-108.78 846.2,-110.92 845.28,-103.99"/>
</g>
<!-- Node9 -->
<g id="node9" class="node">
<title>Node9</title>
<g id="a_node9"><a xlink:href="instrument__spec__assigns_8cpp.html" target="_top" xlink:title="Specify write set in code contracts.">
<polygon fill="none" stroke="black" points="1282.5,-6 1282.5,-58 1445.5,-58 1445.5,-6 1282.5,-6"/>
<text text-anchor="start" x="1290.5" y="-46" font-family="Helvetica,sans-Serif" font-size="10.00">/home/runner/work/diffblue</text>
<text text-anchor="start" x="1290.5" y="-35" font-family="Helvetica,sans-Serif" font-size="10.00">&#45;cbmc/diffblue&#45;cbmc/src</text>
<text text-anchor="start" x="1290.5" y="-24" font-family="Helvetica,sans-Serif" font-size="10.00">/goto&#45;instrument/contracts</text>
<text text-anchor="middle" x="1364" y="-13" font-family="Helvetica,sans-Serif" font-size="10.00">/instrument_spec_assigns.cpp</text>
</a>
</g>
</g>
<!-- Node1&#45;&gt;Node9 -->
<g id="edge8" class="edge">
<title>Node1&#45;&gt;Node9</title>
<path fill="none" stroke="midnightblue" d="M846.15,-115.84C954.53,-109.96 1127.09,-96.09 1273,-64 1280.5,-62.35 1288.24,-60.29 1295.9,-58.03"/>
<polygon fill="midnightblue" stroke="midnightblue" points="845.67,-112.36 835.86,-116.38 846.04,-119.35 845.67,-112.36"/>
</g>
</g>
</svg>
