<?xml version="1.0" encoding="UTF-8" standalone="no"?>
<!DOCTYPE svg PUBLIC "-//W3C//DTD SVG 1.1//EN"
 "http://www.w3.org/Graphics/SVG/1.1/DTD/svg11.dtd">
<!-- Generated by graphviz version 2.43.0 (0)
 -->
<!-- Title: /home/runner/work/diffblue&#45;cbmc/diffblue&#45;cbmc/src/goto&#45;instrument/contracts/dynamic&#45;frames/dfcc_instrument_loop.h Pages: 1 -->
<svg width="1446pt" height="528pt"
 viewBox="0.00 0.00 1446.00 528.00" xmlns="http://www.w3.org/2000/svg" xmlns:xlink="http://www.w3.org/1999/xlink">
<g id="graph0" class="graph" transform="scale(1 1) rotate(0) translate(4 524)">
<title>/home/runner/work/diffblue&#45;cbmc/diffblue&#45;cbmc/src/goto&#45;instrument/contracts/dynamic&#45;frames/dfcc_instrument_loop.h</title>
<!-- Node1 -->
<g id="node1" class="node">
<title>Node1</title>
<g id="a_node1"><a xlink:title="This class applies the loop contract transformation to a loop in a goto function.">
<polygon fill="#bfbfbf" stroke="black" points="517.5,-467.5 517.5,-519.5 734.5,-519.5 734.5,-467.5 517.5,-467.5"/>
<text text-anchor="start" x="525.5" y="-507.5" font-family="Helvetica,sans-Serif" font-size="10.00">/home/runner/work/diffblue</text>
<text text-anchor="start" x="525.5" y="-496.5" font-family="Helvetica,sans-Serif" font-size="10.00">&#45;cbmc/diffblue&#45;cbmc/src</text>
<text text-anchor="start" x="525.5" y="-485.5" font-family="Helvetica,sans-Serif" font-size="10.00">/goto&#45;instrument/contracts</text>
<text text-anchor="middle" x="626" y="-474.5" font-family="Helvetica,sans-Serif" font-size="10.00">/dynamic&#45;frames/dfcc_instrument_loop.h</text>
</a>
</g>
</g>
<!-- Node2 -->
<g id="node2" class="node">
<title>Node2</title>
<g id="a_node2"><a xlink:href="dfcc__instrument_8cpp.html" target="_top" xlink:title=" ">
<polygon fill="none" stroke="black" points="0,-284 0,-336 202,-336 202,-284 0,-284"/>
<text text-anchor="start" x="8" y="-324" font-family="Helvetica,sans-Serif" font-size="10.00">/home/runner/work/diffblue</text>
<text text-anchor="start" x="8" y="-313" font-family="Helvetica,sans-Serif" font-size="10.00">&#45;cbmc/diffblue&#45;cbmc/src</text>
<text text-anchor="start" x="8" y="-302" font-family="Helvetica,sans-Serif" font-size="10.00">/goto&#45;instrument/contracts</text>
<text text-anchor="middle" x="101" y="-291" font-family="Helvetica,sans-Serif" font-size="10.00">/dynamic&#45;frames/dfcc_instrument.cpp</text>
</a>
</g>
</g>
<!-- Node1&#45;&gt;Node2 -->
<g id="edge1" class="edge">
<title>Node1&#45;&gt;Node2</title>
<path fill="none" stroke="midnightblue" d="M543.94,-464.13C442.26,-428.98 270.61,-369.64 173.55,-336.08"/>
<polygon fill="midnightblue" stroke="midnightblue" points="542.96,-467.49 553.55,-467.45 545.24,-460.88 542.96,-467.49"/>
</g>
<!-- Node3 -->
<g id="node3" class="node">
<title>Node3</title>
<g id="a_node3"><a xlink:href="dfcc__instrument_8h.html" target="_top" xlink:title="Add instrumentation to a goto program to perform frame condition checks.">
<polygon fill="none" stroke="black" points="530.5,-378.5 530.5,-430.5 721.5,-430.5 721.5,-378.5 530.5,-378.5"/>
<text text-anchor="start" x="538.5" y="-418.5" font-family="Helvetica,sans-Serif" font-size="10.00">/home/runner/work/diffblue</text>
<text text-anchor="start" x="538.5" y="-407.5" font-family="Helvetica,sans-Serif" font-size="10.00">&#45;cbmc/diffblue&#45;cbmc/src</text>
<text text-anchor="start" x="538.5" y="-396.5" font-family="Helvetica,sans-Serif" font-size="10.00">/goto&#45;instrument/contracts</text>
<text text-anchor="middle" x="626" y="-385.5" font-family="Helvetica,sans-Serif" font-size="10.00">/dynamic&#45;frames/dfcc_instrument.h</text>
</a>
</g>
</g>
<!-- Node1&#45;&gt;Node3 -->
<g id="edge2" class="edge">
<title>Node1&#45;&gt;Node3</title>
<path fill="none" stroke="midnightblue" d="M626,-457.19C626,-448.28 626,-438.9 626,-430.61"/>
<polygon fill="midnightblue" stroke="midnightblue" points="622.5,-457.34 626,-467.34 629.5,-457.34 622.5,-457.34"/>
</g>
<!-- Node12 -->
<g id="node12" class="node">
<title>Node12</title>
<g id="a_node12"><a xlink:href="dfcc__instrument__loop_8cpp.html" target="_top" xlink:title=" ">
<polygon fill="none" stroke="black" points="1256,-278.5 1256,-341.5 1438,-341.5 1438,-278.5 1256,-278.5"/>
<text text-anchor="start" x="1264" y="-329.5" font-family="Helvetica,sans-Serif" font-size="10.00">/home/runner/work/diffblue</text>
<text text-anchor="start" x="1264" y="-318.5" font-family="Helvetica,sans-Serif" font-size="10.00">&#45;cbmc/diffblue&#45;cbmc/src</text>
<text text-anchor="start" x="1264" y="-307.5" font-family="Helvetica,sans-Serif" font-size="10.00">/goto&#45;instrument/contracts</text>
<text text-anchor="start" x="1264" y="-296.5" font-family="Helvetica,sans-Serif" font-size="10.00">/dynamic&#45;frames/dfcc_instrument</text>
<text text-anchor="middle" x="1347" y="-285.5" font-family="Helvetica,sans-Serif" font-size="10.00">_loop.cpp</text>
</a>
</g>
</g>
<!-- Node1&#45;&gt;Node12 -->
<g id="edge18" class="edge">
<title>Node1&#45;&gt;Node12</title>
<path fill="none" stroke="midnightblue" d="M744.52,-466.11C869.91,-437.65 1073.25,-389.93 1247,-342 1249.89,-341.2 1252.82,-340.38 1255.78,-339.54"/>
<polygon fill="midnightblue" stroke="midnightblue" points="743.49,-462.75 734.51,-468.38 745.03,-469.58 743.49,-462.75"/>
</g>
<!-- Node3&#45;&gt;Node2 -->
<g id="edge11" class="edge">
<title>Node3&#45;&gt;Node2</title>
<path fill="none" stroke="midnightblue" d="M520.22,-391.01C437.07,-380.39 318.57,-363.44 216,-342 207.5,-340.22 198.69,-338.19 189.91,-336.04"/>
<polygon fill="midnightblue" stroke="midnightblue" points="519.82,-394.49 530.18,-392.28 520.7,-387.55 519.82,-394.49"/>
</g>
<!-- Node4 -->
<g id="node4" class="node">
<title>Node4</title>
<g id="a_node4"><a xlink:href="dfcc_8h.html" target="_top" xlink:title="Main class orchestrating the the whole program transformation for function contracts with Dynamic Fra...">
<polygon fill="none" stroke="black" points="422.5,-184 422.5,-236 571.5,-236 571.5,-184 422.5,-184"/>
<text text-anchor="start" x="430.5" y="-224" font-family="Helvetica,sans-Serif" font-size="10.00">/home/runner/work/diffblue</text>
<text text-anchor="start" x="430.5" y="-213" font-family="Helvetica,sans-Serif" font-size="10.00">&#45;cbmc/diffblue&#45;cbmc/src</text>
<text text-anchor="start" x="430.5" y="-202" font-family="Helvetica,sans-Serif" font-size="10.00">/goto&#45;instrument/contracts</text>
<text text-anchor="middle" x="497" y="-191" font-family="Helvetica,sans-Serif" font-size="10.00">/dynamic&#45;frames/dfcc.h</text>
</a>
</g>
</g>
<!-- Node3&#45;&gt;Node4 -->
<g id="edge3" class="edge">
<title>Node3&#45;&gt;Node4</title>
<path fill="none" stroke="midnightblue" d="M520.27,-393.25C414.98,-381.95 266.53,-362.62 249,-342 230.58,-320.33 231.71,-300.58 249,-278 270.11,-250.42 357.33,-231.6 422.41,-221.09"/>
<polygon fill="midnightblue" stroke="midnightblue" points="520.01,-396.74 530.32,-394.32 520.75,-389.78 520.01,-396.74"/>
</g>
<!-- Node10 -->
<g id="node10" class="node">
<title>Node10</title>
<g id="a_node10"><a xlink:href="dfcc__contract__functions_8cpp.html" target="_top" xlink:title=" ">
<polygon fill="none" stroke="black" points="258,-278.5 258,-341.5 426,-341.5 426,-278.5 258,-278.5"/>
<text text-anchor="start" x="266" y="-329.5" font-family="Helvetica,sans-Serif" font-size="10.00">/home/runner/work/diffblue</text>
<text text-anchor="start" x="266" y="-318.5" font-family="Helvetica,sans-Serif" font-size="10.00">&#45;cbmc/diffblue&#45;cbmc/src</text>
<text text-anchor="start" x="266" y="-307.5" font-family="Helvetica,sans-Serif" font-size="10.00">/goto&#45;instrument/contracts</text>
<text text-anchor="start" x="266" y="-296.5" font-family="Helvetica,sans-Serif" font-size="10.00">/dynamic&#45;frames/dfcc_contract</text>
<text text-anchor="middle" x="342" y="-285.5" font-family="Helvetica,sans-Serif" font-size="10.00">_functions.cpp</text>
</a>
</g>
</g>
<!-- Node3&#45;&gt;Node10 -->
<g id="edge9" class="edge">
<title>Node3&#45;&gt;Node10</title>
<path fill="none" stroke="midnightblue" d="M537.55,-375.23C505.25,-364.85 468.45,-352.96 435,-342 432.09,-341.05 429.13,-340.07 426.14,-339.09"/>
<polygon fill="midnightblue" stroke="midnightblue" points="536.83,-378.67 547.42,-378.4 538.97,-372.01 536.83,-378.67"/>
</g>
<!-- Node11 -->
<g id="node11" class="node">
<title>Node11</title>
<g id="a_node11"><a xlink:href="dfcc__contract__handler_8cpp.html" target="_top" xlink:title=" ">
<polygon fill="none" stroke="black" points="444,-278.5 444,-341.5 612,-341.5 612,-278.5 444,-278.5"/>
<text text-anchor="start" x="452" y="-329.5" font-family="Helvetica,sans-Serif" font-size="10.00">/home/runner/work/diffblue</text>
<text text-anchor="start" x="452" y="-318.5" font-family="Helvetica,sans-Serif" font-size="10.00">&#45;cbmc/diffblue&#45;cbmc/src</text>
<text text-anchor="start" x="452" y="-307.5" font-family="Helvetica,sans-Serif" font-size="10.00">/goto&#45;instrument/contracts</text>
<text text-anchor="start" x="452" y="-296.5" font-family="Helvetica,sans-Serif" font-size="10.00">/dynamic&#45;frames/dfcc_contract</text>
<text text-anchor="middle" x="528" y="-285.5" font-family="Helvetica,sans-Serif" font-size="10.00">_handler.cpp</text>
</a>
</g>
</g>
<!-- Node3&#45;&gt;Node11 -->
<g id="edge10" class="edge">
<title>Node3&#45;&gt;Node11</title>
<path fill="none" stroke="midnightblue" d="M592.2,-371.6C581.93,-361.91 570.67,-351.28 560.49,-341.66"/>
<polygon fill="midnightblue" stroke="midnightblue" points="589.81,-374.15 599.48,-378.47 594.61,-369.06 589.81,-374.15"/>
</g>
<!-- Node3&#45;&gt;Node12 -->
<g id="edge12" class="edge">
<title>Node3&#45;&gt;Node12</title>
<path fill="none" stroke="midnightblue" d="M731.85,-399.52C856.23,-393.35 1068.32,-378.16 1247,-342 1249.94,-341.41 1252.92,-340.76 1255.91,-340.07"/>
<polygon fill="midnightblue" stroke="midnightblue" points="731.39,-396.04 721.57,-400.02 731.73,-403.03 731.39,-396.04"/>
</g>
<!-- Node13 -->
<g id="node13" class="node">
<title>Node13</title>
<g id="a_node13"><a xlink:href="dfcc__lift__memory__predicates_8cpp.html" target="_top" xlink:title=" ">
<polygon fill="none" stroke="black" points="630,-278.5 630,-341.5 818,-341.5 818,-278.5 630,-278.5"/>
<text text-anchor="start" x="638" y="-329.5" font-family="Helvetica,sans-Serif" font-size="10.00">/home/runner/work/diffblue</text>
<text text-anchor="start" x="638" y="-318.5" font-family="Helvetica,sans-Serif" font-size="10.00">&#45;cbmc/diffblue&#45;cbmc/src</text>
<text text-anchor="start" x="638" y="-307.5" font-family="Helvetica,sans-Serif" font-size="10.00">/goto&#45;instrument/contracts</text>
<text text-anchor="start" x="638" y="-296.5" font-family="Helvetica,sans-Serif" font-size="10.00">/dynamic&#45;frames/dfcc_lift_memory</text>
<text text-anchor="middle" x="724" y="-285.5" font-family="Helvetica,sans-Serif" font-size="10.00">_predicates.cpp</text>
</a>
</g>
</g>
<!-- Node3&#45;&gt;Node13 -->
<g id="edge13" class="edge">
<title>Node3&#45;&gt;Node13</title>
<path fill="none" stroke="midnightblue" d="M659.8,-371.6C670.07,-361.91 681.33,-351.28 691.51,-341.66"/>
<polygon fill="midnightblue" stroke="midnightblue" points="657.39,-369.06 652.52,-378.47 662.19,-374.15 657.39,-369.06"/>
</g>
<!-- Node14 -->
<g id="node14" class="node">
<title>Node14</title>
<g id="a_node14"><a xlink:href="dfcc__swap__and__wrap_8h.html" target="_top" xlink:title="Given a function_id and contract_id, swaps its body to a function with a fresh mangled name,...">
<polygon fill="none" stroke="black" points="836.5,-284 836.5,-336 1051.5,-336 1051.5,-284 836.5,-284"/>
<text text-anchor="start" x="844.5" y="-324" font-family="Helvetica,sans-Serif" font-size="10.00">/home/runner/work/diffblue</text>
<text text-anchor="start" x="844.5" y="-313" font-family="Helvetica,sans-Serif" font-size="10.00">&#45;cbmc/diffblue&#45;cbmc/src</text>
<text text-anchor="start" x="844.5" y="-302" font-family="Helvetica,sans-Serif" font-size="10.00">/goto&#45;instrument/contracts</text>
<text text-anchor="middle" x="944" y="-291" font-family="Helvetica,sans-Serif" font-size="10.00">/dynamic&#45;frames/dfcc_swap_and_wrap.h</text>
</a>
</g>
</g>
<!-- Node3&#45;&gt;Node14 -->
<g id="edge14" class="edge">
<title>Node3&#45;&gt;Node14</title>
<path fill="none" stroke="midnightblue" d="M721.74,-375.65C765.03,-363.06 815.8,-348.29 857.88,-336.05"/>
<polygon fill="midnightblue" stroke="midnightblue" points="720.68,-372.31 712.06,-378.47 722.63,-379.04 720.68,-372.31"/>
</g>
<!-- Node16 -->
<g id="node16" class="node">
<title>Node16</title>
<g id="a_node16"><a xlink:href="dfcc__wrapper__program_8cpp.html" target="_top" xlink:title=" ">
<polygon fill="none" stroke="black" points="1070,-278.5 1070,-341.5 1238,-341.5 1238,-278.5 1070,-278.5"/>
<text text-anchor="start" x="1078" y="-329.5" font-family="Helvetica,sans-Serif" font-size="10.00">/home/runner/work/diffblue</text>
<text text-anchor="start" x="1078" y="-318.5" font-family="Helvetica,sans-Serif" font-size="10.00">&#45;cbmc/diffblue&#45;cbmc/src</text>
<text text-anchor="start" x="1078" y="-307.5" font-family="Helvetica,sans-Serif" font-size="10.00">/goto&#45;instrument/contracts</text>
<text text-anchor="start" x="1078" y="-296.5" font-family="Helvetica,sans-Serif" font-size="10.00">/dynamic&#45;frames/dfcc_wrapper</text>
<text text-anchor="middle" x="1154" y="-285.5" font-family="Helvetica,sans-Serif" font-size="10.00">_program.cpp</text>
</a>
</g>
</g>
<!-- Node3&#45;&gt;Node16 -->
<g id="edge17" class="edge">
<title>Node3&#45;&gt;Node16</title>
<path fill="none" stroke="midnightblue" d="M731.77,-393.82C820.25,-384.47 949.4,-367.86 1060,-342 1063.26,-341.24 1066.57,-340.41 1069.91,-339.53"/>
<polygon fill="midnightblue" stroke="midnightblue" points="731.31,-390.35 721.72,-394.87 732.03,-397.32 731.31,-390.35"/>
</g>
<!-- Node5 -->
<g id="node5" class="node">
<title>Node5</title>
<g id="a_node5"><a xlink:href="dfcc_8cpp.html" target="_top" xlink:title=" ">
<polygon fill="none" stroke="black" points="330.5,-89.5 330.5,-141.5 479.5,-141.5 479.5,-89.5 330.5,-89.5"/>
<text text-anchor="start" x="338.5" y="-129.5" font-family="Helvetica,sans-Serif" font-size="10.00">/home/runner/work/diffblue</text>
<text text-anchor="start" x="338.5" y="-118.5" font-family="Helvetica,sans-Serif" font-size="10.00">&#45;cbmc/diffblue&#45;cbmc/src</text>
<text text-anchor="start" x="338.5" y="-107.5" font-family="Helvetica,sans-Serif" font-size="10.00">/goto&#45;instrument/contracts</text>
<text text-anchor="middle" x="405" y="-96.5" font-family="Helvetica,sans-Serif" font-size="10.00">/dynamic&#45;frames/dfcc.cpp</text>
</a>
</g>
</g>
<!-- Node4&#45;&gt;Node5 -->
<g id="edge4" class="edge">
<title>Node4&#45;&gt;Node5</title>
<path fill="none" stroke="midnightblue" d="M464.62,-176.45C453.29,-165.06 440.75,-152.45 430.11,-141.75"/>
<polygon fill="midnightblue" stroke="midnightblue" points="462.33,-179.1 471.86,-183.72 467.29,-174.17 462.33,-179.1"/>
</g>
<!-- Node6 -->
<g id="node6" class="node">
<title>Node6</title>
<g id="a_node6"><a xlink:href="goto__instrument__parse__options_8h.html" target="_top" xlink:title="Command Line Parsing.">
<polygon fill="none" stroke="black" points="498,-89.5 498,-141.5 680,-141.5 680,-89.5 498,-89.5"/>
<text text-anchor="start" x="506" y="-129.5" font-family="Helvetica,sans-Serif" font-size="10.00">/home/runner/work/diffblue</text>
<text text-anchor="start" x="506" y="-118.5" font-family="Helvetica,sans-Serif" font-size="10.00">&#45;cbmc/diffblue&#45;cbmc/src</text>
<text text-anchor="start" x="506" y="-107.5" font-family="Helvetica,sans-Serif" font-size="10.00">/goto&#45;instrument/goto_instrument</text>
<text text-anchor="middle" x="589" y="-96.5" font-family="Helvetica,sans-Serif" font-size="10.00">_parse_options.h</text>
</a>
</g>
</g>
<!-- Node4&#45;&gt;Node6 -->
<g id="edge5" class="edge">
<title>Node4&#45;&gt;Node6</title>
<path fill="none" stroke="midnightblue" d="M529.38,-176.45C540.71,-165.06 553.25,-152.45 563.89,-141.75"/>
<polygon fill="midnightblue" stroke="midnightblue" points="526.71,-174.17 522.14,-183.72 531.67,-179.1 526.71,-174.17"/>
</g>
<!-- Node7 -->
<g id="node7" class="node">
<title>Node7</title>
<g id="a_node7"><a xlink:href="goto__instrument__languages_8cpp.html" target="_top" xlink:title="Language Registration.">
<polygon fill="none" stroke="black" points="298,-0.5 298,-52.5 480,-52.5 480,-0.5 298,-0.5"/>
<text text-anchor="start" x="306" y="-40.5" font-family="Helvetica,sans-Serif" font-size="10.00">/home/runner/work/diffblue</text>
<text text-anchor="start" x="306" y="-29.5" font-family="Helvetica,sans-Serif" font-size="10.00">&#45;cbmc/diffblue&#45;cbmc/src</text>
<text text-anchor="start" x="306" y="-18.5" font-family="Helvetica,sans-Serif" font-size="10.00">/goto&#45;instrument/goto_instrument</text>
<text text-anchor="middle" x="389" y="-7.5" font-family="Helvetica,sans-Serif" font-size="10.00">_languages.cpp</text>
</a>
</g>
</g>
<!-- Node6&#45;&gt;Node7 -->
<g id="edge6" class="edge">
<title>Node6&#45;&gt;Node7</title>
<path fill="none" stroke="midnightblue" d="M522.19,-85.44C497.67,-74.77 470.15,-62.8 446.52,-52.52"/>
<polygon fill="midnightblue" stroke="midnightblue" points="520.85,-88.67 531.42,-89.45 523.65,-82.25 520.85,-88.67"/>
</g>
<!-- Node8 -->
<g id="node8" class="node">
<title>Node8</title>
<g id="a_node8"><a xlink:href="goto__instrument__main_8cpp.html" target="_top" xlink:title="Main Module.">
<polygon fill="none" stroke="black" points="498,-0.5 498,-52.5 680,-52.5 680,-0.5 498,-0.5"/>
<text text-anchor="start" x="506" y="-40.5" font-family="Helvetica,sans-Serif" font-size="10.00">/home/runner/work/diffblue</text>
<text text-anchor="start" x="506" y="-29.5" font-family="Helvetica,sans-Serif" font-size="10.00">&#45;cbmc/diffblue&#45;cbmc/src</text>
<text text-anchor="start" x="506" y="-18.5" font-family="Helvetica,sans-Serif" font-size="10.00">/goto&#45;instrument/goto_instrument</text>
<text text-anchor="middle" x="589" y="-7.5" font-family="Helvetica,sans-Serif" font-size="10.00">_main.cpp</text>
</a>
</g>
</g>
<!-- Node6&#45;&gt;Node8 -->
<g id="edge7" class="edge">
<title>Node6&#45;&gt;Node8</title>
<path fill="none" stroke="midnightblue" d="M589,-79.19C589,-70.28 589,-60.9 589,-52.61"/>
<polygon fill="midnightblue" stroke="midnightblue" points="585.5,-79.34 589,-89.34 592.5,-79.34 585.5,-79.34"/>
</g>
<!-- Node9 -->
<g id="node9" class="node">
<title>Node9</title>
<g id="a_node9"><a xlink:href="goto__instrument__parse__options_8cpp.html" target="_top" xlink:title="Main Module.">
<polygon fill="none" stroke="black" points="698,-0.5 698,-52.5 880,-52.5 880,-0.5 698,-0.5"/>
<text text-anchor="start" x="706" y="-40.5" font-family="Helvetica,sans-Serif" font-size="10.00">/home/runner/work/diffblue</text>
<text text-anchor="start" x="706" y="-29.5" font-family="Helvetica,sans-Serif" font-size="10.00">&#45;cbmc/diffblue&#45;cbmc/src</text>
<text text-anchor="start" x="706" y="-18.5" font-family="Helvetica,sans-Serif" font-size="10.00">/goto&#45;instrument/goto_instrument</text>
<text text-anchor="middle" x="789" y="-7.5" font-family="Helvetica,sans-Serif" font-size="10.00">_parse_options.cpp</text>
</a>
</g>
</g>
<!-- Node6&#45;&gt;Node9 -->
<g id="edge8" class="edge">
<title>Node6&#45;&gt;Node9</title>
<path fill="none" stroke="midnightblue" d="M655.81,-85.44C680.33,-74.77 707.85,-62.8 731.48,-52.52"/>
<polygon fill="midnightblue" stroke="midnightblue" points="654.35,-82.25 646.58,-89.45 657.15,-88.67 654.35,-82.25"/>
</g>
<!-- Node14&#45;&gt;Node4 -->
<g id="edge15" class="edge">
<title>Node14&#45;&gt;Node4</title>
<path fill="none" stroke="midnightblue" d="M841.46,-281.46C836.58,-280.27 831.74,-279.11 827,-278 739.76,-257.61 638.71,-237.62 571.65,-224.86"/>
<polygon fill="midnightblue" stroke="midnightblue" points="840.97,-284.95 851.52,-283.96 842.66,-278.16 840.97,-284.95"/>
</g>
<!-- Node15 -->
<g id="node15" class="node">
<title>Node15</title>
<g id="a_node15"><a xlink:href="dfcc__swap__and__wrap_8cpp.html" target="_top" xlink:title=" ">
<polygon fill="none" stroke="black" points="855.5,-178.5 855.5,-241.5 1032.5,-241.5 1032.5,-178.5 855.5,-178.5"/>
<text text-anchor="start" x="863.5" y="-229.5" font-family="Helvetica,sans-Serif" font-size="10.00">/home/runner/work/diffblue</text>
<text text-anchor="start" x="863.5" y="-218.5" font-family="Helvetica,sans-Serif" font-size="10.00">&#45;cbmc/diffblue&#45;cbmc/src</text>
<text text-anchor="start" x="863.5" y="-207.5" font-family="Helvetica,sans-Serif" font-size="10.00">/goto&#45;instrument/contracts</text>
<text text-anchor="start" x="863.5" y="-196.5" font-family="Helvetica,sans-Serif" font-size="10.00">/dynamic&#45;frames/dfcc_swap_and</text>
<text text-anchor="middle" x="944" y="-185.5" font-family="Helvetica,sans-Serif" font-size="10.00">_wrap.cpp</text>
</a>
</g>
</g>
<!-- Node14&#45;&gt;Node15 -->
<g id="edge16" class="edge">
<title>Node14&#45;&gt;Node15</title>
<path fill="none" stroke="midnightblue" d="M944,-273.69C944,-263.24 944,-251.89 944,-241.75"/>
<polygon fill="midnightblue" stroke="midnightblue" points="940.5,-273.76 944,-283.76 947.5,-273.76 940.5,-273.76"/>
</g>
</g>
</svg>
