<?xml version="1.0" encoding="UTF-8" standalone="no"?>
<!DOCTYPE svg PUBLIC "-//W3C//DTD SVG 1.1//EN"
 "http://www.w3.org/Graphics/SVG/1.1/DTD/svg11.dtd">
<!-- Generated by graphviz version 2.43.0 (0)
 -->
<!-- Title: /home/runner/work/diffblue&#45;cbmc/diffblue&#45;cbmc/src/goto&#45;instrument/contracts/dynamic&#45;frames/dfcc_loop_nesting_graph.h Pages: 1 -->
<svg width="520pt" height="261pt"
 viewBox="0.00 0.00 519.50 261.00" xmlns="http://www.w3.org/2000/svg" xmlns:xlink="http://www.w3.org/1999/xlink">
<g id="graph0" class="graph" transform="scale(1 1) rotate(0) translate(4 257)">
<title>/home/runner/work/diffblue&#45;cbmc/diffblue&#45;cbmc/src/goto&#45;instrument/contracts/dynamic&#45;frames/dfcc_loop_nesting_graph.h</title>
<!-- Node1 -->
<g id="node1" class="node">
<title>Node1</title>
<g id="a_node1"><a xlink:title="Builds a graph describing how loops are nested in a GOTO program.">
<polygon fill="#bfbfbf" stroke="black" points="123.5,-200.5 123.5,-252.5 356.5,-252.5 356.5,-200.5 123.5,-200.5"/>
<text text-anchor="start" x="131.5" y="-240.5" font-family="Helvetica,sans-Serif" font-size="10.00">/home/runner/work/diffblue</text>
<text text-anchor="start" x="131.5" y="-229.5" font-family="Helvetica,sans-Serif" font-size="10.00">&#45;cbmc/diffblue&#45;cbmc/src</text>
<text text-anchor="start" x="131.5" y="-218.5" font-family="Helvetica,sans-Serif" font-size="10.00">/goto&#45;instrument/contracts</text>
<text text-anchor="middle" x="240" y="-207.5" font-family="Helvetica,sans-Serif" font-size="10.00">/dynamic&#45;frames/dfcc_loop_nesting_graph.h</text>
</a>
</g>
</g>
<!-- Node2 -->
<g id="node2" class="node">
<title>Node2</title>
<g id="a_node2"><a xlink:href="dfcc__cfg__info_8cpp.html" target="_top" xlink:title=" ">
<polygon fill="none" stroke="black" points="0,-6 0,-58 188,-58 188,-6 0,-6"/>
<text text-anchor="start" x="8" y="-46" font-family="Helvetica,sans-Serif" font-size="10.00">/home/runner/work/diffblue</text>
<text text-anchor="start" x="8" y="-35" font-family="Helvetica,sans-Serif" font-size="10.00">&#45;cbmc/diffblue&#45;cbmc/src</text>
<text text-anchor="start" x="8" y="-24" font-family="Helvetica,sans-Serif" font-size="10.00">/goto&#45;instrument/contracts</text>
<text text-anchor="middle" x="94" y="-13" font-family="Helvetica,sans-Serif" font-size="10.00">/dynamic&#45;frames/dfcc_cfg_info.cpp</text>
</a>
</g>
</g>
<!-- Node1&#45;&gt;Node2 -->
<g id="edge1" class="edge">
<title>Node1&#45;&gt;Node2</title>
<path fill="none" stroke="midnightblue" d="M138.65,-195.63C124.75,-187.46 112.14,-177.11 103,-164 81.23,-132.77 84.03,-86.54 88.61,-58.17"/>
<polygon fill="midnightblue" stroke="midnightblue" points="137,-198.72 147.45,-200.44 140.36,-192.58 137,-198.72"/>
</g>
<!-- Node3 -->
<g id="node3" class="node">
<title>Node3</title>
<g id="a_node3"><a xlink:href="dfcc__infer__loop__assigns_8cpp.html" target="_top" xlink:title=" ">
<polygon fill="none" stroke="black" points="211.5,-0.5 211.5,-63.5 362.5,-63.5 362.5,-0.5 211.5,-0.5"/>
<text text-anchor="start" x="219.5" y="-51.5" font-family="Helvetica,sans-Serif" font-size="10.00">/home/runner/work/diffblue</text>
<text text-anchor="start" x="219.5" y="-40.5" font-family="Helvetica,sans-Serif" font-size="10.00">&#45;cbmc/diffblue&#45;cbmc/src</text>
<text text-anchor="start" x="219.5" y="-29.5" font-family="Helvetica,sans-Serif" font-size="10.00">/goto&#45;instrument/contracts</text>
<text text-anchor="start" x="219.5" y="-18.5" font-family="Helvetica,sans-Serif" font-size="10.00">/dynamic&#45;frames/dfcc_infer</text>
<text text-anchor="middle" x="287" y="-7.5" font-family="Helvetica,sans-Serif" font-size="10.00">_loop_assigns.cpp</text>
</a>
</g>
</g>
<!-- Node1&#45;&gt;Node3 -->
<g id="edge2" class="edge">
<title>Node1&#45;&gt;Node3</title>
<path fill="none" stroke="midnightblue" d="M261.14,-191.69C265.75,-182.95 270.11,-173.37 273,-164 283.29,-130.67 286.29,-90.56 287.03,-63.58"/>
<polygon fill="midnightblue" stroke="midnightblue" points="258.08,-189.99 256.29,-200.44 264.2,-193.38 258.08,-189.99"/>
</g>
<!-- Node4 -->
<g id="node4" class="node">
<title>Node4</title>
<g id="a_node4"><a xlink:href="dfcc__infer__loop__assigns_8h.html" target="_top" xlink:title="Infer a set of assigns clause targets for a natural loop.">
<polygon fill="none" stroke="black" points="112.5,-100.5 112.5,-163.5 263.5,-163.5 263.5,-100.5 112.5,-100.5"/>
<text text-anchor="start" x="120.5" y="-151.5" font-family="Helvetica,sans-Serif" font-size="10.00">/home/runner/work/diffblue</text>
<text text-anchor="start" x="120.5" y="-140.5" font-family="Helvetica,sans-Serif" font-size="10.00">&#45;cbmc/diffblue&#45;cbmc/src</text>
<text text-anchor="start" x="120.5" y="-129.5" font-family="Helvetica,sans-Serif" font-size="10.00">/goto&#45;instrument/contracts</text>
<text text-anchor="start" x="120.5" y="-118.5" font-family="Helvetica,sans-Serif" font-size="10.00">/dynamic&#45;frames/dfcc_infer</text>
<text text-anchor="middle" x="188" y="-107.5" font-family="Helvetica,sans-Serif" font-size="10.00">_loop_assigns.h</text>
</a>
</g>
</g>
<!-- Node1&#45;&gt;Node4 -->
<g id="edge3" class="edge">
<title>Node1&#45;&gt;Node4</title>
<path fill="none" stroke="midnightblue" d="M220.82,-191.38C215.68,-182.25 210.17,-172.44 205.15,-163.51"/>
<polygon fill="midnightblue" stroke="midnightblue" points="217.84,-193.22 225.79,-200.22 223.94,-189.79 217.84,-193.22"/>
</g>
<!-- Node5 -->
<g id="node5" class="node">
<title>Node5</title>
<g id="a_node5"><a xlink:href="dfcc__loop__nesting__graph_8cpp.html" target="_top" xlink:title=" ">
<polygon fill="none" stroke="black" points="320.5,-100.5 320.5,-163.5 511.5,-163.5 511.5,-100.5 320.5,-100.5"/>
<text text-anchor="start" x="328.5" y="-151.5" font-family="Helvetica,sans-Serif" font-size="10.00">/home/runner/work/diffblue</text>
<text text-anchor="start" x="328.5" y="-140.5" font-family="Helvetica,sans-Serif" font-size="10.00">&#45;cbmc/diffblue&#45;cbmc/src</text>
<text text-anchor="start" x="328.5" y="-129.5" font-family="Helvetica,sans-Serif" font-size="10.00">/goto&#45;instrument/contracts</text>
<text text-anchor="start" x="328.5" y="-118.5" font-family="Helvetica,sans-Serif" font-size="10.00">/dynamic&#45;frames/dfcc_loop_nesting</text>
<text text-anchor="middle" x="416" y="-107.5" font-family="Helvetica,sans-Serif" font-size="10.00">_graph.cpp</text>
</a>
</g>
</g>
<!-- Node1&#45;&gt;Node5 -->
<g id="edge6" class="edge">
<title>Node1&#45;&gt;Node5</title>
<path fill="none" stroke="midnightblue" d="M296.69,-195.7C316.19,-185.46 338.04,-173.98 357.66,-163.66"/>
<polygon fill="midnightblue" stroke="midnightblue" points="294.85,-192.72 287.63,-200.47 298.11,-198.91 294.85,-192.72"/>
</g>
<!-- Node4&#45;&gt;Node2 -->
<g id="edge4" class="edge">
<title>Node4&#45;&gt;Node2</title>
<path fill="none" stroke="midnightblue" d="M151.32,-92.76C140.14,-81.1 128.14,-68.6 118.03,-58.05"/>
<polygon fill="midnightblue" stroke="midnightblue" points="149.07,-95.47 158.52,-100.26 154.12,-90.62 149.07,-95.47"/>
</g>
<!-- Node4&#45;&gt;Node3 -->
<g id="edge5" class="edge">
<title>Node4&#45;&gt;Node3</title>
<path fill="none" stroke="midnightblue" d="M226.41,-92.97C236.23,-83.25 246.67,-72.93 256.06,-63.63"/>
<polygon fill="midnightblue" stroke="midnightblue" points="223.7,-90.74 219.05,-100.26 228.62,-95.71 223.7,-90.74"/>
</g>
</g>
</svg>
