<?xml version="1.0" encoding="UTF-8" standalone="no"?>
<!DOCTYPE svg PUBLIC "-//W3C//DTD SVG 1.1//EN"
 "http://www.w3.org/Graphics/SVG/1.1/DTD/svg11.dtd">
<!-- Generated by graphviz version 2.43.0 (0)
 -->
<!-- Title: /home/runner/work/diffblue&#45;cbmc/diffblue&#45;cbmc/src/goto&#45;instrument/contracts/dynamic&#45;frames/dfcc_spec_functions.h Pages: 1 -->
<svg width="1278pt" height="439pt"
 viewBox="0.00 0.00 1277.55 439.00" xmlns="http://www.w3.org/2000/svg" xmlns:xlink="http://www.w3.org/1999/xlink">
<g id="graph0" class="graph" transform="scale(1 1) rotate(0) translate(4 435)">
<title>/home/runner/work/diffblue&#45;cbmc/diffblue&#45;cbmc/src/goto&#45;instrument/contracts/dynamic&#45;frames/dfcc_spec_functions.h</title>
<!-- Node1 -->
<g id="node1" class="node">
<title>Node1</title>
<g id="a_node1"><a xlink:title="Translate functions that specify assignable and freeable targets declaratively into active functions ...">
<polygon fill="#bfbfbf" stroke="black" points="391.05,-378.5 391.05,-430.5 601.05,-430.5 601.05,-378.5 391.05,-378.5"/>
<text text-anchor="start" x="399.05" y="-418.5" font-family="Helvetica,sans-Serif" font-size="10.00">/home/runner/work/diffblue</text>
<text text-anchor="start" x="399.05" y="-407.5" font-family="Helvetica,sans-Serif" font-size="10.00">&#45;cbmc/diffblue&#45;cbmc/src</text>
<text text-anchor="start" x="399.05" y="-396.5" font-family="Helvetica,sans-Serif" font-size="10.00">/goto&#45;instrument/contracts</text>
<text text-anchor="middle" x="496.05" y="-385.5" font-family="Helvetica,sans-Serif" font-size="10.00">/dynamic&#45;frames/dfcc_spec_functions.h</text>
</a>
</g>
</g>
<!-- Node2 -->
<g id="node2" class="node">
<title>Node2</title>
<g id="a_node2"><a xlink:href="dfcc_8h.html" target="_top" xlink:title="Main class orchestrating the the whole program transformation for function contracts with Dynamic Fra...">
<polygon fill="none" stroke="black" points="413.55,-184 413.55,-236 562.55,-236 562.55,-184 413.55,-184"/>
<text text-anchor="start" x="421.55" y="-224" font-family="Helvetica,sans-Serif" font-size="10.00">/home/runner/work/diffblue</text>
<text text-anchor="start" x="421.55" y="-213" font-family="Helvetica,sans-Serif" font-size="10.00">&#45;cbmc/diffblue&#45;cbmc/src</text>
<text text-anchor="start" x="421.55" y="-202" font-family="Helvetica,sans-Serif" font-size="10.00">/goto&#45;instrument/contracts</text>
<text text-anchor="middle" x="488.05" y="-191" font-family="Helvetica,sans-Serif" font-size="10.00">/dynamic&#45;frames/dfcc.h</text>
</a>
</g>
</g>
<!-- Node1&#45;&gt;Node2 -->
<g id="edge1" class="edge">
<title>Node1&#45;&gt;Node2</title>
<path fill="none" stroke="midnightblue" d="M380.89,-396.69C246.05,-387.51 37.95,-369.14 14.05,-342 -4.74,-320.65 -4.6,-299.47 14.05,-278 64.87,-219.49 293.22,-210.67 413.45,-210.2"/>
<polygon fill="midnightblue" stroke="midnightblue" points="380.66,-400.18 390.87,-397.36 381.13,-393.2 380.66,-400.18"/>
</g>
<!-- Node8 -->
<g id="node8" class="node">
<title>Node8</title>
<g id="a_node8"><a xlink:href="dfcc__contract__functions_8cpp.html" target="_top" xlink:title=" ">
<polygon fill="none" stroke="black" points="23.05,-278.5 23.05,-341.5 191.05,-341.5 191.05,-278.5 23.05,-278.5"/>
<text text-anchor="start" x="31.05" y="-329.5" font-family="Helvetica,sans-Serif" font-size="10.00">/home/runner/work/diffblue</text>
<text text-anchor="start" x="31.05" y="-318.5" font-family="Helvetica,sans-Serif" font-size="10.00">&#45;cbmc/diffblue&#45;cbmc/src</text>
<text text-anchor="start" x="31.05" y="-307.5" font-family="Helvetica,sans-Serif" font-size="10.00">/goto&#45;instrument/contracts</text>
<text text-anchor="start" x="31.05" y="-296.5" font-family="Helvetica,sans-Serif" font-size="10.00">/dynamic&#45;frames/dfcc_contract</text>
<text text-anchor="middle" x="107.05" y="-285.5" font-family="Helvetica,sans-Serif" font-size="10.00">_functions.cpp</text>
</a>
</g>
</g>
<!-- Node1&#45;&gt;Node8 -->
<g id="edge7" class="edge">
<title>Node1&#45;&gt;Node8</title>
<path fill="none" stroke="midnightblue" d="M380.75,-382.79C325.7,-372.08 259.09,-357.91 200.05,-342 197.09,-341.2 194.09,-340.36 191.07,-339.49"/>
<polygon fill="midnightblue" stroke="midnightblue" points="380.41,-386.29 390.89,-384.75 381.74,-379.42 380.41,-386.29"/>
</g>
<!-- Node9 -->
<g id="node9" class="node">
<title>Node9</title>
<g id="a_node9"><a xlink:href="dfcc__contract__handler_8cpp.html" target="_top" xlink:title=" ">
<polygon fill="none" stroke="black" points="209.05,-278.5 209.05,-341.5 377.05,-341.5 377.05,-278.5 209.05,-278.5"/>
<text text-anchor="start" x="217.05" y="-329.5" font-family="Helvetica,sans-Serif" font-size="10.00">/home/runner/work/diffblue</text>
<text text-anchor="start" x="217.05" y="-318.5" font-family="Helvetica,sans-Serif" font-size="10.00">&#45;cbmc/diffblue&#45;cbmc/src</text>
<text text-anchor="start" x="217.05" y="-307.5" font-family="Helvetica,sans-Serif" font-size="10.00">/goto&#45;instrument/contracts</text>
<text text-anchor="start" x="217.05" y="-296.5" font-family="Helvetica,sans-Serif" font-size="10.00">/dynamic&#45;frames/dfcc_contract</text>
<text text-anchor="middle" x="293.05" y="-285.5" font-family="Helvetica,sans-Serif" font-size="10.00">_handler.cpp</text>
</a>
</g>
</g>
<!-- Node1&#45;&gt;Node9 -->
<g id="edge8" class="edge">
<title>Node1&#45;&gt;Node9</title>
<path fill="none" stroke="midnightblue" d="M431.88,-374.26C409.09,-363.87 383.39,-352.16 360.34,-341.66"/>
<polygon fill="midnightblue" stroke="midnightblue" points="430.57,-377.51 441.12,-378.47 433.47,-371.14 430.57,-377.51"/>
</g>
<!-- Node10 -->
<g id="node10" class="node">
<title>Node10</title>
<g id="a_node10"><a xlink:href="dfcc__instrument_8cpp.html" target="_top" xlink:title=" ">
<polygon fill="none" stroke="black" points="395.05,-284 395.05,-336 597.05,-336 597.05,-284 395.05,-284"/>
<text text-anchor="start" x="403.05" y="-324" font-family="Helvetica,sans-Serif" font-size="10.00">/home/runner/work/diffblue</text>
<text text-anchor="start" x="403.05" y="-313" font-family="Helvetica,sans-Serif" font-size="10.00">&#45;cbmc/diffblue&#45;cbmc/src</text>
<text text-anchor="start" x="403.05" y="-302" font-family="Helvetica,sans-Serif" font-size="10.00">/goto&#45;instrument/contracts</text>
<text text-anchor="middle" x="496.05" y="-291" font-family="Helvetica,sans-Serif" font-size="10.00">/dynamic&#45;frames/dfcc_instrument.cpp</text>
</a>
</g>
</g>
<!-- Node1&#45;&gt;Node10 -->
<g id="edge9" class="edge">
<title>Node1&#45;&gt;Node10</title>
<path fill="none" stroke="midnightblue" d="M496.05,-367.99C496.05,-357.41 496.05,-346.03 496.05,-336.25"/>
<polygon fill="midnightblue" stroke="midnightblue" points="492.55,-368.22 496.05,-378.22 499.55,-368.22 492.55,-368.22"/>
</g>
<!-- Node11 -->
<g id="node11" class="node">
<title>Node11</title>
<g id="a_node11"><a xlink:href="dfcc__instrument__loop_8cpp.html" target="_top" xlink:title=" ">
<polygon fill="none" stroke="black" points="615.05,-278.5 615.05,-341.5 797.05,-341.5 797.05,-278.5 615.05,-278.5"/>
<text text-anchor="start" x="623.05" y="-329.5" font-family="Helvetica,sans-Serif" font-size="10.00">/home/runner/work/diffblue</text>
<text text-anchor="start" x="623.05" y="-318.5" font-family="Helvetica,sans-Serif" font-size="10.00">&#45;cbmc/diffblue&#45;cbmc/src</text>
<text text-anchor="start" x="623.05" y="-307.5" font-family="Helvetica,sans-Serif" font-size="10.00">/goto&#45;instrument/contracts</text>
<text text-anchor="start" x="623.05" y="-296.5" font-family="Helvetica,sans-Serif" font-size="10.00">/dynamic&#45;frames/dfcc_instrument</text>
<text text-anchor="middle" x="706.05" y="-285.5" font-family="Helvetica,sans-Serif" font-size="10.00">_loop.cpp</text>
</a>
</g>
</g>
<!-- Node1&#45;&gt;Node11 -->
<g id="edge10" class="edge">
<title>Node1&#45;&gt;Node11</title>
<path fill="none" stroke="midnightblue" d="M562.12,-374.4C585.78,-363.98 612.5,-352.21 636.44,-341.66"/>
<polygon fill="midnightblue" stroke="midnightblue" points="560.62,-371.23 552.88,-378.47 563.44,-377.64 560.62,-371.23"/>
</g>
<!-- Node12 -->
<g id="node12" class="node">
<title>Node12</title>
<g id="a_node12"><a xlink:href="dfcc__spec__functions_8cpp.html" target="_top" xlink:title=" ">
<polygon fill="none" stroke="black" points="815.55,-284 815.55,-336 1036.55,-336 1036.55,-284 815.55,-284"/>
<text text-anchor="start" x="823.55" y="-324" font-family="Helvetica,sans-Serif" font-size="10.00">/home/runner/work/diffblue</text>
<text text-anchor="start" x="823.55" y="-313" font-family="Helvetica,sans-Serif" font-size="10.00">&#45;cbmc/diffblue&#45;cbmc/src</text>
<text text-anchor="start" x="823.55" y="-302" font-family="Helvetica,sans-Serif" font-size="10.00">/goto&#45;instrument/contracts</text>
<text text-anchor="middle" x="926.05" y="-291" font-family="Helvetica,sans-Serif" font-size="10.00">/dynamic&#45;frames/dfcc_spec_functions.cpp</text>
</a>
</g>
</g>
<!-- Node1&#45;&gt;Node12 -->
<g id="edge11" class="edge">
<title>Node1&#45;&gt;Node12</title>
<path fill="none" stroke="midnightblue" d="M611.13,-382.29C669.67,-371.09 741.83,-356.65 806.05,-342 814.23,-340.13 822.71,-338.12 831.2,-336.04"/>
<polygon fill="midnightblue" stroke="midnightblue" points="610.28,-378.89 601.12,-384.2 611.6,-385.76 610.28,-378.89"/>
</g>
<!-- Node13 -->
<g id="node13" class="node">
<title>Node13</title>
<g id="a_node13"><a xlink:href="dfcc__swap__and__wrap_8h.html" target="_top" xlink:title="Given a function_id and contract_id, swaps its body to a function with a fresh mangled name,...">
<polygon fill="none" stroke="black" points="1054.55,-284 1054.55,-336 1269.55,-336 1269.55,-284 1054.55,-284"/>
<text text-anchor="start" x="1062.55" y="-324" font-family="Helvetica,sans-Serif" font-size="10.00">/home/runner/work/diffblue</text>
<text text-anchor="start" x="1062.55" y="-313" font-family="Helvetica,sans-Serif" font-size="10.00">&#45;cbmc/diffblue&#45;cbmc/src</text>
<text text-anchor="start" x="1062.55" y="-302" font-family="Helvetica,sans-Serif" font-size="10.00">/goto&#45;instrument/contracts</text>
<text text-anchor="middle" x="1162.05" y="-291" font-family="Helvetica,sans-Serif" font-size="10.00">/dynamic&#45;frames/dfcc_swap_and_wrap.h</text>
</a>
</g>
</g>
<!-- Node1&#45;&gt;Node13 -->
<g id="edge12" class="edge">
<title>Node1&#45;&gt;Node13</title>
<path fill="none" stroke="midnightblue" d="M611.48,-395.54C723.09,-386.68 896.62,-369.82 1045.05,-342 1054.14,-340.3 1063.56,-338.26 1072.93,-336.06"/>
<polygon fill="midnightblue" stroke="midnightblue" points="610.91,-392.08 601.21,-396.35 611.46,-399.06 610.91,-392.08"/>
</g>
<!-- Node3 -->
<g id="node3" class="node">
<title>Node3</title>
<g id="a_node3"><a xlink:href="dfcc_8cpp.html" target="_top" xlink:title=" ">
<polygon fill="none" stroke="black" points="321.55,-89.5 321.55,-141.5 470.55,-141.5 470.55,-89.5 321.55,-89.5"/>
<text text-anchor="start" x="329.55" y="-129.5" font-family="Helvetica,sans-Serif" font-size="10.00">/home/runner/work/diffblue</text>
<text text-anchor="start" x="329.55" y="-118.5" font-family="Helvetica,sans-Serif" font-size="10.00">&#45;cbmc/diffblue&#45;cbmc/src</text>
<text text-anchor="start" x="329.55" y="-107.5" font-family="Helvetica,sans-Serif" font-size="10.00">/goto&#45;instrument/contracts</text>
<text text-anchor="middle" x="396.05" y="-96.5" font-family="Helvetica,sans-Serif" font-size="10.00">/dynamic&#45;frames/dfcc.cpp</text>
</a>
</g>
</g>
<!-- Node2&#45;&gt;Node3 -->
<g id="edge2" class="edge">
<title>Node2&#45;&gt;Node3</title>
<path fill="none" stroke="midnightblue" d="M455.68,-176.45C444.35,-165.06 431.81,-152.45 421.16,-141.75"/>
<polygon fill="midnightblue" stroke="midnightblue" points="453.38,-179.1 462.91,-183.72 458.34,-174.17 453.38,-179.1"/>
</g>
<!-- Node4 -->
<g id="node4" class="node">
<title>Node4</title>
<g id="a_node4"><a xlink:href="goto__instrument__parse__options_8h.html" target="_top" xlink:title="Command Line Parsing.">
<polygon fill="none" stroke="black" points="489.05,-89.5 489.05,-141.5 671.05,-141.5 671.05,-89.5 489.05,-89.5"/>
<text text-anchor="start" x="497.05" y="-129.5" font-family="Helvetica,sans-Serif" font-size="10.00">/home/runner/work/diffblue</text>
<text text-anchor="start" x="497.05" y="-118.5" font-family="Helvetica,sans-Serif" font-size="10.00">&#45;cbmc/diffblue&#45;cbmc/src</text>
<text text-anchor="start" x="497.05" y="-107.5" font-family="Helvetica,sans-Serif" font-size="10.00">/goto&#45;instrument/goto_instrument</text>
<text text-anchor="middle" x="580.05" y="-96.5" font-family="Helvetica,sans-Serif" font-size="10.00">_parse_options.h</text>
</a>
</g>
</g>
<!-- Node2&#45;&gt;Node4 -->
<g id="edge3" class="edge">
<title>Node2&#45;&gt;Node4</title>
<path fill="none" stroke="midnightblue" d="M520.43,-176.45C531.76,-165.06 544.3,-152.45 554.94,-141.75"/>
<polygon fill="midnightblue" stroke="midnightblue" points="517.76,-174.17 513.19,-183.72 522.73,-179.1 517.76,-174.17"/>
</g>
<!-- Node5 -->
<g id="node5" class="node">
<title>Node5</title>
<g id="a_node5"><a xlink:href="goto__instrument__languages_8cpp.html" target="_top" xlink:title="Language Registration.">
<polygon fill="none" stroke="black" points="289.05,-0.5 289.05,-52.5 471.05,-52.5 471.05,-0.5 289.05,-0.5"/>
<text text-anchor="start" x="297.05" y="-40.5" font-family="Helvetica,sans-Serif" font-size="10.00">/home/runner/work/diffblue</text>
<text text-anchor="start" x="297.05" y="-29.5" font-family="Helvetica,sans-Serif" font-size="10.00">&#45;cbmc/diffblue&#45;cbmc/src</text>
<text text-anchor="start" x="297.05" y="-18.5" font-family="Helvetica,sans-Serif" font-size="10.00">/goto&#45;instrument/goto_instrument</text>
<text text-anchor="middle" x="380.05" y="-7.5" font-family="Helvetica,sans-Serif" font-size="10.00">_languages.cpp</text>
</a>
</g>
</g>
<!-- Node4&#45;&gt;Node5 -->
<g id="edge4" class="edge">
<title>Node4&#45;&gt;Node5</title>
<path fill="none" stroke="midnightblue" d="M513.24,-85.44C488.72,-74.77 461.2,-62.8 437.57,-52.52"/>
<polygon fill="midnightblue" stroke="midnightblue" points="511.91,-88.67 522.47,-89.45 514.7,-82.25 511.91,-88.67"/>
</g>
<!-- Node6 -->
<g id="node6" class="node">
<title>Node6</title>
<g id="a_node6"><a xlink:href="goto__instrument__main_8cpp.html" target="_top" xlink:title="Main Module.">
<polygon fill="none" stroke="black" points="489.05,-0.5 489.05,-52.5 671.05,-52.5 671.05,-0.5 489.05,-0.5"/>
<text text-anchor="start" x="497.05" y="-40.5" font-family="Helvetica,sans-Serif" font-size="10.00">/home/runner/work/diffblue</text>
<text text-anchor="start" x="497.05" y="-29.5" font-family="Helvetica,sans-Serif" font-size="10.00">&#45;cbmc/diffblue&#45;cbmc/src</text>
<text text-anchor="start" x="497.05" y="-18.5" font-family="Helvetica,sans-Serif" font-size="10.00">/goto&#45;instrument/goto_instrument</text>
<text text-anchor="middle" x="580.05" y="-7.5" font-family="Helvetica,sans-Serif" font-size="10.00">_main.cpp</text>
</a>
</g>
</g>
<!-- Node4&#45;&gt;Node6 -->
<g id="edge5" class="edge">
<title>Node4&#45;&gt;Node6</title>
<path fill="none" stroke="midnightblue" d="M580.05,-79.19C580.05,-70.28 580.05,-60.9 580.05,-52.61"/>
<polygon fill="midnightblue" stroke="midnightblue" points="576.55,-79.34 580.05,-89.34 583.55,-79.34 576.55,-79.34"/>
</g>
<!-- Node7 -->
<g id="node7" class="node">
<title>Node7</title>
<g id="a_node7"><a xlink:href="goto__instrument__parse__options_8cpp.html" target="_top" xlink:title="Main Module.">
<polygon fill="none" stroke="black" points="689.05,-0.5 689.05,-52.5 871.05,-52.5 871.05,-0.5 689.05,-0.5"/>
<text text-anchor="start" x="697.05" y="-40.5" font-family="Helvetica,sans-Serif" font-size="10.00">/home/runner/work/diffblue</text>
<text text-anchor="start" x="697.05" y="-29.5" font-family="Helvetica,sans-Serif" font-size="10.00">&#45;cbmc/diffblue&#45;cbmc/src</text>
<text text-anchor="start" x="697.05" y="-18.5" font-family="Helvetica,sans-Serif" font-size="10.00">/goto&#45;instrument/goto_instrument</text>
<text text-anchor="middle" x="780.05" y="-7.5" font-family="Helvetica,sans-Serif" font-size="10.00">_parse_options.cpp</text>
</a>
</g>
</g>
<!-- Node4&#45;&gt;Node7 -->
<g id="edge6" class="edge">
<title>Node4&#45;&gt;Node7</title>
<path fill="none" stroke="midnightblue" d="M646.87,-85.44C671.38,-74.77 698.9,-62.8 722.53,-52.52"/>
<polygon fill="midnightblue" stroke="midnightblue" points="645.41,-82.25 637.63,-89.45 648.2,-88.67 645.41,-82.25"/>
</g>
<!-- Node13&#45;&gt;Node2 -->
<g id="edge13" class="edge">
<title>Node13&#45;&gt;Node2</title>
<path fill="none" stroke="midnightblue" d="M1062.61,-281.65C1056.69,-280.33 1050.8,-279.1 1045.05,-278 874.07,-245.23 670.3,-225.56 562.89,-216.67"/>
<polygon fill="midnightblue" stroke="midnightblue" points="1062.07,-285.11 1072.6,-283.94 1063.63,-278.29 1062.07,-285.11"/>
</g>
<!-- Node14 -->
<g id="node14" class="node">
<title>Node14</title>
<g id="a_node14"><a xlink:href="dfcc__swap__and__wrap_8cpp.html" target="_top" xlink:title=" ">
<polygon fill="none" stroke="black" points="1073.55,-178.5 1073.55,-241.5 1250.55,-241.5 1250.55,-178.5 1073.55,-178.5"/>
<text text-anchor="start" x="1081.55" y="-229.5" font-family="Helvetica,sans-Serif" font-size="10.00">/home/runner/work/diffblue</text>
<text text-anchor="start" x="1081.55" y="-218.5" font-family="Helvetica,sans-Serif" font-size="10.00">&#45;cbmc/diffblue&#45;cbmc/src</text>
<text text-anchor="start" x="1081.55" y="-207.5" font-family="Helvetica,sans-Serif" font-size="10.00">/goto&#45;instrument/contracts</text>
<text text-anchor="start" x="1081.55" y="-196.5" font-family="Helvetica,sans-Serif" font-size="10.00">/dynamic&#45;frames/dfcc_swap_and</text>
<text text-anchor="middle" x="1162.05" y="-185.5" font-family="Helvetica,sans-Serif" font-size="10.00">_wrap.cpp</text>
</a>
</g>
</g>
<!-- Node13&#45;&gt;Node14 -->
<g id="edge14" class="edge">
<title>Node13&#45;&gt;Node14</title>
<path fill="none" stroke="midnightblue" d="M1162.05,-273.69C1162.05,-263.24 1162.05,-251.89 1162.05,-241.75"/>
<polygon fill="midnightblue" stroke="midnightblue" points="1158.55,-273.76 1162.05,-283.76 1165.55,-273.76 1158.55,-273.76"/>
</g>
</g>
</svg>
