<?xml version="1.0" encoding="UTF-8" standalone="no"?>
<!DOCTYPE svg PUBLIC "-//W3C//DTD SVG 1.1//EN"
 "http://www.w3.org/Graphics/SVG/1.1/DTD/svg11.dtd">
<!-- Generated by graphviz version 2.43.0 (0)
 -->
<!-- Title: /home/runner/work/diffblue&#45;cbmc/diffblue&#45;cbmc/src/goto&#45;instrument/contracts/dynamic&#45;frames/dfcc_contract_mode.cpp Pages: 1 -->
<svg width="322pt" height="184pt"
 viewBox="0.00 0.00 321.50 184.00" xmlns="http://www.w3.org/2000/svg" xmlns:xlink="http://www.w3.org/1999/xlink">
<g id="graph0" class="graph" transform="scale(1 1) rotate(0) translate(4 180)">
<title>/home/runner/work/diffblue&#45;cbmc/diffblue&#45;cbmc/src/goto&#45;instrument/contracts/dynamic&#45;frames/dfcc_contract_mode.cpp</title>
<!-- Node1 -->
<g id="node1" class="node">
<title>Node1</title>
<g id="a_node1"><a xlink:title=" ">
<polygon fill="#bfbfbf" stroke="black" points="40,-112.5 40,-175.5 208,-175.5 208,-112.5 40,-112.5"/>
<text text-anchor="start" x="48" y="-163.5" font-family="Helvetica,sans-Serif" font-size="10.00">/home/runner/work/diffblue</text>
<text text-anchor="start" x="48" y="-152.5" font-family="Helvetica,sans-Serif" font-size="10.00">&#45;cbmc/diffblue&#45;cbmc/src</text>
<text text-anchor="start" x="48" y="-141.5" font-family="Helvetica,sans-Serif" font-size="10.00">/goto&#45;instrument/contracts</text>
<text text-anchor="start" x="48" y="-130.5" font-family="Helvetica,sans-Serif" font-size="10.00">/dynamic&#45;frames/dfcc_contract</text>
<text text-anchor="middle" x="124" y="-119.5" font-family="Helvetica,sans-Serif" font-size="10.00">_mode.cpp</text>
</a>
</g>
</g>
<!-- Node2 -->
<g id="node2" class="node">
<title>Node2</title>
<g id="a_node2"><a xlink:href="dfcc__contract__mode_8h.html" target="_top" xlink:title="Enum type representing the contract checking and replacement modes.">
<polygon fill="none" stroke="black" points="0,-56.5 0,-75.5 124,-75.5 124,-56.5 0,-56.5"/>
<text text-anchor="middle" x="62" y="-63.5" font-family="Helvetica,sans-Serif" font-size="10.00">dfcc_contract_mode.h</text>
</a>
</g>
</g>
<!-- Node1&#45;&gt;Node2 -->
<g id="edge1" class="edge">
<title>Node1&#45;&gt;Node2</title>
<path fill="none" stroke="midnightblue" d="M98.78,-112.09C90.82,-102.33 82.33,-91.92 75.52,-83.57"/>
<polygon fill="midnightblue" stroke="midnightblue" points="78.15,-81.25 69.11,-75.72 72.72,-85.68 78.15,-81.25"/>
</g>
<!-- Node4 -->
<g id="node4" class="node">
<title>Node4</title>
<g id="a_node4"><a xlink:href="src_2util_2invariant_8h.html" target="_top" xlink:title=" ">
<polygon fill="none" stroke="black" points="142,-56.5 142,-75.5 230,-75.5 230,-56.5 142,-56.5"/>
<text text-anchor="middle" x="186" y="-63.5" font-family="Helvetica,sans-Serif" font-size="10.00">util/invariant.h</text>
</a>
</g>
</g>
<!-- Node1&#45;&gt;Node4 -->
<g id="edge3" class="edge">
<title>Node1&#45;&gt;Node4</title>
<path fill="none" stroke="midnightblue" d="M149.22,-112.09C157.18,-102.33 165.67,-91.92 172.48,-83.57"/>
<polygon fill="midnightblue" stroke="midnightblue" points="175.28,-85.68 178.89,-75.72 169.85,-81.25 175.28,-85.68"/>
</g>
<!-- Node3 -->
<g id="node3" class="node">
<title>Node3</title>
<g id="a_node3"><a xlink:title=" ">
<polygon fill="none" stroke="#bfbfbf" points="40,-0.5 40,-19.5 84,-19.5 84,-0.5 40,-0.5"/>
<text text-anchor="middle" x="62" y="-7.5" font-family="Helvetica,sans-Serif" font-size="10.00">string</text>
</a>
</g>
</g>
<!-- Node2&#45;&gt;Node3 -->
<g id="edge2" class="edge">
<title>Node2&#45;&gt;Node3</title>
<path fill="none" stroke="midnightblue" d="M62,-56.08C62,-49.01 62,-38.86 62,-29.99"/>
<polygon fill="midnightblue" stroke="midnightblue" points="65.5,-29.75 62,-19.75 58.5,-29.75 65.5,-29.75"/>
</g>
<!-- Node4&#45;&gt;Node3 -->
<g id="edge6" class="edge">
<title>Node4&#45;&gt;Node3</title>
<path fill="none" stroke="midnightblue" d="M166.35,-56.44C146.04,-47.6 114.1,-33.69 90.9,-23.59"/>
<polygon fill="midnightblue" stroke="midnightblue" points="92.12,-20.3 81.56,-19.52 89.33,-26.72 92.12,-20.3"/>
</g>
<!-- Node5 -->
<g id="node5" class="node">
<title>Node5</title>
<g id="a_node5"><a xlink:title=" ">
<polygon fill="none" stroke="#bfbfbf" points="102.5,-0.5 102.5,-19.5 151.5,-19.5 151.5,-0.5 102.5,-0.5"/>
<text text-anchor="middle" x="127" y="-7.5" font-family="Helvetica,sans-Serif" font-size="10.00">cstdlib</text>
</a>
</g>
</g>
<!-- Node4&#45;&gt;Node5 -->
<g id="edge4" class="edge">
<title>Node4&#45;&gt;Node5</title>
<path fill="none" stroke="midnightblue" d="M176.52,-56.32C167.8,-48.34 154.66,-36.31 144.1,-26.65"/>
<polygon fill="midnightblue" stroke="midnightblue" points="146.39,-24 136.65,-19.83 141.67,-29.17 146.39,-24"/>
</g>
<!-- Node6 -->
<g id="node6" class="node">
<title>Node6</title>
<g id="a_node6"><a xlink:title=" ">
<polygon fill="none" stroke="#bfbfbf" points="170,-0.5 170,-19.5 226,-19.5 226,-0.5 170,-0.5"/>
<text text-anchor="middle" x="198" y="-7.5" font-family="Helvetica,sans-Serif" font-size="10.00">sstream</text>
</a>
</g>
</g>
<!-- Node4&#45;&gt;Node6 -->
<g id="edge5" class="edge">
<title>Node4&#45;&gt;Node6</title>
<path fill="none" stroke="midnightblue" d="M187.98,-56.08C189.57,-48.93 191.86,-38.64 193.85,-29.69"/>
<polygon fill="midnightblue" stroke="midnightblue" points="197.3,-30.27 196.06,-19.75 190.47,-28.75 197.3,-30.27"/>
</g>
<!-- Node7 -->
<g id="node7" class="node">
<title>Node7</title>
<g id="a_node7"><a xlink:title=" ">
<polygon fill="none" stroke="#bfbfbf" points="244.5,-0.5 244.5,-19.5 313.5,-19.5 313.5,-0.5 244.5,-0.5"/>
<text text-anchor="middle" x="279" y="-7.5" font-family="Helvetica,sans-Serif" font-size="10.00">type_traits</text>
</a>
</g>
</g>
<!-- Node4&#45;&gt;Node7 -->
<g id="edge7" class="edge">
<title>Node4&#45;&gt;Node7</title>
<path fill="none" stroke="midnightblue" d="M200.94,-56.32C215.59,-47.82 238.13,-34.73 255.24,-24.8"/>
<polygon fill="midnightblue" stroke="midnightblue" points="257.2,-27.7 264.1,-19.65 253.69,-21.65 257.2,-27.7"/>
</g>
</g>
</svg>
