<?xml version="1.0" encoding="UTF-8" standalone="no"?>
<!DOCTYPE svg PUBLIC "-//W3C//DTD SVG 1.1//EN"
 "http://www.w3.org/Graphics/SVG/1.1/DTD/svg11.dtd">
<!-- Generated by graphviz version 2.43.0 (0)
 -->
<!-- Title: /home/runner/work/diffblue&#45;cbmc/diffblue&#45;cbmc/src/solvers/sat/dimacs_cnf.h Pages: 1 -->
<svg width="1396pt" height="451pt"
 viewBox="0.00 0.00 1395.50 451.00" xmlns="http://www.w3.org/2000/svg" xmlns:xlink="http://www.w3.org/1999/xlink">
<g id="graph0" class="graph" transform="scale(1 1) rotate(0) translate(4 447)">
<title>/home/runner/work/diffblue&#45;cbmc/diffblue&#45;cbmc/src/solvers/sat/dimacs_cnf.h</title>
<!-- Node1 -->
<g id="node1" class="node">
<title>Node1</title>
<g id="a_node1"><a xlink:title=" ">
<polygon fill="#bfbfbf" stroke="black" points="681,-401.5 681,-442.5 830,-442.5 830,-401.5 681,-401.5"/>
<text text-anchor="start" x="689" y="-430.5" font-family="Helvetica,sans-Serif" font-size="10.00">/home/runner/work/diffblue</text>
<text text-anchor="start" x="689" y="-419.5" font-family="Helvetica,sans-Serif" font-size="10.00">&#45;cbmc/diffblue&#45;cbmc/src</text>
<text text-anchor="middle" x="755.5" y="-408.5" font-family="Helvetica,sans-Serif" font-size="10.00">/solvers/sat/dimacs_cnf.h</text>
</a>
</g>
</g>
<!-- Node2 -->
<g id="node2" class="node">
<title>Node2</title>
<g id="a_node2"><a xlink:href="solver__factory_8cpp.html" target="_top" xlink:title="Solver Factory.">
<polygon fill="none" stroke="black" points="122.5,-323.5 122.5,-364.5 296.5,-364.5 296.5,-323.5 122.5,-323.5"/>
<text text-anchor="start" x="130.5" y="-352.5" font-family="Helvetica,sans-Serif" font-size="10.00">/home/runner/work/diffblue</text>
<text text-anchor="start" x="130.5" y="-341.5" font-family="Helvetica,sans-Serif" font-size="10.00">&#45;cbmc/diffblue&#45;cbmc/src</text>
<text text-anchor="middle" x="209.5" y="-330.5" font-family="Helvetica,sans-Serif" font-size="10.00">/goto&#45;checker/solver_factory.cpp</text>
</a>
</g>
</g>
<!-- Node1&#45;&gt;Node2 -->
<g id="edge1" class="edge">
<title>Node1&#45;&gt;Node2</title>
<path fill="none" stroke="midnightblue" d="M670.83,-412.55C580.16,-403.01 432.2,-386.04 305.5,-365 302.56,-364.51 299.58,-364 296.56,-363.46"/>
<polygon fill="midnightblue" stroke="midnightblue" points="670.47,-416.03 680.78,-413.59 671.2,-409.07 670.47,-416.03"/>
</g>
<!-- Node3 -->
<g id="node3" class="node">
<title>Node3</title>
<g id="a_node3"><a xlink:href="bv__dimacs_8cpp.html" target="_top" xlink:title="Writing DIMACS Files.">
<polygon fill="none" stroke="black" points="314.5,-323.5 314.5,-364.5 494.5,-364.5 494.5,-323.5 314.5,-323.5"/>
<text text-anchor="start" x="322.5" y="-352.5" font-family="Helvetica,sans-Serif" font-size="10.00">/home/runner/work/diffblue</text>
<text text-anchor="start" x="322.5" y="-341.5" font-family="Helvetica,sans-Serif" font-size="10.00">&#45;cbmc/diffblue&#45;cbmc/src</text>
<text text-anchor="middle" x="404.5" y="-330.5" font-family="Helvetica,sans-Serif" font-size="10.00">/solvers/flattening/bv_dimacs.cpp</text>
</a>
</g>
</g>
<!-- Node1&#45;&gt;Node3 -->
<g id="edge2" class="edge">
<title>Node1&#45;&gt;Node3</title>
<path fill="none" stroke="midnightblue" d="M670.55,-402.61C617.39,-391.1 548.96,-376.28 494.82,-364.56"/>
<polygon fill="midnightblue" stroke="midnightblue" points="670.12,-406.09 680.63,-404.79 671.6,-399.25 670.12,-406.09"/>
</g>
<!-- Node4 -->
<g id="node4" class="node">
<title>Node4</title>
<g id="a_node4"><a xlink:href="qdimacs__cnf_8h.html" target="_top" xlink:title=" ">
<polygon fill="none" stroke="black" points="513,-323.5 513,-364.5 662,-364.5 662,-323.5 513,-323.5"/>
<text text-anchor="start" x="521" y="-352.5" font-family="Helvetica,sans-Serif" font-size="10.00">/home/runner/work/diffblue</text>
<text text-anchor="start" x="521" y="-341.5" font-family="Helvetica,sans-Serif" font-size="10.00">&#45;cbmc/diffblue&#45;cbmc/src</text>
<text text-anchor="middle" x="587.5" y="-330.5" font-family="Helvetica,sans-Serif" font-size="10.00">/solvers/qbf/qdimacs_cnf.h</text>
</a>
</g>
</g>
<!-- Node1&#45;&gt;Node4 -->
<g id="edge3" class="edge">
<title>Node1&#45;&gt;Node4</title>
<path fill="none" stroke="midnightblue" d="M702.87,-397.19C679.62,-386.67 652.64,-374.47 630.62,-364.51"/>
<polygon fill="midnightblue" stroke="midnightblue" points="701.68,-400.5 712.24,-401.43 704.57,-394.12 701.68,-400.5"/>
</g>
<!-- Node24 -->
<g id="node24" class="node">
<title>Node24</title>
<g id="a_node24"><a xlink:href="dimacs__cnf_8cpp.html" target="_top" xlink:title=" ">
<polygon fill="none" stroke="black" points="680,-323.5 680,-364.5 831,-364.5 831,-323.5 680,-323.5"/>
<text text-anchor="start" x="688" y="-352.5" font-family="Helvetica,sans-Serif" font-size="10.00">/home/runner/work/diffblue</text>
<text text-anchor="start" x="688" y="-341.5" font-family="Helvetica,sans-Serif" font-size="10.00">&#45;cbmc/diffblue&#45;cbmc/src</text>
<text text-anchor="middle" x="755.5" y="-330.5" font-family="Helvetica,sans-Serif" font-size="10.00">/solvers/sat/dimacs_cnf.cpp</text>
</a>
</g>
</g>
<!-- Node1&#45;&gt;Node24 -->
<g id="edge23" class="edge">
<title>Node1&#45;&gt;Node24</title>
<path fill="none" stroke="midnightblue" d="M755.5,-391.3C755.5,-382.3 755.5,-372.65 755.5,-364.51"/>
<polygon fill="midnightblue" stroke="midnightblue" points="752,-391.43 755.5,-401.43 759,-391.43 752,-391.43"/>
</g>
<!-- Node25 -->
<g id="node25" class="node">
<title>Node25</title>
<g id="a_node25"><a xlink:href="external__sat_8cpp.html" target="_top" xlink:title="Allows call an external SAT solver to allow faster integration of newer SAT solvers.">
<polygon fill="none" stroke="black" points="849,-323.5 849,-364.5 1006,-364.5 1006,-323.5 849,-323.5"/>
<text text-anchor="start" x="857" y="-352.5" font-family="Helvetica,sans-Serif" font-size="10.00">/home/runner/work/diffblue</text>
<text text-anchor="start" x="857" y="-341.5" font-family="Helvetica,sans-Serif" font-size="10.00">&#45;cbmc/diffblue&#45;cbmc/src</text>
<text text-anchor="middle" x="927.5" y="-330.5" font-family="Helvetica,sans-Serif" font-size="10.00">/solvers/sat/external_sat.cpp</text>
</a>
</g>
</g>
<!-- Node1&#45;&gt;Node25 -->
<g id="edge24" class="edge">
<title>Node1&#45;&gt;Node25</title>
<path fill="none" stroke="midnightblue" d="M809.07,-397.33C832.94,-386.78 860.71,-374.51 883.36,-364.51"/>
<polygon fill="midnightblue" stroke="midnightblue" points="807.53,-394.19 799.79,-401.43 810.36,-400.59 807.53,-394.19"/>
</g>
<!-- Node26 -->
<g id="node26" class="node">
<title>Node26</title>
<g id="a_node26"><a xlink:href="pbs__dimacs__cnf_8h.html" target="_top" xlink:title=" ">
<polygon fill="none" stroke="black" points="1028.5,-323.5 1028.5,-364.5 1190.5,-364.5 1190.5,-323.5 1028.5,-323.5"/>
<text text-anchor="start" x="1036.5" y="-352.5" font-family="Helvetica,sans-Serif" font-size="10.00">/home/runner/work/diffblue</text>
<text text-anchor="start" x="1036.5" y="-341.5" font-family="Helvetica,sans-Serif" font-size="10.00">&#45;cbmc/diffblue&#45;cbmc/src</text>
<text text-anchor="middle" x="1109.5" y="-330.5" font-family="Helvetica,sans-Serif" font-size="10.00">/solvers/sat/pbs_dimacs_cnf.h</text>
</a>
</g>
</g>
<!-- Node1&#45;&gt;Node26 -->
<g id="edge25" class="edge">
<title>Node1&#45;&gt;Node26</title>
<path fill="none" stroke="midnightblue" d="M840.23,-402.81C897.32,-390.55 972.19,-374.48 1028.49,-362.39"/>
<polygon fill="midnightblue" stroke="midnightblue" points="839.18,-399.45 830.14,-404.98 840.65,-406.3 839.18,-399.45"/>
</g>
<!-- Node28 -->
<g id="node28" class="node">
<title>Node28</title>
<g id="a_node28"><a xlink:href="satcheck__zcore_8h.html" target="_top" xlink:title=" ">
<polygon fill="none" stroke="black" points="1216.5,-323.5 1216.5,-364.5 1376.5,-364.5 1376.5,-323.5 1216.5,-323.5"/>
<text text-anchor="start" x="1224.5" y="-352.5" font-family="Helvetica,sans-Serif" font-size="10.00">/home/runner/work/diffblue</text>
<text text-anchor="start" x="1224.5" y="-341.5" font-family="Helvetica,sans-Serif" font-size="10.00">&#45;cbmc/diffblue&#45;cbmc/src</text>
<text text-anchor="middle" x="1296.5" y="-330.5" font-family="Helvetica,sans-Serif" font-size="10.00">/solvers/sat/satcheck_zcore.h</text>
</a>
</g>
</g>
<!-- Node1&#45;&gt;Node28 -->
<g id="edge27" class="edge">
<title>Node1&#45;&gt;Node28</title>
<path fill="none" stroke="midnightblue" d="M840.49,-412.27C930.07,-402.6 1075.14,-385.63 1199.5,-365 1205.01,-364.09 1210.69,-363.08 1216.4,-362.02"/>
<polygon fill="midnightblue" stroke="midnightblue" points="839.96,-408.81 830.39,-413.35 840.71,-415.77 839.96,-408.81"/>
</g>
<!-- Node5 -->
<g id="node5" class="node">
<title>Node5</title>
<g id="a_node5"><a xlink:href="qbf__quantor_8h.html" target="_top" xlink:title=" ">
<polygon fill="none" stroke="black" points="5,-245.5 5,-286.5 154,-286.5 154,-245.5 5,-245.5"/>
<text text-anchor="start" x="13" y="-274.5" font-family="Helvetica,sans-Serif" font-size="10.00">/home/runner/work/diffblue</text>
<text text-anchor="start" x="13" y="-263.5" font-family="Helvetica,sans-Serif" font-size="10.00">&#45;cbmc/diffblue&#45;cbmc/src</text>
<text text-anchor="middle" x="79.5" y="-252.5" font-family="Helvetica,sans-Serif" font-size="10.00">/solvers/qbf/qbf_quantor.h</text>
</a>
</g>
</g>
<!-- Node4&#45;&gt;Node5 -->
<g id="edge4" class="edge">
<title>Node4&#45;&gt;Node5</title>
<path fill="none" stroke="midnightblue" d="M502.85,-323.02C351.94,-297.99 310.06,-312.1 163.5,-287 160.4,-286.47 157.24,-285.89 154.05,-285.27"/>
<polygon fill="midnightblue" stroke="midnightblue" points="502.5,-326.51 512.95,-324.73 503.67,-319.61 502.5,-326.51"/>
</g>
<!-- Node7 -->
<g id="node7" class="node">
<title>Node7</title>
<g id="a_node7"><a xlink:href="qbf__qube_8h.html" target="_top" xlink:title=" ">
<polygon fill="none" stroke="black" points="173,-245.5 173,-286.5 322,-286.5 322,-245.5 173,-245.5"/>
<text text-anchor="start" x="181" y="-274.5" font-family="Helvetica,sans-Serif" font-size="10.00">/home/runner/work/diffblue</text>
<text text-anchor="start" x="181" y="-263.5" font-family="Helvetica,sans-Serif" font-size="10.00">&#45;cbmc/diffblue&#45;cbmc/src</text>
<text text-anchor="middle" x="247.5" y="-252.5" font-family="Helvetica,sans-Serif" font-size="10.00">/solvers/qbf/qbf_qube.h</text>
</a>
</g>
</g>
<!-- Node4&#45;&gt;Node7 -->
<g id="edge6" class="edge">
<title>Node4&#45;&gt;Node7</title>
<path fill="none" stroke="midnightblue" d="M502.66,-322.85C425.58,-305.77 404.59,-303.35 331.5,-287 328.43,-286.31 325.29,-285.6 322.13,-284.88"/>
<polygon fill="midnightblue" stroke="midnightblue" points="502.35,-326.36 512.87,-325.12 503.87,-319.53 502.35,-326.36"/>
</g>
<!-- Node9 -->
<g id="node9" class="node">
<title>Node9</title>
<g id="a_node9"><a xlink:href="qbf__skizzo_8h.html" target="_top" xlink:title=" ">
<polygon fill="none" stroke="black" points="341,-245.5 341,-286.5 490,-286.5 490,-245.5 341,-245.5"/>
<text text-anchor="start" x="349" y="-274.5" font-family="Helvetica,sans-Serif" font-size="10.00">/home/runner/work/diffblue</text>
<text text-anchor="start" x="349" y="-263.5" font-family="Helvetica,sans-Serif" font-size="10.00">&#45;cbmc/diffblue&#45;cbmc/src</text>
<text text-anchor="middle" x="415.5" y="-252.5" font-family="Helvetica,sans-Serif" font-size="10.00">/solvers/qbf/qbf_skizzo.h</text>
</a>
</g>
</g>
<!-- Node4&#45;&gt;Node9 -->
<g id="edge8" class="edge">
<title>Node4&#45;&gt;Node9</title>
<path fill="none" stroke="midnightblue" d="M533.93,-319.33C510.06,-308.78 482.29,-296.51 459.64,-286.51"/>
<polygon fill="midnightblue" stroke="midnightblue" points="532.64,-322.59 543.21,-323.43 535.47,-316.19 532.64,-322.59"/>
</g>
<!-- Node11 -->
<g id="node11" class="node">
<title>Node11</title>
<g id="a_node11"><a xlink:href="qbf__squolem_8h.html" target="_top" xlink:title="Squolem Backend.">
<polygon fill="none" stroke="black" points="511,-245.5 511,-286.5 660,-286.5 660,-245.5 511,-245.5"/>
<text text-anchor="start" x="519" y="-274.5" font-family="Helvetica,sans-Serif" font-size="10.00">/home/runner/work/diffblue</text>
<text text-anchor="start" x="519" y="-263.5" font-family="Helvetica,sans-Serif" font-size="10.00">&#45;cbmc/diffblue&#45;cbmc/src</text>
<text text-anchor="middle" x="585.5" y="-252.5" font-family="Helvetica,sans-Serif" font-size="10.00">/solvers/qbf/qbf_squolem.h</text>
</a>
</g>
</g>
<!-- Node4&#45;&gt;Node11 -->
<g id="edge10" class="edge">
<title>Node4&#45;&gt;Node11</title>
<path fill="none" stroke="midnightblue" d="M586.72,-313.3C586.48,-304.3 586.23,-294.65 586.01,-286.51"/>
<polygon fill="midnightblue" stroke="midnightblue" points="583.22,-313.52 586.98,-323.43 590.22,-313.34 583.22,-313.52"/>
</g>
<!-- Node13 -->
<g id="node13" class="node">
<title>Node13</title>
<g id="a_node13"><a xlink:href="qdimacs__cnf_8cpp.html" target="_top" xlink:title=" ">
<polygon fill="none" stroke="black" points="677.5,-245.5 677.5,-286.5 835.5,-286.5 835.5,-245.5 677.5,-245.5"/>
<text text-anchor="start" x="685.5" y="-274.5" font-family="Helvetica,sans-Serif" font-size="10.00">/home/runner/work/diffblue</text>
<text text-anchor="start" x="685.5" y="-263.5" font-family="Helvetica,sans-Serif" font-size="10.00">&#45;cbmc/diffblue&#45;cbmc/src</text>
<text text-anchor="middle" x="756.5" y="-252.5" font-family="Helvetica,sans-Serif" font-size="10.00">/solvers/qbf/qdimacs_cnf.cpp</text>
</a>
</g>
</g>
<!-- Node4&#45;&gt;Node13 -->
<g id="edge12" class="edge">
<title>Node4&#45;&gt;Node13</title>
<path fill="none" stroke="midnightblue" d="M640.45,-319.19C663.83,-308.67 690.97,-296.47 713.13,-286.51"/>
<polygon fill="midnightblue" stroke="midnightblue" points="638.71,-316.13 631.02,-323.43 641.58,-322.52 638.71,-316.13"/>
</g>
<!-- Node14 -->
<g id="node14" class="node">
<title>Node14</title>
<g id="a_node14"><a xlink:href="qdimacs__core_8h.html" target="_top" xlink:title=" ">
<polygon fill="none" stroke="black" points="854,-245.5 854,-286.5 1007,-286.5 1007,-245.5 854,-245.5"/>
<text text-anchor="start" x="862" y="-274.5" font-family="Helvetica,sans-Serif" font-size="10.00">/home/runner/work/diffblue</text>
<text text-anchor="start" x="862" y="-263.5" font-family="Helvetica,sans-Serif" font-size="10.00">&#45;cbmc/diffblue&#45;cbmc/src</text>
<text text-anchor="middle" x="930.5" y="-252.5" font-family="Helvetica,sans-Serif" font-size="10.00">/solvers/qbf/qdimacs_core.h</text>
</a>
</g>
</g>
<!-- Node4&#45;&gt;Node14 -->
<g id="edge13" class="edge">
<title>Node4&#45;&gt;Node14</title>
<path fill="none" stroke="midnightblue" d="M672.32,-322.63C749.28,-305.57 770.53,-303.25 844.5,-287 847.49,-286.34 850.55,-285.67 853.63,-284.98"/>
<polygon fill="midnightblue" stroke="midnightblue" points="671.13,-319.3 662.13,-324.9 672.65,-326.14 671.13,-319.3"/>
</g>
<!-- Node6 -->
<g id="node6" class="node">
<title>Node6</title>
<g id="a_node6"><a xlink:href="qbf__quantor_8cpp.html" target="_top" xlink:title=" ">
<polygon fill="none" stroke="black" points="0,-167.5 0,-208.5 155,-208.5 155,-167.5 0,-167.5"/>
<text text-anchor="start" x="8" y="-196.5" font-family="Helvetica,sans-Serif" font-size="10.00">/home/runner/work/diffblue</text>
<text text-anchor="start" x="8" y="-185.5" font-family="Helvetica,sans-Serif" font-size="10.00">&#45;cbmc/diffblue&#45;cbmc/src</text>
<text text-anchor="middle" x="77.5" y="-174.5" font-family="Helvetica,sans-Serif" font-size="10.00">/solvers/qbf/qbf_quantor.cpp</text>
</a>
</g>
</g>
<!-- Node5&#45;&gt;Node6 -->
<g id="edge5" class="edge">
<title>Node5&#45;&gt;Node6</title>
<path fill="none" stroke="midnightblue" d="M78.72,-235.3C78.48,-226.3 78.23,-216.65 78.01,-208.51"/>
<polygon fill="midnightblue" stroke="midnightblue" points="75.22,-235.52 78.98,-245.43 82.22,-235.34 75.22,-235.52"/>
</g>
<!-- Node8 -->
<g id="node8" class="node">
<title>Node8</title>
<g id="a_node8"><a xlink:href="qbf__qube_8cpp.html" target="_top" xlink:title=" ">
<polygon fill="none" stroke="black" points="173,-167.5 173,-208.5 322,-208.5 322,-167.5 173,-167.5"/>
<text text-anchor="start" x="181" y="-196.5" font-family="Helvetica,sans-Serif" font-size="10.00">/home/runner/work/diffblue</text>
<text text-anchor="start" x="181" y="-185.5" font-family="Helvetica,sans-Serif" font-size="10.00">&#45;cbmc/diffblue&#45;cbmc/src</text>
<text text-anchor="middle" x="247.5" y="-174.5" font-family="Helvetica,sans-Serif" font-size="10.00">/solvers/qbf/qbf_qube.cpp</text>
</a>
</g>
</g>
<!-- Node7&#45;&gt;Node8 -->
<g id="edge7" class="edge">
<title>Node7&#45;&gt;Node8</title>
<path fill="none" stroke="midnightblue" d="M247.5,-235.3C247.5,-226.3 247.5,-216.65 247.5,-208.51"/>
<polygon fill="midnightblue" stroke="midnightblue" points="244,-235.43 247.5,-245.43 251,-235.43 244,-235.43"/>
</g>
<!-- Node10 -->
<g id="node10" class="node">
<title>Node10</title>
<g id="a_node10"><a xlink:href="qbf__skizzo_8cpp.html" target="_top" xlink:title=" ">
<polygon fill="none" stroke="black" points="340,-167.5 340,-208.5 489,-208.5 489,-167.5 340,-167.5"/>
<text text-anchor="start" x="348" y="-196.5" font-family="Helvetica,sans-Serif" font-size="10.00">/home/runner/work/diffblue</text>
<text text-anchor="start" x="348" y="-185.5" font-family="Helvetica,sans-Serif" font-size="10.00">&#45;cbmc/diffblue&#45;cbmc/src</text>
<text text-anchor="middle" x="414.5" y="-174.5" font-family="Helvetica,sans-Serif" font-size="10.00">/solvers/qbf/qbf_skizzo.cpp</text>
</a>
</g>
</g>
<!-- Node9&#45;&gt;Node10 -->
<g id="edge9" class="edge">
<title>Node9&#45;&gt;Node10</title>
<path fill="none" stroke="midnightblue" d="M415.11,-235.3C414.99,-226.3 414.86,-216.65 414.76,-208.51"/>
<polygon fill="midnightblue" stroke="midnightblue" points="411.61,-235.48 415.24,-245.43 418.61,-235.38 411.61,-235.48"/>
</g>
<!-- Node12 -->
<g id="node12" class="node">
<title>Node12</title>
<g id="a_node12"><a xlink:href="qbf__squolem_8cpp.html" target="_top" xlink:title="Squolem Backend.">
<polygon fill="none" stroke="black" points="507.5,-167.5 507.5,-208.5 667.5,-208.5 667.5,-167.5 507.5,-167.5"/>
<text text-anchor="start" x="515.5" y="-196.5" font-family="Helvetica,sans-Serif" font-size="10.00">/home/runner/work/diffblue</text>
<text text-anchor="start" x="515.5" y="-185.5" font-family="Helvetica,sans-Serif" font-size="10.00">&#45;cbmc/diffblue&#45;cbmc/src</text>
<text text-anchor="middle" x="587.5" y="-174.5" font-family="Helvetica,sans-Serif" font-size="10.00">/solvers/qbf/qbf_squolem.cpp</text>
</a>
</g>
</g>
<!-- Node11&#45;&gt;Node12 -->
<g id="edge11" class="edge">
<title>Node11&#45;&gt;Node12</title>
<path fill="none" stroke="midnightblue" d="M586.28,-235.3C586.52,-226.3 586.77,-216.65 586.99,-208.51"/>
<polygon fill="midnightblue" stroke="midnightblue" points="582.78,-235.34 586.02,-245.43 589.78,-235.52 582.78,-235.34"/>
</g>
<!-- Node15 -->
<g id="node15" class="node">
<title>Node15</title>
<g id="a_node15"><a xlink:href="qbf__bdd__core_8h.html" target="_top" xlink:title=" ">
<polygon fill="none" stroke="black" points="686,-167.5 686,-208.5 837,-208.5 837,-167.5 686,-167.5"/>
<text text-anchor="start" x="694" y="-196.5" font-family="Helvetica,sans-Serif" font-size="10.00">/home/runner/work/diffblue</text>
<text text-anchor="start" x="694" y="-185.5" font-family="Helvetica,sans-Serif" font-size="10.00">&#45;cbmc/diffblue&#45;cbmc/src</text>
<text text-anchor="middle" x="761.5" y="-174.5" font-family="Helvetica,sans-Serif" font-size="10.00">/solvers/qbf/qbf_bdd_core.h</text>
</a>
</g>
</g>
<!-- Node14&#45;&gt;Node15 -->
<g id="edge14" class="edge">
<title>Node14&#45;&gt;Node15</title>
<path fill="none" stroke="midnightblue" d="M877.55,-241.19C854.17,-230.67 827.03,-218.47 804.87,-208.51"/>
<polygon fill="midnightblue" stroke="midnightblue" points="876.42,-244.52 886.98,-245.43 879.29,-238.13 876.42,-244.52"/>
</g>
<!-- Node19 -->
<g id="node19" class="node">
<title>Node19</title>
<g id="a_node19"><a xlink:href="qbf__qube__core_8h.html" target="_top" xlink:title=" ">
<polygon fill="none" stroke="black" points="855,-167.5 855,-208.5 1012,-208.5 1012,-167.5 855,-167.5"/>
<text text-anchor="start" x="863" y="-196.5" font-family="Helvetica,sans-Serif" font-size="10.00">/home/runner/work/diffblue</text>
<text text-anchor="start" x="863" y="-185.5" font-family="Helvetica,sans-Serif" font-size="10.00">&#45;cbmc/diffblue&#45;cbmc/src</text>
<text text-anchor="middle" x="933.5" y="-174.5" font-family="Helvetica,sans-Serif" font-size="10.00">/solvers/qbf/qbf_qube_core.h</text>
</a>
</g>
</g>
<!-- Node14&#45;&gt;Node19 -->
<g id="edge18" class="edge">
<title>Node14&#45;&gt;Node19</title>
<path fill="none" stroke="midnightblue" d="M931.67,-235.3C932.03,-226.3 932.41,-216.65 932.73,-208.51"/>
<polygon fill="midnightblue" stroke="midnightblue" points="928.17,-235.3 931.27,-245.43 935.16,-235.57 928.17,-235.3"/>
</g>
<!-- Node21 -->
<g id="node21" class="node">
<title>Node21</title>
<g id="a_node21"><a xlink:href="qbf__squolem__core_8h.html" target="_top" xlink:title="Squolem Backend (with Proofs)">
<polygon fill="none" stroke="black" points="1030,-167.5 1030,-208.5 1205,-208.5 1205,-167.5 1030,-167.5"/>
<text text-anchor="start" x="1038" y="-196.5" font-family="Helvetica,sans-Serif" font-size="10.00">/home/runner/work/diffblue</text>
<text text-anchor="start" x="1038" y="-185.5" font-family="Helvetica,sans-Serif" font-size="10.00">&#45;cbmc/diffblue&#45;cbmc/src</text>
<text text-anchor="middle" x="1117.5" y="-174.5" font-family="Helvetica,sans-Serif" font-size="10.00">/solvers/qbf/qbf_squolem_core.h</text>
</a>
</g>
</g>
<!-- Node14&#45;&gt;Node21 -->
<g id="edge20" class="edge">
<title>Node14&#45;&gt;Node21</title>
<path fill="none" stroke="midnightblue" d="M988.06,-241.61C1014.16,-231 1044.66,-218.6 1069.51,-208.51"/>
<polygon fill="midnightblue" stroke="midnightblue" points="986.6,-238.42 978.66,-245.43 989.24,-244.91 986.6,-238.42"/>
</g>
<!-- Node23 -->
<g id="node23" class="node">
<title>Node23</title>
<g id="a_node23"><a xlink:href="qdimacs__core_8cpp.html" target="_top" xlink:title=" ">
<polygon fill="none" stroke="black" points="1223.5,-167.5 1223.5,-208.5 1387.5,-208.5 1387.5,-167.5 1223.5,-167.5"/>
<text text-anchor="start" x="1231.5" y="-196.5" font-family="Helvetica,sans-Serif" font-size="10.00">/home/runner/work/diffblue</text>
<text text-anchor="start" x="1231.5" y="-185.5" font-family="Helvetica,sans-Serif" font-size="10.00">&#45;cbmc/diffblue&#45;cbmc/src</text>
<text text-anchor="middle" x="1305.5" y="-174.5" font-family="Helvetica,sans-Serif" font-size="10.00">/solvers/qbf/qdimacs_core.cpp</text>
</a>
</g>
</g>
<!-- Node14&#45;&gt;Node23 -->
<g id="edge22" class="edge">
<title>Node14&#45;&gt;Node23</title>
<path fill="none" stroke="midnightblue" d="M1017.24,-244.68C1105.19,-226.68 1129.47,-226.03 1214.5,-209 1217.35,-208.43 1220.26,-207.84 1223.19,-207.23"/>
<polygon fill="midnightblue" stroke="midnightblue" points="1016.46,-241.27 1007.37,-246.72 1017.87,-248.13 1016.46,-241.27"/>
</g>
<!-- Node16 -->
<g id="node16" class="node">
<title>Node16</title>
<g id="a_node16"><a xlink:href="qbf__bdd__core_8cpp.html" target="_top" xlink:title=" ">
<polygon fill="none" stroke="black" points="497.5,-84 497.5,-125 659.5,-125 659.5,-84 497.5,-84"/>
<text text-anchor="start" x="505.5" y="-113" font-family="Helvetica,sans-Serif" font-size="10.00">/home/runner/work/diffblue</text>
<text text-anchor="start" x="505.5" y="-102" font-family="Helvetica,sans-Serif" font-size="10.00">&#45;cbmc/diffblue&#45;cbmc/src</text>
<text text-anchor="middle" x="578.5" y="-91" font-family="Helvetica,sans-Serif" font-size="10.00">/solvers/qbf/qbf_bdd_core.cpp</text>
</a>
</g>
</g>
<!-- Node15&#45;&gt;Node16 -->
<g id="edge15" class="edge">
<title>Node15&#45;&gt;Node16</title>
<path fill="none" stroke="midnightblue" d="M708.26,-163.29C680.96,-151.13 648.11,-136.5 622.29,-125"/>
<polygon fill="midnightblue" stroke="midnightblue" points="707.11,-166.61 717.67,-167.48 709.96,-160.21 707.11,-166.61"/>
</g>
<!-- Node17 -->
<g id="node17" class="node">
<title>Node17</title>
<g id="a_node17"><a xlink:href="qbf__skizzo__core_8h.html" target="_top" xlink:title=" ">
<polygon fill="none" stroke="black" points="677.5,-84 677.5,-125 841.5,-125 841.5,-84 677.5,-84"/>
<text text-anchor="start" x="685.5" y="-113" font-family="Helvetica,sans-Serif" font-size="10.00">/home/runner/work/diffblue</text>
<text text-anchor="start" x="685.5" y="-102" font-family="Helvetica,sans-Serif" font-size="10.00">&#45;cbmc/diffblue&#45;cbmc/src</text>
<text text-anchor="middle" x="759.5" y="-91" font-family="Helvetica,sans-Serif" font-size="10.00">/solvers/qbf/qbf_skizzo_core.h</text>
</a>
</g>
</g>
<!-- Node15&#45;&gt;Node17 -->
<g id="edge16" class="edge">
<title>Node15&#45;&gt;Node17</title>
<path fill="none" stroke="midnightblue" d="M760.77,-157.06C760.5,-146.38 760.21,-134.63 759.98,-125.05"/>
<polygon fill="midnightblue" stroke="midnightblue" points="757.27,-157.36 761.02,-167.27 764.27,-157.19 757.27,-157.36"/>
</g>
<!-- Node18 -->
<g id="node18" class="node">
<title>Node18</title>
<g id="a_node18"><a xlink:href="qbf__skizzo__core_8cpp.html" target="_top" xlink:title=" ">
<polygon fill="none" stroke="black" points="672,-0.5 672,-41.5 847,-41.5 847,-0.5 672,-0.5"/>
<text text-anchor="start" x="680" y="-29.5" font-family="Helvetica,sans-Serif" font-size="10.00">/home/runner/work/diffblue</text>
<text text-anchor="start" x="680" y="-18.5" font-family="Helvetica,sans-Serif" font-size="10.00">&#45;cbmc/diffblue&#45;cbmc/src</text>
<text text-anchor="middle" x="759.5" y="-7.5" font-family="Helvetica,sans-Serif" font-size="10.00">/solvers/qbf/qbf_skizzo_core.cpp</text>
</a>
</g>
</g>
<!-- Node17&#45;&gt;Node18 -->
<g id="edge17" class="edge">
<title>Node17&#45;&gt;Node18</title>
<path fill="none" stroke="midnightblue" d="M759.5,-73.56C759.5,-62.88 759.5,-51.13 759.5,-41.55"/>
<polygon fill="midnightblue" stroke="midnightblue" points="756,-73.77 759.5,-83.77 763,-73.77 756,-73.77"/>
</g>
<!-- Node20 -->
<g id="node20" class="node">
<title>Node20</title>
<g id="a_node20"><a xlink:href="qbf__qube__core_8cpp.html" target="_top" xlink:title=" ">
<polygon fill="none" stroke="black" points="859.5,-84 859.5,-125 1027.5,-125 1027.5,-84 859.5,-84"/>
<text text-anchor="start" x="867.5" y="-113" font-family="Helvetica,sans-Serif" font-size="10.00">/home/runner/work/diffblue</text>
<text text-anchor="start" x="867.5" y="-102" font-family="Helvetica,sans-Serif" font-size="10.00">&#45;cbmc/diffblue&#45;cbmc/src</text>
<text text-anchor="middle" x="943.5" y="-91" font-family="Helvetica,sans-Serif" font-size="10.00">/solvers/qbf/qbf_qube_core.cpp</text>
</a>
</g>
</g>
<!-- Node19&#45;&gt;Node20 -->
<g id="edge19" class="edge">
<title>Node19&#45;&gt;Node20</title>
<path fill="none" stroke="midnightblue" d="M937.17,-157.06C938.48,-146.38 939.93,-134.63 941.1,-125.05"/>
<polygon fill="midnightblue" stroke="midnightblue" points="933.66,-156.92 935.92,-167.27 940.61,-157.77 933.66,-156.92"/>
</g>
<!-- Node22 -->
<g id="node22" class="node">
<title>Node22</title>
<g id="a_node22"><a xlink:href="qbf__squolem__core_8cpp.html" target="_top" xlink:title="Squolem Backend (with proofs)">
<polygon fill="none" stroke="black" points="1045,-78.5 1045,-130.5 1194,-130.5 1194,-78.5 1045,-78.5"/>
<text text-anchor="start" x="1053" y="-118.5" font-family="Helvetica,sans-Serif" font-size="10.00">/home/runner/work/diffblue</text>
<text text-anchor="start" x="1053" y="-107.5" font-family="Helvetica,sans-Serif" font-size="10.00">&#45;cbmc/diffblue&#45;cbmc/src</text>
<text text-anchor="start" x="1053" y="-96.5" font-family="Helvetica,sans-Serif" font-size="10.00">/solvers/qbf/qbf_squolem</text>
<text text-anchor="middle" x="1119.5" y="-85.5" font-family="Helvetica,sans-Serif" font-size="10.00">_core.cpp</text>
</a>
</g>
</g>
<!-- Node21&#45;&gt;Node22 -->
<g id="edge21" class="edge">
<title>Node21&#45;&gt;Node22</title>
<path fill="none" stroke="midnightblue" d="M1118.23,-157.12C1118.45,-148.41 1118.68,-138.99 1118.88,-130.61"/>
<polygon fill="midnightblue" stroke="midnightblue" points="1114.73,-157.19 1117.98,-167.27 1121.73,-157.36 1114.73,-157.19"/>
</g>
<!-- Node27 -->
<g id="node27" class="node">
<title>Node27</title>
<g id="a_node27"><a xlink:href="pbs__dimacs__cnf_8cpp.html" target="_top" xlink:title=" ">
<polygon fill="none" stroke="black" points="1025,-245.5 1025,-286.5 1198,-286.5 1198,-245.5 1025,-245.5"/>
<text text-anchor="start" x="1033" y="-274.5" font-family="Helvetica,sans-Serif" font-size="10.00">/home/runner/work/diffblue</text>
<text text-anchor="start" x="1033" y="-263.5" font-family="Helvetica,sans-Serif" font-size="10.00">&#45;cbmc/diffblue&#45;cbmc/src</text>
<text text-anchor="middle" x="1111.5" y="-252.5" font-family="Helvetica,sans-Serif" font-size="10.00">/solvers/sat/pbs_dimacs_cnf.cpp</text>
</a>
</g>
</g>
<!-- Node26&#45;&gt;Node27 -->
<g id="edge26" class="edge">
<title>Node26&#45;&gt;Node27</title>
<path fill="none" stroke="midnightblue" d="M1110.28,-313.3C1110.52,-304.3 1110.77,-294.65 1110.99,-286.51"/>
<polygon fill="midnightblue" stroke="midnightblue" points="1106.78,-313.34 1110.02,-323.43 1113.78,-313.52 1106.78,-313.34"/>
</g>
<!-- Node29 -->
<g id="node29" class="node">
<title>Node29</title>
<g id="a_node29"><a xlink:href="satcheck__zcore_8cpp.html" target="_top" xlink:title=" ">
<polygon fill="none" stroke="black" points="1216,-245.5 1216,-286.5 1387,-286.5 1387,-245.5 1216,-245.5"/>
<text text-anchor="start" x="1224" y="-274.5" font-family="Helvetica,sans-Serif" font-size="10.00">/home/runner/work/diffblue</text>
<text text-anchor="start" x="1224" y="-263.5" font-family="Helvetica,sans-Serif" font-size="10.00">&#45;cbmc/diffblue&#45;cbmc/src</text>
<text text-anchor="middle" x="1301.5" y="-252.5" font-family="Helvetica,sans-Serif" font-size="10.00">/solvers/sat/satcheck_zcore.cpp</text>
</a>
</g>
</g>
<!-- Node28&#45;&gt;Node29 -->
<g id="edge28" class="edge">
<title>Node28&#45;&gt;Node29</title>
<path fill="none" stroke="midnightblue" d="M1298.45,-313.3C1299.05,-304.3 1299.68,-294.65 1300.22,-286.51"/>
<polygon fill="midnightblue" stroke="midnightblue" points="1294.95,-313.22 1297.79,-323.43 1301.94,-313.68 1294.95,-313.22"/>
</g>
</g>
</svg>
