<?xml version="1.0" encoding="UTF-8" standalone="no"?>
<!DOCTYPE svg PUBLIC "-//W3C//DTD SVG 1.1//EN"
 "http://www.w3.org/Graphics/SVG/1.1/DTD/svg11.dtd">
<!-- Generated by graphviz version 2.43.0 (0)
 -->
<!-- Title: /home/runner/work/diffblue&#45;cbmc/diffblue&#45;cbmc/src/cprover/endianness_map_wide.h Pages: 1 -->
<svg width="574pt" height="206pt"
 viewBox="0.00 0.00 574.00 206.00" xmlns="http://www.w3.org/2000/svg" xmlns:xlink="http://www.w3.org/1999/xlink">
<g id="graph0" class="graph" transform="scale(1 1) rotate(0) translate(4 202)">
<title>/home/runner/work/diffblue&#45;cbmc/diffblue&#45;cbmc/src/cprover/endianness_map_wide.h</title>
<!-- Node1 -->
<g id="node1" class="node">
<title>Node1</title>
<g id="a_node1"><a xlink:title=" ">
<polygon fill="#bfbfbf" stroke="black" points="285,-156.5 285,-197.5 464,-197.5 464,-156.5 285,-156.5"/>
<text text-anchor="start" x="293" y="-185.5" font-family="Helvetica,sans-Serif" font-size="10.00">/home/runner/work/diffblue</text>
<text text-anchor="start" x="293" y="-174.5" font-family="Helvetica,sans-Serif" font-size="10.00">&#45;cbmc/diffblue&#45;cbmc/src</text>
<text text-anchor="middle" x="374.5" y="-163.5" font-family="Helvetica,sans-Serif" font-size="10.00">/cprover/endianness_map_wide.h</text>
</a>
</g>
</g>
<!-- Node2 -->
<g id="node2" class="node">
<title>Node2</title>
<g id="a_node2"><a xlink:href="bv__pointers__wide_8h.html" target="_top" xlink:title=" ">
<polygon fill="none" stroke="black" points="202.5,-78.5 202.5,-119.5 356.5,-119.5 356.5,-78.5 202.5,-78.5"/>
<text text-anchor="start" x="210.5" y="-107.5" font-family="Helvetica,sans-Serif" font-size="10.00">/home/runner/work/diffblue</text>
<text text-anchor="start" x="210.5" y="-96.5" font-family="Helvetica,sans-Serif" font-size="10.00">&#45;cbmc/diffblue&#45;cbmc/src</text>
<text text-anchor="middle" x="279.5" y="-85.5" font-family="Helvetica,sans-Serif" font-size="10.00">/cprover/bv_pointers_wide.h</text>
</a>
</g>
</g>
<!-- Node1&#45;&gt;Node2 -->
<g id="edge1" class="edge">
<title>Node1&#45;&gt;Node2</title>
<path fill="none" stroke="midnightblue" d="M342.08,-150.06C329.57,-140.06 315.51,-128.8 303.88,-119.51"/>
<polygon fill="midnightblue" stroke="midnightblue" points="340.04,-152.91 350.04,-156.43 344.41,-147.45 340.04,-152.91"/>
</g>
<!-- Node6 -->
<g id="node6" class="node">
<title>Node6</title>
<g id="a_node6"><a xlink:href="endianness__map__wide_8cpp.html" target="_top" xlink:title=" ">
<polygon fill="none" stroke="black" points="375,-78.5 375,-119.5 566,-119.5 566,-78.5 375,-78.5"/>
<text text-anchor="start" x="383" y="-107.5" font-family="Helvetica,sans-Serif" font-size="10.00">/home/runner/work/diffblue</text>
<text text-anchor="start" x="383" y="-96.5" font-family="Helvetica,sans-Serif" font-size="10.00">&#45;cbmc/diffblue&#45;cbmc/src</text>
<text text-anchor="middle" x="470.5" y="-85.5" font-family="Helvetica,sans-Serif" font-size="10.00">/cprover/endianness_map_wide.cpp</text>
</a>
</g>
</g>
<!-- Node1&#45;&gt;Node6 -->
<g id="edge5" class="edge">
<title>Node1&#45;&gt;Node6</title>
<path fill="none" stroke="midnightblue" d="M407.26,-150.06C419.9,-140.06 434.12,-128.8 445.86,-119.51"/>
<polygon fill="midnightblue" stroke="midnightblue" points="404.89,-147.48 399.22,-156.43 409.24,-152.97 404.89,-147.48"/>
</g>
<!-- Node3 -->
<g id="node3" class="node">
<title>Node3</title>
<g id="a_node3"><a xlink:href="bv__pointers__wide_8cpp.html" target="_top" xlink:title=" ">
<polygon fill="none" stroke="black" points="0,-0.5 0,-41.5 165,-41.5 165,-0.5 0,-0.5"/>
<text text-anchor="start" x="8" y="-29.5" font-family="Helvetica,sans-Serif" font-size="10.00">/home/runner/work/diffblue</text>
<text text-anchor="start" x="8" y="-18.5" font-family="Helvetica,sans-Serif" font-size="10.00">&#45;cbmc/diffblue&#45;cbmc/src</text>
<text text-anchor="middle" x="82.5" y="-7.5" font-family="Helvetica,sans-Serif" font-size="10.00">/cprover/bv_pointers_wide.cpp</text>
</a>
</g>
</g>
<!-- Node2&#45;&gt;Node3 -->
<g id="edge2" class="edge">
<title>Node2&#45;&gt;Node3</title>
<path fill="none" stroke="midnightblue" d="M219.23,-74.75C191.65,-64.11 159.34,-51.65 133.06,-41.51"/>
<polygon fill="midnightblue" stroke="midnightblue" points="218.18,-78.09 228.77,-78.43 220.7,-71.56 218.18,-78.09"/>
</g>
<!-- Node4 -->
<g id="node4" class="node">
<title>Node4</title>
<g id="a_node4"><a xlink:href="counterexample__found_8cpp.html" target="_top" xlink:title="Counterexample Found.">
<polygon fill="none" stroke="black" points="183.5,-0.5 183.5,-41.5 375.5,-41.5 375.5,-0.5 183.5,-0.5"/>
<text text-anchor="start" x="191.5" y="-29.5" font-family="Helvetica,sans-Serif" font-size="10.00">/home/runner/work/diffblue</text>
<text text-anchor="start" x="191.5" y="-18.5" font-family="Helvetica,sans-Serif" font-size="10.00">&#45;cbmc/diffblue&#45;cbmc/src</text>
<text text-anchor="middle" x="279.5" y="-7.5" font-family="Helvetica,sans-Serif" font-size="10.00">/cprover/counterexample_found.cpp</text>
</a>
</g>
</g>
<!-- Node2&#45;&gt;Node4 -->
<g id="edge3" class="edge">
<title>Node2&#45;&gt;Node4</title>
<path fill="none" stroke="midnightblue" d="M279.5,-68.3C279.5,-59.3 279.5,-49.65 279.5,-41.51"/>
<polygon fill="midnightblue" stroke="midnightblue" points="276,-68.43 279.5,-78.43 283,-68.43 276,-68.43"/>
</g>
<!-- Node5 -->
<g id="node5" class="node">
<title>Node5</title>
<g id="a_node5"><a xlink:href="inductiveness_8cpp.html" target="_top" xlink:title="Inductiveness.">
<polygon fill="none" stroke="black" points="394,-0.5 394,-41.5 543,-41.5 543,-0.5 394,-0.5"/>
<text text-anchor="start" x="402" y="-29.5" font-family="Helvetica,sans-Serif" font-size="10.00">/home/runner/work/diffblue</text>
<text text-anchor="start" x="402" y="-18.5" font-family="Helvetica,sans-Serif" font-size="10.00">&#45;cbmc/diffblue&#45;cbmc/src</text>
<text text-anchor="middle" x="468.5" y="-7.5" font-family="Helvetica,sans-Serif" font-size="10.00">/cprover/inductiveness.cpp</text>
</a>
</g>
</g>
<!-- Node2&#45;&gt;Node5 -->
<g id="edge4" class="edge">
<title>Node2&#45;&gt;Node5</title>
<path fill="none" stroke="midnightblue" d="M337.67,-74.61C364.05,-64 394.89,-51.6 419.99,-41.51"/>
<polygon fill="midnightblue" stroke="midnightblue" points="336.14,-71.45 328.17,-78.43 338.76,-77.94 336.14,-71.45"/>
</g>
</g>
</svg>
