<?xml version="1.0" encoding="UTF-8" standalone="no"?>
<!DOCTYPE svg PUBLIC "-//W3C//DTD SVG 1.1//EN"
 "http://www.w3.org/Graphics/SVG/1.1/DTD/svg11.dtd">
<!-- Generated by graphviz version 2.43.0 (0)
 -->
<!-- Title: /home/runner/work/diffblue&#45;cbmc/diffblue&#45;cbmc/src/cprover/equality_propagation.h Pages: 1 -->
<svg width="364pt" height="128pt"
 viewBox="0.00 0.00 363.50 128.00" xmlns="http://www.w3.org/2000/svg" xmlns:xlink="http://www.w3.org/1999/xlink">
<g id="graph0" class="graph" transform="scale(1 1) rotate(0) translate(4 124)">
<title>/home/runner/work/diffblue&#45;cbmc/diffblue&#45;cbmc/src/cprover/equality_propagation.h</title>
<!-- Node1 -->
<g id="node1" class="node">
<title>Node1</title>
<g id="a_node1"><a xlink:title="Equality Propagation.">
<polygon fill="#bfbfbf" stroke="black" points="98.5,-78.5 98.5,-119.5 270.5,-119.5 270.5,-78.5 98.5,-78.5"/>
<text text-anchor="start" x="106.5" y="-107.5" font-family="Helvetica,sans-Serif" font-size="10.00">/home/runner/work/diffblue</text>
<text text-anchor="start" x="106.5" y="-96.5" font-family="Helvetica,sans-Serif" font-size="10.00">&#45;cbmc/diffblue&#45;cbmc/src</text>
<text text-anchor="middle" x="184.5" y="-85.5" font-family="Helvetica,sans-Serif" font-size="10.00">/cprover/equality_propagation.h</text>
</a>
</g>
</g>
<!-- Node2 -->
<g id="node2" class="node">
<title>Node2</title>
<g id="a_node2"><a xlink:href="equality__propagation_8cpp.html" target="_top" xlink:title="Equality Propagation.">
<polygon fill="none" stroke="black" points="0,-0.5 0,-41.5 183,-41.5 183,-0.5 0,-0.5"/>
<text text-anchor="start" x="8" y="-29.5" font-family="Helvetica,sans-Serif" font-size="10.00">/home/runner/work/diffblue</text>
<text text-anchor="start" x="8" y="-18.5" font-family="Helvetica,sans-Serif" font-size="10.00">&#45;cbmc/diffblue&#45;cbmc/src</text>
<text text-anchor="middle" x="91.5" y="-7.5" font-family="Helvetica,sans-Serif" font-size="10.00">/cprover/equality_propagation.cpp</text>
</a>
</g>
</g>
<!-- Node1&#45;&gt;Node2 -->
<g id="edge1" class="edge">
<title>Node1&#45;&gt;Node2</title>
<path fill="none" stroke="midnightblue" d="M152.76,-72.06C140.52,-62.06 126.75,-50.8 115.37,-41.51"/>
<polygon fill="midnightblue" stroke="midnightblue" points="150.59,-74.81 160.55,-78.43 155.02,-69.39 150.59,-74.81"/>
</g>
<!-- Node3 -->
<g id="node3" class="node">
<title>Node3</title>
<g id="a_node3"><a xlink:href="state__encoding_8cpp.html" target="_top" xlink:title=" ">
<polygon fill="none" stroke="black" points="201.5,-0.5 201.5,-41.5 355.5,-41.5 355.5,-0.5 201.5,-0.5"/>
<text text-anchor="start" x="209.5" y="-29.5" font-family="Helvetica,sans-Serif" font-size="10.00">/home/runner/work/diffblue</text>
<text text-anchor="start" x="209.5" y="-18.5" font-family="Helvetica,sans-Serif" font-size="10.00">&#45;cbmc/diffblue&#45;cbmc/src</text>
<text text-anchor="middle" x="278.5" y="-7.5" font-family="Helvetica,sans-Serif" font-size="10.00">/cprover/state_encoding.cpp</text>
</a>
</g>
</g>
<!-- Node1&#45;&gt;Node3 -->
<g id="edge2" class="edge">
<title>Node1&#45;&gt;Node3</title>
<path fill="none" stroke="midnightblue" d="M216.58,-72.06C228.96,-62.06 242.87,-50.8 254.37,-41.51"/>
<polygon fill="midnightblue" stroke="midnightblue" points="214.28,-69.42 208.71,-78.43 218.68,-74.86 214.28,-69.42"/>
</g>
</g>
</svg>
