<?xml version="1.0" encoding="UTF-8" standalone="no"?>
<!DOCTYPE svg PUBLIC "-//W3C//DTD SVG 1.1//EN"
 "http://www.w3.org/Graphics/SVG/1.1/DTD/svg11.dtd">
<!-- Generated by graphviz version 2.43.0 (0)
 -->
<!-- Title: /home/runner/work/diffblue&#45;cbmc/diffblue&#45;cbmc/src/solvers/strings/equation_symbol_mapping.h Pages: 1 -->
<svg width="376pt" height="150pt"
 viewBox="0.00 0.00 375.50 150.00" xmlns="http://www.w3.org/2000/svg" xmlns:xlink="http://www.w3.org/1999/xlink">
<g id="graph0" class="graph" transform="scale(1 1) rotate(0) translate(4 146)">
<title>/home/runner/work/diffblue&#45;cbmc/diffblue&#45;cbmc/src/solvers/strings/equation_symbol_mapping.h</title>
<!-- Node1 -->
<g id="node1" class="node">
<title>Node1</title>
<g id="a_node1"><a xlink:title=" ">
<polygon fill="#bfbfbf" stroke="black" points="96,-89.5 96,-141.5 245,-141.5 245,-89.5 96,-89.5"/>
<text text-anchor="start" x="104" y="-129.5" font-family="Helvetica,sans-Serif" font-size="10.00">/home/runner/work/diffblue</text>
<text text-anchor="start" x="104" y="-118.5" font-family="Helvetica,sans-Serif" font-size="10.00">&#45;cbmc/diffblue&#45;cbmc/src</text>
<text text-anchor="start" x="104" y="-107.5" font-family="Helvetica,sans-Serif" font-size="10.00">/solvers/strings/equation</text>
<text text-anchor="middle" x="170.5" y="-96.5" font-family="Helvetica,sans-Serif" font-size="10.00">_symbol_mapping.h</text>
</a>
</g>
</g>
<!-- Node2 -->
<g id="node2" class="node">
<title>Node2</title>
<g id="a_node2"><a xlink:href="equation__symbol__mapping_8cpp.html" target="_top" xlink:title=" ">
<polygon fill="none" stroke="black" points="0,-0.5 0,-52.5 149,-52.5 149,-0.5 0,-0.5"/>
<text text-anchor="start" x="8" y="-40.5" font-family="Helvetica,sans-Serif" font-size="10.00">/home/runner/work/diffblue</text>
<text text-anchor="start" x="8" y="-29.5" font-family="Helvetica,sans-Serif" font-size="10.00">&#45;cbmc/diffblue&#45;cbmc/src</text>
<text text-anchor="start" x="8" y="-18.5" font-family="Helvetica,sans-Serif" font-size="10.00">/solvers/strings/equation</text>
<text text-anchor="middle" x="74.5" y="-7.5" font-family="Helvetica,sans-Serif" font-size="10.00">_symbol_mapping.cpp</text>
</a>
</g>
</g>
<!-- Node1&#45;&gt;Node2 -->
<g id="edge1" class="edge">
<title>Node1&#45;&gt;Node2</title>
<path fill="none" stroke="midnightblue" d="M135.04,-82.36C124.2,-72.54 112.45,-61.89 102.2,-52.61"/>
<polygon fill="midnightblue" stroke="midnightblue" points="132.97,-85.21 142.73,-89.34 137.67,-80.03 132.97,-85.21"/>
</g>
<!-- Node3 -->
<g id="node3" class="node">
<title>Node3</title>
<g id="a_node3"><a xlink:href="string__refinement_8cpp.html" target="_top" xlink:title="String support via creating string constraints and progressively instantiating the universal constrai...">
<polygon fill="none" stroke="black" points="167.5,-6 167.5,-47 367.5,-47 367.5,-6 167.5,-6"/>
<text text-anchor="start" x="175.5" y="-35" font-family="Helvetica,sans-Serif" font-size="10.00">/home/runner/work/diffblue</text>
<text text-anchor="start" x="175.5" y="-24" font-family="Helvetica,sans-Serif" font-size="10.00">&#45;cbmc/diffblue&#45;cbmc/src</text>
<text text-anchor="middle" x="267.5" y="-13" font-family="Helvetica,sans-Serif" font-size="10.00">/solvers/strings/string_refinement.cpp</text>
</a>
</g>
</g>
<!-- Node1&#45;&gt;Node3 -->
<g id="edge2" class="edge">
<title>Node1&#45;&gt;Node3</title>
<path fill="none" stroke="midnightblue" d="M206.16,-82.51C219.4,-70.64 234.02,-57.53 245.67,-47.08"/>
<polygon fill="midnightblue" stroke="midnightblue" points="203.66,-80.05 198.56,-89.34 208.34,-85.26 203.66,-80.05"/>
</g>
</g>
</svg>
