<?xml version="1.0" encoding="UTF-8" standalone="no"?>
<!DOCTYPE svg PUBLIC "-//W3C//DTD SVG 1.1//EN"
 "http://www.w3.org/Graphics/SVG/1.1/DTD/svg11.dtd">
<!-- Generated by graphviz version 2.43.0 (0)
 -->
<!-- Title: /home/runner/work/diffblue&#45;cbmc/diffblue&#45;cbmc/src/goto&#45;instrument/wmm/event_graph.h Pages: 1 -->
<svg width="992pt" height="239pt"
 viewBox="0.00 0.00 992.00 239.00" xmlns="http://www.w3.org/2000/svg" xmlns:xlink="http://www.w3.org/1999/xlink">
<g id="graph0" class="graph" transform="scale(1 1) rotate(0) translate(4 235)">
<title>/home/runner/work/diffblue&#45;cbmc/diffblue&#45;cbmc/src/goto&#45;instrument/wmm/event_graph.h</title>
<!-- Node1 -->
<g id="node1" class="node">
<title>Node1</title>
<g id="a_node1"><a xlink:title="graph of abstract events">
<polygon fill="#bfbfbf" stroke="black" points="284,-178.5 284,-230.5 444,-230.5 444,-178.5 284,-178.5"/>
<text text-anchor="start" x="292" y="-218.5" font-family="Helvetica,sans-Serif" font-size="10.00">/home/runner/work/diffblue</text>
<text text-anchor="start" x="292" y="-207.5" font-family="Helvetica,sans-Serif" font-size="10.00">&#45;cbmc/diffblue&#45;cbmc/src</text>
<text text-anchor="start" x="292" y="-196.5" font-family="Helvetica,sans-Serif" font-size="10.00">/goto&#45;instrument/wmm/event</text>
<text text-anchor="middle" x="364" y="-185.5" font-family="Helvetica,sans-Serif" font-size="10.00">_graph.h</text>
</a>
</g>
</g>
<!-- Node2 -->
<g id="node2" class="node">
<title>Node2</title>
<g id="a_node2"><a xlink:href="cycle__collection_8cpp.html" target="_top" xlink:title="collection of cycles in graph of abstract events">
<polygon fill="none" stroke="black" points="0,-89.5 0,-141.5 158,-141.5 158,-89.5 0,-89.5"/>
<text text-anchor="start" x="8" y="-129.5" font-family="Helvetica,sans-Serif" font-size="10.00">/home/runner/work/diffblue</text>
<text text-anchor="start" x="8" y="-118.5" font-family="Helvetica,sans-Serif" font-size="10.00">&#45;cbmc/diffblue&#45;cbmc/src</text>
<text text-anchor="start" x="8" y="-107.5" font-family="Helvetica,sans-Serif" font-size="10.00">/goto&#45;instrument/wmm/cycle</text>
<text text-anchor="middle" x="79" y="-96.5" font-family="Helvetica,sans-Serif" font-size="10.00">_collection.cpp</text>
</a>
</g>
</g>
<!-- Node1&#45;&gt;Node2 -->
<g id="edge1" class="edge">
<title>Node1&#45;&gt;Node2</title>
<path fill="none" stroke="midnightblue" d="M274.02,-176.03C236.81,-164.67 194.04,-151.62 158.05,-140.63"/>
<polygon fill="midnightblue" stroke="midnightblue" points="273.27,-179.46 283.85,-179.03 275.31,-172.77 273.27,-179.46"/>
</g>
<!-- Node3 -->
<g id="node3" class="node">
<title>Node3</title>
<g id="a_node3"><a xlink:href="event__graph_8cpp.html" target="_top" xlink:title="graph of abstract events">
<polygon fill="none" stroke="black" points="176,-89.5 176,-141.5 336,-141.5 336,-89.5 176,-89.5"/>
<text text-anchor="start" x="184" y="-129.5" font-family="Helvetica,sans-Serif" font-size="10.00">/home/runner/work/diffblue</text>
<text text-anchor="start" x="184" y="-118.5" font-family="Helvetica,sans-Serif" font-size="10.00">&#45;cbmc/diffblue&#45;cbmc/src</text>
<text text-anchor="start" x="184" y="-107.5" font-family="Helvetica,sans-Serif" font-size="10.00">/goto&#45;instrument/wmm/event</text>
<text text-anchor="middle" x="256" y="-96.5" font-family="Helvetica,sans-Serif" font-size="10.00">_graph.cpp</text>
</a>
</g>
</g>
<!-- Node1&#45;&gt;Node3 -->
<g id="edge2" class="edge">
<title>Node1&#45;&gt;Node3</title>
<path fill="none" stroke="midnightblue" d="M324.81,-171.93C312.43,-161.96 298.91,-151.07 287.17,-141.61"/>
<polygon fill="midnightblue" stroke="midnightblue" points="322.78,-174.79 332.76,-178.34 327.17,-169.34 322.78,-174.79"/>
</g>
<!-- Node4 -->
<g id="node4" class="node">
<title>Node4</title>
<g id="a_node4"><a xlink:href="goto2graph_8h.html" target="_top" xlink:title="Instrumenter.">
<polygon fill="none" stroke="black" points="392.5,-95 392.5,-136 589.5,-136 589.5,-95 392.5,-95"/>
<text text-anchor="start" x="400.5" y="-124" font-family="Helvetica,sans-Serif" font-size="10.00">/home/runner/work/diffblue</text>
<text text-anchor="start" x="400.5" y="-113" font-family="Helvetica,sans-Serif" font-size="10.00">&#45;cbmc/diffblue&#45;cbmc/src</text>
<text text-anchor="middle" x="491" y="-102" font-family="Helvetica,sans-Serif" font-size="10.00">/goto&#45;instrument/wmm/goto2graph.h</text>
</a>
</g>
</g>
<!-- Node1&#45;&gt;Node4 -->
<g id="edge3" class="edge">
<title>Node1&#45;&gt;Node4</title>
<path fill="none" stroke="midnightblue" d="M409.24,-172.51C426.95,-160.37 446.74,-146.82 462.41,-136.08"/>
<polygon fill="midnightblue" stroke="midnightblue" points="407.01,-169.8 400.73,-178.34 410.96,-175.57 407.01,-169.8"/>
</g>
<!-- Node6 -->
<g id="node6" class="node">
<title>Node6</title>
<g id="a_node6"><a xlink:href="instrumenter__pensieve_8h.html" target="_top" xlink:title="Instrumenter.">
<polygon fill="none" stroke="black" points="173.5,-0.5 173.5,-52.5 368.5,-52.5 368.5,-0.5 173.5,-0.5"/>
<text text-anchor="start" x="181.5" y="-40.5" font-family="Helvetica,sans-Serif" font-size="10.00">/home/runner/work/diffblue</text>
<text text-anchor="start" x="181.5" y="-29.5" font-family="Helvetica,sans-Serif" font-size="10.00">&#45;cbmc/diffblue&#45;cbmc/src</text>
<text text-anchor="start" x="181.5" y="-18.5" font-family="Helvetica,sans-Serif" font-size="10.00">/goto&#45;instrument/wmm/instrumenter</text>
<text text-anchor="middle" x="271" y="-7.5" font-family="Helvetica,sans-Serif" font-size="10.00">_pensieve.h</text>
</a>
</g>
</g>
<!-- Node1&#45;&gt;Node6 -->
<g id="edge8" class="edge">
<title>Node1&#45;&gt;Node6</title>
<path fill="none" stroke="midnightblue" d="M364.42,-168.13C363.26,-144.34 358.8,-113.05 345,-89 336.85,-74.8 324.1,-62.46 311.46,-52.64"/>
<polygon fill="midnightblue" stroke="midnightblue" points="360.93,-168.27 364.74,-178.15 367.92,-168.04 360.93,-168.27"/>
</g>
<!-- Node9 -->
<g id="node9" class="node">
<title>Node9</title>
<g id="a_node9"><a xlink:href="pair__collection_8cpp.html" target="_top" xlink:title="collection of pairs (for Pensieve&#39;s static delay&#45;set analysis) in graph of abstract events">
<polygon fill="none" stroke="black" points="607.5,-89.5 607.5,-141.5 758.5,-141.5 758.5,-89.5 607.5,-89.5"/>
<text text-anchor="start" x="615.5" y="-129.5" font-family="Helvetica,sans-Serif" font-size="10.00">/home/runner/work/diffblue</text>
<text text-anchor="start" x="615.5" y="-118.5" font-family="Helvetica,sans-Serif" font-size="10.00">&#45;cbmc/diffblue&#45;cbmc/src</text>
<text text-anchor="start" x="615.5" y="-107.5" font-family="Helvetica,sans-Serif" font-size="10.00">/goto&#45;instrument/wmm/pair</text>
<text text-anchor="middle" x="683" y="-96.5" font-family="Helvetica,sans-Serif" font-size="10.00">_collection.cpp</text>
</a>
</g>
</g>
<!-- Node1&#45;&gt;Node9 -->
<g id="edge9" class="edge">
<title>Node1&#45;&gt;Node9</title>
<path fill="none" stroke="midnightblue" d="M453.93,-180.84C497.8,-169.56 551.27,-155.48 599,-142 601.79,-141.21 604.62,-140.4 607.48,-139.58"/>
<polygon fill="midnightblue" stroke="midnightblue" points="452.97,-177.47 444.15,-183.34 454.71,-184.25 452.97,-177.47"/>
</g>
<!-- Node5 -->
<g id="node5" class="node">
<title>Node5</title>
<g id="a_node5"><a xlink:href="goto2graph_8cpp.html" target="_top" xlink:title="Turns a goto&#45;program into an abstract event graph.">
<polygon fill="none" stroke="black" points="387,-6 387,-47 595,-47 595,-6 387,-6"/>
<text text-anchor="start" x="395" y="-35" font-family="Helvetica,sans-Serif" font-size="10.00">/home/runner/work/diffblue</text>
<text text-anchor="start" x="395" y="-24" font-family="Helvetica,sans-Serif" font-size="10.00">&#45;cbmc/diffblue&#45;cbmc/src</text>
<text text-anchor="middle" x="491" y="-13" font-family="Helvetica,sans-Serif" font-size="10.00">/goto&#45;instrument/wmm/goto2graph.cpp</text>
</a>
</g>
</g>
<!-- Node4&#45;&gt;Node5 -->
<g id="edge4" class="edge">
<title>Node4&#45;&gt;Node5</title>
<path fill="none" stroke="midnightblue" d="M491,-84.44C491,-72.1 491,-58.16 491,-47.16"/>
<polygon fill="midnightblue" stroke="midnightblue" points="487.5,-84.76 491,-94.76 494.5,-84.76 487.5,-84.76"/>
</g>
<!-- Node4&#45;&gt;Node6 -->
<g id="edge5" class="edge">
<title>Node4&#45;&gt;Node6</title>
<path fill="none" stroke="midnightblue" d="M432.09,-91.2C401.94,-79.28 365.2,-64.75 334.43,-52.58"/>
<polygon fill="midnightblue" stroke="midnightblue" points="431.04,-94.55 441.63,-94.98 433.62,-88.04 431.04,-94.55"/>
</g>
<!-- Node7 -->
<g id="node7" class="node">
<title>Node7</title>
<g id="a_node7"><a xlink:href="instrumenter__strategies_8cpp.html" target="_top" xlink:title="Strategies for picking the abstract events to instrument.">
<polygon fill="none" stroke="black" points="613.5,-0.5 613.5,-52.5 808.5,-52.5 808.5,-0.5 613.5,-0.5"/>
<text text-anchor="start" x="621.5" y="-40.5" font-family="Helvetica,sans-Serif" font-size="10.00">/home/runner/work/diffblue</text>
<text text-anchor="start" x="621.5" y="-29.5" font-family="Helvetica,sans-Serif" font-size="10.00">&#45;cbmc/diffblue&#45;cbmc/src</text>
<text text-anchor="start" x="621.5" y="-18.5" font-family="Helvetica,sans-Serif" font-size="10.00">/goto&#45;instrument/wmm/instrumenter</text>
<text text-anchor="middle" x="711" y="-7.5" font-family="Helvetica,sans-Serif" font-size="10.00">_strategies.cpp</text>
</a>
</g>
</g>
<!-- Node4&#45;&gt;Node7 -->
<g id="edge6" class="edge">
<title>Node4&#45;&gt;Node7</title>
<path fill="none" stroke="midnightblue" d="M549.91,-91.2C580.06,-79.28 616.8,-64.75 647.57,-52.58"/>
<polygon fill="midnightblue" stroke="midnightblue" points="548.38,-88.04 540.37,-94.98 550.96,-94.55 548.38,-88.04"/>
</g>
<!-- Node8 -->
<g id="node8" class="node">
<title>Node8</title>
<g id="a_node8"><a xlink:href="weak__memory_8cpp.html" target="_top" xlink:title="Weak Memory Instrumentation for Threaded Goto Programs.">
<polygon fill="none" stroke="black" points="826,-0.5 826,-52.5 984,-52.5 984,-0.5 826,-0.5"/>
<text text-anchor="start" x="834" y="-40.5" font-family="Helvetica,sans-Serif" font-size="10.00">/home/runner/work/diffblue</text>
<text text-anchor="start" x="834" y="-29.5" font-family="Helvetica,sans-Serif" font-size="10.00">&#45;cbmc/diffblue&#45;cbmc/src</text>
<text text-anchor="start" x="834" y="-18.5" font-family="Helvetica,sans-Serif" font-size="10.00">/goto&#45;instrument/wmm/weak</text>
<text text-anchor="middle" x="905" y="-7.5" font-family="Helvetica,sans-Serif" font-size="10.00">_memory.cpp</text>
</a>
</g>
</g>
<!-- Node4&#45;&gt;Node8 -->
<g id="edge7" class="edge">
<title>Node4&#45;&gt;Node8</title>
<path fill="none" stroke="midnightblue" d="M581.21,-92.71C587.22,-91.41 593.19,-90.16 599,-89 695.72,-69.66 721.83,-74.91 818,-53 820.61,-52.41 823.25,-51.78 825.92,-51.12"/>
<polygon fill="midnightblue" stroke="midnightblue" points="580.09,-89.38 571.07,-94.95 581.59,-96.21 580.09,-89.38"/>
</g>
</g>
</svg>
