<?xml version="1.0" encoding="UTF-8" standalone="no"?>
<!DOCTYPE svg PUBLIC "-//W3C//DTD SVG 1.1//EN"
 "http://www.w3.org/Graphics/SVG/1.1/DTD/svg11.dtd">
<!-- Generated by graphviz version 2.43.0 (0)
 -->
<!-- Title: /home/runner/work/diffblue&#45;cbmc/diffblue&#45;cbmc/src/util/exit_codes.h Pages: 1 -->
<svg width="3649pt" height="139pt"
 viewBox="0.00 0.00 3649.00 139.00" xmlns="http://www.w3.org/2000/svg" xmlns:xlink="http://www.w3.org/1999/xlink">
<g id="graph0" class="graph" transform="scale(1 1) rotate(0) translate(4 135)">
<title>/home/runner/work/diffblue&#45;cbmc/diffblue&#45;cbmc/src/util/exit_codes.h</title>
<!-- Node1 -->
<g id="node1" class="node">
<title>Node1</title>
<g id="a_node1"><a xlink:title="Document and give macros for the exit codes of CPROVER binaries.">
<polygon fill="#bfbfbf" stroke="black" points="1703,-89.5 1703,-130.5 1852,-130.5 1852,-89.5 1703,-89.5"/>
<text text-anchor="start" x="1711" y="-118.5" font-family="Helvetica,sans-Serif" font-size="10.00">/home/runner/work/diffblue</text>
<text text-anchor="start" x="1711" y="-107.5" font-family="Helvetica,sans-Serif" font-size="10.00">&#45;cbmc/diffblue&#45;cbmc/src</text>
<text text-anchor="middle" x="1777.5" y="-96.5" font-family="Helvetica,sans-Serif" font-size="10.00">/util/exit_codes.h</text>
</a>
</g>
</g>
<!-- Node2 -->
<g id="node2" class="node">
<title>Node2</title>
<g id="a_node2"><a xlink:href="cbmc__parse__options_8cpp.html" target="_top" xlink:title="CBMC Command Line Option Processing.">
<polygon fill="none" stroke="black" points="0,-6 0,-47 169,-47 169,-6 0,-6"/>
<text text-anchor="start" x="8" y="-35" font-family="Helvetica,sans-Serif" font-size="10.00">/home/runner/work/diffblue</text>
<text text-anchor="start" x="8" y="-24" font-family="Helvetica,sans-Serif" font-size="10.00">&#45;cbmc/diffblue&#45;cbmc/src</text>
<text text-anchor="middle" x="84.5" y="-13" font-family="Helvetica,sans-Serif" font-size="10.00">/cbmc/cbmc_parse_options.cpp</text>
</a>
</g>
</g>
<!-- Node1&#45;&gt;Node2 -->
<g id="edge1" class="edge">
<title>Node1&#45;&gt;Node2</title>
<path fill="none" stroke="midnightblue" d="M1692.67,-108.6C1405.97,-106.84 474.56,-97.73 178.5,-53 168.8,-51.53 158.67,-49.42 148.81,-47.04"/>
<polygon fill="midnightblue" stroke="midnightblue" points="1692.98,-112.1 1703,-108.66 1693.02,-105.1 1692.98,-112.1"/>
</g>
<!-- Node3 -->
<g id="node3" class="node">
<title>Node3</title>
<g id="a_node3"><a xlink:href="cprover__parse__options_8cpp.html" target="_top" xlink:title="cprover Command Line Options Processing">
<polygon fill="none" stroke="black" points="187.5,-6 187.5,-47 377.5,-47 377.5,-6 187.5,-6"/>
<text text-anchor="start" x="195.5" y="-35" font-family="Helvetica,sans-Serif" font-size="10.00">/home/runner/work/diffblue</text>
<text text-anchor="start" x="195.5" y="-24" font-family="Helvetica,sans-Serif" font-size="10.00">&#45;cbmc/diffblue&#45;cbmc/src</text>
<text text-anchor="middle" x="282.5" y="-13" font-family="Helvetica,sans-Serif" font-size="10.00">/cprover/cprover_parse_options.cpp</text>
</a>
</g>
</g>
<!-- Node1&#45;&gt;Node3 -->
<g id="edge2" class="edge">
<title>Node1&#45;&gt;Node3</title>
<path fill="none" stroke="midnightblue" d="M1692.82,-107.81C1431.62,-103.8 640.81,-88.93 386.5,-53 375.92,-51.5 364.84,-49.39 354.03,-47.02"/>
<polygon fill="midnightblue" stroke="midnightblue" points="1692.95,-111.31 1703,-107.97 1693.05,-104.32 1692.95,-111.31"/>
</g>
<!-- Node4 -->
<g id="node4" class="node">
<title>Node4</title>
<g id="a_node4"><a xlink:href="crangler__parse__options_8cpp.html" target="_top" xlink:title="CRANGLER Command Line Option Processing.">
<polygon fill="none" stroke="black" points="396,-0.5 396,-52.5 545,-52.5 545,-0.5 396,-0.5"/>
<text text-anchor="start" x="404" y="-40.5" font-family="Helvetica,sans-Serif" font-size="10.00">/home/runner/work/diffblue</text>
<text text-anchor="start" x="404" y="-29.5" font-family="Helvetica,sans-Serif" font-size="10.00">&#45;cbmc/diffblue&#45;cbmc/src</text>
<text text-anchor="start" x="404" y="-18.5" font-family="Helvetica,sans-Serif" font-size="10.00">/crangler/crangler_parse</text>
<text text-anchor="middle" x="470.5" y="-7.5" font-family="Helvetica,sans-Serif" font-size="10.00">_options.cpp</text>
</a>
</g>
</g>
<!-- Node1&#45;&gt;Node4 -->
<g id="edge3" class="edge">
<title>Node1&#45;&gt;Node4</title>
<path fill="none" stroke="midnightblue" d="M1692.72,-107.9C1452.92,-104.35 773.03,-91.11 553.5,-53 550.83,-52.54 548.12,-52.01 545.39,-51.44"/>
<polygon fill="midnightblue" stroke="midnightblue" points="1692.73,-111.4 1702.78,-108.05 1692.83,-104.4 1692.73,-111.4"/>
</g>
<!-- Node5 -->
<g id="node5" class="node">
<title>Node5</title>
<g id="a_node5"><a xlink:href="goto__analyzer__parse__options_8cpp.html" target="_top" xlink:title="Goto&#45;Analyser Command Line Option Processing.">
<polygon fill="none" stroke="black" points="563,-0.5 563,-52.5 722,-52.5 722,-0.5 563,-0.5"/>
<text text-anchor="start" x="571" y="-40.5" font-family="Helvetica,sans-Serif" font-size="10.00">/home/runner/work/diffblue</text>
<text text-anchor="start" x="571" y="-29.5" font-family="Helvetica,sans-Serif" font-size="10.00">&#45;cbmc/diffblue&#45;cbmc/src</text>
<text text-anchor="start" x="571" y="-18.5" font-family="Helvetica,sans-Serif" font-size="10.00">/goto&#45;analyzer/goto_analyzer</text>
<text text-anchor="middle" x="642.5" y="-7.5" font-family="Helvetica,sans-Serif" font-size="10.00">_parse_options.cpp</text>
</a>
</g>
</g>
<!-- Node1&#45;&gt;Node5 -->
<g id="edge4" class="edge">
<title>Node1&#45;&gt;Node5</title>
<path fill="none" stroke="midnightblue" d="M1692.52,-106.96C1477.3,-101.39 914.81,-84.21 730.5,-53 727.83,-52.55 725.13,-52.04 722.42,-51.5"/>
<polygon fill="midnightblue" stroke="midnightblue" points="1692.72,-110.46 1702.81,-107.22 1692.9,-103.47 1692.72,-110.46"/>
</g>
<!-- Node6 -->
<g id="node6" class="node">
<title>Node6</title>
<g id="a_node6"><a xlink:href="goto__bmc__parse__options_8cpp.html" target="_top" xlink:title=" ">
<polygon fill="none" stroke="black" points="740,-0.5 740,-52.5 889,-52.5 889,-0.5 740,-0.5"/>
<text text-anchor="start" x="748" y="-40.5" font-family="Helvetica,sans-Serif" font-size="10.00">/home/runner/work/diffblue</text>
<text text-anchor="start" x="748" y="-29.5" font-family="Helvetica,sans-Serif" font-size="10.00">&#45;cbmc/diffblue&#45;cbmc/src</text>
<text text-anchor="start" x="748" y="-18.5" font-family="Helvetica,sans-Serif" font-size="10.00">/goto&#45;bmc/goto_bmc_parse</text>
<text text-anchor="middle" x="814.5" y="-7.5" font-family="Helvetica,sans-Serif" font-size="10.00">_options.cpp</text>
</a>
</g>
</g>
<!-- Node1&#45;&gt;Node6 -->
<g id="edge5" class="edge">
<title>Node1&#45;&gt;Node6</title>
<path fill="none" stroke="midnightblue" d="M1692.46,-106.13C1502.47,-99.31 1048.42,-80.59 897.5,-53 894.83,-52.51 892.13,-51.97 889.41,-51.37"/>
<polygon fill="midnightblue" stroke="midnightblue" points="1692.56,-109.64 1702.67,-106.49 1692.81,-102.64 1692.56,-109.64"/>
</g>
<!-- Node7 -->
<g id="node7" class="node">
<title>Node7</title>
<g id="a_node7"><a xlink:href="properties_8cpp.html" target="_top" xlink:title="Properties.">
<polygon fill="none" stroke="black" points="907,-6 907,-47 1062,-47 1062,-6 907,-6"/>
<text text-anchor="start" x="915" y="-35" font-family="Helvetica,sans-Serif" font-size="10.00">/home/runner/work/diffblue</text>
<text text-anchor="start" x="915" y="-24" font-family="Helvetica,sans-Serif" font-size="10.00">&#45;cbmc/diffblue&#45;cbmc/src</text>
<text text-anchor="middle" x="984.5" y="-13" font-family="Helvetica,sans-Serif" font-size="10.00">/goto&#45;checker/properties.cpp</text>
</a>
</g>
</g>
<!-- Node1&#45;&gt;Node7 -->
<g id="edge6" class="edge">
<title>Node1&#45;&gt;Node7</title>
<path fill="none" stroke="midnightblue" d="M1692.76,-107.9C1559.48,-104.9 1293.21,-93.83 1071.5,-53 1062.99,-51.43 1054.12,-49.36 1045.43,-47.07"/>
<polygon fill="midnightblue" stroke="midnightblue" points="1692.83,-111.4 1702.9,-108.11 1692.98,-104.4 1692.83,-111.4"/>
</g>
<!-- Node8 -->
<g id="node8" class="node">
<title>Node8</title>
<g id="a_node8"><a xlink:href="solver__factory_8cpp.html" target="_top" xlink:title="Solver Factory.">
<polygon fill="none" stroke="black" points="1080.5,-6 1080.5,-47 1254.5,-47 1254.5,-6 1080.5,-6"/>
<text text-anchor="start" x="1088.5" y="-35" font-family="Helvetica,sans-Serif" font-size="10.00">/home/runner/work/diffblue</text>
<text text-anchor="start" x="1088.5" y="-24" font-family="Helvetica,sans-Serif" font-size="10.00">&#45;cbmc/diffblue&#45;cbmc/src</text>
<text text-anchor="middle" x="1167.5" y="-13" font-family="Helvetica,sans-Serif" font-size="10.00">/goto&#45;checker/solver_factory.cpp</text>
</a>
</g>
</g>
<!-- Node1&#45;&gt;Node8 -->
<g id="edge7" class="edge">
<title>Node1&#45;&gt;Node8</title>
<path fill="none" stroke="midnightblue" d="M1692.65,-103.7C1590.28,-96.4 1413.23,-80.88 1263.5,-53 1254.51,-51.33 1245.14,-49.25 1235.91,-47.02"/>
<polygon fill="midnightblue" stroke="midnightblue" points="1692.71,-107.21 1702.93,-104.42 1693.2,-100.23 1692.71,-107.21"/>
</g>
<!-- Node9 -->
<g id="node9" class="node">
<title>Node9</title>
<g id="a_node9"><a xlink:href="goto__diff__parse__options_8cpp.html" target="_top" xlink:title="GOTO&#45;DIFF Command Line Option Processing.">
<polygon fill="none" stroke="black" points="1273,-0.5 1273,-52.5 1422,-52.5 1422,-0.5 1273,-0.5"/>
<text text-anchor="start" x="1281" y="-40.5" font-family="Helvetica,sans-Serif" font-size="10.00">/home/runner/work/diffblue</text>
<text text-anchor="start" x="1281" y="-29.5" font-family="Helvetica,sans-Serif" font-size="10.00">&#45;cbmc/diffblue&#45;cbmc/src</text>
<text text-anchor="start" x="1281" y="-18.5" font-family="Helvetica,sans-Serif" font-size="10.00">/goto&#45;diff/goto_diff_parse</text>
<text text-anchor="middle" x="1347.5" y="-7.5" font-family="Helvetica,sans-Serif" font-size="10.00">_options.cpp</text>
</a>
</g>
</g>
<!-- Node1&#45;&gt;Node9 -->
<g id="edge8" class="edge">
<title>Node1&#45;&gt;Node9</title>
<path fill="none" stroke="midnightblue" d="M1692.54,-98.49C1622.12,-89.01 1519.64,-73.41 1431.5,-53 1428.38,-52.28 1425.21,-51.5 1422.01,-50.69"/>
<polygon fill="midnightblue" stroke="midnightblue" points="1692.32,-101.99 1702.69,-99.85 1693.24,-95.05 1692.32,-101.99"/>
</g>
<!-- Node10 -->
<g id="node10" class="node">
<title>Node10</title>
<g id="a_node10"><a xlink:href="goto__harness__parse__options_8cpp.html" target="_top" xlink:title=" ">
<polygon fill="none" stroke="black" points="1440.5,-0.5 1440.5,-52.5 1592.5,-52.5 1592.5,-0.5 1440.5,-0.5"/>
<text text-anchor="start" x="1448.5" y="-40.5" font-family="Helvetica,sans-Serif" font-size="10.00">/home/runner/work/diffblue</text>
<text text-anchor="start" x="1448.5" y="-29.5" font-family="Helvetica,sans-Serif" font-size="10.00">&#45;cbmc/diffblue&#45;cbmc/src</text>
<text text-anchor="start" x="1448.5" y="-18.5" font-family="Helvetica,sans-Serif" font-size="10.00">/goto&#45;harness/goto_harness</text>
<text text-anchor="middle" x="1516.5" y="-7.5" font-family="Helvetica,sans-Serif" font-size="10.00">_parse_options.cpp</text>
</a>
</g>
</g>
<!-- Node1&#45;&gt;Node10 -->
<g id="edge9" class="edge">
<title>Node1&#45;&gt;Node10</title>
<path fill="none" stroke="midnightblue" d="M1705.33,-86.46C1670.39,-75.55 1628.43,-62.45 1592.95,-51.37"/>
<polygon fill="midnightblue" stroke="midnightblue" points="1704.4,-89.84 1714.98,-89.48 1706.48,-83.16 1704.4,-89.84"/>
</g>
<!-- Node11 -->
<g id="node11" class="node">
<title>Node11</title>
<g id="a_node11"><a xlink:href="goto__inspect__parse__options_8cpp.html" target="_top" xlink:title=" ">
<polygon fill="none" stroke="black" points="1611,-0.5 1611,-52.5 1760,-52.5 1760,-0.5 1611,-0.5"/>
<text text-anchor="start" x="1619" y="-40.5" font-family="Helvetica,sans-Serif" font-size="10.00">/home/runner/work/diffblue</text>
<text text-anchor="start" x="1619" y="-29.5" font-family="Helvetica,sans-Serif" font-size="10.00">&#45;cbmc/diffblue&#45;cbmc/src</text>
<text text-anchor="start" x="1619" y="-18.5" font-family="Helvetica,sans-Serif" font-size="10.00">/goto&#45;inspect/goto_inspect</text>
<text text-anchor="middle" x="1685.5" y="-7.5" font-family="Helvetica,sans-Serif" font-size="10.00">_parse_options.cpp</text>
</a>
</g>
</g>
<!-- Node1&#45;&gt;Node11 -->
<g id="edge10" class="edge">
<title>Node1&#45;&gt;Node11</title>
<path fill="none" stroke="midnightblue" d="M1747.61,-82.52C1736.77,-72.92 1724.55,-62.09 1713.84,-52.61"/>
<polygon fill="midnightblue" stroke="midnightblue" points="1745.42,-85.26 1755.23,-89.27 1750.06,-80.02 1745.42,-85.26"/>
</g>
<!-- Node12 -->
<g id="node12" class="node">
<title>Node12</title>
<g id="a_node12"><a xlink:href="goto__instrument__parse__options_8cpp.html" target="_top" xlink:title="Main Module.">
<polygon fill="none" stroke="black" points="1778.5,-0.5 1778.5,-52.5 1960.5,-52.5 1960.5,-0.5 1778.5,-0.5"/>
<text text-anchor="start" x="1786.5" y="-40.5" font-family="Helvetica,sans-Serif" font-size="10.00">/home/runner/work/diffblue</text>
<text text-anchor="start" x="1786.5" y="-29.5" font-family="Helvetica,sans-Serif" font-size="10.00">&#45;cbmc/diffblue&#45;cbmc/src</text>
<text text-anchor="start" x="1786.5" y="-18.5" font-family="Helvetica,sans-Serif" font-size="10.00">/goto&#45;instrument/goto_instrument</text>
<text text-anchor="middle" x="1869.5" y="-7.5" font-family="Helvetica,sans-Serif" font-size="10.00">_parse_options.cpp</text>
</a>
</g>
</g>
<!-- Node1&#45;&gt;Node12 -->
<g id="edge11" class="edge">
<title>Node1&#45;&gt;Node12</title>
<path fill="none" stroke="midnightblue" d="M1807.39,-82.52C1818.23,-72.92 1830.45,-62.09 1841.16,-52.61"/>
<polygon fill="midnightblue" stroke="midnightblue" points="1804.94,-80.02 1799.77,-89.27 1809.58,-85.26 1804.94,-80.02"/>
</g>
<!-- Node13 -->
<g id="node13" class="node">
<title>Node13</title>
<g id="a_node13"><a xlink:href="path__storage_8cpp.html" target="_top" xlink:title=" ">
<polygon fill="none" stroke="black" points="1979,-6 1979,-47 2144,-47 2144,-6 1979,-6"/>
<text text-anchor="start" x="1987" y="-35" font-family="Helvetica,sans-Serif" font-size="10.00">/home/runner/work/diffblue</text>
<text text-anchor="start" x="1987" y="-24" font-family="Helvetica,sans-Serif" font-size="10.00">&#45;cbmc/diffblue&#45;cbmc/src</text>
<text text-anchor="middle" x="2061.5" y="-13" font-family="Helvetica,sans-Serif" font-size="10.00">/goto&#45;symex/path_storage.cpp</text>
</a>
</g>
</g>
<!-- Node1&#45;&gt;Node13 -->
<g id="edge12" class="edge">
<title>Node1&#45;&gt;Node13</title>
<path fill="none" stroke="midnightblue" d="M1855.17,-86.71C1898.47,-74.28 1951.9,-58.95 1993.54,-47"/>
<polygon fill="midnightblue" stroke="midnightblue" points="1854.17,-83.36 1845.53,-89.48 1856.1,-90.08 1854.17,-83.36"/>
</g>
<!-- Node14 -->
<g id="node14" class="node">
<title>Node14</title>
<g id="a_node14"><a xlink:href="goto__synthesizer__parse__options_8cpp.html" target="_top" xlink:title="Main Module.">
<polygon fill="none" stroke="black" points="2162.5,-0.5 2162.5,-52.5 2350.5,-52.5 2350.5,-0.5 2162.5,-0.5"/>
<text text-anchor="start" x="2170.5" y="-40.5" font-family="Helvetica,sans-Serif" font-size="10.00">/home/runner/work/diffblue</text>
<text text-anchor="start" x="2170.5" y="-29.5" font-family="Helvetica,sans-Serif" font-size="10.00">&#45;cbmc/diffblue&#45;cbmc/src</text>
<text text-anchor="start" x="2170.5" y="-18.5" font-family="Helvetica,sans-Serif" font-size="10.00">/goto&#45;synthesizer/goto_synthesizer</text>
<text text-anchor="middle" x="2256.5" y="-7.5" font-family="Helvetica,sans-Serif" font-size="10.00">_parse_options.cpp</text>
</a>
</g>
</g>
<!-- Node1&#45;&gt;Node14 -->
<g id="edge13" class="edge">
<title>Node1&#45;&gt;Node14</title>
<path fill="none" stroke="midnightblue" d="M1862.11,-98.73C1938.58,-88.9 2054.05,-72.67 2153.5,-53 2156.39,-52.43 2159.32,-51.83 2162.28,-51.21"/>
<polygon fill="midnightblue" stroke="midnightblue" points="1861.53,-95.28 1852.05,-100.02 1862.42,-102.22 1861.53,-95.28"/>
</g>
<!-- Node15 -->
<g id="node15" class="node">
<title>Node15</title>
<g id="a_node15"><a xlink:href="verification__result_8cpp.html" target="_top" xlink:title="Interface for the various verification engines providing results.">
<polygon fill="none" stroke="black" points="2369,-0.5 2369,-52.5 2518,-52.5 2518,-0.5 2369,-0.5"/>
<text text-anchor="start" x="2377" y="-40.5" font-family="Helvetica,sans-Serif" font-size="10.00">/home/runner/work/diffblue</text>
<text text-anchor="start" x="2377" y="-29.5" font-family="Helvetica,sans-Serif" font-size="10.00">&#45;cbmc/diffblue&#45;cbmc/src</text>
<text text-anchor="start" x="2377" y="-18.5" font-family="Helvetica,sans-Serif" font-size="10.00">/libcprover&#45;cpp/verification</text>
<text text-anchor="middle" x="2443.5" y="-7.5" font-family="Helvetica,sans-Serif" font-size="10.00">_result.cpp</text>
</a>
</g>
</g>
<!-- Node1&#45;&gt;Node15 -->
<g id="edge14" class="edge">
<title>Node1&#45;&gt;Node15</title>
<path fill="none" stroke="midnightblue" d="M1862.2,-106.12C1976.18,-101.06 2184.79,-87.57 2359.5,-53 2362.49,-52.41 2365.53,-51.75 2368.58,-51.05"/>
<polygon fill="midnightblue" stroke="midnightblue" points="1861.98,-102.63 1852.14,-106.56 1862.29,-109.62 1861.98,-102.63"/>
</g>
<!-- Node16 -->
<g id="node16" class="node">
<title>Node16</title>
<g id="a_node16"><a xlink:href="memory__analyzer__parse__options_8cpp.html" target="_top" xlink:title="Commandline parser for the memory analyzer executing main work.">
<polygon fill="none" stroke="black" points="2536.5,-0.5 2536.5,-52.5 2734.5,-52.5 2734.5,-0.5 2536.5,-0.5"/>
<text text-anchor="start" x="2544.5" y="-40.5" font-family="Helvetica,sans-Serif" font-size="10.00">/home/runner/work/diffblue</text>
<text text-anchor="start" x="2544.5" y="-29.5" font-family="Helvetica,sans-Serif" font-size="10.00">&#45;cbmc/diffblue&#45;cbmc/src</text>
<text text-anchor="start" x="2544.5" y="-18.5" font-family="Helvetica,sans-Serif" font-size="10.00">/memory&#45;analyzer/memory_analyzer</text>
<text text-anchor="middle" x="2635.5" y="-7.5" font-family="Helvetica,sans-Serif" font-size="10.00">_parse_options.cpp</text>
</a>
</g>
</g>
<!-- Node1&#45;&gt;Node16 -->
<g id="edge15" class="edge">
<title>Node1&#45;&gt;Node16</title>
<path fill="none" stroke="midnightblue" d="M1862.39,-107.01C2001.92,-102.76 2288.15,-89.96 2527.5,-53 2530.45,-52.54 2533.44,-52.05 2536.45,-51.52"/>
<polygon fill="midnightblue" stroke="midnightblue" points="1862.08,-103.51 1852.19,-107.31 1862.29,-110.51 1862.08,-103.51"/>
</g>
<!-- Node17 -->
<g id="node17" class="node">
<title>Node17</title>
<g id="a_node17"><a xlink:href="symtab2gb__parse__options_8cpp.html" target="_top" xlink:title=" ">
<polygon fill="none" stroke="black" points="2752.5,-0.5 2752.5,-52.5 2916.5,-52.5 2916.5,-0.5 2752.5,-0.5"/>
<text text-anchor="start" x="2760.5" y="-40.5" font-family="Helvetica,sans-Serif" font-size="10.00">/home/runner/work/diffblue</text>
<text text-anchor="start" x="2760.5" y="-29.5" font-family="Helvetica,sans-Serif" font-size="10.00">&#45;cbmc/diffblue&#45;cbmc/src</text>
<text text-anchor="start" x="2760.5" y="-18.5" font-family="Helvetica,sans-Serif" font-size="10.00">/symtab2gb/symtab2gb_parse</text>
<text text-anchor="middle" x="2834.5" y="-7.5" font-family="Helvetica,sans-Serif" font-size="10.00">_options.cpp</text>
</a>
</g>
</g>
<!-- Node1&#45;&gt;Node17 -->
<g id="edge16" class="edge">
<title>Node1&#45;&gt;Node17</title>
<path fill="none" stroke="midnightblue" d="M1862.36,-106.43C2065.47,-99.88 2575.16,-81.13 2743.5,-53 2746.41,-52.51 2749.37,-51.97 2752.34,-51.38"/>
<polygon fill="midnightblue" stroke="midnightblue" points="1862.22,-102.93 1852.34,-106.75 1862.45,-109.92 1862.22,-102.93"/>
</g>
<!-- Node18 -->
<g id="node18" class="node">
<title>Node18</title>
<g id="a_node18"><a xlink:href="parse__options_8cpp.html" target="_top" xlink:title=" ">
<polygon fill="none" stroke="black" points="2935,-6 2935,-47 3084,-47 3084,-6 2935,-6"/>
<text text-anchor="start" x="2943" y="-35" font-family="Helvetica,sans-Serif" font-size="10.00">/home/runner/work/diffblue</text>
<text text-anchor="start" x="2943" y="-24" font-family="Helvetica,sans-Serif" font-size="10.00">&#45;cbmc/diffblue&#45;cbmc/src</text>
<text text-anchor="middle" x="3009.5" y="-13" font-family="Helvetica,sans-Serif" font-size="10.00">/util/parse_options.cpp</text>
</a>
</g>
</g>
<!-- Node1&#45;&gt;Node18 -->
<g id="edge17" class="edge">
<title>Node1&#45;&gt;Node18</title>
<path fill="none" stroke="midnightblue" d="M1862.52,-107.56C2092.14,-103.24 2721.22,-88.43 2925.5,-53 2934.06,-51.52 2942.97,-49.43 2951.65,-47.08"/>
<polygon fill="midnightblue" stroke="midnightblue" points="1862.15,-104.07 1852.22,-107.75 1862.28,-111.07 1862.15,-104.07"/>
</g>
<!-- Node19 -->
<g id="node19" class="node">
<title>Node19</title>
<g id="a_node19"><a xlink:href="janalyzer__parse__options_8cpp.html" target="_top" xlink:title="JANALYZER Command Line Option Processing.">
<polygon fill="none" stroke="black" points="3102,-0.5 3102,-52.5 3251,-52.5 3251,-0.5 3102,-0.5"/>
<text text-anchor="start" x="3110" y="-40.5" font-family="Helvetica,sans-Serif" font-size="10.00">/home/runner/work/diffblue</text>
<text text-anchor="start" x="3110" y="-29.5" font-family="Helvetica,sans-Serif" font-size="10.00">&#45;cbmc/diffblue&#45;cbmc/jbmc</text>
<text text-anchor="start" x="3110" y="-18.5" font-family="Helvetica,sans-Serif" font-size="10.00">/src/janalyzer/janalyzer</text>
<text text-anchor="middle" x="3176.5" y="-7.5" font-family="Helvetica,sans-Serif" font-size="10.00">_parse_options.cpp</text>
</a>
</g>
</g>
<!-- Node1&#45;&gt;Node19 -->
<g id="edge18" class="edge">
<title>Node1&#45;&gt;Node19</title>
<path fill="none" stroke="midnightblue" d="M1862.45,-108.22C2114.52,-105.44 2855.51,-93.93 3093.5,-53 3096.17,-52.54 3098.88,-52.02 3101.61,-51.45"/>
<polygon fill="midnightblue" stroke="midnightblue" points="1862.21,-104.72 1852.25,-108.33 1862.28,-111.72 1862.21,-104.72"/>
</g>
<!-- Node20 -->
<g id="node20" class="node">
<title>Node20</title>
<g id="a_node20"><a xlink:href="jbmc__parse__options_8cpp.html" target="_top" xlink:title="JBMC Command Line Option Processing.">
<polygon fill="none" stroke="black" points="3269.5,-6 3269.5,-47 3451.5,-47 3451.5,-6 3269.5,-6"/>
<text text-anchor="start" x="3277.5" y="-35" font-family="Helvetica,sans-Serif" font-size="10.00">/home/runner/work/diffblue</text>
<text text-anchor="start" x="3277.5" y="-24" font-family="Helvetica,sans-Serif" font-size="10.00">&#45;cbmc/diffblue&#45;cbmc/jbmc</text>
<text text-anchor="middle" x="3360.5" y="-13" font-family="Helvetica,sans-Serif" font-size="10.00">/src/jbmc/jbmc_parse_options.cpp</text>
</a>
</g>
</g>
<!-- Node1&#45;&gt;Node20 -->
<g id="edge19" class="edge">
<title>Node1&#45;&gt;Node20</title>
<path fill="none" stroke="midnightblue" d="M1862.6,-108.16C2135.66,-105.07 2987.82,-92.46 3260.5,-53 3270.7,-51.52 3281.36,-49.43 3291.76,-47.06"/>
<polygon fill="midnightblue" stroke="midnightblue" points="1862.32,-104.66 1852.36,-108.27 1862.4,-111.66 1862.32,-104.66"/>
</g>
<!-- Node21 -->
<g id="node21" class="node">
<title>Node21</title>
<g id="a_node21"><a xlink:href="jdiff__parse__options_8cpp.html" target="_top" xlink:title="JDIFF Command Line Option Processing.">
<polygon fill="none" stroke="black" points="3470,-6 3470,-47 3641,-47 3641,-6 3470,-6"/>
<text text-anchor="start" x="3478" y="-35" font-family="Helvetica,sans-Serif" font-size="10.00">/home/runner/work/diffblue</text>
<text text-anchor="start" x="3478" y="-24" font-family="Helvetica,sans-Serif" font-size="10.00">&#45;cbmc/diffblue&#45;cbmc/jbmc</text>
<text text-anchor="middle" x="3555.5" y="-13" font-family="Helvetica,sans-Serif" font-size="10.00">/src/jdiff/jdiff_parse_options.cpp</text>
</a>
</g>
</g>
<!-- Node1&#45;&gt;Node21 -->
<g id="edge20" class="edge">
<title>Node1&#45;&gt;Node21</title>
<path fill="none" stroke="midnightblue" d="M1862.75,-108.74C2159.68,-107.43 3147.4,-99.6 3460.5,-53 3470.3,-51.54 3480.53,-49.44 3490.5,-47.05"/>
<polygon fill="midnightblue" stroke="midnightblue" points="1862.46,-105.24 1852.48,-108.78 1862.49,-112.24 1862.46,-105.24"/>
</g>
</g>
</svg>
