<?xml version="1.0" encoding="UTF-8" standalone="no"?>
<!DOCTYPE svg PUBLIC "-//W3C//DTD SVG 1.1//EN"
 "http://www.w3.org/Graphics/SVG/1.1/DTD/svg11.dtd">
<!-- Generated by graphviz version 2.43.0 (0)
 -->
<!-- Title: /home/runner/work/diffblue&#45;cbmc/diffblue&#45;cbmc/src/goto&#45;synthesizer/expr_enumerator.h Pages: 1 -->
<svg width="408pt" height="139pt"
 viewBox="0.00 0.00 408.00 139.00" xmlns="http://www.w3.org/2000/svg" xmlns:xlink="http://www.w3.org/1999/xlink">
<g id="graph0" class="graph" transform="scale(1 1) rotate(0) translate(4 135)">
<title>/home/runner/work/diffblue&#45;cbmc/diffblue&#45;cbmc/src/goto&#45;synthesizer/expr_enumerator.h</title>
<!-- Node1 -->
<g id="node1" class="node">
<title>Node1</title>
<g id="a_node1"><a xlink:title="Enumerator Interface.">
<polygon fill="#bfbfbf" stroke="black" points="92.5,-89.5 92.5,-130.5 289.5,-130.5 289.5,-89.5 92.5,-89.5"/>
<text text-anchor="start" x="100.5" y="-118.5" font-family="Helvetica,sans-Serif" font-size="10.00">/home/runner/work/diffblue</text>
<text text-anchor="start" x="100.5" y="-107.5" font-family="Helvetica,sans-Serif" font-size="10.00">&#45;cbmc/diffblue&#45;cbmc/src</text>
<text text-anchor="middle" x="191" y="-96.5" font-family="Helvetica,sans-Serif" font-size="10.00">/goto&#45;synthesizer/expr_enumerator.h</text>
</a>
</g>
</g>
<!-- Node2 -->
<g id="node2" class="node">
<title>Node2</title>
<g id="a_node2"><a xlink:href="enumerative__loop__contracts__synthesizer_8cpp.html" target="_top" xlink:title="Enumerative Loop Contracts Synthesizer.">
<polygon fill="none" stroke="black" points="0,-0.5 0,-52.5 174,-52.5 174,-0.5 0,-0.5"/>
<text text-anchor="start" x="8" y="-40.5" font-family="Helvetica,sans-Serif" font-size="10.00">/home/runner/work/diffblue</text>
<text text-anchor="start" x="8" y="-29.5" font-family="Helvetica,sans-Serif" font-size="10.00">&#45;cbmc/diffblue&#45;cbmc/src</text>
<text text-anchor="start" x="8" y="-18.5" font-family="Helvetica,sans-Serif" font-size="10.00">/goto&#45;synthesizer/enumerative</text>
<text text-anchor="middle" x="87" y="-7.5" font-family="Helvetica,sans-Serif" font-size="10.00">_loop_contracts_synthesizer.cpp</text>
</a>
</g>
</g>
<!-- Node1&#45;&gt;Node2 -->
<g id="edge1" class="edge">
<title>Node1&#45;&gt;Node2</title>
<path fill="none" stroke="midnightblue" d="M158.19,-83.29C145.74,-73.53 131.58,-62.44 119.19,-52.73"/>
<polygon fill="midnightblue" stroke="midnightblue" points="156.06,-86.07 166.09,-89.48 160.38,-80.56 156.06,-86.07"/>
</g>
<!-- Node3 -->
<g id="node3" class="node">
<title>Node3</title>
<g id="a_node3"><a xlink:href="expr__enumerator_8cpp.html" target="_top" xlink:title=" ">
<polygon fill="none" stroke="black" points="192,-6 192,-47 400,-47 400,-6 192,-6"/>
<text text-anchor="start" x="200" y="-35" font-family="Helvetica,sans-Serif" font-size="10.00">/home/runner/work/diffblue</text>
<text text-anchor="start" x="200" y="-24" font-family="Helvetica,sans-Serif" font-size="10.00">&#45;cbmc/diffblue&#45;cbmc/src</text>
<text text-anchor="middle" x="296" y="-13" font-family="Helvetica,sans-Serif" font-size="10.00">/goto&#45;synthesizer/expr_enumerator.cpp</text>
</a>
</g>
</g>
<!-- Node1&#45;&gt;Node3 -->
<g id="edge2" class="edge">
<title>Node1&#45;&gt;Node3</title>
<path fill="none" stroke="midnightblue" d="M224.21,-83.22C239.25,-71.55 256.74,-57.97 270.69,-47.14"/>
<polygon fill="midnightblue" stroke="midnightblue" points="221.9,-80.58 216.15,-89.48 226.2,-86.11 221.9,-80.58"/>
</g>
</g>
</svg>
