<?xml version="1.0" encoding="UTF-8" standalone="no"?>
<!DOCTYPE svg PUBLIC "-//W3C//DTD SVG 1.1//EN"
 "http://www.w3.org/Graphics/SVG/1.1/DTD/svg11.dtd">
<!-- Generated by graphviz version 2.43.0 (0)
 -->
<!-- Title: /home/runner/work/diffblue&#45;cbmc/diffblue&#45;cbmc/src/cpp/expr2cpp.h Pages: 1 -->
<svg width="847pt" height="128pt"
 viewBox="0.00 0.00 846.50 128.00" xmlns="http://www.w3.org/2000/svg" xmlns:xlink="http://www.w3.org/1999/xlink">
<g id="graph0" class="graph" transform="scale(1 1) rotate(0) translate(4 124)">
<title>/home/runner/work/diffblue&#45;cbmc/diffblue&#45;cbmc/src/cpp/expr2cpp.h</title>
<!-- Node1 -->
<g id="node1" class="node">
<title>Node1</title>
<g id="a_node1"><a xlink:title=" ">
<polygon fill="#bfbfbf" stroke="black" points="339,-78.5 339,-119.5 488,-119.5 488,-78.5 339,-78.5"/>
<text text-anchor="start" x="347" y="-107.5" font-family="Helvetica,sans-Serif" font-size="10.00">/home/runner/work/diffblue</text>
<text text-anchor="start" x="347" y="-96.5" font-family="Helvetica,sans-Serif" font-size="10.00">&#45;cbmc/diffblue&#45;cbmc/src</text>
<text text-anchor="middle" x="413.5" y="-85.5" font-family="Helvetica,sans-Serif" font-size="10.00">/cpp/expr2cpp.h</text>
</a>
</g>
</g>
<!-- Node2 -->
<g id="node2" class="node">
<title>Node2</title>
<g id="a_node2"><a xlink:href="cpp__language_8cpp.html" target="_top" xlink:title="C++ Language Module.">
<polygon fill="none" stroke="black" points="0,-0.5 0,-41.5 149,-41.5 149,-0.5 0,-0.5"/>
<text text-anchor="start" x="8" y="-29.5" font-family="Helvetica,sans-Serif" font-size="10.00">/home/runner/work/diffblue</text>
<text text-anchor="start" x="8" y="-18.5" font-family="Helvetica,sans-Serif" font-size="10.00">&#45;cbmc/diffblue&#45;cbmc/src</text>
<text text-anchor="middle" x="74.5" y="-7.5" font-family="Helvetica,sans-Serif" font-size="10.00">/cpp/cpp_language.cpp</text>
</a>
</g>
</g>
<!-- Node1&#45;&gt;Node2 -->
<g id="edge1" class="edge">
<title>Node1&#45;&gt;Node2</title>
<path fill="none" stroke="midnightblue" d="M329.12,-80.01C279.16,-69.24 214.66,-55.14 157.5,-42 154.76,-41.37 151.96,-40.72 149.14,-40.06"/>
<polygon fill="midnightblue" stroke="midnightblue" points="328.4,-83.44 338.91,-82.12 329.87,-76.59 328.4,-83.44"/>
</g>
<!-- Node3 -->
<g id="node3" class="node">
<title>Node3</title>
<g id="a_node3"><a xlink:href="cpp__typecheck_8cpp.html" target="_top" xlink:title="C++ Language Type Checking.">
<polygon fill="none" stroke="black" points="167,-0.5 167,-41.5 316,-41.5 316,-0.5 167,-0.5"/>
<text text-anchor="start" x="175" y="-29.5" font-family="Helvetica,sans-Serif" font-size="10.00">/home/runner/work/diffblue</text>
<text text-anchor="start" x="175" y="-18.5" font-family="Helvetica,sans-Serif" font-size="10.00">&#45;cbmc/diffblue&#45;cbmc/src</text>
<text text-anchor="middle" x="241.5" y="-7.5" font-family="Helvetica,sans-Serif" font-size="10.00">/cpp/cpp_typecheck.cpp</text>
</a>
</g>
</g>
<!-- Node1&#45;&gt;Node3 -->
<g id="edge2" class="edge">
<title>Node1&#45;&gt;Node3</title>
<path fill="none" stroke="midnightblue" d="M359.93,-74.33C336.06,-63.78 308.29,-51.51 285.64,-41.51"/>
<polygon fill="midnightblue" stroke="midnightblue" points="358.64,-77.59 369.21,-78.43 361.47,-71.19 358.64,-77.59"/>
</g>
<!-- Node4 -->
<g id="node4" class="node">
<title>Node4</title>
<g id="a_node4"><a xlink:href="cpp__typecheck__expr_8cpp.html" target="_top" xlink:title="C++ Language Type Checking.">
<polygon fill="none" stroke="black" points="334,-0.5 334,-41.5 493,-41.5 493,-0.5 334,-0.5"/>
<text text-anchor="start" x="342" y="-29.5" font-family="Helvetica,sans-Serif" font-size="10.00">/home/runner/work/diffblue</text>
<text text-anchor="start" x="342" y="-18.5" font-family="Helvetica,sans-Serif" font-size="10.00">&#45;cbmc/diffblue&#45;cbmc/src</text>
<text text-anchor="middle" x="413.5" y="-7.5" font-family="Helvetica,sans-Serif" font-size="10.00">/cpp/cpp_typecheck_expr.cpp</text>
</a>
</g>
</g>
<!-- Node1&#45;&gt;Node4 -->
<g id="edge3" class="edge">
<title>Node1&#45;&gt;Node4</title>
<path fill="none" stroke="midnightblue" d="M413.5,-68.3C413.5,-59.3 413.5,-49.65 413.5,-41.51"/>
<polygon fill="midnightblue" stroke="midnightblue" points="410,-68.43 413.5,-78.43 417,-68.43 410,-68.43"/>
</g>
<!-- Node5 -->
<g id="node5" class="node">
<title>Node5</title>
<g id="a_node5"><a xlink:href="expr2cpp_8cpp.html" target="_top" xlink:title=" ">
<polygon fill="none" stroke="black" points="511,-0.5 511,-41.5 660,-41.5 660,-0.5 511,-0.5"/>
<text text-anchor="start" x="519" y="-29.5" font-family="Helvetica,sans-Serif" font-size="10.00">/home/runner/work/diffblue</text>
<text text-anchor="start" x="519" y="-18.5" font-family="Helvetica,sans-Serif" font-size="10.00">&#45;cbmc/diffblue&#45;cbmc/src</text>
<text text-anchor="middle" x="585.5" y="-7.5" font-family="Helvetica,sans-Serif" font-size="10.00">/cpp/expr2cpp.cpp</text>
</a>
</g>
</g>
<!-- Node1&#45;&gt;Node5 -->
<g id="edge4" class="edge">
<title>Node1&#45;&gt;Node5</title>
<path fill="none" stroke="midnightblue" d="M467.07,-74.33C490.94,-63.78 518.71,-51.51 541.36,-41.51"/>
<polygon fill="midnightblue" stroke="midnightblue" points="465.53,-71.19 457.79,-78.43 468.36,-77.59 465.53,-71.19"/>
</g>
<!-- Node6 -->
<g id="node6" class="node">
<title>Node6</title>
<g id="a_node6"><a xlink:href="dump__c_8cpp.html" target="_top" xlink:title="Dump Goto&#45;Program as C/C++ Source.">
<polygon fill="none" stroke="black" points="678.5,-0.5 678.5,-41.5 838.5,-41.5 838.5,-0.5 678.5,-0.5"/>
<text text-anchor="start" x="686.5" y="-29.5" font-family="Helvetica,sans-Serif" font-size="10.00">/home/runner/work/diffblue</text>
<text text-anchor="start" x="686.5" y="-18.5" font-family="Helvetica,sans-Serif" font-size="10.00">&#45;cbmc/diffblue&#45;cbmc/src</text>
<text text-anchor="middle" x="758.5" y="-7.5" font-family="Helvetica,sans-Serif" font-size="10.00">/goto&#45;instrument/dump_c.cpp</text>
</a>
</g>
</g>
<!-- Node1&#45;&gt;Node6 -->
<g id="edge5" class="edge">
<title>Node1&#45;&gt;Node6</title>
<path fill="none" stroke="midnightblue" d="M497.8,-79.68C547.74,-68.8 612.24,-54.7 669.5,-42 672.44,-41.35 675.43,-40.68 678.45,-40.01"/>
<polygon fill="midnightblue" stroke="midnightblue" points="497.04,-76.27 488.02,-81.82 498.53,-83.11 497.04,-76.27"/>
</g>
</g>
</svg>
