<?xml version="1.0" encoding="UTF-8" standalone="no"?>
<!DOCTYPE svg PUBLIC "-//W3C//DTD SVG 1.1//EN"
 "http://www.w3.org/Graphics/SVG/1.1/DTD/svg11.dtd">
<!-- Generated by graphviz version 2.43.0 (0)
 -->
<!-- Title: /home/runner/work/diffblue&#45;cbmc/diffblue&#45;cbmc/src/util/expr_initializer.h Pages: 1 -->
<svg width="3703pt" height="139pt"
 viewBox="0.00 0.00 3703.00 139.00" xmlns="http://www.w3.org/2000/svg" xmlns:xlink="http://www.w3.org/1999/xlink">
<g id="graph0" class="graph" transform="scale(1 1) rotate(0) translate(4 135)">
<title>/home/runner/work/diffblue&#45;cbmc/diffblue&#45;cbmc/src/util/expr_initializer.h</title>
<!-- Node1 -->
<g id="node1" class="node">
<title>Node1</title>
<g id="a_node1"><a xlink:title="Expression Initialization.">
<polygon fill="#bfbfbf" stroke="black" points="1804,-89.5 1804,-130.5 1953,-130.5 1953,-89.5 1804,-89.5"/>
<text text-anchor="start" x="1812" y="-118.5" font-family="Helvetica,sans-Serif" font-size="10.00">/home/runner/work/diffblue</text>
<text text-anchor="start" x="1812" y="-107.5" font-family="Helvetica,sans-Serif" font-size="10.00">&#45;cbmc/diffblue&#45;cbmc/src</text>
<text text-anchor="middle" x="1878.5" y="-96.5" font-family="Helvetica,sans-Serif" font-size="10.00">/util/expr_initializer.h</text>
</a>
</g>
</g>
<!-- Node2 -->
<g id="node2" class="node">
<title>Node2</title>
<g id="a_node2"><a xlink:href="c__typecheck__initializer_8cpp.html" target="_top" xlink:title="ANSI&#45;C Conversion / Type Checking.">
<polygon fill="none" stroke="black" points="0,-6 0,-47 183,-47 183,-6 0,-6"/>
<text text-anchor="start" x="8" y="-35" font-family="Helvetica,sans-Serif" font-size="10.00">/home/runner/work/diffblue</text>
<text text-anchor="start" x="8" y="-24" font-family="Helvetica,sans-Serif" font-size="10.00">&#45;cbmc/diffblue&#45;cbmc/src</text>
<text text-anchor="middle" x="91.5" y="-13" font-family="Helvetica,sans-Serif" font-size="10.00">/ansi&#45;c/c_typecheck_initializer.cpp</text>
</a>
</g>
</g>
<!-- Node1&#45;&gt;Node2 -->
<g id="edge1" class="edge">
<title>Node1&#45;&gt;Node2</title>
<path fill="none" stroke="midnightblue" d="M1793.63,-108.58C1496.87,-106.74 506.68,-97.36 192.5,-53 182.11,-51.53 171.25,-49.42 160.66,-47.03"/>
<polygon fill="midnightblue" stroke="midnightblue" points="1793.87,-112.08 1803.89,-108.64 1793.92,-105.08 1793.87,-112.08"/>
</g>
<!-- Node3 -->
<g id="node3" class="node">
<title>Node3</title>
<g id="a_node3"><a xlink:href="builtin__functions_8cpp.html" target="_top" xlink:title="Program Transformation.">
<polygon fill="none" stroke="black" points="201.5,-0.5 201.5,-52.5 365.5,-52.5 365.5,-0.5 201.5,-0.5"/>
<text text-anchor="start" x="209.5" y="-40.5" font-family="Helvetica,sans-Serif" font-size="10.00">/home/runner/work/diffblue</text>
<text text-anchor="start" x="209.5" y="-29.5" font-family="Helvetica,sans-Serif" font-size="10.00">&#45;cbmc/diffblue&#45;cbmc/src</text>
<text text-anchor="start" x="209.5" y="-18.5" font-family="Helvetica,sans-Serif" font-size="10.00">/ansi&#45;c/goto&#45;conversion/builtin</text>
<text text-anchor="middle" x="283.5" y="-7.5" font-family="Helvetica,sans-Serif" font-size="10.00">_functions.cpp</text>
</a>
</g>
</g>
<!-- Node1&#45;&gt;Node3 -->
<g id="edge2" class="edge">
<title>Node1&#45;&gt;Node3</title>
<path fill="none" stroke="midnightblue" d="M1793.59,-108.47C1518.1,-106.34 651.04,-96.27 374.5,-53 371.58,-52.54 368.62,-52.03 365.65,-51.46"/>
<polygon fill="midnightblue" stroke="midnightblue" points="1793.89,-111.97 1803.92,-108.55 1793.95,-104.97 1793.89,-111.97"/>
</g>
<!-- Node4 -->
<g id="node4" class="node">
<title>Node4</title>
<g id="a_node4"><a xlink:href="cpp__typecheck__expr_8cpp.html" target="_top" xlink:title="C++ Language Type Checking.">
<polygon fill="none" stroke="black" points="384,-6 384,-47 543,-47 543,-6 384,-6"/>
<text text-anchor="start" x="392" y="-35" font-family="Helvetica,sans-Serif" font-size="10.00">/home/runner/work/diffblue</text>
<text text-anchor="start" x="392" y="-24" font-family="Helvetica,sans-Serif" font-size="10.00">&#45;cbmc/diffblue&#45;cbmc/src</text>
<text text-anchor="middle" x="463.5" y="-13" font-family="Helvetica,sans-Serif" font-size="10.00">/cpp/cpp_typecheck_expr.cpp</text>
</a>
</g>
</g>
<!-- Node1&#45;&gt;Node4 -->
<g id="edge3" class="edge">
<title>Node1&#45;&gt;Node4</title>
<path fill="none" stroke="midnightblue" d="M1793.32,-108.07C1539.65,-104.88 791.94,-92.32 551.5,-53 542.55,-51.54 533.23,-49.46 524.13,-47.12"/>
<polygon fill="midnightblue" stroke="midnightblue" points="1793.54,-111.57 1803.58,-108.2 1793.62,-104.57 1793.54,-111.57"/>
</g>
<!-- Node5 -->
<g id="node5" class="node">
<title>Node5</title>
<g id="a_node5"><a xlink:href="cpp__typecheck__initializer_8cpp.html" target="_top" xlink:title="C++ Language Type Checking.">
<polygon fill="none" stroke="black" points="561,-6 561,-47 744,-47 744,-6 561,-6"/>
<text text-anchor="start" x="569" y="-35" font-family="Helvetica,sans-Serif" font-size="10.00">/home/runner/work/diffblue</text>
<text text-anchor="start" x="569" y="-24" font-family="Helvetica,sans-Serif" font-size="10.00">&#45;cbmc/diffblue&#45;cbmc/src</text>
<text text-anchor="middle" x="652.5" y="-13" font-family="Helvetica,sans-Serif" font-size="10.00">/cpp/cpp_typecheck_initializer.cpp</text>
</a>
</g>
</g>
<!-- Node1&#45;&gt;Node5 -->
<g id="edge4" class="edge">
<title>Node1&#45;&gt;Node5</title>
<path fill="none" stroke="midnightblue" d="M1793.58,-106.98C1567.25,-101.23 953.12,-83.26 752.5,-53 742.4,-51.48 731.84,-49.37 721.53,-47.01"/>
<polygon fill="midnightblue" stroke="midnightblue" points="1793.65,-110.48 1803.74,-107.23 1793.83,-103.48 1793.65,-110.48"/>
</g>
<!-- Node6 -->
<g id="node6" class="node">
<title>Node6</title>
<g id="a_node6"><a xlink:href="linker__script__merge_8cpp.html" target="_top" xlink:title=" ">
<polygon fill="none" stroke="black" points="762,-6 762,-47 937,-47 937,-6 762,-6"/>
<text text-anchor="start" x="770" y="-35" font-family="Helvetica,sans-Serif" font-size="10.00">/home/runner/work/diffblue</text>
<text text-anchor="start" x="770" y="-24" font-family="Helvetica,sans-Serif" font-size="10.00">&#45;cbmc/diffblue&#45;cbmc/src</text>
<text text-anchor="middle" x="849.5" y="-13" font-family="Helvetica,sans-Serif" font-size="10.00">/goto&#45;cc/linker_script_merge.cpp</text>
</a>
</g>
</g>
<!-- Node1&#45;&gt;Node6 -->
<g id="edge5" class="edge">
<title>Node1&#45;&gt;Node6</title>
<path fill="none" stroke="midnightblue" d="M1793.91,-109.47C1629.54,-109.16 1255.95,-102.48 946.5,-53 936.87,-51.46 926.81,-49.37 916.98,-47.05"/>
<polygon fill="midnightblue" stroke="midnightblue" points="1793.96,-112.97 1803.96,-109.48 1793.96,-105.97 1793.96,-112.97"/>
</g>
<!-- Node7 -->
<g id="node7" class="node">
<title>Node7</title>
<g id="a_node7"><a xlink:href="dump__c_8cpp.html" target="_top" xlink:title="Dump Goto&#45;Program as C/C++ Source.">
<polygon fill="none" stroke="black" points="955.5,-6 955.5,-47 1115.5,-47 1115.5,-6 955.5,-6"/>
<text text-anchor="start" x="963.5" y="-35" font-family="Helvetica,sans-Serif" font-size="10.00">/home/runner/work/diffblue</text>
<text text-anchor="start" x="963.5" y="-24" font-family="Helvetica,sans-Serif" font-size="10.00">&#45;cbmc/diffblue&#45;cbmc/src</text>
<text text-anchor="middle" x="1035.5" y="-13" font-family="Helvetica,sans-Serif" font-size="10.00">/goto&#45;instrument/dump_c.cpp</text>
</a>
</g>
</g>
<!-- Node1&#45;&gt;Node7 -->
<g id="edge6" class="edge">
<title>Node1&#45;&gt;Node7</title>
<path fill="none" stroke="midnightblue" d="M1793.5,-108.34C1653.13,-105.99 1364.5,-95.83 1124.5,-53 1115.8,-51.45 1106.73,-49.38 1097.85,-47.1"/>
<polygon fill="midnightblue" stroke="midnightblue" points="1793.7,-111.84 1803.76,-108.5 1793.81,-104.84 1793.7,-111.84"/>
</g>
<!-- Node8 -->
<g id="node8" class="node">
<title>Node8</title>
<g id="a_node8"><a xlink:href="shadow__memory_8cpp.html" target="_top" xlink:title="Symex Shadow Memory Instrumentation.">
<polygon fill="none" stroke="black" points="1133.5,-6 1133.5,-47 1317.5,-47 1317.5,-6 1133.5,-6"/>
<text text-anchor="start" x="1141.5" y="-35" font-family="Helvetica,sans-Serif" font-size="10.00">/home/runner/work/diffblue</text>
<text text-anchor="start" x="1141.5" y="-24" font-family="Helvetica,sans-Serif" font-size="10.00">&#45;cbmc/diffblue&#45;cbmc/src</text>
<text text-anchor="middle" x="1225.5" y="-13" font-family="Helvetica,sans-Serif" font-size="10.00">/goto&#45;symex/shadow_memory.cpp</text>
</a>
</g>
</g>
<!-- Node1&#45;&gt;Node8 -->
<g id="edge7" class="edge">
<title>Node1&#45;&gt;Node8</title>
<path fill="none" stroke="midnightblue" d="M1793.66,-104.26C1684.83,-97.29 1490.55,-81.87 1326.5,-53 1317.06,-51.34 1307.2,-49.27 1297.5,-47.04"/>
<polygon fill="midnightblue" stroke="midnightblue" points="1793.72,-107.77 1803.92,-104.9 1794.16,-100.78 1793.72,-107.77"/>
</g>
<!-- Node9 -->
<g id="node9" class="node">
<title>Node9</title>
<g id="a_node9"><a xlink:href="symex__builtin__functions_8cpp.html" target="_top" xlink:title="Symbolic Execution of ANSI&#45;C.">
<polygon fill="none" stroke="black" points="1335.5,-0.5 1335.5,-52.5 1485.5,-52.5 1485.5,-0.5 1335.5,-0.5"/>
<text text-anchor="start" x="1343.5" y="-40.5" font-family="Helvetica,sans-Serif" font-size="10.00">/home/runner/work/diffblue</text>
<text text-anchor="start" x="1343.5" y="-29.5" font-family="Helvetica,sans-Serif" font-size="10.00">&#45;cbmc/diffblue&#45;cbmc/src</text>
<text text-anchor="start" x="1343.5" y="-18.5" font-family="Helvetica,sans-Serif" font-size="10.00">/goto&#45;symex/symex_builtin</text>
<text text-anchor="middle" x="1410.5" y="-7.5" font-family="Helvetica,sans-Serif" font-size="10.00">_functions.cpp</text>
</a>
</g>
</g>
<!-- Node1&#45;&gt;Node9 -->
<g id="edge8" class="edge">
<title>Node1&#45;&gt;Node9</title>
<path fill="none" stroke="midnightblue" d="M1793.64,-100.32C1715.38,-91.45 1596.28,-75.74 1494.5,-53 1491.67,-52.37 1488.8,-51.69 1485.91,-50.98"/>
<polygon fill="midnightblue" stroke="midnightblue" points="1793.6,-103.84 1803.92,-101.48 1794.38,-96.89 1793.6,-103.84"/>
</g>
<!-- Node10 -->
<g id="node10" class="node">
<title>Node10</title>
<g id="a_node10"><a xlink:href="symex__start__thread_8cpp.html" target="_top" xlink:title="Symbolic Execution.">
<polygon fill="none" stroke="black" points="1504,-6 1504,-47 1703,-47 1703,-6 1504,-6"/>
<text text-anchor="start" x="1512" y="-35" font-family="Helvetica,sans-Serif" font-size="10.00">/home/runner/work/diffblue</text>
<text text-anchor="start" x="1512" y="-24" font-family="Helvetica,sans-Serif" font-size="10.00">&#45;cbmc/diffblue&#45;cbmc/src</text>
<text text-anchor="middle" x="1603.5" y="-13" font-family="Helvetica,sans-Serif" font-size="10.00">/goto&#45;symex/symex_start_thread.cpp</text>
</a>
</g>
</g>
<!-- Node1&#45;&gt;Node10 -->
<g id="edge9" class="edge">
<title>Node1&#45;&gt;Node10</title>
<path fill="none" stroke="midnightblue" d="M1803.03,-86.63C1761.14,-74.22 1709.54,-58.93 1669.31,-47"/>
<polygon fill="midnightblue" stroke="midnightblue" points="1802.05,-89.99 1812.63,-89.48 1804.04,-83.28 1802.05,-89.99"/>
</g>
<!-- Node11 -->
<g id="node11" class="node">
<title>Node11</title>
<g id="a_node11"><a xlink:href="static__lifetime__init_8cpp.html" target="_top" xlink:title=" ">
<polygon fill="none" stroke="black" points="1721,-0.5 1721,-52.5 1870,-52.5 1870,-0.5 1721,-0.5"/>
<text text-anchor="start" x="1729" y="-40.5" font-family="Helvetica,sans-Serif" font-size="10.00">/home/runner/work/diffblue</text>
<text text-anchor="start" x="1729" y="-29.5" font-family="Helvetica,sans-Serif" font-size="10.00">&#45;cbmc/diffblue&#45;cbmc/src</text>
<text text-anchor="start" x="1729" y="-18.5" font-family="Helvetica,sans-Serif" font-size="10.00">/linking/static_lifetime</text>
<text text-anchor="middle" x="1795.5" y="-7.5" font-family="Helvetica,sans-Serif" font-size="10.00">_init.cpp</text>
</a>
</g>
</g>
<!-- Node1&#45;&gt;Node11 -->
<g id="edge10" class="edge">
<title>Node1&#45;&gt;Node11</title>
<path fill="none" stroke="midnightblue" d="M1851.25,-82.24C1841.54,-72.71 1830.64,-62 1821.07,-52.61"/>
<polygon fill="midnightblue" stroke="midnightblue" points="1848.82,-84.76 1858.41,-89.27 1853.72,-79.77 1848.82,-84.76"/>
</g>
<!-- Node12 -->
<g id="node12" class="node">
<title>Node12</title>
<g id="a_node12"><a xlink:href="analyze__symbol_8cpp.html" target="_top" xlink:title=" ">
<polygon fill="none" stroke="black" points="1888,-0.5 1888,-52.5 2037,-52.5 2037,-0.5 1888,-0.5"/>
<text text-anchor="start" x="1896" y="-40.5" font-family="Helvetica,sans-Serif" font-size="10.00">/home/runner/work/diffblue</text>
<text text-anchor="start" x="1896" y="-29.5" font-family="Helvetica,sans-Serif" font-size="10.00">&#45;cbmc/diffblue&#45;cbmc/src</text>
<text text-anchor="start" x="1896" y="-18.5" font-family="Helvetica,sans-Serif" font-size="10.00">/memory&#45;analyzer/analyze</text>
<text text-anchor="middle" x="1962.5" y="-7.5" font-family="Helvetica,sans-Serif" font-size="10.00">_symbol.cpp</text>
</a>
</g>
</g>
<!-- Node1&#45;&gt;Node12 -->
<g id="edge11" class="edge">
<title>Node1&#45;&gt;Node12</title>
<path fill="none" stroke="midnightblue" d="M1906.08,-82.24C1915.91,-72.71 1926.94,-62 1936.62,-52.61"/>
<polygon fill="midnightblue" stroke="midnightblue" points="1903.57,-79.8 1898.83,-89.27 1908.45,-84.82 1903.57,-79.8"/>
</g>
<!-- Node13 -->
<g id="node13" class="node">
<title>Node13</title>
<g id="a_node13"><a xlink:href="expr__initializer_8cpp.html" target="_top" xlink:title="Expression Initialization.">
<polygon fill="none" stroke="black" points="2055,-6 2055,-47 2204,-47 2204,-6 2055,-6"/>
<text text-anchor="start" x="2063" y="-35" font-family="Helvetica,sans-Serif" font-size="10.00">/home/runner/work/diffblue</text>
<text text-anchor="start" x="2063" y="-24" font-family="Helvetica,sans-Serif" font-size="10.00">&#45;cbmc/diffblue&#45;cbmc/src</text>
<text text-anchor="middle" x="2129.5" y="-13" font-family="Helvetica,sans-Serif" font-size="10.00">/util/expr_initializer.cpp</text>
</a>
</g>
</g>
<!-- Node1&#45;&gt;Node13 -->
<g id="edge12" class="edge">
<title>Node1&#45;&gt;Node13</title>
<path fill="none" stroke="midnightblue" d="M1948.59,-86.24C1986.61,-73.9 2033.1,-58.8 2069.44,-47"/>
<polygon fill="midnightblue" stroke="midnightblue" points="1947.05,-83.06 1938.62,-89.48 1949.21,-89.72 1947.05,-83.06"/>
</g>
<!-- Node14 -->
<g id="node14" class="node">
<title>Node14</title>
<g id="a_node14"><a xlink:href="assignments__from__json_8cpp.html" target="_top" xlink:title=" ">
<polygon fill="none" stroke="black" points="2222,-0.5 2222,-52.5 2395,-52.5 2395,-0.5 2222,-0.5"/>
<text text-anchor="start" x="2230" y="-40.5" font-family="Helvetica,sans-Serif" font-size="10.00">/home/runner/work/diffblue</text>
<text text-anchor="start" x="2230" y="-29.5" font-family="Helvetica,sans-Serif" font-size="10.00">&#45;cbmc/diffblue&#45;cbmc/jbmc</text>
<text text-anchor="start" x="2230" y="-18.5" font-family="Helvetica,sans-Serif" font-size="10.00">/src/java_bytecode/assignments</text>
<text text-anchor="middle" x="2308.5" y="-7.5" font-family="Helvetica,sans-Serif" font-size="10.00">_from_json.cpp</text>
</a>
</g>
</g>
<!-- Node1&#45;&gt;Node14 -->
<g id="edge13" class="edge">
<title>Node1&#45;&gt;Node14</title>
<path fill="none" stroke="midnightblue" d="M1963.3,-97.14C2031.28,-87.08 2128.96,-71.37 2213.5,-53 2216.25,-52.4 2219.05,-51.77 2221.86,-51.13"/>
<polygon fill="midnightblue" stroke="midnightblue" points="1962.46,-93.73 1953.07,-98.64 1963.48,-100.65 1962.46,-93.73"/>
</g>
<!-- Node15 -->
<g id="node15" class="node">
<title>Node15</title>
<g id="a_node15"><a xlink:href="java__bytecode__convert__class_8cpp.html" target="_top" xlink:title="JAVA Bytecode Language Conversion.">
<polygon fill="none" stroke="black" points="2413.5,-0.5 2413.5,-52.5 2595.5,-52.5 2595.5,-0.5 2413.5,-0.5"/>
<text text-anchor="start" x="2421.5" y="-40.5" font-family="Helvetica,sans-Serif" font-size="10.00">/home/runner/work/diffblue</text>
<text text-anchor="start" x="2421.5" y="-29.5" font-family="Helvetica,sans-Serif" font-size="10.00">&#45;cbmc/diffblue&#45;cbmc/jbmc</text>
<text text-anchor="start" x="2421.5" y="-18.5" font-family="Helvetica,sans-Serif" font-size="10.00">/src/java_bytecode/java_bytecode</text>
<text text-anchor="middle" x="2504.5" y="-7.5" font-family="Helvetica,sans-Serif" font-size="10.00">_convert_class.cpp</text>
</a>
</g>
</g>
<!-- Node1&#45;&gt;Node15 -->
<g id="edge14" class="edge">
<title>Node1&#45;&gt;Node15</title>
<path fill="none" stroke="midnightblue" d="M1963.18,-103.74C2067.57,-96.4 2250.11,-80.76 2404.5,-53 2407.41,-52.48 2410.36,-51.92 2413.33,-51.32"/>
<polygon fill="midnightblue" stroke="midnightblue" points="1962.75,-100.27 1953.02,-104.45 1963.24,-107.25 1962.75,-100.27"/>
</g>
<!-- Node16 -->
<g id="node16" class="node">
<title>Node16</title>
<g id="a_node16"><a xlink:href="java__bytecode__convert__method_8cpp.html" target="_top" xlink:title="JAVA Bytecode Language Conversion.">
<polygon fill="none" stroke="black" points="2613.5,-0.5 2613.5,-52.5 2795.5,-52.5 2795.5,-0.5 2613.5,-0.5"/>
<text text-anchor="start" x="2621.5" y="-40.5" font-family="Helvetica,sans-Serif" font-size="10.00">/home/runner/work/diffblue</text>
<text text-anchor="start" x="2621.5" y="-29.5" font-family="Helvetica,sans-Serif" font-size="10.00">&#45;cbmc/diffblue&#45;cbmc/jbmc</text>
<text text-anchor="start" x="2621.5" y="-18.5" font-family="Helvetica,sans-Serif" font-size="10.00">/src/java_bytecode/java_bytecode</text>
<text text-anchor="middle" x="2704.5" y="-7.5" font-family="Helvetica,sans-Serif" font-size="10.00">_convert_method.cpp</text>
</a>
</g>
</g>
<!-- Node1&#45;&gt;Node16 -->
<g id="edge15" class="edge">
<title>Node1&#45;&gt;Node16</title>
<path fill="none" stroke="midnightblue" d="M1963.57,-107.19C2099.75,-103.23 2374.74,-90.86 2604.5,-53 2607.42,-52.52 2610.37,-51.99 2613.35,-51.43"/>
<polygon fill="midnightblue" stroke="midnightblue" points="1963.11,-103.7 1953.21,-107.48 1963.31,-110.7 1963.11,-103.7"/>
</g>
<!-- Node17 -->
<g id="node17" class="node">
<title>Node17</title>
<g id="a_node17"><a xlink:href="java__entry__point_8cpp.html" target="_top" xlink:title=" ">
<polygon fill="none" stroke="black" points="2814,-0.5 2814,-52.5 2977,-52.5 2977,-0.5 2814,-0.5"/>
<text text-anchor="start" x="2822" y="-40.5" font-family="Helvetica,sans-Serif" font-size="10.00">/home/runner/work/diffblue</text>
<text text-anchor="start" x="2822" y="-29.5" font-family="Helvetica,sans-Serif" font-size="10.00">&#45;cbmc/diffblue&#45;cbmc/jbmc</text>
<text text-anchor="start" x="2822" y="-18.5" font-family="Helvetica,sans-Serif" font-size="10.00">/src/java_bytecode/java_entry</text>
<text text-anchor="middle" x="2895.5" y="-7.5" font-family="Helvetica,sans-Serif" font-size="10.00">_point.cpp</text>
</a>
</g>
</g>
<!-- Node1&#45;&gt;Node17 -->
<g id="edge16" class="edge">
<title>Node1&#45;&gt;Node17</title>
<path fill="none" stroke="midnightblue" d="M1963.24,-109.87C2127,-110.24 2497.84,-104.63 2804.5,-53 2807.57,-52.48 2810.69,-51.9 2813.83,-51.27"/>
<polygon fill="midnightblue" stroke="midnightblue" points="1963.24,-106.37 1953.23,-109.84 1963.22,-113.37 1963.24,-106.37"/>
</g>
<!-- Node18 -->
<g id="node18" class="node">
<title>Node18</title>
<g id="a_node18"><a xlink:href="java__object__factory_8cpp.html" target="_top" xlink:title=" ">
<polygon fill="none" stroke="black" points="2995,-0.5 2995,-52.5 3162,-52.5 3162,-0.5 2995,-0.5"/>
<text text-anchor="start" x="3003" y="-40.5" font-family="Helvetica,sans-Serif" font-size="10.00">/home/runner/work/diffblue</text>
<text text-anchor="start" x="3003" y="-29.5" font-family="Helvetica,sans-Serif" font-size="10.00">&#45;cbmc/diffblue&#45;cbmc/jbmc</text>
<text text-anchor="start" x="3003" y="-18.5" font-family="Helvetica,sans-Serif" font-size="10.00">/src/java_bytecode/java_object</text>
<text text-anchor="middle" x="3078.5" y="-7.5" font-family="Helvetica,sans-Serif" font-size="10.00">_factory.cpp</text>
</a>
</g>
</g>
<!-- Node1&#45;&gt;Node18 -->
<g id="edge17" class="edge">
<title>Node1&#45;&gt;Node18</title>
<path fill="none" stroke="midnightblue" d="M1963.29,-107.13C2187.05,-101.8 2789.77,-84.84 2986.5,-53 2989.28,-52.55 2992.1,-52.05 2994.94,-51.5"/>
<polygon fill="midnightblue" stroke="midnightblue" points="1963.16,-103.63 1953.25,-107.36 1963.33,-110.63 1963.16,-103.63"/>
</g>
<!-- Node19 -->
<g id="node19" class="node">
<title>Node19</title>
<g id="a_node19"><a xlink:href="java__string__library__preprocess_8cpp.html" target="_top" xlink:title="Java_string_libraries_preprocess, gives code for methods on strings of the java standard library.">
<polygon fill="none" stroke="black" points="3180,-0.5 3180,-52.5 3345,-52.5 3345,-0.5 3180,-0.5"/>
<text text-anchor="start" x="3188" y="-40.5" font-family="Helvetica,sans-Serif" font-size="10.00">/home/runner/work/diffblue</text>
<text text-anchor="start" x="3188" y="-29.5" font-family="Helvetica,sans-Serif" font-size="10.00">&#45;cbmc/diffblue&#45;cbmc/jbmc</text>
<text text-anchor="start" x="3188" y="-18.5" font-family="Helvetica,sans-Serif" font-size="10.00">/src/java_bytecode/java_string</text>
<text text-anchor="middle" x="3262.5" y="-7.5" font-family="Helvetica,sans-Serif" font-size="10.00">_library_preprocess.cpp</text>
</a>
</g>
</g>
<!-- Node1&#45;&gt;Node19 -->
<g id="edge18" class="edge">
<title>Node1&#45;&gt;Node19</title>
<path fill="none" stroke="midnightblue" d="M1963.22,-107.87C2212.01,-104.15 2937.61,-90.33 3171.5,-53 3174.25,-52.56 3177.04,-52.07 3179.85,-51.53"/>
<polygon fill="midnightblue" stroke="midnightblue" points="1963.1,-104.37 1953.15,-108.02 1963.2,-111.37 1963.1,-104.37"/>
</g>
<!-- Node20 -->
<g id="node20" class="node">
<title>Node20</title>
<g id="a_node20"><a xlink:href="java__string__literals_8cpp.html" target="_top" xlink:title=" ">
<polygon fill="none" stroke="black" points="3363,-0.5 3363,-52.5 3528,-52.5 3528,-0.5 3363,-0.5"/>
<text text-anchor="start" x="3371" y="-40.5" font-family="Helvetica,sans-Serif" font-size="10.00">/home/runner/work/diffblue</text>
<text text-anchor="start" x="3371" y="-29.5" font-family="Helvetica,sans-Serif" font-size="10.00">&#45;cbmc/diffblue&#45;cbmc/jbmc</text>
<text text-anchor="start" x="3371" y="-18.5" font-family="Helvetica,sans-Serif" font-size="10.00">/src/java_bytecode/java_string</text>
<text text-anchor="middle" x="3445.5" y="-7.5" font-family="Helvetica,sans-Serif" font-size="10.00">_literals.cpp</text>
</a>
</g>
</g>
<!-- Node1&#45;&gt;Node20 -->
<g id="edge19" class="edge">
<title>Node1&#45;&gt;Node20</title>
<path fill="none" stroke="midnightblue" d="M1963.24,-108.4C2235.13,-106.07 3083.59,-95.49 3354.5,-53 3357.26,-52.57 3360.05,-52.08 3362.86,-51.55"/>
<polygon fill="midnightblue" stroke="midnightblue" points="1963.01,-104.9 1953.04,-108.49 1963.07,-111.9 1963.01,-104.9"/>
</g>
<!-- Node21 -->
<g id="node21" class="node">
<title>Node21</title>
<g id="a_node21"><a xlink:href="remove__java__new_8cpp.html" target="_top" xlink:title="Remove Java New Operators.">
<polygon fill="none" stroke="black" points="3546,-0.5 3546,-52.5 3695,-52.5 3695,-0.5 3546,-0.5"/>
<text text-anchor="start" x="3554" y="-40.5" font-family="Helvetica,sans-Serif" font-size="10.00">/home/runner/work/diffblue</text>
<text text-anchor="start" x="3554" y="-29.5" font-family="Helvetica,sans-Serif" font-size="10.00">&#45;cbmc/diffblue&#45;cbmc/jbmc</text>
<text text-anchor="start" x="3554" y="-18.5" font-family="Helvetica,sans-Serif" font-size="10.00">/src/java_bytecode/remove</text>
<text text-anchor="middle" x="3620.5" y="-7.5" font-family="Helvetica,sans-Serif" font-size="10.00">_java_new.cpp</text>
</a>
</g>
</g>
<!-- Node1&#45;&gt;Node21 -->
<g id="edge20" class="edge">
<title>Node1&#45;&gt;Node21</title>
<path fill="none" stroke="midnightblue" d="M1963.6,-109.09C2257.72,-108.94 3230.09,-104.47 3537.5,-53 3540.18,-52.55 3542.89,-52.04 3545.61,-51.48"/>
<polygon fill="midnightblue" stroke="midnightblue" points="1963.42,-105.59 1953.43,-109.09 1963.43,-112.59 1963.42,-105.59"/>
</g>
</g>
</svg>
