<?xml version="1.0" encoding="UTF-8" standalone="no"?>
<!DOCTYPE svg PUBLIC "-//W3C//DTD SVG 1.1//EN"
 "http://www.w3.org/Graphics/SVG/1.1/DTD/svg11.dtd">
<!-- Generated by graphviz version 2.43.0 (0)
 -->
<!-- Title: /home/runner/work/diffblue&#45;cbmc/diffblue&#45;cbmc/jbmc/src/java_bytecode/expr2java.h Pages: 1 -->
<svg width="1498pt" height="328pt"
 viewBox="0.00 0.00 1498.00 328.00" xmlns="http://www.w3.org/2000/svg" xmlns:xlink="http://www.w3.org/1999/xlink">
<g id="graph0" class="graph" transform="scale(1 1) rotate(0) translate(4 324)">
<title>/home/runner/work/diffblue&#45;cbmc/diffblue&#45;cbmc/jbmc/src/java_bytecode/expr2java.h</title>
<!-- Node1 -->
<g id="node1" class="node">
<title>Node1</title>
<g id="a_node1"><a xlink:title=" ">
<polygon fill="#bfbfbf" stroke="black" points="693,-278.5 693,-319.5 862,-319.5 862,-278.5 693,-278.5"/>
<text text-anchor="start" x="701" y="-307.5" font-family="Helvetica,sans-Serif" font-size="10.00">/home/runner/work/diffblue</text>
<text text-anchor="start" x="701" y="-296.5" font-family="Helvetica,sans-Serif" font-size="10.00">&#45;cbmc/diffblue&#45;cbmc/jbmc</text>
<text text-anchor="middle" x="777.5" y="-285.5" font-family="Helvetica,sans-Serif" font-size="10.00">/src/java_bytecode/expr2java.h</text>
</a>
</g>
</g>
<!-- Node2 -->
<g id="node2" class="node">
<title>Node2</title>
<g id="a_node2"><a xlink:href="expr2java_8cpp.html" target="_top" xlink:title=" ">
<polygon fill="none" stroke="black" points="84.5,-195 84.5,-236 264.5,-236 264.5,-195 84.5,-195"/>
<text text-anchor="start" x="92.5" y="-224" font-family="Helvetica,sans-Serif" font-size="10.00">/home/runner/work/diffblue</text>
<text text-anchor="start" x="92.5" y="-213" font-family="Helvetica,sans-Serif" font-size="10.00">&#45;cbmc/diffblue&#45;cbmc/jbmc</text>
<text text-anchor="middle" x="174.5" y="-202" font-family="Helvetica,sans-Serif" font-size="10.00">/src/java_bytecode/expr2java.cpp</text>
</a>
</g>
</g>
<!-- Node1&#45;&gt;Node2 -->
<g id="edge1" class="edge">
<title>Node1&#45;&gt;Node2</title>
<path fill="none" stroke="midnightblue" d="M682.44,-291.47C580.68,-283.54 414.78,-267.91 273.5,-242 264.33,-240.32 254.77,-238.26 245.34,-236.04"/>
<polygon fill="midnightblue" stroke="midnightblue" points="682.46,-294.98 692.7,-292.26 682.99,-288 682.46,-294.98"/>
</g>
<!-- Node3 -->
<g id="node3" class="node">
<title>Node3</title>
<g id="a_node3"><a xlink:href="generic__parameter__specialization__map_8h.html" target="_top" xlink:title=" ">
<polygon fill="none" stroke="black" points="282.5,-189.5 282.5,-241.5 464.5,-241.5 464.5,-189.5 282.5,-189.5"/>
<text text-anchor="start" x="290.5" y="-229.5" font-family="Helvetica,sans-Serif" font-size="10.00">/home/runner/work/diffblue</text>
<text text-anchor="start" x="290.5" y="-218.5" font-family="Helvetica,sans-Serif" font-size="10.00">&#45;cbmc/diffblue&#45;cbmc/jbmc</text>
<text text-anchor="start" x="290.5" y="-207.5" font-family="Helvetica,sans-Serif" font-size="10.00">/src/java_bytecode/generic</text>
<text text-anchor="middle" x="373.5" y="-196.5" font-family="Helvetica,sans-Serif" font-size="10.00">_parameter_specialization_map.h</text>
</a>
</g>
</g>
<!-- Node1&#45;&gt;Node3 -->
<g id="edge2" class="edge">
<title>Node1&#45;&gt;Node3</title>
<path fill="none" stroke="midnightblue" d="M682.76,-282.11C622.86,-271.66 543.91,-257.16 474.5,-242 471.23,-241.29 467.91,-240.54 464.55,-239.78"/>
<polygon fill="midnightblue" stroke="midnightblue" points="682.51,-285.62 692.96,-283.88 683.71,-278.72 682.51,-285.62"/>
</g>
<!-- Node10 -->
<g id="node10" class="node">
<title>Node10</title>
<g id="a_node10"><a xlink:href="java__bytecode__concurrency__instrumentation_8cpp.html" target="_top" xlink:title=" ">
<polygon fill="none" stroke="black" points="483,-189.5 483,-241.5 668,-241.5 668,-189.5 483,-189.5"/>
<text text-anchor="start" x="491" y="-229.5" font-family="Helvetica,sans-Serif" font-size="10.00">/home/runner/work/diffblue</text>
<text text-anchor="start" x="491" y="-218.5" font-family="Helvetica,sans-Serif" font-size="10.00">&#45;cbmc/diffblue&#45;cbmc/jbmc</text>
<text text-anchor="start" x="491" y="-207.5" font-family="Helvetica,sans-Serif" font-size="10.00">/src/java_bytecode/java_bytecode</text>
<text text-anchor="middle" x="575.5" y="-196.5" font-family="Helvetica,sans-Serif" font-size="10.00">_concurrency_instrumentation.cpp</text>
</a>
</g>
</g>
<!-- Node1&#45;&gt;Node10 -->
<g id="edge9" class="edge">
<title>Node1&#45;&gt;Node10</title>
<path fill="none" stroke="midnightblue" d="M719.54,-274.61C693.91,-264.28 663.74,-252.1 637.65,-241.58"/>
<polygon fill="midnightblue" stroke="midnightblue" points="718.53,-277.98 729.12,-278.48 721.15,-271.49 718.53,-277.98"/>
</g>
<!-- Node11 -->
<g id="node11" class="node">
<title>Node11</title>
<g id="a_node11"><a xlink:href="java__bytecode__language_8cpp.html" target="_top" xlink:title=" ">
<polygon fill="none" stroke="black" points="686.5,-189.5 686.5,-241.5 868.5,-241.5 868.5,-189.5 686.5,-189.5"/>
<text text-anchor="start" x="694.5" y="-229.5" font-family="Helvetica,sans-Serif" font-size="10.00">/home/runner/work/diffblue</text>
<text text-anchor="start" x="694.5" y="-218.5" font-family="Helvetica,sans-Serif" font-size="10.00">&#45;cbmc/diffblue&#45;cbmc/jbmc</text>
<text text-anchor="start" x="694.5" y="-207.5" font-family="Helvetica,sans-Serif" font-size="10.00">/src/java_bytecode/java_bytecode</text>
<text text-anchor="middle" x="777.5" y="-196.5" font-family="Helvetica,sans-Serif" font-size="10.00">_language.cpp</text>
</a>
</g>
</g>
<!-- Node1&#45;&gt;Node11 -->
<g id="edge10" class="edge">
<title>Node1&#45;&gt;Node11</title>
<path fill="none" stroke="midnightblue" d="M777.5,-268.12C777.5,-259.41 777.5,-249.99 777.5,-241.61"/>
<polygon fill="midnightblue" stroke="midnightblue" points="774,-268.27 777.5,-278.27 781,-268.27 774,-268.27"/>
</g>
<!-- Node12 -->
<g id="node12" class="node">
<title>Node12</title>
<g id="a_node12"><a xlink:href="java__bytecode__parse__tree_8cpp.html" target="_top" xlink:title=" ">
<polygon fill="none" stroke="black" points="886.5,-189.5 886.5,-241.5 1068.5,-241.5 1068.5,-189.5 886.5,-189.5"/>
<text text-anchor="start" x="894.5" y="-229.5" font-family="Helvetica,sans-Serif" font-size="10.00">/home/runner/work/diffblue</text>
<text text-anchor="start" x="894.5" y="-218.5" font-family="Helvetica,sans-Serif" font-size="10.00">&#45;cbmc/diffblue&#45;cbmc/jbmc</text>
<text text-anchor="start" x="894.5" y="-207.5" font-family="Helvetica,sans-Serif" font-size="10.00">/src/java_bytecode/java_bytecode</text>
<text text-anchor="middle" x="977.5" y="-196.5" font-family="Helvetica,sans-Serif" font-size="10.00">_parse_tree.cpp</text>
</a>
</g>
</g>
<!-- Node1&#45;&gt;Node12 -->
<g id="edge11" class="edge">
<title>Node1&#45;&gt;Node12</title>
<path fill="none" stroke="midnightblue" d="M834.89,-274.61C860.26,-264.28 890.13,-252.1 915.96,-241.58"/>
<polygon fill="midnightblue" stroke="midnightblue" points="833.34,-271.46 825.4,-278.48 835.99,-277.95 833.34,-271.46"/>
</g>
<!-- Node13 -->
<g id="node13" class="node">
<title>Node13</title>
<g id="a_node13"><a xlink:href="java__bytecode__typecheck_8cpp.html" target="_top" xlink:title="JAVA Bytecode Conversion / Type Checking.">
<polygon fill="none" stroke="black" points="1086.5,-189.5 1086.5,-241.5 1268.5,-241.5 1268.5,-189.5 1086.5,-189.5"/>
<text text-anchor="start" x="1094.5" y="-229.5" font-family="Helvetica,sans-Serif" font-size="10.00">/home/runner/work/diffblue</text>
<text text-anchor="start" x="1094.5" y="-218.5" font-family="Helvetica,sans-Serif" font-size="10.00">&#45;cbmc/diffblue&#45;cbmc/jbmc</text>
<text text-anchor="start" x="1094.5" y="-207.5" font-family="Helvetica,sans-Serif" font-size="10.00">/src/java_bytecode/java_bytecode</text>
<text text-anchor="middle" x="1177.5" y="-196.5" font-family="Helvetica,sans-Serif" font-size="10.00">_typecheck.cpp</text>
</a>
</g>
</g>
<!-- Node1&#45;&gt;Node13 -->
<g id="edge12" class="edge">
<title>Node1&#45;&gt;Node13</title>
<path fill="none" stroke="midnightblue" d="M872.26,-281.94C931.45,-271.51 1009.15,-257.08 1077.5,-242 1080.39,-241.36 1083.32,-240.7 1086.27,-240.02"/>
<polygon fill="midnightblue" stroke="midnightblue" points="871.42,-278.53 862.17,-283.71 872.63,-285.43 871.42,-278.53"/>
</g>
<!-- Node14 -->
<g id="node14" class="node">
<title>Node14</title>
<g id="a_node14"><a xlink:href="java__qualifiers_8cpp.html" target="_top" xlink:title="Java&#45;specific type qualifiers.">
<polygon fill="none" stroke="black" points="1287,-195 1287,-236 1490,-236 1490,-195 1287,-195"/>
<text text-anchor="start" x="1295" y="-224" font-family="Helvetica,sans-Serif" font-size="10.00">/home/runner/work/diffblue</text>
<text text-anchor="start" x="1295" y="-213" font-family="Helvetica,sans-Serif" font-size="10.00">&#45;cbmc/diffblue&#45;cbmc/jbmc</text>
<text text-anchor="middle" x="1388.5" y="-202" font-family="Helvetica,sans-Serif" font-size="10.00">/src/java_bytecode/java_qualifiers.cpp</text>
</a>
</g>
</g>
<!-- Node1&#45;&gt;Node14 -->
<g id="edge13" class="edge">
<title>Node1&#45;&gt;Node14</title>
<path fill="none" stroke="midnightblue" d="M872.57,-290.61C973.49,-282 1137.43,-265.85 1277.5,-242 1287.54,-240.29 1298.03,-238.24 1308.39,-236.05"/>
<polygon fill="midnightblue" stroke="midnightblue" points="872.07,-287.14 862.4,-291.47 872.66,-294.11 872.07,-287.14"/>
</g>
<!-- Node4 -->
<g id="node4" class="node">
<title>Node4</title>
<g id="a_node4"><a xlink:href="ci__lazy__methods__needed_8cpp.html" target="_top" xlink:title="Context&#45;insensitive lazy methods container.">
<polygon fill="none" stroke="black" points="0,-100.5 0,-152.5 149,-152.5 149,-100.5 0,-100.5"/>
<text text-anchor="start" x="8" y="-140.5" font-family="Helvetica,sans-Serif" font-size="10.00">/home/runner/work/diffblue</text>
<text text-anchor="start" x="8" y="-129.5" font-family="Helvetica,sans-Serif" font-size="10.00">&#45;cbmc/diffblue&#45;cbmc/jbmc</text>
<text text-anchor="start" x="8" y="-118.5" font-family="Helvetica,sans-Serif" font-size="10.00">/src/java_bytecode/ci_lazy</text>
<text text-anchor="middle" x="74.5" y="-107.5" font-family="Helvetica,sans-Serif" font-size="10.00">_methods_needed.cpp</text>
</a>
</g>
</g>
<!-- Node3&#45;&gt;Node4 -->
<g id="edge3" class="edge">
<title>Node3&#45;&gt;Node4</title>
<path fill="none" stroke="midnightblue" d="M274.33,-186.73C237.59,-176.32 195.6,-164.27 157.5,-153 154.75,-152.19 151.96,-151.35 149.13,-150.51"/>
<polygon fill="midnightblue" stroke="midnightblue" points="273.48,-190.12 284.05,-189.48 275.38,-183.39 273.48,-190.12"/>
</g>
<!-- Node5 -->
<g id="node5" class="node">
<title>Node5</title>
<g id="a_node5"><a xlink:href="generic__parameter__specialization__map_8cpp.html" target="_top" xlink:title=" ">
<polygon fill="none" stroke="black" points="167,-100.5 167,-152.5 360,-152.5 360,-100.5 167,-100.5"/>
<text text-anchor="start" x="175" y="-140.5" font-family="Helvetica,sans-Serif" font-size="10.00">/home/runner/work/diffblue</text>
<text text-anchor="start" x="175" y="-129.5" font-family="Helvetica,sans-Serif" font-size="10.00">&#45;cbmc/diffblue&#45;cbmc/jbmc</text>
<text text-anchor="start" x="175" y="-118.5" font-family="Helvetica,sans-Serif" font-size="10.00">/src/java_bytecode/generic</text>
<text text-anchor="middle" x="263.5" y="-107.5" font-family="Helvetica,sans-Serif" font-size="10.00">_parameter_specialization_map.cpp</text>
</a>
</g>
</g>
<!-- Node3&#45;&gt;Node5 -->
<g id="edge4" class="edge">
<title>Node3&#45;&gt;Node5</title>
<path fill="none" stroke="midnightblue" d="M333.59,-182.93C320.97,-172.96 307.21,-162.07 295.25,-152.61"/>
<polygon fill="midnightblue" stroke="midnightblue" points="331.67,-185.88 341.68,-189.34 336.01,-180.39 331.67,-185.88"/>
</g>
<!-- Node6 -->
<g id="node6" class="node">
<title>Node6</title>
<g id="a_node6"><a xlink:href="generic__parameter__specialization__map__keys_8h.html" target="_top" xlink:title="Author: Diffblue Ltd.">
<polygon fill="none" stroke="black" points="378,-100.5 378,-152.5 587,-152.5 587,-100.5 378,-100.5"/>
<text text-anchor="start" x="386" y="-140.5" font-family="Helvetica,sans-Serif" font-size="10.00">/home/runner/work/diffblue</text>
<text text-anchor="start" x="386" y="-129.5" font-family="Helvetica,sans-Serif" font-size="10.00">&#45;cbmc/diffblue&#45;cbmc/jbmc</text>
<text text-anchor="start" x="386" y="-118.5" font-family="Helvetica,sans-Serif" font-size="10.00">/src/java_bytecode/generic</text>
<text text-anchor="middle" x="482.5" y="-107.5" font-family="Helvetica,sans-Serif" font-size="10.00">_parameter_specialization_map_keys.h</text>
</a>
</g>
</g>
<!-- Node3&#45;&gt;Node6 -->
<g id="edge5" class="edge">
<title>Node3&#45;&gt;Node6</title>
<path fill="none" stroke="midnightblue" d="M413.05,-182.93C425.55,-172.96 439.19,-162.07 451.04,-152.61"/>
<polygon fill="midnightblue" stroke="midnightblue" points="410.66,-180.36 405.03,-189.34 415.03,-185.83 410.66,-180.36"/>
</g>
<!-- Node9 -->
<g id="node9" class="node">
<title>Node9</title>
<g id="a_node9"><a xlink:href="select__pointer__type_8cpp.html" target="_top" xlink:title="Handle selection of correct pointer type (for example changing abstract classes to concrete versions)...">
<polygon fill="none" stroke="black" points="605,-100.5 605,-152.5 754,-152.5 754,-100.5 605,-100.5"/>
<text text-anchor="start" x="613" y="-140.5" font-family="Helvetica,sans-Serif" font-size="10.00">/home/runner/work/diffblue</text>
<text text-anchor="start" x="613" y="-129.5" font-family="Helvetica,sans-Serif" font-size="10.00">&#45;cbmc/diffblue&#45;cbmc/jbmc</text>
<text text-anchor="start" x="613" y="-118.5" font-family="Helvetica,sans-Serif" font-size="10.00">/src/java_bytecode/select</text>
<text text-anchor="middle" x="679.5" y="-107.5" font-family="Helvetica,sans-Serif" font-size="10.00">_pointer_type.cpp</text>
</a>
</g>
</g>
<!-- Node3&#45;&gt;Node9 -->
<g id="edge8" class="edge">
<title>Node3&#45;&gt;Node9</title>
<path fill="none" stroke="midnightblue" d="M474.65,-187.27C512.9,-176.8 556.77,-164.58 596.5,-153 599.25,-152.2 602.05,-151.38 604.87,-150.54"/>
<polygon fill="midnightblue" stroke="midnightblue" points="473.26,-184.02 464.54,-190.03 475.11,-190.77 473.26,-184.02"/>
</g>
<!-- Node7 -->
<g id="node7" class="node">
<title>Node7</title>
<g id="a_node7"><a xlink:href="generic__parameter__specialization__map__keys_8cpp.html" target="_top" xlink:title=" ">
<polygon fill="none" stroke="black" points="302,-0.5 302,-63.5 475,-63.5 475,-0.5 302,-0.5"/>
<text text-anchor="start" x="310" y="-51.5" font-family="Helvetica,sans-Serif" font-size="10.00">/home/runner/work/diffblue</text>
<text text-anchor="start" x="310" y="-40.5" font-family="Helvetica,sans-Serif" font-size="10.00">&#45;cbmc/diffblue&#45;cbmc/jbmc</text>
<text text-anchor="start" x="310" y="-29.5" font-family="Helvetica,sans-Serif" font-size="10.00">/src/java_bytecode/generic</text>
<text text-anchor="start" x="310" y="-18.5" font-family="Helvetica,sans-Serif" font-size="10.00">_parameter_specialization_map</text>
<text text-anchor="middle" x="388.5" y="-7.5" font-family="Helvetica,sans-Serif" font-size="10.00">_keys.cpp</text>
</a>
</g>
</g>
<!-- Node6&#45;&gt;Node7 -->
<g id="edge6" class="edge">
<title>Node6&#45;&gt;Node7</title>
<path fill="none" stroke="midnightblue" d="M449.55,-93.08C439.79,-83.47 429.14,-72.99 419.51,-63.51"/>
<polygon fill="midnightblue" stroke="midnightblue" points="447.23,-95.7 456.81,-100.22 452.14,-90.72 447.23,-95.7"/>
</g>
<!-- Node8 -->
<g id="node8" class="node">
<title>Node8</title>
<g id="a_node8"><a xlink:href="java__object__factory_8cpp.html" target="_top" xlink:title=" ">
<polygon fill="none" stroke="black" points="493,-6 493,-58 660,-58 660,-6 493,-6"/>
<text text-anchor="start" x="501" y="-46" font-family="Helvetica,sans-Serif" font-size="10.00">/home/runner/work/diffblue</text>
<text text-anchor="start" x="501" y="-35" font-family="Helvetica,sans-Serif" font-size="10.00">&#45;cbmc/diffblue&#45;cbmc/jbmc</text>
<text text-anchor="start" x="501" y="-24" font-family="Helvetica,sans-Serif" font-size="10.00">/src/java_bytecode/java_object</text>
<text text-anchor="middle" x="576.5" y="-13" font-family="Helvetica,sans-Serif" font-size="10.00">_factory.cpp</text>
</a>
</g>
</g>
<!-- Node6&#45;&gt;Node8 -->
<g id="edge7" class="edge">
<title>Node6&#45;&gt;Node8</title>
<path fill="none" stroke="midnightblue" d="M515.58,-92.95C527.16,-81.56 539.97,-68.95 550.85,-58.25"/>
<polygon fill="midnightblue" stroke="midnightblue" points="512.86,-90.72 508.19,-100.22 517.77,-95.7 512.86,-90.72"/>
</g>
</g>
</svg>
