<?xml version="1.0" encoding="UTF-8" standalone="no"?>
<!DOCTYPE svg PUBLIC "-//W3C//DTD SVG 1.1//EN"
 "http://www.w3.org/Graphics/SVG/1.1/DTD/svg11.dtd">
<!-- Generated by graphviz version 2.43.0 (0)
 -->
<!-- Title: /home/runner/work/diffblue&#45;cbmc/diffblue&#45;cbmc/src/goto&#45;symex/expr_skeleton.h Pages: 1 -->
<svg width="1368pt" height="139pt"
 viewBox="0.00 0.00 1367.50 139.00" xmlns="http://www.w3.org/2000/svg" xmlns:xlink="http://www.w3.org/1999/xlink">
<g id="graph0" class="graph" transform="scale(1 1) rotate(0) translate(4 135)">
<title>/home/runner/work/diffblue&#45;cbmc/diffblue&#45;cbmc/src/goto&#45;symex/expr_skeleton.h</title>
<!-- Node1 -->
<g id="node1" class="node">
<title>Node1</title>
<g id="a_node1"><a xlink:title="Expression skeleton.">
<polygon fill="#bfbfbf" stroke="black" points="574,-89.5 574,-130.5 732,-130.5 732,-89.5 574,-89.5"/>
<text text-anchor="start" x="582" y="-118.5" font-family="Helvetica,sans-Serif" font-size="10.00">/home/runner/work/diffblue</text>
<text text-anchor="start" x="582" y="-107.5" font-family="Helvetica,sans-Serif" font-size="10.00">&#45;cbmc/diffblue&#45;cbmc/src</text>
<text text-anchor="middle" x="653" y="-96.5" font-family="Helvetica,sans-Serif" font-size="10.00">/goto&#45;symex/expr_skeleton.h</text>
</a>
</g>
</g>
<!-- Node2 -->
<g id="node2" class="node">
<title>Node2</title>
<g id="a_node2"><a xlink:href="expr__skeleton_8cpp.html" target="_top" xlink:title="Expression skeleton.">
<polygon fill="none" stroke="black" points="0,-6 0,-47 170,-47 170,-6 0,-6"/>
<text text-anchor="start" x="8" y="-35" font-family="Helvetica,sans-Serif" font-size="10.00">/home/runner/work/diffblue</text>
<text text-anchor="start" x="8" y="-24" font-family="Helvetica,sans-Serif" font-size="10.00">&#45;cbmc/diffblue&#45;cbmc/src</text>
<text text-anchor="middle" x="85" y="-13" font-family="Helvetica,sans-Serif" font-size="10.00">/goto&#45;symex/expr_skeleton.cpp</text>
</a>
</g>
</g>
<!-- Node1&#45;&gt;Node2 -->
<g id="edge1" class="edge">
<title>Node1&#45;&gt;Node2</title>
<path fill="none" stroke="midnightblue" d="M563.39,-102.37C467.62,-94.37 311.65,-78.68 179,-53 170.28,-51.31 161.19,-49.24 152.24,-47.02"/>
<polygon fill="midnightblue" stroke="midnightblue" points="563.36,-105.88 573.61,-103.22 563.94,-98.9 563.36,-105.88"/>
</g>
<!-- Node3 -->
<g id="node3" class="node">
<title>Node3</title>
<g id="a_node3"><a xlink:href="goto__symex_8cpp.html" target="_top" xlink:title="Symbolic Execution.">
<polygon fill="none" stroke="black" points="188.5,-6 188.5,-47 349.5,-47 349.5,-6 188.5,-6"/>
<text text-anchor="start" x="196.5" y="-35" font-family="Helvetica,sans-Serif" font-size="10.00">/home/runner/work/diffblue</text>
<text text-anchor="start" x="196.5" y="-24" font-family="Helvetica,sans-Serif" font-size="10.00">&#45;cbmc/diffblue&#45;cbmc/src</text>
<text text-anchor="middle" x="269" y="-13" font-family="Helvetica,sans-Serif" font-size="10.00">/goto&#45;symex/goto_symex.cpp</text>
</a>
</g>
</g>
<!-- Node1&#45;&gt;Node3 -->
<g id="edge2" class="edge">
<title>Node1&#45;&gt;Node3</title>
<path fill="none" stroke="midnightblue" d="M563.71,-94.24C504.97,-83.99 426.56,-69.29 358,-53 350.49,-51.22 342.67,-49.2 334.92,-47.11"/>
<polygon fill="midnightblue" stroke="midnightblue" points="563.25,-97.71 573.7,-95.97 564.45,-90.82 563.25,-97.71"/>
</g>
<!-- Node4 -->
<g id="node4" class="node">
<title>Node4</title>
<g id="a_node4"><a xlink:href="symex__assign_8cpp.html" target="_top" xlink:title="Symbolic Execution.">
<polygon fill="none" stroke="black" points="367.5,-6 367.5,-47 538.5,-47 538.5,-6 367.5,-6"/>
<text text-anchor="start" x="375.5" y="-35" font-family="Helvetica,sans-Serif" font-size="10.00">/home/runner/work/diffblue</text>
<text text-anchor="start" x="375.5" y="-24" font-family="Helvetica,sans-Serif" font-size="10.00">&#45;cbmc/diffblue&#45;cbmc/src</text>
<text text-anchor="middle" x="453" y="-13" font-family="Helvetica,sans-Serif" font-size="10.00">/goto&#45;symex/symex_assign.cpp</text>
</a>
</g>
</g>
<!-- Node1&#45;&gt;Node4 -->
<g id="edge3" class="edge">
<title>Node1&#45;&gt;Node4</title>
<path fill="none" stroke="midnightblue" d="M595.6,-85.61C565.6,-73.39 529.32,-58.6 500.86,-47"/>
<polygon fill="midnightblue" stroke="midnightblue" points="594.51,-88.95 605.1,-89.48 597.16,-82.46 594.51,-88.95"/>
</g>
<!-- Node5 -->
<g id="node5" class="node">
<title>Node5</title>
<g id="a_node5"><a xlink:href="symex__clean__expr_8cpp.html" target="_top" xlink:title="Symbolic Execution of ANSI&#45;C.">
<polygon fill="none" stroke="black" points="557,-6 557,-47 749,-47 749,-6 557,-6"/>
<text text-anchor="start" x="565" y="-35" font-family="Helvetica,sans-Serif" font-size="10.00">/home/runner/work/diffblue</text>
<text text-anchor="start" x="565" y="-24" font-family="Helvetica,sans-Serif" font-size="10.00">&#45;cbmc/diffblue&#45;cbmc/src</text>
<text text-anchor="middle" x="653" y="-13" font-family="Helvetica,sans-Serif" font-size="10.00">/goto&#45;symex/symex_clean_expr.cpp</text>
</a>
</g>
</g>
<!-- Node1&#45;&gt;Node5 -->
<g id="edge4" class="edge">
<title>Node1&#45;&gt;Node5</title>
<path fill="none" stroke="midnightblue" d="M653,-79.06C653,-68.38 653,-56.63 653,-47.05"/>
<polygon fill="midnightblue" stroke="midnightblue" points="649.5,-79.27 653,-89.27 656.5,-79.27 649.5,-79.27"/>
</g>
<!-- Node6 -->
<g id="node6" class="node">
<title>Node6</title>
<g id="a_node6"><a xlink:href="symex__dereference_8cpp.html" target="_top" xlink:title="Symbolic Execution of ANSI&#45;C.">
<polygon fill="none" stroke="black" points="767,-6 767,-47 965,-47 965,-6 767,-6"/>
<text text-anchor="start" x="775" y="-35" font-family="Helvetica,sans-Serif" font-size="10.00">/home/runner/work/diffblue</text>
<text text-anchor="start" x="775" y="-24" font-family="Helvetica,sans-Serif" font-size="10.00">&#45;cbmc/diffblue&#45;cbmc/src</text>
<text text-anchor="middle" x="866" y="-13" font-family="Helvetica,sans-Serif" font-size="10.00">/goto&#45;symex/symex_dereference.cpp</text>
</a>
</g>
</g>
<!-- Node1&#45;&gt;Node6 -->
<g id="edge5" class="edge">
<title>Node1&#45;&gt;Node6</title>
<path fill="none" stroke="midnightblue" d="M713.72,-85.77C745.74,-73.51 784.59,-58.65 815.03,-47"/>
<polygon fill="midnightblue" stroke="midnightblue" points="712.11,-82.64 704.02,-89.48 714.61,-89.17 712.11,-82.64"/>
</g>
<!-- Node7 -->
<g id="node7" class="node">
<title>Node7</title>
<g id="a_node7"><a xlink:href="symex__function__call_8cpp.html" target="_top" xlink:title="Symbolic Execution of ANSI&#45;C.">
<polygon fill="none" stroke="black" points="983.5,-0.5 983.5,-52.5 1142.5,-52.5 1142.5,-0.5 983.5,-0.5"/>
<text text-anchor="start" x="991.5" y="-40.5" font-family="Helvetica,sans-Serif" font-size="10.00">/home/runner/work/diffblue</text>
<text text-anchor="start" x="991.5" y="-29.5" font-family="Helvetica,sans-Serif" font-size="10.00">&#45;cbmc/diffblue&#45;cbmc/src</text>
<text text-anchor="start" x="991.5" y="-18.5" font-family="Helvetica,sans-Serif" font-size="10.00">/goto&#45;symex/symex_function</text>
<text text-anchor="middle" x="1063" y="-7.5" font-family="Helvetica,sans-Serif" font-size="10.00">_call.cpp</text>
</a>
</g>
</g>
<!-- Node1&#45;&gt;Node7 -->
<g id="edge6" class="edge">
<title>Node1&#45;&gt;Node7</title>
<path fill="none" stroke="midnightblue" d="M742.45,-96.01C807.13,-85.98 896.41,-70.83 974,-53 976.98,-52.32 980,-51.59 983.05,-50.84"/>
<polygon fill="midnightblue" stroke="midnightblue" points="741.64,-92.59 732.29,-97.57 742.71,-99.51 741.64,-92.59"/>
</g>
<!-- Node8 -->
<g id="node8" class="node">
<title>Node8</title>
<g id="a_node8"><a xlink:href="symex__start__thread_8cpp.html" target="_top" xlink:title="Symbolic Execution.">
<polygon fill="none" stroke="black" points="1160.5,-6 1160.5,-47 1359.5,-47 1359.5,-6 1160.5,-6"/>
<text text-anchor="start" x="1168.5" y="-35" font-family="Helvetica,sans-Serif" font-size="10.00">/home/runner/work/diffblue</text>
<text text-anchor="start" x="1168.5" y="-24" font-family="Helvetica,sans-Serif" font-size="10.00">&#45;cbmc/diffblue&#45;cbmc/src</text>
<text text-anchor="middle" x="1260" y="-13" font-family="Helvetica,sans-Serif" font-size="10.00">/goto&#45;symex/symex_start_thread.cpp</text>
</a>
</g>
</g>
<!-- Node1&#45;&gt;Node8 -->
<g id="edge7" class="edge">
<title>Node1&#45;&gt;Node8</title>
<path fill="none" stroke="midnightblue" d="M742.14,-102.25C842.32,-93.9 1009.59,-77.71 1152,-53 1161.87,-51.29 1172.19,-49.22 1182.36,-47.01"/>
<polygon fill="midnightblue" stroke="midnightblue" points="741.74,-98.77 732.06,-103.08 742.32,-105.74 741.74,-98.77"/>
</g>
</g>
</svg>
