<?xml version="1.0" encoding="UTF-8" standalone="no"?>
<!DOCTYPE svg PUBLIC "-//W3C//DTD SVG 1.1//EN"
 "http://www.w3.org/Graphics/SVG/1.1/DTD/svg11.dtd">
<!-- Generated by graphviz version 2.43.0 (0)
 -->
<!-- Title: /home/runner/work/diffblue&#45;cbmc/diffblue&#45;cbmc/src/goto&#45;checker/fatal_assertions.h Pages: 1 -->
<svg width="752pt" height="217pt"
 viewBox="0.00 0.00 751.50 217.00" xmlns="http://www.w3.org/2000/svg" xmlns:xlink="http://www.w3.org/1999/xlink">
<g id="graph0" class="graph" transform="scale(1 1) rotate(0) translate(4 213)">
<title>/home/runner/work/diffblue&#45;cbmc/diffblue&#45;cbmc/src/goto&#45;checker/fatal_assertions.h</title>
<!-- Node1 -->
<g id="node1" class="node">
<title>Node1</title>
<g id="a_node1"><a xlink:title="Fatal Assertions.">
<polygon fill="#bfbfbf" stroke="black" points="384,-167.5 384,-208.5 557,-208.5 557,-167.5 384,-167.5"/>
<text text-anchor="start" x="392" y="-196.5" font-family="Helvetica,sans-Serif" font-size="10.00">/home/runner/work/diffblue</text>
<text text-anchor="start" x="392" y="-185.5" font-family="Helvetica,sans-Serif" font-size="10.00">&#45;cbmc/diffblue&#45;cbmc/src</text>
<text text-anchor="middle" x="470.5" y="-174.5" font-family="Helvetica,sans-Serif" font-size="10.00">/goto&#45;checker/fatal_assertions.h</text>
</a>
</g>
</g>
<!-- Node2 -->
<g id="node2" class="node">
<title>Node2</title>
<g id="a_node2"><a xlink:href="all__properties__verifier__with__trace__storage_8h.html" target="_top" xlink:title="Goto verifier for verifying all properties that stores traces.">
<polygon fill="none" stroke="black" points="292.5,-78.5 292.5,-130.5 456.5,-130.5 456.5,-78.5 292.5,-78.5"/>
<text text-anchor="start" x="300.5" y="-118.5" font-family="Helvetica,sans-Serif" font-size="10.00">/home/runner/work/diffblue</text>
<text text-anchor="start" x="300.5" y="-107.5" font-family="Helvetica,sans-Serif" font-size="10.00">&#45;cbmc/diffblue&#45;cbmc/src</text>
<text text-anchor="start" x="300.5" y="-96.5" font-family="Helvetica,sans-Serif" font-size="10.00">/goto&#45;checker/all_properties</text>
<text text-anchor="middle" x="374.5" y="-85.5" font-family="Helvetica,sans-Serif" font-size="10.00">_verifier_with_trace_storage.h</text>
</a>
</g>
</g>
<!-- Node1&#45;&gt;Node2 -->
<g id="edge1" class="edge">
<title>Node1&#45;&gt;Node2</title>
<path fill="none" stroke="midnightblue" d="M439.31,-160.52C428,-150.92 415.25,-140.09 404.07,-130.61"/>
<polygon fill="midnightblue" stroke="midnightblue" points="437.37,-163.47 447.26,-167.27 441.9,-158.13 437.37,-163.47"/>
</g>
<!-- Node7 -->
<g id="node7" class="node">
<title>Node7</title>
<g id="a_node7"><a xlink:href="fatal__assertions_8cpp.html" target="_top" xlink:title="Fatal Assertions.">
<polygon fill="none" stroke="black" points="474.5,-84 474.5,-125 658.5,-125 658.5,-84 474.5,-84"/>
<text text-anchor="start" x="482.5" y="-113" font-family="Helvetica,sans-Serif" font-size="10.00">/home/runner/work/diffblue</text>
<text text-anchor="start" x="482.5" y="-102" font-family="Helvetica,sans-Serif" font-size="10.00">&#45;cbmc/diffblue&#45;cbmc/src</text>
<text text-anchor="middle" x="566.5" y="-91" font-family="Helvetica,sans-Serif" font-size="10.00">/goto&#45;checker/fatal_assertions.cpp</text>
</a>
</g>
</g>
<!-- Node1&#45;&gt;Node7 -->
<g id="edge6" class="edge">
<title>Node1&#45;&gt;Node7</title>
<path fill="none" stroke="midnightblue" d="M501.49,-160.69C515.14,-149.1 530.89,-135.73 543.48,-125.05"/>
<polygon fill="midnightblue" stroke="midnightblue" points="499.1,-158.13 493.74,-167.27 503.63,-163.47 499.1,-158.13"/>
</g>
<!-- Node3 -->
<g id="node3" class="node">
<title>Node3</title>
<g id="a_node3"><a xlink:href="cbmc__parse__options_8cpp.html" target="_top" xlink:title="CBMC Command Line Option Processing.">
<polygon fill="none" stroke="black" points="0,-0.5 0,-41.5 169,-41.5 169,-0.5 0,-0.5"/>
<text text-anchor="start" x="8" y="-29.5" font-family="Helvetica,sans-Serif" font-size="10.00">/home/runner/work/diffblue</text>
<text text-anchor="start" x="8" y="-18.5" font-family="Helvetica,sans-Serif" font-size="10.00">&#45;cbmc/diffblue&#45;cbmc/src</text>
<text text-anchor="middle" x="84.5" y="-7.5" font-family="Helvetica,sans-Serif" font-size="10.00">/cbmc/cbmc_parse_options.cpp</text>
</a>
</g>
</g>
<!-- Node2&#45;&gt;Node3 -->
<g id="edge2" class="edge">
<title>Node2&#45;&gt;Node3</title>
<path fill="none" stroke="midnightblue" d="M282.33,-77.6C240.85,-65.94 192.68,-52.4 154.26,-41.61"/>
<polygon fill="midnightblue" stroke="midnightblue" points="281.6,-81.03 292.17,-80.36 283.49,-74.29 281.6,-81.03"/>
</g>
<!-- Node4 -->
<g id="node4" class="node">
<title>Node4</title>
<g id="a_node4"><a xlink:href="cegis__verifier_8cpp.html" target="_top" xlink:title="Verifier for Counterexample&#45;Guided Synthesis.">
<polygon fill="none" stroke="black" points="187,-0.5 187,-41.5 376,-41.5 376,-0.5 187,-0.5"/>
<text text-anchor="start" x="195" y="-29.5" font-family="Helvetica,sans-Serif" font-size="10.00">/home/runner/work/diffblue</text>
<text text-anchor="start" x="195" y="-18.5" font-family="Helvetica,sans-Serif" font-size="10.00">&#45;cbmc/diffblue&#45;cbmc/src</text>
<text text-anchor="middle" x="281.5" y="-7.5" font-family="Helvetica,sans-Serif" font-size="10.00">/goto&#45;synthesizer/cegis_verifier.cpp</text>
</a>
</g>
</g>
<!-- Node2&#45;&gt;Node4 -->
<g id="edge3" class="edge">
<title>Node2&#45;&gt;Node4</title>
<path fill="none" stroke="midnightblue" d="M338.06,-71.57C326.58,-61.5 314.24,-50.69 304.02,-41.73"/>
<polygon fill="midnightblue" stroke="midnightblue" points="336.01,-74.42 345.84,-78.38 340.62,-69.16 336.01,-74.42"/>
</g>
<!-- Node5 -->
<g id="node5" class="node">
<title>Node5</title>
<g id="a_node5"><a xlink:href="api_8cpp.html" target="_top" xlink:title=" ">
<polygon fill="none" stroke="black" points="394,-0.5 394,-41.5 543,-41.5 543,-0.5 394,-0.5"/>
<text text-anchor="start" x="402" y="-29.5" font-family="Helvetica,sans-Serif" font-size="10.00">/home/runner/work/diffblue</text>
<text text-anchor="start" x="402" y="-18.5" font-family="Helvetica,sans-Serif" font-size="10.00">&#45;cbmc/diffblue&#45;cbmc/src</text>
<text text-anchor="middle" x="468.5" y="-7.5" font-family="Helvetica,sans-Serif" font-size="10.00">/libcprover&#45;cpp/api.cpp</text>
</a>
</g>
</g>
<!-- Node2&#45;&gt;Node5 -->
<g id="edge4" class="edge">
<title>Node2&#45;&gt;Node5</title>
<path fill="none" stroke="midnightblue" d="M411.33,-71.57C422.94,-61.5 435.41,-50.69 445.74,-41.73"/>
<polygon fill="midnightblue" stroke="midnightblue" points="408.73,-69.19 403.47,-78.38 413.32,-74.48 408.73,-69.19"/>
</g>
<!-- Node6 -->
<g id="node6" class="node">
<title>Node6</title>
<g id="a_node6"><a xlink:href="jbmc__parse__options_8cpp.html" target="_top" xlink:title="JBMC Command Line Option Processing.">
<polygon fill="none" stroke="black" points="561.5,-0.5 561.5,-41.5 743.5,-41.5 743.5,-0.5 561.5,-0.5"/>
<text text-anchor="start" x="569.5" y="-29.5" font-family="Helvetica,sans-Serif" font-size="10.00">/home/runner/work/diffblue</text>
<text text-anchor="start" x="569.5" y="-18.5" font-family="Helvetica,sans-Serif" font-size="10.00">&#45;cbmc/diffblue&#45;cbmc/jbmc</text>
<text text-anchor="middle" x="652.5" y="-7.5" font-family="Helvetica,sans-Serif" font-size="10.00">/src/jbmc/jbmc_parse_options.cpp</text>
</a>
</g>
</g>
<!-- Node2&#45;&gt;Node6 -->
<g id="edge5" class="edge">
<title>Node2&#45;&gt;Node6</title>
<path fill="none" stroke="midnightblue" d="M466.56,-76.51C505.55,-65.08 550.11,-52.02 585.83,-41.54"/>
<polygon fill="midnightblue" stroke="midnightblue" points="465.39,-73.21 456.78,-79.38 467.36,-79.92 465.39,-73.21"/>
</g>
</g>
</svg>
