<?xml version="1.0" encoding="UTF-8" standalone="no"?>
<!DOCTYPE svg PUBLIC "-//W3C//DTD SVG 1.1//EN"
 "http://www.w3.org/Graphics/SVG/1.1/DTD/svg11.dtd">
<!-- Generated by graphviz version 2.43.0 (0)
 -->
<!-- Title: /home/runner/work/diffblue&#45;cbmc/diffblue&#45;cbmc/src/goto&#45;checker/fault_localization_provider.h Pages: 1 -->
<svg width="1153pt" height="328pt"
 viewBox="0.00 0.00 1153.00 328.00" xmlns="http://www.w3.org/2000/svg" xmlns:xlink="http://www.w3.org/1999/xlink">
<g id="graph0" class="graph" transform="scale(1 1) rotate(0) translate(4 324)">
<title>/home/runner/work/diffblue&#45;cbmc/diffblue&#45;cbmc/src/goto&#45;checker/fault_localization_provider.h</title>
<!-- Node1 -->
<g id="node1" class="node">
<title>Node1</title>
<g id="a_node1"><a xlink:title="Interface for Goto Checkers to provide Fault Localization.">
<polygon fill="#bfbfbf" stroke="black" points="437.5,-267.5 437.5,-319.5 607.5,-319.5 607.5,-267.5 437.5,-267.5"/>
<text text-anchor="start" x="445.5" y="-307.5" font-family="Helvetica,sans-Serif" font-size="10.00">/home/runner/work/diffblue</text>
<text text-anchor="start" x="445.5" y="-296.5" font-family="Helvetica,sans-Serif" font-size="10.00">&#45;cbmc/diffblue&#45;cbmc/src</text>
<text text-anchor="start" x="445.5" y="-285.5" font-family="Helvetica,sans-Serif" font-size="10.00">/goto&#45;checker/fault_localization</text>
<text text-anchor="middle" x="522.5" y="-274.5" font-family="Helvetica,sans-Serif" font-size="10.00">_provider.h</text>
</a>
</g>
</g>
<!-- Node2 -->
<g id="node2" class="node">
<title>Node2</title>
<g id="a_node2"><a xlink:href="all__properties__verifier__with__fault__localization_8h.html" target="_top" xlink:title="Goto verifier for verifying all properties that stores traces and localizes faults.">
<polygon fill="none" stroke="black" points="199,-178.5 199,-230.5 380,-230.5 380,-178.5 199,-178.5"/>
<text text-anchor="start" x="207" y="-218.5" font-family="Helvetica,sans-Serif" font-size="10.00">/home/runner/work/diffblue</text>
<text text-anchor="start" x="207" y="-207.5" font-family="Helvetica,sans-Serif" font-size="10.00">&#45;cbmc/diffblue&#45;cbmc/src</text>
<text text-anchor="start" x="207" y="-196.5" font-family="Helvetica,sans-Serif" font-size="10.00">/goto&#45;checker/all_properties</text>
<text text-anchor="middle" x="289.5" y="-185.5" font-family="Helvetica,sans-Serif" font-size="10.00">_verifier_with_fault_localization.h</text>
</a>
</g>
</g>
<!-- Node1&#45;&gt;Node2 -->
<g id="edge1" class="edge">
<title>Node1&#45;&gt;Node2</title>
<path fill="none" stroke="midnightblue" d="M445.79,-263.86C416.95,-253.09 384.4,-240.94 356.51,-230.52"/>
<polygon fill="midnightblue" stroke="midnightblue" points="444.83,-267.23 455.42,-267.45 447.28,-260.68 444.83,-267.23"/>
</g>
<!-- Node5 -->
<g id="node5" class="node">
<title>Node5</title>
<g id="a_node5"><a xlink:href="goto__symex__fault__localizer_8h.html" target="_top" xlink:title="Fault Localization for Goto Symex.">
<polygon fill="none" stroke="black" points="722,-178.5 722,-230.5 871,-230.5 871,-178.5 722,-178.5"/>
<text text-anchor="start" x="730" y="-218.5" font-family="Helvetica,sans-Serif" font-size="10.00">/home/runner/work/diffblue</text>
<text text-anchor="start" x="730" y="-207.5" font-family="Helvetica,sans-Serif" font-size="10.00">&#45;cbmc/diffblue&#45;cbmc/src</text>
<text text-anchor="start" x="730" y="-196.5" font-family="Helvetica,sans-Serif" font-size="10.00">/goto&#45;checker/goto_symex</text>
<text text-anchor="middle" x="796.5" y="-185.5" font-family="Helvetica,sans-Serif" font-size="10.00">_fault_localizer.h</text>
</a>
</g>
</g>
<!-- Node1&#45;&gt;Node5 -->
<g id="edge4" class="edge">
<title>Node1&#45;&gt;Node5</title>
<path fill="none" stroke="midnightblue" d="M611.32,-264.3C647.05,-252.95 687.78,-240.02 721.93,-229.18"/>
<polygon fill="midnightblue" stroke="midnightblue" points="609.86,-261.09 601.38,-267.45 611.97,-267.76 609.86,-261.09"/>
</g>
<!-- Node8 -->
<g id="node8" class="node">
<title>Node8</title>
<g id="a_node8"><a xlink:href="multi__path__symex__checker_8h.html" target="_top" xlink:title="Goto Checker using Multi&#45;Path Symbolic Execution.">
<polygon fill="none" stroke="black" points="448,-178.5 448,-230.5 597,-230.5 597,-178.5 448,-178.5"/>
<text text-anchor="start" x="456" y="-218.5" font-family="Helvetica,sans-Serif" font-size="10.00">/home/runner/work/diffblue</text>
<text text-anchor="start" x="456" y="-207.5" font-family="Helvetica,sans-Serif" font-size="10.00">&#45;cbmc/diffblue&#45;cbmc/src</text>
<text text-anchor="start" x="456" y="-196.5" font-family="Helvetica,sans-Serif" font-size="10.00">/goto&#45;checker/multi_path</text>
<text text-anchor="middle" x="522.5" y="-185.5" font-family="Helvetica,sans-Serif" font-size="10.00">_symex_checker.h</text>
</a>
</g>
</g>
<!-- Node1&#45;&gt;Node8 -->
<g id="edge7" class="edge">
<title>Node1&#45;&gt;Node8</title>
<path fill="none" stroke="midnightblue" d="M522.5,-257.19C522.5,-248.28 522.5,-238.9 522.5,-230.61"/>
<polygon fill="midnightblue" stroke="midnightblue" points="519,-257.34 522.5,-267.34 526,-257.34 519,-257.34"/>
</g>
<!-- Node13 -->
<g id="node13" class="node">
<title>Node13</title>
<g id="a_node13"><a xlink:href="report__util_8cpp.html" target="_top" xlink:title="Bounded Model Checking Utilities.">
<polygon fill="none" stroke="black" points="889.5,-184 889.5,-225 1045.5,-225 1045.5,-184 889.5,-184"/>
<text text-anchor="start" x="897.5" y="-213" font-family="Helvetica,sans-Serif" font-size="10.00">/home/runner/work/diffblue</text>
<text text-anchor="start" x="897.5" y="-202" font-family="Helvetica,sans-Serif" font-size="10.00">&#45;cbmc/diffblue&#45;cbmc/src</text>
<text text-anchor="middle" x="967.5" y="-191" font-family="Helvetica,sans-Serif" font-size="10.00">/goto&#45;checker/report_util.cpp</text>
</a>
</g>
</g>
<!-- Node1&#45;&gt;Node13 -->
<g id="edge15" class="edge">
<title>Node1&#45;&gt;Node13</title>
<path fill="none" stroke="midnightblue" d="M617.71,-279.19C690.19,-268.33 792.19,-251.46 880.5,-231 888.17,-229.22 896.16,-227.17 904.05,-225.01"/>
<polygon fill="midnightblue" stroke="midnightblue" points="617.05,-275.75 607.68,-280.69 618.09,-282.68 617.05,-275.75"/>
</g>
<!-- Node14 -->
<g id="node14" class="node">
<title>Node14</title>
<g id="a_node14"><a xlink:href="stop__on__fail__verifier__with__fault__localization_8h.html" target="_top" xlink:title="Goto Verifier for stopping at the first failing property and localizing the fault.">
<polygon fill="none" stroke="black" points="0,-178.5 0,-230.5 181,-230.5 181,-178.5 0,-178.5"/>
<text text-anchor="start" x="8" y="-218.5" font-family="Helvetica,sans-Serif" font-size="10.00">/home/runner/work/diffblue</text>
<text text-anchor="start" x="8" y="-207.5" font-family="Helvetica,sans-Serif" font-size="10.00">&#45;cbmc/diffblue&#45;cbmc/src</text>
<text text-anchor="start" x="8" y="-196.5" font-family="Helvetica,sans-Serif" font-size="10.00">/goto&#45;checker/stop_on_fail</text>
<text text-anchor="middle" x="90.5" y="-185.5" font-family="Helvetica,sans-Serif" font-size="10.00">_verifier_with_fault_localization.h</text>
</a>
</g>
</g>
<!-- Node1&#45;&gt;Node14 -->
<g id="edge16" class="edge">
<title>Node1&#45;&gt;Node14</title>
<path fill="none" stroke="midnightblue" d="M427.23,-276.72C360.44,-265.21 269.22,-248.61 189.5,-231 186.73,-230.39 183.91,-229.75 181.08,-229.1"/>
<polygon fill="midnightblue" stroke="midnightblue" points="426.87,-280.2 437.31,-278.45 428.05,-273.31 426.87,-280.2"/>
</g>
<!-- Node3 -->
<g id="node3" class="node">
<title>Node3</title>
<g id="a_node3"><a xlink:href="cbmc__parse__options_8cpp.html" target="_top" xlink:title="CBMC Command Line Option Processing.">
<polygon fill="none" stroke="black" points="50,-95 50,-136 219,-136 219,-95 50,-95"/>
<text text-anchor="start" x="58" y="-124" font-family="Helvetica,sans-Serif" font-size="10.00">/home/runner/work/diffblue</text>
<text text-anchor="start" x="58" y="-113" font-family="Helvetica,sans-Serif" font-size="10.00">&#45;cbmc/diffblue&#45;cbmc/src</text>
<text text-anchor="middle" x="134.5" y="-102" font-family="Helvetica,sans-Serif" font-size="10.00">/cbmc/cbmc_parse_options.cpp</text>
</a>
</g>
</g>
<!-- Node2&#45;&gt;Node3 -->
<g id="edge2" class="edge">
<title>Node2&#45;&gt;Node3</title>
<path fill="none" stroke="midnightblue" d="M235.76,-173.34C213.77,-160.99 188.95,-147.06 169.39,-136.08"/>
<polygon fill="midnightblue" stroke="midnightblue" points="234.23,-176.49 244.67,-178.34 237.66,-170.39 234.23,-176.49"/>
</g>
<!-- Node4 -->
<g id="node4" class="node">
<title>Node4</title>
<g id="a_node4"><a xlink:href="jbmc__parse__options_8cpp.html" target="_top" xlink:title="JBMC Command Line Option Processing.">
<polygon fill="none" stroke="black" points="155.5,-6 155.5,-47 337.5,-47 337.5,-6 155.5,-6"/>
<text text-anchor="start" x="163.5" y="-35" font-family="Helvetica,sans-Serif" font-size="10.00">/home/runner/work/diffblue</text>
<text text-anchor="start" x="163.5" y="-24" font-family="Helvetica,sans-Serif" font-size="10.00">&#45;cbmc/diffblue&#45;cbmc/jbmc</text>
<text text-anchor="middle" x="246.5" y="-13" font-family="Helvetica,sans-Serif" font-size="10.00">/src/jbmc/jbmc_parse_options.cpp</text>
</a>
</g>
</g>
<!-- Node2&#45;&gt;Node4 -->
<g id="edge3" class="edge">
<title>Node2&#45;&gt;Node4</title>
<path fill="none" stroke="midnightblue" d="M274.59,-169.01C271.24,-160.31 267.95,-150.91 265.5,-142 256.53,-109.36 251.15,-70.25 248.51,-47.22"/>
<polygon fill="midnightblue" stroke="midnightblue" points="271.41,-170.48 278.37,-178.47 277.91,-167.88 271.41,-170.48"/>
</g>
<!-- Node6 -->
<g id="node6" class="node">
<title>Node6</title>
<g id="a_node6"><a xlink:href="goto__symex__fault__localizer_8cpp.html" target="_top" xlink:title="Fault Localization for Goto Symex.">
<polygon fill="none" stroke="black" points="996,-89.5 996,-141.5 1145,-141.5 1145,-89.5 996,-89.5"/>
<text text-anchor="start" x="1004" y="-129.5" font-family="Helvetica,sans-Serif" font-size="10.00">/home/runner/work/diffblue</text>
<text text-anchor="start" x="1004" y="-118.5" font-family="Helvetica,sans-Serif" font-size="10.00">&#45;cbmc/diffblue&#45;cbmc/src</text>
<text text-anchor="start" x="1004" y="-107.5" font-family="Helvetica,sans-Serif" font-size="10.00">/goto&#45;checker/goto_symex</text>
<text text-anchor="middle" x="1070.5" y="-96.5" font-family="Helvetica,sans-Serif" font-size="10.00">_fault_localizer.cpp</text>
</a>
</g>
</g>
<!-- Node5&#45;&gt;Node6 -->
<g id="edge5" class="edge">
<title>Node5&#45;&gt;Node6</title>
<path fill="none" stroke="midnightblue" d="M880.69,-176.77C917.35,-165.13 959.97,-151.59 995.53,-140.3"/>
<polygon fill="midnightblue" stroke="midnightblue" points="879.48,-173.48 871.01,-179.84 881.6,-180.15 879.48,-173.48"/>
</g>
<!-- Node7 -->
<g id="node7" class="node">
<title>Node7</title>
<g id="a_node7"><a xlink:href="multi__path__symex__checker_8cpp.html" target="_top" xlink:title="Goto Checker using Bounded Model Checking.">
<polygon fill="none" stroke="black" points="829,-89.5 829,-141.5 978,-141.5 978,-89.5 829,-89.5"/>
<text text-anchor="start" x="837" y="-129.5" font-family="Helvetica,sans-Serif" font-size="10.00">/home/runner/work/diffblue</text>
<text text-anchor="start" x="837" y="-118.5" font-family="Helvetica,sans-Serif" font-size="10.00">&#45;cbmc/diffblue&#45;cbmc/src</text>
<text text-anchor="start" x="837" y="-107.5" font-family="Helvetica,sans-Serif" font-size="10.00">/goto&#45;checker/multi_path</text>
<text text-anchor="middle" x="903.5" y="-96.5" font-family="Helvetica,sans-Serif" font-size="10.00">_symex_checker.cpp</text>
</a>
</g>
</g>
<!-- Node5&#45;&gt;Node7 -->
<g id="edge6" class="edge">
<title>Node5&#45;&gt;Node7</title>
<path fill="none" stroke="midnightblue" d="M835.32,-171.93C847.59,-161.96 860.98,-151.07 872.62,-141.61"/>
<polygon fill="midnightblue" stroke="midnightblue" points="833,-169.31 827.45,-178.34 837.42,-174.74 833,-169.31"/>
</g>
<!-- Node8&#45;&gt;Node3 -->
<g id="edge8" class="edge">
<title>Node8&#45;&gt;Node3</title>
<path fill="none" stroke="midnightblue" d="M437.9,-184.53C373.08,-170 284.05,-150.03 219.2,-135.49"/>
<polygon fill="midnightblue" stroke="midnightblue" points="437.17,-187.95 447.69,-186.73 438.7,-181.12 437.17,-187.95"/>
</g>
<!-- Node8&#45;&gt;Node7 -->
<g id="edge9" class="edge">
<title>Node8&#45;&gt;Node7</title>
<path fill="none" stroke="midnightblue" d="M607.21,-188.23C667.12,-176.89 749.15,-160.28 820.5,-142 823.27,-141.29 826.09,-140.54 828.94,-139.77"/>
<polygon fill="midnightblue" stroke="midnightblue" points="606.22,-184.85 597.04,-190.14 607.51,-191.73 606.22,-184.85"/>
</g>
<!-- Node9 -->
<g id="node9" class="node">
<title>Node9</title>
<g id="a_node9"><a xlink:href="cegis__verifier_8cpp.html" target="_top" xlink:title="Verifier for Counterexample&#45;Guided Synthesis.">
<polygon fill="none" stroke="black" points="622,-95 622,-136 811,-136 811,-95 622,-95"/>
<text text-anchor="start" x="630" y="-124" font-family="Helvetica,sans-Serif" font-size="10.00">/home/runner/work/diffblue</text>
<text text-anchor="start" x="630" y="-113" font-family="Helvetica,sans-Serif" font-size="10.00">&#45;cbmc/diffblue&#45;cbmc/src</text>
<text text-anchor="middle" x="716.5" y="-102" font-family="Helvetica,sans-Serif" font-size="10.00">/goto&#45;synthesizer/cegis_verifier.cpp</text>
</a>
</g>
</g>
<!-- Node8&#45;&gt;Node9 -->
<g id="edge10" class="edge">
<title>Node8&#45;&gt;Node9</title>
<path fill="none" stroke="midnightblue" d="M587.68,-174.27C615.67,-161.72 647.63,-147.38 672.72,-136.13"/>
<polygon fill="midnightblue" stroke="midnightblue" points="586.04,-171.17 578.35,-178.45 588.91,-177.55 586.04,-171.17"/>
</g>
<!-- Node10 -->
<g id="node10" class="node">
<title>Node10</title>
<g id="a_node10"><a xlink:href="api_8cpp.html" target="_top" xlink:title=" ">
<polygon fill="none" stroke="black" points="274,-95 274,-136 423,-136 423,-95 274,-95"/>
<text text-anchor="start" x="282" y="-124" font-family="Helvetica,sans-Serif" font-size="10.00">/home/runner/work/diffblue</text>
<text text-anchor="start" x="282" y="-113" font-family="Helvetica,sans-Serif" font-size="10.00">&#45;cbmc/diffblue&#45;cbmc/src</text>
<text text-anchor="middle" x="348.5" y="-102" font-family="Helvetica,sans-Serif" font-size="10.00">/libcprover&#45;cpp/api.cpp</text>
</a>
</g>
</g>
<!-- Node8&#45;&gt;Node10 -->
<g id="edge11" class="edge">
<title>Node8&#45;&gt;Node10</title>
<path fill="none" stroke="midnightblue" d="M463.16,-173.83C438.23,-161.36 409.92,-147.21 387.66,-136.08"/>
<polygon fill="midnightblue" stroke="midnightblue" points="461.66,-176.99 472.17,-178.34 464.79,-170.73 461.66,-176.99"/>
</g>
<!-- Node11 -->
<g id="node11" class="node">
<title>Node11</title>
<g id="a_node11"><a xlink:href="java__multi__path__symex__checker_8h.html" target="_top" xlink:title="Goto Checker using Bounded Model Checking for Java.">
<polygon fill="none" stroke="black" points="441,-89.5 441,-141.5 604,-141.5 604,-89.5 441,-89.5"/>
<text text-anchor="start" x="449" y="-129.5" font-family="Helvetica,sans-Serif" font-size="10.00">/home/runner/work/diffblue</text>
<text text-anchor="start" x="449" y="-118.5" font-family="Helvetica,sans-Serif" font-size="10.00">&#45;cbmc/diffblue&#45;cbmc/jbmc</text>
<text text-anchor="start" x="449" y="-107.5" font-family="Helvetica,sans-Serif" font-size="10.00">/src/java_bytecode/java_multi</text>
<text text-anchor="middle" x="522.5" y="-96.5" font-family="Helvetica,sans-Serif" font-size="10.00">_path_symex_checker.h</text>
</a>
</g>
</g>
<!-- Node8&#45;&gt;Node11 -->
<g id="edge12" class="edge">
<title>Node8&#45;&gt;Node11</title>
<path fill="none" stroke="midnightblue" d="M522.5,-168.19C522.5,-159.28 522.5,-149.9 522.5,-141.61"/>
<polygon fill="midnightblue" stroke="midnightblue" points="519,-168.34 522.5,-178.34 526,-168.34 519,-168.34"/>
</g>
<!-- Node11&#45;&gt;Node4 -->
<g id="edge14" class="edge">
<title>Node11&#45;&gt;Node4</title>
<path fill="none" stroke="midnightblue" d="M433.39,-86.41C392.73,-73.59 345.56,-58.73 308.79,-47.13"/>
<polygon fill="midnightblue" stroke="midnightblue" points="432.45,-89.78 443.04,-89.45 434.55,-83.11 432.45,-89.78"/>
</g>
<!-- Node12 -->
<g id="node12" class="node">
<title>Node12</title>
<g id="a_node12"><a xlink:href="java__multi__path__symex__checker_8cpp.html" target="_top" xlink:title=" ">
<polygon fill="none" stroke="black" points="441,-0.5 441,-52.5 604,-52.5 604,-0.5 441,-0.5"/>
<text text-anchor="start" x="449" y="-40.5" font-family="Helvetica,sans-Serif" font-size="10.00">/home/runner/work/diffblue</text>
<text text-anchor="start" x="449" y="-29.5" font-family="Helvetica,sans-Serif" font-size="10.00">&#45;cbmc/diffblue&#45;cbmc/jbmc</text>
<text text-anchor="start" x="449" y="-18.5" font-family="Helvetica,sans-Serif" font-size="10.00">/src/java_bytecode/java_multi</text>
<text text-anchor="middle" x="522.5" y="-7.5" font-family="Helvetica,sans-Serif" font-size="10.00">_path_symex_checker.cpp</text>
</a>
</g>
</g>
<!-- Node11&#45;&gt;Node12 -->
<g id="edge13" class="edge">
<title>Node11&#45;&gt;Node12</title>
<path fill="none" stroke="midnightblue" d="M522.5,-79.19C522.5,-70.28 522.5,-60.9 522.5,-52.61"/>
<polygon fill="midnightblue" stroke="midnightblue" points="519,-79.34 522.5,-89.34 526,-79.34 519,-79.34"/>
</g>
<!-- Node14&#45;&gt;Node3 -->
<g id="edge17" class="edge">
<title>Node14&#45;&gt;Node3</title>
<path fill="none" stroke="midnightblue" d="M107.86,-169.17C113.55,-157.93 119.66,-145.84 124.6,-136.08"/>
<polygon fill="midnightblue" stroke="midnightblue" points="104.62,-167.83 103.23,-178.34 110.86,-170.99 104.62,-167.83"/>
</g>
<!-- Node14&#45;&gt;Node4 -->
<g id="edge18" class="edge">
<title>Node14&#45;&gt;Node4</title>
<path fill="none" stroke="midnightblue" d="M58.62,-170.28C39.48,-146.21 22.1,-113.69 40.5,-89 54.88,-69.7 107.08,-54.23 155.33,-43.64"/>
<polygon fill="midnightblue" stroke="midnightblue" points="56.04,-172.65 65.13,-178.09 61.42,-168.17 56.04,-172.65"/>
</g>
</g>
</svg>
