<?xml version="1.0" encoding="UTF-8" standalone="no"?>
<!DOCTYPE svg PUBLIC "-//W3C//DTD SVG 1.1//EN"
 "http://www.w3.org/Graphics/SVG/1.1/DTD/svg11.dtd">
<!-- Generated by graphviz version 2.43.0 (0)
 -->
<!-- Title: /home/runner/work/diffblue&#45;cbmc/diffblue&#45;cbmc/src/util/find_symbols.h Pages: 1 -->
<svg width="3407pt" height="250pt"
 viewBox="0.00 0.00 3406.50 250.00" xmlns="http://www.w3.org/2000/svg" xmlns:xlink="http://www.w3.org/1999/xlink">
<g id="graph0" class="graph" transform="scale(1 1) rotate(0) translate(4 246)">
<title>/home/runner/work/diffblue&#45;cbmc/diffblue&#45;cbmc/src/util/find_symbols.h</title>
<!-- Node1 -->
<g id="node1" class="node">
<title>Node1</title>
<g id="a_node1"><a xlink:title=" ">
<polygon fill="#bfbfbf" stroke="black" points="1484.5,-200.5 1484.5,-241.5 1633.5,-241.5 1633.5,-200.5 1484.5,-200.5"/>
<text text-anchor="start" x="1492.5" y="-229.5" font-family="Helvetica,sans-Serif" font-size="10.00">/home/runner/work/diffblue</text>
<text text-anchor="start" x="1492.5" y="-218.5" font-family="Helvetica,sans-Serif" font-size="10.00">&#45;cbmc/diffblue&#45;cbmc/src</text>
<text text-anchor="middle" x="1559" y="-207.5" font-family="Helvetica,sans-Serif" font-size="10.00">/util/find_symbols.h</text>
</a>
</g>
</g>
<!-- Node2 -->
<g id="node2" class="node">
<title>Node2</title>
<g id="a_node2"><a xlink:href="interval__analysis_8cpp.html" target="_top" xlink:title="Interval Analysis – implements the functionality necessary for performing abstract interpretation ove...">
<polygon fill="none" stroke="black" points="0,-111.5 0,-152.5 170,-152.5 170,-111.5 0,-111.5"/>
<text text-anchor="start" x="8" y="-140.5" font-family="Helvetica,sans-Serif" font-size="10.00">/home/runner/work/diffblue</text>
<text text-anchor="start" x="8" y="-129.5" font-family="Helvetica,sans-Serif" font-size="10.00">&#45;cbmc/diffblue&#45;cbmc/src</text>
<text text-anchor="middle" x="85" y="-118.5" font-family="Helvetica,sans-Serif" font-size="10.00">/analyses/interval_analysis.cpp</text>
</a>
</g>
</g>
<!-- Node1&#45;&gt;Node2 -->
<g id="edge1" class="edge">
<title>Node1&#45;&gt;Node2</title>
<path fill="none" stroke="midnightblue" d="M1473.94,-219.64C1213.49,-218.03 429.42,-209.45 179,-164 164.63,-161.39 149.44,-157.1 135.56,-152.52"/>
<polygon fill="midnightblue" stroke="midnightblue" points="1474.08,-223.14 1484.1,-219.7 1474.12,-216.14 1474.08,-223.14"/>
</g>
<!-- Node3 -->
<g id="node3" class="node">
<title>Node3</title>
<g id="a_node3"><a xlink:href="expr2c_8cpp.html" target="_top" xlink:title=" ">
<polygon fill="none" stroke="black" points="188.5,-111.5 188.5,-152.5 337.5,-152.5 337.5,-111.5 188.5,-111.5"/>
<text text-anchor="start" x="196.5" y="-140.5" font-family="Helvetica,sans-Serif" font-size="10.00">/home/runner/work/diffblue</text>
<text text-anchor="start" x="196.5" y="-129.5" font-family="Helvetica,sans-Serif" font-size="10.00">&#45;cbmc/diffblue&#45;cbmc/src</text>
<text text-anchor="middle" x="263" y="-118.5" font-family="Helvetica,sans-Serif" font-size="10.00">/ansi&#45;c/expr2c.cpp</text>
</a>
</g>
</g>
<!-- Node1&#45;&gt;Node3 -->
<g id="edge2" class="edge">
<title>Node1&#45;&gt;Node3</title>
<path fill="none" stroke="midnightblue" d="M1474.08,-219.5C1235.44,-217.56 562.1,-208.21 346,-164 333.19,-161.38 319.74,-157.08 307.48,-152.51"/>
<polygon fill="midnightblue" stroke="midnightblue" points="1474.41,-223.01 1484.44,-219.58 1474.46,-216.01 1474.41,-223.01"/>
</g>
<!-- Node4 -->
<g id="node4" class="node">
<title>Node4</title>
<g id="a_node4"><a xlink:href="goto__check__c_8cpp.html" target="_top" xlink:title="Checks for Errors in C/C++ Programs.">
<polygon fill="none" stroke="black" points="355.5,-106 355.5,-158 510.5,-158 510.5,-106 355.5,-106"/>
<text text-anchor="start" x="363.5" y="-146" font-family="Helvetica,sans-Serif" font-size="10.00">/home/runner/work/diffblue</text>
<text text-anchor="start" x="363.5" y="-135" font-family="Helvetica,sans-Serif" font-size="10.00">&#45;cbmc/diffblue&#45;cbmc/src</text>
<text text-anchor="start" x="363.5" y="-124" font-family="Helvetica,sans-Serif" font-size="10.00">/ansi&#45;c/goto&#45;conversion/goto</text>
<text text-anchor="middle" x="433" y="-113" font-family="Helvetica,sans-Serif" font-size="10.00">_check_c.cpp</text>
</a>
</g>
</g>
<!-- Node1&#45;&gt;Node4 -->
<g id="edge3" class="edge">
<title>Node1&#45;&gt;Node4</title>
<path fill="none" stroke="midnightblue" d="M1474.16,-218.57C1260.02,-214.46 701.77,-200.48 520,-164 512.45,-162.49 504.68,-160.45 497.03,-158.14"/>
<polygon fill="midnightblue" stroke="midnightblue" points="1474.34,-222.08 1484.4,-218.77 1474.47,-215.08 1474.34,-222.08"/>
</g>
<!-- Node5 -->
<g id="node5" class="node">
<title>Node5</title>
<g id="a_node5"><a xlink:href="accelerate_8cpp.html" target="_top" xlink:title="Loop Acceleration.">
<polygon fill="none" stroke="black" points="529,-106 529,-158 681,-158 681,-106 529,-106"/>
<text text-anchor="start" x="537" y="-146" font-family="Helvetica,sans-Serif" font-size="10.00">/home/runner/work/diffblue</text>
<text text-anchor="start" x="537" y="-135" font-family="Helvetica,sans-Serif" font-size="10.00">&#45;cbmc/diffblue&#45;cbmc/src</text>
<text text-anchor="start" x="537" y="-124" font-family="Helvetica,sans-Serif" font-size="10.00">/goto&#45;instrument/accelerate</text>
<text text-anchor="middle" x="605" y="-113" font-family="Helvetica,sans-Serif" font-size="10.00">/accelerate.cpp</text>
</a>
</g>
</g>
<!-- Node1&#45;&gt;Node5 -->
<g id="edge4" class="edge">
<title>Node1&#45;&gt;Node5</title>
<path fill="none" stroke="midnightblue" d="M1474.22,-217.61C1285.98,-211.81 838.09,-195.11 690,-164 682.62,-162.45 675.02,-160.39 667.54,-158.07"/>
<polygon fill="midnightblue" stroke="midnightblue" points="1474.25,-221.11 1484.35,-217.92 1474.46,-214.12 1474.25,-221.11"/>
</g>
<!-- Node6 -->
<g id="node6" class="node">
<title>Node6</title>
<g id="a_node6"><a xlink:href="acceleration__utils_8cpp.html" target="_top" xlink:title="Loop Acceleration.">
<polygon fill="none" stroke="black" points="699,-106 699,-158 851,-158 851,-106 699,-106"/>
<text text-anchor="start" x="707" y="-146" font-family="Helvetica,sans-Serif" font-size="10.00">/home/runner/work/diffblue</text>
<text text-anchor="start" x="707" y="-135" font-family="Helvetica,sans-Serif" font-size="10.00">&#45;cbmc/diffblue&#45;cbmc/src</text>
<text text-anchor="start" x="707" y="-124" font-family="Helvetica,sans-Serif" font-size="10.00">/goto&#45;instrument/accelerate</text>
<text text-anchor="middle" x="775" y="-113" font-family="Helvetica,sans-Serif" font-size="10.00">/acceleration_utils.cpp</text>
</a>
</g>
</g>
<!-- Node1&#45;&gt;Node6 -->
<g id="edge5" class="edge">
<title>Node1&#45;&gt;Node6</title>
<path fill="none" stroke="midnightblue" d="M1474.37,-220.41C1341.99,-219.45 1078.57,-211.06 861,-164 853.71,-162.42 846.2,-160.38 838.79,-158.1"/>
<polygon fill="midnightblue" stroke="midnightblue" points="1474.42,-223.91 1484.45,-220.47 1474.47,-216.91 1474.42,-223.91"/>
</g>
<!-- Node7 -->
<g id="node7" class="node">
<title>Node7</title>
<g id="a_node7"><a xlink:href="concurrency_8cpp.html" target="_top" xlink:title="Encoding for Threaded Goto Programs.">
<polygon fill="none" stroke="black" points="869.5,-111.5 869.5,-152.5 1048.5,-152.5 1048.5,-111.5 869.5,-111.5"/>
<text text-anchor="start" x="877.5" y="-140.5" font-family="Helvetica,sans-Serif" font-size="10.00">/home/runner/work/diffblue</text>
<text text-anchor="start" x="877.5" y="-129.5" font-family="Helvetica,sans-Serif" font-size="10.00">&#45;cbmc/diffblue&#45;cbmc/src</text>
<text text-anchor="middle" x="959" y="-118.5" font-family="Helvetica,sans-Serif" font-size="10.00">/goto&#45;instrument/concurrency.cpp</text>
</a>
</g>
</g>
<!-- Node1&#45;&gt;Node7 -->
<g id="edge6" class="edge">
<title>Node1&#45;&gt;Node7</title>
<path fill="none" stroke="midnightblue" d="M1474.43,-215.03C1375.13,-208.15 1205.84,-193.11 1063,-164 1048.23,-160.99 1032.54,-156.83 1017.94,-152.54"/>
<polygon fill="midnightblue" stroke="midnightblue" points="1474.19,-218.52 1484.41,-215.71 1474.67,-211.54 1474.19,-218.52"/>
</g>
<!-- Node8 -->
<g id="node8" class="node">
<title>Node8</title>
<g id="a_node8"><a xlink:href="cfg__info_8h.html" target="_top" xlink:title="Classes providing CFG&#45;based information about symbols to guide simplifications in function and loop a...">
<polygon fill="none" stroke="black" points="1104.5,-106 1104.5,-158 1253.5,-158 1253.5,-106 1104.5,-106"/>
<text text-anchor="start" x="1112.5" y="-146" font-family="Helvetica,sans-Serif" font-size="10.00">/home/runner/work/diffblue</text>
<text text-anchor="start" x="1112.5" y="-135" font-family="Helvetica,sans-Serif" font-size="10.00">&#45;cbmc/diffblue&#45;cbmc/src</text>
<text text-anchor="start" x="1112.5" y="-124" font-family="Helvetica,sans-Serif" font-size="10.00">/goto&#45;instrument/contracts</text>
<text text-anchor="middle" x="1179" y="-113" font-family="Helvetica,sans-Serif" font-size="10.00">/cfg_info.h</text>
</a>
</g>
</g>
<!-- Node1&#45;&gt;Node8 -->
<g id="edge7" class="edge">
<title>Node1&#45;&gt;Node8</title>
<path fill="none" stroke="midnightblue" d="M1474.53,-207.23C1415.81,-197.52 1336.01,-182.66 1267,-164 1260.43,-162.22 1253.65,-160.2 1246.9,-158.05"/>
<polygon fill="midnightblue" stroke="midnightblue" points="1474.06,-210.7 1484.5,-208.86 1475.2,-203.79 1474.06,-210.7"/>
</g>
<!-- Node9 -->
<g id="node9" class="node">
<title>Node9</title>
<g id="a_node9"><a xlink:href="contracts_8cpp.html" target="_top" xlink:title="Verify and use annotated loop and function contracts.">
<polygon fill="none" stroke="black" points="756.5,-6 756.5,-58 905.5,-58 905.5,-6 756.5,-6"/>
<text text-anchor="start" x="764.5" y="-46" font-family="Helvetica,sans-Serif" font-size="10.00">/home/runner/work/diffblue</text>
<text text-anchor="start" x="764.5" y="-35" font-family="Helvetica,sans-Serif" font-size="10.00">&#45;cbmc/diffblue&#45;cbmc/src</text>
<text text-anchor="start" x="764.5" y="-24" font-family="Helvetica,sans-Serif" font-size="10.00">/goto&#45;instrument/contracts</text>
<text text-anchor="middle" x="831" y="-13" font-family="Helvetica,sans-Serif" font-size="10.00">/contracts.cpp</text>
</a>
</g>
</g>
<!-- Node1&#45;&gt;Node9 -->
<g id="edge13" class="edge">
<title>Node1&#45;&gt;Node9</title>
<path fill="none" stroke="midnightblue" d="M1473.78,-218.55C1357.45,-215.1 1156.49,-203.43 1096,-164 1068.29,-145.94 1084.52,-119.78 1058,-100 1005.46,-60.82 977.61,-83.37 915,-64 909.06,-62.16 902.93,-60.14 896.8,-58.04"/>
<polygon fill="midnightblue" stroke="midnightblue" points="1473.98,-222.06 1484.07,-218.84 1474.17,-215.06 1473.98,-222.06"/>
</g>
<!-- Node13 -->
<g id="node13" class="node">
<title>Node13</title>
<g id="a_node13"><a xlink:href="enumerative__loop__contracts__synthesizer_8cpp.html" target="_top" xlink:title="Enumerative Loop Contracts Synthesizer.">
<polygon fill="none" stroke="black" points="1467,-6 1467,-58 1641,-58 1641,-6 1467,-6"/>
<text text-anchor="start" x="1475" y="-46" font-family="Helvetica,sans-Serif" font-size="10.00">/home/runner/work/diffblue</text>
<text text-anchor="start" x="1475" y="-35" font-family="Helvetica,sans-Serif" font-size="10.00">&#45;cbmc/diffblue&#45;cbmc/src</text>
<text text-anchor="start" x="1475" y="-24" font-family="Helvetica,sans-Serif" font-size="10.00">/goto&#45;synthesizer/enumerative</text>
<text text-anchor="middle" x="1554" y="-13" font-family="Helvetica,sans-Serif" font-size="10.00">_loop_contracts_synthesizer.cpp</text>
</a>
</g>
</g>
<!-- Node1&#45;&gt;Node13 -->
<g id="edge22" class="edge">
<title>Node1&#45;&gt;Node13</title>
<path fill="none" stroke="midnightblue" d="M1474.09,-212.92C1407.5,-205.4 1322.58,-190.77 1301,-164 1283.15,-141.86 1283.28,-122.25 1301,-100 1345.61,-44.01 1388.98,-83.02 1458,-64 1464.67,-62.16 1471.57,-60.15 1478.46,-58.07"/>
<polygon fill="midnightblue" stroke="midnightblue" points="1473.87,-216.42 1484.19,-214.02 1474.63,-209.46 1473.87,-216.42"/>
</g>
<!-- Node14 -->
<g id="node14" class="node">
<title>Node14</title>
<g id="a_node14"><a xlink:href="dfcc__infer__loop__assigns_8cpp.html" target="_top" xlink:title=" ">
<polygon fill="none" stroke="black" points="1309.5,-100.5 1309.5,-163.5 1460.5,-163.5 1460.5,-100.5 1309.5,-100.5"/>
<text text-anchor="start" x="1317.5" y="-151.5" font-family="Helvetica,sans-Serif" font-size="10.00">/home/runner/work/diffblue</text>
<text text-anchor="start" x="1317.5" y="-140.5" font-family="Helvetica,sans-Serif" font-size="10.00">&#45;cbmc/diffblue&#45;cbmc/src</text>
<text text-anchor="start" x="1317.5" y="-129.5" font-family="Helvetica,sans-Serif" font-size="10.00">/goto&#45;instrument/contracts</text>
<text text-anchor="start" x="1317.5" y="-118.5" font-family="Helvetica,sans-Serif" font-size="10.00">/dynamic&#45;frames/dfcc_infer</text>
<text text-anchor="middle" x="1385" y="-107.5" font-family="Helvetica,sans-Serif" font-size="10.00">_loop_assigns.cpp</text>
</a>
</g>
</g>
<!-- Node1&#45;&gt;Node14 -->
<g id="edge14" class="edge">
<title>Node1&#45;&gt;Node14</title>
<path fill="none" stroke="midnightblue" d="M1511,-196C1490.94,-185.97 1467.4,-174.2 1446.12,-163.56"/>
<polygon fill="midnightblue" stroke="midnightblue" points="1509.44,-199.13 1519.95,-200.48 1512.57,-192.87 1509.44,-199.13"/>
</g>
<!-- Node15 -->
<g id="node15" class="node">
<title>Node15</title>
<g id="a_node15"><a xlink:href="dump__c_8cpp.html" target="_top" xlink:title="Dump Goto&#45;Program as C/C++ Source.">
<polygon fill="none" stroke="black" points="1479,-111.5 1479,-152.5 1639,-152.5 1639,-111.5 1479,-111.5"/>
<text text-anchor="start" x="1487" y="-140.5" font-family="Helvetica,sans-Serif" font-size="10.00">/home/runner/work/diffblue</text>
<text text-anchor="start" x="1487" y="-129.5" font-family="Helvetica,sans-Serif" font-size="10.00">&#45;cbmc/diffblue&#45;cbmc/src</text>
<text text-anchor="middle" x="1559" y="-118.5" font-family="Helvetica,sans-Serif" font-size="10.00">/goto&#45;instrument/dump_c.cpp</text>
</a>
</g>
</g>
<!-- Node1&#45;&gt;Node15 -->
<g id="edge15" class="edge">
<title>Node1&#45;&gt;Node15</title>
<path fill="none" stroke="midnightblue" d="M1559,-189.94C1559,-177.6 1559,-163.66 1559,-152.66"/>
<polygon fill="midnightblue" stroke="midnightblue" points="1555.5,-190.26 1559,-200.26 1562.5,-190.26 1555.5,-190.26"/>
</g>
<!-- Node16 -->
<g id="node16" class="node">
<title>Node16</title>
<g id="a_node16"><a xlink:href="full__slicer_8cpp.html" target="_top" xlink:title="Slicing.">
<polygon fill="none" stroke="black" points="1657,-111.5 1657,-152.5 1825,-152.5 1825,-111.5 1657,-111.5"/>
<text text-anchor="start" x="1665" y="-140.5" font-family="Helvetica,sans-Serif" font-size="10.00">/home/runner/work/diffblue</text>
<text text-anchor="start" x="1665" y="-129.5" font-family="Helvetica,sans-Serif" font-size="10.00">&#45;cbmc/diffblue&#45;cbmc/src</text>
<text text-anchor="middle" x="1741" y="-118.5" font-family="Helvetica,sans-Serif" font-size="10.00">/goto&#45;instrument/full_slicer.cpp</text>
</a>
</g>
</g>
<!-- Node1&#45;&gt;Node16 -->
<g id="edge16" class="edge">
<title>Node1&#45;&gt;Node16</title>
<path fill="none" stroke="midnightblue" d="M1608.88,-196.16C1637.5,-182.48 1672.99,-165.51 1699.98,-152.61"/>
<polygon fill="midnightblue" stroke="midnightblue" points="1607.36,-193 1599.84,-200.48 1610.38,-199.32 1607.36,-193"/>
</g>
<!-- Node17 -->
<g id="node17" class="node">
<title>Node17</title>
<g id="a_node17"><a xlink:href="goto__program_8cpp.html" target="_top" xlink:title="Program Transformation.">
<polygon fill="none" stroke="black" points="1843.5,-111.5 1843.5,-152.5 2026.5,-152.5 2026.5,-111.5 1843.5,-111.5"/>
<text text-anchor="start" x="1851.5" y="-140.5" font-family="Helvetica,sans-Serif" font-size="10.00">/home/runner/work/diffblue</text>
<text text-anchor="start" x="1851.5" y="-129.5" font-family="Helvetica,sans-Serif" font-size="10.00">&#45;cbmc/diffblue&#45;cbmc/src</text>
<text text-anchor="middle" x="1935" y="-118.5" font-family="Helvetica,sans-Serif" font-size="10.00">/goto&#45;programs/goto_program.cpp</text>
</a>
</g>
</g>
<!-- Node1&#45;&gt;Node17 -->
<g id="edge17" class="edge">
<title>Node1&#45;&gt;Node17</title>
<path fill="none" stroke="midnightblue" d="M1643.55,-204.98C1698.19,-194.73 1770.66,-180.13 1834,-164 1847.24,-160.63 1861.33,-156.59 1874.65,-152.57"/>
<polygon fill="midnightblue" stroke="midnightblue" points="1642.75,-201.57 1633.56,-206.84 1644.03,-208.45 1642.75,-201.57"/>
</g>
<!-- Node18 -->
<g id="node18" class="node">
<title>Node18</title>
<g id="a_node18"><a xlink:href="slice__global__inits_8cpp.html" target="_top" xlink:title="Remove initializations of unused global variables.">
<polygon fill="none" stroke="black" points="2045,-106 2045,-158 2197,-158 2197,-106 2045,-106"/>
<text text-anchor="start" x="2053" y="-146" font-family="Helvetica,sans-Serif" font-size="10.00">/home/runner/work/diffblue</text>
<text text-anchor="start" x="2053" y="-135" font-family="Helvetica,sans-Serif" font-size="10.00">&#45;cbmc/diffblue&#45;cbmc/src</text>
<text text-anchor="start" x="2053" y="-124" font-family="Helvetica,sans-Serif" font-size="10.00">/goto&#45;programs/slice_global</text>
<text text-anchor="middle" x="2121" y="-113" font-family="Helvetica,sans-Serif" font-size="10.00">_inits.cpp</text>
</a>
</g>
</g>
<!-- Node1&#45;&gt;Node18 -->
<g id="edge18" class="edge">
<title>Node1&#45;&gt;Node18</title>
<path fill="none" stroke="midnightblue" d="M1644.14,-215.99C1740.37,-210.08 1901.18,-196.04 2036,-164 2042.88,-162.37 2049.96,-160.35 2056.97,-158.13"/>
<polygon fill="midnightblue" stroke="midnightblue" points="1643.66,-212.51 1633.89,-216.6 1644.08,-219.5 1643.66,-212.51"/>
</g>
<!-- Node19 -->
<g id="node19" class="node">
<title>Node19</title>
<g id="a_node19"><a xlink:href="postcondition_8cpp.html" target="_top" xlink:title="Symbolic Execution.">
<polygon fill="none" stroke="black" points="2215.5,-111.5 2215.5,-152.5 2382.5,-152.5 2382.5,-111.5 2215.5,-111.5"/>
<text text-anchor="start" x="2223.5" y="-140.5" font-family="Helvetica,sans-Serif" font-size="10.00">/home/runner/work/diffblue</text>
<text text-anchor="start" x="2223.5" y="-129.5" font-family="Helvetica,sans-Serif" font-size="10.00">&#45;cbmc/diffblue&#45;cbmc/src</text>
<text text-anchor="middle" x="2299" y="-118.5" font-family="Helvetica,sans-Serif" font-size="10.00">/goto&#45;symex/postcondition.cpp</text>
</a>
</g>
</g>
<!-- Node1&#45;&gt;Node19 -->
<g id="edge19" class="edge">
<title>Node1&#45;&gt;Node19</title>
<path fill="none" stroke="midnightblue" d="M1643.79,-218.99C1768.29,-216.1 2007.33,-205.11 2206,-164 2219.67,-161.17 2234.12,-156.98 2247.45,-152.58"/>
<polygon fill="midnightblue" stroke="midnightblue" points="1643.48,-215.5 1633.56,-219.22 1643.64,-222.5 1643.48,-215.5"/>
</g>
<!-- Node20 -->
<g id="node20" class="node">
<title>Node20</title>
<g id="a_node20"><a xlink:href="precondition_8cpp.html" target="_top" xlink:title="Symbolic Execution.">
<polygon fill="none" stroke="black" points="2401,-111.5 2401,-152.5 2563,-152.5 2563,-111.5 2401,-111.5"/>
<text text-anchor="start" x="2409" y="-140.5" font-family="Helvetica,sans-Serif" font-size="10.00">/home/runner/work/diffblue</text>
<text text-anchor="start" x="2409" y="-129.5" font-family="Helvetica,sans-Serif" font-size="10.00">&#45;cbmc/diffblue&#45;cbmc/src</text>
<text text-anchor="middle" x="2482" y="-118.5" font-family="Helvetica,sans-Serif" font-size="10.00">/goto&#45;symex/precondition.cpp</text>
</a>
</g>
</g>
<!-- Node1&#45;&gt;Node20 -->
<g id="edge20" class="edge">
<title>Node1&#45;&gt;Node20</title>
<path fill="none" stroke="midnightblue" d="M1643.85,-217.14C1826.27,-210.54 2250.73,-192.55 2392,-164 2405.44,-161.28 2419.63,-157.07 2432.67,-152.61"/>
<polygon fill="midnightblue" stroke="midnightblue" points="1643.63,-213.65 1633.76,-217.51 1643.88,-220.64 1643.63,-213.65"/>
</g>
<!-- Node21 -->
<g id="node21" class="node">
<title>Node21</title>
<g id="a_node21"><a xlink:href="slice_8cpp.html" target="_top" xlink:title="Slicer for symex traces.">
<polygon fill="none" stroke="black" points="2581.5,-111.5 2581.5,-152.5 2730.5,-152.5 2730.5,-111.5 2581.5,-111.5"/>
<text text-anchor="start" x="2589.5" y="-140.5" font-family="Helvetica,sans-Serif" font-size="10.00">/home/runner/work/diffblue</text>
<text text-anchor="start" x="2589.5" y="-129.5" font-family="Helvetica,sans-Serif" font-size="10.00">&#45;cbmc/diffblue&#45;cbmc/src</text>
<text text-anchor="middle" x="2656" y="-118.5" font-family="Helvetica,sans-Serif" font-size="10.00">/goto&#45;symex/slice.cpp</text>
</a>
</g>
</g>
<!-- Node1&#45;&gt;Node21 -->
<g id="edge21" class="edge">
<title>Node1&#45;&gt;Node21</title>
<path fill="none" stroke="midnightblue" d="M1643.63,-218.56C1853.84,-214.46 2395.52,-200.58 2572,-164 2584.79,-161.35 2598.22,-157.1 2610.51,-152.59"/>
<polygon fill="midnightblue" stroke="midnightblue" points="1643.5,-215.06 1633.57,-218.75 1643.63,-222.06 1643.5,-215.06"/>
</g>
<!-- Node22 -->
<g id="node22" class="node">
<title>Node22</title>
<g id="a_node22"><a xlink:href="linking_8cpp.html" target="_top" xlink:title="ANSI&#45;C Linking.">
<polygon fill="none" stroke="black" points="2748.5,-111.5 2748.5,-152.5 2897.5,-152.5 2897.5,-111.5 2748.5,-111.5"/>
<text text-anchor="start" x="2756.5" y="-140.5" font-family="Helvetica,sans-Serif" font-size="10.00">/home/runner/work/diffblue</text>
<text text-anchor="start" x="2756.5" y="-129.5" font-family="Helvetica,sans-Serif" font-size="10.00">&#45;cbmc/diffblue&#45;cbmc/src</text>
<text text-anchor="middle" x="2823" y="-118.5" font-family="Helvetica,sans-Serif" font-size="10.00">/linking/linking.cpp</text>
</a>
</g>
</g>
<!-- Node1&#45;&gt;Node22 -->
<g id="edge23" class="edge">
<title>Node1&#45;&gt;Node22</title>
<path fill="none" stroke="midnightblue" d="M1643.74,-219.38C1877.89,-217.13 2530.23,-207.05 2740,-164 2752.66,-161.4 2765.94,-157.17 2778.09,-152.66"/>
<polygon fill="midnightblue" stroke="midnightblue" points="1643.54,-215.88 1633.58,-219.48 1643.61,-222.88 1643.54,-215.88"/>
</g>
<!-- Node23 -->
<g id="node23" class="node">
<title>Node23</title>
<g id="a_node23"><a xlink:href="remove__internal__symbols_8cpp.html" target="_top" xlink:title="Remove symbols that are internal only.">
<polygon fill="none" stroke="black" points="2915.5,-106 2915.5,-158 3064.5,-158 3064.5,-106 2915.5,-106"/>
<text text-anchor="start" x="2923.5" y="-146" font-family="Helvetica,sans-Serif" font-size="10.00">/home/runner/work/diffblue</text>
<text text-anchor="start" x="2923.5" y="-135" font-family="Helvetica,sans-Serif" font-size="10.00">&#45;cbmc/diffblue&#45;cbmc/src</text>
<text text-anchor="start" x="2923.5" y="-124" font-family="Helvetica,sans-Serif" font-size="10.00">/linking/remove_internal</text>
<text text-anchor="middle" x="2990" y="-113" font-family="Helvetica,sans-Serif" font-size="10.00">_symbols.cpp</text>
</a>
</g>
</g>
<!-- Node1&#45;&gt;Node23 -->
<g id="edge24" class="edge">
<title>Node1&#45;&gt;Node23</title>
<path fill="none" stroke="midnightblue" d="M1643.88,-219.96C1900.24,-219.31 2663.85,-213.16 2907,-164 2914.39,-162.51 2921.99,-160.45 2929.45,-158.1"/>
<polygon fill="midnightblue" stroke="midnightblue" points="1643.51,-216.47 1633.52,-219.99 1643.53,-223.47 1643.51,-216.47"/>
</g>
<!-- Node24 -->
<g id="node24" class="node">
<title>Node24</title>
<g id="a_node24"><a xlink:href="refine__arrays_8cpp.html" target="_top" xlink:title=" ">
<polygon fill="none" stroke="black" points="3082.5,-106 3082.5,-158 3231.5,-158 3231.5,-106 3082.5,-106"/>
<text text-anchor="start" x="3090.5" y="-146" font-family="Helvetica,sans-Serif" font-size="10.00">/home/runner/work/diffblue</text>
<text text-anchor="start" x="3090.5" y="-135" font-family="Helvetica,sans-Serif" font-size="10.00">&#45;cbmc/diffblue&#45;cbmc/src</text>
<text text-anchor="start" x="3090.5" y="-124" font-family="Helvetica,sans-Serif" font-size="10.00">/solvers/refinement/refine</text>
<text text-anchor="middle" x="3157" y="-113" font-family="Helvetica,sans-Serif" font-size="10.00">_arrays.cpp</text>
</a>
</g>
</g>
<!-- Node1&#45;&gt;Node24 -->
<g id="edge25" class="edge">
<title>Node1&#45;&gt;Node24</title>
<path fill="none" stroke="midnightblue" d="M1644.22,-220.42C1921.7,-221.24 2797.36,-219.27 3074,-164 3081.39,-162.52 3088.99,-160.48 3096.46,-158.13"/>
<polygon fill="midnightblue" stroke="midnightblue" points="1643.82,-216.92 1633.81,-220.39 1643.8,-223.92 1643.82,-216.92"/>
</g>
<!-- Node25 -->
<g id="node25" class="node">
<title>Node25</title>
<g id="a_node25"><a xlink:href="find__symbols_8cpp.html" target="_top" xlink:title=" ">
<polygon fill="none" stroke="black" points="3249.5,-111.5 3249.5,-152.5 3398.5,-152.5 3398.5,-111.5 3249.5,-111.5"/>
<text text-anchor="start" x="3257.5" y="-140.5" font-family="Helvetica,sans-Serif" font-size="10.00">/home/runner/work/diffblue</text>
<text text-anchor="start" x="3257.5" y="-129.5" font-family="Helvetica,sans-Serif" font-size="10.00">&#45;cbmc/diffblue&#45;cbmc/src</text>
<text text-anchor="middle" x="3324" y="-118.5" font-family="Helvetica,sans-Serif" font-size="10.00">/util/find_symbols.cpp</text>
</a>
</g>
</g>
<!-- Node1&#45;&gt;Node25 -->
<g id="edge26" class="edge">
<title>Node1&#45;&gt;Node25</title>
<path fill="none" stroke="midnightblue" d="M1643.62,-218.79C1962.84,-213.99 3083.95,-195.08 3241,-164 3253.83,-161.46 3267.28,-157.19 3279.54,-152.62"/>
<polygon fill="midnightblue" stroke="midnightblue" points="1643.45,-215.29 1633.5,-218.94 1643.56,-222.29 1643.45,-215.29"/>
</g>
<!-- Node8&#45;&gt;Node9 -->
<g id="edge8" class="edge">
<title>Node8&#45;&gt;Node9</title>
<path fill="none" stroke="midnightblue" d="M1101.03,-102.91C1097.66,-101.89 1094.3,-100.91 1091,-100 1014.06,-78.69 991.78,-85.88 915,-64 908.72,-62.21 902.24,-60.17 895.8,-58.02"/>
<polygon fill="midnightblue" stroke="midnightblue" points="1100,-106.25 1110.59,-105.88 1102.08,-99.57 1100,-106.25"/>
</g>
<!-- Node10 -->
<g id="node10" class="node">
<title>Node10</title>
<g id="a_node10"><a xlink:href="dfcc_8cpp.html" target="_top" xlink:title=" ">
<polygon fill="none" stroke="black" points="923.5,-6 923.5,-58 1072.5,-58 1072.5,-6 923.5,-6"/>
<text text-anchor="start" x="931.5" y="-46" font-family="Helvetica,sans-Serif" font-size="10.00">/home/runner/work/diffblue</text>
<text text-anchor="start" x="931.5" y="-35" font-family="Helvetica,sans-Serif" font-size="10.00">&#45;cbmc/diffblue&#45;cbmc/src</text>
<text text-anchor="start" x="931.5" y="-24" font-family="Helvetica,sans-Serif" font-size="10.00">/goto&#45;instrument/contracts</text>
<text text-anchor="middle" x="998" y="-13" font-family="Helvetica,sans-Serif" font-size="10.00">/dynamic&#45;frames/dfcc.cpp</text>
</a>
</g>
</g>
<!-- Node8&#45;&gt;Node10 -->
<g id="edge9" class="edge">
<title>Node8&#45;&gt;Node10</title>
<path fill="none" stroke="midnightblue" d="M1123.29,-100.84C1098.03,-87.16 1068.5,-71.17 1044.45,-58.15"/>
<polygon fill="midnightblue" stroke="midnightblue" points="1121.93,-104.08 1132.39,-105.76 1125.26,-97.92 1121.93,-104.08"/>
</g>
<!-- Node11 -->
<g id="node11" class="node">
<title>Node11</title>
<g id="a_node11"><a xlink:href="dfcc__swap__and__wrap_8cpp.html" target="_top" xlink:title=" ">
<polygon fill="none" stroke="black" points="1090.5,-0.5 1090.5,-63.5 1267.5,-63.5 1267.5,-0.5 1090.5,-0.5"/>
<text text-anchor="start" x="1098.5" y="-51.5" font-family="Helvetica,sans-Serif" font-size="10.00">/home/runner/work/diffblue</text>
<text text-anchor="start" x="1098.5" y="-40.5" font-family="Helvetica,sans-Serif" font-size="10.00">&#45;cbmc/diffblue&#45;cbmc/src</text>
<text text-anchor="start" x="1098.5" y="-29.5" font-family="Helvetica,sans-Serif" font-size="10.00">/goto&#45;instrument/contracts</text>
<text text-anchor="start" x="1098.5" y="-18.5" font-family="Helvetica,sans-Serif" font-size="10.00">/dynamic&#45;frames/dfcc_swap_and</text>
<text text-anchor="middle" x="1179" y="-7.5" font-family="Helvetica,sans-Serif" font-size="10.00">_wrap.cpp</text>
</a>
</g>
</g>
<!-- Node8&#45;&gt;Node11 -->
<g id="edge10" class="edge">
<title>Node8&#45;&gt;Node11</title>
<path fill="none" stroke="midnightblue" d="M1179,-95.69C1179,-85.24 1179,-73.89 1179,-63.75"/>
<polygon fill="midnightblue" stroke="midnightblue" points="1175.5,-95.76 1179,-105.76 1182.5,-95.76 1175.5,-95.76"/>
</g>
<!-- Node12 -->
<g id="node12" class="node">
<title>Node12</title>
<g id="a_node12"><a xlink:href="instrument__spec__assigns_8cpp.html" target="_top" xlink:title="Specify write set in code contracts.">
<polygon fill="none" stroke="black" points="1285.5,-6 1285.5,-58 1448.5,-58 1448.5,-6 1285.5,-6"/>
<text text-anchor="start" x="1293.5" y="-46" font-family="Helvetica,sans-Serif" font-size="10.00">/home/runner/work/diffblue</text>
<text text-anchor="start" x="1293.5" y="-35" font-family="Helvetica,sans-Serif" font-size="10.00">&#45;cbmc/diffblue&#45;cbmc/src</text>
<text text-anchor="start" x="1293.5" y="-24" font-family="Helvetica,sans-Serif" font-size="10.00">/goto&#45;instrument/contracts</text>
<text text-anchor="middle" x="1367" y="-13" font-family="Helvetica,sans-Serif" font-size="10.00">/instrument_spec_assigns.cpp</text>
</a>
</g>
</g>
<!-- Node8&#45;&gt;Node12 -->
<g id="edge11" class="edge">
<title>Node8&#45;&gt;Node12</title>
<path fill="none" stroke="midnightblue" d="M1236.52,-101.02C1262.83,-87.3 1293.67,-71.23 1318.75,-58.15"/>
<polygon fill="midnightblue" stroke="midnightblue" points="1234.66,-98.04 1227.41,-105.76 1237.9,-104.24 1234.66,-98.04"/>
</g>
<!-- Node8&#45;&gt;Node13 -->
<g id="edge12" class="edge">
<title>Node8&#45;&gt;Node13</title>
<path fill="none" stroke="midnightblue" d="M1256.7,-102.92C1260.17,-101.89 1263.61,-100.91 1267,-100 1350.42,-77.58 1374.29,-85.31 1458,-64 1465.04,-62.21 1472.33,-60.18 1479.59,-58.04"/>
<polygon fill="midnightblue" stroke="midnightblue" points="1255.43,-99.65 1246.9,-105.93 1257.48,-106.34 1255.43,-99.65"/>
</g>
</g>
</svg>
