<?xml version="1.0" encoding="UTF-8" standalone="no"?>
<!DOCTYPE svg PUBLIC "-//W3C//DTD SVG 1.1//EN"
 "http://www.w3.org/Graphics/SVG/1.1/DTD/svg11.dtd">
<!-- Generated by graphviz version 2.43.0 (0)
 -->
<!-- Title: /home/runner/work/diffblue&#45;cbmc/diffblue&#45;cbmc/src/util/fixed_keys_map_wrapper.h Pages: 1 -->
<svg width="2267pt" height="495pt"
 viewBox="0.00 0.00 2267.00 495.00" xmlns="http://www.w3.org/2000/svg" xmlns:xlink="http://www.w3.org/1999/xlink">
<g id="graph0" class="graph" transform="scale(1 1) rotate(0) translate(4 491)">
<title>/home/runner/work/diffblue&#45;cbmc/diffblue&#45;cbmc/src/util/fixed_keys_map_wrapper.h</title>
<!-- Node1 -->
<g id="node1" class="node">
<title>Node1</title>
<g id="a_node1"><a xlink:title="A wrapper for maps that gives read&#45;write access to elements but without allowing addition or removal ...">
<polygon fill="#bfbfbf" stroke="black" points="1142,-445.5 1142,-486.5 1312,-486.5 1312,-445.5 1142,-445.5"/>
<text text-anchor="start" x="1150" y="-474.5" font-family="Helvetica,sans-Serif" font-size="10.00">/home/runner/work/diffblue</text>
<text text-anchor="start" x="1150" y="-463.5" font-family="Helvetica,sans-Serif" font-size="10.00">&#45;cbmc/diffblue&#45;cbmc/src</text>
<text text-anchor="middle" x="1227" y="-452.5" font-family="Helvetica,sans-Serif" font-size="10.00">/util/fixed_keys_map_wrapper.h</text>
</a>
</g>
</g>
<!-- Node2 -->
<g id="node2" class="node">
<title>Node2</title>
<g id="a_node2"><a xlink:href="java__class__loader_8h.html" target="_top" xlink:title=" ">
<polygon fill="none" stroke="black" points="1146,-356.5 1146,-408.5 1308,-408.5 1308,-356.5 1146,-356.5"/>
<text text-anchor="start" x="1154" y="-396.5" font-family="Helvetica,sans-Serif" font-size="10.00">/home/runner/work/diffblue</text>
<text text-anchor="start" x="1154" y="-385.5" font-family="Helvetica,sans-Serif" font-size="10.00">&#45;cbmc/diffblue&#45;cbmc/jbmc</text>
<text text-anchor="start" x="1154" y="-374.5" font-family="Helvetica,sans-Serif" font-size="10.00">/src/java_bytecode/java_class</text>
<text text-anchor="middle" x="1227" y="-363.5" font-family="Helvetica,sans-Serif" font-size="10.00">_loader.h</text>
</a>
</g>
</g>
<!-- Node1&#45;&gt;Node2 -->
<g id="edge1" class="edge">
<title>Node1&#45;&gt;Node2</title>
<path fill="none" stroke="midnightblue" d="M1227,-435.12C1227,-426.41 1227,-416.99 1227,-408.61"/>
<polygon fill="midnightblue" stroke="midnightblue" points="1223.5,-435.27 1227,-445.27 1230.5,-435.27 1223.5,-435.27"/>
</g>
<!-- Node3 -->
<g id="node3" class="node">
<title>Node3</title>
<g id="a_node3"><a xlink:href="ci__lazy__methods_8cpp.html" target="_top" xlink:title=" ">
<polygon fill="none" stroke="black" points="539.5,-178.5 539.5,-230.5 688.5,-230.5 688.5,-178.5 539.5,-178.5"/>
<text text-anchor="start" x="547.5" y="-218.5" font-family="Helvetica,sans-Serif" font-size="10.00">/home/runner/work/diffblue</text>
<text text-anchor="start" x="547.5" y="-207.5" font-family="Helvetica,sans-Serif" font-size="10.00">&#45;cbmc/diffblue&#45;cbmc/jbmc</text>
<text text-anchor="start" x="547.5" y="-196.5" font-family="Helvetica,sans-Serif" font-size="10.00">/src/java_bytecode/ci_lazy</text>
<text text-anchor="middle" x="614" y="-185.5" font-family="Helvetica,sans-Serif" font-size="10.00">_methods.cpp</text>
</a>
</g>
</g>
<!-- Node2&#45;&gt;Node3 -->
<g id="edge2" class="edge">
<title>Node2&#45;&gt;Node3</title>
<path fill="none" stroke="midnightblue" d="M1135.68,-355.41C1030.93,-325.46 854.03,-274.82 702,-231 697.72,-229.77 693.32,-228.5 688.89,-227.22"/>
<polygon fill="midnightblue" stroke="midnightblue" points="1135.01,-358.86 1145.59,-358.24 1136.93,-352.13 1135.01,-358.86"/>
</g>
<!-- Node4 -->
<g id="node4" class="node">
<title>Node4</title>
<g id="a_node4"><a xlink:href="java__bytecode__convert__class_8h.html" target="_top" xlink:title="JAVA Bytecode Language Conversion.">
<polygon fill="none" stroke="black" points="352,-267.5 352,-319.5 534,-319.5 534,-267.5 352,-267.5"/>
<text text-anchor="start" x="360" y="-307.5" font-family="Helvetica,sans-Serif" font-size="10.00">/home/runner/work/diffblue</text>
<text text-anchor="start" x="360" y="-296.5" font-family="Helvetica,sans-Serif" font-size="10.00">&#45;cbmc/diffblue&#45;cbmc/jbmc</text>
<text text-anchor="start" x="360" y="-285.5" font-family="Helvetica,sans-Serif" font-size="10.00">/src/java_bytecode/java_bytecode</text>
<text text-anchor="middle" x="443" y="-274.5" font-family="Helvetica,sans-Serif" font-size="10.00">_convert_class.h</text>
</a>
</g>
</g>
<!-- Node2&#45;&gt;Node4 -->
<g id="edge3" class="edge">
<title>Node2&#45;&gt;Node4</title>
<path fill="none" stroke="midnightblue" d="M1135.52,-371.35C984.56,-354.6 685.01,-321.36 534.22,-304.62"/>
<polygon fill="midnightblue" stroke="midnightblue" points="1135.36,-374.85 1145.68,-372.48 1136.13,-367.89 1135.36,-374.85"/>
</g>
<!-- Node9 -->
<g id="node9" class="node">
<title>Node9</title>
<g id="a_node9"><a xlink:href="java__bytecode__language_8cpp.html" target="_top" xlink:title=" ">
<polygon fill="none" stroke="black" points="614,-0.5 614,-52.5 796,-52.5 796,-0.5 614,-0.5"/>
<text text-anchor="start" x="622" y="-40.5" font-family="Helvetica,sans-Serif" font-size="10.00">/home/runner/work/diffblue</text>
<text text-anchor="start" x="622" y="-29.5" font-family="Helvetica,sans-Serif" font-size="10.00">&#45;cbmc/diffblue&#45;cbmc/jbmc</text>
<text text-anchor="start" x="622" y="-18.5" font-family="Helvetica,sans-Serif" font-size="10.00">/src/java_bytecode/java_bytecode</text>
<text text-anchor="middle" x="705" y="-7.5" font-family="Helvetica,sans-Serif" font-size="10.00">_language.cpp</text>
</a>
</g>
</g>
<!-- Node2&#45;&gt;Node9 -->
<g id="edge14" class="edge">
<title>Node2&#45;&gt;Node9</title>
<path fill="none" stroke="midnightblue" d="M1318.36,-378.91C1512.85,-371.28 1957.59,-341.84 2050,-231 2065.08,-212.91 2064.02,-196.93 2050,-178 1969.25,-68.97 1891.55,-112.9 1758,-89 1574.47,-56.15 1016.7,-36.65 796.15,-30.04"/>
<polygon fill="midnightblue" stroke="midnightblue" points="1318.03,-375.42 1308.17,-379.3 1318.29,-382.42 1318.03,-375.42"/>
</g>
<!-- Node12 -->
<g id="node12" class="node">
<title>Node12</title>
<g id="a_node12"><a xlink:href="java__bytecode__language_8h.html" target="_top" xlink:title=" ">
<polygon fill="none" stroke="black" points="1136,-267.5 1136,-319.5 1318,-319.5 1318,-267.5 1136,-267.5"/>
<text text-anchor="start" x="1144" y="-307.5" font-family="Helvetica,sans-Serif" font-size="10.00">/home/runner/work/diffblue</text>
<text text-anchor="start" x="1144" y="-296.5" font-family="Helvetica,sans-Serif" font-size="10.00">&#45;cbmc/diffblue&#45;cbmc/jbmc</text>
<text text-anchor="start" x="1144" y="-285.5" font-family="Helvetica,sans-Serif" font-size="10.00">/src/java_bytecode/java_bytecode</text>
<text text-anchor="middle" x="1227" y="-274.5" font-family="Helvetica,sans-Serif" font-size="10.00">_language.h</text>
</a>
</g>
</g>
<!-- Node2&#45;&gt;Node12 -->
<g id="edge15" class="edge">
<title>Node2&#45;&gt;Node12</title>
<path fill="none" stroke="midnightblue" d="M1227,-346.19C1227,-337.28 1227,-327.9 1227,-319.61"/>
<polygon fill="midnightblue" stroke="midnightblue" points="1223.5,-346.34 1227,-356.34 1230.5,-346.34 1223.5,-346.34"/>
</g>
<!-- Node24 -->
<g id="node24" class="node">
<title>Node24</title>
<g id="a_node24"><a xlink:href="java__class__loader_8cpp.html" target="_top" xlink:title=" ">
<polygon fill="none" stroke="black" points="2097,-267.5 2097,-319.5 2259,-319.5 2259,-267.5 2097,-267.5"/>
<text text-anchor="start" x="2105" y="-307.5" font-family="Helvetica,sans-Serif" font-size="10.00">/home/runner/work/diffblue</text>
<text text-anchor="start" x="2105" y="-296.5" font-family="Helvetica,sans-Serif" font-size="10.00">&#45;cbmc/diffblue&#45;cbmc/jbmc</text>
<text text-anchor="start" x="2105" y="-285.5" font-family="Helvetica,sans-Serif" font-size="10.00">/src/java_bytecode/java_class</text>
<text text-anchor="middle" x="2178" y="-274.5" font-family="Helvetica,sans-Serif" font-size="10.00">_loader.cpp</text>
</a>
</g>
</g>
<!-- Node2&#45;&gt;Node24 -->
<g id="edge31" class="edge">
<title>Node2&#45;&gt;Node24</title>
<path fill="none" stroke="midnightblue" d="M1318.26,-380.63C1475.49,-377.87 1807.15,-366.49 2083,-320 2087.55,-319.23 2092.19,-318.35 2096.86,-317.37"/>
<polygon fill="midnightblue" stroke="midnightblue" points="1318.1,-377.13 1308.16,-380.8 1318.21,-384.13 1318.1,-377.13"/>
</g>
<!-- Node5 -->
<g id="node5" class="node">
<title>Node5</title>
<g id="a_node5"><a xlink:href="java__bytecode__convert__class_8cpp.html" target="_top" xlink:title="JAVA Bytecode Language Conversion.">
<polygon fill="none" stroke="black" points="0,-0.5 0,-52.5 182,-52.5 182,-0.5 0,-0.5"/>
<text text-anchor="start" x="8" y="-40.5" font-family="Helvetica,sans-Serif" font-size="10.00">/home/runner/work/diffblue</text>
<text text-anchor="start" x="8" y="-29.5" font-family="Helvetica,sans-Serif" font-size="10.00">&#45;cbmc/diffblue&#45;cbmc/jbmc</text>
<text text-anchor="start" x="8" y="-18.5" font-family="Helvetica,sans-Serif" font-size="10.00">/src/java_bytecode/java_bytecode</text>
<text text-anchor="middle" x="91" y="-7.5" font-family="Helvetica,sans-Serif" font-size="10.00">_convert_class.cpp</text>
</a>
</g>
</g>
<!-- Node4&#45;&gt;Node5 -->
<g id="edge4" class="edge">
<title>Node4&#45;&gt;Node5</title>
<path fill="none" stroke="midnightblue" d="M341.71,-281.15C256.52,-265.59 140.07,-228.8 85,-142 68.04,-115.27 74.47,-77.58 81.77,-52.85"/>
<polygon fill="midnightblue" stroke="midnightblue" points="341.22,-284.62 351.68,-282.9 342.44,-277.73 341.22,-284.62"/>
</g>
<!-- Node6 -->
<g id="node6" class="node">
<title>Node6</title>
<g id="a_node6"><a xlink:href="java__bytecode__convert__method__class_8h.html" target="_top" xlink:title="JAVA Bytecode Language Conversion.">
<polygon fill="none" stroke="black" points="283,-178.5 283,-230.5 465,-230.5 465,-178.5 283,-178.5"/>
<text text-anchor="start" x="291" y="-218.5" font-family="Helvetica,sans-Serif" font-size="10.00">/home/runner/work/diffblue</text>
<text text-anchor="start" x="291" y="-207.5" font-family="Helvetica,sans-Serif" font-size="10.00">&#45;cbmc/diffblue&#45;cbmc/jbmc</text>
<text text-anchor="start" x="291" y="-196.5" font-family="Helvetica,sans-Serif" font-size="10.00">/src/java_bytecode/java_bytecode</text>
<text text-anchor="middle" x="374" y="-185.5" font-family="Helvetica,sans-Serif" font-size="10.00">_convert_method_class.h</text>
</a>
</g>
</g>
<!-- Node4&#45;&gt;Node6 -->
<g id="edge5" class="edge">
<title>Node4&#45;&gt;Node6</title>
<path fill="none" stroke="midnightblue" d="M416.6,-259.22C409.07,-249.72 400.99,-239.53 393.91,-230.61"/>
<polygon fill="midnightblue" stroke="midnightblue" points="414.09,-261.68 423.04,-267.34 419.57,-257.33 414.09,-261.68"/>
</g>
<!-- Node4&#45;&gt;Node9 -->
<g id="edge13" class="edge">
<title>Node4&#45;&gt;Node9</title>
<path fill="none" stroke="midnightblue" d="M465.71,-258.87C482.33,-235.23 506.07,-203.42 530,-178 575.45,-129.71 635.28,-80.96 671.89,-52.52"/>
<polygon fill="midnightblue" stroke="midnightblue" points="462.76,-256.97 459.92,-267.18 468.5,-260.97 462.76,-256.97"/>
</g>
<!-- Node7 -->
<g id="node7" class="node">
<title>Node7</title>
<g id="a_node7"><a xlink:href="java__bytecode__convert__method_8cpp.html" target="_top" xlink:title="JAVA Bytecode Language Conversion.">
<polygon fill="none" stroke="black" points="393,-0.5 393,-52.5 575,-52.5 575,-0.5 393,-0.5"/>
<text text-anchor="start" x="401" y="-40.5" font-family="Helvetica,sans-Serif" font-size="10.00">/home/runner/work/diffblue</text>
<text text-anchor="start" x="401" y="-29.5" font-family="Helvetica,sans-Serif" font-size="10.00">&#45;cbmc/diffblue&#45;cbmc/jbmc</text>
<text text-anchor="start" x="401" y="-18.5" font-family="Helvetica,sans-Serif" font-size="10.00">/src/java_bytecode/java_bytecode</text>
<text text-anchor="middle" x="484" y="-7.5" font-family="Helvetica,sans-Serif" font-size="10.00">_convert_method.cpp</text>
</a>
</g>
</g>
<!-- Node6&#45;&gt;Node7 -->
<g id="edge6" class="edge">
<title>Node6&#45;&gt;Node7</title>
<path fill="none" stroke="midnightblue" d="M435.02,-172.46C446.55,-164.03 457.38,-153.88 465,-142 482.3,-115.03 485.44,-77.4 485.34,-52.74"/>
<polygon fill="midnightblue" stroke="midnightblue" points="432.79,-169.75 426.53,-178.3 436.75,-175.52 432.79,-169.75"/>
</g>
<!-- Node8 -->
<g id="node8" class="node">
<title>Node8</title>
<g id="a_node8"><a xlink:href="java__bytecode__convert__method_8h.html" target="_top" xlink:title="JAVA Bytecode Language Conversion.">
<polygon fill="none" stroke="black" points="274,-89.5 274,-141.5 456,-141.5 456,-89.5 274,-89.5"/>
<text text-anchor="start" x="282" y="-129.5" font-family="Helvetica,sans-Serif" font-size="10.00">/home/runner/work/diffblue</text>
<text text-anchor="start" x="282" y="-118.5" font-family="Helvetica,sans-Serif" font-size="10.00">&#45;cbmc/diffblue&#45;cbmc/jbmc</text>
<text text-anchor="start" x="282" y="-107.5" font-family="Helvetica,sans-Serif" font-size="10.00">/src/java_bytecode/java_bytecode</text>
<text text-anchor="middle" x="365" y="-96.5" font-family="Helvetica,sans-Serif" font-size="10.00">_convert_method.h</text>
</a>
</g>
</g>
<!-- Node6&#45;&gt;Node8 -->
<g id="edge7" class="edge">
<title>Node6&#45;&gt;Node8</title>
<path fill="none" stroke="midnightblue" d="M370.35,-168.19C369.43,-159.28 368.46,-149.9 367.6,-141.61"/>
<polygon fill="midnightblue" stroke="midnightblue" points="366.89,-168.75 371.4,-178.34 373.85,-168.03 366.89,-168.75"/>
</g>
<!-- Node11 -->
<g id="node11" class="node">
<title>Node11</title>
<g id="a_node11"><a xlink:href="java__local__variable__table_8cpp.html" target="_top" xlink:title="Java local variable table processing.">
<polygon fill="none" stroke="black" points="94.5,-89.5 94.5,-141.5 255.5,-141.5 255.5,-89.5 94.5,-89.5"/>
<text text-anchor="start" x="102.5" y="-129.5" font-family="Helvetica,sans-Serif" font-size="10.00">/home/runner/work/diffblue</text>
<text text-anchor="start" x="102.5" y="-118.5" font-family="Helvetica,sans-Serif" font-size="10.00">&#45;cbmc/diffblue&#45;cbmc/jbmc</text>
<text text-anchor="start" x="102.5" y="-107.5" font-family="Helvetica,sans-Serif" font-size="10.00">/src/java_bytecode/java_local</text>
<text text-anchor="middle" x="175" y="-96.5" font-family="Helvetica,sans-Serif" font-size="10.00">_variable_table.cpp</text>
</a>
</g>
</g>
<!-- Node6&#45;&gt;Node11 -->
<g id="edge12" class="edge">
<title>Node6&#45;&gt;Node11</title>
<path fill="none" stroke="midnightblue" d="M307.52,-174.44C283.13,-163.77 255.74,-151.8 232.23,-141.52"/>
<polygon fill="midnightblue" stroke="midnightblue" points="306.14,-177.65 316.71,-178.45 308.95,-171.24 306.14,-177.65"/>
</g>
<!-- Node8&#45;&gt;Node5 -->
<g id="edge8" class="edge">
<title>Node8&#45;&gt;Node5</title>
<path fill="none" stroke="midnightblue" d="M276.56,-86.42C242.21,-75.51 203.17,-63.12 169.8,-52.52"/>
<polygon fill="midnightblue" stroke="midnightblue" points="275.53,-89.76 286.12,-89.45 277.64,-83.09 275.53,-89.76"/>
</g>
<!-- Node8&#45;&gt;Node7 -->
<g id="edge9" class="edge">
<title>Node8&#45;&gt;Node7</title>
<path fill="none" stroke="midnightblue" d="M407.79,-83.22C421.54,-73.16 436.59,-62.16 449.66,-52.61"/>
<polygon fill="midnightblue" stroke="midnightblue" points="405.43,-80.61 399.42,-89.34 409.56,-86.26 405.43,-80.61"/>
</g>
<!-- Node8&#45;&gt;Node9 -->
<g id="edge10" class="edge">
<title>Node8&#45;&gt;Node9</title>
<path fill="none" stroke="midnightblue" d="M465.99,-88.66C512.92,-76.65 568.3,-62.48 613.93,-50.8"/>
<polygon fill="midnightblue" stroke="midnightblue" points="464.93,-85.32 456.11,-91.19 466.67,-92.1 464.93,-85.32"/>
</g>
<!-- Node10 -->
<g id="node10" class="node">
<title>Node10</title>
<g id="a_node10"><a xlink:href="lambda__synthesis_8cpp.html" target="_top" xlink:title="Java lambda code synthesis.">
<polygon fill="none" stroke="black" points="225.5,-0.5 225.5,-52.5 374.5,-52.5 374.5,-0.5 225.5,-0.5"/>
<text text-anchor="start" x="233.5" y="-40.5" font-family="Helvetica,sans-Serif" font-size="10.00">/home/runner/work/diffblue</text>
<text text-anchor="start" x="233.5" y="-29.5" font-family="Helvetica,sans-Serif" font-size="10.00">&#45;cbmc/diffblue&#45;cbmc/jbmc</text>
<text text-anchor="start" x="233.5" y="-18.5" font-family="Helvetica,sans-Serif" font-size="10.00">/src/java_bytecode/lambda</text>
<text text-anchor="middle" x="300" y="-7.5" font-family="Helvetica,sans-Serif" font-size="10.00">_synthesis.cpp</text>
</a>
</g>
</g>
<!-- Node8&#45;&gt;Node10 -->
<g id="edge11" class="edge">
<title>Node8&#45;&gt;Node10</title>
<path fill="none" stroke="midnightblue" d="M340.13,-81.22C333.04,-71.72 325.42,-61.53 318.76,-52.61"/>
<polygon fill="midnightblue" stroke="midnightblue" points="337.41,-83.42 346.2,-89.34 343.02,-79.23 337.41,-83.42"/>
</g>
<!-- Node12&#45;&gt;Node3 -->
<g id="edge20" class="edge">
<title>Node12&#45;&gt;Node3</title>
<path fill="none" stroke="midnightblue" d="M1125.62,-285.62C1019.3,-277.25 847.74,-260.44 702,-231 697.63,-230.12 693.17,-229.12 688.68,-228.05"/>
<polygon fill="midnightblue" stroke="midnightblue" points="1125.46,-289.12 1135.7,-286.41 1126,-282.14 1125.46,-289.12"/>
</g>
<!-- Node12&#45;&gt;Node9 -->
<g id="edge21" class="edge">
<title>Node12&#45;&gt;Node9</title>
<path fill="none" stroke="midnightblue" d="M1125.55,-285.05C996.53,-274.68 787.12,-254.49 760,-231 707.72,-185.71 702.66,-96.37 703.59,-52.71"/>
<polygon fill="midnightblue" stroke="midnightblue" points="1125.6,-288.57 1135.85,-285.87 1126.16,-281.59 1125.6,-288.57"/>
</g>
<!-- Node13 -->
<g id="node13" class="node">
<title>Node13</title>
<g id="a_node13"><a xlink:href="janalyzer__parse__options_8cpp.html" target="_top" xlink:title="JANALYZER Command Line Option Processing.">
<polygon fill="none" stroke="black" points="1432.5,-89.5 1432.5,-141.5 1581.5,-141.5 1581.5,-89.5 1432.5,-89.5"/>
<text text-anchor="start" x="1440.5" y="-129.5" font-family="Helvetica,sans-Serif" font-size="10.00">/home/runner/work/diffblue</text>
<text text-anchor="start" x="1440.5" y="-118.5" font-family="Helvetica,sans-Serif" font-size="10.00">&#45;cbmc/diffblue&#45;cbmc/jbmc</text>
<text text-anchor="start" x="1440.5" y="-107.5" font-family="Helvetica,sans-Serif" font-size="10.00">/src/janalyzer/janalyzer</text>
<text text-anchor="middle" x="1507" y="-96.5" font-family="Helvetica,sans-Serif" font-size="10.00">_parse_options.cpp</text>
</a>
</g>
</g>
<!-- Node12&#45;&gt;Node13 -->
<g id="edge16" class="edge">
<title>Node12&#45;&gt;Node13</title>
<path fill="none" stroke="midnightblue" d="M1328.22,-280.48C1392.27,-270.74 1467.01,-254.69 1489,-231 1511.17,-207.11 1512.49,-167.6 1510.47,-141.81"/>
<polygon fill="midnightblue" stroke="midnightblue" points="1327.42,-277.06 1318.04,-281.99 1328.44,-283.99 1327.42,-277.06"/>
</g>
<!-- Node14 -->
<g id="node14" class="node">
<title>Node14</title>
<g id="a_node14"><a xlink:href="janalyzer__parse__options_8h.html" target="_top" xlink:title="JANALYZER Command Line Option Processing.">
<polygon fill="none" stroke="black" points="1534.5,-178.5 1534.5,-230.5 1683.5,-230.5 1683.5,-178.5 1534.5,-178.5"/>
<text text-anchor="start" x="1542.5" y="-218.5" font-family="Helvetica,sans-Serif" font-size="10.00">/home/runner/work/diffblue</text>
<text text-anchor="start" x="1542.5" y="-207.5" font-family="Helvetica,sans-Serif" font-size="10.00">&#45;cbmc/diffblue&#45;cbmc/jbmc</text>
<text text-anchor="start" x="1542.5" y="-196.5" font-family="Helvetica,sans-Serif" font-size="10.00">/src/janalyzer/janalyzer</text>
<text text-anchor="middle" x="1609" y="-185.5" font-family="Helvetica,sans-Serif" font-size="10.00">_parse_options.h</text>
</a>
</g>
</g>
<!-- Node12&#45;&gt;Node14 -->
<g id="edge17" class="edge">
<title>Node12&#45;&gt;Node14</title>
<path fill="none" stroke="midnightblue" d="M1328.21,-273.3C1385.1,-262.01 1457.27,-246.87 1521,-231 1525.32,-229.92 1529.75,-228.78 1534.21,-227.59"/>
<polygon fill="midnightblue" stroke="midnightblue" points="1327.26,-269.92 1318.13,-275.29 1328.62,-276.79 1327.26,-269.92"/>
</g>
<!-- Node16 -->
<g id="node16" class="node">
<title>Node16</title>
<g id="a_node16"><a xlink:href="java__entry__point_8cpp.html" target="_top" xlink:title=" ">
<polygon fill="none" stroke="black" points="1701.5,-178.5 1701.5,-230.5 1864.5,-230.5 1864.5,-178.5 1701.5,-178.5"/>
<text text-anchor="start" x="1709.5" y="-218.5" font-family="Helvetica,sans-Serif" font-size="10.00">/home/runner/work/diffblue</text>
<text text-anchor="start" x="1709.5" y="-207.5" font-family="Helvetica,sans-Serif" font-size="10.00">&#45;cbmc/diffblue&#45;cbmc/jbmc</text>
<text text-anchor="start" x="1709.5" y="-196.5" font-family="Helvetica,sans-Serif" font-size="10.00">/src/java_bytecode/java_entry</text>
<text text-anchor="middle" x="1783" y="-185.5" font-family="Helvetica,sans-Serif" font-size="10.00">_point.cpp</text>
</a>
</g>
</g>
<!-- Node12&#45;&gt;Node16 -->
<g id="edge22" class="edge">
<title>Node12&#45;&gt;Node16</title>
<path fill="none" stroke="midnightblue" d="M1328.46,-283.39C1423.34,-273.86 1568.66,-256.68 1693,-231 1695.7,-230.44 1698.45,-229.84 1701.21,-229.22"/>
<polygon fill="midnightblue" stroke="midnightblue" points="1327.9,-279.93 1318.29,-284.4 1328.59,-286.89 1327.9,-279.93"/>
</g>
<!-- Node17 -->
<g id="node17" class="node">
<title>Node17</title>
<g id="a_node17"><a xlink:href="lazy__goto__model_8cpp.html" target="_top" xlink:title="Author: Diffblue Ltd.">
<polygon fill="none" stroke="black" points="1883,-178.5 1883,-230.5 2041,-230.5 2041,-178.5 1883,-178.5"/>
<text text-anchor="start" x="1891" y="-218.5" font-family="Helvetica,sans-Serif" font-size="10.00">/home/runner/work/diffblue</text>
<text text-anchor="start" x="1891" y="-207.5" font-family="Helvetica,sans-Serif" font-size="10.00">&#45;cbmc/diffblue&#45;cbmc/jbmc</text>
<text text-anchor="start" x="1891" y="-196.5" font-family="Helvetica,sans-Serif" font-size="10.00">/src/java_bytecode/lazy_goto</text>
<text text-anchor="middle" x="1962" y="-185.5" font-family="Helvetica,sans-Serif" font-size="10.00">_model.cpp</text>
</a>
</g>
</g>
<!-- Node12&#45;&gt;Node17 -->
<g id="edge23" class="edge">
<title>Node12&#45;&gt;Node17</title>
<path fill="none" stroke="midnightblue" d="M1328.22,-288.74C1456.27,-282.65 1683.13,-267.39 1874,-231 1876.81,-230.46 1879.66,-229.88 1882.54,-229.25"/>
<polygon fill="midnightblue" stroke="midnightblue" points="1327.86,-285.26 1318.03,-289.22 1328.19,-292.25 1327.86,-285.26"/>
</g>
<!-- Node18 -->
<g id="node18" class="node">
<title>Node18</title>
<g id="a_node18"><a xlink:href="jbmc__parse__options_8cpp.html" target="_top" xlink:title="JBMC Command Line Option Processing.">
<polygon fill="none" stroke="black" points="744,-95 744,-136 926,-136 926,-95 744,-95"/>
<text text-anchor="start" x="752" y="-124" font-family="Helvetica,sans-Serif" font-size="10.00">/home/runner/work/diffblue</text>
<text text-anchor="start" x="752" y="-113" font-family="Helvetica,sans-Serif" font-size="10.00">&#45;cbmc/diffblue&#45;cbmc/jbmc</text>
<text text-anchor="middle" x="835" y="-102" font-family="Helvetica,sans-Serif" font-size="10.00">/src/jbmc/jbmc_parse_options.cpp</text>
</a>
</g>
</g>
<!-- Node12&#45;&gt;Node18 -->
<g id="edge24" class="edge">
<title>Node12&#45;&gt;Node18</title>
<path fill="none" stroke="midnightblue" d="M1125.78,-285.76C999.1,-276.27 795.86,-257.17 773,-231 757.5,-213.26 763.94,-199.74 773,-178 779.94,-161.35 793.82,-146.89 806.7,-136.18"/>
<polygon fill="midnightblue" stroke="midnightblue" points="1125.67,-289.26 1135.9,-286.51 1126.18,-282.28 1125.67,-289.26"/>
</g>
<!-- Node19 -->
<g id="node19" class="node">
<title>Node19</title>
<g id="a_node19"><a xlink:href="jbmc__parse__options_8h.html" target="_top" xlink:title="JBMC Command Line Option Processing.">
<polygon fill="none" stroke="black" points="782,-184 782,-225 952,-225 952,-184 782,-184"/>
<text text-anchor="start" x="790" y="-213" font-family="Helvetica,sans-Serif" font-size="10.00">/home/runner/work/diffblue</text>
<text text-anchor="start" x="790" y="-202" font-family="Helvetica,sans-Serif" font-size="10.00">&#45;cbmc/diffblue&#45;cbmc/jbmc</text>
<text text-anchor="middle" x="867" y="-191" font-family="Helvetica,sans-Serif" font-size="10.00">/src/jbmc/jbmc_parse_options.h</text>
</a>
</g>
</g>
<!-- Node12&#45;&gt;Node19 -->
<g id="edge25" class="edge">
<title>Node12&#45;&gt;Node19</title>
<path fill="none" stroke="midnightblue" d="M1126,-269.91C1076.48,-258.62 1016.01,-244.51 962,-231 954.46,-229.11 946.6,-227.09 938.77,-225.04"/>
<polygon fill="midnightblue" stroke="midnightblue" points="1125.22,-273.33 1135.75,-272.13 1126.78,-266.5 1125.22,-273.33"/>
</g>
<!-- Node21 -->
<g id="node21" class="node">
<title>Node21</title>
<g id="a_node21"><a xlink:href="jdiff__languages_8cpp.html" target="_top" xlink:title="Language Registration.">
<polygon fill="none" stroke="black" points="970.5,-184 970.5,-225 1123.5,-225 1123.5,-184 970.5,-184"/>
<text text-anchor="start" x="978.5" y="-213" font-family="Helvetica,sans-Serif" font-size="10.00">/home/runner/work/diffblue</text>
<text text-anchor="start" x="978.5" y="-202" font-family="Helvetica,sans-Serif" font-size="10.00">&#45;cbmc/diffblue&#45;cbmc/jbmc</text>
<text text-anchor="middle" x="1047" y="-191" font-family="Helvetica,sans-Serif" font-size="10.00">/src/jdiff/jdiff_languages.cpp</text>
</a>
</g>
</g>
<!-- Node12&#45;&gt;Node21 -->
<g id="edge28" class="edge">
<title>Node12&#45;&gt;Node21</title>
<path fill="none" stroke="midnightblue" d="M1165.61,-262.83C1139.82,-250.36 1110.53,-236.21 1087.51,-225.08"/>
<polygon fill="midnightblue" stroke="midnightblue" points="1164.41,-266.14 1174.94,-267.34 1167.46,-259.83 1164.41,-266.14"/>
</g>
<!-- Node22 -->
<g id="node22" class="node">
<title>Node22</title>
<g id="a_node22"><a xlink:href="jdiff__parse__options_8cpp.html" target="_top" xlink:title="JDIFF Command Line Option Processing.">
<polygon fill="none" stroke="black" points="1141.5,-184 1141.5,-225 1312.5,-225 1312.5,-184 1141.5,-184"/>
<text text-anchor="start" x="1149.5" y="-213" font-family="Helvetica,sans-Serif" font-size="10.00">/home/runner/work/diffblue</text>
<text text-anchor="start" x="1149.5" y="-202" font-family="Helvetica,sans-Serif" font-size="10.00">&#45;cbmc/diffblue&#45;cbmc/jbmc</text>
<text text-anchor="middle" x="1227" y="-191" font-family="Helvetica,sans-Serif" font-size="10.00">/src/jdiff/jdiff_parse_options.cpp</text>
</a>
</g>
</g>
<!-- Node12&#45;&gt;Node22 -->
<g id="edge29" class="edge">
<title>Node12&#45;&gt;Node22</title>
<path fill="none" stroke="midnightblue" d="M1227,-257.16C1227,-246.21 1227,-234.55 1227,-225.08"/>
<polygon fill="midnightblue" stroke="midnightblue" points="1223.5,-257.34 1227,-267.34 1230.5,-257.34 1223.5,-257.34"/>
</g>
<!-- Node23 -->
<g id="node23" class="node">
<title>Node23</title>
<g id="a_node23"><a xlink:href="load__java__class_8cpp.html" target="_top" xlink:title=" ">
<polygon fill="none" stroke="black" points="1330.5,-178.5 1330.5,-230.5 1479.5,-230.5 1479.5,-178.5 1330.5,-178.5"/>
<text text-anchor="start" x="1338.5" y="-218.5" font-family="Helvetica,sans-Serif" font-size="10.00">/home/runner/work/diffblue</text>
<text text-anchor="start" x="1338.5" y="-207.5" font-family="Helvetica,sans-Serif" font-size="10.00">&#45;cbmc/diffblue&#45;cbmc/jbmc</text>
<text text-anchor="start" x="1338.5" y="-196.5" font-family="Helvetica,sans-Serif" font-size="10.00">/unit/java&#45;testing&#45;utils</text>
<text text-anchor="middle" x="1405" y="-185.5" font-family="Helvetica,sans-Serif" font-size="10.00">/load_java_class.cpp</text>
</a>
</g>
</g>
<!-- Node12&#45;&gt;Node23 -->
<g id="edge30" class="edge">
<title>Node12&#45;&gt;Node23</title>
<path fill="none" stroke="midnightblue" d="M1287.53,-262.92C1309.02,-252.41 1332.98,-240.7 1353.63,-230.61"/>
<polygon fill="midnightblue" stroke="midnightblue" points="1285.93,-259.8 1278.48,-267.34 1289.01,-266.09 1285.93,-259.8"/>
</g>
<!-- Node14&#45;&gt;Node13 -->
<g id="edge19" class="edge">
<title>Node14&#45;&gt;Node13</title>
<path fill="none" stroke="midnightblue" d="M1571.66,-171.65C1560.05,-161.75 1547.42,-150.98 1536.44,-141.61"/>
<polygon fill="midnightblue" stroke="midnightblue" points="1569.62,-174.51 1579.5,-178.34 1574.16,-169.18 1569.62,-174.51"/>
</g>
<!-- Node15 -->
<g id="node15" class="node">
<title>Node15</title>
<g id="a_node15"><a xlink:href="janalyzer__main_8cpp.html" target="_top" xlink:title="JANALYZER Main Module.">
<polygon fill="none" stroke="black" points="1599.5,-89.5 1599.5,-141.5 1748.5,-141.5 1748.5,-89.5 1599.5,-89.5"/>
<text text-anchor="start" x="1607.5" y="-129.5" font-family="Helvetica,sans-Serif" font-size="10.00">/home/runner/work/diffblue</text>
<text text-anchor="start" x="1607.5" y="-118.5" font-family="Helvetica,sans-Serif" font-size="10.00">&#45;cbmc/diffblue&#45;cbmc/jbmc</text>
<text text-anchor="start" x="1607.5" y="-107.5" font-family="Helvetica,sans-Serif" font-size="10.00">/src/janalyzer/janalyzer</text>
<text text-anchor="middle" x="1674" y="-96.5" font-family="Helvetica,sans-Serif" font-size="10.00">_main.cpp</text>
</a>
</g>
</g>
<!-- Node14&#45;&gt;Node15 -->
<g id="edge18" class="edge">
<title>Node14&#45;&gt;Node15</title>
<path fill="none" stroke="midnightblue" d="M1633.87,-170.22C1640.96,-160.72 1648.58,-150.53 1655.24,-141.61"/>
<polygon fill="midnightblue" stroke="midnightblue" points="1630.98,-168.23 1627.8,-178.34 1636.59,-172.42 1630.98,-168.23"/>
</g>
<!-- Node19&#45;&gt;Node18 -->
<g id="edge27" class="edge">
<title>Node19&#45;&gt;Node18</title>
<path fill="none" stroke="midnightblue" d="M856.22,-174.19C851.61,-161.67 846.36,-147.38 842.23,-136.16"/>
<polygon fill="midnightblue" stroke="midnightblue" points="853,-175.58 859.74,-183.76 859.57,-173.16 853,-175.58"/>
</g>
<!-- Node20 -->
<g id="node20" class="node">
<title>Node20</title>
<g id="a_node20"><a xlink:href="jbmc__main_8cpp.html" target="_top" xlink:title="CBMC Main Module.">
<polygon fill="none" stroke="black" points="944.5,-95 944.5,-136 1093.5,-136 1093.5,-95 944.5,-95"/>
<text text-anchor="start" x="952.5" y="-124" font-family="Helvetica,sans-Serif" font-size="10.00">/home/runner/work/diffblue</text>
<text text-anchor="start" x="952.5" y="-113" font-family="Helvetica,sans-Serif" font-size="10.00">&#45;cbmc/diffblue&#45;cbmc/jbmc</text>
<text text-anchor="middle" x="1019" y="-102" font-family="Helvetica,sans-Serif" font-size="10.00">/src/jbmc/jbmc_main.cpp</text>
</a>
</g>
</g>
<!-- Node19&#45;&gt;Node20 -->
<g id="edge26" class="edge">
<title>Node19&#45;&gt;Node20</title>
<path fill="none" stroke="midnightblue" d="M909.9,-178.94C933.58,-165.39 962.59,-148.79 984.74,-136.11"/>
<polygon fill="midnightblue" stroke="midnightblue" points="908.05,-175.97 901.11,-183.98 911.53,-182.05 908.05,-175.97"/>
</g>
</g>
</svg>
