<?xml version="1.0" encoding="UTF-8" standalone="no"?>
<!DOCTYPE svg PUBLIC "-//W3C//DTD SVG 1.1//EN"
 "http://www.w3.org/Graphics/SVG/1.1/DTD/svg11.dtd">
<!-- Generated by graphviz version 2.43.0 (0)
 -->
<!-- Title: /home/runner/work/diffblue&#45;cbmc/diffblue&#45;cbmc/src/solvers/floatbv/float_utils.h Pages: 1 -->
<svg width="2074pt" height="217pt"
 viewBox="0.00 0.00 2073.50 217.00" xmlns="http://www.w3.org/2000/svg" xmlns:xlink="http://www.w3.org/1999/xlink">
<g id="graph0" class="graph" transform="scale(1 1) rotate(0) translate(4 213)">
<title>/home/runner/work/diffblue&#45;cbmc/diffblue&#45;cbmc/src/solvers/floatbv/float_utils.h</title>
<!-- Node1 -->
<g id="node1" class="node">
<title>Node1</title>
<g id="a_node1"><a xlink:title=" ">
<polygon fill="#bfbfbf" stroke="black" points="928,-167.5 928,-208.5 1080,-208.5 1080,-167.5 928,-167.5"/>
<text text-anchor="start" x="936" y="-196.5" font-family="Helvetica,sans-Serif" font-size="10.00">/home/runner/work/diffblue</text>
<text text-anchor="start" x="936" y="-185.5" font-family="Helvetica,sans-Serif" font-size="10.00">&#45;cbmc/diffblue&#45;cbmc/src</text>
<text text-anchor="middle" x="1004" y="-174.5" font-family="Helvetica,sans-Serif" font-size="10.00">/solvers/floatbv/float_utils.h</text>
</a>
</g>
</g>
<!-- Node2 -->
<g id="node2" class="node">
<title>Node2</title>
<g id="a_node2"><a xlink:href="boolbv_8cpp.html" target="_top" xlink:title=" ">
<polygon fill="none" stroke="black" points="0,-84 0,-125 160,-125 160,-84 0,-84"/>
<text text-anchor="start" x="8" y="-113" font-family="Helvetica,sans-Serif" font-size="10.00">/home/runner/work/diffblue</text>
<text text-anchor="start" x="8" y="-102" font-family="Helvetica,sans-Serif" font-size="10.00">&#45;cbmc/diffblue&#45;cbmc/src</text>
<text text-anchor="middle" x="80" y="-91" font-family="Helvetica,sans-Serif" font-size="10.00">/solvers/flattening/boolbv.cpp</text>
</a>
</g>
</g>
<!-- Node1&#45;&gt;Node2 -->
<g id="edge1" class="edge">
<title>Node1&#45;&gt;Node2</title>
<path fill="none" stroke="midnightblue" d="M917.54,-187.12C765.3,-186.02 439.94,-177.77 170,-131 161.04,-129.45 151.69,-127.35 142.56,-125.03"/>
<polygon fill="midnightblue" stroke="midnightblue" points="917.74,-190.62 927.76,-187.18 917.78,-183.62 917.74,-190.62"/>
</g>
<!-- Node3 -->
<g id="node3" class="node">
<title>Node3</title>
<g id="a_node3"><a xlink:href="boolbv__abs_8cpp.html" target="_top" xlink:title=" ">
<polygon fill="none" stroke="black" points="178.5,-78.5 178.5,-130.5 327.5,-130.5 327.5,-78.5 178.5,-78.5"/>
<text text-anchor="start" x="186.5" y="-118.5" font-family="Helvetica,sans-Serif" font-size="10.00">/home/runner/work/diffblue</text>
<text text-anchor="start" x="186.5" y="-107.5" font-family="Helvetica,sans-Serif" font-size="10.00">&#45;cbmc/diffblue&#45;cbmc/src</text>
<text text-anchor="start" x="186.5" y="-96.5" font-family="Helvetica,sans-Serif" font-size="10.00">/solvers/flattening/boolbv</text>
<text text-anchor="middle" x="253" y="-85.5" font-family="Helvetica,sans-Serif" font-size="10.00">_abs.cpp</text>
</a>
</g>
</g>
<!-- Node1&#45;&gt;Node3 -->
<g id="edge2" class="edge">
<title>Node1&#45;&gt;Node3</title>
<path fill="none" stroke="midnightblue" d="M917.64,-185.55C789.73,-182.1 542.85,-170.43 337,-131 334.01,-130.43 330.97,-129.79 327.91,-129.1"/>
<polygon fill="midnightblue" stroke="midnightblue" points="917.68,-189.05 927.77,-185.81 917.86,-182.05 917.68,-189.05"/>
</g>
<!-- Node4 -->
<g id="node4" class="node">
<title>Node4</title>
<g id="a_node4"><a xlink:href="boolbv__add__sub_8cpp.html" target="_top" xlink:title=" ">
<polygon fill="none" stroke="black" points="345.5,-78.5 345.5,-130.5 494.5,-130.5 494.5,-78.5 345.5,-78.5"/>
<text text-anchor="start" x="353.5" y="-118.5" font-family="Helvetica,sans-Serif" font-size="10.00">/home/runner/work/diffblue</text>
<text text-anchor="start" x="353.5" y="-107.5" font-family="Helvetica,sans-Serif" font-size="10.00">&#45;cbmc/diffblue&#45;cbmc/src</text>
<text text-anchor="start" x="353.5" y="-96.5" font-family="Helvetica,sans-Serif" font-size="10.00">/solvers/flattening/boolbv</text>
<text text-anchor="middle" x="420" y="-85.5" font-family="Helvetica,sans-Serif" font-size="10.00">_add_sub.cpp</text>
</a>
</g>
</g>
<!-- Node1&#45;&gt;Node4 -->
<g id="edge3" class="edge">
<title>Node1&#45;&gt;Node4</title>
<path fill="none" stroke="midnightblue" d="M917.86,-182.16C817.62,-175.42 647.5,-160.56 504,-131 501.01,-130.39 497.98,-129.71 494.93,-128.99"/>
<polygon fill="midnightblue" stroke="midnightblue" points="917.72,-185.66 927.93,-182.83 918.19,-178.67 917.72,-185.66"/>
</g>
<!-- Node5 -->
<g id="node5" class="node">
<title>Node5</title>
<g id="a_node5"><a xlink:href="boolbv__bv__rel_8cpp.html" target="_top" xlink:title=" ">
<polygon fill="none" stroke="black" points="512.5,-78.5 512.5,-130.5 661.5,-130.5 661.5,-78.5 512.5,-78.5"/>
<text text-anchor="start" x="520.5" y="-118.5" font-family="Helvetica,sans-Serif" font-size="10.00">/home/runner/work/diffblue</text>
<text text-anchor="start" x="520.5" y="-107.5" font-family="Helvetica,sans-Serif" font-size="10.00">&#45;cbmc/diffblue&#45;cbmc/src</text>
<text text-anchor="start" x="520.5" y="-96.5" font-family="Helvetica,sans-Serif" font-size="10.00">/solvers/flattening/boolbv</text>
<text text-anchor="middle" x="587" y="-85.5" font-family="Helvetica,sans-Serif" font-size="10.00">_bv_rel.cpp</text>
</a>
</g>
</g>
<!-- Node1&#45;&gt;Node5 -->
<g id="edge4" class="edge">
<title>Node1&#45;&gt;Node5</title>
<path fill="none" stroke="midnightblue" d="M917.56,-175.57C849.98,-165.88 753.92,-150.47 671,-131 667.88,-130.27 664.71,-129.48 661.52,-128.66"/>
<polygon fill="midnightblue" stroke="midnightblue" points="917.34,-179.07 927.73,-177.01 918.32,-172.14 917.34,-179.07"/>
</g>
<!-- Node6 -->
<g id="node6" class="node">
<title>Node6</title>
<g id="a_node6"><a xlink:href="boolbv__floatbv__mod__rem_8cpp.html" target="_top" xlink:title=" ">
<polygon fill="none" stroke="black" points="679.5,-78.5 679.5,-130.5 828.5,-130.5 828.5,-78.5 679.5,-78.5"/>
<text text-anchor="start" x="687.5" y="-118.5" font-family="Helvetica,sans-Serif" font-size="10.00">/home/runner/work/diffblue</text>
<text text-anchor="start" x="687.5" y="-107.5" font-family="Helvetica,sans-Serif" font-size="10.00">&#45;cbmc/diffblue&#45;cbmc/src</text>
<text text-anchor="start" x="687.5" y="-96.5" font-family="Helvetica,sans-Serif" font-size="10.00">/solvers/flattening/boolbv</text>
<text text-anchor="middle" x="754" y="-85.5" font-family="Helvetica,sans-Serif" font-size="10.00">_floatbv_mod_rem.cpp</text>
</a>
</g>
</g>
<!-- Node1&#45;&gt;Node6 -->
<g id="edge5" class="edge">
<title>Node1&#45;&gt;Node6</title>
<path fill="none" stroke="midnightblue" d="M934.56,-164.36C901.61,-153.62 862.19,-140.77 828.61,-129.82"/>
<polygon fill="midnightblue" stroke="midnightblue" points="933.53,-167.71 944.12,-167.48 935.7,-161.05 933.53,-167.71"/>
</g>
<!-- Node7 -->
<g id="node7" class="node">
<title>Node7</title>
<g id="a_node7"><a xlink:href="boolbv__floatbv__op_8cpp.html" target="_top" xlink:title=" ">
<polygon fill="none" stroke="black" points="846.5,-78.5 846.5,-130.5 995.5,-130.5 995.5,-78.5 846.5,-78.5"/>
<text text-anchor="start" x="854.5" y="-118.5" font-family="Helvetica,sans-Serif" font-size="10.00">/home/runner/work/diffblue</text>
<text text-anchor="start" x="854.5" y="-107.5" font-family="Helvetica,sans-Serif" font-size="10.00">&#45;cbmc/diffblue&#45;cbmc/src</text>
<text text-anchor="start" x="854.5" y="-96.5" font-family="Helvetica,sans-Serif" font-size="10.00">/solvers/flattening/boolbv</text>
<text text-anchor="middle" x="921" y="-85.5" font-family="Helvetica,sans-Serif" font-size="10.00">_floatbv_op.cpp</text>
</a>
</g>
</g>
<!-- Node1&#45;&gt;Node7 -->
<g id="edge6" class="edge">
<title>Node1&#45;&gt;Node7</title>
<path fill="none" stroke="midnightblue" d="M976.75,-160.24C967.04,-150.71 956.14,-140 946.57,-130.61"/>
<polygon fill="midnightblue" stroke="midnightblue" points="974.32,-162.76 983.91,-167.27 979.22,-157.77 974.32,-162.76"/>
</g>
<!-- Node8 -->
<g id="node8" class="node">
<title>Node8</title>
<g id="a_node8"><a xlink:href="boolbv__ieee__float__rel_8cpp.html" target="_top" xlink:title=" ">
<polygon fill="none" stroke="black" points="1013.5,-78.5 1013.5,-130.5 1162.5,-130.5 1162.5,-78.5 1013.5,-78.5"/>
<text text-anchor="start" x="1021.5" y="-118.5" font-family="Helvetica,sans-Serif" font-size="10.00">/home/runner/work/diffblue</text>
<text text-anchor="start" x="1021.5" y="-107.5" font-family="Helvetica,sans-Serif" font-size="10.00">&#45;cbmc/diffblue&#45;cbmc/src</text>
<text text-anchor="start" x="1021.5" y="-96.5" font-family="Helvetica,sans-Serif" font-size="10.00">/solvers/flattening/boolbv</text>
<text text-anchor="middle" x="1088" y="-85.5" font-family="Helvetica,sans-Serif" font-size="10.00">_ieee_float_rel.cpp</text>
</a>
</g>
</g>
<!-- Node1&#45;&gt;Node8 -->
<g id="edge7" class="edge">
<title>Node1&#45;&gt;Node8</title>
<path fill="none" stroke="midnightblue" d="M1031.58,-160.24C1041.41,-150.71 1052.44,-140 1062.12,-130.61"/>
<polygon fill="midnightblue" stroke="midnightblue" points="1029.07,-157.8 1024.33,-167.27 1033.95,-162.82 1029.07,-157.8"/>
</g>
<!-- Node9 -->
<g id="node9" class="node">
<title>Node9</title>
<g id="a_node9"><a xlink:href="boolbv__typecast_8cpp.html" target="_top" xlink:title=" ">
<polygon fill="none" stroke="black" points="1180.5,-78.5 1180.5,-130.5 1329.5,-130.5 1329.5,-78.5 1180.5,-78.5"/>
<text text-anchor="start" x="1188.5" y="-118.5" font-family="Helvetica,sans-Serif" font-size="10.00">/home/runner/work/diffblue</text>
<text text-anchor="start" x="1188.5" y="-107.5" font-family="Helvetica,sans-Serif" font-size="10.00">&#45;cbmc/diffblue&#45;cbmc/src</text>
<text text-anchor="start" x="1188.5" y="-96.5" font-family="Helvetica,sans-Serif" font-size="10.00">/solvers/flattening/boolbv</text>
<text text-anchor="middle" x="1255" y="-85.5" font-family="Helvetica,sans-Serif" font-size="10.00">_typecast.cpp</text>
</a>
</g>
</g>
<!-- Node1&#45;&gt;Node9 -->
<g id="edge8" class="edge">
<title>Node1&#45;&gt;Node9</title>
<path fill="none" stroke="midnightblue" d="M1073.72,-164.36C1106.8,-153.62 1146.37,-140.77 1180.1,-129.82"/>
<polygon fill="midnightblue" stroke="midnightblue" points="1072.55,-161.06 1064.12,-167.48 1074.71,-167.72 1072.55,-161.06"/>
</g>
<!-- Node10 -->
<g id="node10" class="node">
<title>Node10</title>
<g id="a_node10"><a xlink:href="boolbv__unary__minus_8cpp.html" target="_top" xlink:title=" ">
<polygon fill="none" stroke="black" points="1347.5,-78.5 1347.5,-130.5 1496.5,-130.5 1496.5,-78.5 1347.5,-78.5"/>
<text text-anchor="start" x="1355.5" y="-118.5" font-family="Helvetica,sans-Serif" font-size="10.00">/home/runner/work/diffblue</text>
<text text-anchor="start" x="1355.5" y="-107.5" font-family="Helvetica,sans-Serif" font-size="10.00">&#45;cbmc/diffblue&#45;cbmc/src</text>
<text text-anchor="start" x="1355.5" y="-96.5" font-family="Helvetica,sans-Serif" font-size="10.00">/solvers/flattening/boolbv</text>
<text text-anchor="middle" x="1422" y="-85.5" font-family="Helvetica,sans-Serif" font-size="10.00">_unary_minus.cpp</text>
</a>
</g>
</g>
<!-- Node1&#45;&gt;Node10 -->
<g id="edge9" class="edge">
<title>Node1&#45;&gt;Node10</title>
<path fill="none" stroke="midnightblue" d="M1090.32,-175.78C1158.34,-166.17 1255.35,-150.75 1339,-131 1341.79,-130.34 1344.62,-129.64 1347.47,-128.91"/>
<polygon fill="midnightblue" stroke="midnightblue" points="1089.49,-172.36 1080.08,-177.21 1090.46,-179.29 1089.49,-172.36"/>
</g>
<!-- Node11 -->
<g id="node11" class="node">
<title>Node11</title>
<g id="a_node11"><a xlink:href="float__approximation_8h.html" target="_top" xlink:title="Floating Point with under/over&#45;approximation.">
<polygon fill="none" stroke="black" points="1515,-84 1515,-125 1717,-125 1717,-84 1515,-84"/>
<text text-anchor="start" x="1523" y="-113" font-family="Helvetica,sans-Serif" font-size="10.00">/home/runner/work/diffblue</text>
<text text-anchor="start" x="1523" y="-102" font-family="Helvetica,sans-Serif" font-size="10.00">&#45;cbmc/diffblue&#45;cbmc/src</text>
<text text-anchor="middle" x="1616" y="-91" font-family="Helvetica,sans-Serif" font-size="10.00">/solvers/floatbv/float_approximation.h</text>
</a>
</g>
</g>
<!-- Node1&#45;&gt;Node11 -->
<g id="edge10" class="edge">
<title>Node1&#45;&gt;Node11</title>
<path fill="none" stroke="midnightblue" d="M1090.16,-180.47C1190.5,-172.15 1361.01,-155.81 1506,-131 1515.95,-129.3 1526.35,-127.25 1536.61,-125.06"/>
<polygon fill="midnightblue" stroke="midnightblue" points="1089.76,-176.99 1080.08,-181.29 1090.33,-183.96 1089.76,-176.99"/>
</g>
<!-- Node13 -->
<g id="node13" class="node">
<title>Node13</title>
<g id="a_node13"><a xlink:href="float__utils_8cpp.html" target="_top" xlink:title=" ">
<polygon fill="none" stroke="black" points="1735.5,-84 1735.5,-125 1898.5,-125 1898.5,-84 1735.5,-84"/>
<text text-anchor="start" x="1743.5" y="-113" font-family="Helvetica,sans-Serif" font-size="10.00">/home/runner/work/diffblue</text>
<text text-anchor="start" x="1743.5" y="-102" font-family="Helvetica,sans-Serif" font-size="10.00">&#45;cbmc/diffblue&#45;cbmc/src</text>
<text text-anchor="middle" x="1817" y="-91" font-family="Helvetica,sans-Serif" font-size="10.00">/solvers/floatbv/float_utils.cpp</text>
</a>
</g>
</g>
<!-- Node1&#45;&gt;Node13 -->
<g id="edge12" class="edge">
<title>Node1&#45;&gt;Node13</title>
<path fill="none" stroke="midnightblue" d="M1090.6,-185.74C1226.82,-182.54 1499.02,-171.2 1726,-131 1734.89,-129.43 1744.15,-127.35 1753.23,-125.06"/>
<polygon fill="midnightblue" stroke="midnightblue" points="1090.15,-182.25 1080.24,-185.98 1090.31,-189.25 1090.15,-182.25"/>
</g>
<!-- Node14 -->
<g id="node14" class="node">
<title>Node14</title>
<g id="a_node14"><a xlink:href="refine__arithmetic_8cpp.html" target="_top" xlink:title=" ">
<polygon fill="none" stroke="black" points="1916.5,-78.5 1916.5,-130.5 2065.5,-130.5 2065.5,-78.5 1916.5,-78.5"/>
<text text-anchor="start" x="1924.5" y="-118.5" font-family="Helvetica,sans-Serif" font-size="10.00">/home/runner/work/diffblue</text>
<text text-anchor="start" x="1924.5" y="-107.5" font-family="Helvetica,sans-Serif" font-size="10.00">&#45;cbmc/diffblue&#45;cbmc/src</text>
<text text-anchor="start" x="1924.5" y="-96.5" font-family="Helvetica,sans-Serif" font-size="10.00">/solvers/refinement/refine</text>
<text text-anchor="middle" x="1991" y="-85.5" font-family="Helvetica,sans-Serif" font-size="10.00">_arithmetic.cpp</text>
</a>
</g>
</g>
<!-- Node1&#45;&gt;Node14 -->
<g id="edge13" class="edge">
<title>Node1&#45;&gt;Node14</title>
<path fill="none" stroke="midnightblue" d="M1090.35,-184.25C1284.92,-177.64 1752.69,-159.26 1908,-131 1910.67,-130.51 1913.37,-129.97 1916.1,-129.38"/>
<polygon fill="midnightblue" stroke="midnightblue" points="1090.05,-180.76 1080.17,-184.6 1090.29,-187.76 1090.05,-180.76"/>
</g>
<!-- Node12 -->
<g id="node12" class="node">
<title>Node12</title>
<g id="a_node12"><a xlink:href="float__approximation_8cpp.html" target="_top" xlink:title=" ">
<polygon fill="none" stroke="black" points="1509.5,-0.5 1509.5,-41.5 1722.5,-41.5 1722.5,-0.5 1509.5,-0.5"/>
<text text-anchor="start" x="1517.5" y="-29.5" font-family="Helvetica,sans-Serif" font-size="10.00">/home/runner/work/diffblue</text>
<text text-anchor="start" x="1517.5" y="-18.5" font-family="Helvetica,sans-Serif" font-size="10.00">&#45;cbmc/diffblue&#45;cbmc/src</text>
<text text-anchor="middle" x="1616" y="-7.5" font-family="Helvetica,sans-Serif" font-size="10.00">/solvers/floatbv/float_approximation.cpp</text>
</a>
</g>
</g>
<!-- Node11&#45;&gt;Node12 -->
<g id="edge11" class="edge">
<title>Node11&#45;&gt;Node12</title>
<path fill="none" stroke="midnightblue" d="M1616,-73.56C1616,-62.88 1616,-51.13 1616,-41.55"/>
<polygon fill="midnightblue" stroke="midnightblue" points="1612.5,-73.77 1616,-83.77 1619.5,-73.77 1612.5,-73.77"/>
</g>
</g>
</svg>
