<?xml version="1.0" encoding="UTF-8" standalone="no"?>
<!DOCTYPE svg PUBLIC "-//W3C//DTD SVG 1.1//EN"
 "http://www.w3.org/Graphics/SVG/1.1/DTD/svg11.dtd">
<!-- Generated by graphviz version 2.43.0 (0)
 -->
<!-- Title: /home/runner/work/diffblue&#45;cbmc/diffblue&#45;cbmc/src/goto&#45;cc/gcc_message_handler.h Pages: 1 -->
<svg width="945pt" height="206pt"
 viewBox="0.00 0.00 944.50 206.00" xmlns="http://www.w3.org/2000/svg" xmlns:xlink="http://www.w3.org/1999/xlink">
<g id="graph0" class="graph" transform="scale(1 1) rotate(0) translate(4 202)">
<title>/home/runner/work/diffblue&#45;cbmc/diffblue&#45;cbmc/src/goto&#45;cc/gcc_message_handler.h</title>
<!-- Node1 -->
<g id="node1" class="node">
<title>Node1</title>
<g id="a_node1"><a xlink:title=" ">
<polygon fill="#bfbfbf" stroke="black" points="404,-156.5 404,-197.5 579,-197.5 579,-156.5 404,-156.5"/>
<text text-anchor="start" x="412" y="-185.5" font-family="Helvetica,sans-Serif" font-size="10.00">/home/runner/work/diffblue</text>
<text text-anchor="start" x="412" y="-174.5" font-family="Helvetica,sans-Serif" font-size="10.00">&#45;cbmc/diffblue&#45;cbmc/src</text>
<text text-anchor="middle" x="491.5" y="-163.5" font-family="Helvetica,sans-Serif" font-size="10.00">/goto&#45;cc/gcc_message_handler.h</text>
</a>
</g>
</g>
<!-- Node2 -->
<g id="node2" class="node">
<title>Node2</title>
<g id="a_node2"><a xlink:href="armcc__mode_8h.html" target="_top" xlink:title="Base class for command line interpretation for CL.">
<polygon fill="none" stroke="black" points="83,-78.5 83,-119.5 232,-119.5 232,-78.5 83,-78.5"/>
<text text-anchor="start" x="91" y="-107.5" font-family="Helvetica,sans-Serif" font-size="10.00">/home/runner/work/diffblue</text>
<text text-anchor="start" x="91" y="-96.5" font-family="Helvetica,sans-Serif" font-size="10.00">&#45;cbmc/diffblue&#45;cbmc/src</text>
<text text-anchor="middle" x="157.5" y="-85.5" font-family="Helvetica,sans-Serif" font-size="10.00">/goto&#45;cc/armcc_mode.h</text>
</a>
</g>
</g>
<!-- Node1&#45;&gt;Node2 -->
<g id="edge1" class="edge">
<title>Node1&#45;&gt;Node2</title>
<path fill="none" stroke="midnightblue" d="M393.95,-154.64C347.44,-144.35 291.05,-131.73 240.5,-120 237.76,-119.36 234.96,-118.71 232.14,-118.05"/>
<polygon fill="midnightblue" stroke="midnightblue" points="393.2,-158.06 403.72,-156.8 394.71,-151.22 393.2,-158.06"/>
</g>
<!-- Node5 -->
<g id="node5" class="node">
<title>Node5</title>
<g id="a_node5"><a xlink:href="as__mode_8h.html" target="_top" xlink:title="Assembler Mode.">
<polygon fill="none" stroke="black" points="250,-78.5 250,-119.5 399,-119.5 399,-78.5 250,-78.5"/>
<text text-anchor="start" x="258" y="-107.5" font-family="Helvetica,sans-Serif" font-size="10.00">/home/runner/work/diffblue</text>
<text text-anchor="start" x="258" y="-96.5" font-family="Helvetica,sans-Serif" font-size="10.00">&#45;cbmc/diffblue&#45;cbmc/src</text>
<text text-anchor="middle" x="324.5" y="-85.5" font-family="Helvetica,sans-Serif" font-size="10.00">/goto&#45;cc/as_mode.h</text>
</a>
</g>
</g>
<!-- Node1&#45;&gt;Node5 -->
<g id="edge4" class="edge">
<title>Node1&#45;&gt;Node5</title>
<path fill="none" stroke="midnightblue" d="M439.18,-152.19C416.08,-141.67 389.25,-129.47 367.36,-119.51"/>
<polygon fill="midnightblue" stroke="midnightblue" points="437.94,-155.47 448.49,-156.43 440.84,-149.1 437.94,-155.47"/>
</g>
<!-- Node7 -->
<g id="node7" class="node">
<title>Node7</title>
<g id="a_node7"><a xlink:href="gcc__message__handler_8cpp.html" target="_top" xlink:title=" ">
<polygon fill="none" stroke="black" points="750.5,-78.5 750.5,-119.5 936.5,-119.5 936.5,-78.5 750.5,-78.5"/>
<text text-anchor="start" x="758.5" y="-107.5" font-family="Helvetica,sans-Serif" font-size="10.00">/home/runner/work/diffblue</text>
<text text-anchor="start" x="758.5" y="-96.5" font-family="Helvetica,sans-Serif" font-size="10.00">&#45;cbmc/diffblue&#45;cbmc/src</text>
<text text-anchor="middle" x="843.5" y="-85.5" font-family="Helvetica,sans-Serif" font-size="10.00">/goto&#45;cc/gcc_message_handler.cpp</text>
</a>
</g>
</g>
<!-- Node1&#45;&gt;Node7 -->
<g id="edge7" class="edge">
<title>Node1&#45;&gt;Node7</title>
<path fill="none" stroke="midnightblue" d="M589.5,-154.84C640.72,-143.78 702.97,-130.34 753.03,-119.53"/>
<polygon fill="midnightblue" stroke="midnightblue" points="588.45,-151.49 579.42,-157.02 589.93,-158.33 588.45,-151.49"/>
</g>
<!-- Node8 -->
<g id="node8" class="node">
<title>Node8</title>
<g id="a_node8"><a xlink:href="gcc__mode_8h.html" target="_top" xlink:title="Base class for command line interpretation.">
<polygon fill="none" stroke="black" points="417,-78.5 417,-119.5 566,-119.5 566,-78.5 417,-78.5"/>
<text text-anchor="start" x="425" y="-107.5" font-family="Helvetica,sans-Serif" font-size="10.00">/home/runner/work/diffblue</text>
<text text-anchor="start" x="425" y="-96.5" font-family="Helvetica,sans-Serif" font-size="10.00">&#45;cbmc/diffblue&#45;cbmc/src</text>
<text text-anchor="middle" x="491.5" y="-85.5" font-family="Helvetica,sans-Serif" font-size="10.00">/goto&#45;cc/gcc_mode.h</text>
</a>
</g>
</g>
<!-- Node1&#45;&gt;Node8 -->
<g id="edge8" class="edge">
<title>Node1&#45;&gt;Node8</title>
<path fill="none" stroke="midnightblue" d="M491.5,-146.3C491.5,-137.3 491.5,-127.65 491.5,-119.51"/>
<polygon fill="midnightblue" stroke="midnightblue" points="488,-146.43 491.5,-156.43 495,-146.43 488,-146.43"/>
</g>
<!-- Node10 -->
<g id="node10" class="node">
<title>Node10</title>
<g id="a_node10"><a xlink:href="ld__mode_8h.html" target="_top" xlink:title="Base class for command line interpretation.">
<polygon fill="none" stroke="black" points="584,-78.5 584,-119.5 733,-119.5 733,-78.5 584,-78.5"/>
<text text-anchor="start" x="592" y="-107.5" font-family="Helvetica,sans-Serif" font-size="10.00">/home/runner/work/diffblue</text>
<text text-anchor="start" x="592" y="-96.5" font-family="Helvetica,sans-Serif" font-size="10.00">&#45;cbmc/diffblue&#45;cbmc/src</text>
<text text-anchor="middle" x="658.5" y="-85.5" font-family="Helvetica,sans-Serif" font-size="10.00">/goto&#45;cc/ld_mode.h</text>
</a>
</g>
</g>
<!-- Node1&#45;&gt;Node10 -->
<g id="edge11" class="edge">
<title>Node1&#45;&gt;Node10</title>
<path fill="none" stroke="midnightblue" d="M543.82,-152.19C566.92,-141.67 593.75,-129.47 615.64,-119.51"/>
<polygon fill="midnightblue" stroke="midnightblue" points="542.16,-149.1 534.51,-156.43 545.06,-155.47 542.16,-149.1"/>
</g>
<!-- Node3 -->
<g id="node3" class="node">
<title>Node3</title>
<g id="a_node3"><a xlink:href="armcc__mode_8cpp.html" target="_top" xlink:title="Command line option container.">
<polygon fill="none" stroke="black" points="0,-0.5 0,-41.5 149,-41.5 149,-0.5 0,-0.5"/>
<text text-anchor="start" x="8" y="-29.5" font-family="Helvetica,sans-Serif" font-size="10.00">/home/runner/work/diffblue</text>
<text text-anchor="start" x="8" y="-18.5" font-family="Helvetica,sans-Serif" font-size="10.00">&#45;cbmc/diffblue&#45;cbmc/src</text>
<text text-anchor="middle" x="74.5" y="-7.5" font-family="Helvetica,sans-Serif" font-size="10.00">/goto&#45;cc/armcc_mode.cpp</text>
</a>
</g>
</g>
<!-- Node2&#45;&gt;Node3 -->
<g id="edge2" class="edge">
<title>Node2&#45;&gt;Node3</title>
<path fill="none" stroke="midnightblue" d="M128.55,-71.49C117.78,-61.63 105.76,-50.63 95.8,-41.51"/>
<polygon fill="midnightblue" stroke="midnightblue" points="126.39,-74.26 136.13,-78.43 131.11,-69.09 126.39,-74.26"/>
</g>
<!-- Node4 -->
<g id="node4" class="node">
<title>Node4</title>
<g id="a_node4"><a xlink:href="goto__cc__main_8cpp.html" target="_top" xlink:title="GOTO&#45;CC Main Module.">
<polygon fill="none" stroke="black" points="334,-0.5 334,-41.5 483,-41.5 483,-0.5 334,-0.5"/>
<text text-anchor="start" x="342" y="-29.5" font-family="Helvetica,sans-Serif" font-size="10.00">/home/runner/work/diffblue</text>
<text text-anchor="start" x="342" y="-18.5" font-family="Helvetica,sans-Serif" font-size="10.00">&#45;cbmc/diffblue&#45;cbmc/src</text>
<text text-anchor="middle" x="408.5" y="-7.5" font-family="Helvetica,sans-Serif" font-size="10.00">/goto&#45;cc/goto_cc_main.cpp</text>
</a>
</g>
</g>
<!-- Node2&#45;&gt;Node4 -->
<g id="edge3" class="edge">
<title>Node2&#45;&gt;Node4</title>
<path fill="none" stroke="midnightblue" d="M232,-75.44C267.63,-64.66 309.86,-51.87 344.08,-41.51"/>
<polygon fill="midnightblue" stroke="midnightblue" points="230.7,-72.18 222.14,-78.43 232.72,-78.88 230.7,-72.18"/>
</g>
<!-- Node5&#45;&gt;Node4 -->
<g id="edge6" class="edge">
<title>Node5&#45;&gt;Node4</title>
<path fill="none" stroke="midnightblue" d="M353.8,-71.49C364.7,-61.63 376.86,-50.63 386.94,-41.51"/>
<polygon fill="midnightblue" stroke="midnightblue" points="351.2,-69.12 346.13,-78.43 355.9,-74.31 351.2,-69.12"/>
</g>
<!-- Node6 -->
<g id="node6" class="node">
<title>Node6</title>
<g id="a_node6"><a xlink:href="as__mode_8cpp.html" target="_top" xlink:title="Assembler Mode.">
<polygon fill="none" stroke="black" points="167,-0.5 167,-41.5 316,-41.5 316,-0.5 167,-0.5"/>
<text text-anchor="start" x="175" y="-29.5" font-family="Helvetica,sans-Serif" font-size="10.00">/home/runner/work/diffblue</text>
<text text-anchor="start" x="175" y="-18.5" font-family="Helvetica,sans-Serif" font-size="10.00">&#45;cbmc/diffblue&#45;cbmc/src</text>
<text text-anchor="middle" x="241.5" y="-7.5" font-family="Helvetica,sans-Serif" font-size="10.00">/goto&#45;cc/as_mode.cpp</text>
</a>
</g>
</g>
<!-- Node5&#45;&gt;Node6 -->
<g id="edge5" class="edge">
<title>Node5&#45;&gt;Node6</title>
<path fill="none" stroke="midnightblue" d="M295.55,-71.49C284.78,-61.63 272.76,-50.63 262.8,-41.51"/>
<polygon fill="midnightblue" stroke="midnightblue" points="293.39,-74.26 303.13,-78.43 298.11,-69.09 293.39,-74.26"/>
</g>
<!-- Node8&#45;&gt;Node4 -->
<g id="edge10" class="edge">
<title>Node8&#45;&gt;Node4</title>
<path fill="none" stroke="midnightblue" d="M462.55,-71.49C451.78,-61.63 439.76,-50.63 429.8,-41.51"/>
<polygon fill="midnightblue" stroke="midnightblue" points="460.39,-74.26 470.13,-78.43 465.11,-69.09 460.39,-74.26"/>
</g>
<!-- Node9 -->
<g id="node9" class="node">
<title>Node9</title>
<g id="a_node9"><a xlink:href="gcc__mode_8cpp.html" target="_top" xlink:title="GCC Mode.">
<polygon fill="none" stroke="black" points="501,-0.5 501,-41.5 650,-41.5 650,-0.5 501,-0.5"/>
<text text-anchor="start" x="509" y="-29.5" font-family="Helvetica,sans-Serif" font-size="10.00">/home/runner/work/diffblue</text>
<text text-anchor="start" x="509" y="-18.5" font-family="Helvetica,sans-Serif" font-size="10.00">&#45;cbmc/diffblue&#45;cbmc/src</text>
<text text-anchor="middle" x="575.5" y="-7.5" font-family="Helvetica,sans-Serif" font-size="10.00">/goto&#45;cc/gcc_mode.cpp</text>
</a>
</g>
</g>
<!-- Node8&#45;&gt;Node9 -->
<g id="edge9" class="edge">
<title>Node8&#45;&gt;Node9</title>
<path fill="none" stroke="midnightblue" d="M520.8,-71.49C531.7,-61.63 543.86,-50.63 553.94,-41.51"/>
<polygon fill="midnightblue" stroke="midnightblue" points="518.2,-69.12 513.13,-78.43 522.9,-74.31 518.2,-69.12"/>
</g>
<!-- Node10&#45;&gt;Node4 -->
<g id="edge12" class="edge">
<title>Node10&#45;&gt;Node4</title>
<path fill="none" stroke="midnightblue" d="M584.3,-75.44C548.81,-64.66 506.75,-51.87 472.66,-41.51"/>
<polygon fill="midnightblue" stroke="midnightblue" points="583.53,-78.87 594.12,-78.43 585.57,-72.17 583.53,-78.87"/>
</g>
<!-- Node11 -->
<g id="node11" class="node">
<title>Node11</title>
<g id="a_node11"><a xlink:href="ld__mode_8cpp.html" target="_top" xlink:title="LD Mode.">
<polygon fill="none" stroke="black" points="668,-0.5 668,-41.5 817,-41.5 817,-0.5 668,-0.5"/>
<text text-anchor="start" x="676" y="-29.5" font-family="Helvetica,sans-Serif" font-size="10.00">/home/runner/work/diffblue</text>
<text text-anchor="start" x="676" y="-18.5" font-family="Helvetica,sans-Serif" font-size="10.00">&#45;cbmc/diffblue&#45;cbmc/src</text>
<text text-anchor="middle" x="742.5" y="-7.5" font-family="Helvetica,sans-Serif" font-size="10.00">/goto&#45;cc/ld_mode.cpp</text>
</a>
</g>
</g>
<!-- Node10&#45;&gt;Node11 -->
<g id="edge13" class="edge">
<title>Node10&#45;&gt;Node11</title>
<path fill="none" stroke="midnightblue" d="M687.8,-71.49C698.7,-61.63 710.86,-50.63 720.94,-41.51"/>
<polygon fill="midnightblue" stroke="midnightblue" points="685.2,-69.12 680.13,-78.43 689.9,-74.31 685.2,-69.12"/>
</g>
</g>
</svg>
