<?xml version="1.0" encoding="UTF-8" standalone="no"?>
<!DOCTYPE svg PUBLIC "-//W3C//DTD SVG 1.1//EN"
 "http://www.w3.org/Graphics/SVG/1.1/DTD/svg11.dtd">
<!-- Generated by graphviz version 2.43.0 (0)
 -->
<!-- Title: /home/runner/work/diffblue&#45;cbmc/diffblue&#45;cbmc/src/memory&#45;analyzer/gdb_api.h Pages: 1 -->
<svg width="439pt" height="228pt"
 viewBox="0.00 0.00 438.50 228.00" xmlns="http://www.w3.org/2000/svg" xmlns:xlink="http://www.w3.org/1999/xlink">
<g id="graph0" class="graph" transform="scale(1 1) rotate(0) translate(4 224)">
<title>/home/runner/work/diffblue&#45;cbmc/diffblue&#45;cbmc/src/memory&#45;analyzer/gdb_api.h</title>
<!-- Node1 -->
<g id="node1" class="node">
<title>Node1</title>
<g id="a_node1"><a xlink:title="Low&#45;level interface to gdb.">
<polygon fill="#bfbfbf" stroke="black" points="180,-178.5 180,-219.5 337,-219.5 337,-178.5 180,-178.5"/>
<text text-anchor="start" x="188" y="-207.5" font-family="Helvetica,sans-Serif" font-size="10.00">/home/runner/work/diffblue</text>
<text text-anchor="start" x="188" y="-196.5" font-family="Helvetica,sans-Serif" font-size="10.00">&#45;cbmc/diffblue&#45;cbmc/src</text>
<text text-anchor="middle" x="258.5" y="-185.5" font-family="Helvetica,sans-Serif" font-size="10.00">/memory&#45;analyzer/gdb_api.h</text>
</a>
</g>
</g>
<!-- Node2 -->
<g id="node2" class="node">
<title>Node2</title>
<g id="a_node2"><a xlink:href="analyze__symbol_8h.html" target="_top" xlink:title="High&#45;level interface to gdb.">
<polygon fill="none" stroke="black" points="96,-89.5 96,-141.5 245,-141.5 245,-89.5 96,-89.5"/>
<text text-anchor="start" x="104" y="-129.5" font-family="Helvetica,sans-Serif" font-size="10.00">/home/runner/work/diffblue</text>
<text text-anchor="start" x="104" y="-118.5" font-family="Helvetica,sans-Serif" font-size="10.00">&#45;cbmc/diffblue&#45;cbmc/src</text>
<text text-anchor="start" x="104" y="-107.5" font-family="Helvetica,sans-Serif" font-size="10.00">/memory&#45;analyzer/analyze</text>
<text text-anchor="middle" x="170.5" y="-96.5" font-family="Helvetica,sans-Serif" font-size="10.00">_symbol.h</text>
</a>
</g>
</g>
<!-- Node1&#45;&gt;Node2 -->
<g id="edge1" class="edge">
<title>Node1&#45;&gt;Node2</title>
<path fill="none" stroke="midnightblue" d="M229.61,-171.24C219.31,-161.71 207.75,-151 197.61,-141.61"/>
<polygon fill="midnightblue" stroke="midnightblue" points="227.48,-174.04 237.2,-178.27 232.24,-168.91 227.48,-174.04"/>
</g>
<!-- Node5 -->
<g id="node5" class="node">
<title>Node5</title>
<g id="a_node5"><a xlink:href="gdb__api_8cpp.html" target="_top" xlink:title="Low&#45;level interface to gdb.">
<polygon fill="none" stroke="black" points="262.5,-95 262.5,-136 430.5,-136 430.5,-95 262.5,-95"/>
<text text-anchor="start" x="270.5" y="-124" font-family="Helvetica,sans-Serif" font-size="10.00">/home/runner/work/diffblue</text>
<text text-anchor="start" x="270.5" y="-113" font-family="Helvetica,sans-Serif" font-size="10.00">&#45;cbmc/diffblue&#45;cbmc/src</text>
<text text-anchor="middle" x="346.5" y="-102" font-family="Helvetica,sans-Serif" font-size="10.00">/memory&#45;analyzer/gdb_api.cpp</text>
</a>
</g>
</g>
<!-- Node1&#45;&gt;Node5 -->
<g id="edge4" class="edge">
<title>Node1&#45;&gt;Node5</title>
<path fill="none" stroke="midnightblue" d="M287.26,-171.36C299.69,-159.85 313.97,-146.63 325.39,-136.05"/>
<polygon fill="midnightblue" stroke="midnightblue" points="284.76,-168.91 279.8,-178.27 289.52,-174.04 284.76,-168.91"/>
</g>
<!-- Node3 -->
<g id="node3" class="node">
<title>Node3</title>
<g id="a_node3"><a xlink:href="analyze__symbol_8cpp.html" target="_top" xlink:title=" ">
<polygon fill="none" stroke="black" points="0,-0.5 0,-52.5 149,-52.5 149,-0.5 0,-0.5"/>
<text text-anchor="start" x="8" y="-40.5" font-family="Helvetica,sans-Serif" font-size="10.00">/home/runner/work/diffblue</text>
<text text-anchor="start" x="8" y="-29.5" font-family="Helvetica,sans-Serif" font-size="10.00">&#45;cbmc/diffblue&#45;cbmc/src</text>
<text text-anchor="start" x="8" y="-18.5" font-family="Helvetica,sans-Serif" font-size="10.00">/memory&#45;analyzer/analyze</text>
<text text-anchor="middle" x="74.5" y="-7.5" font-family="Helvetica,sans-Serif" font-size="10.00">_symbol.cpp</text>
</a>
</g>
</g>
<!-- Node2&#45;&gt;Node3 -->
<g id="edge2" class="edge">
<title>Node2&#45;&gt;Node3</title>
<path fill="none" stroke="midnightblue" d="M135.04,-82.36C124.2,-72.54 112.45,-61.89 102.2,-52.61"/>
<polygon fill="midnightblue" stroke="midnightblue" points="132.97,-85.21 142.73,-89.34 137.67,-80.03 132.97,-85.21"/>
</g>
<!-- Node4 -->
<g id="node4" class="node">
<title>Node4</title>
<g id="a_node4"><a xlink:href="memory__analyzer__parse__options_8cpp.html" target="_top" xlink:title="Commandline parser for the memory analyzer executing main work.">
<polygon fill="none" stroke="black" points="167.5,-0.5 167.5,-52.5 365.5,-52.5 365.5,-0.5 167.5,-0.5"/>
<text text-anchor="start" x="175.5" y="-40.5" font-family="Helvetica,sans-Serif" font-size="10.00">/home/runner/work/diffblue</text>
<text text-anchor="start" x="175.5" y="-29.5" font-family="Helvetica,sans-Serif" font-size="10.00">&#45;cbmc/diffblue&#45;cbmc/src</text>
<text text-anchor="start" x="175.5" y="-18.5" font-family="Helvetica,sans-Serif" font-size="10.00">/memory&#45;analyzer/memory_analyzer</text>
<text text-anchor="middle" x="266.5" y="-7.5" font-family="Helvetica,sans-Serif" font-size="10.00">_parse_options.cpp</text>
</a>
</g>
</g>
<!-- Node2&#45;&gt;Node4 -->
<g id="edge3" class="edge">
<title>Node2&#45;&gt;Node4</title>
<path fill="none" stroke="midnightblue" d="M205.96,-82.36C216.8,-72.54 228.55,-61.89 238.8,-52.61"/>
<polygon fill="midnightblue" stroke="midnightblue" points="203.33,-80.03 198.27,-89.34 208.03,-85.21 203.33,-80.03"/>
</g>
</g>
</svg>
