<?xml version="1.0" encoding="UTF-8" standalone="no"?>
<!DOCTYPE svg PUBLIC "-//W3C//DTD SVG 1.1//EN"
 "http://www.w3.org/Graphics/SVG/1.1/DTD/svg11.dtd">
<!-- Generated by graphviz version 2.43.0 (0)
 -->
<!-- Title: /home/runner/work/diffblue&#45;cbmc/diffblue&#45;cbmc/jbmc/src/java_bytecode/generic_parameter_specialization_map.h Pages: 1 -->
<svg width="762pt" height="250pt"
 viewBox="0.00 0.00 762.00 250.00" xmlns="http://www.w3.org/2000/svg" xmlns:xlink="http://www.w3.org/1999/xlink">
<g id="graph0" class="graph" transform="scale(1 1) rotate(0) translate(4 246)">
<title>/home/runner/work/diffblue&#45;cbmc/diffblue&#45;cbmc/jbmc/src/java_bytecode/generic_parameter_specialization_map.h</title>
<!-- Node1 -->
<g id="node1" class="node">
<title>Node1</title>
<g id="a_node1"><a xlink:title=" ">
<polygon fill="#bfbfbf" stroke="black" points="281.5,-189.5 281.5,-241.5 463.5,-241.5 463.5,-189.5 281.5,-189.5"/>
<text text-anchor="start" x="289.5" y="-229.5" font-family="Helvetica,sans-Serif" font-size="10.00">/home/runner/work/diffblue</text>
<text text-anchor="start" x="289.5" y="-218.5" font-family="Helvetica,sans-Serif" font-size="10.00">&#45;cbmc/diffblue&#45;cbmc/jbmc</text>
<text text-anchor="start" x="289.5" y="-207.5" font-family="Helvetica,sans-Serif" font-size="10.00">/src/java_bytecode/generic</text>
<text text-anchor="middle" x="372.5" y="-196.5" font-family="Helvetica,sans-Serif" font-size="10.00">_parameter_specialization_map.h</text>
</a>
</g>
</g>
<!-- Node2 -->
<g id="node2" class="node">
<title>Node2</title>
<g id="a_node2"><a xlink:href="ci__lazy__methods__needed_8cpp.html" target="_top" xlink:title="Context&#45;insensitive lazy methods container.">
<polygon fill="none" stroke="black" points="0,-100.5 0,-152.5 149,-152.5 149,-100.5 0,-100.5"/>
<text text-anchor="start" x="8" y="-140.5" font-family="Helvetica,sans-Serif" font-size="10.00">/home/runner/work/diffblue</text>
<text text-anchor="start" x="8" y="-129.5" font-family="Helvetica,sans-Serif" font-size="10.00">&#45;cbmc/diffblue&#45;cbmc/jbmc</text>
<text text-anchor="start" x="8" y="-118.5" font-family="Helvetica,sans-Serif" font-size="10.00">/src/java_bytecode/ci_lazy</text>
<text text-anchor="middle" x="74.5" y="-107.5" font-family="Helvetica,sans-Serif" font-size="10.00">_methods_needed.cpp</text>
</a>
</g>
</g>
<!-- Node1&#45;&gt;Node2 -->
<g id="edge1" class="edge">
<title>Node1&#45;&gt;Node2</title>
<path fill="none" stroke="midnightblue" d="M274.53,-186.68C238.07,-176.23 196.36,-164.19 158.5,-153 155.43,-152.09 152.3,-151.16 149.14,-150.22"/>
<polygon fill="midnightblue" stroke="midnightblue" points="273.6,-190.05 284.17,-189.44 275.52,-183.32 273.6,-190.05"/>
</g>
<!-- Node3 -->
<g id="node3" class="node">
<title>Node3</title>
<g id="a_node3"><a xlink:href="generic__parameter__specialization__map_8cpp.html" target="_top" xlink:title=" ">
<polygon fill="none" stroke="black" points="167,-100.5 167,-152.5 360,-152.5 360,-100.5 167,-100.5"/>
<text text-anchor="start" x="175" y="-140.5" font-family="Helvetica,sans-Serif" font-size="10.00">/home/runner/work/diffblue</text>
<text text-anchor="start" x="175" y="-129.5" font-family="Helvetica,sans-Serif" font-size="10.00">&#45;cbmc/diffblue&#45;cbmc/jbmc</text>
<text text-anchor="start" x="175" y="-118.5" font-family="Helvetica,sans-Serif" font-size="10.00">/src/java_bytecode/generic</text>
<text text-anchor="middle" x="263.5" y="-107.5" font-family="Helvetica,sans-Serif" font-size="10.00">_parameter_specialization_map.cpp</text>
</a>
</g>
</g>
<!-- Node1&#45;&gt;Node3 -->
<g id="edge2" class="edge">
<title>Node1&#45;&gt;Node3</title>
<path fill="none" stroke="midnightblue" d="M332.95,-182.93C320.45,-172.96 306.81,-162.07 294.96,-152.61"/>
<polygon fill="midnightblue" stroke="midnightblue" points="330.97,-185.83 340.97,-189.34 335.34,-180.36 330.97,-185.83"/>
</g>
<!-- Node4 -->
<g id="node4" class="node">
<title>Node4</title>
<g id="a_node4"><a xlink:href="generic__parameter__specialization__map__keys_8h.html" target="_top" xlink:title="Author: Diffblue Ltd.">
<polygon fill="none" stroke="black" points="378,-100.5 378,-152.5 587,-152.5 587,-100.5 378,-100.5"/>
<text text-anchor="start" x="386" y="-140.5" font-family="Helvetica,sans-Serif" font-size="10.00">/home/runner/work/diffblue</text>
<text text-anchor="start" x="386" y="-129.5" font-family="Helvetica,sans-Serif" font-size="10.00">&#45;cbmc/diffblue&#45;cbmc/jbmc</text>
<text text-anchor="start" x="386" y="-118.5" font-family="Helvetica,sans-Serif" font-size="10.00">/src/java_bytecode/generic</text>
<text text-anchor="middle" x="482.5" y="-107.5" font-family="Helvetica,sans-Serif" font-size="10.00">_parameter_specialization_map_keys.h</text>
</a>
</g>
</g>
<!-- Node1&#45;&gt;Node4 -->
<g id="edge3" class="edge">
<title>Node1&#45;&gt;Node4</title>
<path fill="none" stroke="midnightblue" d="M412.41,-182.93C425.03,-172.96 438.79,-162.07 450.75,-152.61"/>
<polygon fill="midnightblue" stroke="midnightblue" points="409.99,-180.39 404.32,-189.34 414.33,-185.88 409.99,-180.39"/>
</g>
<!-- Node7 -->
<g id="node7" class="node">
<title>Node7</title>
<g id="a_node7"><a xlink:href="select__pointer__type_8cpp.html" target="_top" xlink:title="Handle selection of correct pointer type (for example changing abstract classes to concrete versions)...">
<polygon fill="none" stroke="black" points="605,-100.5 605,-152.5 754,-152.5 754,-100.5 605,-100.5"/>
<text text-anchor="start" x="613" y="-140.5" font-family="Helvetica,sans-Serif" font-size="10.00">/home/runner/work/diffblue</text>
<text text-anchor="start" x="613" y="-129.5" font-family="Helvetica,sans-Serif" font-size="10.00">&#45;cbmc/diffblue&#45;cbmc/jbmc</text>
<text text-anchor="start" x="613" y="-118.5" font-family="Helvetica,sans-Serif" font-size="10.00">/src/java_bytecode/select</text>
<text text-anchor="middle" x="679.5" y="-107.5" font-family="Helvetica,sans-Serif" font-size="10.00">_pointer_type.cpp</text>
</a>
</g>
</g>
<!-- Node1&#45;&gt;Node7 -->
<g id="edge6" class="edge">
<title>Node1&#45;&gt;Node7</title>
<path fill="none" stroke="midnightblue" d="M473.36,-187.5C511.95,-176.99 556.34,-164.68 596.5,-153 599.25,-152.2 602.05,-151.38 604.88,-150.54"/>
<polygon fill="midnightblue" stroke="midnightblue" points="472.41,-184.13 463.68,-190.13 474.25,-190.89 472.41,-184.13"/>
</g>
<!-- Node5 -->
<g id="node5" class="node">
<title>Node5</title>
<g id="a_node5"><a xlink:href="generic__parameter__specialization__map__keys_8cpp.html" target="_top" xlink:title=" ">
<polygon fill="none" stroke="black" points="302,-0.5 302,-63.5 475,-63.5 475,-0.5 302,-0.5"/>
<text text-anchor="start" x="310" y="-51.5" font-family="Helvetica,sans-Serif" font-size="10.00">/home/runner/work/diffblue</text>
<text text-anchor="start" x="310" y="-40.5" font-family="Helvetica,sans-Serif" font-size="10.00">&#45;cbmc/diffblue&#45;cbmc/jbmc</text>
<text text-anchor="start" x="310" y="-29.5" font-family="Helvetica,sans-Serif" font-size="10.00">/src/java_bytecode/generic</text>
<text text-anchor="start" x="310" y="-18.5" font-family="Helvetica,sans-Serif" font-size="10.00">_parameter_specialization_map</text>
<text text-anchor="middle" x="388.5" y="-7.5" font-family="Helvetica,sans-Serif" font-size="10.00">_keys.cpp</text>
</a>
</g>
</g>
<!-- Node4&#45;&gt;Node5 -->
<g id="edge4" class="edge">
<title>Node4&#45;&gt;Node5</title>
<path fill="none" stroke="midnightblue" d="M449.55,-93.08C439.79,-83.47 429.14,-72.99 419.51,-63.51"/>
<polygon fill="midnightblue" stroke="midnightblue" points="447.23,-95.7 456.81,-100.22 452.14,-90.72 447.23,-95.7"/>
</g>
<!-- Node6 -->
<g id="node6" class="node">
<title>Node6</title>
<g id="a_node6"><a xlink:href="java__object__factory_8cpp.html" target="_top" xlink:title=" ">
<polygon fill="none" stroke="black" points="493,-6 493,-58 660,-58 660,-6 493,-6"/>
<text text-anchor="start" x="501" y="-46" font-family="Helvetica,sans-Serif" font-size="10.00">/home/runner/work/diffblue</text>
<text text-anchor="start" x="501" y="-35" font-family="Helvetica,sans-Serif" font-size="10.00">&#45;cbmc/diffblue&#45;cbmc/jbmc</text>
<text text-anchor="start" x="501" y="-24" font-family="Helvetica,sans-Serif" font-size="10.00">/src/java_bytecode/java_object</text>
<text text-anchor="middle" x="576.5" y="-13" font-family="Helvetica,sans-Serif" font-size="10.00">_factory.cpp</text>
</a>
</g>
</g>
<!-- Node4&#45;&gt;Node6 -->
<g id="edge5" class="edge">
<title>Node4&#45;&gt;Node6</title>
<path fill="none" stroke="midnightblue" d="M515.58,-92.95C527.16,-81.56 539.97,-68.95 550.85,-58.25"/>
<polygon fill="midnightblue" stroke="midnightblue" points="512.86,-90.72 508.19,-100.22 517.77,-95.7 512.86,-90.72"/>
</g>
</g>
</svg>
