<?xml version="1.0" encoding="UTF-8" standalone="no"?>
<!DOCTYPE svg PUBLIC "-//W3C//DTD SVG 1.1//EN"
 "http://www.w3.org/Graphics/SVG/1.1/DTD/svg11.dtd">
<!-- Generated by graphviz version 2.43.0 (0)
 -->
<!-- Title: /home/runner/work/diffblue&#45;cbmc/diffblue&#45;cbmc/src/util/get_base_name.h Pages: 1 -->
<svg width="2049pt" height="139pt"
 viewBox="0.00 0.00 2049.00 139.00" xmlns="http://www.w3.org/2000/svg" xmlns:xlink="http://www.w3.org/1999/xlink">
<g id="graph0" class="graph" transform="scale(1 1) rotate(0) translate(4 135)">
<title>/home/runner/work/diffblue&#45;cbmc/diffblue&#45;cbmc/src/util/get_base_name.h</title>
<!-- Node1 -->
<g id="node1" class="node">
<title>Node1</title>
<g id="a_node1"><a xlink:title=" ">
<polygon fill="#bfbfbf" stroke="black" points="922,-89.5 922,-130.5 1071,-130.5 1071,-89.5 922,-89.5"/>
<text text-anchor="start" x="930" y="-118.5" font-family="Helvetica,sans-Serif" font-size="10.00">/home/runner/work/diffblue</text>
<text text-anchor="start" x="930" y="-107.5" font-family="Helvetica,sans-Serif" font-size="10.00">&#45;cbmc/diffblue&#45;cbmc/src</text>
<text text-anchor="middle" x="996.5" y="-96.5" font-family="Helvetica,sans-Serif" font-size="10.00">/util/get_base_name.h</text>
</a>
</g>
</g>
<!-- Node2 -->
<g id="node2" class="node">
<title>Node2</title>
<g id="a_node2"><a xlink:href="ansi__c__language_8cpp.html" target="_top" xlink:title=" ">
<polygon fill="none" stroke="black" points="0,-6 0,-47 153,-47 153,-6 0,-6"/>
<text text-anchor="start" x="8" y="-35" font-family="Helvetica,sans-Serif" font-size="10.00">/home/runner/work/diffblue</text>
<text text-anchor="start" x="8" y="-24" font-family="Helvetica,sans-Serif" font-size="10.00">&#45;cbmc/diffblue&#45;cbmc/src</text>
<text text-anchor="middle" x="76.5" y="-13" font-family="Helvetica,sans-Serif" font-size="10.00">/ansi&#45;c/ansi_c_language.cpp</text>
</a>
</g>
</g>
<!-- Node1&#45;&gt;Node2 -->
<g id="edge1" class="edge">
<title>Node1&#45;&gt;Node2</title>
<path fill="none" stroke="midnightblue" d="M911.63,-109.56C759.86,-109.18 432.45,-102.08 161.5,-53 153.01,-51.46 144.17,-49.38 135.53,-47.06"/>
<polygon fill="midnightblue" stroke="midnightblue" points="911.81,-113.06 921.81,-109.58 911.82,-106.06 911.81,-113.06"/>
</g>
<!-- Node3 -->
<g id="node3" class="node">
<title>Node3</title>
<g id="a_node3"><a xlink:href="cpp__language_8cpp.html" target="_top" xlink:title="C++ Language Module.">
<polygon fill="none" stroke="black" points="171,-6 171,-47 320,-47 320,-6 171,-6"/>
<text text-anchor="start" x="179" y="-35" font-family="Helvetica,sans-Serif" font-size="10.00">/home/runner/work/diffblue</text>
<text text-anchor="start" x="179" y="-24" font-family="Helvetica,sans-Serif" font-size="10.00">&#45;cbmc/diffblue&#45;cbmc/src</text>
<text text-anchor="middle" x="245.5" y="-13" font-family="Helvetica,sans-Serif" font-size="10.00">/cpp/cpp_language.cpp</text>
</a>
</g>
</g>
<!-- Node1&#45;&gt;Node3 -->
<g id="edge2" class="edge">
<title>Node1&#45;&gt;Node3</title>
<path fill="none" stroke="midnightblue" d="M911.55,-107.69C783.88,-104.42 535.43,-92.98 328.5,-53 320.36,-51.43 311.89,-49.35 303.6,-47.07"/>
<polygon fill="midnightblue" stroke="midnightblue" points="911.57,-111.19 921.65,-107.94 911.74,-104.19 911.57,-111.19"/>
</g>
<!-- Node4 -->
<g id="node4" class="node">
<title>Node4</title>
<g id="a_node4"><a xlink:href="as__mode_8cpp.html" target="_top" xlink:title="Assembler Mode.">
<polygon fill="none" stroke="black" points="338,-6 338,-47 487,-47 487,-6 338,-6"/>
<text text-anchor="start" x="346" y="-35" font-family="Helvetica,sans-Serif" font-size="10.00">/home/runner/work/diffblue</text>
<text text-anchor="start" x="346" y="-24" font-family="Helvetica,sans-Serif" font-size="10.00">&#45;cbmc/diffblue&#45;cbmc/src</text>
<text text-anchor="middle" x="412.5" y="-13" font-family="Helvetica,sans-Serif" font-size="10.00">/goto&#45;cc/as_mode.cpp</text>
</a>
</g>
</g>
<!-- Node1&#45;&gt;Node4 -->
<g id="edge3" class="edge">
<title>Node1&#45;&gt;Node4</title>
<path fill="none" stroke="midnightblue" d="M911.9,-104.38C811.67,-97.79 640.07,-83.01 495.5,-53 487.68,-51.38 479.54,-49.33 471.54,-47.11"/>
<polygon fill="midnightblue" stroke="midnightblue" points="911.76,-107.87 921.97,-105.03 912.21,-100.89 911.76,-107.87"/>
</g>
<!-- Node5 -->
<g id="node5" class="node">
<title>Node5</title>
<g id="a_node5"><a xlink:href="compile_8cpp.html" target="_top" xlink:title="Compile and link source and object files.">
<polygon fill="none" stroke="black" points="505,-6 505,-47 654,-47 654,-6 505,-6"/>
<text text-anchor="start" x="513" y="-35" font-family="Helvetica,sans-Serif" font-size="10.00">/home/runner/work/diffblue</text>
<text text-anchor="start" x="513" y="-24" font-family="Helvetica,sans-Serif" font-size="10.00">&#45;cbmc/diffblue&#45;cbmc/src</text>
<text text-anchor="middle" x="579.5" y="-13" font-family="Helvetica,sans-Serif" font-size="10.00">/goto&#45;cc/compile.cpp</text>
</a>
</g>
</g>
<!-- Node1&#45;&gt;Node5 -->
<g id="edge4" class="edge">
<title>Node1&#45;&gt;Node5</title>
<path fill="none" stroke="midnightblue" d="M911.77,-97.95C843.88,-88.33 746.45,-72.84 662.5,-53 655.16,-51.27 647.53,-49.24 639.99,-47.09"/>
<polygon fill="midnightblue" stroke="midnightblue" points="911.59,-101.46 921.98,-99.38 912.56,-94.52 911.59,-101.46"/>
</g>
<!-- Node6 -->
<g id="node6" class="node">
<title>Node6</title>
<g id="a_node6"><a xlink:href="gcc__mode_8cpp.html" target="_top" xlink:title="GCC Mode.">
<polygon fill="none" stroke="black" points="672,-6 672,-47 821,-47 821,-6 672,-6"/>
<text text-anchor="start" x="680" y="-35" font-family="Helvetica,sans-Serif" font-size="10.00">/home/runner/work/diffblue</text>
<text text-anchor="start" x="680" y="-24" font-family="Helvetica,sans-Serif" font-size="10.00">&#45;cbmc/diffblue&#45;cbmc/src</text>
<text text-anchor="middle" x="746.5" y="-13" font-family="Helvetica,sans-Serif" font-size="10.00">/goto&#45;cc/gcc_mode.cpp</text>
</a>
</g>
</g>
<!-- Node1&#45;&gt;Node6 -->
<g id="edge5" class="edge">
<title>Node1&#45;&gt;Node6</title>
<path fill="none" stroke="midnightblue" d="M926.68,-86.24C888.83,-73.9 842.52,-58.8 806.33,-47"/>
<polygon fill="midnightblue" stroke="midnightblue" points="926.03,-89.71 936.62,-89.48 928.2,-83.05 926.03,-89.71"/>
</g>
<!-- Node7 -->
<g id="node7" class="node">
<title>Node7</title>
<g id="a_node7"><a xlink:href="goto__cc__main_8cpp.html" target="_top" xlink:title="GOTO&#45;CC Main Module.">
<polygon fill="none" stroke="black" points="839,-6 839,-47 988,-47 988,-6 839,-6"/>
<text text-anchor="start" x="847" y="-35" font-family="Helvetica,sans-Serif" font-size="10.00">/home/runner/work/diffblue</text>
<text text-anchor="start" x="847" y="-24" font-family="Helvetica,sans-Serif" font-size="10.00">&#45;cbmc/diffblue&#45;cbmc/src</text>
<text text-anchor="middle" x="913.5" y="-13" font-family="Helvetica,sans-Serif" font-size="10.00">/goto&#45;cc/goto_cc_main.cpp</text>
</a>
</g>
</g>
<!-- Node1&#45;&gt;Node7 -->
<g id="edge6" class="edge">
<title>Node1&#45;&gt;Node7</title>
<path fill="none" stroke="midnightblue" d="M969.04,-82.04C957.4,-70.6 944.08,-57.53 933.41,-47.05"/>
<polygon fill="midnightblue" stroke="midnightblue" points="966.82,-84.76 976.41,-89.27 971.72,-79.77 966.82,-84.76"/>
</g>
<!-- Node8 -->
<g id="node8" class="node">
<title>Node8</title>
<g id="a_node8"><a xlink:href="ms__cl__mode_8cpp.html" target="_top" xlink:title="Visual Studio CL Mode.">
<polygon fill="none" stroke="black" points="1006,-6 1006,-47 1155,-47 1155,-6 1006,-6"/>
<text text-anchor="start" x="1014" y="-35" font-family="Helvetica,sans-Serif" font-size="10.00">/home/runner/work/diffblue</text>
<text text-anchor="start" x="1014" y="-24" font-family="Helvetica,sans-Serif" font-size="10.00">&#45;cbmc/diffblue&#45;cbmc/src</text>
<text text-anchor="middle" x="1080.5" y="-13" font-family="Helvetica,sans-Serif" font-size="10.00">/goto&#45;cc/ms_cl_mode.cpp</text>
</a>
</g>
</g>
<!-- Node1&#45;&gt;Node8 -->
<g id="edge7" class="edge">
<title>Node1&#45;&gt;Node8</title>
<path fill="none" stroke="midnightblue" d="M1024.29,-82.04C1036.07,-70.6 1049.55,-57.53 1060.35,-47.05"/>
<polygon fill="midnightblue" stroke="midnightblue" points="1021.57,-79.8 1016.83,-89.27 1026.45,-84.82 1021.57,-79.8"/>
</g>
<!-- Node9 -->
<g id="node9" class="node">
<title>Node9</title>
<g id="a_node9"><a xlink:href="ms__link__mode_8cpp.html" target="_top" xlink:title="Visual Studio Link Mode.">
<polygon fill="none" stroke="black" points="1172.5,-6 1172.5,-47 1322.5,-47 1322.5,-6 1172.5,-6"/>
<text text-anchor="start" x="1180.5" y="-35" font-family="Helvetica,sans-Serif" font-size="10.00">/home/runner/work/diffblue</text>
<text text-anchor="start" x="1180.5" y="-24" font-family="Helvetica,sans-Serif" font-size="10.00">&#45;cbmc/diffblue&#45;cbmc/src</text>
<text text-anchor="middle" x="1247.5" y="-13" font-family="Helvetica,sans-Serif" font-size="10.00">/goto&#45;cc/ms_link_mode.cpp</text>
</a>
</g>
</g>
<!-- Node1&#45;&gt;Node9 -->
<g id="edge8" class="edge">
<title>Node1&#45;&gt;Node9</title>
<path fill="none" stroke="midnightblue" d="M1066.59,-86.24C1104.61,-73.9 1151.1,-58.8 1187.44,-47"/>
<polygon fill="midnightblue" stroke="midnightblue" points="1065.05,-83.06 1056.62,-89.48 1067.21,-89.72 1065.05,-83.06"/>
</g>
<!-- Node10 -->
<g id="node10" class="node">
<title>Node10</title>
<g id="a_node10"><a xlink:href="dump__c_8cpp.html" target="_top" xlink:title="Dump Goto&#45;Program as C/C++ Source.">
<polygon fill="none" stroke="black" points="1340.5,-6 1340.5,-47 1500.5,-47 1500.5,-6 1340.5,-6"/>
<text text-anchor="start" x="1348.5" y="-35" font-family="Helvetica,sans-Serif" font-size="10.00">/home/runner/work/diffblue</text>
<text text-anchor="start" x="1348.5" y="-24" font-family="Helvetica,sans-Serif" font-size="10.00">&#45;cbmc/diffblue&#45;cbmc/src</text>
<text text-anchor="middle" x="1420.5" y="-13" font-family="Helvetica,sans-Serif" font-size="10.00">/goto&#45;instrument/dump_c.cpp</text>
</a>
</g>
</g>
<!-- Node1&#45;&gt;Node10 -->
<g id="edge9" class="edge">
<title>Node1&#45;&gt;Node10</title>
<path fill="none" stroke="midnightblue" d="M1081.39,-97.53C1149.42,-87.68 1247.11,-72.08 1331.5,-53 1339.34,-51.23 1347.51,-49.18 1355.59,-47.02"/>
<polygon fill="midnightblue" stroke="midnightblue" points="1080.55,-94.11 1071.15,-99 1081.55,-101.04 1080.55,-94.11"/>
</g>
<!-- Node11 -->
<g id="node11" class="node">
<title>Node11</title>
<g id="a_node11"><a xlink:href="name__mangler_8cpp.html" target="_top" xlink:title=" ">
<polygon fill="none" stroke="black" points="1518.5,-6 1518.5,-47 1706.5,-47 1706.5,-6 1518.5,-6"/>
<text text-anchor="start" x="1526.5" y="-35" font-family="Helvetica,sans-Serif" font-size="10.00">/home/runner/work/diffblue</text>
<text text-anchor="start" x="1526.5" y="-24" font-family="Helvetica,sans-Serif" font-size="10.00">&#45;cbmc/diffblue&#45;cbmc/src</text>
<text text-anchor="middle" x="1612.5" y="-13" font-family="Helvetica,sans-Serif" font-size="10.00">/goto&#45;programs/name_mangler.cpp</text>
</a>
</g>
</g>
<!-- Node1&#45;&gt;Node11 -->
<g id="edge10" class="edge">
<title>Node1&#45;&gt;Node11</title>
<path fill="none" stroke="midnightblue" d="M1081.54,-103.22C1183.71,-95.48 1360.04,-79.54 1509.5,-53 1519.02,-51.31 1528.97,-49.24 1538.77,-47.02"/>
<polygon fill="midnightblue" stroke="midnightblue" points="1080.99,-99.75 1071.28,-103.99 1081.51,-106.73 1080.99,-99.75"/>
</g>
<!-- Node12 -->
<g id="node12" class="node">
<title>Node12</title>
<g id="a_node12"><a xlink:href="statement__list__language_8cpp.html" target="_top" xlink:title="Statement List Language Interface.">
<polygon fill="none" stroke="black" points="1725,-0.5 1725,-52.5 1874,-52.5 1874,-0.5 1725,-0.5"/>
<text text-anchor="start" x="1733" y="-40.5" font-family="Helvetica,sans-Serif" font-size="10.00">/home/runner/work/diffblue</text>
<text text-anchor="start" x="1733" y="-29.5" font-family="Helvetica,sans-Serif" font-size="10.00">&#45;cbmc/diffblue&#45;cbmc/src</text>
<text text-anchor="start" x="1733" y="-18.5" font-family="Helvetica,sans-Serif" font-size="10.00">/statement&#45;list/statement</text>
<text text-anchor="middle" x="1799.5" y="-7.5" font-family="Helvetica,sans-Serif" font-size="10.00">_list_language.cpp</text>
</a>
</g>
</g>
<!-- Node1&#45;&gt;Node12 -->
<g id="edge11" class="edge">
<title>Node1&#45;&gt;Node12</title>
<path fill="none" stroke="midnightblue" d="M1081.5,-108.32C1216.84,-105.92 1489.16,-95.65 1715.5,-53 1718.5,-52.44 1721.54,-51.8 1724.59,-51.12"/>
<polygon fill="midnightblue" stroke="midnightblue" points="1081.14,-104.83 1071.2,-108.5 1081.26,-111.83 1081.14,-104.83"/>
</g>
<!-- Node13 -->
<g id="node13" class="node">
<title>Node13</title>
<g id="a_node13"><a xlink:href="get__base__name_8cpp.html" target="_top" xlink:title=" ">
<polygon fill="none" stroke="black" points="1892,-6 1892,-47 2041,-47 2041,-6 1892,-6"/>
<text text-anchor="start" x="1900" y="-35" font-family="Helvetica,sans-Serif" font-size="10.00">/home/runner/work/diffblue</text>
<text text-anchor="start" x="1900" y="-24" font-family="Helvetica,sans-Serif" font-size="10.00">&#45;cbmc/diffblue&#45;cbmc/src</text>
<text text-anchor="middle" x="1966.5" y="-13" font-family="Helvetica,sans-Serif" font-size="10.00">/util/get_base_name.cpp</text>
</a>
</g>
</g>
<!-- Node1&#45;&gt;Node13 -->
<g id="edge12" class="edge">
<title>Node1&#45;&gt;Node13</title>
<path fill="none" stroke="midnightblue" d="M1081.51,-106.18C1272.59,-99.43 1731.19,-80.8 1883.5,-53 1891.8,-51.48 1900.45,-49.41 1908.88,-47.1"/>
<polygon fill="midnightblue" stroke="midnightblue" points="1081.11,-102.69 1071.24,-106.54 1081.36,-109.69 1081.11,-102.69"/>
</g>
</g>
</svg>
