<?xml version="1.0" encoding="UTF-8" standalone="no"?>
<!DOCTYPE svg PUBLIC "-//W3C//DTD SVG 1.1//EN"
 "http://www.w3.org/Graphics/SVG/1.1/DTD/svg11.dtd">
<!-- Generated by graphviz version 2.43.0 (0)
 -->
<!-- Title: /home/runner/work/diffblue&#45;cbmc/diffblue&#45;cbmc/src/goto&#45;diff/goto_diff.h Pages: 1 -->
<svg width="689pt" height="217pt"
 viewBox="0.00 0.00 689.00 217.00" xmlns="http://www.w3.org/2000/svg" xmlns:xlink="http://www.w3.org/1999/xlink">
<g id="graph0" class="graph" transform="scale(1 1) rotate(0) translate(4 213)">
<title>/home/runner/work/diffblue&#45;cbmc/diffblue&#45;cbmc/src/goto&#45;diff/goto_diff.h</title>
<!-- Node1 -->
<g id="node1" class="node">
<title>Node1</title>
<g id="a_node1"><a xlink:title="GOTO&#45;DIFF Base Class.">
<polygon fill="#bfbfbf" stroke="black" points="173,-167.5 173,-208.5 322,-208.5 322,-167.5 173,-167.5"/>
<text text-anchor="start" x="181" y="-196.5" font-family="Helvetica,sans-Serif" font-size="10.00">/home/runner/work/diffblue</text>
<text text-anchor="start" x="181" y="-185.5" font-family="Helvetica,sans-Serif" font-size="10.00">&#45;cbmc/diffblue&#45;cbmc/src</text>
<text text-anchor="middle" x="247.5" y="-174.5" font-family="Helvetica,sans-Serif" font-size="10.00">/goto&#45;diff/goto_diff.h</text>
</a>
</g>
</g>
<!-- Node2 -->
<g id="node2" class="node">
<title>Node2</title>
<g id="a_node2"><a xlink:href="goto__diff__base_8cpp.html" target="_top" xlink:title="GOTO&#45;DIFF Base Class.">
<polygon fill="none" stroke="black" points="0,-89.5 0,-130.5 155,-130.5 155,-89.5 0,-89.5"/>
<text text-anchor="start" x="8" y="-118.5" font-family="Helvetica,sans-Serif" font-size="10.00">/home/runner/work/diffblue</text>
<text text-anchor="start" x="8" y="-107.5" font-family="Helvetica,sans-Serif" font-size="10.00">&#45;cbmc/diffblue&#45;cbmc/src</text>
<text text-anchor="middle" x="77.5" y="-96.5" font-family="Helvetica,sans-Serif" font-size="10.00">/goto&#45;diff/goto_diff_base.cpp</text>
</a>
</g>
</g>
<!-- Node1&#45;&gt;Node2 -->
<g id="edge1" class="edge">
<title>Node1&#45;&gt;Node2</title>
<path fill="none" stroke="midnightblue" d="M194.55,-163.33C170.96,-152.78 143.52,-140.51 121.13,-130.51"/>
<polygon fill="midnightblue" stroke="midnightblue" points="193.16,-166.54 203.72,-167.43 196.02,-160.15 193.16,-166.54"/>
</g>
<!-- Node3 -->
<g id="node3" class="node">
<title>Node3</title>
<g id="a_node3"><a xlink:href="syntactic__diff_8h.html" target="_top" xlink:title="Syntactic GOTO&#45;DIFF.">
<polygon fill="none" stroke="black" points="173,-89.5 173,-130.5 322,-130.5 322,-89.5 173,-89.5"/>
<text text-anchor="start" x="181" y="-118.5" font-family="Helvetica,sans-Serif" font-size="10.00">/home/runner/work/diffblue</text>
<text text-anchor="start" x="181" y="-107.5" font-family="Helvetica,sans-Serif" font-size="10.00">&#45;cbmc/diffblue&#45;cbmc/src</text>
<text text-anchor="middle" x="247.5" y="-96.5" font-family="Helvetica,sans-Serif" font-size="10.00">/goto&#45;diff/syntactic_diff.h</text>
</a>
</g>
</g>
<!-- Node1&#45;&gt;Node3 -->
<g id="edge2" class="edge">
<title>Node1&#45;&gt;Node3</title>
<path fill="none" stroke="midnightblue" d="M247.5,-157.3C247.5,-148.3 247.5,-138.65 247.5,-130.51"/>
<polygon fill="midnightblue" stroke="midnightblue" points="244,-157.43 247.5,-167.43 251,-157.43 244,-157.43"/>
</g>
<!-- Node6 -->
<g id="node6" class="node">
<title>Node6</title>
<g id="a_node6"><a xlink:href="java__syntactic__diff_8h.html" target="_top" xlink:title="Syntactic GOTO&#45;DIFF for Java.">
<polygon fill="none" stroke="black" points="340,-89.5 340,-130.5 499,-130.5 499,-89.5 340,-89.5"/>
<text text-anchor="start" x="348" y="-118.5" font-family="Helvetica,sans-Serif" font-size="10.00">/home/runner/work/diffblue</text>
<text text-anchor="start" x="348" y="-107.5" font-family="Helvetica,sans-Serif" font-size="10.00">&#45;cbmc/diffblue&#45;cbmc/jbmc</text>
<text text-anchor="middle" x="419.5" y="-96.5" font-family="Helvetica,sans-Serif" font-size="10.00">/src/jdiff/java_syntactic_diff.h</text>
</a>
</g>
</g>
<!-- Node1&#45;&gt;Node6 -->
<g id="edge5" class="edge">
<title>Node1&#45;&gt;Node6</title>
<path fill="none" stroke="midnightblue" d="M301.07,-163.33C324.94,-152.78 352.71,-140.51 375.36,-130.51"/>
<polygon fill="midnightblue" stroke="midnightblue" points="299.53,-160.19 291.79,-167.43 302.36,-166.59 299.53,-160.19"/>
</g>
<!-- Node4 -->
<g id="node4" class="node">
<title>Node4</title>
<g id="a_node4"><a xlink:href="goto__diff__parse__options_8cpp.html" target="_top" xlink:title="GOTO&#45;DIFF Command Line Option Processing.">
<polygon fill="none" stroke="black" points="7,-0.5 7,-52.5 156,-52.5 156,-0.5 7,-0.5"/>
<text text-anchor="start" x="15" y="-40.5" font-family="Helvetica,sans-Serif" font-size="10.00">/home/runner/work/diffblue</text>
<text text-anchor="start" x="15" y="-29.5" font-family="Helvetica,sans-Serif" font-size="10.00">&#45;cbmc/diffblue&#45;cbmc/src</text>
<text text-anchor="start" x="15" y="-18.5" font-family="Helvetica,sans-Serif" font-size="10.00">/goto&#45;diff/goto_diff_parse</text>
<text text-anchor="middle" x="81.5" y="-7.5" font-family="Helvetica,sans-Serif" font-size="10.00">_options.cpp</text>
</a>
</g>
</g>
<!-- Node3&#45;&gt;Node4 -->
<g id="edge3" class="edge">
<title>Node3&#45;&gt;Node4</title>
<path fill="none" stroke="midnightblue" d="M198.75,-85.07C177.94,-74.85 153.64,-62.92 132.58,-52.58"/>
<polygon fill="midnightblue" stroke="midnightblue" points="197.22,-88.21 207.74,-89.48 200.3,-81.93 197.22,-88.21"/>
</g>
<!-- Node5 -->
<g id="node5" class="node">
<title>Node5</title>
<g id="a_node5"><a xlink:href="syntactic__diff_8cpp.html" target="_top" xlink:title="Syntactic GOTO&#45;DIFF.">
<polygon fill="none" stroke="black" points="174,-6 174,-47 323,-47 323,-6 174,-6"/>
<text text-anchor="start" x="182" y="-35" font-family="Helvetica,sans-Serif" font-size="10.00">/home/runner/work/diffblue</text>
<text text-anchor="start" x="182" y="-24" font-family="Helvetica,sans-Serif" font-size="10.00">&#45;cbmc/diffblue&#45;cbmc/src</text>
<text text-anchor="middle" x="248.5" y="-13" font-family="Helvetica,sans-Serif" font-size="10.00">/goto&#45;diff/syntactic_diff.cpp</text>
</a>
</g>
</g>
<!-- Node3&#45;&gt;Node5 -->
<g id="edge4" class="edge">
<title>Node3&#45;&gt;Node5</title>
<path fill="none" stroke="midnightblue" d="M247.87,-79.06C248,-68.38 248.14,-56.63 248.26,-47.05"/>
<polygon fill="midnightblue" stroke="midnightblue" points="244.37,-79.23 247.74,-89.27 251.36,-79.31 244.37,-79.23"/>
</g>
<!-- Node7 -->
<g id="node7" class="node">
<title>Node7</title>
<g id="a_node7"><a xlink:href="java__syntactic__diff_8cpp.html" target="_top" xlink:title="Syntactic GOTO&#45;DIFF for Java.">
<polygon fill="none" stroke="black" points="343,-0.5 343,-52.5 492,-52.5 492,-0.5 343,-0.5"/>
<text text-anchor="start" x="351" y="-40.5" font-family="Helvetica,sans-Serif" font-size="10.00">/home/runner/work/diffblue</text>
<text text-anchor="start" x="351" y="-29.5" font-family="Helvetica,sans-Serif" font-size="10.00">&#45;cbmc/diffblue&#45;cbmc/jbmc</text>
<text text-anchor="start" x="351" y="-18.5" font-family="Helvetica,sans-Serif" font-size="10.00">/src/jdiff/java_syntactic</text>
<text text-anchor="middle" x="417.5" y="-7.5" font-family="Helvetica,sans-Serif" font-size="10.00">_diff.cpp</text>
</a>
</g>
</g>
<!-- Node6&#45;&gt;Node7 -->
<g id="edge6" class="edge">
<title>Node6&#45;&gt;Node7</title>
<path fill="none" stroke="midnightblue" d="M418.77,-79.12C418.55,-70.41 418.32,-60.99 418.12,-52.61"/>
<polygon fill="midnightblue" stroke="midnightblue" points="415.27,-79.36 419.02,-89.27 422.27,-79.19 415.27,-79.36"/>
</g>
<!-- Node8 -->
<g id="node8" class="node">
<title>Node8</title>
<g id="a_node8"><a xlink:href="jdiff__parse__options_8cpp.html" target="_top" xlink:title="JDIFF Command Line Option Processing.">
<polygon fill="none" stroke="black" points="510,-6 510,-47 681,-47 681,-6 510,-6"/>
<text text-anchor="start" x="518" y="-35" font-family="Helvetica,sans-Serif" font-size="10.00">/home/runner/work/diffblue</text>
<text text-anchor="start" x="518" y="-24" font-family="Helvetica,sans-Serif" font-size="10.00">&#45;cbmc/diffblue&#45;cbmc/jbmc</text>
<text text-anchor="middle" x="595.5" y="-13" font-family="Helvetica,sans-Serif" font-size="10.00">/src/jdiff/jdiff_parse_options.cpp</text>
</a>
</g>
</g>
<!-- Node6&#45;&gt;Node8 -->
<g id="edge7" class="edge">
<title>Node6&#45;&gt;Node8</title>
<path fill="none" stroke="midnightblue" d="M471.05,-85.13C497.24,-73 528.66,-58.45 553.38,-47"/>
<polygon fill="midnightblue" stroke="midnightblue" points="469.26,-82.1 461.66,-89.48 472.2,-88.45 469.26,-82.1"/>
</g>
</g>
</svg>
