<?xml version="1.0" encoding="UTF-8" standalone="no"?>
<!DOCTYPE svg PUBLIC "-//W3C//DTD SVG 1.1//EN"
 "http://www.w3.org/Graphics/SVG/1.1/DTD/svg11.dtd">
<!-- Generated by graphviz version 2.43.0 (0)
 -->
<!-- Title: /home/runner/work/diffblue&#45;cbmc/diffblue&#45;cbmc/src/goto&#45;cc/goto_cc_cmdline.h Pages: 1 -->
<svg width="2491pt" height="284pt"
 viewBox="0.00 0.00 2490.50 284.00" xmlns="http://www.w3.org/2000/svg" xmlns:xlink="http://www.w3.org/1999/xlink">
<g id="graph0" class="graph" transform="scale(1 1) rotate(0) translate(4 280)">
<title>/home/runner/work/diffblue&#45;cbmc/diffblue&#45;cbmc/src/goto&#45;cc/goto_cc_cmdline.h</title>
<!-- Node1 -->
<g id="node1" class="node">
<title>Node1</title>
<g id="a_node1"><a xlink:title="Command line interpretation for goto&#45;cc.">
<polygon fill="#bfbfbf" stroke="black" points="1237,-234.5 1237,-275.5 1386,-275.5 1386,-234.5 1237,-234.5"/>
<text text-anchor="start" x="1245" y="-263.5" font-family="Helvetica,sans-Serif" font-size="10.00">/home/runner/work/diffblue</text>
<text text-anchor="start" x="1245" y="-252.5" font-family="Helvetica,sans-Serif" font-size="10.00">&#45;cbmc/diffblue&#45;cbmc/src</text>
<text text-anchor="middle" x="1311.5" y="-241.5" font-family="Helvetica,sans-Serif" font-size="10.00">/goto&#45;cc/goto_cc_cmdline.h</text>
</a>
</g>
</g>
<!-- Node2 -->
<g id="node2" class="node">
<title>Node2</title>
<g id="a_node2"><a xlink:href="armcc__cmdline_8h.html" target="_top" xlink:title="A special command line object to mimic ARM&#39;s armcc.">
<polygon fill="none" stroke="black" points="149,-156.5 149,-197.5 298,-197.5 298,-156.5 149,-156.5"/>
<text text-anchor="start" x="157" y="-185.5" font-family="Helvetica,sans-Serif" font-size="10.00">/home/runner/work/diffblue</text>
<text text-anchor="start" x="157" y="-174.5" font-family="Helvetica,sans-Serif" font-size="10.00">&#45;cbmc/diffblue&#45;cbmc/src</text>
<text text-anchor="middle" x="223.5" y="-163.5" font-family="Helvetica,sans-Serif" font-size="10.00">/goto&#45;cc/armcc_cmdline.h</text>
</a>
</g>
</g>
<!-- Node1&#45;&gt;Node2 -->
<g id="edge1" class="edge">
<title>Node1&#45;&gt;Node2</title>
<path fill="none" stroke="midnightblue" d="M1226.87,-254.43C1053.31,-254.18 644.89,-247.78 306.5,-198 303.71,-197.59 300.88,-197.13 298.03,-196.63"/>
<polygon fill="midnightblue" stroke="midnightblue" points="1226.96,-257.93 1236.96,-254.44 1226.97,-250.93 1226.96,-257.93"/>
</g>
<!-- Node7 -->
<g id="node7" class="node">
<title>Node7</title>
<g id="a_node7"><a xlink:href="as86__cmdline_8h.html" target="_top" xlink:title="A special command line object for as86 (of Bruce&#39;s C Compiler) Author: Michael Tautschnig Date: July ...">
<polygon fill="none" stroke="black" points="483,-156.5 483,-197.5 632,-197.5 632,-156.5 483,-156.5"/>
<text text-anchor="start" x="491" y="-185.5" font-family="Helvetica,sans-Serif" font-size="10.00">/home/runner/work/diffblue</text>
<text text-anchor="start" x="491" y="-174.5" font-family="Helvetica,sans-Serif" font-size="10.00">&#45;cbmc/diffblue&#45;cbmc/src</text>
<text text-anchor="middle" x="557.5" y="-163.5" font-family="Helvetica,sans-Serif" font-size="10.00">/goto&#45;cc/as86_cmdline.h</text>
</a>
</g>
</g>
<!-- Node1&#45;&gt;Node7 -->
<g id="edge7" class="edge">
<title>Node1&#45;&gt;Node7</title>
<path fill="none" stroke="midnightblue" d="M1226.46,-251.08C1098.59,-245.74 849.5,-231.7 640.5,-198 637.72,-197.55 634.89,-197.06 632.05,-196.53"/>
<polygon fill="midnightblue" stroke="midnightblue" points="1226.44,-254.58 1236.58,-251.49 1226.73,-247.59 1226.44,-254.58"/>
</g>
<!-- Node9 -->
<g id="node9" class="node">
<title>Node9</title>
<g id="a_node9"><a xlink:href="as__cmdline_8h.html" target="_top" xlink:title="A special command line object for GNU Assembler Author: Michael Tautschnig Date: July 2016.">
<polygon fill="none" stroke="black" points="984,-156.5 984,-197.5 1133,-197.5 1133,-156.5 984,-156.5"/>
<text text-anchor="start" x="992" y="-185.5" font-family="Helvetica,sans-Serif" font-size="10.00">/home/runner/work/diffblue</text>
<text text-anchor="start" x="992" y="-174.5" font-family="Helvetica,sans-Serif" font-size="10.00">&#45;cbmc/diffblue&#45;cbmc/src</text>
<text text-anchor="middle" x="1058.5" y="-163.5" font-family="Helvetica,sans-Serif" font-size="10.00">/goto&#45;cc/as_cmdline.h</text>
</a>
</g>
</g>
<!-- Node1&#45;&gt;Node9 -->
<g id="edge10" class="edge">
<title>Node1&#45;&gt;Node9</title>
<path fill="none" stroke="midnightblue" d="M1236.41,-231.44C1200.5,-220.66 1157.93,-207.87 1123.43,-197.51"/>
<polygon fill="midnightblue" stroke="midnightblue" points="1235.76,-234.9 1246.35,-234.43 1237.78,-228.2 1235.76,-234.9"/>
</g>
<!-- Node11 -->
<g id="node11" class="node">
<title>Node11</title>
<g id="a_node11"><a xlink:href="as__mode_8cpp.html" target="_top" xlink:title="Assembler Mode.">
<polygon fill="none" stroke="black" points="650,-156.5 650,-197.5 799,-197.5 799,-156.5 650,-156.5"/>
<text text-anchor="start" x="658" y="-185.5" font-family="Helvetica,sans-Serif" font-size="10.00">/home/runner/work/diffblue</text>
<text text-anchor="start" x="658" y="-174.5" font-family="Helvetica,sans-Serif" font-size="10.00">&#45;cbmc/diffblue&#45;cbmc/src</text>
<text text-anchor="middle" x="724.5" y="-163.5" font-family="Helvetica,sans-Serif" font-size="10.00">/goto&#45;cc/as_mode.cpp</text>
</a>
</g>
</g>
<!-- Node1&#45;&gt;Node11 -->
<g id="edge13" class="edge">
<title>Node1&#45;&gt;Node11</title>
<path fill="none" stroke="midnightblue" d="M1226.69,-247.85C1126.15,-239.81 953.79,-223.65 807.5,-198 804.73,-197.51 801.91,-196.99 799.06,-196.44"/>
<polygon fill="midnightblue" stroke="midnightblue" points="1226.54,-251.35 1236.79,-248.65 1227.1,-244.37 1226.54,-251.35"/>
</g>
<!-- Node12 -->
<g id="node12" class="node">
<title>Node12</title>
<g id="a_node12"><a xlink:href="bcc__cmdline_8h.html" target="_top" xlink:title="A special command line object for Bruce&#39;s C Compiler Author: Michael Tautschnig Date: July 2016.">
<polygon fill="none" stroke="black" points="316,-156.5 316,-197.5 465,-197.5 465,-156.5 316,-156.5"/>
<text text-anchor="start" x="324" y="-185.5" font-family="Helvetica,sans-Serif" font-size="10.00">/home/runner/work/diffblue</text>
<text text-anchor="start" x="324" y="-174.5" font-family="Helvetica,sans-Serif" font-size="10.00">&#45;cbmc/diffblue&#45;cbmc/src</text>
<text text-anchor="middle" x="390.5" y="-163.5" font-family="Helvetica,sans-Serif" font-size="10.00">/goto&#45;cc/bcc_cmdline.h</text>
</a>
</g>
</g>
<!-- Node1&#45;&gt;Node12 -->
<g id="edge14" class="edge">
<title>Node1&#45;&gt;Node12</title>
<path fill="none" stroke="midnightblue" d="M1226.58,-253.07C1074.66,-250.37 746.67,-239.73 473.5,-198 470.72,-197.57 467.89,-197.1 465.04,-196.59"/>
<polygon fill="midnightblue" stroke="midnightblue" points="1226.71,-256.58 1236.77,-253.25 1226.83,-249.58 1226.71,-256.58"/>
</g>
<!-- Node14 -->
<g id="node14" class="node">
<title>Node14</title>
<g id="a_node14"><a xlink:href="gcc__cmdline_8h.html" target="_top" xlink:title="A special command line object for the gcc&#45;like options.">
<polygon fill="none" stroke="black" points="1664,-156.5 1664,-197.5 1813,-197.5 1813,-156.5 1664,-156.5"/>
<text text-anchor="start" x="1672" y="-185.5" font-family="Helvetica,sans-Serif" font-size="10.00">/home/runner/work/diffblue</text>
<text text-anchor="start" x="1672" y="-174.5" font-family="Helvetica,sans-Serif" font-size="10.00">&#45;cbmc/diffblue&#45;cbmc/src</text>
<text text-anchor="middle" x="1738.5" y="-163.5" font-family="Helvetica,sans-Serif" font-size="10.00">/goto&#45;cc/gcc_cmdline.h</text>
</a>
</g>
</g>
<!-- Node1&#45;&gt;Node14 -->
<g id="edge17" class="edge">
<title>Node1&#45;&gt;Node14</title>
<path fill="none" stroke="midnightblue" d="M1396.08,-241.92C1465.69,-231.57 1566.82,-215.57 1654.5,-198 1657.59,-197.38 1660.73,-196.73 1663.91,-196.05"/>
<polygon fill="midnightblue" stroke="midnightblue" points="1395.43,-238.48 1386.05,-243.41 1396.45,-245.41 1395.43,-238.48"/>
</g>
<!-- Node18 -->
<g id="node18" class="node">
<title>Node18</title>
<g id="a_node18"><a xlink:href="gcc__mode_8cpp.html" target="_top" xlink:title="GCC Mode.">
<polygon fill="none" stroke="black" points="1151,-156.5 1151,-197.5 1300,-197.5 1300,-156.5 1151,-156.5"/>
<text text-anchor="start" x="1159" y="-185.5" font-family="Helvetica,sans-Serif" font-size="10.00">/home/runner/work/diffblue</text>
<text text-anchor="start" x="1159" y="-174.5" font-family="Helvetica,sans-Serif" font-size="10.00">&#45;cbmc/diffblue&#45;cbmc/src</text>
<text text-anchor="middle" x="1225.5" y="-163.5" font-family="Helvetica,sans-Serif" font-size="10.00">/goto&#45;cc/gcc_mode.cpp</text>
</a>
</g>
</g>
<!-- Node1&#45;&gt;Node18 -->
<g id="edge23" class="edge">
<title>Node1&#45;&gt;Node18</title>
<path fill="none" stroke="midnightblue" d="M1281.83,-227.78C1270.59,-217.84 1257.99,-206.72 1247.57,-197.51"/>
<polygon fill="midnightblue" stroke="midnightblue" points="1279.54,-230.43 1289.35,-234.43 1284.18,-225.18 1279.54,-230.43"/>
</g>
<!-- Node19 -->
<g id="node19" class="node">
<title>Node19</title>
<g id="a_node19"><a xlink:href="goto__cc__cmdline_8cpp.html" target="_top" xlink:title="Command line interpretation for goto&#45;cc.">
<polygon fill="none" stroke="black" points="1318,-156.5 1318,-197.5 1479,-197.5 1479,-156.5 1318,-156.5"/>
<text text-anchor="start" x="1326" y="-185.5" font-family="Helvetica,sans-Serif" font-size="10.00">/home/runner/work/diffblue</text>
<text text-anchor="start" x="1326" y="-174.5" font-family="Helvetica,sans-Serif" font-size="10.00">&#45;cbmc/diffblue&#45;cbmc/src</text>
<text text-anchor="middle" x="1398.5" y="-163.5" font-family="Helvetica,sans-Serif" font-size="10.00">/goto&#45;cc/goto_cc_cmdline.cpp</text>
</a>
</g>
</g>
<!-- Node1&#45;&gt;Node19 -->
<g id="edge24" class="edge">
<title>Node1&#45;&gt;Node19</title>
<path fill="none" stroke="midnightblue" d="M1341.52,-227.78C1352.89,-217.84 1365.63,-206.72 1376.17,-197.51"/>
<polygon fill="midnightblue" stroke="midnightblue" points="1339.13,-225.21 1333.9,-234.43 1343.74,-230.49 1339.13,-225.21"/>
</g>
<!-- Node20 -->
<g id="node20" class="node">
<title>Node20</title>
<g id="a_node20"><a xlink:href="goto__cc__mode_8cpp.html" target="_top" xlink:title="Command line option container.">
<polygon fill="none" stroke="black" points="1497,-156.5 1497,-197.5 1646,-197.5 1646,-156.5 1497,-156.5"/>
<text text-anchor="start" x="1505" y="-185.5" font-family="Helvetica,sans-Serif" font-size="10.00">/home/runner/work/diffblue</text>
<text text-anchor="start" x="1505" y="-174.5" font-family="Helvetica,sans-Serif" font-size="10.00">&#45;cbmc/diffblue&#45;cbmc/src</text>
<text text-anchor="middle" x="1571.5" y="-163.5" font-family="Helvetica,sans-Serif" font-size="10.00">/goto&#45;cc/goto_cc_mode.cpp</text>
</a>
</g>
</g>
<!-- Node1&#45;&gt;Node20 -->
<g id="edge25" class="edge">
<title>Node1&#45;&gt;Node20</title>
<path fill="none" stroke="midnightblue" d="M1388.2,-231.58C1425.2,-220.76 1469.17,-207.91 1504.77,-197.51"/>
<polygon fill="midnightblue" stroke="midnightblue" points="1387.07,-228.26 1378.46,-234.43 1389.04,-234.98 1387.07,-228.26"/>
</g>
<!-- Node21 -->
<g id="node21" class="node">
<title>Node21</title>
<g id="a_node21"><a xlink:href="ld__cmdline_8h.html" target="_top" xlink:title="A special command line object for the ld&#45;like options.">
<polygon fill="none" stroke="black" points="817,-156.5 817,-197.5 966,-197.5 966,-156.5 817,-156.5"/>
<text text-anchor="start" x="825" y="-185.5" font-family="Helvetica,sans-Serif" font-size="10.00">/home/runner/work/diffblue</text>
<text text-anchor="start" x="825" y="-174.5" font-family="Helvetica,sans-Serif" font-size="10.00">&#45;cbmc/diffblue&#45;cbmc/src</text>
<text text-anchor="middle" x="891.5" y="-163.5" font-family="Helvetica,sans-Serif" font-size="10.00">/goto&#45;cc/ld_cmdline.h</text>
</a>
</g>
</g>
<!-- Node1&#45;&gt;Node21 -->
<g id="edge26" class="edge">
<title>Node1&#45;&gt;Node21</title>
<path fill="none" stroke="midnightblue" d="M1226.65,-241.63C1158.31,-231.25 1059.91,-215.36 974.5,-198 971.74,-197.44 968.93,-196.85 966.1,-196.24"/>
<polygon fill="midnightblue" stroke="midnightblue" points="1226.52,-245.15 1236.93,-243.18 1227.56,-238.22 1226.52,-245.15"/>
</g>
<!-- Node23 -->
<g id="node23" class="node">
<title>Node23</title>
<g id="a_node23"><a xlink:href="ld__mode_8cpp.html" target="_top" xlink:title="LD Mode.">
<polygon fill="none" stroke="black" points="1831,-156.5 1831,-197.5 1980,-197.5 1980,-156.5 1831,-156.5"/>
<text text-anchor="start" x="1839" y="-185.5" font-family="Helvetica,sans-Serif" font-size="10.00">/home/runner/work/diffblue</text>
<text text-anchor="start" x="1839" y="-174.5" font-family="Helvetica,sans-Serif" font-size="10.00">&#45;cbmc/diffblue&#45;cbmc/src</text>
<text text-anchor="middle" x="1905.5" y="-163.5" font-family="Helvetica,sans-Serif" font-size="10.00">/goto&#45;cc/ld_mode.cpp</text>
</a>
</g>
</g>
<!-- Node1&#45;&gt;Node23 -->
<g id="edge29" class="edge">
<title>Node1&#45;&gt;Node23</title>
<path fill="none" stroke="midnightblue" d="M1396.44,-247.92C1498.03,-239.91 1673.01,-223.73 1821.5,-198 1824.6,-197.46 1827.76,-196.88 1830.94,-196.26"/>
<polygon fill="midnightblue" stroke="midnightblue" points="1395.93,-244.45 1386.23,-248.72 1396.48,-251.43 1395.93,-244.45"/>
</g>
<!-- Node24 -->
<g id="node24" class="node">
<title>Node24</title>
<g id="a_node24"><a xlink:href="ms__cl__cmdline_8h.html" target="_top" xlink:title="A special command line object for the gcc&#45;like options.">
<polygon fill="none" stroke="black" points="1998,-156.5 1998,-197.5 2147,-197.5 2147,-156.5 1998,-156.5"/>
<text text-anchor="start" x="2006" y="-185.5" font-family="Helvetica,sans-Serif" font-size="10.00">/home/runner/work/diffblue</text>
<text text-anchor="start" x="2006" y="-174.5" font-family="Helvetica,sans-Serif" font-size="10.00">&#45;cbmc/diffblue&#45;cbmc/src</text>
<text text-anchor="middle" x="2072.5" y="-163.5" font-family="Helvetica,sans-Serif" font-size="10.00">/goto&#45;cc/ms_cl_cmdline.h</text>
</a>
</g>
</g>
<!-- Node1&#45;&gt;Node24 -->
<g id="edge30" class="edge">
<title>Node1&#45;&gt;Node24</title>
<path fill="none" stroke="midnightblue" d="M1396.25,-251.1C1524.94,-245.78 1777.02,-231.72 1988.5,-198 1991.61,-197.5 1994.77,-196.96 1997.96,-196.37"/>
<polygon fill="midnightblue" stroke="midnightblue" points="1395.92,-247.61 1386.07,-251.52 1396.21,-254.61 1395.92,-247.61"/>
</g>
<!-- Node28 -->
<g id="node28" class="node">
<title>Node28</title>
<g id="a_node28"><a xlink:href="ms__link__cmdline_8h.html" target="_top" xlink:title="A special command line object for LINK options.">
<polygon fill="none" stroke="black" points="2164.5,-156.5 2164.5,-197.5 2314.5,-197.5 2314.5,-156.5 2164.5,-156.5"/>
<text text-anchor="start" x="2172.5" y="-185.5" font-family="Helvetica,sans-Serif" font-size="10.00">/home/runner/work/diffblue</text>
<text text-anchor="start" x="2172.5" y="-174.5" font-family="Helvetica,sans-Serif" font-size="10.00">&#45;cbmc/diffblue&#45;cbmc/src</text>
<text text-anchor="middle" x="2239.5" y="-163.5" font-family="Helvetica,sans-Serif" font-size="10.00">/goto&#45;cc/ms_link_cmdline.h</text>
</a>
</g>
</g>
<!-- Node1&#45;&gt;Node28 -->
<g id="edge36" class="edge">
<title>Node1&#45;&gt;Node28</title>
<path fill="none" stroke="midnightblue" d="M1396.43,-253.06C1549.16,-250.32 1879.96,-239.64 2155.5,-198 2158.32,-197.57 2161.18,-197.1 2164.06,-196.59"/>
<polygon fill="midnightblue" stroke="midnightblue" points="1396.12,-249.56 1386.18,-253.23 1396.24,-256.56 1396.12,-249.56"/>
</g>
<!-- Node30 -->
<g id="node30" class="node">
<title>Node30</title>
<g id="a_node30"><a xlink:href="ms__link__mode_8cpp.html" target="_top" xlink:title="Visual Studio Link Mode.">
<polygon fill="none" stroke="black" points="2332.5,-156.5 2332.5,-197.5 2482.5,-197.5 2482.5,-156.5 2332.5,-156.5"/>
<text text-anchor="start" x="2340.5" y="-185.5" font-family="Helvetica,sans-Serif" font-size="10.00">/home/runner/work/diffblue</text>
<text text-anchor="start" x="2340.5" y="-174.5" font-family="Helvetica,sans-Serif" font-size="10.00">&#45;cbmc/diffblue&#45;cbmc/src</text>
<text text-anchor="middle" x="2407.5" y="-163.5" font-family="Helvetica,sans-Serif" font-size="10.00">/goto&#45;cc/ms_link_mode.cpp</text>
</a>
</g>
</g>
<!-- Node1&#45;&gt;Node30 -->
<g id="edge39" class="edge">
<title>Node1&#45;&gt;Node30</title>
<path fill="none" stroke="midnightblue" d="M1396.38,-254.4C1570.94,-254.1 1982.47,-247.63 2323.5,-198 2326.32,-197.59 2329.18,-197.13 2332.07,-196.63"/>
<polygon fill="midnightblue" stroke="midnightblue" points="1396.22,-250.9 1386.23,-254.41 1396.23,-257.9 1396.22,-250.9"/>
</g>
<!-- Node3 -->
<g id="node3" class="node">
<title>Node3</title>
<g id="a_node3"><a xlink:href="armcc__cmdline_8cpp.html" target="_top" xlink:title="A special command line object to mimic ARM&#39;s armcc.">
<polygon fill="none" stroke="black" points="167,-78.5 167,-119.5 320,-119.5 320,-78.5 167,-78.5"/>
<text text-anchor="start" x="175" y="-107.5" font-family="Helvetica,sans-Serif" font-size="10.00">/home/runner/work/diffblue</text>
<text text-anchor="start" x="175" y="-96.5" font-family="Helvetica,sans-Serif" font-size="10.00">&#45;cbmc/diffblue&#45;cbmc/src</text>
<text text-anchor="middle" x="243.5" y="-85.5" font-family="Helvetica,sans-Serif" font-size="10.00">/goto&#45;cc/armcc_cmdline.cpp</text>
</a>
</g>
</g>
<!-- Node2&#45;&gt;Node3 -->
<g id="edge2" class="edge">
<title>Node2&#45;&gt;Node3</title>
<path fill="none" stroke="midnightblue" d="M231.24,-146.59C233.63,-137.51 236.2,-127.74 238.37,-119.51"/>
<polygon fill="midnightblue" stroke="midnightblue" points="227.81,-145.87 228.65,-156.43 234.58,-147.65 227.81,-145.87"/>
</g>
<!-- Node4 -->
<g id="node4" class="node">
<title>Node4</title>
<g id="a_node4"><a xlink:href="armcc__mode_8h.html" target="_top" xlink:title="Base class for command line interpretation for CL.">
<polygon fill="none" stroke="black" points="0,-78.5 0,-119.5 149,-119.5 149,-78.5 0,-78.5"/>
<text text-anchor="start" x="8" y="-107.5" font-family="Helvetica,sans-Serif" font-size="10.00">/home/runner/work/diffblue</text>
<text text-anchor="start" x="8" y="-96.5" font-family="Helvetica,sans-Serif" font-size="10.00">&#45;cbmc/diffblue&#45;cbmc/src</text>
<text text-anchor="middle" x="74.5" y="-85.5" font-family="Helvetica,sans-Serif" font-size="10.00">/goto&#45;cc/armcc_mode.h</text>
</a>
</g>
</g>
<!-- Node2&#45;&gt;Node4 -->
<g id="edge3" class="edge">
<title>Node2&#45;&gt;Node4</title>
<path fill="none" stroke="midnightblue" d="M175.99,-151.77C155.57,-141.35 132.01,-129.34 112.74,-119.51"/>
<polygon fill="midnightblue" stroke="midnightblue" points="174.63,-155 185.13,-156.43 177.81,-148.77 174.63,-155"/>
</g>
<!-- Node6 -->
<g id="node6" class="node">
<title>Node6</title>
<g id="a_node6"><a xlink:href="goto__cc__main_8cpp.html" target="_top" xlink:title="GOTO&#45;CC Main Module.">
<polygon fill="none" stroke="black" points="1091,-0.5 1091,-41.5 1240,-41.5 1240,-0.5 1091,-0.5"/>
<text text-anchor="start" x="1099" y="-29.5" font-family="Helvetica,sans-Serif" font-size="10.00">/home/runner/work/diffblue</text>
<text text-anchor="start" x="1099" y="-18.5" font-family="Helvetica,sans-Serif" font-size="10.00">&#45;cbmc/diffblue&#45;cbmc/src</text>
<text text-anchor="middle" x="1165.5" y="-7.5" font-family="Helvetica,sans-Serif" font-size="10.00">/goto&#45;cc/goto_cc_main.cpp</text>
</a>
</g>
</g>
<!-- Node2&#45;&gt;Node6 -->
<g id="edge6" class="edge">
<title>Node2&#45;&gt;Node6</title>
<path fill="none" stroke="midnightblue" d="M273.16,-151.74C290.99,-142.45 311.01,-131.35 328.5,-120 354.01,-103.45 354.11,-88.89 382.5,-78 510.54,-28.89 921.17,-22.39 1090.95,-21.85"/>
<polygon fill="midnightblue" stroke="midnightblue" points="271.35,-148.73 264.06,-156.42 274.55,-154.96 271.35,-148.73"/>
</g>
<!-- Node5 -->
<g id="node5" class="node">
<title>Node5</title>
<g id="a_node5"><a xlink:href="armcc__mode_8cpp.html" target="_top" xlink:title="Command line option container.">
<polygon fill="none" stroke="black" points="0,-0.5 0,-41.5 149,-41.5 149,-0.5 0,-0.5"/>
<text text-anchor="start" x="8" y="-29.5" font-family="Helvetica,sans-Serif" font-size="10.00">/home/runner/work/diffblue</text>
<text text-anchor="start" x="8" y="-18.5" font-family="Helvetica,sans-Serif" font-size="10.00">&#45;cbmc/diffblue&#45;cbmc/src</text>
<text text-anchor="middle" x="74.5" y="-7.5" font-family="Helvetica,sans-Serif" font-size="10.00">/goto&#45;cc/armcc_mode.cpp</text>
</a>
</g>
</g>
<!-- Node4&#45;&gt;Node5 -->
<g id="edge4" class="edge">
<title>Node4&#45;&gt;Node5</title>
<path fill="none" stroke="midnightblue" d="M74.5,-68.3C74.5,-59.3 74.5,-49.65 74.5,-41.51"/>
<polygon fill="midnightblue" stroke="midnightblue" points="71,-68.43 74.5,-78.43 78,-68.43 71,-68.43"/>
</g>
<!-- Node4&#45;&gt;Node6 -->
<g id="edge5" class="edge">
<title>Node4&#45;&gt;Node6</title>
<path fill="none" stroke="midnightblue" d="M159.18,-77.89C511.62,-27 924.49,-21.53 1090.74,-21.55"/>
<polygon fill="midnightblue" stroke="midnightblue" points="158.42,-74.46 149.03,-79.37 159.43,-81.39 158.42,-74.46"/>
</g>
<!-- Node7&#45;&gt;Node6 -->
<g id="edge9" class="edge">
<title>Node7&#45;&gt;Node6</title>
<path fill="none" stroke="midnightblue" d="M564.61,-146.63C571.73,-123.95 585.09,-93.86 608.5,-78 647.57,-51.52 948.05,-32.98 1090.73,-25.58"/>
<polygon fill="midnightblue" stroke="midnightblue" points="561.19,-145.87 561.76,-156.44 567.91,-147.82 561.19,-145.87"/>
</g>
<!-- Node8 -->
<g id="node8" class="node">
<title>Node8</title>
<g id="a_node8"><a xlink:href="as86__cmdline_8cpp.html" target="_top" xlink:title="A special command line object for as86 (of Bruce&#39;s C Compiler)">
<polygon fill="none" stroke="black" points="618,-78.5 618,-119.5 767,-119.5 767,-78.5 618,-78.5"/>
<text text-anchor="start" x="626" y="-107.5" font-family="Helvetica,sans-Serif" font-size="10.00">/home/runner/work/diffblue</text>
<text text-anchor="start" x="626" y="-96.5" font-family="Helvetica,sans-Serif" font-size="10.00">&#45;cbmc/diffblue&#45;cbmc/src</text>
<text text-anchor="middle" x="692.5" y="-85.5" font-family="Helvetica,sans-Serif" font-size="10.00">/goto&#45;cc/as86_cmdline.cpp</text>
</a>
</g>
</g>
<!-- Node7&#45;&gt;Node8 -->
<g id="edge8" class="edge">
<title>Node7&#45;&gt;Node8</title>
<path fill="none" stroke="midnightblue" d="M601.05,-151.49C619.43,-141.13 640.55,-129.25 657.85,-119.51"/>
<polygon fill="midnightblue" stroke="midnightblue" points="599.26,-148.47 592.27,-156.43 602.7,-154.57 599.26,-148.47"/>
</g>
<!-- Node9&#45;&gt;Node6 -->
<g id="edge12" class="edge">
<title>Node9&#45;&gt;Node6</title>
<path fill="none" stroke="midnightblue" d="M1112.84,-151.07C1125.61,-142.85 1137.97,-132.53 1146.5,-120 1162.5,-96.51 1165.8,-62.89 1166.1,-41.77"/>
<polygon fill="midnightblue" stroke="midnightblue" points="1110.73,-148.26 1103.98,-156.42 1114.35,-154.25 1110.73,-148.26"/>
</g>
<!-- Node10 -->
<g id="node10" class="node">
<title>Node10</title>
<g id="a_node10"><a xlink:href="as__cmdline_8cpp.html" target="_top" xlink:title="A special command line object for GNU Assembler.">
<polygon fill="none" stroke="black" points="989,-78.5 989,-119.5 1138,-119.5 1138,-78.5 989,-78.5"/>
<text text-anchor="start" x="997" y="-107.5" font-family="Helvetica,sans-Serif" font-size="10.00">/home/runner/work/diffblue</text>
<text text-anchor="start" x="997" y="-96.5" font-family="Helvetica,sans-Serif" font-size="10.00">&#45;cbmc/diffblue&#45;cbmc/src</text>
<text text-anchor="middle" x="1063.5" y="-85.5" font-family="Helvetica,sans-Serif" font-size="10.00">/goto&#45;cc/as_cmdline.cpp</text>
</a>
</g>
</g>
<!-- Node9&#45;&gt;Node10 -->
<g id="edge11" class="edge">
<title>Node9&#45;&gt;Node10</title>
<path fill="none" stroke="midnightblue" d="M1060.45,-146.3C1061.05,-137.3 1061.68,-127.65 1062.22,-119.51"/>
<polygon fill="midnightblue" stroke="midnightblue" points="1056.95,-146.22 1059.79,-156.43 1063.94,-146.68 1056.95,-146.22"/>
</g>
<!-- Node12&#45;&gt;Node6 -->
<g id="edge16" class="edge">
<title>Node12&#45;&gt;Node6</title>
<path fill="none" stroke="midnightblue" d="M385.82,-146.01C384.23,-123.94 386.36,-94.93 404.5,-78 453.94,-31.83 908.92,-23.69 1090.84,-22.28"/>
<polygon fill="midnightblue" stroke="midnightblue" points="382.36,-146.61 386.84,-156.21 389.33,-145.91 382.36,-146.61"/>
</g>
<!-- Node13 -->
<g id="node13" class="node">
<title>Node13</title>
<g id="a_node13"><a xlink:href="bcc__cmdline_8cpp.html" target="_top" xlink:title="A special command line object for Bruce&#39;s C Compiler.">
<polygon fill="none" stroke="black" points="414,-78.5 414,-119.5 563,-119.5 563,-78.5 414,-78.5"/>
<text text-anchor="start" x="422" y="-107.5" font-family="Helvetica,sans-Serif" font-size="10.00">/home/runner/work/diffblue</text>
<text text-anchor="start" x="422" y="-96.5" font-family="Helvetica,sans-Serif" font-size="10.00">&#45;cbmc/diffblue&#45;cbmc/src</text>
<text text-anchor="middle" x="488.5" y="-85.5" font-family="Helvetica,sans-Serif" font-size="10.00">/goto&#45;cc/bcc_cmdline.cpp</text>
</a>
</g>
</g>
<!-- Node12&#45;&gt;Node13 -->
<g id="edge15" class="edge">
<title>Node12&#45;&gt;Node13</title>
<path fill="none" stroke="midnightblue" d="M423.94,-150.06C436.85,-140.06 451.36,-128.8 463.35,-119.51"/>
<polygon fill="midnightblue" stroke="midnightblue" points="421.49,-147.53 415.74,-156.43 425.78,-153.07 421.49,-147.53"/>
</g>
<!-- Node14&#45;&gt;Node6 -->
<g id="edge22" class="edge">
<title>Node14&#45;&gt;Node6</title>
<path fill="none" stroke="midnightblue" d="M1654.05,-155.99C1560.85,-137.52 1534.31,-142.75 1446.5,-120 1363.22,-98.43 1269.41,-63.46 1213.99,-41.65"/>
<polygon fill="midnightblue" stroke="midnightblue" points="1653.4,-159.43 1663.9,-157.98 1654.79,-152.57 1653.4,-159.43"/>
</g>
<!-- Node15 -->
<g id="node15" class="node">
<title>Node15</title>
<g id="a_node15"><a xlink:href="cw__mode_8h.html" target="_top" xlink:title="Base class for command line interpretation.">
<polygon fill="none" stroke="black" points="1623,-78.5 1623,-119.5 1772,-119.5 1772,-78.5 1623,-78.5"/>
<text text-anchor="start" x="1631" y="-107.5" font-family="Helvetica,sans-Serif" font-size="10.00">/home/runner/work/diffblue</text>
<text text-anchor="start" x="1631" y="-96.5" font-family="Helvetica,sans-Serif" font-size="10.00">&#45;cbmc/diffblue&#45;cbmc/src</text>
<text text-anchor="middle" x="1697.5" y="-85.5" font-family="Helvetica,sans-Serif" font-size="10.00">/goto&#45;cc/cw_mode.h</text>
</a>
</g>
</g>
<!-- Node14&#45;&gt;Node15 -->
<g id="edge18" class="edge">
<title>Node14&#45;&gt;Node15</title>
<path fill="none" stroke="midnightblue" d="M1723.11,-147.47C1718.08,-138.14 1712.61,-128.01 1708.02,-119.51"/>
<polygon fill="midnightblue" stroke="midnightblue" points="1720.11,-149.29 1727.94,-156.43 1726.27,-145.97 1720.11,-149.29"/>
</g>
<!-- Node17 -->
<g id="node17" class="node">
<title>Node17</title>
<g id="a_node17"><a xlink:href="gcc__cmdline_8cpp.html" target="_top" xlink:title="A special command line object for the gcc&#45;like options.">
<polygon fill="none" stroke="black" points="1456,-78.5 1456,-119.5 1605,-119.5 1605,-78.5 1456,-78.5"/>
<text text-anchor="start" x="1464" y="-107.5" font-family="Helvetica,sans-Serif" font-size="10.00">/home/runner/work/diffblue</text>
<text text-anchor="start" x="1464" y="-96.5" font-family="Helvetica,sans-Serif" font-size="10.00">&#45;cbmc/diffblue&#45;cbmc/src</text>
<text text-anchor="middle" x="1530.5" y="-85.5" font-family="Helvetica,sans-Serif" font-size="10.00">/goto&#45;cc/gcc_cmdline.cpp</text>
</a>
</g>
</g>
<!-- Node14&#45;&gt;Node17 -->
<g id="edge21" class="edge">
<title>Node14&#45;&gt;Node17</title>
<path fill="none" stroke="midnightblue" d="M1675.24,-152.89C1646.05,-142.22 1611.76,-129.69 1583.88,-119.51"/>
<polygon fill="midnightblue" stroke="midnightblue" points="1674.34,-156.28 1684.93,-156.43 1676.74,-149.71 1674.34,-156.28"/>
</g>
<!-- Node15&#45;&gt;Node6 -->
<g id="edge20" class="edge">
<title>Node15&#45;&gt;Node6</title>
<path fill="none" stroke="midnightblue" d="M1613.08,-78.03C1475.99,-53.62 1327.57,-37.36 1240.39,-28.83"/>
<polygon fill="midnightblue" stroke="midnightblue" points="1612.47,-81.47 1622.93,-79.8 1613.71,-74.58 1612.47,-81.47"/>
</g>
<!-- Node16 -->
<g id="node16" class="node">
<title>Node16</title>
<g id="a_node16"><a xlink:href="cw__mode_8cpp.html" target="_top" xlink:title="Command line option container.">
<polygon fill="none" stroke="black" points="1623,-0.5 1623,-41.5 1772,-41.5 1772,-0.5 1623,-0.5"/>
<text text-anchor="start" x="1631" y="-29.5" font-family="Helvetica,sans-Serif" font-size="10.00">/home/runner/work/diffblue</text>
<text text-anchor="start" x="1631" y="-18.5" font-family="Helvetica,sans-Serif" font-size="10.00">&#45;cbmc/diffblue&#45;cbmc/src</text>
<text text-anchor="middle" x="1697.5" y="-7.5" font-family="Helvetica,sans-Serif" font-size="10.00">/goto&#45;cc/cw_mode.cpp</text>
</a>
</g>
</g>
<!-- Node15&#45;&gt;Node16 -->
<g id="edge19" class="edge">
<title>Node15&#45;&gt;Node16</title>
<path fill="none" stroke="midnightblue" d="M1697.5,-68.3C1697.5,-59.3 1697.5,-49.65 1697.5,-41.51"/>
<polygon fill="midnightblue" stroke="midnightblue" points="1694,-68.43 1697.5,-78.43 1701,-68.43 1694,-68.43"/>
</g>
<!-- Node21&#45;&gt;Node6 -->
<g id="edge27" class="edge">
<title>Node21&#45;&gt;Node6</title>
<path fill="none" stroke="midnightblue" d="M916.27,-148.99C924.63,-139.82 934,-129.49 942.5,-120 959.1,-101.47 958.56,-91.44 979.5,-78 1012.99,-56.51 1055.13,-42.93 1090.82,-34.54"/>
<polygon fill="midnightblue" stroke="midnightblue" points="913.68,-146.63 909.52,-156.38 918.85,-151.35 913.68,-146.63"/>
</g>
<!-- Node22 -->
<g id="node22" class="node">
<title>Node22</title>
<g id="a_node22"><a xlink:href="ld__cmdline_8cpp.html" target="_top" xlink:title="A special command line object for the ld&#45;like options.">
<polygon fill="none" stroke="black" points="785,-78.5 785,-119.5 934,-119.5 934,-78.5 785,-78.5"/>
<text text-anchor="start" x="793" y="-107.5" font-family="Helvetica,sans-Serif" font-size="10.00">/home/runner/work/diffblue</text>
<text text-anchor="start" x="793" y="-96.5" font-family="Helvetica,sans-Serif" font-size="10.00">&#45;cbmc/diffblue&#45;cbmc/src</text>
<text text-anchor="middle" x="859.5" y="-85.5" font-family="Helvetica,sans-Serif" font-size="10.00">/goto&#45;cc/ld_cmdline.cpp</text>
</a>
</g>
</g>
<!-- Node21&#45;&gt;Node22 -->
<g id="edge28" class="edge">
<title>Node21&#45;&gt;Node22</title>
<path fill="none" stroke="midnightblue" d="M879.36,-147.17C875.47,-137.93 871.26,-127.92 867.71,-119.51"/>
<polygon fill="midnightblue" stroke="midnightblue" points="876.15,-148.57 883.26,-156.43 882.6,-145.85 876.15,-148.57"/>
</g>
<!-- Node24&#45;&gt;Node6 -->
<g id="edge31" class="edge">
<title>Node24&#45;&gt;Node6</title>
<path fill="none" stroke="midnightblue" d="M1987.72,-155.97C1910.81,-140.55 1882.7,-156.93 1818.5,-120 1796.68,-107.45 1803.02,-89.24 1780.5,-78 1733.17,-54.37 1393.24,-33.89 1240.04,-25.75"/>
<polygon fill="midnightblue" stroke="midnightblue" points="1987.36,-159.47 1997.87,-158.13 1988.82,-152.62 1987.36,-159.47"/>
</g>
<!-- Node25 -->
<g id="node25" class="node">
<title>Node25</title>
<g id="a_node25"><a xlink:href="ms__cl__cmdline_8cpp.html" target="_top" xlink:title="A special command line object for the CL options.">
<polygon fill="none" stroke="black" points="1827.5,-78.5 1827.5,-119.5 1979.5,-119.5 1979.5,-78.5 1827.5,-78.5"/>
<text text-anchor="start" x="1835.5" y="-107.5" font-family="Helvetica,sans-Serif" font-size="10.00">/home/runner/work/diffblue</text>
<text text-anchor="start" x="1835.5" y="-96.5" font-family="Helvetica,sans-Serif" font-size="10.00">&#45;cbmc/diffblue&#45;cbmc/src</text>
<text text-anchor="middle" x="1903.5" y="-85.5" font-family="Helvetica,sans-Serif" font-size="10.00">/goto&#45;cc/ms_cl_cmdline.cpp</text>
</a>
</g>
</g>
<!-- Node24&#45;&gt;Node25 -->
<g id="edge32" class="edge">
<title>Node24&#45;&gt;Node25</title>
<path fill="none" stroke="midnightblue" d="M2019.55,-152.19C1996.17,-141.67 1969.03,-129.47 1946.87,-119.51"/>
<polygon fill="midnightblue" stroke="midnightblue" points="2018.42,-155.52 2028.98,-156.43 2021.29,-149.13 2018.42,-155.52"/>
</g>
<!-- Node26 -->
<g id="node26" class="node">
<title>Node26</title>
<g id="a_node26"><a xlink:href="ms__cl__mode_8h.html" target="_top" xlink:title="Visual Studio CL Mode.">
<polygon fill="none" stroke="black" points="1998,-78.5 1998,-119.5 2147,-119.5 2147,-78.5 1998,-78.5"/>
<text text-anchor="start" x="2006" y="-107.5" font-family="Helvetica,sans-Serif" font-size="10.00">/home/runner/work/diffblue</text>
<text text-anchor="start" x="2006" y="-96.5" font-family="Helvetica,sans-Serif" font-size="10.00">&#45;cbmc/diffblue&#45;cbmc/src</text>
<text text-anchor="middle" x="2072.5" y="-85.5" font-family="Helvetica,sans-Serif" font-size="10.00">/goto&#45;cc/ms_cl_mode.h</text>
</a>
</g>
</g>
<!-- Node24&#45;&gt;Node26 -->
<g id="edge33" class="edge">
<title>Node24&#45;&gt;Node26</title>
<path fill="none" stroke="midnightblue" d="M2072.5,-146.3C2072.5,-137.3 2072.5,-127.65 2072.5,-119.51"/>
<polygon fill="midnightblue" stroke="midnightblue" points="2069,-146.43 2072.5,-156.43 2076,-146.43 2069,-146.43"/>
</g>
<!-- Node26&#45;&gt;Node6 -->
<g id="edge34" class="edge">
<title>Node26&#45;&gt;Node6</title>
<path fill="none" stroke="midnightblue" d="M1987.75,-78.07C1826.94,-55.28 1410.94,-33.73 1240.17,-25.49"/>
<polygon fill="midnightblue" stroke="midnightblue" points="1987.57,-81.59 1997.97,-79.58 1988.59,-74.66 1987.57,-81.59"/>
</g>
<!-- Node27 -->
<g id="node27" class="node">
<title>Node27</title>
<g id="a_node27"><a xlink:href="ms__cl__mode_8cpp.html" target="_top" xlink:title="Visual Studio CL Mode.">
<polygon fill="none" stroke="black" points="1998,-0.5 1998,-41.5 2147,-41.5 2147,-0.5 1998,-0.5"/>
<text text-anchor="start" x="2006" y="-29.5" font-family="Helvetica,sans-Serif" font-size="10.00">/home/runner/work/diffblue</text>
<text text-anchor="start" x="2006" y="-18.5" font-family="Helvetica,sans-Serif" font-size="10.00">&#45;cbmc/diffblue&#45;cbmc/src</text>
<text text-anchor="middle" x="2072.5" y="-7.5" font-family="Helvetica,sans-Serif" font-size="10.00">/goto&#45;cc/ms_cl_mode.cpp</text>
</a>
</g>
</g>
<!-- Node26&#45;&gt;Node27 -->
<g id="edge35" class="edge">
<title>Node26&#45;&gt;Node27</title>
<path fill="none" stroke="midnightblue" d="M2072.5,-68.3C2072.5,-59.3 2072.5,-49.65 2072.5,-41.51"/>
<polygon fill="midnightblue" stroke="midnightblue" points="2069,-68.43 2072.5,-78.43 2076,-68.43 2069,-68.43"/>
</g>
<!-- Node28&#45;&gt;Node6 -->
<g id="edge37" class="edge">
<title>Node28&#45;&gt;Node6</title>
<path fill="none" stroke="midnightblue" d="M2216.66,-148.3C2193.23,-120.04 2159.64,-80.05 2155.5,-78 2135.02,-67.87 1467.18,-36.01 1240.17,-25.44"/>
<polygon fill="midnightblue" stroke="midnightblue" points="2214.19,-150.8 2223.27,-156.27 2219.58,-146.34 2214.19,-150.8"/>
</g>
<!-- Node29 -->
<g id="node29" class="node">
<title>Node29</title>
<g id="a_node29"><a xlink:href="ms__link__cmdline_8cpp.html" target="_top" xlink:title="A special command line object for LINK options.">
<polygon fill="none" stroke="black" points="2203,-78.5 2203,-119.5 2364,-119.5 2364,-78.5 2203,-78.5"/>
<text text-anchor="start" x="2211" y="-107.5" font-family="Helvetica,sans-Serif" font-size="10.00">/home/runner/work/diffblue</text>
<text text-anchor="start" x="2211" y="-96.5" font-family="Helvetica,sans-Serif" font-size="10.00">&#45;cbmc/diffblue&#45;cbmc/src</text>
<text text-anchor="middle" x="2283.5" y="-85.5" font-family="Helvetica,sans-Serif" font-size="10.00">/goto&#45;cc/ms_link_cmdline.cpp</text>
</a>
</g>
</g>
<!-- Node28&#45;&gt;Node29 -->
<g id="edge38" class="edge">
<title>Node28&#45;&gt;Node29</title>
<path fill="none" stroke="midnightblue" d="M2255.85,-147.76C2261.3,-138.35 2267.23,-128.1 2272.21,-119.51"/>
<polygon fill="midnightblue" stroke="midnightblue" points="2252.81,-146.02 2250.83,-156.43 2258.87,-149.53 2252.81,-146.02"/>
</g>
</g>
</svg>
