<?xml version="1.0" encoding="UTF-8" standalone="no"?>
<!DOCTYPE svg PUBLIC "-//W3C//DTD SVG 1.1//EN"
 "http://www.w3.org/Graphics/SVG/1.1/DTD/svg11.dtd">
<!-- Generated by graphviz version 2.43.0 (0)
 -->
<!-- Title: /home/runner/work/diffblue&#45;cbmc/diffblue&#45;cbmc/src/goto&#45;symex/goto_symex_can_forward_propagate.h Pages: 1 -->
<svg width="549pt" height="139pt"
 viewBox="0.00 0.00 549.00 139.00" xmlns="http://www.w3.org/2000/svg" xmlns:xlink="http://www.w3.org/1999/xlink">
<g id="graph0" class="graph" transform="scale(1 1) rotate(0) translate(4 135)">
<title>/home/runner/work/diffblue&#45;cbmc/diffblue&#45;cbmc/src/goto&#45;symex/goto_symex_can_forward_propagate.h</title>
<!-- Node1 -->
<g id="node1" class="node">
<title>Node1</title>
<g id="a_node1"><a xlink:title="GOTO Symex constant propagation.">
<polygon fill="#bfbfbf" stroke="black" points="184.5,-78.5 184.5,-130.5 348.5,-130.5 348.5,-78.5 184.5,-78.5"/>
<text text-anchor="start" x="192.5" y="-118.5" font-family="Helvetica,sans-Serif" font-size="10.00">/home/runner/work/diffblue</text>
<text text-anchor="start" x="192.5" y="-107.5" font-family="Helvetica,sans-Serif" font-size="10.00">&#45;cbmc/diffblue&#45;cbmc/src</text>
<text text-anchor="start" x="192.5" y="-96.5" font-family="Helvetica,sans-Serif" font-size="10.00">/goto&#45;symex/goto_symex_can</text>
<text text-anchor="middle" x="266.5" y="-85.5" font-family="Helvetica,sans-Serif" font-size="10.00">_forward_propagate.h</text>
</a>
</g>
</g>
<!-- Node2 -->
<g id="node2" class="node">
<title>Node2</title>
<g id="a_node2"><a xlink:href="goto__state_8cpp.html" target="_top" xlink:title=" ">
<polygon fill="none" stroke="black" points="0,-0.5 0,-41.5 153,-41.5 153,-0.5 0,-0.5"/>
<text text-anchor="start" x="8" y="-29.5" font-family="Helvetica,sans-Serif" font-size="10.00">/home/runner/work/diffblue</text>
<text text-anchor="start" x="8" y="-18.5" font-family="Helvetica,sans-Serif" font-size="10.00">&#45;cbmc/diffblue&#45;cbmc/src</text>
<text text-anchor="middle" x="76.5" y="-7.5" font-family="Helvetica,sans-Serif" font-size="10.00">/goto&#45;symex/goto_state.cpp</text>
</a>
</g>
</g>
<!-- Node1&#45;&gt;Node2 -->
<g id="edge1" class="edge">
<title>Node1&#45;&gt;Node2</title>
<path fill="none" stroke="midnightblue" d="M198.95,-74.52C173.44,-63.58 145.04,-51.4 122.02,-41.52"/>
<polygon fill="midnightblue" stroke="midnightblue" points="197.63,-77.77 208.2,-78.49 200.39,-71.33 197.63,-77.77"/>
</g>
<!-- Node3 -->
<g id="node3" class="node">
<title>Node3</title>
<g id="a_node3"><a xlink:href="goto__symex__state_8cpp.html" target="_top" xlink:title="Symbolic Execution.">
<polygon fill="none" stroke="black" points="171,-0.5 171,-41.5 362,-41.5 362,-0.5 171,-0.5"/>
<text text-anchor="start" x="179" y="-29.5" font-family="Helvetica,sans-Serif" font-size="10.00">/home/runner/work/diffblue</text>
<text text-anchor="start" x="179" y="-18.5" font-family="Helvetica,sans-Serif" font-size="10.00">&#45;cbmc/diffblue&#45;cbmc/src</text>
<text text-anchor="middle" x="266.5" y="-7.5" font-family="Helvetica,sans-Serif" font-size="10.00">/goto&#45;symex/goto_symex_state.cpp</text>
</a>
</g>
</g>
<!-- Node1&#45;&gt;Node3 -->
<g id="edge2" class="edge">
<title>Node1&#45;&gt;Node3</title>
<path fill="none" stroke="midnightblue" d="M266.5,-68.15C266.5,-59.05 266.5,-49.6 266.5,-41.63"/>
<polygon fill="midnightblue" stroke="midnightblue" points="263,-68.16 266.5,-78.16 270,-68.16 263,-68.16"/>
</g>
<!-- Node4 -->
<g id="node4" class="node">
<title>Node4</title>
<g id="a_node4"><a xlink:href="symex__goto_8cpp.html" target="_top" xlink:title="Symbolic Execution.">
<polygon fill="none" stroke="black" points="380,-0.5 380,-41.5 541,-41.5 541,-0.5 380,-0.5"/>
<text text-anchor="start" x="388" y="-29.5" font-family="Helvetica,sans-Serif" font-size="10.00">/home/runner/work/diffblue</text>
<text text-anchor="start" x="388" y="-18.5" font-family="Helvetica,sans-Serif" font-size="10.00">&#45;cbmc/diffblue&#45;cbmc/src</text>
<text text-anchor="middle" x="460.5" y="-7.5" font-family="Helvetica,sans-Serif" font-size="10.00">/goto&#45;symex/symex_goto.cpp</text>
</a>
</g>
</g>
<!-- Node1&#45;&gt;Node4 -->
<g id="edge3" class="edge">
<title>Node1&#45;&gt;Node4</title>
<path fill="none" stroke="midnightblue" d="M335.47,-74.52C361.52,-63.58 390.52,-51.4 414.03,-41.52"/>
<polygon fill="midnightblue" stroke="midnightblue" points="333.89,-71.39 326.02,-78.49 336.6,-77.85 333.89,-71.39"/>
</g>
</g>
</svg>
