<?xml version="1.0" encoding="UTF-8" standalone="no"?>
<!DOCTYPE svg PUBLIC "-//W3C//DTD SVG 1.1//EN"
 "http://www.w3.org/Graphics/SVG/1.1/DTD/svg11.dtd">
<!-- Generated by graphviz version 2.43.0 (0)
 -->
<!-- Title: /home/runner/work/diffblue&#45;cbmc/diffblue&#45;cbmc/src/ansi&#45;c/goto&#45;conversion/goto_convert_functions.h Pages: 1 -->
<svg width="3362pt" height="428pt"
 viewBox="0.00 0.00 3361.50 428.00" xmlns="http://www.w3.org/2000/svg" xmlns:xlink="http://www.w3.org/1999/xlink">
<g id="graph0" class="graph" transform="scale(1 1) rotate(0) translate(4 424)">
<title>/home/runner/work/diffblue&#45;cbmc/diffblue&#45;cbmc/src/ansi&#45;c/goto&#45;conversion/goto_convert_functions.h</title>
<!-- Node1 -->
<g id="node1" class="node">
<title>Node1</title>
<g id="a_node1"><a xlink:title="Goto Programs with Functions.">
<polygon fill="#bfbfbf" stroke="black" points="1631,-367.5 1631,-419.5 1786,-419.5 1786,-367.5 1631,-367.5"/>
<text text-anchor="start" x="1639" y="-407.5" font-family="Helvetica,sans-Serif" font-size="10.00">/home/runner/work/diffblue</text>
<text text-anchor="start" x="1639" y="-396.5" font-family="Helvetica,sans-Serif" font-size="10.00">&#45;cbmc/diffblue&#45;cbmc/src</text>
<text text-anchor="start" x="1639" y="-385.5" font-family="Helvetica,sans-Serif" font-size="10.00">/ansi&#45;c/goto&#45;conversion/goto</text>
<text text-anchor="middle" x="1708.5" y="-374.5" font-family="Helvetica,sans-Serif" font-size="10.00">_convert_functions.h</text>
</a>
</g>
</g>
<!-- Node2 -->
<g id="node2" class="node">
<title>Node2</title>
<g id="a_node2"><a xlink:href="goto__convert__functions_8cpp.html" target="_top" xlink:title=" ">
<polygon fill="none" stroke="black" points="0,-278.5 0,-330.5 155,-330.5 155,-278.5 0,-278.5"/>
<text text-anchor="start" x="8" y="-318.5" font-family="Helvetica,sans-Serif" font-size="10.00">/home/runner/work/diffblue</text>
<text text-anchor="start" x="8" y="-307.5" font-family="Helvetica,sans-Serif" font-size="10.00">&#45;cbmc/diffblue&#45;cbmc/src</text>
<text text-anchor="start" x="8" y="-296.5" font-family="Helvetica,sans-Serif" font-size="10.00">/ansi&#45;c/goto&#45;conversion/goto</text>
<text text-anchor="middle" x="77.5" y="-285.5" font-family="Helvetica,sans-Serif" font-size="10.00">_convert_functions.cpp</text>
</a>
</g>
</g>
<!-- Node1&#45;&gt;Node2 -->
<g id="edge1" class="edge">
<title>Node1&#45;&gt;Node2</title>
<path fill="none" stroke="midnightblue" d="M1620.75,-391.83C1337.25,-389.22 447.9,-377.45 164.5,-331 161.39,-330.49 158.24,-329.91 155.07,-329.26"/>
<polygon fill="midnightblue" stroke="midnightblue" points="1620.95,-395.33 1630.98,-391.92 1621.01,-388.33 1620.95,-395.33"/>
</g>
<!-- Node3 -->
<g id="node3" class="node">
<title>Node3</title>
<g id="a_node3"><a xlink:href="link__to__library_8cpp.html" target="_top" xlink:title="Library Linking.">
<polygon fill="none" stroke="black" points="173.5,-278.5 173.5,-330.5 325.5,-330.5 325.5,-278.5 173.5,-278.5"/>
<text text-anchor="start" x="181.5" y="-318.5" font-family="Helvetica,sans-Serif" font-size="10.00">/home/runner/work/diffblue</text>
<text text-anchor="start" x="181.5" y="-307.5" font-family="Helvetica,sans-Serif" font-size="10.00">&#45;cbmc/diffblue&#45;cbmc/src</text>
<text text-anchor="start" x="181.5" y="-296.5" font-family="Helvetica,sans-Serif" font-size="10.00">/ansi&#45;c/goto&#45;conversion/link</text>
<text text-anchor="middle" x="249.5" y="-285.5" font-family="Helvetica,sans-Serif" font-size="10.00">_to_library.cpp</text>
</a>
</g>
</g>
<!-- Node1&#45;&gt;Node3 -->
<g id="edge2" class="edge">
<title>Node1&#45;&gt;Node3</title>
<path fill="none" stroke="midnightblue" d="M1620.67,-391.4C1358.34,-387.65 583.36,-373.23 334.5,-331 331.61,-330.51 328.69,-329.95 325.74,-329.34"/>
<polygon fill="midnightblue" stroke="midnightblue" points="1620.86,-394.9 1630.91,-391.54 1620.96,-387.9 1620.86,-394.9"/>
</g>
<!-- Node4 -->
<g id="node4" class="node">
<title>Node4</title>
<g id="a_node4"><a xlink:href="compile_8cpp.html" target="_top" xlink:title="Compile and link source and object files.">
<polygon fill="none" stroke="black" points="344,-284 344,-325 493,-325 493,-284 344,-284"/>
<text text-anchor="start" x="352" y="-313" font-family="Helvetica,sans-Serif" font-size="10.00">/home/runner/work/diffblue</text>
<text text-anchor="start" x="352" y="-302" font-family="Helvetica,sans-Serif" font-size="10.00">&#45;cbmc/diffblue&#45;cbmc/src</text>
<text text-anchor="middle" x="418.5" y="-291" font-family="Helvetica,sans-Serif" font-size="10.00">/goto&#45;cc/compile.cpp</text>
</a>
</g>
</g>
<!-- Node1&#45;&gt;Node4 -->
<g id="edge3" class="edge">
<title>Node1&#45;&gt;Node4</title>
<path fill="none" stroke="midnightblue" d="M1620.67,-390.84C1380.54,-385.85 716.67,-368.93 501.5,-331 493.04,-329.51 484.23,-327.42 475.65,-325.07"/>
<polygon fill="midnightblue" stroke="midnightblue" points="1620.69,-394.34 1630.76,-391.05 1620.83,-387.34 1620.69,-394.34"/>
</g>
<!-- Node5 -->
<g id="node5" class="node">
<title>Node5</title>
<g id="a_node5"><a xlink:href="linker__script__merge_8cpp.html" target="_top" xlink:title=" ">
<polygon fill="none" stroke="black" points="511,-284 511,-325 686,-325 686,-284 511,-284"/>
<text text-anchor="start" x="519" y="-313" font-family="Helvetica,sans-Serif" font-size="10.00">/home/runner/work/diffblue</text>
<text text-anchor="start" x="519" y="-302" font-family="Helvetica,sans-Serif" font-size="10.00">&#45;cbmc/diffblue&#45;cbmc/src</text>
<text text-anchor="middle" x="598.5" y="-291" font-family="Helvetica,sans-Serif" font-size="10.00">/goto&#45;cc/linker_script_merge.cpp</text>
</a>
</g>
</g>
<!-- Node1&#45;&gt;Node5 -->
<g id="edge4" class="edge">
<title>Node1&#45;&gt;Node5</title>
<path fill="none" stroke="midnightblue" d="M1620.95,-393.03C1444.49,-392.81 1033.95,-385.82 694.5,-331 684.97,-329.46 675.01,-327.37 665.27,-325.05"/>
<polygon fill="midnightblue" stroke="midnightblue" points="1620.96,-396.53 1630.96,-393.03 1620.97,-389.53 1620.96,-396.53"/>
</g>
<!-- Node6 -->
<g id="node6" class="node">
<title>Node6</title>
<g id="a_node6"><a xlink:href="function__call__harness__generator_8cpp.html" target="_top" xlink:title=" ">
<polygon fill="none" stroke="black" points="704,-278.5 704,-330.5 853,-330.5 853,-278.5 704,-278.5"/>
<text text-anchor="start" x="712" y="-318.5" font-family="Helvetica,sans-Serif" font-size="10.00">/home/runner/work/diffblue</text>
<text text-anchor="start" x="712" y="-307.5" font-family="Helvetica,sans-Serif" font-size="10.00">&#45;cbmc/diffblue&#45;cbmc/src</text>
<text text-anchor="start" x="712" y="-296.5" font-family="Helvetica,sans-Serif" font-size="10.00">/goto&#45;harness/function_call</text>
<text text-anchor="middle" x="778.5" y="-285.5" font-family="Helvetica,sans-Serif" font-size="10.00">_harness_generator.cpp</text>
</a>
</g>
</g>
<!-- Node1&#45;&gt;Node6 -->
<g id="edge5" class="edge">
<title>Node1&#45;&gt;Node6</title>
<path fill="none" stroke="midnightblue" d="M1620.58,-392.61C1465.78,-391.37 1135.08,-382.28 861.5,-331 858.83,-330.5 856.13,-329.94 853.41,-329.34"/>
<polygon fill="midnightblue" stroke="midnightblue" points="1620.94,-396.11 1630.96,-392.69 1620.99,-389.11 1620.94,-396.11"/>
</g>
<!-- Node7 -->
<g id="node7" class="node">
<title>Node7</title>
<g id="a_node7"><a xlink:href="memory__snapshot__harness__generator_8cpp.html" target="_top" xlink:title=" ">
<polygon fill="none" stroke="black" points="871,-278.5 871,-330.5 1048,-330.5 1048,-278.5 871,-278.5"/>
<text text-anchor="start" x="879" y="-318.5" font-family="Helvetica,sans-Serif" font-size="10.00">/home/runner/work/diffblue</text>
<text text-anchor="start" x="879" y="-307.5" font-family="Helvetica,sans-Serif" font-size="10.00">&#45;cbmc/diffblue&#45;cbmc/src</text>
<text text-anchor="start" x="879" y="-296.5" font-family="Helvetica,sans-Serif" font-size="10.00">/goto&#45;harness/memory_snapshot</text>
<text text-anchor="middle" x="959.5" y="-285.5" font-family="Helvetica,sans-Serif" font-size="10.00">_harness_generator.cpp</text>
</a>
</g>
</g>
<!-- Node1&#45;&gt;Node7 -->
<g id="edge6" class="edge">
<title>Node1&#45;&gt;Node7</title>
<path fill="none" stroke="midnightblue" d="M1620.54,-388.34C1495.56,-381.47 1259.72,-365 1061.5,-331 1057.09,-330.24 1052.59,-329.4 1048.06,-328.49"/>
<polygon fill="midnightblue" stroke="midnightblue" points="1620.64,-391.85 1630.82,-388.89 1621.02,-384.86 1620.64,-391.85"/>
</g>
<!-- Node8 -->
<g id="node8" class="node">
<title>Node8</title>
<g id="a_node8"><a xlink:href="dfcc_8cpp.html" target="_top" xlink:title=" ">
<polygon fill="none" stroke="black" points="1001,-89.5 1001,-141.5 1150,-141.5 1150,-89.5 1001,-89.5"/>
<text text-anchor="start" x="1009" y="-129.5" font-family="Helvetica,sans-Serif" font-size="10.00">/home/runner/work/diffblue</text>
<text text-anchor="start" x="1009" y="-118.5" font-family="Helvetica,sans-Serif" font-size="10.00">&#45;cbmc/diffblue&#45;cbmc/src</text>
<text text-anchor="start" x="1009" y="-107.5" font-family="Helvetica,sans-Serif" font-size="10.00">/goto&#45;instrument/contracts</text>
<text text-anchor="middle" x="1075.5" y="-96.5" font-family="Helvetica,sans-Serif" font-size="10.00">/dynamic&#45;frames/dfcc.cpp</text>
</a>
</g>
</g>
<!-- Node1&#45;&gt;Node8 -->
<g id="edge7" class="edge">
<title>Node1&#45;&gt;Node8</title>
<path fill="none" stroke="midnightblue" d="M1620.35,-389.78C1459.32,-383.95 1130.73,-367.65 1094.5,-331 1044.56,-280.49 1058.28,-186.8 1068.68,-141.85"/>
<polygon fill="midnightblue" stroke="midnightblue" points="1620.59,-393.29 1630.71,-390.15 1620.84,-386.3 1620.59,-393.29"/>
</g>
<!-- Node9 -->
<g id="node9" class="node">
<title>Node9</title>
<g id="a_node9"><a xlink:href="dfcc__library_8cpp.html" target="_top" xlink:title=" ">
<polygon fill="none" stroke="black" points="1104,-278.5 1104,-330.5 1283,-330.5 1283,-278.5 1104,-278.5"/>
<text text-anchor="start" x="1112" y="-318.5" font-family="Helvetica,sans-Serif" font-size="10.00">/home/runner/work/diffblue</text>
<text text-anchor="start" x="1112" y="-307.5" font-family="Helvetica,sans-Serif" font-size="10.00">&#45;cbmc/diffblue&#45;cbmc/src</text>
<text text-anchor="start" x="1112" y="-296.5" font-family="Helvetica,sans-Serif" font-size="10.00">/goto&#45;instrument/contracts</text>
<text text-anchor="middle" x="1193.5" y="-285.5" font-family="Helvetica,sans-Serif" font-size="10.00">/dynamic&#45;frames/dfcc_library.cpp</text>
</a>
</g>
</g>
<!-- Node1&#45;&gt;Node9 -->
<g id="edge8" class="edge">
<title>Node1&#45;&gt;Node9</title>
<path fill="none" stroke="midnightblue" d="M1620.73,-382.36C1536.01,-371.91 1404.34,-353.93 1291.5,-331 1288.74,-330.44 1285.95,-329.85 1283.13,-329.24"/>
<polygon fill="midnightblue" stroke="midnightblue" points="1620.47,-385.85 1630.82,-383.59 1621.32,-378.9 1620.47,-385.85"/>
</g>
<!-- Node10 -->
<g id="node10" class="node">
<title>Node10</title>
<g id="a_node10"><a xlink:href="dfcc__swap__and__wrap_8h.html" target="_top" xlink:title="Given a function_id and contract_id, swaps its body to a function with a fresh mangled name,...">
<polygon fill="none" stroke="black" points="1301,-278.5 1301,-330.5 1516,-330.5 1516,-278.5 1301,-278.5"/>
<text text-anchor="start" x="1309" y="-318.5" font-family="Helvetica,sans-Serif" font-size="10.00">/home/runner/work/diffblue</text>
<text text-anchor="start" x="1309" y="-307.5" font-family="Helvetica,sans-Serif" font-size="10.00">&#45;cbmc/diffblue&#45;cbmc/src</text>
<text text-anchor="start" x="1309" y="-296.5" font-family="Helvetica,sans-Serif" font-size="10.00">/goto&#45;instrument/contracts</text>
<text text-anchor="middle" x="1408.5" y="-285.5" font-family="Helvetica,sans-Serif" font-size="10.00">/dynamic&#45;frames/dfcc_swap_and_wrap.h</text>
</a>
</g>
</g>
<!-- Node1&#45;&gt;Node10 -->
<g id="edge9" class="edge">
<title>Node1&#45;&gt;Node10</title>
<path fill="none" stroke="midnightblue" d="M1621.17,-367.17C1581.4,-355.64 1534.46,-342.03 1494.81,-330.53"/>
<polygon fill="midnightblue" stroke="midnightblue" points="1620.27,-370.56 1630.85,-369.98 1622.22,-363.84 1620.27,-370.56"/>
</g>
<!-- Node17 -->
<g id="node17" class="node">
<title>Node17</title>
<g id="a_node17"><a xlink:href="dfcc__utils_8cpp.html" target="_top" xlink:title=" ">
<polygon fill="none" stroke="black" points="1534.5,-278.5 1534.5,-330.5 1704.5,-330.5 1704.5,-278.5 1534.5,-278.5"/>
<text text-anchor="start" x="1542.5" y="-318.5" font-family="Helvetica,sans-Serif" font-size="10.00">/home/runner/work/diffblue</text>
<text text-anchor="start" x="1542.5" y="-307.5" font-family="Helvetica,sans-Serif" font-size="10.00">&#45;cbmc/diffblue&#45;cbmc/src</text>
<text text-anchor="start" x="1542.5" y="-296.5" font-family="Helvetica,sans-Serif" font-size="10.00">/goto&#45;instrument/contracts</text>
<text text-anchor="middle" x="1619.5" y="-285.5" font-family="Helvetica,sans-Serif" font-size="10.00">/dynamic&#45;frames/dfcc_utils.cpp</text>
</a>
</g>
</g>
<!-- Node1&#45;&gt;Node17 -->
<g id="edge17" class="edge">
<title>Node1&#45;&gt;Node17</title>
<path fill="none" stroke="midnightblue" d="M1675.33,-360.08C1665.37,-350.34 1654.59,-339.8 1645.18,-330.61"/>
<polygon fill="midnightblue" stroke="midnightblue" points="1673.16,-362.85 1682.76,-367.34 1678.05,-357.84 1673.16,-362.85"/>
</g>
<!-- Node18 -->
<g id="node18" class="node">
<title>Node18</title>
<g id="a_node18"><a xlink:href="memory__predicates_8cpp.html" target="_top" xlink:title="Predicates to specify memory footprint in function contracts.">
<polygon fill="none" stroke="black" points="1723,-278.5 1723,-330.5 1872,-330.5 1872,-278.5 1723,-278.5"/>
<text text-anchor="start" x="1731" y="-318.5" font-family="Helvetica,sans-Serif" font-size="10.00">/home/runner/work/diffblue</text>
<text text-anchor="start" x="1731" y="-307.5" font-family="Helvetica,sans-Serif" font-size="10.00">&#45;cbmc/diffblue&#45;cbmc/src</text>
<text text-anchor="start" x="1731" y="-296.5" font-family="Helvetica,sans-Serif" font-size="10.00">/goto&#45;instrument/contracts</text>
<text text-anchor="middle" x="1797.5" y="-285.5" font-family="Helvetica,sans-Serif" font-size="10.00">/memory_predicates.cpp</text>
</a>
</g>
</g>
<!-- Node1&#45;&gt;Node18 -->
<g id="edge18" class="edge">
<title>Node1&#45;&gt;Node18</title>
<path fill="none" stroke="midnightblue" d="M1741.67,-360.08C1751.63,-350.34 1762.41,-339.8 1771.82,-330.61"/>
<polygon fill="midnightblue" stroke="midnightblue" points="1738.95,-357.84 1734.24,-367.34 1743.84,-362.85 1738.95,-357.84"/>
</g>
<!-- Node19 -->
<g id="node19" class="node">
<title>Node19</title>
<g id="a_node19"><a xlink:href="generate__function__bodies_8cpp.html" target="_top" xlink:title=" ">
<polygon fill="none" stroke="black" points="1890,-278.5 1890,-330.5 2039,-330.5 2039,-278.5 1890,-278.5"/>
<text text-anchor="start" x="1898" y="-318.5" font-family="Helvetica,sans-Serif" font-size="10.00">/home/runner/work/diffblue</text>
<text text-anchor="start" x="1898" y="-307.5" font-family="Helvetica,sans-Serif" font-size="10.00">&#45;cbmc/diffblue&#45;cbmc/src</text>
<text text-anchor="start" x="1898" y="-296.5" font-family="Helvetica,sans-Serif" font-size="10.00">/goto&#45;instrument/generate</text>
<text text-anchor="middle" x="1964.5" y="-285.5" font-family="Helvetica,sans-Serif" font-size="10.00">_function_bodies.cpp</text>
</a>
</g>
</g>
<!-- Node1&#45;&gt;Node19 -->
<g id="edge19" class="edge">
<title>Node1&#45;&gt;Node19</title>
<path fill="none" stroke="midnightblue" d="M1791.96,-364.14C1823.85,-353.3 1859.96,-341.03 1890.87,-330.52"/>
<polygon fill="midnightblue" stroke="midnightblue" points="1790.54,-360.92 1782.2,-367.45 1792.8,-367.55 1790.54,-360.92"/>
</g>
<!-- Node20 -->
<g id="node20" class="node">
<title>Node20</title>
<g id="a_node20"><a xlink:href="stack__depth_8cpp.html" target="_top" xlink:title="Stack depth checks.">
<polygon fill="none" stroke="black" points="2057,-284 2057,-325 2238,-325 2238,-284 2057,-284"/>
<text text-anchor="start" x="2065" y="-313" font-family="Helvetica,sans-Serif" font-size="10.00">/home/runner/work/diffblue</text>
<text text-anchor="start" x="2065" y="-302" font-family="Helvetica,sans-Serif" font-size="10.00">&#45;cbmc/diffblue&#45;cbmc/src</text>
<text text-anchor="middle" x="2147.5" y="-291" font-family="Helvetica,sans-Serif" font-size="10.00">/goto&#45;instrument/stack_depth.cpp</text>
</a>
</g>
</g>
<!-- Node1&#45;&gt;Node20 -->
<g id="edge20" class="edge">
<title>Node1&#45;&gt;Node20</title>
<path fill="none" stroke="midnightblue" d="M1796.14,-378.34C1864.78,-366.83 1962.55,-349.51 2047.5,-331 2055.9,-329.17 2064.67,-327.13 2073.37,-325.02"/>
<polygon fill="midnightblue" stroke="midnightblue" points="1795.51,-374.9 1786.22,-380 1796.66,-381.8 1795.51,-374.9"/>
</g>
<!-- Node21 -->
<g id="node21" class="node">
<title>Node21</title>
<g id="a_node21"><a xlink:href="initialize__goto__model_8cpp.html" target="_top" xlink:title="Get a Goto Program.">
<polygon fill="none" stroke="black" points="2256,-278.5 2256,-330.5 2405,-330.5 2405,-278.5 2256,-278.5"/>
<text text-anchor="start" x="2264" y="-318.5" font-family="Helvetica,sans-Serif" font-size="10.00">/home/runner/work/diffblue</text>
<text text-anchor="start" x="2264" y="-307.5" font-family="Helvetica,sans-Serif" font-size="10.00">&#45;cbmc/diffblue&#45;cbmc/src</text>
<text text-anchor="start" x="2264" y="-296.5" font-family="Helvetica,sans-Serif" font-size="10.00">/goto&#45;programs/initialize</text>
<text text-anchor="middle" x="2330.5" y="-285.5" font-family="Helvetica,sans-Serif" font-size="10.00">_goto_model.cpp</text>
</a>
</g>
</g>
<!-- Node1&#45;&gt;Node21 -->
<g id="edge21" class="edge">
<title>Node1&#45;&gt;Node21</title>
<path fill="none" stroke="midnightblue" d="M1796.38,-387.35C1903.54,-379.95 2089.77,-363.47 2246.5,-331 2249.48,-330.38 2252.52,-329.7 2255.57,-328.98"/>
<polygon fill="midnightblue" stroke="midnightblue" points="1796,-383.87 1786.26,-388.04 1796.48,-390.85 1796,-383.87"/>
</g>
<!-- Node22 -->
<g id="node22" class="node">
<title>Node22</title>
<g id="a_node22"><a xlink:href="cegis__verifier_8cpp.html" target="_top" xlink:title="Verifier for Counterexample&#45;Guided Synthesis.">
<polygon fill="none" stroke="black" points="2423,-284 2423,-325 2612,-325 2612,-284 2423,-284"/>
<text text-anchor="start" x="2431" y="-313" font-family="Helvetica,sans-Serif" font-size="10.00">/home/runner/work/diffblue</text>
<text text-anchor="start" x="2431" y="-302" font-family="Helvetica,sans-Serif" font-size="10.00">&#45;cbmc/diffblue&#45;cbmc/src</text>
<text text-anchor="middle" x="2517.5" y="-291" font-family="Helvetica,sans-Serif" font-size="10.00">/goto&#45;synthesizer/cegis_verifier.cpp</text>
</a>
</g>
</g>
<!-- Node1&#45;&gt;Node22 -->
<g id="edge22" class="edge">
<title>Node1&#45;&gt;Node22</title>
<path fill="none" stroke="midnightblue" d="M1796.38,-389.17C1930.31,-383.11 2193.17,-367.4 2413.5,-331 2423.4,-329.36 2433.76,-327.28 2443.93,-325.02"/>
<polygon fill="midnightblue" stroke="midnightblue" points="1796.02,-385.68 1786.18,-389.62 1796.33,-392.67 1796.02,-385.68"/>
</g>
<!-- Node23 -->
<g id="node23" class="node">
<title>Node23</title>
<g id="a_node23"><a xlink:href="static__lifetime__init_8cpp.html" target="_top" xlink:title=" ">
<polygon fill="none" stroke="black" points="2630,-278.5 2630,-330.5 2779,-330.5 2779,-278.5 2630,-278.5"/>
<text text-anchor="start" x="2638" y="-318.5" font-family="Helvetica,sans-Serif" font-size="10.00">/home/runner/work/diffblue</text>
<text text-anchor="start" x="2638" y="-307.5" font-family="Helvetica,sans-Serif" font-size="10.00">&#45;cbmc/diffblue&#45;cbmc/src</text>
<text text-anchor="start" x="2638" y="-296.5" font-family="Helvetica,sans-Serif" font-size="10.00">/linking/static_lifetime</text>
<text text-anchor="middle" x="2704.5" y="-285.5" font-family="Helvetica,sans-Serif" font-size="10.00">_init.cpp</text>
</a>
</g>
</g>
<!-- Node1&#45;&gt;Node23 -->
<g id="edge23" class="edge">
<title>Node1&#45;&gt;Node23</title>
<path fill="none" stroke="midnightblue" d="M1796.1,-393.18C1959.57,-392.98 2321.58,-385.71 2620.5,-331 2623.5,-330.45 2626.54,-329.83 2629.6,-329.16"/>
<polygon fill="midnightblue" stroke="midnightblue" points="1796.1,-389.67 1786.1,-393.18 1796.1,-396.67 1796.1,-389.67"/>
</g>
<!-- Node24 -->
<g id="node24" class="node">
<title>Node24</title>
<g id="a_node24"><a xlink:href="symtab2gb__parse__options_8cpp.html" target="_top" xlink:title=" ">
<polygon fill="none" stroke="black" points="2797.5,-278.5 2797.5,-330.5 2961.5,-330.5 2961.5,-278.5 2797.5,-278.5"/>
<text text-anchor="start" x="2805.5" y="-318.5" font-family="Helvetica,sans-Serif" font-size="10.00">/home/runner/work/diffblue</text>
<text text-anchor="start" x="2805.5" y="-307.5" font-family="Helvetica,sans-Serif" font-size="10.00">&#45;cbmc/diffblue&#45;cbmc/src</text>
<text text-anchor="start" x="2805.5" y="-296.5" font-family="Helvetica,sans-Serif" font-size="10.00">/symtab2gb/symtab2gb_parse</text>
<text text-anchor="middle" x="2879.5" y="-285.5" font-family="Helvetica,sans-Serif" font-size="10.00">_options.cpp</text>
</a>
</g>
</g>
<!-- Node1&#45;&gt;Node24 -->
<g id="edge24" class="edge">
<title>Node1&#45;&gt;Node24</title>
<path fill="none" stroke="midnightblue" d="M1796.53,-389.91C2018.62,-382.97 2597.52,-362.37 2787.5,-331 2790.77,-330.46 2794.09,-329.85 2797.44,-329.18"/>
<polygon fill="midnightblue" stroke="midnightblue" points="1796.11,-386.42 1786.22,-390.23 1796.33,-393.41 1796.11,-386.42"/>
</g>
<!-- Node25 -->
<g id="node25" class="node">
<title>Node25</title>
<g id="a_node25"><a xlink:href="lazy__goto__functions__map_8h.html" target="_top" xlink:title="Author: Diffblue Ltd.">
<polygon fill="none" stroke="black" points="2979.5,-278.5 2979.5,-330.5 3137.5,-330.5 3137.5,-278.5 2979.5,-278.5"/>
<text text-anchor="start" x="2987.5" y="-318.5" font-family="Helvetica,sans-Serif" font-size="10.00">/home/runner/work/diffblue</text>
<text text-anchor="start" x="2987.5" y="-307.5" font-family="Helvetica,sans-Serif" font-size="10.00">&#45;cbmc/diffblue&#45;cbmc/jbmc</text>
<text text-anchor="start" x="2987.5" y="-296.5" font-family="Helvetica,sans-Serif" font-size="10.00">/src/java_bytecode/lazy_goto</text>
<text text-anchor="middle" x="3058.5" y="-285.5" font-family="Helvetica,sans-Serif" font-size="10.00">_functions_map.h</text>
</a>
</g>
</g>
<!-- Node1&#45;&gt;Node25 -->
<g id="edge25" class="edge">
<title>Node1&#45;&gt;Node25</title>
<path fill="none" stroke="midnightblue" d="M1796.39,-390.88C2044,-385.9 2744.02,-368.8 2970.5,-331 2973.32,-330.53 2976.19,-330 2979.07,-329.42"/>
<polygon fill="midnightblue" stroke="midnightblue" points="1796.29,-387.38 1786.36,-391.08 1796.43,-394.38 1796.29,-387.38"/>
</g>
<!-- Node29 -->
<g id="node29" class="node">
<title>Node29</title>
<g id="a_node29"><a xlink:href="jbmc__parse__options_8cpp.html" target="_top" xlink:title="JBMC Command Line Option Processing.">
<polygon fill="none" stroke="black" points="3112.5,-95 3112.5,-136 3294.5,-136 3294.5,-95 3112.5,-95"/>
<text text-anchor="start" x="3120.5" y="-124" font-family="Helvetica,sans-Serif" font-size="10.00">/home/runner/work/diffblue</text>
<text text-anchor="start" x="3120.5" y="-113" font-family="Helvetica,sans-Serif" font-size="10.00">&#45;cbmc/diffblue&#45;cbmc/jbmc</text>
<text text-anchor="middle" x="3203.5" y="-102" font-family="Helvetica,sans-Serif" font-size="10.00">/src/jbmc/jbmc_parse_options.cpp</text>
</a>
</g>
</g>
<!-- Node1&#45;&gt;Node29 -->
<g id="edge31" class="edge">
<title>Node1&#45;&gt;Node29</title>
<path fill="none" stroke="midnightblue" d="M1796.18,-391.59C2100.25,-388.08 3093.75,-373.39 3146.5,-331 3177.21,-306.32 3195.23,-184.19 3201.24,-136.05"/>
<polygon fill="midnightblue" stroke="midnightblue" points="1796.05,-388.09 1786.09,-391.71 1796.13,-395.09 1796.05,-388.09"/>
</g>
<!-- Node31 -->
<g id="node31" class="node">
<title>Node31</title>
<g id="a_node31"><a xlink:href="get__goto__model__from__c_8cpp.html" target="_top" xlink:title=" ">
<polygon fill="none" stroke="black" points="3193.5,-278.5 3193.5,-330.5 3353.5,-330.5 3353.5,-278.5 3193.5,-278.5"/>
<text text-anchor="start" x="3201.5" y="-318.5" font-family="Helvetica,sans-Serif" font-size="10.00">/home/runner/work/diffblue</text>
<text text-anchor="start" x="3201.5" y="-307.5" font-family="Helvetica,sans-Serif" font-size="10.00">&#45;cbmc/diffblue&#45;cbmc/unit</text>
<text text-anchor="start" x="3201.5" y="-296.5" font-family="Helvetica,sans-Serif" font-size="10.00">/testing&#45;utils/get_goto_model</text>
<text text-anchor="middle" x="3273.5" y="-285.5" font-family="Helvetica,sans-Serif" font-size="10.00">_from_c.cpp</text>
</a>
</g>
</g>
<!-- Node1&#45;&gt;Node31 -->
<g id="edge32" class="edge">
<title>Node1&#45;&gt;Node31</title>
<path fill="none" stroke="midnightblue" d="M1796.73,-391.39C2071.67,-387.53 2910.62,-372.56 3179.5,-331 3184.01,-330.3 3188.62,-329.47 3193.25,-328.53"/>
<polygon fill="midnightblue" stroke="midnightblue" points="1796.36,-387.9 1786.4,-391.53 1796.45,-394.89 1796.36,-387.9"/>
</g>
<!-- Node11 -->
<g id="node11" class="node">
<title>Node11</title>
<g id="a_node11"><a xlink:href="dfcc_8h.html" target="_top" xlink:title="Main class orchestrating the the whole program transformation for function contracts with Dynamic Fra...">
<polygon fill="none" stroke="black" points="1169,-184 1169,-236 1318,-236 1318,-184 1169,-184"/>
<text text-anchor="start" x="1177" y="-224" font-family="Helvetica,sans-Serif" font-size="10.00">/home/runner/work/diffblue</text>
<text text-anchor="start" x="1177" y="-213" font-family="Helvetica,sans-Serif" font-size="10.00">&#45;cbmc/diffblue&#45;cbmc/src</text>
<text text-anchor="start" x="1177" y="-202" font-family="Helvetica,sans-Serif" font-size="10.00">/goto&#45;instrument/contracts</text>
<text text-anchor="middle" x="1243.5" y="-191" font-family="Helvetica,sans-Serif" font-size="10.00">/dynamic&#45;frames/dfcc.h</text>
</a>
</g>
</g>
<!-- Node10&#45;&gt;Node11 -->
<g id="edge10" class="edge">
<title>Node10&#45;&gt;Node11</title>
<path fill="none" stroke="midnightblue" d="M1355.11,-273.57C1333.5,-261.45 1308.83,-247.62 1288.19,-236.05"/>
<polygon fill="midnightblue" stroke="midnightblue" points="1353.41,-276.63 1363.85,-278.47 1356.84,-270.53 1353.41,-276.63"/>
</g>
<!-- Node16 -->
<g id="node16" class="node">
<title>Node16</title>
<g id="a_node16"><a xlink:href="dfcc__swap__and__wrap_8cpp.html" target="_top" xlink:title=" ">
<polygon fill="none" stroke="black" points="1336,-178.5 1336,-241.5 1513,-241.5 1513,-178.5 1336,-178.5"/>
<text text-anchor="start" x="1344" y="-229.5" font-family="Helvetica,sans-Serif" font-size="10.00">/home/runner/work/diffblue</text>
<text text-anchor="start" x="1344" y="-218.5" font-family="Helvetica,sans-Serif" font-size="10.00">&#45;cbmc/diffblue&#45;cbmc/src</text>
<text text-anchor="start" x="1344" y="-207.5" font-family="Helvetica,sans-Serif" font-size="10.00">/goto&#45;instrument/contracts</text>
<text text-anchor="start" x="1344" y="-196.5" font-family="Helvetica,sans-Serif" font-size="10.00">/dynamic&#45;frames/dfcc_swap_and</text>
<text text-anchor="middle" x="1424.5" y="-185.5" font-family="Helvetica,sans-Serif" font-size="10.00">_wrap.cpp</text>
</a>
</g>
</g>
<!-- Node10&#45;&gt;Node16 -->
<g id="edge16" class="edge">
<title>Node10&#45;&gt;Node16</title>
<path fill="none" stroke="midnightblue" d="M1414.6,-268.23C1416.12,-259.43 1417.74,-250.06 1419.22,-241.51"/>
<polygon fill="midnightblue" stroke="midnightblue" points="1411.13,-267.77 1412.87,-278.22 1418.03,-268.97 1411.13,-267.77"/>
</g>
<!-- Node11&#45;&gt;Node8 -->
<g id="edge11" class="edge">
<title>Node11&#45;&gt;Node8</title>
<path fill="none" stroke="midnightblue" d="M1189.14,-179.07C1167.13,-166.95 1142.01,-153.12 1121,-141.55"/>
<polygon fill="midnightblue" stroke="midnightblue" points="1187.59,-182.21 1198.04,-183.97 1190.96,-176.08 1187.59,-182.21"/>
</g>
<!-- Node12 -->
<g id="node12" class="node">
<title>Node12</title>
<g id="a_node12"><a xlink:href="goto__instrument__parse__options_8h.html" target="_top" xlink:title="Command Line Parsing.">
<polygon fill="none" stroke="black" points="1168.5,-89.5 1168.5,-141.5 1350.5,-141.5 1350.5,-89.5 1168.5,-89.5"/>
<text text-anchor="start" x="1176.5" y="-129.5" font-family="Helvetica,sans-Serif" font-size="10.00">/home/runner/work/diffblue</text>
<text text-anchor="start" x="1176.5" y="-118.5" font-family="Helvetica,sans-Serif" font-size="10.00">&#45;cbmc/diffblue&#45;cbmc/src</text>
<text text-anchor="start" x="1176.5" y="-107.5" font-family="Helvetica,sans-Serif" font-size="10.00">/goto&#45;instrument/goto_instrument</text>
<text text-anchor="middle" x="1259.5" y="-96.5" font-family="Helvetica,sans-Serif" font-size="10.00">_parse_options.h</text>
</a>
</g>
</g>
<!-- Node11&#45;&gt;Node12 -->
<g id="edge12" class="edge">
<title>Node11&#45;&gt;Node12</title>
<path fill="none" stroke="midnightblue" d="M1249.58,-173.82C1251.43,-163.15 1253.42,-151.63 1255.13,-141.75"/>
<polygon fill="midnightblue" stroke="midnightblue" points="1246.13,-173.27 1247.87,-183.72 1253.03,-174.47 1246.13,-173.27"/>
</g>
<!-- Node13 -->
<g id="node13" class="node">
<title>Node13</title>
<g id="a_node13"><a xlink:href="goto__instrument__languages_8cpp.html" target="_top" xlink:title="Language Registration.">
<polygon fill="none" stroke="black" points="968.5,-0.5 968.5,-52.5 1150.5,-52.5 1150.5,-0.5 968.5,-0.5"/>
<text text-anchor="start" x="976.5" y="-40.5" font-family="Helvetica,sans-Serif" font-size="10.00">/home/runner/work/diffblue</text>
<text text-anchor="start" x="976.5" y="-29.5" font-family="Helvetica,sans-Serif" font-size="10.00">&#45;cbmc/diffblue&#45;cbmc/src</text>
<text text-anchor="start" x="976.5" y="-18.5" font-family="Helvetica,sans-Serif" font-size="10.00">/goto&#45;instrument/goto_instrument</text>
<text text-anchor="middle" x="1059.5" y="-7.5" font-family="Helvetica,sans-Serif" font-size="10.00">_languages.cpp</text>
</a>
</g>
</g>
<!-- Node12&#45;&gt;Node13 -->
<g id="edge13" class="edge">
<title>Node12&#45;&gt;Node13</title>
<path fill="none" stroke="midnightblue" d="M1192.69,-85.44C1168.17,-74.77 1140.65,-62.8 1117.02,-52.52"/>
<polygon fill="midnightblue" stroke="midnightblue" points="1191.35,-88.67 1201.92,-89.45 1194.15,-82.25 1191.35,-88.67"/>
</g>
<!-- Node14 -->
<g id="node14" class="node">
<title>Node14</title>
<g id="a_node14"><a xlink:href="goto__instrument__main_8cpp.html" target="_top" xlink:title="Main Module.">
<polygon fill="none" stroke="black" points="1168.5,-0.5 1168.5,-52.5 1350.5,-52.5 1350.5,-0.5 1168.5,-0.5"/>
<text text-anchor="start" x="1176.5" y="-40.5" font-family="Helvetica,sans-Serif" font-size="10.00">/home/runner/work/diffblue</text>
<text text-anchor="start" x="1176.5" y="-29.5" font-family="Helvetica,sans-Serif" font-size="10.00">&#45;cbmc/diffblue&#45;cbmc/src</text>
<text text-anchor="start" x="1176.5" y="-18.5" font-family="Helvetica,sans-Serif" font-size="10.00">/goto&#45;instrument/goto_instrument</text>
<text text-anchor="middle" x="1259.5" y="-7.5" font-family="Helvetica,sans-Serif" font-size="10.00">_main.cpp</text>
</a>
</g>
</g>
<!-- Node12&#45;&gt;Node14 -->
<g id="edge14" class="edge">
<title>Node12&#45;&gt;Node14</title>
<path fill="none" stroke="midnightblue" d="M1259.5,-79.19C1259.5,-70.28 1259.5,-60.9 1259.5,-52.61"/>
<polygon fill="midnightblue" stroke="midnightblue" points="1256,-79.34 1259.5,-89.34 1263,-79.34 1256,-79.34"/>
</g>
<!-- Node15 -->
<g id="node15" class="node">
<title>Node15</title>
<g id="a_node15"><a xlink:href="goto__instrument__parse__options_8cpp.html" target="_top" xlink:title="Main Module.">
<polygon fill="none" stroke="black" points="1368.5,-0.5 1368.5,-52.5 1550.5,-52.5 1550.5,-0.5 1368.5,-0.5"/>
<text text-anchor="start" x="1376.5" y="-40.5" font-family="Helvetica,sans-Serif" font-size="10.00">/home/runner/work/diffblue</text>
<text text-anchor="start" x="1376.5" y="-29.5" font-family="Helvetica,sans-Serif" font-size="10.00">&#45;cbmc/diffblue&#45;cbmc/src</text>
<text text-anchor="start" x="1376.5" y="-18.5" font-family="Helvetica,sans-Serif" font-size="10.00">/goto&#45;instrument/goto_instrument</text>
<text text-anchor="middle" x="1459.5" y="-7.5" font-family="Helvetica,sans-Serif" font-size="10.00">_parse_options.cpp</text>
</a>
</g>
</g>
<!-- Node12&#45;&gt;Node15 -->
<g id="edge15" class="edge">
<title>Node12&#45;&gt;Node15</title>
<path fill="none" stroke="midnightblue" d="M1326.31,-85.44C1350.83,-74.77 1378.35,-62.8 1401.98,-52.52"/>
<polygon fill="midnightblue" stroke="midnightblue" points="1324.85,-82.25 1317.08,-89.45 1327.65,-88.67 1324.85,-82.25"/>
</g>
<!-- Node26 -->
<g id="node26" class="node">
<title>Node26</title>
<g id="a_node26"><a xlink:href="lazy__goto__model_8h.html" target="_top" xlink:title="Author: Diffblue Ltd.">
<polygon fill="none" stroke="black" points="2940.5,-184 2940.5,-236 3098.5,-236 3098.5,-184 2940.5,-184"/>
<text text-anchor="start" x="2948.5" y="-224" font-family="Helvetica,sans-Serif" font-size="10.00">/home/runner/work/diffblue</text>
<text text-anchor="start" x="2948.5" y="-213" font-family="Helvetica,sans-Serif" font-size="10.00">&#45;cbmc/diffblue&#45;cbmc/jbmc</text>
<text text-anchor="start" x="2948.5" y="-202" font-family="Helvetica,sans-Serif" font-size="10.00">/src/java_bytecode/lazy_goto</text>
<text text-anchor="middle" x="3019.5" y="-191" font-family="Helvetica,sans-Serif" font-size="10.00">_model.h</text>
</a>
</g>
</g>
<!-- Node25&#45;&gt;Node26 -->
<g id="edge26" class="edge">
<title>Node25&#45;&gt;Node26</title>
<path fill="none" stroke="midnightblue" d="M3043.95,-268.98C3039.37,-258.12 3034.4,-246.34 3030.14,-236.25"/>
<polygon fill="midnightblue" stroke="midnightblue" points="3040.73,-270.37 3047.84,-278.22 3047.18,-267.65 3040.73,-270.37"/>
</g>
<!-- Node27 -->
<g id="node27" class="node">
<title>Node27</title>
<g id="a_node27"><a xlink:href="janalyzer__parse__options_8cpp.html" target="_top" xlink:title="JANALYZER Command Line Option Processing.">
<polygon fill="none" stroke="black" points="2603,-89.5 2603,-141.5 2752,-141.5 2752,-89.5 2603,-89.5"/>
<text text-anchor="start" x="2611" y="-129.5" font-family="Helvetica,sans-Serif" font-size="10.00">/home/runner/work/diffblue</text>
<text text-anchor="start" x="2611" y="-118.5" font-family="Helvetica,sans-Serif" font-size="10.00">&#45;cbmc/diffblue&#45;cbmc/jbmc</text>
<text text-anchor="start" x="2611" y="-107.5" font-family="Helvetica,sans-Serif" font-size="10.00">/src/janalyzer/janalyzer</text>
<text text-anchor="middle" x="2677.5" y="-96.5" font-family="Helvetica,sans-Serif" font-size="10.00">_parse_options.cpp</text>
</a>
</g>
</g>
<!-- Node26&#45;&gt;Node27 -->
<g id="edge27" class="edge">
<title>Node26&#45;&gt;Node27</title>
<path fill="none" stroke="midnightblue" d="M2930.64,-187.06C2880.53,-174.43 2816.85,-157.94 2760.5,-142 2757.74,-141.22 2754.94,-140.42 2752.11,-139.6"/>
<polygon fill="midnightblue" stroke="midnightblue" points="2929.93,-190.49 2940.48,-189.54 2931.63,-183.7 2929.93,-190.49"/>
</g>
<!-- Node28 -->
<g id="node28" class="node">
<title>Node28</title>
<g id="a_node28"><a xlink:href="lazy__goto__model_8cpp.html" target="_top" xlink:title="Author: Diffblue Ltd.">
<polygon fill="none" stroke="black" points="2769.5,-89.5 2769.5,-141.5 2927.5,-141.5 2927.5,-89.5 2769.5,-89.5"/>
<text text-anchor="start" x="2777.5" y="-129.5" font-family="Helvetica,sans-Serif" font-size="10.00">/home/runner/work/diffblue</text>
<text text-anchor="start" x="2777.5" y="-118.5" font-family="Helvetica,sans-Serif" font-size="10.00">&#45;cbmc/diffblue&#45;cbmc/jbmc</text>
<text text-anchor="start" x="2777.5" y="-107.5" font-family="Helvetica,sans-Serif" font-size="10.00">/src/java_bytecode/lazy_goto</text>
<text text-anchor="middle" x="2848.5" y="-96.5" font-family="Helvetica,sans-Serif" font-size="10.00">_model.cpp</text>
</a>
</g>
</g>
<!-- Node26&#45;&gt;Node28 -->
<g id="edge28" class="edge">
<title>Node26&#45;&gt;Node28</title>
<path fill="none" stroke="midnightblue" d="M2964.17,-179.07C2941.77,-166.95 2916.2,-153.12 2894.81,-141.55"/>
<polygon fill="midnightblue" stroke="midnightblue" points="2962.76,-182.29 2973.22,-183.97 2966.09,-176.13 2962.76,-182.29"/>
</g>
<!-- Node26&#45;&gt;Node29 -->
<g id="edge29" class="edge">
<title>Node26&#45;&gt;Node29</title>
<path fill="none" stroke="midnightblue" d="M3078.26,-179.46C3106.43,-165.3 3139.41,-148.72 3164.46,-136.13"/>
<polygon fill="midnightblue" stroke="midnightblue" points="3076.66,-176.35 3069.29,-183.97 3079.8,-182.6 3076.66,-176.35"/>
</g>
<!-- Node30 -->
<g id="node30" class="node">
<title>Node30</title>
<g id="a_node30"><a xlink:href="load__java__class_8cpp.html" target="_top" xlink:title=" ">
<polygon fill="none" stroke="black" points="2945,-89.5 2945,-141.5 3094,-141.5 3094,-89.5 2945,-89.5"/>
<text text-anchor="start" x="2953" y="-129.5" font-family="Helvetica,sans-Serif" font-size="10.00">/home/runner/work/diffblue</text>
<text text-anchor="start" x="2953" y="-118.5" font-family="Helvetica,sans-Serif" font-size="10.00">&#45;cbmc/diffblue&#45;cbmc/jbmc</text>
<text text-anchor="start" x="2953" y="-107.5" font-family="Helvetica,sans-Serif" font-size="10.00">/unit/java&#45;testing&#45;utils</text>
<text text-anchor="middle" x="3019.5" y="-96.5" font-family="Helvetica,sans-Serif" font-size="10.00">/load_java_class.cpp</text>
</a>
</g>
</g>
<!-- Node26&#45;&gt;Node30 -->
<g id="edge30" class="edge">
<title>Node26&#45;&gt;Node30</title>
<path fill="none" stroke="midnightblue" d="M3019.5,-173.49C3019.5,-162.91 3019.5,-151.53 3019.5,-141.75"/>
<polygon fill="midnightblue" stroke="midnightblue" points="3016,-173.72 3019.5,-183.72 3023,-173.72 3016,-173.72"/>
</g>
</g>
</svg>
