<?xml version="1.0" encoding="UTF-8" standalone="no"?>
<!DOCTYPE svg PUBLIC "-//W3C//DTD SVG 1.1//EN"
 "http://www.w3.org/Graphics/SVG/1.1/DTD/svg11.dtd">
<!-- Generated by graphviz version 2.43.0 (0)
 -->
<!-- Title: /home/runner/work/diffblue&#45;cbmc/diffblue&#45;cbmc/src/analyses/goto_rw.h Pages: 1 -->
<svg width="1470pt" height="406pt"
 viewBox="0.00 0.00 1469.50 406.00" xmlns="http://www.w3.org/2000/svg" xmlns:xlink="http://www.w3.org/1999/xlink">
<g id="graph0" class="graph" transform="scale(1 1) rotate(0) translate(4 402)">
<title>/home/runner/work/diffblue&#45;cbmc/diffblue&#45;cbmc/src/analyses/goto_rw.h</title>
<!-- Node1 -->
<g id="node1" class="node">
<title>Node1</title>
<g id="a_node1"><a xlink:title=" ">
<polygon fill="#bfbfbf" stroke="black" points="618,-356.5 618,-397.5 767,-397.5 767,-356.5 618,-356.5"/>
<text text-anchor="start" x="626" y="-385.5" font-family="Helvetica,sans-Serif" font-size="10.00">/home/runner/work/diffblue</text>
<text text-anchor="start" x="626" y="-374.5" font-family="Helvetica,sans-Serif" font-size="10.00">&#45;cbmc/diffblue&#45;cbmc/src</text>
<text text-anchor="middle" x="692.5" y="-363.5" font-family="Helvetica,sans-Serif" font-size="10.00">/analyses/goto_rw.h</text>
</a>
</g>
</g>
<!-- Node2 -->
<g id="node2" class="node">
<title>Node2</title>
<g id="a_node2"><a xlink:href="dependence__graph_8cpp.html" target="_top" xlink:title="Field&#45;Sensitive Program Dependence Analysis, Litvak et al., FSE 2010.">
<polygon fill="none" stroke="black" points="0,-95 0,-136 179,-136 179,-95 0,-95"/>
<text text-anchor="start" x="8" y="-124" font-family="Helvetica,sans-Serif" font-size="10.00">/home/runner/work/diffblue</text>
<text text-anchor="start" x="8" y="-113" font-family="Helvetica,sans-Serif" font-size="10.00">&#45;cbmc/diffblue&#45;cbmc/src</text>
<text text-anchor="middle" x="89.5" y="-102" font-family="Helvetica,sans-Serif" font-size="10.00">/analyses/dependence_graph.cpp</text>
</a>
</g>
</g>
<!-- Node1&#45;&gt;Node2 -->
<g id="edge1" class="edge">
<title>Node1&#45;&gt;Node2</title>
<path fill="none" stroke="midnightblue" d="M615.59,-353.44C585.33,-343.96 550.48,-332.29 519.5,-320 370.56,-260.94 200.42,-174.52 126.74,-136.13"/>
<polygon fill="midnightblue" stroke="midnightblue" points="614.66,-356.82 625.24,-356.44 616.73,-350.13 614.66,-356.82"/>
</g>
<!-- Node3 -->
<g id="node3" class="node">
<title>Node3</title>
<g id="a_node3"><a xlink:href="goto__rw_8cpp.html" target="_top" xlink:title=" ">
<polygon fill="none" stroke="black" points="529,-267.5 529,-308.5 678,-308.5 678,-267.5 529,-267.5"/>
<text text-anchor="start" x="537" y="-296.5" font-family="Helvetica,sans-Serif" font-size="10.00">/home/runner/work/diffblue</text>
<text text-anchor="start" x="537" y="-285.5" font-family="Helvetica,sans-Serif" font-size="10.00">&#45;cbmc/diffblue&#45;cbmc/src</text>
<text text-anchor="middle" x="603.5" y="-274.5" font-family="Helvetica,sans-Serif" font-size="10.00">/analyses/goto_rw.cpp</text>
</a>
</g>
</g>
<!-- Node1&#45;&gt;Node3 -->
<g id="edge2" class="edge">
<title>Node1&#45;&gt;Node3</title>
<path fill="none" stroke="midnightblue" d="M665.15,-349.26C651.74,-336.16 635.89,-320.66 623.62,-308.66"/>
<polygon fill="midnightblue" stroke="midnightblue" points="662.71,-351.77 672.3,-356.26 667.6,-346.77 662.71,-351.77"/>
</g>
<!-- Node4 -->
<g id="node4" class="node">
<title>Node4</title>
<g id="a_node4"><a xlink:href="reaching__definitions_8h.html" target="_top" xlink:title="Range&#45;based reaching definitions analysis (following Field&#45; Sensitive Program Dependence Analysis,...">
<polygon fill="none" stroke="black" points="696,-267.5 696,-308.5 869,-308.5 869,-267.5 696,-267.5"/>
<text text-anchor="start" x="704" y="-296.5" font-family="Helvetica,sans-Serif" font-size="10.00">/home/runner/work/diffblue</text>
<text text-anchor="start" x="704" y="-285.5" font-family="Helvetica,sans-Serif" font-size="10.00">&#45;cbmc/diffblue&#45;cbmc/src</text>
<text text-anchor="middle" x="782.5" y="-274.5" font-family="Helvetica,sans-Serif" font-size="10.00">/analyses/reaching_definitions.h</text>
</a>
</g>
</g>
<!-- Node1&#45;&gt;Node4 -->
<g id="edge3" class="edge">
<title>Node1&#45;&gt;Node4</title>
<path fill="none" stroke="midnightblue" d="M720.16,-349.26C733.71,-336.16 749.75,-320.66 762.16,-308.66"/>
<polygon fill="midnightblue" stroke="midnightblue" points="717.68,-346.79 712.92,-356.26 722.54,-351.82 717.68,-346.79"/>
</g>
<!-- Node16 -->
<g id="node16" class="node">
<title>Node16</title>
<g id="a_node16"><a xlink:href="dfcc__infer__loop__assigns_8cpp.html" target="_top" xlink:title=" ">
<polygon fill="none" stroke="black" points="887,-256.5 887,-319.5 1038,-319.5 1038,-256.5 887,-256.5"/>
<text text-anchor="start" x="895" y="-307.5" font-family="Helvetica,sans-Serif" font-size="10.00">/home/runner/work/diffblue</text>
<text text-anchor="start" x="895" y="-296.5" font-family="Helvetica,sans-Serif" font-size="10.00">&#45;cbmc/diffblue&#45;cbmc/src</text>
<text text-anchor="start" x="895" y="-285.5" font-family="Helvetica,sans-Serif" font-size="10.00">/goto&#45;instrument/contracts</text>
<text text-anchor="start" x="895" y="-274.5" font-family="Helvetica,sans-Serif" font-size="10.00">/dynamic&#45;frames/dfcc_infer</text>
<text text-anchor="middle" x="962.5" y="-263.5" font-family="Helvetica,sans-Serif" font-size="10.00">_loop_assigns.cpp</text>
</a>
</g>
</g>
<!-- Node1&#45;&gt;Node16 -->
<g id="edge17" class="edge">
<title>Node1&#45;&gt;Node16</title>
<path fill="none" stroke="midnightblue" d="M770.96,-353.53C804.27,-343.7 843.43,-331.74 878.5,-320 881.15,-319.11 883.85,-318.2 886.57,-317.26"/>
<polygon fill="midnightblue" stroke="midnightblue" points="769.88,-350.2 761.28,-356.38 771.86,-356.92 769.88,-350.2"/>
</g>
<!-- Node5 -->
<g id="node5" class="node">
<title>Node5</title>
<g id="a_node5"><a xlink:href="dependence__graph_8h.html" target="_top" xlink:title="Field&#45;Sensitive Program Dependence Analysis, Litvak et al., FSE 2010.">
<polygon fill="none" stroke="black" points="643,-178.5 643,-219.5 810,-219.5 810,-178.5 643,-178.5"/>
<text text-anchor="start" x="651" y="-207.5" font-family="Helvetica,sans-Serif" font-size="10.00">/home/runner/work/diffblue</text>
<text text-anchor="start" x="651" y="-196.5" font-family="Helvetica,sans-Serif" font-size="10.00">&#45;cbmc/diffblue&#45;cbmc/src</text>
<text text-anchor="middle" x="726.5" y="-185.5" font-family="Helvetica,sans-Serif" font-size="10.00">/analyses/dependence_graph.h</text>
</a>
</g>
</g>
<!-- Node4&#45;&gt;Node5 -->
<g id="edge4" class="edge">
<title>Node4&#45;&gt;Node5</title>
<path fill="none" stroke="midnightblue" d="M764.35,-258.8C756.12,-246.02 746.59,-231.22 739.16,-219.66"/>
<polygon fill="midnightblue" stroke="midnightblue" points="761.44,-260.74 769.79,-267.26 767.32,-256.96 761.44,-260.74"/>
</g>
<!-- Node12 -->
<g id="node12" class="node">
<title>Node12</title>
<g id="a_node12"><a xlink:href="goto__instrument__parse__options_8cpp.html" target="_top" xlink:title="Main Module.">
<polygon fill="none" stroke="black" points="1279.5,-89.5 1279.5,-141.5 1461.5,-141.5 1461.5,-89.5 1279.5,-89.5"/>
<text text-anchor="start" x="1287.5" y="-129.5" font-family="Helvetica,sans-Serif" font-size="10.00">/home/runner/work/diffblue</text>
<text text-anchor="start" x="1287.5" y="-118.5" font-family="Helvetica,sans-Serif" font-size="10.00">&#45;cbmc/diffblue&#45;cbmc/src</text>
<text text-anchor="start" x="1287.5" y="-107.5" font-family="Helvetica,sans-Serif" font-size="10.00">/goto&#45;instrument/goto_instrument</text>
<text text-anchor="middle" x="1370.5" y="-96.5" font-family="Helvetica,sans-Serif" font-size="10.00">_parse_options.cpp</text>
</a>
</g>
</g>
<!-- Node4&#45;&gt;Node12 -->
<g id="edge16" class="edge">
<title>Node4&#45;&gt;Node12</title>
<path fill="none" stroke="midnightblue" d="M798.24,-258.2C814.72,-229.21 840.39,-187.45 856.5,-178 936.15,-131.27 1179.46,-157.46 1270.5,-142 1273.41,-141.51 1276.37,-140.97 1279.35,-140.4"/>
<polygon fill="midnightblue" stroke="midnightblue" points="795.08,-256.68 793.24,-267.11 801.18,-260.11 795.08,-256.68"/>
</g>
<!-- Node15 -->
<g id="node15" class="node">
<title>Node15</title>
<g id="a_node15"><a xlink:href="reaching__definitions_8cpp.html" target="_top" xlink:title="Range&#45;based reaching definitions analysis (following Field&#45; Sensitive Program Dependence Analysis,...">
<polygon fill="none" stroke="black" points="865,-178.5 865,-219.5 1050,-219.5 1050,-178.5 865,-178.5"/>
<text text-anchor="start" x="873" y="-207.5" font-family="Helvetica,sans-Serif" font-size="10.00">/home/runner/work/diffblue</text>
<text text-anchor="start" x="873" y="-196.5" font-family="Helvetica,sans-Serif" font-size="10.00">&#45;cbmc/diffblue&#45;cbmc/src</text>
<text text-anchor="middle" x="957.5" y="-185.5" font-family="Helvetica,sans-Serif" font-size="10.00">/analyses/reaching_definitions.cpp</text>
</a>
</g>
</g>
<!-- Node4&#45;&gt;Node15 -->
<g id="edge15" class="edge">
<title>Node4&#45;&gt;Node15</title>
<path fill="none" stroke="midnightblue" d="M830.82,-262.98C858.27,-249.33 892.22,-232.46 918.06,-219.61"/>
<polygon fill="midnightblue" stroke="midnightblue" points="829.17,-259.89 821.77,-267.48 832.29,-266.16 829.17,-259.89"/>
</g>
<!-- Node5&#45;&gt;Node2 -->
<g id="edge5" class="edge">
<title>Node5&#45;&gt;Node2</title>
<path fill="none" stroke="midnightblue" d="M632.63,-192.56C524.61,-185.31 342.2,-170 187.5,-142 178.33,-140.34 168.76,-138.28 159.34,-136.04"/>
<polygon fill="midnightblue" stroke="midnightblue" points="632.64,-196.07 642.85,-193.24 633.1,-189.08 632.64,-196.07"/>
</g>
<!-- Node6 -->
<g id="node6" class="node">
<title>Node6</title>
<g id="a_node6"><a xlink:href="build__analyzer_8cpp.html" target="_top" xlink:title=" ">
<polygon fill="none" stroke="black" points="197,-95 197,-136 378,-136 378,-95 197,-95"/>
<text text-anchor="start" x="205" y="-124" font-family="Helvetica,sans-Serif" font-size="10.00">/home/runner/work/diffblue</text>
<text text-anchor="start" x="205" y="-113" font-family="Helvetica,sans-Serif" font-size="10.00">&#45;cbmc/diffblue&#45;cbmc/src</text>
<text text-anchor="middle" x="287.5" y="-102" font-family="Helvetica,sans-Serif" font-size="10.00">/goto&#45;analyzer/build_analyzer.cpp</text>
</a>
</g>
</g>
<!-- Node5&#45;&gt;Node6 -->
<g id="edge6" class="edge">
<title>Node5&#45;&gt;Node6</title>
<path fill="none" stroke="midnightblue" d="M633.06,-184.9C564.52,-174.73 469.35,-159.46 386.5,-142 377.99,-140.21 369.11,-138.17 360.32,-136.04"/>
<polygon fill="midnightblue" stroke="midnightblue" points="632.57,-188.36 642.98,-186.36 633.59,-181.44 632.57,-188.36"/>
</g>
<!-- Node7 -->
<g id="node7" class="node">
<title>Node7</title>
<g id="a_node7"><a xlink:href="static__show__domain_8cpp.html" target="_top" xlink:title=" ">
<polygon fill="none" stroke="black" points="396,-89.5 396,-141.5 545,-141.5 545,-89.5 396,-89.5"/>
<text text-anchor="start" x="404" y="-129.5" font-family="Helvetica,sans-Serif" font-size="10.00">/home/runner/work/diffblue</text>
<text text-anchor="start" x="404" y="-118.5" font-family="Helvetica,sans-Serif" font-size="10.00">&#45;cbmc/diffblue&#45;cbmc/src</text>
<text text-anchor="start" x="404" y="-107.5" font-family="Helvetica,sans-Serif" font-size="10.00">/goto&#45;analyzer/static_show</text>
<text text-anchor="middle" x="470.5" y="-96.5" font-family="Helvetica,sans-Serif" font-size="10.00">_domain.cpp</text>
</a>
</g>
</g>
<!-- Node5&#45;&gt;Node7 -->
<g id="edge7" class="edge">
<title>Node5&#45;&gt;Node7</title>
<path fill="none" stroke="midnightblue" d="M655.23,-175.31C620.9,-164.38 579.75,-151.28 545.01,-140.22"/>
<polygon fill="midnightblue" stroke="midnightblue" points="654.59,-178.78 665.18,-178.48 656.71,-172.11 654.59,-178.78"/>
</g>
<!-- Node8 -->
<g id="node8" class="node">
<title>Node8</title>
<g id="a_node8"><a xlink:href="change__impact_8cpp.html" target="_top" xlink:title="Data and control&#45;dependencies of syntactic diff.">
<polygon fill="none" stroke="black" points="562.5,-95 562.5,-136 720.5,-136 720.5,-95 562.5,-95"/>
<text text-anchor="start" x="570.5" y="-124" font-family="Helvetica,sans-Serif" font-size="10.00">/home/runner/work/diffblue</text>
<text text-anchor="start" x="570.5" y="-113" font-family="Helvetica,sans-Serif" font-size="10.00">&#45;cbmc/diffblue&#45;cbmc/src</text>
<text text-anchor="middle" x="641.5" y="-102" font-family="Helvetica,sans-Serif" font-size="10.00">/goto&#45;diff/change_impact.cpp</text>
</a>
</g>
</g>
<!-- Node5&#45;&gt;Node8 -->
<g id="edge8" class="edge">
<title>Node5&#45;&gt;Node8</title>
<path fill="none" stroke="midnightblue" d="M698.38,-171.04C686.46,-159.6 672.82,-146.53 661.89,-136.05"/>
<polygon fill="midnightblue" stroke="midnightblue" points="696.28,-173.88 705.92,-178.27 701.13,-168.82 696.28,-173.88"/>
</g>
<!-- Node9 -->
<g id="node9" class="node">
<title>Node9</title>
<g id="a_node9"><a xlink:href="full__slicer__class_8h.html" target="_top" xlink:title="Goto Program Slicing.">
<polygon fill="none" stroke="black" points="738,-89.5 738,-141.5 887,-141.5 887,-89.5 738,-89.5"/>
<text text-anchor="start" x="746" y="-129.5" font-family="Helvetica,sans-Serif" font-size="10.00">/home/runner/work/diffblue</text>
<text text-anchor="start" x="746" y="-118.5" font-family="Helvetica,sans-Serif" font-size="10.00">&#45;cbmc/diffblue&#45;cbmc/src</text>
<text text-anchor="start" x="746" y="-107.5" font-family="Helvetica,sans-Serif" font-size="10.00">/goto&#45;instrument/full_slicer</text>
<text text-anchor="middle" x="812.5" y="-96.5" font-family="Helvetica,sans-Serif" font-size="10.00">_class.h</text>
</a>
</g>
</g>
<!-- Node5&#45;&gt;Node9 -->
<g id="edge9" class="edge">
<title>Node5&#45;&gt;Node9</title>
<path fill="none" stroke="midnightblue" d="M754.73,-171.24C764.8,-161.71 776.09,-151 786.01,-141.61"/>
<polygon fill="midnightblue" stroke="midnightblue" points="752.17,-168.85 747.32,-178.27 756.98,-173.93 752.17,-168.85"/>
</g>
<!-- Node5&#45;&gt;Node12 -->
<g id="edge12" class="edge">
<title>Node5&#45;&gt;Node12</title>
<path fill="none" stroke="midnightblue" d="M820.23,-178.48C821.32,-178.31 822.41,-178.15 823.5,-178 1020.81,-149.82 1073.9,-174.74 1270.5,-142 1273.42,-141.51 1276.37,-140.99 1279.35,-140.42"/>
<polygon fill="midnightblue" stroke="midnightblue" points="819.57,-175.04 810.25,-180.06 820.67,-181.95 819.57,-175.04"/>
</g>
<!-- Node13 -->
<g id="node13" class="node">
<title>Node13</title>
<g id="a_node13"><a xlink:href="cegis__verifier_8cpp.html" target="_top" xlink:title="Verifier for Counterexample&#45;Guided Synthesis.">
<polygon fill="none" stroke="black" points="905,-95 905,-136 1094,-136 1094,-95 905,-95"/>
<text text-anchor="start" x="913" y="-124" font-family="Helvetica,sans-Serif" font-size="10.00">/home/runner/work/diffblue</text>
<text text-anchor="start" x="913" y="-113" font-family="Helvetica,sans-Serif" font-size="10.00">&#45;cbmc/diffblue&#45;cbmc/src</text>
<text text-anchor="middle" x="999.5" y="-102" font-family="Helvetica,sans-Serif" font-size="10.00">/goto&#45;synthesizer/cegis_verifier.cpp</text>
</a>
</g>
</g>
<!-- Node5&#45;&gt;Node13 -->
<g id="edge13" class="edge">
<title>Node5&#45;&gt;Node13</title>
<path fill="none" stroke="midnightblue" d="M801.68,-175.55C843.22,-163.16 894.31,-147.9 934.17,-136"/>
<polygon fill="midnightblue" stroke="midnightblue" points="800.47,-172.26 791.89,-178.48 802.47,-178.97 800.47,-172.26"/>
</g>
<!-- Node14 -->
<g id="node14" class="node">
<title>Node14</title>
<g id="a_node14"><a xlink:href="janalyzer__parse__options_8cpp.html" target="_top" xlink:title="JANALYZER Command Line Option Processing.">
<polygon fill="none" stroke="black" points="1112,-89.5 1112,-141.5 1261,-141.5 1261,-89.5 1112,-89.5"/>
<text text-anchor="start" x="1120" y="-129.5" font-family="Helvetica,sans-Serif" font-size="10.00">/home/runner/work/diffblue</text>
<text text-anchor="start" x="1120" y="-118.5" font-family="Helvetica,sans-Serif" font-size="10.00">&#45;cbmc/diffblue&#45;cbmc/jbmc</text>
<text text-anchor="start" x="1120" y="-107.5" font-family="Helvetica,sans-Serif" font-size="10.00">/src/janalyzer/janalyzer</text>
<text text-anchor="middle" x="1186.5" y="-96.5" font-family="Helvetica,sans-Serif" font-size="10.00">_parse_options.cpp</text>
</a>
</g>
</g>
<!-- Node5&#45;&gt;Node14 -->
<g id="edge14" class="edge">
<title>Node5&#45;&gt;Node14</title>
<path fill="none" stroke="midnightblue" d="M820.17,-178.56C821.29,-178.37 822.4,-178.18 823.5,-178 947.25,-157.32 980.87,-168.52 1103.5,-142 1106.15,-141.43 1108.84,-140.81 1111.55,-140.15"/>
<polygon fill="midnightblue" stroke="midnightblue" points="819.26,-175.17 810.02,-180.36 820.48,-182.06 819.26,-175.17"/>
</g>
<!-- Node10 -->
<g id="node10" class="node">
<title>Node10</title>
<g id="a_node10"><a xlink:href="full__slicer_8cpp.html" target="_top" xlink:title="Slicing.">
<polygon fill="none" stroke="black" points="637.5,-6 637.5,-47 805.5,-47 805.5,-6 637.5,-6"/>
<text text-anchor="start" x="645.5" y="-35" font-family="Helvetica,sans-Serif" font-size="10.00">/home/runner/work/diffblue</text>
<text text-anchor="start" x="645.5" y="-24" font-family="Helvetica,sans-Serif" font-size="10.00">&#45;cbmc/diffblue&#45;cbmc/src</text>
<text text-anchor="middle" x="721.5" y="-13" font-family="Helvetica,sans-Serif" font-size="10.00">/goto&#45;instrument/full_slicer.cpp</text>
</a>
</g>
</g>
<!-- Node9&#45;&gt;Node10 -->
<g id="edge10" class="edge">
<title>Node9&#45;&gt;Node10</title>
<path fill="none" stroke="midnightblue" d="M778.7,-82.18C766.36,-70.39 752.8,-57.43 741.98,-47.08"/>
<polygon fill="midnightblue" stroke="midnightblue" points="776.53,-84.96 786.18,-89.34 781.37,-79.9 776.53,-84.96"/>
</g>
<!-- Node11 -->
<g id="node11" class="node">
<title>Node11</title>
<g id="a_node11"><a xlink:href="reachability__slicer_8cpp.html" target="_top" xlink:title="Reachability Slicer Consider the control flow graph of the goto program and a criterion,...">
<polygon fill="none" stroke="black" points="823,-0.5 823,-52.5 982,-52.5 982,-0.5 823,-0.5"/>
<text text-anchor="start" x="831" y="-40.5" font-family="Helvetica,sans-Serif" font-size="10.00">/home/runner/work/diffblue</text>
<text text-anchor="start" x="831" y="-29.5" font-family="Helvetica,sans-Serif" font-size="10.00">&#45;cbmc/diffblue&#45;cbmc/src</text>
<text text-anchor="start" x="831" y="-18.5" font-family="Helvetica,sans-Serif" font-size="10.00">/goto&#45;instrument/reachability</text>
<text text-anchor="middle" x="902.5" y="-7.5" font-family="Helvetica,sans-Serif" font-size="10.00">_slicer.cpp</text>
</a>
</g>
</g>
<!-- Node9&#45;&gt;Node11 -->
<g id="edge11" class="edge">
<title>Node9&#45;&gt;Node11</title>
<path fill="none" stroke="midnightblue" d="M845.75,-82.36C855.9,-72.54 866.92,-61.89 876.53,-52.61"/>
<polygon fill="midnightblue" stroke="midnightblue" points="843.29,-79.87 838.53,-89.34 848.15,-84.9 843.29,-79.87"/>
</g>
</g>
</svg>
