<?xml version="1.0" encoding="UTF-8" standalone="no"?>
<!DOCTYPE svg PUBLIC "-//W3C//DTD SVG 1.1//EN"
 "http://www.w3.org/Graphics/SVG/1.1/DTD/svg11.dtd">
<!-- Generated by graphviz version 2.43.0 (0)
 -->
<!-- Title: /home/runner/work/diffblue&#45;cbmc/diffblue&#45;cbmc/src/goto&#45;programs/goto_inline.h Pages: 1 -->
<svg width="1650pt" height="150pt"
 viewBox="0.00 0.00 1649.50 150.00" xmlns="http://www.w3.org/2000/svg" xmlns:xlink="http://www.w3.org/1999/xlink">
<g id="graph0" class="graph" transform="scale(1 1) rotate(0) translate(4 146)">
<title>/home/runner/work/diffblue&#45;cbmc/diffblue&#45;cbmc/src/goto&#45;programs/goto_inline.h</title>
<!-- Node1 -->
<g id="node1" class="node">
<title>Node1</title>
<g id="a_node1"><a xlink:title="Function Inlining This gives a number of different interfaces to the function inlining functionality ...">
<polygon fill="#bfbfbf" stroke="black" points="721,-100.5 721,-141.5 879,-141.5 879,-100.5 721,-100.5"/>
<text text-anchor="start" x="729" y="-129.5" font-family="Helvetica,sans-Serif" font-size="10.00">/home/runner/work/diffblue</text>
<text text-anchor="start" x="729" y="-118.5" font-family="Helvetica,sans-Serif" font-size="10.00">&#45;cbmc/diffblue&#45;cbmc/src</text>
<text text-anchor="middle" x="800" y="-107.5" font-family="Helvetica,sans-Serif" font-size="10.00">/goto&#45;programs/goto_inline.h</text>
</a>
</g>
</g>
<!-- Node2 -->
<g id="node2" class="node">
<title>Node2</title>
<g id="a_node2"><a xlink:href="cprover__parse__options_8cpp.html" target="_top" xlink:title="cprover Command Line Options Processing">
<polygon fill="none" stroke="black" points="0,-11.5 0,-52.5 190,-52.5 190,-11.5 0,-11.5"/>
<text text-anchor="start" x="8" y="-40.5" font-family="Helvetica,sans-Serif" font-size="10.00">/home/runner/work/diffblue</text>
<text text-anchor="start" x="8" y="-29.5" font-family="Helvetica,sans-Serif" font-size="10.00">&#45;cbmc/diffblue&#45;cbmc/src</text>
<text text-anchor="middle" x="95" y="-18.5" font-family="Helvetica,sans-Serif" font-size="10.00">/cprover/cprover_parse_options.cpp</text>
</a>
</g>
</g>
<!-- Node1&#45;&gt;Node2 -->
<g id="edge1" class="edge">
<title>Node1&#45;&gt;Node2</title>
<path fill="none" stroke="midnightblue" d="M710.46,-117.15C592.35,-112.14 378.44,-98.75 199,-64 183.93,-61.08 167.91,-56.88 153.08,-52.51"/>
<polygon fill="midnightblue" stroke="midnightblue" points="710.41,-120.65 720.54,-117.57 710.7,-113.66 710.41,-120.65"/>
</g>
<!-- Node3 -->
<g id="node3" class="node">
<title>Node3</title>
<g id="a_node3"><a xlink:href="contracts_8cpp.html" target="_top" xlink:title="Verify and use annotated loop and function contracts.">
<polygon fill="none" stroke="black" points="208.5,-6 208.5,-58 357.5,-58 357.5,-6 208.5,-6"/>
<text text-anchor="start" x="216.5" y="-46" font-family="Helvetica,sans-Serif" font-size="10.00">/home/runner/work/diffblue</text>
<text text-anchor="start" x="216.5" y="-35" font-family="Helvetica,sans-Serif" font-size="10.00">&#45;cbmc/diffblue&#45;cbmc/src</text>
<text text-anchor="start" x="216.5" y="-24" font-family="Helvetica,sans-Serif" font-size="10.00">/goto&#45;instrument/contracts</text>
<text text-anchor="middle" x="283" y="-13" font-family="Helvetica,sans-Serif" font-size="10.00">/contracts.cpp</text>
</a>
</g>
</g>
<!-- Node1&#45;&gt;Node3 -->
<g id="edge2" class="edge">
<title>Node1&#45;&gt;Node3</title>
<path fill="none" stroke="midnightblue" d="M710.99,-114.5C622.48,-107.64 483.34,-93.07 366,-64 359.28,-62.34 352.36,-60.3 345.51,-58.07"/>
<polygon fill="midnightblue" stroke="midnightblue" points="710.76,-117.99 720.99,-115.26 711.29,-111.01 710.76,-117.99"/>
</g>
<!-- Node4 -->
<g id="node4" class="node">
<title>Node4</title>
<g id="a_node4"><a xlink:href="dfcc_8cpp.html" target="_top" xlink:title=" ">
<polygon fill="none" stroke="black" points="375.5,-6 375.5,-58 524.5,-58 524.5,-6 375.5,-6"/>
<text text-anchor="start" x="383.5" y="-46" font-family="Helvetica,sans-Serif" font-size="10.00">/home/runner/work/diffblue</text>
<text text-anchor="start" x="383.5" y="-35" font-family="Helvetica,sans-Serif" font-size="10.00">&#45;cbmc/diffblue&#45;cbmc/src</text>
<text text-anchor="start" x="383.5" y="-24" font-family="Helvetica,sans-Serif" font-size="10.00">/goto&#45;instrument/contracts</text>
<text text-anchor="middle" x="450" y="-13" font-family="Helvetica,sans-Serif" font-size="10.00">/dynamic&#45;frames/dfcc.cpp</text>
</a>
</g>
</g>
<!-- Node1&#45;&gt;Node4 -->
<g id="edge3" class="edge">
<title>Node1&#45;&gt;Node4</title>
<path fill="none" stroke="midnightblue" d="M711.03,-104.82C658.71,-95.03 591.55,-80.97 533,-64 526.79,-62.2 520.39,-60.16 514.02,-58"/>
<polygon fill="midnightblue" stroke="midnightblue" points="710.49,-108.28 720.96,-106.66 711.76,-101.39 710.49,-108.28"/>
</g>
<!-- Node5 -->
<g id="node5" class="node">
<title>Node5</title>
<g id="a_node5"><a xlink:href="dfcc__infer__loop__assigns_8cpp.html" target="_top" xlink:title=" ">
<polygon fill="none" stroke="black" points="542.5,-0.5 542.5,-63.5 693.5,-63.5 693.5,-0.5 542.5,-0.5"/>
<text text-anchor="start" x="550.5" y="-51.5" font-family="Helvetica,sans-Serif" font-size="10.00">/home/runner/work/diffblue</text>
<text text-anchor="start" x="550.5" y="-40.5" font-family="Helvetica,sans-Serif" font-size="10.00">&#45;cbmc/diffblue&#45;cbmc/src</text>
<text text-anchor="start" x="550.5" y="-29.5" font-family="Helvetica,sans-Serif" font-size="10.00">/goto&#45;instrument/contracts</text>
<text text-anchor="start" x="550.5" y="-18.5" font-family="Helvetica,sans-Serif" font-size="10.00">/dynamic&#45;frames/dfcc_infer</text>
<text text-anchor="middle" x="618" y="-7.5" font-family="Helvetica,sans-Serif" font-size="10.00">_loop_assigns.cpp</text>
</a>
</g>
</g>
<!-- Node1&#45;&gt;Node5 -->
<g id="edge4" class="edge">
<title>Node1&#45;&gt;Node5</title>
<path fill="none" stroke="midnightblue" d="M750.08,-96.14C729.04,-86.08 704.28,-74.25 681.93,-63.56"/>
<polygon fill="midnightblue" stroke="midnightblue" points="748.62,-99.32 759.16,-100.48 751.64,-93 748.62,-99.32"/>
</g>
<!-- Node6 -->
<g id="node6" class="node">
<title>Node6</title>
<g id="a_node6"><a xlink:href="dfcc__swap__and__wrap_8cpp.html" target="_top" xlink:title=" ">
<polygon fill="none" stroke="black" points="711.5,-0.5 711.5,-63.5 888.5,-63.5 888.5,-0.5 711.5,-0.5"/>
<text text-anchor="start" x="719.5" y="-51.5" font-family="Helvetica,sans-Serif" font-size="10.00">/home/runner/work/diffblue</text>
<text text-anchor="start" x="719.5" y="-40.5" font-family="Helvetica,sans-Serif" font-size="10.00">&#45;cbmc/diffblue&#45;cbmc/src</text>
<text text-anchor="start" x="719.5" y="-29.5" font-family="Helvetica,sans-Serif" font-size="10.00">/goto&#45;instrument/contracts</text>
<text text-anchor="start" x="719.5" y="-18.5" font-family="Helvetica,sans-Serif" font-size="10.00">/dynamic&#45;frames/dfcc_swap_and</text>
<text text-anchor="middle" x="800" y="-7.5" font-family="Helvetica,sans-Serif" font-size="10.00">_wrap.cpp</text>
</a>
</g>
</g>
<!-- Node1&#45;&gt;Node6 -->
<g id="edge5" class="edge">
<title>Node1&#45;&gt;Node6</title>
<path fill="none" stroke="midnightblue" d="M800,-89.98C800,-81.45 800,-72.15 800,-63.59"/>
<polygon fill="midnightblue" stroke="midnightblue" points="796.5,-90.26 800,-100.26 803.5,-90.26 796.5,-90.26"/>
</g>
<!-- Node7 -->
<g id="node7" class="node">
<title>Node7</title>
<g id="a_node7"><a xlink:href="dfcc__utils_8cpp.html" target="_top" xlink:title=" ">
<polygon fill="none" stroke="black" points="907,-6 907,-58 1077,-58 1077,-6 907,-6"/>
<text text-anchor="start" x="915" y="-46" font-family="Helvetica,sans-Serif" font-size="10.00">/home/runner/work/diffblue</text>
<text text-anchor="start" x="915" y="-35" font-family="Helvetica,sans-Serif" font-size="10.00">&#45;cbmc/diffblue&#45;cbmc/src</text>
<text text-anchor="start" x="915" y="-24" font-family="Helvetica,sans-Serif" font-size="10.00">/goto&#45;instrument/contracts</text>
<text text-anchor="middle" x="992" y="-13" font-family="Helvetica,sans-Serif" font-size="10.00">/dynamic&#45;frames/dfcc_utils.cpp</text>
</a>
</g>
</g>
<!-- Node1&#45;&gt;Node7 -->
<g id="edge6" class="edge">
<title>Node1&#45;&gt;Node7</title>
<path fill="none" stroke="midnightblue" d="M852.44,-96.24C878.56,-84.4 910.14,-70.09 936.64,-58.08"/>
<polygon fill="midnightblue" stroke="midnightblue" points="850.75,-93.16 843.09,-100.48 853.64,-99.54 850.75,-93.16"/>
</g>
<!-- Node8 -->
<g id="node8" class="node">
<title>Node8</title>
<g id="a_node8"><a xlink:href="goto__instrument__parse__options_8cpp.html" target="_top" xlink:title="Main Module.">
<polygon fill="none" stroke="black" points="1095,-6 1095,-58 1277,-58 1277,-6 1095,-6"/>
<text text-anchor="start" x="1103" y="-46" font-family="Helvetica,sans-Serif" font-size="10.00">/home/runner/work/diffblue</text>
<text text-anchor="start" x="1103" y="-35" font-family="Helvetica,sans-Serif" font-size="10.00">&#45;cbmc/diffblue&#45;cbmc/src</text>
<text text-anchor="start" x="1103" y="-24" font-family="Helvetica,sans-Serif" font-size="10.00">/goto&#45;instrument/goto_instrument</text>
<text text-anchor="middle" x="1186" y="-13" font-family="Helvetica,sans-Serif" font-size="10.00">_parse_options.cpp</text>
</a>
</g>
</g>
<!-- Node1&#45;&gt;Node8 -->
<g id="edge7" class="edge">
<title>Node1&#45;&gt;Node8</title>
<path fill="none" stroke="midnightblue" d="M889.12,-105.09C945.82,-94.98 1020.63,-80.48 1086,-64 1093.23,-62.18 1100.7,-60.14 1108.16,-58.01"/>
<polygon fill="midnightblue" stroke="midnightblue" points="888.34,-101.67 879.11,-106.86 889.56,-108.57 888.34,-101.67"/>
</g>
<!-- Node9 -->
<g id="node9" class="node">
<title>Node9</title>
<g id="a_node9"><a xlink:href="goto__inline_8cpp.html" target="_top" xlink:title="Function Inlining.">
<polygon fill="none" stroke="black" points="1295.5,-11.5 1295.5,-52.5 1464.5,-52.5 1464.5,-11.5 1295.5,-11.5"/>
<text text-anchor="start" x="1303.5" y="-40.5" font-family="Helvetica,sans-Serif" font-size="10.00">/home/runner/work/diffblue</text>
<text text-anchor="start" x="1303.5" y="-29.5" font-family="Helvetica,sans-Serif" font-size="10.00">&#45;cbmc/diffblue&#45;cbmc/src</text>
<text text-anchor="middle" x="1380" y="-18.5" font-family="Helvetica,sans-Serif" font-size="10.00">/goto&#45;programs/goto_inline.cpp</text>
</a>
</g>
</g>
<!-- Node1&#45;&gt;Node9 -->
<g id="edge8" class="edge">
<title>Node1&#45;&gt;Node9</title>
<path fill="none" stroke="midnightblue" d="M889.27,-115.18C987.45,-108.62 1149.41,-94.06 1286,-64 1299.43,-61.05 1313.64,-56.91 1326.84,-52.62"/>
<polygon fill="midnightblue" stroke="midnightblue" points="888.85,-111.7 879.1,-115.85 889.3,-118.69 888.85,-111.7"/>
</g>
<!-- Node10 -->
<g id="node10" class="node">
<title>Node10</title>
<g id="a_node10"><a xlink:href="process__goto__program_8cpp.html" target="_top" xlink:title="Get a Goto Program.">
<polygon fill="none" stroke="black" points="1482.5,-6 1482.5,-58 1641.5,-58 1641.5,-6 1482.5,-6"/>
<text text-anchor="start" x="1490.5" y="-46" font-family="Helvetica,sans-Serif" font-size="10.00">/home/runner/work/diffblue</text>
<text text-anchor="start" x="1490.5" y="-35" font-family="Helvetica,sans-Serif" font-size="10.00">&#45;cbmc/diffblue&#45;cbmc/src</text>
<text text-anchor="start" x="1490.5" y="-24" font-family="Helvetica,sans-Serif" font-size="10.00">/goto&#45;programs/process_goto</text>
<text text-anchor="middle" x="1562" y="-13" font-family="Helvetica,sans-Serif" font-size="10.00">_program.cpp</text>
</a>
</g>
</g>
<!-- Node1&#45;&gt;Node10 -->
<g id="edge9" class="edge">
<title>Node1&#45;&gt;Node10</title>
<path fill="none" stroke="midnightblue" d="M889.35,-119.8C1019.42,-117.89 1267.89,-108.1 1474,-64 1481.44,-62.41 1489.12,-60.35 1496.7,-58.06"/>
<polygon fill="midnightblue" stroke="midnightblue" points="889,-116.31 879.04,-119.94 889.09,-123.3 889,-116.31"/>
</g>
</g>
</svg>
