<?xml version="1.0" encoding="UTF-8" standalone="no"?>
<!DOCTYPE svg PUBLIC "-//W3C//DTD SVG 1.1//EN"
 "http://www.w3.org/Graphics/SVG/1.1/DTD/svg11.dtd">
<!-- Generated by graphviz version 2.43.0 (0)
 -->
<!-- Title: /home/runner/work/diffblue&#45;cbmc/diffblue&#45;cbmc/src/ansi&#45;c/goto&#45;conversion/goto_check_c.h Pages: 1 -->
<svg width="2395pt" height="239pt"
 viewBox="0.00 0.00 2394.50 239.00" xmlns="http://www.w3.org/2000/svg" xmlns:xlink="http://www.w3.org/1999/xlink">
<g id="graph0" class="graph" transform="scale(1 1) rotate(0) translate(4 235)">
<title>/home/runner/work/diffblue&#45;cbmc/diffblue&#45;cbmc/src/ansi&#45;c/goto&#45;conversion/goto_check_c.h</title>
<!-- Node1 -->
<g id="node1" class="node">
<title>Node1</title>
<g id="a_node1"><a xlink:title="Program Transformation.">
<polygon fill="#bfbfbf" stroke="black" points="1463,-178.5 1463,-230.5 1618,-230.5 1618,-178.5 1463,-178.5"/>
<text text-anchor="start" x="1471" y="-218.5" font-family="Helvetica,sans-Serif" font-size="10.00">/home/runner/work/diffblue</text>
<text text-anchor="start" x="1471" y="-207.5" font-family="Helvetica,sans-Serif" font-size="10.00">&#45;cbmc/diffblue&#45;cbmc/src</text>
<text text-anchor="start" x="1471" y="-196.5" font-family="Helvetica,sans-Serif" font-size="10.00">/ansi&#45;c/goto&#45;conversion/goto</text>
<text text-anchor="middle" x="1540.5" y="-185.5" font-family="Helvetica,sans-Serif" font-size="10.00">_check_c.h</text>
</a>
</g>
</g>
<!-- Node2 -->
<g id="node2" class="node">
<title>Node2</title>
<g id="a_node2"><a xlink:href="goto__check__c_8cpp.html" target="_top" xlink:title="Checks for Errors in C/C++ Programs.">
<polygon fill="none" stroke="black" points="267,-89.5 267,-141.5 422,-141.5 422,-89.5 267,-89.5"/>
<text text-anchor="start" x="275" y="-129.5" font-family="Helvetica,sans-Serif" font-size="10.00">/home/runner/work/diffblue</text>
<text text-anchor="start" x="275" y="-118.5" font-family="Helvetica,sans-Serif" font-size="10.00">&#45;cbmc/diffblue&#45;cbmc/src</text>
<text text-anchor="start" x="275" y="-107.5" font-family="Helvetica,sans-Serif" font-size="10.00">/ansi&#45;c/goto&#45;conversion/goto</text>
<text text-anchor="middle" x="344.5" y="-96.5" font-family="Helvetica,sans-Serif" font-size="10.00">_check_c.cpp</text>
</a>
</g>
</g>
<!-- Node1&#45;&gt;Node2 -->
<g id="edge1" class="edge">
<title>Node1&#45;&gt;Node2</title>
<path fill="none" stroke="midnightblue" d="M1452.78,-201.24C1226.54,-194.98 627.32,-175.67 431.5,-142 428.4,-141.47 425.25,-140.86 422.08,-140.2"/>
<polygon fill="midnightblue" stroke="midnightblue" points="1452.86,-204.74 1462.95,-201.52 1453.05,-197.74 1452.86,-204.74"/>
</g>
<!-- Node3 -->
<g id="node3" class="node">
<title>Node3</title>
<g id="a_node3"><a xlink:href="cbmc__parse__options_8h.html" target="_top" xlink:title="CBMC Command Line Option Processing.">
<polygon fill="none" stroke="black" points="440.5,-95 440.5,-136 598.5,-136 598.5,-95 440.5,-95"/>
<text text-anchor="start" x="448.5" y="-124" font-family="Helvetica,sans-Serif" font-size="10.00">/home/runner/work/diffblue</text>
<text text-anchor="start" x="448.5" y="-113" font-family="Helvetica,sans-Serif" font-size="10.00">&#45;cbmc/diffblue&#45;cbmc/src</text>
<text text-anchor="middle" x="519.5" y="-102" font-family="Helvetica,sans-Serif" font-size="10.00">/cbmc/cbmc_parse_options.h</text>
</a>
</g>
</g>
<!-- Node1&#45;&gt;Node3 -->
<g id="edge2" class="edge">
<title>Node1&#45;&gt;Node3</title>
<path fill="none" stroke="midnightblue" d="M1452.67,-196.02C1256.71,-179.32 786.33,-139.24 598.71,-123.25"/>
<polygon fill="midnightblue" stroke="midnightblue" points="1452.66,-199.53 1462.92,-196.89 1453.25,-192.55 1452.66,-199.53"/>
</g>
<!-- Node8 -->
<g id="node8" class="node">
<title>Node8</title>
<g id="a_node8"><a xlink:href="goto__analyzer__parse__options_8h.html" target="_top" xlink:title="Goto&#45;Analyser Command Line Option Processing.">
<polygon fill="none" stroke="black" points="996,-89.5 996,-141.5 1155,-141.5 1155,-89.5 996,-89.5"/>
<text text-anchor="start" x="1004" y="-129.5" font-family="Helvetica,sans-Serif" font-size="10.00">/home/runner/work/diffblue</text>
<text text-anchor="start" x="1004" y="-118.5" font-family="Helvetica,sans-Serif" font-size="10.00">&#45;cbmc/diffblue&#45;cbmc/src</text>
<text text-anchor="start" x="1004" y="-107.5" font-family="Helvetica,sans-Serif" font-size="10.00">/goto&#45;analyzer/goto_analyzer</text>
<text text-anchor="middle" x="1075.5" y="-96.5" font-family="Helvetica,sans-Serif" font-size="10.00">_parse_options.h</text>
</a>
</g>
</g>
<!-- Node1&#45;&gt;Node8 -->
<g id="edge7" class="edge">
<title>Node1&#45;&gt;Node8</title>
<path fill="none" stroke="midnightblue" d="M1452.97,-187.12C1367.35,-171.1 1238.08,-146.92 1155.24,-131.42"/>
<polygon fill="midnightblue" stroke="midnightblue" points="1452.46,-190.59 1462.93,-188.99 1453.75,-183.71 1452.46,-190.59"/>
</g>
<!-- Node12 -->
<g id="node12" class="node">
<title>Node12</title>
<g id="a_node12"><a xlink:href="goto__diff__parse__options_8h.html" target="_top" xlink:title="GOTO&#45;DIFF Command Line Option Processing.">
<polygon fill="none" stroke="black" points="1466,-89.5 1466,-141.5 1615,-141.5 1615,-89.5 1466,-89.5"/>
<text text-anchor="start" x="1474" y="-129.5" font-family="Helvetica,sans-Serif" font-size="10.00">/home/runner/work/diffblue</text>
<text text-anchor="start" x="1474" y="-118.5" font-family="Helvetica,sans-Serif" font-size="10.00">&#45;cbmc/diffblue&#45;cbmc/src</text>
<text text-anchor="start" x="1474" y="-107.5" font-family="Helvetica,sans-Serif" font-size="10.00">/goto&#45;diff/goto_diff_parse</text>
<text text-anchor="middle" x="1540.5" y="-96.5" font-family="Helvetica,sans-Serif" font-size="10.00">_options.h</text>
</a>
</g>
</g>
<!-- Node1&#45;&gt;Node12 -->
<g id="edge11" class="edge">
<title>Node1&#45;&gt;Node12</title>
<path fill="none" stroke="midnightblue" d="M1540.5,-168.19C1540.5,-159.28 1540.5,-149.9 1540.5,-141.61"/>
<polygon fill="midnightblue" stroke="midnightblue" points="1537,-168.34 1540.5,-178.34 1544,-168.34 1537,-168.34"/>
</g>
<!-- Node16 -->
<g id="node16" class="node">
<title>Node16</title>
<g id="a_node16"><a xlink:href="goto__instrument__parse__options_8h.html" target="_top" xlink:title="Command Line Parsing.">
<polygon fill="none" stroke="black" points="1718.5,-89.5 1718.5,-141.5 1900.5,-141.5 1900.5,-89.5 1718.5,-89.5"/>
<text text-anchor="start" x="1726.5" y="-129.5" font-family="Helvetica,sans-Serif" font-size="10.00">/home/runner/work/diffblue</text>
<text text-anchor="start" x="1726.5" y="-118.5" font-family="Helvetica,sans-Serif" font-size="10.00">&#45;cbmc/diffblue&#45;cbmc/src</text>
<text text-anchor="start" x="1726.5" y="-107.5" font-family="Helvetica,sans-Serif" font-size="10.00">/goto&#45;instrument/goto_instrument</text>
<text text-anchor="middle" x="1809.5" y="-96.5" font-family="Helvetica,sans-Serif" font-size="10.00">_parse_options.h</text>
</a>
</g>
</g>
<!-- Node1&#45;&gt;Node16 -->
<g id="edge15" class="edge">
<title>Node1&#45;&gt;Node16</title>
<path fill="none" stroke="midnightblue" d="M1627.76,-175.28C1661.38,-164.4 1699.51,-152.07 1732.14,-141.52"/>
<polygon fill="midnightblue" stroke="midnightblue" points="1626.38,-172.05 1617.95,-178.45 1628.54,-178.71 1626.38,-172.05"/>
</g>
<!-- Node20 -->
<g id="node20" class="node">
<title>Node20</title>
<g id="a_node20"><a xlink:href="process__goto__program_8cpp.html" target="_top" xlink:title="Get a Goto Program.">
<polygon fill="none" stroke="black" points="1919,-89.5 1919,-141.5 2078,-141.5 2078,-89.5 1919,-89.5"/>
<text text-anchor="start" x="1927" y="-129.5" font-family="Helvetica,sans-Serif" font-size="10.00">/home/runner/work/diffblue</text>
<text text-anchor="start" x="1927" y="-118.5" font-family="Helvetica,sans-Serif" font-size="10.00">&#45;cbmc/diffblue&#45;cbmc/src</text>
<text text-anchor="start" x="1927" y="-107.5" font-family="Helvetica,sans-Serif" font-size="10.00">/goto&#45;programs/process_goto</text>
<text text-anchor="middle" x="1998.5" y="-96.5" font-family="Helvetica,sans-Serif" font-size="10.00">_program.cpp</text>
</a>
</g>
</g>
<!-- Node1&#45;&gt;Node20 -->
<g id="edge19" class="edge">
<title>Node1&#45;&gt;Node20</title>
<path fill="none" stroke="midnightblue" d="M1628.39,-191.73C1703.49,-180.98 1814.2,-163.52 1909.5,-142 1912.48,-141.33 1915.51,-140.61 1918.56,-139.87"/>
<polygon fill="midnightblue" stroke="midnightblue" points="1627.44,-188.33 1618.03,-193.2 1628.43,-195.26 1627.44,-188.33"/>
</g>
<!-- Node21 -->
<g id="node21" class="node">
<title>Node21</title>
<g id="a_node21"><a xlink:href="api__options_8cpp.html" target="_top" xlink:title=" ">
<polygon fill="none" stroke="black" points="2096,-95 2096,-136 2265,-136 2265,-95 2096,-95"/>
<text text-anchor="start" x="2104" y="-124" font-family="Helvetica,sans-Serif" font-size="10.00">/home/runner/work/diffblue</text>
<text text-anchor="start" x="2104" y="-113" font-family="Helvetica,sans-Serif" font-size="10.00">&#45;cbmc/diffblue&#45;cbmc/src</text>
<text text-anchor="middle" x="2180.5" y="-102" font-family="Helvetica,sans-Serif" font-size="10.00">/libcprover&#45;cpp/api_options.cpp</text>
</a>
</g>
</g>
<!-- Node1&#45;&gt;Node21 -->
<g id="edge20" class="edge">
<title>Node1&#45;&gt;Node21</title>
<path fill="none" stroke="midnightblue" d="M1628.32,-197.86C1736.9,-189.91 1927.04,-172.83 2087.5,-142 2096.21,-140.33 2105.31,-138.25 2114.25,-136.02"/>
<polygon fill="midnightblue" stroke="midnightblue" points="1627.79,-194.38 1618.07,-198.6 1628.3,-201.37 1627.79,-194.38"/>
</g>
<!-- Node4 -->
<g id="node4" class="node">
<title>Node4</title>
<g id="a_node4"><a xlink:href="cbmc__languages_8cpp.html" target="_top" xlink:title="Language Registration.">
<polygon fill="none" stroke="black" points="0,-6 0,-47 151,-47 151,-6 0,-6"/>
<text text-anchor="start" x="8" y="-35" font-family="Helvetica,sans-Serif" font-size="10.00">/home/runner/work/diffblue</text>
<text text-anchor="start" x="8" y="-24" font-family="Helvetica,sans-Serif" font-size="10.00">&#45;cbmc/diffblue&#45;cbmc/src</text>
<text text-anchor="middle" x="75.5" y="-13" font-family="Helvetica,sans-Serif" font-size="10.00">/cbmc/cbmc_languages.cpp</text>
</a>
</g>
</g>
<!-- Node3&#45;&gt;Node4 -->
<g id="edge3" class="edge">
<title>Node3&#45;&gt;Node4</title>
<path fill="none" stroke="midnightblue" d="M445.74,-92.47C440.6,-91.21 435.49,-90.04 430.5,-89 311.56,-64.2 278.25,-78.73 159.5,-53 151.75,-51.32 143.69,-49.27 135.76,-47.07"/>
<polygon fill="midnightblue" stroke="midnightblue" points="445.06,-95.91 455.61,-94.98 446.78,-89.12 445.06,-95.91"/>
</g>
<!-- Node5 -->
<g id="node5" class="node">
<title>Node5</title>
<g id="a_node5"><a xlink:href="cbmc__main_8cpp.html" target="_top" xlink:title="CBMC Main Module.">
<polygon fill="none" stroke="black" points="169,-6 169,-47 318,-47 318,-6 169,-6"/>
<text text-anchor="start" x="177" y="-35" font-family="Helvetica,sans-Serif" font-size="10.00">/home/runner/work/diffblue</text>
<text text-anchor="start" x="177" y="-24" font-family="Helvetica,sans-Serif" font-size="10.00">&#45;cbmc/diffblue&#45;cbmc/src</text>
<text text-anchor="middle" x="243.5" y="-13" font-family="Helvetica,sans-Serif" font-size="10.00">/cbmc/cbmc_main.cpp</text>
</a>
</g>
</g>
<!-- Node3&#45;&gt;Node5 -->
<g id="edge4" class="edge">
<title>Node3&#45;&gt;Node5</title>
<path fill="none" stroke="midnightblue" d="M447.78,-91.89C403.74,-78.01 347.88,-60.4 305.71,-47.11"/>
<polygon fill="midnightblue" stroke="midnightblue" points="446.97,-95.31 457.56,-94.98 449.08,-88.63 446.97,-95.31"/>
</g>
<!-- Node6 -->
<g id="node6" class="node">
<title>Node6</title>
<g id="a_node6"><a xlink:href="cbmc__parse__options_8cpp.html" target="_top" xlink:title="CBMC Command Line Option Processing.">
<polygon fill="none" stroke="black" points="336,-6 336,-47 505,-47 505,-6 336,-6"/>
<text text-anchor="start" x="344" y="-35" font-family="Helvetica,sans-Serif" font-size="10.00">/home/runner/work/diffblue</text>
<text text-anchor="start" x="344" y="-24" font-family="Helvetica,sans-Serif" font-size="10.00">&#45;cbmc/diffblue&#45;cbmc/src</text>
<text text-anchor="middle" x="420.5" y="-13" font-family="Helvetica,sans-Serif" font-size="10.00">/cbmc/cbmc_parse_options.cpp</text>
</a>
</g>
</g>
<!-- Node3&#45;&gt;Node6 -->
<g id="edge5" class="edge">
<title>Node3&#45;&gt;Node6</title>
<path fill="none" stroke="midnightblue" d="M489.49,-88.13C474.49,-74.95 456.66,-59.27 442.88,-47.16"/>
<polygon fill="midnightblue" stroke="midnightblue" points="487.21,-90.79 497.04,-94.76 491.83,-85.53 487.21,-90.79"/>
</g>
<!-- Node7 -->
<g id="node7" class="node">
<title>Node7</title>
<g id="a_node7"><a xlink:href="goto__synthesizer__parse__options_8cpp.html" target="_top" xlink:title="Main Module.">
<polygon fill="none" stroke="black" points="523.5,-0.5 523.5,-52.5 711.5,-52.5 711.5,-0.5 523.5,-0.5"/>
<text text-anchor="start" x="531.5" y="-40.5" font-family="Helvetica,sans-Serif" font-size="10.00">/home/runner/work/diffblue</text>
<text text-anchor="start" x="531.5" y="-29.5" font-family="Helvetica,sans-Serif" font-size="10.00">&#45;cbmc/diffblue&#45;cbmc/src</text>
<text text-anchor="start" x="531.5" y="-18.5" font-family="Helvetica,sans-Serif" font-size="10.00">/goto&#45;synthesizer/goto_synthesizer</text>
<text text-anchor="middle" x="617.5" y="-7.5" font-family="Helvetica,sans-Serif" font-size="10.00">_parse_options.cpp</text>
</a>
</g>
</g>
<!-- Node3&#45;&gt;Node7 -->
<g id="edge6" class="edge">
<title>Node3&#45;&gt;Node7</title>
<path fill="none" stroke="midnightblue" d="M549.29,-88.05C561.91,-76.85 576.54,-63.86 589.01,-52.79"/>
<polygon fill="midnightblue" stroke="midnightblue" points="546.89,-85.5 541.74,-94.76 551.54,-90.74 546.89,-85.5"/>
</g>
<!-- Node9 -->
<g id="node9" class="node">
<title>Node9</title>
<g id="a_node9"><a xlink:href="goto__analyzer__languages_8cpp.html" target="_top" xlink:title="Language Registration.">
<polygon fill="none" stroke="black" points="730,-0.5 730,-52.5 889,-52.5 889,-0.5 730,-0.5"/>
<text text-anchor="start" x="738" y="-40.5" font-family="Helvetica,sans-Serif" font-size="10.00">/home/runner/work/diffblue</text>
<text text-anchor="start" x="738" y="-29.5" font-family="Helvetica,sans-Serif" font-size="10.00">&#45;cbmc/diffblue&#45;cbmc/src</text>
<text text-anchor="start" x="738" y="-18.5" font-family="Helvetica,sans-Serif" font-size="10.00">/goto&#45;analyzer/goto_analyzer</text>
<text text-anchor="middle" x="809.5" y="-7.5" font-family="Helvetica,sans-Serif" font-size="10.00">_languages.cpp</text>
</a>
</g>
</g>
<!-- Node8&#45;&gt;Node9 -->
<g id="edge8" class="edge">
<title>Node8&#45;&gt;Node9</title>
<path fill="none" stroke="midnightblue" d="M989.21,-86.28C955.97,-75.4 918.26,-63.07 886,-52.52"/>
<polygon fill="midnightblue" stroke="midnightblue" points="988.33,-89.67 998.92,-89.45 990.5,-83.02 988.33,-89.67"/>
</g>
<!-- Node10 -->
<g id="node10" class="node">
<title>Node10</title>
<g id="a_node10"><a xlink:href="goto__analyzer__main_8cpp.html" target="_top" xlink:title="Goto&#45;Analyser Main Module.">
<polygon fill="none" stroke="black" points="907,-0.5 907,-52.5 1066,-52.5 1066,-0.5 907,-0.5"/>
<text text-anchor="start" x="915" y="-40.5" font-family="Helvetica,sans-Serif" font-size="10.00">/home/runner/work/diffblue</text>
<text text-anchor="start" x="915" y="-29.5" font-family="Helvetica,sans-Serif" font-size="10.00">&#45;cbmc/diffblue&#45;cbmc/src</text>
<text text-anchor="start" x="915" y="-18.5" font-family="Helvetica,sans-Serif" font-size="10.00">/goto&#45;analyzer/goto_analyzer</text>
<text text-anchor="middle" x="986.5" y="-7.5" font-family="Helvetica,sans-Serif" font-size="10.00">_main.cpp</text>
</a>
</g>
</g>
<!-- Node8&#45;&gt;Node10 -->
<g id="edge9" class="edge">
<title>Node8&#45;&gt;Node10</title>
<path fill="none" stroke="midnightblue" d="M1042.33,-82.08C1032.37,-72.34 1021.59,-61.8 1012.18,-52.61"/>
<polygon fill="midnightblue" stroke="midnightblue" points="1040.16,-84.85 1049.76,-89.34 1045.05,-79.84 1040.16,-84.85"/>
</g>
<!-- Node11 -->
<g id="node11" class="node">
<title>Node11</title>
<g id="a_node11"><a xlink:href="goto__analyzer__parse__options_8cpp.html" target="_top" xlink:title="Goto&#45;Analyser Command Line Option Processing.">
<polygon fill="none" stroke="black" points="1084,-0.5 1084,-52.5 1243,-52.5 1243,-0.5 1084,-0.5"/>
<text text-anchor="start" x="1092" y="-40.5" font-family="Helvetica,sans-Serif" font-size="10.00">/home/runner/work/diffblue</text>
<text text-anchor="start" x="1092" y="-29.5" font-family="Helvetica,sans-Serif" font-size="10.00">&#45;cbmc/diffblue&#45;cbmc/src</text>
<text text-anchor="start" x="1092" y="-18.5" font-family="Helvetica,sans-Serif" font-size="10.00">/goto&#45;analyzer/goto_analyzer</text>
<text text-anchor="middle" x="1163.5" y="-7.5" font-family="Helvetica,sans-Serif" font-size="10.00">_parse_options.cpp</text>
</a>
</g>
</g>
<!-- Node8&#45;&gt;Node11 -->
<g id="edge10" class="edge">
<title>Node8&#45;&gt;Node11</title>
<path fill="none" stroke="midnightblue" d="M1108.3,-82.08C1118.15,-72.34 1128.81,-61.8 1138.1,-52.61"/>
<polygon fill="midnightblue" stroke="midnightblue" points="1105.6,-79.82 1100.95,-89.34 1110.53,-84.79 1105.6,-79.82"/>
</g>
<!-- Node13 -->
<g id="node13" class="node">
<title>Node13</title>
<g id="a_node13"><a xlink:href="goto__diff__languages_8cpp.html" target="_top" xlink:title="Language Registration.">
<polygon fill="none" stroke="black" points="1261.5,-6 1261.5,-47 1443.5,-47 1443.5,-6 1261.5,-6"/>
<text text-anchor="start" x="1269.5" y="-35" font-family="Helvetica,sans-Serif" font-size="10.00">/home/runner/work/diffblue</text>
<text text-anchor="start" x="1269.5" y="-24" font-family="Helvetica,sans-Serif" font-size="10.00">&#45;cbmc/diffblue&#45;cbmc/src</text>
<text text-anchor="middle" x="1352.5" y="-13" font-family="Helvetica,sans-Serif" font-size="10.00">/goto&#45;diff/goto_diff_languages.cpp</text>
</a>
</g>
</g>
<!-- Node12&#45;&gt;Node13 -->
<g id="edge12" class="edge">
<title>Node12&#45;&gt;Node13</title>
<path fill="none" stroke="midnightblue" d="M1476.99,-85.11C1449.95,-72.59 1419.13,-58.34 1394.93,-47.13"/>
<polygon fill="midnightblue" stroke="midnightblue" points="1475.83,-88.43 1486.37,-89.45 1478.77,-82.08 1475.83,-88.43"/>
</g>
<!-- Node14 -->
<g id="node14" class="node">
<title>Node14</title>
<g id="a_node14"><a xlink:href="goto__diff__main_8cpp.html" target="_top" xlink:title="GOTO&#45;DIFF Main Module.">
<polygon fill="none" stroke="black" points="1462,-6 1462,-47 1619,-47 1619,-6 1462,-6"/>
<text text-anchor="start" x="1470" y="-35" font-family="Helvetica,sans-Serif" font-size="10.00">/home/runner/work/diffblue</text>
<text text-anchor="start" x="1470" y="-24" font-family="Helvetica,sans-Serif" font-size="10.00">&#45;cbmc/diffblue&#45;cbmc/src</text>
<text text-anchor="middle" x="1540.5" y="-13" font-family="Helvetica,sans-Serif" font-size="10.00">/goto&#45;diff/goto_diff_main.cpp</text>
</a>
</g>
</g>
<!-- Node12&#45;&gt;Node14 -->
<g id="edge13" class="edge">
<title>Node12&#45;&gt;Node14</title>
<path fill="none" stroke="midnightblue" d="M1540.5,-79.16C1540.5,-68.21 1540.5,-56.55 1540.5,-47.08"/>
<polygon fill="midnightblue" stroke="midnightblue" points="1537,-79.34 1540.5,-89.34 1544,-79.34 1537,-79.34"/>
</g>
<!-- Node15 -->
<g id="node15" class="node">
<title>Node15</title>
<g id="a_node15"><a xlink:href="goto__diff__parse__options_8cpp.html" target="_top" xlink:title="GOTO&#45;DIFF Command Line Option Processing.">
<polygon fill="none" stroke="black" points="1637,-0.5 1637,-52.5 1786,-52.5 1786,-0.5 1637,-0.5"/>
<text text-anchor="start" x="1645" y="-40.5" font-family="Helvetica,sans-Serif" font-size="10.00">/home/runner/work/diffblue</text>
<text text-anchor="start" x="1645" y="-29.5" font-family="Helvetica,sans-Serif" font-size="10.00">&#45;cbmc/diffblue&#45;cbmc/src</text>
<text text-anchor="start" x="1645" y="-18.5" font-family="Helvetica,sans-Serif" font-size="10.00">/goto&#45;diff/goto_diff_parse</text>
<text text-anchor="middle" x="1711.5" y="-7.5" font-family="Helvetica,sans-Serif" font-size="10.00">_options.cpp</text>
</a>
</g>
</g>
<!-- Node12&#45;&gt;Node15 -->
<g id="edge14" class="edge">
<title>Node12&#45;&gt;Node15</title>
<path fill="none" stroke="midnightblue" d="M1598.92,-84.78C1619.5,-74.31 1642.4,-62.66 1662.15,-52.61"/>
<polygon fill="midnightblue" stroke="midnightblue" points="1597.29,-81.68 1589.96,-89.34 1600.46,-87.92 1597.29,-81.68"/>
</g>
<!-- Node17 -->
<g id="node17" class="node">
<title>Node17</title>
<g id="a_node17"><a xlink:href="goto__instrument__languages_8cpp.html" target="_top" xlink:title="Language Registration.">
<polygon fill="none" stroke="black" points="1804.5,-0.5 1804.5,-52.5 1986.5,-52.5 1986.5,-0.5 1804.5,-0.5"/>
<text text-anchor="start" x="1812.5" y="-40.5" font-family="Helvetica,sans-Serif" font-size="10.00">/home/runner/work/diffblue</text>
<text text-anchor="start" x="1812.5" y="-29.5" font-family="Helvetica,sans-Serif" font-size="10.00">&#45;cbmc/diffblue&#45;cbmc/src</text>
<text text-anchor="start" x="1812.5" y="-18.5" font-family="Helvetica,sans-Serif" font-size="10.00">/goto&#45;instrument/goto_instrument</text>
<text text-anchor="middle" x="1895.5" y="-7.5" font-family="Helvetica,sans-Serif" font-size="10.00">_languages.cpp</text>
</a>
</g>
</g>
<!-- Node16&#45;&gt;Node17 -->
<g id="edge16" class="edge">
<title>Node16&#45;&gt;Node17</title>
<path fill="none" stroke="midnightblue" d="M1841.55,-82.08C1851.18,-72.34 1861.59,-61.8 1870.68,-52.61"/>
<polygon fill="midnightblue" stroke="midnightblue" points="1838.92,-79.76 1834.37,-89.34 1843.89,-84.68 1838.92,-79.76"/>
</g>
<!-- Node18 -->
<g id="node18" class="node">
<title>Node18</title>
<g id="a_node18"><a xlink:href="goto__instrument__main_8cpp.html" target="_top" xlink:title="Main Module.">
<polygon fill="none" stroke="black" points="2004.5,-0.5 2004.5,-52.5 2186.5,-52.5 2186.5,-0.5 2004.5,-0.5"/>
<text text-anchor="start" x="2012.5" y="-40.5" font-family="Helvetica,sans-Serif" font-size="10.00">/home/runner/work/diffblue</text>
<text text-anchor="start" x="2012.5" y="-29.5" font-family="Helvetica,sans-Serif" font-size="10.00">&#45;cbmc/diffblue&#45;cbmc/src</text>
<text text-anchor="start" x="2012.5" y="-18.5" font-family="Helvetica,sans-Serif" font-size="10.00">/goto&#45;instrument/goto_instrument</text>
<text text-anchor="middle" x="2095.5" y="-7.5" font-family="Helvetica,sans-Serif" font-size="10.00">_main.cpp</text>
</a>
</g>
</g>
<!-- Node16&#45;&gt;Node18 -->
<g id="edge17" class="edge">
<title>Node16&#45;&gt;Node18</title>
<path fill="none" stroke="midnightblue" d="M1901.81,-86.42C1937.67,-75.51 1978.41,-63.12 2013.25,-52.52"/>
<polygon fill="midnightblue" stroke="midnightblue" points="1900.39,-83.19 1891.84,-89.45 1902.43,-89.89 1900.39,-83.19"/>
</g>
<!-- Node19 -->
<g id="node19" class="node">
<title>Node19</title>
<g id="a_node19"><a xlink:href="goto__instrument__parse__options_8cpp.html" target="_top" xlink:title="Main Module.">
<polygon fill="none" stroke="black" points="2204.5,-0.5 2204.5,-52.5 2386.5,-52.5 2386.5,-0.5 2204.5,-0.5"/>
<text text-anchor="start" x="2212.5" y="-40.5" font-family="Helvetica,sans-Serif" font-size="10.00">/home/runner/work/diffblue</text>
<text text-anchor="start" x="2212.5" y="-29.5" font-family="Helvetica,sans-Serif" font-size="10.00">&#45;cbmc/diffblue&#45;cbmc/src</text>
<text text-anchor="start" x="2212.5" y="-18.5" font-family="Helvetica,sans-Serif" font-size="10.00">/goto&#45;instrument/goto_instrument</text>
<text text-anchor="middle" x="2295.5" y="-7.5" font-family="Helvetica,sans-Serif" font-size="10.00">_parse_options.cpp</text>
</a>
</g>
</g>
<!-- Node16&#45;&gt;Node19 -->
<g id="edge18" class="edge">
<title>Node16&#45;&gt;Node19</title>
<path fill="none" stroke="midnightblue" d="M1910.19,-89.06C1910.29,-89.04 1910.4,-89.02 1910.5,-89 2035.96,-65.33 2070.07,-76.82 2195.5,-53 2198.4,-52.45 2201.35,-51.86 2204.32,-51.25"/>
<polygon fill="midnightblue" stroke="midnightblue" points="1909.63,-85.6 1900.5,-90.98 1910.99,-92.47 1909.63,-85.6"/>
</g>
</g>
</svg>
