<?xml version="1.0" encoding="UTF-8" standalone="no"?>
<!DOCTYPE svg PUBLIC "-//W3C//DTD SVG 1.1//EN"
 "http://www.w3.org/Graphics/SVG/1.1/DTD/svg11.dtd">
<!-- Generated by graphviz version 2.43.0 (0)
 -->
<!-- Title: /home/runner/work/diffblue&#45;cbmc/diffblue&#45;cbmc/src/goto&#45;cc/goto_cc_mode.h Pages: 1 -->
<svg width="1600pt" height="206pt"
 viewBox="0.00 0.00 1600.00 206.00" xmlns="http://www.w3.org/2000/svg" xmlns:xlink="http://www.w3.org/1999/xlink">
<g id="graph0" class="graph" transform="scale(1 1) rotate(0) translate(4 202)">
<title>/home/runner/work/diffblue&#45;cbmc/diffblue&#45;cbmc/src/goto&#45;cc/goto_cc_mode.h</title>
<!-- Node1 -->
<g id="node1" class="node">
<title>Node1</title>
<g id="a_node1"><a xlink:title="Command line interpretation for goto&#45;cc.">
<polygon fill="#bfbfbf" stroke="black" points="751,-156.5 751,-197.5 900,-197.5 900,-156.5 751,-156.5"/>
<text text-anchor="start" x="759" y="-185.5" font-family="Helvetica,sans-Serif" font-size="10.00">/home/runner/work/diffblue</text>
<text text-anchor="start" x="759" y="-174.5" font-family="Helvetica,sans-Serif" font-size="10.00">&#45;cbmc/diffblue&#45;cbmc/src</text>
<text text-anchor="middle" x="825.5" y="-163.5" font-family="Helvetica,sans-Serif" font-size="10.00">/goto&#45;cc/goto_cc_mode.h</text>
</a>
</g>
</g>
<!-- Node2 -->
<g id="node2" class="node">
<title>Node2</title>
<g id="a_node2"><a xlink:href="armcc__mode_8h.html" target="_top" xlink:title="Base class for command line interpretation for CL.">
<polygon fill="none" stroke="black" points="83,-78.5 83,-119.5 232,-119.5 232,-78.5 83,-78.5"/>
<text text-anchor="start" x="91" y="-107.5" font-family="Helvetica,sans-Serif" font-size="10.00">/home/runner/work/diffblue</text>
<text text-anchor="start" x="91" y="-96.5" font-family="Helvetica,sans-Serif" font-size="10.00">&#45;cbmc/diffblue&#45;cbmc/src</text>
<text text-anchor="middle" x="157.5" y="-85.5" font-family="Helvetica,sans-Serif" font-size="10.00">/goto&#45;cc/armcc_mode.h</text>
</a>
</g>
</g>
<!-- Node1&#45;&gt;Node2 -->
<g id="edge1" class="edge">
<title>Node1&#45;&gt;Node2</title>
<path fill="none" stroke="midnightblue" d="M740.64,-171.64C626.39,-164.91 417.05,-149.57 240.5,-120 237.72,-119.53 234.9,-119.03 232.05,-118.49"/>
<polygon fill="midnightblue" stroke="midnightblue" points="740.54,-175.14 750.72,-172.22 740.94,-168.15 740.54,-175.14"/>
</g>
<!-- Node5 -->
<g id="node5" class="node">
<title>Node5</title>
<g id="a_node5"><a xlink:href="as__mode_8h.html" target="_top" xlink:title="Assembler Mode.">
<polygon fill="none" stroke="black" points="250,-78.5 250,-119.5 399,-119.5 399,-78.5 250,-78.5"/>
<text text-anchor="start" x="258" y="-107.5" font-family="Helvetica,sans-Serif" font-size="10.00">/home/runner/work/diffblue</text>
<text text-anchor="start" x="258" y="-96.5" font-family="Helvetica,sans-Serif" font-size="10.00">&#45;cbmc/diffblue&#45;cbmc/src</text>
<text text-anchor="middle" x="324.5" y="-85.5" font-family="Helvetica,sans-Serif" font-size="10.00">/goto&#45;cc/as_mode.h</text>
</a>
</g>
</g>
<!-- Node1&#45;&gt;Node5 -->
<g id="edge4" class="edge">
<title>Node1&#45;&gt;Node5</title>
<path fill="none" stroke="midnightblue" d="M740.67,-167.24C655.93,-157.87 522.13,-141.43 407.5,-120 404.73,-119.48 401.92,-118.93 399.08,-118.36"/>
<polygon fill="midnightblue" stroke="midnightblue" points="740.43,-170.73 750.76,-168.34 741.2,-163.77 740.43,-170.73"/>
</g>
<!-- Node7 -->
<g id="node7" class="node">
<title>Node7</title>
<g id="a_node7"><a xlink:href="cw__mode_8h.html" target="_top" xlink:title="Base class for command line interpretation.">
<polygon fill="none" stroke="black" points="417,-78.5 417,-119.5 566,-119.5 566,-78.5 417,-78.5"/>
<text text-anchor="start" x="425" y="-107.5" font-family="Helvetica,sans-Serif" font-size="10.00">/home/runner/work/diffblue</text>
<text text-anchor="start" x="425" y="-96.5" font-family="Helvetica,sans-Serif" font-size="10.00">&#45;cbmc/diffblue&#45;cbmc/src</text>
<text text-anchor="middle" x="491.5" y="-85.5" font-family="Helvetica,sans-Serif" font-size="10.00">/goto&#45;cc/cw_mode.h</text>
</a>
</g>
</g>
<!-- Node1&#45;&gt;Node7 -->
<g id="edge7" class="edge">
<title>Node1&#45;&gt;Node7</title>
<path fill="none" stroke="midnightblue" d="M740.96,-157.36C692.5,-146.6 630.54,-132.72 575.5,-120 572.43,-119.29 569.3,-118.56 566.14,-117.83"/>
<polygon fill="midnightblue" stroke="midnightblue" points="740.26,-160.79 750.78,-159.54 741.78,-153.95 740.26,-160.79"/>
</g>
<!-- Node9 -->
<g id="node9" class="node">
<title>Node9</title>
<g id="a_node9"><a xlink:href="gcc__mode_8h.html" target="_top" xlink:title="Base class for command line interpretation.">
<polygon fill="none" stroke="black" points="584,-78.5 584,-119.5 733,-119.5 733,-78.5 584,-78.5"/>
<text text-anchor="start" x="592" y="-107.5" font-family="Helvetica,sans-Serif" font-size="10.00">/home/runner/work/diffblue</text>
<text text-anchor="start" x="592" y="-96.5" font-family="Helvetica,sans-Serif" font-size="10.00">&#45;cbmc/diffblue&#45;cbmc/src</text>
<text text-anchor="middle" x="658.5" y="-85.5" font-family="Helvetica,sans-Serif" font-size="10.00">/goto&#45;cc/gcc_mode.h</text>
</a>
</g>
</g>
<!-- Node1&#45;&gt;Node9 -->
<g id="edge10" class="edge">
<title>Node1&#45;&gt;Node9</title>
<path fill="none" stroke="midnightblue" d="M773.18,-152.19C750.08,-141.67 723.25,-129.47 701.36,-119.51"/>
<polygon fill="midnightblue" stroke="midnightblue" points="771.94,-155.47 782.49,-156.43 774.84,-149.1 771.94,-155.47"/>
</g>
<!-- Node11 -->
<g id="node11" class="node">
<title>Node11</title>
<g id="a_node11"><a xlink:href="goto__cc__languages_8cpp.html" target="_top" xlink:title="Language Registration.">
<polygon fill="none" stroke="black" points="1252.5,-78.5 1252.5,-119.5 1424.5,-119.5 1424.5,-78.5 1252.5,-78.5"/>
<text text-anchor="start" x="1260.5" y="-107.5" font-family="Helvetica,sans-Serif" font-size="10.00">/home/runner/work/diffblue</text>
<text text-anchor="start" x="1260.5" y="-96.5" font-family="Helvetica,sans-Serif" font-size="10.00">&#45;cbmc/diffblue&#45;cbmc/src</text>
<text text-anchor="middle" x="1338.5" y="-85.5" font-family="Helvetica,sans-Serif" font-size="10.00">/goto&#45;cc/goto_cc_languages.cpp</text>
</a>
</g>
</g>
<!-- Node1&#45;&gt;Node11 -->
<g id="edge13" class="edge">
<title>Node1&#45;&gt;Node11</title>
<path fill="none" stroke="midnightblue" d="M910.2,-166.52C994.85,-156.62 1128.57,-139.77 1243.5,-120 1246.41,-119.5 1249.36,-118.97 1252.34,-118.43"/>
<polygon fill="midnightblue" stroke="midnightblue" points="909.66,-163.06 900.13,-167.7 910.47,-170.02 909.66,-163.06"/>
</g>
<!-- Node12 -->
<g id="node12" class="node">
<title>Node12</title>
<g id="a_node12"><a xlink:href="goto__cc__mode_8cpp.html" target="_top" xlink:title="Command line option container.">
<polygon fill="none" stroke="black" points="1443,-78.5 1443,-119.5 1592,-119.5 1592,-78.5 1443,-78.5"/>
<text text-anchor="start" x="1451" y="-107.5" font-family="Helvetica,sans-Serif" font-size="10.00">/home/runner/work/diffblue</text>
<text text-anchor="start" x="1451" y="-96.5" font-family="Helvetica,sans-Serif" font-size="10.00">&#45;cbmc/diffblue&#45;cbmc/src</text>
<text text-anchor="middle" x="1517.5" y="-85.5" font-family="Helvetica,sans-Serif" font-size="10.00">/goto&#45;cc/goto_cc_mode.cpp</text>
</a>
</g>
</g>
<!-- Node1&#45;&gt;Node12 -->
<g id="edge14" class="edge">
<title>Node1&#45;&gt;Node12</title>
<path fill="none" stroke="midnightblue" d="M910.39,-171.99C1028.36,-165.55 1248.26,-150.42 1433.5,-120 1436.61,-119.49 1439.77,-118.93 1442.96,-118.33"/>
<polygon fill="midnightblue" stroke="midnightblue" points="910.14,-168.5 900.34,-172.53 910.52,-175.49 910.14,-168.5"/>
</g>
<!-- Node13 -->
<g id="node13" class="node">
<title>Node13</title>
<g id="a_node13"><a xlink:href="ld__mode_8h.html" target="_top" xlink:title="Base class for command line interpretation.">
<polygon fill="none" stroke="black" points="751,-78.5 751,-119.5 900,-119.5 900,-78.5 751,-78.5"/>
<text text-anchor="start" x="759" y="-107.5" font-family="Helvetica,sans-Serif" font-size="10.00">/home/runner/work/diffblue</text>
<text text-anchor="start" x="759" y="-96.5" font-family="Helvetica,sans-Serif" font-size="10.00">&#45;cbmc/diffblue&#45;cbmc/src</text>
<text text-anchor="middle" x="825.5" y="-85.5" font-family="Helvetica,sans-Serif" font-size="10.00">/goto&#45;cc/ld_mode.h</text>
</a>
</g>
</g>
<!-- Node1&#45;&gt;Node13 -->
<g id="edge15" class="edge">
<title>Node1&#45;&gt;Node13</title>
<path fill="none" stroke="midnightblue" d="M825.5,-146.3C825.5,-137.3 825.5,-127.65 825.5,-119.51"/>
<polygon fill="midnightblue" stroke="midnightblue" points="822,-146.43 825.5,-156.43 829,-146.43 822,-146.43"/>
</g>
<!-- Node15 -->
<g id="node15" class="node">
<title>Node15</title>
<g id="a_node15"><a xlink:href="ms__cl__mode_8h.html" target="_top" xlink:title="Visual Studio CL Mode.">
<polygon fill="none" stroke="black" points="918,-78.5 918,-119.5 1067,-119.5 1067,-78.5 918,-78.5"/>
<text text-anchor="start" x="926" y="-107.5" font-family="Helvetica,sans-Serif" font-size="10.00">/home/runner/work/diffblue</text>
<text text-anchor="start" x="926" y="-96.5" font-family="Helvetica,sans-Serif" font-size="10.00">&#45;cbmc/diffblue&#45;cbmc/src</text>
<text text-anchor="middle" x="992.5" y="-85.5" font-family="Helvetica,sans-Serif" font-size="10.00">/goto&#45;cc/ms_cl_mode.h</text>
</a>
</g>
</g>
<!-- Node1&#45;&gt;Node15 -->
<g id="edge18" class="edge">
<title>Node1&#45;&gt;Node15</title>
<path fill="none" stroke="midnightblue" d="M877.82,-152.19C900.92,-141.67 927.75,-129.47 949.64,-119.51"/>
<polygon fill="midnightblue" stroke="midnightblue" points="876.16,-149.1 868.51,-156.43 879.06,-155.47 876.16,-149.1"/>
</g>
<!-- Node17 -->
<g id="node17" class="node">
<title>Node17</title>
<g id="a_node17"><a xlink:href="ms__link__mode_8h.html" target="_top" xlink:title="Visual Studio Link Mode.">
<polygon fill="none" stroke="black" points="1085,-78.5 1085,-119.5 1234,-119.5 1234,-78.5 1085,-78.5"/>
<text text-anchor="start" x="1093" y="-107.5" font-family="Helvetica,sans-Serif" font-size="10.00">/home/runner/work/diffblue</text>
<text text-anchor="start" x="1093" y="-96.5" font-family="Helvetica,sans-Serif" font-size="10.00">&#45;cbmc/diffblue&#45;cbmc/src</text>
<text text-anchor="middle" x="1159.5" y="-85.5" font-family="Helvetica,sans-Serif" font-size="10.00">/goto&#45;cc/ms_link_mode.h</text>
</a>
</g>
</g>
<!-- Node1&#45;&gt;Node17 -->
<g id="edge21" class="edge">
<title>Node1&#45;&gt;Node17</title>
<path fill="none" stroke="midnightblue" d="M910.12,-157.49C958.83,-146.75 1021.16,-132.84 1076.5,-120 1079.24,-119.36 1082.04,-118.71 1084.86,-118.05"/>
<polygon fill="midnightblue" stroke="midnightblue" points="909.27,-154.1 900.26,-159.67 910.78,-160.93 909.27,-154.1"/>
</g>
<!-- Node3 -->
<g id="node3" class="node">
<title>Node3</title>
<g id="a_node3"><a xlink:href="armcc__mode_8cpp.html" target="_top" xlink:title="Command line option container.">
<polygon fill="none" stroke="black" points="0,-0.5 0,-41.5 149,-41.5 149,-0.5 0,-0.5"/>
<text text-anchor="start" x="8" y="-29.5" font-family="Helvetica,sans-Serif" font-size="10.00">/home/runner/work/diffblue</text>
<text text-anchor="start" x="8" y="-18.5" font-family="Helvetica,sans-Serif" font-size="10.00">&#45;cbmc/diffblue&#45;cbmc/src</text>
<text text-anchor="middle" x="74.5" y="-7.5" font-family="Helvetica,sans-Serif" font-size="10.00">/goto&#45;cc/armcc_mode.cpp</text>
</a>
</g>
</g>
<!-- Node2&#45;&gt;Node3 -->
<g id="edge2" class="edge">
<title>Node2&#45;&gt;Node3</title>
<path fill="none" stroke="midnightblue" d="M128.55,-71.49C117.78,-61.63 105.76,-50.63 95.8,-41.51"/>
<polygon fill="midnightblue" stroke="midnightblue" points="126.39,-74.26 136.13,-78.43 131.11,-69.09 126.39,-74.26"/>
</g>
<!-- Node4 -->
<g id="node4" class="node">
<title>Node4</title>
<g id="a_node4"><a xlink:href="goto__cc__main_8cpp.html" target="_top" xlink:title="GOTO&#45;CC Main Module.">
<polygon fill="none" stroke="black" points="501,-0.5 501,-41.5 650,-41.5 650,-0.5 501,-0.5"/>
<text text-anchor="start" x="509" y="-29.5" font-family="Helvetica,sans-Serif" font-size="10.00">/home/runner/work/diffblue</text>
<text text-anchor="start" x="509" y="-18.5" font-family="Helvetica,sans-Serif" font-size="10.00">&#45;cbmc/diffblue&#45;cbmc/src</text>
<text text-anchor="middle" x="575.5" y="-7.5" font-family="Helvetica,sans-Serif" font-size="10.00">/goto&#45;cc/goto_cc_main.cpp</text>
</a>
</g>
</g>
<!-- Node2&#45;&gt;Node4 -->
<g id="edge3" class="edge">
<title>Node2&#45;&gt;Node4</title>
<path fill="none" stroke="midnightblue" d="M241.99,-77.8C352.92,-57.11 383.93,-62.48 491.5,-42 494.59,-41.41 497.74,-40.78 500.92,-40.13"/>
<polygon fill="midnightblue" stroke="midnightblue" points="241.26,-74.38 232.08,-79.68 242.56,-81.26 241.26,-74.38"/>
</g>
<!-- Node5&#45;&gt;Node4 -->
<g id="edge6" class="edge">
<title>Node5&#45;&gt;Node4</title>
<path fill="none" stroke="midnightblue" d="M399,-75.44C434.63,-64.66 476.86,-51.87 511.08,-41.51"/>
<polygon fill="midnightblue" stroke="midnightblue" points="397.7,-72.18 389.14,-78.43 399.72,-78.88 397.7,-72.18"/>
</g>
<!-- Node6 -->
<g id="node6" class="node">
<title>Node6</title>
<g id="a_node6"><a xlink:href="as__mode_8cpp.html" target="_top" xlink:title="Assembler Mode.">
<polygon fill="none" stroke="black" points="167,-0.5 167,-41.5 316,-41.5 316,-0.5 167,-0.5"/>
<text text-anchor="start" x="175" y="-29.5" font-family="Helvetica,sans-Serif" font-size="10.00">/home/runner/work/diffblue</text>
<text text-anchor="start" x="175" y="-18.5" font-family="Helvetica,sans-Serif" font-size="10.00">&#45;cbmc/diffblue&#45;cbmc/src</text>
<text text-anchor="middle" x="241.5" y="-7.5" font-family="Helvetica,sans-Serif" font-size="10.00">/goto&#45;cc/as_mode.cpp</text>
</a>
</g>
</g>
<!-- Node5&#45;&gt;Node6 -->
<g id="edge5" class="edge">
<title>Node5&#45;&gt;Node6</title>
<path fill="none" stroke="midnightblue" d="M295.55,-71.49C284.78,-61.63 272.76,-50.63 262.8,-41.51"/>
<polygon fill="midnightblue" stroke="midnightblue" points="293.39,-74.26 303.13,-78.43 298.11,-69.09 293.39,-74.26"/>
</g>
<!-- Node7&#45;&gt;Node4 -->
<g id="edge9" class="edge">
<title>Node7&#45;&gt;Node4</title>
<path fill="none" stroke="midnightblue" d="M520.8,-71.49C531.7,-61.63 543.86,-50.63 553.94,-41.51"/>
<polygon fill="midnightblue" stroke="midnightblue" points="518.2,-69.12 513.13,-78.43 522.9,-74.31 518.2,-69.12"/>
</g>
<!-- Node8 -->
<g id="node8" class="node">
<title>Node8</title>
<g id="a_node8"><a xlink:href="cw__mode_8cpp.html" target="_top" xlink:title="Command line option container.">
<polygon fill="none" stroke="black" points="334,-0.5 334,-41.5 483,-41.5 483,-0.5 334,-0.5"/>
<text text-anchor="start" x="342" y="-29.5" font-family="Helvetica,sans-Serif" font-size="10.00">/home/runner/work/diffblue</text>
<text text-anchor="start" x="342" y="-18.5" font-family="Helvetica,sans-Serif" font-size="10.00">&#45;cbmc/diffblue&#45;cbmc/src</text>
<text text-anchor="middle" x="408.5" y="-7.5" font-family="Helvetica,sans-Serif" font-size="10.00">/goto&#45;cc/cw_mode.cpp</text>
</a>
</g>
</g>
<!-- Node7&#45;&gt;Node8 -->
<g id="edge8" class="edge">
<title>Node7&#45;&gt;Node8</title>
<path fill="none" stroke="midnightblue" d="M462.55,-71.49C451.78,-61.63 439.76,-50.63 429.8,-41.51"/>
<polygon fill="midnightblue" stroke="midnightblue" points="460.39,-74.26 470.13,-78.43 465.11,-69.09 460.39,-74.26"/>
</g>
<!-- Node9&#45;&gt;Node4 -->
<g id="edge12" class="edge">
<title>Node9&#45;&gt;Node4</title>
<path fill="none" stroke="midnightblue" d="M629.55,-71.49C618.78,-61.63 606.76,-50.63 596.8,-41.51"/>
<polygon fill="midnightblue" stroke="midnightblue" points="627.39,-74.26 637.13,-78.43 632.11,-69.09 627.39,-74.26"/>
</g>
<!-- Node10 -->
<g id="node10" class="node">
<title>Node10</title>
<g id="a_node10"><a xlink:href="gcc__mode_8cpp.html" target="_top" xlink:title="GCC Mode.">
<polygon fill="none" stroke="black" points="668,-0.5 668,-41.5 817,-41.5 817,-0.5 668,-0.5"/>
<text text-anchor="start" x="676" y="-29.5" font-family="Helvetica,sans-Serif" font-size="10.00">/home/runner/work/diffblue</text>
<text text-anchor="start" x="676" y="-18.5" font-family="Helvetica,sans-Serif" font-size="10.00">&#45;cbmc/diffblue&#45;cbmc/src</text>
<text text-anchor="middle" x="742.5" y="-7.5" font-family="Helvetica,sans-Serif" font-size="10.00">/goto&#45;cc/gcc_mode.cpp</text>
</a>
</g>
</g>
<!-- Node9&#45;&gt;Node10 -->
<g id="edge11" class="edge">
<title>Node9&#45;&gt;Node10</title>
<path fill="none" stroke="midnightblue" d="M687.8,-71.49C698.7,-61.63 710.86,-50.63 720.94,-41.51"/>
<polygon fill="midnightblue" stroke="midnightblue" points="685.2,-69.12 680.13,-78.43 689.9,-74.31 685.2,-69.12"/>
</g>
<!-- Node13&#45;&gt;Node4 -->
<g id="edge16" class="edge">
<title>Node13&#45;&gt;Node4</title>
<path fill="none" stroke="midnightblue" d="M751.3,-75.44C715.81,-64.66 673.75,-51.87 639.66,-41.51"/>
<polygon fill="midnightblue" stroke="midnightblue" points="750.53,-78.87 761.12,-78.43 752.57,-72.17 750.53,-78.87"/>
</g>
<!-- Node14 -->
<g id="node14" class="node">
<title>Node14</title>
<g id="a_node14"><a xlink:href="ld__mode_8cpp.html" target="_top" xlink:title="LD Mode.">
<polygon fill="none" stroke="black" points="835,-0.5 835,-41.5 984,-41.5 984,-0.5 835,-0.5"/>
<text text-anchor="start" x="843" y="-29.5" font-family="Helvetica,sans-Serif" font-size="10.00">/home/runner/work/diffblue</text>
<text text-anchor="start" x="843" y="-18.5" font-family="Helvetica,sans-Serif" font-size="10.00">&#45;cbmc/diffblue&#45;cbmc/src</text>
<text text-anchor="middle" x="909.5" y="-7.5" font-family="Helvetica,sans-Serif" font-size="10.00">/goto&#45;cc/ld_mode.cpp</text>
</a>
</g>
</g>
<!-- Node13&#45;&gt;Node14 -->
<g id="edge17" class="edge">
<title>Node13&#45;&gt;Node14</title>
<path fill="none" stroke="midnightblue" d="M854.8,-71.49C865.7,-61.63 877.86,-50.63 887.94,-41.51"/>
<polygon fill="midnightblue" stroke="midnightblue" points="852.2,-69.12 847.13,-78.43 856.9,-74.31 852.2,-69.12"/>
</g>
<!-- Node15&#45;&gt;Node4 -->
<g id="edge19" class="edge">
<title>Node15&#45;&gt;Node4</title>
<path fill="none" stroke="midnightblue" d="M908.04,-77.81C797.52,-57.16 766.65,-62.43 659.5,-42 656.41,-41.41 653.26,-40.78 650.08,-40.13"/>
<polygon fill="midnightblue" stroke="midnightblue" points="907.44,-81.25 917.91,-79.68 908.74,-74.38 907.44,-81.25"/>
</g>
<!-- Node16 -->
<g id="node16" class="node">
<title>Node16</title>
<g id="a_node16"><a xlink:href="ms__cl__mode_8cpp.html" target="_top" xlink:title="Visual Studio CL Mode.">
<polygon fill="none" stroke="black" points="1002,-0.5 1002,-41.5 1151,-41.5 1151,-0.5 1002,-0.5"/>
<text text-anchor="start" x="1010" y="-29.5" font-family="Helvetica,sans-Serif" font-size="10.00">/home/runner/work/diffblue</text>
<text text-anchor="start" x="1010" y="-18.5" font-family="Helvetica,sans-Serif" font-size="10.00">&#45;cbmc/diffblue&#45;cbmc/src</text>
<text text-anchor="middle" x="1076.5" y="-7.5" font-family="Helvetica,sans-Serif" font-size="10.00">/goto&#45;cc/ms_cl_mode.cpp</text>
</a>
</g>
</g>
<!-- Node15&#45;&gt;Node16 -->
<g id="edge20" class="edge">
<title>Node15&#45;&gt;Node16</title>
<path fill="none" stroke="midnightblue" d="M1021.8,-71.49C1032.7,-61.63 1044.86,-50.63 1054.94,-41.51"/>
<polygon fill="midnightblue" stroke="midnightblue" points="1019.2,-69.12 1014.13,-78.43 1023.9,-74.31 1019.2,-69.12"/>
</g>
<!-- Node17&#45;&gt;Node4 -->
<g id="edge22" class="edge">
<title>Node17&#45;&gt;Node4</title>
<path fill="none" stroke="midnightblue" d="M1074.95,-77.87C891.1,-48.94 839.92,-71.1 659.5,-42 656.39,-41.5 653.23,-40.94 650.04,-40.35"/>
<polygon fill="midnightblue" stroke="midnightblue" points="1074.52,-81.35 1084.95,-79.48 1075.63,-74.44 1074.52,-81.35"/>
</g>
<!-- Node18 -->
<g id="node18" class="node">
<title>Node18</title>
<g id="a_node18"><a xlink:href="ms__link__mode_8cpp.html" target="_top" xlink:title="Visual Studio Link Mode.">
<polygon fill="none" stroke="black" points="1168.5,-0.5 1168.5,-41.5 1318.5,-41.5 1318.5,-0.5 1168.5,-0.5"/>
<text text-anchor="start" x="1176.5" y="-29.5" font-family="Helvetica,sans-Serif" font-size="10.00">/home/runner/work/diffblue</text>
<text text-anchor="start" x="1176.5" y="-18.5" font-family="Helvetica,sans-Serif" font-size="10.00">&#45;cbmc/diffblue&#45;cbmc/src</text>
<text text-anchor="middle" x="1243.5" y="-7.5" font-family="Helvetica,sans-Serif" font-size="10.00">/goto&#45;cc/ms_link_mode.cpp</text>
</a>
</g>
</g>
<!-- Node17&#45;&gt;Node18 -->
<g id="edge23" class="edge">
<title>Node17&#45;&gt;Node18</title>
<path fill="none" stroke="midnightblue" d="M1188.8,-71.49C1199.7,-61.63 1211.86,-50.63 1221.94,-41.51"/>
<polygon fill="midnightblue" stroke="midnightblue" points="1186.2,-69.12 1181.13,-78.43 1190.9,-74.31 1186.2,-69.12"/>
</g>
</g>
</svg>
