<?xml version="1.0" encoding="UTF-8" standalone="no"?>
<!DOCTYPE svg PUBLIC "-//W3C//DTD SVG 1.1//EN"
 "http://www.w3.org/Graphics/SVG/1.1/DTD/svg11.dtd">
<!-- Generated by graphviz version 2.43.0 (0)
 -->
<!-- Title: /home/runner/work/diffblue&#45;cbmc/diffblue&#45;cbmc/src/goto&#45;programs/goto_inline_class.h Pages: 1 -->
<svg width="344pt" height="150pt"
 viewBox="0.00 0.00 344.00 150.00" xmlns="http://www.w3.org/2000/svg" xmlns:xlink="http://www.w3.org/1999/xlink">
<g id="graph0" class="graph" transform="scale(1 1) rotate(0) translate(4 146)">
<title>/home/runner/work/diffblue&#45;cbmc/diffblue&#45;cbmc/src/goto&#45;programs/goto_inline_class.h</title>
<!-- Node1 -->
<g id="node1" class="node">
<title>Node1</title>
<g id="a_node1"><a xlink:title="Function Inlining This is a class that encapsulates the state and functionality needed to do inline m...">
<polygon fill="#bfbfbf" stroke="black" points="98,-89.5 98,-141.5 247,-141.5 247,-89.5 98,-89.5"/>
<text text-anchor="start" x="106" y="-129.5" font-family="Helvetica,sans-Serif" font-size="10.00">/home/runner/work/diffblue</text>
<text text-anchor="start" x="106" y="-118.5" font-family="Helvetica,sans-Serif" font-size="10.00">&#45;cbmc/diffblue&#45;cbmc/src</text>
<text text-anchor="start" x="106" y="-107.5" font-family="Helvetica,sans-Serif" font-size="10.00">/goto&#45;programs/goto_inline</text>
<text text-anchor="middle" x="172.5" y="-96.5" font-family="Helvetica,sans-Serif" font-size="10.00">_class.h</text>
</a>
</g>
</g>
<!-- Node2 -->
<g id="node2" class="node">
<title>Node2</title>
<g id="a_node2"><a xlink:href="goto__inline_8cpp.html" target="_top" xlink:title="Function Inlining.">
<polygon fill="none" stroke="black" points="0,-6 0,-47 169,-47 169,-6 0,-6"/>
<text text-anchor="start" x="8" y="-35" font-family="Helvetica,sans-Serif" font-size="10.00">/home/runner/work/diffblue</text>
<text text-anchor="start" x="8" y="-24" font-family="Helvetica,sans-Serif" font-size="10.00">&#45;cbmc/diffblue&#45;cbmc/src</text>
<text text-anchor="middle" x="84.5" y="-13" font-family="Helvetica,sans-Serif" font-size="10.00">/goto&#45;programs/goto_inline.cpp</text>
</a>
</g>
</g>
<!-- Node1&#45;&gt;Node2 -->
<g id="edge1" class="edge">
<title>Node1&#45;&gt;Node2</title>
<path fill="none" stroke="midnightblue" d="M139.81,-82.18C127.89,-70.39 114.77,-57.43 104.31,-47.08"/>
<polygon fill="midnightblue" stroke="midnightblue" points="137.47,-84.79 147.05,-89.34 142.4,-79.82 137.47,-84.79"/>
</g>
<!-- Node3 -->
<g id="node3" class="node">
<title>Node3</title>
<g id="a_node3"><a xlink:href="goto__inline__class_8cpp.html" target="_top" xlink:title="Function Inlining.">
<polygon fill="none" stroke="black" points="187,-0.5 187,-52.5 336,-52.5 336,-0.5 187,-0.5"/>
<text text-anchor="start" x="195" y="-40.5" font-family="Helvetica,sans-Serif" font-size="10.00">/home/runner/work/diffblue</text>
<text text-anchor="start" x="195" y="-29.5" font-family="Helvetica,sans-Serif" font-size="10.00">&#45;cbmc/diffblue&#45;cbmc/src</text>
<text text-anchor="start" x="195" y="-18.5" font-family="Helvetica,sans-Serif" font-size="10.00">/goto&#45;programs/goto_inline</text>
<text text-anchor="middle" x="261.5" y="-7.5" font-family="Helvetica,sans-Serif" font-size="10.00">_class.cpp</text>
</a>
</g>
</g>
<!-- Node1&#45;&gt;Node3 -->
<g id="edge2" class="edge">
<title>Node1&#45;&gt;Node3</title>
<path fill="none" stroke="midnightblue" d="M205.67,-82.08C215.63,-72.34 226.41,-61.8 235.82,-52.61"/>
<polygon fill="midnightblue" stroke="midnightblue" points="202.95,-79.84 198.24,-89.34 207.84,-84.85 202.95,-79.84"/>
</g>
</g>
</svg>
