<?xml version="1.0" encoding="UTF-8" standalone="no"?>
<!DOCTYPE svg PUBLIC "-//W3C//DTD SVG 1.1//EN"
 "http://www.w3.org/Graphics/SVG/1.1/DTD/svg11.dtd">
<!-- Generated by graphviz version 2.43.0 (0)
 -->
<!-- Title: /home/runner/work/diffblue&#45;cbmc/diffblue&#45;cbmc/src/goto&#45;programs/graphml_witness.h Pages: 1 -->
<svg width="374pt" height="128pt"
 viewBox="0.00 0.00 373.50 128.00" xmlns="http://www.w3.org/2000/svg" xmlns:xlink="http://www.w3.org/1999/xlink">
<g id="graph0" class="graph" transform="scale(1 1) rotate(0) translate(4 124)">
<title>/home/runner/work/diffblue&#45;cbmc/diffblue&#45;cbmc/src/goto&#45;programs/graphml_witness.h</title>
<!-- Node1 -->
<g id="node1" class="node">
<title>Node1</title>
<g id="a_node1"><a xlink:title="Witnesses for Traces and Proofs.">
<polygon fill="#bfbfbf" stroke="black" points="77,-78.5 77,-119.5 264,-119.5 264,-78.5 77,-78.5"/>
<text text-anchor="start" x="85" y="-107.5" font-family="Helvetica,sans-Serif" font-size="10.00">/home/runner/work/diffblue</text>
<text text-anchor="start" x="85" y="-96.5" font-family="Helvetica,sans-Serif" font-size="10.00">&#45;cbmc/diffblue&#45;cbmc/src</text>
<text text-anchor="middle" x="170.5" y="-85.5" font-family="Helvetica,sans-Serif" font-size="10.00">/goto&#45;programs/graphml_witness.h</text>
</a>
</g>
</g>
<!-- Node2 -->
<g id="node2" class="node">
<title>Node2</title>
<g id="a_node2"><a xlink:href="bmc__util_8cpp.html" target="_top" xlink:title="Bounded Model Checking Utilities.">
<polygon fill="none" stroke="black" points="0,-0.5 0,-41.5 149,-41.5 149,-0.5 0,-0.5"/>
<text text-anchor="start" x="8" y="-29.5" font-family="Helvetica,sans-Serif" font-size="10.00">/home/runner/work/diffblue</text>
<text text-anchor="start" x="8" y="-18.5" font-family="Helvetica,sans-Serif" font-size="10.00">&#45;cbmc/diffblue&#45;cbmc/src</text>
<text text-anchor="middle" x="74.5" y="-7.5" font-family="Helvetica,sans-Serif" font-size="10.00">/goto&#45;checker/bmc_util.cpp</text>
</a>
</g>
</g>
<!-- Node1&#45;&gt;Node2 -->
<g id="edge1" class="edge">
<title>Node1&#45;&gt;Node2</title>
<path fill="none" stroke="midnightblue" d="M137.74,-72.06C125.1,-62.06 110.88,-50.8 99.14,-41.51"/>
<polygon fill="midnightblue" stroke="midnightblue" points="135.76,-74.97 145.78,-78.43 140.11,-69.48 135.76,-74.97"/>
</g>
<!-- Node3 -->
<g id="node3" class="node">
<title>Node3</title>
<g id="a_node3"><a xlink:href="graphml__witness_8cpp.html" target="_top" xlink:title="Witnesses for Traces and Proofs.">
<polygon fill="none" stroke="black" points="167.5,-0.5 167.5,-41.5 365.5,-41.5 365.5,-0.5 167.5,-0.5"/>
<text text-anchor="start" x="175.5" y="-29.5" font-family="Helvetica,sans-Serif" font-size="10.00">/home/runner/work/diffblue</text>
<text text-anchor="start" x="175.5" y="-18.5" font-family="Helvetica,sans-Serif" font-size="10.00">&#45;cbmc/diffblue&#45;cbmc/src</text>
<text text-anchor="middle" x="266.5" y="-7.5" font-family="Helvetica,sans-Serif" font-size="10.00">/goto&#45;programs/graphml_witness.cpp</text>
</a>
</g>
</g>
<!-- Node1&#45;&gt;Node3 -->
<g id="edge2" class="edge">
<title>Node1&#45;&gt;Node3</title>
<path fill="none" stroke="midnightblue" d="M203.26,-72.06C215.9,-62.06 230.12,-50.8 241.86,-41.51"/>
<polygon fill="midnightblue" stroke="midnightblue" points="200.89,-69.48 195.22,-78.43 205.24,-74.97 200.89,-69.48"/>
</g>
</g>
</svg>
