<?xml version="1.0" encoding="UTF-8" standalone="no"?>
<!DOCTYPE svg PUBLIC "-//W3C//DTD SVG 1.1//EN"
 "http://www.w3.org/Graphics/SVG/1.1/DTD/svg11.dtd">
<!-- Generated by graphviz version 2.43.0 (0)
 -->
<!-- Title: /home/runner/work/diffblue&#45;cbmc/diffblue&#45;cbmc/src/util/identifier.cpp Pages: 1 -->
<svg width="175pt" height="162pt"
 viewBox="0.00 0.00 174.50 162.00" xmlns="http://www.w3.org/2000/svg" xmlns:xlink="http://www.w3.org/1999/xlink">
<g id="graph0" class="graph" transform="scale(1 1) rotate(0) translate(4 158)">
<title>/home/runner/work/diffblue&#45;cbmc/diffblue&#45;cbmc/src/util/identifier.cpp</title>
<!-- Node1 -->
<g id="node1" class="node">
<title>Node1</title>
<g id="a_node1"><a xlink:title=" ">
<polygon fill="#bfbfbf" stroke="black" points="17.5,-112.5 17.5,-153.5 166.5,-153.5 166.5,-112.5 17.5,-112.5"/>
<text text-anchor="start" x="25.5" y="-141.5" font-family="Helvetica,sans-Serif" font-size="10.00">/home/runner/work/diffblue</text>
<text text-anchor="start" x="25.5" y="-130.5" font-family="Helvetica,sans-Serif" font-size="10.00">&#45;cbmc/diffblue&#45;cbmc/src</text>
<text text-anchor="middle" x="92" y="-119.5" font-family="Helvetica,sans-Serif" font-size="10.00">/util/identifier.cpp</text>
</a>
</g>
</g>
<!-- Node2 -->
<g id="node2" class="node">
<title>Node2</title>
<g id="a_node2"><a xlink:href="identifier_8h.html" target="_top" xlink:title=" ">
<polygon fill="none" stroke="black" points="20,-56.5 20,-75.5 88,-75.5 88,-56.5 20,-56.5"/>
<text text-anchor="middle" x="54" y="-63.5" font-family="Helvetica,sans-Serif" font-size="10.00">identifier.h</text>
</a>
</g>
</g>
<!-- Node1&#45;&gt;Node2 -->
<g id="edge1" class="edge">
<title>Node1&#45;&gt;Node2</title>
<path fill="none" stroke="midnightblue" d="M80.6,-112.5C75.39,-103.59 69.27,-93.11 64.21,-84.46"/>
<polygon fill="midnightblue" stroke="midnightblue" points="67.13,-82.52 59.06,-75.65 61.08,-86.05 67.13,-82.52"/>
</g>
<!-- Node5 -->
<g id="node5" class="node">
<title>Node5</title>
<g id="a_node5"><a xlink:title=" ">
<polygon fill="none" stroke="#bfbfbf" points="106,-56.5 106,-75.5 156,-75.5 156,-56.5 106,-56.5"/>
<text text-anchor="middle" x="131" y="-63.5" font-family="Helvetica,sans-Serif" font-size="10.00">cstring</text>
</a>
</g>
</g>
<!-- Node1&#45;&gt;Node5 -->
<g id="edge4" class="edge">
<title>Node1&#45;&gt;Node5</title>
<path fill="none" stroke="midnightblue" d="M103.7,-112.5C109.05,-103.59 115.33,-93.11 120.52,-84.46"/>
<polygon fill="midnightblue" stroke="midnightblue" points="123.66,-86.03 125.81,-75.65 117.66,-82.43 123.66,-86.03"/>
</g>
<!-- Node3 -->
<g id="node3" class="node">
<title>Node3</title>
<g id="a_node3"><a xlink:title=" ">
<polygon fill="none" stroke="#bfbfbf" points="0,-0.5 0,-19.5 44,-19.5 44,-0.5 0,-0.5"/>
<text text-anchor="middle" x="22" y="-7.5" font-family="Helvetica,sans-Serif" font-size="10.00">string</text>
</a>
</g>
</g>
<!-- Node2&#45;&gt;Node3 -->
<g id="edge2" class="edge">
<title>Node2&#45;&gt;Node3</title>
<path fill="none" stroke="midnightblue" d="M48.72,-56.08C44.29,-48.61 37.84,-37.72 32.38,-28.52"/>
<polygon fill="midnightblue" stroke="midnightblue" points="35.29,-26.57 27.19,-19.75 29.27,-30.14 35.29,-26.57"/>
</g>
<!-- Node4 -->
<g id="node4" class="node">
<title>Node4</title>
<g id="a_node4"><a xlink:title=" ">
<polygon fill="none" stroke="#bfbfbf" points="62.5,-0.5 62.5,-19.5 109.5,-19.5 109.5,-0.5 62.5,-0.5"/>
<text text-anchor="middle" x="86" y="-7.5" font-family="Helvetica,sans-Serif" font-size="10.00">vector</text>
</a>
</g>
</g>
<!-- Node2&#45;&gt;Node4 -->
<g id="edge3" class="edge">
<title>Node2&#45;&gt;Node4</title>
<path fill="none" stroke="midnightblue" d="M59.28,-56.08C63.71,-48.61 70.16,-37.72 75.62,-28.52"/>
<polygon fill="midnightblue" stroke="midnightblue" points="78.73,-30.14 80.81,-19.75 72.71,-26.57 78.73,-30.14"/>
</g>
</g>
</svg>
