<?xml version="1.0" encoding="UTF-8" standalone="no"?>
<!DOCTYPE svg PUBLIC "-//W3C//DTD SVG 1.1//EN"
 "http://www.w3.org/Graphics/SVG/1.1/DTD/svg11.dtd">
<!-- Generated by graphviz version 2.43.0 (0)
 -->
<!-- Title: /home/runner/work/diffblue&#45;cbmc/diffblue&#45;cbmc/src/cprover/instrument_given_invariants.h Pages: 1 -->
<svg width="366pt" height="150pt"
 viewBox="0.00 0.00 365.50 150.00" xmlns="http://www.w3.org/2000/svg" xmlns:xlink="http://www.w3.org/1999/xlink">
<g id="graph0" class="graph" transform="scale(1 1) rotate(0) translate(4 146)">
<title>/home/runner/work/diffblue&#45;cbmc/diffblue&#45;cbmc/src/cprover/instrument_given_invariants.h</title>
<!-- Node1 -->
<g id="node1" class="node">
<title>Node1</title>
<g id="a_node1"><a xlink:title="Instrument Given Invariants.">
<polygon fill="#bfbfbf" stroke="black" points="114.5,-89.5 114.5,-141.5 263.5,-141.5 263.5,-89.5 114.5,-89.5"/>
<text text-anchor="start" x="122.5" y="-129.5" font-family="Helvetica,sans-Serif" font-size="10.00">/home/runner/work/diffblue</text>
<text text-anchor="start" x="122.5" y="-118.5" font-family="Helvetica,sans-Serif" font-size="10.00">&#45;cbmc/diffblue&#45;cbmc/src</text>
<text text-anchor="start" x="122.5" y="-107.5" font-family="Helvetica,sans-Serif" font-size="10.00">/cprover/instrument_given</text>
<text text-anchor="middle" x="189" y="-96.5" font-family="Helvetica,sans-Serif" font-size="10.00">_invariants.h</text>
</a>
</g>
</g>
<!-- Node2 -->
<g id="node2" class="node">
<title>Node2</title>
<g id="a_node2"><a xlink:href="cprover__parse__options_8cpp.html" target="_top" xlink:title="cprover Command Line Options Processing">
<polygon fill="none" stroke="black" points="0,-6 0,-47 190,-47 190,-6 0,-6"/>
<text text-anchor="start" x="8" y="-35" font-family="Helvetica,sans-Serif" font-size="10.00">/home/runner/work/diffblue</text>
<text text-anchor="start" x="8" y="-24" font-family="Helvetica,sans-Serif" font-size="10.00">&#45;cbmc/diffblue&#45;cbmc/src</text>
<text text-anchor="middle" x="95" y="-13" font-family="Helvetica,sans-Serif" font-size="10.00">/cprover/cprover_parse_options.cpp</text>
</a>
</g>
</g>
<!-- Node1&#45;&gt;Node2 -->
<g id="edge1" class="edge">
<title>Node1&#45;&gt;Node2</title>
<path fill="none" stroke="midnightblue" d="M154.44,-82.51C141.61,-70.64 127.44,-57.53 116.16,-47.08"/>
<polygon fill="midnightblue" stroke="midnightblue" points="152.09,-85.11 161.81,-89.34 156.85,-79.97 152.09,-85.11"/>
</g>
<!-- Node3 -->
<g id="node3" class="node">
<title>Node3</title>
<g id="a_node3"><a xlink:href="instrument__given__invariants_8cpp.html" target="_top" xlink:title="Instrument Given Invariants.">
<polygon fill="none" stroke="black" points="208.5,-0.5 208.5,-52.5 357.5,-52.5 357.5,-0.5 208.5,-0.5"/>
<text text-anchor="start" x="216.5" y="-40.5" font-family="Helvetica,sans-Serif" font-size="10.00">/home/runner/work/diffblue</text>
<text text-anchor="start" x="216.5" y="-29.5" font-family="Helvetica,sans-Serif" font-size="10.00">&#45;cbmc/diffblue&#45;cbmc/src</text>
<text text-anchor="start" x="216.5" y="-18.5" font-family="Helvetica,sans-Serif" font-size="10.00">/cprover/instrument_given</text>
<text text-anchor="middle" x="283" y="-7.5" font-family="Helvetica,sans-Serif" font-size="10.00">_invariants.cpp</text>
</a>
</g>
</g>
<!-- Node1&#45;&gt;Node3 -->
<g id="edge2" class="edge">
<title>Node1&#45;&gt;Node3</title>
<path fill="none" stroke="midnightblue" d="M223.72,-82.36C234.33,-72.54 245.84,-61.89 255.87,-52.61"/>
<polygon fill="midnightblue" stroke="midnightblue" points="221.15,-79.97 216.19,-89.34 225.91,-85.11 221.15,-79.97"/>
</g>
</g>
</svg>
