<?xml version="1.0" encoding="UTF-8" standalone="no"?>
<!DOCTYPE svg PUBLIC "-//W3C//DTD SVG 1.1//EN"
 "http://www.w3.org/Graphics/SVG/1.1/DTD/svg11.dtd">
<!-- Generated by graphviz version 2.43.0 (0)
 -->
<!-- Title: /home/runner/work/diffblue&#45;cbmc/diffblue&#45;cbmc/src/goto&#45;programs/instrument_preconditions.h Pages: 1 -->
<svg width="919pt" height="161pt"
 viewBox="0.00 0.00 919.00 161.00" xmlns="http://www.w3.org/2000/svg" xmlns:xlink="http://www.w3.org/1999/xlink">
<g id="graph0" class="graph" transform="scale(1 1) rotate(0) translate(4 157)">
<title>/home/runner/work/diffblue&#45;cbmc/diffblue&#45;cbmc/src/goto&#45;programs/instrument_preconditions.h</title>
<!-- Node1 -->
<g id="node1" class="node">
<title>Node1</title>
<g id="a_node1"><a xlink:title=" ">
<polygon fill="#bfbfbf" stroke="black" points="367,-100.5 367,-152.5 516,-152.5 516,-100.5 367,-100.5"/>
<text text-anchor="start" x="375" y="-140.5" font-family="Helvetica,sans-Serif" font-size="10.00">/home/runner/work/diffblue</text>
<text text-anchor="start" x="375" y="-129.5" font-family="Helvetica,sans-Serif" font-size="10.00">&#45;cbmc/diffblue&#45;cbmc/src</text>
<text text-anchor="start" x="375" y="-118.5" font-family="Helvetica,sans-Serif" font-size="10.00">/goto&#45;programs/instrument</text>
<text text-anchor="middle" x="441.5" y="-107.5" font-family="Helvetica,sans-Serif" font-size="10.00">_preconditions.h</text>
</a>
</g>
</g>
<!-- Node2 -->
<g id="node2" class="node">
<title>Node2</title>
<g id="a_node2"><a xlink:href="dfcc__swap__and__wrap_8cpp.html" target="_top" xlink:title=" ">
<polygon fill="none" stroke="black" points="0,-0.5 0,-63.5 177,-63.5 177,-0.5 0,-0.5"/>
<text text-anchor="start" x="8" y="-51.5" font-family="Helvetica,sans-Serif" font-size="10.00">/home/runner/work/diffblue</text>
<text text-anchor="start" x="8" y="-40.5" font-family="Helvetica,sans-Serif" font-size="10.00">&#45;cbmc/diffblue&#45;cbmc/src</text>
<text text-anchor="start" x="8" y="-29.5" font-family="Helvetica,sans-Serif" font-size="10.00">/goto&#45;instrument/contracts</text>
<text text-anchor="start" x="8" y="-18.5" font-family="Helvetica,sans-Serif" font-size="10.00">/dynamic&#45;frames/dfcc_swap_and</text>
<text text-anchor="middle" x="88.5" y="-7.5" font-family="Helvetica,sans-Serif" font-size="10.00">_wrap.cpp</text>
</a>
</g>
</g>
<!-- Node1&#45;&gt;Node2 -->
<g id="edge1" class="edge">
<title>Node1&#45;&gt;Node2</title>
<path fill="none" stroke="midnightblue" d="M357.09,-106.87C306.99,-95.4 242.35,-79.89 185.5,-64 182.78,-63.24 180.01,-62.45 177.23,-61.64"/>
<polygon fill="midnightblue" stroke="midnightblue" points="356.38,-110.3 366.91,-109.11 357.94,-103.47 356.38,-110.3"/>
</g>
<!-- Node3 -->
<g id="node3" class="node">
<title>Node3</title>
<g id="a_node3"><a xlink:href="instrument__preconditions_8cpp.html" target="_top" xlink:title=" ">
<polygon fill="none" stroke="black" points="195,-6 195,-58 344,-58 344,-6 195,-6"/>
<text text-anchor="start" x="203" y="-46" font-family="Helvetica,sans-Serif" font-size="10.00">/home/runner/work/diffblue</text>
<text text-anchor="start" x="203" y="-35" font-family="Helvetica,sans-Serif" font-size="10.00">&#45;cbmc/diffblue&#45;cbmc/src</text>
<text text-anchor="start" x="203" y="-24" font-family="Helvetica,sans-Serif" font-size="10.00">/goto&#45;programs/instrument</text>
<text text-anchor="middle" x="269.5" y="-13" font-family="Helvetica,sans-Serif" font-size="10.00">_preconditions.cpp</text>
</a>
</g>
</g>
<!-- Node1&#45;&gt;Node3 -->
<g id="edge2" class="edge">
<title>Node1&#45;&gt;Node3</title>
<path fill="none" stroke="midnightblue" d="M386.14,-95.73C363.54,-83.58 337.69,-69.67 316.08,-58.05"/>
<polygon fill="midnightblue" stroke="midnightblue" points="384.49,-98.81 394.95,-100.47 387.8,-92.65 384.49,-98.81"/>
</g>
<!-- Node4 -->
<g id="node4" class="node">
<title>Node4</title>
<g id="a_node4"><a xlink:href="process__goto__program_8cpp.html" target="_top" xlink:title="Get a Goto Program.">
<polygon fill="none" stroke="black" points="362,-6 362,-58 521,-58 521,-6 362,-6"/>
<text text-anchor="start" x="370" y="-46" font-family="Helvetica,sans-Serif" font-size="10.00">/home/runner/work/diffblue</text>
<text text-anchor="start" x="370" y="-35" font-family="Helvetica,sans-Serif" font-size="10.00">&#45;cbmc/diffblue&#45;cbmc/src</text>
<text text-anchor="start" x="370" y="-24" font-family="Helvetica,sans-Serif" font-size="10.00">/goto&#45;programs/process_goto</text>
<text text-anchor="middle" x="441.5" y="-13" font-family="Helvetica,sans-Serif" font-size="10.00">_program.cpp</text>
</a>
</g>
</g>
<!-- Node1&#45;&gt;Node4 -->
<g id="edge3" class="edge">
<title>Node1&#45;&gt;Node4</title>
<path fill="none" stroke="midnightblue" d="M441.5,-89.99C441.5,-79.41 441.5,-68.03 441.5,-58.25"/>
<polygon fill="midnightblue" stroke="midnightblue" points="438,-90.22 441.5,-100.22 445,-90.22 438,-90.22"/>
</g>
<!-- Node5 -->
<g id="node5" class="node">
<title>Node5</title>
<g id="a_node5"><a xlink:href="jbmc__parse__options_8cpp.html" target="_top" xlink:title="JBMC Command Line Option Processing.">
<polygon fill="none" stroke="black" points="539.5,-11.5 539.5,-52.5 721.5,-52.5 721.5,-11.5 539.5,-11.5"/>
<text text-anchor="start" x="547.5" y="-40.5" font-family="Helvetica,sans-Serif" font-size="10.00">/home/runner/work/diffblue</text>
<text text-anchor="start" x="547.5" y="-29.5" font-family="Helvetica,sans-Serif" font-size="10.00">&#45;cbmc/diffblue&#45;cbmc/jbmc</text>
<text text-anchor="middle" x="630.5" y="-18.5" font-family="Helvetica,sans-Serif" font-size="10.00">/src/jbmc/jbmc_parse_options.cpp</text>
</a>
</g>
</g>
<!-- Node1&#45;&gt;Node5 -->
<g id="edge4" class="edge">
<title>Node1&#45;&gt;Node5</title>
<path fill="none" stroke="midnightblue" d="M501.85,-95.96C530.79,-81.8 564.67,-65.22 590.4,-52.63"/>
<polygon fill="midnightblue" stroke="midnightblue" points="500.09,-92.93 492.65,-100.47 503.17,-99.22 500.09,-92.93"/>
</g>
<!-- Node6 -->
<g id="node6" class="node">
<title>Node6</title>
<g id="a_node6"><a xlink:href="jdiff__parse__options_8cpp.html" target="_top" xlink:title="JDIFF Command Line Option Processing.">
<polygon fill="none" stroke="black" points="740,-11.5 740,-52.5 911,-52.5 911,-11.5 740,-11.5"/>
<text text-anchor="start" x="748" y="-40.5" font-family="Helvetica,sans-Serif" font-size="10.00">/home/runner/work/diffblue</text>
<text text-anchor="start" x="748" y="-29.5" font-family="Helvetica,sans-Serif" font-size="10.00">&#45;cbmc/diffblue&#45;cbmc/jbmc</text>
<text text-anchor="middle" x="825.5" y="-18.5" font-family="Helvetica,sans-Serif" font-size="10.00">/src/jdiff/jdiff_parse_options.cpp</text>
</a>
</g>
</g>
<!-- Node1&#45;&gt;Node6 -->
<g id="edge5" class="edge">
<title>Node1&#45;&gt;Node6</title>
<path fill="none" stroke="midnightblue" d="M526.1,-109.95C584.02,-98.7 662.36,-82.31 730.5,-64 743.07,-60.62 756.42,-56.56 769.03,-52.51"/>
<polygon fill="midnightblue" stroke="midnightblue" points="525.42,-106.51 516.26,-111.84 526.74,-113.39 525.42,-106.51"/>
</g>
</g>
</svg>
