<?xml version="1.0" encoding="UTF-8" standalone="no"?>
<!DOCTYPE svg PUBLIC "-//W3C//DTD SVG 1.1//EN"
 "http://www.w3.org/Graphics/SVG/1.1/DTD/svg11.dtd">
<!-- Generated by graphviz version 2.43.0 (0)
 -->
<!-- Title: /home/runner/work/diffblue&#45;cbmc/diffblue&#45;cbmc/src/goto&#45;instrument/contracts/instrument_spec_assigns.h Pages: 1 -->
<svg width="858pt" height="239pt"
 viewBox="0.00 0.00 858.00 239.00" xmlns="http://www.w3.org/2000/svg" xmlns:xlink="http://www.w3.org/1999/xlink">
<g id="graph0" class="graph" transform="scale(1 1) rotate(0) translate(4 235)">
<title>/home/runner/work/diffblue&#45;cbmc/diffblue&#45;cbmc/src/goto&#45;instrument/contracts/instrument_spec_assigns.h</title>
<!-- Node1 -->
<g id="node1" class="node">
<title>Node1</title>
<g id="a_node1"><a xlink:title="Specify write set in function contracts.">
<polygon fill="#bfbfbf" stroke="black" points="263.5,-178.5 263.5,-230.5 415.5,-230.5 415.5,-178.5 263.5,-178.5"/>
<text text-anchor="start" x="271.5" y="-218.5" font-family="Helvetica,sans-Serif" font-size="10.00">/home/runner/work/diffblue</text>
<text text-anchor="start" x="271.5" y="-207.5" font-family="Helvetica,sans-Serif" font-size="10.00">&#45;cbmc/diffblue&#45;cbmc/src</text>
<text text-anchor="start" x="271.5" y="-196.5" font-family="Helvetica,sans-Serif" font-size="10.00">/goto&#45;instrument/contracts</text>
<text text-anchor="middle" x="339.5" y="-185.5" font-family="Helvetica,sans-Serif" font-size="10.00">/instrument_spec_assigns.h</text>
</a>
</g>
</g>
<!-- Node2 -->
<g id="node2" class="node">
<title>Node2</title>
<g id="a_node2"><a xlink:href="contracts_8cpp.html" target="_top" xlink:title="Verify and use annotated loop and function contracts.">
<polygon fill="none" stroke="black" points="0,-0.5 0,-52.5 149,-52.5 149,-0.5 0,-0.5"/>
<text text-anchor="start" x="8" y="-40.5" font-family="Helvetica,sans-Serif" font-size="10.00">/home/runner/work/diffblue</text>
<text text-anchor="start" x="8" y="-29.5" font-family="Helvetica,sans-Serif" font-size="10.00">&#45;cbmc/diffblue&#45;cbmc/src</text>
<text text-anchor="start" x="8" y="-18.5" font-family="Helvetica,sans-Serif" font-size="10.00">/goto&#45;instrument/contracts</text>
<text text-anchor="middle" x="74.5" y="-7.5" font-family="Helvetica,sans-Serif" font-size="10.00">/contracts.cpp</text>
</a>
</g>
</g>
<!-- Node1&#45;&gt;Node2 -->
<g id="edge1" class="edge">
<title>Node1&#45;&gt;Node2</title>
<path fill="none" stroke="midnightblue" d="M253.31,-195.27C183.81,-186.64 94.04,-170.29 71.5,-142 51.55,-116.96 57.88,-78.13 65.33,-52.76"/>
<polygon fill="midnightblue" stroke="midnightblue" points="253.06,-198.77 263.41,-196.49 253.9,-191.82 253.06,-198.77"/>
</g>
<!-- Node3 -->
<g id="node3" class="node">
<title>Node3</title>
<g id="a_node3"><a xlink:href="havoc__assigns__clause__targets_8cpp.html" target="_top" xlink:title="Havoc multiple and possibly dependent targets simultaneously.">
<polygon fill="none" stroke="black" points="178.5,-0.5 178.5,-52.5 366.5,-52.5 366.5,-0.5 178.5,-0.5"/>
<text text-anchor="start" x="186.5" y="-40.5" font-family="Helvetica,sans-Serif" font-size="10.00">/home/runner/work/diffblue</text>
<text text-anchor="start" x="186.5" y="-29.5" font-family="Helvetica,sans-Serif" font-size="10.00">&#45;cbmc/diffblue&#45;cbmc/src</text>
<text text-anchor="start" x="186.5" y="-18.5" font-family="Helvetica,sans-Serif" font-size="10.00">/goto&#45;instrument/contracts</text>
<text text-anchor="middle" x="272.5" y="-7.5" font-family="Helvetica,sans-Serif" font-size="10.00">/havoc_assigns_clause_targets.cpp</text>
</a>
</g>
</g>
<!-- Node1&#45;&gt;Node3 -->
<g id="edge2" class="edge">
<title>Node1&#45;&gt;Node3</title>
<path fill="none" stroke="midnightblue" d="M318.28,-169.66C313.32,-160.87 308.36,-151.26 304.5,-142 292.11,-112.28 282.94,-76.26 277.66,-52.66"/>
<polygon fill="midnightblue" stroke="midnightblue" points="315.35,-171.59 323.41,-178.48 321.41,-168.07 315.35,-171.59"/>
</g>
<!-- Node4 -->
<g id="node4" class="node">
<title>Node4</title>
<g id="a_node4"><a xlink:href="havoc__assigns__clause__targets_8h.html" target="_top" xlink:title="Havoc function assigns clauses.">
<polygon fill="none" stroke="black" points="80.5,-89.5 80.5,-141.5 256.5,-141.5 256.5,-89.5 80.5,-89.5"/>
<text text-anchor="start" x="88.5" y="-129.5" font-family="Helvetica,sans-Serif" font-size="10.00">/home/runner/work/diffblue</text>
<text text-anchor="start" x="88.5" y="-118.5" font-family="Helvetica,sans-Serif" font-size="10.00">&#45;cbmc/diffblue&#45;cbmc/src</text>
<text text-anchor="start" x="88.5" y="-107.5" font-family="Helvetica,sans-Serif" font-size="10.00">/goto&#45;instrument/contracts</text>
<text text-anchor="middle" x="168.5" y="-96.5" font-family="Helvetica,sans-Serif" font-size="10.00">/havoc_assigns_clause_targets.h</text>
</a>
</g>
</g>
<!-- Node1&#45;&gt;Node4 -->
<g id="edge3" class="edge">
<title>Node1&#45;&gt;Node4</title>
<path fill="none" stroke="midnightblue" d="M281.08,-173.78C260.5,-163.31 237.6,-151.66 217.85,-141.61"/>
<polygon fill="midnightblue" stroke="midnightblue" points="279.54,-176.92 290.04,-178.34 282.71,-170.68 279.54,-176.92"/>
</g>
<!-- Node5 -->
<g id="node5" class="node">
<title>Node5</title>
<g id="a_node5"><a xlink:href="instrument__spec__assigns_8cpp.html" target="_top" xlink:title="Specify write set in code contracts.">
<polygon fill="none" stroke="black" points="313,-89.5 313,-141.5 476,-141.5 476,-89.5 313,-89.5"/>
<text text-anchor="start" x="321" y="-129.5" font-family="Helvetica,sans-Serif" font-size="10.00">/home/runner/work/diffblue</text>
<text text-anchor="start" x="321" y="-118.5" font-family="Helvetica,sans-Serif" font-size="10.00">&#45;cbmc/diffblue&#45;cbmc/src</text>
<text text-anchor="start" x="321" y="-107.5" font-family="Helvetica,sans-Serif" font-size="10.00">/goto&#45;instrument/contracts</text>
<text text-anchor="middle" x="394.5" y="-96.5" font-family="Helvetica,sans-Serif" font-size="10.00">/instrument_spec_assigns.cpp</text>
</a>
</g>
</g>
<!-- Node1&#45;&gt;Node5 -->
<g id="edge6" class="edge">
<title>Node1&#45;&gt;Node5</title>
<path fill="none" stroke="midnightblue" d="M360.91,-169.64C366.81,-160.31 373.1,-150.35 378.63,-141.61"/>
<polygon fill="midnightblue" stroke="midnightblue" points="357.79,-168.01 355.41,-178.34 363.71,-171.75 357.79,-168.01"/>
</g>
<!-- Node6 -->
<g id="node6" class="node">
<title>Node6</title>
<g id="a_node6"><a xlink:href="memory__predicates_8cpp.html" target="_top" xlink:title="Predicates to specify memory footprint in function contracts.">
<polygon fill="none" stroke="black" points="494,-89.5 494,-141.5 643,-141.5 643,-89.5 494,-89.5"/>
<text text-anchor="start" x="502" y="-129.5" font-family="Helvetica,sans-Serif" font-size="10.00">/home/runner/work/diffblue</text>
<text text-anchor="start" x="502" y="-118.5" font-family="Helvetica,sans-Serif" font-size="10.00">&#45;cbmc/diffblue&#45;cbmc/src</text>
<text text-anchor="start" x="502" y="-107.5" font-family="Helvetica,sans-Serif" font-size="10.00">/goto&#45;instrument/contracts</text>
<text text-anchor="middle" x="568.5" y="-96.5" font-family="Helvetica,sans-Serif" font-size="10.00">/memory_predicates.cpp</text>
</a>
</g>
</g>
<!-- Node1&#45;&gt;Node6 -->
<g id="edge7" class="edge">
<title>Node1&#45;&gt;Node6</title>
<path fill="none" stroke="midnightblue" d="M414.89,-174.86C443.24,-164.09 475.23,-151.94 502.64,-141.52"/>
<polygon fill="midnightblue" stroke="midnightblue" points="413.53,-171.63 405.43,-178.45 416.02,-178.17 413.53,-171.63"/>
</g>
<!-- Node7 -->
<g id="node7" class="node">
<title>Node7</title>
<g id="a_node7"><a xlink:href="cegis__verifier_8cpp.html" target="_top" xlink:title="Verifier for Counterexample&#45;Guided Synthesis.">
<polygon fill="none" stroke="black" points="661,-95 661,-136 850,-136 850,-95 661,-95"/>
<text text-anchor="start" x="669" y="-124" font-family="Helvetica,sans-Serif" font-size="10.00">/home/runner/work/diffblue</text>
<text text-anchor="start" x="669" y="-113" font-family="Helvetica,sans-Serif" font-size="10.00">&#45;cbmc/diffblue&#45;cbmc/src</text>
<text text-anchor="middle" x="755.5" y="-102" font-family="Helvetica,sans-Serif" font-size="10.00">/goto&#45;synthesizer/cegis_verifier.cpp</text>
</a>
</g>
</g>
<!-- Node1&#45;&gt;Node7 -->
<g id="edge8" class="edge">
<title>Node1&#45;&gt;Node7</title>
<path fill="none" stroke="midnightblue" d="M425.51,-187.77C488.52,-175.96 576.03,-158.97 652.5,-142 660.86,-140.14 669.59,-138.12 678.26,-136.05"/>
<polygon fill="midnightblue" stroke="midnightblue" points="424.8,-184.34 415.61,-189.62 426.09,-191.22 424.8,-184.34"/>
</g>
<!-- Node4&#45;&gt;Node2 -->
<g id="edge4" class="edge">
<title>Node4&#45;&gt;Node2</title>
<path fill="none" stroke="midnightblue" d="M133.78,-82.36C123.17,-72.54 111.66,-61.89 101.63,-52.61"/>
<polygon fill="midnightblue" stroke="midnightblue" points="131.59,-85.11 141.31,-89.34 136.35,-79.97 131.59,-85.11"/>
</g>
<!-- Node4&#45;&gt;Node3 -->
<g id="edge5" class="edge">
<title>Node4&#45;&gt;Node3</title>
<path fill="none" stroke="midnightblue" d="M206.57,-82.65C218.41,-72.75 231.28,-61.98 242.49,-52.61"/>
<polygon fill="midnightblue" stroke="midnightblue" points="204.01,-80.24 198.58,-89.34 208.5,-85.6 204.01,-80.24"/>
</g>
</g>
</svg>
