<?xml version="1.0" encoding="UTF-8" standalone="no"?>
<!DOCTYPE svg PUBLIC "-//W3C//DTD SVG 1.1//EN"
 "http://www.w3.org/Graphics/SVG/1.1/DTD/svg11.dtd">
<!-- Generated by graphviz version 2.43.0 (0)
 -->
<!-- Title: /home/runner/work/diffblue&#45;cbmc/diffblue&#45;cbmc/src/util/interval_template.h Pages: 1 -->
<svg width="2788pt" height="484pt"
 viewBox="0.00 0.00 2788.00 484.00" xmlns="http://www.w3.org/2000/svg" xmlns:xlink="http://www.w3.org/1999/xlink">
<g id="graph0" class="graph" transform="scale(1 1) rotate(0) translate(4 480)">
<title>/home/runner/work/diffblue&#45;cbmc/diffblue&#45;cbmc/src/util/interval_template.h</title>
<!-- Node1 -->
<g id="node1" class="node">
<title>Node1</title>
<g id="a_node1"><a xlink:title=" ">
<polygon fill="#bfbfbf" stroke="black" points="1386.5,-434.5 1386.5,-475.5 1535.5,-475.5 1535.5,-434.5 1386.5,-434.5"/>
<text text-anchor="start" x="1394.5" y="-463.5" font-family="Helvetica,sans-Serif" font-size="10.00">/home/runner/work/diffblue</text>
<text text-anchor="start" x="1394.5" y="-452.5" font-family="Helvetica,sans-Serif" font-size="10.00">&#45;cbmc/diffblue&#45;cbmc/src</text>
<text text-anchor="middle" x="1461" y="-441.5" font-family="Helvetica,sans-Serif" font-size="10.00">/util/interval_template.h</text>
</a>
</g>
</g>
<!-- Node2 -->
<g id="node2" class="node">
<title>Node2</title>
<g id="a_node2"><a xlink:href="interval__domain_8h.html" target="_top" xlink:title="Interval Domain.">
<polygon fill="none" stroke="black" points="585.5,-273 585.5,-314 740.5,-314 740.5,-273 585.5,-273"/>
<text text-anchor="start" x="593.5" y="-302" font-family="Helvetica,sans-Serif" font-size="10.00">/home/runner/work/diffblue</text>
<text text-anchor="start" x="593.5" y="-291" font-family="Helvetica,sans-Serif" font-size="10.00">&#45;cbmc/diffblue&#45;cbmc/src</text>
<text text-anchor="middle" x="663" y="-280" font-family="Helvetica,sans-Serif" font-size="10.00">/analyses/interval_domain.h</text>
</a>
</g>
</g>
<!-- Node1&#45;&gt;Node2 -->
<g id="edge1" class="edge">
<title>Node1&#45;&gt;Node2</title>
<path fill="none" stroke="midnightblue" d="M1376.16,-442.7C1303,-432.5 1194.67,-416.32 1101,-398 972.56,-372.87 824.68,-336.32 737.79,-314.05"/>
<polygon fill="midnightblue" stroke="midnightblue" points="1375.86,-446.19 1386.24,-444.1 1376.82,-439.26 1375.86,-446.19"/>
</g>
<!-- Node8 -->
<g id="node8" class="node">
<title>Node8</title>
<g id="a_node8"><a xlink:href="invariant__set_8h.html" target="_top" xlink:title="Value Set.">
<polygon fill="none" stroke="black" points="2113.5,-356.5 2113.5,-397.5 2262.5,-397.5 2262.5,-356.5 2113.5,-356.5"/>
<text text-anchor="start" x="2121.5" y="-385.5" font-family="Helvetica,sans-Serif" font-size="10.00">/home/runner/work/diffblue</text>
<text text-anchor="start" x="2121.5" y="-374.5" font-family="Helvetica,sans-Serif" font-size="10.00">&#45;cbmc/diffblue&#45;cbmc/src</text>
<text text-anchor="middle" x="2188" y="-363.5" font-family="Helvetica,sans-Serif" font-size="10.00">/analyses/invariant_set.h</text>
</a>
</g>
</g>
<!-- Node1&#45;&gt;Node8 -->
<g id="edge7" class="edge">
<title>Node1&#45;&gt;Node8</title>
<path fill="none" stroke="midnightblue" d="M1545.79,-445.14C1689.13,-430.15 1977.02,-400.06 2113.26,-385.81"/>
<polygon fill="midnightblue" stroke="midnightblue" points="1545.31,-441.67 1535.72,-446.19 1546.03,-448.63 1545.31,-441.67"/>
</g>
<!-- Node14 -->
<g id="node14" class="node">
<title>Node14</title>
<g id="a_node14"><a xlink:href="integer__interval_8h.html" target="_top" xlink:title=" ">
<polygon fill="none" stroke="black" points="1110.5,-356.5 1110.5,-397.5 1259.5,-397.5 1259.5,-356.5 1110.5,-356.5"/>
<text text-anchor="start" x="1118.5" y="-385.5" font-family="Helvetica,sans-Serif" font-size="10.00">/home/runner/work/diffblue</text>
<text text-anchor="start" x="1118.5" y="-374.5" font-family="Helvetica,sans-Serif" font-size="10.00">&#45;cbmc/diffblue&#45;cbmc/src</text>
<text text-anchor="middle" x="1185" y="-363.5" font-family="Helvetica,sans-Serif" font-size="10.00">/util/integer_interval.h</text>
</a>
</g>
</g>
<!-- Node1&#45;&gt;Node14 -->
<g id="edge13" class="edge">
<title>Node1&#45;&gt;Node14</title>
<path fill="none" stroke="midnightblue" d="M1380.08,-431.72C1340.7,-420.87 1293.79,-407.96 1255.84,-397.51"/>
<polygon fill="midnightblue" stroke="midnightblue" points="1379.35,-435.15 1389.92,-434.43 1381.21,-428.4 1379.35,-435.15"/>
</g>
<!-- Node19 -->
<g id="node19" class="node">
<title>Node19</title>
<g id="a_node19"><a xlink:href="interval__union_8h.html" target="_top" xlink:title="Union of intervals.">
<polygon fill="none" stroke="black" points="1663.5,-356.5 1663.5,-397.5 1812.5,-397.5 1812.5,-356.5 1663.5,-356.5"/>
<text text-anchor="start" x="1671.5" y="-385.5" font-family="Helvetica,sans-Serif" font-size="10.00">/home/runner/work/diffblue</text>
<text text-anchor="start" x="1671.5" y="-374.5" font-family="Helvetica,sans-Serif" font-size="10.00">&#45;cbmc/diffblue&#45;cbmc/src</text>
<text text-anchor="middle" x="1738" y="-363.5" font-family="Helvetica,sans-Serif" font-size="10.00">/util/interval_union.h</text>
</a>
</g>
</g>
<!-- Node1&#45;&gt;Node19 -->
<g id="edge19" class="edge">
<title>Node1&#45;&gt;Node19</title>
<path fill="none" stroke="midnightblue" d="M1542.21,-431.72C1581.74,-420.87 1628.82,-407.96 1666.91,-397.51"/>
<polygon fill="midnightblue" stroke="midnightblue" points="1541.05,-428.41 1532.33,-434.43 1542.9,-435.16 1541.05,-428.41"/>
</g>
<!-- Node3 -->
<g id="node3" class="node">
<title>Node3</title>
<g id="a_node3"><a xlink:href="interval__analysis_8cpp.html" target="_top" xlink:title="Interval Analysis – implements the functionality necessary for performing abstract interpretation ove...">
<polygon fill="none" stroke="black" points="0,-184 0,-225 170,-225 170,-184 0,-184"/>
<text text-anchor="start" x="8" y="-213" font-family="Helvetica,sans-Serif" font-size="10.00">/home/runner/work/diffblue</text>
<text text-anchor="start" x="8" y="-202" font-family="Helvetica,sans-Serif" font-size="10.00">&#45;cbmc/diffblue&#45;cbmc/src</text>
<text text-anchor="middle" x="85" y="-191" font-family="Helvetica,sans-Serif" font-size="10.00">/analyses/interval_analysis.cpp</text>
</a>
</g>
</g>
<!-- Node2&#45;&gt;Node3 -->
<g id="edge2" class="edge">
<title>Node2&#45;&gt;Node3</title>
<path fill="none" stroke="midnightblue" d="M575.25,-285.04C477.83,-275.9 316.22,-258.19 179,-231 170.37,-229.29 161.38,-227.22 152.51,-225.01"/>
<polygon fill="midnightblue" stroke="midnightblue" points="575.07,-288.53 585.35,-285.97 575.72,-281.56 575.07,-288.53"/>
</g>
<!-- Node4 -->
<g id="node4" class="node">
<title>Node4</title>
<g id="a_node4"><a xlink:href="interval__domain_8cpp.html" target="_top" xlink:title="Interval Domain.">
<polygon fill="none" stroke="black" points="188,-184 188,-225 354,-225 354,-184 188,-184"/>
<text text-anchor="start" x="196" y="-213" font-family="Helvetica,sans-Serif" font-size="10.00">/home/runner/work/diffblue</text>
<text text-anchor="start" x="196" y="-202" font-family="Helvetica,sans-Serif" font-size="10.00">&#45;cbmc/diffblue&#45;cbmc/src</text>
<text text-anchor="middle" x="271" y="-191" font-family="Helvetica,sans-Serif" font-size="10.00">/analyses/interval_domain.cpp</text>
</a>
</g>
</g>
<!-- Node2&#45;&gt;Node4 -->
<g id="edge3" class="edge">
<title>Node2&#45;&gt;Node4</title>
<path fill="none" stroke="midnightblue" d="M575.47,-276.19C515.45,-264.61 434.12,-248.12 363,-231 355.35,-229.16 347.36,-227.12 339.44,-225.02"/>
<polygon fill="midnightblue" stroke="midnightblue" points="574.81,-279.63 585.29,-278.08 576.13,-272.75 574.81,-279.63"/>
</g>
<!-- Node5 -->
<g id="node5" class="node">
<title>Node5</title>
<g id="a_node5"><a xlink:href="build__analyzer_8cpp.html" target="_top" xlink:title=" ">
<polygon fill="none" stroke="black" points="372.5,-184 372.5,-225 553.5,-225 553.5,-184 372.5,-184"/>
<text text-anchor="start" x="380.5" y="-213" font-family="Helvetica,sans-Serif" font-size="10.00">/home/runner/work/diffblue</text>
<text text-anchor="start" x="380.5" y="-202" font-family="Helvetica,sans-Serif" font-size="10.00">&#45;cbmc/diffblue&#45;cbmc/src</text>
<text text-anchor="middle" x="463" y="-191" font-family="Helvetica,sans-Serif" font-size="10.00">/goto&#45;analyzer/build_analyzer.cpp</text>
</a>
</g>
</g>
<!-- Node2&#45;&gt;Node5 -->
<g id="edge4" class="edge">
<title>Node2&#45;&gt;Node5</title>
<path fill="none" stroke="midnightblue" d="M608.6,-268.84C577.08,-255.12 537.87,-238.07 508.08,-225.11"/>
<polygon fill="midnightblue" stroke="midnightblue" points="607.55,-272.2 618.12,-272.98 610.34,-265.78 607.55,-272.2"/>
</g>
<!-- Node6 -->
<g id="node6" class="node">
<title>Node6</title>
<g id="a_node6"><a xlink:href="goto__instrument__parse__options_8cpp.html" target="_top" xlink:title="Main Module.">
<polygon fill="none" stroke="black" points="572,-178.5 572,-230.5 754,-230.5 754,-178.5 572,-178.5"/>
<text text-anchor="start" x="580" y="-218.5" font-family="Helvetica,sans-Serif" font-size="10.00">/home/runner/work/diffblue</text>
<text text-anchor="start" x="580" y="-207.5" font-family="Helvetica,sans-Serif" font-size="10.00">&#45;cbmc/diffblue&#45;cbmc/src</text>
<text text-anchor="start" x="580" y="-196.5" font-family="Helvetica,sans-Serif" font-size="10.00">/goto&#45;instrument/goto_instrument</text>
<text text-anchor="middle" x="663" y="-185.5" font-family="Helvetica,sans-Serif" font-size="10.00">_parse_options.cpp</text>
</a>
</g>
</g>
<!-- Node2&#45;&gt;Node6 -->
<g id="edge5" class="edge">
<title>Node2&#45;&gt;Node6</title>
<path fill="none" stroke="midnightblue" d="M663,-262.51C663,-252.17 663,-240.71 663,-230.79"/>
<polygon fill="midnightblue" stroke="midnightblue" points="659.5,-262.76 663,-272.76 666.5,-262.76 659.5,-262.76"/>
</g>
<!-- Node7 -->
<g id="node7" class="node">
<title>Node7</title>
<g id="a_node7"><a xlink:href="janalyzer__parse__options_8cpp.html" target="_top" xlink:title="JANALYZER Command Line Option Processing.">
<polygon fill="none" stroke="black" points="726.5,-0.5 726.5,-52.5 875.5,-52.5 875.5,-0.5 726.5,-0.5"/>
<text text-anchor="start" x="734.5" y="-40.5" font-family="Helvetica,sans-Serif" font-size="10.00">/home/runner/work/diffblue</text>
<text text-anchor="start" x="734.5" y="-29.5" font-family="Helvetica,sans-Serif" font-size="10.00">&#45;cbmc/diffblue&#45;cbmc/jbmc</text>
<text text-anchor="start" x="734.5" y="-18.5" font-family="Helvetica,sans-Serif" font-size="10.00">/src/janalyzer/janalyzer</text>
<text text-anchor="middle" x="801" y="-7.5" font-family="Helvetica,sans-Serif" font-size="10.00">_parse_options.cpp</text>
</a>
</g>
</g>
<!-- Node2&#45;&gt;Node7 -->
<g id="edge6" class="edge">
<title>Node2&#45;&gt;Node7</title>
<path fill="none" stroke="midnightblue" d="M720.7,-268.01C736.64,-258.62 752.43,-246.38 763,-231 800.76,-176.05 803.75,-93.89 802.53,-52.8"/>
<polygon fill="midnightblue" stroke="midnightblue" points="718.9,-265.01 711.87,-272.93 722.3,-271.12 718.9,-265.01"/>
</g>
<!-- Node9 -->
<g id="node9" class="node">
<title>Node9</title>
<g id="a_node9"><a xlink:href="invariant__set_8cpp.html" target="_top" xlink:title="Invariant Set.">
<polygon fill="none" stroke="black" points="2113,-273 2113,-314 2263,-314 2263,-273 2113,-273"/>
<text text-anchor="start" x="2121" y="-302" font-family="Helvetica,sans-Serif" font-size="10.00">/home/runner/work/diffblue</text>
<text text-anchor="start" x="2121" y="-291" font-family="Helvetica,sans-Serif" font-size="10.00">&#45;cbmc/diffblue&#45;cbmc/src</text>
<text text-anchor="middle" x="2188" y="-280" font-family="Helvetica,sans-Serif" font-size="10.00">/analyses/invariant_set.cpp</text>
</a>
</g>
</g>
<!-- Node8&#45;&gt;Node9 -->
<g id="edge8" class="edge">
<title>Node8&#45;&gt;Node9</title>
<path fill="none" stroke="midnightblue" d="M2188,-346.06C2188,-335.38 2188,-323.63 2188,-314.05"/>
<polygon fill="midnightblue" stroke="midnightblue" points="2184.5,-346.27 2188,-356.27 2191.5,-346.27 2184.5,-346.27"/>
</g>
<!-- Node10 -->
<g id="node10" class="node">
<title>Node10</title>
<g id="a_node10"><a xlink:href="invariant__set__domain_8h.html" target="_top" xlink:title="Value Set.">
<polygon fill="none" stroke="black" points="2388.5,-273 2388.5,-314 2569.5,-314 2569.5,-273 2388.5,-273"/>
<text text-anchor="start" x="2396.5" y="-302" font-family="Helvetica,sans-Serif" font-size="10.00">/home/runner/work/diffblue</text>
<text text-anchor="start" x="2396.5" y="-291" font-family="Helvetica,sans-Serif" font-size="10.00">&#45;cbmc/diffblue&#45;cbmc/src</text>
<text text-anchor="middle" x="2479" y="-280" font-family="Helvetica,sans-Serif" font-size="10.00">/analyses/invariant_set_domain.h</text>
</a>
</g>
</g>
<!-- Node8&#45;&gt;Node10 -->
<g id="edge9" class="edge">
<title>Node8&#45;&gt;Node10</title>
<path fill="none" stroke="midnightblue" d="M2267.58,-353.71C2311.95,-341.28 2366.7,-325.95 2409.36,-314"/>
<polygon fill="midnightblue" stroke="midnightblue" points="2266.39,-350.41 2257.7,-356.48 2268.28,-357.15 2266.39,-350.41"/>
</g>
<!-- Node11 -->
<g id="node11" class="node">
<title>Node11</title>
<g id="a_node11"><a xlink:href="invariant__propagation_8h.html" target="_top" xlink:title="Invariant Propagation.">
<polygon fill="none" stroke="black" points="2388,-184 2388,-225 2570,-225 2570,-184 2388,-184"/>
<text text-anchor="start" x="2396" y="-213" font-family="Helvetica,sans-Serif" font-size="10.00">/home/runner/work/diffblue</text>
<text text-anchor="start" x="2396" y="-202" font-family="Helvetica,sans-Serif" font-size="10.00">&#45;cbmc/diffblue&#45;cbmc/src</text>
<text text-anchor="middle" x="2479" y="-191" font-family="Helvetica,sans-Serif" font-size="10.00">/analyses/invariant_propagation.h</text>
</a>
</g>
</g>
<!-- Node10&#45;&gt;Node11 -->
<g id="edge10" class="edge">
<title>Node10&#45;&gt;Node11</title>
<path fill="none" stroke="midnightblue" d="M2479,-262.44C2479,-250.1 2479,-236.16 2479,-225.16"/>
<polygon fill="midnightblue" stroke="midnightblue" points="2475.5,-262.76 2479,-272.76 2482.5,-262.76 2475.5,-262.76"/>
</g>
<!-- Node13 -->
<g id="node13" class="node">
<title>Node13</title>
<g id="a_node13"><a xlink:href="invariant__set__domain_8cpp.html" target="_top" xlink:title="Invariant Set Domain.">
<polygon fill="none" stroke="black" points="2588,-184 2588,-225 2780,-225 2780,-184 2588,-184"/>
<text text-anchor="start" x="2596" y="-213" font-family="Helvetica,sans-Serif" font-size="10.00">/home/runner/work/diffblue</text>
<text text-anchor="start" x="2596" y="-202" font-family="Helvetica,sans-Serif" font-size="10.00">&#45;cbmc/diffblue&#45;cbmc/src</text>
<text text-anchor="middle" x="2684" y="-191" font-family="Helvetica,sans-Serif" font-size="10.00">/analyses/invariant_set_domain.cpp</text>
</a>
</g>
</g>
<!-- Node10&#45;&gt;Node13 -->
<g id="edge12" class="edge">
<title>Node10&#45;&gt;Node13</title>
<path fill="none" stroke="midnightblue" d="M2534.34,-269.01C2566.72,-255.27 2607.13,-238.12 2637.79,-225.11"/>
<polygon fill="midnightblue" stroke="midnightblue" points="2532.84,-265.85 2525.01,-272.98 2535.58,-272.29 2532.84,-265.85"/>
</g>
<!-- Node12 -->
<g id="node12" class="node">
<title>Node12</title>
<g id="a_node12"><a xlink:href="invariant__propagation_8cpp.html" target="_top" xlink:title="Invariant Propagation.">
<polygon fill="none" stroke="black" points="2493,-95 2493,-136 2687,-136 2687,-95 2493,-95"/>
<text text-anchor="start" x="2501" y="-124" font-family="Helvetica,sans-Serif" font-size="10.00">/home/runner/work/diffblue</text>
<text text-anchor="start" x="2501" y="-113" font-family="Helvetica,sans-Serif" font-size="10.00">&#45;cbmc/diffblue&#45;cbmc/src</text>
<text text-anchor="middle" x="2590" y="-102" font-family="Helvetica,sans-Serif" font-size="10.00">/analyses/invariant_propagation.cpp</text>
</a>
</g>
</g>
<!-- Node11&#45;&gt;Node12 -->
<g id="edge11" class="edge">
<title>Node11&#45;&gt;Node12</title>
<path fill="none" stroke="midnightblue" d="M2511.91,-177.71C2528.83,-164.44 2549.13,-148.53 2564.79,-136.26"/>
<polygon fill="midnightblue" stroke="midnightblue" points="2509.62,-175.05 2503.91,-183.98 2513.94,-180.56 2509.62,-175.05"/>
</g>
<!-- Node14&#45;&gt;Node2 -->
<g id="edge14" class="edge">
<title>Node14&#45;&gt;Node2</title>
<path fill="none" stroke="midnightblue" d="M1100.47,-362.8C1000.99,-347.27 837.15,-321.69 740.72,-306.63"/>
<polygon fill="midnightblue" stroke="midnightblue" points="1100.07,-366.28 1110.49,-364.37 1101.15,-359.37 1100.07,-366.28"/>
</g>
<!-- Node15 -->
<g id="node15" class="node">
<title>Node15</title>
<g id="a_node15"><a xlink:href="interval__constraint_8h.html" target="_top" xlink:title=" ">
<polygon fill="none" stroke="black" points="1110.5,-273 1110.5,-314 1259.5,-314 1259.5,-273 1110.5,-273"/>
<text text-anchor="start" x="1118.5" y="-302" font-family="Helvetica,sans-Serif" font-size="10.00">/home/runner/work/diffblue</text>
<text text-anchor="start" x="1118.5" y="-291" font-family="Helvetica,sans-Serif" font-size="10.00">&#45;cbmc/diffblue&#45;cbmc/src</text>
<text text-anchor="middle" x="1185" y="-280" font-family="Helvetica,sans-Serif" font-size="10.00">/util/interval_constraint.h</text>
</a>
</g>
</g>
<!-- Node14&#45;&gt;Node15 -->
<g id="edge15" class="edge">
<title>Node14&#45;&gt;Node15</title>
<path fill="none" stroke="midnightblue" d="M1185,-346.06C1185,-335.38 1185,-323.63 1185,-314.05"/>
<polygon fill="midnightblue" stroke="midnightblue" points="1181.5,-346.27 1185,-356.27 1188.5,-346.27 1181.5,-346.27"/>
</g>
<!-- Node16 -->
<g id="node16" class="node">
<title>Node16</title>
<g id="a_node16"><a xlink:href="string__constraint__generator__main_8cpp.html" target="_top" xlink:title="Generates string constraints to link results from string functions with their arguments.">
<polygon fill="none" stroke="black" points="916,-178.5 916,-230.5 1092,-230.5 1092,-178.5 916,-178.5"/>
<text text-anchor="start" x="924" y="-218.5" font-family="Helvetica,sans-Serif" font-size="10.00">/home/runner/work/diffblue</text>
<text text-anchor="start" x="924" y="-207.5" font-family="Helvetica,sans-Serif" font-size="10.00">&#45;cbmc/diffblue&#45;cbmc/src</text>
<text text-anchor="start" x="924" y="-196.5" font-family="Helvetica,sans-Serif" font-size="10.00">/solvers/strings/string_constraint</text>
<text text-anchor="middle" x="1004" y="-185.5" font-family="Helvetica,sans-Serif" font-size="10.00">_generator_main.cpp</text>
</a>
</g>
</g>
<!-- Node15&#45;&gt;Node16 -->
<g id="edge16" class="edge">
<title>Node15&#45;&gt;Node16</title>
<path fill="none" stroke="midnightblue" d="M1135.24,-268.58C1110.68,-256.78 1081.06,-242.54 1056.19,-230.58"/>
<polygon fill="midnightblue" stroke="midnightblue" points="1133.85,-271.8 1144.38,-272.98 1136.88,-265.49 1133.85,-271.8"/>
</g>
<!-- Node17 -->
<g id="node17" class="node">
<title>Node17</title>
<g id="a_node17"><a xlink:href="interval__constraint_8cpp.html" target="_top" xlink:title=" ">
<polygon fill="none" stroke="black" points="1110,-184 1110,-225 1260,-225 1260,-184 1110,-184"/>
<text text-anchor="start" x="1118" y="-213" font-family="Helvetica,sans-Serif" font-size="10.00">/home/runner/work/diffblue</text>
<text text-anchor="start" x="1118" y="-202" font-family="Helvetica,sans-Serif" font-size="10.00">&#45;cbmc/diffblue&#45;cbmc/src</text>
<text text-anchor="middle" x="1185" y="-191" font-family="Helvetica,sans-Serif" font-size="10.00">/util/interval_constraint.cpp</text>
</a>
</g>
</g>
<!-- Node15&#45;&gt;Node17 -->
<g id="edge17" class="edge">
<title>Node15&#45;&gt;Node17</title>
<path fill="none" stroke="midnightblue" d="M1185,-262.44C1185,-250.1 1185,-236.16 1185,-225.16"/>
<polygon fill="midnightblue" stroke="midnightblue" points="1181.5,-262.76 1185,-272.76 1188.5,-262.76 1181.5,-262.76"/>
</g>
<!-- Node18 -->
<g id="node18" class="node">
<title>Node18</title>
<g id="a_node18"><a xlink:href="java__object__factory_8cpp.html" target="_top" xlink:title=" ">
<polygon fill="none" stroke="black" points="1277.5,-178.5 1277.5,-230.5 1444.5,-230.5 1444.5,-178.5 1277.5,-178.5"/>
<text text-anchor="start" x="1285.5" y="-218.5" font-family="Helvetica,sans-Serif" font-size="10.00">/home/runner/work/diffblue</text>
<text text-anchor="start" x="1285.5" y="-207.5" font-family="Helvetica,sans-Serif" font-size="10.00">&#45;cbmc/diffblue&#45;cbmc/jbmc</text>
<text text-anchor="start" x="1285.5" y="-196.5" font-family="Helvetica,sans-Serif" font-size="10.00">/src/java_bytecode/java_object</text>
<text text-anchor="middle" x="1361" y="-185.5" font-family="Helvetica,sans-Serif" font-size="10.00">_factory.cpp</text>
</a>
</g>
</g>
<!-- Node15&#45;&gt;Node18 -->
<g id="edge18" class="edge">
<title>Node15&#45;&gt;Node18</title>
<path fill="none" stroke="midnightblue" d="M1233.7,-268.42C1257.52,-256.65 1286.17,-242.49 1310.25,-230.58"/>
<polygon fill="midnightblue" stroke="midnightblue" points="1231.91,-265.41 1224.5,-272.98 1235.01,-271.68 1231.91,-265.41"/>
</g>
<!-- Node20 -->
<g id="node20" class="node">
<title>Node20</title>
<g id="a_node20"><a xlink:href="interval__union_8cpp.html" target="_top" xlink:title=" ">
<polygon fill="none" stroke="black" points="1839.5,-273 1839.5,-314 1988.5,-314 1988.5,-273 1839.5,-273"/>
<text text-anchor="start" x="1847.5" y="-302" font-family="Helvetica,sans-Serif" font-size="10.00">/home/runner/work/diffblue</text>
<text text-anchor="start" x="1847.5" y="-291" font-family="Helvetica,sans-Serif" font-size="10.00">&#45;cbmc/diffblue&#45;cbmc/src</text>
<text text-anchor="middle" x="1914" y="-280" font-family="Helvetica,sans-Serif" font-size="10.00">/util/interval_union.cpp</text>
</a>
</g>
</g>
<!-- Node19&#45;&gt;Node20 -->
<g id="edge20" class="edge">
<title>Node19&#45;&gt;Node20</title>
<path fill="none" stroke="midnightblue" d="M1789.55,-352.13C1815.74,-340 1847.16,-325.45 1871.88,-314"/>
<polygon fill="midnightblue" stroke="midnightblue" points="1787.76,-349.1 1780.16,-356.48 1790.7,-355.45 1787.76,-349.1"/>
</g>
<!-- Node21 -->
<g id="node21" class="node">
<title>Node21</title>
<g id="a_node21"><a xlink:href="java__object__factory__parameters_8h.html" target="_top" xlink:title=" ">
<polygon fill="none" stroke="black" points="1654.5,-267.5 1654.5,-319.5 1821.5,-319.5 1821.5,-267.5 1654.5,-267.5"/>
<text text-anchor="start" x="1662.5" y="-307.5" font-family="Helvetica,sans-Serif" font-size="10.00">/home/runner/work/diffblue</text>
<text text-anchor="start" x="1662.5" y="-296.5" font-family="Helvetica,sans-Serif" font-size="10.00">&#45;cbmc/diffblue&#45;cbmc/jbmc</text>
<text text-anchor="start" x="1662.5" y="-285.5" font-family="Helvetica,sans-Serif" font-size="10.00">/src/java_bytecode/java_object</text>
<text text-anchor="middle" x="1738" y="-274.5" font-family="Helvetica,sans-Serif" font-size="10.00">_factory_parameters.h</text>
</a>
</g>
</g>
<!-- Node19&#45;&gt;Node21 -->
<g id="edge21" class="edge">
<title>Node19&#45;&gt;Node21</title>
<path fill="none" stroke="midnightblue" d="M1738,-346.12C1738,-337.41 1738,-327.99 1738,-319.61"/>
<polygon fill="midnightblue" stroke="midnightblue" points="1734.5,-346.27 1738,-356.27 1741.5,-346.27 1734.5,-346.27"/>
</g>
<!-- Node21&#45;&gt;Node18 -->
<g id="edge39" class="edge">
<title>Node21&#45;&gt;Node18</title>
<path fill="none" stroke="midnightblue" d="M1644.64,-273.62C1589.09,-262.05 1517.32,-246.53 1454,-231 1450.91,-230.24 1447.77,-229.46 1444.6,-228.65"/>
<polygon fill="midnightblue" stroke="midnightblue" points="1643.96,-277.05 1654.47,-275.66 1645.39,-270.2 1643.96,-277.05"/>
</g>
<!-- Node22 -->
<g id="node22" class="node">
<title>Node22</title>
<g id="a_node22"><a xlink:href="convert__java__nondet_8cpp.html" target="_top" xlink:title="Convert side_effect_expr_nondett expressions.">
<polygon fill="none" stroke="black" points="1663.5,-178.5 1663.5,-230.5 1812.5,-230.5 1812.5,-178.5 1663.5,-178.5"/>
<text text-anchor="start" x="1671.5" y="-218.5" font-family="Helvetica,sans-Serif" font-size="10.00">/home/runner/work/diffblue</text>
<text text-anchor="start" x="1671.5" y="-207.5" font-family="Helvetica,sans-Serif" font-size="10.00">&#45;cbmc/diffblue&#45;cbmc/jbmc</text>
<text text-anchor="start" x="1671.5" y="-196.5" font-family="Helvetica,sans-Serif" font-size="10.00">/src/java_bytecode/convert</text>
<text text-anchor="middle" x="1738" y="-185.5" font-family="Helvetica,sans-Serif" font-size="10.00">_java_nondet.cpp</text>
</a>
</g>
</g>
<!-- Node21&#45;&gt;Node22 -->
<g id="edge22" class="edge">
<title>Node21&#45;&gt;Node22</title>
<path fill="none" stroke="midnightblue" d="M1738,-257.19C1738,-248.28 1738,-238.9 1738,-230.61"/>
<polygon fill="midnightblue" stroke="midnightblue" points="1734.5,-257.34 1738,-267.34 1741.5,-257.34 1734.5,-257.34"/>
</g>
<!-- Node23 -->
<g id="node23" class="node">
<title>Node23</title>
<g id="a_node23"><a xlink:href="java__bytecode__language_8h.html" target="_top" xlink:title=" ">
<polygon fill="none" stroke="black" points="1463,-178.5 1463,-230.5 1645,-230.5 1645,-178.5 1463,-178.5"/>
<text text-anchor="start" x="1471" y="-218.5" font-family="Helvetica,sans-Serif" font-size="10.00">/home/runner/work/diffblue</text>
<text text-anchor="start" x="1471" y="-207.5" font-family="Helvetica,sans-Serif" font-size="10.00">&#45;cbmc/diffblue&#45;cbmc/jbmc</text>
<text text-anchor="start" x="1471" y="-196.5" font-family="Helvetica,sans-Serif" font-size="10.00">/src/java_bytecode/java_bytecode</text>
<text text-anchor="middle" x="1554" y="-185.5" font-family="Helvetica,sans-Serif" font-size="10.00">_language.h</text>
</a>
</g>
</g>
<!-- Node21&#45;&gt;Node23 -->
<g id="edge23" class="edge">
<title>Node21&#45;&gt;Node23</title>
<path fill="none" stroke="midnightblue" d="M1675.73,-263.06C1653.44,-252.52 1628.54,-240.75 1607.1,-230.61"/>
<polygon fill="midnightblue" stroke="midnightblue" points="1674.24,-266.23 1684.78,-267.34 1677.24,-259.9 1674.24,-266.23"/>
</g>
<!-- Node36 -->
<g id="node36" class="node">
<title>Node36</title>
<g id="a_node36"><a xlink:href="java__object__factory__parameters_8cpp.html" target="_top" xlink:title=" ">
<polygon fill="none" stroke="black" points="1830.5,-178.5 1830.5,-230.5 1997.5,-230.5 1997.5,-178.5 1830.5,-178.5"/>
<text text-anchor="start" x="1838.5" y="-218.5" font-family="Helvetica,sans-Serif" font-size="10.00">/home/runner/work/diffblue</text>
<text text-anchor="start" x="1838.5" y="-207.5" font-family="Helvetica,sans-Serif" font-size="10.00">&#45;cbmc/diffblue&#45;cbmc/jbmc</text>
<text text-anchor="start" x="1838.5" y="-196.5" font-family="Helvetica,sans-Serif" font-size="10.00">/src/java_bytecode/java_object</text>
<text text-anchor="middle" x="1914" y="-185.5" font-family="Helvetica,sans-Serif" font-size="10.00">_factory_parameters.cpp</text>
</a>
</g>
</g>
<!-- Node21&#45;&gt;Node36 -->
<g id="edge40" class="edge">
<title>Node21&#45;&gt;Node36</title>
<path fill="none" stroke="midnightblue" d="M1798.13,-262.78C1819.31,-252.31 1842.88,-240.66 1863.21,-230.61"/>
<polygon fill="midnightblue" stroke="midnightblue" points="1796.32,-259.77 1788.91,-267.34 1799.42,-266.04 1796.32,-259.77"/>
</g>
<!-- Node37 -->
<g id="node37" class="node">
<title>Node37</title>
<g id="a_node37"><a xlink:href="java__static__initializers_8cpp.html" target="_top" xlink:title=" ">
<polygon fill="none" stroke="black" points="2016,-178.5 2016,-230.5 2180,-230.5 2180,-178.5 2016,-178.5"/>
<text text-anchor="start" x="2024" y="-218.5" font-family="Helvetica,sans-Serif" font-size="10.00">/home/runner/work/diffblue</text>
<text text-anchor="start" x="2024" y="-207.5" font-family="Helvetica,sans-Serif" font-size="10.00">&#45;cbmc/diffblue&#45;cbmc/jbmc</text>
<text text-anchor="start" x="2024" y="-196.5" font-family="Helvetica,sans-Serif" font-size="10.00">/src/java_bytecode/java_static</text>
<text text-anchor="middle" x="2098" y="-185.5" font-family="Helvetica,sans-Serif" font-size="10.00">_initializers.cpp</text>
</a>
</g>
</g>
<!-- Node21&#45;&gt;Node37 -->
<g id="edge41" class="edge">
<title>Node21&#45;&gt;Node37</title>
<path fill="none" stroke="midnightblue" d="M1831.49,-266.96C1910.36,-248.51 1932.43,-249.05 2007,-231 2009.87,-230.31 2012.79,-229.58 2015.73,-228.84"/>
<polygon fill="midnightblue" stroke="midnightblue" points="1830.51,-263.59 1821.58,-269.3 1832.12,-270.4 1830.51,-263.59"/>
</g>
<!-- Node38 -->
<g id="node38" class="node">
<title>Node38</title>
<g id="a_node38"><a xlink:href="simple__method__stubbing_8cpp.html" target="_top" xlink:title="Java simple opaque stub generation.">
<polygon fill="none" stroke="black" points="2198.5,-178.5 2198.5,-230.5 2347.5,-230.5 2347.5,-178.5 2198.5,-178.5"/>
<text text-anchor="start" x="2206.5" y="-218.5" font-family="Helvetica,sans-Serif" font-size="10.00">/home/runner/work/diffblue</text>
<text text-anchor="start" x="2206.5" y="-207.5" font-family="Helvetica,sans-Serif" font-size="10.00">&#45;cbmc/diffblue&#45;cbmc/jbmc</text>
<text text-anchor="start" x="2206.5" y="-196.5" font-family="Helvetica,sans-Serif" font-size="10.00">/src/java_bytecode/simple</text>
<text text-anchor="middle" x="2273" y="-185.5" font-family="Helvetica,sans-Serif" font-size="10.00">_method_stubbing.cpp</text>
</a>
</g>
</g>
<!-- Node21&#45;&gt;Node38 -->
<g id="edge42" class="edge">
<title>Node21&#45;&gt;Node38</title>
<path fill="none" stroke="midnightblue" d="M1831.84,-267C1990.07,-238.74 2035.41,-261.73 2189,-231 2191.99,-230.4 2195.02,-229.74 2198.08,-229.03"/>
<polygon fill="midnightblue" stroke="midnightblue" points="1830.96,-263.6 1821.75,-268.84 1832.22,-270.49 1830.96,-263.6"/>
</g>
<!-- Node23&#45;&gt;Node7 -->
<g id="edge24" class="edge">
<title>Node23&#45;&gt;Node7</title>
<path fill="none" stroke="midnightblue" d="M1452.79,-178.44C1350.28,-168.68 890.19,-182.37 838,-142 810.73,-120.91 803.25,-79.44 801.37,-52.62"/>
<polygon fill="midnightblue" stroke="midnightblue" points="1452.42,-181.93 1462.77,-179.65 1453.26,-174.98 1452.42,-181.93"/>
</g>
<!-- Node24 -->
<g id="node24" class="node">
<title>Node24</title>
<g id="a_node24"><a xlink:href="janalyzer__parse__options_8h.html" target="_top" xlink:title="JANALYZER Command Line Option Processing.">
<polygon fill="none" stroke="black" points="847.5,-89.5 847.5,-141.5 996.5,-141.5 996.5,-89.5 847.5,-89.5"/>
<text text-anchor="start" x="855.5" y="-129.5" font-family="Helvetica,sans-Serif" font-size="10.00">/home/runner/work/diffblue</text>
<text text-anchor="start" x="855.5" y="-118.5" font-family="Helvetica,sans-Serif" font-size="10.00">&#45;cbmc/diffblue&#45;cbmc/jbmc</text>
<text text-anchor="start" x="855.5" y="-107.5" font-family="Helvetica,sans-Serif" font-size="10.00">/src/janalyzer/janalyzer</text>
<text text-anchor="middle" x="922" y="-96.5" font-family="Helvetica,sans-Serif" font-size="10.00">_parse_options.h</text>
</a>
</g>
</g>
<!-- Node23&#45;&gt;Node24 -->
<g id="edge25" class="edge">
<title>Node23&#45;&gt;Node24</title>
<path fill="none" stroke="midnightblue" d="M1452.87,-178.13C1254.12,-146.52 1198.03,-178.95 1005,-142 1002.33,-141.49 999.63,-140.93 996.92,-140.32"/>
<polygon fill="midnightblue" stroke="midnightblue" points="1452.32,-181.59 1462.76,-179.74 1453.45,-174.68 1452.32,-181.59"/>
</g>
<!-- Node26 -->
<g id="node26" class="node">
<title>Node26</title>
<g id="a_node26"><a xlink:href="ci__lazy__methods_8cpp.html" target="_top" xlink:title=" ">
<polygon fill="none" stroke="black" points="1014.5,-89.5 1014.5,-141.5 1163.5,-141.5 1163.5,-89.5 1014.5,-89.5"/>
<text text-anchor="start" x="1022.5" y="-129.5" font-family="Helvetica,sans-Serif" font-size="10.00">/home/runner/work/diffblue</text>
<text text-anchor="start" x="1022.5" y="-118.5" font-family="Helvetica,sans-Serif" font-size="10.00">&#45;cbmc/diffblue&#45;cbmc/jbmc</text>
<text text-anchor="start" x="1022.5" y="-107.5" font-family="Helvetica,sans-Serif" font-size="10.00">/src/java_bytecode/ci_lazy</text>
<text text-anchor="middle" x="1089" y="-96.5" font-family="Helvetica,sans-Serif" font-size="10.00">_methods.cpp</text>
</a>
</g>
</g>
<!-- Node23&#45;&gt;Node26 -->
<g id="edge28" class="edge">
<title>Node23&#45;&gt;Node26</title>
<path fill="none" stroke="midnightblue" d="M1453.31,-178.06C1453.21,-178.04 1453.1,-178.02 1453,-178 1329.73,-154.6 1295.68,-168.31 1173,-142 1170.02,-141.36 1166.99,-140.67 1163.94,-139.93"/>
<polygon fill="midnightblue" stroke="midnightblue" points="1452.5,-181.47 1462.99,-179.99 1453.87,-174.6 1452.5,-181.47"/>
</g>
<!-- Node27 -->
<g id="node27" class="node">
<title>Node27</title>
<g id="a_node27"><a xlink:href="java__bytecode__language_8cpp.html" target="_top" xlink:title=" ">
<polygon fill="none" stroke="black" points="1182,-89.5 1182,-141.5 1364,-141.5 1364,-89.5 1182,-89.5"/>
<text text-anchor="start" x="1190" y="-129.5" font-family="Helvetica,sans-Serif" font-size="10.00">/home/runner/work/diffblue</text>
<text text-anchor="start" x="1190" y="-118.5" font-family="Helvetica,sans-Serif" font-size="10.00">&#45;cbmc/diffblue&#45;cbmc/jbmc</text>
<text text-anchor="start" x="1190" y="-107.5" font-family="Helvetica,sans-Serif" font-size="10.00">/src/java_bytecode/java_bytecode</text>
<text text-anchor="middle" x="1273" y="-96.5" font-family="Helvetica,sans-Serif" font-size="10.00">_language.cpp</text>
</a>
</g>
</g>
<!-- Node23&#45;&gt;Node27 -->
<g id="edge29" class="edge">
<title>Node23&#45;&gt;Node27</title>
<path fill="none" stroke="midnightblue" d="M1463.3,-175.42C1428.07,-164.51 1388.04,-152.12 1353.82,-141.52"/>
<polygon fill="midnightblue" stroke="midnightblue" points="1462.51,-178.84 1473.1,-178.45 1464.58,-172.15 1462.51,-178.84"/>
</g>
<!-- Node28 -->
<g id="node28" class="node">
<title>Node28</title>
<g id="a_node28"><a xlink:href="java__entry__point_8cpp.html" target="_top" xlink:title=" ">
<polygon fill="none" stroke="black" points="1382.5,-89.5 1382.5,-141.5 1545.5,-141.5 1545.5,-89.5 1382.5,-89.5"/>
<text text-anchor="start" x="1390.5" y="-129.5" font-family="Helvetica,sans-Serif" font-size="10.00">/home/runner/work/diffblue</text>
<text text-anchor="start" x="1390.5" y="-118.5" font-family="Helvetica,sans-Serif" font-size="10.00">&#45;cbmc/diffblue&#45;cbmc/jbmc</text>
<text text-anchor="start" x="1390.5" y="-107.5" font-family="Helvetica,sans-Serif" font-size="10.00">/src/java_bytecode/java_entry</text>
<text text-anchor="middle" x="1464" y="-96.5" font-family="Helvetica,sans-Serif" font-size="10.00">_point.cpp</text>
</a>
</g>
</g>
<!-- Node23&#45;&gt;Node28 -->
<g id="edge30" class="edge">
<title>Node23&#45;&gt;Node28</title>
<path fill="none" stroke="midnightblue" d="M1520.75,-171.36C1510.6,-161.54 1499.58,-150.89 1489.97,-141.61"/>
<polygon fill="midnightblue" stroke="midnightblue" points="1518.35,-173.9 1527.97,-178.34 1523.21,-168.87 1518.35,-173.9"/>
</g>
<!-- Node29 -->
<g id="node29" class="node">
<title>Node29</title>
<g id="a_node29"><a xlink:href="lazy__goto__model_8cpp.html" target="_top" xlink:title="Author: Diffblue Ltd.">
<polygon fill="none" stroke="black" points="1564,-89.5 1564,-141.5 1722,-141.5 1722,-89.5 1564,-89.5"/>
<text text-anchor="start" x="1572" y="-129.5" font-family="Helvetica,sans-Serif" font-size="10.00">/home/runner/work/diffblue</text>
<text text-anchor="start" x="1572" y="-118.5" font-family="Helvetica,sans-Serif" font-size="10.00">&#45;cbmc/diffblue&#45;cbmc/jbmc</text>
<text text-anchor="start" x="1572" y="-107.5" font-family="Helvetica,sans-Serif" font-size="10.00">/src/java_bytecode/lazy_goto</text>
<text text-anchor="middle" x="1643" y="-96.5" font-family="Helvetica,sans-Serif" font-size="10.00">_model.cpp</text>
</a>
</g>
</g>
<!-- Node23&#45;&gt;Node29 -->
<g id="edge31" class="edge">
<title>Node23&#45;&gt;Node29</title>
<path fill="none" stroke="midnightblue" d="M1587.17,-171.08C1597.13,-161.34 1607.91,-150.8 1617.32,-141.61"/>
<polygon fill="midnightblue" stroke="midnightblue" points="1584.45,-168.84 1579.74,-178.34 1589.34,-173.85 1584.45,-168.84"/>
</g>
<!-- Node30 -->
<g id="node30" class="node">
<title>Node30</title>
<g id="a_node30"><a xlink:href="jbmc__parse__options_8cpp.html" target="_top" xlink:title="JBMC Command Line Option Processing.">
<polygon fill="none" stroke="black" points="1659,-6 1659,-47 1841,-47 1841,-6 1659,-6"/>
<text text-anchor="start" x="1667" y="-35" font-family="Helvetica,sans-Serif" font-size="10.00">/home/runner/work/diffblue</text>
<text text-anchor="start" x="1667" y="-24" font-family="Helvetica,sans-Serif" font-size="10.00">&#45;cbmc/diffblue&#45;cbmc/jbmc</text>
<text text-anchor="middle" x="1750" y="-13" font-family="Helvetica,sans-Serif" font-size="10.00">/src/jbmc/jbmc_parse_options.cpp</text>
</a>
</g>
</g>
<!-- Node23&#45;&gt;Node30 -->
<g id="edge32" class="edge">
<title>Node23&#45;&gt;Node30</title>
<path fill="none" stroke="midnightblue" d="M1648.38,-175.26C1687.32,-162.76 1724.86,-149.28 1731,-142 1753.47,-115.35 1754.25,-72.43 1752.39,-47.4"/>
<polygon fill="midnightblue" stroke="midnightblue" points="1646.94,-172.04 1638.47,-178.41 1649.06,-178.71 1646.94,-172.04"/>
</g>
<!-- Node31 -->
<g id="node31" class="node">
<title>Node31</title>
<g id="a_node31"><a xlink:href="jbmc__parse__options_8h.html" target="_top" xlink:title="JBMC Command Line Option Processing.">
<polygon fill="none" stroke="black" points="1778,-95 1778,-136 1948,-136 1948,-95 1778,-95"/>
<text text-anchor="start" x="1786" y="-124" font-family="Helvetica,sans-Serif" font-size="10.00">/home/runner/work/diffblue</text>
<text text-anchor="start" x="1786" y="-113" font-family="Helvetica,sans-Serif" font-size="10.00">&#45;cbmc/diffblue&#45;cbmc/jbmc</text>
<text text-anchor="middle" x="1863" y="-102" font-family="Helvetica,sans-Serif" font-size="10.00">/src/jbmc/jbmc_parse_options.h</text>
</a>
</g>
</g>
<!-- Node23&#45;&gt;Node31 -->
<g id="edge33" class="edge">
<title>Node23&#45;&gt;Node31</title>
<path fill="none" stroke="midnightblue" d="M1652.61,-175.74C1698.39,-162.85 1751.74,-147.82 1793.27,-136.13"/>
<polygon fill="midnightblue" stroke="midnightblue" points="1651.64,-172.37 1642.96,-178.45 1653.54,-179.11 1651.64,-172.37"/>
</g>
<!-- Node33 -->
<g id="node33" class="node">
<title>Node33</title>
<g id="a_node33"><a xlink:href="jdiff__languages_8cpp.html" target="_top" xlink:title="Language Registration.">
<polygon fill="none" stroke="black" points="1966.5,-95 1966.5,-136 2119.5,-136 2119.5,-95 1966.5,-95"/>
<text text-anchor="start" x="1974.5" y="-124" font-family="Helvetica,sans-Serif" font-size="10.00">/home/runner/work/diffblue</text>
<text text-anchor="start" x="1974.5" y="-113" font-family="Helvetica,sans-Serif" font-size="10.00">&#45;cbmc/diffblue&#45;cbmc/jbmc</text>
<text text-anchor="middle" x="2043" y="-102" font-family="Helvetica,sans-Serif" font-size="10.00">/src/jdiff/jdiff_languages.cpp</text>
</a>
</g>
</g>
<!-- Node23&#45;&gt;Node33 -->
<g id="edge36" class="edge">
<title>Node23&#45;&gt;Node33</title>
<path fill="none" stroke="midnightblue" d="M1655.13,-178.1C1789.69,-154.13 1827.72,-168.67 1957,-142 1965.08,-140.33 1973.51,-138.26 1981.78,-136.03"/>
<polygon fill="midnightblue" stroke="midnightblue" points="1654.48,-174.66 1645.27,-179.9 1655.74,-181.55 1654.48,-174.66"/>
</g>
<!-- Node34 -->
<g id="node34" class="node">
<title>Node34</title>
<g id="a_node34"><a xlink:href="jdiff__parse__options_8cpp.html" target="_top" xlink:title="JDIFF Command Line Option Processing.">
<polygon fill="none" stroke="black" points="2137.5,-95 2137.5,-136 2308.5,-136 2308.5,-95 2137.5,-95"/>
<text text-anchor="start" x="2145.5" y="-124" font-family="Helvetica,sans-Serif" font-size="10.00">/home/runner/work/diffblue</text>
<text text-anchor="start" x="2145.5" y="-113" font-family="Helvetica,sans-Serif" font-size="10.00">&#45;cbmc/diffblue&#45;cbmc/jbmc</text>
<text text-anchor="middle" x="2223" y="-102" font-family="Helvetica,sans-Serif" font-size="10.00">/src/jdiff/jdiff_parse_options.cpp</text>
</a>
</g>
</g>
<!-- Node23&#45;&gt;Node34 -->
<g id="edge37" class="edge">
<title>Node23&#45;&gt;Node34</title>
<path fill="none" stroke="midnightblue" d="M1655.36,-178.1C1865.35,-145.06 1924.04,-177.26 2129,-142 2138.17,-140.42 2147.73,-138.35 2157.1,-136.06"/>
<polygon fill="midnightblue" stroke="midnightblue" points="1654.56,-174.68 1645.24,-179.72 1655.67,-181.59 1654.56,-174.68"/>
</g>
<!-- Node35 -->
<g id="node35" class="node">
<title>Node35</title>
<g id="a_node35"><a xlink:href="load__java__class_8cpp.html" target="_top" xlink:title=" ">
<polygon fill="none" stroke="black" points="2326.5,-89.5 2326.5,-141.5 2475.5,-141.5 2475.5,-89.5 2326.5,-89.5"/>
<text text-anchor="start" x="2334.5" y="-129.5" font-family="Helvetica,sans-Serif" font-size="10.00">/home/runner/work/diffblue</text>
<text text-anchor="start" x="2334.5" y="-118.5" font-family="Helvetica,sans-Serif" font-size="10.00">&#45;cbmc/diffblue&#45;cbmc/jbmc</text>
<text text-anchor="start" x="2334.5" y="-107.5" font-family="Helvetica,sans-Serif" font-size="10.00">/unit/java&#45;testing&#45;utils</text>
<text text-anchor="middle" x="2401" y="-96.5" font-family="Helvetica,sans-Serif" font-size="10.00">/load_java_class.cpp</text>
</a>
</g>
</g>
<!-- Node23&#45;&gt;Node35 -->
<g id="edge38" class="edge">
<title>Node23&#45;&gt;Node35</title>
<path fill="none" stroke="midnightblue" d="M1655.3,-178.12C1948.59,-135.01 2030.73,-193.14 2318,-142 2320.67,-141.52 2323.38,-140.99 2326.1,-140.41"/>
<polygon fill="midnightblue" stroke="midnightblue" points="1654.6,-174.69 1645.23,-179.63 1655.64,-181.61 1654.6,-174.69"/>
</g>
<!-- Node24&#45;&gt;Node7 -->
<g id="edge27" class="edge">
<title>Node24&#45;&gt;Node7</title>
<path fill="none" stroke="midnightblue" d="M878.49,-83.22C864.51,-73.16 849.21,-62.16 835.92,-52.61"/>
<polygon fill="midnightblue" stroke="midnightblue" points="876.84,-86.34 887,-89.34 880.93,-80.66 876.84,-86.34"/>
</g>
<!-- Node25 -->
<g id="node25" class="node">
<title>Node25</title>
<g id="a_node25"><a xlink:href="janalyzer__main_8cpp.html" target="_top" xlink:title="JANALYZER Main Module.">
<polygon fill="none" stroke="black" points="893.5,-0.5 893.5,-52.5 1042.5,-52.5 1042.5,-0.5 893.5,-0.5"/>
<text text-anchor="start" x="901.5" y="-40.5" font-family="Helvetica,sans-Serif" font-size="10.00">/home/runner/work/diffblue</text>
<text text-anchor="start" x="901.5" y="-29.5" font-family="Helvetica,sans-Serif" font-size="10.00">&#45;cbmc/diffblue&#45;cbmc/jbmc</text>
<text text-anchor="start" x="901.5" y="-18.5" font-family="Helvetica,sans-Serif" font-size="10.00">/src/janalyzer/janalyzer</text>
<text text-anchor="middle" x="968" y="-7.5" font-family="Helvetica,sans-Serif" font-size="10.00">_main.cpp</text>
</a>
</g>
</g>
<!-- Node24&#45;&gt;Node25 -->
<g id="edge26" class="edge">
<title>Node24&#45;&gt;Node25</title>
<path fill="none" stroke="midnightblue" d="M940.06,-80.35C944.95,-71.1 950.15,-61.26 954.72,-52.61"/>
<polygon fill="midnightblue" stroke="midnightblue" points="936.89,-78.86 935.31,-89.34 943.07,-82.13 936.89,-78.86"/>
</g>
<!-- Node31&#45;&gt;Node30 -->
<g id="edge35" class="edge">
<title>Node31&#45;&gt;Node30</title>
<path fill="none" stroke="midnightblue" d="M1829.5,-88.71C1812.27,-75.44 1791.61,-59.53 1775.67,-47.26"/>
<polygon fill="midnightblue" stroke="midnightblue" points="1827.58,-91.65 1837.64,-94.98 1831.85,-86.1 1827.58,-91.65"/>
</g>
<!-- Node32 -->
<g id="node32" class="node">
<title>Node32</title>
<g id="a_node32"><a xlink:href="jbmc__main_8cpp.html" target="_top" xlink:title="CBMC Main Module.">
<polygon fill="none" stroke="black" points="1859.5,-6 1859.5,-47 2008.5,-47 2008.5,-6 1859.5,-6"/>
<text text-anchor="start" x="1867.5" y="-35" font-family="Helvetica,sans-Serif" font-size="10.00">/home/runner/work/diffblue</text>
<text text-anchor="start" x="1867.5" y="-24" font-family="Helvetica,sans-Serif" font-size="10.00">&#45;cbmc/diffblue&#45;cbmc/jbmc</text>
<text text-anchor="middle" x="1934" y="-13" font-family="Helvetica,sans-Serif" font-size="10.00">/src/jbmc/jbmc_main.cpp</text>
</a>
</g>
</g>
<!-- Node31&#45;&gt;Node32 -->
<g id="edge34" class="edge">
<title>Node31&#45;&gt;Node32</title>
<path fill="none" stroke="midnightblue" d="M1885.72,-86.67C1896.21,-73.8 1908.43,-58.83 1917.95,-47.16"/>
<polygon fill="midnightblue" stroke="midnightblue" points="1882.72,-84.8 1879.11,-94.76 1888.15,-89.22 1882.72,-84.8"/>
</g>
</g>
</svg>
