<?xml version="1.0" encoding="UTF-8" standalone="no"?>
<!DOCTYPE svg PUBLIC "-//W3C//DTD SVG 1.1//EN"
 "http://www.w3.org/Graphics/SVG/1.1/DTD/svg11.dtd">
<!-- Generated by graphviz version 2.43.0 (0)
 -->
<!-- Title: /home/runner/work/diffblue&#45;cbmc/diffblue&#45;cbmc/src/util/interval_constraint.h Pages: 1 -->
<svg width="537pt" height="139pt"
 viewBox="0.00 0.00 536.50 139.00" xmlns="http://www.w3.org/2000/svg" xmlns:xlink="http://www.w3.org/1999/xlink">
<g id="graph0" class="graph" transform="scale(1 1) rotate(0) translate(4 135)">
<title>/home/runner/work/diffblue&#45;cbmc/diffblue&#45;cbmc/src/util/interval_constraint.h</title>
<!-- Node1 -->
<g id="node1" class="node">
<title>Node1</title>
<g id="a_node1"><a xlink:title=" ">
<polygon fill="#bfbfbf" stroke="black" points="194.5,-89.5 194.5,-130.5 343.5,-130.5 343.5,-89.5 194.5,-89.5"/>
<text text-anchor="start" x="202.5" y="-118.5" font-family="Helvetica,sans-Serif" font-size="10.00">/home/runner/work/diffblue</text>
<text text-anchor="start" x="202.5" y="-107.5" font-family="Helvetica,sans-Serif" font-size="10.00">&#45;cbmc/diffblue&#45;cbmc/src</text>
<text text-anchor="middle" x="269" y="-96.5" font-family="Helvetica,sans-Serif" font-size="10.00">/util/interval_constraint.h</text>
</a>
</g>
</g>
<!-- Node2 -->
<g id="node2" class="node">
<title>Node2</title>
<g id="a_node2"><a xlink:href="string__constraint__generator__main_8cpp.html" target="_top" xlink:title="Generates string constraints to link results from string functions with their arguments.">
<polygon fill="none" stroke="black" points="0,-0.5 0,-52.5 176,-52.5 176,-0.5 0,-0.5"/>
<text text-anchor="start" x="8" y="-40.5" font-family="Helvetica,sans-Serif" font-size="10.00">/home/runner/work/diffblue</text>
<text text-anchor="start" x="8" y="-29.5" font-family="Helvetica,sans-Serif" font-size="10.00">&#45;cbmc/diffblue&#45;cbmc/src</text>
<text text-anchor="start" x="8" y="-18.5" font-family="Helvetica,sans-Serif" font-size="10.00">/solvers/strings/string_constraint</text>
<text text-anchor="middle" x="88" y="-7.5" font-family="Helvetica,sans-Serif" font-size="10.00">_generator_main.cpp</text>
</a>
</g>
</g>
<!-- Node1&#45;&gt;Node2 -->
<g id="edge1" class="edge">
<title>Node1&#45;&gt;Node2</title>
<path fill="none" stroke="midnightblue" d="M216.45,-85.34C193.63,-75.06 166.86,-63.01 143.69,-52.58"/>
<polygon fill="midnightblue" stroke="midnightblue" points="215.09,-88.56 225.65,-89.48 217.96,-82.18 215.09,-88.56"/>
</g>
<!-- Node3 -->
<g id="node3" class="node">
<title>Node3</title>
<g id="a_node3"><a xlink:href="interval__constraint_8cpp.html" target="_top" xlink:title=" ">
<polygon fill="none" stroke="black" points="194,-6 194,-47 344,-47 344,-6 194,-6"/>
<text text-anchor="start" x="202" y="-35" font-family="Helvetica,sans-Serif" font-size="10.00">/home/runner/work/diffblue</text>
<text text-anchor="start" x="202" y="-24" font-family="Helvetica,sans-Serif" font-size="10.00">&#45;cbmc/diffblue&#45;cbmc/src</text>
<text text-anchor="middle" x="269" y="-13" font-family="Helvetica,sans-Serif" font-size="10.00">/util/interval_constraint.cpp</text>
</a>
</g>
</g>
<!-- Node1&#45;&gt;Node3 -->
<g id="edge2" class="edge">
<title>Node1&#45;&gt;Node3</title>
<path fill="none" stroke="midnightblue" d="M269,-79.06C269,-68.38 269,-56.63 269,-47.05"/>
<polygon fill="midnightblue" stroke="midnightblue" points="265.5,-79.27 269,-89.27 272.5,-79.27 265.5,-79.27"/>
</g>
<!-- Node4 -->
<g id="node4" class="node">
<title>Node4</title>
<g id="a_node4"><a xlink:href="java__object__factory_8cpp.html" target="_top" xlink:title=" ">
<polygon fill="none" stroke="black" points="361.5,-0.5 361.5,-52.5 528.5,-52.5 528.5,-0.5 361.5,-0.5"/>
<text text-anchor="start" x="369.5" y="-40.5" font-family="Helvetica,sans-Serif" font-size="10.00">/home/runner/work/diffblue</text>
<text text-anchor="start" x="369.5" y="-29.5" font-family="Helvetica,sans-Serif" font-size="10.00">&#45;cbmc/diffblue&#45;cbmc/jbmc</text>
<text text-anchor="start" x="369.5" y="-18.5" font-family="Helvetica,sans-Serif" font-size="10.00">/src/java_bytecode/java_object</text>
<text text-anchor="middle" x="445" y="-7.5" font-family="Helvetica,sans-Serif" font-size="10.00">_factory.cpp</text>
</a>
</g>
</g>
<!-- Node1&#45;&gt;Node4 -->
<g id="edge3" class="edge">
<title>Node1&#45;&gt;Node4</title>
<path fill="none" stroke="midnightblue" d="M320.39,-85.2C342.52,-74.95 368.42,-62.96 390.85,-52.58"/>
<polygon fill="midnightblue" stroke="midnightblue" points="318.76,-82.1 311.16,-89.48 321.7,-88.45 318.76,-82.1"/>
</g>
</g>
</svg>
