<?xml version="1.0" encoding="UTF-8" standalone="no"?>
<!DOCTYPE svg PUBLIC "-//W3C//DTD SVG 1.1//EN"
 "http://www.w3.org/Graphics/SVG/1.1/DTD/svg11.dtd">
<!-- Generated by graphviz version 2.43.0 (0)
 -->
<!-- Title: /home/runner/work/diffblue&#45;cbmc/diffblue&#45;cbmc/src/analyses/interval_domain.h Pages: 1 -->
<svg width="930pt" height="139pt"
 viewBox="0.00 0.00 929.50 139.00" xmlns="http://www.w3.org/2000/svg" xmlns:xlink="http://www.w3.org/1999/xlink">
<g id="graph0" class="graph" transform="scale(1 1) rotate(0) translate(4 135)">
<title>/home/runner/work/diffblue&#45;cbmc/diffblue&#45;cbmc/src/analyses/interval_domain.h</title>
<!-- Node1 -->
<g id="node1" class="node">
<title>Node1</title>
<g id="a_node1"><a xlink:title="Interval Domain.">
<polygon fill="#bfbfbf" stroke="black" points="385.5,-89.5 385.5,-130.5 540.5,-130.5 540.5,-89.5 385.5,-89.5"/>
<text text-anchor="start" x="393.5" y="-118.5" font-family="Helvetica,sans-Serif" font-size="10.00">/home/runner/work/diffblue</text>
<text text-anchor="start" x="393.5" y="-107.5" font-family="Helvetica,sans-Serif" font-size="10.00">&#45;cbmc/diffblue&#45;cbmc/src</text>
<text text-anchor="middle" x="463" y="-96.5" font-family="Helvetica,sans-Serif" font-size="10.00">/analyses/interval_domain.h</text>
</a>
</g>
</g>
<!-- Node2 -->
<g id="node2" class="node">
<title>Node2</title>
<g id="a_node2"><a xlink:href="interval__analysis_8cpp.html" target="_top" xlink:title="Interval Analysis – implements the functionality necessary for performing abstract interpretation ove...">
<polygon fill="none" stroke="black" points="0,-6 0,-47 170,-47 170,-6 0,-6"/>
<text text-anchor="start" x="8" y="-35" font-family="Helvetica,sans-Serif" font-size="10.00">/home/runner/work/diffblue</text>
<text text-anchor="start" x="8" y="-24" font-family="Helvetica,sans-Serif" font-size="10.00">&#45;cbmc/diffblue&#45;cbmc/src</text>
<text text-anchor="middle" x="85" y="-13" font-family="Helvetica,sans-Serif" font-size="10.00">/analyses/interval_analysis.cpp</text>
</a>
</g>
</g>
<!-- Node1&#45;&gt;Node2 -->
<g id="edge1" class="edge">
<title>Node1&#45;&gt;Node2</title>
<path fill="none" stroke="midnightblue" d="M375.3,-93.35C319,-82.9 244.44,-68.31 179,-53 171.18,-51.17 163.02,-49.14 154.93,-47.05"/>
<polygon fill="midnightblue" stroke="midnightblue" points="374.77,-96.81 385.24,-95.19 376.04,-89.93 374.77,-96.81"/>
</g>
<!-- Node3 -->
<g id="node3" class="node">
<title>Node3</title>
<g id="a_node3"><a xlink:href="interval__domain_8cpp.html" target="_top" xlink:title="Interval Domain.">
<polygon fill="none" stroke="black" points="188,-6 188,-47 354,-47 354,-6 188,-6"/>
<text text-anchor="start" x="196" y="-35" font-family="Helvetica,sans-Serif" font-size="10.00">/home/runner/work/diffblue</text>
<text text-anchor="start" x="196" y="-24" font-family="Helvetica,sans-Serif" font-size="10.00">&#45;cbmc/diffblue&#45;cbmc/src</text>
<text text-anchor="middle" x="271" y="-13" font-family="Helvetica,sans-Serif" font-size="10.00">/analyses/interval_domain.cpp</text>
</a>
</g>
</g>
<!-- Node1&#45;&gt;Node3 -->
<g id="edge2" class="edge">
<title>Node1&#45;&gt;Node3</title>
<path fill="none" stroke="midnightblue" d="M407.52,-85.45C378.8,-73.26 344.15,-58.55 316.95,-47"/>
<polygon fill="midnightblue" stroke="midnightblue" points="406.44,-88.79 417.01,-89.48 409.17,-82.35 406.44,-88.79"/>
</g>
<!-- Node4 -->
<g id="node4" class="node">
<title>Node4</title>
<g id="a_node4"><a xlink:href="build__analyzer_8cpp.html" target="_top" xlink:title=" ">
<polygon fill="none" stroke="black" points="372.5,-6 372.5,-47 553.5,-47 553.5,-6 372.5,-6"/>
<text text-anchor="start" x="380.5" y="-35" font-family="Helvetica,sans-Serif" font-size="10.00">/home/runner/work/diffblue</text>
<text text-anchor="start" x="380.5" y="-24" font-family="Helvetica,sans-Serif" font-size="10.00">&#45;cbmc/diffblue&#45;cbmc/src</text>
<text text-anchor="middle" x="463" y="-13" font-family="Helvetica,sans-Serif" font-size="10.00">/goto&#45;analyzer/build_analyzer.cpp</text>
</a>
</g>
</g>
<!-- Node1&#45;&gt;Node4 -->
<g id="edge3" class="edge">
<title>Node1&#45;&gt;Node4</title>
<path fill="none" stroke="midnightblue" d="M463,-79.06C463,-68.38 463,-56.63 463,-47.05"/>
<polygon fill="midnightblue" stroke="midnightblue" points="459.5,-79.27 463,-89.27 466.5,-79.27 459.5,-79.27"/>
</g>
<!-- Node5 -->
<g id="node5" class="node">
<title>Node5</title>
<g id="a_node5"><a xlink:href="goto__instrument__parse__options_8cpp.html" target="_top" xlink:title="Main Module.">
<polygon fill="none" stroke="black" points="572,-0.5 572,-52.5 754,-52.5 754,-0.5 572,-0.5"/>
<text text-anchor="start" x="580" y="-40.5" font-family="Helvetica,sans-Serif" font-size="10.00">/home/runner/work/diffblue</text>
<text text-anchor="start" x="580" y="-29.5" font-family="Helvetica,sans-Serif" font-size="10.00">&#45;cbmc/diffblue&#45;cbmc/src</text>
<text text-anchor="start" x="580" y="-18.5" font-family="Helvetica,sans-Serif" font-size="10.00">/goto&#45;instrument/goto_instrument</text>
<text text-anchor="middle" x="663" y="-7.5" font-family="Helvetica,sans-Serif" font-size="10.00">_parse_options.cpp</text>
</a>
</g>
</g>
<!-- Node1&#45;&gt;Node5 -->
<g id="edge4" class="edge">
<title>Node1&#45;&gt;Node5</title>
<path fill="none" stroke="midnightblue" d="M520.39,-85.61C545.76,-75.28 575.63,-63.1 601.46,-52.58"/>
<polygon fill="midnightblue" stroke="midnightblue" points="518.84,-82.46 510.9,-89.48 521.49,-88.95 518.84,-82.46"/>
</g>
<!-- Node6 -->
<g id="node6" class="node">
<title>Node6</title>
<g id="a_node6"><a xlink:href="janalyzer__parse__options_8cpp.html" target="_top" xlink:title="JANALYZER Command Line Option Processing.">
<polygon fill="none" stroke="black" points="772.5,-0.5 772.5,-52.5 921.5,-52.5 921.5,-0.5 772.5,-0.5"/>
<text text-anchor="start" x="780.5" y="-40.5" font-family="Helvetica,sans-Serif" font-size="10.00">/home/runner/work/diffblue</text>
<text text-anchor="start" x="780.5" y="-29.5" font-family="Helvetica,sans-Serif" font-size="10.00">&#45;cbmc/diffblue&#45;cbmc/jbmc</text>
<text text-anchor="start" x="780.5" y="-18.5" font-family="Helvetica,sans-Serif" font-size="10.00">/src/janalyzer/janalyzer</text>
<text text-anchor="middle" x="847" y="-7.5" font-family="Helvetica,sans-Serif" font-size="10.00">_parse_options.cpp</text>
</a>
</g>
</g>
<!-- Node1&#45;&gt;Node6 -->
<g id="edge5" class="edge">
<title>Node1&#45;&gt;Node6</title>
<path fill="none" stroke="midnightblue" d="M550.78,-95.24C610.89,-85.17 692.21,-70.3 763,-53 766.11,-52.24 769.27,-51.43 772.46,-50.59"/>
<polygon fill="midnightblue" stroke="midnightblue" points="549.86,-91.84 540.57,-96.93 551.01,-98.75 549.86,-91.84"/>
</g>
</g>
</svg>
