<?xml version="1.0" encoding="UTF-8" standalone="no"?>
<!DOCTYPE svg PUBLIC "-//W3C//DTD SVG 1.1//EN"
 "http://www.w3.org/Graphics/SVG/1.1/DTD/svg11.dtd">
<!-- Generated by graphviz version 2.43.0 (0)
 -->
<!-- Title: /home/runner/work/diffblue&#45;cbmc/diffblue&#45;cbmc/src/util/interval.h Pages: 1 -->
<svg width="1070pt" height="239pt"
 viewBox="0.00 0.00 1070.00 239.00" xmlns="http://www.w3.org/2000/svg" xmlns:xlink="http://www.w3.org/1999/xlink">
<g id="graph0" class="graph" transform="scale(1 1) rotate(0) translate(4 235)">
<title>/home/runner/work/diffblue&#45;cbmc/diffblue&#45;cbmc/src/util/interval.h</title>
<!-- Node1 -->
<g id="node1" class="node">
<title>Node1</title>
<g id="a_node1"><a xlink:title=" ">
<polygon fill="#bfbfbf" stroke="black" points="453,-189.5 453,-230.5 602,-230.5 602,-189.5 453,-189.5"/>
<text text-anchor="start" x="461" y="-218.5" font-family="Helvetica,sans-Serif" font-size="10.00">/home/runner/work/diffblue</text>
<text text-anchor="start" x="461" y="-207.5" font-family="Helvetica,sans-Serif" font-size="10.00">&#45;cbmc/diffblue&#45;cbmc/src</text>
<text text-anchor="middle" x="527.5" y="-196.5" font-family="Helvetica,sans-Serif" font-size="10.00">/util/interval.h</text>
</a>
</g>
</g>
<!-- Node2 -->
<g id="node2" class="node">
<title>Node2</title>
<g id="a_node2"><a xlink:href="abstract__object__set_8cpp.html" target="_top" xlink:title=" ">
<polygon fill="none" stroke="black" points="89,-100.5 89,-152.5 250,-152.5 250,-100.5 89,-100.5"/>
<text text-anchor="start" x="97" y="-140.5" font-family="Helvetica,sans-Serif" font-size="10.00">/home/runner/work/diffblue</text>
<text text-anchor="start" x="97" y="-129.5" font-family="Helvetica,sans-Serif" font-size="10.00">&#45;cbmc/diffblue&#45;cbmc/src</text>
<text text-anchor="start" x="97" y="-118.5" font-family="Helvetica,sans-Serif" font-size="10.00">/analyses/variable&#45;sensitivity</text>
<text text-anchor="middle" x="169.5" y="-107.5" font-family="Helvetica,sans-Serif" font-size="10.00">/abstract_object_set.cpp</text>
</a>
</g>
</g>
<!-- Node1&#45;&gt;Node2 -->
<g id="edge1" class="edge">
<title>Node1&#45;&gt;Node2</title>
<path fill="none" stroke="midnightblue" d="M442.94,-192.91C390.02,-182.45 320.53,-168 259.5,-153 256.5,-152.26 253.46,-151.5 250.38,-150.71"/>
<polygon fill="midnightblue" stroke="midnightblue" points="442.47,-196.38 452.96,-194.88 443.82,-189.52 442.47,-196.38"/>
</g>
<!-- Node3 -->
<g id="node3" class="node">
<title>Node3</title>
<g id="a_node3"><a xlink:href="constant__abstract__value_8cpp.html" target="_top" xlink:title=" ">
<polygon fill="none" stroke="black" points="268,-100.5 268,-152.5 429,-152.5 429,-100.5 268,-100.5"/>
<text text-anchor="start" x="276" y="-140.5" font-family="Helvetica,sans-Serif" font-size="10.00">/home/runner/work/diffblue</text>
<text text-anchor="start" x="276" y="-129.5" font-family="Helvetica,sans-Serif" font-size="10.00">&#45;cbmc/diffblue&#45;cbmc/src</text>
<text text-anchor="start" x="276" y="-118.5" font-family="Helvetica,sans-Serif" font-size="10.00">/analyses/variable&#45;sensitivity</text>
<text text-anchor="middle" x="348.5" y="-107.5" font-family="Helvetica,sans-Serif" font-size="10.00">/constant_abstract_value.cpp</text>
</a>
</g>
</g>
<!-- Node1&#45;&gt;Node3 -->
<g id="edge2" class="edge">
<title>Node1&#45;&gt;Node3</title>
<path fill="none" stroke="midnightblue" d="M475.23,-185.2C452.72,-174.95 426.39,-162.96 403.58,-152.58"/>
<polygon fill="midnightblue" stroke="midnightblue" points="474.07,-188.52 484.63,-189.48 476.97,-182.15 474.07,-188.52"/>
</g>
<!-- Node4 -->
<g id="node4" class="node">
<title>Node4</title>
<g id="a_node4"><a xlink:href="interval__abstract__value_8h.html" target="_top" xlink:title="An interval to represent a set of possible values.">
<polygon fill="none" stroke="black" points="447,-100.5 447,-152.5 608,-152.5 608,-100.5 447,-100.5"/>
<text text-anchor="start" x="455" y="-140.5" font-family="Helvetica,sans-Serif" font-size="10.00">/home/runner/work/diffblue</text>
<text text-anchor="start" x="455" y="-129.5" font-family="Helvetica,sans-Serif" font-size="10.00">&#45;cbmc/diffblue&#45;cbmc/src</text>
<text text-anchor="start" x="455" y="-118.5" font-family="Helvetica,sans-Serif" font-size="10.00">/analyses/variable&#45;sensitivity</text>
<text text-anchor="middle" x="527.5" y="-107.5" font-family="Helvetica,sans-Serif" font-size="10.00">/interval_abstract_value.h</text>
</a>
</g>
</g>
<!-- Node1&#45;&gt;Node4 -->
<g id="edge3" class="edge">
<title>Node1&#45;&gt;Node4</title>
<path fill="none" stroke="midnightblue" d="M527.5,-179.12C527.5,-170.41 527.5,-160.99 527.5,-152.61"/>
<polygon fill="midnightblue" stroke="midnightblue" points="524,-179.27 527.5,-189.27 531,-179.27 524,-179.27"/>
</g>
<!-- Node10 -->
<g id="node10" class="node">
<title>Node10</title>
<g id="a_node10"><a xlink:href="widened__range_8h.html" target="_top" xlink:title=" ">
<polygon fill="none" stroke="black" points="626,-100.5 626,-152.5 787,-152.5 787,-100.5 626,-100.5"/>
<text text-anchor="start" x="634" y="-140.5" font-family="Helvetica,sans-Serif" font-size="10.00">/home/runner/work/diffblue</text>
<text text-anchor="start" x="634" y="-129.5" font-family="Helvetica,sans-Serif" font-size="10.00">&#45;cbmc/diffblue&#45;cbmc/src</text>
<text text-anchor="start" x="634" y="-118.5" font-family="Helvetica,sans-Serif" font-size="10.00">/analyses/variable&#45;sensitivity</text>
<text text-anchor="middle" x="706.5" y="-107.5" font-family="Helvetica,sans-Serif" font-size="10.00">/widened_range.h</text>
</a>
</g>
</g>
<!-- Node1&#45;&gt;Node10 -->
<g id="edge9" class="edge">
<title>Node1&#45;&gt;Node10</title>
<path fill="none" stroke="midnightblue" d="M579.77,-185.2C602.28,-174.95 628.61,-162.96 651.42,-152.58"/>
<polygon fill="midnightblue" stroke="midnightblue" points="578.03,-182.15 570.37,-189.48 580.93,-188.52 578.03,-182.15"/>
</g>
<!-- Node12 -->
<g id="node12" class="node">
<title>Node12</title>
<g id="a_node12"><a xlink:href="interval_8cpp.html" target="_top" xlink:title=" ">
<polygon fill="none" stroke="black" points="805,-106 805,-147 954,-147 954,-106 805,-106"/>
<text text-anchor="start" x="813" y="-135" font-family="Helvetica,sans-Serif" font-size="10.00">/home/runner/work/diffblue</text>
<text text-anchor="start" x="813" y="-124" font-family="Helvetica,sans-Serif" font-size="10.00">&#45;cbmc/diffblue&#45;cbmc/src</text>
<text text-anchor="middle" x="879.5" y="-113" font-family="Helvetica,sans-Serif" font-size="10.00">/util/interval.cpp</text>
</a>
</g>
</g>
<!-- Node1&#45;&gt;Node12 -->
<g id="edge13" class="edge">
<title>Node1&#45;&gt;Node12</title>
<path fill="none" stroke="midnightblue" d="M612.21,-193.46C665.41,-183.18 735.3,-168.73 796.5,-153 803.51,-151.2 810.81,-149.18 818.04,-147.08"/>
<polygon fill="midnightblue" stroke="midnightblue" points="611.3,-190.07 602.14,-195.39 612.62,-196.94 611.3,-190.07"/>
</g>
<!-- Node5 -->
<g id="node5" class="node">
<title>Node5</title>
<g id="a_node5"><a xlink:href="abstract__environment_8cpp.html" target="_top" xlink:title=" ">
<polygon fill="none" stroke="black" points="0,-6 0,-58 161,-58 161,-6 0,-6"/>
<text text-anchor="start" x="8" y="-46" font-family="Helvetica,sans-Serif" font-size="10.00">/home/runner/work/diffblue</text>
<text text-anchor="start" x="8" y="-35" font-family="Helvetica,sans-Serif" font-size="10.00">&#45;cbmc/diffblue&#45;cbmc/src</text>
<text text-anchor="start" x="8" y="-24" font-family="Helvetica,sans-Serif" font-size="10.00">/analyses/variable&#45;sensitivity</text>
<text text-anchor="middle" x="80.5" y="-13" font-family="Helvetica,sans-Serif" font-size="10.00">/abstract_environment.cpp</text>
</a>
</g>
</g>
<!-- Node4&#45;&gt;Node5 -->
<g id="edge4" class="edge">
<title>Node4&#45;&gt;Node5</title>
<path fill="none" stroke="midnightblue" d="M436.51,-99.71C318.98,-76.24 284.25,-90.95 170.5,-64 163.42,-62.32 156.12,-60.31 148.88,-58.12"/>
<polygon fill="midnightblue" stroke="midnightblue" points="436.12,-103.21 446.62,-101.79 437.52,-96.35 436.12,-103.21"/>
</g>
<!-- Node6 -->
<g id="node6" class="node">
<title>Node6</title>
<g id="a_node6"><a xlink:href="abstract__value__object_8cpp.html" target="_top" xlink:title=" ">
<polygon fill="none" stroke="black" points="179,-6 179,-58 340,-58 340,-6 179,-6"/>
<text text-anchor="start" x="187" y="-46" font-family="Helvetica,sans-Serif" font-size="10.00">/home/runner/work/diffblue</text>
<text text-anchor="start" x="187" y="-35" font-family="Helvetica,sans-Serif" font-size="10.00">&#45;cbmc/diffblue&#45;cbmc/src</text>
<text text-anchor="start" x="187" y="-24" font-family="Helvetica,sans-Serif" font-size="10.00">/analyses/variable&#45;sensitivity</text>
<text text-anchor="middle" x="259.5" y="-13" font-family="Helvetica,sans-Serif" font-size="10.00">/abstract_value_object.cpp</text>
</a>
</g>
</g>
<!-- Node4&#45;&gt;Node6 -->
<g id="edge5" class="edge">
<title>Node4&#45;&gt;Node6</title>
<path fill="none" stroke="midnightblue" d="M445.43,-97.17C409.25,-84.69 367.1,-70.14 332.08,-58.05"/>
<polygon fill="midnightblue" stroke="midnightblue" points="444.38,-100.51 454.98,-100.47 446.66,-93.9 444.38,-100.51"/>
</g>
<!-- Node7 -->
<g id="node7" class="node">
<title>Node7</title>
<g id="a_node7"><a xlink:href="interval__abstract__value_8cpp.html" target="_top" xlink:title=" ">
<polygon fill="none" stroke="black" points="537,-6 537,-58 698,-58 698,-6 537,-6"/>
<text text-anchor="start" x="545" y="-46" font-family="Helvetica,sans-Serif" font-size="10.00">/home/runner/work/diffblue</text>
<text text-anchor="start" x="545" y="-35" font-family="Helvetica,sans-Serif" font-size="10.00">&#45;cbmc/diffblue&#45;cbmc/src</text>
<text text-anchor="start" x="545" y="-24" font-family="Helvetica,sans-Serif" font-size="10.00">/analyses/variable&#45;sensitivity</text>
<text text-anchor="middle" x="617.5" y="-13" font-family="Helvetica,sans-Serif" font-size="10.00">/interval_abstract_value.cpp</text>
</a>
</g>
</g>
<!-- Node4&#45;&gt;Node7 -->
<g id="edge6" class="edge">
<title>Node4&#45;&gt;Node7</title>
<path fill="none" stroke="midnightblue" d="M559.17,-92.95C570.26,-81.56 582.52,-68.95 592.94,-58.25"/>
<polygon fill="midnightblue" stroke="midnightblue" points="556.56,-90.62 552.09,-100.22 561.58,-95.5 556.56,-90.62"/>
</g>
<!-- Node8 -->
<g id="node8" class="node">
<title>Node8</title>
<g id="a_node8"><a xlink:href="value__set__abstract__object_8cpp.html" target="_top" xlink:title="Value Set Abstract Object.">
<polygon fill="none" stroke="black" points="716,-6 716,-58 883,-58 883,-6 716,-6"/>
<text text-anchor="start" x="724" y="-46" font-family="Helvetica,sans-Serif" font-size="10.00">/home/runner/work/diffblue</text>
<text text-anchor="start" x="724" y="-35" font-family="Helvetica,sans-Serif" font-size="10.00">&#45;cbmc/diffblue&#45;cbmc/src</text>
<text text-anchor="start" x="724" y="-24" font-family="Helvetica,sans-Serif" font-size="10.00">/analyses/variable&#45;sensitivity</text>
<text text-anchor="middle" x="799.5" y="-13" font-family="Helvetica,sans-Serif" font-size="10.00">/value_set_abstract_object.cpp</text>
</a>
</g>
</g>
<!-- Node4&#45;&gt;Node8 -->
<g id="edge7" class="edge">
<title>Node4&#45;&gt;Node8</title>
<path fill="none" stroke="midnightblue" d="M610.8,-97.17C647.51,-84.69 690.3,-70.14 725.83,-58.05"/>
<polygon fill="midnightblue" stroke="midnightblue" points="609.45,-93.93 601.11,-100.47 611.7,-100.56 609.45,-93.93"/>
</g>
<!-- Node9 -->
<g id="node9" class="node">
<title>Node9</title>
<g id="a_node9"><a xlink:href="variable__sensitivity__object__factory_8cpp.html" target="_top" xlink:title=" ">
<polygon fill="none" stroke="black" points="358,-0.5 358,-63.5 519,-63.5 519,-0.5 358,-0.5"/>
<text text-anchor="start" x="366" y="-51.5" font-family="Helvetica,sans-Serif" font-size="10.00">/home/runner/work/diffblue</text>
<text text-anchor="start" x="366" y="-40.5" font-family="Helvetica,sans-Serif" font-size="10.00">&#45;cbmc/diffblue&#45;cbmc/src</text>
<text text-anchor="start" x="366" y="-29.5" font-family="Helvetica,sans-Serif" font-size="10.00">/analyses/variable&#45;sensitivity</text>
<text text-anchor="start" x="366" y="-18.5" font-family="Helvetica,sans-Serif" font-size="10.00">/variable_sensitivity_object</text>
<text text-anchor="middle" x="438.5" y="-7.5" font-family="Helvetica,sans-Serif" font-size="10.00">_factory.cpp</text>
</a>
</g>
</g>
<!-- Node4&#45;&gt;Node9 -->
<g id="edge8" class="edge">
<title>Node4&#45;&gt;Node9</title>
<path fill="none" stroke="midnightblue" d="M496.04,-92.8C486.87,-83.27 476.89,-72.9 467.86,-63.51"/>
<polygon fill="midnightblue" stroke="midnightblue" points="493.72,-95.44 503.18,-100.22 498.77,-90.59 493.72,-95.44"/>
</g>
<!-- Node10&#45;&gt;Node7 -->
<g id="edge10" class="edge">
<title>Node10&#45;&gt;Node7</title>
<path fill="none" stroke="midnightblue" d="M675.18,-92.95C664.22,-81.56 652.09,-68.95 641.79,-58.25"/>
<polygon fill="midnightblue" stroke="midnightblue" points="672.72,-95.44 682.18,-100.22 677.77,-90.59 672.72,-95.44"/>
</g>
<!-- Node10&#45;&gt;Node8 -->
<g id="edge11" class="edge">
<title>Node10&#45;&gt;Node8</title>
<path fill="none" stroke="midnightblue" d="M739.23,-92.95C750.68,-81.56 763.36,-68.95 774.12,-58.25"/>
<polygon fill="midnightblue" stroke="midnightblue" points="736.53,-90.69 731.91,-100.22 741.47,-95.65 736.53,-90.69"/>
</g>
<!-- Node11 -->
<g id="node11" class="node">
<title>Node11</title>
<g id="a_node11"><a xlink:href="widened__range_8cpp.html" target="_top" xlink:title=" ">
<polygon fill="none" stroke="black" points="901,-6 901,-58 1062,-58 1062,-6 901,-6"/>
<text text-anchor="start" x="909" y="-46" font-family="Helvetica,sans-Serif" font-size="10.00">/home/runner/work/diffblue</text>
<text text-anchor="start" x="909" y="-35" font-family="Helvetica,sans-Serif" font-size="10.00">&#45;cbmc/diffblue&#45;cbmc/src</text>
<text text-anchor="start" x="909" y="-24" font-family="Helvetica,sans-Serif" font-size="10.00">/analyses/variable&#45;sensitivity</text>
<text text-anchor="middle" x="981.5" y="-13" font-family="Helvetica,sans-Serif" font-size="10.00">/widened_range.cpp</text>
</a>
</g>
</g>
<!-- Node10&#45;&gt;Node11 -->
<g id="edge12" class="edge">
<title>Node10&#45;&gt;Node11</title>
<path fill="none" stroke="midnightblue" d="M792.67,-97.32C824.13,-86.95 859.96,-75.05 892.5,-64 898.08,-62.11 903.85,-60.13 909.64,-58.14"/>
<polygon fill="midnightblue" stroke="midnightblue" points="791.46,-94.04 783.06,-100.49 793.65,-100.68 791.46,-94.04"/>
</g>
</g>
</svg>
