<?xml version="1.0" encoding="UTF-8" standalone="no"?>
<!DOCTYPE svg PUBLIC "-//W3C//DTD SVG 1.1//EN"
 "http://www.w3.org/Graphics/SVG/1.1/DTD/svg11.dtd">
<!-- Generated by graphviz version 2.43.0 (0)
 -->
<!-- Title: /home/runner/work/diffblue&#45;cbmc/diffblue&#45;cbmc/src/analyses/invariant_set.h Pages: 1 -->
<svg width="466pt" height="284pt"
 viewBox="0.00 0.00 466.00 284.00" xmlns="http://www.w3.org/2000/svg" xmlns:xlink="http://www.w3.org/1999/xlink">
<g id="graph0" class="graph" transform="scale(1 1) rotate(0) translate(4 280)">
<title>/home/runner/work/diffblue&#45;cbmc/diffblue&#45;cbmc/src/analyses/invariant_set.h</title>
<!-- Node1 -->
<g id="node1" class="node">
<title>Node1</title>
<g id="a_node1"><a xlink:title="Value Set.">
<polygon fill="#bfbfbf" stroke="black" points="92.5,-234.5 92.5,-275.5 241.5,-275.5 241.5,-234.5 92.5,-234.5"/>
<text text-anchor="start" x="100.5" y="-263.5" font-family="Helvetica,sans-Serif" font-size="10.00">/home/runner/work/diffblue</text>
<text text-anchor="start" x="100.5" y="-252.5" font-family="Helvetica,sans-Serif" font-size="10.00">&#45;cbmc/diffblue&#45;cbmc/src</text>
<text text-anchor="middle" x="167" y="-241.5" font-family="Helvetica,sans-Serif" font-size="10.00">/analyses/invariant_set.h</text>
</a>
</g>
</g>
<!-- Node2 -->
<g id="node2" class="node">
<title>Node2</title>
<g id="a_node2"><a xlink:href="invariant__set_8cpp.html" target="_top" xlink:title="Invariant Set.">
<polygon fill="none" stroke="black" points="0,-156.5 0,-197.5 150,-197.5 150,-156.5 0,-156.5"/>
<text text-anchor="start" x="8" y="-185.5" font-family="Helvetica,sans-Serif" font-size="10.00">/home/runner/work/diffblue</text>
<text text-anchor="start" x="8" y="-174.5" font-family="Helvetica,sans-Serif" font-size="10.00">&#45;cbmc/diffblue&#45;cbmc/src</text>
<text text-anchor="middle" x="75" y="-163.5" font-family="Helvetica,sans-Serif" font-size="10.00">/analyses/invariant_set.cpp</text>
</a>
</g>
</g>
<!-- Node1&#45;&gt;Node2 -->
<g id="edge1" class="edge">
<title>Node1&#45;&gt;Node2</title>
<path fill="none" stroke="midnightblue" d="M135.26,-227.78C123.23,-217.84 109.76,-206.72 98.61,-197.51"/>
<polygon fill="midnightblue" stroke="midnightblue" points="133.37,-230.76 143.31,-234.43 137.83,-225.36 133.37,-230.76"/>
</g>
<!-- Node3 -->
<g id="node3" class="node">
<title>Node3</title>
<g id="a_node3"><a xlink:href="invariant__set__domain_8h.html" target="_top" xlink:title="Value Set.">
<polygon fill="none" stroke="black" points="168.5,-156.5 168.5,-197.5 349.5,-197.5 349.5,-156.5 168.5,-156.5"/>
<text text-anchor="start" x="176.5" y="-185.5" font-family="Helvetica,sans-Serif" font-size="10.00">/home/runner/work/diffblue</text>
<text text-anchor="start" x="176.5" y="-174.5" font-family="Helvetica,sans-Serif" font-size="10.00">&#45;cbmc/diffblue&#45;cbmc/src</text>
<text text-anchor="middle" x="259" y="-163.5" font-family="Helvetica,sans-Serif" font-size="10.00">/analyses/invariant_set_domain.h</text>
</a>
</g>
</g>
<!-- Node1&#45;&gt;Node3 -->
<g id="edge2" class="edge">
<title>Node1&#45;&gt;Node3</title>
<path fill="none" stroke="midnightblue" d="M198.74,-227.78C210.77,-217.84 224.24,-206.72 235.39,-197.51"/>
<polygon fill="midnightblue" stroke="midnightblue" points="196.17,-225.36 190.69,-234.43 200.63,-230.76 196.17,-225.36"/>
</g>
<!-- Node4 -->
<g id="node4" class="node">
<title>Node4</title>
<g id="a_node4"><a xlink:href="invariant__propagation_8h.html" target="_top" xlink:title="Invariant Propagation.">
<polygon fill="none" stroke="black" points="66,-78.5 66,-119.5 248,-119.5 248,-78.5 66,-78.5"/>
<text text-anchor="start" x="74" y="-107.5" font-family="Helvetica,sans-Serif" font-size="10.00">/home/runner/work/diffblue</text>
<text text-anchor="start" x="74" y="-96.5" font-family="Helvetica,sans-Serif" font-size="10.00">&#45;cbmc/diffblue&#45;cbmc/src</text>
<text text-anchor="middle" x="157" y="-85.5" font-family="Helvetica,sans-Serif" font-size="10.00">/analyses/invariant_propagation.h</text>
</a>
</g>
</g>
<!-- Node3&#45;&gt;Node4 -->
<g id="edge3" class="edge">
<title>Node3&#45;&gt;Node4</title>
<path fill="none" stroke="midnightblue" d="M224.58,-150.35C211.05,-140.27 195.78,-128.89 183.18,-119.51"/>
<polygon fill="midnightblue" stroke="midnightblue" points="222.62,-153.26 232.73,-156.43 226.8,-147.65 222.62,-153.26"/>
</g>
<!-- Node6 -->
<g id="node6" class="node">
<title>Node6</title>
<g id="a_node6"><a xlink:href="invariant__set__domain_8cpp.html" target="_top" xlink:title="Invariant Set Domain.">
<polygon fill="none" stroke="black" points="266,-78.5 266,-119.5 458,-119.5 458,-78.5 266,-78.5"/>
<text text-anchor="start" x="274" y="-107.5" font-family="Helvetica,sans-Serif" font-size="10.00">/home/runner/work/diffblue</text>
<text text-anchor="start" x="274" y="-96.5" font-family="Helvetica,sans-Serif" font-size="10.00">&#45;cbmc/diffblue&#45;cbmc/src</text>
<text text-anchor="middle" x="362" y="-85.5" font-family="Helvetica,sans-Serif" font-size="10.00">/analyses/invariant_set_domain.cpp</text>
</a>
</g>
</g>
<!-- Node3&#45;&gt;Node6 -->
<g id="edge5" class="edge">
<title>Node3&#45;&gt;Node6</title>
<path fill="none" stroke="midnightblue" d="M293.76,-150.35C307.42,-140.27 322.84,-128.89 335.56,-119.51"/>
<polygon fill="midnightblue" stroke="midnightblue" points="291.49,-147.67 285.53,-156.43 295.65,-153.31 291.49,-147.67"/>
</g>
<!-- Node5 -->
<g id="node5" class="node">
<title>Node5</title>
<g id="a_node5"><a xlink:href="invariant__propagation_8cpp.html" target="_top" xlink:title="Invariant Propagation.">
<polygon fill="none" stroke="black" points="60,-0.5 60,-41.5 254,-41.5 254,-0.5 60,-0.5"/>
<text text-anchor="start" x="68" y="-29.5" font-family="Helvetica,sans-Serif" font-size="10.00">/home/runner/work/diffblue</text>
<text text-anchor="start" x="68" y="-18.5" font-family="Helvetica,sans-Serif" font-size="10.00">&#45;cbmc/diffblue&#45;cbmc/src</text>
<text text-anchor="middle" x="157" y="-7.5" font-family="Helvetica,sans-Serif" font-size="10.00">/analyses/invariant_propagation.cpp</text>
</a>
</g>
</g>
<!-- Node4&#45;&gt;Node5 -->
<g id="edge4" class="edge">
<title>Node4&#45;&gt;Node5</title>
<path fill="none" stroke="midnightblue" d="M157,-68.3C157,-59.3 157,-49.65 157,-41.51"/>
<polygon fill="midnightblue" stroke="midnightblue" points="153.5,-68.43 157,-78.43 160.5,-68.43 153.5,-68.43"/>
</g>
</g>
</svg>
