<?xml version="1.0" encoding="UTF-8" standalone="no"?>
<!DOCTYPE svg PUBLIC "-//W3C//DTD SVG 1.1//EN"
 "http://www.w3.org/Graphics/SVG/1.1/DTD/svg11.dtd">
<!-- Generated by graphviz version 2.43.0 (0)
 -->
<!-- Title: /home/runner/work/diffblue&#45;cbmc/diffblue&#45;cbmc/src/analyses/invariant_set_domain.h Pages: 1 -->
<svg width="406pt" height="206pt"
 viewBox="0.00 0.00 406.00 206.00" xmlns="http://www.w3.org/2000/svg" xmlns:xlink="http://www.w3.org/1999/xlink">
<g id="graph0" class="graph" transform="scale(1 1) rotate(0) translate(4 202)">
<title>/home/runner/work/diffblue&#45;cbmc/diffblue&#45;cbmc/src/analyses/invariant_set_domain.h</title>
<!-- Node1 -->
<g id="node1" class="node">
<title>Node1</title>
<g id="a_node1"><a xlink:title="Value Set.">
<polygon fill="#bfbfbf" stroke="black" points="108.5,-156.5 108.5,-197.5 289.5,-197.5 289.5,-156.5 108.5,-156.5"/>
<text text-anchor="start" x="116.5" y="-185.5" font-family="Helvetica,sans-Serif" font-size="10.00">/home/runner/work/diffblue</text>
<text text-anchor="start" x="116.5" y="-174.5" font-family="Helvetica,sans-Serif" font-size="10.00">&#45;cbmc/diffblue&#45;cbmc/src</text>
<text text-anchor="middle" x="199" y="-163.5" font-family="Helvetica,sans-Serif" font-size="10.00">/analyses/invariant_set_domain.h</text>
</a>
</g>
</g>
<!-- Node2 -->
<g id="node2" class="node">
<title>Node2</title>
<g id="a_node2"><a xlink:href="invariant__propagation_8h.html" target="_top" xlink:title="Invariant Propagation.">
<polygon fill="none" stroke="black" points="6,-78.5 6,-119.5 188,-119.5 188,-78.5 6,-78.5"/>
<text text-anchor="start" x="14" y="-107.5" font-family="Helvetica,sans-Serif" font-size="10.00">/home/runner/work/diffblue</text>
<text text-anchor="start" x="14" y="-96.5" font-family="Helvetica,sans-Serif" font-size="10.00">&#45;cbmc/diffblue&#45;cbmc/src</text>
<text text-anchor="middle" x="97" y="-85.5" font-family="Helvetica,sans-Serif" font-size="10.00">/analyses/invariant_propagation.h</text>
</a>
</g>
</g>
<!-- Node1&#45;&gt;Node2 -->
<g id="edge1" class="edge">
<title>Node1&#45;&gt;Node2</title>
<path fill="none" stroke="midnightblue" d="M164.58,-150.35C151.05,-140.27 135.78,-128.89 123.18,-119.51"/>
<polygon fill="midnightblue" stroke="midnightblue" points="162.62,-153.26 172.73,-156.43 166.8,-147.65 162.62,-153.26"/>
</g>
<!-- Node4 -->
<g id="node4" class="node">
<title>Node4</title>
<g id="a_node4"><a xlink:href="invariant__set__domain_8cpp.html" target="_top" xlink:title="Invariant Set Domain.">
<polygon fill="none" stroke="black" points="206,-78.5 206,-119.5 398,-119.5 398,-78.5 206,-78.5"/>
<text text-anchor="start" x="214" y="-107.5" font-family="Helvetica,sans-Serif" font-size="10.00">/home/runner/work/diffblue</text>
<text text-anchor="start" x="214" y="-96.5" font-family="Helvetica,sans-Serif" font-size="10.00">&#45;cbmc/diffblue&#45;cbmc/src</text>
<text text-anchor="middle" x="302" y="-85.5" font-family="Helvetica,sans-Serif" font-size="10.00">/analyses/invariant_set_domain.cpp</text>
</a>
</g>
</g>
<!-- Node1&#45;&gt;Node4 -->
<g id="edge3" class="edge">
<title>Node1&#45;&gt;Node4</title>
<path fill="none" stroke="midnightblue" d="M233.76,-150.35C247.42,-140.27 262.84,-128.89 275.56,-119.51"/>
<polygon fill="midnightblue" stroke="midnightblue" points="231.49,-147.67 225.53,-156.43 235.65,-153.31 231.49,-147.67"/>
</g>
<!-- Node3 -->
<g id="node3" class="node">
<title>Node3</title>
<g id="a_node3"><a xlink:href="invariant__propagation_8cpp.html" target="_top" xlink:title="Invariant Propagation.">
<polygon fill="none" stroke="black" points="0,-0.5 0,-41.5 194,-41.5 194,-0.5 0,-0.5"/>
<text text-anchor="start" x="8" y="-29.5" font-family="Helvetica,sans-Serif" font-size="10.00">/home/runner/work/diffblue</text>
<text text-anchor="start" x="8" y="-18.5" font-family="Helvetica,sans-Serif" font-size="10.00">&#45;cbmc/diffblue&#45;cbmc/src</text>
<text text-anchor="middle" x="97" y="-7.5" font-family="Helvetica,sans-Serif" font-size="10.00">/analyses/invariant_propagation.cpp</text>
</a>
</g>
</g>
<!-- Node2&#45;&gt;Node3 -->
<g id="edge2" class="edge">
<title>Node2&#45;&gt;Node3</title>
<path fill="none" stroke="midnightblue" d="M97,-68.3C97,-59.3 97,-49.65 97,-41.51"/>
<polygon fill="midnightblue" stroke="midnightblue" points="93.5,-68.43 97,-78.43 100.5,-68.43 93.5,-68.43"/>
</g>
</g>
</svg>
