<?xml version="1.0" encoding="UTF-8" standalone="no"?>
<!DOCTYPE svg PUBLIC "-//W3C//DTD SVG 1.1//EN"
 "http://www.w3.org/Graphics/SVG/1.1/DTD/svg11.dtd">
<!-- Generated by graphviz version 2.43.0 (0)
 -->
<!-- Title: /home/runner/work/diffblue&#45;cbmc/diffblue&#45;cbmc/src/util/irep_hash.h Pages: 1 -->
<svg width="869pt" height="128pt"
 viewBox="0.00 0.00 868.50 128.00" xmlns="http://www.w3.org/2000/svg" xmlns:xlink="http://www.w3.org/1999/xlink">
<g id="graph0" class="graph" transform="scale(1 1) rotate(0) translate(4 124)">
<title>/home/runner/work/diffblue&#45;cbmc/diffblue&#45;cbmc/src/util/irep_hash.h</title>
<!-- Node1 -->
<g id="node1" class="node">
<title>Node1</title>
<g id="a_node1"><a xlink:title="irep hash functions">
<polygon fill="#bfbfbf" stroke="black" points="369.5,-78.5 369.5,-119.5 518.5,-119.5 518.5,-78.5 369.5,-78.5"/>
<text text-anchor="start" x="377.5" y="-107.5" font-family="Helvetica,sans-Serif" font-size="10.00">/home/runner/work/diffblue</text>
<text text-anchor="start" x="377.5" y="-96.5" font-family="Helvetica,sans-Serif" font-size="10.00">&#45;cbmc/diffblue&#45;cbmc/src</text>
<text text-anchor="middle" x="444" y="-85.5" font-family="Helvetica,sans-Serif" font-size="10.00">/util/irep_hash.h</text>
</a>
</g>
</g>
<!-- Node2 -->
<g id="node2" class="node">
<title>Node2</title>
<g id="a_node2"><a xlink:href="fatal__assertions_8cpp.html" target="_top" xlink:title="Fatal Assertions.">
<polygon fill="none" stroke="black" points="0,-0.5 0,-41.5 184,-41.5 184,-0.5 0,-0.5"/>
<text text-anchor="start" x="8" y="-29.5" font-family="Helvetica,sans-Serif" font-size="10.00">/home/runner/work/diffblue</text>
<text text-anchor="start" x="8" y="-18.5" font-family="Helvetica,sans-Serif" font-size="10.00">&#45;cbmc/diffblue&#45;cbmc/src</text>
<text text-anchor="middle" x="92" y="-7.5" font-family="Helvetica,sans-Serif" font-size="10.00">/goto&#45;checker/fatal_assertions.cpp</text>
</a>
</g>
</g>
<!-- Node1&#45;&gt;Node2 -->
<g id="edge1" class="edge">
<title>Node1&#45;&gt;Node2</title>
<path fill="none" stroke="midnightblue" d="M359.56,-79.77C306.11,-68.23 237.04,-53.32 182.47,-41.53"/>
<polygon fill="midnightblue" stroke="midnightblue" points="358.84,-83.19 369.35,-81.88 360.31,-76.35 358.84,-83.19"/>
</g>
<!-- Node3 -->
<g id="node3" class="node">
<title>Node3</title>
<g id="a_node3"><a xlink:href="irep_8cpp.html" target="_top" xlink:title="Internal Representation.">
<polygon fill="none" stroke="black" points="202.5,-0.5 202.5,-41.5 351.5,-41.5 351.5,-0.5 202.5,-0.5"/>
<text text-anchor="start" x="210.5" y="-29.5" font-family="Helvetica,sans-Serif" font-size="10.00">/home/runner/work/diffblue</text>
<text text-anchor="start" x="210.5" y="-18.5" font-family="Helvetica,sans-Serif" font-size="10.00">&#45;cbmc/diffblue&#45;cbmc/src</text>
<text text-anchor="middle" x="277" y="-7.5" font-family="Helvetica,sans-Serif" font-size="10.00">/util/irep.cpp</text>
</a>
</g>
</g>
<!-- Node1&#45;&gt;Node3 -->
<g id="edge2" class="edge">
<title>Node1&#45;&gt;Node3</title>
<path fill="none" stroke="midnightblue" d="M391.68,-74.19C368.58,-63.67 341.75,-51.47 319.86,-41.51"/>
<polygon fill="midnightblue" stroke="midnightblue" points="390.44,-77.47 400.99,-78.43 393.34,-71.1 390.44,-77.47"/>
</g>
<!-- Node4 -->
<g id="node4" class="node">
<title>Node4</title>
<g id="a_node4"><a xlink:href="irep__hash_8cpp.html" target="_top" xlink:title="irep hash functions">
<polygon fill="none" stroke="black" points="369.5,-0.5 369.5,-41.5 518.5,-41.5 518.5,-0.5 369.5,-0.5"/>
<text text-anchor="start" x="377.5" y="-29.5" font-family="Helvetica,sans-Serif" font-size="10.00">/home/runner/work/diffblue</text>
<text text-anchor="start" x="377.5" y="-18.5" font-family="Helvetica,sans-Serif" font-size="10.00">&#45;cbmc/diffblue&#45;cbmc/src</text>
<text text-anchor="middle" x="444" y="-7.5" font-family="Helvetica,sans-Serif" font-size="10.00">/util/irep_hash.cpp</text>
</a>
</g>
</g>
<!-- Node1&#45;&gt;Node4 -->
<g id="edge3" class="edge">
<title>Node1&#45;&gt;Node4</title>
<path fill="none" stroke="midnightblue" d="M444,-68.3C444,-59.3 444,-49.65 444,-41.51"/>
<polygon fill="midnightblue" stroke="midnightblue" points="440.5,-68.43 444,-78.43 447.5,-68.43 440.5,-68.43"/>
</g>
<!-- Node5 -->
<g id="node5" class="node">
<title>Node5</title>
<g id="a_node5"><a xlink:href="irep__hash__container_8cpp.html" target="_top" xlink:title="Hashing IREPs.">
<polygon fill="none" stroke="black" points="537,-0.5 537,-41.5 693,-41.5 693,-0.5 537,-0.5"/>
<text text-anchor="start" x="545" y="-29.5" font-family="Helvetica,sans-Serif" font-size="10.00">/home/runner/work/diffblue</text>
<text text-anchor="start" x="545" y="-18.5" font-family="Helvetica,sans-Serif" font-size="10.00">&#45;cbmc/diffblue&#45;cbmc/src</text>
<text text-anchor="middle" x="615" y="-7.5" font-family="Helvetica,sans-Serif" font-size="10.00">/util/irep_hash_container.cpp</text>
</a>
</g>
</g>
<!-- Node1&#45;&gt;Node5 -->
<g id="edge4" class="edge">
<title>Node1&#45;&gt;Node5</title>
<path fill="none" stroke="midnightblue" d="M497.26,-74.33C520.99,-63.78 548.6,-51.51 571.11,-41.51"/>
<polygon fill="midnightblue" stroke="midnightblue" points="495.75,-71.17 488.04,-78.43 498.6,-77.57 495.75,-71.17"/>
</g>
<!-- Node6 -->
<g id="node6" class="node">
<title>Node6</title>
<g id="a_node6"><a xlink:href="merge__irep_8cpp.html" target="_top" xlink:title=" ">
<polygon fill="none" stroke="black" points="711.5,-0.5 711.5,-41.5 860.5,-41.5 860.5,-0.5 711.5,-0.5"/>
<text text-anchor="start" x="719.5" y="-29.5" font-family="Helvetica,sans-Serif" font-size="10.00">/home/runner/work/diffblue</text>
<text text-anchor="start" x="719.5" y="-18.5" font-family="Helvetica,sans-Serif" font-size="10.00">&#45;cbmc/diffblue&#45;cbmc/src</text>
<text text-anchor="middle" x="786" y="-7.5" font-family="Helvetica,sans-Serif" font-size="10.00">/util/merge_irep.cpp</text>
</a>
</g>
</g>
<!-- Node1&#45;&gt;Node6 -->
<g id="edge5" class="edge">
<title>Node1&#45;&gt;Node6</title>
<path fill="none" stroke="midnightblue" d="M528.48,-80.11C578.91,-69.32 644.18,-55.16 702,-42 705.07,-41.3 708.2,-40.58 711.36,-39.85"/>
<polygon fill="midnightblue" stroke="midnightblue" points="527.65,-76.71 518.6,-82.22 529.11,-83.55 527.65,-76.71"/>
</g>
</g>
</svg>
