<?xml version="1.0" encoding="UTF-8" standalone="no"?>
<!DOCTYPE svg PUBLIC "-//W3C//DTD SVG 1.1//EN"
 "http://www.w3.org/Graphics/SVG/1.1/DTD/svg11.dtd">
<!-- Generated by graphviz version 2.43.0 (0)
 -->
<!-- Title: /home/runner/work/diffblue&#45;cbmc/diffblue&#45;cbmc/src/util/irep_hash_container.h Pages: 1 -->
<svg width="507pt" height="217pt"
 viewBox="0.00 0.00 506.50 217.00" xmlns="http://www.w3.org/2000/svg" xmlns:xlink="http://www.w3.org/1999/xlink">
<g id="graph0" class="graph" transform="scale(1 1) rotate(0) translate(4 213)">
<title>/home/runner/work/diffblue&#45;cbmc/diffblue&#45;cbmc/src/util/irep_hash_container.h</title>
<!-- Node1 -->
<g id="node1" class="node">
<title>Node1</title>
<g id="a_node1"><a xlink:title="IREP Hash Container.">
<polygon fill="#bfbfbf" stroke="black" points="96.5,-167.5 96.5,-208.5 245.5,-208.5 245.5,-167.5 96.5,-167.5"/>
<text text-anchor="start" x="104.5" y="-196.5" font-family="Helvetica,sans-Serif" font-size="10.00">/home/runner/work/diffblue</text>
<text text-anchor="start" x="104.5" y="-185.5" font-family="Helvetica,sans-Serif" font-size="10.00">&#45;cbmc/diffblue&#45;cbmc/src</text>
<text text-anchor="middle" x="171" y="-174.5" font-family="Helvetica,sans-Serif" font-size="10.00">/util/irep_hash_container.h</text>
</a>
</g>
</g>
<!-- Node2 -->
<g id="node2" class="node">
<title>Node2</title>
<g id="a_node2"><a xlink:href="irep__hash__container_8cpp.html" target="_top" xlink:title="Hashing IREPs.">
<polygon fill="none" stroke="black" points="8,-89.5 8,-130.5 164,-130.5 164,-89.5 8,-89.5"/>
<text text-anchor="start" x="16" y="-118.5" font-family="Helvetica,sans-Serif" font-size="10.00">/home/runner/work/diffblue</text>
<text text-anchor="start" x="16" y="-107.5" font-family="Helvetica,sans-Serif" font-size="10.00">&#45;cbmc/diffblue&#45;cbmc/src</text>
<text text-anchor="middle" x="86" y="-96.5" font-family="Helvetica,sans-Serif" font-size="10.00">/util/irep_hash_container.cpp</text>
</a>
</g>
</g>
<!-- Node1&#45;&gt;Node2 -->
<g id="edge1" class="edge">
<title>Node1&#45;&gt;Node2</title>
<path fill="none" stroke="midnightblue" d="M141.35,-160.49C130.32,-150.63 118.02,-139.63 107.82,-130.51"/>
<polygon fill="midnightblue" stroke="midnightblue" points="139.32,-163.37 149.11,-167.43 143.99,-158.15 139.32,-163.37"/>
</g>
<!-- Node3 -->
<g id="node3" class="node">
<title>Node3</title>
<g id="a_node3"><a xlink:href="irep__serialization_8h.html" target="_top" xlink:title="binary irep conversions with hashing">
<polygon fill="none" stroke="black" points="182.5,-89.5 182.5,-130.5 331.5,-130.5 331.5,-89.5 182.5,-89.5"/>
<text text-anchor="start" x="190.5" y="-118.5" font-family="Helvetica,sans-Serif" font-size="10.00">/home/runner/work/diffblue</text>
<text text-anchor="start" x="190.5" y="-107.5" font-family="Helvetica,sans-Serif" font-size="10.00">&#45;cbmc/diffblue&#45;cbmc/src</text>
<text text-anchor="middle" x="257" y="-96.5" font-family="Helvetica,sans-Serif" font-size="10.00">/util/irep_serialization.h</text>
</a>
</g>
</g>
<!-- Node1&#45;&gt;Node3 -->
<g id="edge2" class="edge">
<title>Node1&#45;&gt;Node3</title>
<path fill="none" stroke="midnightblue" d="M200.67,-160.78C211.91,-150.84 224.51,-139.72 234.93,-130.51"/>
<polygon fill="midnightblue" stroke="midnightblue" points="198.32,-158.18 193.15,-167.43 202.96,-163.43 198.32,-158.18"/>
</g>
<!-- Node4 -->
<g id="node4" class="node">
<title>Node4</title>
<g id="a_node4"><a xlink:href="read__bin__goto__object_8cpp.html" target="_top" xlink:title="Read goto object files.">
<polygon fill="none" stroke="black" points="0,-0.5 0,-52.5 164,-52.5 164,-0.5 0,-0.5"/>
<text text-anchor="start" x="8" y="-40.5" font-family="Helvetica,sans-Serif" font-size="10.00">/home/runner/work/diffblue</text>
<text text-anchor="start" x="8" y="-29.5" font-family="Helvetica,sans-Serif" font-size="10.00">&#45;cbmc/diffblue&#45;cbmc/src</text>
<text text-anchor="start" x="8" y="-18.5" font-family="Helvetica,sans-Serif" font-size="10.00">/goto&#45;programs/read_bin_goto</text>
<text text-anchor="middle" x="82" y="-7.5" font-family="Helvetica,sans-Serif" font-size="10.00">_object.cpp</text>
</a>
</g>
</g>
<!-- Node3&#45;&gt;Node4 -->
<g id="edge3" class="edge">
<title>Node3&#45;&gt;Node4</title>
<path fill="none" stroke="midnightblue" d="M205.9,-85.2C183.89,-74.95 158.15,-62.96 135.85,-52.58"/>
<polygon fill="midnightblue" stroke="midnightblue" points="204.54,-88.43 215.08,-89.48 207.5,-82.08 204.54,-88.43"/>
</g>
<!-- Node5 -->
<g id="node5" class="node">
<title>Node5</title>
<g id="a_node5"><a xlink:href="write__goto__binary_8cpp.html" target="_top" xlink:title="Write GOTO binaries.">
<polygon fill="none" stroke="black" points="182.5,-0.5 182.5,-52.5 331.5,-52.5 331.5,-0.5 182.5,-0.5"/>
<text text-anchor="start" x="190.5" y="-40.5" font-family="Helvetica,sans-Serif" font-size="10.00">/home/runner/work/diffblue</text>
<text text-anchor="start" x="190.5" y="-29.5" font-family="Helvetica,sans-Serif" font-size="10.00">&#45;cbmc/diffblue&#45;cbmc/src</text>
<text text-anchor="start" x="190.5" y="-18.5" font-family="Helvetica,sans-Serif" font-size="10.00">/goto&#45;programs/write_goto</text>
<text text-anchor="middle" x="257" y="-7.5" font-family="Helvetica,sans-Serif" font-size="10.00">_binary.cpp</text>
</a>
</g>
</g>
<!-- Node3&#45;&gt;Node5 -->
<g id="edge4" class="edge">
<title>Node3&#45;&gt;Node5</title>
<path fill="none" stroke="midnightblue" d="M257,-79.12C257,-70.41 257,-60.99 257,-52.61"/>
<polygon fill="midnightblue" stroke="midnightblue" points="253.5,-79.27 257,-89.27 260.5,-79.27 253.5,-79.27"/>
</g>
<!-- Node6 -->
<g id="node6" class="node">
<title>Node6</title>
<g id="a_node6"><a xlink:href="irep__serialization_8cpp.html" target="_top" xlink:title="binary irep conversions with hashing">
<polygon fill="none" stroke="black" points="349.5,-6 349.5,-47 498.5,-47 498.5,-6 349.5,-6"/>
<text text-anchor="start" x="357.5" y="-35" font-family="Helvetica,sans-Serif" font-size="10.00">/home/runner/work/diffblue</text>
<text text-anchor="start" x="357.5" y="-24" font-family="Helvetica,sans-Serif" font-size="10.00">&#45;cbmc/diffblue&#45;cbmc/src</text>
<text text-anchor="middle" x="424" y="-13" font-family="Helvetica,sans-Serif" font-size="10.00">/util/irep_serialization.cpp</text>
</a>
</g>
</g>
<!-- Node3&#45;&gt;Node6 -->
<g id="edge5" class="edge">
<title>Node3&#45;&gt;Node6</title>
<path fill="none" stroke="midnightblue" d="M306.24,-84.97C331.02,-72.87 360.68,-58.4 384.04,-47"/>
<polygon fill="midnightblue" stroke="midnightblue" points="304.45,-81.95 297,-89.48 307.52,-88.24 304.45,-81.95"/>
</g>
</g>
</svg>
