<?xml version="1.0" encoding="UTF-8" standalone="no"?>
<!DOCTYPE svg PUBLIC "-//W3C//DTD SVG 1.1//EN"
 "http://www.w3.org/Graphics/SVG/1.1/DTD/svg11.dtd">
<!-- Generated by graphviz version 2.43.0 (0)
 -->
<!-- Title: /home/runner/work/diffblue&#45;cbmc/diffblue&#45;cbmc/jbmc/src/java_bytecode/jar_file.h Pages: 1 -->
<svg width="2207pt" height="662pt"
 viewBox="0.00 0.00 2207.00 662.00" xmlns="http://www.w3.org/2000/svg" xmlns:xlink="http://www.w3.org/1999/xlink">
<g id="graph0" class="graph" transform="scale(1 1) rotate(0) translate(4 658)">
<title>/home/runner/work/diffblue&#45;cbmc/diffblue&#45;cbmc/jbmc/src/java_bytecode/jar_file.h</title>
<!-- Node1 -->
<g id="node1" class="node">
<title>Node1</title>
<g id="a_node1"><a xlink:title=" ">
<polygon fill="#bfbfbf" stroke="black" points="1069.5,-612.5 1069.5,-653.5 1222.5,-653.5 1222.5,-612.5 1069.5,-612.5"/>
<text text-anchor="start" x="1077.5" y="-641.5" font-family="Helvetica,sans-Serif" font-size="10.00">/home/runner/work/diffblue</text>
<text text-anchor="start" x="1077.5" y="-630.5" font-family="Helvetica,sans-Serif" font-size="10.00">&#45;cbmc/diffblue&#45;cbmc/jbmc</text>
<text text-anchor="middle" x="1146" y="-619.5" font-family="Helvetica,sans-Serif" font-size="10.00">/src/java_bytecode/jar_file.h</text>
</a>
</g>
</g>
<!-- Node2 -->
<g id="node2" class="node">
<title>Node2</title>
<g id="a_node2"><a xlink:href="jar__file_8cpp.html" target="_top" xlink:title=" ">
<polygon fill="none" stroke="black" points="901,-534.5 901,-575.5 1065,-575.5 1065,-534.5 901,-534.5"/>
<text text-anchor="start" x="909" y="-563.5" font-family="Helvetica,sans-Serif" font-size="10.00">/home/runner/work/diffblue</text>
<text text-anchor="start" x="909" y="-552.5" font-family="Helvetica,sans-Serif" font-size="10.00">&#45;cbmc/diffblue&#45;cbmc/jbmc</text>
<text text-anchor="middle" x="983" y="-541.5" font-family="Helvetica,sans-Serif" font-size="10.00">/src/java_bytecode/jar_file.cpp</text>
</a>
</g>
</g>
<!-- Node1&#45;&gt;Node2 -->
<g id="edge1" class="edge">
<title>Node1&#45;&gt;Node2</title>
<path fill="none" stroke="midnightblue" d="M1094.93,-608.19C1072.38,-597.67 1046.2,-585.47 1024.83,-575.51"/>
<polygon fill="midnightblue" stroke="midnightblue" points="1093.48,-611.37 1104.02,-612.43 1096.44,-605.03 1093.48,-611.37"/>
</g>
<!-- Node3 -->
<g id="node3" class="node">
<title>Node3</title>
<g id="a_node3"><a xlink:href="jar__pool_8cpp.html" target="_top" xlink:title=" ">
<polygon fill="none" stroke="black" points="969,-451 969,-492 1139,-492 1139,-451 969,-451"/>
<text text-anchor="start" x="977" y="-480" font-family="Helvetica,sans-Serif" font-size="10.00">/home/runner/work/diffblue</text>
<text text-anchor="start" x="977" y="-469" font-family="Helvetica,sans-Serif" font-size="10.00">&#45;cbmc/diffblue&#45;cbmc/jbmc</text>
<text text-anchor="middle" x="1054" y="-458" font-family="Helvetica,sans-Serif" font-size="10.00">/src/java_bytecode/jar_pool.cpp</text>
</a>
</g>
</g>
<!-- Node1&#45;&gt;Node3 -->
<g id="edge2" class="edge">
<title>Node1&#45;&gt;Node3</title>
<path fill="none" stroke="midnightblue" d="M1128.07,-603.98C1122.49,-595.1 1116.4,-585.19 1111,-576 1094.07,-547.17 1075.59,-513.09 1064.4,-492.14"/>
<polygon fill="midnightblue" stroke="midnightblue" points="1125.12,-605.88 1133.42,-612.47 1131.04,-602.14 1125.12,-605.88"/>
</g>
<!-- Node4 -->
<g id="node4" class="node">
<title>Node4</title>
<g id="a_node4"><a xlink:href="jar__pool_8h.html" target="_top" xlink:title=" ">
<polygon fill="none" stroke="black" points="1120.5,-534.5 1120.5,-575.5 1279.5,-575.5 1279.5,-534.5 1120.5,-534.5"/>
<text text-anchor="start" x="1128.5" y="-563.5" font-family="Helvetica,sans-Serif" font-size="10.00">/home/runner/work/diffblue</text>
<text text-anchor="start" x="1128.5" y="-552.5" font-family="Helvetica,sans-Serif" font-size="10.00">&#45;cbmc/diffblue&#45;cbmc/jbmc</text>
<text text-anchor="middle" x="1200" y="-541.5" font-family="Helvetica,sans-Serif" font-size="10.00">/src/java_bytecode/jar_pool.h</text>
</a>
</g>
</g>
<!-- Node1&#45;&gt;Node4 -->
<g id="edge3" class="edge">
<title>Node1&#45;&gt;Node4</title>
<path fill="none" stroke="midnightblue" d="M1165.86,-604.05C1172.6,-594.57 1179.97,-584.18 1186.14,-575.51"/>
<polygon fill="midnightblue" stroke="midnightblue" points="1162.85,-602.25 1159.91,-612.43 1168.55,-606.3 1162.85,-602.25"/>
</g>
<!-- Node29 -->
<g id="node28" class="node">
<title>Node29</title>
<g id="a_node28"><a xlink:href="java__class__loader__base_8cpp.html" target="_top" xlink:title=" ">
<polygon fill="none" stroke="black" points="1266,-356.5 1266,-408.5 1428,-408.5 1428,-356.5 1266,-356.5"/>
<text text-anchor="start" x="1274" y="-396.5" font-family="Helvetica,sans-Serif" font-size="10.00">/home/runner/work/diffblue</text>
<text text-anchor="start" x="1274" y="-385.5" font-family="Helvetica,sans-Serif" font-size="10.00">&#45;cbmc/diffblue&#45;cbmc/jbmc</text>
<text text-anchor="start" x="1274" y="-374.5" font-family="Helvetica,sans-Serif" font-size="10.00">/src/java_bytecode/java_class</text>
<text text-anchor="middle" x="1347" y="-363.5" font-family="Helvetica,sans-Serif" font-size="10.00">_loader_base.cpp</text>
</a>
</g>
</g>
<!-- Node1&#45;&gt;Node29 -->
<g id="edge37" class="edge">
<title>Node1&#45;&gt;Node29</title>
<path fill="none" stroke="midnightblue" d="M1232.26,-609.39C1252.18,-601.24 1272.15,-590.36 1288,-576 1336.3,-532.22 1345.54,-450.06 1347,-408.68"/>
<polygon fill="midnightblue" stroke="midnightblue" points="1230.87,-606.18 1222.82,-613.07 1233.41,-612.7 1230.87,-606.18"/>
</g>
<!-- Node4&#45;&gt;Node3 -->
<g id="edge4" class="edge">
<title>Node4&#45;&gt;Node3</title>
<path fill="none" stroke="midnightblue" d="M1156.09,-529.49C1134.6,-517.49 1109.08,-503.25 1088.94,-492"/>
<polygon fill="midnightblue" stroke="midnightblue" points="1154.59,-532.66 1165.03,-534.48 1158,-526.55 1154.59,-532.66"/>
</g>
<!-- Node5 -->
<g id="node5" class="node">
<title>Node5</title>
<g id="a_node5"><a xlink:href="java__class__loader__base_8h.html" target="_top" xlink:title=" ">
<polygon fill="none" stroke="black" points="1157,-445.5 1157,-497.5 1319,-497.5 1319,-445.5 1157,-445.5"/>
<text text-anchor="start" x="1165" y="-485.5" font-family="Helvetica,sans-Serif" font-size="10.00">/home/runner/work/diffblue</text>
<text text-anchor="start" x="1165" y="-474.5" font-family="Helvetica,sans-Serif" font-size="10.00">&#45;cbmc/diffblue&#45;cbmc/jbmc</text>
<text text-anchor="start" x="1165" y="-463.5" font-family="Helvetica,sans-Serif" font-size="10.00">/src/java_bytecode/java_class</text>
<text text-anchor="middle" x="1238" y="-452.5" font-family="Helvetica,sans-Serif" font-size="10.00">_loader_base.h</text>
</a>
</g>
</g>
<!-- Node4&#45;&gt;Node5 -->
<g id="edge5" class="edge">
<title>Node4&#45;&gt;Node5</title>
<path fill="none" stroke="midnightblue" d="M1213.53,-524.98C1217.7,-516.04 1222.26,-506.27 1226.29,-497.61"/>
<polygon fill="midnightblue" stroke="midnightblue" points="1210.25,-523.73 1209.2,-534.27 1216.6,-526.69 1210.25,-523.73"/>
</g>
<!-- Node6 -->
<g id="node6" class="node">
<title>Node6</title>
<g id="a_node6"><a xlink:href="java__class__loader_8h.html" target="_top" xlink:title=" ">
<polygon fill="none" stroke="black" points="1086,-356.5 1086,-408.5 1248,-408.5 1248,-356.5 1086,-356.5"/>
<text text-anchor="start" x="1094" y="-396.5" font-family="Helvetica,sans-Serif" font-size="10.00">/home/runner/work/diffblue</text>
<text text-anchor="start" x="1094" y="-385.5" font-family="Helvetica,sans-Serif" font-size="10.00">&#45;cbmc/diffblue&#45;cbmc/jbmc</text>
<text text-anchor="start" x="1094" y="-374.5" font-family="Helvetica,sans-Serif" font-size="10.00">/src/java_bytecode/java_class</text>
<text text-anchor="middle" x="1167" y="-363.5" font-family="Helvetica,sans-Serif" font-size="10.00">_loader.h</text>
</a>
</g>
</g>
<!-- Node5&#45;&gt;Node6 -->
<g id="edge6" class="edge">
<title>Node5&#45;&gt;Node6</title>
<path fill="none" stroke="midnightblue" d="M1211.07,-437.5C1203.25,-427.92 1194.84,-417.62 1187.49,-408.61"/>
<polygon fill="midnightblue" stroke="midnightblue" points="1208.43,-439.8 1217.46,-445.34 1213.85,-435.38 1208.43,-439.8"/>
</g>
<!-- Node5&#45;&gt;Node29 -->
<g id="edge36" class="edge">
<title>Node5&#45;&gt;Node29</title>
<path fill="none" stroke="midnightblue" d="M1277.55,-438.93C1290.05,-428.96 1303.69,-418.07 1315.54,-408.61"/>
<polygon fill="midnightblue" stroke="midnightblue" points="1275.16,-436.36 1269.53,-445.34 1279.53,-441.83 1275.16,-436.36"/>
</g>
<!-- Node7 -->
<g id="node7" class="node">
<title>Node7</title>
<g id="a_node7"><a xlink:href="ci__lazy__methods_8cpp.html" target="_top" xlink:title=" ">
<polygon fill="none" stroke="black" points="479.5,-178.5 479.5,-230.5 628.5,-230.5 628.5,-178.5 479.5,-178.5"/>
<text text-anchor="start" x="487.5" y="-218.5" font-family="Helvetica,sans-Serif" font-size="10.00">/home/runner/work/diffblue</text>
<text text-anchor="start" x="487.5" y="-207.5" font-family="Helvetica,sans-Serif" font-size="10.00">&#45;cbmc/diffblue&#45;cbmc/jbmc</text>
<text text-anchor="start" x="487.5" y="-196.5" font-family="Helvetica,sans-Serif" font-size="10.00">/src/java_bytecode/ci_lazy</text>
<text text-anchor="middle" x="554" y="-185.5" font-family="Helvetica,sans-Serif" font-size="10.00">_methods.cpp</text>
</a>
</g>
</g>
<!-- Node6&#45;&gt;Node7 -->
<g id="edge7" class="edge">
<title>Node6&#45;&gt;Node7</title>
<path fill="none" stroke="midnightblue" d="M1075.68,-355.41C970.93,-325.46 794.03,-274.82 642,-231 637.72,-229.77 633.32,-228.5 628.89,-227.22"/>
<polygon fill="midnightblue" stroke="midnightblue" points="1075.01,-358.86 1085.59,-358.24 1076.93,-352.13 1075.01,-358.86"/>
</g>
<!-- Node8 -->
<g id="node8" class="node">
<title>Node8</title>
<g id="a_node8"><a xlink:href="java__bytecode__convert__class_8h.html" target="_top" xlink:title="JAVA Bytecode Language Conversion.">
<polygon fill="none" stroke="black" points="292,-267.5 292,-319.5 474,-319.5 474,-267.5 292,-267.5"/>
<text text-anchor="start" x="300" y="-307.5" font-family="Helvetica,sans-Serif" font-size="10.00">/home/runner/work/diffblue</text>
<text text-anchor="start" x="300" y="-296.5" font-family="Helvetica,sans-Serif" font-size="10.00">&#45;cbmc/diffblue&#45;cbmc/jbmc</text>
<text text-anchor="start" x="300" y="-285.5" font-family="Helvetica,sans-Serif" font-size="10.00">/src/java_bytecode/java_bytecode</text>
<text text-anchor="middle" x="383" y="-274.5" font-family="Helvetica,sans-Serif" font-size="10.00">_convert_class.h</text>
</a>
</g>
</g>
<!-- Node6&#45;&gt;Node8 -->
<g id="edge8" class="edge">
<title>Node6&#45;&gt;Node8</title>
<path fill="none" stroke="midnightblue" d="M1075.52,-371.35C924.56,-354.6 625.01,-321.36 474.22,-304.62"/>
<polygon fill="midnightblue" stroke="midnightblue" points="1075.36,-374.85 1085.68,-372.48 1076.13,-367.89 1075.36,-374.85"/>
</g>
<!-- Node13 -->
<g id="node13" class="node">
<title>Node13</title>
<g id="a_node13"><a xlink:href="java__bytecode__language_8cpp.html" target="_top" xlink:title=" ">
<polygon fill="none" stroke="black" points="520,-0.5 520,-52.5 702,-52.5 702,-0.5 520,-0.5"/>
<text text-anchor="start" x="528" y="-40.5" font-family="Helvetica,sans-Serif" font-size="10.00">/home/runner/work/diffblue</text>
<text text-anchor="start" x="528" y="-29.5" font-family="Helvetica,sans-Serif" font-size="10.00">&#45;cbmc/diffblue&#45;cbmc/jbmc</text>
<text text-anchor="start" x="528" y="-18.5" font-family="Helvetica,sans-Serif" font-size="10.00">/src/java_bytecode/java_bytecode</text>
<text text-anchor="middle" x="611" y="-7.5" font-family="Helvetica,sans-Serif" font-size="10.00">_language.cpp</text>
</a>
</g>
</g>
<!-- Node6&#45;&gt;Node13 -->
<g id="edge18" class="edge">
<title>Node6&#45;&gt;Node13</title>
<path fill="none" stroke="midnightblue" d="M1258.35,-355.92C1435.76,-320.91 1885.46,-354.88 1990,-231 2005.19,-213 2004.02,-196.93 1990,-178 1909.25,-68.97 1831.57,-112.78 1698,-89 1507.72,-55.12 927.8,-36.13 702.17,-29.85"/>
<polygon fill="midnightblue" stroke="midnightblue" points="1257.39,-352.54 1248.33,-358.03 1258.84,-359.39 1257.39,-352.54"/>
</g>
<!-- Node16 -->
<g id="node15" class="node">
<title>Node16</title>
<g id="a_node15"><a xlink:href="java__bytecode__language_8h.html" target="_top" xlink:title=" ">
<polygon fill="none" stroke="black" points="1076,-267.5 1076,-319.5 1258,-319.5 1258,-267.5 1076,-267.5"/>
<text text-anchor="start" x="1084" y="-307.5" font-family="Helvetica,sans-Serif" font-size="10.00">/home/runner/work/diffblue</text>
<text text-anchor="start" x="1084" y="-296.5" font-family="Helvetica,sans-Serif" font-size="10.00">&#45;cbmc/diffblue&#45;cbmc/jbmc</text>
<text text-anchor="start" x="1084" y="-285.5" font-family="Helvetica,sans-Serif" font-size="10.00">/src/java_bytecode/java_bytecode</text>
<text text-anchor="middle" x="1167" y="-274.5" font-family="Helvetica,sans-Serif" font-size="10.00">_language.h</text>
</a>
</g>
</g>
<!-- Node6&#45;&gt;Node16 -->
<g id="edge19" class="edge">
<title>Node6&#45;&gt;Node16</title>
<path fill="none" stroke="midnightblue" d="M1167,-346.19C1167,-337.28 1167,-327.9 1167,-319.61"/>
<polygon fill="midnightblue" stroke="midnightblue" points="1163.5,-346.34 1167,-356.34 1170.5,-346.34 1163.5,-346.34"/>
</g>
<!-- Node28 -->
<g id="node27" class="node">
<title>Node28</title>
<g id="a_node27"><a xlink:href="java__class__loader_8cpp.html" target="_top" xlink:title=" ">
<polygon fill="none" stroke="black" points="2037,-267.5 2037,-319.5 2199,-319.5 2199,-267.5 2037,-267.5"/>
<text text-anchor="start" x="2045" y="-307.5" font-family="Helvetica,sans-Serif" font-size="10.00">/home/runner/work/diffblue</text>
<text text-anchor="start" x="2045" y="-296.5" font-family="Helvetica,sans-Serif" font-size="10.00">&#45;cbmc/diffblue&#45;cbmc/jbmc</text>
<text text-anchor="start" x="2045" y="-285.5" font-family="Helvetica,sans-Serif" font-size="10.00">/src/java_bytecode/java_class</text>
<text text-anchor="middle" x="2118" y="-274.5" font-family="Helvetica,sans-Serif" font-size="10.00">_loader.cpp</text>
</a>
</g>
</g>
<!-- Node6&#45;&gt;Node28 -->
<g id="edge35" class="edge">
<title>Node6&#45;&gt;Node28</title>
<path fill="none" stroke="midnightblue" d="M1258.29,-355.96C1595.22,-302.57 1689.53,-371.97 2023,-320 2027.56,-319.29 2032.21,-318.45 2036.88,-317.5"/>
<polygon fill="midnightblue" stroke="midnightblue" points="1257.56,-352.53 1248.25,-357.58 1258.68,-359.45 1257.56,-352.53"/>
</g>
<!-- Node9 -->
<g id="node9" class="node">
<title>Node9</title>
<g id="a_node9"><a xlink:href="java__bytecode__convert__class_8cpp.html" target="_top" xlink:title="JAVA Bytecode Language Conversion.">
<polygon fill="none" stroke="black" points="0,-0.5 0,-52.5 182,-52.5 182,-0.5 0,-0.5"/>
<text text-anchor="start" x="8" y="-40.5" font-family="Helvetica,sans-Serif" font-size="10.00">/home/runner/work/diffblue</text>
<text text-anchor="start" x="8" y="-29.5" font-family="Helvetica,sans-Serif" font-size="10.00">&#45;cbmc/diffblue&#45;cbmc/jbmc</text>
<text text-anchor="start" x="8" y="-18.5" font-family="Helvetica,sans-Serif" font-size="10.00">/src/java_bytecode/java_bytecode</text>
<text text-anchor="middle" x="91" y="-7.5" font-family="Helvetica,sans-Serif" font-size="10.00">_convert_class.cpp</text>
</a>
</g>
</g>
<!-- Node8&#45;&gt;Node9 -->
<g id="edge9" class="edge">
<title>Node8&#45;&gt;Node9</title>
<path fill="none" stroke="midnightblue" d="M281.71,-281.15C196.52,-265.59 80.07,-228.8 25,-142 12.38,-122.11 15.6,-110.6 25,-89 31.12,-74.93 42.23,-62.61 53.61,-52.78"/>
<polygon fill="midnightblue" stroke="midnightblue" points="281.22,-284.62 291.68,-282.9 282.44,-277.73 281.22,-284.62"/>
</g>
<!-- Node10 -->
<g id="node10" class="node">
<title>Node10</title>
<g id="a_node10"><a xlink:href="java__bytecode__convert__method__class_8h.html" target="_top" xlink:title="JAVA Bytecode Language Conversion.">
<polygon fill="none" stroke="black" points="223,-178.5 223,-230.5 405,-230.5 405,-178.5 223,-178.5"/>
<text text-anchor="start" x="231" y="-218.5" font-family="Helvetica,sans-Serif" font-size="10.00">/home/runner/work/diffblue</text>
<text text-anchor="start" x="231" y="-207.5" font-family="Helvetica,sans-Serif" font-size="10.00">&#45;cbmc/diffblue&#45;cbmc/jbmc</text>
<text text-anchor="start" x="231" y="-196.5" font-family="Helvetica,sans-Serif" font-size="10.00">/src/java_bytecode/java_bytecode</text>
<text text-anchor="middle" x="314" y="-185.5" font-family="Helvetica,sans-Serif" font-size="10.00">_convert_method_class.h</text>
</a>
</g>
</g>
<!-- Node8&#45;&gt;Node10 -->
<g id="edge10" class="edge">
<title>Node8&#45;&gt;Node10</title>
<path fill="none" stroke="midnightblue" d="M356.6,-259.22C349.07,-249.72 340.99,-239.53 333.91,-230.61"/>
<polygon fill="midnightblue" stroke="midnightblue" points="354.09,-261.68 363.04,-267.34 359.57,-257.33 354.09,-261.68"/>
</g>
<!-- Node8&#45;&gt;Node13 -->
<g id="edge17" class="edge">
<title>Node8&#45;&gt;Node13</title>
<path fill="none" stroke="midnightblue" d="M406.9,-259.19C423.91,-235.96 447.62,-204.5 470,-178 508.69,-132.18 557.12,-81.89 585.97,-52.6"/>
<polygon fill="midnightblue" stroke="midnightblue" points="404.01,-257.21 400.95,-267.36 409.67,-261.34 404.01,-257.21"/>
</g>
<!-- Node11 -->
<g id="node11" class="node">
<title>Node11</title>
<g id="a_node11"><a xlink:href="java__bytecode__convert__method_8cpp.html" target="_top" xlink:title="JAVA Bytecode Language Conversion.">
<polygon fill="none" stroke="black" points="249,-0.5 249,-52.5 431,-52.5 431,-0.5 249,-0.5"/>
<text text-anchor="start" x="257" y="-40.5" font-family="Helvetica,sans-Serif" font-size="10.00">/home/runner/work/diffblue</text>
<text text-anchor="start" x="257" y="-29.5" font-family="Helvetica,sans-Serif" font-size="10.00">&#45;cbmc/diffblue&#45;cbmc/jbmc</text>
<text text-anchor="start" x="257" y="-18.5" font-family="Helvetica,sans-Serif" font-size="10.00">/src/java_bytecode/java_bytecode</text>
<text text-anchor="middle" x="340" y="-7.5" font-family="Helvetica,sans-Serif" font-size="10.00">_convert_method.cpp</text>
</a>
</g>
</g>
<!-- Node10&#45;&gt;Node11 -->
<g id="edge11" class="edge">
<title>Node10&#45;&gt;Node11</title>
<path fill="none" stroke="midnightblue" d="M377.97,-172.27C388.84,-163.99 398.66,-153.94 405,-142 416.05,-121.2 414.31,-110.64 405,-89 398.92,-74.87 387.82,-62.48 376.49,-52.58"/>
<polygon fill="midnightblue" stroke="midnightblue" points="375.64,-169.64 369.49,-178.27 379.68,-175.35 375.64,-169.64"/>
</g>
<!-- Node12 -->
<g id="node12" class="node">
<title>Node12</title>
<g id="a_node12"><a xlink:href="java__bytecode__convert__method_8h.html" target="_top" xlink:title="JAVA Bytecode Language Conversion.">
<polygon fill="none" stroke="red" points="214,-89.5 214,-141.5 396,-141.5 396,-89.5 214,-89.5"/>
<text text-anchor="start" x="222" y="-129.5" font-family="Helvetica,sans-Serif" font-size="10.00">/home/runner/work/diffblue</text>
<text text-anchor="start" x="222" y="-118.5" font-family="Helvetica,sans-Serif" font-size="10.00">&#45;cbmc/diffblue&#45;cbmc/jbmc</text>
<text text-anchor="start" x="222" y="-107.5" font-family="Helvetica,sans-Serif" font-size="10.00">/src/java_bytecode/java_bytecode</text>
<text text-anchor="middle" x="305" y="-96.5" font-family="Helvetica,sans-Serif" font-size="10.00">_convert_method.h</text>
</a>
</g>
</g>
<!-- Node10&#45;&gt;Node12 -->
<g id="edge12" class="edge">
<title>Node10&#45;&gt;Node12</title>
<path fill="none" stroke="midnightblue" d="M310.35,-168.19C309.43,-159.28 308.46,-149.9 307.6,-141.61"/>
<polygon fill="midnightblue" stroke="midnightblue" points="306.89,-168.75 311.4,-178.34 313.85,-168.03 306.89,-168.75"/>
</g>
<!-- Node15 -->
<g id="node14" class="node">
<title>Node15</title>
<g id="a_node14"><a xlink:href="java__local__variable__table_8cpp.html" target="_top" xlink:title="Java local variable table processing.">
<polygon fill="none" stroke="black" points="34.5,-89.5 34.5,-141.5 195.5,-141.5 195.5,-89.5 34.5,-89.5"/>
<text text-anchor="start" x="42.5" y="-129.5" font-family="Helvetica,sans-Serif" font-size="10.00">/home/runner/work/diffblue</text>
<text text-anchor="start" x="42.5" y="-118.5" font-family="Helvetica,sans-Serif" font-size="10.00">&#45;cbmc/diffblue&#45;cbmc/jbmc</text>
<text text-anchor="start" x="42.5" y="-107.5" font-family="Helvetica,sans-Serif" font-size="10.00">/src/java_bytecode/java_local</text>
<text text-anchor="middle" x="115" y="-96.5" font-family="Helvetica,sans-Serif" font-size="10.00">_variable_table.cpp</text>
</a>
</g>
</g>
<!-- Node10&#45;&gt;Node15 -->
<g id="edge16" class="edge">
<title>Node10&#45;&gt;Node15</title>
<path fill="none" stroke="midnightblue" d="M247.52,-174.44C223.13,-163.77 195.74,-151.8 172.23,-141.52"/>
<polygon fill="midnightblue" stroke="midnightblue" points="246.14,-177.65 256.71,-178.45 248.95,-171.24 246.14,-177.65"/>
</g>
<!-- Node12&#45;&gt;Node9 -->
<g id="edge13" class="edge">
<title>Node12&#45;&gt;Node9</title>
<path fill="none" stroke="midnightblue" d="M233.85,-85.58C207.53,-74.88 177.94,-62.85 152.55,-52.52"/>
<polygon fill="midnightblue" stroke="midnightblue" points="232.81,-88.93 243.39,-89.45 235.44,-82.44 232.81,-88.93"/>
</g>
<!-- Node12&#45;&gt;Node11 -->
<g id="edge14" class="edge">
<title>Node12&#45;&gt;Node11</title>
<path fill="none" stroke="midnightblue" d="M318.97,-79.77C322.62,-70.69 326.49,-61.08 329.9,-52.61"/>
<polygon fill="midnightblue" stroke="midnightblue" points="315.61,-78.75 315.12,-89.34 322.1,-81.36 315.61,-78.75"/>
</g>
<!-- Node12&#45;&gt;Node13 -->
<g id="edge15" class="edge">
<title>Node12&#45;&gt;Node13</title>
<path fill="none" stroke="midnightblue" d="M402.79,-86.7C441.39,-75.72 485.41,-63.21 522.99,-52.52"/>
<polygon fill="midnightblue" stroke="midnightblue" points="401.76,-83.35 393.1,-89.45 403.67,-90.08 401.76,-83.35"/>
</g>
<!-- Node16&#45;&gt;Node7 -->
<g id="edge24" class="edge">
<title>Node16&#45;&gt;Node7</title>
<path fill="none" stroke="midnightblue" d="M1065.62,-285.62C959.3,-277.25 787.74,-260.44 642,-231 637.63,-230.12 633.17,-229.12 628.68,-228.05"/>
<polygon fill="midnightblue" stroke="midnightblue" points="1065.46,-289.12 1075.7,-286.41 1066,-282.14 1065.46,-289.12"/>
</g>
<!-- Node16&#45;&gt;Node13 -->
<g id="edge25" class="edge">
<title>Node16&#45;&gt;Node13</title>
<path fill="none" stroke="midnightblue" d="M1065.48,-284.43C936.93,-273.41 728.64,-252.53 700,-231 641.6,-187.08 620.89,-96.68 614.07,-52.67"/>
<polygon fill="midnightblue" stroke="midnightblue" points="1065.48,-287.94 1075.74,-285.3 1066.07,-280.97 1065.48,-287.94"/>
</g>
<!-- Node17 -->
<g id="node16" class="node">
<title>Node17</title>
<g id="a_node16"><a xlink:href="janalyzer__parse__options_8cpp.html" target="_top" xlink:title="JANALYZER Command Line Option Processing.">
<polygon fill="none" stroke="black" points="1372.5,-89.5 1372.5,-141.5 1521.5,-141.5 1521.5,-89.5 1372.5,-89.5"/>
<text text-anchor="start" x="1380.5" y="-129.5" font-family="Helvetica,sans-Serif" font-size="10.00">/home/runner/work/diffblue</text>
<text text-anchor="start" x="1380.5" y="-118.5" font-family="Helvetica,sans-Serif" font-size="10.00">&#45;cbmc/diffblue&#45;cbmc/jbmc</text>
<text text-anchor="start" x="1380.5" y="-107.5" font-family="Helvetica,sans-Serif" font-size="10.00">/src/janalyzer/janalyzer</text>
<text text-anchor="middle" x="1447" y="-96.5" font-family="Helvetica,sans-Serif" font-size="10.00">_parse_options.cpp</text>
</a>
</g>
</g>
<!-- Node16&#45;&gt;Node17 -->
<g id="edge20" class="edge">
<title>Node16&#45;&gt;Node17</title>
<path fill="none" stroke="midnightblue" d="M1268.43,-280.27C1332.07,-270.47 1406.08,-254.44 1428,-231 1450.3,-207.16 1451.98,-167.64 1450.21,-141.83"/>
<polygon fill="midnightblue" stroke="midnightblue" points="1267.68,-276.85 1258.31,-281.79 1268.72,-283.77 1267.68,-276.85"/>
</g>
<!-- Node18 -->
<g id="node17" class="node">
<title>Node18</title>
<g id="a_node17"><a xlink:href="janalyzer__parse__options_8h.html" target="_top" xlink:title="JANALYZER Command Line Option Processing.">
<polygon fill="none" stroke="black" points="1474.5,-178.5 1474.5,-230.5 1623.5,-230.5 1623.5,-178.5 1474.5,-178.5"/>
<text text-anchor="start" x="1482.5" y="-218.5" font-family="Helvetica,sans-Serif" font-size="10.00">/home/runner/work/diffblue</text>
<text text-anchor="start" x="1482.5" y="-207.5" font-family="Helvetica,sans-Serif" font-size="10.00">&#45;cbmc/diffblue&#45;cbmc/jbmc</text>
<text text-anchor="start" x="1482.5" y="-196.5" font-family="Helvetica,sans-Serif" font-size="10.00">/src/janalyzer/janalyzer</text>
<text text-anchor="middle" x="1549" y="-185.5" font-family="Helvetica,sans-Serif" font-size="10.00">_parse_options.h</text>
</a>
</g>
</g>
<!-- Node16&#45;&gt;Node18 -->
<g id="edge21" class="edge">
<title>Node16&#45;&gt;Node18</title>
<path fill="none" stroke="midnightblue" d="M1268.21,-273.3C1325.1,-262.01 1397.27,-246.87 1461,-231 1465.32,-229.92 1469.75,-228.78 1474.21,-227.59"/>
<polygon fill="midnightblue" stroke="midnightblue" points="1267.26,-269.92 1258.13,-275.29 1268.62,-276.79 1267.26,-269.92"/>
</g>
<!-- Node20 -->
<g id="node19" class="node">
<title>Node20</title>
<g id="a_node19"><a xlink:href="java__entry__point_8cpp.html" target="_top" xlink:title=" ">
<polygon fill="none" stroke="black" points="1641.5,-178.5 1641.5,-230.5 1804.5,-230.5 1804.5,-178.5 1641.5,-178.5"/>
<text text-anchor="start" x="1649.5" y="-218.5" font-family="Helvetica,sans-Serif" font-size="10.00">/home/runner/work/diffblue</text>
<text text-anchor="start" x="1649.5" y="-207.5" font-family="Helvetica,sans-Serif" font-size="10.00">&#45;cbmc/diffblue&#45;cbmc/jbmc</text>
<text text-anchor="start" x="1649.5" y="-196.5" font-family="Helvetica,sans-Serif" font-size="10.00">/src/java_bytecode/java_entry</text>
<text text-anchor="middle" x="1723" y="-185.5" font-family="Helvetica,sans-Serif" font-size="10.00">_point.cpp</text>
</a>
</g>
</g>
<!-- Node16&#45;&gt;Node20 -->
<g id="edge26" class="edge">
<title>Node16&#45;&gt;Node20</title>
<path fill="none" stroke="midnightblue" d="M1268.46,-283.39C1363.34,-273.86 1508.66,-256.68 1633,-231 1635.7,-230.44 1638.45,-229.84 1641.21,-229.22"/>
<polygon fill="midnightblue" stroke="midnightblue" points="1267.9,-279.93 1258.29,-284.4 1268.59,-286.89 1267.9,-279.93"/>
</g>
<!-- Node21 -->
<g id="node20" class="node">
<title>Node21</title>
<g id="a_node20"><a xlink:href="lazy__goto__model_8cpp.html" target="_top" xlink:title="Author: Diffblue Ltd.">
<polygon fill="none" stroke="black" points="1823,-178.5 1823,-230.5 1981,-230.5 1981,-178.5 1823,-178.5"/>
<text text-anchor="start" x="1831" y="-218.5" font-family="Helvetica,sans-Serif" font-size="10.00">/home/runner/work/diffblue</text>
<text text-anchor="start" x="1831" y="-207.5" font-family="Helvetica,sans-Serif" font-size="10.00">&#45;cbmc/diffblue&#45;cbmc/jbmc</text>
<text text-anchor="start" x="1831" y="-196.5" font-family="Helvetica,sans-Serif" font-size="10.00">/src/java_bytecode/lazy_goto</text>
<text text-anchor="middle" x="1902" y="-185.5" font-family="Helvetica,sans-Serif" font-size="10.00">_model.cpp</text>
</a>
</g>
</g>
<!-- Node16&#45;&gt;Node21 -->
<g id="edge27" class="edge">
<title>Node16&#45;&gt;Node21</title>
<path fill="none" stroke="midnightblue" d="M1268.22,-288.74C1396.27,-282.65 1623.13,-267.39 1814,-231 1816.81,-230.46 1819.66,-229.88 1822.54,-229.25"/>
<polygon fill="midnightblue" stroke="midnightblue" points="1267.86,-285.26 1258.03,-289.22 1268.19,-292.25 1267.86,-285.26"/>
</g>
<!-- Node22 -->
<g id="node21" class="node">
<title>Node22</title>
<g id="a_node21"><a xlink:href="jbmc__parse__options_8cpp.html" target="_top" xlink:title="JBMC Command Line Option Processing.">
<polygon fill="none" stroke="black" points="684,-95 684,-136 866,-136 866,-95 684,-95"/>
<text text-anchor="start" x="692" y="-124" font-family="Helvetica,sans-Serif" font-size="10.00">/home/runner/work/diffblue</text>
<text text-anchor="start" x="692" y="-113" font-family="Helvetica,sans-Serif" font-size="10.00">&#45;cbmc/diffblue&#45;cbmc/jbmc</text>
<text text-anchor="middle" x="775" y="-102" font-family="Helvetica,sans-Serif" font-size="10.00">/src/jbmc/jbmc_parse_options.cpp</text>
</a>
</g>
</g>
<!-- Node16&#45;&gt;Node22 -->
<g id="edge28" class="edge">
<title>Node16&#45;&gt;Node22</title>
<path fill="none" stroke="midnightblue" d="M1065.78,-285.76C939.1,-276.27 735.86,-257.17 713,-231 697.5,-213.26 703.94,-199.74 713,-178 719.94,-161.35 733.82,-146.89 746.7,-136.18"/>
<polygon fill="midnightblue" stroke="midnightblue" points="1065.67,-289.26 1075.9,-286.51 1066.18,-282.28 1065.67,-289.26"/>
</g>
<!-- Node23 -->
<g id="node22" class="node">
<title>Node23</title>
<g id="a_node22"><a xlink:href="jbmc__parse__options_8h.html" target="_top" xlink:title="JBMC Command Line Option Processing.">
<polygon fill="none" stroke="black" points="722,-184 722,-225 892,-225 892,-184 722,-184"/>
<text text-anchor="start" x="730" y="-213" font-family="Helvetica,sans-Serif" font-size="10.00">/home/runner/work/diffblue</text>
<text text-anchor="start" x="730" y="-202" font-family="Helvetica,sans-Serif" font-size="10.00">&#45;cbmc/diffblue&#45;cbmc/jbmc</text>
<text text-anchor="middle" x="807" y="-191" font-family="Helvetica,sans-Serif" font-size="10.00">/src/jbmc/jbmc_parse_options.h</text>
</a>
</g>
</g>
<!-- Node16&#45;&gt;Node23 -->
<g id="edge29" class="edge">
<title>Node16&#45;&gt;Node23</title>
<path fill="none" stroke="midnightblue" d="M1066.19,-270.13C1016.37,-258.84 955.41,-244.67 901,-231 893.46,-229.11 885.59,-227.07 877.76,-225"/>
<polygon fill="midnightblue" stroke="midnightblue" points="1065.47,-273.56 1076,-272.35 1067.02,-266.73 1065.47,-273.56"/>
</g>
<!-- Node25 -->
<g id="node24" class="node">
<title>Node25</title>
<g id="a_node24"><a xlink:href="jdiff__languages_8cpp.html" target="_top" xlink:title="Language Registration.">
<polygon fill="none" stroke="black" points="910.5,-184 910.5,-225 1063.5,-225 1063.5,-184 910.5,-184"/>
<text text-anchor="start" x="918.5" y="-213" font-family="Helvetica,sans-Serif" font-size="10.00">/home/runner/work/diffblue</text>
<text text-anchor="start" x="918.5" y="-202" font-family="Helvetica,sans-Serif" font-size="10.00">&#45;cbmc/diffblue&#45;cbmc/jbmc</text>
<text text-anchor="middle" x="987" y="-191" font-family="Helvetica,sans-Serif" font-size="10.00">/src/jdiff/jdiff_languages.cpp</text>
</a>
</g>
</g>
<!-- Node16&#45;&gt;Node25 -->
<g id="edge32" class="edge">
<title>Node16&#45;&gt;Node25</title>
<path fill="none" stroke="midnightblue" d="M1105.61,-262.83C1079.82,-250.36 1050.53,-236.21 1027.51,-225.08"/>
<polygon fill="midnightblue" stroke="midnightblue" points="1104.41,-266.14 1114.94,-267.34 1107.46,-259.83 1104.41,-266.14"/>
</g>
<!-- Node26 -->
<g id="node25" class="node">
<title>Node26</title>
<g id="a_node25"><a xlink:href="jdiff__parse__options_8cpp.html" target="_top" xlink:title="JDIFF Command Line Option Processing.">
<polygon fill="none" stroke="black" points="1081.5,-184 1081.5,-225 1252.5,-225 1252.5,-184 1081.5,-184"/>
<text text-anchor="start" x="1089.5" y="-213" font-family="Helvetica,sans-Serif" font-size="10.00">/home/runner/work/diffblue</text>
<text text-anchor="start" x="1089.5" y="-202" font-family="Helvetica,sans-Serif" font-size="10.00">&#45;cbmc/diffblue&#45;cbmc/jbmc</text>
<text text-anchor="middle" x="1167" y="-191" font-family="Helvetica,sans-Serif" font-size="10.00">/src/jdiff/jdiff_parse_options.cpp</text>
</a>
</g>
</g>
<!-- Node16&#45;&gt;Node26 -->
<g id="edge33" class="edge">
<title>Node16&#45;&gt;Node26</title>
<path fill="none" stroke="midnightblue" d="M1167,-257.16C1167,-246.21 1167,-234.55 1167,-225.08"/>
<polygon fill="midnightblue" stroke="midnightblue" points="1163.5,-257.34 1167,-267.34 1170.5,-257.34 1163.5,-257.34"/>
</g>
<!-- Node27 -->
<g id="node26" class="node">
<title>Node27</title>
<g id="a_node26"><a xlink:href="load__java__class_8cpp.html" target="_top" xlink:title=" ">
<polygon fill="none" stroke="black" points="1270.5,-178.5 1270.5,-230.5 1419.5,-230.5 1419.5,-178.5 1270.5,-178.5"/>
<text text-anchor="start" x="1278.5" y="-218.5" font-family="Helvetica,sans-Serif" font-size="10.00">/home/runner/work/diffblue</text>
<text text-anchor="start" x="1278.5" y="-207.5" font-family="Helvetica,sans-Serif" font-size="10.00">&#45;cbmc/diffblue&#45;cbmc/jbmc</text>
<text text-anchor="start" x="1278.5" y="-196.5" font-family="Helvetica,sans-Serif" font-size="10.00">/unit/java&#45;testing&#45;utils</text>
<text text-anchor="middle" x="1345" y="-185.5" font-family="Helvetica,sans-Serif" font-size="10.00">/load_java_class.cpp</text>
</a>
</g>
</g>
<!-- Node16&#45;&gt;Node27 -->
<g id="edge34" class="edge">
<title>Node16&#45;&gt;Node27</title>
<path fill="none" stroke="midnightblue" d="M1227.53,-262.92C1249.02,-252.41 1272.98,-240.7 1293.63,-230.61"/>
<polygon fill="midnightblue" stroke="midnightblue" points="1225.93,-259.8 1218.48,-267.34 1229.01,-266.09 1225.93,-259.8"/>
</g>
<!-- Node18&#45;&gt;Node17 -->
<g id="edge23" class="edge">
<title>Node18&#45;&gt;Node17</title>
<path fill="none" stroke="midnightblue" d="M1511.66,-171.65C1500.05,-161.75 1487.42,-150.98 1476.44,-141.61"/>
<polygon fill="midnightblue" stroke="midnightblue" points="1509.62,-174.51 1519.5,-178.34 1514.16,-169.18 1509.62,-174.51"/>
</g>
<!-- Node19 -->
<g id="node18" class="node">
<title>Node19</title>
<g id="a_node18"><a xlink:href="janalyzer__main_8cpp.html" target="_top" xlink:title="JANALYZER Main Module.">
<polygon fill="none" stroke="black" points="1539.5,-89.5 1539.5,-141.5 1688.5,-141.5 1688.5,-89.5 1539.5,-89.5"/>
<text text-anchor="start" x="1547.5" y="-129.5" font-family="Helvetica,sans-Serif" font-size="10.00">/home/runner/work/diffblue</text>
<text text-anchor="start" x="1547.5" y="-118.5" font-family="Helvetica,sans-Serif" font-size="10.00">&#45;cbmc/diffblue&#45;cbmc/jbmc</text>
<text text-anchor="start" x="1547.5" y="-107.5" font-family="Helvetica,sans-Serif" font-size="10.00">/src/janalyzer/janalyzer</text>
<text text-anchor="middle" x="1614" y="-96.5" font-family="Helvetica,sans-Serif" font-size="10.00">_main.cpp</text>
</a>
</g>
</g>
<!-- Node18&#45;&gt;Node19 -->
<g id="edge22" class="edge">
<title>Node18&#45;&gt;Node19</title>
<path fill="none" stroke="midnightblue" d="M1573.87,-170.22C1580.96,-160.72 1588.58,-150.53 1595.24,-141.61"/>
<polygon fill="midnightblue" stroke="midnightblue" points="1570.98,-168.23 1567.8,-178.34 1576.59,-172.42 1570.98,-168.23"/>
</g>
<!-- Node23&#45;&gt;Node22 -->
<g id="edge31" class="edge">
<title>Node23&#45;&gt;Node22</title>
<path fill="none" stroke="midnightblue" d="M796.22,-174.19C791.61,-161.67 786.36,-147.38 782.23,-136.16"/>
<polygon fill="midnightblue" stroke="midnightblue" points="793,-175.58 799.74,-183.76 799.57,-173.16 793,-175.58"/>
</g>
<!-- Node24 -->
<g id="node23" class="node">
<title>Node24</title>
<g id="a_node23"><a xlink:href="jbmc__main_8cpp.html" target="_top" xlink:title="CBMC Main Module.">
<polygon fill="none" stroke="black" points="884.5,-95 884.5,-136 1033.5,-136 1033.5,-95 884.5,-95"/>
<text text-anchor="start" x="892.5" y="-124" font-family="Helvetica,sans-Serif" font-size="10.00">/home/runner/work/diffblue</text>
<text text-anchor="start" x="892.5" y="-113" font-family="Helvetica,sans-Serif" font-size="10.00">&#45;cbmc/diffblue&#45;cbmc/jbmc</text>
<text text-anchor="middle" x="959" y="-102" font-family="Helvetica,sans-Serif" font-size="10.00">/src/jbmc/jbmc_main.cpp</text>
</a>
</g>
</g>
<!-- Node23&#45;&gt;Node24 -->
<g id="edge30" class="edge">
<title>Node23&#45;&gt;Node24</title>
<path fill="none" stroke="midnightblue" d="M849.9,-178.94C873.58,-165.39 902.59,-148.79 924.74,-136.11"/>
<polygon fill="midnightblue" stroke="midnightblue" points="848.05,-175.97 841.11,-183.98 851.53,-182.05 848.05,-175.97"/>
</g>
</g>
</svg>
