<?xml version="1.0" encoding="UTF-8" standalone="no"?>
<!DOCTYPE svg PUBLIC "-//W3C//DTD SVG 1.1//EN"
 "http://www.w3.org/Graphics/SVG/1.1/DTD/svg11.dtd">
<!-- Generated by graphviz version 2.43.0 (0)
 -->
<!-- Title: /home/runner/work/diffblue&#45;cbmc/diffblue&#45;cbmc/jbmc/src/java_bytecode/jar_pool.h Pages: 1 -->
<svg width="506pt" height="218pt"
 viewBox="0.00 0.00 506.00 218.00" xmlns="http://www.w3.org/2000/svg" xmlns:xlink="http://www.w3.org/1999/xlink">
<g id="graph0" class="graph" transform="scale(1 1) rotate(0) translate(4 214)">
<title>/home/runner/work/diffblue&#45;cbmc/diffblue&#45;cbmc/jbmc/src/java_bytecode/jar_pool.h</title>
<!-- Node1 -->
<g id="node1" class="node">
<title>Node1</title>
<g id="a_node1"><a xlink:title=" ">
<polygon fill="#bfbfbf" stroke="black" points="0,-168.5 0,-209.5 159,-209.5 159,-168.5 0,-168.5"/>
<text text-anchor="start" x="8" y="-197.5" font-family="Helvetica,sans-Serif" font-size="10.00">/home/runner/work/diffblue</text>
<text text-anchor="start" x="8" y="-186.5" font-family="Helvetica,sans-Serif" font-size="10.00">&#45;cbmc/diffblue&#45;cbmc/jbmc</text>
<text text-anchor="middle" x="79.5" y="-175.5" font-family="Helvetica,sans-Serif" font-size="10.00">/src/java_bytecode/jar_pool.h</text>
</a>
</g>
</g>
<!-- Node2 -->
<g id="node2" class="node">
<title>Node2</title>
<g id="a_node2"><a xlink:title=" ">
<polygon fill="none" stroke="#bfbfbf" points="13.5,-112.5 13.5,-131.5 51.5,-131.5 51.5,-112.5 13.5,-112.5"/>
<text text-anchor="middle" x="32.5" y="-119.5" font-family="Helvetica,sans-Serif" font-size="10.00">map</text>
</a>
</g>
</g>
<!-- Node1&#45;&gt;Node2 -->
<g id="edge1" class="edge">
<title>Node1&#45;&gt;Node2</title>
<path fill="none" stroke="midnightblue" d="M65.4,-168.5C58.82,-159.39 51.06,-148.66 44.73,-139.91"/>
<polygon fill="midnightblue" stroke="midnightblue" points="47.45,-137.71 38.76,-131.65 41.78,-141.81 47.45,-137.71"/>
</g>
<!-- Node3 -->
<g id="node3" class="node">
<title>Node3</title>
<g id="a_node3"><a xlink:title=" ">
<polygon fill="none" stroke="#bfbfbf" points="95.5,-0.5 95.5,-19.5 139.5,-19.5 139.5,-0.5 95.5,-0.5"/>
<text text-anchor="middle" x="117.5" y="-7.5" font-family="Helvetica,sans-Serif" font-size="10.00">string</text>
</a>
</g>
</g>
<!-- Node1&#45;&gt;Node3 -->
<g id="edge2" class="edge">
<title>Node1&#45;&gt;Node3</title>
<path fill="none" stroke="midnightblue" d="M83.71,-168.38C91.11,-133.93 106.33,-63.04 113.54,-29.44"/>
<polygon fill="midnightblue" stroke="midnightblue" points="116.98,-30.1 115.66,-19.58 110.14,-28.63 116.98,-30.1"/>
</g>
<!-- Node4 -->
<g id="node4" class="node">
<title>Node4</title>
<g id="a_node4"><a xlink:href="jar__file_8h.html" target="_top" xlink:title=" ">
<polygon fill="none" stroke="black" points="215,-112.5 215,-131.5 274,-131.5 274,-112.5 215,-112.5"/>
<text text-anchor="middle" x="244.5" y="-119.5" font-family="Helvetica,sans-Serif" font-size="10.00">jar_file.h</text>
</a>
</g>
</g>
<!-- Node1&#45;&gt;Node4 -->
<g id="edge3" class="edge">
<title>Node1&#45;&gt;Node4</title>
<path fill="none" stroke="midnightblue" d="M129.01,-168.5C156.25,-157.77 189.24,-144.77 212.97,-135.42"/>
<polygon fill="midnightblue" stroke="midnightblue" points="214.51,-138.57 222.54,-131.65 211.95,-132.06 214.51,-138.57"/>
</g>
<!-- Node4&#45;&gt;Node3 -->
<g id="edge8" class="edge">
<title>Node4&#45;&gt;Node3</title>
<path fill="none" stroke="midnightblue" d="M214.61,-115.66C190.59,-109.85 157.65,-98.26 137.5,-76 126,-63.29 121.11,-44.09 119.03,-29.85"/>
<polygon fill="midnightblue" stroke="midnightblue" points="122.49,-29.26 117.9,-19.71 115.53,-30.04 122.49,-29.26"/>
</g>
<!-- Node5 -->
<g id="node5" class="node">
<title>Node5</title>
<g id="a_node5"><a xlink:href="mz__zip__archive_8h.html" target="_top" xlink:title=" ">
<polygon fill="none" stroke="black" points="146,-56.5 146,-75.5 247,-75.5 247,-56.5 146,-56.5"/>
<text text-anchor="middle" x="196.5" y="-63.5" font-family="Helvetica,sans-Serif" font-size="10.00">mz_zip_archive.h</text>
</a>
</g>
</g>
<!-- Node4&#45;&gt;Node5 -->
<g id="edge4" class="edge">
<title>Node4&#45;&gt;Node5</title>
<path fill="none" stroke="midnightblue" d="M236.57,-112.08C229.65,-104.3 219.43,-92.8 211.05,-83.37"/>
<polygon fill="midnightblue" stroke="midnightblue" points="213.54,-80.9 204.28,-75.75 208.31,-85.55 213.54,-80.9"/>
</g>
<!-- Node7 -->
<g id="node7" class="node">
<title>Node7</title>
<g id="a_node7"><a xlink:title=" ">
<polygon fill="none" stroke="#bfbfbf" points="265.5,-56.5 265.5,-75.5 321.5,-75.5 321.5,-56.5 265.5,-56.5"/>
<text text-anchor="middle" x="293.5" y="-63.5" font-family="Helvetica,sans-Serif" font-size="10.00">optional</text>
</a>
</g>
</g>
<!-- Node4&#45;&gt;Node7 -->
<g id="edge7" class="edge">
<title>Node4&#45;&gt;Node7</title>
<path fill="none" stroke="midnightblue" d="M252.59,-112.08C259.66,-104.3 270.09,-92.8 278.65,-83.37"/>
<polygon fill="midnightblue" stroke="midnightblue" points="281.43,-85.51 285.56,-75.75 276.25,-80.8 281.43,-85.51"/>
</g>
<!-- Node8 -->
<g id="node8" class="node">
<title>Node8</title>
<g id="a_node8"><a xlink:title=" ">
<polygon fill="none" stroke="#bfbfbf" points="340,-56.5 340,-75.5 433,-75.5 433,-56.5 340,-56.5"/>
<text text-anchor="middle" x="386.5" y="-63.5" font-family="Helvetica,sans-Serif" font-size="10.00">unordered_map</text>
</a>
</g>
</g>
<!-- Node4&#45;&gt;Node8 -->
<g id="edge9" class="edge">
<title>Node4&#45;&gt;Node8</title>
<path fill="none" stroke="midnightblue" d="M267,-112.44C290.58,-103.48 327.82,-89.31 354.46,-79.18"/>
<polygon fill="midnightblue" stroke="midnightblue" points="356,-82.34 364.1,-75.52 353.51,-75.8 356,-82.34"/>
</g>
<!-- Node9 -->
<g id="node9" class="node">
<title>Node9</title>
<g id="a_node9"><a xlink:title=" ">
<polygon fill="none" stroke="#bfbfbf" points="451,-56.5 451,-75.5 498,-75.5 498,-56.5 451,-56.5"/>
<text text-anchor="middle" x="474.5" y="-63.5" font-family="Helvetica,sans-Serif" font-size="10.00">vector</text>
</a>
</g>
</g>
<!-- Node4&#45;&gt;Node9 -->
<g id="edge10" class="edge">
<title>Node4&#45;&gt;Node9</title>
<path fill="none" stroke="midnightblue" d="M274.13,-114.76C311.05,-106.87 376.28,-92.59 440.84,-76.34"/>
<polygon fill="midnightblue" stroke="midnightblue" points="441.94,-79.67 450.77,-73.82 440.22,-72.88 441.94,-79.67"/>
</g>
<!-- Node5&#45;&gt;Node3 -->
<g id="edge5" class="edge">
<title>Node5&#45;&gt;Node3</title>
<path fill="none" stroke="midnightblue" d="M183.81,-56.32C171.6,-47.98 152.92,-35.21 138.5,-25.35"/>
<polygon fill="midnightblue" stroke="midnightblue" points="140.39,-22.41 130.16,-19.65 136.44,-28.19 140.39,-22.41"/>
</g>
<!-- Node6 -->
<g id="node6" class="node">
<title>Node6</title>
<g id="a_node6"><a xlink:title=" ">
<polygon fill="none" stroke="#bfbfbf" points="167.5,-0.5 167.5,-19.5 225.5,-19.5 225.5,-0.5 167.5,-0.5"/>
<text text-anchor="middle" x="196.5" y="-7.5" font-family="Helvetica,sans-Serif" font-size="10.00">memory</text>
</a>
</g>
</g>
<!-- Node5&#45;&gt;Node6 -->
<g id="edge6" class="edge">
<title>Node5&#45;&gt;Node6</title>
<path fill="none" stroke="midnightblue" d="M196.5,-56.08C196.5,-49.01 196.5,-38.86 196.5,-29.99"/>
<polygon fill="midnightblue" stroke="midnightblue" points="200,-29.75 196.5,-19.75 193,-29.75 200,-29.75"/>
</g>
</g>
</svg>
