<?xml version="1.0" encoding="UTF-8" standalone="no"?>
<!DOCTYPE svg PUBLIC "-//W3C//DTD SVG 1.1//EN"
 "http://www.w3.org/Graphics/SVG/1.1/DTD/svg11.dtd">
<!-- Generated by graphviz version 2.43.0 (0)
 -->
<!-- Title: /home/runner/work/diffblue&#45;cbmc/diffblue&#45;cbmc/jbmc/src/java_bytecode/java_string_literals.h Pages: 1 -->
<svg width="931pt" height="150pt"
 viewBox="0.00 0.00 931.00 150.00" xmlns="http://www.w3.org/2000/svg" xmlns:xlink="http://www.w3.org/1999/xlink">
<g id="graph0" class="graph" transform="scale(1 1) rotate(0) translate(4 146)">
<title>/home/runner/work/diffblue&#45;cbmc/diffblue&#45;cbmc/jbmc/src/java_bytecode/java_string_literals.h</title>
<!-- Node1 -->
<g id="node1" class="node">
<title>Node1</title>
<g id="a_node1"><a xlink:title=" ">
<polygon fill="#bfbfbf" stroke="black" points="391,-89.5 391,-141.5 556,-141.5 556,-89.5 391,-89.5"/>
<text text-anchor="start" x="399" y="-129.5" font-family="Helvetica,sans-Serif" font-size="10.00">/home/runner/work/diffblue</text>
<text text-anchor="start" x="399" y="-118.5" font-family="Helvetica,sans-Serif" font-size="10.00">&#45;cbmc/diffblue&#45;cbmc/jbmc</text>
<text text-anchor="start" x="399" y="-107.5" font-family="Helvetica,sans-Serif" font-size="10.00">/src/java_bytecode/java_string</text>
<text text-anchor="middle" x="473.5" y="-96.5" font-family="Helvetica,sans-Serif" font-size="10.00">_literals.h</text>
</a>
</g>
</g>
<!-- Node2 -->
<g id="node2" class="node">
<title>Node2</title>
<g id="a_node2"><a xlink:href="assignments__from__json_8cpp.html" target="_top" xlink:title=" ">
<polygon fill="none" stroke="black" points="0,-0.5 0,-52.5 173,-52.5 173,-0.5 0,-0.5"/>
<text text-anchor="start" x="8" y="-40.5" font-family="Helvetica,sans-Serif" font-size="10.00">/home/runner/work/diffblue</text>
<text text-anchor="start" x="8" y="-29.5" font-family="Helvetica,sans-Serif" font-size="10.00">&#45;cbmc/diffblue&#45;cbmc/jbmc</text>
<text text-anchor="start" x="8" y="-18.5" font-family="Helvetica,sans-Serif" font-size="10.00">/src/java_bytecode/assignments</text>
<text text-anchor="middle" x="86.5" y="-7.5" font-family="Helvetica,sans-Serif" font-size="10.00">_from_json.cpp</text>
</a>
</g>
</g>
<!-- Node1&#45;&gt;Node2 -->
<g id="edge1" class="edge">
<title>Node1&#45;&gt;Node2</title>
<path fill="none" stroke="midnightblue" d="M380.65,-96.14C323.37,-84.51 248.48,-68.72 182.5,-53 179.4,-52.26 176.24,-51.49 173.06,-50.71"/>
<polygon fill="midnightblue" stroke="midnightblue" points="380.28,-99.64 390.78,-98.19 381.67,-92.78 380.28,-99.64"/>
</g>
<!-- Node3 -->
<g id="node3" class="node">
<title>Node3</title>
<g id="a_node3"><a xlink:href="java__bytecode__language_8cpp.html" target="_top" xlink:title=" ">
<polygon fill="none" stroke="black" points="191.5,-0.5 191.5,-52.5 373.5,-52.5 373.5,-0.5 191.5,-0.5"/>
<text text-anchor="start" x="199.5" y="-40.5" font-family="Helvetica,sans-Serif" font-size="10.00">/home/runner/work/diffblue</text>
<text text-anchor="start" x="199.5" y="-29.5" font-family="Helvetica,sans-Serif" font-size="10.00">&#45;cbmc/diffblue&#45;cbmc/jbmc</text>
<text text-anchor="start" x="199.5" y="-18.5" font-family="Helvetica,sans-Serif" font-size="10.00">/src/java_bytecode/java_bytecode</text>
<text text-anchor="middle" x="282.5" y="-7.5" font-family="Helvetica,sans-Serif" font-size="10.00">_language.cpp</text>
</a>
</g>
</g>
<!-- Node1&#45;&gt;Node3 -->
<g id="edge2" class="edge">
<title>Node1&#45;&gt;Node3</title>
<path fill="none" stroke="midnightblue" d="M409.38,-85.29C386.05,-74.67 359.9,-62.76 337.43,-52.52"/>
<polygon fill="midnightblue" stroke="midnightblue" points="407.96,-88.49 418.51,-89.45 410.86,-82.12 407.96,-88.49"/>
</g>
<!-- Node4 -->
<g id="node4" class="node">
<title>Node4</title>
<g id="a_node4"><a xlink:href="java__entry__point_8cpp.html" target="_top" xlink:title=" ">
<polygon fill="none" stroke="black" points="392,-0.5 392,-52.5 555,-52.5 555,-0.5 392,-0.5"/>
<text text-anchor="start" x="400" y="-40.5" font-family="Helvetica,sans-Serif" font-size="10.00">/home/runner/work/diffblue</text>
<text text-anchor="start" x="400" y="-29.5" font-family="Helvetica,sans-Serif" font-size="10.00">&#45;cbmc/diffblue&#45;cbmc/jbmc</text>
<text text-anchor="start" x="400" y="-18.5" font-family="Helvetica,sans-Serif" font-size="10.00">/src/java_bytecode/java_entry</text>
<text text-anchor="middle" x="473.5" y="-7.5" font-family="Helvetica,sans-Serif" font-size="10.00">_point.cpp</text>
</a>
</g>
</g>
<!-- Node1&#45;&gt;Node4 -->
<g id="edge3" class="edge">
<title>Node1&#45;&gt;Node4</title>
<path fill="none" stroke="midnightblue" d="M473.5,-79.19C473.5,-70.28 473.5,-60.9 473.5,-52.61"/>
<polygon fill="midnightblue" stroke="midnightblue" points="470,-79.34 473.5,-89.34 477,-79.34 470,-79.34"/>
</g>
<!-- Node5 -->
<g id="node5" class="node">
<title>Node5</title>
<g id="a_node5"><a xlink:href="java__object__factory_8cpp.html" target="_top" xlink:title=" ">
<polygon fill="none" stroke="black" points="573,-0.5 573,-52.5 740,-52.5 740,-0.5 573,-0.5"/>
<text text-anchor="start" x="581" y="-40.5" font-family="Helvetica,sans-Serif" font-size="10.00">/home/runner/work/diffblue</text>
<text text-anchor="start" x="581" y="-29.5" font-family="Helvetica,sans-Serif" font-size="10.00">&#45;cbmc/diffblue&#45;cbmc/jbmc</text>
<text text-anchor="start" x="581" y="-18.5" font-family="Helvetica,sans-Serif" font-size="10.00">/src/java_bytecode/java_object</text>
<text text-anchor="middle" x="656.5" y="-7.5" font-family="Helvetica,sans-Serif" font-size="10.00">_factory.cpp</text>
</a>
</g>
</g>
<!-- Node1&#45;&gt;Node5 -->
<g id="edge4" class="edge">
<title>Node1&#45;&gt;Node5</title>
<path fill="none" stroke="midnightblue" d="M535.73,-84.92C557.82,-74.41 582.46,-62.7 603.69,-52.61"/>
<polygon fill="midnightblue" stroke="midnightblue" points="533.96,-81.88 526.43,-89.34 536.97,-88.2 533.96,-81.88"/>
</g>
<!-- Node6 -->
<g id="node6" class="node">
<title>Node6</title>
<g id="a_node6"><a xlink:href="java__string__literals_8cpp.html" target="_top" xlink:title=" ">
<polygon fill="none" stroke="black" points="758,-0.5 758,-52.5 923,-52.5 923,-0.5 758,-0.5"/>
<text text-anchor="start" x="766" y="-40.5" font-family="Helvetica,sans-Serif" font-size="10.00">/home/runner/work/diffblue</text>
<text text-anchor="start" x="766" y="-29.5" font-family="Helvetica,sans-Serif" font-size="10.00">&#45;cbmc/diffblue&#45;cbmc/jbmc</text>
<text text-anchor="start" x="766" y="-18.5" font-family="Helvetica,sans-Serif" font-size="10.00">/src/java_bytecode/java_string</text>
<text text-anchor="middle" x="840.5" y="-7.5" font-family="Helvetica,sans-Serif" font-size="10.00">_literals.cpp</text>
</a>
</g>
</g>
<!-- Node1&#45;&gt;Node6 -->
<g id="edge5" class="edge">
<title>Node1&#45;&gt;Node6</title>
<path fill="none" stroke="midnightblue" d="M566.05,-95.18C619.78,-83.64 688.65,-68.29 749.5,-53 752.21,-52.32 754.95,-51.62 757.72,-50.9"/>
<polygon fill="midnightblue" stroke="midnightblue" points="565.25,-91.78 556.2,-97.29 566.71,-98.62 565.25,-91.78"/>
</g>
</g>
</svg>
