<?xml version="1.0" encoding="UTF-8" standalone="no"?>
<!DOCTYPE svg PUBLIC "-//W3C//DTD SVG 1.1//EN"
 "http://www.w3.org/Graphics/SVG/1.1/DTD/svg11.dtd">
<!-- Generated by graphviz version 2.43.0 (0)
 -->
<!-- Title: /home/runner/work/diffblue&#45;cbmc/diffblue&#45;cbmc/jbmc/src/java_bytecode/java_static_initializers.h Pages: 1 -->
<svg width="1673pt" height="328pt"
 viewBox="0.00 0.00 1672.50 328.00" xmlns="http://www.w3.org/2000/svg" xmlns:xlink="http://www.w3.org/1999/xlink">
<g id="graph0" class="graph" transform="scale(1 1) rotate(0) translate(4 324)">
<title>/home/runner/work/diffblue&#45;cbmc/diffblue&#45;cbmc/jbmc/src/java_bytecode/java_static_initializers.h</title>
<!-- Node1 -->
<g id="node1" class="node">
<title>Node1</title>
<g id="a_node1"><a xlink:title=" ">
<polygon fill="#bfbfbf" stroke="black" points="660,-267.5 660,-319.5 824,-319.5 824,-267.5 660,-267.5"/>
<text text-anchor="start" x="668" y="-307.5" font-family="Helvetica,sans-Serif" font-size="10.00">/home/runner/work/diffblue</text>
<text text-anchor="start" x="668" y="-296.5" font-family="Helvetica,sans-Serif" font-size="10.00">&#45;cbmc/diffblue&#45;cbmc/jbmc</text>
<text text-anchor="start" x="668" y="-285.5" font-family="Helvetica,sans-Serif" font-size="10.00">/src/java_bytecode/java_static</text>
<text text-anchor="middle" x="742" y="-274.5" font-family="Helvetica,sans-Serif" font-size="10.00">_initializers.h</text>
</a>
</g>
</g>
<!-- Node2 -->
<g id="node2" class="node">
<title>Node2</title>
<g id="a_node2"><a xlink:href="assignments__from__json_8cpp.html" target="_top" xlink:title=" ">
<polygon fill="none" stroke="black" points="54.5,-178.5 54.5,-230.5 227.5,-230.5 227.5,-178.5 54.5,-178.5"/>
<text text-anchor="start" x="62.5" y="-218.5" font-family="Helvetica,sans-Serif" font-size="10.00">/home/runner/work/diffblue</text>
<text text-anchor="start" x="62.5" y="-207.5" font-family="Helvetica,sans-Serif" font-size="10.00">&#45;cbmc/diffblue&#45;cbmc/jbmc</text>
<text text-anchor="start" x="62.5" y="-196.5" font-family="Helvetica,sans-Serif" font-size="10.00">/src/java_bytecode/assignments</text>
<text text-anchor="middle" x="141" y="-185.5" font-family="Helvetica,sans-Serif" font-size="10.00">_from_json.cpp</text>
</a>
</g>
</g>
<!-- Node1&#45;&gt;Node2 -->
<g id="edge1" class="edge">
<title>Node1&#45;&gt;Node2</title>
<path fill="none" stroke="midnightblue" d="M649.68,-285.23C547.78,-276.28 379.2,-258.78 236,-231 233.23,-230.46 230.43,-229.89 227.6,-229.29"/>
<polygon fill="midnightblue" stroke="midnightblue" points="649.68,-288.74 659.94,-286.12 650.28,-281.76 649.68,-288.74"/>
</g>
<!-- Node3 -->
<g id="node3" class="node">
<title>Node3</title>
<g id="a_node3"><a xlink:href="ci__lazy__methods__needed_8cpp.html" target="_top" xlink:title="Context&#45;insensitive lazy methods container.">
<polygon fill="none" stroke="black" points="245.5,-178.5 245.5,-230.5 394.5,-230.5 394.5,-178.5 245.5,-178.5"/>
<text text-anchor="start" x="253.5" y="-218.5" font-family="Helvetica,sans-Serif" font-size="10.00">/home/runner/work/diffblue</text>
<text text-anchor="start" x="253.5" y="-207.5" font-family="Helvetica,sans-Serif" font-size="10.00">&#45;cbmc/diffblue&#45;cbmc/jbmc</text>
<text text-anchor="start" x="253.5" y="-196.5" font-family="Helvetica,sans-Serif" font-size="10.00">/src/java_bytecode/ci_lazy</text>
<text text-anchor="middle" x="320" y="-185.5" font-family="Helvetica,sans-Serif" font-size="10.00">_methods_needed.cpp</text>
</a>
</g>
</g>
<!-- Node1&#45;&gt;Node3 -->
<g id="edge2" class="edge">
<title>Node1&#45;&gt;Node3</title>
<path fill="none" stroke="midnightblue" d="M649.95,-278.68C581.65,-267.72 486.47,-250.95 404,-231 400.89,-230.25 397.72,-229.45 394.53,-228.61"/>
<polygon fill="midnightblue" stroke="midnightblue" points="649.41,-282.14 659.83,-280.26 650.51,-275.22 649.41,-282.14"/>
</g>
<!-- Node4 -->
<g id="node4" class="node">
<title>Node4</title>
<g id="a_node4"><a xlink:href="java__bytecode__convert__method_8cpp.html" target="_top" xlink:title="JAVA Bytecode Language Conversion.">
<polygon fill="none" stroke="black" points="413,-178.5 413,-230.5 595,-230.5 595,-178.5 413,-178.5"/>
<text text-anchor="start" x="421" y="-218.5" font-family="Helvetica,sans-Serif" font-size="10.00">/home/runner/work/diffblue</text>
<text text-anchor="start" x="421" y="-207.5" font-family="Helvetica,sans-Serif" font-size="10.00">&#45;cbmc/diffblue&#45;cbmc/jbmc</text>
<text text-anchor="start" x="421" y="-196.5" font-family="Helvetica,sans-Serif" font-size="10.00">/src/java_bytecode/java_bytecode</text>
<text text-anchor="middle" x="504" y="-185.5" font-family="Helvetica,sans-Serif" font-size="10.00">_convert_method.cpp</text>
</a>
</g>
</g>
<!-- Node1&#45;&gt;Node4 -->
<g id="edge3" class="edge">
<title>Node1&#45;&gt;Node4</title>
<path fill="none" stroke="midnightblue" d="M664.03,-264C634.47,-253.19 601.06,-240.98 572.45,-230.52"/>
<polygon fill="midnightblue" stroke="midnightblue" points="662.89,-267.31 673.48,-267.45 665.29,-260.73 662.89,-267.31"/>
</g>
<!-- Node5 -->
<g id="node5" class="node">
<title>Node5</title>
<g id="a_node5"><a xlink:href="java__bytecode__language_8cpp.html" target="_top" xlink:title=" ">
<polygon fill="none" stroke="black" points="0,-89.5 0,-141.5 182,-141.5 182,-89.5 0,-89.5"/>
<text text-anchor="start" x="8" y="-129.5" font-family="Helvetica,sans-Serif" font-size="10.00">/home/runner/work/diffblue</text>
<text text-anchor="start" x="8" y="-118.5" font-family="Helvetica,sans-Serif" font-size="10.00">&#45;cbmc/diffblue&#45;cbmc/jbmc</text>
<text text-anchor="start" x="8" y="-107.5" font-family="Helvetica,sans-Serif" font-size="10.00">/src/java_bytecode/java_bytecode</text>
<text text-anchor="middle" x="91" y="-96.5" font-family="Helvetica,sans-Serif" font-size="10.00">_language.cpp</text>
</a>
</g>
</g>
<!-- Node1&#45;&gt;Node5 -->
<g id="edge4" class="edge">
<title>Node1&#45;&gt;Node5</title>
<path fill="none" stroke="midnightblue" d="M683.79,-262.07C669.32,-253.11 654.41,-242.56 642,-231 620.79,-211.24 629.17,-192.38 604,-178 526.12,-133.51 290.58,-156.07 202,-142 195.56,-140.98 188.93,-139.79 182.27,-138.51"/>
<polygon fill="midnightblue" stroke="midnightblue" points="682.35,-265.29 692.72,-267.45 685.96,-259.29 682.35,-265.29"/>
</g>
<!-- Node6 -->
<g id="node6" class="node">
<title>Node6</title>
<g id="a_node6"><a xlink:href="java__bytecode__language_8h.html" target="_top" xlink:title=" ">
<polygon fill="none" stroke="black" points="651,-178.5 651,-230.5 833,-230.5 833,-178.5 651,-178.5"/>
<text text-anchor="start" x="659" y="-218.5" font-family="Helvetica,sans-Serif" font-size="10.00">/home/runner/work/diffblue</text>
<text text-anchor="start" x="659" y="-207.5" font-family="Helvetica,sans-Serif" font-size="10.00">&#45;cbmc/diffblue&#45;cbmc/jbmc</text>
<text text-anchor="start" x="659" y="-196.5" font-family="Helvetica,sans-Serif" font-size="10.00">/src/java_bytecode/java_bytecode</text>
<text text-anchor="middle" x="742" y="-185.5" font-family="Helvetica,sans-Serif" font-size="10.00">_language.h</text>
</a>
</g>
</g>
<!-- Node1&#45;&gt;Node6 -->
<g id="edge5" class="edge">
<title>Node1&#45;&gt;Node6</title>
<path fill="none" stroke="midnightblue" d="M742,-257.19C742,-248.28 742,-238.9 742,-230.61"/>
<polygon fill="midnightblue" stroke="midnightblue" points="738.5,-257.34 742,-267.34 745.5,-257.34 738.5,-257.34"/>
</g>
<!-- Node19 -->
<g id="node19" class="node">
<title>Node19</title>
<g id="a_node19"><a xlink:href="java__object__factory_8cpp.html" target="_top" xlink:title=" ">
<polygon fill="none" stroke="black" points="851.5,-178.5 851.5,-230.5 1018.5,-230.5 1018.5,-178.5 851.5,-178.5"/>
<text text-anchor="start" x="859.5" y="-218.5" font-family="Helvetica,sans-Serif" font-size="10.00">/home/runner/work/diffblue</text>
<text text-anchor="start" x="859.5" y="-207.5" font-family="Helvetica,sans-Serif" font-size="10.00">&#45;cbmc/diffblue&#45;cbmc/jbmc</text>
<text text-anchor="start" x="859.5" y="-196.5" font-family="Helvetica,sans-Serif" font-size="10.00">/src/java_bytecode/java_object</text>
<text text-anchor="middle" x="935" y="-185.5" font-family="Helvetica,sans-Serif" font-size="10.00">_factory.cpp</text>
</a>
</g>
</g>
<!-- Node1&#45;&gt;Node19 -->
<g id="edge21" class="edge">
<title>Node1&#45;&gt;Node19</title>
<path fill="none" stroke="midnightblue" d="M806.79,-263.29C830.37,-252.67 856.79,-240.76 879.49,-230.52"/>
<polygon fill="midnightblue" stroke="midnightblue" points="805.24,-260.15 797.56,-267.45 808.12,-266.53 805.24,-260.15"/>
</g>
<!-- Node20 -->
<g id="node20" class="node">
<title>Node20</title>
<g id="a_node20"><a xlink:href="java__static__initializers_8cpp.html" target="_top" xlink:title=" ">
<polygon fill="none" stroke="black" points="1037,-178.5 1037,-230.5 1201,-230.5 1201,-178.5 1037,-178.5"/>
<text text-anchor="start" x="1045" y="-218.5" font-family="Helvetica,sans-Serif" font-size="10.00">/home/runner/work/diffblue</text>
<text text-anchor="start" x="1045" y="-207.5" font-family="Helvetica,sans-Serif" font-size="10.00">&#45;cbmc/diffblue&#45;cbmc/jbmc</text>
<text text-anchor="start" x="1045" y="-196.5" font-family="Helvetica,sans-Serif" font-size="10.00">/src/java_bytecode/java_static</text>
<text text-anchor="middle" x="1119" y="-185.5" font-family="Helvetica,sans-Serif" font-size="10.00">_initializers.cpp</text>
</a>
</g>
</g>
<!-- Node1&#45;&gt;Node20 -->
<g id="edge22" class="edge">
<title>Node1&#45;&gt;Node20</title>
<path fill="none" stroke="midnightblue" d="M834.22,-274.17C890.42,-262.62 963.58,-246.94 1028,-231 1030.87,-230.29 1033.78,-229.56 1036.72,-228.8"/>
<polygon fill="midnightblue" stroke="midnightblue" points="833.38,-270.77 824.29,-276.2 834.79,-277.62 833.38,-270.77"/>
</g>
<!-- Node21 -->
<g id="node21" class="node">
<title>Node21</title>
<g id="a_node21"><a xlink:href="lambda__synthesis_8cpp.html" target="_top" xlink:title="Java lambda code synthesis.">
<polygon fill="none" stroke="black" points="1219.5,-178.5 1219.5,-230.5 1368.5,-230.5 1368.5,-178.5 1219.5,-178.5"/>
<text text-anchor="start" x="1227.5" y="-218.5" font-family="Helvetica,sans-Serif" font-size="10.00">/home/runner/work/diffblue</text>
<text text-anchor="start" x="1227.5" y="-207.5" font-family="Helvetica,sans-Serif" font-size="10.00">&#45;cbmc/diffblue&#45;cbmc/jbmc</text>
<text text-anchor="start" x="1227.5" y="-196.5" font-family="Helvetica,sans-Serif" font-size="10.00">/src/java_bytecode/lambda</text>
<text text-anchor="middle" x="1294" y="-185.5" font-family="Helvetica,sans-Serif" font-size="10.00">_synthesis.cpp</text>
</a>
</g>
</g>
<!-- Node1&#45;&gt;Node21 -->
<g id="edge23" class="edge">
<title>Node1&#45;&gt;Node21</title>
<path fill="none" stroke="midnightblue" d="M834.43,-284.87C929.39,-275.97 1081.13,-258.83 1210,-231 1212.98,-230.36 1216.01,-229.66 1219.05,-228.92"/>
<polygon fill="midnightblue" stroke="midnightblue" points="833.92,-281.4 824.28,-285.81 834.56,-288.37 833.92,-281.4"/>
</g>
<!-- Node22 -->
<g id="node22" class="node">
<title>Node22</title>
<g id="a_node22"><a xlink:href="lift__clinit__calls_8cpp.html" target="_top" xlink:title=" ">
<polygon fill="none" stroke="black" points="1386.5,-178.5 1386.5,-230.5 1539.5,-230.5 1539.5,-178.5 1386.5,-178.5"/>
<text text-anchor="start" x="1394.5" y="-218.5" font-family="Helvetica,sans-Serif" font-size="10.00">/home/runner/work/diffblue</text>
<text text-anchor="start" x="1394.5" y="-207.5" font-family="Helvetica,sans-Serif" font-size="10.00">&#45;cbmc/diffblue&#45;cbmc/jbmc</text>
<text text-anchor="start" x="1394.5" y="-196.5" font-family="Helvetica,sans-Serif" font-size="10.00">/src/java_bytecode/lift_clinit</text>
<text text-anchor="middle" x="1463" y="-185.5" font-family="Helvetica,sans-Serif" font-size="10.00">_calls.cpp</text>
</a>
</g>
</g>
<!-- Node1&#45;&gt;Node22 -->
<g id="edge24" class="edge">
<title>Node1&#45;&gt;Node22</title>
<path fill="none" stroke="midnightblue" d="M834.31,-289.22C958.79,-283.51 1186.89,-268.53 1378,-231 1380.72,-230.47 1383.48,-229.88 1386.26,-229.25"/>
<polygon fill="midnightblue" stroke="midnightblue" points="833.89,-285.73 824.06,-289.68 834.2,-292.72 833.89,-285.73"/>
</g>
<!-- Node6&#45;&gt;Node5 -->
<g id="edge11" class="edge">
<title>Node6&#45;&gt;Node5</title>
<path fill="none" stroke="midnightblue" d="M640.85,-178.64C639.56,-178.42 638.28,-178.21 637,-178 442.86,-146.7 390.14,-173.3 196,-142 191.46,-141.27 186.83,-140.44 182.17,-139.55"/>
<polygon fill="midnightblue" stroke="midnightblue" points="640.37,-182.11 650.83,-180.45 641.62,-175.22 640.37,-182.11"/>
</g>
<!-- Node7 -->
<g id="node7" class="node">
<title>Node7</title>
<g id="a_node7"><a xlink:href="janalyzer__parse__options_8cpp.html" target="_top" xlink:title="JANALYZER Command Line Option Processing.">
<polygon fill="none" stroke="black" points="135.5,-0.5 135.5,-52.5 284.5,-52.5 284.5,-0.5 135.5,-0.5"/>
<text text-anchor="start" x="143.5" y="-40.5" font-family="Helvetica,sans-Serif" font-size="10.00">/home/runner/work/diffblue</text>
<text text-anchor="start" x="143.5" y="-29.5" font-family="Helvetica,sans-Serif" font-size="10.00">&#45;cbmc/diffblue&#45;cbmc/jbmc</text>
<text text-anchor="start" x="143.5" y="-18.5" font-family="Helvetica,sans-Serif" font-size="10.00">/src/janalyzer/janalyzer</text>
<text text-anchor="middle" x="210" y="-7.5" font-family="Helvetica,sans-Serif" font-size="10.00">_parse_options.cpp</text>
</a>
</g>
</g>
<!-- Node6&#45;&gt;Node7 -->
<g id="edge6" class="edge">
<title>Node6&#45;&gt;Node7</title>
<path fill="none" stroke="midnightblue" d="M640.85,-178.65C639.56,-178.43 638.28,-178.21 637,-178 546.97,-163.19 294.68,-204.28 228,-142 203.88,-119.47 203.28,-78.82 205.96,-52.51"/>
<polygon fill="midnightblue" stroke="midnightblue" points="640.36,-182.12 650.83,-180.49 641.62,-175.23 640.36,-182.12"/>
</g>
<!-- Node8 -->
<g id="node8" class="node">
<title>Node8</title>
<g id="a_node8"><a xlink:href="janalyzer__parse__options_8h.html" target="_top" xlink:title="JANALYZER Command Line Option Processing.">
<polygon fill="none" stroke="black" points="237.5,-89.5 237.5,-141.5 386.5,-141.5 386.5,-89.5 237.5,-89.5"/>
<text text-anchor="start" x="245.5" y="-129.5" font-family="Helvetica,sans-Serif" font-size="10.00">/home/runner/work/diffblue</text>
<text text-anchor="start" x="245.5" y="-118.5" font-family="Helvetica,sans-Serif" font-size="10.00">&#45;cbmc/diffblue&#45;cbmc/jbmc</text>
<text text-anchor="start" x="245.5" y="-107.5" font-family="Helvetica,sans-Serif" font-size="10.00">/src/janalyzer/janalyzer</text>
<text text-anchor="middle" x="312" y="-96.5" font-family="Helvetica,sans-Serif" font-size="10.00">_parse_options.h</text>
</a>
</g>
</g>
<!-- Node6&#45;&gt;Node8 -->
<g id="edge7" class="edge">
<title>Node6&#45;&gt;Node8</title>
<path fill="none" stroke="midnightblue" d="M640.83,-178.76C639.55,-178.5 638.27,-178.25 637,-178 530.28,-157.15 501.05,-166.04 395,-142 392.21,-141.37 389.37,-140.69 386.51,-139.97"/>
<polygon fill="midnightblue" stroke="midnightblue" points="640.26,-182.22 650.77,-180.82 641.69,-175.36 640.26,-182.22"/>
</g>
<!-- Node10 -->
<g id="node10" class="node">
<title>Node10</title>
<g id="a_node10"><a xlink:href="ci__lazy__methods_8cpp.html" target="_top" xlink:title=" ">
<polygon fill="none" stroke="black" points="404.5,-89.5 404.5,-141.5 553.5,-141.5 553.5,-89.5 404.5,-89.5"/>
<text text-anchor="start" x="412.5" y="-129.5" font-family="Helvetica,sans-Serif" font-size="10.00">/home/runner/work/diffblue</text>
<text text-anchor="start" x="412.5" y="-118.5" font-family="Helvetica,sans-Serif" font-size="10.00">&#45;cbmc/diffblue&#45;cbmc/jbmc</text>
<text text-anchor="start" x="412.5" y="-107.5" font-family="Helvetica,sans-Serif" font-size="10.00">/src/java_bytecode/ci_lazy</text>
<text text-anchor="middle" x="479" y="-96.5" font-family="Helvetica,sans-Serif" font-size="10.00">_methods.cpp</text>
</a>
</g>
</g>
<!-- Node6&#45;&gt;Node10 -->
<g id="edge10" class="edge">
<title>Node6&#45;&gt;Node10</title>
<path fill="none" stroke="midnightblue" d="M656.6,-175.25C623.44,-164.28 585.8,-151.83 553.73,-141.22"/>
<polygon fill="midnightblue" stroke="midnightblue" points="655.69,-178.63 666.28,-178.45 657.89,-171.99 655.69,-178.63"/>
</g>
<!-- Node11 -->
<g id="node11" class="node">
<title>Node11</title>
<g id="a_node11"><a xlink:href="java__entry__point_8cpp.html" target="_top" xlink:title=" ">
<polygon fill="none" stroke="black" points="571.5,-89.5 571.5,-141.5 734.5,-141.5 734.5,-89.5 571.5,-89.5"/>
<text text-anchor="start" x="579.5" y="-129.5" font-family="Helvetica,sans-Serif" font-size="10.00">/home/runner/work/diffblue</text>
<text text-anchor="start" x="579.5" y="-118.5" font-family="Helvetica,sans-Serif" font-size="10.00">&#45;cbmc/diffblue&#45;cbmc/jbmc</text>
<text text-anchor="start" x="579.5" y="-107.5" font-family="Helvetica,sans-Serif" font-size="10.00">/src/java_bytecode/java_entry</text>
<text text-anchor="middle" x="653" y="-96.5" font-family="Helvetica,sans-Serif" font-size="10.00">_point.cpp</text>
</a>
</g>
</g>
<!-- Node6&#45;&gt;Node11 -->
<g id="edge12" class="edge">
<title>Node6&#45;&gt;Node11</title>
<path fill="none" stroke="midnightblue" d="M708.83,-171.08C698.87,-161.34 688.09,-150.8 678.68,-141.61"/>
<polygon fill="midnightblue" stroke="midnightblue" points="706.66,-173.85 716.26,-178.34 711.55,-168.84 706.66,-173.85"/>
</g>
<!-- Node12 -->
<g id="node12" class="node">
<title>Node12</title>
<g id="a_node12"><a xlink:href="lazy__goto__model_8cpp.html" target="_top" xlink:title="Author: Diffblue Ltd.">
<polygon fill="none" stroke="black" points="753,-89.5 753,-141.5 911,-141.5 911,-89.5 753,-89.5"/>
<text text-anchor="start" x="761" y="-129.5" font-family="Helvetica,sans-Serif" font-size="10.00">/home/runner/work/diffblue</text>
<text text-anchor="start" x="761" y="-118.5" font-family="Helvetica,sans-Serif" font-size="10.00">&#45;cbmc/diffblue&#45;cbmc/jbmc</text>
<text text-anchor="start" x="761" y="-107.5" font-family="Helvetica,sans-Serif" font-size="10.00">/src/java_bytecode/lazy_goto</text>
<text text-anchor="middle" x="832" y="-96.5" font-family="Helvetica,sans-Serif" font-size="10.00">_model.cpp</text>
</a>
</g>
</g>
<!-- Node6&#45;&gt;Node12 -->
<g id="edge13" class="edge">
<title>Node6&#45;&gt;Node12</title>
<path fill="none" stroke="midnightblue" d="M775.25,-171.36C785.4,-161.54 796.42,-150.89 806.03,-141.61"/>
<polygon fill="midnightblue" stroke="midnightblue" points="772.79,-168.87 768.03,-178.34 777.65,-173.9 772.79,-168.87"/>
</g>
<!-- Node13 -->
<g id="node13" class="node">
<title>Node13</title>
<g id="a_node13"><a xlink:href="jbmc__parse__options_8cpp.html" target="_top" xlink:title="JBMC Command Line Option Processing.">
<polygon fill="none" stroke="black" points="848,-6 848,-47 1030,-47 1030,-6 848,-6"/>
<text text-anchor="start" x="856" y="-35" font-family="Helvetica,sans-Serif" font-size="10.00">/home/runner/work/diffblue</text>
<text text-anchor="start" x="856" y="-24" font-family="Helvetica,sans-Serif" font-size="10.00">&#45;cbmc/diffblue&#45;cbmc/jbmc</text>
<text text-anchor="middle" x="939" y="-13" font-family="Helvetica,sans-Serif" font-size="10.00">/src/jbmc/jbmc_parse_options.cpp</text>
</a>
</g>
</g>
<!-- Node6&#45;&gt;Node13 -->
<g id="edge14" class="edge">
<title>Node6&#45;&gt;Node13</title>
<path fill="none" stroke="midnightblue" d="M836.91,-175.28C876.07,-162.8 913.83,-149.31 920,-142 942.49,-115.37 943.26,-72.44 941.4,-47.4"/>
<polygon fill="midnightblue" stroke="midnightblue" points="835.42,-172.08 826.94,-178.43 837.53,-178.76 835.42,-172.08"/>
</g>
<!-- Node14 -->
<g id="node14" class="node">
<title>Node14</title>
<g id="a_node14"><a xlink:href="jbmc__parse__options_8h.html" target="_top" xlink:title="JBMC Command Line Option Processing.">
<polygon fill="none" stroke="black" points="967,-95 967,-136 1137,-136 1137,-95 967,-95"/>
<text text-anchor="start" x="975" y="-124" font-family="Helvetica,sans-Serif" font-size="10.00">/home/runner/work/diffblue</text>
<text text-anchor="start" x="975" y="-113" font-family="Helvetica,sans-Serif" font-size="10.00">&#45;cbmc/diffblue&#45;cbmc/jbmc</text>
<text text-anchor="middle" x="1052" y="-102" font-family="Helvetica,sans-Serif" font-size="10.00">/src/jbmc/jbmc_parse_options.h</text>
</a>
</g>
</g>
<!-- Node6&#45;&gt;Node14 -->
<g id="edge15" class="edge">
<title>Node6&#45;&gt;Node14</title>
<path fill="none" stroke="midnightblue" d="M840.93,-175.74C886.86,-162.85 940.38,-147.82 982.04,-136.13"/>
<polygon fill="midnightblue" stroke="midnightblue" points="839.93,-172.38 831.25,-178.45 841.82,-179.12 839.93,-172.38"/>
</g>
<!-- Node16 -->
<g id="node16" class="node">
<title>Node16</title>
<g id="a_node16"><a xlink:href="jdiff__languages_8cpp.html" target="_top" xlink:title="Language Registration.">
<polygon fill="none" stroke="black" points="1155.5,-95 1155.5,-136 1308.5,-136 1308.5,-95 1155.5,-95"/>
<text text-anchor="start" x="1163.5" y="-124" font-family="Helvetica,sans-Serif" font-size="10.00">/home/runner/work/diffblue</text>
<text text-anchor="start" x="1163.5" y="-113" font-family="Helvetica,sans-Serif" font-size="10.00">&#45;cbmc/diffblue&#45;cbmc/jbmc</text>
<text text-anchor="middle" x="1232" y="-102" font-family="Helvetica,sans-Serif" font-size="10.00">/src/jdiff/jdiff_languages.cpp</text>
</a>
</g>
</g>
<!-- Node6&#45;&gt;Node16 -->
<g id="edge18" class="edge">
<title>Node6&#45;&gt;Node16</title>
<path fill="none" stroke="midnightblue" d="M843.16,-178.1C978.13,-154.08 1016.29,-168.73 1146,-142 1154.08,-140.33 1162.51,-138.26 1170.78,-136.03"/>
<polygon fill="midnightblue" stroke="midnightblue" points="842.48,-174.66 833.27,-179.89 843.74,-181.55 842.48,-174.66"/>
</g>
<!-- Node17 -->
<g id="node17" class="node">
<title>Node17</title>
<g id="a_node17"><a xlink:href="jdiff__parse__options_8cpp.html" target="_top" xlink:title="JDIFF Command Line Option Processing.">
<polygon fill="none" stroke="black" points="1326.5,-95 1326.5,-136 1497.5,-136 1497.5,-95 1326.5,-95"/>
<text text-anchor="start" x="1334.5" y="-124" font-family="Helvetica,sans-Serif" font-size="10.00">/home/runner/work/diffblue</text>
<text text-anchor="start" x="1334.5" y="-113" font-family="Helvetica,sans-Serif" font-size="10.00">&#45;cbmc/diffblue&#45;cbmc/jbmc</text>
<text text-anchor="middle" x="1412" y="-102" font-family="Helvetica,sans-Serif" font-size="10.00">/src/jdiff/jdiff_parse_options.cpp</text>
</a>
</g>
</g>
<!-- Node6&#45;&gt;Node17 -->
<g id="edge19" class="edge">
<title>Node6&#45;&gt;Node17</title>
<path fill="none" stroke="midnightblue" d="M843.38,-178.09C1053.79,-145 1112.61,-177.32 1318,-142 1327.17,-140.42 1336.73,-138.35 1346.1,-136.06"/>
<polygon fill="midnightblue" stroke="midnightblue" points="842.56,-174.68 833.24,-179.72 843.67,-181.59 842.56,-174.68"/>
</g>
<!-- Node18 -->
<g id="node18" class="node">
<title>Node18</title>
<g id="a_node18"><a xlink:href="load__java__class_8cpp.html" target="_top" xlink:title=" ">
<polygon fill="none" stroke="black" points="1515.5,-89.5 1515.5,-141.5 1664.5,-141.5 1664.5,-89.5 1515.5,-89.5"/>
<text text-anchor="start" x="1523.5" y="-129.5" font-family="Helvetica,sans-Serif" font-size="10.00">/home/runner/work/diffblue</text>
<text text-anchor="start" x="1523.5" y="-118.5" font-family="Helvetica,sans-Serif" font-size="10.00">&#45;cbmc/diffblue&#45;cbmc/jbmc</text>
<text text-anchor="start" x="1523.5" y="-107.5" font-family="Helvetica,sans-Serif" font-size="10.00">/unit/java&#45;testing&#45;utils</text>
<text text-anchor="middle" x="1590" y="-96.5" font-family="Helvetica,sans-Serif" font-size="10.00">/load_java_class.cpp</text>
</a>
</g>
</g>
<!-- Node6&#45;&gt;Node18 -->
<g id="edge20" class="edge">
<title>Node6&#45;&gt;Node18</title>
<path fill="none" stroke="midnightblue" d="M843.32,-178.12C1137.04,-134.96 1219.3,-193.2 1507,-142 1509.67,-141.52 1512.38,-140.99 1515.1,-140.41"/>
<polygon fill="midnightblue" stroke="midnightblue" points="842.6,-174.69 833.23,-179.63 843.64,-181.61 842.6,-174.69"/>
</g>
<!-- Node8&#45;&gt;Node7 -->
<g id="edge9" class="edge">
<title>Node8&#45;&gt;Node7</title>
<path fill="none" stroke="midnightblue" d="M274.66,-82.65C263.05,-72.75 250.42,-61.98 239.44,-52.61"/>
<polygon fill="midnightblue" stroke="midnightblue" points="272.62,-85.51 282.5,-89.34 277.16,-80.18 272.62,-85.51"/>
</g>
<!-- Node9 -->
<g id="node9" class="node">
<title>Node9</title>
<g id="a_node9"><a xlink:href="janalyzer__main_8cpp.html" target="_top" xlink:title="JANALYZER Main Module.">
<polygon fill="none" stroke="black" points="302.5,-0.5 302.5,-52.5 451.5,-52.5 451.5,-0.5 302.5,-0.5"/>
<text text-anchor="start" x="310.5" y="-40.5" font-family="Helvetica,sans-Serif" font-size="10.00">/home/runner/work/diffblue</text>
<text text-anchor="start" x="310.5" y="-29.5" font-family="Helvetica,sans-Serif" font-size="10.00">&#45;cbmc/diffblue&#45;cbmc/jbmc</text>
<text text-anchor="start" x="310.5" y="-18.5" font-family="Helvetica,sans-Serif" font-size="10.00">/src/janalyzer/janalyzer</text>
<text text-anchor="middle" x="377" y="-7.5" font-family="Helvetica,sans-Serif" font-size="10.00">_main.cpp</text>
</a>
</g>
</g>
<!-- Node8&#45;&gt;Node9 -->
<g id="edge8" class="edge">
<title>Node8&#45;&gt;Node9</title>
<path fill="none" stroke="midnightblue" d="M336.87,-81.22C343.96,-71.72 351.58,-61.53 358.24,-52.61"/>
<polygon fill="midnightblue" stroke="midnightblue" points="333.98,-79.23 330.8,-89.34 339.59,-83.42 333.98,-79.23"/>
</g>
<!-- Node14&#45;&gt;Node13 -->
<g id="edge17" class="edge">
<title>Node14&#45;&gt;Node13</title>
<path fill="none" stroke="midnightblue" d="M1018.5,-88.71C1001.27,-75.44 980.61,-59.53 964.67,-47.26"/>
<polygon fill="midnightblue" stroke="midnightblue" points="1016.58,-91.65 1026.64,-94.98 1020.85,-86.1 1016.58,-91.65"/>
</g>
<!-- Node15 -->
<g id="node15" class="node">
<title>Node15</title>
<g id="a_node15"><a xlink:href="jbmc__main_8cpp.html" target="_top" xlink:title="CBMC Main Module.">
<polygon fill="none" stroke="black" points="1048.5,-6 1048.5,-47 1197.5,-47 1197.5,-6 1048.5,-6"/>
<text text-anchor="start" x="1056.5" y="-35" font-family="Helvetica,sans-Serif" font-size="10.00">/home/runner/work/diffblue</text>
<text text-anchor="start" x="1056.5" y="-24" font-family="Helvetica,sans-Serif" font-size="10.00">&#45;cbmc/diffblue&#45;cbmc/jbmc</text>
<text text-anchor="middle" x="1123" y="-13" font-family="Helvetica,sans-Serif" font-size="10.00">/src/jbmc/jbmc_main.cpp</text>
</a>
</g>
</g>
<!-- Node14&#45;&gt;Node15 -->
<g id="edge16" class="edge">
<title>Node14&#45;&gt;Node15</title>
<path fill="none" stroke="midnightblue" d="M1074.72,-86.67C1085.21,-73.8 1097.43,-58.83 1106.95,-47.16"/>
<polygon fill="midnightblue" stroke="midnightblue" points="1071.72,-84.8 1068.11,-94.76 1077.15,-89.22 1071.72,-84.8"/>
</g>
</g>
</svg>
