<?xml version="1.0" encoding="UTF-8" standalone="no"?>
<!DOCTYPE svg PUBLIC "-//W3C//DTD SVG 1.1//EN"
 "http://www.w3.org/Graphics/SVG/1.1/DTD/svg11.dtd">
<!-- Generated by graphviz version 2.43.0 (0)
 -->
<!-- Title: /home/runner/work/diffblue&#45;cbmc/diffblue&#45;cbmc/jbmc/src/java_bytecode/java_bmc_util.h Pages: 1 -->
<svg width="899pt" height="228pt"
 viewBox="0.00 0.00 898.50 228.00" xmlns="http://www.w3.org/2000/svg" xmlns:xlink="http://www.w3.org/1999/xlink">
<g id="graph0" class="graph" transform="scale(1 1) rotate(0) translate(4 224)">
<title>/home/runner/work/diffblue&#45;cbmc/diffblue&#45;cbmc/jbmc/src/java_bytecode/java_bmc_util.h</title>
<!-- Node1 -->
<g id="node1" class="node">
<title>Node1</title>
<g id="a_node1"><a xlink:title="Bounded Model Checking Utils for Java.">
<polygon fill="#bfbfbf" stroke="black" points="345,-178.5 345,-219.5 533,-219.5 533,-178.5 345,-178.5"/>
<text text-anchor="start" x="353" y="-207.5" font-family="Helvetica,sans-Serif" font-size="10.00">/home/runner/work/diffblue</text>
<text text-anchor="start" x="353" y="-196.5" font-family="Helvetica,sans-Serif" font-size="10.00">&#45;cbmc/diffblue&#45;cbmc/jbmc</text>
<text text-anchor="middle" x="439" y="-185.5" font-family="Helvetica,sans-Serif" font-size="10.00">/src/java_bytecode/java_bmc_util.h</text>
</a>
</g>
</g>
<!-- Node2 -->
<g id="node2" class="node">
<title>Node2</title>
<g id="a_node2"><a xlink:href="java__bmc__util_8cpp.html" target="_top" xlink:title="Bounded Model Checking Utils for Java.">
<polygon fill="none" stroke="black" points="0,-89.5 0,-141.5 158,-141.5 158,-89.5 0,-89.5"/>
<text text-anchor="start" x="8" y="-129.5" font-family="Helvetica,sans-Serif" font-size="10.00">/home/runner/work/diffblue</text>
<text text-anchor="start" x="8" y="-118.5" font-family="Helvetica,sans-Serif" font-size="10.00">&#45;cbmc/diffblue&#45;cbmc/jbmc</text>
<text text-anchor="start" x="8" y="-107.5" font-family="Helvetica,sans-Serif" font-size="10.00">/src/java_bytecode/java_bmc</text>
<text text-anchor="middle" x="79" y="-96.5" font-family="Helvetica,sans-Serif" font-size="10.00">_util.cpp</text>
</a>
</g>
</g>
<!-- Node1&#45;&gt;Node2 -->
<g id="edge1" class="edge">
<title>Node1&#45;&gt;Node2</title>
<path fill="none" stroke="midnightblue" d="M334.79,-178.55C283.97,-168.55 222.06,-155.62 167,-142 164.07,-141.27 161.08,-140.52 158.07,-139.73"/>
<polygon fill="midnightblue" stroke="midnightblue" points="334.32,-182.02 344.81,-180.51 335.66,-175.15 334.32,-182.02"/>
</g>
<!-- Node3 -->
<g id="node3" class="node">
<title>Node3</title>
<g id="a_node3"><a xlink:href="java__multi__path__symex__checker_8h.html" target="_top" xlink:title="Goto Checker using Bounded Model Checking for Java.">
<polygon fill="none" stroke="black" points="176.5,-89.5 176.5,-141.5 339.5,-141.5 339.5,-89.5 176.5,-89.5"/>
<text text-anchor="start" x="184.5" y="-129.5" font-family="Helvetica,sans-Serif" font-size="10.00">/home/runner/work/diffblue</text>
<text text-anchor="start" x="184.5" y="-118.5" font-family="Helvetica,sans-Serif" font-size="10.00">&#45;cbmc/diffblue&#45;cbmc/jbmc</text>
<text text-anchor="start" x="184.5" y="-107.5" font-family="Helvetica,sans-Serif" font-size="10.00">/src/java_bytecode/java_multi</text>
<text text-anchor="middle" x="258" y="-96.5" font-family="Helvetica,sans-Serif" font-size="10.00">_path_symex_checker.h</text>
</a>
</g>
</g>
<!-- Node1&#45;&gt;Node3 -->
<g id="edge2" class="edge">
<title>Node1&#45;&gt;Node3</title>
<path fill="none" stroke="midnightblue" d="M386.45,-174.34C363.63,-164.06 336.86,-152.01 313.69,-141.58"/>
<polygon fill="midnightblue" stroke="midnightblue" points="385.09,-177.56 395.65,-178.48 387.96,-171.18 385.09,-177.56"/>
</g>
<!-- Node6 -->
<g id="node6" class="node">
<title>Node6</title>
<g id="a_node6"><a xlink:href="java__multi__path__symex__only__checker_8h.html" target="_top" xlink:title="Goto Checker using Bounded Model Checking for Java.">
<polygon fill="none" stroke="black" points="357.5,-89.5 357.5,-141.5 520.5,-141.5 520.5,-89.5 357.5,-89.5"/>
<text text-anchor="start" x="365.5" y="-129.5" font-family="Helvetica,sans-Serif" font-size="10.00">/home/runner/work/diffblue</text>
<text text-anchor="start" x="365.5" y="-118.5" font-family="Helvetica,sans-Serif" font-size="10.00">&#45;cbmc/diffblue&#45;cbmc/jbmc</text>
<text text-anchor="start" x="365.5" y="-107.5" font-family="Helvetica,sans-Serif" font-size="10.00">/src/java_bytecode/java_multi</text>
<text text-anchor="middle" x="439" y="-96.5" font-family="Helvetica,sans-Serif" font-size="10.00">_path_symex_only_checker.h</text>
</a>
</g>
</g>
<!-- Node1&#45;&gt;Node6 -->
<g id="edge5" class="edge">
<title>Node1&#45;&gt;Node6</title>
<path fill="none" stroke="midnightblue" d="M439,-168.12C439,-159.41 439,-149.99 439,-141.61"/>
<polygon fill="midnightblue" stroke="midnightblue" points="435.5,-168.27 439,-178.27 442.5,-168.27 435.5,-168.27"/>
</g>
<!-- Node7 -->
<g id="node7" class="node">
<title>Node7</title>
<g id="a_node7"><a xlink:href="java__single__path__symex__checker_8h.html" target="_top" xlink:title="Goto Checker using Single Path Symbolic Execution for Java.">
<polygon fill="none" stroke="black" points="723.5,-89.5 723.5,-141.5 890.5,-141.5 890.5,-89.5 723.5,-89.5"/>
<text text-anchor="start" x="731.5" y="-129.5" font-family="Helvetica,sans-Serif" font-size="10.00">/home/runner/work/diffblue</text>
<text text-anchor="start" x="731.5" y="-118.5" font-family="Helvetica,sans-Serif" font-size="10.00">&#45;cbmc/diffblue&#45;cbmc/jbmc</text>
<text text-anchor="start" x="731.5" y="-107.5" font-family="Helvetica,sans-Serif" font-size="10.00">/src/java_bytecode/java_single</text>
<text text-anchor="middle" x="807" y="-96.5" font-family="Helvetica,sans-Serif" font-size="10.00">_path_symex_checker.h</text>
</a>
</g>
</g>
<!-- Node1&#45;&gt;Node7 -->
<g id="edge7" class="edge">
<title>Node1&#45;&gt;Node7</title>
<path fill="none" stroke="midnightblue" d="M543.04,-178.51C594.64,-168.42 657.79,-155.41 714,-142 717.09,-141.26 720.24,-140.49 723.42,-139.7"/>
<polygon fill="midnightblue" stroke="midnightblue" points="542.36,-175.08 533.21,-180.43 543.69,-181.95 542.36,-175.08"/>
</g>
<!-- Node9 -->
<g id="node9" class="node">
<title>Node9</title>
<g id="a_node9"><a xlink:href="java__single__path__symex__only__checker_8h.html" target="_top" xlink:title="Goto Checker using Single Path Symbolic Execution for Java.">
<polygon fill="none" stroke="black" points="538.5,-89.5 538.5,-141.5 705.5,-141.5 705.5,-89.5 538.5,-89.5"/>
<text text-anchor="start" x="546.5" y="-129.5" font-family="Helvetica,sans-Serif" font-size="10.00">/home/runner/work/diffblue</text>
<text text-anchor="start" x="546.5" y="-118.5" font-family="Helvetica,sans-Serif" font-size="10.00">&#45;cbmc/diffblue&#45;cbmc/jbmc</text>
<text text-anchor="start" x="546.5" y="-107.5" font-family="Helvetica,sans-Serif" font-size="10.00">/src/java_bytecode/java_single</text>
<text text-anchor="middle" x="622" y="-96.5" font-family="Helvetica,sans-Serif" font-size="10.00">_path_symex_only_checker.h</text>
</a>
</g>
</g>
<!-- Node1&#45;&gt;Node9 -->
<g id="edge10" class="edge">
<title>Node1&#45;&gt;Node9</title>
<path fill="none" stroke="midnightblue" d="M492.13,-174.34C515.21,-164.06 542.27,-152.01 565.69,-141.58"/>
<polygon fill="midnightblue" stroke="midnightblue" points="490.54,-171.21 482.83,-178.48 493.39,-177.61 490.54,-171.21"/>
</g>
<!-- Node4 -->
<g id="node4" class="node">
<title>Node4</title>
<g id="a_node4"><a xlink:href="java__multi__path__symex__checker_8cpp.html" target="_top" xlink:title=" ">
<polygon fill="none" stroke="black" points="176.5,-0.5 176.5,-52.5 339.5,-52.5 339.5,-0.5 176.5,-0.5"/>
<text text-anchor="start" x="184.5" y="-40.5" font-family="Helvetica,sans-Serif" font-size="10.00">/home/runner/work/diffblue</text>
<text text-anchor="start" x="184.5" y="-29.5" font-family="Helvetica,sans-Serif" font-size="10.00">&#45;cbmc/diffblue&#45;cbmc/jbmc</text>
<text text-anchor="start" x="184.5" y="-18.5" font-family="Helvetica,sans-Serif" font-size="10.00">/src/java_bytecode/java_multi</text>
<text text-anchor="middle" x="258" y="-7.5" font-family="Helvetica,sans-Serif" font-size="10.00">_path_symex_checker.cpp</text>
</a>
</g>
</g>
<!-- Node3&#45;&gt;Node4 -->
<g id="edge3" class="edge">
<title>Node3&#45;&gt;Node4</title>
<path fill="none" stroke="midnightblue" d="M258,-79.19C258,-70.28 258,-60.9 258,-52.61"/>
<polygon fill="midnightblue" stroke="midnightblue" points="254.5,-79.34 258,-89.34 261.5,-79.34 254.5,-79.34"/>
</g>
<!-- Node5 -->
<g id="node5" class="node">
<title>Node5</title>
<g id="a_node5"><a xlink:href="jbmc__parse__options_8cpp.html" target="_top" xlink:title="JBMC Command Line Option Processing.">
<polygon fill="none" stroke="black" points="441,-6 441,-47 623,-47 623,-6 441,-6"/>
<text text-anchor="start" x="449" y="-35" font-family="Helvetica,sans-Serif" font-size="10.00">/home/runner/work/diffblue</text>
<text text-anchor="start" x="449" y="-24" font-family="Helvetica,sans-Serif" font-size="10.00">&#45;cbmc/diffblue&#45;cbmc/jbmc</text>
<text text-anchor="middle" x="532" y="-13" font-family="Helvetica,sans-Serif" font-size="10.00">/src/jbmc/jbmc_parse_options.cpp</text>
</a>
</g>
</g>
<!-- Node3&#45;&gt;Node5 -->
<g id="edge4" class="edge">
<title>Node3&#45;&gt;Node5</title>
<path fill="none" stroke="midnightblue" d="M346.46,-86.41C386.83,-73.59 433.65,-58.73 470.16,-47.13"/>
<polygon fill="midnightblue" stroke="midnightblue" points="345.36,-83.09 336.88,-89.45 347.47,-89.76 345.36,-83.09"/>
</g>
<!-- Node6&#45;&gt;Node5 -->
<g id="edge6" class="edge">
<title>Node6&#45;&gt;Node5</title>
<path fill="none" stroke="midnightblue" d="M473.55,-82.18C486.15,-70.39 500.01,-57.43 511.07,-47.08"/>
<polygon fill="midnightblue" stroke="midnightblue" points="470.81,-79.95 465.9,-89.34 475.59,-85.06 470.81,-79.95"/>
</g>
<!-- Node7&#45;&gt;Node5 -->
<g id="edge9" class="edge">
<title>Node7&#45;&gt;Node5</title>
<path fill="none" stroke="midnightblue" d="M718.22,-86.41C677.7,-73.59 630.7,-58.73 594.06,-47.13"/>
<polygon fill="midnightblue" stroke="midnightblue" points="717.24,-89.77 727.83,-89.45 719.35,-83.1 717.24,-89.77"/>
</g>
<!-- Node8 -->
<g id="node8" class="node">
<title>Node8</title>
<g id="a_node8"><a xlink:href="java__single__path__symex__checker_8cpp.html" target="_top" xlink:title=" ">
<polygon fill="none" stroke="black" points="723.5,-0.5 723.5,-52.5 890.5,-52.5 890.5,-0.5 723.5,-0.5"/>
<text text-anchor="start" x="731.5" y="-40.5" font-family="Helvetica,sans-Serif" font-size="10.00">/home/runner/work/diffblue</text>
<text text-anchor="start" x="731.5" y="-29.5" font-family="Helvetica,sans-Serif" font-size="10.00">&#45;cbmc/diffblue&#45;cbmc/jbmc</text>
<text text-anchor="start" x="731.5" y="-18.5" font-family="Helvetica,sans-Serif" font-size="10.00">/src/java_bytecode/java_single</text>
<text text-anchor="middle" x="807" y="-7.5" font-family="Helvetica,sans-Serif" font-size="10.00">_path_symex_checker.cpp</text>
</a>
</g>
</g>
<!-- Node7&#45;&gt;Node8 -->
<g id="edge8" class="edge">
<title>Node7&#45;&gt;Node8</title>
<path fill="none" stroke="midnightblue" d="M807,-79.19C807,-70.28 807,-60.9 807,-52.61"/>
<polygon fill="midnightblue" stroke="midnightblue" points="803.5,-79.34 807,-89.34 810.5,-79.34 803.5,-79.34"/>
</g>
<!-- Node9&#45;&gt;Node5 -->
<g id="edge11" class="edge">
<title>Node9&#45;&gt;Node5</title>
<path fill="none" stroke="midnightblue" d="M588.57,-82.18C576.37,-70.39 562.96,-57.43 552.26,-47.08"/>
<polygon fill="midnightblue" stroke="midnightblue" points="586.35,-84.9 595.97,-89.34 591.21,-79.87 586.35,-84.9"/>
</g>
</g>
</svg>
