<?xml version="1.0" encoding="UTF-8" standalone="no"?>
<!DOCTYPE svg PUBLIC "-//W3C//DTD SVG 1.1//EN"
 "http://www.w3.org/Graphics/SVG/1.1/DTD/svg11.dtd">
<!-- Generated by graphviz version 2.43.0 (0)
 -->
<!-- Title: /home/runner/work/diffblue&#45;cbmc/diffblue&#45;cbmc/jbmc/src/java_bytecode/java_bytecode_convert_class.h Pages: 1 -->
<svg width="758pt" height="328pt"
 viewBox="0.00 0.00 758.00 328.00" xmlns="http://www.w3.org/2000/svg" xmlns:xlink="http://www.w3.org/1999/xlink">
<g id="graph0" class="graph" transform="scale(1 1) rotate(0) translate(4 324)">
<title>/home/runner/work/diffblue&#45;cbmc/diffblue&#45;cbmc/jbmc/src/java_bytecode/java_bytecode_convert_class.h</title>
<!-- Node1 -->
<g id="node1" class="node">
<title>Node1</title>
<g id="a_node1"><a xlink:title="JAVA Bytecode Language Conversion.">
<polygon fill="#bfbfbf" stroke="black" points="269,-267.5 269,-319.5 451,-319.5 451,-267.5 269,-267.5"/>
<text text-anchor="start" x="277" y="-307.5" font-family="Helvetica,sans-Serif" font-size="10.00">/home/runner/work/diffblue</text>
<text text-anchor="start" x="277" y="-296.5" font-family="Helvetica,sans-Serif" font-size="10.00">&#45;cbmc/diffblue&#45;cbmc/jbmc</text>
<text text-anchor="start" x="277" y="-285.5" font-family="Helvetica,sans-Serif" font-size="10.00">/src/java_bytecode/java_bytecode</text>
<text text-anchor="middle" x="360" y="-274.5" font-family="Helvetica,sans-Serif" font-size="10.00">_convert_class.h</text>
</a>
</g>
</g>
<!-- Node2 -->
<g id="node2" class="node">
<title>Node2</title>
<g id="a_node2"><a xlink:href="java__bytecode__convert__class_8cpp.html" target="_top" xlink:title="JAVA Bytecode Language Conversion.">
<polygon fill="none" stroke="black" points="0,-0.5 0,-52.5 182,-52.5 182,-0.5 0,-0.5"/>
<text text-anchor="start" x="8" y="-40.5" font-family="Helvetica,sans-Serif" font-size="10.00">/home/runner/work/diffblue</text>
<text text-anchor="start" x="8" y="-29.5" font-family="Helvetica,sans-Serif" font-size="10.00">&#45;cbmc/diffblue&#45;cbmc/jbmc</text>
<text text-anchor="start" x="8" y="-18.5" font-family="Helvetica,sans-Serif" font-size="10.00">/src/java_bytecode/java_bytecode</text>
<text text-anchor="middle" x="91" y="-7.5" font-family="Helvetica,sans-Serif" font-size="10.00">_convert_class.cpp</text>
</a>
</g>
</g>
<!-- Node1&#45;&gt;Node2 -->
<g id="edge1" class="edge">
<title>Node1&#45;&gt;Node2</title>
<path fill="none" stroke="midnightblue" d="M303.63,-262.25C288.76,-253.12 273.19,-242.44 260,-231 195.65,-175.18 135.82,-93.4 107.75,-52.6"/>
<polygon fill="midnightblue" stroke="midnightblue" points="301.9,-265.3 312.28,-267.45 305.51,-259.3 301.9,-265.3"/>
</g>
<!-- Node3 -->
<g id="node3" class="node">
<title>Node3</title>
<g id="a_node3"><a xlink:href="java__bytecode__convert__method__class_8h.html" target="_top" xlink:title="JAVA Bytecode Language Conversion.">
<polygon fill="none" stroke="black" points="269,-178.5 269,-230.5 451,-230.5 451,-178.5 269,-178.5"/>
<text text-anchor="start" x="277" y="-218.5" font-family="Helvetica,sans-Serif" font-size="10.00">/home/runner/work/diffblue</text>
<text text-anchor="start" x="277" y="-207.5" font-family="Helvetica,sans-Serif" font-size="10.00">&#45;cbmc/diffblue&#45;cbmc/jbmc</text>
<text text-anchor="start" x="277" y="-196.5" font-family="Helvetica,sans-Serif" font-size="10.00">/src/java_bytecode/java_bytecode</text>
<text text-anchor="middle" x="360" y="-185.5" font-family="Helvetica,sans-Serif" font-size="10.00">_convert_method_class.h</text>
</a>
</g>
</g>
<!-- Node1&#45;&gt;Node3 -->
<g id="edge2" class="edge">
<title>Node1&#45;&gt;Node3</title>
<path fill="none" stroke="midnightblue" d="M360,-257.19C360,-248.28 360,-238.9 360,-230.61"/>
<polygon fill="midnightblue" stroke="midnightblue" points="356.5,-257.34 360,-267.34 363.5,-257.34 356.5,-257.34"/>
</g>
<!-- Node6 -->
<g id="node6" class="node">
<title>Node6</title>
<g id="a_node6"><a xlink:href="java__bytecode__language_8cpp.html" target="_top" xlink:title=" ">
<polygon fill="none" stroke="black" points="568,-0.5 568,-52.5 750,-52.5 750,-0.5 568,-0.5"/>
<text text-anchor="start" x="576" y="-40.5" font-family="Helvetica,sans-Serif" font-size="10.00">/home/runner/work/diffblue</text>
<text text-anchor="start" x="576" y="-29.5" font-family="Helvetica,sans-Serif" font-size="10.00">&#45;cbmc/diffblue&#45;cbmc/jbmc</text>
<text text-anchor="start" x="576" y="-18.5" font-family="Helvetica,sans-Serif" font-size="10.00">/src/java_bytecode/java_bytecode</text>
<text text-anchor="middle" x="659" y="-7.5" font-family="Helvetica,sans-Serif" font-size="10.00">_language.cpp</text>
</a>
</g>
</g>
<!-- Node1&#45;&gt;Node6 -->
<g id="edge10" class="edge">
<title>Node1&#45;&gt;Node6</title>
<path fill="none" stroke="midnightblue" d="M458.92,-263.83C520.32,-240.85 595.55,-202.29 639,-142 657.88,-115.81 660.97,-77.63 660.64,-52.68"/>
<polygon fill="midnightblue" stroke="midnightblue" points="457.38,-260.66 449.19,-267.38 459.78,-267.24 457.38,-260.66"/>
</g>
<!-- Node4 -->
<g id="node4" class="node">
<title>Node4</title>
<g id="a_node4"><a xlink:href="java__bytecode__convert__method_8cpp.html" target="_top" xlink:title="JAVA Bytecode Language Conversion.">
<polygon fill="none" stroke="black" points="200,-0.5 200,-52.5 382,-52.5 382,-0.5 200,-0.5"/>
<text text-anchor="start" x="208" y="-40.5" font-family="Helvetica,sans-Serif" font-size="10.00">/home/runner/work/diffblue</text>
<text text-anchor="start" x="208" y="-29.5" font-family="Helvetica,sans-Serif" font-size="10.00">&#45;cbmc/diffblue&#45;cbmc/jbmc</text>
<text text-anchor="start" x="208" y="-18.5" font-family="Helvetica,sans-Serif" font-size="10.00">/src/java_bytecode/java_bytecode</text>
<text text-anchor="middle" x="291" y="-7.5" font-family="Helvetica,sans-Serif" font-size="10.00">_convert_method.cpp</text>
</a>
</g>
</g>
<!-- Node3&#45;&gt;Node4 -->
<g id="edge3" class="edge">
<title>Node3&#45;&gt;Node4</title>
<path fill="none" stroke="midnightblue" d="M288.96,-172.72C277.35,-164.46 266.88,-154.31 260,-142 244.12,-113.6 259.65,-76.64 273.87,-52.5"/>
<polygon fill="midnightblue" stroke="midnightblue" points="287.31,-175.82 297.59,-178.4 291.16,-169.98 287.31,-175.82"/>
</g>
<!-- Node5 -->
<g id="node5" class="node">
<title>Node5</title>
<g id="a_node5"><a xlink:href="java__bytecode__convert__method_8h.html" target="_top" xlink:title="JAVA Bytecode Language Conversion.">
<polygon fill="none" stroke="black" points="269,-89.5 269,-141.5 451,-141.5 451,-89.5 269,-89.5"/>
<text text-anchor="start" x="277" y="-129.5" font-family="Helvetica,sans-Serif" font-size="10.00">/home/runner/work/diffblue</text>
<text text-anchor="start" x="277" y="-118.5" font-family="Helvetica,sans-Serif" font-size="10.00">&#45;cbmc/diffblue&#45;cbmc/jbmc</text>
<text text-anchor="start" x="277" y="-107.5" font-family="Helvetica,sans-Serif" font-size="10.00">/src/java_bytecode/java_bytecode</text>
<text text-anchor="middle" x="360" y="-96.5" font-family="Helvetica,sans-Serif" font-size="10.00">_convert_method.h</text>
</a>
</g>
</g>
<!-- Node3&#45;&gt;Node5 -->
<g id="edge4" class="edge">
<title>Node3&#45;&gt;Node5</title>
<path fill="none" stroke="midnightblue" d="M360,-168.19C360,-159.28 360,-149.9 360,-141.61"/>
<polygon fill="midnightblue" stroke="midnightblue" points="356.5,-168.34 360,-178.34 363.5,-168.34 356.5,-168.34"/>
</g>
<!-- Node8 -->
<g id="node8" class="node">
<title>Node8</title>
<g id="a_node8"><a xlink:href="java__local__variable__table_8cpp.html" target="_top" xlink:title="Java local variable table processing.">
<polygon fill="none" stroke="black" points="469.5,-89.5 469.5,-141.5 630.5,-141.5 630.5,-89.5 469.5,-89.5"/>
<text text-anchor="start" x="477.5" y="-129.5" font-family="Helvetica,sans-Serif" font-size="10.00">/home/runner/work/diffblue</text>
<text text-anchor="start" x="477.5" y="-118.5" font-family="Helvetica,sans-Serif" font-size="10.00">&#45;cbmc/diffblue&#45;cbmc/jbmc</text>
<text text-anchor="start" x="477.5" y="-107.5" font-family="Helvetica,sans-Serif" font-size="10.00">/src/java_bytecode/java_local</text>
<text text-anchor="middle" x="550" y="-96.5" font-family="Helvetica,sans-Serif" font-size="10.00">_variable_table.cpp</text>
</a>
</g>
</g>
<!-- Node3&#45;&gt;Node8 -->
<g id="edge9" class="edge">
<title>Node3&#45;&gt;Node8</title>
<path fill="none" stroke="midnightblue" d="M424.09,-174.15C447.23,-163.56 473.1,-151.71 495.36,-141.52"/>
<polygon fill="midnightblue" stroke="midnightblue" points="422.34,-171.11 414.7,-178.45 425.25,-177.47 422.34,-171.11"/>
</g>
<!-- Node5&#45;&gt;Node2 -->
<g id="edge5" class="edge">
<title>Node5&#45;&gt;Node2</title>
<path fill="none" stroke="midnightblue" d="M272.74,-86.28C239.12,-75.4 200.99,-63.07 168.36,-52.52"/>
<polygon fill="midnightblue" stroke="midnightblue" points="271.96,-89.71 282.55,-89.45 274.12,-83.05 271.96,-89.71"/>
</g>
<!-- Node5&#45;&gt;Node4 -->
<g id="edge6" class="edge">
<title>Node5&#45;&gt;Node4</title>
<path fill="none" stroke="midnightblue" d="M333.6,-81.22C326.07,-71.72 317.99,-61.53 310.91,-52.61"/>
<polygon fill="midnightblue" stroke="midnightblue" points="331.09,-83.68 340.04,-89.34 336.57,-79.33 331.09,-83.68"/>
</g>
<!-- Node5&#45;&gt;Node6 -->
<g id="edge7" class="edge">
<title>Node5&#45;&gt;Node6</title>
<path fill="none" stroke="midnightblue" d="M456.03,-86.56C493.63,-75.62 536.44,-63.16 573.01,-52.52"/>
<polygon fill="midnightblue" stroke="midnightblue" points="454.71,-83.3 446.08,-89.45 456.66,-90.02 454.71,-83.3"/>
</g>
<!-- Node7 -->
<g id="node7" class="node">
<title>Node7</title>
<g id="a_node7"><a xlink:href="lambda__synthesis_8cpp.html" target="_top" xlink:title="Java lambda code synthesis.">
<polygon fill="none" stroke="black" points="400.5,-0.5 400.5,-52.5 549.5,-52.5 549.5,-0.5 400.5,-0.5"/>
<text text-anchor="start" x="408.5" y="-40.5" font-family="Helvetica,sans-Serif" font-size="10.00">/home/runner/work/diffblue</text>
<text text-anchor="start" x="408.5" y="-29.5" font-family="Helvetica,sans-Serif" font-size="10.00">&#45;cbmc/diffblue&#45;cbmc/jbmc</text>
<text text-anchor="start" x="408.5" y="-18.5" font-family="Helvetica,sans-Serif" font-size="10.00">/src/java_bytecode/lambda</text>
<text text-anchor="middle" x="475" y="-7.5" font-family="Helvetica,sans-Serif" font-size="10.00">_synthesis.cpp</text>
</a>
</g>
</g>
<!-- Node5&#45;&gt;Node7 -->
<g id="edge8" class="edge">
<title>Node5&#45;&gt;Node7</title>
<path fill="none" stroke="midnightblue" d="M401.35,-83.22C414.64,-73.16 429.18,-62.16 441.81,-52.61"/>
<polygon fill="midnightblue" stroke="midnightblue" points="399.13,-80.51 393.26,-89.34 403.35,-86.09 399.13,-80.51"/>
</g>
</g>
</svg>
