<?xml version="1.0" encoding="UTF-8" standalone="no"?>
<!DOCTYPE svg PUBLIC "-//W3C//DTD SVG 1.1//EN"
 "http://www.w3.org/Graphics/SVG/1.1/DTD/svg11.dtd">
<!-- Generated by graphviz version 2.43.0 (0)
 -->
<!-- Title: /home/runner/work/diffblue&#45;cbmc/diffblue&#45;cbmc/jbmc/src/java_bytecode/java_bytecode_parse_tree.h Pages: 1 -->
<svg width="2839pt" height="506pt"
 viewBox="0.00 0.00 2839.49 506.00" xmlns="http://www.w3.org/2000/svg" xmlns:xlink="http://www.w3.org/1999/xlink">
<g id="graph0" class="graph" transform="scale(1 1) rotate(0) translate(4 502)">
<title>/home/runner/work/diffblue&#45;cbmc/diffblue&#45;cbmc/jbmc/src/java_bytecode/java_bytecode_parse_tree.h</title>
<!-- Node1 -->
<g id="node1" class="node">
<title>Node1</title>
<g id="a_node1"><a xlink:title=" ">
<polygon fill="#bfbfbf" stroke="black" points="2026.99,-445.5 2026.99,-497.5 2208.99,-497.5 2208.99,-445.5 2026.99,-445.5"/>
<text text-anchor="start" x="2034.99" y="-485.5" font-family="Helvetica,sans-Serif" font-size="10.00">/home/runner/work/diffblue</text>
<text text-anchor="start" x="2034.99" y="-474.5" font-family="Helvetica,sans-Serif" font-size="10.00">&#45;cbmc/diffblue&#45;cbmc/jbmc</text>
<text text-anchor="start" x="2034.99" y="-463.5" font-family="Helvetica,sans-Serif" font-size="10.00">/src/java_bytecode/java_bytecode</text>
<text text-anchor="middle" x="2117.99" y="-452.5" font-family="Helvetica,sans-Serif" font-size="10.00">_parse_tree.h</text>
</a>
</g>
</g>
<!-- Node2 -->
<g id="node2" class="node">
<title>Node2</title>
<g id="a_node2"><a xlink:href="ci__lazy__methods_8h.html" target="_top" xlink:title="Collect methods needed to be loaded using the lazy method.">
<polygon fill="none" stroke="black" points="922.49,-356.5 922.49,-408.5 1071.49,-408.5 1071.49,-356.5 922.49,-356.5"/>
<text text-anchor="start" x="930.49" y="-396.5" font-family="Helvetica,sans-Serif" font-size="10.00">/home/runner/work/diffblue</text>
<text text-anchor="start" x="930.49" y="-385.5" font-family="Helvetica,sans-Serif" font-size="10.00">&#45;cbmc/diffblue&#45;cbmc/jbmc</text>
<text text-anchor="start" x="930.49" y="-374.5" font-family="Helvetica,sans-Serif" font-size="10.00">/src/java_bytecode/ci_lazy</text>
<text text-anchor="middle" x="996.99" y="-363.5" font-family="Helvetica,sans-Serif" font-size="10.00">_methods.h</text>
</a>
</g>
</g>
<!-- Node1&#45;&gt;Node2 -->
<g id="edge1" class="edge">
<title>Node1&#45;&gt;Node2</title>
<path fill="none" stroke="midnightblue" d="M2016.69,-462.64C1794.18,-445.37 1267.06,-404.46 1071.61,-389.29"/>
<polygon fill="midnightblue" stroke="midnightblue" points="2016.49,-466.13 2026.73,-463.42 2017.03,-459.15 2016.49,-466.13"/>
</g>
<!-- Node18 -->
<g id="node18" class="node">
<title>Node18</title>
<g id="a_node18"><a xlink:href="java__bytecode__convert__class_8h.html" target="_top" xlink:title="JAVA Bytecode Language Conversion.">
<polygon fill="none" stroke="black" points="1750.99,-267.5 1750.99,-319.5 1932.99,-319.5 1932.99,-267.5 1750.99,-267.5"/>
<text text-anchor="start" x="1758.99" y="-307.5" font-family="Helvetica,sans-Serif" font-size="10.00">/home/runner/work/diffblue</text>
<text text-anchor="start" x="1758.99" y="-296.5" font-family="Helvetica,sans-Serif" font-size="10.00">&#45;cbmc/diffblue&#45;cbmc/jbmc</text>
<text text-anchor="start" x="1758.99" y="-285.5" font-family="Helvetica,sans-Serif" font-size="10.00">/src/java_bytecode/java_bytecode</text>
<text text-anchor="middle" x="1841.99" y="-274.5" font-family="Helvetica,sans-Serif" font-size="10.00">_convert_class.h</text>
</a>
</g>
</g>
<!-- Node1&#45;&gt;Node18 -->
<g id="edge21" class="edge">
<title>Node1&#45;&gt;Node18</title>
<path fill="none" stroke="midnightblue" d="M2017.14,-443.34C1993.06,-434.44 1968.21,-423.11 1946.99,-409 1910.61,-384.8 1878.22,-345.38 1859.35,-319.69"/>
<polygon fill="midnightblue" stroke="midnightblue" points="2016.09,-446.68 2026.68,-446.76 2018.45,-440.09 2016.09,-446.68"/>
</g>
<!-- Node19 -->
<g id="node19" class="node">
<title>Node19</title>
<g id="a_node19"><a xlink:href="java__bytecode__convert__method__class_8h.html" target="_top" xlink:title="JAVA Bytecode Language Conversion.">
<polygon fill="none" stroke="black" points="1788.99,-178.5 1788.99,-230.5 1970.99,-230.5 1970.99,-178.5 1788.99,-178.5"/>
<text text-anchor="start" x="1796.99" y="-218.5" font-family="Helvetica,sans-Serif" font-size="10.00">/home/runner/work/diffblue</text>
<text text-anchor="start" x="1796.99" y="-207.5" font-family="Helvetica,sans-Serif" font-size="10.00">&#45;cbmc/diffblue&#45;cbmc/jbmc</text>
<text text-anchor="start" x="1796.99" y="-196.5" font-family="Helvetica,sans-Serif" font-size="10.00">/src/java_bytecode/java_bytecode</text>
<text text-anchor="middle" x="1879.99" y="-185.5" font-family="Helvetica,sans-Serif" font-size="10.00">_convert_method_class.h</text>
</a>
</g>
</g>
<!-- Node1&#45;&gt;Node19 -->
<g id="edge33" class="edge">
<title>Node1&#45;&gt;Node19</title>
<path fill="none" stroke="midnightblue" d="M2026.33,-440.72C2010.92,-432.42 1996.29,-422 1984.99,-409 1941.71,-359.25 1975.99,-323.5 1941.99,-267 1933.86,-253.49 1922.1,-240.81 1911.01,-230.51"/>
<polygon fill="midnightblue" stroke="midnightblue" points="2024.97,-443.96 2035.47,-445.37 2028.14,-437.72 2024.97,-443.96"/>
</g>
<!-- Node21 -->
<g id="node21" class="node">
<title>Node21</title>
<g id="a_node21"><a xlink:href="java__bytecode__convert__method_8h.html" target="_top" xlink:title="JAVA Bytecode Language Conversion.">
<polygon fill="none" stroke="black" points="1907.99,-89.5 1907.99,-141.5 2089.99,-141.5 2089.99,-89.5 1907.99,-89.5"/>
<text text-anchor="start" x="1915.99" y="-129.5" font-family="Helvetica,sans-Serif" font-size="10.00">/home/runner/work/diffblue</text>
<text text-anchor="start" x="1915.99" y="-118.5" font-family="Helvetica,sans-Serif" font-size="10.00">&#45;cbmc/diffblue&#45;cbmc/jbmc</text>
<text text-anchor="start" x="1915.99" y="-107.5" font-family="Helvetica,sans-Serif" font-size="10.00">/src/java_bytecode/java_bytecode</text>
<text text-anchor="middle" x="1998.99" y="-96.5" font-family="Helvetica,sans-Serif" font-size="10.00">_convert_method.h</text>
</a>
</g>
</g>
<!-- Node1&#45;&gt;Node21 -->
<g id="edge32" class="edge">
<title>Node1&#45;&gt;Node21</title>
<path fill="none" stroke="midnightblue" d="M2048.54,-440.02C2036.5,-431.67 2025.47,-421.41 2017.99,-409 1966.13,-322.91 1982.98,-195.56 1993.39,-141.85"/>
<polygon fill="midnightblue" stroke="midnightblue" points="2046.71,-443.01 2057.01,-445.5 2050.51,-437.13 2046.71,-443.01"/>
</g>
<!-- Node22 -->
<g id="node22" class="node">
<title>Node22</title>
<g id="a_node22"><a xlink:href="lambda__synthesis_8cpp.html" target="_top" xlink:title="Java lambda code synthesis.">
<polygon fill="none" stroke="black" points="2206.49,-0.5 2206.49,-52.5 2355.49,-52.5 2355.49,-0.5 2206.49,-0.5"/>
<text text-anchor="start" x="2214.49" y="-40.5" font-family="Helvetica,sans-Serif" font-size="10.00">/home/runner/work/diffblue</text>
<text text-anchor="start" x="2214.49" y="-29.5" font-family="Helvetica,sans-Serif" font-size="10.00">&#45;cbmc/diffblue&#45;cbmc/jbmc</text>
<text text-anchor="start" x="2214.49" y="-18.5" font-family="Helvetica,sans-Serif" font-size="10.00">/src/java_bytecode/lambda</text>
<text text-anchor="middle" x="2280.99" y="-7.5" font-family="Helvetica,sans-Serif" font-size="10.00">_synthesis.cpp</text>
</a>
</g>
</g>
<!-- Node1&#45;&gt;Node22 -->
<g id="edge43" class="edge">
<title>Node1&#45;&gt;Node22</title>
<path fill="none" stroke="midnightblue" d="M2219.06,-464.96C2361.26,-456.2 2606.45,-437.21 2635.99,-409 2673.3,-373.38 2654.99,-346.08 2654.99,-294.5 2654.99,-294.5 2654.99,-294.5 2654.99,-203.5 2654.99,-72.54 2464.92,-38.85 2355.78,-30.31"/>
<polygon fill="midnightblue" stroke="midnightblue" points="2218.77,-461.47 2209,-465.57 2219.19,-468.46 2218.77,-461.47"/>
</g>
<!-- Node24 -->
<g id="node24" class="node">
<title>Node24</title>
<g id="a_node24"><a xlink:href="java__bytecode__parse__tree_8cpp.html" target="_top" xlink:title=" ">
<polygon fill="none" stroke="black" points="2026.99,-356.5 2026.99,-408.5 2208.99,-408.5 2208.99,-356.5 2026.99,-356.5"/>
<text text-anchor="start" x="2034.99" y="-396.5" font-family="Helvetica,sans-Serif" font-size="10.00">/home/runner/work/diffblue</text>
<text text-anchor="start" x="2034.99" y="-385.5" font-family="Helvetica,sans-Serif" font-size="10.00">&#45;cbmc/diffblue&#45;cbmc/jbmc</text>
<text text-anchor="start" x="2034.99" y="-374.5" font-family="Helvetica,sans-Serif" font-size="10.00">/src/java_bytecode/java_bytecode</text>
<text text-anchor="middle" x="2117.99" y="-363.5" font-family="Helvetica,sans-Serif" font-size="10.00">_parse_tree.cpp</text>
</a>
</g>
</g>
<!-- Node1&#45;&gt;Node24 -->
<g id="edge34" class="edge">
<title>Node1&#45;&gt;Node24</title>
<path fill="none" stroke="midnightblue" d="M2117.99,-435.19C2117.99,-426.28 2117.99,-416.9 2117.99,-408.61"/>
<polygon fill="midnightblue" stroke="midnightblue" points="2114.49,-435.34 2117.99,-445.34 2121.49,-435.34 2114.49,-435.34"/>
</g>
<!-- Node25 -->
<g id="node25" class="node">
<title>Node25</title>
<g id="a_node25"><a xlink:href="java__bytecode__parser_8cpp.html" target="_top" xlink:title=" ">
<polygon fill="none" stroke="black" points="2226.99,-356.5 2226.99,-408.5 2408.99,-408.5 2408.99,-356.5 2226.99,-356.5"/>
<text text-anchor="start" x="2234.99" y="-396.5" font-family="Helvetica,sans-Serif" font-size="10.00">/home/runner/work/diffblue</text>
<text text-anchor="start" x="2234.99" y="-385.5" font-family="Helvetica,sans-Serif" font-size="10.00">&#45;cbmc/diffblue&#45;cbmc/jbmc</text>
<text text-anchor="start" x="2234.99" y="-374.5" font-family="Helvetica,sans-Serif" font-size="10.00">/src/java_bytecode/java_bytecode</text>
<text text-anchor="middle" x="2317.99" y="-363.5" font-family="Helvetica,sans-Serif" font-size="10.00">_parser.cpp</text>
</a>
</g>
</g>
<!-- Node1&#45;&gt;Node25 -->
<g id="edge35" class="edge">
<title>Node1&#45;&gt;Node25</title>
<path fill="none" stroke="midnightblue" d="M2184.8,-441.44C2209.32,-430.77 2236.84,-418.8 2260.47,-408.52"/>
<polygon fill="midnightblue" stroke="midnightblue" points="2183.34,-438.25 2175.57,-445.45 2186.14,-444.67 2183.34,-438.25"/>
</g>
<!-- Node26 -->
<g id="node26" class="node">
<title>Node26</title>
<g id="a_node26"><a xlink:href="java__class__loader_8h.html" target="_top" xlink:title=" ">
<polygon fill="none" stroke="black" points="1516.99,-356.5 1516.99,-408.5 1678.99,-408.5 1678.99,-356.5 1516.99,-356.5"/>
<text text-anchor="start" x="1524.99" y="-396.5" font-family="Helvetica,sans-Serif" font-size="10.00">/home/runner/work/diffblue</text>
<text text-anchor="start" x="1524.99" y="-385.5" font-family="Helvetica,sans-Serif" font-size="10.00">&#45;cbmc/diffblue&#45;cbmc/jbmc</text>
<text text-anchor="start" x="1524.99" y="-374.5" font-family="Helvetica,sans-Serif" font-size="10.00">/src/java_bytecode/java_class</text>
<text text-anchor="middle" x="1597.99" y="-363.5" font-family="Helvetica,sans-Serif" font-size="10.00">_loader.h</text>
</a>
</g>
</g>
<!-- Node1&#45;&gt;Node26 -->
<g id="edge36" class="edge">
<title>Node1&#45;&gt;Node26</title>
<path fill="none" stroke="midnightblue" d="M2016.84,-453.58C1918.28,-437.09 1770.34,-412.34 1679.21,-397.09"/>
<polygon fill="midnightblue" stroke="midnightblue" points="2016.38,-457.05 2026.82,-455.25 2017.53,-450.14 2016.38,-457.05"/>
</g>
<!-- Node28 -->
<g id="node28" class="node">
<title>Node28</title>
<g id="a_node28"><a xlink:href="java__class__loader__base_8cpp.html" target="_top" xlink:title=" ">
<polygon fill="none" stroke="black" points="2464.99,-356.5 2464.99,-408.5 2626.99,-408.5 2626.99,-356.5 2464.99,-356.5"/>
<text text-anchor="start" x="2472.99" y="-396.5" font-family="Helvetica,sans-Serif" font-size="10.00">/home/runner/work/diffblue</text>
<text text-anchor="start" x="2472.99" y="-385.5" font-family="Helvetica,sans-Serif" font-size="10.00">&#45;cbmc/diffblue&#45;cbmc/jbmc</text>
<text text-anchor="start" x="2472.99" y="-374.5" font-family="Helvetica,sans-Serif" font-size="10.00">/src/java_bytecode/java_class</text>
<text text-anchor="middle" x="2545.99" y="-363.5" font-family="Helvetica,sans-Serif" font-size="10.00">_loader_base.cpp</text>
</a>
</g>
</g>
<!-- Node1&#45;&gt;Node28 -->
<g id="edge42" class="edge">
<title>Node1&#45;&gt;Node28</title>
<path fill="none" stroke="midnightblue" d="M2219.22,-453.96C2285.43,-442.61 2373.68,-426.49 2450.99,-409 2455.49,-407.98 2460.09,-406.9 2464.73,-405.77"/>
<polygon fill="midnightblue" stroke="midnightblue" points="2218.47,-450.54 2209.2,-455.67 2219.64,-457.44 2218.47,-450.54"/>
</g>
<!-- Node29 -->
<g id="node29" class="node">
<title>Node29</title>
<g id="a_node29"><a xlink:href="lambda__synthesis_8h.html" target="_top" xlink:title="Java lambda code synthesis.">
<polygon fill="none" stroke="black" points="2186.49,-89.5 2186.49,-141.5 2335.49,-141.5 2335.49,-89.5 2186.49,-89.5"/>
<text text-anchor="start" x="2194.49" y="-129.5" font-family="Helvetica,sans-Serif" font-size="10.00">/home/runner/work/diffblue</text>
<text text-anchor="start" x="2194.49" y="-118.5" font-family="Helvetica,sans-Serif" font-size="10.00">&#45;cbmc/diffblue&#45;cbmc/jbmc</text>
<text text-anchor="start" x="2194.49" y="-107.5" font-family="Helvetica,sans-Serif" font-size="10.00">/src/java_bytecode/lambda</text>
<text text-anchor="middle" x="2260.99" y="-96.5" font-family="Helvetica,sans-Serif" font-size="10.00">_synthesis.h</text>
</a>
</g>
</g>
<!-- Node1&#45;&gt;Node29 -->
<g id="edge44" class="edge">
<title>Node1&#45;&gt;Node29</title>
<path fill="none" stroke="midnightblue" d="M2219.31,-463.23C2296.29,-455.35 2393.06,-439.56 2417.99,-409 2489.94,-320.8 2357.43,-194.6 2293.11,-141.52"/>
<polygon fill="midnightblue" stroke="midnightblue" points="2218.68,-459.78 2209.07,-464.24 2219.37,-466.74 2218.68,-459.78"/>
</g>
<!-- Node30 -->
<g id="node30" class="node">
<title>Node30</title>
<g id="a_node30"><a xlink:href="require__parse__tree_8h.html" target="_top" xlink:title="Utilties for inspecting java_parse_treet.">
<polygon fill="none" stroke="black" points="2682.49,-356.5 2682.49,-408.5 2831.49,-408.5 2831.49,-356.5 2682.49,-356.5"/>
<text text-anchor="start" x="2690.49" y="-396.5" font-family="Helvetica,sans-Serif" font-size="10.00">/home/runner/work/diffblue</text>
<text text-anchor="start" x="2690.49" y="-385.5" font-family="Helvetica,sans-Serif" font-size="10.00">&#45;cbmc/diffblue&#45;cbmc/jbmc</text>
<text text-anchor="start" x="2690.49" y="-374.5" font-family="Helvetica,sans-Serif" font-size="10.00">/unit/java&#45;testing&#45;utils</text>
<text text-anchor="middle" x="2756.99" y="-363.5" font-family="Helvetica,sans-Serif" font-size="10.00">/require_parse_tree.h</text>
</a>
</g>
</g>
<!-- Node1&#45;&gt;Node30 -->
<g id="edge48" class="edge">
<title>Node1&#45;&gt;Node30</title>
<path fill="none" stroke="midnightblue" d="M2219.6,-464.38C2330.76,-456.48 2513.83,-439.9 2668.99,-409 2673.36,-408.13 2677.82,-407.15 2682.31,-406.08"/>
<polygon fill="midnightblue" stroke="midnightblue" points="2219.13,-460.91 2209.4,-465.1 2219.62,-467.89 2219.13,-460.91"/>
</g>
<!-- Node3 -->
<g id="node3" class="node">
<title>Node3</title>
<g id="a_node3"><a xlink:href="ci__lazy__methods_8cpp.html" target="_top" xlink:title=" ">
<polygon fill="none" stroke="black" points="1447.49,-178.5 1447.49,-230.5 1596.49,-230.5 1596.49,-178.5 1447.49,-178.5"/>
<text text-anchor="start" x="1455.49" y="-218.5" font-family="Helvetica,sans-Serif" font-size="10.00">/home/runner/work/diffblue</text>
<text text-anchor="start" x="1455.49" y="-207.5" font-family="Helvetica,sans-Serif" font-size="10.00">&#45;cbmc/diffblue&#45;cbmc/jbmc</text>
<text text-anchor="start" x="1455.49" y="-196.5" font-family="Helvetica,sans-Serif" font-size="10.00">/src/java_bytecode/ci_lazy</text>
<text text-anchor="middle" x="1521.99" y="-185.5" font-family="Helvetica,sans-Serif" font-size="10.00">_methods.cpp</text>
</a>
</g>
</g>
<!-- Node2&#45;&gt;Node3 -->
<g id="edge2" class="edge">
<title>Node2&#45;&gt;Node3</title>
<path fill="none" stroke="midnightblue" d="M1081.23,-353.26C1182.36,-319.36 1350.41,-263.02 1447.16,-230.59"/>
<polygon fill="midnightblue" stroke="midnightblue" points="1080.02,-349.97 1071.65,-356.47 1082.25,-356.61 1080.02,-349.97"/>
</g>
<!-- Node4 -->
<g id="node4" class="node">
<title>Node4</title>
<g id="a_node4"><a xlink:href="java__bytecode__convert__class_8cpp.html" target="_top" xlink:title="JAVA Bytecode Language Conversion.">
<polygon fill="none" stroke="black" points="1408.99,-0.5 1408.99,-52.5 1590.99,-52.5 1590.99,-0.5 1408.99,-0.5"/>
<text text-anchor="start" x="1416.99" y="-40.5" font-family="Helvetica,sans-Serif" font-size="10.00">/home/runner/work/diffblue</text>
<text text-anchor="start" x="1416.99" y="-29.5" font-family="Helvetica,sans-Serif" font-size="10.00">&#45;cbmc/diffblue&#45;cbmc/jbmc</text>
<text text-anchor="start" x="1416.99" y="-18.5" font-family="Helvetica,sans-Serif" font-size="10.00">/src/java_bytecode/java_bytecode</text>
<text text-anchor="middle" x="1499.99" y="-7.5" font-family="Helvetica,sans-Serif" font-size="10.00">_convert_class.cpp</text>
</a>
</g>
</g>
<!-- Node2&#45;&gt;Node4 -->
<g id="edge3" class="edge">
<title>Node2&#45;&gt;Node4</title>
<path fill="none" stroke="midnightblue" d="M912.32,-379.09C686,-372.25 82.16,-351.13 52.99,-320 -17.21,-245.08 -18.05,-163.12 52.99,-89 99.98,-39.97 1098.39,-29.89 1408.76,-27.94"/>
<polygon fill="midnightblue" stroke="midnightblue" points="912.38,-382.6 922.48,-379.4 912.59,-375.6 912.38,-382.6"/>
</g>
<!-- Node5 -->
<g id="node5" class="node">
<title>Node5</title>
<g id="a_node5"><a xlink:href="java__bytecode__language_8cpp.html" target="_top" xlink:title=" ">
<polygon fill="none" stroke="black" points="1608.99,-0.5 1608.99,-52.5 1790.99,-52.5 1790.99,-0.5 1608.99,-0.5"/>
<text text-anchor="start" x="1616.99" y="-40.5" font-family="Helvetica,sans-Serif" font-size="10.00">/home/runner/work/diffblue</text>
<text text-anchor="start" x="1616.99" y="-29.5" font-family="Helvetica,sans-Serif" font-size="10.00">&#45;cbmc/diffblue&#45;cbmc/jbmc</text>
<text text-anchor="start" x="1616.99" y="-18.5" font-family="Helvetica,sans-Serif" font-size="10.00">/src/java_bytecode/java_bytecode</text>
<text text-anchor="middle" x="1699.99" y="-7.5" font-family="Helvetica,sans-Serif" font-size="10.00">_language.cpp</text>
</a>
</g>
</g>
<!-- Node2&#45;&gt;Node5 -->
<g id="edge4" class="edge">
<title>Node2&#45;&gt;Node5</title>
<path fill="none" stroke="midnightblue" d="M911.81,-377.04C665.59,-362.52 -22.79,-309.74 85.99,-178 219.13,-16.76 340.2,-112.42 547.99,-89 1012.87,-36.59 1136.87,-119.18 1599.99,-53 1602.92,-52.58 1605.88,-52.11 1608.87,-51.6"/>
<polygon fill="midnightblue" stroke="midnightblue" points="911.96,-380.55 922.14,-377.64 912.36,-373.56 911.96,-380.55"/>
</g>
<!-- Node6 -->
<g id="node6" class="node">
<title>Node6</title>
<g id="a_node6"><a xlink:href="java__bytecode__language_8h.html" target="_top" xlink:title=" ">
<polygon fill="none" stroke="black" points="905.99,-267.5 905.99,-319.5 1087.99,-319.5 1087.99,-267.5 905.99,-267.5"/>
<text text-anchor="start" x="913.99" y="-307.5" font-family="Helvetica,sans-Serif" font-size="10.00">/home/runner/work/diffblue</text>
<text text-anchor="start" x="913.99" y="-296.5" font-family="Helvetica,sans-Serif" font-size="10.00">&#45;cbmc/diffblue&#45;cbmc/jbmc</text>
<text text-anchor="start" x="913.99" y="-285.5" font-family="Helvetica,sans-Serif" font-size="10.00">/src/java_bytecode/java_bytecode</text>
<text text-anchor="middle" x="996.99" y="-274.5" font-family="Helvetica,sans-Serif" font-size="10.00">_language.h</text>
</a>
</g>
</g>
<!-- Node2&#45;&gt;Node6 -->
<g id="edge5" class="edge">
<title>Node2&#45;&gt;Node6</title>
<path fill="none" stroke="midnightblue" d="M996.99,-346.19C996.99,-337.28 996.99,-327.9 996.99,-319.61"/>
<polygon fill="midnightblue" stroke="midnightblue" points="993.49,-346.34 996.99,-356.34 1000.49,-346.34 993.49,-346.34"/>
</g>
<!-- Node6&#45;&gt;Node3 -->
<g id="edge10" class="edge">
<title>Node6&#45;&gt;Node3</title>
<path fill="none" stroke="midnightblue" d="M1098.14,-282.4C1187.17,-272.52 1320.01,-255.4 1433.99,-231 1438.34,-230.07 1442.8,-229.03 1447.28,-227.93"/>
<polygon fill="midnightblue" stroke="midnightblue" points="1097.6,-278.93 1088.04,-283.51 1098.36,-285.89 1097.6,-278.93"/>
</g>
<!-- Node6&#45;&gt;Node5 -->
<g id="edge11" class="edge">
<title>Node6&#45;&gt;Node5</title>
<path fill="none" stroke="midnightblue" d="M1098.37,-278.06C1215.92,-261.18 1394.54,-235.01 1400.99,-231 1425.39,-215.83 1416.8,-197.4 1437.99,-178 1498.83,-122.3 1583.78,-78.24 1640.27,-52.54"/>
<polygon fill="midnightblue" stroke="midnightblue" points="1097.65,-274.63 1088.25,-279.51 1098.65,-281.56 1097.65,-274.63"/>
</g>
<!-- Node7 -->
<g id="node7" class="node">
<title>Node7</title>
<g id="a_node7"><a xlink:href="janalyzer__parse__options_8cpp.html" target="_top" xlink:title="JANALYZER Command Line Option Processing.">
<polygon fill="none" stroke="black" points="557.49,-89.5 557.49,-141.5 706.49,-141.5 706.49,-89.5 557.49,-89.5"/>
<text text-anchor="start" x="565.49" y="-129.5" font-family="Helvetica,sans-Serif" font-size="10.00">/home/runner/work/diffblue</text>
<text text-anchor="start" x="565.49" y="-118.5" font-family="Helvetica,sans-Serif" font-size="10.00">&#45;cbmc/diffblue&#45;cbmc/jbmc</text>
<text text-anchor="start" x="565.49" y="-107.5" font-family="Helvetica,sans-Serif" font-size="10.00">/src/janalyzer/janalyzer</text>
<text text-anchor="middle" x="631.99" y="-96.5" font-family="Helvetica,sans-Serif" font-size="10.00">_parse_options.cpp</text>
</a>
</g>
</g>
<!-- Node6&#45;&gt;Node7 -->
<g id="edge6" class="edge">
<title>Node6&#45;&gt;Node7</title>
<path fill="none" stroke="midnightblue" d="M895.89,-287.36C805.93,-280.58 683.54,-265.21 649.99,-231 627.02,-207.58 626.01,-167.57 628.3,-141.58"/>
<polygon fill="midnightblue" stroke="midnightblue" points="895.64,-290.85 905.87,-288.08 896.15,-283.87 895.64,-290.85"/>
</g>
<!-- Node8 -->
<g id="node8" class="node">
<title>Node8</title>
<g id="a_node8"><a xlink:href="janalyzer__parse__options_8h.html" target="_top" xlink:title="JANALYZER Command Line Option Processing.">
<polygon fill="none" stroke="black" points="659.49,-178.5 659.49,-230.5 808.49,-230.5 808.49,-178.5 659.49,-178.5"/>
<text text-anchor="start" x="667.49" y="-218.5" font-family="Helvetica,sans-Serif" font-size="10.00">/home/runner/work/diffblue</text>
<text text-anchor="start" x="667.49" y="-207.5" font-family="Helvetica,sans-Serif" font-size="10.00">&#45;cbmc/diffblue&#45;cbmc/jbmc</text>
<text text-anchor="start" x="667.49" y="-196.5" font-family="Helvetica,sans-Serif" font-size="10.00">/src/janalyzer/janalyzer</text>
<text text-anchor="middle" x="733.99" y="-185.5" font-family="Helvetica,sans-Serif" font-size="10.00">_parse_options.h</text>
</a>
</g>
</g>
<!-- Node6&#45;&gt;Node8 -->
<g id="edge7" class="edge">
<title>Node6&#45;&gt;Node8</title>
<path fill="none" stroke="midnightblue" d="M911.59,-264.25C878.43,-253.28 840.79,-240.83 808.72,-230.22"/>
<polygon fill="midnightblue" stroke="midnightblue" points="910.68,-267.63 921.27,-267.45 912.88,-260.99 910.68,-267.63"/>
</g>
<!-- Node10 -->
<g id="node10" class="node">
<title>Node10</title>
<g id="a_node10"><a xlink:href="java__entry__point_8cpp.html" target="_top" xlink:title=" ">
<polygon fill="none" stroke="black" points="826.49,-178.5 826.49,-230.5 989.49,-230.5 989.49,-178.5 826.49,-178.5"/>
<text text-anchor="start" x="834.49" y="-218.5" font-family="Helvetica,sans-Serif" font-size="10.00">/home/runner/work/diffblue</text>
<text text-anchor="start" x="834.49" y="-207.5" font-family="Helvetica,sans-Serif" font-size="10.00">&#45;cbmc/diffblue&#45;cbmc/jbmc</text>
<text text-anchor="start" x="834.49" y="-196.5" font-family="Helvetica,sans-Serif" font-size="10.00">/src/java_bytecode/java_entry</text>
<text text-anchor="middle" x="907.99" y="-185.5" font-family="Helvetica,sans-Serif" font-size="10.00">_point.cpp</text>
</a>
</g>
</g>
<!-- Node6&#45;&gt;Node10 -->
<g id="edge12" class="edge">
<title>Node6&#45;&gt;Node10</title>
<path fill="none" stroke="midnightblue" d="M963.82,-260.08C953.86,-250.34 943.08,-239.8 933.67,-230.61"/>
<polygon fill="midnightblue" stroke="midnightblue" points="961.65,-262.85 971.25,-267.34 966.54,-257.84 961.65,-262.85"/>
</g>
<!-- Node11 -->
<g id="node11" class="node">
<title>Node11</title>
<g id="a_node11"><a xlink:href="lazy__goto__model_8cpp.html" target="_top" xlink:title="Author: Diffblue Ltd.">
<polygon fill="none" stroke="black" points="1007.99,-178.5 1007.99,-230.5 1165.99,-230.5 1165.99,-178.5 1007.99,-178.5"/>
<text text-anchor="start" x="1015.99" y="-218.5" font-family="Helvetica,sans-Serif" font-size="10.00">/home/runner/work/diffblue</text>
<text text-anchor="start" x="1015.99" y="-207.5" font-family="Helvetica,sans-Serif" font-size="10.00">&#45;cbmc/diffblue&#45;cbmc/jbmc</text>
<text text-anchor="start" x="1015.99" y="-196.5" font-family="Helvetica,sans-Serif" font-size="10.00">/src/java_bytecode/lazy_goto</text>
<text text-anchor="middle" x="1086.99" y="-185.5" font-family="Helvetica,sans-Serif" font-size="10.00">_model.cpp</text>
</a>
</g>
</g>
<!-- Node6&#45;&gt;Node11 -->
<g id="edge13" class="edge">
<title>Node6&#45;&gt;Node11</title>
<path fill="none" stroke="midnightblue" d="M1030.23,-260.36C1040.39,-250.54 1051.41,-239.89 1061.02,-230.61"/>
<polygon fill="midnightblue" stroke="midnightblue" points="1027.78,-257.87 1023.02,-267.34 1032.64,-262.9 1027.78,-257.87"/>
</g>
<!-- Node12 -->
<g id="node12" class="node">
<title>Node12</title>
<g id="a_node12"><a xlink:href="jbmc__parse__options_8cpp.html" target="_top" xlink:title="JBMC Command Line Option Processing.">
<polygon fill="none" stroke="black" points="1042.99,-95 1042.99,-136 1224.99,-136 1224.99,-95 1042.99,-95"/>
<text text-anchor="start" x="1050.99" y="-124" font-family="Helvetica,sans-Serif" font-size="10.00">/home/runner/work/diffblue</text>
<text text-anchor="start" x="1050.99" y="-113" font-family="Helvetica,sans-Serif" font-size="10.00">&#45;cbmc/diffblue&#45;cbmc/jbmc</text>
<text text-anchor="middle" x="1133.99" y="-102" font-family="Helvetica,sans-Serif" font-size="10.00">/src/jbmc/jbmc_parse_options.cpp</text>
</a>
</g>
</g>
<!-- Node6&#45;&gt;Node12 -->
<g id="edge14" class="edge">
<title>Node6&#45;&gt;Node12</title>
<path fill="none" stroke="midnightblue" d="M1097.65,-280.32C1127.41,-271.49 1156.84,-256.47 1174.99,-231 1195.94,-201.59 1170.61,-160.39 1151.48,-136.26"/>
<polygon fill="midnightblue" stroke="midnightblue" points="1096.71,-276.95 1088,-282.97 1098.57,-283.7 1096.71,-276.95"/>
</g>
<!-- Node13 -->
<g id="node13" class="node">
<title>Node13</title>
<g id="a_node13"><a xlink:href="jbmc__parse__options_8h.html" target="_top" xlink:title="JBMC Command Line Option Processing.">
<polygon fill="none" stroke="black" points="1221.99,-184 1221.99,-225 1391.99,-225 1391.99,-184 1221.99,-184"/>
<text text-anchor="start" x="1229.99" y="-213" font-family="Helvetica,sans-Serif" font-size="10.00">/home/runner/work/diffblue</text>
<text text-anchor="start" x="1229.99" y="-202" font-family="Helvetica,sans-Serif" font-size="10.00">&#45;cbmc/diffblue&#45;cbmc/jbmc</text>
<text text-anchor="middle" x="1306.99" y="-191" font-family="Helvetica,sans-Serif" font-size="10.00">/src/jbmc/jbmc_parse_options.h</text>
</a>
</g>
</g>
<!-- Node6&#45;&gt;Node13 -->
<g id="edge15" class="edge">
<title>Node6&#45;&gt;Node13</title>
<path fill="none" stroke="midnightblue" d="M1095.92,-264.74C1141.85,-251.85 1195.37,-236.82 1237.03,-225.13"/>
<polygon fill="midnightblue" stroke="midnightblue" points="1094.92,-261.38 1086.24,-267.45 1096.81,-268.12 1094.92,-261.38"/>
</g>
<!-- Node15 -->
<g id="node15" class="node">
<title>Node15</title>
<g id="a_node15"><a xlink:href="jdiff__languages_8cpp.html" target="_top" xlink:title="Language Registration.">
<polygon fill="none" stroke="black" points="95.49,-184 95.49,-225 248.49,-225 248.49,-184 95.49,-184"/>
<text text-anchor="start" x="103.49" y="-213" font-family="Helvetica,sans-Serif" font-size="10.00">/home/runner/work/diffblue</text>
<text text-anchor="start" x="103.49" y="-202" font-family="Helvetica,sans-Serif" font-size="10.00">&#45;cbmc/diffblue&#45;cbmc/jbmc</text>
<text text-anchor="middle" x="171.99" y="-191" font-family="Helvetica,sans-Serif" font-size="10.00">/src/jdiff/jdiff_languages.cpp</text>
</a>
</g>
</g>
<!-- Node6&#45;&gt;Node15 -->
<g id="edge18" class="edge">
<title>Node6&#45;&gt;Node15</title>
<path fill="none" stroke="midnightblue" d="M895.79,-290.75C752.44,-286.77 482.58,-273.73 256.99,-231 248.66,-229.42 239.99,-227.35 231.51,-225.06"/>
<polygon fill="midnightblue" stroke="midnightblue" points="895.8,-294.25 905.89,-291.02 895.99,-287.25 895.8,-294.25"/>
</g>
<!-- Node16 -->
<g id="node16" class="node">
<title>Node16</title>
<g id="a_node16"><a xlink:href="jdiff__parse__options_8cpp.html" target="_top" xlink:title="JDIFF Command Line Option Processing.">
<polygon fill="none" stroke="black" points="266.49,-184 266.49,-225 437.49,-225 437.49,-184 266.49,-184"/>
<text text-anchor="start" x="274.49" y="-213" font-family="Helvetica,sans-Serif" font-size="10.00">/home/runner/work/diffblue</text>
<text text-anchor="start" x="274.49" y="-202" font-family="Helvetica,sans-Serif" font-size="10.00">&#45;cbmc/diffblue&#45;cbmc/jbmc</text>
<text text-anchor="middle" x="351.99" y="-191" font-family="Helvetica,sans-Serif" font-size="10.00">/src/jdiff/jdiff_parse_options.cpp</text>
</a>
</g>
</g>
<!-- Node6&#45;&gt;Node16 -->
<g id="edge19" class="edge">
<title>Node6&#45;&gt;Node16</title>
<path fill="none" stroke="midnightblue" d="M895.48,-285.87C784.4,-277.52 601.41,-260.57 445.99,-231 437.19,-229.32 428,-227.25 418.96,-225.01"/>
<polygon fill="midnightblue" stroke="midnightblue" points="895.44,-289.38 905.67,-286.63 895.96,-282.4 895.44,-289.38"/>
</g>
<!-- Node17 -->
<g id="node17" class="node">
<title>Node17</title>
<g id="a_node17"><a xlink:href="load__java__class_8cpp.html" target="_top" xlink:title=" ">
<polygon fill="none" stroke="black" points="455.49,-178.5 455.49,-230.5 604.49,-230.5 604.49,-178.5 455.49,-178.5"/>
<text text-anchor="start" x="463.49" y="-218.5" font-family="Helvetica,sans-Serif" font-size="10.00">/home/runner/work/diffblue</text>
<text text-anchor="start" x="463.49" y="-207.5" font-family="Helvetica,sans-Serif" font-size="10.00">&#45;cbmc/diffblue&#45;cbmc/jbmc</text>
<text text-anchor="start" x="463.49" y="-196.5" font-family="Helvetica,sans-Serif" font-size="10.00">/unit/java&#45;testing&#45;utils</text>
<text text-anchor="middle" x="529.99" y="-185.5" font-family="Helvetica,sans-Serif" font-size="10.00">/load_java_class.cpp</text>
</a>
</g>
</g>
<!-- Node6&#45;&gt;Node17 -->
<g id="edge20" class="edge">
<title>Node6&#45;&gt;Node17</title>
<path fill="none" stroke="midnightblue" d="M895.51,-279.44C818.82,-268.75 711.19,-251.98 617.99,-231 613.64,-230.02 609.2,-228.95 604.72,-227.82"/>
<polygon fill="midnightblue" stroke="midnightblue" points="895.27,-282.94 905.65,-280.84 896.22,-276.01 895.27,-282.94"/>
</g>
<!-- Node8&#45;&gt;Node7 -->
<g id="edge9" class="edge">
<title>Node8&#45;&gt;Node7</title>
<path fill="none" stroke="midnightblue" d="M696.65,-171.65C685.04,-161.75 672.41,-150.98 661.43,-141.61"/>
<polygon fill="midnightblue" stroke="midnightblue" points="694.61,-174.51 704.49,-178.34 699.15,-169.18 694.61,-174.51"/>
</g>
<!-- Node9 -->
<g id="node9" class="node">
<title>Node9</title>
<g id="a_node9"><a xlink:href="janalyzer__main_8cpp.html" target="_top" xlink:title="JANALYZER Main Module.">
<polygon fill="none" stroke="black" points="724.49,-89.5 724.49,-141.5 873.49,-141.5 873.49,-89.5 724.49,-89.5"/>
<text text-anchor="start" x="732.49" y="-129.5" font-family="Helvetica,sans-Serif" font-size="10.00">/home/runner/work/diffblue</text>
<text text-anchor="start" x="732.49" y="-118.5" font-family="Helvetica,sans-Serif" font-size="10.00">&#45;cbmc/diffblue&#45;cbmc/jbmc</text>
<text text-anchor="start" x="732.49" y="-107.5" font-family="Helvetica,sans-Serif" font-size="10.00">/src/janalyzer/janalyzer</text>
<text text-anchor="middle" x="798.99" y="-96.5" font-family="Helvetica,sans-Serif" font-size="10.00">_main.cpp</text>
</a>
</g>
</g>
<!-- Node8&#45;&gt;Node9 -->
<g id="edge8" class="edge">
<title>Node8&#45;&gt;Node9</title>
<path fill="none" stroke="midnightblue" d="M758.86,-170.22C765.95,-160.72 773.57,-150.53 780.23,-141.61"/>
<polygon fill="midnightblue" stroke="midnightblue" points="755.97,-168.23 752.79,-178.34 761.58,-172.42 755.97,-168.23"/>
</g>
<!-- Node13&#45;&gt;Node12 -->
<g id="edge17" class="edge">
<title>Node13&#45;&gt;Node12</title>
<path fill="none" stroke="midnightblue" d="M1259.23,-179.48C1232.08,-165.83 1198.53,-148.96 1172.98,-136.11"/>
<polygon fill="midnightblue" stroke="midnightblue" points="1257.66,-182.61 1268.16,-183.98 1260.8,-176.36 1257.66,-182.61"/>
</g>
<!-- Node14 -->
<g id="node14" class="node">
<title>Node14</title>
<g id="a_node14"><a xlink:href="jbmc__main_8cpp.html" target="_top" xlink:title="CBMC Main Module.">
<polygon fill="none" stroke="black" points="1243.49,-95 1243.49,-136 1392.49,-136 1392.49,-95 1243.49,-95"/>
<text text-anchor="start" x="1251.49" y="-124" font-family="Helvetica,sans-Serif" font-size="10.00">/home/runner/work/diffblue</text>
<text text-anchor="start" x="1251.49" y="-113" font-family="Helvetica,sans-Serif" font-size="10.00">&#45;cbmc/diffblue&#45;cbmc/jbmc</text>
<text text-anchor="middle" x="1317.99" y="-102" font-family="Helvetica,sans-Serif" font-size="10.00">/src/jbmc/jbmc_main.cpp</text>
</a>
</g>
</g>
<!-- Node13&#45;&gt;Node14 -->
<g id="edge16" class="edge">
<title>Node13&#45;&gt;Node14</title>
<path fill="none" stroke="midnightblue" d="M1310.74,-173.81C1312.31,-161.38 1314.1,-147.27 1315.5,-136.16"/>
<polygon fill="midnightblue" stroke="midnightblue" points="1307.27,-173.4 1309.49,-183.76 1314.21,-174.28 1307.27,-173.4"/>
</g>
<!-- Node18&#45;&gt;Node4 -->
<g id="edge22" class="edge">
<title>Node18&#45;&gt;Node4</title>
<path fill="none" stroke="midnightblue" d="M1784.08,-262.32C1767.49,-252.93 1749.66,-242.11 1733.99,-231 1652.96,-173.55 1567.18,-93.21 1525.59,-52.81"/>
<polygon fill="midnightblue" stroke="midnightblue" points="1782.71,-265.56 1793.15,-267.38 1786.12,-259.45 1782.71,-265.56"/>
</g>
<!-- Node18&#45;&gt;Node5 -->
<g id="edge31" class="edge">
<title>Node18&#45;&gt;Node5</title>
<path fill="none" stroke="midnightblue" d="M1805.43,-260.14C1776.44,-232.07 1737.78,-188.7 1718.99,-142 1707.25,-112.84 1702.76,-76.7 1701.05,-52.92"/>
<polygon fill="midnightblue" stroke="midnightblue" points="1803.29,-262.94 1812.95,-267.29 1808.11,-257.87 1803.29,-262.94"/>
</g>
<!-- Node18&#45;&gt;Node19 -->
<g id="edge23" class="edge">
<title>Node18&#45;&gt;Node19</title>
<path fill="none" stroke="midnightblue" d="M1857.03,-258.06C1861.04,-248.9 1865.28,-239.17 1869.02,-230.61"/>
<polygon fill="midnightblue" stroke="midnightblue" points="1853.78,-256.77 1852.98,-267.34 1860.19,-259.57 1853.78,-256.77"/>
</g>
<!-- Node20 -->
<g id="node20" class="node">
<title>Node20</title>
<g id="a_node20"><a xlink:href="java__bytecode__convert__method_8cpp.html" target="_top" xlink:title="JAVA Bytecode Language Conversion.">
<polygon fill="none" stroke="black" points="2005.99,-0.5 2005.99,-52.5 2187.99,-52.5 2187.99,-0.5 2005.99,-0.5"/>
<text text-anchor="start" x="2013.99" y="-40.5" font-family="Helvetica,sans-Serif" font-size="10.00">/home/runner/work/diffblue</text>
<text text-anchor="start" x="2013.99" y="-29.5" font-family="Helvetica,sans-Serif" font-size="10.00">&#45;cbmc/diffblue&#45;cbmc/jbmc</text>
<text text-anchor="start" x="2013.99" y="-18.5" font-family="Helvetica,sans-Serif" font-size="10.00">/src/java_bytecode/java_bytecode</text>
<text text-anchor="middle" x="2096.99" y="-7.5" font-family="Helvetica,sans-Serif" font-size="10.00">_convert_method.cpp</text>
</a>
</g>
</g>
<!-- Node19&#45;&gt;Node20 -->
<g id="edge24" class="edge">
<title>Node19&#45;&gt;Node20</title>
<path fill="none" stroke="midnightblue" d="M1981.16,-187.22C2031.19,-176.89 2084.03,-161.73 2098.99,-142 2118.32,-116.49 2112.55,-77.78 2105.6,-52.56"/>
<polygon fill="midnightblue" stroke="midnightblue" points="1980.32,-183.82 1971.2,-189.22 1981.7,-190.68 1980.32,-183.82"/>
</g>
<!-- Node19&#45;&gt;Node21 -->
<g id="edge25" class="edge">
<title>Node19&#45;&gt;Node21</title>
<path fill="none" stroke="midnightblue" d="M1922.78,-172.22C1936.53,-162.16 1951.58,-151.16 1964.65,-141.61"/>
<polygon fill="midnightblue" stroke="midnightblue" points="1920.42,-169.61 1914.41,-178.34 1924.55,-175.26 1920.42,-169.61"/>
</g>
<!-- Node23 -->
<g id="node23" class="node">
<title>Node23</title>
<g id="a_node23"><a xlink:href="java__local__variable__table_8cpp.html" target="_top" xlink:title="Java local variable table processing.">
<polygon fill="none" stroke="black" points="1728.49,-89.5 1728.49,-141.5 1889.49,-141.5 1889.49,-89.5 1728.49,-89.5"/>
<text text-anchor="start" x="1736.49" y="-129.5" font-family="Helvetica,sans-Serif" font-size="10.00">/home/runner/work/diffblue</text>
<text text-anchor="start" x="1736.49" y="-118.5" font-family="Helvetica,sans-Serif" font-size="10.00">&#45;cbmc/diffblue&#45;cbmc/jbmc</text>
<text text-anchor="start" x="1736.49" y="-107.5" font-family="Helvetica,sans-Serif" font-size="10.00">/src/java_bytecode/java_local</text>
<text text-anchor="middle" x="1808.99" y="-96.5" font-family="Helvetica,sans-Serif" font-size="10.00">_variable_table.cpp</text>
</a>
</g>
</g>
<!-- Node19&#45;&gt;Node23 -->
<g id="edge30" class="edge">
<title>Node19&#45;&gt;Node23</title>
<path fill="none" stroke="midnightblue" d="M1853.06,-170.5C1845.24,-160.92 1836.83,-150.62 1829.48,-141.61"/>
<polygon fill="midnightblue" stroke="midnightblue" points="1850.42,-172.8 1859.45,-178.34 1855.84,-168.38 1850.42,-172.8"/>
</g>
<!-- Node21&#45;&gt;Node4 -->
<g id="edge26" class="edge">
<title>Node21&#45;&gt;Node4</title>
<path fill="none" stroke="midnightblue" d="M1898.3,-89.06C1898.2,-89.04 1898.09,-89.02 1897.99,-89 1766.83,-64.62 1731.12,-77.53 1599.99,-53 1597.08,-52.46 1594.14,-51.88 1591.17,-51.27"/>
<polygon fill="midnightblue" stroke="midnightblue" points="1897.5,-92.47 1907.99,-90.96 1898.85,-85.6 1897.5,-92.47"/>
</g>
<!-- Node21&#45;&gt;Node5 -->
<g id="edge28" class="edge">
<title>Node21&#45;&gt;Node5</title>
<path fill="none" stroke="midnightblue" d="M1902.96,-86.56C1865.36,-75.62 1822.55,-63.16 1785.98,-52.52"/>
<polygon fill="midnightblue" stroke="midnightblue" points="1902.33,-90.02 1912.91,-89.45 1904.28,-83.3 1902.33,-90.02"/>
</g>
<!-- Node21&#45;&gt;Node20 -->
<g id="edge27" class="edge">
<title>Node21&#45;&gt;Node20</title>
<path fill="none" stroke="midnightblue" d="M2034.87,-82.65C2046.02,-72.75 2058.15,-61.98 2068.71,-52.61"/>
<polygon fill="midnightblue" stroke="midnightblue" points="2032.49,-80.08 2027.34,-89.34 2037.14,-85.31 2032.49,-80.08"/>
</g>
<!-- Node21&#45;&gt;Node22 -->
<g id="edge29" class="edge">
<title>Node21&#45;&gt;Node22</title>
<path fill="none" stroke="midnightblue" d="M2090.1,-86.39C2127.61,-74.82 2170.53,-61.58 2206.16,-50.59"/>
<polygon fill="midnightblue" stroke="midnightblue" points="2088.7,-83.16 2080.18,-89.45 2090.76,-89.85 2088.7,-83.16"/>
</g>
<!-- Node26&#45;&gt;Node3 -->
<g id="edge37" class="edge">
<title>Node26&#45;&gt;Node3</title>
<path fill="none" stroke="midnightblue" d="M1551.72,-349.5C1542.68,-340.99 1534.35,-331.05 1528.99,-320 1515.25,-291.69 1515.8,-254.71 1518.24,-230.55"/>
<polygon fill="midnightblue" stroke="midnightblue" points="1549.62,-352.31 1559.43,-356.3 1554.25,-347.06 1549.62,-352.31"/>
</g>
<!-- Node26&#45;&gt;Node5 -->
<g id="edge39" class="edge">
<title>Node26&#45;&gt;Node5</title>
<path fill="none" stroke="midnightblue" d="M1574.26,-347.41C1561.19,-324.16 1549.85,-293 1561.99,-267 1572.54,-244.42 1589.8,-250.76 1604.99,-231 1648.94,-173.81 1678.98,-93 1692.26,-52.58"/>
<polygon fill="midnightblue" stroke="midnightblue" points="1571.38,-349.42 1579.51,-356.22 1577.4,-345.84 1571.38,-349.42"/>
</g>
<!-- Node26&#45;&gt;Node6 -->
<g id="edge40" class="edge">
<title>Node26&#45;&gt;Node6</title>
<path fill="none" stroke="midnightblue" d="M1506.9,-368.31C1393.6,-351.91 1201.31,-324.08 1088.03,-307.68"/>
<polygon fill="midnightblue" stroke="midnightblue" points="1506.54,-371.8 1516.94,-369.77 1507.54,-364.87 1506.54,-371.8"/>
</g>
<!-- Node26&#45;&gt;Node18 -->
<g id="edge38" class="edge">
<title>Node26&#45;&gt;Node18</title>
<path fill="none" stroke="midnightblue" d="M1677.93,-353C1708.23,-342.19 1742.48,-329.98 1771.82,-319.52"/>
<polygon fill="midnightblue" stroke="midnightblue" points="1676.48,-349.8 1668.24,-356.45 1678.83,-356.39 1676.48,-349.8"/>
</g>
<!-- Node27 -->
<g id="node27" class="node">
<title>Node27</title>
<g id="a_node27"><a xlink:href="java__class__loader_8cpp.html" target="_top" xlink:title=" ">
<polygon fill="none" stroke="black" points="1570.99,-267.5 1570.99,-319.5 1732.99,-319.5 1732.99,-267.5 1570.99,-267.5"/>
<text text-anchor="start" x="1578.99" y="-307.5" font-family="Helvetica,sans-Serif" font-size="10.00">/home/runner/work/diffblue</text>
<text text-anchor="start" x="1578.99" y="-296.5" font-family="Helvetica,sans-Serif" font-size="10.00">&#45;cbmc/diffblue&#45;cbmc/jbmc</text>
<text text-anchor="start" x="1578.99" y="-285.5" font-family="Helvetica,sans-Serif" font-size="10.00">/src/java_bytecode/java_class</text>
<text text-anchor="middle" x="1651.99" y="-274.5" font-family="Helvetica,sans-Serif" font-size="10.00">_loader.cpp</text>
</a>
</g>
</g>
<!-- Node26&#45;&gt;Node27 -->
<g id="edge41" class="edge">
<title>Node26&#45;&gt;Node27</title>
<path fill="none" stroke="midnightblue" d="M1619.01,-347.64C1624.8,-338.31 1630.98,-328.35 1636.41,-319.61"/>
<polygon fill="midnightblue" stroke="midnightblue" points="1615.91,-345.99 1613.61,-356.34 1621.86,-349.69 1615.91,-345.99"/>
</g>
<!-- Node29&#45;&gt;Node5 -->
<g id="edge46" class="edge">
<title>Node29&#45;&gt;Node5</title>
<path fill="none" stroke="midnightblue" d="M2176.25,-101.11C2151.36,-97.19 2124.09,-92.91 2098.99,-89 1993.38,-72.55 1872,-53.87 1791.12,-41.46"/>
<polygon fill="midnightblue" stroke="midnightblue" points="2175.97,-104.61 2186.4,-102.71 2177.06,-97.69 2175.97,-104.61"/>
</g>
<!-- Node29&#45;&gt;Node20 -->
<g id="edge45" class="edge">
<title>Node29&#45;&gt;Node20</title>
<path fill="none" stroke="midnightblue" d="M2204.69,-84.64C2185.03,-74.2 2163.18,-62.61 2144.32,-52.61"/>
<polygon fill="midnightblue" stroke="midnightblue" points="2203.08,-87.74 2213.55,-89.34 2206.36,-81.56 2203.08,-87.74"/>
</g>
<!-- Node29&#45;&gt;Node22 -->
<g id="edge47" class="edge">
<title>Node29&#45;&gt;Node22</title>
<path fill="none" stroke="midnightblue" d="M2269.04,-79.48C2271.11,-70.49 2273.29,-60.99 2275.22,-52.61"/>
<polygon fill="midnightblue" stroke="midnightblue" points="2265.6,-78.81 2266.77,-89.34 2272.43,-80.37 2265.6,-78.81"/>
</g>
<!-- Node31 -->
<g id="node31" class="node">
<title>Node31</title>
<g id="a_node31"><a xlink:href="require__parse__tree_8cpp.html" target="_top" xlink:title=" ">
<polygon fill="none" stroke="black" points="2682.49,-267.5 2682.49,-319.5 2831.49,-319.5 2831.49,-267.5 2682.49,-267.5"/>
<text text-anchor="start" x="2690.49" y="-307.5" font-family="Helvetica,sans-Serif" font-size="10.00">/home/runner/work/diffblue</text>
<text text-anchor="start" x="2690.49" y="-296.5" font-family="Helvetica,sans-Serif" font-size="10.00">&#45;cbmc/diffblue&#45;cbmc/jbmc</text>
<text text-anchor="start" x="2690.49" y="-285.5" font-family="Helvetica,sans-Serif" font-size="10.00">/unit/java&#45;testing&#45;utils</text>
<text text-anchor="middle" x="2756.99" y="-274.5" font-family="Helvetica,sans-Serif" font-size="10.00">/require_parse_tree.cpp</text>
</a>
</g>
</g>
<!-- Node30&#45;&gt;Node31 -->
<g id="edge49" class="edge">
<title>Node30&#45;&gt;Node31</title>
<path fill="none" stroke="midnightblue" d="M2756.99,-346.19C2756.99,-337.28 2756.99,-327.9 2756.99,-319.61"/>
<polygon fill="midnightblue" stroke="midnightblue" points="2753.49,-346.34 2756.99,-356.34 2760.49,-346.34 2753.49,-346.34"/>
</g>
</g>
</svg>
