<?xml version="1.0" encoding="UTF-8" standalone="no"?>
<!DOCTYPE svg PUBLIC "-//W3C//DTD SVG 1.1//EN"
 "http://www.w3.org/Graphics/SVG/1.1/DTD/svg11.dtd">
<!-- Generated by graphviz version 2.43.0 (0)
 -->
<!-- Title: /home/runner/work/diffblue&#45;cbmc/diffblue&#45;cbmc/jbmc/src/java_bytecode/java_utils.h Pages: 1 -->
<svg width="3526pt" height="139pt"
 viewBox="0.00 0.00 3526.00 139.00" xmlns="http://www.w3.org/2000/svg" xmlns:xlink="http://www.w3.org/1999/xlink">
<g id="graph0" class="graph" transform="scale(1 1) rotate(0) translate(4 135)">
<title>/home/runner/work/diffblue&#45;cbmc/diffblue&#45;cbmc/jbmc/src/java_bytecode/java_utils.h</title>
<!-- Node1 -->
<g id="node1" class="node">
<title>Node1</title>
<g id="a_node1"><a xlink:title=" ">
<polygon fill="#bfbfbf" stroke="black" points="1734,-89.5 1734,-130.5 1901,-130.5 1901,-89.5 1734,-89.5"/>
<text text-anchor="start" x="1742" y="-118.5" font-family="Helvetica,sans-Serif" font-size="10.00">/home/runner/work/diffblue</text>
<text text-anchor="start" x="1742" y="-107.5" font-family="Helvetica,sans-Serif" font-size="10.00">&#45;cbmc/diffblue&#45;cbmc/jbmc</text>
<text text-anchor="middle" x="1817.5" y="-96.5" font-family="Helvetica,sans-Serif" font-size="10.00">/src/java_bytecode/java_utils.h</text>
</a>
</g>
</g>
<!-- Node2 -->
<g id="node2" class="node">
<title>Node2</title>
<g id="a_node2"><a xlink:href="assignments__from__json_8cpp.html" target="_top" xlink:title=" ">
<polygon fill="none" stroke="black" points="0,-0.5 0,-52.5 173,-52.5 173,-0.5 0,-0.5"/>
<text text-anchor="start" x="8" y="-40.5" font-family="Helvetica,sans-Serif" font-size="10.00">/home/runner/work/diffblue</text>
<text text-anchor="start" x="8" y="-29.5" font-family="Helvetica,sans-Serif" font-size="10.00">&#45;cbmc/diffblue&#45;cbmc/jbmc</text>
<text text-anchor="start" x="8" y="-18.5" font-family="Helvetica,sans-Serif" font-size="10.00">/src/java_bytecode/assignments</text>
<text text-anchor="middle" x="86.5" y="-7.5" font-family="Helvetica,sans-Serif" font-size="10.00">_from_json.cpp</text>
</a>
</g>
</g>
<!-- Node1&#45;&gt;Node2 -->
<g id="edge1" class="edge">
<title>Node1&#45;&gt;Node2</title>
<path fill="none" stroke="midnightblue" d="M1723.9,-108.6C1422.92,-106.86 482.18,-97.9 181.5,-53 178.71,-52.58 175.89,-52.12 173.05,-51.6"/>
<polygon fill="midnightblue" stroke="midnightblue" points="1723.88,-112.1 1733.9,-108.65 1723.92,-105.1 1723.88,-112.1"/>
</g>
<!-- Node3 -->
<g id="node3" class="node">
<title>Node3</title>
<g id="a_node3"><a xlink:href="convert__java__nondet_8cpp.html" target="_top" xlink:title="Convert side_effect_expr_nondett expressions.">
<polygon fill="none" stroke="black" points="191,-0.5 191,-52.5 340,-52.5 340,-0.5 191,-0.5"/>
<text text-anchor="start" x="199" y="-40.5" font-family="Helvetica,sans-Serif" font-size="10.00">/home/runner/work/diffblue</text>
<text text-anchor="start" x="199" y="-29.5" font-family="Helvetica,sans-Serif" font-size="10.00">&#45;cbmc/diffblue&#45;cbmc/jbmc</text>
<text text-anchor="start" x="199" y="-18.5" font-family="Helvetica,sans-Serif" font-size="10.00">/src/java_bytecode/convert</text>
<text text-anchor="middle" x="265.5" y="-7.5" font-family="Helvetica,sans-Serif" font-size="10.00">_java_nondet.cpp</text>
</a>
</g>
</g>
<!-- Node1&#45;&gt;Node3 -->
<g id="edge2" class="edge">
<title>Node1&#45;&gt;Node3</title>
<path fill="none" stroke="midnightblue" d="M1723.44,-108.6C1442.81,-106.91 614.45,-98.13 348.5,-53 345.82,-52.55 343.12,-52.03 340.39,-51.46"/>
<polygon fill="midnightblue" stroke="midnightblue" points="1723.57,-112.1 1733.59,-108.66 1723.61,-105.1 1723.57,-112.1"/>
</g>
<!-- Node4 -->
<g id="node4" class="node">
<title>Node4</title>
<g id="a_node4"><a xlink:href="java__bytecode__concurrency__instrumentation_8cpp.html" target="_top" xlink:title=" ">
<polygon fill="none" stroke="black" points="358,-0.5 358,-52.5 543,-52.5 543,-0.5 358,-0.5"/>
<text text-anchor="start" x="366" y="-40.5" font-family="Helvetica,sans-Serif" font-size="10.00">/home/runner/work/diffblue</text>
<text text-anchor="start" x="366" y="-29.5" font-family="Helvetica,sans-Serif" font-size="10.00">&#45;cbmc/diffblue&#45;cbmc/jbmc</text>
<text text-anchor="start" x="366" y="-18.5" font-family="Helvetica,sans-Serif" font-size="10.00">/src/java_bytecode/java_bytecode</text>
<text text-anchor="middle" x="450.5" y="-7.5" font-family="Helvetica,sans-Serif" font-size="10.00">_concurrency_instrumentation.cpp</text>
</a>
</g>
</g>
<!-- Node1&#45;&gt;Node4 -->
<g id="edge3" class="edge">
<title>Node1&#45;&gt;Node4</title>
<path fill="none" stroke="midnightblue" d="M1723.69,-107.29C1470.74,-102.28 778.46,-85.91 552.5,-53 549.43,-52.55 546.32,-52.05 543.18,-51.51"/>
<polygon fill="midnightblue" stroke="midnightblue" points="1723.89,-110.79 1733.96,-107.49 1724.03,-103.79 1723.89,-110.79"/>
</g>
<!-- Node5 -->
<g id="node5" class="node">
<title>Node5</title>
<g id="a_node5"><a xlink:href="java__bytecode__convert__class_8cpp.html" target="_top" xlink:title="JAVA Bytecode Language Conversion.">
<polygon fill="none" stroke="black" points="561.5,-0.5 561.5,-52.5 743.5,-52.5 743.5,-0.5 561.5,-0.5"/>
<text text-anchor="start" x="569.5" y="-40.5" font-family="Helvetica,sans-Serif" font-size="10.00">/home/runner/work/diffblue</text>
<text text-anchor="start" x="569.5" y="-29.5" font-family="Helvetica,sans-Serif" font-size="10.00">&#45;cbmc/diffblue&#45;cbmc/jbmc</text>
<text text-anchor="start" x="569.5" y="-18.5" font-family="Helvetica,sans-Serif" font-size="10.00">/src/java_bytecode/java_bytecode</text>
<text text-anchor="middle" x="652.5" y="-7.5" font-family="Helvetica,sans-Serif" font-size="10.00">_convert_class.cpp</text>
</a>
</g>
</g>
<!-- Node1&#45;&gt;Node5 -->
<g id="edge4" class="edge">
<title>Node1&#45;&gt;Node5</title>
<path fill="none" stroke="midnightblue" d="M1723.77,-106.44C1499.81,-99.95 938.4,-81.31 752.5,-53 749.58,-52.55 746.62,-52.06 743.63,-51.53"/>
<polygon fill="midnightblue" stroke="midnightblue" points="1723.76,-109.94 1733.86,-106.73 1723.96,-102.95 1723.76,-109.94"/>
</g>
<!-- Node6 -->
<g id="node6" class="node">
<title>Node6</title>
<g id="a_node6"><a xlink:href="java__bytecode__convert__method_8cpp.html" target="_top" xlink:title="JAVA Bytecode Language Conversion.">
<polygon fill="none" stroke="black" points="761.5,-0.5 761.5,-52.5 943.5,-52.5 943.5,-0.5 761.5,-0.5"/>
<text text-anchor="start" x="769.5" y="-40.5" font-family="Helvetica,sans-Serif" font-size="10.00">/home/runner/work/diffblue</text>
<text text-anchor="start" x="769.5" y="-29.5" font-family="Helvetica,sans-Serif" font-size="10.00">&#45;cbmc/diffblue&#45;cbmc/jbmc</text>
<text text-anchor="start" x="769.5" y="-18.5" font-family="Helvetica,sans-Serif" font-size="10.00">/src/java_bytecode/java_bytecode</text>
<text text-anchor="middle" x="852.5" y="-7.5" font-family="Helvetica,sans-Serif" font-size="10.00">_convert_method.cpp</text>
</a>
</g>
</g>
<!-- Node1&#45;&gt;Node6 -->
<g id="edge5" class="edge">
<title>Node1&#45;&gt;Node6</title>
<path fill="none" stroke="midnightblue" d="M1723.48,-108.59C1563.95,-106.63 1230.47,-97.05 952.5,-53 949.58,-52.54 946.62,-52.03 943.64,-51.48"/>
<polygon fill="midnightblue" stroke="midnightblue" points="1723.69,-112.09 1733.73,-108.71 1723.77,-105.09 1723.69,-112.09"/>
</g>
<!-- Node7 -->
<g id="node7" class="node">
<title>Node7</title>
<g id="a_node7"><a xlink:href="java__bytecode__instrument_8cpp.html" target="_top" xlink:title=" ">
<polygon fill="none" stroke="black" points="961.5,-0.5 961.5,-52.5 1143.5,-52.5 1143.5,-0.5 961.5,-0.5"/>
<text text-anchor="start" x="969.5" y="-40.5" font-family="Helvetica,sans-Serif" font-size="10.00">/home/runner/work/diffblue</text>
<text text-anchor="start" x="969.5" y="-29.5" font-family="Helvetica,sans-Serif" font-size="10.00">&#45;cbmc/diffblue&#45;cbmc/jbmc</text>
<text text-anchor="start" x="969.5" y="-18.5" font-family="Helvetica,sans-Serif" font-size="10.00">/src/java_bytecode/java_bytecode</text>
<text text-anchor="middle" x="1052.5" y="-7.5" font-family="Helvetica,sans-Serif" font-size="10.00">_instrument.cpp</text>
</a>
</g>
</g>
<!-- Node1&#45;&gt;Node7 -->
<g id="edge6" class="edge">
<title>Node1&#45;&gt;Node7</title>
<path fill="none" stroke="midnightblue" d="M1723.48,-105.99C1594.1,-100.73 1354.26,-86.98 1152.5,-53 1149.58,-52.51 1146.63,-51.98 1143.65,-51.41"/>
<polygon fill="midnightblue" stroke="midnightblue" points="1723.62,-109.49 1733.75,-106.4 1723.89,-102.5 1723.62,-109.49"/>
</g>
<!-- Node8 -->
<g id="node8" class="node">
<title>Node8</title>
<g id="a_node8"><a xlink:href="java__bytecode__language_8cpp.html" target="_top" xlink:title=" ">
<polygon fill="none" stroke="black" points="1161.5,-0.5 1161.5,-52.5 1343.5,-52.5 1343.5,-0.5 1161.5,-0.5"/>
<text text-anchor="start" x="1169.5" y="-40.5" font-family="Helvetica,sans-Serif" font-size="10.00">/home/runner/work/diffblue</text>
<text text-anchor="start" x="1169.5" y="-29.5" font-family="Helvetica,sans-Serif" font-size="10.00">&#45;cbmc/diffblue&#45;cbmc/jbmc</text>
<text text-anchor="start" x="1169.5" y="-18.5" font-family="Helvetica,sans-Serif" font-size="10.00">/src/java_bytecode/java_bytecode</text>
<text text-anchor="middle" x="1252.5" y="-7.5" font-family="Helvetica,sans-Serif" font-size="10.00">_language.cpp</text>
</a>
</g>
</g>
<!-- Node1&#45;&gt;Node8 -->
<g id="edge7" class="edge">
<title>Node1&#45;&gt;Node8</title>
<path fill="none" stroke="midnightblue" d="M1723.76,-101.31C1629.46,-92.74 1480.13,-76.85 1352.5,-53 1349.59,-52.46 1346.65,-51.88 1343.68,-51.27"/>
<polygon fill="midnightblue" stroke="midnightblue" points="1723.57,-104.81 1733.84,-102.22 1724.2,-97.84 1723.57,-104.81"/>
</g>
<!-- Node9 -->
<g id="node9" class="node">
<title>Node9</title>
<g id="a_node9"><a xlink:href="java__entry__point_8cpp.html" target="_top" xlink:title=" ">
<polygon fill="none" stroke="black" points="1362,-0.5 1362,-52.5 1525,-52.5 1525,-0.5 1362,-0.5"/>
<text text-anchor="start" x="1370" y="-40.5" font-family="Helvetica,sans-Serif" font-size="10.00">/home/runner/work/diffblue</text>
<text text-anchor="start" x="1370" y="-29.5" font-family="Helvetica,sans-Serif" font-size="10.00">&#45;cbmc/diffblue&#45;cbmc/jbmc</text>
<text text-anchor="start" x="1370" y="-18.5" font-family="Helvetica,sans-Serif" font-size="10.00">/src/java_bytecode/java_entry</text>
<text text-anchor="middle" x="1443.5" y="-7.5" font-family="Helvetica,sans-Serif" font-size="10.00">_point.cpp</text>
</a>
</g>
</g>
<!-- Node1&#45;&gt;Node9 -->
<g id="edge8" class="edge">
<title>Node1&#45;&gt;Node9</title>
<path fill="none" stroke="midnightblue" d="M1723.72,-92.34C1668.42,-82.04 1597.22,-67.97 1534.5,-53 1531.47,-52.28 1528.38,-51.52 1525.27,-50.74"/>
<polygon fill="midnightblue" stroke="midnightblue" points="1723.38,-95.84 1733.85,-94.22 1724.66,-88.95 1723.38,-95.84"/>
</g>
<!-- Node10 -->
<g id="node10" class="node">
<title>Node10</title>
<g id="a_node10"><a xlink:href="java__enum__static__init__unwind__handler_8cpp.html" target="_top" xlink:title="Unwind loops in static initializers.">
<polygon fill="none" stroke="black" points="1543.5,-0.5 1543.5,-52.5 1715.5,-52.5 1715.5,-0.5 1543.5,-0.5"/>
<text text-anchor="start" x="1551.5" y="-40.5" font-family="Helvetica,sans-Serif" font-size="10.00">/home/runner/work/diffblue</text>
<text text-anchor="start" x="1551.5" y="-29.5" font-family="Helvetica,sans-Serif" font-size="10.00">&#45;cbmc/diffblue&#45;cbmc/jbmc</text>
<text text-anchor="start" x="1551.5" y="-18.5" font-family="Helvetica,sans-Serif" font-size="10.00">/src/java_bytecode/java_enum</text>
<text text-anchor="middle" x="1629.5" y="-7.5" font-family="Helvetica,sans-Serif" font-size="10.00">_static_init_unwind_handler.cpp</text>
</a>
</g>
</g>
<!-- Node1&#45;&gt;Node10 -->
<g id="edge9" class="edge">
<title>Node1&#45;&gt;Node10</title>
<path fill="none" stroke="midnightblue" d="M1763.24,-85.48C1739.46,-75.17 1711.52,-63.06 1687.35,-52.58"/>
<polygon fill="midnightblue" stroke="midnightblue" points="1761.9,-88.71 1772.47,-89.48 1764.69,-82.29 1761.9,-88.71"/>
</g>
<!-- Node11 -->
<g id="node11" class="node">
<title>Node11</title>
<g id="a_node11"><a xlink:href="java__object__factory_8cpp.html" target="_top" xlink:title=" ">
<polygon fill="none" stroke="black" points="1734,-0.5 1734,-52.5 1901,-52.5 1901,-0.5 1734,-0.5"/>
<text text-anchor="start" x="1742" y="-40.5" font-family="Helvetica,sans-Serif" font-size="10.00">/home/runner/work/diffblue</text>
<text text-anchor="start" x="1742" y="-29.5" font-family="Helvetica,sans-Serif" font-size="10.00">&#45;cbmc/diffblue&#45;cbmc/jbmc</text>
<text text-anchor="start" x="1742" y="-18.5" font-family="Helvetica,sans-Serif" font-size="10.00">/src/java_bytecode/java_object</text>
<text text-anchor="middle" x="1817.5" y="-7.5" font-family="Helvetica,sans-Serif" font-size="10.00">_factory.cpp</text>
</a>
</g>
</g>
<!-- Node1&#45;&gt;Node11 -->
<g id="edge10" class="edge">
<title>Node1&#45;&gt;Node11</title>
<path fill="none" stroke="midnightblue" d="M1817.5,-79.12C1817.5,-70.41 1817.5,-60.99 1817.5,-52.61"/>
<polygon fill="midnightblue" stroke="midnightblue" points="1814,-79.27 1817.5,-89.27 1821,-79.27 1814,-79.27"/>
</g>
<!-- Node12 -->
<g id="node12" class="node">
<title>Node12</title>
<g id="a_node12"><a xlink:href="java__static__initializers_8cpp.html" target="_top" xlink:title=" ">
<polygon fill="none" stroke="black" points="1919.5,-0.5 1919.5,-52.5 2083.5,-52.5 2083.5,-0.5 1919.5,-0.5"/>
<text text-anchor="start" x="1927.5" y="-40.5" font-family="Helvetica,sans-Serif" font-size="10.00">/home/runner/work/diffblue</text>
<text text-anchor="start" x="1927.5" y="-29.5" font-family="Helvetica,sans-Serif" font-size="10.00">&#45;cbmc/diffblue&#45;cbmc/jbmc</text>
<text text-anchor="start" x="1927.5" y="-18.5" font-family="Helvetica,sans-Serif" font-size="10.00">/src/java_bytecode/java_static</text>
<text text-anchor="middle" x="2001.5" y="-7.5" font-family="Helvetica,sans-Serif" font-size="10.00">_initializers.cpp</text>
</a>
</g>
</g>
<!-- Node1&#45;&gt;Node12 -->
<g id="edge11" class="edge">
<title>Node1&#45;&gt;Node12</title>
<path fill="none" stroke="midnightblue" d="M1870.92,-85.34C1894.12,-75.06 1921.33,-63.01 1944.89,-52.58"/>
<polygon fill="midnightblue" stroke="midnightblue" points="1869.3,-82.23 1861.57,-89.48 1872.13,-88.63 1869.3,-82.23"/>
</g>
<!-- Node13 -->
<g id="node13" class="node">
<title>Node13</title>
<g id="a_node13"><a xlink:href="java__string__library__preprocess_8cpp.html" target="_top" xlink:title="Java_string_libraries_preprocess, gives code for methods on strings of the java standard library.">
<polygon fill="none" stroke="black" points="2102,-0.5 2102,-52.5 2267,-52.5 2267,-0.5 2102,-0.5"/>
<text text-anchor="start" x="2110" y="-40.5" font-family="Helvetica,sans-Serif" font-size="10.00">/home/runner/work/diffblue</text>
<text text-anchor="start" x="2110" y="-29.5" font-family="Helvetica,sans-Serif" font-size="10.00">&#45;cbmc/diffblue&#45;cbmc/jbmc</text>
<text text-anchor="start" x="2110" y="-18.5" font-family="Helvetica,sans-Serif" font-size="10.00">/src/java_bytecode/java_string</text>
<text text-anchor="middle" x="2184.5" y="-7.5" font-family="Helvetica,sans-Serif" font-size="10.00">_library_preprocess.cpp</text>
</a>
</g>
</g>
<!-- Node1&#45;&gt;Node13 -->
<g id="edge12" class="edge">
<title>Node1&#45;&gt;Node13</title>
<path fill="none" stroke="midnightblue" d="M1911.29,-91.58C1964.62,-81.25 2032.53,-67.4 2092.5,-53 2095.56,-52.26 2098.68,-51.5 2101.82,-50.71"/>
<polygon fill="midnightblue" stroke="midnightblue" points="1910.33,-88.2 1901.17,-93.53 1911.65,-95.07 1910.33,-88.2"/>
</g>
<!-- Node14 -->
<g id="node14" class="node">
<title>Node14</title>
<g id="a_node14"><a xlink:href="java__string__literals_8cpp.html" target="_top" xlink:title=" ">
<polygon fill="none" stroke="black" points="2285,-0.5 2285,-52.5 2450,-52.5 2450,-0.5 2285,-0.5"/>
<text text-anchor="start" x="2293" y="-40.5" font-family="Helvetica,sans-Serif" font-size="10.00">/home/runner/work/diffblue</text>
<text text-anchor="start" x="2293" y="-29.5" font-family="Helvetica,sans-Serif" font-size="10.00">&#45;cbmc/diffblue&#45;cbmc/jbmc</text>
<text text-anchor="start" x="2293" y="-18.5" font-family="Helvetica,sans-Serif" font-size="10.00">/src/java_bytecode/java_string</text>
<text text-anchor="middle" x="2367.5" y="-7.5" font-family="Helvetica,sans-Serif" font-size="10.00">_literals.cpp</text>
</a>
</g>
</g>
<!-- Node1&#45;&gt;Node14 -->
<g id="edge13" class="edge">
<title>Node1&#45;&gt;Node14</title>
<path fill="none" stroke="midnightblue" d="M1911,-101.78C2004.22,-93.6 2151.18,-78.05 2276.5,-53 2279.24,-52.45 2282.01,-51.87 2284.8,-51.25"/>
<polygon fill="midnightblue" stroke="midnightblue" points="1910.68,-98.29 1901.02,-102.65 1911.29,-105.27 1910.68,-98.29"/>
</g>
<!-- Node15 -->
<g id="node15" class="node">
<title>Node15</title>
<g id="a_node15"><a xlink:href="java__types_8cpp.html" target="_top" xlink:title=" ">
<polygon fill="none" stroke="black" points="2468,-6 2468,-47 2653,-47 2653,-6 2468,-6"/>
<text text-anchor="start" x="2476" y="-35" font-family="Helvetica,sans-Serif" font-size="10.00">/home/runner/work/diffblue</text>
<text text-anchor="start" x="2476" y="-24" font-family="Helvetica,sans-Serif" font-size="10.00">&#45;cbmc/diffblue&#45;cbmc/jbmc</text>
<text text-anchor="middle" x="2560.5" y="-13" font-family="Helvetica,sans-Serif" font-size="10.00">/src/java_bytecode/java_types.cpp</text>
</a>
</g>
</g>
<!-- Node1&#45;&gt;Node15 -->
<g id="edge14" class="edge">
<title>Node1&#45;&gt;Node15</title>
<path fill="none" stroke="midnightblue" d="M1911.49,-105.52C2037.12,-99.8 2266.35,-85.59 2459.5,-53 2469.13,-51.38 2479.19,-49.3 2489.07,-47.04"/>
<polygon fill="midnightblue" stroke="midnightblue" points="1910.98,-102.04 1901.15,-105.98 1911.29,-109.03 1910.98,-102.04"/>
</g>
<!-- Node16 -->
<g id="node16" class="node">
<title>Node16</title>
<g id="a_node16"><a xlink:href="java__utils_8cpp.html" target="_top" xlink:title=" ">
<polygon fill="none" stroke="black" points="2671,-6 2671,-47 2850,-47 2850,-6 2671,-6"/>
<text text-anchor="start" x="2679" y="-35" font-family="Helvetica,sans-Serif" font-size="10.00">/home/runner/work/diffblue</text>
<text text-anchor="start" x="2679" y="-24" font-family="Helvetica,sans-Serif" font-size="10.00">&#45;cbmc/diffblue&#45;cbmc/jbmc</text>
<text text-anchor="middle" x="2760.5" y="-13" font-family="Helvetica,sans-Serif" font-size="10.00">/src/java_bytecode/java_utils.cpp</text>
</a>
</g>
</g>
<!-- Node1&#45;&gt;Node16 -->
<g id="edge15" class="edge">
<title>Node1&#45;&gt;Node16</title>
<path fill="none" stroke="midnightblue" d="M1911.21,-108.53C2067.81,-106.47 2392.13,-96.73 2662.5,-53 2672.13,-51.44 2682.19,-49.36 2692.05,-47.06"/>
<polygon fill="midnightblue" stroke="midnightblue" points="1911.1,-105.03 1901.14,-108.66 1911.19,-112.03 1911.1,-105.03"/>
</g>
<!-- Node17 -->
<g id="node17" class="node">
<title>Node17</title>
<g id="a_node17"><a xlink:href="lambda__synthesis_8cpp.html" target="_top" xlink:title="Java lambda code synthesis.">
<polygon fill="none" stroke="black" points="2868,-0.5 2868,-52.5 3017,-52.5 3017,-0.5 2868,-0.5"/>
<text text-anchor="start" x="2876" y="-40.5" font-family="Helvetica,sans-Serif" font-size="10.00">/home/runner/work/diffblue</text>
<text text-anchor="start" x="2876" y="-29.5" font-family="Helvetica,sans-Serif" font-size="10.00">&#45;cbmc/diffblue&#45;cbmc/jbmc</text>
<text text-anchor="start" x="2876" y="-18.5" font-family="Helvetica,sans-Serif" font-size="10.00">/src/java_bytecode/lambda</text>
<text text-anchor="middle" x="2942.5" y="-7.5" font-family="Helvetica,sans-Serif" font-size="10.00">_synthesis.cpp</text>
</a>
</g>
</g>
<!-- Node1&#45;&gt;Node17 -->
<g id="edge16" class="edge">
<title>Node1&#45;&gt;Node17</title>
<path fill="none" stroke="midnightblue" d="M1911.63,-106.88C2132.5,-101.44 2678.98,-85.08 2859.5,-53 2862.17,-52.53 2864.88,-51.99 2867.6,-51.41"/>
<polygon fill="midnightblue" stroke="midnightblue" points="1911.27,-103.39 1901.36,-107.13 1911.44,-110.39 1911.27,-103.39"/>
</g>
<!-- Node18 -->
<g id="node18" class="node">
<title>Node18</title>
<g id="a_node18"><a xlink:href="remove__java__new_8cpp.html" target="_top" xlink:title="Remove Java New Operators.">
<polygon fill="none" stroke="black" points="3035,-0.5 3035,-52.5 3184,-52.5 3184,-0.5 3035,-0.5"/>
<text text-anchor="start" x="3043" y="-40.5" font-family="Helvetica,sans-Serif" font-size="10.00">/home/runner/work/diffblue</text>
<text text-anchor="start" x="3043" y="-29.5" font-family="Helvetica,sans-Serif" font-size="10.00">&#45;cbmc/diffblue&#45;cbmc/jbmc</text>
<text text-anchor="start" x="3043" y="-18.5" font-family="Helvetica,sans-Serif" font-size="10.00">/src/java_bytecode/remove</text>
<text text-anchor="middle" x="3109.5" y="-7.5" font-family="Helvetica,sans-Serif" font-size="10.00">_java_new.cpp</text>
</a>
</g>
</g>
<!-- Node1&#45;&gt;Node18 -->
<g id="edge17" class="edge">
<title>Node1&#45;&gt;Node18</title>
<path fill="none" stroke="midnightblue" d="M1911.53,-107.7C2156.97,-103.82 2812.72,-90.18 3026.5,-53 3029.17,-52.54 3031.88,-52.01 3034.61,-51.43"/>
<polygon fill="midnightblue" stroke="midnightblue" points="1911.16,-104.2 1901.21,-107.86 1911.27,-111.2 1911.16,-104.2"/>
</g>
<!-- Node19 -->
<g id="node19" class="node">
<title>Node19</title>
<g id="a_node19"><a xlink:href="simple__method__stubbing_8cpp.html" target="_top" xlink:title="Java simple opaque stub generation.">
<polygon fill="none" stroke="black" points="3202,-0.5 3202,-52.5 3351,-52.5 3351,-0.5 3202,-0.5"/>
<text text-anchor="start" x="3210" y="-40.5" font-family="Helvetica,sans-Serif" font-size="10.00">/home/runner/work/diffblue</text>
<text text-anchor="start" x="3210" y="-29.5" font-family="Helvetica,sans-Serif" font-size="10.00">&#45;cbmc/diffblue&#45;cbmc/jbmc</text>
<text text-anchor="start" x="3210" y="-18.5" font-family="Helvetica,sans-Serif" font-size="10.00">/src/java_bytecode/simple</text>
<text text-anchor="middle" x="3276.5" y="-7.5" font-family="Helvetica,sans-Serif" font-size="10.00">_method_stubbing.cpp</text>
</a>
</g>
</g>
<!-- Node1&#45;&gt;Node19 -->
<g id="edge18" class="edge">
<title>Node1&#45;&gt;Node19</title>
<path fill="none" stroke="midnightblue" d="M1911.13,-108.32C2179.19,-105.88 2946.14,-95.3 3193.5,-53 3196.17,-52.54 3198.88,-52.02 3201.61,-51.45"/>
<polygon fill="midnightblue" stroke="midnightblue" points="1911.01,-104.82 1901.04,-108.41 1911.07,-111.82 1911.01,-104.82"/>
</g>
<!-- Node20 -->
<g id="node20" class="node">
<title>Node20</title>
<g id="a_node20"><a xlink:href="java__syntactic__diff_8cpp.html" target="_top" xlink:title="Syntactic GOTO&#45;DIFF for Java.">
<polygon fill="none" stroke="black" points="3369,-0.5 3369,-52.5 3518,-52.5 3518,-0.5 3369,-0.5"/>
<text text-anchor="start" x="3377" y="-40.5" font-family="Helvetica,sans-Serif" font-size="10.00">/home/runner/work/diffblue</text>
<text text-anchor="start" x="3377" y="-29.5" font-family="Helvetica,sans-Serif" font-size="10.00">&#45;cbmc/diffblue&#45;cbmc/jbmc</text>
<text text-anchor="start" x="3377" y="-18.5" font-family="Helvetica,sans-Serif" font-size="10.00">/src/jdiff/java_syntactic</text>
<text text-anchor="middle" x="3443.5" y="-7.5" font-family="Helvetica,sans-Serif" font-size="10.00">_diff.cpp</text>
</a>
</g>
</g>
<!-- Node1&#45;&gt;Node20 -->
<g id="edge19" class="edge">
<title>Node1&#45;&gt;Node20</title>
<path fill="none" stroke="midnightblue" d="M1911.26,-108.81C2201.03,-107.7 3079.52,-100.42 3360.5,-53 3363.18,-52.55 3365.89,-52.03 3368.61,-51.47"/>
<polygon fill="midnightblue" stroke="midnightblue" points="1911.19,-105.31 1901.2,-108.84 1911.22,-112.31 1911.19,-105.31"/>
</g>
</g>
</svg>
