<?xml version="1.0" encoding="UTF-8" standalone="no"?>
<!DOCTYPE svg PUBLIC "-//W3C//DTD SVG 1.1//EN"
 "http://www.w3.org/Graphics/SVG/1.1/DTD/svg11.dtd">
<!-- Generated by graphviz version 2.43.0 (0)
 -->
<!-- Title: /home/runner/work/diffblue&#45;cbmc/diffblue&#45;cbmc/jbmc/src/java_bytecode/java_class_loader_limit.h Pages: 1 -->
<svg width="889pt" height="453pt"
 viewBox="0.00 0.00 888.50 453.00" xmlns="http://www.w3.org/2000/svg" xmlns:xlink="http://www.w3.org/1999/xlink">
<g id="graph0" class="graph" transform="scale(1 1) rotate(0) translate(4 449)">
<title>/home/runner/work/diffblue&#45;cbmc/diffblue&#45;cbmc/jbmc/src/java_bytecode/java_class_loader_limit.h</title>
<!-- Node1 -->
<g id="node1" class="node">
<title>Node1</title>
<g id="a_node1"><a xlink:title="limit class path loading">
<polygon fill="#bfbfbf" stroke="black" points="0,-392.5 0,-444.5 162,-444.5 162,-392.5 0,-392.5"/>
<text text-anchor="start" x="8" y="-432.5" font-family="Helvetica,sans-Serif" font-size="10.00">/home/runner/work/diffblue</text>
<text text-anchor="start" x="8" y="-421.5" font-family="Helvetica,sans-Serif" font-size="10.00">&#45;cbmc/diffblue&#45;cbmc/jbmc</text>
<text text-anchor="start" x="8" y="-410.5" font-family="Helvetica,sans-Serif" font-size="10.00">/src/java_bytecode/java_class</text>
<text text-anchor="middle" x="81" y="-399.5" font-family="Helvetica,sans-Serif" font-size="10.00">_loader_limit.h</text>
</a>
</g>
</g>
<!-- Node2 -->
<g id="node2" class="node">
<title>Node2</title>
<g id="a_node2"><a xlink:title=" ">
<polygon fill="none" stroke="#bfbfbf" points="9,-336.5 9,-355.5 41,-355.5 41,-336.5 9,-336.5"/>
<text text-anchor="middle" x="25" y="-343.5" font-family="Helvetica,sans-Serif" font-size="10.00">set</text>
</a>
</g>
</g>
<!-- Node1&#45;&gt;Node2 -->
<g id="edge1" class="edge">
<title>Node1&#45;&gt;Node2</title>
<path fill="none" stroke="midnightblue" d="M61.1,-392.45C53.54,-382.93 45.12,-372.33 38.31,-363.76"/>
<polygon fill="midnightblue" stroke="midnightblue" points="40.87,-361.35 31.91,-355.7 35.39,-365.7 40.87,-361.35"/>
</g>
<!-- Node3 -->
<g id="node3" class="node">
<title>Node3</title>
<g id="a_node3"><a xlink:title=" ">
<polygon fill="none" stroke="#bfbfbf" points="59,-336.5 59,-355.5 103,-355.5 103,-336.5 59,-336.5"/>
<text text-anchor="middle" x="81" y="-343.5" font-family="Helvetica,sans-Serif" font-size="10.00">regex</text>
</a>
</g>
</g>
<!-- Node1&#45;&gt;Node3 -->
<g id="edge2" class="edge">
<title>Node1&#45;&gt;Node3</title>
<path fill="none" stroke="midnightblue" d="M81,-392.45C81,-383.73 81,-374.1 81,-365.96"/>
<polygon fill="midnightblue" stroke="midnightblue" points="84.5,-365.7 81,-355.7 77.5,-365.7 84.5,-365.7"/>
</g>
<!-- Node4 -->
<g id="node4" class="node">
<title>Node4</title>
<g id="a_node4"><a xlink:href="src_2util_2message_8h.html" target="_top" xlink:title=" ">
<polygon fill="none" stroke="black" points="121.5,-336.5 121.5,-355.5 210.5,-355.5 210.5,-336.5 121.5,-336.5"/>
<text text-anchor="middle" x="166" y="-343.5" font-family="Helvetica,sans-Serif" font-size="10.00">util/message.h</text>
</a>
</g>
</g>
<!-- Node1&#45;&gt;Node4 -->
<g id="edge3" class="edge">
<title>Node1&#45;&gt;Node4</title>
<path fill="none" stroke="midnightblue" d="M111.21,-392.45C123.41,-382.33 137.08,-370.98 147.72,-362.16"/>
<polygon fill="midnightblue" stroke="midnightblue" points="150.05,-364.77 155.52,-355.7 145.58,-359.39 150.05,-364.77"/>
</g>
<!-- Node5 -->
<g id="node5" class="node">
<title>Node5</title>
<g id="a_node5"><a xlink:href="src_2util_2invariant_8h.html" target="_top" xlink:title=" ">
<polygon fill="none" stroke="black" points="163.5,-56.5 163.5,-75.5 232.5,-75.5 232.5,-56.5 163.5,-56.5"/>
<text text-anchor="middle" x="198" y="-63.5" font-family="Helvetica,sans-Serif" font-size="10.00">invariant.h</text>
</a>
</g>
</g>
<!-- Node4&#45;&gt;Node5 -->
<g id="edge4" class="edge">
<title>Node4&#45;&gt;Node5</title>
<path fill="none" stroke="midnightblue" d="M160.87,-336.41C155.94,-327.61 148.84,-313.38 146,-300 144.15,-291.3 144.94,-288.83 146,-280 154.82,-206.71 180.12,-122.22 191.87,-85.56"/>
<polygon fill="midnightblue" stroke="midnightblue" points="195.28,-86.38 195.05,-75.79 188.63,-84.22 195.28,-86.38"/>
</g>
<!-- Node7 -->
<g id="node7" class="node">
<title>Node7</title>
<g id="a_node7"><a xlink:title=" ">
<polygon fill="none" stroke="#bfbfbf" points="8,-0.5 8,-19.5 64,-19.5 64,-0.5 8,-0.5"/>
<text text-anchor="middle" x="36" y="-7.5" font-family="Helvetica,sans-Serif" font-size="10.00">sstream</text>
</a>
</g>
</g>
<!-- Node4&#45;&gt;Node7 -->
<g id="edge34" class="edge">
<title>Node4&#45;&gt;Node7</title>
<path fill="none" stroke="midnightblue" d="M130.9,-336.47C85.73,-323.15 13,-292.74 13,-235 13,-235 13,-235 13,-121 13,-88.12 22.97,-50.86 29.78,-29.24"/>
<polygon fill="midnightblue" stroke="midnightblue" points="33.11,-30.3 32.9,-19.71 26.46,-28.12 33.11,-30.3"/>
</g>
<!-- Node8 -->
<g id="node8" class="node">
<title>Node8</title>
<g id="a_node8"><a xlink:title=" ">
<polygon fill="none" stroke="#bfbfbf" points="105,-0.5 105,-19.5 149,-19.5 149,-0.5 105,-0.5"/>
<text text-anchor="middle" x="127" y="-7.5" font-family="Helvetica,sans-Serif" font-size="10.00">string</text>
</a>
</g>
</g>
<!-- Node4&#45;&gt;Node8 -->
<g id="edge35" class="edge">
<title>Node4&#45;&gt;Node8</title>
<path fill="none" stroke="midnightblue" d="M145.17,-336.47C112.03,-321.36 51,-286.53 51,-235 51,-235 51,-235 51,-121 51,-81.28 84.96,-45.5 107.48,-26.15"/>
<polygon fill="midnightblue" stroke="midnightblue" points="109.98,-28.63 115.46,-19.57 105.52,-23.24 109.98,-28.63"/>
</g>
<!-- Node10 -->
<g id="node10" class="node">
<title>Node10</title>
<g id="a_node10"><a xlink:href="source__location_8h.html" target="_top" xlink:title=" ">
<polygon fill="none" stroke="black" points="155,-280.5 155,-299.5 257,-299.5 257,-280.5 155,-280.5"/>
<text text-anchor="middle" x="206" y="-287.5" font-family="Helvetica,sans-Serif" font-size="10.00">source_location.h</text>
</a>
</g>
</g>
<!-- Node4&#45;&gt;Node10 -->
<g id="edge9" class="edge">
<title>Node4&#45;&gt;Node10</title>
<path fill="none" stroke="midnightblue" d="M172.61,-336.08C178.26,-328.46 186.54,-317.26 193.45,-307.94"/>
<polygon fill="midnightblue" stroke="midnightblue" points="196.38,-309.87 199.52,-299.75 190.75,-305.7 196.38,-309.87"/>
</g>
<!-- Node16 -->
<g id="node16" class="node">
<title>Node16</title>
<g id="a_node16"><a xlink:title=" ">
<polygon fill="none" stroke="#bfbfbf" points="673,-56.5 673,-75.5 721,-75.5 721,-56.5 673,-56.5"/>
<text text-anchor="middle" x="697" y="-63.5" font-family="Helvetica,sans-Serif" font-size="10.00">iosfwd</text>
</a>
</g>
</g>
<!-- Node4&#45;&gt;Node16 -->
<g id="edge33" class="edge">
<title>Node4&#45;&gt;Node16</title>
<path fill="none" stroke="midnightblue" d="M210.66,-341.82C353.05,-331.09 787,-293.58 787,-235 787,-235 787,-235 787,-177 787,-134.66 746.56,-99.66 719.9,-81.18"/>
<polygon fill="midnightblue" stroke="midnightblue" points="721.72,-78.19 711.46,-75.56 717.84,-84.02 721.72,-78.19"/>
</g>
<!-- Node31 -->
<g id="node26" class="node">
<title>Node31</title>
<g id="a_node26"><a xlink:title=" ">
<polygon fill="none" stroke="#bfbfbf" points="815.5,-280.5 815.5,-299.5 880.5,-299.5 880.5,-280.5 815.5,-280.5"/>
<text text-anchor="middle" x="848" y="-287.5" font-family="Helvetica,sans-Serif" font-size="10.00">functional</text>
</a>
</g>
</g>
<!-- Node4&#45;&gt;Node31 -->
<g id="edge32" class="edge">
<title>Node4&#45;&gt;Node31</title>
<path fill="none" stroke="midnightblue" d="M210.83,-343.65C314.89,-340.11 580.73,-328.79 801,-300 802.47,-299.81 803.96,-299.6 805.46,-299.38"/>
<polygon fill="midnightblue" stroke="midnightblue" points="806.16,-302.81 815.46,-297.75 805.03,-295.9 806.16,-302.81"/>
</g>
<!-- Node6 -->
<g id="node6" class="node">
<title>Node6</title>
<g id="a_node6"><a xlink:title=" ">
<polygon fill="none" stroke="#bfbfbf" points="173.5,-0.5 173.5,-19.5 222.5,-19.5 222.5,-0.5 173.5,-0.5"/>
<text text-anchor="middle" x="198" y="-7.5" font-family="Helvetica,sans-Serif" font-size="10.00">cstdlib</text>
</a>
</g>
</g>
<!-- Node5&#45;&gt;Node6 -->
<g id="edge5" class="edge">
<title>Node5&#45;&gt;Node6</title>
<path fill="none" stroke="midnightblue" d="M198,-56.08C198,-49.01 198,-38.86 198,-29.99"/>
<polygon fill="midnightblue" stroke="midnightblue" points="201.5,-29.75 198,-19.75 194.5,-29.75 201.5,-29.75"/>
</g>
<!-- Node5&#45;&gt;Node7 -->
<g id="edge6" class="edge">
<title>Node5&#45;&gt;Node7</title>
<path fill="none" stroke="midnightblue" d="M172.33,-56.44C145.08,-47.36 101.82,-32.94 71.35,-22.78"/>
<polygon fill="midnightblue" stroke="midnightblue" points="72.14,-19.36 61.55,-19.52 69.93,-26 72.14,-19.36"/>
</g>
<!-- Node5&#45;&gt;Node8 -->
<g id="edge7" class="edge">
<title>Node5&#45;&gt;Node8</title>
<path fill="none" stroke="midnightblue" d="M186.59,-56.32C175.89,-48.18 159.66,-35.84 146.84,-26.09"/>
<polygon fill="midnightblue" stroke="midnightblue" points="148.69,-23.1 138.61,-19.83 144.46,-28.67 148.69,-23.1"/>
</g>
<!-- Node9 -->
<g id="node9" class="node">
<title>Node9</title>
<g id="a_node9"><a xlink:title=" ">
<polygon fill="none" stroke="#bfbfbf" points="290.5,-0.5 290.5,-19.5 359.5,-19.5 359.5,-0.5 290.5,-0.5"/>
<text text-anchor="middle" x="325" y="-7.5" font-family="Helvetica,sans-Serif" font-size="10.00">type_traits</text>
</a>
</g>
</g>
<!-- Node5&#45;&gt;Node9 -->
<g id="edge8" class="edge">
<title>Node5&#45;&gt;Node9</title>
<path fill="none" stroke="midnightblue" d="M218.12,-56.44C239.02,-47.56 271.93,-33.56 295.72,-23.45"/>
<polygon fill="midnightblue" stroke="midnightblue" points="297.14,-26.65 304.97,-19.52 294.4,-20.21 297.14,-26.65"/>
</g>
<!-- Node10&#45;&gt;Node8 -->
<g id="edge31" class="edge">
<title>Node10&#45;&gt;Node8</title>
<path fill="none" stroke="midnightblue" d="M184.54,-280.46C150.76,-265.43 89,-230.86 89,-179 89,-179 89,-179 89,-121 89,-86.81 105.6,-49.76 116.86,-28.57"/>
<polygon fill="midnightblue" stroke="midnightblue" points="119.95,-30.22 121.72,-19.77 113.82,-26.83 119.95,-30.22"/>
</g>
<!-- Node11 -->
<g id="node11" class="node">
<title>Node11</title>
<g id="a_node11"><a xlink:href="deprecate_8h.html" target="_top" xlink:title=" ">
<polygon fill="none" stroke="black" points="245,-224.5 245,-243.5 319,-243.5 319,-224.5 245,-224.5"/>
<text text-anchor="middle" x="282" y="-231.5" font-family="Helvetica,sans-Serif" font-size="10.00">deprecate.h</text>
</a>
</g>
</g>
<!-- Node10&#45;&gt;Node11 -->
<g id="edge10" class="edge">
<title>Node10&#45;&gt;Node11</title>
<path fill="none" stroke="midnightblue" d="M218.21,-280.32C229.78,-272.11 247.38,-259.6 261.16,-249.81"/>
<polygon fill="midnightblue" stroke="midnightblue" points="263.44,-252.48 269.57,-243.83 259.39,-246.77 263.44,-252.48"/>
</g>
<!-- Node12 -->
<g id="node12" class="node">
<title>Node12</title>
<g id="a_node12"><a xlink:href="irep_8h.html" target="_top" xlink:title=" ">
<polygon fill="none" stroke="black" points="183,-224.5 183,-243.5 227,-243.5 227,-224.5 183,-224.5"/>
<text text-anchor="middle" x="205" y="-231.5" font-family="Helvetica,sans-Serif" font-size="10.00">irep.h</text>
</a>
</g>
</g>
<!-- Node10&#45;&gt;Node12 -->
<g id="edge11" class="edge">
<title>Node10&#45;&gt;Node12</title>
<path fill="none" stroke="midnightblue" d="M205.83,-280.08C205.7,-273.01 205.52,-262.86 205.35,-253.99"/>
<polygon fill="midnightblue" stroke="midnightblue" points="208.85,-253.68 205.16,-243.75 201.85,-253.81 208.85,-253.68"/>
</g>
<!-- Node30 -->
<g id="node25" class="node">
<title>Node30</title>
<g id="a_node25"><a xlink:title=" ">
<polygon fill="none" stroke="#bfbfbf" points="337,-224.5 337,-243.5 393,-243.5 393,-224.5 337,-224.5"/>
<text text-anchor="middle" x="365" y="-231.5" font-family="Helvetica,sans-Serif" font-size="10.00">optional</text>
</a>
</g>
</g>
<!-- Node10&#45;&gt;Node30 -->
<g id="edge30" class="edge">
<title>Node10&#45;&gt;Node30</title>
<path fill="none" stroke="midnightblue" d="M231.19,-280.44C257.94,-271.36 300.4,-256.94 330.31,-246.78"/>
<polygon fill="midnightblue" stroke="midnightblue" points="331.58,-250.05 339.92,-243.52 329.33,-243.42 331.58,-250.05"/>
</g>
<!-- Node12&#45;&gt;Node5 -->
<g id="edge14" class="edge">
<title>Node12&#45;&gt;Node5</title>
<path fill="none" stroke="midnightblue" d="M204.62,-224.08C203.52,-197.95 200.29,-121.21 198.78,-85.58"/>
<polygon fill="midnightblue" stroke="midnightblue" points="202.28,-85.41 198.36,-75.57 195.29,-85.71 202.28,-85.41"/>
</g>
<!-- Node12&#45;&gt;Node8 -->
<g id="edge12" class="edge">
<title>Node12&#45;&gt;Node8</title>
<path fill="none" stroke="midnightblue" d="M201.94,-224.3C190.42,-191.49 149.45,-74.88 133.46,-29.38"/>
<polygon fill="midnightblue" stroke="midnightblue" points="136.74,-28.16 130.12,-19.88 130.13,-30.48 136.74,-28.16"/>
</g>
<!-- Node13 -->
<g id="node13" class="node">
<title>Node13</title>
<g id="a_node13"><a xlink:title=" ">
<polygon fill="none" stroke="#bfbfbf" points="652.5,-0.5 652.5,-19.5 699.5,-19.5 699.5,-0.5 652.5,-0.5"/>
<text text-anchor="middle" x="676" y="-7.5" font-family="Helvetica,sans-Serif" font-size="10.00">vector</text>
</a>
</g>
</g>
<!-- Node12&#45;&gt;Node13 -->
<g id="edge13" class="edge">
<title>Node12&#45;&gt;Node13</title>
<path fill="none" stroke="midnightblue" d="M227.23,-225.98C230.16,-225.23 233.14,-224.54 236,-224 416.24,-190.28 474.16,-249.23 647,-188 688.95,-173.14 709.11,-171.29 730,-132 745.86,-102.17 744.33,-86.59 730,-56 723.96,-43.09 712.19,-32.6 701.18,-25"/>
<polygon fill="midnightblue" stroke="midnightblue" points="702.94,-21.97 692.63,-19.54 699.17,-27.87 702.94,-21.97"/>
</g>
<!-- Node14 -->
<g id="node14" class="node">
<title>Node14</title>
<g id="a_node14"><a xlink:href="irep__ids_8h.html" target="_top" xlink:title="util">
<polygon fill="none" stroke="black" points="574,-168.5 574,-187.5 638,-187.5 638,-168.5 574,-168.5"/>
<text text-anchor="middle" x="606" y="-175.5" font-family="Helvetica,sans-Serif" font-size="10.00">irep_ids.h</text>
</a>
</g>
</g>
<!-- Node12&#45;&gt;Node14 -->
<g id="edge15" class="edge">
<title>Node12&#45;&gt;Node14</title>
<path fill="none" stroke="midnightblue" d="M227.24,-226.08C230.17,-225.3 233.14,-224.58 236,-224 353.29,-200.01 494.29,-187.19 563.47,-181.93"/>
<polygon fill="midnightblue" stroke="midnightblue" points="563.84,-185.41 573.55,-181.18 563.32,-178.43 563.84,-185.41"/>
</g>
<!-- Node25 -->
<g id="node20" class="node">
<title>Node25</title>
<g id="a_node20"><a xlink:href="forward__list__as__map_8h.html" target="_top" xlink:title=" ">
<polygon fill="none" stroke="black" points="286.5,-168.5 286.5,-187.5 413.5,-187.5 413.5,-168.5 286.5,-168.5"/>
<text text-anchor="middle" x="350" y="-175.5" font-family="Helvetica,sans-Serif" font-size="10.00">forward_list_as_map.h</text>
</a>
</g>
</g>
<!-- Node12&#45;&gt;Node25 -->
<g id="edge23" class="edge">
<title>Node12&#45;&gt;Node25</title>
<path fill="none" stroke="midnightblue" d="M227.02,-224.8C251.01,-215.86 289.64,-201.48 317.2,-191.21"/>
<polygon fill="midnightblue" stroke="midnightblue" points="318.66,-194.41 326.81,-187.64 316.22,-187.85 318.66,-194.41"/>
</g>
<!-- Node15 -->
<g id="node15" class="node">
<title>Node15</title>
<g id="a_node15"><a xlink:href="dstring_8h.html" target="_top" xlink:title="Container for C&#45;Strings.">
<polygon fill="none" stroke="black" points="661.5,-112.5 661.5,-131.5 720.5,-131.5 720.5,-112.5 661.5,-112.5"/>
<text text-anchor="middle" x="691" y="-119.5" font-family="Helvetica,sans-Serif" font-size="10.00">dstring.h</text>
</a>
</g>
</g>
<!-- Node14&#45;&gt;Node15 -->
<g id="edge16" class="edge">
<title>Node14&#45;&gt;Node15</title>
<path fill="none" stroke="midnightblue" d="M619.66,-168.32C632.92,-159.9 653.27,-146.97 668.85,-137.07"/>
<polygon fill="midnightblue" stroke="midnightblue" points="670.81,-139.97 677.38,-131.65 667.06,-134.06 670.81,-139.97"/>
</g>
<!-- Node24 -->
<g id="node19" class="node">
<title>Node24</title>
<g id="a_node19"><a xlink:title=" ">
<polygon fill="none" stroke="#bfbfbf" points="569,-112.5 569,-131.5 643,-131.5 643,-112.5 569,-112.5"/>
<text text-anchor="middle" x="606" y="-119.5" font-family="Helvetica,sans-Serif" font-size="10.00">irep_ids.def</text>
</a>
</g>
</g>
<!-- Node14&#45;&gt;Node24 -->
<g id="edge22" class="edge">
<title>Node14&#45;&gt;Node24</title>
<path fill="none" stroke="midnightblue" d="M606,-168.08C606,-161.01 606,-150.86 606,-141.99"/>
<polygon fill="midnightblue" stroke="midnightblue" points="609.5,-141.75 606,-131.75 602.5,-141.75 609.5,-141.75"/>
</g>
<!-- Node15&#45;&gt;Node8 -->
<g id="edge18" class="edge">
<title>Node15&#45;&gt;Node8</title>
<path fill="none" stroke="midnightblue" d="M661.22,-114C658.11,-113.3 654.99,-112.63 652,-112 435.98,-66.73 379.75,-66.54 164,-20 162.51,-19.68 160.98,-19.34 159.44,-18.99"/>
<polygon fill="midnightblue" stroke="midnightblue" points="159.8,-15.48 149.26,-16.61 158.2,-22.3 159.8,-15.48"/>
</g>
<!-- Node15&#45;&gt;Node16 -->
<g id="edge17" class="edge">
<title>Node15&#45;&gt;Node16</title>
<path fill="none" stroke="midnightblue" d="M691.99,-112.08C692.79,-104.93 693.93,-94.64 694.92,-85.69"/>
<polygon fill="midnightblue" stroke="midnightblue" points="698.4,-86.08 696.03,-75.75 691.44,-85.3 698.4,-86.08"/>
</g>
<!-- Node17 -->
<g id="node17" class="node">
<title>Node17</title>
<g id="a_node17"><a xlink:href="magic_8h.html" target="_top" xlink:title="Magic numbers used throughout the codebase.">
<polygon fill="none" stroke="red" points="477,-56.5 477,-75.5 533,-75.5 533,-56.5 477,-56.5"/>
<text text-anchor="middle" x="505" y="-63.5" font-family="Helvetica,sans-Serif" font-size="10.00">magic.h</text>
</a>
</g>
</g>
<!-- Node15&#45;&gt;Node17 -->
<g id="edge19" class="edge">
<title>Node15&#45;&gt;Node17</title>
<path fill="none" stroke="midnightblue" d="M661.53,-112.44C629.46,-103.13 578.08,-88.22 542.99,-78.03"/>
<polygon fill="midnightblue" stroke="midnightblue" points="543.7,-74.59 533.12,-75.16 541.74,-81.31 543.7,-74.59"/>
</g>
<!-- Node19 -->
<g id="node18" class="node">
<title>Node19</title>
<g id="a_node18"><a xlink:href="string__container_8h.html" target="_top" xlink:title="Container for C&#45;Strings.">
<polygon fill="none" stroke="red" points="551,-56.5 551,-75.5 655,-75.5 655,-56.5 551,-56.5"/>
<text text-anchor="middle" x="603" y="-63.5" font-family="Helvetica,sans-Serif" font-size="10.00">string_container.h</text>
</a>
</g>
</g>
<!-- Node15&#45;&gt;Node19 -->
<g id="edge20" class="edge">
<title>Node15&#45;&gt;Node19</title>
<path fill="none" stroke="midnightblue" d="M676.86,-112.32C663.13,-103.9 642.06,-90.97 625.94,-81.07"/>
<polygon fill="midnightblue" stroke="midnightblue" points="627.46,-77.9 617.1,-75.65 623.8,-83.87 627.46,-77.9"/>
</g>
<!-- Node19&#45;&gt;Node13 -->
<g id="edge21" class="edge">
<title>Node19&#45;&gt;Node13</title>
<path fill="none" stroke="midnightblue" d="M614.73,-56.32C625.84,-48.11 642.74,-35.6 655.98,-25.81"/>
<polygon fill="midnightblue" stroke="midnightblue" points="658.1,-28.59 664.06,-19.83 653.94,-22.97 658.1,-28.59"/>
</g>
<!-- Node26 -->
<g id="node21" class="node">
<title>Node26</title>
<g id="a_node21"><a xlink:title=" ">
<polygon fill="none" stroke="#bfbfbf" points="231,-112.5 231,-131.5 295,-131.5 295,-112.5 231,-112.5"/>
<text text-anchor="middle" x="263" y="-119.5" font-family="Helvetica,sans-Serif" font-size="10.00">algorithm</text>
</a>
</g>
</g>
<!-- Node25&#45;&gt;Node26 -->
<g id="edge24" class="edge">
<title>Node25&#45;&gt;Node26</title>
<path fill="none" stroke="midnightblue" d="M336.02,-168.32C322.45,-159.9 301.62,-146.97 285.68,-137.07"/>
<polygon fill="midnightblue" stroke="midnightblue" points="287.29,-133.95 276.94,-131.65 283.59,-139.9 287.29,-133.95"/>
</g>
<!-- Node27 -->
<g id="node22" class="node">
<title>Node27</title>
<g id="a_node22"><a xlink:title=" ">
<polygon fill="none" stroke="#bfbfbf" points="313,-112.5 313,-131.5 387,-131.5 387,-112.5 313,-112.5"/>
<text text-anchor="middle" x="350" y="-119.5" font-family="Helvetica,sans-Serif" font-size="10.00">forward_list</text>
</a>
</g>
</g>
<!-- Node25&#45;&gt;Node27 -->
<g id="edge25" class="edge">
<title>Node25&#45;&gt;Node27</title>
<path fill="none" stroke="midnightblue" d="M350,-168.08C350,-161.01 350,-150.86 350,-141.99"/>
<polygon fill="midnightblue" stroke="midnightblue" points="353.5,-141.75 350,-131.75 346.5,-141.75 353.5,-141.75"/>
</g>
<!-- Node28 -->
<g id="node23" class="node">
<title>Node28</title>
<g id="a_node23"><a xlink:href="as__const_8h.html" target="_top" xlink:title=" ">
<polygon fill="none" stroke="black" points="405,-112.5 405,-131.5 473,-131.5 473,-112.5 405,-112.5"/>
<text text-anchor="middle" x="439" y="-119.5" font-family="Helvetica,sans-Serif" font-size="10.00">as_const.h</text>
</a>
</g>
</g>
<!-- Node25&#45;&gt;Node28 -->
<g id="edge26" class="edge">
<title>Node25&#45;&gt;Node28</title>
<path fill="none" stroke="midnightblue" d="M364.3,-168.32C378.18,-159.9 399.49,-146.97 415.8,-137.07"/>
<polygon fill="midnightblue" stroke="midnightblue" points="418,-139.83 424.74,-131.65 414.37,-133.85 418,-139.83"/>
</g>
<!-- Node29 -->
<g id="node24" class="node">
<title>Node29</title>
<g id="a_node24"><a xlink:href="narrow_8h.html" target="_top" xlink:title=" ">
<polygon fill="none" stroke="black" points="491.5,-112.5 491.5,-131.5 550.5,-131.5 550.5,-112.5 491.5,-112.5"/>
<text text-anchor="middle" x="521" y="-119.5" font-family="Helvetica,sans-Serif" font-size="10.00">narrow.h</text>
</a>
</g>
</g>
<!-- Node25&#45;&gt;Node29 -->
<g id="edge27" class="edge">
<title>Node25&#45;&gt;Node29</title>
<path fill="none" stroke="midnightblue" d="M377.1,-168.44C405.99,-159.32 451.92,-144.81 484.11,-134.65"/>
<polygon fill="midnightblue" stroke="midnightblue" points="485.55,-137.87 494.03,-131.52 483.44,-131.19 485.55,-137.87"/>
</g>
<!-- Node29&#45;&gt;Node5 -->
<g id="edge29" class="edge">
<title>Node29&#45;&gt;Node5</title>
<path fill="none" stroke="midnightblue" d="M491.24,-113.91C488.12,-113.23 485,-112.58 482,-112 397.81,-95.64 298.71,-80.97 242.63,-73.09"/>
<polygon fill="midnightblue" stroke="midnightblue" points="243.06,-69.62 232.67,-71.7 242.09,-76.55 243.06,-69.62"/>
</g>
<!-- Node29&#45;&gt;Node9 -->
<g id="edge28" class="edge">
<title>Node29&#45;&gt;Node9</title>
<path fill="none" stroke="midnightblue" d="M505.62,-112.37C471.63,-93.29 389.9,-47.42 349.06,-24.51"/>
<polygon fill="midnightblue" stroke="midnightblue" points="350.74,-21.43 340.31,-19.59 347.32,-27.54 350.74,-21.43"/>
</g>
</g>
</svg>
