<?xml version="1.0" encoding="UTF-8" standalone="no"?>
<!DOCTYPE svg PUBLIC "-//W3C//DTD SVG 1.1//EN"
 "http://www.w3.org/Graphics/SVG/1.1/DTD/svg11.dtd">
<!-- Generated by graphviz version 2.43.0 (0)
 -->
<!-- Title: /home/runner/work/diffblue&#45;cbmc/diffblue&#45;cbmc/src/goto&#45;programs/json_expr.h Pages: 1 -->
<svg width="535pt" height="139pt"
 viewBox="0.00 0.00 534.50 139.00" xmlns="http://www.w3.org/2000/svg" xmlns:xlink="http://www.w3.org/1999/xlink">
<g id="graph0" class="graph" transform="scale(1 1) rotate(0) translate(4 135)">
<title>/home/runner/work/diffblue&#45;cbmc/diffblue&#45;cbmc/src/goto&#45;programs/json_expr.h</title>
<!-- Node1 -->
<g id="node1" class="node">
<title>Node1</title>
<g id="a_node1"><a xlink:title="Expressions in JSON.">
<polygon fill="#bfbfbf" stroke="black" points="204,-89.5 204,-130.5 354,-130.5 354,-89.5 204,-89.5"/>
<text text-anchor="start" x="212" y="-118.5" font-family="Helvetica,sans-Serif" font-size="10.00">/home/runner/work/diffblue</text>
<text text-anchor="start" x="212" y="-107.5" font-family="Helvetica,sans-Serif" font-size="10.00">&#45;cbmc/diffblue&#45;cbmc/src</text>
<text text-anchor="middle" x="279" y="-96.5" font-family="Helvetica,sans-Serif" font-size="10.00">/goto&#45;programs/json_expr.h</text>
</a>
</g>
</g>
<!-- Node2 -->
<g id="node2" class="node">
<title>Node2</title>
<g id="a_node2"><a xlink:href="c__test__input__generator_8cpp.html" target="_top" xlink:title="Test Input Generator for C.">
<polygon fill="none" stroke="black" points="0,-6 0,-47 180,-47 180,-6 0,-6"/>
<text text-anchor="start" x="8" y="-35" font-family="Helvetica,sans-Serif" font-size="10.00">/home/runner/work/diffblue</text>
<text text-anchor="start" x="8" y="-24" font-family="Helvetica,sans-Serif" font-size="10.00">&#45;cbmc/diffblue&#45;cbmc/src</text>
<text text-anchor="middle" x="90" y="-13" font-family="Helvetica,sans-Serif" font-size="10.00">/cbmc/c_test_input_generator.cpp</text>
</a>
</g>
</g>
<!-- Node1&#45;&gt;Node2 -->
<g id="edge1" class="edge">
<title>Node1&#45;&gt;Node2</title>
<path fill="none" stroke="midnightblue" d="M224.38,-85.45C196.11,-73.26 162.01,-58.55 135.23,-47"/>
<polygon fill="midnightblue" stroke="midnightblue" points="223.16,-88.73 233.73,-89.48 225.93,-82.31 223.16,-88.73"/>
</g>
<!-- Node3 -->
<g id="node3" class="node">
<title>Node3</title>
<g id="a_node3"><a xlink:href="json__expr_8cpp.html" target="_top" xlink:title="Expressions in JSON.">
<polygon fill="none" stroke="black" points="198.5,-6 198.5,-47 359.5,-47 359.5,-6 198.5,-6"/>
<text text-anchor="start" x="206.5" y="-35" font-family="Helvetica,sans-Serif" font-size="10.00">/home/runner/work/diffblue</text>
<text text-anchor="start" x="206.5" y="-24" font-family="Helvetica,sans-Serif" font-size="10.00">&#45;cbmc/diffblue&#45;cbmc/src</text>
<text text-anchor="middle" x="279" y="-13" font-family="Helvetica,sans-Serif" font-size="10.00">/goto&#45;programs/json_expr.cpp</text>
</a>
</g>
</g>
<!-- Node1&#45;&gt;Node3 -->
<g id="edge2" class="edge">
<title>Node1&#45;&gt;Node3</title>
<path fill="none" stroke="midnightblue" d="M279,-79.06C279,-68.38 279,-56.63 279,-47.05"/>
<polygon fill="midnightblue" stroke="midnightblue" points="275.5,-79.27 279,-89.27 282.5,-79.27 275.5,-79.27"/>
</g>
<!-- Node4 -->
<g id="node4" class="node">
<title>Node4</title>
<g id="a_node4"><a xlink:href="json__goto__trace_8cpp.html" target="_top" xlink:title="Traces of GOTO Programs.">
<polygon fill="none" stroke="black" points="377.5,-0.5 377.5,-52.5 526.5,-52.5 526.5,-0.5 377.5,-0.5"/>
<text text-anchor="start" x="385.5" y="-40.5" font-family="Helvetica,sans-Serif" font-size="10.00">/home/runner/work/diffblue</text>
<text text-anchor="start" x="385.5" y="-29.5" font-family="Helvetica,sans-Serif" font-size="10.00">&#45;cbmc/diffblue&#45;cbmc/src</text>
<text text-anchor="start" x="385.5" y="-18.5" font-family="Helvetica,sans-Serif" font-size="10.00">/goto&#45;programs/json_goto</text>
<text text-anchor="middle" x="452" y="-7.5" font-family="Helvetica,sans-Serif" font-size="10.00">_trace.cpp</text>
</a>
</g>
</g>
<!-- Node1&#45;&gt;Node4 -->
<g id="edge3" class="edge">
<title>Node1&#45;&gt;Node4</title>
<path fill="none" stroke="midnightblue" d="M329.51,-85.2C351.27,-74.95 376.72,-62.96 398.77,-52.58"/>
<polygon fill="midnightblue" stroke="midnightblue" points="327.99,-82.05 320.44,-89.48 330.98,-88.38 327.99,-82.05"/>
</g>
</g>
</svg>
