<?xml version="1.0" encoding="UTF-8" standalone="no"?>
<!DOCTYPE svg PUBLIC "-//W3C//DTD SVG 1.1//EN"
 "http://www.w3.org/Graphics/SVG/1.1/DTD/svg11.dtd">
<!-- Generated by graphviz version 2.43.0 (0)
 -->
<!-- Title: /home/runner/work/diffblue&#45;cbmc/diffblue&#45;cbmc/src/json/json_parser.h Pages: 1 -->
<svg width="1976pt" height="317pt"
 viewBox="0.00 0.00 1975.50 317.00" xmlns="http://www.w3.org/2000/svg" xmlns:xlink="http://www.w3.org/1999/xlink">
<g id="graph0" class="graph" transform="scale(1 1) rotate(0) translate(4 313)">
<title>/home/runner/work/diffblue&#45;cbmc/diffblue&#45;cbmc/src/json/json_parser.h</title>
<!-- Node1 -->
<g id="node1" class="node">
<title>Node1</title>
<g id="a_node1"><a xlink:title=" ">
<polygon fill="#bfbfbf" stroke="black" points="921,-267.5 921,-308.5 1070,-308.5 1070,-267.5 921,-267.5"/>
<text text-anchor="start" x="929" y="-296.5" font-family="Helvetica,sans-Serif" font-size="10.00">/home/runner/work/diffblue</text>
<text text-anchor="start" x="929" y="-285.5" font-family="Helvetica,sans-Serif" font-size="10.00">&#45;cbmc/diffblue&#45;cbmc/src</text>
<text text-anchor="middle" x="995.5" y="-274.5" font-family="Helvetica,sans-Serif" font-size="10.00">/json/json_parser.h</text>
</a>
</g>
</g>
<!-- Node2 -->
<g id="node2" class="node">
<title>Node2</title>
<g id="a_node2"><a xlink:href="crangler__parse__options_8cpp.html" target="_top" xlink:title="CRANGLER Command Line Option Processing.">
<polygon fill="none" stroke="black" points="0,-178.5 0,-230.5 149,-230.5 149,-178.5 0,-178.5"/>
<text text-anchor="start" x="8" y="-218.5" font-family="Helvetica,sans-Serif" font-size="10.00">/home/runner/work/diffblue</text>
<text text-anchor="start" x="8" y="-207.5" font-family="Helvetica,sans-Serif" font-size="10.00">&#45;cbmc/diffblue&#45;cbmc/src</text>
<text text-anchor="start" x="8" y="-196.5" font-family="Helvetica,sans-Serif" font-size="10.00">/crangler/crangler_parse</text>
<text text-anchor="middle" x="74.5" y="-185.5" font-family="Helvetica,sans-Serif" font-size="10.00">_options.cpp</text>
</a>
</g>
</g>
<!-- Node1&#45;&gt;Node2 -->
<g id="edge1" class="edge">
<title>Node1&#45;&gt;Node2</title>
<path fill="none" stroke="midnightblue" d="M910.59,-287.77C758.34,-287.73 429.43,-281.16 157.5,-231 154.83,-230.51 152.13,-229.96 149.41,-229.36"/>
<polygon fill="midnightblue" stroke="midnightblue" points="910.8,-291.27 920.8,-287.77 910.8,-284.27 910.8,-291.27"/>
</g>
<!-- Node3 -->
<g id="node3" class="node">
<title>Node3</title>
<g id="a_node3"><a xlink:href="taint__parser_8cpp.html" target="_top" xlink:title="Taint Parser.">
<polygon fill="none" stroke="black" points="166.5,-184 166.5,-225 334.5,-225 334.5,-184 166.5,-184"/>
<text text-anchor="start" x="174.5" y="-213" font-family="Helvetica,sans-Serif" font-size="10.00">/home/runner/work/diffblue</text>
<text text-anchor="start" x="174.5" y="-202" font-family="Helvetica,sans-Serif" font-size="10.00">&#45;cbmc/diffblue&#45;cbmc/src</text>
<text text-anchor="middle" x="250.5" y="-191" font-family="Helvetica,sans-Serif" font-size="10.00">/goto&#45;analyzer/taint_parser.cpp</text>
</a>
</g>
</g>
<!-- Node1&#45;&gt;Node3 -->
<g id="edge2" class="edge">
<title>Node1&#45;&gt;Node3</title>
<path fill="none" stroke="midnightblue" d="M910.33,-284.62C785.21,-280.01 544.75,-266.93 343.5,-231 334.52,-229.4 325.14,-227.32 315.96,-225.04"/>
<polygon fill="midnightblue" stroke="midnightblue" points="910.49,-288.13 920.61,-284.99 910.74,-281.13 910.49,-288.13"/>
</g>
<!-- Node4 -->
<g id="node4" class="node">
<title>Node4</title>
<g id="a_node4"><a xlink:href="linker__script__merge_8cpp.html" target="_top" xlink:title=" ">
<polygon fill="none" stroke="black" points="353,-184 353,-225 528,-225 528,-184 353,-184"/>
<text text-anchor="start" x="361" y="-213" font-family="Helvetica,sans-Serif" font-size="10.00">/home/runner/work/diffblue</text>
<text text-anchor="start" x="361" y="-202" font-family="Helvetica,sans-Serif" font-size="10.00">&#45;cbmc/diffblue&#45;cbmc/src</text>
<text text-anchor="middle" x="440.5" y="-191" font-family="Helvetica,sans-Serif" font-size="10.00">/goto&#45;cc/linker_script_merge.cpp</text>
</a>
</g>
</g>
<!-- Node1&#45;&gt;Node4 -->
<g id="edge3" class="edge">
<title>Node1&#45;&gt;Node4</title>
<path fill="none" stroke="midnightblue" d="M910.52,-280.18C817.97,-271.92 665.85,-255.95 536.5,-231 527.7,-229.3 518.51,-227.24 509.45,-225.04"/>
<polygon fill="midnightblue" stroke="midnightblue" points="910.41,-283.68 920.67,-281.07 911.02,-276.71 910.41,-283.68"/>
</g>
<!-- Node5 -->
<g id="node5" class="node">
<title>Node5</title>
<g id="a_node5"><a xlink:href="memory__snapshot__harness__generator_8cpp.html" target="_top" xlink:title=" ">
<polygon fill="none" stroke="black" points="546,-178.5 546,-230.5 723,-230.5 723,-178.5 546,-178.5"/>
<text text-anchor="start" x="554" y="-218.5" font-family="Helvetica,sans-Serif" font-size="10.00">/home/runner/work/diffblue</text>
<text text-anchor="start" x="554" y="-207.5" font-family="Helvetica,sans-Serif" font-size="10.00">&#45;cbmc/diffblue&#45;cbmc/src</text>
<text text-anchor="start" x="554" y="-196.5" font-family="Helvetica,sans-Serif" font-size="10.00">/goto&#45;harness/memory_snapshot</text>
<text text-anchor="middle" x="634.5" y="-185.5" font-family="Helvetica,sans-Serif" font-size="10.00">_harness_generator.cpp</text>
</a>
</g>
</g>
<!-- Node1&#45;&gt;Node5 -->
<g id="edge4" class="edge">
<title>Node1&#45;&gt;Node5</title>
<path fill="none" stroke="midnightblue" d="M910.92,-270.14C859,-259.52 791.24,-245.18 731.5,-231 728.7,-230.34 725.87,-229.65 723,-228.95"/>
<polygon fill="midnightblue" stroke="midnightblue" points="910.25,-273.57 920.75,-272.14 911.65,-266.71 910.25,-273.57"/>
</g>
<!-- Node6 -->
<g id="node6" class="node">
<title>Node6</title>
<g id="a_node6"><a xlink:href="contracts__wrangler_8h.html" target="_top" xlink:title="Parse and annotate contracts.">
<polygon fill="none" stroke="black" points="741,-178.5 741,-230.5 890,-230.5 890,-178.5 741,-178.5"/>
<text text-anchor="start" x="749" y="-218.5" font-family="Helvetica,sans-Serif" font-size="10.00">/home/runner/work/diffblue</text>
<text text-anchor="start" x="749" y="-207.5" font-family="Helvetica,sans-Serif" font-size="10.00">&#45;cbmc/diffblue&#45;cbmc/src</text>
<text text-anchor="start" x="749" y="-196.5" font-family="Helvetica,sans-Serif" font-size="10.00">/goto&#45;instrument/contracts</text>
<text text-anchor="middle" x="815.5" y="-185.5" font-family="Helvetica,sans-Serif" font-size="10.00">/contracts_wrangler.h</text>
</a>
</g>
</g>
<!-- Node1&#45;&gt;Node6 -->
<g id="edge5" class="edge">
<title>Node1&#45;&gt;Node6</title>
<path fill="none" stroke="midnightblue" d="M943.24,-263.34C920.54,-253.06 893.93,-241.01 870.88,-230.58"/>
<polygon fill="midnightblue" stroke="midnightblue" points="941.83,-266.54 952.39,-267.48 944.72,-260.17 941.83,-266.54"/>
</g>
<!-- Node12 -->
<g id="node12" class="node">
<title>Node12</title>
<g id="a_node12"><a xlink:href="restrict__function__pointers_8cpp.html" target="_top" xlink:title=" ">
<polygon fill="none" stroke="black" points="908.5,-178.5 908.5,-230.5 1082.5,-230.5 1082.5,-178.5 908.5,-178.5"/>
<text text-anchor="start" x="916.5" y="-218.5" font-family="Helvetica,sans-Serif" font-size="10.00">/home/runner/work/diffblue</text>
<text text-anchor="start" x="916.5" y="-207.5" font-family="Helvetica,sans-Serif" font-size="10.00">&#45;cbmc/diffblue&#45;cbmc/src</text>
<text text-anchor="start" x="916.5" y="-196.5" font-family="Helvetica,sans-Serif" font-size="10.00">/goto&#45;programs/restrict_function</text>
<text text-anchor="middle" x="995.5" y="-185.5" font-family="Helvetica,sans-Serif" font-size="10.00">_pointers.cpp</text>
</a>
</g>
</g>
<!-- Node1&#45;&gt;Node12 -->
<g id="edge11" class="edge">
<title>Node1&#45;&gt;Node12</title>
<path fill="none" stroke="midnightblue" d="M995.5,-257.12C995.5,-248.41 995.5,-238.99 995.5,-230.61"/>
<polygon fill="midnightblue" stroke="midnightblue" points="992,-257.27 995.5,-267.27 999,-257.27 992,-257.27"/>
</g>
<!-- Node13 -->
<g id="node13" class="node">
<title>Node13</title>
<g id="a_node13"><a xlink:href="json__interface_8cpp.html" target="_top" xlink:title="JSON Commandline Interface.">
<polygon fill="none" stroke="black" points="1101,-184 1101,-225 1250,-225 1250,-184 1101,-184"/>
<text text-anchor="start" x="1109" y="-213" font-family="Helvetica,sans-Serif" font-size="10.00">/home/runner/work/diffblue</text>
<text text-anchor="start" x="1109" y="-202" font-family="Helvetica,sans-Serif" font-size="10.00">&#45;cbmc/diffblue&#45;cbmc/src</text>
<text text-anchor="middle" x="1175.5" y="-191" font-family="Helvetica,sans-Serif" font-size="10.00">/json/json_interface.cpp</text>
</a>
</g>
</g>
<!-- Node1&#45;&gt;Node13 -->
<g id="edge12" class="edge">
<title>Node1&#45;&gt;Node13</title>
<path fill="none" stroke="midnightblue" d="M1047.87,-263.29C1074.72,-251.13 1107.03,-236.5 1132.43,-225"/>
<polygon fill="midnightblue" stroke="midnightblue" points="1046.28,-260.17 1038.61,-267.48 1049.17,-266.54 1046.28,-260.17"/>
</g>
<!-- Node14 -->
<g id="node14" class="node">
<title>Node14</title>
<g id="a_node14"><a xlink:href="json__parser_8cpp.html" target="_top" xlink:title=" ">
<polygon fill="none" stroke="black" points="1268,-184 1268,-225 1417,-225 1417,-184 1268,-184"/>
<text text-anchor="start" x="1276" y="-213" font-family="Helvetica,sans-Serif" font-size="10.00">/home/runner/work/diffblue</text>
<text text-anchor="start" x="1276" y="-202" font-family="Helvetica,sans-Serif" font-size="10.00">&#45;cbmc/diffblue&#45;cbmc/src</text>
<text text-anchor="middle" x="1342.5" y="-191" font-family="Helvetica,sans-Serif" font-size="10.00">/json/json_parser.cpp</text>
</a>
</g>
</g>
<!-- Node1&#45;&gt;Node14 -->
<g id="edge13" class="edge">
<title>Node1&#45;&gt;Node14</title>
<path fill="none" stroke="midnightblue" d="M1080.02,-271.06C1132.05,-260.76 1199.95,-246.43 1259.5,-231 1266.5,-229.18 1273.8,-227.15 1281.03,-225.05"/>
<polygon fill="midnightblue" stroke="midnightblue" points="1079.3,-267.64 1070.16,-273.01 1080.65,-274.51 1079.3,-267.64"/>
</g>
<!-- Node15 -->
<g id="node15" class="node">
<title>Node15</title>
<g id="a_node15"><a xlink:href="json__symtab__language_8cpp.html" target="_top" xlink:title=" ">
<polygon fill="none" stroke="black" points="1435.5,-178.5 1435.5,-230.5 1587.5,-230.5 1587.5,-178.5 1435.5,-178.5"/>
<text text-anchor="start" x="1443.5" y="-218.5" font-family="Helvetica,sans-Serif" font-size="10.00">/home/runner/work/diffblue</text>
<text text-anchor="start" x="1443.5" y="-207.5" font-family="Helvetica,sans-Serif" font-size="10.00">&#45;cbmc/diffblue&#45;cbmc/src</text>
<text text-anchor="start" x="1443.5" y="-196.5" font-family="Helvetica,sans-Serif" font-size="10.00">/json&#45;symtab&#45;language/json</text>
<text text-anchor="middle" x="1511.5" y="-185.5" font-family="Helvetica,sans-Serif" font-size="10.00">_symtab_language.cpp</text>
</a>
</g>
</g>
<!-- Node1&#45;&gt;Node15 -->
<g id="edge14" class="edge">
<title>Node1&#45;&gt;Node15</title>
<path fill="none" stroke="midnightblue" d="M1080.23,-280.08C1167.64,-272 1307.61,-256.38 1426.5,-231 1429.36,-230.39 1432.27,-229.73 1435.2,-229.03"/>
<polygon fill="midnightblue" stroke="midnightblue" points="1079.74,-276.62 1070.1,-281.01 1080.38,-283.59 1079.74,-276.62"/>
</g>
<!-- Node16 -->
<g id="node16" class="node">
<title>Node16</title>
<g id="a_node16"><a xlink:href="java__bytecode__language_8cpp.html" target="_top" xlink:title=" ">
<polygon fill="none" stroke="black" points="1605.5,-178.5 1605.5,-230.5 1787.5,-230.5 1787.5,-178.5 1605.5,-178.5"/>
<text text-anchor="start" x="1613.5" y="-218.5" font-family="Helvetica,sans-Serif" font-size="10.00">/home/runner/work/diffblue</text>
<text text-anchor="start" x="1613.5" y="-207.5" font-family="Helvetica,sans-Serif" font-size="10.00">&#45;cbmc/diffblue&#45;cbmc/jbmc</text>
<text text-anchor="start" x="1613.5" y="-196.5" font-family="Helvetica,sans-Serif" font-size="10.00">/src/java_bytecode/java_bytecode</text>
<text text-anchor="middle" x="1696.5" y="-185.5" font-family="Helvetica,sans-Serif" font-size="10.00">_language.cpp</text>
</a>
</g>
</g>
<!-- Node1&#45;&gt;Node16 -->
<g id="edge15" class="edge">
<title>Node1&#45;&gt;Node16</title>
<path fill="none" stroke="midnightblue" d="M1080.32,-283.29C1197.21,-277.23 1414.08,-262.56 1596.5,-231 1599.41,-230.5 1602.37,-229.95 1605.34,-229.37"/>
<polygon fill="midnightblue" stroke="midnightblue" points="1079.82,-279.81 1070.01,-283.82 1080.18,-286.8 1079.82,-279.81"/>
</g>
<!-- Node17 -->
<g id="node17" class="node">
<title>Node17</title>
<g id="a_node17"><a xlink:href="java__class__loader__limit_8cpp.html" target="_top" xlink:title="limit class path loading">
<polygon fill="none" stroke="black" points="1805.5,-178.5 1805.5,-230.5 1967.5,-230.5 1967.5,-178.5 1805.5,-178.5"/>
<text text-anchor="start" x="1813.5" y="-218.5" font-family="Helvetica,sans-Serif" font-size="10.00">/home/runner/work/diffblue</text>
<text text-anchor="start" x="1813.5" y="-207.5" font-family="Helvetica,sans-Serif" font-size="10.00">&#45;cbmc/diffblue&#45;cbmc/jbmc</text>
<text text-anchor="start" x="1813.5" y="-196.5" font-family="Helvetica,sans-Serif" font-size="10.00">/src/java_bytecode/java_class</text>
<text text-anchor="middle" x="1886.5" y="-185.5" font-family="Helvetica,sans-Serif" font-size="10.00">_loader_limit.cpp</text>
</a>
</g>
</g>
<!-- Node1&#45;&gt;Node17 -->
<g id="edge16" class="edge">
<title>Node1&#45;&gt;Node17</title>
<path fill="none" stroke="midnightblue" d="M1080.41,-286.79C1227.4,-285.16 1538.35,-276.1 1796.5,-231 1799.38,-230.5 1802.3,-229.94 1805.24,-229.34"/>
<polygon fill="midnightblue" stroke="midnightblue" points="1080.07,-283.29 1070.11,-286.9 1080.14,-290.29 1080.07,-283.29"/>
</g>
<!-- Node7 -->
<g id="node7" class="node">
<title>Node7</title>
<g id="a_node7"><a xlink:href="contracts__wrangler_8cpp.html" target="_top" xlink:title="Parse and annotate contracts.">
<polygon fill="none" stroke="black" points="649,-89.5 649,-141.5 798,-141.5 798,-89.5 649,-89.5"/>
<text text-anchor="start" x="657" y="-129.5" font-family="Helvetica,sans-Serif" font-size="10.00">/home/runner/work/diffblue</text>
<text text-anchor="start" x="657" y="-118.5" font-family="Helvetica,sans-Serif" font-size="10.00">&#45;cbmc/diffblue&#45;cbmc/src</text>
<text text-anchor="start" x="657" y="-107.5" font-family="Helvetica,sans-Serif" font-size="10.00">/goto&#45;instrument/contracts</text>
<text text-anchor="middle" x="723.5" y="-96.5" font-family="Helvetica,sans-Serif" font-size="10.00">/contracts_wrangler.cpp</text>
</a>
</g>
</g>
<!-- Node6&#45;&gt;Node7 -->
<g id="edge6" class="edge">
<title>Node6&#45;&gt;Node7</title>
<path fill="none" stroke="midnightblue" d="M781.52,-171.36C771.13,-161.54 759.87,-150.89 750.05,-141.61"/>
<polygon fill="midnightblue" stroke="midnightblue" points="779.22,-174.01 788.89,-178.34 784.03,-168.92 779.22,-174.01"/>
</g>
<!-- Node8 -->
<g id="node8" class="node">
<title>Node8</title>
<g id="a_node8"><a xlink:href="goto__instrument__parse__options_8h.html" target="_top" xlink:title="Command Line Parsing.">
<polygon fill="none" stroke="black" points="816.5,-89.5 816.5,-141.5 998.5,-141.5 998.5,-89.5 816.5,-89.5"/>
<text text-anchor="start" x="824.5" y="-129.5" font-family="Helvetica,sans-Serif" font-size="10.00">/home/runner/work/diffblue</text>
<text text-anchor="start" x="824.5" y="-118.5" font-family="Helvetica,sans-Serif" font-size="10.00">&#45;cbmc/diffblue&#45;cbmc/src</text>
<text text-anchor="start" x="824.5" y="-107.5" font-family="Helvetica,sans-Serif" font-size="10.00">/goto&#45;instrument/goto_instrument</text>
<text text-anchor="middle" x="907.5" y="-96.5" font-family="Helvetica,sans-Serif" font-size="10.00">_parse_options.h</text>
</a>
</g>
</g>
<!-- Node6&#45;&gt;Node8 -->
<g id="edge7" class="edge">
<title>Node6&#45;&gt;Node8</title>
<path fill="none" stroke="midnightblue" d="M849.48,-171.36C859.87,-161.54 871.13,-150.89 880.95,-141.61"/>
<polygon fill="midnightblue" stroke="midnightblue" points="846.97,-168.92 842.11,-178.34 851.78,-174.01 846.97,-168.92"/>
</g>
<!-- Node9 -->
<g id="node9" class="node">
<title>Node9</title>
<g id="a_node9"><a xlink:href="goto__instrument__languages_8cpp.html" target="_top" xlink:title="Language Registration.">
<polygon fill="none" stroke="black" points="616.5,-0.5 616.5,-52.5 798.5,-52.5 798.5,-0.5 616.5,-0.5"/>
<text text-anchor="start" x="624.5" y="-40.5" font-family="Helvetica,sans-Serif" font-size="10.00">/home/runner/work/diffblue</text>
<text text-anchor="start" x="624.5" y="-29.5" font-family="Helvetica,sans-Serif" font-size="10.00">&#45;cbmc/diffblue&#45;cbmc/src</text>
<text text-anchor="start" x="624.5" y="-18.5" font-family="Helvetica,sans-Serif" font-size="10.00">/goto&#45;instrument/goto_instrument</text>
<text text-anchor="middle" x="707.5" y="-7.5" font-family="Helvetica,sans-Serif" font-size="10.00">_languages.cpp</text>
</a>
</g>
</g>
<!-- Node8&#45;&gt;Node9 -->
<g id="edge8" class="edge">
<title>Node8&#45;&gt;Node9</title>
<path fill="none" stroke="midnightblue" d="M840.69,-85.44C816.17,-74.77 788.65,-62.8 765.02,-52.52"/>
<polygon fill="midnightblue" stroke="midnightblue" points="839.35,-88.67 849.92,-89.45 842.15,-82.25 839.35,-88.67"/>
</g>
<!-- Node10 -->
<g id="node10" class="node">
<title>Node10</title>
<g id="a_node10"><a xlink:href="goto__instrument__main_8cpp.html" target="_top" xlink:title="Main Module.">
<polygon fill="none" stroke="black" points="816.5,-0.5 816.5,-52.5 998.5,-52.5 998.5,-0.5 816.5,-0.5"/>
<text text-anchor="start" x="824.5" y="-40.5" font-family="Helvetica,sans-Serif" font-size="10.00">/home/runner/work/diffblue</text>
<text text-anchor="start" x="824.5" y="-29.5" font-family="Helvetica,sans-Serif" font-size="10.00">&#45;cbmc/diffblue&#45;cbmc/src</text>
<text text-anchor="start" x="824.5" y="-18.5" font-family="Helvetica,sans-Serif" font-size="10.00">/goto&#45;instrument/goto_instrument</text>
<text text-anchor="middle" x="907.5" y="-7.5" font-family="Helvetica,sans-Serif" font-size="10.00">_main.cpp</text>
</a>
</g>
</g>
<!-- Node8&#45;&gt;Node10 -->
<g id="edge9" class="edge">
<title>Node8&#45;&gt;Node10</title>
<path fill="none" stroke="midnightblue" d="M907.5,-79.19C907.5,-70.28 907.5,-60.9 907.5,-52.61"/>
<polygon fill="midnightblue" stroke="midnightblue" points="904,-79.34 907.5,-89.34 911,-79.34 904,-79.34"/>
</g>
<!-- Node11 -->
<g id="node11" class="node">
<title>Node11</title>
<g id="a_node11"><a xlink:href="goto__instrument__parse__options_8cpp.html" target="_top" xlink:title="Main Module.">
<polygon fill="none" stroke="black" points="1016.5,-0.5 1016.5,-52.5 1198.5,-52.5 1198.5,-0.5 1016.5,-0.5"/>
<text text-anchor="start" x="1024.5" y="-40.5" font-family="Helvetica,sans-Serif" font-size="10.00">/home/runner/work/diffblue</text>
<text text-anchor="start" x="1024.5" y="-29.5" font-family="Helvetica,sans-Serif" font-size="10.00">&#45;cbmc/diffblue&#45;cbmc/src</text>
<text text-anchor="start" x="1024.5" y="-18.5" font-family="Helvetica,sans-Serif" font-size="10.00">/goto&#45;instrument/goto_instrument</text>
<text text-anchor="middle" x="1107.5" y="-7.5" font-family="Helvetica,sans-Serif" font-size="10.00">_parse_options.cpp</text>
</a>
</g>
</g>
<!-- Node8&#45;&gt;Node11 -->
<g id="edge10" class="edge">
<title>Node8&#45;&gt;Node11</title>
<path fill="none" stroke="midnightblue" d="M974.31,-85.44C998.83,-74.77 1026.35,-62.8 1049.98,-52.52"/>
<polygon fill="midnightblue" stroke="midnightblue" points="972.85,-82.25 965.08,-89.45 975.65,-88.67 972.85,-82.25"/>
</g>
</g>
</svg>
