<?xml version="1.0" encoding="UTF-8" standalone="no"?>
<!DOCTYPE svg PUBLIC "-//W3C//DTD SVG 1.1//EN"
 "http://www.w3.org/Graphics/SVG/1.1/DTD/svg11.dtd">
<!-- Generated by graphviz version 2.43.0 (0)
 -->
<!-- Title: /home/runner/work/diffblue&#45;cbmc/diffblue&#45;cbmc/src/util/json_stream.h Pages: 1 -->
<svg width="1966pt" height="139pt"
 viewBox="0.00 0.00 1965.50 139.00" xmlns="http://www.w3.org/2000/svg" xmlns:xlink="http://www.w3.org/1999/xlink">
<g id="graph0" class="graph" transform="scale(1 1) rotate(0) translate(4 135)">
<title>/home/runner/work/diffblue&#45;cbmc/diffblue&#45;cbmc/src/util/json_stream.h</title>
<!-- Node1 -->
<g id="node1" class="node">
<title>Node1</title>
<g id="a_node1"><a xlink:title=" ">
<polygon fill="#bfbfbf" stroke="black" points="900.5,-89.5 900.5,-130.5 1049.5,-130.5 1049.5,-89.5 900.5,-89.5"/>
<text text-anchor="start" x="908.5" y="-118.5" font-family="Helvetica,sans-Serif" font-size="10.00">/home/runner/work/diffblue</text>
<text text-anchor="start" x="908.5" y="-107.5" font-family="Helvetica,sans-Serif" font-size="10.00">&#45;cbmc/diffblue&#45;cbmc/src</text>
<text text-anchor="middle" x="975" y="-96.5" font-family="Helvetica,sans-Serif" font-size="10.00">/util/json_stream.h</text>
</a>
</g>
</g>
<!-- Node2 -->
<g id="node2" class="node">
<title>Node2</title>
<g id="a_node2"><a xlink:href="c__test__input__generator_8cpp.html" target="_top" xlink:title="Test Input Generator for C.">
<polygon fill="none" stroke="black" points="0,-6 0,-47 180,-47 180,-6 0,-6"/>
<text text-anchor="start" x="8" y="-35" font-family="Helvetica,sans-Serif" font-size="10.00">/home/runner/work/diffblue</text>
<text text-anchor="start" x="8" y="-24" font-family="Helvetica,sans-Serif" font-size="10.00">&#45;cbmc/diffblue&#45;cbmc/src</text>
<text text-anchor="middle" x="90" y="-13" font-family="Helvetica,sans-Serif" font-size="10.00">/cbmc/c_test_input_generator.cpp</text>
</a>
</g>
</g>
<!-- Node1&#45;&gt;Node2 -->
<g id="edge1" class="edge">
<title>Node1&#45;&gt;Node2</title>
<path fill="none" stroke="midnightblue" d="M890.1,-107.97C745.33,-105.1 441.84,-94.22 189,-53 179.28,-51.41 169.12,-49.32 159.17,-47.01"/>
<polygon fill="midnightblue" stroke="midnightblue" points="890.18,-111.47 900.25,-108.16 890.32,-104.47 890.18,-111.47"/>
</g>
<!-- Node3 -->
<g id="node3" class="node">
<title>Node3</title>
<g id="a_node3"><a xlink:href="bmc__util_8cpp.html" target="_top" xlink:title="Bounded Model Checking Utilities.">
<polygon fill="none" stroke="black" points="198.5,-6 198.5,-47 347.5,-47 347.5,-6 198.5,-6"/>
<text text-anchor="start" x="206.5" y="-35" font-family="Helvetica,sans-Serif" font-size="10.00">/home/runner/work/diffblue</text>
<text text-anchor="start" x="206.5" y="-24" font-family="Helvetica,sans-Serif" font-size="10.00">&#45;cbmc/diffblue&#45;cbmc/src</text>
<text text-anchor="middle" x="273" y="-13" font-family="Helvetica,sans-Serif" font-size="10.00">/goto&#45;checker/bmc_util.cpp</text>
</a>
</g>
</g>
<!-- Node1&#45;&gt;Node3 -->
<g id="edge2" class="edge">
<title>Node1&#45;&gt;Node3</title>
<path fill="none" stroke="midnightblue" d="M890.23,-106.9C770.26,-102.66 544.52,-90.07 356,-53 347.86,-51.4 339.39,-49.31 331.11,-47.02"/>
<polygon fill="midnightblue" stroke="midnightblue" points="890.34,-110.4 900.45,-107.25 890.58,-103.41 890.34,-110.4"/>
</g>
<!-- Node4 -->
<g id="node4" class="node">
<title>Node4</title>
<g id="a_node4"><a xlink:href="cover__goals__report__util_8cpp.html" target="_top" xlink:title="Cover Goals Reporting Utilities.">
<polygon fill="none" stroke="black" points="365.5,-0.5 365.5,-52.5 514.5,-52.5 514.5,-0.5 365.5,-0.5"/>
<text text-anchor="start" x="373.5" y="-40.5" font-family="Helvetica,sans-Serif" font-size="10.00">/home/runner/work/diffblue</text>
<text text-anchor="start" x="373.5" y="-29.5" font-family="Helvetica,sans-Serif" font-size="10.00">&#45;cbmc/diffblue&#45;cbmc/src</text>
<text text-anchor="start" x="373.5" y="-18.5" font-family="Helvetica,sans-Serif" font-size="10.00">/goto&#45;checker/cover_goals</text>
<text text-anchor="middle" x="440" y="-7.5" font-family="Helvetica,sans-Serif" font-size="10.00">_report_util.cpp</text>
</a>
</g>
</g>
<!-- Node1&#45;&gt;Node4 -->
<g id="edge3" class="edge">
<title>Node1&#45;&gt;Node4</title>
<path fill="none" stroke="midnightblue" d="M890.32,-102.95C798.95,-95.4 649.51,-80.05 523,-53 520.35,-52.43 517.66,-51.82 514.95,-51.17"/>
<polygon fill="midnightblue" stroke="midnightblue" points="890.1,-106.45 900.35,-103.77 890.67,-99.47 890.1,-106.45"/>
</g>
<!-- Node5 -->
<g id="node5" class="node">
<title>Node5</title>
<g id="a_node5"><a xlink:href="properties_8cpp.html" target="_top" xlink:title="Properties.">
<polygon fill="none" stroke="black" points="532.5,-6 532.5,-47 687.5,-47 687.5,-6 532.5,-6"/>
<text text-anchor="start" x="540.5" y="-35" font-family="Helvetica,sans-Serif" font-size="10.00">/home/runner/work/diffblue</text>
<text text-anchor="start" x="540.5" y="-24" font-family="Helvetica,sans-Serif" font-size="10.00">&#45;cbmc/diffblue&#45;cbmc/src</text>
<text text-anchor="middle" x="610" y="-13" font-family="Helvetica,sans-Serif" font-size="10.00">/goto&#45;checker/properties.cpp</text>
</a>
</g>
</g>
<!-- Node1&#45;&gt;Node5 -->
<g id="edge4" class="edge">
<title>Node1&#45;&gt;Node5</title>
<path fill="none" stroke="midnightblue" d="M890.17,-93.88C834.9,-83.54 761.35,-68.88 697,-53 689.67,-51.19 682.02,-49.16 674.44,-47.06"/>
<polygon fill="midnightblue" stroke="midnightblue" points="889.8,-97.37 900.28,-95.76 891.08,-90.49 889.8,-97.37"/>
</g>
<!-- Node6 -->
<g id="node6" class="node">
<title>Node6</title>
<g id="a_node6"><a xlink:href="report__util_8cpp.html" target="_top" xlink:title="Bounded Model Checking Utilities.">
<polygon fill="none" stroke="black" points="706,-6 706,-47 862,-47 862,-6 706,-6"/>
<text text-anchor="start" x="714" y="-35" font-family="Helvetica,sans-Serif" font-size="10.00">/home/runner/work/diffblue</text>
<text text-anchor="start" x="714" y="-24" font-family="Helvetica,sans-Serif" font-size="10.00">&#45;cbmc/diffblue&#45;cbmc/src</text>
<text text-anchor="middle" x="784" y="-13" font-family="Helvetica,sans-Serif" font-size="10.00">/goto&#45;checker/report_util.cpp</text>
</a>
</g>
</g>
<!-- Node1&#45;&gt;Node6 -->
<g id="edge5" class="edge">
<title>Node1&#45;&gt;Node6</title>
<path fill="none" stroke="midnightblue" d="M919.81,-85.45C891.23,-73.26 856.77,-58.55 829.71,-47"/>
<polygon fill="midnightblue" stroke="midnightblue" points="918.68,-88.77 929.25,-89.48 921.43,-82.33 918.68,-88.77"/>
</g>
<!-- Node7 -->
<g id="node7" class="node">
<title>Node7</title>
<g id="a_node7"><a xlink:href="class__hierarchy_8cpp.html" target="_top" xlink:title="Class Hierarchy.">
<polygon fill="none" stroke="black" points="880.5,-6 880.5,-47 1069.5,-47 1069.5,-6 880.5,-6"/>
<text text-anchor="start" x="888.5" y="-35" font-family="Helvetica,sans-Serif" font-size="10.00">/home/runner/work/diffblue</text>
<text text-anchor="start" x="888.5" y="-24" font-family="Helvetica,sans-Serif" font-size="10.00">&#45;cbmc/diffblue&#45;cbmc/src</text>
<text text-anchor="middle" x="975" y="-13" font-family="Helvetica,sans-Serif" font-size="10.00">/goto&#45;programs/class_hierarchy.cpp</text>
</a>
</g>
</g>
<!-- Node1&#45;&gt;Node7 -->
<g id="edge6" class="edge">
<title>Node1&#45;&gt;Node7</title>
<path fill="none" stroke="midnightblue" d="M975,-79.06C975,-68.38 975,-56.63 975,-47.05"/>
<polygon fill="midnightblue" stroke="midnightblue" points="971.5,-79.27 975,-89.27 978.5,-79.27 971.5,-79.27"/>
</g>
<!-- Node8 -->
<g id="node8" class="node">
<title>Node8</title>
<g id="a_node8"><a xlink:href="show__symbol__table_8cpp.html" target="_top" xlink:title="Show the symbol table.">
<polygon fill="none" stroke="black" points="1087.5,-0.5 1087.5,-52.5 1248.5,-52.5 1248.5,-0.5 1087.5,-0.5"/>
<text text-anchor="start" x="1095.5" y="-40.5" font-family="Helvetica,sans-Serif" font-size="10.00">/home/runner/work/diffblue</text>
<text text-anchor="start" x="1095.5" y="-29.5" font-family="Helvetica,sans-Serif" font-size="10.00">&#45;cbmc/diffblue&#45;cbmc/src</text>
<text text-anchor="start" x="1095.5" y="-18.5" font-family="Helvetica,sans-Serif" font-size="10.00">/goto&#45;programs/show_symbol</text>
<text text-anchor="middle" x="1168" y="-7.5" font-family="Helvetica,sans-Serif" font-size="10.00">_table.cpp</text>
</a>
</g>
</g>
<!-- Node1&#45;&gt;Node8 -->
<g id="edge7" class="edge">
<title>Node1&#45;&gt;Node8</title>
<path fill="none" stroke="midnightblue" d="M1030.71,-85.48C1055.12,-75.17 1083.8,-63.06 1108.62,-52.58"/>
<polygon fill="midnightblue" stroke="midnightblue" points="1029.08,-82.36 1021.23,-89.48 1031.8,-88.81 1029.08,-82.36"/>
</g>
<!-- Node9 -->
<g id="node9" class="node">
<title>Node9</title>
<g id="a_node9"><a xlink:href="solver__hardness_8cpp.html" target="_top" xlink:title=" ">
<polygon fill="none" stroke="black" points="1266.5,-6 1266.5,-47 1447.5,-47 1447.5,-6 1266.5,-6"/>
<text text-anchor="start" x="1274.5" y="-35" font-family="Helvetica,sans-Serif" font-size="10.00">/home/runner/work/diffblue</text>
<text text-anchor="start" x="1274.5" y="-24" font-family="Helvetica,sans-Serif" font-size="10.00">&#45;cbmc/diffblue&#45;cbmc/src</text>
<text text-anchor="middle" x="1357" y="-13" font-family="Helvetica,sans-Serif" font-size="10.00">/goto&#45;symex/solver_hardness.cpp</text>
</a>
</g>
</g>
<!-- Node1&#45;&gt;Node9 -->
<g id="edge8" class="edge">
<title>Node1&#45;&gt;Node9</title>
<path fill="none" stroke="midnightblue" d="M1059.67,-93.55C1116.04,-82.94 1191.66,-68.09 1258,-53 1266.13,-51.15 1274.62,-49.12 1283.05,-47.04"/>
<polygon fill="midnightblue" stroke="midnightblue" points="1058.91,-90.13 1049.73,-95.41 1060.2,-97.01 1058.91,-90.13"/>
</g>
<!-- Node10 -->
<g id="node10" class="node">
<title>Node10</title>
<g id="a_node10"><a xlink:href="dump__loop__contracts_8cpp.html" target="_top" xlink:title="Dump Loop Contracts as JSON.">
<polygon fill="none" stroke="black" points="1466,-0.5 1466,-52.5 1624,-52.5 1624,-0.5 1466,-0.5"/>
<text text-anchor="start" x="1474" y="-40.5" font-family="Helvetica,sans-Serif" font-size="10.00">/home/runner/work/diffblue</text>
<text text-anchor="start" x="1474" y="-29.5" font-family="Helvetica,sans-Serif" font-size="10.00">&#45;cbmc/diffblue&#45;cbmc/src</text>
<text text-anchor="start" x="1474" y="-18.5" font-family="Helvetica,sans-Serif" font-size="10.00">/goto&#45;synthesizer/dump_loop</text>
<text text-anchor="middle" x="1545" y="-7.5" font-family="Helvetica,sans-Serif" font-size="10.00">_contracts.cpp</text>
</a>
</g>
</g>
<!-- Node1&#45;&gt;Node10 -->
<g id="edge9" class="edge">
<title>Node1&#45;&gt;Node10</title>
<path fill="none" stroke="midnightblue" d="M1059.53,-103.46C1156.29,-96.13 1319.21,-80.77 1457,-53 1459.96,-52.4 1462.97,-51.75 1466,-51.06"/>
<polygon fill="midnightblue" stroke="midnightblue" points="1059.22,-99.97 1049.5,-104.21 1059.74,-106.95 1059.22,-99.97"/>
</g>
<!-- Node11 -->
<g id="node11" class="node">
<title>Node11</title>
<g id="a_node11"><a xlink:href="json__stream_8cpp.html" target="_top" xlink:title=" ">
<polygon fill="none" stroke="black" points="1641.5,-6 1641.5,-47 1790.5,-47 1790.5,-6 1641.5,-6"/>
<text text-anchor="start" x="1649.5" y="-35" font-family="Helvetica,sans-Serif" font-size="10.00">/home/runner/work/diffblue</text>
<text text-anchor="start" x="1649.5" y="-24" font-family="Helvetica,sans-Serif" font-size="10.00">&#45;cbmc/diffblue&#45;cbmc/src</text>
<text text-anchor="middle" x="1716" y="-13" font-family="Helvetica,sans-Serif" font-size="10.00">/util/json_stream.cpp</text>
</a>
</g>
</g>
<!-- Node1&#45;&gt;Node11 -->
<g id="edge10" class="edge">
<title>Node1&#45;&gt;Node11</title>
<path fill="none" stroke="midnightblue" d="M1060.08,-107.53C1186.25,-104.06 1429.92,-92.37 1633,-53 1641.14,-51.42 1649.61,-49.35 1657.9,-47.06"/>
<polygon fill="midnightblue" stroke="midnightblue" points="1059.62,-104.04 1049.72,-107.81 1059.81,-111.04 1059.62,-104.04"/>
</g>
<!-- Node12 -->
<g id="node12" class="node">
<title>Node12</title>
<g id="a_node12"><a xlink:href="ui__message_8cpp.html" target="_top" xlink:title=" ">
<polygon fill="none" stroke="black" points="1808.5,-6 1808.5,-47 1957.5,-47 1957.5,-6 1808.5,-6"/>
<text text-anchor="start" x="1816.5" y="-35" font-family="Helvetica,sans-Serif" font-size="10.00">/home/runner/work/diffblue</text>
<text text-anchor="start" x="1816.5" y="-24" font-family="Helvetica,sans-Serif" font-size="10.00">&#45;cbmc/diffblue&#45;cbmc/src</text>
<text text-anchor="middle" x="1883" y="-13" font-family="Helvetica,sans-Serif" font-size="10.00">/util/ui_message.cpp</text>
</a>
</g>
</g>
<!-- Node1&#45;&gt;Node12 -->
<g id="edge11" class="edge">
<title>Node1&#45;&gt;Node12</title>
<path fill="none" stroke="midnightblue" d="M1059.76,-109.64C1210.15,-109.37 1532.98,-102.4 1800,-53 1808.3,-51.46 1816.94,-49.38 1825.38,-47.06"/>
<polygon fill="midnightblue" stroke="midnightblue" points="1059.66,-106.14 1049.67,-109.65 1059.67,-113.14 1059.66,-106.14"/>
</g>
</g>
</svg>
