<?xml version="1.0" encoding="UTF-8" standalone="no"?>
<!DOCTYPE svg PUBLIC "-//W3C//DTD SVG 1.1//EN"
 "http://www.w3.org/Graphics/SVG/1.1/DTD/svg11.dtd">
<!-- Generated by graphviz version 2.43.0 (0)
 -->
<!-- Title: /home/runner/work/diffblue&#45;cbmc/diffblue&#45;cbmc/jbmc/src/java_bytecode/lambda_synthesis.h Pages: 1 -->
<svg width="558pt" height="150pt"
 viewBox="0.00 0.00 557.50 150.00" xmlns="http://www.w3.org/2000/svg" xmlns:xlink="http://www.w3.org/1999/xlink">
<g id="graph0" class="graph" transform="scale(1 1) rotate(0) translate(4 146)">
<title>/home/runner/work/diffblue&#45;cbmc/diffblue&#45;cbmc/jbmc/src/java_bytecode/lambda_synthesis.h</title>
<!-- Node1 -->
<g id="node1" class="node">
<title>Node1</title>
<g id="a_node1"><a xlink:title="Java lambda code synthesis.">
<polygon fill="#bfbfbf" stroke="black" points="216.5,-89.5 216.5,-141.5 365.5,-141.5 365.5,-89.5 216.5,-89.5"/>
<text text-anchor="start" x="224.5" y="-129.5" font-family="Helvetica,sans-Serif" font-size="10.00">/home/runner/work/diffblue</text>
<text text-anchor="start" x="224.5" y="-118.5" font-family="Helvetica,sans-Serif" font-size="10.00">&#45;cbmc/diffblue&#45;cbmc/jbmc</text>
<text text-anchor="start" x="224.5" y="-107.5" font-family="Helvetica,sans-Serif" font-size="10.00">/src/java_bytecode/lambda</text>
<text text-anchor="middle" x="291" y="-96.5" font-family="Helvetica,sans-Serif" font-size="10.00">_synthesis.h</text>
</a>
</g>
</g>
<!-- Node2 -->
<g id="node2" class="node">
<title>Node2</title>
<g id="a_node2"><a xlink:href="java__bytecode__convert__method_8cpp.html" target="_top" xlink:title="JAVA Bytecode Language Conversion.">
<polygon fill="none" stroke="black" points="0,-0.5 0,-52.5 182,-52.5 182,-0.5 0,-0.5"/>
<text text-anchor="start" x="8" y="-40.5" font-family="Helvetica,sans-Serif" font-size="10.00">/home/runner/work/diffblue</text>
<text text-anchor="start" x="8" y="-29.5" font-family="Helvetica,sans-Serif" font-size="10.00">&#45;cbmc/diffblue&#45;cbmc/jbmc</text>
<text text-anchor="start" x="8" y="-18.5" font-family="Helvetica,sans-Serif" font-size="10.00">/src/java_bytecode/java_bytecode</text>
<text text-anchor="middle" x="91" y="-7.5" font-family="Helvetica,sans-Serif" font-size="10.00">_convert_method.cpp</text>
</a>
</g>
</g>
<!-- Node1&#45;&gt;Node2 -->
<g id="edge1" class="edge">
<title>Node1&#45;&gt;Node2</title>
<path fill="none" stroke="midnightblue" d="M224.19,-85.44C199.67,-74.77 172.15,-62.8 148.52,-52.52"/>
<polygon fill="midnightblue" stroke="midnightblue" points="222.85,-88.67 233.42,-89.45 225.65,-82.25 222.85,-88.67"/>
</g>
<!-- Node3 -->
<g id="node3" class="node">
<title>Node3</title>
<g id="a_node3"><a xlink:href="java__bytecode__language_8cpp.html" target="_top" xlink:title=" ">
<polygon fill="none" stroke="black" points="200,-0.5 200,-52.5 382,-52.5 382,-0.5 200,-0.5"/>
<text text-anchor="start" x="208" y="-40.5" font-family="Helvetica,sans-Serif" font-size="10.00">/home/runner/work/diffblue</text>
<text text-anchor="start" x="208" y="-29.5" font-family="Helvetica,sans-Serif" font-size="10.00">&#45;cbmc/diffblue&#45;cbmc/jbmc</text>
<text text-anchor="start" x="208" y="-18.5" font-family="Helvetica,sans-Serif" font-size="10.00">/src/java_bytecode/java_bytecode</text>
<text text-anchor="middle" x="291" y="-7.5" font-family="Helvetica,sans-Serif" font-size="10.00">_language.cpp</text>
</a>
</g>
</g>
<!-- Node1&#45;&gt;Node3 -->
<g id="edge2" class="edge">
<title>Node1&#45;&gt;Node3</title>
<path fill="none" stroke="midnightblue" d="M291,-79.19C291,-70.28 291,-60.9 291,-52.61"/>
<polygon fill="midnightblue" stroke="midnightblue" points="287.5,-79.34 291,-89.34 294.5,-79.34 287.5,-79.34"/>
</g>
<!-- Node4 -->
<g id="node4" class="node">
<title>Node4</title>
<g id="a_node4"><a xlink:href="lambda__synthesis_8cpp.html" target="_top" xlink:title="Java lambda code synthesis.">
<polygon fill="none" stroke="black" points="400.5,-0.5 400.5,-52.5 549.5,-52.5 549.5,-0.5 400.5,-0.5"/>
<text text-anchor="start" x="408.5" y="-40.5" font-family="Helvetica,sans-Serif" font-size="10.00">/home/runner/work/diffblue</text>
<text text-anchor="start" x="408.5" y="-29.5" font-family="Helvetica,sans-Serif" font-size="10.00">&#45;cbmc/diffblue&#45;cbmc/jbmc</text>
<text text-anchor="start" x="408.5" y="-18.5" font-family="Helvetica,sans-Serif" font-size="10.00">/src/java_bytecode/lambda</text>
<text text-anchor="middle" x="475" y="-7.5" font-family="Helvetica,sans-Serif" font-size="10.00">_synthesis.cpp</text>
</a>
</g>
</g>
<!-- Node1&#45;&gt;Node4 -->
<g id="edge3" class="edge">
<title>Node1&#45;&gt;Node4</title>
<path fill="none" stroke="midnightblue" d="M353.27,-85.06C375.56,-74.52 400.46,-62.75 421.9,-52.61"/>
<polygon fill="midnightblue" stroke="midnightblue" points="351.76,-81.9 344.22,-89.34 354.76,-88.23 351.76,-81.9"/>
</g>
</g>
</svg>
