<?xml version="1.0" encoding="UTF-8" standalone="no"?>
<!DOCTYPE svg PUBLIC "-//W3C//DTD SVG 1.1//EN"
 "http://www.w3.org/Graphics/SVG/1.1/DTD/svg11.dtd">
<!-- Generated by graphviz version 2.43.0 (0)
 -->
<!-- Title: /home/runner/work/diffblue&#45;cbmc/diffblue&#45;cbmc/src/util/lispexpr.cpp Pages: 1 -->
<svg width="337pt" height="162pt"
 viewBox="0.00 0.00 336.50 162.00" xmlns="http://www.w3.org/2000/svg" xmlns:xlink="http://www.w3.org/1999/xlink">
<g id="graph0" class="graph" transform="scale(1 1) rotate(0) translate(4 158)">
<title>/home/runner/work/diffblue&#45;cbmc/diffblue&#45;cbmc/src/util/lispexpr.cpp</title>
<!-- Node1 -->
<g id="node1" class="node">
<title>Node1</title>
<g id="a_node1"><a xlink:title=" ">
<polygon fill="#bfbfbf" stroke="black" points="136,-112.5 136,-153.5 285,-153.5 285,-112.5 136,-112.5"/>
<text text-anchor="start" x="144" y="-141.5" font-family="Helvetica,sans-Serif" font-size="10.00">/home/runner/work/diffblue</text>
<text text-anchor="start" x="144" y="-130.5" font-family="Helvetica,sans-Serif" font-size="10.00">&#45;cbmc/diffblue&#45;cbmc/src</text>
<text text-anchor="middle" x="210.5" y="-119.5" font-family="Helvetica,sans-Serif" font-size="10.00">/util/lispexpr.cpp</text>
</a>
</g>
</g>
<!-- Node2 -->
<g id="node2" class="node">
<title>Node2</title>
<g id="a_node2"><a xlink:href="lispexpr_8h.html" target="_top" xlink:title=" ">
<polygon fill="none" stroke="black" points="88.5,-56.5 88.5,-75.5 152.5,-75.5 152.5,-56.5 88.5,-56.5"/>
<text text-anchor="middle" x="120.5" y="-63.5" font-family="Helvetica,sans-Serif" font-size="10.00">lispexpr.h</text>
</a>
</g>
</g>
<!-- Node1&#45;&gt;Node2 -->
<g id="edge1" class="edge">
<title>Node1&#45;&gt;Node2</title>
<path fill="none" stroke="midnightblue" d="M183.5,-112.5C169.83,-102.63 153.51,-90.84 140.91,-81.74"/>
<polygon fill="midnightblue" stroke="midnightblue" points="142.64,-78.67 132.48,-75.65 138.54,-84.34 142.64,-78.67"/>
</g>
<!-- Node7 -->
<g id="node7" class="node">
<title>Node7</title>
<g id="a_node7"><a xlink:href="string__utils_8h.html" target="_top" xlink:title=" ">
<polygon fill="none" stroke="black" points="170.5,-56.5 170.5,-75.5 250.5,-75.5 250.5,-56.5 170.5,-56.5"/>
<text text-anchor="middle" x="210.5" y="-63.5" font-family="Helvetica,sans-Serif" font-size="10.00">string_utils.h</text>
</a>
</g>
</g>
<!-- Node1&#45;&gt;Node7 -->
<g id="edge6" class="edge">
<title>Node1&#45;&gt;Node7</title>
<path fill="none" stroke="midnightblue" d="M210.5,-112.5C210.5,-104.07 210.5,-94.24 210.5,-85.87"/>
<polygon fill="midnightblue" stroke="midnightblue" points="214,-85.65 210.5,-75.65 207,-85.65 214,-85.65"/>
</g>
<!-- Node8 -->
<g id="node8" class="node">
<title>Node8</title>
<g id="a_node8"><a xlink:title=" ">
<polygon fill="none" stroke="#bfbfbf" points="268.5,-56.5 268.5,-75.5 328.5,-75.5 328.5,-56.5 268.5,-56.5"/>
<text text-anchor="middle" x="298.5" y="-63.5" font-family="Helvetica,sans-Serif" font-size="10.00">iostream</text>
</a>
</g>
</g>
<!-- Node1&#45;&gt;Node8 -->
<g id="edge9" class="edge">
<title>Node1&#45;&gt;Node8</title>
<path fill="none" stroke="midnightblue" d="M236.9,-112.5C250.27,-102.63 266.22,-90.84 278.54,-81.74"/>
<polygon fill="midnightblue" stroke="midnightblue" points="280.82,-84.41 286.79,-75.65 276.66,-78.78 280.82,-84.41"/>
</g>
<!-- Node3 -->
<g id="node3" class="node">
<title>Node3</title>
<g id="a_node3"><a xlink:title=" ">
<polygon fill="none" stroke="#bfbfbf" points="0,-0.5 0,-19.5 59,-19.5 59,-0.5 0,-0.5"/>
<text text-anchor="middle" x="29.5" y="-7.5" font-family="Helvetica,sans-Serif" font-size="10.00">strings.h</text>
</a>
</g>
</g>
<!-- Node2&#45;&gt;Node3 -->
<g id="edge2" class="edge">
<title>Node2&#45;&gt;Node3</title>
<path fill="none" stroke="midnightblue" d="M105.88,-56.32C91.55,-47.82 69.49,-34.73 52.75,-24.8"/>
<polygon fill="midnightblue" stroke="midnightblue" points="54.47,-21.75 44.08,-19.65 50.9,-27.77 54.47,-21.75"/>
</g>
<!-- Node4 -->
<g id="node4" class="node">
<title>Node4</title>
<g id="a_node4"><a xlink:title=" ">
<polygon fill="none" stroke="#bfbfbf" points="143.5,-0.5 143.5,-19.5 187.5,-19.5 187.5,-0.5 143.5,-0.5"/>
<text text-anchor="middle" x="165.5" y="-7.5" font-family="Helvetica,sans-Serif" font-size="10.00">string</text>
</a>
</g>
</g>
<!-- Node2&#45;&gt;Node4 -->
<g id="edge3" class="edge">
<title>Node2&#45;&gt;Node4</title>
<path fill="none" stroke="midnightblue" d="M127.93,-56.08C134.35,-48.38 143.81,-37.03 151.62,-27.65"/>
<polygon fill="midnightblue" stroke="midnightblue" points="154.49,-29.67 158.21,-19.75 149.12,-25.19 154.49,-29.67"/>
</g>
<!-- Node5 -->
<g id="node5" class="node">
<title>Node5</title>
<g id="a_node5"><a xlink:title=" ">
<polygon fill="none" stroke="#bfbfbf" points="206,-0.5 206,-19.5 253,-19.5 253,-0.5 206,-0.5"/>
<text text-anchor="middle" x="229.5" y="-7.5" font-family="Helvetica,sans-Serif" font-size="10.00">vector</text>
</a>
</g>
</g>
<!-- Node2&#45;&gt;Node5 -->
<g id="edge4" class="edge">
<title>Node2&#45;&gt;Node5</title>
<path fill="none" stroke="midnightblue" d="M138.01,-56.32C155.57,-47.62 182.83,-34.12 203.03,-24.11"/>
<polygon fill="midnightblue" stroke="midnightblue" points="204.62,-27.23 212.03,-19.65 201.52,-20.96 204.62,-27.23"/>
</g>
<!-- Node6 -->
<g id="node6" class="node">
<title>Node6</title>
<g id="a_node6"><a xlink:title=" ">
<polygon fill="none" stroke="#bfbfbf" points="77.5,-0.5 77.5,-19.5 125.5,-19.5 125.5,-0.5 77.5,-0.5"/>
<text text-anchor="middle" x="101.5" y="-7.5" font-family="Helvetica,sans-Serif" font-size="10.00">iosfwd</text>
</a>
</g>
</g>
<!-- Node2&#45;&gt;Node6 -->
<g id="edge5" class="edge">
<title>Node2&#45;&gt;Node6</title>
<path fill="none" stroke="midnightblue" d="M117.36,-56.08C114.82,-48.85 111.14,-38.41 107.97,-29.4"/>
<polygon fill="midnightblue" stroke="midnightblue" points="111.2,-28.02 104.58,-19.75 104.6,-30.35 111.2,-28.02"/>
</g>
<!-- Node7&#45;&gt;Node4 -->
<g id="edge7" class="edge">
<title>Node7&#45;&gt;Node4</title>
<path fill="none" stroke="midnightblue" d="M203.07,-56.08C196.65,-48.38 187.19,-37.03 179.38,-27.65"/>
<polygon fill="midnightblue" stroke="midnightblue" points="181.88,-25.19 172.79,-19.75 176.51,-29.67 181.88,-25.19"/>
</g>
<!-- Node7&#45;&gt;Node5 -->
<g id="edge8" class="edge">
<title>Node7&#45;&gt;Node5</title>
<path fill="none" stroke="midnightblue" d="M213.64,-56.08C216.18,-48.85 219.86,-38.41 223.03,-29.4"/>
<polygon fill="midnightblue" stroke="midnightblue" points="226.4,-30.35 226.42,-19.75 219.8,-28.02 226.4,-30.35"/>
</g>
</g>
</svg>
