<?xml version="1.0" encoding="UTF-8" standalone="no"?>
<!DOCTYPE svg PUBLIC "-//W3C//DTD SVG 1.1//EN"
 "http://www.w3.org/Graphics/SVG/1.1/DTD/svg11.dtd">
<!-- Generated by graphviz version 2.43.0 (0)
 -->
<!-- Title: /home/runner/work/diffblue&#45;cbmc/diffblue&#45;cbmc/src/goto&#45;instrument/contracts/loop_contract_config.h Pages: 1 -->
<svg width="3077pt" height="528pt"
 viewBox="0.00 0.00 3077.15 528.00" xmlns="http://www.w3.org/2000/svg" xmlns:xlink="http://www.w3.org/1999/xlink">
<g id="graph0" class="graph" transform="scale(1 1) rotate(0) translate(4 524)">
<title>/home/runner/work/diffblue&#45;cbmc/diffblue&#45;cbmc/src/goto&#45;instrument/contracts/loop_contract_config.h</title>
<!-- Node1 -->
<g id="node1" class="node">
<title>Node1</title>
<g id="a_node1"><a xlink:title="Config for loop contract.">
<polygon fill="#bfbfbf" stroke="black" points="1665.5,-467.5 1665.5,-519.5 1814.5,-519.5 1814.5,-467.5 1665.5,-467.5"/>
<text text-anchor="start" x="1673.5" y="-507.5" font-family="Helvetica,sans-Serif" font-size="10.00">/home/runner/work/diffblue</text>
<text text-anchor="start" x="1673.5" y="-496.5" font-family="Helvetica,sans-Serif" font-size="10.00">&#45;cbmc/diffblue&#45;cbmc/src</text>
<text text-anchor="start" x="1673.5" y="-485.5" font-family="Helvetica,sans-Serif" font-size="10.00">/goto&#45;instrument/contracts</text>
<text text-anchor="middle" x="1740" y="-474.5" font-family="Helvetica,sans-Serif" font-size="10.00">/loop_contract_config.h</text>
</a>
</g>
</g>
<!-- Node2 -->
<g id="node2" class="node">
<title>Node2</title>
<g id="a_node2"><a xlink:href="contracts_8h.html" target="_top" xlink:title="Verify and use annotated invariants and pre/post&#45;conditions.">
<polygon fill="none" stroke="black" points="2704.5,-378.5 2704.5,-430.5 2853.5,-430.5 2853.5,-378.5 2704.5,-378.5"/>
<text text-anchor="start" x="2712.5" y="-418.5" font-family="Helvetica,sans-Serif" font-size="10.00">/home/runner/work/diffblue</text>
<text text-anchor="start" x="2712.5" y="-407.5" font-family="Helvetica,sans-Serif" font-size="10.00">&#45;cbmc/diffblue&#45;cbmc/src</text>
<text text-anchor="start" x="2712.5" y="-396.5" font-family="Helvetica,sans-Serif" font-size="10.00">/goto&#45;instrument/contracts</text>
<text text-anchor="middle" x="2779" y="-385.5" font-family="Helvetica,sans-Serif" font-size="10.00">/contracts.h</text>
</a>
</g>
</g>
<!-- Node1&#45;&gt;Node2 -->
<g id="edge1" class="edge">
<title>Node1&#45;&gt;Node2</title>
<path fill="none" stroke="midnightblue" d="M1824.81,-485.4C2023.42,-468.77 2516.04,-427.52 2704.26,-411.76"/>
<polygon fill="midnightblue" stroke="midnightblue" points="1824.4,-481.92 1814.72,-486.24 1824.98,-488.9 1824.4,-481.92"/>
</g>
<!-- Node13 -->
<g id="node13" class="node">
<title>Node13</title>
<g id="a_node13"><a xlink:href="dfcc__cfg__info_8h.html" target="_top" xlink:title="Class that computes CFG information about the loop structure of a GOTO function for the purpose of dy...">
<polygon fill="none" stroke="black" points="1652,-378.5 1652,-430.5 1828,-430.5 1828,-378.5 1652,-378.5"/>
<text text-anchor="start" x="1660" y="-418.5" font-family="Helvetica,sans-Serif" font-size="10.00">/home/runner/work/diffblue</text>
<text text-anchor="start" x="1660" y="-407.5" font-family="Helvetica,sans-Serif" font-size="10.00">&#45;cbmc/diffblue&#45;cbmc/src</text>
<text text-anchor="start" x="1660" y="-396.5" font-family="Helvetica,sans-Serif" font-size="10.00">/goto&#45;instrument/contracts</text>
<text text-anchor="middle" x="1740" y="-385.5" font-family="Helvetica,sans-Serif" font-size="10.00">/dynamic&#45;frames/dfcc_cfg_info.h</text>
</a>
</g>
</g>
<!-- Node1&#45;&gt;Node13 -->
<g id="edge13" class="edge">
<title>Node1&#45;&gt;Node13</title>
<path fill="none" stroke="midnightblue" d="M1740,-457.19C1740,-448.28 1740,-438.9 1740,-430.61"/>
<polygon fill="midnightblue" stroke="midnightblue" points="1736.5,-457.34 1740,-467.34 1743.5,-457.34 1736.5,-457.34"/>
</g>
<!-- Node21 -->
<g id="node21" class="node">
<title>Node21</title>
<g id="a_node21"><a xlink:href="dfcc__instrument_8h.html" target="_top" xlink:title="Add instrumentation to a goto program to perform frame condition checks.">
<polygon fill="none" stroke="black" points="652.5,-378.5 652.5,-430.5 843.5,-430.5 843.5,-378.5 652.5,-378.5"/>
<text text-anchor="start" x="660.5" y="-418.5" font-family="Helvetica,sans-Serif" font-size="10.00">/home/runner/work/diffblue</text>
<text text-anchor="start" x="660.5" y="-407.5" font-family="Helvetica,sans-Serif" font-size="10.00">&#45;cbmc/diffblue&#45;cbmc/src</text>
<text text-anchor="start" x="660.5" y="-396.5" font-family="Helvetica,sans-Serif" font-size="10.00">/goto&#45;instrument/contracts</text>
<text text-anchor="middle" x="748" y="-385.5" font-family="Helvetica,sans-Serif" font-size="10.00">/dynamic&#45;frames/dfcc_instrument.h</text>
</a>
</g>
</g>
<!-- Node1&#45;&gt;Node21 -->
<g id="edge21" class="edge">
<title>Node1&#45;&gt;Node21</title>
<path fill="none" stroke="midnightblue" d="M1655.29,-485.07C1471.51,-468.95 1037.23,-430.87 843.82,-413.9"/>
<polygon fill="midnightblue" stroke="midnightblue" points="1655.17,-488.57 1665.44,-485.96 1655.78,-481.6 1655.17,-488.57"/>
</g>
<!-- Node3 -->
<g id="node3" class="node">
<title>Node3</title>
<g id="a_node3"><a xlink:href="contracts_8cpp.html" target="_top" xlink:title="Verify and use annotated loop and function contracts.">
<polygon fill="none" stroke="black" points="2653.5,-284 2653.5,-336 2802.5,-336 2802.5,-284 2653.5,-284"/>
<text text-anchor="start" x="2661.5" y="-324" font-family="Helvetica,sans-Serif" font-size="10.00">/home/runner/work/diffblue</text>
<text text-anchor="start" x="2661.5" y="-313" font-family="Helvetica,sans-Serif" font-size="10.00">&#45;cbmc/diffblue&#45;cbmc/src</text>
<text text-anchor="start" x="2661.5" y="-302" font-family="Helvetica,sans-Serif" font-size="10.00">/goto&#45;instrument/contracts</text>
<text text-anchor="middle" x="2728" y="-291" font-family="Helvetica,sans-Serif" font-size="10.00">/contracts.cpp</text>
</a>
</g>
</g>
<!-- Node2&#45;&gt;Node3 -->
<g id="edge2" class="edge">
<title>Node2&#45;&gt;Node3</title>
<path fill="none" stroke="midnightblue" d="M2760.15,-369.31C2754.11,-358.36 2747.54,-346.44 2741.92,-336.25"/>
<polygon fill="midnightblue" stroke="midnightblue" points="2757.17,-371.16 2765.06,-378.22 2763.3,-367.78 2757.17,-371.16"/>
</g>
<!-- Node4 -->
<g id="node4" class="node">
<title>Node4</title>
<g id="a_node4"><a xlink:href="goto__instrument__parse__options_8h.html" target="_top" xlink:title="Command Line Parsing.">
<polygon fill="none" stroke="black" points="1740,-89.5 1740,-141.5 1922,-141.5 1922,-89.5 1740,-89.5"/>
<text text-anchor="start" x="1748" y="-129.5" font-family="Helvetica,sans-Serif" font-size="10.00">/home/runner/work/diffblue</text>
<text text-anchor="start" x="1748" y="-118.5" font-family="Helvetica,sans-Serif" font-size="10.00">&#45;cbmc/diffblue&#45;cbmc/src</text>
<text text-anchor="start" x="1748" y="-107.5" font-family="Helvetica,sans-Serif" font-size="10.00">/goto&#45;instrument/goto_instrument</text>
<text text-anchor="middle" x="1831" y="-96.5" font-family="Helvetica,sans-Serif" font-size="10.00">_parse_options.h</text>
</a>
</g>
</g>
<!-- Node2&#45;&gt;Node4 -->
<g id="edge3" class="edge">
<title>Node2&#45;&gt;Node4</title>
<path fill="none" stroke="midnightblue" d="M2863.86,-396.24C2936.51,-388.06 3033.06,-371.82 3057,-342 3074.81,-319.82 3070.96,-302.78 3057,-278 3014.92,-203.29 2973.89,-203.45 2892,-178 2712.28,-122.13 2145.24,-116.25 1922.3,-116.17"/>
<polygon fill="midnightblue" stroke="midnightblue" points="2863.34,-392.78 2853.78,-397.34 2864.1,-399.73 2863.34,-392.78"/>
</g>
<!-- Node8 -->
<g id="node8" class="node">
<title>Node8</title>
<g id="a_node8"><a xlink:href="cegis__verifier_8cpp.html" target="_top" xlink:title="Verifier for Counterexample&#45;Guided Synthesis.">
<polygon fill="none" stroke="black" points="2858.5,-289.5 2858.5,-330.5 3047.5,-330.5 3047.5,-289.5 2858.5,-289.5"/>
<text text-anchor="start" x="2866.5" y="-318.5" font-family="Helvetica,sans-Serif" font-size="10.00">/home/runner/work/diffblue</text>
<text text-anchor="start" x="2866.5" y="-307.5" font-family="Helvetica,sans-Serif" font-size="10.00">&#45;cbmc/diffblue&#45;cbmc/src</text>
<text text-anchor="middle" x="2953" y="-296.5" font-family="Helvetica,sans-Serif" font-size="10.00">/goto&#45;synthesizer/cegis_verifier.cpp</text>
</a>
</g>
</g>
<!-- Node2&#45;&gt;Node8 -->
<g id="edge7" class="edge">
<title>Node2&#45;&gt;Node8</title>
<path fill="none" stroke="midnightblue" d="M2835.26,-373.59C2861.75,-359.51 2892.6,-343.11 2916.08,-330.63"/>
<polygon fill="midnightblue" stroke="midnightblue" points="2833.27,-370.68 2826.09,-378.47 2836.56,-376.86 2833.27,-370.68"/>
</g>
<!-- Node9 -->
<g id="node9" class="node">
<title>Node9</title>
<g id="a_node9"><a xlink:href="goto__synthesizer__parse__options_8cpp.html" target="_top" xlink:title="Main Module.">
<polygon fill="none" stroke="black" points="2695,-184 2695,-236 2883,-236 2883,-184 2695,-184"/>
<text text-anchor="start" x="2703" y="-224" font-family="Helvetica,sans-Serif" font-size="10.00">/home/runner/work/diffblue</text>
<text text-anchor="start" x="2703" y="-213" font-family="Helvetica,sans-Serif" font-size="10.00">&#45;cbmc/diffblue&#45;cbmc/src</text>
<text text-anchor="start" x="2703" y="-202" font-family="Helvetica,sans-Serif" font-size="10.00">/goto&#45;synthesizer/goto_synthesizer</text>
<text text-anchor="middle" x="2789" y="-191" font-family="Helvetica,sans-Serif" font-size="10.00">_parse_options.cpp</text>
</a>
</g>
</g>
<!-- Node2&#45;&gt;Node9 -->
<g id="edge8" class="edge">
<title>Node2&#45;&gt;Node9</title>
<path fill="none" stroke="midnightblue" d="M2801.11,-369.37C2805.6,-360.77 2809.66,-351.32 2812,-342 2818.93,-314.41 2816.68,-306.06 2812,-278 2809.63,-263.81 2804.62,-248.59 2799.88,-236.26"/>
<polygon fill="midnightblue" stroke="midnightblue" points="2797.93,-367.89 2796.14,-378.33 2804.05,-371.29 2797.93,-367.89"/>
</g>
<!-- Node10 -->
<g id="node10" class="node">
<title>Node10</title>
<g id="a_node10"><a xlink:href="goto__synthesizer__parse__options_8h.html" target="_top" xlink:title="Command Line Parsing.">
<polygon fill="none" stroke="black" points="2447,-284 2447,-336 2635,-336 2635,-284 2447,-284"/>
<text text-anchor="start" x="2455" y="-324" font-family="Helvetica,sans-Serif" font-size="10.00">/home/runner/work/diffblue</text>
<text text-anchor="start" x="2455" y="-313" font-family="Helvetica,sans-Serif" font-size="10.00">&#45;cbmc/diffblue&#45;cbmc/src</text>
<text text-anchor="start" x="2455" y="-302" font-family="Helvetica,sans-Serif" font-size="10.00">/goto&#45;synthesizer/goto_synthesizer</text>
<text text-anchor="middle" x="2541" y="-291" font-family="Helvetica,sans-Serif" font-size="10.00">_parse_options.h</text>
</a>
</g>
</g>
<!-- Node2&#45;&gt;Node10 -->
<g id="edge9" class="edge">
<title>Node2&#45;&gt;Node10</title>
<path fill="none" stroke="midnightblue" d="M2704.88,-374.69C2673.03,-362.32 2636.16,-347.98 2605.46,-336.05"/>
<polygon fill="midnightblue" stroke="midnightblue" points="2704.01,-378.11 2714.59,-378.47 2706.54,-371.58 2704.01,-378.11"/>
</g>
<!-- Node5 -->
<g id="node5" class="node">
<title>Node5</title>
<g id="a_node5"><a xlink:href="goto__instrument__languages_8cpp.html" target="_top" xlink:title="Language Registration.">
<polygon fill="none" stroke="black" points="1540,-0.5 1540,-52.5 1722,-52.5 1722,-0.5 1540,-0.5"/>
<text text-anchor="start" x="1548" y="-40.5" font-family="Helvetica,sans-Serif" font-size="10.00">/home/runner/work/diffblue</text>
<text text-anchor="start" x="1548" y="-29.5" font-family="Helvetica,sans-Serif" font-size="10.00">&#45;cbmc/diffblue&#45;cbmc/src</text>
<text text-anchor="start" x="1548" y="-18.5" font-family="Helvetica,sans-Serif" font-size="10.00">/goto&#45;instrument/goto_instrument</text>
<text text-anchor="middle" x="1631" y="-7.5" font-family="Helvetica,sans-Serif" font-size="10.00">_languages.cpp</text>
</a>
</g>
</g>
<!-- Node4&#45;&gt;Node5 -->
<g id="edge4" class="edge">
<title>Node4&#45;&gt;Node5</title>
<path fill="none" stroke="midnightblue" d="M1764.19,-85.44C1739.67,-74.77 1712.15,-62.8 1688.52,-52.52"/>
<polygon fill="midnightblue" stroke="midnightblue" points="1762.85,-88.67 1773.42,-89.45 1765.65,-82.25 1762.85,-88.67"/>
</g>
<!-- Node6 -->
<g id="node6" class="node">
<title>Node6</title>
<g id="a_node6"><a xlink:href="goto__instrument__main_8cpp.html" target="_top" xlink:title="Main Module.">
<polygon fill="none" stroke="black" points="1740,-0.5 1740,-52.5 1922,-52.5 1922,-0.5 1740,-0.5"/>
<text text-anchor="start" x="1748" y="-40.5" font-family="Helvetica,sans-Serif" font-size="10.00">/home/runner/work/diffblue</text>
<text text-anchor="start" x="1748" y="-29.5" font-family="Helvetica,sans-Serif" font-size="10.00">&#45;cbmc/diffblue&#45;cbmc/src</text>
<text text-anchor="start" x="1748" y="-18.5" font-family="Helvetica,sans-Serif" font-size="10.00">/goto&#45;instrument/goto_instrument</text>
<text text-anchor="middle" x="1831" y="-7.5" font-family="Helvetica,sans-Serif" font-size="10.00">_main.cpp</text>
</a>
</g>
</g>
<!-- Node4&#45;&gt;Node6 -->
<g id="edge5" class="edge">
<title>Node4&#45;&gt;Node6</title>
<path fill="none" stroke="midnightblue" d="M1831,-79.19C1831,-70.28 1831,-60.9 1831,-52.61"/>
<polygon fill="midnightblue" stroke="midnightblue" points="1827.5,-79.34 1831,-89.34 1834.5,-79.34 1827.5,-79.34"/>
</g>
<!-- Node7 -->
<g id="node7" class="node">
<title>Node7</title>
<g id="a_node7"><a xlink:href="goto__instrument__parse__options_8cpp.html" target="_top" xlink:title="Main Module.">
<polygon fill="none" stroke="black" points="1940,-0.5 1940,-52.5 2122,-52.5 2122,-0.5 1940,-0.5"/>
<text text-anchor="start" x="1948" y="-40.5" font-family="Helvetica,sans-Serif" font-size="10.00">/home/runner/work/diffblue</text>
<text text-anchor="start" x="1948" y="-29.5" font-family="Helvetica,sans-Serif" font-size="10.00">&#45;cbmc/diffblue&#45;cbmc/src</text>
<text text-anchor="start" x="1948" y="-18.5" font-family="Helvetica,sans-Serif" font-size="10.00">/goto&#45;instrument/goto_instrument</text>
<text text-anchor="middle" x="2031" y="-7.5" font-family="Helvetica,sans-Serif" font-size="10.00">_parse_options.cpp</text>
</a>
</g>
</g>
<!-- Node4&#45;&gt;Node7 -->
<g id="edge6" class="edge">
<title>Node4&#45;&gt;Node7</title>
<path fill="none" stroke="midnightblue" d="M1897.81,-85.44C1922.33,-74.77 1949.85,-62.8 1973.48,-52.52"/>
<polygon fill="midnightblue" stroke="midnightblue" points="1896.35,-82.25 1888.58,-89.45 1899.15,-88.67 1896.35,-82.25"/>
</g>
<!-- Node10&#45;&gt;Node9 -->
<g id="edge12" class="edge">
<title>Node10&#45;&gt;Node9</title>
<path fill="none" stroke="midnightblue" d="M2613.87,-280.2C2649.32,-266.2 2691.53,-249.52 2725.62,-236.04"/>
<polygon fill="midnightblue" stroke="midnightblue" points="2612.56,-276.96 2604.54,-283.89 2615.13,-283.47 2612.56,-276.96"/>
</g>
<!-- Node11 -->
<g id="node11" class="node">
<title>Node11</title>
<g id="a_node11"><a xlink:href="goto__synthesizer__languages_8cpp.html" target="_top" xlink:title="Language Registration.">
<polygon fill="none" stroke="black" points="2468,-184 2468,-236 2656,-236 2656,-184 2468,-184"/>
<text text-anchor="start" x="2476" y="-224" font-family="Helvetica,sans-Serif" font-size="10.00">/home/runner/work/diffblue</text>
<text text-anchor="start" x="2476" y="-213" font-family="Helvetica,sans-Serif" font-size="10.00">&#45;cbmc/diffblue&#45;cbmc/src</text>
<text text-anchor="start" x="2476" y="-202" font-family="Helvetica,sans-Serif" font-size="10.00">/goto&#45;synthesizer/goto_synthesizer</text>
<text text-anchor="middle" x="2562" y="-191" font-family="Helvetica,sans-Serif" font-size="10.00">_languages.cpp</text>
</a>
</g>
</g>
<!-- Node10&#45;&gt;Node11 -->
<g id="edge10" class="edge">
<title>Node10&#45;&gt;Node11</title>
<path fill="none" stroke="midnightblue" d="M2548.56,-273.7C2551.23,-261.28 2554.16,-247.57 2556.61,-236.15"/>
<polygon fill="midnightblue" stroke="midnightblue" points="2545.08,-273.25 2546.41,-283.76 2551.93,-274.72 2545.08,-273.25"/>
</g>
<!-- Node12 -->
<g id="node12" class="node">
<title>Node12</title>
<g id="a_node12"><a xlink:href="goto__synthesizer__main_8cpp.html" target="_top" xlink:title="Main Module.">
<polygon fill="none" stroke="black" points="2262,-184 2262,-236 2450,-236 2450,-184 2262,-184"/>
<text text-anchor="start" x="2270" y="-224" font-family="Helvetica,sans-Serif" font-size="10.00">/home/runner/work/diffblue</text>
<text text-anchor="start" x="2270" y="-213" font-family="Helvetica,sans-Serif" font-size="10.00">&#45;cbmc/diffblue&#45;cbmc/src</text>
<text text-anchor="start" x="2270" y="-202" font-family="Helvetica,sans-Serif" font-size="10.00">/goto&#45;synthesizer/goto_synthesizer</text>
<text text-anchor="middle" x="2356" y="-191" font-family="Helvetica,sans-Serif" font-size="10.00">_main.cpp</text>
</a>
</g>
</g>
<!-- Node10&#45;&gt;Node12 -->
<g id="edge11" class="edge">
<title>Node10&#45;&gt;Node12</title>
<path fill="none" stroke="midnightblue" d="M2484.4,-279.02C2458.5,-265.3 2428.16,-249.23 2403.48,-236.15"/>
<polygon fill="midnightblue" stroke="midnightblue" points="2482.88,-282.17 2493.36,-283.76 2486.16,-275.99 2482.88,-282.17"/>
</g>
<!-- Node14 -->
<g id="node14" class="node">
<title>Node14</title>
<g id="a_node14"><a xlink:href="dfcc__cfg__info_8cpp.html" target="_top" xlink:title=" ">
<polygon fill="none" stroke="black" points="2019,-284 2019,-336 2207,-336 2207,-284 2019,-284"/>
<text text-anchor="start" x="2027" y="-324" font-family="Helvetica,sans-Serif" font-size="10.00">/home/runner/work/diffblue</text>
<text text-anchor="start" x="2027" y="-313" font-family="Helvetica,sans-Serif" font-size="10.00">&#45;cbmc/diffblue&#45;cbmc/src</text>
<text text-anchor="start" x="2027" y="-302" font-family="Helvetica,sans-Serif" font-size="10.00">/goto&#45;instrument/contracts</text>
<text text-anchor="middle" x="2113" y="-291" font-family="Helvetica,sans-Serif" font-size="10.00">/dynamic&#45;frames/dfcc_cfg_info.cpp</text>
</a>
</g>
</g>
<!-- Node13&#45;&gt;Node14 -->
<g id="edge14" class="edge">
<title>Node13&#45;&gt;Node14</title>
<path fill="none" stroke="midnightblue" d="M1838.24,-382.65C1889.35,-371.39 1952.75,-356.8 2009,-342 2016.11,-340.13 2023.46,-338.11 2030.82,-336.03"/>
<polygon fill="midnightblue" stroke="midnightblue" points="1837.2,-379.29 1828.19,-384.85 1838.7,-386.13 1837.2,-379.29"/>
</g>
<!-- Node15 -->
<g id="node15" class="node">
<title>Node15</title>
<g id="a_node15"><a xlink:href="dfcc__instrument_8cpp.html" target="_top" xlink:title=" ">
<polygon fill="none" stroke="black" points="1036,-284 1036,-336 1238,-336 1238,-284 1036,-284"/>
<text text-anchor="start" x="1044" y="-324" font-family="Helvetica,sans-Serif" font-size="10.00">/home/runner/work/diffblue</text>
<text text-anchor="start" x="1044" y="-313" font-family="Helvetica,sans-Serif" font-size="10.00">&#45;cbmc/diffblue&#45;cbmc/src</text>
<text text-anchor="start" x="1044" y="-302" font-family="Helvetica,sans-Serif" font-size="10.00">/goto&#45;instrument/contracts</text>
<text text-anchor="middle" x="1137" y="-291" font-family="Helvetica,sans-Serif" font-size="10.00">/dynamic&#45;frames/dfcc_instrument.cpp</text>
</a>
</g>
</g>
<!-- Node13&#45;&gt;Node15 -->
<g id="edge15" class="edge">
<title>Node13&#45;&gt;Node15</title>
<path fill="none" stroke="midnightblue" d="M1641.54,-395.62C1541.52,-386.58 1382.48,-369.38 1247,-342 1238.44,-340.27 1229.58,-338.22 1220.76,-336.01"/>
<polygon fill="midnightblue" stroke="midnightblue" points="1641.36,-399.11 1651.63,-396.52 1641.99,-392.14 1641.36,-399.11"/>
</g>
<!-- Node16 -->
<g id="node16" class="node">
<title>Node16</title>
<g id="a_node16"><a xlink:href="dfcc__instrument__loop_8cpp.html" target="_top" xlink:title=" ">
<polygon fill="none" stroke="black" points="1256,-278.5 1256,-341.5 1438,-341.5 1438,-278.5 1256,-278.5"/>
<text text-anchor="start" x="1264" y="-329.5" font-family="Helvetica,sans-Serif" font-size="10.00">/home/runner/work/diffblue</text>
<text text-anchor="start" x="1264" y="-318.5" font-family="Helvetica,sans-Serif" font-size="10.00">&#45;cbmc/diffblue&#45;cbmc/src</text>
<text text-anchor="start" x="1264" y="-307.5" font-family="Helvetica,sans-Serif" font-size="10.00">/goto&#45;instrument/contracts</text>
<text text-anchor="start" x="1264" y="-296.5" font-family="Helvetica,sans-Serif" font-size="10.00">/dynamic&#45;frames/dfcc_instrument</text>
<text text-anchor="middle" x="1347" y="-285.5" font-family="Helvetica,sans-Serif" font-size="10.00">_loop.cpp</text>
</a>
</g>
</g>
<!-- Node13&#45;&gt;Node16 -->
<g id="edge16" class="edge">
<title>Node13&#45;&gt;Node16</title>
<path fill="none" stroke="midnightblue" d="M1641.88,-385.29C1584.72,-374.09 1511.43,-358.71 1447,-342 1444.1,-341.25 1441.15,-340.46 1438.18,-339.65"/>
<polygon fill="midnightblue" stroke="midnightblue" points="1641.51,-388.79 1652,-387.26 1642.85,-381.92 1641.51,-388.79"/>
</g>
<!-- Node17 -->
<g id="node17" class="node">
<title>Node17</title>
<g id="a_node17"><a xlink:href="dfcc__is__freeable_8cpp.html" target="_top" xlink:title=" ">
<polygon fill="none" stroke="black" points="2225.5,-284 2225.5,-336 2428.5,-336 2428.5,-284 2225.5,-284"/>
<text text-anchor="start" x="2233.5" y="-324" font-family="Helvetica,sans-Serif" font-size="10.00">/home/runner/work/diffblue</text>
<text text-anchor="start" x="2233.5" y="-313" font-family="Helvetica,sans-Serif" font-size="10.00">&#45;cbmc/diffblue&#45;cbmc/src</text>
<text text-anchor="start" x="2233.5" y="-302" font-family="Helvetica,sans-Serif" font-size="10.00">/goto&#45;instrument/contracts</text>
<text text-anchor="middle" x="2327" y="-291" font-family="Helvetica,sans-Serif" font-size="10.00">/dynamic&#45;frames/dfcc_is_freeable.cpp</text>
</a>
</g>
</g>
<!-- Node13&#45;&gt;Node17 -->
<g id="edge17" class="edge">
<title>Node13&#45;&gt;Node17</title>
<path fill="none" stroke="midnightblue" d="M1838.41,-394.96C1935.15,-385.58 2086.66,-368.27 2216,-342 2224.53,-340.27 2233.37,-338.23 2242.16,-336.04"/>
<polygon fill="midnightblue" stroke="midnightblue" points="1837.97,-391.48 1828.35,-395.92 1838.64,-398.45 1837.97,-391.48"/>
</g>
<!-- Node18 -->
<g id="node18" class="node">
<title>Node18</title>
<g id="a_node18"><a xlink:href="dfcc__is__fresh_8cpp.html" target="_top" xlink:title=" ">
<polygon fill="none" stroke="black" points="1456.5,-284 1456.5,-336 1643.5,-336 1643.5,-284 1456.5,-284"/>
<text text-anchor="start" x="1464.5" y="-324" font-family="Helvetica,sans-Serif" font-size="10.00">/home/runner/work/diffblue</text>
<text text-anchor="start" x="1464.5" y="-313" font-family="Helvetica,sans-Serif" font-size="10.00">&#45;cbmc/diffblue&#45;cbmc/src</text>
<text text-anchor="start" x="1464.5" y="-302" font-family="Helvetica,sans-Serif" font-size="10.00">/goto&#45;instrument/contracts</text>
<text text-anchor="middle" x="1550" y="-291" font-family="Helvetica,sans-Serif" font-size="10.00">/dynamic&#45;frames/dfcc_is_fresh.cpp</text>
</a>
</g>
</g>
<!-- Node13&#45;&gt;Node18 -->
<g id="edge18" class="edge">
<title>Node13&#45;&gt;Node18</title>
<path fill="none" stroke="midnightblue" d="M1679.51,-374.05C1654.39,-361.82 1625.54,-347.78 1601.46,-336.05"/>
<polygon fill="midnightblue" stroke="midnightblue" points="1678.06,-377.24 1688.58,-378.47 1681.12,-370.94 1678.06,-377.24"/>
</g>
<!-- Node19 -->
<g id="node19" class="node">
<title>Node19</title>
<g id="a_node19"><a xlink:href="dfcc__obeys__contract_8cpp.html" target="_top" xlink:title=" ">
<polygon fill="none" stroke="black" points="1661,-278.5 1661,-341.5 1819,-341.5 1819,-278.5 1661,-278.5"/>
<text text-anchor="start" x="1669" y="-329.5" font-family="Helvetica,sans-Serif" font-size="10.00">/home/runner/work/diffblue</text>
<text text-anchor="start" x="1669" y="-318.5" font-family="Helvetica,sans-Serif" font-size="10.00">&#45;cbmc/diffblue&#45;cbmc/src</text>
<text text-anchor="start" x="1669" y="-307.5" font-family="Helvetica,sans-Serif" font-size="10.00">/goto&#45;instrument/contracts</text>
<text text-anchor="start" x="1669" y="-296.5" font-family="Helvetica,sans-Serif" font-size="10.00">/dynamic&#45;frames/dfcc_obeys</text>
<text text-anchor="middle" x="1740" y="-285.5" font-family="Helvetica,sans-Serif" font-size="10.00">_contract.cpp</text>
</a>
</g>
</g>
<!-- Node13&#45;&gt;Node19 -->
<g id="edge19" class="edge">
<title>Node13&#45;&gt;Node19</title>
<path fill="none" stroke="midnightblue" d="M1740,-367.94C1740,-359.23 1740,-349.97 1740,-341.51"/>
<polygon fill="midnightblue" stroke="midnightblue" points="1736.5,-368.22 1740,-378.22 1743.5,-368.22 1736.5,-368.22"/>
</g>
<!-- Node20 -->
<g id="node20" class="node">
<title>Node20</title>
<g id="a_node20"><a xlink:href="dfcc__pointer__in__range_8cpp.html" target="_top" xlink:title=" ">
<polygon fill="none" stroke="black" points="1837.5,-278.5 1837.5,-341.5 2000.5,-341.5 2000.5,-278.5 1837.5,-278.5"/>
<text text-anchor="start" x="1845.5" y="-329.5" font-family="Helvetica,sans-Serif" font-size="10.00">/home/runner/work/diffblue</text>
<text text-anchor="start" x="1845.5" y="-318.5" font-family="Helvetica,sans-Serif" font-size="10.00">&#45;cbmc/diffblue&#45;cbmc/src</text>
<text text-anchor="start" x="1845.5" y="-307.5" font-family="Helvetica,sans-Serif" font-size="10.00">/goto&#45;instrument/contracts</text>
<text text-anchor="start" x="1845.5" y="-296.5" font-family="Helvetica,sans-Serif" font-size="10.00">/dynamic&#45;frames/dfcc_pointer</text>
<text text-anchor="middle" x="1919" y="-285.5" font-family="Helvetica,sans-Serif" font-size="10.00">_in_range.cpp</text>
</a>
</g>
</g>
<!-- Node13&#45;&gt;Node20 -->
<g id="edge20" class="edge">
<title>Node13&#45;&gt;Node20</title>
<path fill="none" stroke="midnightblue" d="M1797.39,-373.84C1817.28,-363.56 1839.62,-352.02 1859.66,-341.66"/>
<polygon fill="midnightblue" stroke="midnightblue" points="1795.72,-370.77 1788.44,-378.47 1798.93,-376.99 1795.72,-370.77"/>
</g>
<!-- Node21&#45;&gt;Node15 -->
<g id="edge27" class="edge">
<title>Node21&#45;&gt;Node15</title>
<path fill="none" stroke="midnightblue" d="M853.52,-381.74C905.86,-370.57 969.94,-356.32 1027,-342 1034.51,-340.12 1042.28,-338.09 1050.06,-336"/>
<polygon fill="midnightblue" stroke="midnightblue" points="852.61,-378.36 843.55,-383.86 854.06,-385.21 852.61,-378.36"/>
</g>
<!-- Node21&#45;&gt;Node16 -->
<g id="edge28" class="edge">
<title>Node21&#45;&gt;Node16</title>
<path fill="none" stroke="midnightblue" d="M853.84,-395.95C955.48,-387.42 1112.93,-370.8 1247,-342 1249.93,-341.37 1252.9,-340.69 1255.89,-339.98"/>
<polygon fill="midnightblue" stroke="midnightblue" points="853.25,-392.49 843.57,-396.8 853.83,-399.47 853.25,-392.49"/>
</g>
<!-- Node22 -->
<g id="node22" class="node">
<title>Node22</title>
<g id="a_node22"><a xlink:href="dfcc_8h.html" target="_top" xlink:title="Main class orchestrating the the whole program transformation for function contracts with Dynamic Fra...">
<polygon fill="none" stroke="black" points="395.5,-184 395.5,-236 544.5,-236 544.5,-184 395.5,-184"/>
<text text-anchor="start" x="403.5" y="-224" font-family="Helvetica,sans-Serif" font-size="10.00">/home/runner/work/diffblue</text>
<text text-anchor="start" x="403.5" y="-213" font-family="Helvetica,sans-Serif" font-size="10.00">&#45;cbmc/diffblue&#45;cbmc/src</text>
<text text-anchor="start" x="403.5" y="-202" font-family="Helvetica,sans-Serif" font-size="10.00">/goto&#45;instrument/contracts</text>
<text text-anchor="middle" x="470" y="-191" font-family="Helvetica,sans-Serif" font-size="10.00">/dynamic&#45;frames/dfcc.h</text>
</a>
</g>
</g>
<!-- Node21&#45;&gt;Node22 -->
<g id="edge22" class="edge">
<title>Node21&#45;&gt;Node22</title>
<path fill="none" stroke="midnightblue" d="M641.92,-397.87C557.42,-390.91 448.82,-375.54 421,-342 395.11,-310.79 423.85,-264.55 446.96,-236.17"/>
<polygon fill="midnightblue" stroke="midnightblue" points="641.86,-401.38 652.1,-398.68 642.41,-394.4 641.86,-401.38"/>
</g>
<!-- Node24 -->
<g id="node24" class="node">
<title>Node24</title>
<g id="a_node24"><a xlink:href="dfcc__contract__functions_8cpp.html" target="_top" xlink:title=" ">
<polygon fill="none" stroke="black" points="664,-278.5 664,-341.5 832,-341.5 832,-278.5 664,-278.5"/>
<text text-anchor="start" x="672" y="-329.5" font-family="Helvetica,sans-Serif" font-size="10.00">/home/runner/work/diffblue</text>
<text text-anchor="start" x="672" y="-318.5" font-family="Helvetica,sans-Serif" font-size="10.00">&#45;cbmc/diffblue&#45;cbmc/src</text>
<text text-anchor="start" x="672" y="-307.5" font-family="Helvetica,sans-Serif" font-size="10.00">/goto&#45;instrument/contracts</text>
<text text-anchor="start" x="672" y="-296.5" font-family="Helvetica,sans-Serif" font-size="10.00">/dynamic&#45;frames/dfcc_contract</text>
<text text-anchor="middle" x="748" y="-285.5" font-family="Helvetica,sans-Serif" font-size="10.00">_functions.cpp</text>
</a>
</g>
</g>
<!-- Node21&#45;&gt;Node24 -->
<g id="edge25" class="edge">
<title>Node21&#45;&gt;Node24</title>
<path fill="none" stroke="midnightblue" d="M748,-367.94C748,-359.23 748,-349.97 748,-341.51"/>
<polygon fill="midnightblue" stroke="midnightblue" points="744.5,-368.22 748,-378.22 751.5,-368.22 744.5,-368.22"/>
</g>
<!-- Node25 -->
<g id="node25" class="node">
<title>Node25</title>
<g id="a_node25"><a xlink:href="dfcc__contract__handler_8cpp.html" target="_top" xlink:title=" ">
<polygon fill="none" stroke="black" points="850,-278.5 850,-341.5 1018,-341.5 1018,-278.5 850,-278.5"/>
<text text-anchor="start" x="858" y="-329.5" font-family="Helvetica,sans-Serif" font-size="10.00">/home/runner/work/diffblue</text>
<text text-anchor="start" x="858" y="-318.5" font-family="Helvetica,sans-Serif" font-size="10.00">&#45;cbmc/diffblue&#45;cbmc/src</text>
<text text-anchor="start" x="858" y="-307.5" font-family="Helvetica,sans-Serif" font-size="10.00">/goto&#45;instrument/contracts</text>
<text text-anchor="start" x="858" y="-296.5" font-family="Helvetica,sans-Serif" font-size="10.00">/dynamic&#45;frames/dfcc_contract</text>
<text text-anchor="middle" x="934" y="-285.5" font-family="Helvetica,sans-Serif" font-size="10.00">_handler.cpp</text>
</a>
</g>
</g>
<!-- Node21&#45;&gt;Node25 -->
<g id="edge26" class="edge">
<title>Node21&#45;&gt;Node25</title>
<path fill="none" stroke="midnightblue" d="M807.36,-373.98C828.1,-363.67 851.42,-352.07 872.34,-341.66"/>
<polygon fill="midnightblue" stroke="midnightblue" points="805.73,-370.88 798.33,-378.47 808.85,-377.15 805.73,-370.88"/>
</g>
<!-- Node26 -->
<g id="node26" class="node">
<title>Node26</title>
<g id="a_node26"><a xlink:href="dfcc__lift__memory__predicates_8cpp.html" target="_top" xlink:title=" ">
<polygon fill="none" stroke="black" points="0,-278.5 0,-341.5 188,-341.5 188,-278.5 0,-278.5"/>
<text text-anchor="start" x="8" y="-329.5" font-family="Helvetica,sans-Serif" font-size="10.00">/home/runner/work/diffblue</text>
<text text-anchor="start" x="8" y="-318.5" font-family="Helvetica,sans-Serif" font-size="10.00">&#45;cbmc/diffblue&#45;cbmc/src</text>
<text text-anchor="start" x="8" y="-307.5" font-family="Helvetica,sans-Serif" font-size="10.00">/goto&#45;instrument/contracts</text>
<text text-anchor="start" x="8" y="-296.5" font-family="Helvetica,sans-Serif" font-size="10.00">/dynamic&#45;frames/dfcc_lift_memory</text>
<text text-anchor="middle" x="94" y="-285.5" font-family="Helvetica,sans-Serif" font-size="10.00">_predicates.cpp</text>
</a>
</g>
</g>
<!-- Node21&#45;&gt;Node26 -->
<g id="edge29" class="edge">
<title>Node21&#45;&gt;Node26</title>
<path fill="none" stroke="midnightblue" d="M641.87,-397.38C530.25,-389.61 349.94,-373.28 197,-342 194.07,-341.4 191.11,-340.76 188.12,-340.07"/>
<polygon fill="midnightblue" stroke="midnightblue" points="641.9,-400.89 652.11,-398.08 642.38,-393.91 641.9,-400.89"/>
</g>
<!-- Node27 -->
<g id="node27" class="node">
<title>Node27</title>
<g id="a_node27"><a xlink:href="dfcc__swap__and__wrap_8h.html" target="_top" xlink:title="Given a function_id and contract_id, swaps its body to a function with a fresh mangled name,...">
<polygon fill="none" stroke="black" points="430.5,-284 430.5,-336 645.5,-336 645.5,-284 430.5,-284"/>
<text text-anchor="start" x="438.5" y="-324" font-family="Helvetica,sans-Serif" font-size="10.00">/home/runner/work/diffblue</text>
<text text-anchor="start" x="438.5" y="-313" font-family="Helvetica,sans-Serif" font-size="10.00">&#45;cbmc/diffblue&#45;cbmc/src</text>
<text text-anchor="start" x="438.5" y="-302" font-family="Helvetica,sans-Serif" font-size="10.00">/goto&#45;instrument/contracts</text>
<text text-anchor="middle" x="538" y="-291" font-family="Helvetica,sans-Serif" font-size="10.00">/dynamic&#45;frames/dfcc_swap_and_wrap.h</text>
</a>
</g>
</g>
<!-- Node21&#45;&gt;Node27 -->
<g id="edge30" class="edge">
<title>Node21&#45;&gt;Node27</title>
<path fill="none" stroke="midnightblue" d="M681.87,-374.37C653.94,-362.07 621.73,-347.88 594.87,-336.05"/>
<polygon fill="midnightblue" stroke="midnightblue" points="680.61,-377.64 691.17,-378.47 683.43,-371.23 680.61,-377.64"/>
</g>
<!-- Node29 -->
<g id="node29" class="node">
<title>Node29</title>
<g id="a_node29"><a xlink:href="dfcc__wrapper__program_8cpp.html" target="_top" xlink:title=" ">
<polygon fill="none" stroke="black" points="206,-278.5 206,-341.5 374,-341.5 374,-278.5 206,-278.5"/>
<text text-anchor="start" x="214" y="-329.5" font-family="Helvetica,sans-Serif" font-size="10.00">/home/runner/work/diffblue</text>
<text text-anchor="start" x="214" y="-318.5" font-family="Helvetica,sans-Serif" font-size="10.00">&#45;cbmc/diffblue&#45;cbmc/src</text>
<text text-anchor="start" x="214" y="-307.5" font-family="Helvetica,sans-Serif" font-size="10.00">/goto&#45;instrument/contracts</text>
<text text-anchor="start" x="214" y="-296.5" font-family="Helvetica,sans-Serif" font-size="10.00">/dynamic&#45;frames/dfcc_wrapper</text>
<text text-anchor="middle" x="290" y="-285.5" font-family="Helvetica,sans-Serif" font-size="10.00">_program.cpp</text>
</a>
</g>
</g>
<!-- Node21&#45;&gt;Node29 -->
<g id="edge33" class="edge">
<title>Node21&#45;&gt;Node29</title>
<path fill="none" stroke="midnightblue" d="M642.14,-389.32C570,-378.7 472.6,-362.5 388,-342 383.49,-340.91 378.89,-339.72 374.25,-338.46"/>
<polygon fill="midnightblue" stroke="midnightblue" points="641.75,-392.8 652.15,-390.78 642.76,-385.87 641.75,-392.8"/>
</g>
<!-- Node22&#45;&gt;Node4 -->
<g id="edge24" class="edge">
<title>Node22&#45;&gt;Node4</title>
<path fill="none" stroke="midnightblue" d="M540.4,-181.04C544.63,-179.88 548.85,-178.85 553,-178 780.1,-131.31 1486.61,-119.87 1739.67,-117.24"/>
<polygon fill="midnightblue" stroke="midnightblue" points="539.16,-177.76 530.56,-183.95 541.14,-184.47 539.16,-177.76"/>
</g>
<!-- Node23 -->
<g id="node23" class="node">
<title>Node23</title>
<g id="a_node23"><a xlink:href="dfcc_8cpp.html" target="_top" xlink:title=" ">
<polygon fill="none" stroke="black" points="395.5,-89.5 395.5,-141.5 544.5,-141.5 544.5,-89.5 395.5,-89.5"/>
<text text-anchor="start" x="403.5" y="-129.5" font-family="Helvetica,sans-Serif" font-size="10.00">/home/runner/work/diffblue</text>
<text text-anchor="start" x="403.5" y="-118.5" font-family="Helvetica,sans-Serif" font-size="10.00">&#45;cbmc/diffblue&#45;cbmc/src</text>
<text text-anchor="start" x="403.5" y="-107.5" font-family="Helvetica,sans-Serif" font-size="10.00">/goto&#45;instrument/contracts</text>
<text text-anchor="middle" x="470" y="-96.5" font-family="Helvetica,sans-Serif" font-size="10.00">/dynamic&#45;frames/dfcc.cpp</text>
</a>
</g>
</g>
<!-- Node22&#45;&gt;Node23 -->
<g id="edge23" class="edge">
<title>Node22&#45;&gt;Node23</title>
<path fill="none" stroke="midnightblue" d="M470,-173.49C470,-162.91 470,-151.53 470,-141.75"/>
<polygon fill="midnightblue" stroke="midnightblue" points="466.5,-173.72 470,-183.72 473.5,-173.72 466.5,-173.72"/>
</g>
<!-- Node27&#45;&gt;Node22 -->
<g id="edge31" class="edge">
<title>Node27&#45;&gt;Node22</title>
<path fill="none" stroke="midnightblue" d="M514.54,-275.19C505.65,-262.38 495.69,-248.03 487.45,-236.15"/>
<polygon fill="midnightblue" stroke="midnightblue" points="511.91,-277.54 520.49,-283.76 517.66,-273.55 511.91,-277.54"/>
</g>
<!-- Node28 -->
<g id="node28" class="node">
<title>Node28</title>
<g id="a_node28"><a xlink:href="dfcc__swap__and__wrap_8cpp.html" target="_top" xlink:title=" ">
<polygon fill="none" stroke="black" points="562.5,-178.5 562.5,-241.5 739.5,-241.5 739.5,-178.5 562.5,-178.5"/>
<text text-anchor="start" x="570.5" y="-229.5" font-family="Helvetica,sans-Serif" font-size="10.00">/home/runner/work/diffblue</text>
<text text-anchor="start" x="570.5" y="-218.5" font-family="Helvetica,sans-Serif" font-size="10.00">&#45;cbmc/diffblue&#45;cbmc/src</text>
<text text-anchor="start" x="570.5" y="-207.5" font-family="Helvetica,sans-Serif" font-size="10.00">/goto&#45;instrument/contracts</text>
<text text-anchor="start" x="570.5" y="-196.5" font-family="Helvetica,sans-Serif" font-size="10.00">/dynamic&#45;frames/dfcc_swap_and</text>
<text text-anchor="middle" x="651" y="-185.5" font-family="Helvetica,sans-Serif" font-size="10.00">_wrap.cpp</text>
</a>
</g>
</g>
<!-- Node27&#45;&gt;Node28 -->
<g id="edge32" class="edge">
<title>Node27&#45;&gt;Node28</title>
<path fill="none" stroke="midnightblue" d="M574.98,-276.93C588.02,-265.62 602.64,-252.94 615.54,-241.75"/>
<polygon fill="midnightblue" stroke="midnightblue" points="572.36,-274.57 567.1,-283.76 576.95,-279.85 572.36,-274.57"/>
</g>
</g>
</svg>
