<?xml version="1.0" encoding="UTF-8" standalone="no"?>
<!DOCTYPE svg PUBLIC "-//W3C//DTD SVG 1.1//EN"
 "http://www.w3.org/Graphics/SVG/1.1/DTD/svg11.dtd">
<!-- Generated by graphviz version 2.43.0 (0)
 -->
<!-- Title: /home/runner/work/diffblue&#45;cbmc/diffblue&#45;cbmc/src/goto&#45;symex/memory_model.h Pages: 1 -->
<svg width="576pt" height="384pt"
 viewBox="0.00 0.00 575.50 384.00" xmlns="http://www.w3.org/2000/svg" xmlns:xlink="http://www.w3.org/1999/xlink">
<g id="graph0" class="graph" transform="scale(1 1) rotate(0) translate(4 380)">
<title>/home/runner/work/diffblue&#45;cbmc/diffblue&#45;cbmc/src/goto&#45;symex/memory_model.h</title>
<!-- Node1 -->
<g id="node1" class="node">
<title>Node1</title>
<g id="a_node1"><a xlink:title="Memory models for partial order concurrency.">
<polygon fill="#bfbfbf" stroke="black" points="105,-334.5 105,-375.5 272,-375.5 272,-334.5 105,-334.5"/>
<text text-anchor="start" x="113" y="-363.5" font-family="Helvetica,sans-Serif" font-size="10.00">/home/runner/work/diffblue</text>
<text text-anchor="start" x="113" y="-352.5" font-family="Helvetica,sans-Serif" font-size="10.00">&#45;cbmc/diffblue&#45;cbmc/src</text>
<text text-anchor="middle" x="188.5" y="-341.5" font-family="Helvetica,sans-Serif" font-size="10.00">/goto&#45;symex/memory_model.h</text>
</a>
</g>
</g>
<!-- Node2 -->
<g id="node2" class="node">
<title>Node2</title>
<g id="a_node2"><a xlink:href="memory__model_8cpp.html" target="_top" xlink:title="Memory model for partial order concurrency.">
<polygon fill="none" stroke="black" points="0,-256.5 0,-297.5 179,-297.5 179,-256.5 0,-256.5"/>
<text text-anchor="start" x="8" y="-285.5" font-family="Helvetica,sans-Serif" font-size="10.00">/home/runner/work/diffblue</text>
<text text-anchor="start" x="8" y="-274.5" font-family="Helvetica,sans-Serif" font-size="10.00">&#45;cbmc/diffblue&#45;cbmc/src</text>
<text text-anchor="middle" x="89.5" y="-263.5" font-family="Helvetica,sans-Serif" font-size="10.00">/goto&#45;symex/memory_model.cpp</text>
</a>
</g>
</g>
<!-- Node1&#45;&gt;Node2 -->
<g id="edge1" class="edge">
<title>Node1&#45;&gt;Node2</title>
<path fill="none" stroke="midnightblue" d="M154.72,-328.06C141.68,-318.06 127.02,-306.8 114.91,-297.51"/>
<polygon fill="midnightblue" stroke="midnightblue" points="152.94,-331.11 163.01,-334.43 157.2,-325.56 152.94,-331.11"/>
</g>
<!-- Node3 -->
<g id="node3" class="node">
<title>Node3</title>
<g id="a_node3"><a xlink:href="memory__model__sc_8h.html" target="_top" xlink:title="Memory models for partial order concurrency.">
<polygon fill="none" stroke="black" points="197,-256.5 197,-297.5 380,-297.5 380,-256.5 197,-256.5"/>
<text text-anchor="start" x="205" y="-285.5" font-family="Helvetica,sans-Serif" font-size="10.00">/home/runner/work/diffblue</text>
<text text-anchor="start" x="205" y="-274.5" font-family="Helvetica,sans-Serif" font-size="10.00">&#45;cbmc/diffblue&#45;cbmc/src</text>
<text text-anchor="middle" x="288.5" y="-263.5" font-family="Helvetica,sans-Serif" font-size="10.00">/goto&#45;symex/memory_model_sc.h</text>
</a>
</g>
</g>
<!-- Node1&#45;&gt;Node3 -->
<g id="edge2" class="edge">
<title>Node1&#45;&gt;Node3</title>
<path fill="none" stroke="midnightblue" d="M222.25,-328.35C235.51,-318.27 250.48,-306.89 262.83,-297.51"/>
<polygon fill="midnightblue" stroke="midnightblue" points="220.1,-325.59 214.25,-334.43 224.33,-331.16 220.1,-325.59"/>
</g>
<!-- Node4 -->
<g id="node4" class="node">
<title>Node4</title>
<g id="a_node4"><a xlink:href="memory__model__sc_8cpp.html" target="_top" xlink:title="Memory model for partial order concurrency.">
<polygon fill="none" stroke="black" points="86.5,-178.5 86.5,-219.5 280.5,-219.5 280.5,-178.5 86.5,-178.5"/>
<text text-anchor="start" x="94.5" y="-207.5" font-family="Helvetica,sans-Serif" font-size="10.00">/home/runner/work/diffblue</text>
<text text-anchor="start" x="94.5" y="-196.5" font-family="Helvetica,sans-Serif" font-size="10.00">&#45;cbmc/diffblue&#45;cbmc/src</text>
<text text-anchor="middle" x="183.5" y="-185.5" font-family="Helvetica,sans-Serif" font-size="10.00">/goto&#45;symex/memory_model_sc.cpp</text>
</a>
</g>
</g>
<!-- Node3&#45;&gt;Node4 -->
<g id="edge3" class="edge">
<title>Node3&#45;&gt;Node4</title>
<path fill="none" stroke="midnightblue" d="M253.06,-250.35C239.14,-240.27 223.42,-228.89 210.45,-219.51"/>
<polygon fill="midnightblue" stroke="midnightblue" points="251.31,-253.4 261.46,-256.43 255.41,-247.73 251.31,-253.4"/>
</g>
<!-- Node5 -->
<g id="node5" class="node">
<title>Node5</title>
<g id="a_node5"><a xlink:href="memory__model__tso_8h.html" target="_top" xlink:title="Memory models for partial order concurrency.">
<polygon fill="none" stroke="black" points="298.5,-178.5 298.5,-219.5 486.5,-219.5 486.5,-178.5 298.5,-178.5"/>
<text text-anchor="start" x="306.5" y="-207.5" font-family="Helvetica,sans-Serif" font-size="10.00">/home/runner/work/diffblue</text>
<text text-anchor="start" x="306.5" y="-196.5" font-family="Helvetica,sans-Serif" font-size="10.00">&#45;cbmc/diffblue&#45;cbmc/src</text>
<text text-anchor="middle" x="392.5" y="-185.5" font-family="Helvetica,sans-Serif" font-size="10.00">/goto&#45;symex/memory_model_tso.h</text>
</a>
</g>
</g>
<!-- Node3&#45;&gt;Node5 -->
<g id="edge4" class="edge">
<title>Node3&#45;&gt;Node5</title>
<path fill="none" stroke="midnightblue" d="M323.6,-250.35C337.39,-240.27 352.96,-228.89 365.81,-219.51"/>
<polygon fill="midnightblue" stroke="midnightblue" points="321.29,-247.7 315.28,-256.43 325.42,-253.35 321.29,-247.7"/>
</g>
<!-- Node6 -->
<g id="node6" class="node">
<title>Node6</title>
<g id="a_node6"><a xlink:href="memory__model__pso_8h.html" target="_top" xlink:title="Memory models for partial order concurrency.">
<polygon fill="none" stroke="black" points="201.5,-95 201.5,-136 391.5,-136 391.5,-95 201.5,-95"/>
<text text-anchor="start" x="209.5" y="-124" font-family="Helvetica,sans-Serif" font-size="10.00">/home/runner/work/diffblue</text>
<text text-anchor="start" x="209.5" y="-113" font-family="Helvetica,sans-Serif" font-size="10.00">&#45;cbmc/diffblue&#45;cbmc/src</text>
<text text-anchor="middle" x="296.5" y="-102" font-family="Helvetica,sans-Serif" font-size="10.00">/goto&#45;symex/memory_model_pso.h</text>
</a>
</g>
</g>
<!-- Node5&#45;&gt;Node6 -->
<g id="edge5" class="edge">
<title>Node5&#45;&gt;Node6</title>
<path fill="none" stroke="midnightblue" d="M361.51,-171.69C347.86,-160.1 332.11,-146.73 319.52,-136.05"/>
<polygon fill="midnightblue" stroke="midnightblue" points="359.37,-174.47 369.26,-178.27 363.9,-169.13 359.37,-174.47"/>
</g>
<!-- Node9 -->
<g id="node9" class="node">
<title>Node9</title>
<g id="a_node9"><a xlink:href="memory__model__tso_8cpp.html" target="_top" xlink:title="Memory model for partial order concurrency.">
<polygon fill="none" stroke="black" points="409.5,-89.5 409.5,-141.5 567.5,-141.5 567.5,-89.5 409.5,-89.5"/>
<text text-anchor="start" x="417.5" y="-129.5" font-family="Helvetica,sans-Serif" font-size="10.00">/home/runner/work/diffblue</text>
<text text-anchor="start" x="417.5" y="-118.5" font-family="Helvetica,sans-Serif" font-size="10.00">&#45;cbmc/diffblue&#45;cbmc/src</text>
<text text-anchor="start" x="417.5" y="-107.5" font-family="Helvetica,sans-Serif" font-size="10.00">/goto&#45;symex/memory_model</text>
<text text-anchor="middle" x="488.5" y="-96.5" font-family="Helvetica,sans-Serif" font-size="10.00">_tso.cpp</text>
</a>
</g>
</g>
<!-- Node5&#45;&gt;Node9 -->
<g id="edge8" class="edge">
<title>Node5&#45;&gt;Node9</title>
<path fill="none" stroke="midnightblue" d="M423.69,-171.52C435,-161.92 447.75,-151.09 458.93,-141.61"/>
<polygon fill="midnightblue" stroke="midnightblue" points="421.1,-169.13 415.74,-178.27 425.63,-174.47 421.1,-169.13"/>
</g>
<!-- Node7 -->
<g id="node7" class="node">
<title>Node7</title>
<g id="a_node7"><a xlink:href="bmc__util_8cpp.html" target="_top" xlink:title="Bounded Model Checking Utilities.">
<polygon fill="none" stroke="black" points="137,-6 137,-47 286,-47 286,-6 137,-6"/>
<text text-anchor="start" x="145" y="-35" font-family="Helvetica,sans-Serif" font-size="10.00">/home/runner/work/diffblue</text>
<text text-anchor="start" x="145" y="-24" font-family="Helvetica,sans-Serif" font-size="10.00">&#45;cbmc/diffblue&#45;cbmc/src</text>
<text text-anchor="middle" x="211.5" y="-13" font-family="Helvetica,sans-Serif" font-size="10.00">/goto&#45;checker/bmc_util.cpp</text>
</a>
</g>
</g>
<!-- Node6&#45;&gt;Node7 -->
<g id="edge6" class="edge">
<title>Node6&#45;&gt;Node7</title>
<path fill="none" stroke="midnightblue" d="M270.02,-87.4C257.3,-74.37 242.33,-59.05 230.71,-47.16"/>
<polygon fill="midnightblue" stroke="midnightblue" points="267.72,-90.05 277.21,-94.76 272.73,-85.16 267.72,-90.05"/>
</g>
<!-- Node8 -->
<g id="node8" class="node">
<title>Node8</title>
<g id="a_node8"><a xlink:href="memory__model__pso_8cpp.html" target="_top" xlink:title="Memory model for partial order concurrency.">
<polygon fill="none" stroke="black" points="303.5,-0.5 303.5,-52.5 461.5,-52.5 461.5,-0.5 303.5,-0.5"/>
<text text-anchor="start" x="311.5" y="-40.5" font-family="Helvetica,sans-Serif" font-size="10.00">/home/runner/work/diffblue</text>
<text text-anchor="start" x="311.5" y="-29.5" font-family="Helvetica,sans-Serif" font-size="10.00">&#45;cbmc/diffblue&#45;cbmc/src</text>
<text text-anchor="start" x="311.5" y="-18.5" font-family="Helvetica,sans-Serif" font-size="10.00">/goto&#45;symex/memory_model</text>
<text text-anchor="middle" x="382.5" y="-7.5" font-family="Helvetica,sans-Serif" font-size="10.00">_pso.cpp</text>
</a>
</g>
</g>
<!-- Node6&#45;&gt;Node8 -->
<g id="edge7" class="edge">
<title>Node6&#45;&gt;Node8</title>
<path fill="none" stroke="midnightblue" d="M323.27,-87.41C334.2,-76.36 346.77,-63.65 357.5,-52.79"/>
<polygon fill="midnightblue" stroke="midnightblue" points="320.56,-85.19 316.01,-94.76 325.53,-90.11 320.56,-85.19"/>
</g>
</g>
</svg>
