<?xml version="1.0" encoding="UTF-8" standalone="no"?>
<!DOCTYPE svg PUBLIC "-//W3C//DTD SVG 1.1//EN"
 "http://www.w3.org/Graphics/SVG/1.1/DTD/svg11.dtd">
<!-- Generated by graphviz version 2.43.0 (0)
 -->
<!-- Title: /home/runner/work/diffblue&#45;cbmc/diffblue&#45;cbmc/src/goto&#45;symex/memory_model_pso.cpp Pages: 1 -->
<svg width="166pt" height="397pt"
 viewBox="0.00 0.00 166.00 397.00" xmlns="http://www.w3.org/2000/svg" xmlns:xlink="http://www.w3.org/1999/xlink">
<g id="graph0" class="graph" transform="scale(1 1) rotate(0) translate(4 393)">
<title>/home/runner/work/diffblue&#45;cbmc/diffblue&#45;cbmc/src/goto&#45;symex/memory_model_pso.cpp</title>
<!-- Node1 -->
<g id="node1" class="node">
<title>Node1</title>
<g id="a_node1"><a xlink:title="Memory model for partial order concurrency.">
<polygon fill="#bfbfbf" stroke="black" points="0,-336.5 0,-388.5 158,-388.5 158,-336.5 0,-336.5"/>
<text text-anchor="start" x="8" y="-376.5" font-family="Helvetica,sans-Serif" font-size="10.00">/home/runner/work/diffblue</text>
<text text-anchor="start" x="8" y="-365.5" font-family="Helvetica,sans-Serif" font-size="10.00">&#45;cbmc/diffblue&#45;cbmc/src</text>
<text text-anchor="start" x="8" y="-354.5" font-family="Helvetica,sans-Serif" font-size="10.00">/goto&#45;symex/memory_model</text>
<text text-anchor="middle" x="79" y="-343.5" font-family="Helvetica,sans-Serif" font-size="10.00">_pso.cpp</text>
</a>
</g>
</g>
<!-- Node2 -->
<g id="node2" class="node">
<title>Node2</title>
<g id="a_node2"><a xlink:href="memory__model__pso_8h.html" target="_top" xlink:title="Memory models for partial order concurrency.">
<polygon fill="none" stroke="black" points="16.5,-280.5 16.5,-299.5 141.5,-299.5 141.5,-280.5 16.5,-280.5"/>
<text text-anchor="middle" x="79" y="-287.5" font-family="Helvetica,sans-Serif" font-size="10.00">memory_model_pso.h</text>
</a>
</g>
</g>
<!-- Node1&#45;&gt;Node2 -->
<g id="edge1" class="edge">
<title>Node1&#45;&gt;Node2</title>
<path fill="none" stroke="midnightblue" d="M79,-336.45C79,-327.73 79,-318.1 79,-309.96"/>
<polygon fill="midnightblue" stroke="midnightblue" points="82.5,-309.7 79,-299.7 75.5,-309.7 82.5,-309.7"/>
</g>
<!-- Node3 -->
<g id="node3" class="node">
<title>Node3</title>
<g id="a_node3"><a xlink:href="memory__model__tso_8h.html" target="_top" xlink:title="Memory models for partial order concurrency.">
<polygon fill="none" stroke="black" points="17.5,-224.5 17.5,-243.5 140.5,-243.5 140.5,-224.5 17.5,-224.5"/>
<text text-anchor="middle" x="79" y="-231.5" font-family="Helvetica,sans-Serif" font-size="10.00">memory_model_tso.h</text>
</a>
</g>
</g>
<!-- Node2&#45;&gt;Node3 -->
<g id="edge2" class="edge">
<title>Node2&#45;&gt;Node3</title>
<path fill="none" stroke="midnightblue" d="M79,-280.08C79,-273.01 79,-262.86 79,-253.99"/>
<polygon fill="midnightblue" stroke="midnightblue" points="82.5,-253.75 79,-243.75 75.5,-253.75 82.5,-253.75"/>
</g>
<!-- Node4 -->
<g id="node4" class="node">
<title>Node4</title>
<g id="a_node4"><a xlink:href="memory__model__sc_8h.html" target="_top" xlink:title="Memory models for partial order concurrency.">
<polygon fill="none" stroke="black" points="19.5,-168.5 19.5,-187.5 138.5,-187.5 138.5,-168.5 19.5,-168.5"/>
<text text-anchor="middle" x="79" y="-175.5" font-family="Helvetica,sans-Serif" font-size="10.00">memory_model_sc.h</text>
</a>
</g>
</g>
<!-- Node3&#45;&gt;Node4 -->
<g id="edge3" class="edge">
<title>Node3&#45;&gt;Node4</title>
<path fill="none" stroke="midnightblue" d="M79,-224.08C79,-217.01 79,-206.86 79,-197.99"/>
<polygon fill="midnightblue" stroke="midnightblue" points="82.5,-197.75 79,-187.75 75.5,-197.75 82.5,-197.75"/>
</g>
<!-- Node5 -->
<g id="node5" class="node">
<title>Node5</title>
<g id="a_node5"><a xlink:href="memory__model_8h.html" target="_top" xlink:title="Memory models for partial order concurrency.">
<polygon fill="none" stroke="black" points="27.5,-112.5 27.5,-131.5 130.5,-131.5 130.5,-112.5 27.5,-112.5"/>
<text text-anchor="middle" x="79" y="-119.5" font-family="Helvetica,sans-Serif" font-size="10.00">memory_model.h</text>
</a>
</g>
</g>
<!-- Node4&#45;&gt;Node5 -->
<g id="edge4" class="edge">
<title>Node4&#45;&gt;Node5</title>
<path fill="none" stroke="midnightblue" d="M79,-168.08C79,-161.01 79,-150.86 79,-141.99"/>
<polygon fill="midnightblue" stroke="midnightblue" points="82.5,-141.75 79,-131.75 75.5,-141.75 82.5,-141.75"/>
</g>
<!-- Node6 -->
<g id="node6" class="node">
<title>Node6</title>
<g id="a_node6"><a xlink:href="partial__order__concurrency_8h.html" target="_top" xlink:title="Add constraints to equation encoding partial orders on events.">
<polygon fill="none" stroke="black" points="3.5,-56.5 3.5,-75.5 154.5,-75.5 154.5,-56.5 3.5,-56.5"/>
<text text-anchor="middle" x="79" y="-63.5" font-family="Helvetica,sans-Serif" font-size="10.00">partial_order_concurrency.h</text>
</a>
</g>
</g>
<!-- Node5&#45;&gt;Node6 -->
<g id="edge5" class="edge">
<title>Node5&#45;&gt;Node6</title>
<path fill="none" stroke="midnightblue" d="M79,-112.08C79,-105.01 79,-94.86 79,-85.99"/>
<polygon fill="midnightblue" stroke="midnightblue" points="82.5,-85.75 79,-75.75 75.5,-85.75 82.5,-85.75"/>
</g>
<!-- Node7 -->
<g id="node7" class="node">
<title>Node7</title>
<g id="a_node7"><a xlink:href="symex__target__equation_8h.html" target="_top" xlink:title="Generate Equation using Symbolic Execution.">
<polygon fill="none" stroke="red" points="8.5,-0.5 8.5,-19.5 149.5,-19.5 149.5,-0.5 8.5,-0.5"/>
<text text-anchor="middle" x="79" y="-7.5" font-family="Helvetica,sans-Serif" font-size="10.00">symex_target_equation.h</text>
</a>
</g>
</g>
<!-- Node6&#45;&gt;Node7 -->
<g id="edge6" class="edge">
<title>Node6&#45;&gt;Node7</title>
<path fill="none" stroke="midnightblue" d="M79,-56.08C79,-49.01 79,-38.86 79,-29.99"/>
<polygon fill="midnightblue" stroke="midnightblue" points="82.5,-29.75 79,-19.75 75.5,-29.75 82.5,-29.75"/>
</g>
</g>
</svg>
