<?xml version="1.0" encoding="UTF-8" standalone="no"?>
<!DOCTYPE svg PUBLIC "-//W3C//DTD SVG 1.1//EN"
 "http://www.w3.org/Graphics/SVG/1.1/DTD/svg11.dtd">
<!-- Generated by graphviz version 2.43.0 (0)
 -->
<!-- Title: /home/runner/work/diffblue&#45;cbmc/diffblue&#45;cbmc/src/goto&#45;symex/memory_model.cpp Pages: 1 -->
<svg width="897pt" height="744pt"
 viewBox="0.00 0.00 896.50 744.00" xmlns="http://www.w3.org/2000/svg" xmlns:xlink="http://www.w3.org/1999/xlink">
<g id="graph0" class="graph" transform="scale(1 1) rotate(0) translate(4 740)">
<title>/home/runner/work/diffblue&#45;cbmc/diffblue&#45;cbmc/src/goto&#45;symex/memory_model.cpp</title>
<!-- Node1 -->
<g id="node1" class="node">
<title>Node1</title>
<g id="a_node1"><a xlink:title="Memory model for partial order concurrency.">
<polygon fill="#bfbfbf" stroke="black" points="0,-694.5 0,-735.5 179,-735.5 179,-694.5 0,-694.5"/>
<text text-anchor="start" x="8" y="-723.5" font-family="Helvetica,sans-Serif" font-size="10.00">/home/runner/work/diffblue</text>
<text text-anchor="start" x="8" y="-712.5" font-family="Helvetica,sans-Serif" font-size="10.00">&#45;cbmc/diffblue&#45;cbmc/src</text>
<text text-anchor="middle" x="89.5" y="-701.5" font-family="Helvetica,sans-Serif" font-size="10.00">/goto&#45;symex/memory_model.cpp</text>
</a>
</g>
</g>
<!-- Node2 -->
<g id="node2" class="node">
<title>Node2</title>
<g id="a_node2"><a xlink:href="memory__model_8h.html" target="_top" xlink:title="Memory models for partial order concurrency.">
<polygon fill="none" stroke="black" points="90,-638.5 90,-657.5 193,-657.5 193,-638.5 90,-638.5"/>
<text text-anchor="middle" x="141.5" y="-645.5" font-family="Helvetica,sans-Serif" font-size="10.00">memory_model.h</text>
</a>
</g>
</g>
<!-- Node1&#45;&gt;Node2 -->
<g id="edge1" class="edge">
<title>Node1&#45;&gt;Node2</title>
<path fill="none" stroke="midnightblue" d="M105.1,-694.5C112.46,-685.3 121.15,-674.44 128.19,-665.63"/>
<polygon fill="midnightblue" stroke="midnightblue" points="131.06,-667.65 134.58,-657.65 125.6,-663.27 131.06,-667.65"/>
</g>
<!-- Node37 -->
<g id="node27" class="node">
<title>Node37</title>
<g id="a_node27"><a xlink:href="std__expr_8h.html" target="_top" xlink:title="API to expression classes.">
<polygon fill="none" stroke="red" points="154,-280.5 154,-299.5 221,-299.5 221,-280.5 154,-280.5"/>
<text text-anchor="middle" x="187.5" y="-287.5" font-family="Helvetica,sans-Serif" font-size="10.00">std_expr.h</text>
</a>
</g>
</g>
<!-- Node1&#45;&gt;Node37 -->
<g id="edge58" class="edge">
<title>Node1&#45;&gt;Node37</title>
<path fill="none" stroke="midnightblue" d="M78.57,-694.11C66.73,-670.66 49.5,-630.17 49.5,-593 49.5,-593 49.5,-593 49.5,-417.5 49.5,-360.33 114.65,-322 155.42,-303.61"/>
<polygon fill="midnightblue" stroke="midnightblue" points="156.94,-306.77 164.71,-299.58 154.15,-300.35 156.94,-306.77"/>
</g>
<!-- Node3 -->
<g id="node3" class="node">
<title>Node3</title>
<g id="a_node3"><a xlink:href="partial__order__concurrency_8h.html" target="_top" xlink:title="Add constraints to equation encoding partial orders on events.">
<polygon fill="none" stroke="black" points="210,-582.5 210,-601.5 361,-601.5 361,-582.5 210,-582.5"/>
<text text-anchor="middle" x="285.5" y="-589.5" font-family="Helvetica,sans-Serif" font-size="10.00">partial_order_concurrency.h</text>
</a>
</g>
</g>
<!-- Node2&#45;&gt;Node3 -->
<g id="edge2" class="edge">
<title>Node2&#45;&gt;Node3</title>
<path fill="none" stroke="midnightblue" d="M164.32,-638.44C188.33,-629.44 226.33,-615.19 253.37,-605.05"/>
<polygon fill="midnightblue" stroke="midnightblue" points="254.66,-608.3 262.79,-601.52 252.2,-601.75 254.66,-608.3"/>
</g>
<!-- Node4 -->
<g id="node4" class="node">
<title>Node4</title>
<g id="a_node4"><a xlink:href="symex__target__equation_8h.html" target="_top" xlink:title="Generate Equation using Symbolic Execution.">
<polygon fill="none" stroke="black" points="394,-526.5 394,-545.5 535,-545.5 535,-526.5 394,-526.5"/>
<text text-anchor="middle" x="464.5" y="-533.5" font-family="Helvetica,sans-Serif" font-size="10.00">symex_target_equation.h</text>
</a>
</g>
</g>
<!-- Node3&#45;&gt;Node4 -->
<g id="edge3" class="edge">
<title>Node3&#45;&gt;Node4</title>
<path fill="none" stroke="midnightblue" d="M313.86,-582.44C344.24,-573.28 392.61,-558.69 426.32,-548.52"/>
<polygon fill="midnightblue" stroke="midnightblue" points="427.71,-551.76 436.27,-545.52 425.68,-545.05 427.71,-551.76"/>
</g>
<!-- Node5 -->
<g id="node5" class="node">
<title>Node5</title>
<g id="a_node5"><a xlink:title=" ">
<polygon fill="none" stroke="#bfbfbf" points="579.5,-112.5 579.5,-131.5 643.5,-131.5 643.5,-112.5 579.5,-112.5"/>
<text text-anchor="middle" x="611.5" y="-119.5" font-family="Helvetica,sans-Serif" font-size="10.00">algorithm</text>
</a>
</g>
</g>
<!-- Node4&#45;&gt;Node5 -->
<g id="edge4" class="edge">
<title>Node4&#45;&gt;Node5</title>
<path fill="none" stroke="midnightblue" d="M535.47,-530.3C656.17,-520.34 888.5,-491.79 888.5,-419.5 888.5,-419.5 888.5,-419.5 888.5,-233 888.5,-183.05 730.93,-145.87 653.47,-130.62"/>
<polygon fill="midnightblue" stroke="midnightblue" points="654.03,-127.16 643.55,-128.69 652.7,-134.03 654.03,-127.16"/>
</g>
<!-- Node6 -->
<g id="node6" class="node">
<title>Node6</title>
<g id="a_node6"><a xlink:title=" ">
<polygon fill="none" stroke="#bfbfbf" points="671.5,-280.5 671.5,-299.5 719.5,-299.5 719.5,-280.5 671.5,-280.5"/>
<text text-anchor="middle" x="695.5" y="-287.5" font-family="Helvetica,sans-Serif" font-size="10.00">iosfwd</text>
</a>
</g>
</g>
<!-- Node4&#45;&gt;Node6 -->
<g id="edge5" class="edge">
<title>Node4&#45;&gt;Node6</title>
<path fill="none" stroke="midnightblue" d="M527.99,-526.49C582.75,-515.42 658.66,-490.32 695.5,-434 720.57,-395.68 709.51,-338.35 701.38,-309.29"/>
<polygon fill="midnightblue" stroke="midnightblue" points="704.71,-308.21 698.48,-299.64 698,-310.22 704.71,-308.21"/>
</g>
<!-- Node7 -->
<g id="node7" class="node">
<title>Node7</title>
<g id="a_node7"><a xlink:title=" ">
<polygon fill="none" stroke="#bfbfbf" points="775.5,-280.5 775.5,-299.5 807.5,-299.5 807.5,-280.5 775.5,-280.5"/>
<text text-anchor="middle" x="791.5" y="-287.5" font-family="Helvetica,sans-Serif" font-size="10.00">list</text>
</a>
</g>
</g>
<!-- Node4&#45;&gt;Node7 -->
<g id="edge6" class="edge">
<title>Node4&#45;&gt;Node7</title>
<path fill="none" stroke="midnightblue" d="M535.07,-528.86C574.3,-523.07 622.86,-511.82 661.5,-490 691.61,-473 695.19,-461.98 715.5,-434 731.44,-412.04 766.55,-341.89 782.86,-308.71"/>
<polygon fill="midnightblue" stroke="midnightblue" points="786.02,-310.22 787.28,-299.7 779.73,-307.14 786.02,-310.22"/>
</g>
<!-- Node8 -->
<g id="node8" class="node">
<title>Node8</title>
<g id="a_node8"><a xlink:href="src_2util_2invariant_8h.html" target="_top" xlink:title=" ">
<polygon fill="none" stroke="black" points="219.5,-56.5 219.5,-75.5 307.5,-75.5 307.5,-56.5 219.5,-56.5"/>
<text text-anchor="middle" x="263.5" y="-63.5" font-family="Helvetica,sans-Serif" font-size="10.00">util/invariant.h</text>
</a>
</g>
</g>
<!-- Node4&#45;&gt;Node8 -->
<g id="edge7" class="edge">
<title>Node4&#45;&gt;Node8</title>
<path fill="none" stroke="midnightblue" d="M393.92,-533.79C334.07,-530.49 247.11,-520.26 177.5,-490 130.9,-469.75 87.5,-470.31 87.5,-419.5 87.5,-419.5 87.5,-419.5 87.5,-177 87.5,-118.78 157.62,-90.23 209.34,-77.09"/>
<polygon fill="midnightblue" stroke="midnightblue" points="210.19,-80.49 219.09,-74.74 208.55,-73.68 210.19,-80.49"/>
</g>
<!-- Node13 -->
<g id="node13" class="node">
<title>Node13</title>
<g id="a_node13"><a xlink:href="merge__irep_8h.html" target="_top" xlink:title=" ">
<polygon fill="none" stroke="black" points="305.5,-470.5 305.5,-489.5 405.5,-489.5 405.5,-470.5 305.5,-470.5"/>
<text text-anchor="middle" x="355.5" y="-477.5" font-family="Helvetica,sans-Serif" font-size="10.00">util/merge_irep.h</text>
</a>
</g>
</g>
<!-- Node4&#45;&gt;Node13 -->
<g id="edge12" class="edge">
<title>Node4&#45;&gt;Node13</title>
<path fill="none" stroke="midnightblue" d="M446.99,-526.32C429.43,-517.62 402.17,-504.12 381.97,-494.11"/>
<polygon fill="midnightblue" stroke="midnightblue" points="383.48,-490.96 372.97,-489.65 380.38,-497.23 383.48,-490.96"/>
</g>
<!-- Node29 -->
<g id="node19" class="node">
<title>Node29</title>
<g id="a_node19"><a xlink:href="narrow_8h.html" target="_top" xlink:title=" ">
<polygon fill="none" stroke="black" points="330,-112.5 330,-131.5 389,-131.5 389,-112.5 330,-112.5"/>
<text text-anchor="middle" x="359.5" y="-119.5" font-family="Helvetica,sans-Serif" font-size="10.00">narrow.h</text>
</a>
</g>
</g>
<!-- Node4&#45;&gt;Node29 -->
<g id="edge35" class="edge">
<title>Node4&#45;&gt;Node29</title>
<path fill="none" stroke="midnightblue" d="M400.34,-526.49C302.06,-511.63 125.5,-476.94 125.5,-419.5 125.5,-419.5 125.5,-419.5 125.5,-233 125.5,-148.21 252.9,-128.66 319.69,-124.23"/>
<polygon fill="midnightblue" stroke="midnightblue" points="320.08,-127.72 329.86,-123.65 319.68,-120.73 320.08,-127.72"/>
</g>
<!-- Node30 -->
<g id="node20" class="node">
<title>Node30</title>
<g id="a_node20"><a xlink:href="src_2util_2message_8h.html" target="_top" xlink:title=" ">
<polygon fill="none" stroke="black" points="390,-342 390,-361 479,-361 479,-342 390,-342"/>
<text text-anchor="middle" x="434.5" y="-349" font-family="Helvetica,sans-Serif" font-size="10.00">util/message.h</text>
</a>
</g>
</g>
<!-- Node4&#45;&gt;Node30 -->
<g id="edge24" class="edge">
<title>Node4&#45;&gt;Node30</title>
<path fill="none" stroke="midnightblue" d="M461.86,-526.45C459.17,-517.46 455.04,-502.85 452.5,-490 444.19,-448.03 438.75,-398.07 436.19,-371.44"/>
<polygon fill="midnightblue" stroke="midnightblue" points="439.65,-370.89 435.25,-361.25 432.68,-371.53 439.65,-370.89"/>
</g>
<!-- Node35 -->
<g id="node25" class="node">
<title>Node35</title>
<g id="a_node25"><a xlink:href="ssa__step_8h.html" target="_top" xlink:title=" ">
<polygon fill="none" stroke="black" points="461.5,-470.5 461.5,-489.5 529.5,-489.5 529.5,-470.5 461.5,-470.5"/>
<text text-anchor="middle" x="495.5" y="-477.5" font-family="Helvetica,sans-Serif" font-size="10.00">ssa_step.h</text>
</a>
</g>
</g>
<!-- Node4&#45;&gt;Node35 -->
<g id="edge36" class="edge">
<title>Node4&#45;&gt;Node35</title>
<path fill="none" stroke="midnightblue" d="M469.62,-526.08C473.91,-518.61 480.16,-507.72 485.44,-498.52"/>
<polygon fill="midnightblue" stroke="midnightblue" points="488.53,-500.17 490.48,-489.75 482.46,-496.68 488.53,-500.17"/>
</g>
<!-- Node58 -->
<g id="node31" class="node">
<title>Node58</title>
<g id="a_node31"><a xlink:href="symex__target_8h.html" target="_top" xlink:title="Generate Equation using Symbolic Execution.">
<polygon fill="none" stroke="black" points="462,-409 462,-428 555,-428 555,-409 462,-409"/>
<text text-anchor="middle" x="508.5" y="-416" font-family="Helvetica,sans-Serif" font-size="10.00">symex_target.h</text>
</a>
</g>
</g>
<!-- Node4&#45;&gt;Node58 -->
<g id="edge57" class="edge">
<title>Node4&#45;&gt;Node58</title>
<path fill="none" stroke="midnightblue" d="M491.43,-526.36C508.22,-519.41 528.48,-507.82 538.5,-490 548.53,-472.17 535.68,-450.31 523.82,-435.71"/>
<polygon fill="midnightblue" stroke="midnightblue" points="526.34,-433.27 517.13,-428.03 521.06,-437.87 526.34,-433.27"/>
</g>
<!-- Node9 -->
<g id="node9" class="node">
<title>Node9</title>
<g id="a_node9"><a xlink:title=" ">
<polygon fill="none" stroke="#bfbfbf" points="239,-0.5 239,-19.5 288,-19.5 288,-0.5 239,-0.5"/>
<text text-anchor="middle" x="263.5" y="-7.5" font-family="Helvetica,sans-Serif" font-size="10.00">cstdlib</text>
</a>
</g>
</g>
<!-- Node8&#45;&gt;Node9 -->
<g id="edge8" class="edge">
<title>Node8&#45;&gt;Node9</title>
<path fill="none" stroke="midnightblue" d="M263.5,-56.08C263.5,-49.01 263.5,-38.86 263.5,-29.99"/>
<polygon fill="midnightblue" stroke="midnightblue" points="267,-29.75 263.5,-19.75 260,-29.75 267,-29.75"/>
</g>
<!-- Node10 -->
<g id="node10" class="node">
<title>Node10</title>
<g id="a_node10"><a xlink:title=" ">
<polygon fill="none" stroke="#bfbfbf" points="93.5,-0.5 93.5,-19.5 149.5,-19.5 149.5,-0.5 93.5,-0.5"/>
<text text-anchor="middle" x="121.5" y="-7.5" font-family="Helvetica,sans-Serif" font-size="10.00">sstream</text>
</a>
</g>
</g>
<!-- Node8&#45;&gt;Node10 -->
<g id="edge9" class="edge">
<title>Node8&#45;&gt;Node10</title>
<path fill="none" stroke="midnightblue" d="M241,-56.44C217.42,-47.48 180.18,-33.31 153.54,-23.18"/>
<polygon fill="midnightblue" stroke="midnightblue" points="154.49,-19.8 143.9,-19.52 152,-26.34 154.49,-19.8"/>
</g>
<!-- Node11 -->
<g id="node11" class="node">
<title>Node11</title>
<g id="a_node11"><a xlink:title=" ">
<polygon fill="none" stroke="#bfbfbf" points="668.5,-0.5 668.5,-19.5 712.5,-19.5 712.5,-0.5 668.5,-0.5"/>
<text text-anchor="middle" x="690.5" y="-7.5" font-family="Helvetica,sans-Serif" font-size="10.00">string</text>
</a>
</g>
</g>
<!-- Node8&#45;&gt;Node11 -->
<g id="edge10" class="edge">
<title>Node8&#45;&gt;Node11</title>
<path fill="none" stroke="midnightblue" d="M307.59,-59.42C393.7,-48.53 582.43,-24.67 658.14,-15.09"/>
<polygon fill="midnightblue" stroke="midnightblue" points="658.98,-18.51 668.46,-13.79 658.1,-11.57 658.98,-18.51"/>
</g>
<!-- Node12 -->
<g id="node12" class="node">
<title>Node12</title>
<g id="a_node12"><a xlink:title=" ">
<polygon fill="none" stroke="#bfbfbf" points="315,-0.5 315,-19.5 384,-19.5 384,-0.5 315,-0.5"/>
<text text-anchor="middle" x="349.5" y="-7.5" font-family="Helvetica,sans-Serif" font-size="10.00">type_traits</text>
</a>
</g>
</g>
<!-- Node8&#45;&gt;Node12 -->
<g id="edge11" class="edge">
<title>Node8&#45;&gt;Node12</title>
<path fill="none" stroke="midnightblue" d="M277.32,-56.32C290.73,-47.9 311.32,-34.97 327.09,-25.07"/>
<polygon fill="midnightblue" stroke="midnightblue" points="329.11,-27.94 335.72,-19.65 325.39,-22.01 329.11,-27.94"/>
</g>
<!-- Node14 -->
<g id="node14" class="node">
<title>Node14</title>
<g id="a_node14"><a xlink:title=" ">
<polygon fill="none" stroke="#bfbfbf" points="153.5,-409 153.5,-428 239.5,-428 239.5,-409 153.5,-409"/>
<text text-anchor="middle" x="196.5" y="-416" font-family="Helvetica,sans-Serif" font-size="10.00">unordered_set</text>
</a>
</g>
</g>
<!-- Node13&#45;&gt;Node14 -->
<g id="edge13" class="edge">
<title>Node13&#45;&gt;Node14</title>
<path fill="none" stroke="midnightblue" d="M332.72,-470.48C305.45,-460.27 259.59,-443.11 228.7,-431.55"/>
<polygon fill="midnightblue" stroke="midnightblue" points="229.83,-428.24 219.24,-428.01 227.38,-434.79 229.83,-428.24"/>
</g>
<!-- Node15 -->
<g id="node15" class="node">
<title>Node15</title>
<g id="a_node15"><a xlink:href="irep_8h.html" target="_top" xlink:title=" ">
<polygon fill="none" stroke="black" points="427.5,-224.5 427.5,-243.5 471.5,-243.5 471.5,-224.5 427.5,-224.5"/>
<text text-anchor="middle" x="449.5" y="-231.5" font-family="Helvetica,sans-Serif" font-size="10.00">irep.h</text>
</a>
</g>
</g>
<!-- Node13&#45;&gt;Node15 -->
<g id="edge14" class="edge">
<title>Node13&#45;&gt;Node15</title>
<path fill="none" stroke="midnightblue" d="M355.6,-470.1C355.7,-455.9 355.72,-427.25 354.5,-403 351.75,-348.26 315.41,-325.81 345.5,-280 361.28,-255.97 392.93,-244.71 417.19,-239.47"/>
<polygon fill="midnightblue" stroke="midnightblue" points="417.91,-242.9 427.07,-237.58 416.59,-236.03 417.91,-242.9"/>
</g>
<!-- Node15&#45;&gt;Node8 -->
<g id="edge17" class="edge">
<title>Node15&#45;&gt;Node8</title>
<path fill="none" stroke="midnightblue" d="M427.42,-227.51C394.97,-219.09 336.54,-202.44 320.5,-188 304.36,-173.47 281.38,-115.58 270.17,-85.45"/>
<polygon fill="midnightblue" stroke="midnightblue" points="273.33,-83.92 266.6,-75.74 266.76,-86.33 273.33,-83.92"/>
</g>
<!-- Node15&#45;&gt;Node11 -->
<g id="edge15" class="edge">
<title>Node15&#45;&gt;Node11</title>
<path fill="none" stroke="midnightblue" d="M471.5,-225.45C497.32,-216.19 537.94,-200.21 548.5,-188 571.5,-161.4 551.33,-141.48 570.5,-112 595.46,-73.61 639.41,-42.07 666.63,-24.95"/>
<polygon fill="midnightblue" stroke="midnightblue" points="668.81,-27.72 675.5,-19.51 665.15,-21.75 668.81,-27.72"/>
</g>
<!-- Node16 -->
<g id="node16" class="node">
<title>Node16</title>
<g id="a_node16"><a xlink:title=" ">
<polygon fill="none" stroke="#bfbfbf" points="596,-168.5 596,-187.5 643,-187.5 643,-168.5 596,-168.5"/>
<text text-anchor="middle" x="619.5" y="-175.5" font-family="Helvetica,sans-Serif" font-size="10.00">vector</text>
</a>
</g>
</g>
<!-- Node15&#45;&gt;Node16 -->
<g id="edge16" class="edge">
<title>Node15&#45;&gt;Node16</title>
<path fill="none" stroke="midnightblue" d="M471.72,-225.94C500.84,-216.69 552.17,-200.39 586.01,-189.64"/>
<polygon fill="midnightblue" stroke="midnightblue" points="587.43,-192.86 595.9,-186.5 585.31,-186.19 587.43,-192.86"/>
</g>
<!-- Node17 -->
<g id="node17" class="node">
<title>Node17</title>
<g id="a_node17"><a xlink:href="irep__ids_8h.html" target="_top" xlink:title="util">
<polygon fill="none" stroke="red" points="329.5,-168.5 329.5,-187.5 393.5,-187.5 393.5,-168.5 329.5,-168.5"/>
<text text-anchor="middle" x="361.5" y="-175.5" font-family="Helvetica,sans-Serif" font-size="10.00">irep_ids.h</text>
</a>
</g>
</g>
<!-- Node15&#45;&gt;Node17 -->
<g id="edge18" class="edge">
<title>Node15&#45;&gt;Node17</title>
<path fill="none" stroke="midnightblue" d="M435.36,-224.32C421.63,-215.9 400.56,-202.97 384.44,-193.07"/>
<polygon fill="midnightblue" stroke="midnightblue" points="385.96,-189.9 375.6,-187.65 382.3,-195.87 385.96,-189.9"/>
</g>
<!-- Node26 -->
<g id="node18" class="node">
<title>Node26</title>
<g id="a_node18"><a xlink:href="forward__list__as__map_8h.html" target="_top" xlink:title=" ">
<polygon fill="none" stroke="red" points="412,-168.5 412,-187.5 539,-187.5 539,-168.5 412,-168.5"/>
<text text-anchor="middle" x="475.5" y="-175.5" font-family="Helvetica,sans-Serif" font-size="10.00">forward_list_as_map.h</text>
</a>
</g>
</g>
<!-- Node15&#45;&gt;Node26 -->
<g id="edge19" class="edge">
<title>Node15&#45;&gt;Node26</title>
<path fill="none" stroke="midnightblue" d="M453.79,-224.08C457.35,-216.69 462.52,-205.95 466.92,-196.81"/>
<polygon fill="midnightblue" stroke="midnightblue" points="470.1,-198.28 471.29,-187.75 463.79,-195.24 470.1,-198.28"/>
</g>
<!-- Node26&#45;&gt;Node5 -->
<g id="edge20" class="edge">
<title>Node26&#45;&gt;Node5</title>
<path fill="none" stroke="midnightblue" d="M497.05,-168.44C519.53,-159.52 554.99,-145.44 580.48,-135.32"/>
<polygon fill="midnightblue" stroke="midnightblue" points="582.05,-138.46 590.05,-131.52 579.47,-131.95 582.05,-138.46"/>
</g>
<!-- Node26&#45;&gt;Node29 -->
<g id="edge21" class="edge">
<title>Node26&#45;&gt;Node29</title>
<path fill="none" stroke="midnightblue" d="M457.12,-168.44C438.28,-159.68 408.77,-145.94 387.12,-135.86"/>
<polygon fill="midnightblue" stroke="midnightblue" points="388.34,-132.56 377.79,-131.52 385.38,-138.91 388.34,-132.56"/>
</g>
<!-- Node29&#45;&gt;Node8 -->
<g id="edge23" class="edge">
<title>Node29&#45;&gt;Node8</title>
<path fill="none" stroke="midnightblue" d="M344.08,-112.32C328.96,-103.82 305.68,-90.73 288.03,-80.8"/>
<polygon fill="midnightblue" stroke="midnightblue" points="289.32,-77.51 278.89,-75.65 285.89,-83.61 289.32,-77.51"/>
</g>
<!-- Node29&#45;&gt;Node12 -->
<g id="edge22" class="edge">
<title>Node29&#45;&gt;Node12</title>
<path fill="none" stroke="midnightblue" d="M358.72,-112.37C357.1,-94.62 353.38,-53.67 351.19,-29.6"/>
<polygon fill="midnightblue" stroke="midnightblue" points="354.67,-29.23 350.28,-19.59 347.7,-29.87 354.67,-29.23"/>
</g>
<!-- Node30&#45;&gt;Node6 -->
<g id="edge32" class="edge">
<title>Node30&#45;&gt;Node6</title>
<path fill="none" stroke="midnightblue" d="M465.28,-341.96C472.85,-339.94 480.95,-337.83 488.5,-336 548.99,-321.31 619.99,-306.37 661.15,-297.94"/>
<polygon fill="midnightblue" stroke="midnightblue" points="662.1,-301.32 671.19,-295.89 660.7,-294.46 662.1,-301.32"/>
</g>
<!-- Node30&#45;&gt;Node8 -->
<g id="edge25" class="edge">
<title>Node30&#45;&gt;Node8</title>
<path fill="none" stroke="midnightblue" d="M415.77,-341.94C374.91,-321.99 279.09,-267.99 249.5,-188 236.65,-153.26 247.94,-109.41 256.35,-85.18"/>
<polygon fill="midnightblue" stroke="midnightblue" points="259.73,-86.13 259.92,-75.53 253.17,-83.7 259.73,-86.13"/>
</g>
<!-- Node30&#45;&gt;Node10 -->
<g id="edge33" class="edge">
<title>Node30&#45;&gt;Node10</title>
<path fill="none" stroke="midnightblue" d="M408.64,-341.94C322.32,-313 49.5,-218.42 49.5,-179 49.5,-179 49.5,-179 49.5,-121 49.5,-81.94 81.68,-45.94 103.01,-26.37"/>
<polygon fill="midnightblue" stroke="midnightblue" points="105.38,-28.94 110.56,-19.7 100.75,-23.7 105.38,-28.94"/>
</g>
<!-- Node30&#45;&gt;Node11 -->
<g id="edge34" class="edge">
<title>Node30&#45;&gt;Node11</title>
<path fill="none" stroke="midnightblue" d="M463.34,-341.99C500.97,-330.7 564.6,-310.93 586.5,-300 625.66,-280.46 637.04,-275.43 667.5,-244 691.44,-219.3 709.5,-213.39 709.5,-179 709.5,-179 709.5,-179 709.5,-121 709.5,-88.49 701.34,-51.35 695.72,-29.61"/>
<polygon fill="midnightblue" stroke="midnightblue" points="699.04,-28.5 693.06,-19.75 692.28,-30.32 699.04,-28.5"/>
</g>
<!-- Node31 -->
<g id="node21" class="node">
<title>Node31</title>
<g id="a_node21"><a xlink:href="source__location_8h.html" target="_top" xlink:title=" ">
<polygon fill="none" stroke="black" points="475.5,-280.5 475.5,-299.5 577.5,-299.5 577.5,-280.5 475.5,-280.5"/>
<text text-anchor="middle" x="526.5" y="-287.5" font-family="Helvetica,sans-Serif" font-size="10.00">source_location.h</text>
</a>
</g>
</g>
<!-- Node30&#45;&gt;Node31 -->
<g id="edge26" class="edge">
<title>Node30&#45;&gt;Node31</title>
<path fill="none" stroke="midnightblue" d="M447.68,-341.98C462.57,-332.34 487.04,-316.52 504.77,-305.05"/>
<polygon fill="midnightblue" stroke="midnightblue" points="506.85,-307.88 513.34,-299.51 503.05,-302 506.85,-307.88"/>
</g>
<!-- Node34 -->
<g id="node24" class="node">
<title>Node34</title>
<g id="a_node24"><a xlink:title=" ">
<polygon fill="none" stroke="#bfbfbf" points="354,-280.5 354,-299.5 419,-299.5 419,-280.5 354,-280.5"/>
<text text-anchor="middle" x="386.5" y="-287.5" font-family="Helvetica,sans-Serif" font-size="10.00">functional</text>
</a>
</g>
</g>
<!-- Node30&#45;&gt;Node34 -->
<g id="edge31" class="edge">
<title>Node30&#45;&gt;Node34</title>
<path fill="none" stroke="midnightblue" d="M427.62,-341.98C420.35,-332.96 408.7,-318.52 399.66,-307.31"/>
<polygon fill="midnightblue" stroke="midnightblue" points="402.37,-305.09 393.36,-299.51 396.92,-309.49 402.37,-305.09"/>
</g>
<!-- Node31&#45;&gt;Node11 -->
<g id="edge30" class="edge">
<title>Node31&#45;&gt;Node11</title>
<path fill="none" stroke="midnightblue" d="M575.47,-280.47C599.53,-274.05 627.38,-262.96 646.5,-244 668.48,-222.21 671.5,-209.95 671.5,-179 671.5,-179 671.5,-179 671.5,-121 671.5,-88.49 679.66,-51.35 685.28,-29.61"/>
<polygon fill="midnightblue" stroke="midnightblue" points="688.72,-30.32 687.94,-19.75 681.96,-28.5 688.72,-30.32"/>
</g>
<!-- Node31&#45;&gt;Node15 -->
<g id="edge28" class="edge">
<title>Node31&#45;&gt;Node15</title>
<path fill="none" stroke="midnightblue" d="M514.13,-280.32C502.34,-272.06 484.37,-259.45 470.36,-249.63"/>
<polygon fill="midnightblue" stroke="midnightblue" points="472.04,-246.53 461.84,-243.65 468.02,-252.26 472.04,-246.53"/>
</g>
<!-- Node32 -->
<g id="node22" class="node">
<title>Node32</title>
<g id="a_node22"><a xlink:href="deprecate_8h.html" target="_top" xlink:title=" ">
<polygon fill="none" stroke="black" points="489.5,-224.5 489.5,-243.5 563.5,-243.5 563.5,-224.5 489.5,-224.5"/>
<text text-anchor="middle" x="526.5" y="-231.5" font-family="Helvetica,sans-Serif" font-size="10.00">deprecate.h</text>
</a>
</g>
</g>
<!-- Node31&#45;&gt;Node32 -->
<g id="edge27" class="edge">
<title>Node31&#45;&gt;Node32</title>
<path fill="none" stroke="midnightblue" d="M526.5,-280.08C526.5,-273.01 526.5,-262.86 526.5,-253.99"/>
<polygon fill="midnightblue" stroke="midnightblue" points="530,-253.75 526.5,-243.75 523,-253.75 530,-253.75"/>
</g>
<!-- Node33 -->
<g id="node23" class="node">
<title>Node33</title>
<g id="a_node23"><a xlink:title=" ">
<polygon fill="none" stroke="#bfbfbf" points="581.5,-224.5 581.5,-243.5 637.5,-243.5 637.5,-224.5 581.5,-224.5"/>
<text text-anchor="middle" x="609.5" y="-231.5" font-family="Helvetica,sans-Serif" font-size="10.00">optional</text>
</a>
</g>
</g>
<!-- Node31&#45;&gt;Node33 -->
<g id="edge29" class="edge">
<title>Node31&#45;&gt;Node33</title>
<path fill="none" stroke="midnightblue" d="M539.84,-280.32C552.66,-271.98 572.28,-259.21 587.44,-249.35"/>
<polygon fill="midnightblue" stroke="midnightblue" points="589.72,-252.04 596.2,-243.65 585.91,-246.17 589.72,-252.04"/>
</g>
<!-- Node36 -->
<g id="node26" class="node">
<title>Node36</title>
<g id="a_node26"><a xlink:href="ssa__expr_8h.html" target="_top" xlink:title=" ">
<polygon fill="none" stroke="black" points="258,-409 258,-428 345,-428 345,-409 258,-409"/>
<text text-anchor="middle" x="301.5" y="-416" font-family="Helvetica,sans-Serif" font-size="10.00">util/ssa_expr.h</text>
</a>
</g>
</g>
<!-- Node35&#45;&gt;Node36 -->
<g id="edge37" class="edge">
<title>Node35&#45;&gt;Node36</title>
<path fill="none" stroke="midnightblue" d="M467.7,-470.48C433.85,-460.09 376.53,-442.51 338.85,-430.95"/>
<polygon fill="midnightblue" stroke="midnightblue" points="339.83,-427.6 329.24,-428.01 337.78,-434.29 339.83,-427.6"/>
</g>
<!-- Node50 -->
<g id="node28" class="node">
<title>Node50</title>
<g id="a_node28"><a xlink:href="goto__trace_8h.html" target="_top" xlink:title="Traces of GOTO Programs.">
<polygon fill="none" stroke="black" points="573,-403.5 573,-433.5 686,-433.5 686,-403.5 573,-403.5"/>
<text text-anchor="start" x="581" y="-421.5" font-family="Helvetica,sans-Serif" font-size="10.00">goto&#45;programs/goto</text>
<text text-anchor="middle" x="629.5" y="-410.5" font-family="Helvetica,sans-Serif" font-size="10.00">_trace.h</text>
</a>
</g>
</g>
<!-- Node35&#45;&gt;Node50 -->
<g id="edge40" class="edge">
<title>Node35&#45;&gt;Node50</title>
<path fill="none" stroke="midnightblue" d="M514.7,-470.48C533.87,-461.96 563.92,-448.62 588.47,-437.72"/>
<polygon fill="midnightblue" stroke="midnightblue" points="590.2,-440.78 597.92,-433.52 587.36,-434.38 590.2,-440.78"/>
</g>
<!-- Node35&#45;&gt;Node58 -->
<g id="edge53" class="edge">
<title>Node35&#45;&gt;Node58</title>
<path fill="none" stroke="midnightblue" d="M497.36,-470.48C499.22,-461.99 502.12,-448.7 504.5,-437.82"/>
<polygon fill="midnightblue" stroke="midnightblue" points="507.93,-438.53 506.64,-428.01 501.09,-437.03 507.93,-438.53"/>
</g>
<!-- Node36&#45;&gt;Node37 -->
<g id="edge38" class="edge">
<title>Node36&#45;&gt;Node37</title>
<path fill="none" stroke="midnightblue" d="M285.85,-408.85C270.62,-399.87 247.48,-384.67 231.5,-367 215.73,-349.56 202.99,-325.55 195.36,-309.22"/>
<polygon fill="midnightblue" stroke="midnightblue" points="198.39,-307.42 191.09,-299.74 192,-310.29 198.39,-307.42"/>
</g>
<!-- Node37&#45;&gt;Node8 -->
<g id="edge39" class="edge">
<title>Node37&#45;&gt;Node8</title>
<path fill="none" stroke="midnightblue" d="M186.61,-280.23C184.28,-253.26 180.21,-169.82 211.5,-112 218.16,-99.7 229.62,-89.23 240.09,-81.49"/>
<polygon fill="midnightblue" stroke="midnightblue" points="242.29,-84.22 248.52,-75.66 238.31,-78.47 242.29,-84.22"/>
</g>
<!-- Node50&#45;&gt;Node6 -->
<g id="edge41" class="edge">
<title>Node50&#45;&gt;Node6</title>
<path fill="none" stroke="midnightblue" d="M633.99,-403.47C639.58,-386.83 649.93,-358.53 662.5,-336 668.04,-326.06 675.45,-315.76 681.84,-307.53"/>
<polygon fill="midnightblue" stroke="midnightblue" points="684.73,-309.52 688.24,-299.53 679.27,-305.15 684.73,-309.52"/>
</g>
<!-- Node50&#45;&gt;Node16 -->
<g id="edge42" class="edge">
<title>Node50&#45;&gt;Node16</title>
<path fill="none" stroke="midnightblue" d="M652.86,-403.34C688.55,-379.74 750.34,-330.01 728.5,-280 711.32,-240.66 670.43,-209.8 643.91,-193"/>
<polygon fill="midnightblue" stroke="midnightblue" points="645.54,-189.9 635.18,-187.66 641.88,-195.87 645.54,-189.9"/>
</g>
<!-- Node50&#45;&gt;Node30 -->
<g id="edge43" class="edge">
<title>Node50&#45;&gt;Node30</title>
<path fill="none" stroke="midnightblue" d="M587.19,-403.4C552.06,-391.69 502.69,-375.23 469.7,-364.23"/>
<polygon fill="midnightblue" stroke="midnightblue" points="470.61,-360.85 460.02,-361.01 468.4,-367.49 470.61,-360.85"/>
</g>
<!-- Node51 -->
<g id="node29" class="node">
<title>Node51</title>
<g id="a_node29"><a xlink:href="options_8h.html" target="_top" xlink:title="Options.">
<polygon fill="none" stroke="red" points="780.5,-342 780.5,-361 860.5,-361 860.5,-342 780.5,-342"/>
<text text-anchor="middle" x="820.5" y="-349" font-family="Helvetica,sans-Serif" font-size="10.00">util/options.h</text>
</a>
</g>
</g>
<!-- Node50&#45;&gt;Node51 -->
<g id="edge44" class="edge">
<title>Node50&#45;&gt;Node51</title>
<path fill="none" stroke="midnightblue" d="M670.94,-403.4C705.35,-391.69 753.7,-375.23 786.02,-364.23"/>
<polygon fill="midnightblue" stroke="midnightblue" points="787.16,-367.54 795.5,-361.01 784.91,-360.92 787.16,-367.54"/>
</g>
<!-- Node53 -->
<g id="node30" class="node">
<title>Node53</title>
<g id="a_node30"><a xlink:href="goto__program_8h.html" target="_top" xlink:title="Concrete Goto Program.">
<polygon fill="none" stroke="red" points="497,-336.5 497,-366.5 610,-366.5 610,-336.5 497,-336.5"/>
<text text-anchor="start" x="505" y="-354.5" font-family="Helvetica,sans-Serif" font-size="10.00">goto&#45;programs/goto</text>
<text text-anchor="middle" x="553.5" y="-343.5" font-family="Helvetica,sans-Serif" font-size="10.00">_program.h</text>
</a>
</g>
</g>
<!-- Node50&#45;&gt;Node53 -->
<g id="edge47" class="edge">
<title>Node50&#45;&gt;Node53</title>
<path fill="none" stroke="midnightblue" d="M613.01,-403.4C602.65,-394.54 589.12,-382.96 577.57,-373.09"/>
<polygon fill="midnightblue" stroke="midnightblue" points="579.83,-370.42 569.96,-366.58 575.28,-375.74 579.83,-370.42"/>
</g>
<!-- Node51&#45;&gt;Node7 -->
<g id="edge46" class="edge">
<title>Node51&#45;&gt;Node7</title>
<path fill="none" stroke="midnightblue" d="M816.35,-341.98C812.12,-333.32 805.46,-319.65 800.1,-308.65"/>
<polygon fill="midnightblue" stroke="midnightblue" points="803.17,-306.96 795.65,-299.51 796.88,-310.03 803.17,-306.96"/>
</g>
<!-- Node51&#45;&gt;Node11 -->
<g id="edge45" class="edge">
<title>Node51&#45;&gt;Node11</title>
<path fill="none" stroke="midnightblue" d="M822.4,-341.86C826.44,-322.71 835.5,-275.24 835.5,-235 835.5,-235 835.5,-235 835.5,-121 835.5,-87.98 824.15,-77.98 799.5,-56 777.67,-36.53 746.26,-24.78 722.76,-18.19"/>
<polygon fill="midnightblue" stroke="midnightblue" points="723.47,-14.76 712.91,-15.6 721.69,-21.53 723.47,-14.76"/>
</g>
<!-- Node53&#45;&gt;Node6 -->
<g id="edge50" class="edge">
<title>Node53&#45;&gt;Node6</title>
<path fill="none" stroke="midnightblue" d="M587.15,-336.4C610.98,-326.42 642.65,-313.15 665.59,-303.53"/>
<polygon fill="midnightblue" stroke="midnightblue" points="666.97,-306.75 674.84,-299.66 664.26,-300.29 666.97,-306.75"/>
</g>
<!-- Node53&#45;&gt;Node7 -->
<g id="edge51" class="edge">
<title>Node53&#45;&gt;Node7</title>
<path fill="none" stroke="midnightblue" d="M609.6,-336.47C658.76,-324.19 728.01,-306.87 765.29,-297.55"/>
<polygon fill="midnightblue" stroke="midnightblue" points="766.49,-300.86 775.34,-295.04 764.79,-294.07 766.49,-300.86"/>
</g>
<!-- Node53&#45;&gt;Node8 -->
<g id="edge48" class="edge">
<title>Node53&#45;&gt;Node8</title>
<path fill="none" stroke="midnightblue" d="M527.5,-336.29C470.26,-304.61 335.77,-227.85 302.5,-188 277.47,-158.03 268.41,-111.7 265.2,-85.93"/>
<polygon fill="midnightblue" stroke="midnightblue" points="268.65,-85.24 264.1,-75.67 261.69,-85.99 268.65,-85.24"/>
</g>
<!-- Node53&#45;&gt;Node11 -->
<g id="edge52" class="edge">
<title>Node53&#45;&gt;Node11</title>
<path fill="none" stroke="midnightblue" d="M574.64,-336.46C596.48,-322.04 631.64,-299.08 662.5,-280 689.28,-263.45 698.85,-263.58 723.5,-244 754.77,-219.17 785.5,-218.92 785.5,-179 785.5,-179 785.5,-179 785.5,-121 785.5,-77.74 742.89,-43.09 714.75,-24.91"/>
<polygon fill="midnightblue" stroke="midnightblue" points="716.53,-21.9 706.19,-19.6 712.84,-27.85 716.53,-21.9"/>
</g>
<!-- Node53&#45;&gt;Node31 -->
<g id="edge49" class="edge">
<title>Node53&#45;&gt;Node31</title>
<path fill="none" stroke="midnightblue" d="M547.1,-336.4C543.38,-328.2 538.65,-317.78 534.67,-308.99"/>
<polygon fill="midnightblue" stroke="midnightblue" points="537.75,-307.32 530.43,-299.66 531.37,-310.21 537.75,-307.32"/>
</g>
<!-- Node58&#45;&gt;Node53 -->
<g id="edge54" class="edge">
<title>Node58&#45;&gt;Node53</title>
<path fill="none" stroke="midnightblue" d="M514.57,-408.73C520.53,-400.12 529.89,-386.61 537.93,-374.99"/>
<polygon fill="midnightblue" stroke="midnightblue" points="540.93,-376.8 543.75,-366.59 535.18,-372.82 540.93,-376.8"/>
</g>
<!-- Node59 -->
<g id="node32" class="node">
<title>Node59</title>
<g id="a_node32"><a xlink:href="renamed_8h.html" target="_top" xlink:title="Class for expressions or types renamed up to a given level.">
<polygon fill="none" stroke="red" points="240,-342 240,-361 309,-361 309,-342 240,-342"/>
<text text-anchor="middle" x="274.5" y="-349" font-family="Helvetica,sans-Serif" font-size="10.00">renamed.h</text>
</a>
</g>
</g>
<!-- Node58&#45;&gt;Node59 -->
<g id="edge55" class="edge">
<title>Node58&#45;&gt;Node59</title>
<path fill="none" stroke="midnightblue" d="M477.43,-408.87C435.61,-397.25 361.17,-376.58 315.01,-363.75"/>
<polygon fill="midnightblue" stroke="midnightblue" points="315.9,-360.37 305.33,-361.06 314.03,-367.11 315.9,-360.37"/>
</g>
<!-- Node59&#45;&gt;Node37 -->
<g id="edge56" class="edge">
<title>Node59&#45;&gt;Node37</title>
<path fill="none" stroke="midnightblue" d="M262.04,-341.98C248.08,-332.43 225.24,-316.81 208.51,-305.37"/>
<polygon fill="midnightblue" stroke="midnightblue" points="210.17,-302.27 199.94,-299.51 206.22,-308.04 210.17,-302.27"/>
</g>
</g>
</svg>
