<?xml version="1.0" encoding="UTF-8" standalone="no"?>
<!DOCTYPE svg PUBLIC "-//W3C//DTD SVG 1.1//EN"
 "http://www.w3.org/Graphics/SVG/1.1/DTD/svg11.dtd">
<!-- Generated by graphviz version 2.43.0 (0)
 -->
<!-- Title: /home/runner/work/diffblue&#45;cbmc/diffblue&#45;cbmc/src/ansi&#45;c/merged_type.h Pages: 1 -->
<svg width="876pt" height="128pt"
 viewBox="0.00 0.00 876.00 128.00" xmlns="http://www.w3.org/2000/svg" xmlns:xlink="http://www.w3.org/1999/xlink">
<g id="graph0" class="graph" transform="scale(1 1) rotate(0) translate(4 124)">
<title>/home/runner/work/diffblue&#45;cbmc/diffblue&#45;cbmc/src/ansi&#45;c/merged_type.h</title>
<!-- Node1 -->
<g id="node1" class="node">
<title>Node1</title>
<g id="a_node1"><a xlink:title=" ">
<polygon fill="#bfbfbf" stroke="black" points="361,-78.5 361,-119.5 510,-119.5 510,-78.5 361,-78.5"/>
<text text-anchor="start" x="369" y="-107.5" font-family="Helvetica,sans-Serif" font-size="10.00">/home/runner/work/diffblue</text>
<text text-anchor="start" x="369" y="-96.5" font-family="Helvetica,sans-Serif" font-size="10.00">&#45;cbmc/diffblue&#45;cbmc/src</text>
<text text-anchor="middle" x="435.5" y="-85.5" font-family="Helvetica,sans-Serif" font-size="10.00">/ansi&#45;c/merged_type.h</text>
</a>
</g>
</g>
<!-- Node2 -->
<g id="node2" class="node">
<title>Node2</title>
<g id="a_node2"><a xlink:href="ansi__c__declaration_8cpp.html" target="_top" xlink:title="ANSI&#45;C Language Type Checking.">
<polygon fill="none" stroke="black" points="0,-0.5 0,-41.5 163,-41.5 163,-0.5 0,-0.5"/>
<text text-anchor="start" x="8" y="-29.5" font-family="Helvetica,sans-Serif" font-size="10.00">/home/runner/work/diffblue</text>
<text text-anchor="start" x="8" y="-18.5" font-family="Helvetica,sans-Serif" font-size="10.00">&#45;cbmc/diffblue&#45;cbmc/src</text>
<text text-anchor="middle" x="81.5" y="-7.5" font-family="Helvetica,sans-Serif" font-size="10.00">/ansi&#45;c/ansi_c_declaration.cpp</text>
</a>
</g>
</g>
<!-- Node1&#45;&gt;Node2 -->
<g id="edge1" class="edge">
<title>Node1&#45;&gt;Node2</title>
<path fill="none" stroke="midnightblue" d="M351.1,-80.31C299.26,-69.4 231.5,-55.03 171.5,-42 168.84,-41.42 166.14,-40.83 163.41,-40.24"/>
<polygon fill="midnightblue" stroke="midnightblue" points="350.42,-83.75 360.92,-82.38 351.86,-76.9 350.42,-83.75"/>
</g>
<!-- Node3 -->
<g id="node3" class="node">
<title>Node3</title>
<g id="a_node3"><a xlink:href="cpp__declarator_8cpp.html" target="_top" xlink:title="C++ Language Type Checking.">
<polygon fill="none" stroke="black" points="181,-0.5 181,-41.5 330,-41.5 330,-0.5 181,-0.5"/>
<text text-anchor="start" x="189" y="-29.5" font-family="Helvetica,sans-Serif" font-size="10.00">/home/runner/work/diffblue</text>
<text text-anchor="start" x="189" y="-18.5" font-family="Helvetica,sans-Serif" font-size="10.00">&#45;cbmc/diffblue&#45;cbmc/src</text>
<text text-anchor="middle" x="255.5" y="-7.5" font-family="Helvetica,sans-Serif" font-size="10.00">/cpp/cpp_declarator.cpp</text>
</a>
</g>
</g>
<!-- Node1&#45;&gt;Node3 -->
<g id="edge2" class="edge">
<title>Node1&#45;&gt;Node3</title>
<path fill="none" stroke="midnightblue" d="M379.77,-74.47C354.72,-63.89 325.5,-51.56 301.7,-41.51"/>
<polygon fill="midnightblue" stroke="midnightblue" points="378.57,-77.76 389.15,-78.43 381.29,-71.31 378.57,-77.76"/>
</g>
<!-- Node4 -->
<g id="node4" class="node">
<title>Node4</title>
<g id="a_node4"><a xlink:href="cpp__typecheck__resolve_8cpp.html" target="_top" xlink:title="C++ Language Type Checking.">
<polygon fill="none" stroke="black" points="348.5,-0.5 348.5,-41.5 522.5,-41.5 522.5,-0.5 348.5,-0.5"/>
<text text-anchor="start" x="356.5" y="-29.5" font-family="Helvetica,sans-Serif" font-size="10.00">/home/runner/work/diffblue</text>
<text text-anchor="start" x="356.5" y="-18.5" font-family="Helvetica,sans-Serif" font-size="10.00">&#45;cbmc/diffblue&#45;cbmc/src</text>
<text text-anchor="middle" x="435.5" y="-7.5" font-family="Helvetica,sans-Serif" font-size="10.00">/cpp/cpp_typecheck_resolve.cpp</text>
</a>
</g>
</g>
<!-- Node1&#45;&gt;Node4 -->
<g id="edge3" class="edge">
<title>Node1&#45;&gt;Node4</title>
<path fill="none" stroke="midnightblue" d="M435.5,-68.3C435.5,-59.3 435.5,-49.65 435.5,-41.51"/>
<polygon fill="midnightblue" stroke="midnightblue" points="432,-68.43 435.5,-78.43 439,-68.43 432,-68.43"/>
</g>
<!-- Node5 -->
<g id="node5" class="node">
<title>Node5</title>
<g id="a_node5"><a xlink:href="cpp__typecheck__type_8cpp.html" target="_top" xlink:title="C++ Language Type Checking.">
<polygon fill="none" stroke="black" points="540.5,-0.5 540.5,-41.5 700.5,-41.5 700.5,-0.5 540.5,-0.5"/>
<text text-anchor="start" x="548.5" y="-29.5" font-family="Helvetica,sans-Serif" font-size="10.00">/home/runner/work/diffblue</text>
<text text-anchor="start" x="548.5" y="-18.5" font-family="Helvetica,sans-Serif" font-size="10.00">&#45;cbmc/diffblue&#45;cbmc/src</text>
<text text-anchor="middle" x="620.5" y="-7.5" font-family="Helvetica,sans-Serif" font-size="10.00">/cpp/cpp_typecheck_type.cpp</text>
</a>
</g>
</g>
<!-- Node1&#45;&gt;Node5 -->
<g id="edge4" class="edge">
<title>Node1&#45;&gt;Node5</title>
<path fill="none" stroke="midnightblue" d="M492.44,-74.61C518.26,-64 548.44,-51.6 573.02,-41.51"/>
<polygon fill="midnightblue" stroke="midnightblue" points="491.06,-71.39 483.14,-78.43 493.72,-77.87 491.06,-71.39"/>
</g>
<!-- Node6 -->
<g id="node6" class="node">
<title>Node6</title>
<g id="a_node6"><a xlink:href="parse_8cpp.html" target="_top" xlink:title="C++ Language Parsing.">
<polygon fill="none" stroke="black" points="719,-0.5 719,-41.5 868,-41.5 868,-0.5 719,-0.5"/>
<text text-anchor="start" x="727" y="-29.5" font-family="Helvetica,sans-Serif" font-size="10.00">/home/runner/work/diffblue</text>
<text text-anchor="start" x="727" y="-18.5" font-family="Helvetica,sans-Serif" font-size="10.00">&#45;cbmc/diffblue&#45;cbmc/src</text>
<text text-anchor="middle" x="793.5" y="-7.5" font-family="Helvetica,sans-Serif" font-size="10.00">/cpp/parse.cpp</text>
</a>
</g>
</g>
<!-- Node1&#45;&gt;Node6 -->
<g id="edge5" class="edge">
<title>Node1&#45;&gt;Node6</title>
<path fill="none" stroke="midnightblue" d="M519.98,-81.46C574.22,-70.66 646.13,-56.02 709.5,-42 712.57,-41.32 715.71,-40.62 718.87,-39.9"/>
<polygon fill="midnightblue" stroke="midnightblue" points="519.19,-78.05 510.06,-83.43 520.56,-84.92 519.19,-78.05"/>
</g>
</g>
</svg>
