<?xml version="1.0" encoding="UTF-8" standalone="no"?>
<!DOCTYPE svg PUBLIC "-//W3C//DTD SVG 1.1//EN"
 "http://www.w3.org/Graphics/SVG/1.1/DTD/svg11.dtd">
<!-- Generated by graphviz version 2.43.0 (0)
 -->
<!-- Title: /home/runner/work/diffblue&#45;cbmc/diffblue&#45;cbmc/src/langapi/mode.h Pages: 1 -->
<svg width="4745pt" height="139pt"
 viewBox="0.00 0.00 4744.50 139.00" xmlns="http://www.w3.org/2000/svg" xmlns:xlink="http://www.w3.org/1999/xlink">
<g id="graph0" class="graph" transform="scale(1 1) rotate(0) translate(4 135)">
<title>/home/runner/work/diffblue&#45;cbmc/diffblue&#45;cbmc/src/langapi/mode.h</title>
<!-- Node1 -->
<g id="node1" class="node">
<title>Node1</title>
<g id="a_node1"><a xlink:title=" ">
<polygon fill="#bfbfbf" stroke="black" points="2318,-89.5 2318,-130.5 2467,-130.5 2467,-89.5 2318,-89.5"/>
<text text-anchor="start" x="2326" y="-118.5" font-family="Helvetica,sans-Serif" font-size="10.00">/home/runner/work/diffblue</text>
<text text-anchor="start" x="2326" y="-107.5" font-family="Helvetica,sans-Serif" font-size="10.00">&#45;cbmc/diffblue&#45;cbmc/src</text>
<text text-anchor="middle" x="2392.5" y="-96.5" font-family="Helvetica,sans-Serif" font-size="10.00">/langapi/mode.h</text>
</a>
</g>
</g>
<!-- Node2 -->
<g id="node2" class="node">
<title>Node2</title>
<g id="a_node2"><a xlink:href="goto__check__c_8cpp.html" target="_top" xlink:title="Checks for Errors in C/C++ Programs.">
<polygon fill="none" stroke="black" points="0,-0.5 0,-52.5 155,-52.5 155,-0.5 0,-0.5"/>
<text text-anchor="start" x="8" y="-40.5" font-family="Helvetica,sans-Serif" font-size="10.00">/home/runner/work/diffblue</text>
<text text-anchor="start" x="8" y="-29.5" font-family="Helvetica,sans-Serif" font-size="10.00">&#45;cbmc/diffblue&#45;cbmc/src</text>
<text text-anchor="start" x="8" y="-18.5" font-family="Helvetica,sans-Serif" font-size="10.00">/ansi&#45;c/goto&#45;conversion/goto</text>
<text text-anchor="middle" x="77.5" y="-7.5" font-family="Helvetica,sans-Serif" font-size="10.00">_check_c.cpp</text>
</a>
</g>
</g>
<!-- Node1&#45;&gt;Node2 -->
<g id="edge1" class="edge">
<title>Node1&#45;&gt;Node2</title>
<path fill="none" stroke="midnightblue" d="M2307.81,-108.19C1926.46,-104.36 377.82,-86.86 163.5,-53 160.73,-52.56 157.93,-52.06 155.1,-51.51"/>
<polygon fill="midnightblue" stroke="midnightblue" points="2307.92,-111.69 2317.95,-108.29 2307.99,-104.69 2307.92,-111.69"/>
</g>
<!-- Node3 -->
<g id="node3" class="node">
<title>Node3</title>
<g id="a_node3"><a xlink:href="cbmc__languages_8cpp.html" target="_top" xlink:title="Language Registration.">
<polygon fill="none" stroke="black" points="173,-6 173,-47 324,-47 324,-6 173,-6"/>
<text text-anchor="start" x="181" y="-35" font-family="Helvetica,sans-Serif" font-size="10.00">/home/runner/work/diffblue</text>
<text text-anchor="start" x="181" y="-24" font-family="Helvetica,sans-Serif" font-size="10.00">&#45;cbmc/diffblue&#45;cbmc/src</text>
<text text-anchor="middle" x="248.5" y="-13" font-family="Helvetica,sans-Serif" font-size="10.00">/cbmc/cbmc_languages.cpp</text>
</a>
</g>
</g>
<!-- Node1&#45;&gt;Node3 -->
<g id="edge2" class="edge">
<title>Node1&#45;&gt;Node3</title>
<path fill="none" stroke="midnightblue" d="M2307.75,-108.03C1944.59,-103.71 529.25,-84.94 332.5,-53 323.62,-51.56 314.38,-49.43 305.4,-47"/>
<polygon fill="midnightblue" stroke="midnightblue" points="2307.89,-111.54 2317.93,-108.15 2307.98,-104.54 2307.89,-111.54"/>
</g>
<!-- Node4 -->
<g id="node4" class="node">
<title>Node4</title>
<g id="a_node4"><a xlink:href="cbmc__parse__options_8cpp.html" target="_top" xlink:title="CBMC Command Line Option Processing.">
<polygon fill="none" stroke="black" points="342,-6 342,-47 511,-47 511,-6 342,-6"/>
<text text-anchor="start" x="350" y="-35" font-family="Helvetica,sans-Serif" font-size="10.00">/home/runner/work/diffblue</text>
<text text-anchor="start" x="350" y="-24" font-family="Helvetica,sans-Serif" font-size="10.00">&#45;cbmc/diffblue&#45;cbmc/src</text>
<text text-anchor="middle" x="426.5" y="-13" font-family="Helvetica,sans-Serif" font-size="10.00">/cbmc/cbmc_parse_options.cpp</text>
</a>
</g>
</g>
<!-- Node1&#45;&gt;Node4 -->
<g id="edge3" class="edge">
<title>Node1&#45;&gt;Node4</title>
<path fill="none" stroke="midnightblue" d="M2307.74,-109.11C1990.35,-109.09 872.37,-105.25 520.5,-53 510.72,-51.55 500.49,-49.43 490.55,-47.02"/>
<polygon fill="midnightblue" stroke="midnightblue" points="2307.8,-112.61 2317.79,-109.1 2307.79,-105.61 2307.8,-112.61"/>
</g>
<!-- Node5 -->
<g id="node5" class="node">
<title>Node5</title>
<g id="a_node5"><a xlink:href="cprover__parse__options_8cpp.html" target="_top" xlink:title="cprover Command Line Options Processing">
<polygon fill="none" stroke="black" points="529.5,-6 529.5,-47 719.5,-47 719.5,-6 529.5,-6"/>
<text text-anchor="start" x="537.5" y="-35" font-family="Helvetica,sans-Serif" font-size="10.00">/home/runner/work/diffblue</text>
<text text-anchor="start" x="537.5" y="-24" font-family="Helvetica,sans-Serif" font-size="10.00">&#45;cbmc/diffblue&#45;cbmc/src</text>
<text text-anchor="middle" x="624.5" y="-13" font-family="Helvetica,sans-Serif" font-size="10.00">/cprover/cprover_parse_options.cpp</text>
</a>
</g>
</g>
<!-- Node1&#45;&gt;Node5 -->
<g id="edge4" class="edge">
<title>Node1&#45;&gt;Node5</title>
<path fill="none" stroke="midnightblue" d="M2307.75,-108.46C2013.67,-106.24 1038.37,-95.73 728.5,-53 717.82,-51.53 706.64,-49.41 695.73,-47.02"/>
<polygon fill="midnightblue" stroke="midnightblue" points="2307.89,-111.96 2317.92,-108.54 2307.94,-104.96 2307.89,-111.96"/>
</g>
<!-- Node6 -->
<g id="node6" class="node">
<title>Node6</title>
<g id="a_node6"><a xlink:href="goto__analyzer__languages_8cpp.html" target="_top" xlink:title="Language Registration.">
<polygon fill="none" stroke="black" points="738,-0.5 738,-52.5 897,-52.5 897,-0.5 738,-0.5"/>
<text text-anchor="start" x="746" y="-40.5" font-family="Helvetica,sans-Serif" font-size="10.00">/home/runner/work/diffblue</text>
<text text-anchor="start" x="746" y="-29.5" font-family="Helvetica,sans-Serif" font-size="10.00">&#45;cbmc/diffblue&#45;cbmc/src</text>
<text text-anchor="start" x="746" y="-18.5" font-family="Helvetica,sans-Serif" font-size="10.00">/goto&#45;analyzer/goto_analyzer</text>
<text text-anchor="middle" x="817.5" y="-7.5" font-family="Helvetica,sans-Serif" font-size="10.00">_languages.cpp</text>
</a>
</g>
</g>
<!-- Node1&#45;&gt;Node6 -->
<g id="edge5" class="edge">
<title>Node1&#45;&gt;Node6</title>
<path fill="none" stroke="midnightblue" d="M2307.59,-108.53C2034.14,-106.57 1178.4,-97 905.5,-53 902.83,-52.57 900.13,-52.08 897.41,-51.55"/>
<polygon fill="midnightblue" stroke="midnightblue" points="2307.82,-112.03 2317.85,-108.6 2307.87,-105.03 2307.82,-112.03"/>
</g>
<!-- Node7 -->
<g id="node7" class="node">
<title>Node7</title>
<g id="a_node7"><a xlink:href="compile_8cpp.html" target="_top" xlink:title="Compile and link source and object files.">
<polygon fill="none" stroke="black" points="915,-6 915,-47 1064,-47 1064,-6 915,-6"/>
<text text-anchor="start" x="923" y="-35" font-family="Helvetica,sans-Serif" font-size="10.00">/home/runner/work/diffblue</text>
<text text-anchor="start" x="923" y="-24" font-family="Helvetica,sans-Serif" font-size="10.00">&#45;cbmc/diffblue&#45;cbmc/src</text>
<text text-anchor="middle" x="989.5" y="-13" font-family="Helvetica,sans-Serif" font-size="10.00">/goto&#45;cc/compile.cpp</text>
</a>
</g>
</g>
<!-- Node1&#45;&gt;Node7 -->
<g id="edge6" class="edge">
<title>Node1&#45;&gt;Node7</title>
<path fill="none" stroke="midnightblue" d="M2307.37,-108.19C2054.74,-105.33 1312.1,-93.61 1073.5,-53 1064.79,-51.52 1055.71,-49.4 1046.88,-47"/>
<polygon fill="midnightblue" stroke="midnightblue" points="2307.55,-111.69 2317.59,-108.3 2307.63,-104.69 2307.55,-111.69"/>
</g>
<!-- Node8 -->
<g id="node8" class="node">
<title>Node8</title>
<g id="a_node8"><a xlink:href="goto__cc__languages_8cpp.html" target="_top" xlink:title="Language Registration.">
<polygon fill="none" stroke="black" points="1082.5,-6 1082.5,-47 1254.5,-47 1254.5,-6 1082.5,-6"/>
<text text-anchor="start" x="1090.5" y="-35" font-family="Helvetica,sans-Serif" font-size="10.00">/home/runner/work/diffblue</text>
<text text-anchor="start" x="1090.5" y="-24" font-family="Helvetica,sans-Serif" font-size="10.00">&#45;cbmc/diffblue&#45;cbmc/src</text>
<text text-anchor="middle" x="1168.5" y="-13" font-family="Helvetica,sans-Serif" font-size="10.00">/goto&#45;cc/goto_cc_languages.cpp</text>
</a>
</g>
</g>
<!-- Node1&#45;&gt;Node8 -->
<g id="edge7" class="edge">
<title>Node1&#45;&gt;Node8</title>
<path fill="none" stroke="midnightblue" d="M2307.74,-107.13C2081.07,-101.76 1464.58,-84.6 1263.5,-53 1253.88,-51.49 1243.84,-49.39 1234.04,-47.03"/>
<polygon fill="midnightblue" stroke="midnightblue" points="2307.83,-110.63 2317.91,-107.37 2307.99,-103.64 2307.83,-110.63"/>
</g>
<!-- Node9 -->
<g id="node9" class="node">
<title>Node9</title>
<g id="a_node9"><a xlink:href="goto__diff__languages_8cpp.html" target="_top" xlink:title="Language Registration.">
<polygon fill="none" stroke="black" points="1272.5,-6 1272.5,-47 1454.5,-47 1454.5,-6 1272.5,-6"/>
<text text-anchor="start" x="1280.5" y="-35" font-family="Helvetica,sans-Serif" font-size="10.00">/home/runner/work/diffblue</text>
<text text-anchor="start" x="1280.5" y="-24" font-family="Helvetica,sans-Serif" font-size="10.00">&#45;cbmc/diffblue&#45;cbmc/src</text>
<text text-anchor="middle" x="1363.5" y="-13" font-family="Helvetica,sans-Serif" font-size="10.00">/goto&#45;diff/goto_diff_languages.cpp</text>
</a>
</g>
</g>
<!-- Node1&#45;&gt;Node9 -->
<g id="edge8" class="edge">
<title>Node1&#45;&gt;Node9</title>
<path fill="none" stroke="midnightblue" d="M2307.91,-109.24C2143.96,-108.53 1771.94,-101.18 1463.5,-53 1453.59,-51.45 1443.23,-49.36 1433.09,-47.04"/>
<polygon fill="midnightblue" stroke="midnightblue" points="2307.92,-112.74 2317.93,-109.28 2307.94,-105.74 2307.92,-112.74"/>
</g>
<!-- Node10 -->
<g id="node10" class="node">
<title>Node10</title>
<g id="a_node10"><a xlink:href="dfcc_8cpp.html" target="_top" xlink:title=" ">
<polygon fill="none" stroke="black" points="1473,-0.5 1473,-52.5 1622,-52.5 1622,-0.5 1473,-0.5"/>
<text text-anchor="start" x="1481" y="-40.5" font-family="Helvetica,sans-Serif" font-size="10.00">/home/runner/work/diffblue</text>
<text text-anchor="start" x="1481" y="-29.5" font-family="Helvetica,sans-Serif" font-size="10.00">&#45;cbmc/diffblue&#45;cbmc/src</text>
<text text-anchor="start" x="1481" y="-18.5" font-family="Helvetica,sans-Serif" font-size="10.00">/goto&#45;instrument/contracts</text>
<text text-anchor="middle" x="1547.5" y="-7.5" font-family="Helvetica,sans-Serif" font-size="10.00">/dynamic&#45;frames/dfcc.cpp</text>
</a>
</g>
</g>
<!-- Node1&#45;&gt;Node10 -->
<g id="edge9" class="edge">
<title>Node1&#45;&gt;Node10</title>
<path fill="none" stroke="midnightblue" d="M2307.47,-108.85C2165.99,-107.24 1873.86,-98.13 1631.5,-53 1628.5,-52.44 1625.46,-51.82 1622.4,-51.13"/>
<polygon fill="midnightblue" stroke="midnightblue" points="2307.77,-112.35 2317.8,-108.96 2307.84,-105.35 2307.77,-112.35"/>
</g>
<!-- Node11 -->
<g id="node11" class="node">
<title>Node11</title>
<g id="a_node11"><a xlink:href="goto__instrument__languages_8cpp.html" target="_top" xlink:title="Language Registration.">
<polygon fill="none" stroke="black" points="1640.5,-0.5 1640.5,-52.5 1822.5,-52.5 1822.5,-0.5 1640.5,-0.5"/>
<text text-anchor="start" x="1648.5" y="-40.5" font-family="Helvetica,sans-Serif" font-size="10.00">/home/runner/work/diffblue</text>
<text text-anchor="start" x="1648.5" y="-29.5" font-family="Helvetica,sans-Serif" font-size="10.00">&#45;cbmc/diffblue&#45;cbmc/src</text>
<text text-anchor="start" x="1648.5" y="-18.5" font-family="Helvetica,sans-Serif" font-size="10.00">/goto&#45;instrument/goto_instrument</text>
<text text-anchor="middle" x="1731.5" y="-7.5" font-family="Helvetica,sans-Serif" font-size="10.00">_languages.cpp</text>
</a>
</g>
</g>
<!-- Node1&#45;&gt;Node11 -->
<g id="edge10" class="edge">
<title>Node1&#45;&gt;Node11</title>
<path fill="none" stroke="midnightblue" d="M2307.52,-104.5C2197.16,-97.75 1998.82,-82.51 1831.5,-53 1828.59,-52.49 1825.64,-51.93 1822.66,-51.35"/>
<polygon fill="midnightblue" stroke="midnightblue" points="2307.41,-108 2317.6,-105.11 2307.83,-101.01 2307.41,-108"/>
</g>
<!-- Node12 -->
<g id="node12" class="node">
<title>Node12</title>
<g id="a_node12"><a xlink:href="graphml__witness_8cpp.html" target="_top" xlink:title="Witnesses for Traces and Proofs.">
<polygon fill="none" stroke="black" points="1840.5,-6 1840.5,-47 2038.5,-47 2038.5,-6 1840.5,-6"/>
<text text-anchor="start" x="1848.5" y="-35" font-family="Helvetica,sans-Serif" font-size="10.00">/home/runner/work/diffblue</text>
<text text-anchor="start" x="1848.5" y="-24" font-family="Helvetica,sans-Serif" font-size="10.00">&#45;cbmc/diffblue&#45;cbmc/src</text>
<text text-anchor="middle" x="1939.5" y="-13" font-family="Helvetica,sans-Serif" font-size="10.00">/goto&#45;programs/graphml_witness.cpp</text>
</a>
</g>
</g>
<!-- Node1&#45;&gt;Node12 -->
<g id="edge11" class="edge">
<title>Node1&#45;&gt;Node12</title>
<path fill="none" stroke="midnightblue" d="M2307.77,-96.96C2237.74,-86.6 2135.85,-70.58 2047.5,-53 2038.34,-51.18 2028.77,-49.13 2019.28,-47.01"/>
<polygon fill="midnightblue" stroke="midnightblue" points="2307.46,-100.45 2317.86,-98.45 2308.48,-93.53 2307.46,-100.45"/>
</g>
<!-- Node13 -->
<g id="node13" class="node">
<title>Node13</title>
<g id="a_node13"><a xlink:href="initialize__goto__model_8cpp.html" target="_top" xlink:title="Get a Goto Program.">
<polygon fill="none" stroke="black" points="2057,-0.5 2057,-52.5 2206,-52.5 2206,-0.5 2057,-0.5"/>
<text text-anchor="start" x="2065" y="-40.5" font-family="Helvetica,sans-Serif" font-size="10.00">/home/runner/work/diffblue</text>
<text text-anchor="start" x="2065" y="-29.5" font-family="Helvetica,sans-Serif" font-size="10.00">&#45;cbmc/diffblue&#45;cbmc/src</text>
<text text-anchor="start" x="2065" y="-18.5" font-family="Helvetica,sans-Serif" font-size="10.00">/goto&#45;programs/initialize</text>
<text text-anchor="middle" x="2131.5" y="-7.5" font-family="Helvetica,sans-Serif" font-size="10.00">_goto_model.cpp</text>
</a>
</g>
</g>
<!-- Node1&#45;&gt;Node13 -->
<g id="edge12" class="edge">
<title>Node1&#45;&gt;Node13</title>
<path fill="none" stroke="midnightblue" d="M2320.17,-86.41C2284.63,-75.32 2241.86,-61.96 2206.04,-50.77"/>
<polygon fill="midnightblue" stroke="midnightblue" points="2319.4,-89.84 2329.98,-89.48 2321.48,-83.16 2319.4,-89.84"/>
</g>
<!-- Node14 -->
<g id="node14" class="node">
<title>Node14</title>
<g id="a_node14"><a xlink:href="json__expr_8cpp.html" target="_top" xlink:title="Expressions in JSON.">
<polygon fill="none" stroke="black" points="2224,-6 2224,-47 2385,-47 2385,-6 2224,-6"/>
<text text-anchor="start" x="2232" y="-35" font-family="Helvetica,sans-Serif" font-size="10.00">/home/runner/work/diffblue</text>
<text text-anchor="start" x="2232" y="-24" font-family="Helvetica,sans-Serif" font-size="10.00">&#45;cbmc/diffblue&#45;cbmc/src</text>
<text text-anchor="middle" x="2304.5" y="-13" font-family="Helvetica,sans-Serif" font-size="10.00">/goto&#45;programs/json_expr.cpp</text>
</a>
</g>
</g>
<!-- Node1&#45;&gt;Node14 -->
<g id="edge13" class="edge">
<title>Node1&#45;&gt;Node14</title>
<path fill="none" stroke="midnightblue" d="M2363.74,-82.36C2351.31,-70.85 2337.03,-57.63 2325.61,-47.05"/>
<polygon fill="midnightblue" stroke="midnightblue" points="2361.48,-85.04 2371.2,-89.27 2366.24,-79.91 2361.48,-85.04"/>
</g>
<!-- Node15 -->
<g id="node15" class="node">
<title>Node15</title>
<g id="a_node15"><a xlink:href="rebuild__goto__start__function_8cpp.html" target="_top" xlink:title="Goto Programs Author: Thomas Kiley, thomas@diffblue.com.">
<polygon fill="none" stroke="black" points="2403,-0.5 2403,-52.5 2558,-52.5 2558,-0.5 2403,-0.5"/>
<text text-anchor="start" x="2411" y="-40.5" font-family="Helvetica,sans-Serif" font-size="10.00">/home/runner/work/diffblue</text>
<text text-anchor="start" x="2411" y="-29.5" font-family="Helvetica,sans-Serif" font-size="10.00">&#45;cbmc/diffblue&#45;cbmc/src</text>
<text text-anchor="start" x="2411" y="-18.5" font-family="Helvetica,sans-Serif" font-size="10.00">/goto&#45;programs/rebuild_goto</text>
<text text-anchor="middle" x="2480.5" y="-7.5" font-family="Helvetica,sans-Serif" font-size="10.00">_start_function.cpp</text>
</a>
</g>
</g>
<!-- Node1&#45;&gt;Node15 -->
<g id="edge14" class="edge">
<title>Node1&#45;&gt;Node15</title>
<path fill="none" stroke="midnightblue" d="M2421.39,-82.24C2431.69,-72.71 2443.25,-62 2453.39,-52.61"/>
<polygon fill="midnightblue" stroke="midnightblue" points="2418.76,-79.91 2413.8,-89.27 2423.52,-85.04 2418.76,-79.91"/>
</g>
<!-- Node16 -->
<g id="node16" class="node">
<title>Node16</title>
<g id="a_node16"><a xlink:href="show__symbol__table_8cpp.html" target="_top" xlink:title="Show the symbol table.">
<polygon fill="none" stroke="black" points="2576,-0.5 2576,-52.5 2737,-52.5 2737,-0.5 2576,-0.5"/>
<text text-anchor="start" x="2584" y="-40.5" font-family="Helvetica,sans-Serif" font-size="10.00">/home/runner/work/diffblue</text>
<text text-anchor="start" x="2584" y="-29.5" font-family="Helvetica,sans-Serif" font-size="10.00">&#45;cbmc/diffblue&#45;cbmc/src</text>
<text text-anchor="start" x="2584" y="-18.5" font-family="Helvetica,sans-Serif" font-size="10.00">/goto&#45;programs/show_symbol</text>
<text text-anchor="middle" x="2656.5" y="-7.5" font-family="Helvetica,sans-Serif" font-size="10.00">_table.cpp</text>
</a>
</g>
</g>
<!-- Node1&#45;&gt;Node16 -->
<g id="edge15" class="edge">
<title>Node1&#45;&gt;Node16</title>
<path fill="none" stroke="midnightblue" d="M2465.66,-86.42C2499.85,-75.86 2540.67,-63.26 2575.76,-52.43"/>
<polygon fill="midnightblue" stroke="midnightblue" points="2464.26,-83.18 2455.73,-89.48 2466.32,-89.87 2464.26,-83.18"/>
</g>
<!-- Node17 -->
<g id="node17" class="node">
<title>Node17</title>
<g id="a_node17"><a xlink:href="goto__synthesizer__languages_8cpp.html" target="_top" xlink:title="Language Registration.">
<polygon fill="none" stroke="black" points="2755.5,-0.5 2755.5,-52.5 2943.5,-52.5 2943.5,-0.5 2755.5,-0.5"/>
<text text-anchor="start" x="2763.5" y="-40.5" font-family="Helvetica,sans-Serif" font-size="10.00">/home/runner/work/diffblue</text>
<text text-anchor="start" x="2763.5" y="-29.5" font-family="Helvetica,sans-Serif" font-size="10.00">&#45;cbmc/diffblue&#45;cbmc/src</text>
<text text-anchor="start" x="2763.5" y="-18.5" font-family="Helvetica,sans-Serif" font-size="10.00">/goto&#45;synthesizer/goto_synthesizer</text>
<text text-anchor="middle" x="2849.5" y="-7.5" font-family="Helvetica,sans-Serif" font-size="10.00">_languages.cpp</text>
</a>
</g>
</g>
<!-- Node1&#45;&gt;Node17 -->
<g id="edge16" class="edge">
<title>Node1&#45;&gt;Node17</title>
<path fill="none" stroke="midnightblue" d="M2477,-97.71C2548.95,-87.61 2654.91,-71.55 2746.5,-53 2749.39,-52.42 2752.32,-51.8 2755.27,-51.17"/>
<polygon fill="midnightblue" stroke="midnightblue" points="2476.5,-94.25 2467.08,-99.1 2477.47,-101.18 2476.5,-94.25"/>
</g>
<!-- Node18 -->
<g id="node18" class="node">
<title>Node18</title>
<g id="a_node18"><a xlink:href="language__util_8cpp.html" target="_top" xlink:title=" ">
<polygon fill="none" stroke="black" points="2962,-6 2962,-47 3111,-47 3111,-6 2962,-6"/>
<text text-anchor="start" x="2970" y="-35" font-family="Helvetica,sans-Serif" font-size="10.00">/home/runner/work/diffblue</text>
<text text-anchor="start" x="2970" y="-24" font-family="Helvetica,sans-Serif" font-size="10.00">&#45;cbmc/diffblue&#45;cbmc/src</text>
<text text-anchor="middle" x="3036.5" y="-13" font-family="Helvetica,sans-Serif" font-size="10.00">/langapi/language_util.cpp</text>
</a>
</g>
</g>
<!-- Node1&#45;&gt;Node18 -->
<g id="edge17" class="edge">
<title>Node1&#45;&gt;Node18</title>
<path fill="none" stroke="midnightblue" d="M2477.08,-105.68C2587.4,-100.18 2785.95,-86.28 2952.5,-53 2960.57,-51.39 2968.97,-49.32 2977.21,-47.06"/>
<polygon fill="midnightblue" stroke="midnightblue" points="2476.83,-102.19 2467.01,-106.17 2477.17,-109.18 2476.83,-102.19"/>
</g>
<!-- Node19 -->
<g id="node19" class="node">
<title>Node19</title>
<g id="a_node19"><a xlink:href="mode_8cpp.html" target="_top" xlink:title=" ">
<polygon fill="none" stroke="black" points="3129,-6 3129,-47 3278,-47 3278,-6 3129,-6"/>
<text text-anchor="start" x="3137" y="-35" font-family="Helvetica,sans-Serif" font-size="10.00">/home/runner/work/diffblue</text>
<text text-anchor="start" x="3137" y="-24" font-family="Helvetica,sans-Serif" font-size="10.00">&#45;cbmc/diffblue&#45;cbmc/src</text>
<text text-anchor="middle" x="3203.5" y="-13" font-family="Helvetica,sans-Serif" font-size="10.00">/langapi/mode.cpp</text>
</a>
</g>
</g>
<!-- Node1&#45;&gt;Node19 -->
<g id="edge18" class="edge">
<title>Node1&#45;&gt;Node19</title>
<path fill="none" stroke="midnightblue" d="M2477.49,-108.53C2614.18,-106.42 2890.79,-96.56 3120.5,-53 3128.65,-51.46 3137.12,-49.4 3145.41,-47.12"/>
<polygon fill="midnightblue" stroke="midnightblue" points="2477.05,-105.04 2467.1,-108.68 2477.15,-112.04 2477.05,-105.04"/>
</g>
<!-- Node20 -->
<g id="node20" class="node">
<title>Node20</title>
<g id="a_node20"><a xlink:href="api_8cpp.html" target="_top" xlink:title=" ">
<polygon fill="none" stroke="black" points="3296,-6 3296,-47 3445,-47 3445,-6 3296,-6"/>
<text text-anchor="start" x="3304" y="-35" font-family="Helvetica,sans-Serif" font-size="10.00">/home/runner/work/diffblue</text>
<text text-anchor="start" x="3304" y="-24" font-family="Helvetica,sans-Serif" font-size="10.00">&#45;cbmc/diffblue&#45;cbmc/src</text>
<text text-anchor="middle" x="3370.5" y="-13" font-family="Helvetica,sans-Serif" font-size="10.00">/libcprover&#45;cpp/api.cpp</text>
</a>
</g>
</g>
<!-- Node1&#45;&gt;Node20 -->
<g id="edge19" class="edge">
<title>Node1&#45;&gt;Node20</title>
<path fill="none" stroke="midnightblue" d="M2477.29,-106.24C2669.49,-99.58 3133.55,-81.06 3287.5,-53 3295.8,-51.49 3304.45,-49.41 3312.88,-47.1"/>
<polygon fill="midnightblue" stroke="midnightblue" points="2477.11,-102.75 2467.23,-106.59 2477.35,-109.74 2477.11,-102.75"/>
</g>
<!-- Node21 -->
<g id="node21" class="node">
<title>Node21</title>
<g id="a_node21"><a xlink:href="memory__analyzer__parse__options_8cpp.html" target="_top" xlink:title="Commandline parser for the memory analyzer executing main work.">
<polygon fill="none" stroke="black" points="3463.5,-0.5 3463.5,-52.5 3661.5,-52.5 3661.5,-0.5 3463.5,-0.5"/>
<text text-anchor="start" x="3471.5" y="-40.5" font-family="Helvetica,sans-Serif" font-size="10.00">/home/runner/work/diffblue</text>
<text text-anchor="start" x="3471.5" y="-29.5" font-family="Helvetica,sans-Serif" font-size="10.00">&#45;cbmc/diffblue&#45;cbmc/src</text>
<text text-anchor="start" x="3471.5" y="-18.5" font-family="Helvetica,sans-Serif" font-size="10.00">/memory&#45;analyzer/memory_analyzer</text>
<text text-anchor="middle" x="3562.5" y="-7.5" font-family="Helvetica,sans-Serif" font-size="10.00">_parse_options.cpp</text>
</a>
</g>
</g>
<!-- Node1&#45;&gt;Node21 -->
<g id="edge20" class="edge">
<title>Node1&#45;&gt;Node21</title>
<path fill="none" stroke="midnightblue" d="M2477.54,-109.66C2658.34,-109.95 3093.91,-104.65 3454.5,-53 3457.46,-52.58 3460.45,-52.11 3463.47,-51.61"/>
<polygon fill="midnightblue" stroke="midnightblue" points="2477.31,-106.16 2467.3,-109.64 2477.29,-113.16 2477.31,-106.16"/>
</g>
<!-- Node22 -->
<g id="node22" class="node">
<title>Node22</title>
<g id="a_node22"><a xlink:href="symtab2gb__parse__options_8cpp.html" target="_top" xlink:title=" ">
<polygon fill="none" stroke="black" points="3679.5,-0.5 3679.5,-52.5 3843.5,-52.5 3843.5,-0.5 3679.5,-0.5"/>
<text text-anchor="start" x="3687.5" y="-40.5" font-family="Helvetica,sans-Serif" font-size="10.00">/home/runner/work/diffblue</text>
<text text-anchor="start" x="3687.5" y="-29.5" font-family="Helvetica,sans-Serif" font-size="10.00">&#45;cbmc/diffblue&#45;cbmc/src</text>
<text text-anchor="start" x="3687.5" y="-18.5" font-family="Helvetica,sans-Serif" font-size="10.00">/symtab2gb/symtab2gb_parse</text>
<text text-anchor="middle" x="3761.5" y="-7.5" font-family="Helvetica,sans-Serif" font-size="10.00">_options.cpp</text>
</a>
</g>
</g>
<!-- Node1&#45;&gt;Node22 -->
<g id="edge21" class="edge">
<title>Node1&#45;&gt;Node22</title>
<path fill="none" stroke="midnightblue" d="M2477.47,-107.82C2724.53,-103.97 3439.71,-89.89 3670.5,-53 3673.42,-52.53 3676.37,-52.01 3679.35,-51.43"/>
<polygon fill="midnightblue" stroke="midnightblue" points="2477.06,-104.32 2467.12,-107.98 2477.17,-111.32 2477.06,-104.32"/>
</g>
<!-- Node23 -->
<g id="node23" class="node">
<title>Node23</title>
<g id="a_node23"><a xlink:href="janalyzer__parse__options_8cpp.html" target="_top" xlink:title="JANALYZER Command Line Option Processing.">
<polygon fill="none" stroke="black" points="3862,-0.5 3862,-52.5 4011,-52.5 4011,-0.5 3862,-0.5"/>
<text text-anchor="start" x="3870" y="-40.5" font-family="Helvetica,sans-Serif" font-size="10.00">/home/runner/work/diffblue</text>
<text text-anchor="start" x="3870" y="-29.5" font-family="Helvetica,sans-Serif" font-size="10.00">&#45;cbmc/diffblue&#45;cbmc/jbmc</text>
<text text-anchor="start" x="3870" y="-18.5" font-family="Helvetica,sans-Serif" font-size="10.00">/src/janalyzer/janalyzer</text>
<text text-anchor="middle" x="3936.5" y="-7.5" font-family="Helvetica,sans-Serif" font-size="10.00">_parse_options.cpp</text>
</a>
</g>
</g>
<!-- Node1&#45;&gt;Node23 -->
<g id="edge22" class="edge">
<title>Node1&#45;&gt;Node23</title>
<path fill="none" stroke="midnightblue" d="M2477.29,-108.6C2747.36,-106.86 3585.31,-97.91 3852.5,-53 3855.51,-52.49 3858.55,-51.91 3861.62,-51.27"/>
<polygon fill="midnightblue" stroke="midnightblue" points="2477.14,-105.1 2467.16,-108.66 2477.18,-112.1 2477.14,-105.1"/>
</g>
<!-- Node24 -->
<g id="node24" class="node">
<title>Node24</title>
<g id="a_node24"><a xlink:href="lazy__goto__model_8cpp.html" target="_top" xlink:title="Author: Diffblue Ltd.">
<polygon fill="none" stroke="black" points="4028.5,-0.5 4028.5,-52.5 4186.5,-52.5 4186.5,-0.5 4028.5,-0.5"/>
<text text-anchor="start" x="4036.5" y="-40.5" font-family="Helvetica,sans-Serif" font-size="10.00">/home/runner/work/diffblue</text>
<text text-anchor="start" x="4036.5" y="-29.5" font-family="Helvetica,sans-Serif" font-size="10.00">&#45;cbmc/diffblue&#45;cbmc/jbmc</text>
<text text-anchor="start" x="4036.5" y="-18.5" font-family="Helvetica,sans-Serif" font-size="10.00">/src/java_bytecode/lazy_goto</text>
<text text-anchor="middle" x="4107.5" y="-7.5" font-family="Helvetica,sans-Serif" font-size="10.00">_model.cpp</text>
</a>
</g>
</g>
<!-- Node1&#45;&gt;Node24 -->
<g id="edge23" class="edge">
<title>Node1&#45;&gt;Node24</title>
<path fill="none" stroke="midnightblue" d="M2477.48,-108.88C2767.81,-108.05 3719.04,-101.57 4020.5,-53 4022.99,-52.6 4025.5,-52.15 4028.03,-51.66"/>
<polygon fill="midnightblue" stroke="midnightblue" points="2477.42,-105.38 2467.43,-108.91 2477.44,-112.38 2477.42,-105.38"/>
</g>
<!-- Node25 -->
<g id="node25" class="node">
<title>Node25</title>
<g id="a_node25"><a xlink:href="jbmc__parse__options_8cpp.html" target="_top" xlink:title="JBMC Command Line Option Processing.">
<polygon fill="none" stroke="black" points="4204.5,-6 4204.5,-47 4386.5,-47 4386.5,-6 4204.5,-6"/>
<text text-anchor="start" x="4212.5" y="-35" font-family="Helvetica,sans-Serif" font-size="10.00">/home/runner/work/diffblue</text>
<text text-anchor="start" x="4212.5" y="-24" font-family="Helvetica,sans-Serif" font-size="10.00">&#45;cbmc/diffblue&#45;cbmc/jbmc</text>
<text text-anchor="middle" x="4295.5" y="-13" font-family="Helvetica,sans-Serif" font-size="10.00">/src/jbmc/jbmc_parse_options.cpp</text>
</a>
</g>
</g>
<!-- Node1&#45;&gt;Node25 -->
<g id="edge24" class="edge">
<title>Node1&#45;&gt;Node25</title>
<path fill="none" stroke="midnightblue" d="M2477.44,-108.82C2787.46,-107.79 3857.46,-100.76 4195.5,-53 4205.79,-51.55 4216.55,-49.44 4227.04,-47.06"/>
<polygon fill="midnightblue" stroke="midnightblue" points="2477.16,-105.32 2467.18,-108.85 2477.19,-112.32 2477.16,-105.32"/>
</g>
<!-- Node26 -->
<g id="node26" class="node">
<title>Node26</title>
<g id="a_node26"><a xlink:href="jdiff__languages_8cpp.html" target="_top" xlink:title="Language Registration.">
<polygon fill="none" stroke="black" points="4405,-6 4405,-47 4558,-47 4558,-6 4405,-6"/>
<text text-anchor="start" x="4413" y="-35" font-family="Helvetica,sans-Serif" font-size="10.00">/home/runner/work/diffblue</text>
<text text-anchor="start" x="4413" y="-24" font-family="Helvetica,sans-Serif" font-size="10.00">&#45;cbmc/diffblue&#45;cbmc/jbmc</text>
<text text-anchor="middle" x="4481.5" y="-13" font-family="Helvetica,sans-Serif" font-size="10.00">/src/jdiff/jdiff_languages.cpp</text>
</a>
</g>
</g>
<!-- Node1&#45;&gt;Node26 -->
<g id="edge25" class="edge">
<title>Node1&#45;&gt;Node26</title>
<path fill="none" stroke="midnightblue" d="M2477.27,-107.93C2834.11,-103.25 4204.52,-83.45 4395.5,-53 4404.42,-51.58 4413.71,-49.49 4422.75,-47.11"/>
<polygon fill="midnightblue" stroke="midnightblue" points="2477.21,-104.43 2467.26,-108.06 2477.3,-111.43 2477.21,-104.43"/>
</g>
<!-- Node27 -->
<g id="node27" class="node">
<title>Node27</title>
<g id="a_node27"><a xlink:href="get__goto__model__from__c_8cpp.html" target="_top" xlink:title=" ">
<polygon fill="none" stroke="black" points="4576.5,-0.5 4576.5,-52.5 4736.5,-52.5 4736.5,-0.5 4576.5,-0.5"/>
<text text-anchor="start" x="4584.5" y="-40.5" font-family="Helvetica,sans-Serif" font-size="10.00">/home/runner/work/diffblue</text>
<text text-anchor="start" x="4584.5" y="-29.5" font-family="Helvetica,sans-Serif" font-size="10.00">&#45;cbmc/diffblue&#45;cbmc/unit</text>
<text text-anchor="start" x="4584.5" y="-18.5" font-family="Helvetica,sans-Serif" font-size="10.00">/testing&#45;utils/get_goto_model</text>
<text text-anchor="middle" x="4656.5" y="-7.5" font-family="Helvetica,sans-Serif" font-size="10.00">_from_c.cpp</text>
</a>
</g>
</g>
<!-- Node1&#45;&gt;Node27 -->
<g id="edge26" class="edge">
<title>Node1&#45;&gt;Node27</title>
<path fill="none" stroke="midnightblue" d="M2477.26,-108.09C2852.97,-103.87 4358.63,-85.08 4567.5,-53 4570.36,-52.56 4573.26,-52.06 4576.17,-51.5"/>
<polygon fill="midnightblue" stroke="midnightblue" points="2476.97,-104.59 2467.01,-108.2 2477.05,-111.59 2476.97,-104.59"/>
</g>
</g>
</svg>
