<?xml version="1.0" encoding="UTF-8" standalone="no"?>
<!DOCTYPE svg PUBLIC "-//W3C//DTD SVG 1.1//EN"
 "http://www.w3.org/Graphics/SVG/1.1/DTD/svg11.dtd">
<!-- Generated by graphviz version 2.43.0 (0)
 -->
<!-- Title: /home/runner/work/diffblue&#45;cbmc/diffblue&#45;cbmc/src/goto&#45;cc/ms_link_mode.h Pages: 1 -->
<svg width="325pt" height="128pt"
 viewBox="0.00 0.00 324.50 128.00" xmlns="http://www.w3.org/2000/svg" xmlns:xlink="http://www.w3.org/1999/xlink">
<g id="graph0" class="graph" transform="scale(1 1) rotate(0) translate(4 124)">
<title>/home/runner/work/diffblue&#45;cbmc/diffblue&#45;cbmc/src/goto&#45;cc/ms_link_mode.h</title>
<!-- Node1 -->
<g id="node1" class="node">
<title>Node1</title>
<g id="a_node1"><a xlink:title="Visual Studio Link Mode.">
<polygon fill="#bfbfbf" stroke="black" points="83,-78.5 83,-119.5 232,-119.5 232,-78.5 83,-78.5"/>
<text text-anchor="start" x="91" y="-107.5" font-family="Helvetica,sans-Serif" font-size="10.00">/home/runner/work/diffblue</text>
<text text-anchor="start" x="91" y="-96.5" font-family="Helvetica,sans-Serif" font-size="10.00">&#45;cbmc/diffblue&#45;cbmc/src</text>
<text text-anchor="middle" x="157.5" y="-85.5" font-family="Helvetica,sans-Serif" font-size="10.00">/goto&#45;cc/ms_link_mode.h</text>
</a>
</g>
</g>
<!-- Node2 -->
<g id="node2" class="node">
<title>Node2</title>
<g id="a_node2"><a xlink:href="goto__cc__main_8cpp.html" target="_top" xlink:title="GOTO&#45;CC Main Module.">
<polygon fill="none" stroke="black" points="0,-0.5 0,-41.5 149,-41.5 149,-0.5 0,-0.5"/>
<text text-anchor="start" x="8" y="-29.5" font-family="Helvetica,sans-Serif" font-size="10.00">/home/runner/work/diffblue</text>
<text text-anchor="start" x="8" y="-18.5" font-family="Helvetica,sans-Serif" font-size="10.00">&#45;cbmc/diffblue&#45;cbmc/src</text>
<text text-anchor="middle" x="74.5" y="-7.5" font-family="Helvetica,sans-Serif" font-size="10.00">/goto&#45;cc/goto_cc_main.cpp</text>
</a>
</g>
</g>
<!-- Node1&#45;&gt;Node2 -->
<g id="edge1" class="edge">
<title>Node1&#45;&gt;Node2</title>
<path fill="none" stroke="midnightblue" d="M128.55,-71.49C117.78,-61.63 105.76,-50.63 95.8,-41.51"/>
<polygon fill="midnightblue" stroke="midnightblue" points="126.39,-74.26 136.13,-78.43 131.11,-69.09 126.39,-74.26"/>
</g>
<!-- Node3 -->
<g id="node3" class="node">
<title>Node3</title>
<g id="a_node3"><a xlink:href="ms__link__mode_8cpp.html" target="_top" xlink:title="Visual Studio Link Mode.">
<polygon fill="none" stroke="black" points="166.5,-0.5 166.5,-41.5 316.5,-41.5 316.5,-0.5 166.5,-0.5"/>
<text text-anchor="start" x="174.5" y="-29.5" font-family="Helvetica,sans-Serif" font-size="10.00">/home/runner/work/diffblue</text>
<text text-anchor="start" x="174.5" y="-18.5" font-family="Helvetica,sans-Serif" font-size="10.00">&#45;cbmc/diffblue&#45;cbmc/src</text>
<text text-anchor="middle" x="241.5" y="-7.5" font-family="Helvetica,sans-Serif" font-size="10.00">/goto&#45;cc/ms_link_mode.cpp</text>
</a>
</g>
</g>
<!-- Node1&#45;&gt;Node3 -->
<g id="edge2" class="edge">
<title>Node1&#45;&gt;Node3</title>
<path fill="none" stroke="midnightblue" d="M186.8,-71.49C197.7,-61.63 209.86,-50.63 219.94,-41.51"/>
<polygon fill="midnightblue" stroke="midnightblue" points="184.2,-69.12 179.13,-78.43 188.9,-74.31 184.2,-69.12"/>
</g>
</g>
</svg>
