<?xml version="1.0" encoding="UTF-8" standalone="no"?>
<!DOCTYPE svg PUBLIC "-//W3C//DTD SVG 1.1//EN"
 "http://www.w3.org/Graphics/SVG/1.1/DTD/svg11.dtd">
<!-- Generated by graphviz version 2.43.0 (0)
 -->
<!-- Title: /home/runner/work/diffblue&#45;cbmc/diffblue&#45;cbmc/src/goto&#45;cc/ms_link_cmdline.h Pages: 1 -->
<svg width="336pt" height="128pt"
 viewBox="0.00 0.00 336.00 128.00" xmlns="http://www.w3.org/2000/svg" xmlns:xlink="http://www.w3.org/1999/xlink">
<g id="graph0" class="graph" transform="scale(1 1) rotate(0) translate(4 124)">
<title>/home/runner/work/diffblue&#45;cbmc/diffblue&#45;cbmc/src/goto&#45;cc/ms_link_cmdline.h</title>
<!-- Node1 -->
<g id="node1" class="node">
<title>Node1</title>
<g id="a_node1"><a xlink:title="A special command line object for LINK options.">
<polygon fill="#bfbfbf" stroke="black" points="85.5,-78.5 85.5,-119.5 235.5,-119.5 235.5,-78.5 85.5,-78.5"/>
<text text-anchor="start" x="93.5" y="-107.5" font-family="Helvetica,sans-Serif" font-size="10.00">/home/runner/work/diffblue</text>
<text text-anchor="start" x="93.5" y="-96.5" font-family="Helvetica,sans-Serif" font-size="10.00">&#45;cbmc/diffblue&#45;cbmc/src</text>
<text text-anchor="middle" x="160.5" y="-85.5" font-family="Helvetica,sans-Serif" font-size="10.00">/goto&#45;cc/ms_link_cmdline.h</text>
</a>
</g>
</g>
<!-- Node2 -->
<g id="node2" class="node">
<title>Node2</title>
<g id="a_node2"><a xlink:href="goto__cc__main_8cpp.html" target="_top" xlink:title="GOTO&#45;CC Main Module.">
<polygon fill="none" stroke="black" points="0,-0.5 0,-41.5 149,-41.5 149,-0.5 0,-0.5"/>
<text text-anchor="start" x="8" y="-29.5" font-family="Helvetica,sans-Serif" font-size="10.00">/home/runner/work/diffblue</text>
<text text-anchor="start" x="8" y="-18.5" font-family="Helvetica,sans-Serif" font-size="10.00">&#45;cbmc/diffblue&#45;cbmc/src</text>
<text text-anchor="middle" x="74.5" y="-7.5" font-family="Helvetica,sans-Serif" font-size="10.00">/goto&#45;cc/goto_cc_main.cpp</text>
</a>
</g>
</g>
<!-- Node1&#45;&gt;Node2 -->
<g id="edge1" class="edge">
<title>Node1&#45;&gt;Node2</title>
<path fill="none" stroke="midnightblue" d="M130.83,-71.78C119.59,-61.84 106.99,-50.72 96.57,-41.51"/>
<polygon fill="midnightblue" stroke="midnightblue" points="128.54,-74.43 138.35,-78.43 133.18,-69.18 128.54,-74.43"/>
</g>
<!-- Node3 -->
<g id="node3" class="node">
<title>Node3</title>
<g id="a_node3"><a xlink:href="ms__link__cmdline_8cpp.html" target="_top" xlink:title="A special command line object for LINK options.">
<polygon fill="none" stroke="black" points="167,-0.5 167,-41.5 328,-41.5 328,-0.5 167,-0.5"/>
<text text-anchor="start" x="175" y="-29.5" font-family="Helvetica,sans-Serif" font-size="10.00">/home/runner/work/diffblue</text>
<text text-anchor="start" x="175" y="-18.5" font-family="Helvetica,sans-Serif" font-size="10.00">&#45;cbmc/diffblue&#45;cbmc/src</text>
<text text-anchor="middle" x="247.5" y="-7.5" font-family="Helvetica,sans-Serif" font-size="10.00">/goto&#45;cc/ms_link_cmdline.cpp</text>
</a>
</g>
</g>
<!-- Node1&#45;&gt;Node3 -->
<g id="edge2" class="edge">
<title>Node1&#45;&gt;Node3</title>
<path fill="none" stroke="midnightblue" d="M190.52,-71.78C201.89,-61.84 214.63,-50.72 225.17,-41.51"/>
<polygon fill="midnightblue" stroke="midnightblue" points="188.13,-69.21 182.9,-78.43 192.74,-74.49 188.13,-69.21"/>
</g>
</g>
</svg>
