<?xml version="1.0" encoding="UTF-8" standalone="no"?>
<!DOCTYPE svg PUBLIC "-//W3C//DTD SVG 1.1//EN"
 "http://www.w3.org/Graphics/SVG/1.1/DTD/svg11.dtd">
<!-- Generated by graphviz version 2.43.0 (0)
 -->
<!-- Title: /home/runner/work/diffblue&#45;cbmc/diffblue&#45;cbmc/src/goto&#45;checker/multi_path_symex_only_checker.h Pages: 1 -->
<svg width="1019pt" height="328pt"
 viewBox="0.00 0.00 1018.50 328.00" xmlns="http://www.w3.org/2000/svg" xmlns:xlink="http://www.w3.org/1999/xlink">
<g id="graph0" class="graph" transform="scale(1 1) rotate(0) translate(4 324)">
<title>/home/runner/work/diffblue&#45;cbmc/diffblue&#45;cbmc/src/goto&#45;checker/multi_path_symex_only_checker.h</title>
<!-- Node1 -->
<g id="node1" class="node">
<title>Node1</title>
<g id="a_node1"><a xlink:title="Goto Checker using Multi&#45;Path Symbolic Execution only (no SAT solving)">
<polygon fill="#bfbfbf" stroke="black" points="457,-267.5 457,-319.5 606,-319.5 606,-267.5 457,-267.5"/>
<text text-anchor="start" x="465" y="-307.5" font-family="Helvetica,sans-Serif" font-size="10.00">/home/runner/work/diffblue</text>
<text text-anchor="start" x="465" y="-296.5" font-family="Helvetica,sans-Serif" font-size="10.00">&#45;cbmc/diffblue&#45;cbmc/src</text>
<text text-anchor="start" x="465" y="-285.5" font-family="Helvetica,sans-Serif" font-size="10.00">/goto&#45;checker/multi_path</text>
<text text-anchor="middle" x="531.5" y="-274.5" font-family="Helvetica,sans-Serif" font-size="10.00">_symex_only_checker.h</text>
</a>
</g>
</g>
<!-- Node2 -->
<g id="node2" class="node">
<title>Node2</title>
<g id="a_node2"><a xlink:href="cbmc__parse__options_8cpp.html" target="_top" xlink:title="CBMC Command Line Option Processing.">
<polygon fill="none" stroke="black" points="0,-95 0,-136 169,-136 169,-95 0,-95"/>
<text text-anchor="start" x="8" y="-124" font-family="Helvetica,sans-Serif" font-size="10.00">/home/runner/work/diffblue</text>
<text text-anchor="start" x="8" y="-113" font-family="Helvetica,sans-Serif" font-size="10.00">&#45;cbmc/diffblue&#45;cbmc/src</text>
<text text-anchor="middle" x="84.5" y="-102" font-family="Helvetica,sans-Serif" font-size="10.00">/cbmc/cbmc_parse_options.cpp</text>
</a>
</g>
</g>
<!-- Node1&#45;&gt;Node2 -->
<g id="edge1" class="edge">
<title>Node1&#45;&gt;Node2</title>
<path fill="none" stroke="midnightblue" d="M452.15,-263.93C424.35,-253.75 392.97,-242.06 364.5,-231 281.77,-198.86 186.24,-159.26 130.87,-136.05"/>
<polygon fill="midnightblue" stroke="midnightblue" points="451.23,-267.32 461.82,-267.46 453.63,-260.74 451.23,-267.32"/>
</g>
<!-- Node3 -->
<g id="node3" class="node">
<title>Node3</title>
<g id="a_node3"><a xlink:href="multi__path__symex__checker_8h.html" target="_top" xlink:title="Goto Checker using Multi&#45;Path Symbolic Execution.">
<polygon fill="none" stroke="black" points="374,-178.5 374,-230.5 523,-230.5 523,-178.5 374,-178.5"/>
<text text-anchor="start" x="382" y="-218.5" font-family="Helvetica,sans-Serif" font-size="10.00">/home/runner/work/diffblue</text>
<text text-anchor="start" x="382" y="-207.5" font-family="Helvetica,sans-Serif" font-size="10.00">&#45;cbmc/diffblue&#45;cbmc/src</text>
<text text-anchor="start" x="382" y="-196.5" font-family="Helvetica,sans-Serif" font-size="10.00">/goto&#45;checker/multi_path</text>
<text text-anchor="middle" x="448.5" y="-185.5" font-family="Helvetica,sans-Serif" font-size="10.00">_symex_checker.h</text>
</a>
</g>
</g>
<!-- Node1&#45;&gt;Node3 -->
<g id="edge2" class="edge">
<title>Node1&#45;&gt;Node3</title>
<path fill="none" stroke="midnightblue" d="M500.57,-260.08C491.27,-250.34 481.22,-239.8 472.45,-230.61"/>
<polygon fill="midnightblue" stroke="midnightblue" points="498.06,-262.52 507.49,-267.34 503.12,-257.68 498.06,-262.52"/>
</g>
<!-- Node10 -->
<g id="node10" class="node">
<title>Node10</title>
<g id="a_node10"><a xlink:href="multi__path__symex__only__checker_8cpp.html" target="_top" xlink:title="Goto Checker using Multi&#45;Path Symbolic Execution only (no SAT solving)">
<polygon fill="none" stroke="black" points="541,-178.5 541,-230.5 690,-230.5 690,-178.5 541,-178.5"/>
<text text-anchor="start" x="549" y="-218.5" font-family="Helvetica,sans-Serif" font-size="10.00">/home/runner/work/diffblue</text>
<text text-anchor="start" x="549" y="-207.5" font-family="Helvetica,sans-Serif" font-size="10.00">&#45;cbmc/diffblue&#45;cbmc/src</text>
<text text-anchor="start" x="549" y="-196.5" font-family="Helvetica,sans-Serif" font-size="10.00">/goto&#45;checker/multi_path</text>
<text text-anchor="middle" x="615.5" y="-185.5" font-family="Helvetica,sans-Serif" font-size="10.00">_symex_only_checker.cpp</text>
</a>
</g>
</g>
<!-- Node1&#45;&gt;Node10 -->
<g id="edge10" class="edge">
<title>Node1&#45;&gt;Node10</title>
<path fill="none" stroke="midnightblue" d="M562.81,-260.08C572.21,-250.34 582.38,-239.8 591.26,-230.61"/>
<polygon fill="midnightblue" stroke="midnightblue" points="560.22,-257.71 555.8,-267.34 565.26,-262.57 560.22,-257.71"/>
</g>
<!-- Node11 -->
<g id="node11" class="node">
<title>Node11</title>
<g id="a_node11"><a xlink:href="java__multi__path__symex__only__checker_8h.html" target="_top" xlink:title="Goto Checker using Bounded Model Checking for Java.">
<polygon fill="none" stroke="black" points="773,-178.5 773,-230.5 936,-230.5 936,-178.5 773,-178.5"/>
<text text-anchor="start" x="781" y="-218.5" font-family="Helvetica,sans-Serif" font-size="10.00">/home/runner/work/diffblue</text>
<text text-anchor="start" x="781" y="-207.5" font-family="Helvetica,sans-Serif" font-size="10.00">&#45;cbmc/diffblue&#45;cbmc/jbmc</text>
<text text-anchor="start" x="781" y="-196.5" font-family="Helvetica,sans-Serif" font-size="10.00">/src/java_bytecode/java_multi</text>
<text text-anchor="middle" x="854.5" y="-185.5" font-family="Helvetica,sans-Serif" font-size="10.00">_path_symex_only_checker.h</text>
</a>
</g>
</g>
<!-- Node1&#45;&gt;Node11 -->
<g id="edge11" class="edge">
<title>Node1&#45;&gt;Node11</title>
<path fill="none" stroke="midnightblue" d="M615.83,-269.78C664.24,-256.75 724.74,-240.45 772.72,-227.53"/>
<polygon fill="midnightblue" stroke="midnightblue" points="614.75,-266.45 606.01,-272.43 616.57,-273.21 614.75,-266.45"/>
</g>
<!-- Node3&#45;&gt;Node2 -->
<g id="edge3" class="edge">
<title>Node3&#45;&gt;Node2</title>
<path fill="none" stroke="midnightblue" d="M364.01,-185.34C310.43,-173.57 239.73,-157.58 177.5,-142 170.03,-140.13 162.24,-138.11 154.49,-136.05"/>
<polygon fill="midnightblue" stroke="midnightblue" points="363.29,-188.76 373.81,-187.49 364.79,-181.93 363.29,-188.76"/>
</g>
<!-- Node4 -->
<g id="node4" class="node">
<title>Node4</title>
<g id="a_node4"><a xlink:href="multi__path__symex__checker_8cpp.html" target="_top" xlink:title="Goto Checker using Bounded Model Checking.">
<polygon fill="none" stroke="black" points="187,-89.5 187,-141.5 336,-141.5 336,-89.5 187,-89.5"/>
<text text-anchor="start" x="195" y="-129.5" font-family="Helvetica,sans-Serif" font-size="10.00">/home/runner/work/diffblue</text>
<text text-anchor="start" x="195" y="-118.5" font-family="Helvetica,sans-Serif" font-size="10.00">&#45;cbmc/diffblue&#45;cbmc/src</text>
<text text-anchor="start" x="195" y="-107.5" font-family="Helvetica,sans-Serif" font-size="10.00">/goto&#45;checker/multi_path</text>
<text text-anchor="middle" x="261.5" y="-96.5" font-family="Helvetica,sans-Serif" font-size="10.00">_symex_checker.cpp</text>
</a>
</g>
</g>
<!-- Node3&#45;&gt;Node4 -->
<g id="edge4" class="edge">
<title>Node3&#45;&gt;Node4</title>
<path fill="none" stroke="midnightblue" d="M385.42,-174.15C362.65,-163.56 337.18,-151.71 315.28,-141.52"/>
<polygon fill="midnightblue" stroke="midnightblue" points="384.12,-177.41 394.66,-178.45 387.07,-171.06 384.12,-177.41"/>
</g>
<!-- Node5 -->
<g id="node5" class="node">
<title>Node5</title>
<g id="a_node5"><a xlink:href="cegis__verifier_8cpp.html" target="_top" xlink:title="Verifier for Counterexample&#45;Guided Synthesis.">
<polygon fill="none" stroke="black" points="354,-95 354,-136 543,-136 543,-95 354,-95"/>
<text text-anchor="start" x="362" y="-124" font-family="Helvetica,sans-Serif" font-size="10.00">/home/runner/work/diffblue</text>
<text text-anchor="start" x="362" y="-113" font-family="Helvetica,sans-Serif" font-size="10.00">&#45;cbmc/diffblue&#45;cbmc/src</text>
<text text-anchor="middle" x="448.5" y="-102" font-family="Helvetica,sans-Serif" font-size="10.00">/goto&#45;synthesizer/cegis_verifier.cpp</text>
</a>
</g>
</g>
<!-- Node3&#45;&gt;Node5 -->
<g id="edge5" class="edge">
<title>Node3&#45;&gt;Node5</title>
<path fill="none" stroke="midnightblue" d="M448.5,-168.16C448.5,-157.21 448.5,-145.55 448.5,-136.08"/>
<polygon fill="midnightblue" stroke="midnightblue" points="445,-168.34 448.5,-178.34 452,-168.34 445,-168.34"/>
</g>
<!-- Node6 -->
<g id="node6" class="node">
<title>Node6</title>
<g id="a_node6"><a xlink:href="api_8cpp.html" target="_top" xlink:title=" ">
<polygon fill="none" stroke="black" points="561,-95 561,-136 710,-136 710,-95 561,-95"/>
<text text-anchor="start" x="569" y="-124" font-family="Helvetica,sans-Serif" font-size="10.00">/home/runner/work/diffblue</text>
<text text-anchor="start" x="569" y="-113" font-family="Helvetica,sans-Serif" font-size="10.00">&#45;cbmc/diffblue&#45;cbmc/src</text>
<text text-anchor="middle" x="635.5" y="-102" font-family="Helvetica,sans-Serif" font-size="10.00">/libcprover&#45;cpp/api.cpp</text>
</a>
</g>
</g>
<!-- Node3&#45;&gt;Node6 -->
<g id="edge6" class="edge">
<title>Node3&#45;&gt;Node6</title>
<path fill="none" stroke="midnightblue" d="M511.68,-174.11C538.57,-161.59 569.22,-147.34 593.3,-136.13"/>
<polygon fill="midnightblue" stroke="midnightblue" points="509.93,-171.06 502.34,-178.45 512.88,-177.41 509.93,-171.06"/>
</g>
<!-- Node7 -->
<g id="node7" class="node">
<title>Node7</title>
<g id="a_node7"><a xlink:href="java__multi__path__symex__checker_8h.html" target="_top" xlink:title="Goto Checker using Bounded Model Checking for Java.">
<polygon fill="none" stroke="black" points="728,-89.5 728,-141.5 891,-141.5 891,-89.5 728,-89.5"/>
<text text-anchor="start" x="736" y="-129.5" font-family="Helvetica,sans-Serif" font-size="10.00">/home/runner/work/diffblue</text>
<text text-anchor="start" x="736" y="-118.5" font-family="Helvetica,sans-Serif" font-size="10.00">&#45;cbmc/diffblue&#45;cbmc/jbmc</text>
<text text-anchor="start" x="736" y="-107.5" font-family="Helvetica,sans-Serif" font-size="10.00">/src/java_bytecode/java_multi</text>
<text text-anchor="middle" x="809.5" y="-96.5" font-family="Helvetica,sans-Serif" font-size="10.00">_path_symex_checker.h</text>
</a>
</g>
</g>
<!-- Node3&#45;&gt;Node7 -->
<g id="edge7" class="edge">
<title>Node3&#45;&gt;Node7</title>
<path fill="none" stroke="midnightblue" d="M532.86,-177.77C615.38,-157.8 639.18,-160.71 718.5,-142 721.53,-141.28 724.62,-140.53 727.73,-139.76"/>
<polygon fill="midnightblue" stroke="midnightblue" points="531.92,-174.39 523.05,-180.18 533.6,-181.19 531.92,-174.39"/>
</g>
<!-- Node8 -->
<g id="node8" class="node">
<title>Node8</title>
<g id="a_node8"><a xlink:href="java__multi__path__symex__checker_8cpp.html" target="_top" xlink:title=" ">
<polygon fill="none" stroke="black" points="647,-0.5 647,-52.5 810,-52.5 810,-0.5 647,-0.5"/>
<text text-anchor="start" x="655" y="-40.5" font-family="Helvetica,sans-Serif" font-size="10.00">/home/runner/work/diffblue</text>
<text text-anchor="start" x="655" y="-29.5" font-family="Helvetica,sans-Serif" font-size="10.00">&#45;cbmc/diffblue&#45;cbmc/jbmc</text>
<text text-anchor="start" x="655" y="-18.5" font-family="Helvetica,sans-Serif" font-size="10.00">/src/java_bytecode/java_multi</text>
<text text-anchor="middle" x="728.5" y="-7.5" font-family="Helvetica,sans-Serif" font-size="10.00">_path_symex_checker.cpp</text>
</a>
</g>
</g>
<!-- Node7&#45;&gt;Node8 -->
<g id="edge8" class="edge">
<title>Node7&#45;&gt;Node8</title>
<path fill="none" stroke="midnightblue" d="M779.05,-81.79C770.05,-72.13 760.35,-61.71 751.88,-52.61"/>
<polygon fill="midnightblue" stroke="midnightblue" points="776.7,-84.4 786.07,-89.34 781.82,-79.63 776.7,-84.4"/>
</g>
<!-- Node9 -->
<g id="node9" class="node">
<title>Node9</title>
<g id="a_node9"><a xlink:href="jbmc__parse__options_8cpp.html" target="_top" xlink:title="JBMC Command Line Option Processing.">
<polygon fill="none" stroke="black" points="828.5,-6 828.5,-47 1010.5,-47 1010.5,-6 828.5,-6"/>
<text text-anchor="start" x="836.5" y="-35" font-family="Helvetica,sans-Serif" font-size="10.00">/home/runner/work/diffblue</text>
<text text-anchor="start" x="836.5" y="-24" font-family="Helvetica,sans-Serif" font-size="10.00">&#45;cbmc/diffblue&#45;cbmc/jbmc</text>
<text text-anchor="middle" x="919.5" y="-13" font-family="Helvetica,sans-Serif" font-size="10.00">/src/jbmc/jbmc_parse_options.cpp</text>
</a>
</g>
</g>
<!-- Node7&#45;&gt;Node9 -->
<g id="edge9" class="edge">
<title>Node7&#45;&gt;Node9</title>
<path fill="none" stroke="midnightblue" d="M849.52,-82.85C864.65,-70.88 881.41,-57.62 894.74,-47.08"/>
<polygon fill="midnightblue" stroke="midnightblue" points="846.99,-80.39 841.32,-89.34 851.33,-85.88 846.99,-80.39"/>
</g>
<!-- Node11&#45;&gt;Node9 -->
<g id="edge12" class="edge">
<title>Node11&#45;&gt;Node9</title>
<path fill="none" stroke="midnightblue" d="M882.93,-170.43C889.25,-161.66 895.3,-151.87 899.5,-142 912.85,-110.62 917.29,-70.77 918.77,-47.31"/>
<polygon fill="midnightblue" stroke="midnightblue" points="880.08,-168.4 876.85,-178.49 885.67,-172.61 880.08,-168.4"/>
</g>
</g>
</svg>
