<?xml version="1.0" encoding="UTF-8" standalone="no"?>
<!DOCTYPE svg PUBLIC "-//W3C//DTD SVG 1.1//EN"
 "http://www.w3.org/Graphics/SVG/1.1/DTD/svg11.dtd">
<!-- Generated by graphviz version 2.43.0 (0)
 -->
<!-- Title: /home/runner/work/diffblue&#45;cbmc/diffblue&#45;cbmc/jbmc/src/java_bytecode/mz_zip_archive.h Pages: 1 -->
<svg width="2073pt" height="673pt"
 viewBox="0.00 0.00 2072.50 673.00" xmlns="http://www.w3.org/2000/svg" xmlns:xlink="http://www.w3.org/1999/xlink">
<g id="graph0" class="graph" transform="scale(1 1) rotate(0) translate(4 669)">
<title>/home/runner/work/diffblue&#45;cbmc/diffblue&#45;cbmc/jbmc/src/java_bytecode/mz_zip_archive.h</title>
<!-- Node1 -->
<g id="node1" class="node">
<title>Node1</title>
<g id="a_node1"><a xlink:title=" ">
<polygon fill="#bfbfbf" stroke="black" points="663.5,-612.5 663.5,-664.5 812.5,-664.5 812.5,-612.5 663.5,-612.5"/>
<text text-anchor="start" x="671.5" y="-652.5" font-family="Helvetica,sans-Serif" font-size="10.00">/home/runner/work/diffblue</text>
<text text-anchor="start" x="671.5" y="-641.5" font-family="Helvetica,sans-Serif" font-size="10.00">&#45;cbmc/diffblue&#45;cbmc/jbmc</text>
<text text-anchor="start" x="671.5" y="-630.5" font-family="Helvetica,sans-Serif" font-size="10.00">/src/java_bytecode/mz_zip</text>
<text text-anchor="middle" x="738" y="-619.5" font-family="Helvetica,sans-Serif" font-size="10.00">_archive.h</text>
</a>
</g>
</g>
<!-- Node2 -->
<g id="node2" class="node">
<title>Node2</title>
<g id="a_node2"><a xlink:href="jar__file_8h.html" target="_top" xlink:title=" ">
<polygon fill="none" stroke="black" points="577.5,-529 577.5,-570 730.5,-570 730.5,-529 577.5,-529"/>
<text text-anchor="start" x="585.5" y="-558" font-family="Helvetica,sans-Serif" font-size="10.00">/home/runner/work/diffblue</text>
<text text-anchor="start" x="585.5" y="-547" font-family="Helvetica,sans-Serif" font-size="10.00">&#45;cbmc/diffblue&#45;cbmc/jbmc</text>
<text text-anchor="middle" x="654" y="-536" font-family="Helvetica,sans-Serif" font-size="10.00">/src/java_bytecode/jar_file.h</text>
</a>
</g>
</g>
<!-- Node1&#45;&gt;Node2 -->
<g id="edge1" class="edge">
<title>Node1&#45;&gt;Node2</title>
<path fill="none" stroke="midnightblue" d="M706.47,-604.85C695.18,-593.15 682.8,-580.33 672.91,-570.08"/>
<polygon fill="midnightblue" stroke="midnightblue" points="704.24,-607.57 713.7,-612.34 709.28,-602.71 704.24,-607.57"/>
</g>
<!-- Node31 -->
<g id="node25" class="node">
<title>Node31</title>
<g id="a_node25"><a xlink:href="mz__zip__archive_8cpp.html" target="_top" xlink:title=" ">
<polygon fill="none" stroke="black" points="748.5,-523.5 748.5,-575.5 897.5,-575.5 897.5,-523.5 748.5,-523.5"/>
<text text-anchor="start" x="756.5" y="-563.5" font-family="Helvetica,sans-Serif" font-size="10.00">/home/runner/work/diffblue</text>
<text text-anchor="start" x="756.5" y="-552.5" font-family="Helvetica,sans-Serif" font-size="10.00">&#45;cbmc/diffblue&#45;cbmc/jbmc</text>
<text text-anchor="start" x="756.5" y="-541.5" font-family="Helvetica,sans-Serif" font-size="10.00">/src/java_bytecode/mz_zip</text>
<text text-anchor="middle" x="823" y="-530.5" font-family="Helvetica,sans-Serif" font-size="10.00">_archive.cpp</text>
</a>
</g>
</g>
<!-- Node1&#45;&gt;Node31 -->
<g id="edge31" class="edge">
<title>Node1&#45;&gt;Node31</title>
<path fill="none" stroke="midnightblue" d="M769.68,-605.08C779.2,-595.34 789.49,-584.8 798.47,-575.61"/>
<polygon fill="midnightblue" stroke="midnightblue" points="767.07,-602.74 762.59,-612.34 772.08,-607.63 767.07,-602.74"/>
</g>
<!-- Node3 -->
<g id="node3" class="node">
<title>Node3</title>
<g id="a_node3"><a xlink:href="jar__file_8cpp.html" target="_top" xlink:title=" ">
<polygon fill="none" stroke="black" points="409,-445.5 409,-486.5 573,-486.5 573,-445.5 409,-445.5"/>
<text text-anchor="start" x="417" y="-474.5" font-family="Helvetica,sans-Serif" font-size="10.00">/home/runner/work/diffblue</text>
<text text-anchor="start" x="417" y="-463.5" font-family="Helvetica,sans-Serif" font-size="10.00">&#45;cbmc/diffblue&#45;cbmc/jbmc</text>
<text text-anchor="middle" x="491" y="-452.5" font-family="Helvetica,sans-Serif" font-size="10.00">/src/java_bytecode/jar_file.cpp</text>
</a>
</g>
</g>
<!-- Node2&#45;&gt;Node3 -->
<g id="edge2" class="edge">
<title>Node2&#45;&gt;Node3</title>
<path fill="none" stroke="midnightblue" d="M605.94,-524.47C581.75,-512.37 552.8,-497.9 530.01,-486.5"/>
<polygon fill="midnightblue" stroke="midnightblue" points="604.45,-527.64 614.96,-528.98 607.58,-521.38 604.45,-527.64"/>
</g>
<!-- Node4 -->
<g id="node4" class="node">
<title>Node4</title>
<g id="a_node4"><a xlink:href="jar__pool_8cpp.html" target="_top" xlink:title=" ">
<polygon fill="none" stroke="black" points="477,-362 477,-403 647,-403 647,-362 477,-362"/>
<text text-anchor="start" x="485" y="-391" font-family="Helvetica,sans-Serif" font-size="10.00">/home/runner/work/diffblue</text>
<text text-anchor="start" x="485" y="-380" font-family="Helvetica,sans-Serif" font-size="10.00">&#45;cbmc/diffblue&#45;cbmc/jbmc</text>
<text text-anchor="middle" x="562" y="-369" font-family="Helvetica,sans-Serif" font-size="10.00">/src/java_bytecode/jar_pool.cpp</text>
</a>
</g>
</g>
<!-- Node2&#45;&gt;Node4 -->
<g id="edge3" class="edge">
<title>Node2&#45;&gt;Node4</title>
<path fill="none" stroke="midnightblue" d="M637.77,-520.17C631.83,-509.76 625.08,-497.86 619,-487 602.67,-457.82 584.02,-423.84 572.63,-403"/>
<polygon fill="midnightblue" stroke="midnightblue" points="634.74,-521.93 642.74,-528.87 640.82,-518.46 634.74,-521.93"/>
</g>
<!-- Node5 -->
<g id="node5" class="node">
<title>Node5</title>
<g id="a_node5"><a xlink:href="jar__pool_8h.html" target="_top" xlink:title=" ">
<polygon fill="none" stroke="black" points="628.5,-445.5 628.5,-486.5 787.5,-486.5 787.5,-445.5 628.5,-445.5"/>
<text text-anchor="start" x="636.5" y="-474.5" font-family="Helvetica,sans-Serif" font-size="10.00">/home/runner/work/diffblue</text>
<text text-anchor="start" x="636.5" y="-463.5" font-family="Helvetica,sans-Serif" font-size="10.00">&#45;cbmc/diffblue&#45;cbmc/jbmc</text>
<text text-anchor="middle" x="708" y="-452.5" font-family="Helvetica,sans-Serif" font-size="10.00">/src/java_bytecode/jar_pool.h</text>
</a>
</g>
</g>
<!-- Node2&#45;&gt;Node5 -->
<g id="edge4" class="edge">
<title>Node2&#45;&gt;Node5</title>
<path fill="none" stroke="midnightblue" d="M672.73,-520.22C680.1,-509.11 688.37,-496.63 695.05,-486.55"/>
<polygon fill="midnightblue" stroke="midnightblue" points="669.68,-518.5 667.07,-528.77 675.51,-522.37 669.68,-518.5"/>
</g>
<!-- Node30 -->
<g id="node24" class="node">
<title>Node30</title>
<g id="a_node24"><a xlink:href="java__class__loader__base_8cpp.html" target="_top" xlink:title=" ">
<polygon fill="none" stroke="black" points="774,-267.5 774,-319.5 936,-319.5 936,-267.5 774,-267.5"/>
<text text-anchor="start" x="782" y="-307.5" font-family="Helvetica,sans-Serif" font-size="10.00">/home/runner/work/diffblue</text>
<text text-anchor="start" x="782" y="-296.5" font-family="Helvetica,sans-Serif" font-size="10.00">&#45;cbmc/diffblue&#45;cbmc/jbmc</text>
<text text-anchor="start" x="782" y="-285.5" font-family="Helvetica,sans-Serif" font-size="10.00">/src/java_bytecode/java_class</text>
<text text-anchor="middle" x="855" y="-274.5" font-family="Helvetica,sans-Serif" font-size="10.00">_loader_base.cpp</text>
</a>
</g>
</g>
<!-- Node2&#45;&gt;Node30 -->
<g id="edge30" class="edge">
<title>Node2&#45;&gt;Node30</title>
<path fill="none" stroke="midnightblue" d="M733.66,-525.22C755.72,-515.95 778.42,-503.47 796,-487 843.57,-442.43 853.14,-360.63 854.83,-319.51"/>
<polygon fill="midnightblue" stroke="midnightblue" points="732.24,-522.02 724.26,-528.99 734.85,-528.51 732.24,-522.02"/>
</g>
<!-- Node5&#45;&gt;Node4 -->
<g id="edge5" class="edge">
<title>Node5&#45;&gt;Node4</title>
<path fill="none" stroke="midnightblue" d="M664.09,-440.49C642.6,-428.49 617.08,-414.25 596.94,-403"/>
<polygon fill="midnightblue" stroke="midnightblue" points="662.59,-443.66 673.03,-445.48 666,-437.55 662.59,-443.66"/>
</g>
<!-- Node6 -->
<g id="node6" class="node">
<title>Node6</title>
<g id="a_node6"><a xlink:href="java__class__loader__base_8h.html" target="_top" xlink:title=" ">
<polygon fill="none" stroke="black" points="665,-356.5 665,-408.5 827,-408.5 827,-356.5 665,-356.5"/>
<text text-anchor="start" x="673" y="-396.5" font-family="Helvetica,sans-Serif" font-size="10.00">/home/runner/work/diffblue</text>
<text text-anchor="start" x="673" y="-385.5" font-family="Helvetica,sans-Serif" font-size="10.00">&#45;cbmc/diffblue&#45;cbmc/jbmc</text>
<text text-anchor="start" x="673" y="-374.5" font-family="Helvetica,sans-Serif" font-size="10.00">/src/java_bytecode/java_class</text>
<text text-anchor="middle" x="746" y="-363.5" font-family="Helvetica,sans-Serif" font-size="10.00">_loader_base.h</text>
</a>
</g>
</g>
<!-- Node5&#45;&gt;Node6 -->
<g id="edge6" class="edge">
<title>Node5&#45;&gt;Node6</title>
<path fill="none" stroke="midnightblue" d="M721.53,-435.98C725.7,-427.04 730.26,-417.27 734.29,-408.61"/>
<polygon fill="midnightblue" stroke="midnightblue" points="718.25,-434.73 717.2,-445.27 724.6,-437.69 718.25,-434.73"/>
</g>
<!-- Node7 -->
<g id="node7" class="node">
<title>Node7</title>
<g id="a_node7"><a xlink:href="java__class__loader_8h.html" target="_top" xlink:title=" ">
<polygon fill="none" stroke="black" points="594,-267.5 594,-319.5 756,-319.5 756,-267.5 594,-267.5"/>
<text text-anchor="start" x="602" y="-307.5" font-family="Helvetica,sans-Serif" font-size="10.00">/home/runner/work/diffblue</text>
<text text-anchor="start" x="602" y="-296.5" font-family="Helvetica,sans-Serif" font-size="10.00">&#45;cbmc/diffblue&#45;cbmc/jbmc</text>
<text text-anchor="start" x="602" y="-285.5" font-family="Helvetica,sans-Serif" font-size="10.00">/src/java_bytecode/java_class</text>
<text text-anchor="middle" x="675" y="-274.5" font-family="Helvetica,sans-Serif" font-size="10.00">_loader.h</text>
</a>
</g>
</g>
<!-- Node6&#45;&gt;Node7 -->
<g id="edge7" class="edge">
<title>Node6&#45;&gt;Node7</title>
<path fill="none" stroke="midnightblue" d="M719.07,-348.5C711.25,-338.92 702.84,-328.62 695.49,-319.61"/>
<polygon fill="midnightblue" stroke="midnightblue" points="716.43,-350.8 725.46,-356.34 721.85,-346.38 716.43,-350.8"/>
</g>
<!-- Node6&#45;&gt;Node30 -->
<g id="edge29" class="edge">
<title>Node6&#45;&gt;Node30</title>
<path fill="none" stroke="midnightblue" d="M785.55,-349.93C798.05,-339.96 811.69,-329.07 823.54,-319.61"/>
<polygon fill="midnightblue" stroke="midnightblue" points="783.16,-347.36 777.53,-356.34 787.53,-352.83 783.16,-347.36"/>
</g>
<!-- Node8 -->
<g id="node8" class="node">
<title>Node8</title>
<g id="a_node8"><a xlink:href="ci__lazy__methods_8cpp.html" target="_top" xlink:title=" ">
<polygon fill="none" stroke="black" points="600.5,-89.5 600.5,-141.5 749.5,-141.5 749.5,-89.5 600.5,-89.5"/>
<text text-anchor="start" x="608.5" y="-129.5" font-family="Helvetica,sans-Serif" font-size="10.00">/home/runner/work/diffblue</text>
<text text-anchor="start" x="608.5" y="-118.5" font-family="Helvetica,sans-Serif" font-size="10.00">&#45;cbmc/diffblue&#45;cbmc/jbmc</text>
<text text-anchor="start" x="608.5" y="-107.5" font-family="Helvetica,sans-Serif" font-size="10.00">/src/java_bytecode/ci_lazy</text>
<text text-anchor="middle" x="675" y="-96.5" font-family="Helvetica,sans-Serif" font-size="10.00">_methods.cpp</text>
</a>
</g>
</g>
<!-- Node7&#45;&gt;Node8 -->
<g id="edge8" class="edge">
<title>Node7&#45;&gt;Node8</title>
<path fill="none" stroke="midnightblue" d="M675,-257.25C675,-223.04 675,-171.97 675,-141.67"/>
<polygon fill="midnightblue" stroke="midnightblue" points="671.5,-257.28 675,-267.28 678.5,-257.28 671.5,-257.28"/>
</g>
<!-- Node9 -->
<g id="node9" class="node">
<title>Node9</title>
<g id="a_node9"><a xlink:href="java__bytecode__convert__class_8h.html" target="_top" xlink:title="JAVA Bytecode Language Conversion.">
<polygon fill="none" stroke="black" points="334,-178.5 334,-230.5 516,-230.5 516,-178.5 334,-178.5"/>
<text text-anchor="start" x="342" y="-218.5" font-family="Helvetica,sans-Serif" font-size="10.00">/home/runner/work/diffblue</text>
<text text-anchor="start" x="342" y="-207.5" font-family="Helvetica,sans-Serif" font-size="10.00">&#45;cbmc/diffblue&#45;cbmc/jbmc</text>
<text text-anchor="start" x="342" y="-196.5" font-family="Helvetica,sans-Serif" font-size="10.00">/src/java_bytecode/java_bytecode</text>
<text text-anchor="middle" x="425" y="-185.5" font-family="Helvetica,sans-Serif" font-size="10.00">_convert_class.h</text>
</a>
</g>
</g>
<!-- Node7&#45;&gt;Node9 -->
<g id="edge9" class="edge">
<title>Node7&#45;&gt;Node9</title>
<path fill="none" stroke="midnightblue" d="M593.5,-264.14C562.35,-253.3 527.09,-241.03 496.9,-230.52"/>
<polygon fill="midnightblue" stroke="midnightblue" points="592.43,-267.47 603.03,-267.45 594.73,-260.86 592.43,-267.47"/>
</g>
<!-- Node14 -->
<g id="node12" class="node">
<title>Node14</title>
<g id="a_node12"><a xlink:href="java__bytecode__language_8cpp.html" target="_top" xlink:title=" ">
<polygon fill="none" stroke="black" points="400,-89.5 400,-141.5 582,-141.5 582,-89.5 400,-89.5"/>
<text text-anchor="start" x="408" y="-129.5" font-family="Helvetica,sans-Serif" font-size="10.00">/home/runner/work/diffblue</text>
<text text-anchor="start" x="408" y="-118.5" font-family="Helvetica,sans-Serif" font-size="10.00">&#45;cbmc/diffblue&#45;cbmc/jbmc</text>
<text text-anchor="start" x="408" y="-107.5" font-family="Helvetica,sans-Serif" font-size="10.00">/src/java_bytecode/java_bytecode</text>
<text text-anchor="middle" x="491" y="-96.5" font-family="Helvetica,sans-Serif" font-size="10.00">_language.cpp</text>
</a>
</g>
</g>
<!-- Node7&#45;&gt;Node14 -->
<g id="edge13" class="edge">
<title>Node7&#45;&gt;Node14</title>
<path fill="none" stroke="midnightblue" d="M641.33,-260.3C605.62,-226.14 549.95,-172.88 517.31,-141.67"/>
<polygon fill="midnightblue" stroke="midnightblue" points="638.99,-262.9 648.64,-267.28 643.83,-257.84 638.99,-262.9"/>
</g>
<!-- Node17 -->
<g id="node13" class="node">
<title>Node17</title>
<g id="a_node13"><a xlink:href="java__bytecode__language_8h.html" target="_top" xlink:title=" ">
<polygon fill="none" stroke="black" points="1050,-178.5 1050,-230.5 1232,-230.5 1232,-178.5 1050,-178.5"/>
<text text-anchor="start" x="1058" y="-218.5" font-family="Helvetica,sans-Serif" font-size="10.00">/home/runner/work/diffblue</text>
<text text-anchor="start" x="1058" y="-207.5" font-family="Helvetica,sans-Serif" font-size="10.00">&#45;cbmc/diffblue&#45;cbmc/jbmc</text>
<text text-anchor="start" x="1058" y="-196.5" font-family="Helvetica,sans-Serif" font-size="10.00">/src/java_bytecode/java_bytecode</text>
<text text-anchor="middle" x="1141" y="-185.5" font-family="Helvetica,sans-Serif" font-size="10.00">_language.h</text>
</a>
</g>
</g>
<!-- Node7&#45;&gt;Node17 -->
<g id="edge14" class="edge">
<title>Node7&#45;&gt;Node17</title>
<path fill="none" stroke="midnightblue" d="M766.19,-266.83C868.31,-244.46 975.56,-227.86 1049.65,-217.47"/>
<polygon fill="midnightblue" stroke="midnightblue" points="765.34,-263.43 756.33,-269.01 766.85,-270.27 765.34,-263.43"/>
</g>
<!-- Node29 -->
<g id="node23" class="node">
<title>Node29</title>
<g id="a_node23"><a xlink:href="java__class__loader_8cpp.html" target="_top" xlink:title=" ">
<polygon fill="none" stroke="black" points="1250,-178.5 1250,-230.5 1412,-230.5 1412,-178.5 1250,-178.5"/>
<text text-anchor="start" x="1258" y="-218.5" font-family="Helvetica,sans-Serif" font-size="10.00">/home/runner/work/diffblue</text>
<text text-anchor="start" x="1258" y="-207.5" font-family="Helvetica,sans-Serif" font-size="10.00">&#45;cbmc/diffblue&#45;cbmc/jbmc</text>
<text text-anchor="start" x="1258" y="-196.5" font-family="Helvetica,sans-Serif" font-size="10.00">/src/java_bytecode/java_class</text>
<text text-anchor="middle" x="1331" y="-185.5" font-family="Helvetica,sans-Serif" font-size="10.00">_loader.cpp</text>
</a>
</g>
</g>
<!-- Node7&#45;&gt;Node29 -->
<g id="edge28" class="edge">
<title>Node7&#45;&gt;Node29</title>
<path fill="none" stroke="midnightblue" d="M766.35,-266.92C975.75,-231.07 1035.37,-267.52 1241,-231 1243.88,-230.49 1246.8,-229.92 1249.74,-229.31"/>
<polygon fill="midnightblue" stroke="midnightblue" points="765.51,-263.52 756.26,-268.69 766.72,-270.41 765.51,-263.52"/>
</g>
<!-- Node10 -->
<g id="node10" class="node">
<title>Node10</title>
<g id="a_node10"><a xlink:href="java__bytecode__convert__class_8cpp.html" target="_top" xlink:title="JAVA Bytecode Language Conversion.">
<polygon fill="none" stroke="black" points="0,-89.5 0,-141.5 182,-141.5 182,-89.5 0,-89.5"/>
<text text-anchor="start" x="8" y="-129.5" font-family="Helvetica,sans-Serif" font-size="10.00">/home/runner/work/diffblue</text>
<text text-anchor="start" x="8" y="-118.5" font-family="Helvetica,sans-Serif" font-size="10.00">&#45;cbmc/diffblue&#45;cbmc/jbmc</text>
<text text-anchor="start" x="8" y="-107.5" font-family="Helvetica,sans-Serif" font-size="10.00">/src/java_bytecode/java_bytecode</text>
<text text-anchor="middle" x="91" y="-96.5" font-family="Helvetica,sans-Serif" font-size="10.00">_convert_class.cpp</text>
</a>
</g>
</g>
<!-- Node9&#45;&gt;Node10 -->
<g id="edge10" class="edge">
<title>Node9&#45;&gt;Node10</title>
<path fill="none" stroke="midnightblue" d="M323.93,-177.17C278.81,-165.42 226.05,-151.68 182.16,-140.24"/>
<polygon fill="midnightblue" stroke="midnightblue" points="323.17,-180.59 333.73,-179.73 324.94,-173.82 323.17,-180.59"/>
</g>
<!-- Node11 -->
<g id="node11" class="node">
<title>Node11</title>
<g id="a_node11"><a xlink:href="java__bytecode__convert__method__class_8h.html" target="_top" xlink:title="JAVA Bytecode Language Conversion.">
<polygon fill="none" stroke="red" points="200,-89.5 200,-141.5 382,-141.5 382,-89.5 200,-89.5"/>
<text text-anchor="start" x="208" y="-129.5" font-family="Helvetica,sans-Serif" font-size="10.00">/home/runner/work/diffblue</text>
<text text-anchor="start" x="208" y="-118.5" font-family="Helvetica,sans-Serif" font-size="10.00">&#45;cbmc/diffblue&#45;cbmc/jbmc</text>
<text text-anchor="start" x="208" y="-107.5" font-family="Helvetica,sans-Serif" font-size="10.00">/src/java_bytecode/java_bytecode</text>
<text text-anchor="middle" x="291" y="-96.5" font-family="Helvetica,sans-Serif" font-size="10.00">_convert_method_class.h</text>
</a>
</g>
</g>
<!-- Node9&#45;&gt;Node11 -->
<g id="edge11" class="edge">
<title>Node9&#45;&gt;Node11</title>
<path fill="none" stroke="midnightblue" d="M377.7,-172.79C361.97,-162.58 344.66,-151.34 329.67,-141.61"/>
<polygon fill="midnightblue" stroke="midnightblue" points="375.95,-175.83 386.24,-178.34 379.76,-169.95 375.95,-175.83"/>
</g>
<!-- Node9&#45;&gt;Node14 -->
<g id="edge12" class="edge">
<title>Node9&#45;&gt;Node14</title>
<path fill="none" stroke="midnightblue" d="M450.25,-170.22C457.46,-160.72 465.18,-150.53 471.95,-141.61"/>
<polygon fill="midnightblue" stroke="midnightblue" points="447.35,-168.25 444.09,-178.34 452.92,-172.48 447.35,-168.25"/>
</g>
<!-- Node17&#45;&gt;Node8 -->
<g id="edge18" class="edge">
<title>Node17&#45;&gt;Node8</title>
<path fill="none" stroke="midnightblue" d="M1039.51,-191.11C961.88,-180.7 852.47,-163.99 758,-142 755.21,-141.35 752.38,-140.66 749.52,-139.93"/>
<polygon fill="midnightblue" stroke="midnightblue" points="1039.4,-194.63 1049.77,-192.48 1040.32,-187.69 1039.4,-194.63"/>
</g>
<!-- Node17&#45;&gt;Node14 -->
<g id="edge19" class="edge">
<title>Node17&#45;&gt;Node14</title>
<path fill="none" stroke="midnightblue" d="M1039.76,-196.4C928.95,-187.65 746.36,-170.35 591,-142 588.09,-141.47 585.14,-140.9 582.17,-140.3"/>
<polygon fill="midnightblue" stroke="midnightblue" points="1039.69,-199.91 1049.93,-197.2 1040.23,-192.93 1039.69,-199.91"/>
</g>
<!-- Node18 -->
<g id="node14" class="node">
<title>Node18</title>
<g id="a_node14"><a xlink:href="janalyzer__parse__options_8cpp.html" target="_top" xlink:title="JANALYZER Command Line Option Processing.">
<polygon fill="none" stroke="black" points="1747.5,-0.5 1747.5,-52.5 1896.5,-52.5 1896.5,-0.5 1747.5,-0.5"/>
<text text-anchor="start" x="1755.5" y="-40.5" font-family="Helvetica,sans-Serif" font-size="10.00">/home/runner/work/diffblue</text>
<text text-anchor="start" x="1755.5" y="-29.5" font-family="Helvetica,sans-Serif" font-size="10.00">&#45;cbmc/diffblue&#45;cbmc/jbmc</text>
<text text-anchor="start" x="1755.5" y="-18.5" font-family="Helvetica,sans-Serif" font-size="10.00">/src/janalyzer/janalyzer</text>
<text text-anchor="middle" x="1822" y="-7.5" font-family="Helvetica,sans-Serif" font-size="10.00">_parse_options.cpp</text>
</a>
</g>
</g>
<!-- Node17&#45;&gt;Node18 -->
<g id="edge15" class="edge">
<title>Node17&#45;&gt;Node18</title>
<path fill="none" stroke="midnightblue" d="M1242.35,-178.31C1344.98,-169.2 1809.85,-189.87 1855,-142 1877.99,-117.62 1858.67,-78.24 1841.38,-52.61"/>
<polygon fill="midnightblue" stroke="midnightblue" points="1241.66,-174.86 1232.14,-179.5 1242.48,-181.81 1241.66,-174.86"/>
</g>
<!-- Node19 -->
<g id="node15" class="node">
<title>Node19</title>
<g id="a_node15"><a xlink:href="janalyzer__parse__options_8h.html" target="_top" xlink:title="JANALYZER Command Line Option Processing.">
<polygon fill="none" stroke="red" points="1696.5,-89.5 1696.5,-141.5 1845.5,-141.5 1845.5,-89.5 1696.5,-89.5"/>
<text text-anchor="start" x="1704.5" y="-129.5" font-family="Helvetica,sans-Serif" font-size="10.00">/home/runner/work/diffblue</text>
<text text-anchor="start" x="1704.5" y="-118.5" font-family="Helvetica,sans-Serif" font-size="10.00">&#45;cbmc/diffblue&#45;cbmc/jbmc</text>
<text text-anchor="start" x="1704.5" y="-107.5" font-family="Helvetica,sans-Serif" font-size="10.00">/src/janalyzer/janalyzer</text>
<text text-anchor="middle" x="1771" y="-96.5" font-family="Helvetica,sans-Serif" font-size="10.00">_parse_options.h</text>
</a>
</g>
</g>
<!-- Node17&#45;&gt;Node19 -->
<g id="edge16" class="edge">
<title>Node17&#45;&gt;Node19</title>
<path fill="none" stroke="midnightblue" d="M1242.26,-177.93C1439.46,-146.38 1495.5,-178.87 1688,-142 1690.66,-141.49 1693.37,-140.92 1696.08,-140.32"/>
<polygon fill="midnightblue" stroke="midnightblue" points="1241.45,-174.51 1232.15,-179.58 1242.58,-181.42 1241.45,-174.51"/>
</g>
<!-- Node21 -->
<g id="node16" class="node">
<title>Node21</title>
<g id="a_node16"><a xlink:href="java__entry__point_8cpp.html" target="_top" xlink:title=" ">
<polygon fill="none" stroke="black" points="1901.5,-89.5 1901.5,-141.5 2064.5,-141.5 2064.5,-89.5 1901.5,-89.5"/>
<text text-anchor="start" x="1909.5" y="-129.5" font-family="Helvetica,sans-Serif" font-size="10.00">/home/runner/work/diffblue</text>
<text text-anchor="start" x="1909.5" y="-118.5" font-family="Helvetica,sans-Serif" font-size="10.00">&#45;cbmc/diffblue&#45;cbmc/jbmc</text>
<text text-anchor="start" x="1909.5" y="-107.5" font-family="Helvetica,sans-Serif" font-size="10.00">/src/java_bytecode/java_entry</text>
<text text-anchor="middle" x="1983" y="-96.5" font-family="Helvetica,sans-Serif" font-size="10.00">_point.cpp</text>
</a>
</g>
</g>
<!-- Node17&#45;&gt;Node21 -->
<g id="edge20" class="edge">
<title>Node17&#45;&gt;Node21</title>
<path fill="none" stroke="midnightblue" d="M1242.35,-177.94C1527.06,-135.49 1606.34,-186.62 1887,-142 1891.68,-141.26 1896.47,-140.38 1901.28,-139.4"/>
<polygon fill="midnightblue" stroke="midnightblue" points="1241.5,-174.52 1232.14,-179.48 1242.55,-181.45 1241.5,-174.52"/>
</g>
<!-- Node22 -->
<g id="node17" class="node">
<title>Node22</title>
<g id="a_node17"><a xlink:href="lazy__goto__model_8cpp.html" target="_top" xlink:title="Author: Diffblue Ltd.">
<polygon fill="none" stroke="black" points="767,-89.5 767,-141.5 925,-141.5 925,-89.5 767,-89.5"/>
<text text-anchor="start" x="775" y="-129.5" font-family="Helvetica,sans-Serif" font-size="10.00">/home/runner/work/diffblue</text>
<text text-anchor="start" x="775" y="-118.5" font-family="Helvetica,sans-Serif" font-size="10.00">&#45;cbmc/diffblue&#45;cbmc/jbmc</text>
<text text-anchor="start" x="775" y="-107.5" font-family="Helvetica,sans-Serif" font-size="10.00">/src/java_bytecode/lazy_goto</text>
<text text-anchor="middle" x="846" y="-96.5" font-family="Helvetica,sans-Serif" font-size="10.00">_model.cpp</text>
</a>
</g>
</g>
<!-- Node17&#45;&gt;Node22 -->
<g id="edge21" class="edge">
<title>Node17&#45;&gt;Node22</title>
<path fill="none" stroke="midnightblue" d="M1046.26,-175.56C1007.14,-164.02 962.33,-150.81 925.03,-139.81"/>
<polygon fill="midnightblue" stroke="midnightblue" points="1045.49,-178.98 1056.07,-178.45 1047.47,-172.27 1045.49,-178.98"/>
</g>
<!-- Node23 -->
<g id="node18" class="node">
<title>Node23</title>
<g id="a_node18"><a xlink:href="jbmc__parse__options_8cpp.html" target="_top" xlink:title="JBMC Command Line Option Processing.">
<polygon fill="none" stroke="black" points="994,-6 994,-47 1176,-47 1176,-6 994,-6"/>
<text text-anchor="start" x="1002" y="-35" font-family="Helvetica,sans-Serif" font-size="10.00">/home/runner/work/diffblue</text>
<text text-anchor="start" x="1002" y="-24" font-family="Helvetica,sans-Serif" font-size="10.00">&#45;cbmc/diffblue&#45;cbmc/jbmc</text>
<text text-anchor="middle" x="1085" y="-13" font-family="Helvetica,sans-Serif" font-size="10.00">/src/jbmc/jbmc_parse_options.cpp</text>
</a>
</g>
</g>
<!-- Node17&#45;&gt;Node23 -->
<g id="edge22" class="edge">
<title>Node17&#45;&gt;Node23</title>
<path fill="none" stroke="midnightblue" d="M1138.6,-168.19C1136.19,-145.1 1131.42,-114.58 1122,-89 1116.49,-74.03 1107.24,-58.66 1099.36,-47.03"/>
<polygon fill="midnightblue" stroke="midnightblue" points="1135.12,-168.61 1139.54,-178.24 1142.09,-167.95 1135.12,-168.61"/>
</g>
<!-- Node24 -->
<g id="node19" class="node">
<title>Node24</title>
<g id="a_node19"><a xlink:href="jbmc__parse__options_8h.html" target="_top" xlink:title="JBMC Command Line Option Processing.">
<polygon fill="none" stroke="red" points="943,-95 943,-136 1113,-136 1113,-95 943,-95"/>
<text text-anchor="start" x="951" y="-124" font-family="Helvetica,sans-Serif" font-size="10.00">/home/runner/work/diffblue</text>
<text text-anchor="start" x="951" y="-113" font-family="Helvetica,sans-Serif" font-size="10.00">&#45;cbmc/diffblue&#45;cbmc/jbmc</text>
<text text-anchor="middle" x="1028" y="-102" font-family="Helvetica,sans-Serif" font-size="10.00">/src/jbmc/jbmc_parse_options.h</text>
</a>
</g>
</g>
<!-- Node17&#45;&gt;Node24 -->
<g id="edge23" class="edge">
<title>Node17&#45;&gt;Node24</title>
<path fill="none" stroke="midnightblue" d="M1100.32,-172.18C1084.67,-160.13 1067.25,-146.72 1053.43,-136.08"/>
<polygon fill="midnightblue" stroke="midnightblue" points="1098.26,-175.01 1108.32,-178.34 1102.53,-169.46 1098.26,-175.01"/>
</g>
<!-- Node26 -->
<g id="node20" class="node">
<title>Node26</title>
<g id="a_node20"><a xlink:href="jdiff__languages_8cpp.html" target="_top" xlink:title="Language Registration.">
<polygon fill="none" stroke="black" points="1169.5,-95 1169.5,-136 1322.5,-136 1322.5,-95 1169.5,-95"/>
<text text-anchor="start" x="1177.5" y="-124" font-family="Helvetica,sans-Serif" font-size="10.00">/home/runner/work/diffblue</text>
<text text-anchor="start" x="1177.5" y="-113" font-family="Helvetica,sans-Serif" font-size="10.00">&#45;cbmc/diffblue&#45;cbmc/jbmc</text>
<text text-anchor="middle" x="1246" y="-102" font-family="Helvetica,sans-Serif" font-size="10.00">/src/jdiff/jdiff_languages.cpp</text>
</a>
</g>
</g>
<!-- Node17&#45;&gt;Node26 -->
<g id="edge25" class="edge">
<title>Node17&#45;&gt;Node26</title>
<path fill="none" stroke="midnightblue" d="M1179.2,-171.85C1193.64,-159.88 1209.64,-146.62 1222.37,-136.08"/>
<polygon fill="midnightblue" stroke="midnightblue" points="1176.84,-169.26 1171.37,-178.34 1181.3,-174.65 1176.84,-169.26"/>
</g>
<!-- Node27 -->
<g id="node21" class="node">
<title>Node27</title>
<g id="a_node21"><a xlink:href="jdiff__parse__options_8cpp.html" target="_top" xlink:title="JDIFF Command Line Option Processing.">
<polygon fill="none" stroke="black" points="1340.5,-95 1340.5,-136 1511.5,-136 1511.5,-95 1340.5,-95"/>
<text text-anchor="start" x="1348.5" y="-124" font-family="Helvetica,sans-Serif" font-size="10.00">/home/runner/work/diffblue</text>
<text text-anchor="start" x="1348.5" y="-113" font-family="Helvetica,sans-Serif" font-size="10.00">&#45;cbmc/diffblue&#45;cbmc/jbmc</text>
<text text-anchor="middle" x="1426" y="-102" font-family="Helvetica,sans-Serif" font-size="10.00">/src/jdiff/jdiff_parse_options.cpp</text>
</a>
</g>
</g>
<!-- Node17&#45;&gt;Node27 -->
<g id="edge26" class="edge">
<title>Node17&#45;&gt;Node27</title>
<path fill="none" stroke="midnightblue" d="M1232.75,-175.49C1274.79,-162.66 1323.63,-147.75 1361.68,-136.13"/>
<polygon fill="midnightblue" stroke="midnightblue" points="1231.59,-172.19 1223.05,-178.45 1233.64,-178.88 1231.59,-172.19"/>
</g>
<!-- Node28 -->
<g id="node22" class="node">
<title>Node28</title>
<g id="a_node22"><a xlink:href="load__java__class_8cpp.html" target="_top" xlink:title=" ">
<polygon fill="none" stroke="black" points="1529.5,-89.5 1529.5,-141.5 1678.5,-141.5 1678.5,-89.5 1529.5,-89.5"/>
<text text-anchor="start" x="1537.5" y="-129.5" font-family="Helvetica,sans-Serif" font-size="10.00">/home/runner/work/diffblue</text>
<text text-anchor="start" x="1537.5" y="-118.5" font-family="Helvetica,sans-Serif" font-size="10.00">&#45;cbmc/diffblue&#45;cbmc/jbmc</text>
<text text-anchor="start" x="1537.5" y="-107.5" font-family="Helvetica,sans-Serif" font-size="10.00">/unit/java&#45;testing&#45;utils</text>
<text text-anchor="middle" x="1604" y="-96.5" font-family="Helvetica,sans-Serif" font-size="10.00">/load_java_class.cpp</text>
</a>
</g>
</g>
<!-- Node17&#45;&gt;Node28 -->
<g id="edge27" class="edge">
<title>Node17&#45;&gt;Node28</title>
<path fill="none" stroke="midnightblue" d="M1242.06,-177.91C1366.03,-155.14 1401.48,-167.85 1521,-142 1523.65,-141.43 1526.34,-140.81 1529.05,-140.15"/>
<polygon fill="midnightblue" stroke="midnightblue" points="1241.37,-174.48 1232.18,-179.76 1242.66,-181.36 1241.37,-174.48"/>
</g>
<!-- Node19&#45;&gt;Node18 -->
<g id="edge17" class="edge">
<title>Node19&#45;&gt;Node18</title>
<path fill="none" stroke="midnightblue" d="M1790.85,-80.64C1796.32,-71.31 1802.16,-61.35 1807.28,-52.61"/>
<polygon fill="midnightblue" stroke="midnightblue" points="1787.79,-78.94 1785.75,-89.34 1793.83,-82.48 1787.79,-78.94"/>
</g>
<!-- Node24&#45;&gt;Node23 -->
<g id="edge24" class="edge">
<title>Node24&#45;&gt;Node23</title>
<path fill="none" stroke="midnightblue" d="M1046.48,-86.3C1054.85,-73.52 1064.55,-58.72 1072.12,-47.16"/>
<polygon fill="midnightblue" stroke="midnightblue" points="1043.49,-84.48 1040.93,-94.76 1049.34,-88.31 1043.49,-84.48"/>
</g>
</g>
</svg>
