<?xml version="1.0" encoding="UTF-8" standalone="no"?>
<!DOCTYPE svg PUBLIC "-//W3C//DTD SVG 1.1//EN"
 "http://www.w3.org/Graphics/SVG/1.1/DTD/svg11.dtd">
<!-- Generated by graphviz version 2.43.0 (0)
 -->
<!-- Title: /home/runner/work/diffblue&#45;cbmc/diffblue&#45;cbmc/src/goto&#45;programs/name_mangler.h Pages: 1 -->
<svg width="779pt" height="128pt"
 viewBox="0.00 0.00 778.50 128.00" xmlns="http://www.w3.org/2000/svg" xmlns:xlink="http://www.w3.org/1999/xlink">
<g id="graph0" class="graph" transform="scale(1 1) rotate(0) translate(4 124)">
<title>/home/runner/work/diffblue&#45;cbmc/diffblue&#45;cbmc/src/goto&#45;programs/name_mangler.h</title>
<!-- Node1 -->
<g id="node1" class="node">
<title>Node1</title>
<g id="a_node1"><a xlink:title="Mangle names of file&#45;local functions to make them unique.">
<polygon fill="#bfbfbf" stroke="black" points="266.5,-78.5 266.5,-119.5 442.5,-119.5 442.5,-78.5 266.5,-78.5"/>
<text text-anchor="start" x="274.5" y="-107.5" font-family="Helvetica,sans-Serif" font-size="10.00">/home/runner/work/diffblue</text>
<text text-anchor="start" x="274.5" y="-96.5" font-family="Helvetica,sans-Serif" font-size="10.00">&#45;cbmc/diffblue&#45;cbmc/src</text>
<text text-anchor="middle" x="354.5" y="-85.5" font-family="Helvetica,sans-Serif" font-size="10.00">/goto&#45;programs/name_mangler.h</text>
</a>
</g>
</g>
<!-- Node2 -->
<g id="node2" class="node">
<title>Node2</title>
<g id="a_node2"><a xlink:href="c__typecheck__base_8cpp.html" target="_top" xlink:title="ANSI&#45;C Conversion / Type Checking.">
<polygon fill="none" stroke="black" points="0,-0.5 0,-41.5 161,-41.5 161,-0.5 0,-0.5"/>
<text text-anchor="start" x="8" y="-29.5" font-family="Helvetica,sans-Serif" font-size="10.00">/home/runner/work/diffblue</text>
<text text-anchor="start" x="8" y="-18.5" font-family="Helvetica,sans-Serif" font-size="10.00">&#45;cbmc/diffblue&#45;cbmc/src</text>
<text text-anchor="middle" x="80.5" y="-7.5" font-family="Helvetica,sans-Serif" font-size="10.00">/ansi&#45;c/c_typecheck_base.cpp</text>
</a>
</g>
</g>
<!-- Node1&#45;&gt;Node2 -->
<g id="edge1" class="edge">
<title>Node1&#45;&gt;Node2</title>
<path fill="none" stroke="midnightblue" d="M274.17,-75.72C235.07,-64.87 188.5,-51.96 150.82,-41.51"/>
<polygon fill="midnightblue" stroke="midnightblue" points="273.37,-79.13 283.94,-78.43 275.24,-72.38 273.37,-79.13"/>
</g>
<!-- Node3 -->
<g id="node3" class="node">
<title>Node3</title>
<g id="a_node3"><a xlink:href="compile_8cpp.html" target="_top" xlink:title="Compile and link source and object files.">
<polygon fill="none" stroke="black" points="179,-0.5 179,-41.5 328,-41.5 328,-0.5 179,-0.5"/>
<text text-anchor="start" x="187" y="-29.5" font-family="Helvetica,sans-Serif" font-size="10.00">/home/runner/work/diffblue</text>
<text text-anchor="start" x="187" y="-18.5" font-family="Helvetica,sans-Serif" font-size="10.00">&#45;cbmc/diffblue&#45;cbmc/src</text>
<text text-anchor="middle" x="253.5" y="-7.5" font-family="Helvetica,sans-Serif" font-size="10.00">/goto&#45;cc/compile.cpp</text>
</a>
</g>
</g>
<!-- Node1&#45;&gt;Node3 -->
<g id="edge2" class="edge">
<title>Node1&#45;&gt;Node3</title>
<path fill="none" stroke="midnightblue" d="M320.41,-72.35C307.02,-62.27 291.9,-50.89 279.42,-41.51"/>
<polygon fill="midnightblue" stroke="midnightblue" points="318.4,-75.21 328.49,-78.43 322.6,-69.62 318.4,-75.21"/>
</g>
<!-- Node4 -->
<g id="node4" class="node">
<title>Node4</title>
<g id="a_node4"><a xlink:href="recursive__initialization_8cpp.html" target="_top" xlink:title=" ">
<polygon fill="none" stroke="black" points="346.5,-0.5 346.5,-41.5 564.5,-41.5 564.5,-0.5 346.5,-0.5"/>
<text text-anchor="start" x="354.5" y="-29.5" font-family="Helvetica,sans-Serif" font-size="10.00">/home/runner/work/diffblue</text>
<text text-anchor="start" x="354.5" y="-18.5" font-family="Helvetica,sans-Serif" font-size="10.00">&#45;cbmc/diffblue&#45;cbmc/src</text>
<text text-anchor="middle" x="455.5" y="-7.5" font-family="Helvetica,sans-Serif" font-size="10.00">/goto&#45;harness/recursive_initialization.cpp</text>
</a>
</g>
</g>
<!-- Node1&#45;&gt;Node4 -->
<g id="edge3" class="edge">
<title>Node1&#45;&gt;Node4</title>
<path fill="none" stroke="midnightblue" d="M388.59,-72.35C401.98,-62.27 417.1,-50.89 429.58,-41.51"/>
<polygon fill="midnightblue" stroke="midnightblue" points="386.4,-69.62 380.51,-78.43 390.6,-75.21 386.4,-69.62"/>
</g>
<!-- Node5 -->
<g id="node5" class="node">
<title>Node5</title>
<g id="a_node5"><a xlink:href="name__mangler_8cpp.html" target="_top" xlink:title=" ">
<polygon fill="none" stroke="black" points="582.5,-0.5 582.5,-41.5 770.5,-41.5 770.5,-0.5 582.5,-0.5"/>
<text text-anchor="start" x="590.5" y="-29.5" font-family="Helvetica,sans-Serif" font-size="10.00">/home/runner/work/diffblue</text>
<text text-anchor="start" x="590.5" y="-18.5" font-family="Helvetica,sans-Serif" font-size="10.00">&#45;cbmc/diffblue&#45;cbmc/src</text>
<text text-anchor="middle" x="676.5" y="-7.5" font-family="Helvetica,sans-Serif" font-size="10.00">/goto&#45;programs/name_mangler.cpp</text>
</a>
</g>
</g>
<!-- Node1&#45;&gt;Node5 -->
<g id="edge4" class="edge">
<title>Node1&#45;&gt;Node5</title>
<path fill="none" stroke="midnightblue" d="M447.45,-76.06C493.69,-65.15 549.11,-52.07 593.86,-41.51"/>
<polygon fill="midnightblue" stroke="midnightblue" points="446.35,-72.72 437.42,-78.43 447.96,-79.54 446.35,-72.72"/>
</g>
</g>
</svg>
