<?xml version="1.0" encoding="UTF-8" standalone="no"?>
<!DOCTYPE svg PUBLIC "-//W3C//DTD SVG 1.1//EN"
 "http://www.w3.org/Graphics/SVG/1.1/DTD/svg11.dtd">
<!-- Generated by graphviz version 2.43.0 (0)
 -->
<!-- Title: /home/runner/work/diffblue&#45;cbmc/diffblue&#45;cbmc/src/util/narrow.h Pages: 1 -->
<svg width="283pt" height="162pt"
 viewBox="0.00 0.00 282.50 162.00" xmlns="http://www.w3.org/2000/svg" xmlns:xlink="http://www.w3.org/1999/xlink">
<g id="graph0" class="graph" transform="scale(1 1) rotate(0) translate(4 158)">
<title>/home/runner/work/diffblue&#45;cbmc/diffblue&#45;cbmc/src/util/narrow.h</title>
<!-- Node1 -->
<g id="node1" class="node">
<title>Node1</title>
<g id="a_node1"><a xlink:title=" ">
<polygon fill="#bfbfbf" stroke="black" points="0,-112.5 0,-153.5 149,-153.5 149,-112.5 0,-112.5"/>
<text text-anchor="start" x="8" y="-141.5" font-family="Helvetica,sans-Serif" font-size="10.00">/home/runner/work/diffblue</text>
<text text-anchor="start" x="8" y="-130.5" font-family="Helvetica,sans-Serif" font-size="10.00">&#45;cbmc/diffblue&#45;cbmc/src</text>
<text text-anchor="middle" x="74.5" y="-119.5" font-family="Helvetica,sans-Serif" font-size="10.00">/util/narrow.h</text>
</a>
</g>
</g>
<!-- Node2 -->
<g id="node2" class="node">
<title>Node2</title>
<g id="a_node2"><a xlink:title=" ">
<polygon fill="none" stroke="#bfbfbf" points="2,-0.5 2,-19.5 71,-19.5 71,-0.5 2,-0.5"/>
<text text-anchor="middle" x="36.5" y="-7.5" font-family="Helvetica,sans-Serif" font-size="10.00">type_traits</text>
</a>
</g>
</g>
<!-- Node1&#45;&gt;Node2 -->
<g id="edge1" class="edge">
<title>Node1&#45;&gt;Node2</title>
<path fill="none" stroke="midnightblue" d="M68.31,-112.29C61.08,-89.27 49.22,-51.5 42.21,-29.17"/>
<polygon fill="midnightblue" stroke="midnightblue" points="45.53,-28.07 39.19,-19.57 38.85,-30.16 45.53,-28.07"/>
</g>
<!-- Node3 -->
<g id="node3" class="node">
<title>Node3</title>
<g id="a_node3"><a xlink:href="src_2util_2invariant_8h.html" target="_top" xlink:title=" ">
<polygon fill="none" stroke="black" points="79,-56.5 79,-75.5 148,-75.5 148,-56.5 79,-56.5"/>
<text text-anchor="middle" x="113.5" y="-63.5" font-family="Helvetica,sans-Serif" font-size="10.00">invariant.h</text>
</a>
</g>
</g>
<!-- Node1&#45;&gt;Node3 -->
<g id="edge2" class="edge">
<title>Node1&#45;&gt;Node3</title>
<path fill="none" stroke="midnightblue" d="M86.2,-112.5C91.55,-103.59 97.83,-93.11 103.02,-84.46"/>
<polygon fill="midnightblue" stroke="midnightblue" points="106.16,-86.03 108.31,-75.65 100.16,-82.43 106.16,-86.03"/>
</g>
<!-- Node3&#45;&gt;Node2 -->
<g id="edge6" class="edge">
<title>Node3&#45;&gt;Node2</title>
<path fill="none" stroke="midnightblue" d="M101.13,-56.32C89.34,-48.06 71.37,-35.45 57.36,-25.63"/>
<polygon fill="midnightblue" stroke="midnightblue" points="59.04,-22.53 48.84,-19.65 55.02,-28.26 59.04,-22.53"/>
</g>
<!-- Node4 -->
<g id="node4" class="node">
<title>Node4</title>
<g id="a_node4"><a xlink:title=" ">
<polygon fill="none" stroke="#bfbfbf" points="89,-0.5 89,-19.5 138,-19.5 138,-0.5 89,-0.5"/>
<text text-anchor="middle" x="113.5" y="-7.5" font-family="Helvetica,sans-Serif" font-size="10.00">cstdlib</text>
</a>
</g>
</g>
<!-- Node3&#45;&gt;Node4 -->
<g id="edge3" class="edge">
<title>Node3&#45;&gt;Node4</title>
<path fill="none" stroke="midnightblue" d="M113.5,-56.08C113.5,-49.01 113.5,-38.86 113.5,-29.99"/>
<polygon fill="midnightblue" stroke="midnightblue" points="117,-29.75 113.5,-19.75 110,-29.75 117,-29.75"/>
</g>
<!-- Node5 -->
<g id="node5" class="node">
<title>Node5</title>
<g id="a_node5"><a xlink:title=" ">
<polygon fill="none" stroke="#bfbfbf" points="156.5,-0.5 156.5,-19.5 212.5,-19.5 212.5,-0.5 156.5,-0.5"/>
<text text-anchor="middle" x="184.5" y="-7.5" font-family="Helvetica,sans-Serif" font-size="10.00">sstream</text>
</a>
</g>
</g>
<!-- Node3&#45;&gt;Node5 -->
<g id="edge4" class="edge">
<title>Node3&#45;&gt;Node5</title>
<path fill="none" stroke="midnightblue" d="M124.91,-56.32C135.61,-48.18 151.84,-35.84 164.66,-26.09"/>
<polygon fill="midnightblue" stroke="midnightblue" points="167.04,-28.67 172.89,-19.83 162.81,-23.1 167.04,-28.67"/>
</g>
<!-- Node6 -->
<g id="node6" class="node">
<title>Node6</title>
<g id="a_node6"><a xlink:title=" ">
<polygon fill="none" stroke="#bfbfbf" points="230.5,-0.5 230.5,-19.5 274.5,-19.5 274.5,-0.5 230.5,-0.5"/>
<text text-anchor="middle" x="252.5" y="-7.5" font-family="Helvetica,sans-Serif" font-size="10.00">string</text>
</a>
</g>
</g>
<!-- Node3&#45;&gt;Node6 -->
<g id="edge5" class="edge">
<title>Node3&#45;&gt;Node6</title>
<path fill="none" stroke="midnightblue" d="M135.52,-56.44C158.6,-47.48 195.06,-33.31 221.14,-23.18"/>
<polygon fill="midnightblue" stroke="midnightblue" points="222.52,-26.4 230.58,-19.52 219.99,-19.88 222.52,-26.4"/>
</g>
</g>
</svg>
