<?xml version="1.0" encoding="UTF-8" standalone="no"?>
<!DOCTYPE svg PUBLIC "-//W3C//DTD SVG 1.1//EN"
 "http://www.w3.org/Graphics/SVG/1.1/DTD/svg11.dtd">
<!-- Generated by graphviz version 2.43.0 (0)
 -->
<!-- Title: /home/runner/work/diffblue&#45;cbmc/diffblue&#45;cbmc/src/util/nondet_bool.h Pages: 1 -->
<svg width="389pt" height="139pt"
 viewBox="0.00 0.00 388.50 139.00" xmlns="http://www.w3.org/2000/svg" xmlns:xlink="http://www.w3.org/1999/xlink">
<g id="graph0" class="graph" transform="scale(1 1) rotate(0) translate(4 135)">
<title>/home/runner/work/diffblue&#45;cbmc/diffblue&#45;cbmc/src/util/nondet_bool.h</title>
<!-- Node1 -->
<g id="node1" class="node">
<title>Node1</title>
<g id="a_node1"><a xlink:title="Nondeterministic boolean helper.">
<polygon fill="#bfbfbf" stroke="black" points="122.5,-89.5 122.5,-130.5 271.5,-130.5 271.5,-89.5 122.5,-89.5"/>
<text text-anchor="start" x="130.5" y="-118.5" font-family="Helvetica,sans-Serif" font-size="10.00">/home/runner/work/diffblue</text>
<text text-anchor="start" x="130.5" y="-107.5" font-family="Helvetica,sans-Serif" font-size="10.00">&#45;cbmc/diffblue&#45;cbmc/src</text>
<text text-anchor="middle" x="197" y="-96.5" font-family="Helvetica,sans-Serif" font-size="10.00">/util/nondet_bool.h</text>
</a>
</g>
</g>
<!-- Node2 -->
<g id="node2" class="node">
<title>Node2</title>
<g id="a_node2"><a xlink:href="c__nondet__symbol__factory_8cpp.html" target="_top" xlink:title="C Nondet Symbol Factory.">
<polygon fill="none" stroke="black" points="0,-6 0,-47 196,-47 196,-6 0,-6"/>
<text text-anchor="start" x="8" y="-35" font-family="Helvetica,sans-Serif" font-size="10.00">/home/runner/work/diffblue</text>
<text text-anchor="start" x="8" y="-24" font-family="Helvetica,sans-Serif" font-size="10.00">&#45;cbmc/diffblue&#45;cbmc/src</text>
<text text-anchor="middle" x="98" y="-13" font-family="Helvetica,sans-Serif" font-size="10.00">/ansi&#45;c/c_nondet_symbol_factory.cpp</text>
</a>
</g>
</g>
<!-- Node1&#45;&gt;Node2 -->
<g id="edge1" class="edge">
<title>Node1&#45;&gt;Node2</title>
<path fill="none" stroke="midnightblue" d="M165.29,-82.89C151.2,-71.3 134.89,-57.87 121.86,-47.14"/>
<polygon fill="midnightblue" stroke="midnightblue" points="163.34,-85.83 173.29,-89.48 167.79,-80.42 163.34,-85.83"/>
</g>
<!-- Node3 -->
<g id="node3" class="node">
<title>Node3</title>
<g id="a_node3"><a xlink:href="java__object__factory_8cpp.html" target="_top" xlink:title=" ">
<polygon fill="none" stroke="black" points="213.5,-0.5 213.5,-52.5 380.5,-52.5 380.5,-0.5 213.5,-0.5"/>
<text text-anchor="start" x="221.5" y="-40.5" font-family="Helvetica,sans-Serif" font-size="10.00">/home/runner/work/diffblue</text>
<text text-anchor="start" x="221.5" y="-29.5" font-family="Helvetica,sans-Serif" font-size="10.00">&#45;cbmc/diffblue&#45;cbmc/jbmc</text>
<text text-anchor="start" x="221.5" y="-18.5" font-family="Helvetica,sans-Serif" font-size="10.00">/src/java_bytecode/java_object</text>
<text text-anchor="middle" x="297" y="-7.5" font-family="Helvetica,sans-Serif" font-size="10.00">_factory.cpp</text>
</a>
</g>
</g>
<!-- Node1&#45;&gt;Node3 -->
<g id="edge2" class="edge">
<title>Node1&#45;&gt;Node3</title>
<path fill="none" stroke="midnightblue" d="M228.89,-83.01C240.78,-73.32 254.24,-62.35 266.05,-52.73"/>
<polygon fill="midnightblue" stroke="midnightblue" points="226.49,-80.45 220.95,-89.48 230.92,-85.87 226.49,-80.45"/>
</g>
</g>
</svg>
