<?xml version="1.0" encoding="UTF-8" standalone="no"?>
<!DOCTYPE svg PUBLIC "-//W3C//DTD SVG 1.1//EN"
 "http://www.w3.org/Graphics/SVG/1.1/DTD/svg11.dtd">
<!-- Generated by graphviz version 2.43.0 (0)
 -->
<!-- Title: /home/runner/work/diffblue&#45;cbmc/diffblue&#45;cbmc/jbmc/src/java_bytecode/nondet.h Pages: 1 -->
<svg width="873pt" height="228pt"
 viewBox="0.00 0.00 873.00 228.00" xmlns="http://www.w3.org/2000/svg" xmlns:xlink="http://www.w3.org/1999/xlink">
<g id="graph0" class="graph" transform="scale(1 1) rotate(0) translate(4 224)">
<title>/home/runner/work/diffblue&#45;cbmc/diffblue&#45;cbmc/jbmc/src/java_bytecode/nondet.h</title>
<!-- Node1 -->
<g id="node1" class="node">
<title>Node1</title>
<g id="a_node1"><a xlink:title=" ">
<polygon fill="#bfbfbf" stroke="black" points="266.5,-178.5 266.5,-219.5 420.5,-219.5 420.5,-178.5 266.5,-178.5"/>
<text text-anchor="start" x="274.5" y="-207.5" font-family="Helvetica,sans-Serif" font-size="10.00">/home/runner/work/diffblue</text>
<text text-anchor="start" x="274.5" y="-196.5" font-family="Helvetica,sans-Serif" font-size="10.00">&#45;cbmc/diffblue&#45;cbmc/jbmc</text>
<text text-anchor="middle" x="343.5" y="-185.5" font-family="Helvetica,sans-Serif" font-size="10.00">/src/java_bytecode/nondet.h</text>
</a>
</g>
</g>
<!-- Node2 -->
<g id="node2" class="node">
<title>Node2</title>
<g id="a_node2"><a xlink:href="java__entry__point_8cpp.html" target="_top" xlink:title=" ">
<polygon fill="none" stroke="black" points="0,-0.5 0,-52.5 163,-52.5 163,-0.5 0,-0.5"/>
<text text-anchor="start" x="8" y="-40.5" font-family="Helvetica,sans-Serif" font-size="10.00">/home/runner/work/diffblue</text>
<text text-anchor="start" x="8" y="-29.5" font-family="Helvetica,sans-Serif" font-size="10.00">&#45;cbmc/diffblue&#45;cbmc/jbmc</text>
<text text-anchor="start" x="8" y="-18.5" font-family="Helvetica,sans-Serif" font-size="10.00">/src/java_bytecode/java_entry</text>
<text text-anchor="middle" x="81.5" y="-7.5" font-family="Helvetica,sans-Serif" font-size="10.00">_point.cpp</text>
</a>
</g>
</g>
<!-- Node1&#45;&gt;Node2 -->
<g id="edge1" class="edge">
<title>Node1&#45;&gt;Node2</title>
<path fill="none" stroke="midnightblue" d="M301.49,-172.98C285.71,-163.44 267.69,-152.37 251.5,-142 204.76,-112.06 151.86,-76.09 117.66,-52.56"/>
<polygon fill="midnightblue" stroke="midnightblue" points="300.12,-176.24 310.49,-178.41 303.73,-170.25 300.12,-176.24"/>
</g>
<!-- Node3 -->
<g id="node3" class="node">
<title>Node3</title>
<g id="a_node3"><a xlink:href="java__object__factory_8h.html" target="_top" xlink:title="This module is responsible for the synthesis of code (in the form of a sequence of codet statements) ...">
<polygon fill="none" stroke="black" points="260,-89.5 260,-141.5 427,-141.5 427,-89.5 260,-89.5"/>
<text text-anchor="start" x="268" y="-129.5" font-family="Helvetica,sans-Serif" font-size="10.00">/home/runner/work/diffblue</text>
<text text-anchor="start" x="268" y="-118.5" font-family="Helvetica,sans-Serif" font-size="10.00">&#45;cbmc/diffblue&#45;cbmc/jbmc</text>
<text text-anchor="start" x="268" y="-107.5" font-family="Helvetica,sans-Serif" font-size="10.00">/src/java_bytecode/java_object</text>
<text text-anchor="middle" x="343.5" y="-96.5" font-family="Helvetica,sans-Serif" font-size="10.00">_factory.h</text>
</a>
</g>
</g>
<!-- Node1&#45;&gt;Node3 -->
<g id="edge2" class="edge">
<title>Node1&#45;&gt;Node3</title>
<path fill="none" stroke="midnightblue" d="M343.5,-168.12C343.5,-159.41 343.5,-149.99 343.5,-141.61"/>
<polygon fill="midnightblue" stroke="midnightblue" points="340,-168.27 343.5,-178.27 347,-168.27 340,-168.27"/>
</g>
<!-- Node8 -->
<g id="node8" class="node">
<title>Node8</title>
<g id="a_node8"><a xlink:href="nondet_8cpp.html" target="_top" xlink:title=" ">
<polygon fill="none" stroke="black" points="445,-95 445,-136 610,-136 610,-95 445,-95"/>
<text text-anchor="start" x="453" y="-124" font-family="Helvetica,sans-Serif" font-size="10.00">/home/runner/work/diffblue</text>
<text text-anchor="start" x="453" y="-113" font-family="Helvetica,sans-Serif" font-size="10.00">&#45;cbmc/diffblue&#45;cbmc/jbmc</text>
<text text-anchor="middle" x="527.5" y="-102" font-family="Helvetica,sans-Serif" font-size="10.00">/src/java_bytecode/nondet.cpp</text>
</a>
</g>
</g>
<!-- Node1&#45;&gt;Node8 -->
<g id="edge8" class="edge">
<title>Node1&#45;&gt;Node8</title>
<path fill="none" stroke="midnightblue" d="M397.03,-174.29C424.48,-162.13 457.51,-147.5 483.47,-136"/>
<polygon fill="midnightblue" stroke="midnightblue" points="395.3,-171.23 387.57,-178.48 398.13,-177.63 395.3,-171.23"/>
</g>
<!-- Node3&#45;&gt;Node2 -->
<g id="edge4" class="edge">
<title>Node3&#45;&gt;Node2</title>
<path fill="none" stroke="midnightblue" d="M258.51,-86.28C225.76,-75.4 188.63,-63.07 156.85,-52.52"/>
<polygon fill="midnightblue" stroke="midnightblue" points="257.48,-89.62 268.07,-89.45 259.68,-82.98 257.48,-89.62"/>
</g>
<!-- Node4 -->
<g id="node4" class="node">
<title>Node4</title>
<g id="a_node4"><a xlink:href="convert__java__nondet_8cpp.html" target="_top" xlink:title="Convert side_effect_expr_nondett expressions.">
<polygon fill="none" stroke="black" points="181,-0.5 181,-52.5 330,-52.5 330,-0.5 181,-0.5"/>
<text text-anchor="start" x="189" y="-40.5" font-family="Helvetica,sans-Serif" font-size="10.00">/home/runner/work/diffblue</text>
<text text-anchor="start" x="189" y="-29.5" font-family="Helvetica,sans-Serif" font-size="10.00">&#45;cbmc/diffblue&#45;cbmc/jbmc</text>
<text text-anchor="start" x="189" y="-18.5" font-family="Helvetica,sans-Serif" font-size="10.00">/src/java_bytecode/convert</text>
<text text-anchor="middle" x="255.5" y="-7.5" font-family="Helvetica,sans-Serif" font-size="10.00">_java_nondet.cpp</text>
</a>
</g>
</g>
<!-- Node3&#45;&gt;Node4 -->
<g id="edge3" class="edge">
<title>Node3&#45;&gt;Node4</title>
<path fill="none" stroke="midnightblue" d="M310.7,-82.08C300.85,-72.34 290.19,-61.8 280.9,-52.61"/>
<polygon fill="midnightblue" stroke="midnightblue" points="308.47,-84.79 318.05,-89.34 313.4,-79.82 308.47,-84.79"/>
</g>
<!-- Node5 -->
<g id="node5" class="node">
<title>Node5</title>
<g id="a_node5"><a xlink:href="java__object__factory_8cpp.html" target="_top" xlink:title=" ">
<polygon fill="none" stroke="black" points="348,-0.5 348,-52.5 515,-52.5 515,-0.5 348,-0.5"/>
<text text-anchor="start" x="356" y="-40.5" font-family="Helvetica,sans-Serif" font-size="10.00">/home/runner/work/diffblue</text>
<text text-anchor="start" x="356" y="-29.5" font-family="Helvetica,sans-Serif" font-size="10.00">&#45;cbmc/diffblue&#45;cbmc/jbmc</text>
<text text-anchor="start" x="356" y="-18.5" font-family="Helvetica,sans-Serif" font-size="10.00">/src/java_bytecode/java_object</text>
<text text-anchor="middle" x="431.5" y="-7.5" font-family="Helvetica,sans-Serif" font-size="10.00">_factory.cpp</text>
</a>
</g>
</g>
<!-- Node3&#45;&gt;Node5 -->
<g id="edge5" class="edge">
<title>Node3&#45;&gt;Node5</title>
<path fill="none" stroke="midnightblue" d="M376.3,-82.08C386.15,-72.34 396.81,-61.8 406.1,-52.61"/>
<polygon fill="midnightblue" stroke="midnightblue" points="373.6,-79.82 368.95,-89.34 378.53,-84.79 373.6,-79.82"/>
</g>
<!-- Node6 -->
<g id="node6" class="node">
<title>Node6</title>
<g id="a_node6"><a xlink:href="java__static__initializers_8cpp.html" target="_top" xlink:title=" ">
<polygon fill="none" stroke="black" points="533.5,-0.5 533.5,-52.5 697.5,-52.5 697.5,-0.5 533.5,-0.5"/>
<text text-anchor="start" x="541.5" y="-40.5" font-family="Helvetica,sans-Serif" font-size="10.00">/home/runner/work/diffblue</text>
<text text-anchor="start" x="541.5" y="-29.5" font-family="Helvetica,sans-Serif" font-size="10.00">&#45;cbmc/diffblue&#45;cbmc/jbmc</text>
<text text-anchor="start" x="541.5" y="-18.5" font-family="Helvetica,sans-Serif" font-size="10.00">/src/java_bytecode/java_static</text>
<text text-anchor="middle" x="615.5" y="-7.5" font-family="Helvetica,sans-Serif" font-size="10.00">_initializers.cpp</text>
</a>
</g>
</g>
<!-- Node3&#45;&gt;Node6 -->
<g id="edge6" class="edge">
<title>Node3&#45;&gt;Node6</title>
<path fill="none" stroke="midnightblue" d="M431.73,-86.28C465.73,-75.4 504.29,-63.07 537.27,-52.52"/>
<polygon fill="midnightblue" stroke="midnightblue" points="430.27,-83.07 421.81,-89.45 432.4,-89.74 430.27,-83.07"/>
</g>
<!-- Node7 -->
<g id="node7" class="node">
<title>Node7</title>
<g id="a_node7"><a xlink:href="simple__method__stubbing_8cpp.html" target="_top" xlink:title="Java simple opaque stub generation.">
<polygon fill="none" stroke="black" points="716,-0.5 716,-52.5 865,-52.5 865,-0.5 716,-0.5"/>
<text text-anchor="start" x="724" y="-40.5" font-family="Helvetica,sans-Serif" font-size="10.00">/home/runner/work/diffblue</text>
<text text-anchor="start" x="724" y="-29.5" font-family="Helvetica,sans-Serif" font-size="10.00">&#45;cbmc/diffblue&#45;cbmc/jbmc</text>
<text text-anchor="start" x="724" y="-18.5" font-family="Helvetica,sans-Serif" font-size="10.00">/src/java_bytecode/simple</text>
<text text-anchor="middle" x="790.5" y="-7.5" font-family="Helvetica,sans-Serif" font-size="10.00">_method_stubbing.cpp</text>
</a>
</g>
</g>
<!-- Node3&#45;&gt;Node7 -->
<g id="edge7" class="edge">
<title>Node3&#45;&gt;Node7</title>
<path fill="none" stroke="midnightblue" d="M436.96,-89.04C556.95,-65.64 591.31,-77.99 706.5,-53 709.48,-52.35 712.5,-51.65 715.55,-50.91"/>
<polygon fill="midnightblue" stroke="midnightblue" points="436.15,-85.64 427.02,-91.03 437.51,-92.5 436.15,-85.64"/>
</g>
</g>
</svg>
