<?xml version="1.0" encoding="UTF-8" standalone="no"?>
<!DOCTYPE svg PUBLIC "-//W3C//DTD SVG 1.1//EN"
 "http://www.w3.org/Graphics/SVG/1.1/DTD/svg11.dtd">
<!-- Generated by graphviz version 2.43.0 (0)
 -->
<!-- Title: /home/runner/work/diffblue&#45;cbmc/diffblue&#45;cbmc/src/pointer&#45;analysis/object_numbering.h Pages: 1 -->
<svg width="1776pt" height="662pt"
 viewBox="0.00 0.00 1776.00 662.00" xmlns="http://www.w3.org/2000/svg" xmlns:xlink="http://www.w3.org/1999/xlink">
<g id="graph0" class="graph" transform="scale(1 1) rotate(0) translate(4 658)">
<title>/home/runner/work/diffblue&#45;cbmc/diffblue&#45;cbmc/src/pointer&#45;analysis/object_numbering.h</title>
<!-- Node1 -->
<g id="node1" class="node">
<title>Node1</title>
<g id="a_node1"><a xlink:title="Object Numbering.">
<polygon fill="#bfbfbf" stroke="black" points="1103,-601.5 1103,-653.5 1252,-653.5 1252,-601.5 1103,-601.5"/>
<text text-anchor="start" x="1111" y="-641.5" font-family="Helvetica,sans-Serif" font-size="10.00">/home/runner/work/diffblue</text>
<text text-anchor="start" x="1111" y="-630.5" font-family="Helvetica,sans-Serif" font-size="10.00">&#45;cbmc/diffblue&#45;cbmc/src</text>
<text text-anchor="start" x="1111" y="-619.5" font-family="Helvetica,sans-Serif" font-size="10.00">/pointer&#45;analysis/object</text>
<text text-anchor="middle" x="1177.5" y="-608.5" font-family="Helvetica,sans-Serif" font-size="10.00">_numbering.h</text>
</a>
</g>
</g>
<!-- Node2 -->
<g id="node2" class="node">
<title>Node2</title>
<g id="a_node2"><a xlink:href="value__set_8h.html" target="_top" xlink:title="Value Set.">
<polygon fill="none" stroke="black" points="922.5,-523.5 922.5,-564.5 1080.5,-564.5 1080.5,-523.5 922.5,-523.5"/>
<text text-anchor="start" x="930.5" y="-552.5" font-family="Helvetica,sans-Serif" font-size="10.00">/home/runner/work/diffblue</text>
<text text-anchor="start" x="930.5" y="-541.5" font-family="Helvetica,sans-Serif" font-size="10.00">&#45;cbmc/diffblue&#45;cbmc/src</text>
<text text-anchor="middle" x="1001.5" y="-530.5" font-family="Helvetica,sans-Serif" font-size="10.00">/pointer&#45;analysis/value_set.h</text>
</a>
</g>
</g>
<!-- Node1&#45;&gt;Node2 -->
<g id="edge1" class="edge">
<title>Node1&#45;&gt;Node2</title>
<path fill="none" stroke="midnightblue" d="M1114.11,-597.14C1090.75,-586.33 1064.88,-574.35 1043.83,-564.6"/>
<polygon fill="midnightblue" stroke="midnightblue" points="1112.71,-600.36 1123.26,-601.38 1115.65,-594 1112.71,-600.36"/>
</g>
<!-- Node81 -->
<g id="node26" class="node">
<title>Node81</title>
<g id="a_node26"><a xlink:href="value__set__fi_8h.html" target="_top" xlink:title="Value Set (Flow Insensitive, Sharing)">
<polygon fill="none" stroke="black" points="1286,-523.5 1286,-564.5 1455,-564.5 1455,-523.5 1286,-523.5"/>
<text text-anchor="start" x="1294" y="-552.5" font-family="Helvetica,sans-Serif" font-size="10.00">/home/runner/work/diffblue</text>
<text text-anchor="start" x="1294" y="-541.5" font-family="Helvetica,sans-Serif" font-size="10.00">&#45;cbmc/diffblue&#45;cbmc/src</text>
<text text-anchor="middle" x="1370.5" y="-530.5" font-family="Helvetica,sans-Serif" font-size="10.00">/pointer&#45;analysis/value_set_fi.h</text>
</a>
</g>
</g>
<!-- Node1&#45;&gt;Node81 -->
<g id="edge30" class="edge">
<title>Node1&#45;&gt;Node81</title>
<path fill="none" stroke="midnightblue" d="M1246.12,-597.52C1272.03,-586.58 1300.88,-574.4 1324.26,-564.52"/>
<polygon fill="midnightblue" stroke="midnightblue" points="1244.57,-594.38 1236.72,-601.49 1247.29,-600.83 1244.57,-594.38"/>
</g>
<!-- Node3 -->
<g id="node3" class="node">
<title>Node3</title>
<g id="a_node3"><a xlink:href="goto__state_8h.html" target="_top" xlink:title="goto_statet class definition">
<polygon fill="none" stroke="black" points="927,-440 927,-481 1076,-481 1076,-440 927,-440"/>
<text text-anchor="start" x="935" y="-469" font-family="Helvetica,sans-Serif" font-size="10.00">/home/runner/work/diffblue</text>
<text text-anchor="start" x="935" y="-458" font-family="Helvetica,sans-Serif" font-size="10.00">&#45;cbmc/diffblue&#45;cbmc/src</text>
<text text-anchor="middle" x="1001.5" y="-447" font-family="Helvetica,sans-Serif" font-size="10.00">/goto&#45;symex/goto_state.h</text>
</a>
</g>
</g>
<!-- Node2&#45;&gt;Node3 -->
<g id="edge2" class="edge">
<title>Node2&#45;&gt;Node3</title>
<path fill="none" stroke="midnightblue" d="M1001.5,-513.06C1001.5,-502.38 1001.5,-490.63 1001.5,-481.05"/>
<polygon fill="midnightblue" stroke="midnightblue" points="998,-513.27 1001.5,-523.27 1005,-513.27 998,-513.27"/>
</g>
<!-- Node73 -->
<g id="node18" class="node">
<title>Node73</title>
<g id="a_node18"><a xlink:href="postcondition_8cpp.html" target="_top" xlink:title="Symbolic Execution.">
<polygon fill="none" stroke="black" points="1094,-440 1094,-481 1261,-481 1261,-440 1094,-440"/>
<text text-anchor="start" x="1102" y="-469" font-family="Helvetica,sans-Serif" font-size="10.00">/home/runner/work/diffblue</text>
<text text-anchor="start" x="1102" y="-458" font-family="Helvetica,sans-Serif" font-size="10.00">&#45;cbmc/diffblue&#45;cbmc/src</text>
<text text-anchor="middle" x="1177.5" y="-447" font-family="Helvetica,sans-Serif" font-size="10.00">/goto&#45;symex/postcondition.cpp</text>
</a>
</g>
</g>
<!-- Node2&#45;&gt;Node73 -->
<g id="edge20" class="edge">
<title>Node2&#45;&gt;Node73</title>
<path fill="none" stroke="midnightblue" d="M1053.05,-519.13C1079.24,-507 1110.66,-492.45 1135.38,-481"/>
<polygon fill="midnightblue" stroke="midnightblue" points="1051.26,-516.1 1043.66,-523.48 1054.2,-522.45 1051.26,-516.1"/>
</g>
<!-- Node74 -->
<g id="node19" class="node">
<title>Node74</title>
<g id="a_node19"><a xlink:href="value__set_8cpp.html" target="_top" xlink:title="Value Set.">
<polygon fill="none" stroke="black" points="573,-440 573,-481 742,-481 742,-440 573,-440"/>
<text text-anchor="start" x="581" y="-469" font-family="Helvetica,sans-Serif" font-size="10.00">/home/runner/work/diffblue</text>
<text text-anchor="start" x="581" y="-458" font-family="Helvetica,sans-Serif" font-size="10.00">&#45;cbmc/diffblue&#45;cbmc/src</text>
<text text-anchor="middle" x="657.5" y="-447" font-family="Helvetica,sans-Serif" font-size="10.00">/pointer&#45;analysis/value_set.cpp</text>
</a>
</g>
</g>
<!-- Node2&#45;&gt;Node74 -->
<g id="edge21" class="edge">
<title>Node2&#45;&gt;Node74</title>
<path fill="none" stroke="midnightblue" d="M912.35,-524.2C864.28,-513.79 804,-500.29 750.5,-487 742.94,-485.12 735.07,-483.09 727.23,-481.01"/>
<polygon fill="midnightblue" stroke="midnightblue" points="911.91,-527.69 922.42,-526.38 913.38,-520.84 911.91,-527.69"/>
</g>
<!-- Node75 -->
<g id="node20" class="node">
<title>Node75</title>
<g id="a_node20"><a xlink:href="value__set__domain_8h.html" target="_top" xlink:title="Value Set.">
<polygon fill="none" stroke="black" points="760,-434.5 760,-486.5 909,-486.5 909,-434.5 760,-434.5"/>
<text text-anchor="start" x="768" y="-474.5" font-family="Helvetica,sans-Serif" font-size="10.00">/home/runner/work/diffblue</text>
<text text-anchor="start" x="768" y="-463.5" font-family="Helvetica,sans-Serif" font-size="10.00">&#45;cbmc/diffblue&#45;cbmc/src</text>
<text text-anchor="start" x="768" y="-452.5" font-family="Helvetica,sans-Serif" font-size="10.00">/pointer&#45;analysis/value_set</text>
<text text-anchor="middle" x="834.5" y="-441.5" font-family="Helvetica,sans-Serif" font-size="10.00">_domain.h</text>
</a>
</g>
</g>
<!-- Node2&#45;&gt;Node75 -->
<g id="edge22" class="edge">
<title>Node2&#45;&gt;Node75</title>
<path fill="none" stroke="midnightblue" d="M952.46,-519.07C931.52,-508.85 907.07,-496.92 885.88,-486.58"/>
<polygon fill="midnightblue" stroke="midnightblue" points="950.98,-522.24 961.5,-523.48 954.05,-515.95 950.98,-522.24"/>
</g>
<!-- Node4 -->
<g id="node4" class="node">
<title>Node4</title>
<g id="a_node4"><a xlink:href="frame_8h.html" target="_top" xlink:title="Class for stack frames.">
<polygon fill="none" stroke="black" points="825,-351 825,-392 974,-392 974,-351 825,-351"/>
<text text-anchor="start" x="833" y="-380" font-family="Helvetica,sans-Serif" font-size="10.00">/home/runner/work/diffblue</text>
<text text-anchor="start" x="833" y="-369" font-family="Helvetica,sans-Serif" font-size="10.00">&#45;cbmc/diffblue&#45;cbmc/src</text>
<text text-anchor="middle" x="899.5" y="-358" font-family="Helvetica,sans-Serif" font-size="10.00">/goto&#45;symex/frame.h</text>
</a>
</g>
</g>
<!-- Node3&#45;&gt;Node4 -->
<g id="edge3" class="edge">
<title>Node3&#45;&gt;Node4</title>
<path fill="none" stroke="midnightblue" d="M970.83,-433.34C955.37,-420.15 936.93,-404.42 922.67,-392.26"/>
<polygon fill="midnightblue" stroke="midnightblue" points="968.73,-436.15 978.61,-439.98 973.27,-430.82 968.73,-436.15"/>
</g>
<!-- Node6 -->
<g id="node6" class="node">
<title>Node6</title>
<g id="a_node6"><a xlink:href="goto__symex__state_8h.html" target="_top" xlink:title="Symbolic Execution.">
<polygon fill="none" stroke="black" points="902.5,-173 902.5,-214 1082.5,-214 1082.5,-173 902.5,-173"/>
<text text-anchor="start" x="910.5" y="-202" font-family="Helvetica,sans-Serif" font-size="10.00">/home/runner/work/diffblue</text>
<text text-anchor="start" x="910.5" y="-191" font-family="Helvetica,sans-Serif" font-size="10.00">&#45;cbmc/diffblue&#45;cbmc/src</text>
<text text-anchor="middle" x="992.5" y="-180" font-family="Helvetica,sans-Serif" font-size="10.00">/goto&#45;symex/goto_symex_state.h</text>
</a>
</g>
</g>
<!-- Node3&#45;&gt;Node6 -->
<g id="edge19" class="edge">
<title>Node3&#45;&gt;Node6</title>
<path fill="none" stroke="midnightblue" d="M1000.48,-429.48C998.62,-374.78 994.74,-260.31 993.17,-214.29"/>
<polygon fill="midnightblue" stroke="midnightblue" points="996.99,-429.71 1000.82,-439.58 1003.98,-429.47 996.99,-429.71"/>
</g>
<!-- Node9 -->
<g id="node9" class="node">
<title>Node9</title>
<g id="a_node9"><a xlink:href="goto__state_8cpp.html" target="_top" xlink:title=" ">
<polygon fill="none" stroke="black" points="1615,-84 1615,-125 1768,-125 1768,-84 1615,-84"/>
<text text-anchor="start" x="1623" y="-113" font-family="Helvetica,sans-Serif" font-size="10.00">/home/runner/work/diffblue</text>
<text text-anchor="start" x="1623" y="-102" font-family="Helvetica,sans-Serif" font-size="10.00">&#45;cbmc/diffblue&#45;cbmc/src</text>
<text text-anchor="middle" x="1691.5" y="-91" font-family="Helvetica,sans-Serif" font-size="10.00">/goto&#45;symex/goto_state.cpp</text>
</a>
</g>
</g>
<!-- Node3&#45;&gt;Node9 -->
<g id="edge18" class="edge">
<title>Node3&#45;&gt;Node9</title>
<path fill="none" stroke="midnightblue" d="M1011.58,-430.42C1028.54,-385.89 1067.08,-301.22 1128.5,-256 1304.99,-126.08 1394.41,-189.94 1605.5,-131 1612.25,-129.12 1619.28,-127.11 1626.29,-125.07"/>
<polygon fill="midnightblue" stroke="midnightblue" points="1008.29,-429.21 1008.1,-439.81 1014.86,-431.65 1008.29,-429.21"/>
</g>
<!-- Node5 -->
<g id="node5" class="node">
<title>Node5</title>
<g id="a_node5"><a xlink:href="call__stack_8h.html" target="_top" xlink:title=" ">
<polygon fill="none" stroke="black" points="825,-262 825,-303 974,-303 974,-262 825,-262"/>
<text text-anchor="start" x="833" y="-291" font-family="Helvetica,sans-Serif" font-size="10.00">/home/runner/work/diffblue</text>
<text text-anchor="start" x="833" y="-280" font-family="Helvetica,sans-Serif" font-size="10.00">&#45;cbmc/diffblue&#45;cbmc/src</text>
<text text-anchor="middle" x="899.5" y="-269" font-family="Helvetica,sans-Serif" font-size="10.00">/goto&#45;symex/call_stack.h</text>
</a>
</g>
</g>
<!-- Node4&#45;&gt;Node5 -->
<g id="edge4" class="edge">
<title>Node4&#45;&gt;Node5</title>
<path fill="none" stroke="midnightblue" d="M899.5,-340.44C899.5,-328.1 899.5,-314.16 899.5,-303.16"/>
<polygon fill="midnightblue" stroke="midnightblue" points="896,-340.76 899.5,-350.76 903,-340.76 896,-340.76"/>
</g>
<!-- Node5&#45;&gt;Node6 -->
<g id="edge5" class="edge">
<title>Node5&#45;&gt;Node6</title>
<path fill="none" stroke="midnightblue" d="M928.08,-254.76C942.09,-241.66 958.65,-226.16 971.48,-214.16"/>
<polygon fill="midnightblue" stroke="midnightblue" points="925.51,-252.37 920.6,-261.76 930.3,-257.48 925.51,-252.37"/>
</g>
<!-- Node72 -->
<g id="node17" class="node">
<title>Node72</title>
<g id="a_node17"><a xlink:href="java__enum__static__init__unwind__handler_8cpp.html" target="_top" xlink:title="Unwind loops in static initializers.">
<polygon fill="none" stroke="black" points="712.5,-167.5 712.5,-219.5 884.5,-219.5 884.5,-167.5 712.5,-167.5"/>
<text text-anchor="start" x="720.5" y="-207.5" font-family="Helvetica,sans-Serif" font-size="10.00">/home/runner/work/diffblue</text>
<text text-anchor="start" x="720.5" y="-196.5" font-family="Helvetica,sans-Serif" font-size="10.00">&#45;cbmc/diffblue&#45;cbmc/jbmc</text>
<text text-anchor="start" x="720.5" y="-185.5" font-family="Helvetica,sans-Serif" font-size="10.00">/src/java_bytecode/java_enum</text>
<text text-anchor="middle" x="798.5" y="-174.5" font-family="Helvetica,sans-Serif" font-size="10.00">_static_init_unwind_handler.cpp</text>
</a>
</g>
</g>
<!-- Node5&#45;&gt;Node72 -->
<g id="edge17" class="edge">
<title>Node5&#45;&gt;Node72</title>
<path fill="none" stroke="midnightblue" d="M868.98,-255.21C855.86,-243.91 840.59,-230.75 827.62,-219.58"/>
<polygon fill="midnightblue" stroke="midnightblue" points="866.97,-258.1 876.83,-261.98 871.54,-252.8 866.97,-258.1"/>
</g>
<!-- Node7 -->
<g id="node7" class="node">
<title>Node7</title>
<g id="a_node7"><a xlink:href="complexity__limiter_8cpp.html" target="_top" xlink:title=" ">
<polygon fill="none" stroke="black" points="0,-84 0,-125 193,-125 193,-84 0,-84"/>
<text text-anchor="start" x="8" y="-113" font-family="Helvetica,sans-Serif" font-size="10.00">/home/runner/work/diffblue</text>
<text text-anchor="start" x="8" y="-102" font-family="Helvetica,sans-Serif" font-size="10.00">&#45;cbmc/diffblue&#45;cbmc/src</text>
<text text-anchor="middle" x="96.5" y="-91" font-family="Helvetica,sans-Serif" font-size="10.00">/goto&#45;symex/complexity_limiter.cpp</text>
</a>
</g>
</g>
<!-- Node6&#45;&gt;Node7 -->
<g id="edge6" class="edge">
<title>Node6&#45;&gt;Node7</title>
<path fill="none" stroke="midnightblue" d="M913.88,-170.74C907.02,-169.3 900.16,-168.02 893.5,-167 589.08,-120.36 506.23,-175.53 201.5,-131 191.01,-129.47 180.04,-127.37 169.31,-125.03"/>
<polygon fill="midnightblue" stroke="midnightblue" points="913.38,-174.21 923.9,-172.95 914.89,-167.37 913.38,-174.21"/>
</g>
<!-- Node8 -->
<g id="node8" class="node">
<title>Node8</title>
<g id="a_node8"><a xlink:href="field__sensitivity_8cpp.html" target="_top" xlink:title=" ">
<polygon fill="none" stroke="black" points="211,-84 211,-125 388,-125 388,-84 211,-84"/>
<text text-anchor="start" x="219" y="-113" font-family="Helvetica,sans-Serif" font-size="10.00">/home/runner/work/diffblue</text>
<text text-anchor="start" x="219" y="-102" font-family="Helvetica,sans-Serif" font-size="10.00">&#45;cbmc/diffblue&#45;cbmc/src</text>
<text text-anchor="middle" x="299.5" y="-91" font-family="Helvetica,sans-Serif" font-size="10.00">/goto&#45;symex/field_sensitivity.cpp</text>
</a>
</g>
</g>
<!-- Node6&#45;&gt;Node8 -->
<g id="edge7" class="edge">
<title>Node6&#45;&gt;Node8</title>
<path fill="none" stroke="midnightblue" d="M912.84,-170.67C906.33,-169.28 899.82,-168.03 893.5,-167 674.94,-131.23 614.97,-167.31 396.5,-131 386.97,-129.42 377.01,-127.32 367.26,-125.01"/>
<polygon fill="midnightblue" stroke="midnightblue" points="912.54,-174.19 923.06,-172.94 914.06,-167.35 912.54,-174.19"/>
</g>
<!-- Node6&#45;&gt;Node9 -->
<g id="edge8" class="edge">
<title>Node6&#45;&gt;Node9</title>
<path fill="none" stroke="midnightblue" d="M1075.72,-170.78C1082.72,-169.35 1089.71,-168.06 1096.5,-167 1320.55,-131.87 1382.35,-171.47 1605.5,-131 1614.08,-129.44 1623.02,-127.35 1631.76,-125.02"/>
<polygon fill="midnightblue" stroke="midnightblue" points="1074.53,-167.45 1065.48,-172.95 1075.99,-174.3 1074.53,-167.45"/>
</g>
<!-- Node10 -->
<g id="node10" class="node">
<title>Node10</title>
<g id="a_node10"><a xlink:href="goto__symex__state_8cpp.html" target="_top" xlink:title="Symbolic Execution.">
<polygon fill="none" stroke="black" points="406,-84 406,-125 597,-125 597,-84 406,-84"/>
<text text-anchor="start" x="414" y="-113" font-family="Helvetica,sans-Serif" font-size="10.00">/home/runner/work/diffblue</text>
<text text-anchor="start" x="414" y="-102" font-family="Helvetica,sans-Serif" font-size="10.00">&#45;cbmc/diffblue&#45;cbmc/src</text>
<text text-anchor="middle" x="501.5" y="-91" font-family="Helvetica,sans-Serif" font-size="10.00">/goto&#45;symex/goto_symex_state.cpp</text>
</a>
</g>
</g>
<!-- Node6&#45;&gt;Node10 -->
<g id="edge9" class="edge">
<title>Node6&#45;&gt;Node10</title>
<path fill="none" stroke="midnightblue" d="M911.1,-170.66C905.17,-169.33 899.25,-168.1 893.5,-167 767.22,-142.92 732.94,-154.21 606.5,-131 597.09,-129.27 587.26,-127.22 577.56,-125.04"/>
<polygon fill="midnightblue" stroke="midnightblue" points="910.57,-174.13 921.1,-172.96 912.14,-167.3 910.57,-174.13"/>
</g>
<!-- Node11 -->
<g id="node11" class="node">
<title>Node11</title>
<g id="a_node11"><a xlink:href="path__storage_8h.html" target="_top" xlink:title="Storage of symbolic execution paths to resume.">
<polygon fill="none" stroke="red" points="615.5,-84 615.5,-125 769.5,-125 769.5,-84 615.5,-84"/>
<text text-anchor="start" x="623.5" y="-113" font-family="Helvetica,sans-Serif" font-size="10.00">/home/runner/work/diffblue</text>
<text text-anchor="start" x="623.5" y="-102" font-family="Helvetica,sans-Serif" font-size="10.00">&#45;cbmc/diffblue&#45;cbmc/src</text>
<text text-anchor="middle" x="692.5" y="-91" font-family="Helvetica,sans-Serif" font-size="10.00">/goto&#45;symex/path_storage.h</text>
</a>
</g>
</g>
<!-- Node6&#45;&gt;Node11 -->
<g id="edge10" class="edge">
<title>Node6&#45;&gt;Node11</title>
<path fill="none" stroke="midnightblue" d="M914.21,-170.17C873.68,-158.57 823.41,-144.11 778.5,-131 771.92,-129.08 765.07,-127.07 758.22,-125.05"/>
<polygon fill="midnightblue" stroke="midnightblue" points="913.45,-173.6 924.03,-172.98 915.38,-166.87 913.45,-173.6"/>
</g>
<!-- Node48 -->
<g id="node12" class="node">
<title>Node48</title>
<g id="a_node12"><a xlink:href="renaming__level_8cpp.html" target="_top" xlink:title="Renaming levels.">
<polygon fill="none" stroke="black" points="788,-84 788,-125 965,-125 965,-84 788,-84"/>
<text text-anchor="start" x="796" y="-113" font-family="Helvetica,sans-Serif" font-size="10.00">/home/runner/work/diffblue</text>
<text text-anchor="start" x="796" y="-102" font-family="Helvetica,sans-Serif" font-size="10.00">&#45;cbmc/diffblue&#45;cbmc/src</text>
<text text-anchor="middle" x="876.5" y="-91" font-family="Helvetica,sans-Serif" font-size="10.00">/goto&#45;symex/renaming_level.cpp</text>
</a>
</g>
</g>
<!-- Node6&#45;&gt;Node48 -->
<g id="edge11" class="edge">
<title>Node6&#45;&gt;Node48</title>
<path fill="none" stroke="midnightblue" d="M958.11,-166.71C940.42,-153.44 919.21,-137.53 902.85,-125.26"/>
<polygon fill="midnightblue" stroke="midnightblue" points="956.37,-169.78 966.47,-172.98 960.57,-164.18 956.37,-169.78"/>
</g>
<!-- Node49 -->
<g id="node13" class="node">
<title>Node49</title>
<g id="a_node13"><a xlink:href="shadow__memory_8cpp.html" target="_top" xlink:title="Symex Shadow Memory Instrumentation.">
<polygon fill="none" stroke="black" points="962.5,-0.5 962.5,-41.5 1146.5,-41.5 1146.5,-0.5 962.5,-0.5"/>
<text text-anchor="start" x="970.5" y="-29.5" font-family="Helvetica,sans-Serif" font-size="10.00">/home/runner/work/diffblue</text>
<text text-anchor="start" x="970.5" y="-18.5" font-family="Helvetica,sans-Serif" font-size="10.00">&#45;cbmc/diffblue&#45;cbmc/src</text>
<text text-anchor="middle" x="1054.5" y="-7.5" font-family="Helvetica,sans-Serif" font-size="10.00">/goto&#45;symex/shadow_memory.cpp</text>
</a>
</g>
</g>
<!-- Node6&#45;&gt;Node49 -->
<g id="edge12" class="edge">
<title>Node6&#45;&gt;Node49</title>
<path fill="none" stroke="midnightblue" d="M993.1,-162.44C994.53,-138.64 998.72,-105.04 1010.5,-78 1016.33,-64.62 1026.13,-51.68 1035.01,-41.61"/>
<polygon fill="midnightblue" stroke="midnightblue" points="989.59,-162.46 992.62,-172.62 996.58,-162.79 989.59,-162.46"/>
</g>
<!-- Node50 -->
<g id="node14" class="node">
<title>Node50</title>
<g id="a_node14"><a xlink:href="shadow__memory__util_8h.html" target="_top" xlink:title="Symex Shadow Memory Instrumentation Utilities.">
<polygon fill="none" stroke="red" points="1020,-84 1020,-125 1215,-125 1215,-84 1020,-84"/>
<text text-anchor="start" x="1028" y="-113" font-family="Helvetica,sans-Serif" font-size="10.00">/home/runner/work/diffblue</text>
<text text-anchor="start" x="1028" y="-102" font-family="Helvetica,sans-Serif" font-size="10.00">&#45;cbmc/diffblue&#45;cbmc/src</text>
<text text-anchor="middle" x="1117.5" y="-91" font-family="Helvetica,sans-Serif" font-size="10.00">/goto&#45;symex/shadow_memory_util.h</text>
</a>
</g>
</g>
<!-- Node6&#45;&gt;Node50 -->
<g id="edge13" class="edge">
<title>Node6&#45;&gt;Node50</title>
<path fill="none" stroke="midnightblue" d="M1028.78,-167.25C1047.99,-153.88 1071.23,-137.7 1089.11,-125.26"/>
<polygon fill="midnightblue" stroke="midnightblue" points="1026.76,-164.39 1020.55,-172.98 1030.76,-170.14 1026.76,-164.39"/>
</g>
<!-- Node52 -->
<g id="node15" class="node">
<title>Node52</title>
<g id="a_node15"><a xlink:href="symex__assign_8cpp.html" target="_top" xlink:title="Symbolic Execution.">
<polygon fill="none" stroke="black" points="1233,-84 1233,-125 1404,-125 1404,-84 1233,-84"/>
<text text-anchor="start" x="1241" y="-113" font-family="Helvetica,sans-Serif" font-size="10.00">/home/runner/work/diffblue</text>
<text text-anchor="start" x="1241" y="-102" font-family="Helvetica,sans-Serif" font-size="10.00">&#45;cbmc/diffblue&#45;cbmc/src</text>
<text text-anchor="middle" x="1318.5" y="-91" font-family="Helvetica,sans-Serif" font-size="10.00">/goto&#45;symex/symex_assign.cpp</text>
</a>
</g>
</g>
<!-- Node6&#45;&gt;Node52 -->
<g id="edge15" class="edge">
<title>Node6&#45;&gt;Node52</title>
<path fill="none" stroke="midnightblue" d="M1075.89,-170.34C1119.81,-158.66 1174.58,-144.08 1223.5,-131 1230.76,-129.06 1238.33,-127.03 1245.89,-125.01"/>
<polygon fill="midnightblue" stroke="midnightblue" points="1074.88,-166.99 1066.11,-172.94 1076.68,-173.75 1074.88,-166.99"/>
</g>
<!-- Node53 -->
<g id="node16" class="node">
<title>Node53</title>
<g id="a_node16"><a xlink:href="symex__complexity__limit__exceeded__action_8h.html" target="_top" xlink:title=" ">
<polygon fill="none" stroke="red" points="1422.5,-78.5 1422.5,-130.5 1596.5,-130.5 1596.5,-78.5 1422.5,-78.5"/>
<text text-anchor="start" x="1430.5" y="-118.5" font-family="Helvetica,sans-Serif" font-size="10.00">/home/runner/work/diffblue</text>
<text text-anchor="start" x="1430.5" y="-107.5" font-family="Helvetica,sans-Serif" font-size="10.00">&#45;cbmc/diffblue&#45;cbmc/src</text>
<text text-anchor="start" x="1430.5" y="-96.5" font-family="Helvetica,sans-Serif" font-size="10.00">/goto&#45;symex/symex_complexity</text>
<text text-anchor="middle" x="1509.5" y="-85.5" font-family="Helvetica,sans-Serif" font-size="10.00">_limit_exceeded_action.h</text>
</a>
</g>
</g>
<!-- Node6&#45;&gt;Node53 -->
<g id="edge16" class="edge">
<title>Node6&#45;&gt;Node53</title>
<path fill="none" stroke="midnightblue" d="M1077.38,-170.75C1083.83,-169.39 1090.25,-168.12 1096.5,-167 1236.09,-142.07 1274.16,-157.27 1413.5,-131 1416.38,-130.46 1419.3,-129.87 1422.25,-129.26"/>
<polygon fill="midnightblue" stroke="midnightblue" points="1076.26,-167.41 1067.24,-172.97 1077.76,-174.25 1076.26,-167.41"/>
</g>
<!-- Node50&#45;&gt;Node49 -->
<g id="edge14" class="edge">
<title>Node50&#45;&gt;Node49</title>
<path fill="none" stroke="midnightblue" d="M1095.9,-75.55C1087.24,-64.36 1077.48,-51.73 1069.61,-41.55"/>
<polygon fill="midnightblue" stroke="midnightblue" points="1093.36,-78 1102.25,-83.77 1098.9,-73.72 1093.36,-78"/>
</g>
<!-- Node76 -->
<g id="node21" class="node">
<title>Node76</title>
<g id="a_node21"><a xlink:href="value__set__analysis_8h.html" target="_top" xlink:title="Value Set Propagation.">
<polygon fill="none" stroke="black" points="476,-345.5 476,-397.5 625,-397.5 625,-345.5 476,-345.5"/>
<text text-anchor="start" x="484" y="-385.5" font-family="Helvetica,sans-Serif" font-size="10.00">/home/runner/work/diffblue</text>
<text text-anchor="start" x="484" y="-374.5" font-family="Helvetica,sans-Serif" font-size="10.00">&#45;cbmc/diffblue&#45;cbmc/src</text>
<text text-anchor="start" x="484" y="-363.5" font-family="Helvetica,sans-Serif" font-size="10.00">/pointer&#45;analysis/value_set</text>
<text text-anchor="middle" x="550.5" y="-352.5" font-family="Helvetica,sans-Serif" font-size="10.00">_analysis.h</text>
</a>
</g>
</g>
<!-- Node75&#45;&gt;Node76 -->
<g id="edge23" class="edge">
<title>Node75&#45;&gt;Node76</title>
<path fill="none" stroke="midnightblue" d="M750.22,-433.68C710.5,-421.51 663.52,-407.12 625.11,-395.36"/>
<polygon fill="midnightblue" stroke="midnightblue" points="749.3,-437.06 759.88,-436.64 751.35,-430.37 749.3,-437.06"/>
</g>
<!-- Node77 -->
<g id="node22" class="node">
<title>Node77</title>
<g id="a_node22"><a xlink:href="goto__instrument__parse__options_8cpp.html" target="_top" xlink:title="Main Module.">
<polygon fill="none" stroke="black" points="334.5,-167.5 334.5,-219.5 516.5,-219.5 516.5,-167.5 334.5,-167.5"/>
<text text-anchor="start" x="342.5" y="-207.5" font-family="Helvetica,sans-Serif" font-size="10.00">/home/runner/work/diffblue</text>
<text text-anchor="start" x="342.5" y="-196.5" font-family="Helvetica,sans-Serif" font-size="10.00">&#45;cbmc/diffblue&#45;cbmc/src</text>
<text text-anchor="start" x="342.5" y="-185.5" font-family="Helvetica,sans-Serif" font-size="10.00">/goto&#45;instrument/goto_instrument</text>
<text text-anchor="middle" x="425.5" y="-174.5" font-family="Helvetica,sans-Serif" font-size="10.00">_parse_options.cpp</text>
</a>
</g>
</g>
<!-- Node76&#45;&gt;Node77 -->
<g id="edge24" class="edge">
<title>Node76&#45;&gt;Node77</title>
<path fill="none" stroke="midnightblue" d="M478.09,-340.17C465.19,-331.8 453.13,-321.49 444.5,-309 426.17,-282.48 423.33,-244.38 423.78,-219.54"/>
<polygon fill="midnightblue" stroke="midnightblue" points="476.3,-343.17 486.67,-345.39 479.95,-337.2 476.3,-343.17"/>
</g>
<!-- Node78 -->
<g id="node23" class="node">
<title>Node78</title>
<g id="a_node23"><a xlink:href="show__value__sets_8cpp.html" target="_top" xlink:title="Show Value Sets.">
<polygon fill="none" stroke="black" points="535,-167.5 535,-219.5 694,-219.5 694,-167.5 535,-167.5"/>
<text text-anchor="start" x="543" y="-207.5" font-family="Helvetica,sans-Serif" font-size="10.00">/home/runner/work/diffblue</text>
<text text-anchor="start" x="543" y="-196.5" font-family="Helvetica,sans-Serif" font-size="10.00">&#45;cbmc/diffblue&#45;cbmc/src</text>
<text text-anchor="start" x="543" y="-185.5" font-family="Helvetica,sans-Serif" font-size="10.00">/pointer&#45;analysis/show_value</text>
<text text-anchor="middle" x="614.5" y="-174.5" font-family="Helvetica,sans-Serif" font-size="10.00">_sets.cpp</text>
</a>
</g>
</g>
<!-- Node76&#45;&gt;Node78 -->
<g id="edge25" class="edge">
<title>Node76&#45;&gt;Node78</title>
<path fill="none" stroke="midnightblue" d="M626.22,-340.09C638.34,-331.83 649.25,-321.58 656.5,-309 673.09,-280.19 653.54,-243.65 635.93,-219.7"/>
<polygon fill="midnightblue" stroke="midnightblue" points="624.25,-337.19 617.67,-345.49 628,-343.11 624.25,-337.19"/>
</g>
<!-- Node79 -->
<g id="node24" class="node">
<title>Node79</title>
<g id="a_node24"><a xlink:href="show__value__sets_8h.html" target="_top" xlink:title="Show Value Sets.">
<polygon fill="none" stroke="black" points="453.5,-262 453.5,-303 647.5,-303 647.5,-262 453.5,-262"/>
<text text-anchor="start" x="461.5" y="-291" font-family="Helvetica,sans-Serif" font-size="10.00">/home/runner/work/diffblue</text>
<text text-anchor="start" x="461.5" y="-280" font-family="Helvetica,sans-Serif" font-size="10.00">&#45;cbmc/diffblue&#45;cbmc/src</text>
<text text-anchor="middle" x="550.5" y="-269" font-family="Helvetica,sans-Serif" font-size="10.00">/pointer&#45;analysis/show_value_sets.h</text>
</a>
</g>
</g>
<!-- Node76&#45;&gt;Node79 -->
<g id="edge26" class="edge">
<title>Node76&#45;&gt;Node79</title>
<path fill="none" stroke="midnightblue" d="M550.5,-335.16C550.5,-324.21 550.5,-312.55 550.5,-303.08"/>
<polygon fill="midnightblue" stroke="midnightblue" points="547,-335.34 550.5,-345.34 554,-335.34 547,-335.34"/>
</g>
<!-- Node80 -->
<g id="node25" class="node">
<title>Node80</title>
<g id="a_node25"><a xlink:href="value__set__analysis_8cpp.html" target="_top" xlink:title="Value Set Propagation.">
<polygon fill="none" stroke="black" points="249,-256.5 249,-308.5 398,-308.5 398,-256.5 249,-256.5"/>
<text text-anchor="start" x="257" y="-296.5" font-family="Helvetica,sans-Serif" font-size="10.00">/home/runner/work/diffblue</text>
<text text-anchor="start" x="257" y="-285.5" font-family="Helvetica,sans-Serif" font-size="10.00">&#45;cbmc/diffblue&#45;cbmc/src</text>
<text text-anchor="start" x="257" y="-274.5" font-family="Helvetica,sans-Serif" font-size="10.00">/pointer&#45;analysis/value_set</text>
<text text-anchor="middle" x="323.5" y="-263.5" font-family="Helvetica,sans-Serif" font-size="10.00">_analysis.cpp</text>
</a>
</g>
</g>
<!-- Node76&#45;&gt;Node80 -->
<g id="edge29" class="edge">
<title>Node76&#45;&gt;Node80</title>
<path fill="none" stroke="midnightblue" d="M475.77,-341.86C447.67,-331.09 415.96,-318.94 388.78,-308.52"/>
<polygon fill="midnightblue" stroke="midnightblue" points="474.56,-345.14 485.15,-345.45 477.06,-338.61 474.56,-345.14"/>
</g>
<!-- Node79&#45;&gt;Node77 -->
<g id="edge27" class="edge">
<title>Node79&#45;&gt;Node77</title>
<path fill="none" stroke="midnightblue" d="M514.1,-256.17C497.56,-244.65 478.04,-231.07 461.54,-219.58"/>
<polygon fill="midnightblue" stroke="midnightblue" points="512.24,-259.14 522.45,-261.98 516.24,-253.39 512.24,-259.14"/>
</g>
<!-- Node79&#45;&gt;Node78 -->
<g id="edge28" class="edge">
<title>Node79&#45;&gt;Node78</title>
<path fill="none" stroke="midnightblue" d="M571.13,-253.45C579.1,-242.63 588.14,-230.34 595.9,-219.79"/>
<polygon fill="midnightblue" stroke="midnightblue" points="568.13,-251.63 565.02,-261.76 573.77,-255.78 568.13,-251.63"/>
</g>
<!-- Node82 -->
<g id="node27" class="node">
<title>Node82</title>
<g id="a_node27"><a xlink:href="value__set__domain__fi_8h.html" target="_top" xlink:title="Value Set (Flow Insensitive)">
<polygon fill="none" stroke="black" points="1296,-434.5 1296,-486.5 1445,-486.5 1445,-434.5 1296,-434.5"/>
<text text-anchor="start" x="1304" y="-474.5" font-family="Helvetica,sans-Serif" font-size="10.00">/home/runner/work/diffblue</text>
<text text-anchor="start" x="1304" y="-463.5" font-family="Helvetica,sans-Serif" font-size="10.00">&#45;cbmc/diffblue&#45;cbmc/src</text>
<text text-anchor="start" x="1304" y="-452.5" font-family="Helvetica,sans-Serif" font-size="10.00">/pointer&#45;analysis/value_set</text>
<text text-anchor="middle" x="1370.5" y="-441.5" font-family="Helvetica,sans-Serif" font-size="10.00">_domain_fi.h</text>
</a>
</g>
</g>
<!-- Node81&#45;&gt;Node82 -->
<g id="edge31" class="edge">
<title>Node81&#45;&gt;Node82</title>
<path fill="none" stroke="midnightblue" d="M1370.5,-513.12C1370.5,-504.41 1370.5,-494.99 1370.5,-486.61"/>
<polygon fill="midnightblue" stroke="midnightblue" points="1367,-513.27 1370.5,-523.27 1374,-513.27 1367,-513.27"/>
</g>
<!-- Node88 -->
<g id="node33" class="node">
<title>Node88</title>
<g id="a_node33"><a xlink:href="value__set__fi_8cpp.html" target="_top" xlink:title="Value Set (Flow Insensitive, Sharing)">
<polygon fill="none" stroke="black" points="1463.5,-440 1463.5,-481 1643.5,-481 1643.5,-440 1463.5,-440"/>
<text text-anchor="start" x="1471.5" y="-469" font-family="Helvetica,sans-Serif" font-size="10.00">/home/runner/work/diffblue</text>
<text text-anchor="start" x="1471.5" y="-458" font-family="Helvetica,sans-Serif" font-size="10.00">&#45;cbmc/diffblue&#45;cbmc/src</text>
<text text-anchor="middle" x="1553.5" y="-447" font-family="Helvetica,sans-Serif" font-size="10.00">/pointer&#45;analysis/value_set_fi.cpp</text>
</a>
</g>
</g>
<!-- Node81&#45;&gt;Node88 -->
<g id="edge37" class="edge">
<title>Node81&#45;&gt;Node88</title>
<path fill="none" stroke="midnightblue" d="M1423.74,-519.29C1451.04,-507.13 1483.89,-492.5 1509.71,-481"/>
<polygon fill="midnightblue" stroke="midnightblue" points="1422.04,-516.21 1414.33,-523.48 1424.89,-522.61 1422.04,-516.21"/>
</g>
<!-- Node83 -->
<g id="node28" class="node">
<title>Node83</title>
<g id="a_node28"><a xlink:href="value__set__analysis__fi_8h.html" target="_top" xlink:title="Value Set Propagation (flow insensitive)">
<polygon fill="none" stroke="black" points="1296,-345.5 1296,-397.5 1445,-397.5 1445,-345.5 1296,-345.5"/>
<text text-anchor="start" x="1304" y="-385.5" font-family="Helvetica,sans-Serif" font-size="10.00">/home/runner/work/diffblue</text>
<text text-anchor="start" x="1304" y="-374.5" font-family="Helvetica,sans-Serif" font-size="10.00">&#45;cbmc/diffblue&#45;cbmc/src</text>
<text text-anchor="start" x="1304" y="-363.5" font-family="Helvetica,sans-Serif" font-size="10.00">/pointer&#45;analysis/value_set</text>
<text text-anchor="middle" x="1370.5" y="-352.5" font-family="Helvetica,sans-Serif" font-size="10.00">_analysis_fi.h</text>
</a>
</g>
</g>
<!-- Node82&#45;&gt;Node83 -->
<g id="edge32" class="edge">
<title>Node82&#45;&gt;Node83</title>
<path fill="none" stroke="midnightblue" d="M1370.5,-424.19C1370.5,-415.28 1370.5,-405.9 1370.5,-397.61"/>
<polygon fill="midnightblue" stroke="midnightblue" points="1367,-424.34 1370.5,-434.34 1374,-424.34 1367,-424.34"/>
</g>
<!-- Node87 -->
<g id="node32" class="node">
<title>Node87</title>
<g id="a_node32"><a xlink:href="value__set__domain__fi_8cpp.html" target="_top" xlink:title="Value Set Domain (Flow Insensitive)">
<polygon fill="none" stroke="black" points="1463,-345.5 1463,-397.5 1612,-397.5 1612,-345.5 1463,-345.5"/>
<text text-anchor="start" x="1471" y="-385.5" font-family="Helvetica,sans-Serif" font-size="10.00">/home/runner/work/diffblue</text>
<text text-anchor="start" x="1471" y="-374.5" font-family="Helvetica,sans-Serif" font-size="10.00">&#45;cbmc/diffblue&#45;cbmc/src</text>
<text text-anchor="start" x="1471" y="-363.5" font-family="Helvetica,sans-Serif" font-size="10.00">/pointer&#45;analysis/value_set</text>
<text text-anchor="middle" x="1537.5" y="-352.5" font-family="Helvetica,sans-Serif" font-size="10.00">_domain_fi.cpp</text>
</a>
</g>
</g>
<!-- Node82&#45;&gt;Node87 -->
<g id="edge36" class="edge">
<title>Node82&#45;&gt;Node87</title>
<path fill="none" stroke="midnightblue" d="M1427.83,-429.64C1447.85,-419.2 1470.1,-407.61 1489.31,-397.61"/>
<polygon fill="midnightblue" stroke="midnightblue" points="1426.05,-426.61 1418.8,-434.34 1429.29,-432.82 1426.05,-426.61"/>
</g>
<!-- Node84 -->
<g id="node29" class="node">
<title>Node84</title>
<g id="a_node29"><a xlink:href="reaching__definitions_8cpp.html" target="_top" xlink:title="Range&#45;based reaching definitions analysis (following Field&#45; Sensitive Program Dependence Analysis,...">
<polygon fill="none" stroke="black" points="1472,-262 1472,-303 1657,-303 1657,-262 1472,-262"/>
<text text-anchor="start" x="1480" y="-291" font-family="Helvetica,sans-Serif" font-size="10.00">/home/runner/work/diffblue</text>
<text text-anchor="start" x="1480" y="-280" font-family="Helvetica,sans-Serif" font-size="10.00">&#45;cbmc/diffblue&#45;cbmc/src</text>
<text text-anchor="middle" x="1564.5" y="-269" font-family="Helvetica,sans-Serif" font-size="10.00">/analyses/reaching_definitions.cpp</text>
</a>
</g>
</g>
<!-- Node83&#45;&gt;Node84 -->
<g id="edge33" class="edge">
<title>Node83&#45;&gt;Node84</title>
<path fill="none" stroke="midnightblue" d="M1435.68,-341.27C1463.67,-328.72 1495.63,-314.38 1520.72,-303.13"/>
<polygon fill="midnightblue" stroke="midnightblue" points="1434.04,-338.17 1426.35,-345.45 1436.91,-344.55 1434.04,-338.17"/>
</g>
<!-- Node85 -->
<g id="node30" class="node">
<title>Node85</title>
<g id="a_node30"><a xlink:href="value__set__fi__fp__removal_8cpp.html" target="_top" xlink:title=" ">
<polygon fill="none" stroke="black" points="1138,-256.5 1138,-308.5 1287,-308.5 1287,-256.5 1138,-256.5"/>
<text text-anchor="start" x="1146" y="-296.5" font-family="Helvetica,sans-Serif" font-size="10.00">/home/runner/work/diffblue</text>
<text text-anchor="start" x="1146" y="-285.5" font-family="Helvetica,sans-Serif" font-size="10.00">&#45;cbmc/diffblue&#45;cbmc/src</text>
<text text-anchor="start" x="1146" y="-274.5" font-family="Helvetica,sans-Serif" font-size="10.00">/goto&#45;instrument/value_set</text>
<text text-anchor="middle" x="1212.5" y="-263.5" font-family="Helvetica,sans-Serif" font-size="10.00">_fi_fp_removal.cpp</text>
</a>
</g>
</g>
<!-- Node83&#45;&gt;Node85 -->
<g id="edge34" class="edge">
<title>Node83&#45;&gt;Node85</title>
<path fill="none" stroke="midnightblue" d="M1316.01,-340.49C1297.13,-330.1 1276.18,-318.57 1258.1,-308.61"/>
<polygon fill="midnightblue" stroke="midnightblue" points="1314.35,-343.58 1324.8,-345.34 1317.73,-337.45 1314.35,-343.58"/>
</g>
<!-- Node86 -->
<g id="node31" class="node">
<title>Node86</title>
<g id="a_node31"><a xlink:href="value__set__analysis__fi_8cpp.html" target="_top" xlink:title="Value Set Propagation (Flow Insensitive)">
<polygon fill="none" stroke="black" points="1305,-256.5 1305,-308.5 1454,-308.5 1454,-256.5 1305,-256.5"/>
<text text-anchor="start" x="1313" y="-296.5" font-family="Helvetica,sans-Serif" font-size="10.00">/home/runner/work/diffblue</text>
<text text-anchor="start" x="1313" y="-285.5" font-family="Helvetica,sans-Serif" font-size="10.00">&#45;cbmc/diffblue&#45;cbmc/src</text>
<text text-anchor="start" x="1313" y="-274.5" font-family="Helvetica,sans-Serif" font-size="10.00">/pointer&#45;analysis/value_set</text>
<text text-anchor="middle" x="1379.5" y="-263.5" font-family="Helvetica,sans-Serif" font-size="10.00">_analysis_fi.cpp</text>
</a>
</g>
</g>
<!-- Node83&#45;&gt;Node86 -->
<g id="edge35" class="edge">
<title>Node83&#45;&gt;Node86</title>
<path fill="none" stroke="midnightblue" d="M1374.15,-335.19C1375.07,-326.28 1376.04,-316.9 1376.9,-308.61"/>
<polygon fill="midnightblue" stroke="midnightblue" points="1370.65,-335.03 1373.1,-345.34 1377.61,-335.75 1370.65,-335.03"/>
</g>
</g>
</svg>
