<?xml version="1.0" encoding="UTF-8" standalone="no"?>
<!DOCTYPE svg PUBLIC "-//W3C//DTD SVG 1.1//EN"
 "http://www.w3.org/Graphics/SVG/1.1/DTD/svg11.dtd">
<!-- Generated by graphviz version 2.43.0 (0)
 -->
<!-- Title: /home/runner/work/diffblue&#45;cbmc/diffblue&#45;cbmc/src/solvers/smt2_incremental/object_tracking.h Pages: 1 -->
<svg width="856pt" height="350pt"
 viewBox="0.00 0.00 855.50 350.00" xmlns="http://www.w3.org/2000/svg" xmlns:xlink="http://www.w3.org/1999/xlink">
<g id="graph0" class="graph" transform="scale(1 1) rotate(0) translate(4 346)">
<title>/home/runner/work/diffblue&#45;cbmc/diffblue&#45;cbmc/src/solvers/smt2_incremental/object_tracking.h</title>
<!-- Node1 -->
<g id="node1" class="node">
<title>Node1</title>
<g id="a_node1"><a xlink:title="Data structures and algorithms used by smt2_incremental_decision_proceduret to track data about the o...">
<polygon fill="#bfbfbf" stroke="black" points="477,-289.5 477,-341.5 626,-341.5 626,-289.5 477,-289.5"/>
<text text-anchor="start" x="485" y="-329.5" font-family="Helvetica,sans-Serif" font-size="10.00">/home/runner/work/diffblue</text>
<text text-anchor="start" x="485" y="-318.5" font-family="Helvetica,sans-Serif" font-size="10.00">&#45;cbmc/diffblue&#45;cbmc/src</text>
<text text-anchor="start" x="485" y="-307.5" font-family="Helvetica,sans-Serif" font-size="10.00">/solvers/smt2_incremental</text>
<text text-anchor="middle" x="551.5" y="-296.5" font-family="Helvetica,sans-Serif" font-size="10.00">/object_tracking.h</text>
</a>
</g>
</g>
<!-- Node2 -->
<g id="node2" class="node">
<title>Node2</title>
<g id="a_node2"><a xlink:href="convert__expr__to__smt_8h.html" target="_top" xlink:title=" ">
<polygon fill="none" stroke="black" points="296,-106 296,-158 445,-158 445,-106 296,-106"/>
<text text-anchor="start" x="304" y="-146" font-family="Helvetica,sans-Serif" font-size="10.00">/home/runner/work/diffblue</text>
<text text-anchor="start" x="304" y="-135" font-family="Helvetica,sans-Serif" font-size="10.00">&#45;cbmc/diffblue&#45;cbmc/src</text>
<text text-anchor="start" x="304" y="-124" font-family="Helvetica,sans-Serif" font-size="10.00">/solvers/smt2_incremental</text>
<text text-anchor="middle" x="370.5" y="-113" font-family="Helvetica,sans-Serif" font-size="10.00">/convert_expr_to_smt.h</text>
</a>
</g>
</g>
<!-- Node1&#45;&gt;Node2 -->
<g id="edge1" class="edge">
<title>Node1&#45;&gt;Node2</title>
<path fill="none" stroke="midnightblue" d="M467.61,-287.94C449.33,-279.1 431.33,-267.65 417.5,-253 392.3,-226.33 380.1,-184.58 374.58,-158.02"/>
<polygon fill="midnightblue" stroke="midnightblue" points="466.34,-291.2 476.89,-292.2 469.26,-284.84 466.34,-291.2"/>
</g>
<!-- Node7 -->
<g id="node7" class="node">
<title>Node7</title>
<g id="a_node7"><a xlink:href="object__tracking_8cpp.html" target="_top" xlink:title=" ">
<polygon fill="none" stroke="black" points="630,-200.5 630,-252.5 779,-252.5 779,-200.5 630,-200.5"/>
<text text-anchor="start" x="638" y="-240.5" font-family="Helvetica,sans-Serif" font-size="10.00">/home/runner/work/diffblue</text>
<text text-anchor="start" x="638" y="-229.5" font-family="Helvetica,sans-Serif" font-size="10.00">&#45;cbmc/diffblue&#45;cbmc/src</text>
<text text-anchor="start" x="638" y="-218.5" font-family="Helvetica,sans-Serif" font-size="10.00">/solvers/smt2_incremental</text>
<text text-anchor="middle" x="704.5" y="-207.5" font-family="Helvetica,sans-Serif" font-size="10.00">/object_tracking.cpp</text>
</a>
</g>
</g>
<!-- Node1&#45;&gt;Node7 -->
<g id="edge6" class="edge">
<title>Node1&#45;&gt;Node7</title>
<path fill="none" stroke="midnightblue" d="M604.52,-284.35C622.73,-274 642.91,-262.52 660.35,-252.61"/>
<polygon fill="midnightblue" stroke="midnightblue" points="602.72,-281.35 595.75,-289.34 606.18,-287.44 602.72,-281.35"/>
</g>
<!-- Node8 -->
<g id="node8" class="node">
<title>Node8</title>
<g id="a_node8"><a xlink:href="smt2__incremental__decision__procedure_8h.html" target="_top" xlink:title="Decision procedure with incremental SMT2 solving.">
<polygon fill="none" stroke="black" points="538.5,-100.5 538.5,-163.5 692.5,-163.5 692.5,-100.5 538.5,-100.5"/>
<text text-anchor="start" x="546.5" y="-151.5" font-family="Helvetica,sans-Serif" font-size="10.00">/home/runner/work/diffblue</text>
<text text-anchor="start" x="546.5" y="-140.5" font-family="Helvetica,sans-Serif" font-size="10.00">&#45;cbmc/diffblue&#45;cbmc/src</text>
<text text-anchor="start" x="546.5" y="-129.5" font-family="Helvetica,sans-Serif" font-size="10.00">/solvers/smt2_incremental</text>
<text text-anchor="start" x="546.5" y="-118.5" font-family="Helvetica,sans-Serif" font-size="10.00">/smt2_incremental_decision</text>
<text text-anchor="middle" x="615.5" y="-107.5" font-family="Helvetica,sans-Serif" font-size="10.00">_procedure.h</text>
</a>
</g>
</g>
<!-- Node1&#45;&gt;Node8 -->
<g id="edge7" class="edge">
<title>Node1&#45;&gt;Node8</title>
<path fill="none" stroke="midnightblue" d="M571.56,-280.6C576.24,-271.81 580.9,-262.21 584.5,-253 596.02,-223.54 604.53,-188.35 609.69,-163.72"/>
<polygon fill="midnightblue" stroke="midnightblue" points="568.46,-278.97 566.72,-289.42 574.6,-282.33 568.46,-278.97"/>
</g>
<!-- Node10 -->
<g id="node10" class="node">
<title>Node10</title>
<g id="a_node10"><a xlink:href="type__size__mapping_8h.html" target="_top" xlink:title="Utilities for making a map of types to associated sizes.">
<polygon fill="none" stroke="black" points="426,-200.5 426,-252.5 575,-252.5 575,-200.5 426,-200.5"/>
<text text-anchor="start" x="434" y="-240.5" font-family="Helvetica,sans-Serif" font-size="10.00">/home/runner/work/diffblue</text>
<text text-anchor="start" x="434" y="-229.5" font-family="Helvetica,sans-Serif" font-size="10.00">&#45;cbmc/diffblue&#45;cbmc/src</text>
<text text-anchor="start" x="434" y="-218.5" font-family="Helvetica,sans-Serif" font-size="10.00">/solvers/smt2_incremental</text>
<text text-anchor="middle" x="500.5" y="-207.5" font-family="Helvetica,sans-Serif" font-size="10.00">/type_size_mapping.h</text>
</a>
</g>
</g>
<!-- Node1&#45;&gt;Node10 -->
<g id="edge10" class="edge">
<title>Node1&#45;&gt;Node10</title>
<path fill="none" stroke="midnightblue" d="M531.65,-280.64C526.18,-271.31 520.34,-261.35 515.22,-252.61"/>
<polygon fill="midnightblue" stroke="midnightblue" points="528.67,-282.48 536.75,-289.34 534.71,-278.94 528.67,-282.48"/>
</g>
<!-- Node3 -->
<g id="node3" class="node">
<title>Node3</title>
<g id="a_node3"><a xlink:href="convert__expr__to__smt_8cpp.html" target="_top" xlink:title=" ">
<polygon fill="none" stroke="black" points="167,-6 167,-58 316,-58 316,-6 167,-6"/>
<text text-anchor="start" x="175" y="-46" font-family="Helvetica,sans-Serif" font-size="10.00">/home/runner/work/diffblue</text>
<text text-anchor="start" x="175" y="-35" font-family="Helvetica,sans-Serif" font-size="10.00">&#45;cbmc/diffblue&#45;cbmc/src</text>
<text text-anchor="start" x="175" y="-24" font-family="Helvetica,sans-Serif" font-size="10.00">/solvers/smt2_incremental</text>
<text text-anchor="middle" x="241.5" y="-13" font-family="Helvetica,sans-Serif" font-size="10.00">/convert_expr_to_smt.cpp</text>
</a>
</g>
</g>
<!-- Node2&#45;&gt;Node3 -->
<g id="edge2" class="edge">
<title>Node2&#45;&gt;Node3</title>
<path fill="none" stroke="midnightblue" d="M328.89,-99.39C311.32,-86.04 291.14,-70.71 274.61,-58.15"/>
<polygon fill="midnightblue" stroke="midnightblue" points="327.2,-102.5 337.28,-105.76 331.43,-96.93 327.2,-102.5"/>
</g>
<!-- Node4 -->
<g id="node4" class="node">
<title>Node4</title>
<g id="a_node4"><a xlink:href="smt2__incremental__decision__procedure_8cpp.html" target="_top" xlink:title=" ">
<polygon fill="none" stroke="black" points="501.5,-0.5 501.5,-63.5 655.5,-63.5 655.5,-0.5 501.5,-0.5"/>
<text text-anchor="start" x="509.5" y="-51.5" font-family="Helvetica,sans-Serif" font-size="10.00">/home/runner/work/diffblue</text>
<text text-anchor="start" x="509.5" y="-40.5" font-family="Helvetica,sans-Serif" font-size="10.00">&#45;cbmc/diffblue&#45;cbmc/src</text>
<text text-anchor="start" x="509.5" y="-29.5" font-family="Helvetica,sans-Serif" font-size="10.00">/solvers/smt2_incremental</text>
<text text-anchor="start" x="509.5" y="-18.5" font-family="Helvetica,sans-Serif" font-size="10.00">/smt2_incremental_decision</text>
<text text-anchor="middle" x="578.5" y="-7.5" font-family="Helvetica,sans-Serif" font-size="10.00">_procedure.cpp</text>
</a>
</g>
</g>
<!-- Node2&#45;&gt;Node4 -->
<g id="edge3" class="edge">
<title>Node2&#45;&gt;Node4</title>
<path fill="none" stroke="midnightblue" d="M432.97,-101.57C458.39,-89.59 487.78,-75.74 513.46,-63.64"/>
<polygon fill="midnightblue" stroke="midnightblue" points="431.35,-98.46 423.8,-105.89 434.33,-104.79 431.35,-98.46"/>
</g>
<!-- Node5 -->
<g id="node5" class="node">
<title>Node5</title>
<g id="a_node5"><a xlink:href="smt__object__size_8cpp.html" target="_top" xlink:title=" ">
<polygon fill="none" stroke="black" points="0,-6 0,-58 149,-58 149,-6 0,-6"/>
<text text-anchor="start" x="8" y="-46" font-family="Helvetica,sans-Serif" font-size="10.00">/home/runner/work/diffblue</text>
<text text-anchor="start" x="8" y="-35" font-family="Helvetica,sans-Serif" font-size="10.00">&#45;cbmc/diffblue&#45;cbmc/src</text>
<text text-anchor="start" x="8" y="-24" font-family="Helvetica,sans-Serif" font-size="10.00">/solvers/smt2_incremental</text>
<text text-anchor="middle" x="74.5" y="-13" font-family="Helvetica,sans-Serif" font-size="10.00">/smt_object_size.cpp</text>
</a>
</g>
</g>
<!-- Node2&#45;&gt;Node5 -->
<g id="edge4" class="edge">
<title>Node2&#45;&gt;Node5</title>
<path fill="none" stroke="midnightblue" d="M285.97,-105.53C246.74,-93.43 199.58,-78.46 157.5,-64 151.97,-62.1 146.26,-60.08 140.53,-58.02"/>
<polygon fill="midnightblue" stroke="midnightblue" points="285.17,-108.95 295.76,-108.55 287.23,-102.26 285.17,-108.95"/>
</g>
<!-- Node6 -->
<g id="node6" class="node">
<title>Node6</title>
<g id="a_node6"><a xlink:href="type__size__mapping_8cpp.html" target="_top" xlink:title=" ">
<polygon fill="none" stroke="black" points="334,-6 334,-58 483,-58 483,-6 334,-6"/>
<text text-anchor="start" x="342" y="-46" font-family="Helvetica,sans-Serif" font-size="10.00">/home/runner/work/diffblue</text>
<text text-anchor="start" x="342" y="-35" font-family="Helvetica,sans-Serif" font-size="10.00">&#45;cbmc/diffblue&#45;cbmc/src</text>
<text text-anchor="start" x="342" y="-24" font-family="Helvetica,sans-Serif" font-size="10.00">/solvers/smt2_incremental</text>
<text text-anchor="middle" x="408.5" y="-13" font-family="Helvetica,sans-Serif" font-size="10.00">/type_size_mapping.cpp</text>
</a>
</g>
</g>
<!-- Node2&#45;&gt;Node6 -->
<g id="edge5" class="edge">
<title>Node2&#45;&gt;Node6</title>
<path fill="none" stroke="midnightblue" d="M384.04,-96.08C388.9,-83.55 394.27,-69.69 398.75,-58.15"/>
<polygon fill="midnightblue" stroke="midnightblue" points="380.64,-95.17 380.29,-105.76 387.16,-97.7 380.64,-95.17"/>
</g>
<!-- Node8&#45;&gt;Node4 -->
<g id="edge9" class="edge">
<title>Node8&#45;&gt;Node4</title>
<path fill="none" stroke="midnightblue" d="M600.28,-90.68C596.86,-81.64 593.3,-72.2 590.06,-63.63"/>
<polygon fill="midnightblue" stroke="midnightblue" points="597.09,-92.14 603.89,-100.26 603.64,-89.67 597.09,-92.14"/>
</g>
<!-- Node9 -->
<g id="node9" class="node">
<title>Node9</title>
<g id="a_node9"><a xlink:href="solver__factory_8cpp.html" target="_top" xlink:title="Solver Factory.">
<polygon fill="none" stroke="black" points="673.5,-11.5 673.5,-52.5 847.5,-52.5 847.5,-11.5 673.5,-11.5"/>
<text text-anchor="start" x="681.5" y="-40.5" font-family="Helvetica,sans-Serif" font-size="10.00">/home/runner/work/diffblue</text>
<text text-anchor="start" x="681.5" y="-29.5" font-family="Helvetica,sans-Serif" font-size="10.00">&#45;cbmc/diffblue&#45;cbmc/src</text>
<text text-anchor="middle" x="760.5" y="-18.5" font-family="Helvetica,sans-Serif" font-size="10.00">/goto&#45;checker/solver_factory.cpp</text>
</a>
</g>
</g>
<!-- Node8&#45;&gt;Node9 -->
<g id="edge8" class="edge">
<title>Node8&#45;&gt;Node9</title>
<path fill="none" stroke="midnightblue" d="M669.54,-94.48C690.59,-80.25 713.87,-64.52 731.61,-52.53"/>
<polygon fill="midnightblue" stroke="midnightblue" points="667.31,-91.76 660.98,-100.26 671.23,-97.56 667.31,-91.76"/>
</g>
<!-- Node10&#45;&gt;Node2 -->
<g id="edge11" class="edge">
<title>Node10&#45;&gt;Node2</title>
<path fill="none" stroke="midnightblue" d="M456.84,-194.43C440.2,-182.59 421.46,-169.26 405.71,-158.05"/>
<polygon fill="midnightblue" stroke="midnightblue" points="455.14,-197.52 465.32,-200.47 459.2,-191.82 455.14,-197.52"/>
</g>
<!-- Node10&#45;&gt;Node4 -->
<g id="edge12" class="edge">
<title>Node10&#45;&gt;Node4</title>
<path fill="none" stroke="midnightblue" d="M504.74,-190.39C508.77,-164.52 516.25,-128.95 529.5,-100 535.32,-87.29 543.76,-74.59 552.01,-63.72"/>
<polygon fill="midnightblue" stroke="midnightblue" points="501.24,-190.09 503.26,-200.49 508.17,-191.1 501.24,-190.09"/>
</g>
<!-- Node10&#45;&gt;Node6 -->
<g id="edge14" class="edge">
<title>Node10&#45;&gt;Node6</title>
<path fill="none" stroke="midnightblue" d="M489.85,-190.56C481.44,-164.85 468.62,-129.41 453.5,-100 446.07,-85.54 436.13,-70.43 427.49,-58.23"/>
<polygon fill="midnightblue" stroke="midnightblue" points="486.57,-191.79 492.96,-200.24 493.24,-189.65 486.57,-191.79"/>
</g>
<!-- Node10&#45;&gt;Node8 -->
<g id="edge13" class="edge">
<title>Node10&#45;&gt;Node8</title>
<path fill="none" stroke="midnightblue" d="M539.46,-194.16C551.7,-184.32 565.2,-173.46 577.38,-163.66"/>
<polygon fill="midnightblue" stroke="midnightblue" points="537.22,-191.47 531.62,-200.47 541.61,-196.93 537.22,-191.47"/>
</g>
</g>
</svg>
