<?xml version="1.0" encoding="UTF-8" standalone="no"?>
<!DOCTYPE svg PUBLIC "-//W3C//DTD SVG 1.1//EN"
 "http://www.w3.org/Graphics/SVG/1.1/DTD/svg11.dtd">
<!-- Generated by graphviz version 2.43.0 (0)
 -->
<!-- Title: /home/runner/work/diffblue&#45;cbmc/diffblue&#45;cbmc/src/goto&#45;instrument/object_id.h Pages: 1 -->
<svg width="450pt" height="217pt"
 viewBox="0.00 0.00 449.50 217.00" xmlns="http://www.w3.org/2000/svg" xmlns:xlink="http://www.w3.org/1999/xlink">
<g id="graph0" class="graph" transform="scale(1 1) rotate(0) translate(4 213)">
<title>/home/runner/work/diffblue&#45;cbmc/diffblue&#45;cbmc/src/goto&#45;instrument/object_id.h</title>
<!-- Node1 -->
<g id="node1" class="node">
<title>Node1</title>
<g id="a_node1"><a xlink:title="Object Identifiers.">
<polygon fill="#bfbfbf" stroke="black" points="94.5,-167.5 94.5,-208.5 249.5,-208.5 249.5,-167.5 94.5,-167.5"/>
<text text-anchor="start" x="102.5" y="-196.5" font-family="Helvetica,sans-Serif" font-size="10.00">/home/runner/work/diffblue</text>
<text text-anchor="start" x="102.5" y="-185.5" font-family="Helvetica,sans-Serif" font-size="10.00">&#45;cbmc/diffblue&#45;cbmc/src</text>
<text text-anchor="middle" x="172" y="-174.5" font-family="Helvetica,sans-Serif" font-size="10.00">/goto&#45;instrument/object_id.h</text>
</a>
</g>
</g>
<!-- Node2 -->
<g id="node2" class="node">
<title>Node2</title>
<g id="a_node2"><a xlink:href="object__id_8cpp.html" target="_top" xlink:title="Object Identifiers.">
<polygon fill="none" stroke="black" points="0,-89.5 0,-130.5 166,-130.5 166,-89.5 0,-89.5"/>
<text text-anchor="start" x="8" y="-118.5" font-family="Helvetica,sans-Serif" font-size="10.00">/home/runner/work/diffblue</text>
<text text-anchor="start" x="8" y="-107.5" font-family="Helvetica,sans-Serif" font-size="10.00">&#45;cbmc/diffblue&#45;cbmc/src</text>
<text text-anchor="middle" x="83" y="-96.5" font-family="Helvetica,sans-Serif" font-size="10.00">/goto&#45;instrument/object_id.cpp</text>
</a>
</g>
</g>
<!-- Node1&#45;&gt;Node2 -->
<g id="edge1" class="edge">
<title>Node1&#45;&gt;Node2</title>
<path fill="none" stroke="midnightblue" d="M141.29,-160.78C129.66,-150.84 116.63,-139.72 105.84,-130.51"/>
<polygon fill="midnightblue" stroke="midnightblue" points="139.2,-163.6 149.08,-167.43 143.75,-158.27 139.2,-163.6"/>
</g>
<!-- Node3 -->
<g id="node3" class="node">
<title>Node3</title>
<g id="a_node3"><a xlink:href="points__to_8h.html" target="_top" xlink:title="Field&#45;sensitive, location&#45;insensitive points&#45;to analysis.">
<polygon fill="none" stroke="black" points="184.5,-89.5 184.5,-130.5 339.5,-130.5 339.5,-89.5 184.5,-89.5"/>
<text text-anchor="start" x="192.5" y="-118.5" font-family="Helvetica,sans-Serif" font-size="10.00">/home/runner/work/diffblue</text>
<text text-anchor="start" x="192.5" y="-107.5" font-family="Helvetica,sans-Serif" font-size="10.00">&#45;cbmc/diffblue&#45;cbmc/src</text>
<text text-anchor="middle" x="262" y="-96.5" font-family="Helvetica,sans-Serif" font-size="10.00">/goto&#45;instrument/points_to.h</text>
</a>
</g>
</g>
<!-- Node1&#45;&gt;Node3 -->
<g id="edge2" class="edge">
<title>Node1&#45;&gt;Node3</title>
<path fill="none" stroke="midnightblue" d="M203.05,-160.78C214.82,-150.84 227.99,-139.72 238.9,-130.51"/>
<polygon fill="midnightblue" stroke="midnightblue" points="200.56,-158.3 195.18,-167.43 205.08,-163.65 200.56,-158.3"/>
</g>
<!-- Node4 -->
<g id="node4" class="node">
<title>Node4</title>
<g id="a_node4"><a xlink:href="goto__instrument__parse__options_8cpp.html" target="_top" xlink:title="Main Module.">
<polygon fill="none" stroke="black" points="74,-0.5 74,-52.5 256,-52.5 256,-0.5 74,-0.5"/>
<text text-anchor="start" x="82" y="-40.5" font-family="Helvetica,sans-Serif" font-size="10.00">/home/runner/work/diffblue</text>
<text text-anchor="start" x="82" y="-29.5" font-family="Helvetica,sans-Serif" font-size="10.00">&#45;cbmc/diffblue&#45;cbmc/src</text>
<text text-anchor="start" x="82" y="-18.5" font-family="Helvetica,sans-Serif" font-size="10.00">/goto&#45;instrument/goto_instrument</text>
<text text-anchor="middle" x="165" y="-7.5" font-family="Helvetica,sans-Serif" font-size="10.00">_parse_options.cpp</text>
</a>
</g>
</g>
<!-- Node3&#45;&gt;Node4 -->
<g id="edge3" class="edge">
<title>Node3&#45;&gt;Node4</title>
<path fill="none" stroke="midnightblue" d="M230.82,-82.8C219.3,-73.13 206.28,-62.19 194.88,-52.61"/>
<polygon fill="midnightblue" stroke="midnightblue" points="228.61,-85.52 238.52,-89.27 233.11,-80.16 228.61,-85.52"/>
</g>
<!-- Node5 -->
<g id="node5" class="node">
<title>Node5</title>
<g id="a_node5"><a xlink:href="points__to_8cpp.html" target="_top" xlink:title="Field&#45;sensitive, location&#45;insensitive points&#45;to analysis.">
<polygon fill="none" stroke="black" points="274.5,-6 274.5,-47 441.5,-47 441.5,-6 274.5,-6"/>
<text text-anchor="start" x="282.5" y="-35" font-family="Helvetica,sans-Serif" font-size="10.00">/home/runner/work/diffblue</text>
<text text-anchor="start" x="282.5" y="-24" font-family="Helvetica,sans-Serif" font-size="10.00">&#45;cbmc/diffblue&#45;cbmc/src</text>
<text text-anchor="middle" x="358" y="-13" font-family="Helvetica,sans-Serif" font-size="10.00">/goto&#45;instrument/points_to.cpp</text>
</a>
</g>
</g>
<!-- Node3&#45;&gt;Node5 -->
<g id="edge4" class="edge">
<title>Node3&#45;&gt;Node5</title>
<path fill="none" stroke="midnightblue" d="M292.99,-82.69C306.64,-71.1 322.39,-57.73 334.98,-47.05"/>
<polygon fill="midnightblue" stroke="midnightblue" points="290.6,-80.13 285.24,-89.27 295.13,-85.47 290.6,-80.13"/>
</g>
</g>
</svg>
