<?xml version="1.0" encoding="UTF-8" standalone="no"?>
<!DOCTYPE svg PUBLIC "-//W3C//DTD SVG 1.1//EN"
 "http://www.w3.org/Graphics/SVG/1.1/DTD/svg11.dtd">
<!-- Generated by graphviz version 2.43.0 (0)
 -->
<!-- Title: /home/runner/work/diffblue&#45;cbmc/diffblue&#45;cbmc/src/goto&#45;programs/osx_fat_reader.h Pages: 1 -->
<svg width="362pt" height="139pt"
 viewBox="0.00 0.00 362.00 139.00" xmlns="http://www.w3.org/2000/svg" xmlns:xlink="http://www.w3.org/1999/xlink">
<g id="graph0" class="graph" transform="scale(1 1) rotate(0) translate(4 135)">
<title>/home/runner/work/diffblue&#45;cbmc/diffblue&#45;cbmc/src/goto&#45;programs/osx_fat_reader.h</title>
<!-- Node1 -->
<g id="node1" class="node">
<title>Node1</title>
<g id="a_node1"><a xlink:title="Read OS X Fat Binaries.">
<polygon fill="#bfbfbf" stroke="black" points="98.5,-89.5 98.5,-130.5 274.5,-130.5 274.5,-89.5 98.5,-89.5"/>
<text text-anchor="start" x="106.5" y="-118.5" font-family="Helvetica,sans-Serif" font-size="10.00">/home/runner/work/diffblue</text>
<text text-anchor="start" x="106.5" y="-107.5" font-family="Helvetica,sans-Serif" font-size="10.00">&#45;cbmc/diffblue&#45;cbmc/src</text>
<text text-anchor="middle" x="186.5" y="-96.5" font-family="Helvetica,sans-Serif" font-size="10.00">/goto&#45;programs/osx_fat_reader.h</text>
</a>
</g>
</g>
<!-- Node2 -->
<g id="node2" class="node">
<title>Node2</title>
<g id="a_node2"><a xlink:href="osx__fat__reader_8cpp.html" target="_top" xlink:title="Read Mach&#45;O.">
<polygon fill="none" stroke="black" points="0,-6 0,-47 187,-47 187,-6 0,-6"/>
<text text-anchor="start" x="8" y="-35" font-family="Helvetica,sans-Serif" font-size="10.00">/home/runner/work/diffblue</text>
<text text-anchor="start" x="8" y="-24" font-family="Helvetica,sans-Serif" font-size="10.00">&#45;cbmc/diffblue&#45;cbmc/src</text>
<text text-anchor="middle" x="93.5" y="-13" font-family="Helvetica,sans-Serif" font-size="10.00">/goto&#45;programs/osx_fat_reader.cpp</text>
</a>
</g>
</g>
<!-- Node1&#45;&gt;Node2 -->
<g id="edge1" class="edge">
<title>Node1&#45;&gt;Node2</title>
<path fill="none" stroke="midnightblue" d="M156.11,-82.36C142.97,-70.85 127.88,-57.63 115.81,-47.05"/>
<polygon fill="midnightblue" stroke="midnightblue" points="154.16,-85.31 163.99,-89.27 158.77,-80.05 154.16,-85.31"/>
</g>
<!-- Node3 -->
<g id="node3" class="node">
<title>Node3</title>
<g id="a_node3"><a xlink:href="read__goto__binary_8cpp.html" target="_top" xlink:title="Read Goto Programs.">
<polygon fill="none" stroke="black" points="205,-0.5 205,-52.5 354,-52.5 354,-0.5 205,-0.5"/>
<text text-anchor="start" x="213" y="-40.5" font-family="Helvetica,sans-Serif" font-size="10.00">/home/runner/work/diffblue</text>
<text text-anchor="start" x="213" y="-29.5" font-family="Helvetica,sans-Serif" font-size="10.00">&#45;cbmc/diffblue&#45;cbmc/src</text>
<text text-anchor="start" x="213" y="-18.5" font-family="Helvetica,sans-Serif" font-size="10.00">/goto&#45;programs/read_goto</text>
<text text-anchor="middle" x="279.5" y="-7.5" font-family="Helvetica,sans-Serif" font-size="10.00">_binary.cpp</text>
</a>
</g>
</g>
<!-- Node1&#45;&gt;Node3 -->
<g id="edge2" class="edge">
<title>Node1&#45;&gt;Node3</title>
<path fill="none" stroke="midnightblue" d="M216.71,-82.52C227.68,-72.92 240.02,-62.09 250.85,-52.61"/>
<polygon fill="midnightblue" stroke="midnightblue" points="214.23,-80.05 209.01,-89.27 218.84,-85.31 214.23,-80.05"/>
</g>
</g>
</svg>
