<?xml version="1.0" encoding="UTF-8" standalone="no"?>
<!DOCTYPE svg PUBLIC "-//W3C//DTD SVG 1.1//EN"
 "http://www.w3.org/Graphics/SVG/1.1/DTD/svg11.dtd">
<!-- Generated by graphviz version 2.43.0 (0)
 -->
<!-- Title: /home/runner/work/diffblue&#45;cbmc/diffblue&#45;cbmc/src/util/parser.h Pages: 1 -->
<svg width="4390pt" height="406pt"
 viewBox="0.00 0.00 4390.00 406.00" xmlns="http://www.w3.org/2000/svg" xmlns:xlink="http://www.w3.org/1999/xlink">
<g id="graph0" class="graph" transform="scale(1 1) rotate(0) translate(4 402)">
<title>/home/runner/work/diffblue&#45;cbmc/diffblue&#45;cbmc/src/util/parser.h</title>
<!-- Node1 -->
<g id="node1" class="node">
<title>Node1</title>
<g id="a_node1"><a xlink:title="Parser utilities.">
<polygon fill="#bfbfbf" stroke="black" points="2496,-356.5 2496,-397.5 2645,-397.5 2645,-356.5 2496,-356.5"/>
<text text-anchor="start" x="2504" y="-385.5" font-family="Helvetica,sans-Serif" font-size="10.00">/home/runner/work/diffblue</text>
<text text-anchor="start" x="2504" y="-374.5" font-family="Helvetica,sans-Serif" font-size="10.00">&#45;cbmc/diffblue&#45;cbmc/src</text>
<text text-anchor="middle" x="2570.5" y="-363.5" font-family="Helvetica,sans-Serif" font-size="10.00">/util/parser.h</text>
</a>
</g>
</g>
<!-- Node2 -->
<g id="node2" class="node">
<title>Node2</title>
<g id="a_node2"><a xlink:href="ansi__c__parser_8h.html" target="_top" xlink:title=" ">
<polygon fill="none" stroke="black" points="606,-273 606,-314 755,-314 755,-273 606,-273"/>
<text text-anchor="start" x="614" y="-302" font-family="Helvetica,sans-Serif" font-size="10.00">/home/runner/work/diffblue</text>
<text text-anchor="start" x="614" y="-291" font-family="Helvetica,sans-Serif" font-size="10.00">&#45;cbmc/diffblue&#45;cbmc/src</text>
<text text-anchor="middle" x="680.5" y="-280" font-family="Helvetica,sans-Serif" font-size="10.00">/ansi&#45;c/ansi_c_parser.h</text>
</a>
</g>
</g>
<!-- Node1&#45;&gt;Node2 -->
<g id="edge1" class="edge">
<title>Node1&#45;&gt;Node2</title>
<path fill="none" stroke="midnightblue" d="M2485.78,-372.35C2168.63,-358.67 1054.4,-310.62 755.02,-297.71"/>
<polygon fill="midnightblue" stroke="midnightblue" points="2485.69,-375.85 2495.83,-372.78 2485.99,-368.85 2485.69,-375.85"/>
</g>
<!-- Node7 -->
<g id="node7" class="node">
<title>Node7</title>
<g id="a_node7"><a xlink:href="cpp__parser_8h.html" target="_top" xlink:title="C++ Parser.">
<polygon fill="none" stroke="black" points="141,-95 141,-136 290,-136 290,-95 141,-95"/>
<text text-anchor="start" x="149" y="-124" font-family="Helvetica,sans-Serif" font-size="10.00">/home/runner/work/diffblue</text>
<text text-anchor="start" x="149" y="-113" font-family="Helvetica,sans-Serif" font-size="10.00">&#45;cbmc/diffblue&#45;cbmc/src</text>
<text text-anchor="middle" x="215.5" y="-102" font-family="Helvetica,sans-Serif" font-size="10.00">/cpp/cpp_parser.h</text>
</a>
</g>
</g>
<!-- Node1&#45;&gt;Node7 -->
<g id="edge19" class="edge">
<title>Node1&#45;&gt;Node7</title>
<path fill="none" stroke="midnightblue" d="M2485.38,-375.96C2156.66,-375.42 969.85,-370 596.5,-320 430.15,-297.72 341.09,-356.37 229.5,-231 206.33,-204.97 208.19,-161.43 211.76,-136.21"/>
<polygon fill="midnightblue" stroke="midnightblue" points="2485.77,-379.46 2495.78,-375.97 2485.78,-372.46 2485.77,-379.46"/>
</g>
<!-- Node14 -->
<g id="node14" class="node">
<title>Node14</title>
<g id="a_node14"><a xlink:href="preprocessor__line_8cpp.html" target="_top" xlink:title="ANSI&#45;C Language Conversion.">
<polygon fill="none" stroke="black" points="1677.5,-273 1677.5,-314 1835.5,-314 1835.5,-273 1677.5,-273"/>
<text text-anchor="start" x="1685.5" y="-302" font-family="Helvetica,sans-Serif" font-size="10.00">/home/runner/work/diffblue</text>
<text text-anchor="start" x="1685.5" y="-291" font-family="Helvetica,sans-Serif" font-size="10.00">&#45;cbmc/diffblue&#45;cbmc/src</text>
<text text-anchor="middle" x="1756.5" y="-280" font-family="Helvetica,sans-Serif" font-size="10.00">/ansi&#45;c/preprocessor_line.cpp</text>
</a>
</g>
</g>
<!-- Node1&#45;&gt;Node14 -->
<g id="edge15" class="edge">
<title>Node1&#45;&gt;Node14</title>
<path fill="none" stroke="midnightblue" d="M2485.42,-375.17C2348.92,-372.55 2073.02,-362 1843.5,-320 1834.98,-318.44 1826.11,-316.38 1817.43,-314.09"/>
<polygon fill="midnightblue" stroke="midnightblue" points="2485.74,-378.67 2495.8,-375.35 2485.86,-371.67 2485.74,-378.67"/>
</g>
<!-- Node15 -->
<g id="node15" class="node">
<title>Node15</title>
<g id="a_node15"><a xlink:href="assembler__parser_8h.html" target="_top" xlink:title=" ">
<polygon fill="none" stroke="black" points="1853,-273 1853,-314 2022,-314 2022,-273 1853,-273"/>
<text text-anchor="start" x="1861" y="-302" font-family="Helvetica,sans-Serif" font-size="10.00">/home/runner/work/diffblue</text>
<text text-anchor="start" x="1861" y="-291" font-family="Helvetica,sans-Serif" font-size="10.00">&#45;cbmc/diffblue&#45;cbmc/src</text>
<text text-anchor="middle" x="1937.5" y="-280" font-family="Helvetica,sans-Serif" font-size="10.00">/assembler/assembler_parser.h</text>
</a>
</g>
</g>
<!-- Node1&#45;&gt;Node15 -->
<g id="edge16" class="edge">
<title>Node1&#45;&gt;Node15</title>
<path fill="none" stroke="midnightblue" d="M2485.74,-365.09C2364.6,-349.49 2143.23,-320.99 2022.15,-305.4"/>
<polygon fill="midnightblue" stroke="midnightblue" points="2485.35,-368.57 2495.71,-366.37 2486.24,-361.62 2485.35,-368.57"/>
</g>
<!-- Node18 -->
<g id="node18" class="node">
<title>Node18</title>
<g id="a_node18"><a xlink:href="json__parser_8h.html" target="_top" xlink:title=" ">
<polygon fill="none" stroke="black" points="2496,-273 2496,-314 2645,-314 2645,-273 2496,-273"/>
<text text-anchor="start" x="2504" y="-302" font-family="Helvetica,sans-Serif" font-size="10.00">/home/runner/work/diffblue</text>
<text text-anchor="start" x="2504" y="-291" font-family="Helvetica,sans-Serif" font-size="10.00">&#45;cbmc/diffblue&#45;cbmc/src</text>
<text text-anchor="middle" x="2570.5" y="-280" font-family="Helvetica,sans-Serif" font-size="10.00">/json/json_parser.h</text>
</a>
</g>
</g>
<!-- Node1&#45;&gt;Node18 -->
<g id="edge20" class="edge">
<title>Node1&#45;&gt;Node18</title>
<path fill="none" stroke="midnightblue" d="M2570.5,-346.06C2570.5,-335.38 2570.5,-323.63 2570.5,-314.05"/>
<polygon fill="midnightblue" stroke="midnightblue" points="2567,-346.27 2570.5,-356.27 2574,-346.27 2567,-346.27"/>
</g>
<!-- Node34 -->
<g id="node34" class="node">
<title>Node34</title>
<g id="a_node34"><a xlink:href="statement__list__parser_8h.html" target="_top" xlink:title="Statement List Language Parser.">
<polygon fill="none" stroke="black" points="3114,-267.5 3114,-319.5 3263,-319.5 3263,-267.5 3114,-267.5"/>
<text text-anchor="start" x="3122" y="-307.5" font-family="Helvetica,sans-Serif" font-size="10.00">/home/runner/work/diffblue</text>
<text text-anchor="start" x="3122" y="-296.5" font-family="Helvetica,sans-Serif" font-size="10.00">&#45;cbmc/diffblue&#45;cbmc/src</text>
<text text-anchor="start" x="3122" y="-285.5" font-family="Helvetica,sans-Serif" font-size="10.00">/statement&#45;list/statement</text>
<text text-anchor="middle" x="3188.5" y="-274.5" font-family="Helvetica,sans-Serif" font-size="10.00">_list_parser.h</text>
</a>
</g>
</g>
<!-- Node1&#45;&gt;Node34 -->
<g id="edge37" class="edge">
<title>Node1&#45;&gt;Node34</title>
<path fill="none" stroke="midnightblue" d="M2655.04,-364.85C2776.37,-348.85 2997.99,-319.62 3113.69,-304.37"/>
<polygon fill="midnightblue" stroke="midnightblue" points="2654.5,-361.39 2645.05,-366.17 2655.42,-368.33 2654.5,-361.39"/>
</g>
<!-- Node37 -->
<g id="node37" class="node">
<title>Node37</title>
<g id="a_node37"><a xlink:href="parser_8cpp.html" target="_top" xlink:title=" ">
<polygon fill="none" stroke="black" points="3281,-273 3281,-314 3430,-314 3430,-273 3281,-273"/>
<text text-anchor="start" x="3289" y="-302" font-family="Helvetica,sans-Serif" font-size="10.00">/home/runner/work/diffblue</text>
<text text-anchor="start" x="3289" y="-291" font-family="Helvetica,sans-Serif" font-size="10.00">&#45;cbmc/diffblue&#45;cbmc/src</text>
<text text-anchor="middle" x="3355.5" y="-280" font-family="Helvetica,sans-Serif" font-size="10.00">/util/parser.cpp</text>
</a>
</g>
</g>
<!-- Node1&#45;&gt;Node37 -->
<g id="edge40" class="edge">
<title>Node1&#45;&gt;Node37</title>
<path fill="none" stroke="midnightblue" d="M2655.22,-375.09C2787.79,-372.35 3051.86,-361.61 3271.5,-320 3279.74,-318.44 3288.31,-316.37 3296.7,-314.09"/>
<polygon fill="midnightblue" stroke="midnightblue" points="2655.06,-371.59 2645.13,-375.28 2655.19,-378.59 2655.06,-371.59"/>
</g>
<!-- Node38 -->
<g id="node38" class="node">
<title>Node38</title>
<g id="a_node38"><a xlink:href="xml__parser_8h.html" target="_top" xlink:title=" ">
<polygon fill="none" stroke="black" points="3899,-273 3899,-314 4048,-314 4048,-273 3899,-273"/>
<text text-anchor="start" x="3907" y="-302" font-family="Helvetica,sans-Serif" font-size="10.00">/home/runner/work/diffblue</text>
<text text-anchor="start" x="3907" y="-291" font-family="Helvetica,sans-Serif" font-size="10.00">&#45;cbmc/diffblue&#45;cbmc/src</text>
<text text-anchor="middle" x="3973.5" y="-280" font-family="Helvetica,sans-Serif" font-size="10.00">/xmllang/xml_parser.h</text>
</a>
</g>
</g>
<!-- Node1&#45;&gt;Node38 -->
<g id="edge41" class="edge">
<title>Node1&#45;&gt;Node38</title>
<path fill="none" stroke="midnightblue" d="M2655.71,-371.05C2909.77,-356.29 3659.23,-312.76 3898.89,-298.83"/>
<polygon fill="midnightblue" stroke="midnightblue" points="2655.22,-367.57 2645.44,-371.65 2655.62,-374.56 2655.22,-367.57"/>
</g>
<!-- Node42 -->
<g id="node42" class="node">
<title>Node42</title>
<g id="a_node42"><a xlink:href="java__bytecode__parser_8cpp.html" target="_top" xlink:title=" ">
<polygon fill="none" stroke="black" points="4066.5,-267.5 4066.5,-319.5 4248.5,-319.5 4248.5,-267.5 4066.5,-267.5"/>
<text text-anchor="start" x="4074.5" y="-307.5" font-family="Helvetica,sans-Serif" font-size="10.00">/home/runner/work/diffblue</text>
<text text-anchor="start" x="4074.5" y="-296.5" font-family="Helvetica,sans-Serif" font-size="10.00">&#45;cbmc/diffblue&#45;cbmc/jbmc</text>
<text text-anchor="start" x="4074.5" y="-285.5" font-family="Helvetica,sans-Serif" font-size="10.00">/src/java_bytecode/java_bytecode</text>
<text text-anchor="middle" x="4157.5" y="-274.5" font-family="Helvetica,sans-Serif" font-size="10.00">_parser.cpp</text>
</a>
</g>
</g>
<!-- Node1&#45;&gt;Node42 -->
<g id="edge45" class="edge">
<title>Node1&#45;&gt;Node42</title>
<path fill="none" stroke="midnightblue" d="M2655.3,-375.14C2928.39,-372 3783.06,-359.23 4056.5,-320 4059.72,-319.54 4062.99,-319.01 4066.28,-318.44"/>
<polygon fill="midnightblue" stroke="midnightblue" points="2655.01,-371.64 2645.05,-375.26 2655.09,-378.64 2655.01,-371.64"/>
</g>
<!-- Node3 -->
<g id="node3" class="node">
<title>Node3</title>
<g id="a_node3"><a xlink:href="ansi__c__internal__additions_8cpp.html" target="_top" xlink:title=" ">
<polygon fill="none" stroke="black" points="485.5,-184 485.5,-225 681.5,-225 681.5,-184 485.5,-184"/>
<text text-anchor="start" x="493.5" y="-213" font-family="Helvetica,sans-Serif" font-size="10.00">/home/runner/work/diffblue</text>
<text text-anchor="start" x="493.5" y="-202" font-family="Helvetica,sans-Serif" font-size="10.00">&#45;cbmc/diffblue&#45;cbmc/src</text>
<text text-anchor="middle" x="583.5" y="-191" font-family="Helvetica,sans-Serif" font-size="10.00">/ansi&#45;c/ansi_c_internal_additions.cpp</text>
</a>
</g>
</g>
<!-- Node2&#45;&gt;Node3 -->
<g id="edge2" class="edge">
<title>Node2&#45;&gt;Node3</title>
<path fill="none" stroke="midnightblue" d="M650.69,-265.76C636.08,-252.66 618.8,-237.16 605.42,-225.16"/>
<polygon fill="midnightblue" stroke="midnightblue" points="648.71,-268.69 658.49,-272.76 653.38,-263.48 648.71,-268.69"/>
</g>
<!-- Node4 -->
<g id="node4" class="node">
<title>Node4</title>
<g id="a_node4"><a xlink:href="ansi__c__language_8cpp.html" target="_top" xlink:title=" ">
<polygon fill="none" stroke="black" points="700,-184 700,-225 853,-225 853,-184 700,-184"/>
<text text-anchor="start" x="708" y="-213" font-family="Helvetica,sans-Serif" font-size="10.00">/home/runner/work/diffblue</text>
<text text-anchor="start" x="708" y="-202" font-family="Helvetica,sans-Serif" font-size="10.00">&#45;cbmc/diffblue&#45;cbmc/src</text>
<text text-anchor="middle" x="776.5" y="-191" font-family="Helvetica,sans-Serif" font-size="10.00">/ansi&#45;c/ansi_c_language.cpp</text>
</a>
</g>
</g>
<!-- Node2&#45;&gt;Node4 -->
<g id="edge3" class="edge">
<title>Node2&#45;&gt;Node4</title>
<path fill="none" stroke="midnightblue" d="M710,-265.76C724.46,-252.66 741.56,-237.16 754.8,-225.16"/>
<polygon fill="midnightblue" stroke="midnightblue" points="707.34,-263.45 702.28,-272.76 712.04,-268.64 707.34,-263.45"/>
</g>
<!-- Node5 -->
<g id="node5" class="node">
<title>Node5</title>
<g id="a_node5"><a xlink:href="ansi__c__parser_8cpp.html" target="_top" xlink:title=" ">
<polygon fill="none" stroke="black" points="871,-184 871,-225 1020,-225 1020,-184 871,-184"/>
<text text-anchor="start" x="879" y="-213" font-family="Helvetica,sans-Serif" font-size="10.00">/home/runner/work/diffblue</text>
<text text-anchor="start" x="879" y="-202" font-family="Helvetica,sans-Serif" font-size="10.00">&#45;cbmc/diffblue&#45;cbmc/src</text>
<text text-anchor="middle" x="945.5" y="-191" font-family="Helvetica,sans-Serif" font-size="10.00">/ansi&#45;c/ansi_c_parser.cpp</text>
</a>
</g>
</g>
<!-- Node2&#45;&gt;Node5 -->
<g id="edge4" class="edge">
<title>Node2&#45;&gt;Node5</title>
<path fill="none" stroke="midnightblue" d="M749.63,-269.81C791.87,-255.94 845.37,-238.37 885.77,-225.11"/>
<polygon fill="midnightblue" stroke="midnightblue" points="748.38,-266.53 739.97,-272.98 750.56,-273.18 748.38,-266.53"/>
</g>
<!-- Node6 -->
<g id="node6" class="node">
<title>Node6</title>
<g id="a_node6"><a xlink:href="builtin__factory_8cpp.html" target="_top" xlink:title=" ">
<polygon fill="none" stroke="black" points="1038,-184 1038,-225 1187,-225 1187,-184 1038,-184"/>
<text text-anchor="start" x="1046" y="-213" font-family="Helvetica,sans-Serif" font-size="10.00">/home/runner/work/diffblue</text>
<text text-anchor="start" x="1046" y="-202" font-family="Helvetica,sans-Serif" font-size="10.00">&#45;cbmc/diffblue&#45;cbmc/src</text>
<text text-anchor="middle" x="1112.5" y="-191" font-family="Helvetica,sans-Serif" font-size="10.00">/ansi&#45;c/builtin_factory.cpp</text>
</a>
</g>
</g>
<!-- Node2&#45;&gt;Node6 -->
<g id="edge5" class="edge">
<title>Node2&#45;&gt;Node6</title>
<path fill="none" stroke="midnightblue" d="M765.23,-280.43C836.06,-269.65 939.5,-252.29 1028.5,-231 1035.91,-229.23 1043.63,-227.17 1051.26,-225.02"/>
<polygon fill="midnightblue" stroke="midnightblue" points="764.39,-277.02 755.03,-281.97 765.44,-283.94 764.39,-277.02"/>
</g>
<!-- Node2&#45;&gt;Node7 -->
<g id="edge6" class="edge">
<title>Node2&#45;&gt;Node7</title>
<path fill="none" stroke="midnightblue" d="M595.61,-288.9C491.22,-282.94 321.66,-267.77 271.5,-231 240.09,-207.97 225.4,-162.49 219.29,-136.31"/>
<polygon fill="midnightblue" stroke="midnightblue" points="595.64,-292.41 605.82,-289.47 596.03,-285.42 595.64,-292.41"/>
</g>
<!-- Node11 -->
<g id="node11" class="node">
<title>Node11</title>
<g id="a_node11"><a xlink:href="cpp__token__buffer_8h.html" target="_top" xlink:title="C++ Parser: Token Buffer.">
<polygon fill="none" stroke="black" points="281,-184 281,-225 430,-225 430,-184 281,-184"/>
<text text-anchor="start" x="289" y="-213" font-family="Helvetica,sans-Serif" font-size="10.00">/home/runner/work/diffblue</text>
<text text-anchor="start" x="289" y="-202" font-family="Helvetica,sans-Serif" font-size="10.00">&#45;cbmc/diffblue&#45;cbmc/src</text>
<text text-anchor="middle" x="355.5" y="-191" font-family="Helvetica,sans-Serif" font-size="10.00">/cpp/cpp_token_buffer.h</text>
</a>
</g>
</g>
<!-- Node2&#45;&gt;Node11 -->
<g id="edge10" class="edge">
<title>Node2&#45;&gt;Node11</title>
<path fill="none" stroke="midnightblue" d="M596.12,-271.22C550.79,-259.63 494.01,-244.87 443.5,-231 436.6,-229.1 429.4,-227.09 422.23,-225.05"/>
<polygon fill="midnightblue" stroke="midnightblue" points="595.35,-274.63 605.9,-273.72 597.08,-267.85 595.35,-274.63"/>
</g>
<!-- Node13 -->
<g id="node13" class="node">
<title>Node13</title>
<g id="a_node13"><a xlink:href="contracts__wrangler_8cpp.html" target="_top" xlink:title="Parse and annotate contracts.">
<polygon fill="none" stroke="black" points="1600,-89.5 1600,-141.5 1749,-141.5 1749,-89.5 1600,-89.5"/>
<text text-anchor="start" x="1608" y="-129.5" font-family="Helvetica,sans-Serif" font-size="10.00">/home/runner/work/diffblue</text>
<text text-anchor="start" x="1608" y="-118.5" font-family="Helvetica,sans-Serif" font-size="10.00">&#45;cbmc/diffblue&#45;cbmc/src</text>
<text text-anchor="start" x="1608" y="-107.5" font-family="Helvetica,sans-Serif" font-size="10.00">/goto&#45;instrument/contracts</text>
<text text-anchor="middle" x="1674.5" y="-96.5" font-family="Helvetica,sans-Serif" font-size="10.00">/contracts_wrangler.cpp</text>
</a>
</g>
</g>
<!-- Node2&#45;&gt;Node13 -->
<g id="edge14" class="edge">
<title>Node2&#45;&gt;Node13</title>
<path fill="none" stroke="midnightblue" d="M595.76,-277.47C546.5,-266.82 491.28,-250.9 476.5,-231 462.45,-212.09 460.28,-195.08 476.5,-178 515.27,-137.19 1343.39,-121.44 1599.62,-117.54"/>
<polygon fill="midnightblue" stroke="midnightblue" points="595.33,-280.96 605.84,-279.6 596.78,-274.11 595.33,-280.96"/>
</g>
<!-- Node8 -->
<g id="node8" class="node">
<title>Node8</title>
<g id="a_node8"><a xlink:href="cpp__language_8cpp.html" target="_top" xlink:title="C++ Language Module.">
<polygon fill="none" stroke="black" points="167,-6 167,-47 316,-47 316,-6 167,-6"/>
<text text-anchor="start" x="175" y="-35" font-family="Helvetica,sans-Serif" font-size="10.00">/home/runner/work/diffblue</text>
<text text-anchor="start" x="175" y="-24" font-family="Helvetica,sans-Serif" font-size="10.00">&#45;cbmc/diffblue&#45;cbmc/src</text>
<text text-anchor="middle" x="241.5" y="-13" font-family="Helvetica,sans-Serif" font-size="10.00">/cpp/cpp_language.cpp</text>
</a>
</g>
</g>
<!-- Node7&#45;&gt;Node8 -->
<g id="edge7" class="edge">
<title>Node7&#45;&gt;Node8</title>
<path fill="none" stroke="midnightblue" d="M224.37,-84.81C228.09,-72.38 232.3,-58.27 235.62,-47.16"/>
<polygon fill="midnightblue" stroke="midnightblue" points="220.91,-84.17 221.4,-94.76 227.62,-86.18 220.91,-84.17"/>
</g>
<!-- Node9 -->
<g id="node9" class="node">
<title>Node9</title>
<g id="a_node9"><a xlink:href="cpp__parser_8cpp.html" target="_top" xlink:title="C++ Parser.">
<polygon fill="none" stroke="black" points="0,-6 0,-47 149,-47 149,-6 0,-6"/>
<text text-anchor="start" x="8" y="-35" font-family="Helvetica,sans-Serif" font-size="10.00">/home/runner/work/diffblue</text>
<text text-anchor="start" x="8" y="-24" font-family="Helvetica,sans-Serif" font-size="10.00">&#45;cbmc/diffblue&#45;cbmc/src</text>
<text text-anchor="middle" x="74.5" y="-13" font-family="Helvetica,sans-Serif" font-size="10.00">/cpp/cpp_parser.cpp</text>
</a>
</g>
</g>
<!-- Node7&#45;&gt;Node9 -->
<g id="edge8" class="edge">
<title>Node7&#45;&gt;Node9</title>
<path fill="none" stroke="midnightblue" d="M175.15,-89.61C153.38,-76.17 126.87,-59.81 106.53,-47.26"/>
<polygon fill="midnightblue" stroke="midnightblue" points="173.51,-92.7 183.86,-94.98 177.18,-86.75 173.51,-92.7"/>
</g>
<!-- Node10 -->
<g id="node10" class="node">
<title>Node10</title>
<g id="a_node10"><a xlink:href="parse_8cpp.html" target="_top" xlink:title="C++ Language Parsing.">
<polygon fill="none" stroke="black" points="385,-6 385,-47 534,-47 534,-6 385,-6"/>
<text text-anchor="start" x="393" y="-35" font-family="Helvetica,sans-Serif" font-size="10.00">/home/runner/work/diffblue</text>
<text text-anchor="start" x="393" y="-24" font-family="Helvetica,sans-Serif" font-size="10.00">&#45;cbmc/diffblue&#45;cbmc/src</text>
<text text-anchor="middle" x="459.5" y="-13" font-family="Helvetica,sans-Serif" font-size="10.00">/cpp/parse.cpp</text>
</a>
</g>
</g>
<!-- Node7&#45;&gt;Node10 -->
<g id="edge9" class="edge">
<title>Node7&#45;&gt;Node10</title>
<path fill="none" stroke="midnightblue" d="M279.89,-91.54C318.67,-77.71 367.54,-60.29 404.5,-47.11"/>
<polygon fill="midnightblue" stroke="midnightblue" points="278.5,-88.32 270.26,-94.98 280.85,-94.91 278.5,-88.32"/>
</g>
<!-- Node11&#45;&gt;Node7 -->
<g id="edge11" class="edge">
<title>Node11&#45;&gt;Node7</title>
<path fill="none" stroke="midnightblue" d="M315.44,-178.61C293.82,-165.17 267.5,-148.81 247.3,-136.26"/>
<polygon fill="midnightblue" stroke="midnightblue" points="313.74,-181.67 324.08,-183.98 317.44,-175.72 313.74,-181.67"/>
</g>
<!-- Node11&#45;&gt;Node10 -->
<g id="edge13" class="edge">
<title>Node11&#45;&gt;Node10</title>
<path fill="none" stroke="midnightblue" d="M424.69,-179.24C440.88,-170.15 456.11,-158 465.5,-142 482.72,-112.64 474.26,-71.42 466.74,-47.28"/>
<polygon fill="midnightblue" stroke="midnightblue" points="422.87,-176.25 415.64,-183.99 426.12,-182.45 422.87,-176.25"/>
</g>
<!-- Node12 -->
<g id="node12" class="node">
<title>Node12</title>
<g id="a_node12"><a xlink:href="cpp__token__buffer_8cpp.html" target="_top" xlink:title="C++ Parser: Token Buffer.">
<polygon fill="none" stroke="black" points="308,-95 308,-136 457,-136 457,-95 308,-95"/>
<text text-anchor="start" x="316" y="-124" font-family="Helvetica,sans-Serif" font-size="10.00">/home/runner/work/diffblue</text>
<text text-anchor="start" x="316" y="-113" font-family="Helvetica,sans-Serif" font-size="10.00">&#45;cbmc/diffblue&#45;cbmc/src</text>
<text text-anchor="middle" x="382.5" y="-102" font-family="Helvetica,sans-Serif" font-size="10.00">/cpp/cpp_token_buffer.cpp</text>
</a>
</g>
</g>
<!-- Node11&#45;&gt;Node12 -->
<g id="edge12" class="edge">
<title>Node11&#45;&gt;Node12</title>
<path fill="none" stroke="midnightblue" d="M364.6,-174.19C368.48,-161.67 372.92,-147.38 376.4,-136.16"/>
<polygon fill="midnightblue" stroke="midnightblue" points="361.25,-173.17 361.63,-183.76 367.93,-175.25 361.25,-173.17"/>
</g>
<!-- Node16 -->
<g id="node16" class="node">
<title>Node16</title>
<g id="a_node16"><a xlink:href="assembler__parser_8cpp.html" target="_top" xlink:title=" ">
<polygon fill="none" stroke="black" points="1205.5,-184 1205.5,-225 1385.5,-225 1385.5,-184 1205.5,-184"/>
<text text-anchor="start" x="1213.5" y="-213" font-family="Helvetica,sans-Serif" font-size="10.00">/home/runner/work/diffblue</text>
<text text-anchor="start" x="1213.5" y="-202" font-family="Helvetica,sans-Serif" font-size="10.00">&#45;cbmc/diffblue&#45;cbmc/src</text>
<text text-anchor="middle" x="1295.5" y="-191" font-family="Helvetica,sans-Serif" font-size="10.00">/assembler/assembler_parser.cpp</text>
</a>
</g>
</g>
<!-- Node15&#45;&gt;Node16 -->
<g id="edge17" class="edge">
<title>Node15&#45;&gt;Node16</title>
<path fill="none" stroke="midnightblue" d="M1862.26,-270.59C1856.28,-269.24 1850.31,-268.02 1844.5,-267 1646.88,-232.32 1592.38,-264.15 1394.5,-231 1384.96,-229.4 1374.99,-227.33 1365.22,-225.05"/>
<polygon fill="midnightblue" stroke="midnightblue" points="1861.77,-274.07 1872.31,-272.97 1863.38,-267.26 1861.77,-274.07"/>
</g>
<!-- Node17 -->
<g id="node17" class="node">
<title>Node17</title>
<g id="a_node17"><a xlink:href="remove__asm_8cpp.html" target="_top" xlink:title="Remove &#39;asm&#39; statements by compiling them into suitable standard goto program instructions.">
<polygon fill="none" stroke="black" points="1403.5,-184 1403.5,-225 1561.5,-225 1561.5,-184 1403.5,-184"/>
<text text-anchor="start" x="1411.5" y="-213" font-family="Helvetica,sans-Serif" font-size="10.00">/home/runner/work/diffblue</text>
<text text-anchor="start" x="1411.5" y="-202" font-family="Helvetica,sans-Serif" font-size="10.00">&#45;cbmc/diffblue&#45;cbmc/src</text>
<text text-anchor="middle" x="1482.5" y="-191" font-family="Helvetica,sans-Serif" font-size="10.00">/assembler/remove_asm.cpp</text>
</a>
</g>
</g>
<!-- Node15&#45;&gt;Node17 -->
<g id="edge18" class="edge">
<title>Node15&#45;&gt;Node17</title>
<path fill="none" stroke="midnightblue" d="M1860.65,-270.55C1855.21,-269.27 1849.78,-268.07 1844.5,-267 1724.1,-242.7 1690.72,-256.16 1570.5,-231 1562.4,-229.31 1553.97,-227.25 1545.66,-225.04"/>
<polygon fill="midnightblue" stroke="midnightblue" points="1859.91,-273.97 1870.46,-272.95 1861.57,-267.17 1859.91,-273.97"/>
</g>
<!-- Node19 -->
<g id="node19" class="node">
<title>Node19</title>
<g id="a_node19"><a xlink:href="crangler__parse__options_8cpp.html" target="_top" xlink:title="CRANGLER Command Line Option Processing.">
<polygon fill="none" stroke="black" points="2130,-178.5 2130,-230.5 2279,-230.5 2279,-178.5 2130,-178.5"/>
<text text-anchor="start" x="2138" y="-218.5" font-family="Helvetica,sans-Serif" font-size="10.00">/home/runner/work/diffblue</text>
<text text-anchor="start" x="2138" y="-207.5" font-family="Helvetica,sans-Serif" font-size="10.00">&#45;cbmc/diffblue&#45;cbmc/src</text>
<text text-anchor="start" x="2138" y="-196.5" font-family="Helvetica,sans-Serif" font-size="10.00">/crangler/crangler_parse</text>
<text text-anchor="middle" x="2204.5" y="-185.5" font-family="Helvetica,sans-Serif" font-size="10.00">_options.cpp</text>
</a>
</g>
</g>
<!-- Node18&#45;&gt;Node19 -->
<g id="edge21" class="edge">
<title>Node18&#45;&gt;Node19</title>
<path fill="none" stroke="midnightblue" d="M2485.95,-276.06C2429.47,-264.61 2353.69,-248.33 2287.5,-231 2284.73,-230.27 2281.91,-229.52 2279.07,-228.73"/>
<polygon fill="midnightblue" stroke="midnightblue" points="2485.42,-279.53 2495.91,-278.07 2486.8,-272.66 2485.42,-279.53"/>
</g>
<!-- Node20 -->
<g id="node20" class="node">
<title>Node20</title>
<g id="a_node20"><a xlink:href="taint__parser_8cpp.html" target="_top" xlink:title="Taint Parser.">
<polygon fill="none" stroke="black" points="2296.5,-184 2296.5,-225 2464.5,-225 2464.5,-184 2296.5,-184"/>
<text text-anchor="start" x="2304.5" y="-213" font-family="Helvetica,sans-Serif" font-size="10.00">/home/runner/work/diffblue</text>
<text text-anchor="start" x="2304.5" y="-202" font-family="Helvetica,sans-Serif" font-size="10.00">&#45;cbmc/diffblue&#45;cbmc/src</text>
<text text-anchor="middle" x="2380.5" y="-191" font-family="Helvetica,sans-Serif" font-size="10.00">/goto&#45;analyzer/taint_parser.cpp</text>
</a>
</g>
</g>
<!-- Node18&#45;&gt;Node20 -->
<g id="edge22" class="edge">
<title>Node18&#45;&gt;Node20</title>
<path fill="none" stroke="midnightblue" d="M2518.43,-268.66C2488.55,-254.98 2451.5,-238.01 2423.33,-225.11"/>
<polygon fill="midnightblue" stroke="midnightblue" points="2517.31,-271.99 2527.86,-272.98 2520.23,-265.63 2517.31,-271.99"/>
</g>
<!-- Node21 -->
<g id="node21" class="node">
<title>Node21</title>
<g id="a_node21"><a xlink:href="linker__script__merge_8cpp.html" target="_top" xlink:title=" ">
<polygon fill="none" stroke="black" points="2483,-184 2483,-225 2658,-225 2658,-184 2483,-184"/>
<text text-anchor="start" x="2491" y="-213" font-family="Helvetica,sans-Serif" font-size="10.00">/home/runner/work/diffblue</text>
<text text-anchor="start" x="2491" y="-202" font-family="Helvetica,sans-Serif" font-size="10.00">&#45;cbmc/diffblue&#45;cbmc/src</text>
<text text-anchor="middle" x="2570.5" y="-191" font-family="Helvetica,sans-Serif" font-size="10.00">/goto&#45;cc/linker_script_merge.cpp</text>
</a>
</g>
</g>
<!-- Node18&#45;&gt;Node21 -->
<g id="edge23" class="edge">
<title>Node18&#45;&gt;Node21</title>
<path fill="none" stroke="midnightblue" d="M2570.5,-262.44C2570.5,-250.1 2570.5,-236.16 2570.5,-225.16"/>
<polygon fill="midnightblue" stroke="midnightblue" points="2567,-262.76 2570.5,-272.76 2574,-262.76 2567,-262.76"/>
</g>
<!-- Node22 -->
<g id="node22" class="node">
<title>Node22</title>
<g id="a_node22"><a xlink:href="memory__snapshot__harness__generator_8cpp.html" target="_top" xlink:title=" ">
<polygon fill="none" stroke="black" points="2676,-178.5 2676,-230.5 2853,-230.5 2853,-178.5 2676,-178.5"/>
<text text-anchor="start" x="2684" y="-218.5" font-family="Helvetica,sans-Serif" font-size="10.00">/home/runner/work/diffblue</text>
<text text-anchor="start" x="2684" y="-207.5" font-family="Helvetica,sans-Serif" font-size="10.00">&#45;cbmc/diffblue&#45;cbmc/src</text>
<text text-anchor="start" x="2684" y="-196.5" font-family="Helvetica,sans-Serif" font-size="10.00">/goto&#45;harness/memory_snapshot</text>
<text text-anchor="middle" x="2764.5" y="-185.5" font-family="Helvetica,sans-Serif" font-size="10.00">_harness_generator.cpp</text>
</a>
</g>
</g>
<!-- Node18&#45;&gt;Node22 -->
<g id="edge24" class="edge">
<title>Node18&#45;&gt;Node22</title>
<path fill="none" stroke="midnightblue" d="M2623.49,-268.74C2649.88,-256.9 2681.78,-242.59 2708.56,-230.58"/>
<polygon fill="midnightblue" stroke="midnightblue" points="2621.73,-265.69 2614.04,-272.98 2624.59,-272.08 2621.73,-265.69"/>
</g>
<!-- Node23 -->
<g id="node23" class="node">
<title>Node23</title>
<g id="a_node23"><a xlink:href="contracts__wrangler_8h.html" target="_top" xlink:title="Parse and annotate contracts.">
<polygon fill="none" stroke="black" points="2871,-178.5 2871,-230.5 3020,-230.5 3020,-178.5 2871,-178.5"/>
<text text-anchor="start" x="2879" y="-218.5" font-family="Helvetica,sans-Serif" font-size="10.00">/home/runner/work/diffblue</text>
<text text-anchor="start" x="2879" y="-207.5" font-family="Helvetica,sans-Serif" font-size="10.00">&#45;cbmc/diffblue&#45;cbmc/src</text>
<text text-anchor="start" x="2879" y="-196.5" font-family="Helvetica,sans-Serif" font-size="10.00">/goto&#45;instrument/contracts</text>
<text text-anchor="middle" x="2945.5" y="-185.5" font-family="Helvetica,sans-Serif" font-size="10.00">/contracts_wrangler.h</text>
</a>
</g>
</g>
<!-- Node18&#45;&gt;Node23 -->
<g id="edge25" class="edge">
<title>Node18&#45;&gt;Node23</title>
<path fill="none" stroke="midnightblue" d="M2654.97,-276.65C2713.3,-265.22 2792.48,-248.74 2861.5,-231 2864.6,-230.2 2867.76,-229.37 2870.94,-228.5"/>
<polygon fill="midnightblue" stroke="midnightblue" points="2654.21,-273.24 2645.07,-278.59 2655.55,-280.11 2654.21,-273.24"/>
</g>
<!-- Node28 -->
<g id="node28" class="node">
<title>Node28</title>
<g id="a_node28"><a xlink:href="restrict__function__pointers_8cpp.html" target="_top" xlink:title=" ">
<polygon fill="none" stroke="black" points="3038.5,-178.5 3038.5,-230.5 3212.5,-230.5 3212.5,-178.5 3038.5,-178.5"/>
<text text-anchor="start" x="3046.5" y="-218.5" font-family="Helvetica,sans-Serif" font-size="10.00">/home/runner/work/diffblue</text>
<text text-anchor="start" x="3046.5" y="-207.5" font-family="Helvetica,sans-Serif" font-size="10.00">&#45;cbmc/diffblue&#45;cbmc/src</text>
<text text-anchor="start" x="3046.5" y="-196.5" font-family="Helvetica,sans-Serif" font-size="10.00">/goto&#45;programs/restrict_function</text>
<text text-anchor="middle" x="3125.5" y="-185.5" font-family="Helvetica,sans-Serif" font-size="10.00">_pointers.cpp</text>
</a>
</g>
</g>
<!-- Node18&#45;&gt;Node28 -->
<g id="edge31" class="edge">
<title>Node18&#45;&gt;Node28</title>
<path fill="none" stroke="midnightblue" d="M2655.26,-284.29C2747.58,-274.61 2899.35,-256.55 3028.5,-231 3031.75,-230.36 3035.04,-229.67 3038.37,-228.95"/>
<polygon fill="midnightblue" stroke="midnightblue" points="2654.72,-280.83 2645.13,-285.34 2655.44,-287.79 2654.72,-280.83"/>
</g>
<!-- Node29 -->
<g id="node29" class="node">
<title>Node29</title>
<g id="a_node29"><a xlink:href="json__interface_8cpp.html" target="_top" xlink:title="JSON Commandline Interface.">
<polygon fill="none" stroke="black" points="3231,-184 3231,-225 3380,-225 3380,-184 3231,-184"/>
<text text-anchor="start" x="3239" y="-213" font-family="Helvetica,sans-Serif" font-size="10.00">/home/runner/work/diffblue</text>
<text text-anchor="start" x="3239" y="-202" font-family="Helvetica,sans-Serif" font-size="10.00">&#45;cbmc/diffblue&#45;cbmc/src</text>
<text text-anchor="middle" x="3305.5" y="-191" font-family="Helvetica,sans-Serif" font-size="10.00">/json/json_interface.cpp</text>
</a>
</g>
</g>
<!-- Node18&#45;&gt;Node29 -->
<g id="edge32" class="edge">
<title>Node18&#45;&gt;Node29</title>
<path fill="none" stroke="midnightblue" d="M2655.67,-289.89C2780.77,-284.84 3021.07,-270.47 3221.5,-231 3229.57,-229.41 3237.98,-227.36 3246.22,-225.1"/>
<polygon fill="midnightblue" stroke="midnightblue" points="2655.25,-286.41 2645.4,-290.3 2655.53,-293.4 2655.25,-286.41"/>
</g>
<!-- Node30 -->
<g id="node30" class="node">
<title>Node30</title>
<g id="a_node30"><a xlink:href="json__parser_8cpp.html" target="_top" xlink:title=" ">
<polygon fill="none" stroke="black" points="3398,-184 3398,-225 3547,-225 3547,-184 3398,-184"/>
<text text-anchor="start" x="3406" y="-213" font-family="Helvetica,sans-Serif" font-size="10.00">/home/runner/work/diffblue</text>
<text text-anchor="start" x="3406" y="-202" font-family="Helvetica,sans-Serif" font-size="10.00">&#45;cbmc/diffblue&#45;cbmc/src</text>
<text text-anchor="middle" x="3472.5" y="-191" font-family="Helvetica,sans-Serif" font-size="10.00">/json/json_parser.cpp</text>
</a>
</g>
</g>
<!-- Node18&#45;&gt;Node30 -->
<g id="edge33" class="edge">
<title>Node18&#45;&gt;Node30</title>
<path fill="none" stroke="midnightblue" d="M2655.35,-288.49C2835.22,-279.6 3249.72,-256.96 3388.5,-231 3396.89,-229.43 3405.63,-227.33 3414.16,-225"/>
<polygon fill="midnightblue" stroke="midnightblue" points="2654.96,-285 2645.14,-288.99 2655.3,-291.99 2654.96,-285"/>
</g>
<!-- Node31 -->
<g id="node31" class="node">
<title>Node31</title>
<g id="a_node31"><a xlink:href="json__symtab__language_8cpp.html" target="_top" xlink:title=" ">
<polygon fill="none" stroke="black" points="1579.5,-178.5 1579.5,-230.5 1731.5,-230.5 1731.5,-178.5 1579.5,-178.5"/>
<text text-anchor="start" x="1587.5" y="-218.5" font-family="Helvetica,sans-Serif" font-size="10.00">/home/runner/work/diffblue</text>
<text text-anchor="start" x="1587.5" y="-207.5" font-family="Helvetica,sans-Serif" font-size="10.00">&#45;cbmc/diffblue&#45;cbmc/src</text>
<text text-anchor="start" x="1587.5" y="-196.5" font-family="Helvetica,sans-Serif" font-size="10.00">/json&#45;symtab&#45;language/json</text>
<text text-anchor="middle" x="1655.5" y="-185.5" font-family="Helvetica,sans-Serif" font-size="10.00">_symtab_language.cpp</text>
</a>
</g>
</g>
<!-- Node18&#45;&gt;Node31 -->
<g id="edge34" class="edge">
<title>Node18&#45;&gt;Node31</title>
<path fill="none" stroke="midnightblue" d="M2485.7,-288.56C2303.9,-279.74 1881.69,-257.09 1740.5,-231 1737.62,-230.47 1734.7,-229.87 1731.76,-229.23"/>
<polygon fill="midnightblue" stroke="midnightblue" points="2485.59,-292.06 2495.75,-289.05 2485.93,-285.07 2485.59,-292.06"/>
</g>
<!-- Node32 -->
<g id="node32" class="node">
<title>Node32</title>
<g id="a_node32"><a xlink:href="java__bytecode__language_8cpp.html" target="_top" xlink:title=" ">
<polygon fill="none" stroke="black" points="1749.5,-178.5 1749.5,-230.5 1931.5,-230.5 1931.5,-178.5 1749.5,-178.5"/>
<text text-anchor="start" x="1757.5" y="-218.5" font-family="Helvetica,sans-Serif" font-size="10.00">/home/runner/work/diffblue</text>
<text text-anchor="start" x="1757.5" y="-207.5" font-family="Helvetica,sans-Serif" font-size="10.00">&#45;cbmc/diffblue&#45;cbmc/jbmc</text>
<text text-anchor="start" x="1757.5" y="-196.5" font-family="Helvetica,sans-Serif" font-size="10.00">/src/java_bytecode/java_bytecode</text>
<text text-anchor="middle" x="1840.5" y="-185.5" font-family="Helvetica,sans-Serif" font-size="10.00">_language.cpp</text>
</a>
</g>
</g>
<!-- Node18&#45;&gt;Node32 -->
<g id="edge35" class="edge">
<title>Node18&#45;&gt;Node32</title>
<path fill="none" stroke="midnightblue" d="M2485.46,-288.32C2363.9,-281.41 2133.77,-264.87 1940.5,-231 1937.59,-230.49 1934.64,-229.94 1931.66,-229.36"/>
<polygon fill="midnightblue" stroke="midnightblue" points="2485.63,-291.83 2495.81,-288.9 2486.02,-284.85 2485.63,-291.83"/>
</g>
<!-- Node33 -->
<g id="node33" class="node">
<title>Node33</title>
<g id="a_node33"><a xlink:href="java__class__loader__limit_8cpp.html" target="_top" xlink:title="limit class path loading">
<polygon fill="none" stroke="black" points="1949.5,-178.5 1949.5,-230.5 2111.5,-230.5 2111.5,-178.5 1949.5,-178.5"/>
<text text-anchor="start" x="1957.5" y="-218.5" font-family="Helvetica,sans-Serif" font-size="10.00">/home/runner/work/diffblue</text>
<text text-anchor="start" x="1957.5" y="-207.5" font-family="Helvetica,sans-Serif" font-size="10.00">&#45;cbmc/diffblue&#45;cbmc/jbmc</text>
<text text-anchor="start" x="1957.5" y="-196.5" font-family="Helvetica,sans-Serif" font-size="10.00">/src/java_bytecode/java_class</text>
<text text-anchor="middle" x="2030.5" y="-185.5" font-family="Helvetica,sans-Serif" font-size="10.00">_loader_limit.cpp</text>
</a>
</g>
</g>
<!-- Node18&#45;&gt;Node33 -->
<g id="edge36" class="edge">
<title>Node18&#45;&gt;Node33</title>
<path fill="none" stroke="midnightblue" d="M2485.92,-284.52C2395.03,-275.11 2246.6,-257.35 2120.5,-231 2117.64,-230.4 2114.73,-229.76 2111.81,-229.09"/>
<polygon fill="midnightblue" stroke="midnightblue" points="2485.59,-288 2495.9,-285.54 2486.31,-281.04 2485.59,-288"/>
</g>
<!-- Node23&#45;&gt;Node13 -->
<g id="edge26" class="edge">
<title>Node23&#45;&gt;Node13</title>
<path fill="none" stroke="midnightblue" d="M2860.47,-178.06C2626.72,-139.83 1971.68,-122.83 1749.34,-118"/>
<polygon fill="midnightblue" stroke="midnightblue" points="2860.17,-181.56 2870.61,-179.78 2861.34,-174.66 2860.17,-181.56"/>
</g>
<!-- Node24 -->
<g id="node24" class="node">
<title>Node24</title>
<g id="a_node24"><a xlink:href="goto__instrument__parse__options_8h.html" target="_top" xlink:title="Command Line Parsing.">
<polygon fill="none" stroke="black" points="2854.5,-89.5 2854.5,-141.5 3036.5,-141.5 3036.5,-89.5 2854.5,-89.5"/>
<text text-anchor="start" x="2862.5" y="-129.5" font-family="Helvetica,sans-Serif" font-size="10.00">/home/runner/work/diffblue</text>
<text text-anchor="start" x="2862.5" y="-118.5" font-family="Helvetica,sans-Serif" font-size="10.00">&#45;cbmc/diffblue&#45;cbmc/src</text>
<text text-anchor="start" x="2862.5" y="-107.5" font-family="Helvetica,sans-Serif" font-size="10.00">/goto&#45;instrument/goto_instrument</text>
<text text-anchor="middle" x="2945.5" y="-96.5" font-family="Helvetica,sans-Serif" font-size="10.00">_parse_options.h</text>
</a>
</g>
</g>
<!-- Node23&#45;&gt;Node24 -->
<g id="edge27" class="edge">
<title>Node23&#45;&gt;Node24</title>
<path fill="none" stroke="midnightblue" d="M2945.5,-168.19C2945.5,-159.28 2945.5,-149.9 2945.5,-141.61"/>
<polygon fill="midnightblue" stroke="midnightblue" points="2942,-168.34 2945.5,-178.34 2949,-168.34 2942,-168.34"/>
</g>
<!-- Node25 -->
<g id="node25" class="node">
<title>Node25</title>
<g id="a_node25"><a xlink:href="goto__instrument__languages_8cpp.html" target="_top" xlink:title="Language Registration.">
<polygon fill="none" stroke="black" points="2654.5,-0.5 2654.5,-52.5 2836.5,-52.5 2836.5,-0.5 2654.5,-0.5"/>
<text text-anchor="start" x="2662.5" y="-40.5" font-family="Helvetica,sans-Serif" font-size="10.00">/home/runner/work/diffblue</text>
<text text-anchor="start" x="2662.5" y="-29.5" font-family="Helvetica,sans-Serif" font-size="10.00">&#45;cbmc/diffblue&#45;cbmc/src</text>
<text text-anchor="start" x="2662.5" y="-18.5" font-family="Helvetica,sans-Serif" font-size="10.00">/goto&#45;instrument/goto_instrument</text>
<text text-anchor="middle" x="2745.5" y="-7.5" font-family="Helvetica,sans-Serif" font-size="10.00">_languages.cpp</text>
</a>
</g>
</g>
<!-- Node24&#45;&gt;Node25 -->
<g id="edge28" class="edge">
<title>Node24&#45;&gt;Node25</title>
<path fill="none" stroke="midnightblue" d="M2878.69,-85.44C2854.17,-74.77 2826.65,-62.8 2803.02,-52.52"/>
<polygon fill="midnightblue" stroke="midnightblue" points="2877.35,-88.67 2887.92,-89.45 2880.15,-82.25 2877.35,-88.67"/>
</g>
<!-- Node26 -->
<g id="node26" class="node">
<title>Node26</title>
<g id="a_node26"><a xlink:href="goto__instrument__main_8cpp.html" target="_top" xlink:title="Main Module.">
<polygon fill="none" stroke="black" points="2854.5,-0.5 2854.5,-52.5 3036.5,-52.5 3036.5,-0.5 2854.5,-0.5"/>
<text text-anchor="start" x="2862.5" y="-40.5" font-family="Helvetica,sans-Serif" font-size="10.00">/home/runner/work/diffblue</text>
<text text-anchor="start" x="2862.5" y="-29.5" font-family="Helvetica,sans-Serif" font-size="10.00">&#45;cbmc/diffblue&#45;cbmc/src</text>
<text text-anchor="start" x="2862.5" y="-18.5" font-family="Helvetica,sans-Serif" font-size="10.00">/goto&#45;instrument/goto_instrument</text>
<text text-anchor="middle" x="2945.5" y="-7.5" font-family="Helvetica,sans-Serif" font-size="10.00">_main.cpp</text>
</a>
</g>
</g>
<!-- Node24&#45;&gt;Node26 -->
<g id="edge29" class="edge">
<title>Node24&#45;&gt;Node26</title>
<path fill="none" stroke="midnightblue" d="M2945.5,-79.19C2945.5,-70.28 2945.5,-60.9 2945.5,-52.61"/>
<polygon fill="midnightblue" stroke="midnightblue" points="2942,-79.34 2945.5,-89.34 2949,-79.34 2942,-79.34"/>
</g>
<!-- Node27 -->
<g id="node27" class="node">
<title>Node27</title>
<g id="a_node27"><a xlink:href="goto__instrument__parse__options_8cpp.html" target="_top" xlink:title="Main Module.">
<polygon fill="none" stroke="black" points="3054.5,-0.5 3054.5,-52.5 3236.5,-52.5 3236.5,-0.5 3054.5,-0.5"/>
<text text-anchor="start" x="3062.5" y="-40.5" font-family="Helvetica,sans-Serif" font-size="10.00">/home/runner/work/diffblue</text>
<text text-anchor="start" x="3062.5" y="-29.5" font-family="Helvetica,sans-Serif" font-size="10.00">&#45;cbmc/diffblue&#45;cbmc/src</text>
<text text-anchor="start" x="3062.5" y="-18.5" font-family="Helvetica,sans-Serif" font-size="10.00">/goto&#45;instrument/goto_instrument</text>
<text text-anchor="middle" x="3145.5" y="-7.5" font-family="Helvetica,sans-Serif" font-size="10.00">_parse_options.cpp</text>
</a>
</g>
</g>
<!-- Node24&#45;&gt;Node27 -->
<g id="edge30" class="edge">
<title>Node24&#45;&gt;Node27</title>
<path fill="none" stroke="midnightblue" d="M3012.31,-85.44C3036.83,-74.77 3064.35,-62.8 3087.98,-52.52"/>
<polygon fill="midnightblue" stroke="midnightblue" points="3010.85,-82.25 3003.08,-89.45 3013.65,-88.67 3010.85,-82.25"/>
</g>
<!-- Node35 -->
<g id="node35" class="node">
<title>Node35</title>
<g id="a_node35"><a xlink:href="statement__list__language_8cpp.html" target="_top" xlink:title="Statement List Language Interface.">
<polygon fill="none" stroke="black" points="3565,-178.5 3565,-230.5 3714,-230.5 3714,-178.5 3565,-178.5"/>
<text text-anchor="start" x="3573" y="-218.5" font-family="Helvetica,sans-Serif" font-size="10.00">/home/runner/work/diffblue</text>
<text text-anchor="start" x="3573" y="-207.5" font-family="Helvetica,sans-Serif" font-size="10.00">&#45;cbmc/diffblue&#45;cbmc/src</text>
<text text-anchor="start" x="3573" y="-196.5" font-family="Helvetica,sans-Serif" font-size="10.00">/statement&#45;list/statement</text>
<text text-anchor="middle" x="3639.5" y="-185.5" font-family="Helvetica,sans-Serif" font-size="10.00">_list_language.cpp</text>
</a>
</g>
</g>
<!-- Node34&#45;&gt;Node35 -->
<g id="edge38" class="edge">
<title>Node34&#45;&gt;Node35</title>
<path fill="none" stroke="midnightblue" d="M3273.35,-266.75C3397.73,-241.07 3434.23,-256.9 3555.5,-231 3558.48,-230.36 3561.51,-229.67 3564.56,-228.93"/>
<polygon fill="midnightblue" stroke="midnightblue" points="3272.51,-263.35 3263.45,-268.84 3273.96,-270.2 3272.51,-263.35"/>
</g>
<!-- Node36 -->
<g id="node36" class="node">
<title>Node36</title>
<g id="a_node36"><a xlink:href="statement__list__parser_8cpp.html" target="_top" xlink:title="Statement List Language Parser.">
<polygon fill="none" stroke="black" points="3732,-178.5 3732,-230.5 3881,-230.5 3881,-178.5 3732,-178.5"/>
<text text-anchor="start" x="3740" y="-218.5" font-family="Helvetica,sans-Serif" font-size="10.00">/home/runner/work/diffblue</text>
<text text-anchor="start" x="3740" y="-207.5" font-family="Helvetica,sans-Serif" font-size="10.00">&#45;cbmc/diffblue&#45;cbmc/src</text>
<text text-anchor="start" x="3740" y="-196.5" font-family="Helvetica,sans-Serif" font-size="10.00">/statement&#45;list/statement</text>
<text text-anchor="middle" x="3806.5" y="-185.5" font-family="Helvetica,sans-Serif" font-size="10.00">_list_parser.cpp</text>
</a>
</g>
</g>
<!-- Node34&#45;&gt;Node36 -->
<g id="edge39" class="edge">
<title>Node34&#45;&gt;Node36</title>
<path fill="none" stroke="midnightblue" d="M3273.53,-266.78C3470.9,-230.53 3528.21,-267.8 3722.5,-231 3725.49,-230.43 3728.53,-229.8 3731.59,-229.11"/>
<polygon fill="midnightblue" stroke="midnightblue" points="3272.6,-263.4 3263.42,-268.68 3273.89,-270.28 3272.6,-263.4"/>
</g>
<!-- Node39 -->
<g id="node39" class="node">
<title>Node39</title>
<g id="a_node39"><a xlink:href="graphml_8cpp.html" target="_top" xlink:title="Read/write graphs as GraphML.">
<polygon fill="none" stroke="black" points="4233,-184 4233,-225 4382,-225 4382,-184 4233,-184"/>
<text text-anchor="start" x="4241" y="-213" font-family="Helvetica,sans-Serif" font-size="10.00">/home/runner/work/diffblue</text>
<text text-anchor="start" x="4241" y="-202" font-family="Helvetica,sans-Serif" font-size="10.00">&#45;cbmc/diffblue&#45;cbmc/src</text>
<text text-anchor="middle" x="4307.5" y="-191" font-family="Helvetica,sans-Serif" font-size="10.00">/xmllang/graphml.cpp</text>
</a>
</g>
</g>
<!-- Node38&#45;&gt;Node39 -->
<g id="edge42" class="edge">
<title>Node38&#45;&gt;Node39</title>
<path fill="none" stroke="midnightblue" d="M4045.67,-270.17C4049.67,-269.07 4053.63,-268 4057.5,-267 4131,-247.96 4151.03,-250.17 4224.5,-231 4231.5,-229.17 4238.8,-227.14 4246.03,-225.03"/>
<polygon fill="midnightblue" stroke="midnightblue" points="4044.39,-266.9 4035.72,-272.99 4046.3,-273.63 4044.39,-266.9"/>
</g>
<!-- Node40 -->
<g id="node40" class="node">
<title>Node40</title>
<g id="a_node40"><a xlink:href="xml__interface_8cpp.html" target="_top" xlink:title="XML Interface.">
<polygon fill="none" stroke="black" points="3898.5,-184 3898.5,-225 4048.5,-225 4048.5,-184 3898.5,-184"/>
<text text-anchor="start" x="3906.5" y="-213" font-family="Helvetica,sans-Serif" font-size="10.00">/home/runner/work/diffblue</text>
<text text-anchor="start" x="3906.5" y="-202" font-family="Helvetica,sans-Serif" font-size="10.00">&#45;cbmc/diffblue&#45;cbmc/src</text>
<text text-anchor="middle" x="3973.5" y="-191" font-family="Helvetica,sans-Serif" font-size="10.00">/xmllang/xml_interface.cpp</text>
</a>
</g>
</g>
<!-- Node38&#45;&gt;Node40 -->
<g id="edge43" class="edge">
<title>Node38&#45;&gt;Node40</title>
<path fill="none" stroke="midnightblue" d="M3973.5,-262.44C3973.5,-250.1 3973.5,-236.16 3973.5,-225.16"/>
<polygon fill="midnightblue" stroke="midnightblue" points="3970,-262.76 3973.5,-272.76 3977,-262.76 3970,-262.76"/>
</g>
<!-- Node41 -->
<g id="node41" class="node">
<title>Node41</title>
<g id="a_node41"><a xlink:href="xml__parser_8cpp.html" target="_top" xlink:title=" ">
<polygon fill="none" stroke="black" points="4066,-184 4066,-225 4215,-225 4215,-184 4066,-184"/>
<text text-anchor="start" x="4074" y="-213" font-family="Helvetica,sans-Serif" font-size="10.00">/home/runner/work/diffblue</text>
<text text-anchor="start" x="4074" y="-202" font-family="Helvetica,sans-Serif" font-size="10.00">&#45;cbmc/diffblue&#45;cbmc/src</text>
<text text-anchor="middle" x="4140.5" y="-191" font-family="Helvetica,sans-Serif" font-size="10.00">/xmllang/xml_parser.cpp</text>
</a>
</g>
</g>
<!-- Node38&#45;&gt;Node41 -->
<g id="edge44" class="edge">
<title>Node38&#45;&gt;Node41</title>
<path fill="none" stroke="midnightblue" d="M4019.95,-268.3C4046.09,-254.68 4078.31,-237.9 4102.86,-225.11"/>
<polygon fill="midnightblue" stroke="midnightblue" points="4018.23,-265.25 4010.98,-272.98 4021.46,-271.46 4018.23,-265.25"/>
</g>
</g>
</svg>
