<?xml version="1.0" encoding="UTF-8" standalone="no"?>
<!DOCTYPE svg PUBLIC "-//W3C//DTD SVG 1.1//EN"
 "http://www.w3.org/Graphics/SVG/1.1/DTD/svg11.dtd">
<!-- Generated by graphviz version 2.43.0 (0)
 -->
<!-- Title: /home/runner/work/diffblue&#45;cbmc/diffblue&#45;cbmc/src/goto&#45;symex/path_storage.h Pages: 1 -->
<svg width="3528pt" height="406pt"
 viewBox="0.00 0.00 3528.00 406.00" xmlns="http://www.w3.org/2000/svg" xmlns:xlink="http://www.w3.org/1999/xlink">
<g id="graph0" class="graph" transform="scale(1 1) rotate(0) translate(4 402)">
<title>/home/runner/work/diffblue&#45;cbmc/diffblue&#45;cbmc/src/goto&#45;symex/path_storage.h</title>
<!-- Node1 -->
<g id="node1" class="node">
<title>Node1</title>
<g id="a_node1"><a xlink:title="Storage of symbolic execution paths to resume.">
<polygon fill="#bfbfbf" stroke="black" points="1919.5,-356.5 1919.5,-397.5 2073.5,-397.5 2073.5,-356.5 1919.5,-356.5"/>
<text text-anchor="start" x="1927.5" y="-385.5" font-family="Helvetica,sans-Serif" font-size="10.00">/home/runner/work/diffblue</text>
<text text-anchor="start" x="1927.5" y="-374.5" font-family="Helvetica,sans-Serif" font-size="10.00">&#45;cbmc/diffblue&#45;cbmc/src</text>
<text text-anchor="middle" x="1996.5" y="-363.5" font-family="Helvetica,sans-Serif" font-size="10.00">/goto&#45;symex/path_storage.h</text>
</a>
</g>
</g>
<!-- Node2 -->
<g id="node2" class="node">
<title>Node2</title>
<g id="a_node2"><a xlink:href="cbmc__parse__options_8cpp.html" target="_top" xlink:title="CBMC Command Line Option Processing.">
<polygon fill="none" stroke="black" points="903,-95 903,-136 1072,-136 1072,-95 903,-95"/>
<text text-anchor="start" x="911" y="-124" font-family="Helvetica,sans-Serif" font-size="10.00">/home/runner/work/diffblue</text>
<text text-anchor="start" x="911" y="-113" font-family="Helvetica,sans-Serif" font-size="10.00">&#45;cbmc/diffblue&#45;cbmc/src</text>
<text text-anchor="middle" x="987.5" y="-102" font-family="Helvetica,sans-Serif" font-size="10.00">/cbmc/cbmc_parse_options.cpp</text>
</a>
</g>
</g>
<!-- Node1&#45;&gt;Node2 -->
<g id="edge1" class="edge">
<title>Node1&#45;&gt;Node2</title>
<path fill="none" stroke="midnightblue" d="M1909.12,-372.85C1729.34,-365.86 1330.16,-347.44 1274.5,-320 1226.79,-296.48 1226.74,-273.3 1194.5,-231 1177.53,-208.74 1182.42,-195.4 1160.5,-178 1143.77,-164.72 1097.16,-148.49 1056.53,-136.04"/>
<polygon fill="midnightblue" stroke="midnightblue" points="1909.21,-376.36 1919.34,-373.25 1909.48,-369.37 1909.21,-376.36"/>
</g>
<!-- Node3 -->
<g id="node3" class="node">
<title>Node3</title>
<g id="a_node3"><a xlink:href="multi__path__symex__only__checker_8h.html" target="_top" xlink:title="Goto Checker using Multi&#45;Path Symbolic Execution only (no SAT solving)">
<polygon fill="none" stroke="black" points="649,-267.5 649,-319.5 798,-319.5 798,-267.5 649,-267.5"/>
<text text-anchor="start" x="657" y="-307.5" font-family="Helvetica,sans-Serif" font-size="10.00">/home/runner/work/diffblue</text>
<text text-anchor="start" x="657" y="-296.5" font-family="Helvetica,sans-Serif" font-size="10.00">&#45;cbmc/diffblue&#45;cbmc/src</text>
<text text-anchor="start" x="657" y="-285.5" font-family="Helvetica,sans-Serif" font-size="10.00">/goto&#45;checker/multi_path</text>
<text text-anchor="middle" x="723.5" y="-274.5" font-family="Helvetica,sans-Serif" font-size="10.00">_symex_only_checker.h</text>
</a>
</g>
</g>
<!-- Node1&#45;&gt;Node3 -->
<g id="edge2" class="edge">
<title>Node1&#45;&gt;Node3</title>
<path fill="none" stroke="midnightblue" d="M1909.22,-372.72C1731.7,-365.72 1315.87,-347.67 967.5,-320 910.61,-315.48 846.42,-308.71 798.16,-303.28"/>
<polygon fill="midnightblue" stroke="midnightblue" points="1909.16,-376.22 1919.28,-373.11 1909.43,-369.22 1909.16,-376.22"/>
</g>
<!-- Node10 -->
<g id="node10" class="node">
<title>Node10</title>
<g id="a_node10"><a xlink:href="jbmc__parse__options_8cpp.html" target="_top" xlink:title="JBMC Command Line Option Processing.">
<polygon fill="none" stroke="black" points="1082.5,-6 1082.5,-47 1264.5,-47 1264.5,-6 1082.5,-6"/>
<text text-anchor="start" x="1090.5" y="-35" font-family="Helvetica,sans-Serif" font-size="10.00">/home/runner/work/diffblue</text>
<text text-anchor="start" x="1090.5" y="-24" font-family="Helvetica,sans-Serif" font-size="10.00">&#45;cbmc/diffblue&#45;cbmc/jbmc</text>
<text text-anchor="middle" x="1173.5" y="-13" font-family="Helvetica,sans-Serif" font-size="10.00">/src/jbmc/jbmc_parse_options.cpp</text>
</a>
</g>
</g>
<!-- Node1&#45;&gt;Node10 -->
<g id="edge46" class="edge">
<title>Node1&#45;&gt;Node10</title>
<path fill="none" stroke="midnightblue" d="M1909.15,-373.66C1817.48,-369.26 1681.85,-356.57 1646.5,-320 1574.58,-245.61 1690.2,-162.63 1617.5,-89 1605.21,-76.55 1390.99,-51.23 1264.67,-37.28"/>
<polygon fill="midnightblue" stroke="midnightblue" points="1909.11,-377.16 1919.26,-374.12 1909.43,-370.17 1909.11,-377.16"/>
</g>
<!-- Node13 -->
<g id="node13" class="node">
<title>Node13</title>
<g id="a_node13"><a xlink:href="single__loop__incremental__symex__checker_8h.html" target="_top" xlink:title="Goto Checker using multi&#45;path symbolic execution with incremental unwinding of a specified loop.">
<polygon fill="none" stroke="black" points="976.5,-267.5 976.5,-319.5 1146.5,-319.5 1146.5,-267.5 976.5,-267.5"/>
<text text-anchor="start" x="984.5" y="-307.5" font-family="Helvetica,sans-Serif" font-size="10.00">/home/runner/work/diffblue</text>
<text text-anchor="start" x="984.5" y="-296.5" font-family="Helvetica,sans-Serif" font-size="10.00">&#45;cbmc/diffblue&#45;cbmc/src</text>
<text text-anchor="start" x="984.5" y="-285.5" font-family="Helvetica,sans-Serif" font-size="10.00">/goto&#45;checker/single_loop</text>
<text text-anchor="middle" x="1061.5" y="-274.5" font-family="Helvetica,sans-Serif" font-size="10.00">_incremental_symex_checker.h</text>
</a>
</g>
</g>
<!-- Node1&#45;&gt;Node13 -->
<g id="edge15" class="edge">
<title>Node1&#45;&gt;Node13</title>
<path fill="none" stroke="midnightblue" d="M1909.15,-375C1757.29,-372.18 1435.11,-361.37 1166.5,-320 1160.01,-319 1153.33,-317.8 1146.64,-316.47"/>
<polygon fill="midnightblue" stroke="midnightblue" points="1909.29,-378.5 1919.35,-375.18 1909.41,-371.51 1909.29,-378.5"/>
</g>
<!-- Node15 -->
<g id="node15" class="node">
<title>Node15</title>
<g id="a_node15"><a xlink:href="single__path__symex__only__checker_8cpp.html" target="_top" xlink:title="Goto Checker using Single Path Symbolic Execution only.">
<polygon fill="none" stroke="black" points="1451,-178.5 1451,-230.5 1600,-230.5 1600,-178.5 1451,-178.5"/>
<text text-anchor="start" x="1459" y="-218.5" font-family="Helvetica,sans-Serif" font-size="10.00">/home/runner/work/diffblue</text>
<text text-anchor="start" x="1459" y="-207.5" font-family="Helvetica,sans-Serif" font-size="10.00">&#45;cbmc/diffblue&#45;cbmc/src</text>
<text text-anchor="start" x="1459" y="-196.5" font-family="Helvetica,sans-Serif" font-size="10.00">/goto&#45;checker/single_path</text>
<text text-anchor="middle" x="1525.5" y="-185.5" font-family="Helvetica,sans-Serif" font-size="10.00">_symex_only_checker.cpp</text>
</a>
</g>
</g>
<!-- Node1&#45;&gt;Node15 -->
<g id="edge18" class="edge">
<title>Node1&#45;&gt;Node15</title>
<path fill="none" stroke="midnightblue" d="M1909.2,-370.83C1812.02,-363.76 1662.21,-348.56 1613.5,-320 1577.82,-299.07 1551.57,-257.56 1537.43,-230.69"/>
<polygon fill="midnightblue" stroke="midnightblue" points="1909.09,-374.33 1919.31,-371.55 1909.58,-367.35 1909.09,-374.33"/>
</g>
<!-- Node16 -->
<g id="node16" class="node">
<title>Node16</title>
<g id="a_node16"><a xlink:href="single__path__symex__only__checker_8h.html" target="_top" xlink:title="Goto Checker using Single Path Symbolic Execution only.">
<polygon fill="none" stroke="black" points="1284,-267.5 1284,-319.5 1433,-319.5 1433,-267.5 1284,-267.5"/>
<text text-anchor="start" x="1292" y="-307.5" font-family="Helvetica,sans-Serif" font-size="10.00">/home/runner/work/diffblue</text>
<text text-anchor="start" x="1292" y="-296.5" font-family="Helvetica,sans-Serif" font-size="10.00">&#45;cbmc/diffblue&#45;cbmc/src</text>
<text text-anchor="start" x="1292" y="-285.5" font-family="Helvetica,sans-Serif" font-size="10.00">/goto&#45;checker/single_path</text>
<text text-anchor="middle" x="1358.5" y="-274.5" font-family="Helvetica,sans-Serif" font-size="10.00">_symex_only_checker.h</text>
</a>
</g>
</g>
<!-- Node1&#45;&gt;Node16 -->
<g id="edge19" class="edge">
<title>Node1&#45;&gt;Node16</title>
<path fill="none" stroke="midnightblue" d="M1909.08,-365.56C1817.82,-354.58 1670.55,-336.61 1543.5,-320 1507.17,-315.25 1466.87,-309.73 1433.18,-305.04"/>
<polygon fill="midnightblue" stroke="midnightblue" points="1908.76,-369.05 1919.11,-366.77 1909.6,-362.1 1908.76,-369.05"/>
</g>
<!-- Node22 -->
<g id="node22" class="node">
<title>Node22</title>
<g id="a_node22"><a xlink:href="scratch__program_8h.html" target="_top" xlink:title="Loop Acceleration.">
<polygon fill="none" stroke="black" points="1655.5,-267.5 1655.5,-319.5 1807.5,-319.5 1807.5,-267.5 1655.5,-267.5"/>
<text text-anchor="start" x="1663.5" y="-307.5" font-family="Helvetica,sans-Serif" font-size="10.00">/home/runner/work/diffblue</text>
<text text-anchor="start" x="1663.5" y="-296.5" font-family="Helvetica,sans-Serif" font-size="10.00">&#45;cbmc/diffblue&#45;cbmc/src</text>
<text text-anchor="start" x="1663.5" y="-285.5" font-family="Helvetica,sans-Serif" font-size="10.00">/goto&#45;instrument/accelerate</text>
<text text-anchor="middle" x="1731.5" y="-274.5" font-family="Helvetica,sans-Serif" font-size="10.00">/scratch_program.h</text>
</a>
</g>
</g>
<!-- Node1&#45;&gt;Node22 -->
<g id="edge30" class="edge">
<title>Node1&#45;&gt;Node22</title>
<path fill="none" stroke="midnightblue" d="M1923.1,-353.43C1887.17,-342.38 1843.95,-329.08 1807.66,-317.92"/>
<polygon fill="midnightblue" stroke="midnightblue" points="1922.44,-356.88 1933.03,-356.48 1924.5,-350.19 1922.44,-356.88"/>
</g>
<!-- Node29 -->
<g id="node29" class="node">
<title>Node29</title>
<g id="a_node29"><a xlink:href="path__storage_8cpp.html" target="_top" xlink:title=" ">
<polygon fill="none" stroke="black" points="1826,-273 1826,-314 1991,-314 1991,-273 1826,-273"/>
<text text-anchor="start" x="1834" y="-302" font-family="Helvetica,sans-Serif" font-size="10.00">/home/runner/work/diffblue</text>
<text text-anchor="start" x="1834" y="-291" font-family="Helvetica,sans-Serif" font-size="10.00">&#45;cbmc/diffblue&#45;cbmc/src</text>
<text text-anchor="middle" x="1908.5" y="-280" font-family="Helvetica,sans-Serif" font-size="10.00">/goto&#45;symex/path_storage.cpp</text>
</a>
</g>
</g>
<!-- Node1&#45;&gt;Node29 -->
<g id="edge37" class="edge">
<title>Node1&#45;&gt;Node29</title>
<path fill="none" stroke="midnightblue" d="M1967.74,-349.36C1955.31,-337.85 1941.03,-324.63 1929.61,-314.05"/>
<polygon fill="midnightblue" stroke="midnightblue" points="1965.48,-352.04 1975.2,-356.27 1970.24,-346.91 1965.48,-352.04"/>
</g>
<!-- Node30 -->
<g id="node30" class="node">
<title>Node30</title>
<g id="a_node30"><a xlink:href="symex__builtin__functions_8cpp.html" target="_top" xlink:title="Symbolic Execution of ANSI&#45;C.">
<polygon fill="none" stroke="black" points="2009.5,-267.5 2009.5,-319.5 2159.5,-319.5 2159.5,-267.5 2009.5,-267.5"/>
<text text-anchor="start" x="2017.5" y="-307.5" font-family="Helvetica,sans-Serif" font-size="10.00">/home/runner/work/diffblue</text>
<text text-anchor="start" x="2017.5" y="-296.5" font-family="Helvetica,sans-Serif" font-size="10.00">&#45;cbmc/diffblue&#45;cbmc/src</text>
<text text-anchor="start" x="2017.5" y="-285.5" font-family="Helvetica,sans-Serif" font-size="10.00">/goto&#45;symex/symex_builtin</text>
<text text-anchor="middle" x="2084.5" y="-274.5" font-family="Helvetica,sans-Serif" font-size="10.00">_functions.cpp</text>
</a>
</g>
</g>
<!-- Node1&#45;&gt;Node30 -->
<g id="edge38" class="edge">
<title>Node1&#45;&gt;Node30</title>
<path fill="none" stroke="midnightblue" d="M2025.39,-349.24C2035.69,-339.71 2047.25,-329 2057.39,-319.61"/>
<polygon fill="midnightblue" stroke="midnightblue" points="2022.76,-346.91 2017.8,-356.27 2027.52,-352.04 2022.76,-346.91"/>
</g>
<!-- Node31 -->
<g id="node31" class="node">
<title>Node31</title>
<g id="a_node31"><a xlink:href="symex__clean__expr_8cpp.html" target="_top" xlink:title="Symbolic Execution of ANSI&#45;C.">
<polygon fill="none" stroke="black" points="2177.5,-273 2177.5,-314 2369.5,-314 2369.5,-273 2177.5,-273"/>
<text text-anchor="start" x="2185.5" y="-302" font-family="Helvetica,sans-Serif" font-size="10.00">/home/runner/work/diffblue</text>
<text text-anchor="start" x="2185.5" y="-291" font-family="Helvetica,sans-Serif" font-size="10.00">&#45;cbmc/diffblue&#45;cbmc/src</text>
<text text-anchor="middle" x="2273.5" y="-280" font-family="Helvetica,sans-Serif" font-size="10.00">/goto&#45;symex/symex_clean_expr.cpp</text>
</a>
</g>
</g>
<!-- Node1&#45;&gt;Node31 -->
<g id="edge39" class="edge">
<title>Node1&#45;&gt;Node31</title>
<path fill="none" stroke="midnightblue" d="M2072.52,-353.63C2114.71,-341.22 2166.69,-325.93 2207.21,-314"/>
<polygon fill="midnightblue" stroke="midnightblue" points="2071.45,-350.3 2062.85,-356.48 2073.43,-357.01 2071.45,-350.3"/>
</g>
<!-- Node32 -->
<g id="node32" class="node">
<title>Node32</title>
<g id="a_node32"><a xlink:href="symex__decl_8cpp.html" target="_top" xlink:title="Symbolic Execution.">
<polygon fill="none" stroke="black" points="2387.5,-273 2387.5,-314 2547.5,-314 2547.5,-273 2387.5,-273"/>
<text text-anchor="start" x="2395.5" y="-302" font-family="Helvetica,sans-Serif" font-size="10.00">/home/runner/work/diffblue</text>
<text text-anchor="start" x="2395.5" y="-291" font-family="Helvetica,sans-Serif" font-size="10.00">&#45;cbmc/diffblue&#45;cbmc/src</text>
<text text-anchor="middle" x="2467.5" y="-280" font-family="Helvetica,sans-Serif" font-size="10.00">/goto&#45;symex/symex_decl.cpp</text>
</a>
</g>
</g>
<!-- Node1&#45;&gt;Node32 -->
<g id="edge40" class="edge">
<title>Node1&#45;&gt;Node32</title>
<path fill="none" stroke="midnightblue" d="M2083.74,-366.57C2161.56,-357.37 2278.32,-341.59 2378.5,-320 2386.51,-318.27 2394.87,-316.22 2403.1,-314.04"/>
<polygon fill="midnightblue" stroke="midnightblue" points="2083.03,-363.13 2073.5,-367.77 2083.84,-370.08 2083.03,-363.13"/>
</g>
<!-- Node33 -->
<g id="node33" class="node">
<title>Node33</title>
<g id="a_node33"><a xlink:href="symex__dereference_8cpp.html" target="_top" xlink:title="Symbolic Execution of ANSI&#45;C.">
<polygon fill="none" stroke="black" points="2565.5,-273 2565.5,-314 2763.5,-314 2763.5,-273 2565.5,-273"/>
<text text-anchor="start" x="2573.5" y="-302" font-family="Helvetica,sans-Serif" font-size="10.00">/home/runner/work/diffblue</text>
<text text-anchor="start" x="2573.5" y="-291" font-family="Helvetica,sans-Serif" font-size="10.00">&#45;cbmc/diffblue&#45;cbmc/src</text>
<text text-anchor="middle" x="2664.5" y="-280" font-family="Helvetica,sans-Serif" font-size="10.00">/goto&#45;symex/symex_dereference.cpp</text>
</a>
</g>
</g>
<!-- Node1&#45;&gt;Node33 -->
<g id="edge41" class="edge">
<title>Node1&#45;&gt;Node33</title>
<path fill="none" stroke="midnightblue" d="M2084.03,-370.84C2194.64,-363.5 2390.63,-347.75 2556.5,-320 2566.48,-318.33 2576.9,-316.27 2587.17,-314.06"/>
<polygon fill="midnightblue" stroke="midnightblue" points="2083.67,-367.36 2073.92,-371.51 2084.13,-374.34 2083.67,-367.36"/>
</g>
<!-- Node34 -->
<g id="node34" class="node">
<title>Node34</title>
<g id="a_node34"><a xlink:href="symex__function__call_8cpp.html" target="_top" xlink:title="Symbolic Execution of ANSI&#45;C.">
<polygon fill="none" stroke="black" points="2782,-267.5 2782,-319.5 2941,-319.5 2941,-267.5 2782,-267.5"/>
<text text-anchor="start" x="2790" y="-307.5" font-family="Helvetica,sans-Serif" font-size="10.00">/home/runner/work/diffblue</text>
<text text-anchor="start" x="2790" y="-296.5" font-family="Helvetica,sans-Serif" font-size="10.00">&#45;cbmc/diffblue&#45;cbmc/src</text>
<text text-anchor="start" x="2790" y="-285.5" font-family="Helvetica,sans-Serif" font-size="10.00">/goto&#45;symex/symex_function</text>
<text text-anchor="middle" x="2861.5" y="-274.5" font-family="Helvetica,sans-Serif" font-size="10.00">_call.cpp</text>
</a>
</g>
</g>
<!-- Node1&#45;&gt;Node34 -->
<g id="edge42" class="edge">
<title>Node1&#45;&gt;Node34</title>
<path fill="none" stroke="midnightblue" d="M2083.83,-375.56C2228.24,-373.53 2525.4,-363.83 2772.5,-320 2775.51,-319.47 2778.56,-318.87 2781.63,-318.23"/>
<polygon fill="midnightblue" stroke="midnightblue" points="2083.65,-372.07 2073.7,-375.7 2083.74,-379.06 2083.65,-372.07"/>
</g>
<!-- Node35 -->
<g id="node35" class="node">
<title>Node35</title>
<g id="a_node35"><a xlink:href="symex__goto_8cpp.html" target="_top" xlink:title="Symbolic Execution.">
<polygon fill="none" stroke="black" points="2959,-273 2959,-314 3120,-314 3120,-273 2959,-273"/>
<text text-anchor="start" x="2967" y="-302" font-family="Helvetica,sans-Serif" font-size="10.00">/home/runner/work/diffblue</text>
<text text-anchor="start" x="2967" y="-291" font-family="Helvetica,sans-Serif" font-size="10.00">&#45;cbmc/diffblue&#45;cbmc/src</text>
<text text-anchor="middle" x="3039.5" y="-280" font-family="Helvetica,sans-Serif" font-size="10.00">/goto&#45;symex/symex_goto.cpp</text>
</a>
</g>
</g>
<!-- Node1&#45;&gt;Node35 -->
<g id="edge43" class="edge">
<title>Node1&#45;&gt;Node35</title>
<path fill="none" stroke="midnightblue" d="M2083.62,-373.34C2286.4,-366.76 2785.24,-348.17 2950.5,-320 2959.37,-318.49 2968.62,-316.42 2977.66,-314.1"/>
<polygon fill="midnightblue" stroke="midnightblue" points="2083.49,-369.85 2073.61,-373.67 2083.71,-376.84 2083.49,-369.85"/>
</g>
<!-- Node36 -->
<g id="node36" class="node">
<title>Node36</title>
<g id="a_node36"><a xlink:href="symex__main_8cpp.html" target="_top" xlink:title="Symbolic Execution.">
<polygon fill="none" stroke="black" points="3138.5,-273 3138.5,-314 3302.5,-314 3302.5,-273 3138.5,-273"/>
<text text-anchor="start" x="3146.5" y="-302" font-family="Helvetica,sans-Serif" font-size="10.00">/home/runner/work/diffblue</text>
<text text-anchor="start" x="3146.5" y="-291" font-family="Helvetica,sans-Serif" font-size="10.00">&#45;cbmc/diffblue&#45;cbmc/src</text>
<text text-anchor="middle" x="3220.5" y="-280" font-family="Helvetica,sans-Serif" font-size="10.00">/goto&#45;symex/symex_main.cpp</text>
</a>
</g>
</g>
<!-- Node1&#45;&gt;Node36 -->
<g id="edge44" class="edge">
<title>Node1&#45;&gt;Node36</title>
<path fill="none" stroke="midnightblue" d="M2084.03,-374.21C2313.5,-369.1 2928.6,-352.69 3129.5,-320 3138.73,-318.5 3148.36,-316.4 3157.76,-314.05"/>
<polygon fill="midnightblue" stroke="midnightblue" points="2083.64,-370.71 2073.72,-374.43 2083.8,-377.71 2083.64,-370.71"/>
</g>
<!-- Node37 -->
<g id="node37" class="node">
<title>Node37</title>
<g id="a_node37"><a xlink:href="symex__start__thread_8cpp.html" target="_top" xlink:title="Symbolic Execution.">
<polygon fill="none" stroke="black" points="3321,-273 3321,-314 3520,-314 3520,-273 3321,-273"/>
<text text-anchor="start" x="3329" y="-302" font-family="Helvetica,sans-Serif" font-size="10.00">/home/runner/work/diffblue</text>
<text text-anchor="start" x="3329" y="-291" font-family="Helvetica,sans-Serif" font-size="10.00">&#45;cbmc/diffblue&#45;cbmc/src</text>
<text text-anchor="middle" x="3420.5" y="-280" font-family="Helvetica,sans-Serif" font-size="10.00">/goto&#45;symex/symex_start_thread.cpp</text>
</a>
</g>
</g>
<!-- Node1&#45;&gt;Node37 -->
<g id="edge45" class="edge">
<title>Node1&#45;&gt;Node37</title>
<path fill="none" stroke="midnightblue" d="M2083.93,-374.41C2338,-369.46 3073.27,-352.65 3311.5,-320 3322.48,-318.5 3333.97,-316.4 3345.2,-314.04"/>
<polygon fill="midnightblue" stroke="midnightblue" points="2083.57,-370.92 2073.64,-374.61 2083.71,-377.92 2083.57,-370.92"/>
</g>
<!-- Node3&#45;&gt;Node2 -->
<g id="edge3" class="edge">
<title>Node3&#45;&gt;Node2</title>
<path fill="none" stroke="midnightblue" d="M719.47,-256.94C718.68,-231.78 722.12,-198.93 741.5,-178 788.67,-127.07 826.21,-159.09 893.5,-142 900.96,-140.11 908.73,-138.08 916.48,-136.03"/>
<polygon fill="midnightblue" stroke="midnightblue" points="715.99,-257.41 720.04,-267.2 722.98,-257.02 715.99,-257.41"/>
</g>
<!-- Node4 -->
<g id="node4" class="node">
<title>Node4</title>
<g id="a_node4"><a xlink:href="multi__path__symex__checker_8h.html" target="_top" xlink:title="Goto Checker using Multi&#45;Path Symbolic Execution.">
<polygon fill="none" stroke="black" points="530,-178.5 530,-230.5 679,-230.5 679,-178.5 530,-178.5"/>
<text text-anchor="start" x="538" y="-218.5" font-family="Helvetica,sans-Serif" font-size="10.00">/home/runner/work/diffblue</text>
<text text-anchor="start" x="538" y="-207.5" font-family="Helvetica,sans-Serif" font-size="10.00">&#45;cbmc/diffblue&#45;cbmc/src</text>
<text text-anchor="start" x="538" y="-196.5" font-family="Helvetica,sans-Serif" font-size="10.00">/goto&#45;checker/multi_path</text>
<text text-anchor="middle" x="604.5" y="-185.5" font-family="Helvetica,sans-Serif" font-size="10.00">_symex_checker.h</text>
</a>
</g>
</g>
<!-- Node3&#45;&gt;Node4 -->
<g id="edge4" class="edge">
<title>Node3&#45;&gt;Node4</title>
<path fill="none" stroke="midnightblue" d="M680.71,-261.22C666.96,-251.16 651.91,-240.16 638.84,-230.61"/>
<polygon fill="midnightblue" stroke="midnightblue" points="678.94,-264.26 689.08,-267.34 683.07,-258.61 678.94,-264.26"/>
</g>
<!-- Node11 -->
<g id="node11" class="node">
<title>Node11</title>
<g id="a_node11"><a xlink:href="multi__path__symex__only__checker_8cpp.html" target="_top" xlink:title="Goto Checker using Multi&#45;Path Symbolic Execution only (no SAT solving)">
<polygon fill="none" stroke="black" points="751,-178.5 751,-230.5 900,-230.5 900,-178.5 751,-178.5"/>
<text text-anchor="start" x="759" y="-218.5" font-family="Helvetica,sans-Serif" font-size="10.00">/home/runner/work/diffblue</text>
<text text-anchor="start" x="759" y="-207.5" font-family="Helvetica,sans-Serif" font-size="10.00">&#45;cbmc/diffblue&#45;cbmc/src</text>
<text text-anchor="start" x="759" y="-196.5" font-family="Helvetica,sans-Serif" font-size="10.00">/goto&#45;checker/multi_path</text>
<text text-anchor="middle" x="825.5" y="-185.5" font-family="Helvetica,sans-Serif" font-size="10.00">_symex_only_checker.cpp</text>
</a>
</g>
</g>
<!-- Node3&#45;&gt;Node11 -->
<g id="edge12" class="edge">
<title>Node3&#45;&gt;Node11</title>
<path fill="none" stroke="midnightblue" d="M760.84,-260.65C772.45,-250.75 785.08,-239.98 796.06,-230.61"/>
<polygon fill="midnightblue" stroke="midnightblue" points="758.34,-258.18 753,-267.34 762.88,-263.51 758.34,-258.18"/>
</g>
<!-- Node12 -->
<g id="node12" class="node">
<title>Node12</title>
<g id="a_node12"><a xlink:href="java__multi__path__symex__only__checker_8h.html" target="_top" xlink:title="Goto Checker using Bounded Model Checking for Java.">
<polygon fill="none" stroke="black" points="0,-89.5 0,-141.5 163,-141.5 163,-89.5 0,-89.5"/>
<text text-anchor="start" x="8" y="-129.5" font-family="Helvetica,sans-Serif" font-size="10.00">/home/runner/work/diffblue</text>
<text text-anchor="start" x="8" y="-118.5" font-family="Helvetica,sans-Serif" font-size="10.00">&#45;cbmc/diffblue&#45;cbmc/jbmc</text>
<text text-anchor="start" x="8" y="-107.5" font-family="Helvetica,sans-Serif" font-size="10.00">/src/java_bytecode/java_multi</text>
<text text-anchor="middle" x="81.5" y="-96.5" font-family="Helvetica,sans-Serif" font-size="10.00">_path_symex_only_checker.h</text>
</a>
</g>
</g>
<!-- Node3&#45;&gt;Node12 -->
<g id="edge13" class="edge">
<title>Node3&#45;&gt;Node12</title>
<path fill="none" stroke="midnightblue" d="M638.99,-269.74C530.62,-240.49 336.93,-187.99 171.5,-142 168.84,-141.26 166.14,-140.51 163.41,-139.74"/>
<polygon fill="midnightblue" stroke="midnightblue" points="638.32,-273.18 648.88,-272.41 640.14,-266.42 638.32,-273.18"/>
</g>
<!-- Node4&#45;&gt;Node2 -->
<g id="edge5" class="edge">
<title>Node4&#45;&gt;Node2</title>
<path fill="none" stroke="midnightblue" d="M689.27,-182.57C696.11,-180.98 702.91,-179.44 709.5,-178 790.9,-160.16 812.35,-160.92 893.5,-142 901.32,-140.18 909.48,-138.15 917.57,-136.06"/>
<polygon fill="midnightblue" stroke="midnightblue" points="688.2,-179.22 679.26,-184.91 689.79,-186.04 688.2,-179.22"/>
</g>
<!-- Node5 -->
<g id="node5" class="node">
<title>Node5</title>
<g id="a_node5"><a xlink:href="multi__path__symex__checker_8cpp.html" target="_top" xlink:title="Goto Checker using Bounded Model Checking.">
<polygon fill="none" stroke="black" points="348,-89.5 348,-141.5 497,-141.5 497,-89.5 348,-89.5"/>
<text text-anchor="start" x="356" y="-129.5" font-family="Helvetica,sans-Serif" font-size="10.00">/home/runner/work/diffblue</text>
<text text-anchor="start" x="356" y="-118.5" font-family="Helvetica,sans-Serif" font-size="10.00">&#45;cbmc/diffblue&#45;cbmc/src</text>
<text text-anchor="start" x="356" y="-107.5" font-family="Helvetica,sans-Serif" font-size="10.00">/goto&#45;checker/multi_path</text>
<text text-anchor="middle" x="422.5" y="-96.5" font-family="Helvetica,sans-Serif" font-size="10.00">_symex_checker.cpp</text>
</a>
</g>
</g>
<!-- Node4&#45;&gt;Node5 -->
<g id="edge6" class="edge">
<title>Node4&#45;&gt;Node5</title>
<path fill="none" stroke="midnightblue" d="M542.61,-173.92C520.64,-163.41 496.14,-151.7 475.02,-141.61"/>
<polygon fill="midnightblue" stroke="midnightblue" points="541.33,-177.18 551.86,-178.34 544.35,-170.87 541.33,-177.18"/>
</g>
<!-- Node6 -->
<g id="node6" class="node">
<title>Node6</title>
<g id="a_node6"><a xlink:href="cegis__verifier_8cpp.html" target="_top" xlink:title="Verifier for Counterexample&#45;Guided Synthesis.">
<polygon fill="none" stroke="black" points="696,-95 696,-136 885,-136 885,-95 696,-95"/>
<text text-anchor="start" x="704" y="-124" font-family="Helvetica,sans-Serif" font-size="10.00">/home/runner/work/diffblue</text>
<text text-anchor="start" x="704" y="-113" font-family="Helvetica,sans-Serif" font-size="10.00">&#45;cbmc/diffblue&#45;cbmc/src</text>
<text text-anchor="middle" x="790.5" y="-102" font-family="Helvetica,sans-Serif" font-size="10.00">/goto&#45;synthesizer/cegis_verifier.cpp</text>
</a>
</g>
</g>
<!-- Node4&#45;&gt;Node6 -->
<g id="edge7" class="edge">
<title>Node4&#45;&gt;Node6</title>
<path fill="none" stroke="midnightblue" d="M667.58,-173.99C694.32,-161.49 724.74,-147.26 748.63,-136.08"/>
<polygon fill="midnightblue" stroke="midnightblue" points="665.87,-170.93 658.3,-178.34 668.84,-177.27 665.87,-170.93"/>
</g>
<!-- Node7 -->
<g id="node7" class="node">
<title>Node7</title>
<g id="a_node7"><a xlink:href="api_8cpp.html" target="_top" xlink:title=" ">
<polygon fill="none" stroke="black" points="181,-95 181,-136 330,-136 330,-95 181,-95"/>
<text text-anchor="start" x="189" y="-124" font-family="Helvetica,sans-Serif" font-size="10.00">/home/runner/work/diffblue</text>
<text text-anchor="start" x="189" y="-113" font-family="Helvetica,sans-Serif" font-size="10.00">&#45;cbmc/diffblue&#45;cbmc/src</text>
<text text-anchor="middle" x="255.5" y="-102" font-family="Helvetica,sans-Serif" font-size="10.00">/libcprover&#45;cpp/api.cpp</text>
</a>
</g>
</g>
<!-- Node4&#45;&gt;Node7 -->
<g id="edge8" class="edge">
<title>Node4&#45;&gt;Node7</title>
<path fill="none" stroke="midnightblue" d="M519.97,-185.56C467.5,-174.03 398.81,-158.21 338.5,-142 331.66,-140.16 324.53,-138.14 317.45,-136.06"/>
<polygon fill="midnightblue" stroke="midnightblue" points="519.39,-189.02 529.91,-187.74 520.89,-182.18 519.39,-189.02"/>
</g>
<!-- Node8 -->
<g id="node8" class="node">
<title>Node8</title>
<g id="a_node8"><a xlink:href="java__multi__path__symex__checker_8h.html" target="_top" xlink:title="Goto Checker using Bounded Model Checking for Java.">
<polygon fill="none" stroke="black" points="515,-89.5 515,-141.5 678,-141.5 678,-89.5 515,-89.5"/>
<text text-anchor="start" x="523" y="-129.5" font-family="Helvetica,sans-Serif" font-size="10.00">/home/runner/work/diffblue</text>
<text text-anchor="start" x="523" y="-118.5" font-family="Helvetica,sans-Serif" font-size="10.00">&#45;cbmc/diffblue&#45;cbmc/jbmc</text>
<text text-anchor="start" x="523" y="-107.5" font-family="Helvetica,sans-Serif" font-size="10.00">/src/java_bytecode/java_multi</text>
<text text-anchor="middle" x="596.5" y="-96.5" font-family="Helvetica,sans-Serif" font-size="10.00">_path_symex_checker.h</text>
</a>
</g>
</g>
<!-- Node4&#45;&gt;Node8 -->
<g id="edge9" class="edge">
<title>Node4&#45;&gt;Node8</title>
<path fill="none" stroke="midnightblue" d="M601.25,-168.19C600.43,-159.28 599.57,-149.9 598.81,-141.61"/>
<polygon fill="midnightblue" stroke="midnightblue" points="597.79,-168.7 602.19,-178.34 604.76,-168.06 597.79,-168.7"/>
</g>
<!-- Node9 -->
<g id="node9" class="node">
<title>Node9</title>
<g id="a_node9"><a xlink:href="java__multi__path__symex__checker_8cpp.html" target="_top" xlink:title=" ">
<polygon fill="none" stroke="black" points="515,-0.5 515,-52.5 678,-52.5 678,-0.5 515,-0.5"/>
<text text-anchor="start" x="523" y="-40.5" font-family="Helvetica,sans-Serif" font-size="10.00">/home/runner/work/diffblue</text>
<text text-anchor="start" x="523" y="-29.5" font-family="Helvetica,sans-Serif" font-size="10.00">&#45;cbmc/diffblue&#45;cbmc/jbmc</text>
<text text-anchor="start" x="523" y="-18.5" font-family="Helvetica,sans-Serif" font-size="10.00">/src/java_bytecode/java_multi</text>
<text text-anchor="middle" x="596.5" y="-7.5" font-family="Helvetica,sans-Serif" font-size="10.00">_path_symex_checker.cpp</text>
</a>
</g>
</g>
<!-- Node8&#45;&gt;Node9 -->
<g id="edge10" class="edge">
<title>Node8&#45;&gt;Node9</title>
<path fill="none" stroke="midnightblue" d="M596.5,-79.19C596.5,-70.28 596.5,-60.9 596.5,-52.61"/>
<polygon fill="midnightblue" stroke="midnightblue" points="593,-79.34 596.5,-89.34 600,-79.34 593,-79.34"/>
</g>
<!-- Node8&#45;&gt;Node10 -->
<g id="edge11" class="edge">
<title>Node8&#45;&gt;Node10</title>
<path fill="none" stroke="midnightblue" d="M688.49,-88.7C830.54,-60.39 986.12,-43.62 1082.18,-34.9"/>
<polygon fill="midnightblue" stroke="midnightblue" points="687.4,-85.35 678.29,-90.76 688.78,-92.22 687.4,-85.35"/>
</g>
<!-- Node12&#45;&gt;Node10 -->
<g id="edge14" class="edge">
<title>Node12&#45;&gt;Node10</title>
<path fill="none" stroke="midnightblue" d="M173.44,-89.18C270.37,-78.35 854.14,-45.31 1082.31,-32.56"/>
<polygon fill="midnightblue" stroke="midnightblue" points="172.7,-85.75 163.25,-90.53 173.62,-92.69 172.7,-85.75"/>
</g>
<!-- Node13&#45;&gt;Node2 -->
<g id="edge16" class="edge">
<title>Node13&#45;&gt;Node2</title>
<path fill="none" stroke="midnightblue" d="M990.46,-261.72C978.85,-253.46 968.38,-243.31 961.5,-231 944.59,-200.75 961.61,-160.18 974.94,-136.34"/>
<polygon fill="midnightblue" stroke="midnightblue" points="988.81,-264.82 999.09,-267.4 992.66,-258.98 988.81,-264.82"/>
</g>
<!-- Node14 -->
<g id="node14" class="node">
<title>Node14</title>
<g id="a_node14"><a xlink:href="single__loop__incremental__symex__checker_8cpp.html" target="_top" xlink:title="Goto Checker using multi&#45;path symbolic execution with incremental unwinding of a specified loop.">
<polygon fill="none" stroke="black" points="971,-178.5 971,-230.5 1152,-230.5 1152,-178.5 971,-178.5"/>
<text text-anchor="start" x="979" y="-218.5" font-family="Helvetica,sans-Serif" font-size="10.00">/home/runner/work/diffblue</text>
<text text-anchor="start" x="979" y="-207.5" font-family="Helvetica,sans-Serif" font-size="10.00">&#45;cbmc/diffblue&#45;cbmc/src</text>
<text text-anchor="start" x="979" y="-196.5" font-family="Helvetica,sans-Serif" font-size="10.00">/goto&#45;checker/single_loop</text>
<text text-anchor="middle" x="1061.5" y="-185.5" font-family="Helvetica,sans-Serif" font-size="10.00">_incremental_symex_checker.cpp</text>
</a>
</g>
</g>
<!-- Node13&#45;&gt;Node14 -->
<g id="edge17" class="edge">
<title>Node13&#45;&gt;Node14</title>
<path fill="none" stroke="midnightblue" d="M1061.5,-257.19C1061.5,-248.28 1061.5,-238.9 1061.5,-230.61"/>
<polygon fill="midnightblue" stroke="midnightblue" points="1058,-257.34 1061.5,-267.34 1065,-257.34 1058,-257.34"/>
</g>
<!-- Node16&#45;&gt;Node2 -->
<g id="edge20" class="edge">
<title>Node16&#45;&gt;Node2</title>
<path fill="none" stroke="midnightblue" d="M1282.57,-262.96C1265.09,-254.18 1247.31,-243.51 1232.5,-231 1210.36,-212.3 1218.11,-194.81 1194.5,-178 1188.62,-173.81 1114.91,-152.41 1057.1,-136.02"/>
<polygon fill="midnightblue" stroke="midnightblue" points="1281.14,-266.15 1291.66,-267.37 1284.19,-259.86 1281.14,-266.15"/>
</g>
<!-- Node16&#45;&gt;Node15 -->
<g id="edge27" class="edge">
<title>Node16&#45;&gt;Node15</title>
<path fill="none" stroke="midnightblue" d="M1415.83,-262.64C1435.85,-252.2 1458.1,-240.61 1477.31,-230.61"/>
<polygon fill="midnightblue" stroke="midnightblue" points="1414.05,-259.61 1406.8,-267.34 1417.29,-265.82 1414.05,-259.61"/>
</g>
<!-- Node17 -->
<g id="node17" class="node">
<title>Node17</title>
<g id="a_node17"><a xlink:href="single__path__symex__checker_8h.html" target="_top" xlink:title="Goto Checker using Single Path Symbolic Execution.">
<polygon fill="none" stroke="black" points="1284,-178.5 1284,-230.5 1433,-230.5 1433,-178.5 1284,-178.5"/>
<text text-anchor="start" x="1292" y="-218.5" font-family="Helvetica,sans-Serif" font-size="10.00">/home/runner/work/diffblue</text>
<text text-anchor="start" x="1292" y="-207.5" font-family="Helvetica,sans-Serif" font-size="10.00">&#45;cbmc/diffblue&#45;cbmc/src</text>
<text text-anchor="start" x="1292" y="-196.5" font-family="Helvetica,sans-Serif" font-size="10.00">/goto&#45;checker/single_path</text>
<text text-anchor="middle" x="1358.5" y="-185.5" font-family="Helvetica,sans-Serif" font-size="10.00">_symex_checker.h</text>
</a>
</g>
</g>
<!-- Node16&#45;&gt;Node17 -->
<g id="edge21" class="edge">
<title>Node16&#45;&gt;Node17</title>
<path fill="none" stroke="midnightblue" d="M1358.5,-257.19C1358.5,-248.28 1358.5,-238.9 1358.5,-230.61"/>
<polygon fill="midnightblue" stroke="midnightblue" points="1355,-257.34 1358.5,-267.34 1362,-257.34 1355,-257.34"/>
</g>
<!-- Node21 -->
<g id="node21" class="node">
<title>Node21</title>
<g id="a_node21"><a xlink:href="java__single__path__symex__only__checker_8h.html" target="_top" xlink:title="Goto Checker using Single Path Symbolic Execution for Java.">
<polygon fill="none" stroke="black" points="1090,-89.5 1090,-141.5 1257,-141.5 1257,-89.5 1090,-89.5"/>
<text text-anchor="start" x="1098" y="-129.5" font-family="Helvetica,sans-Serif" font-size="10.00">/home/runner/work/diffblue</text>
<text text-anchor="start" x="1098" y="-118.5" font-family="Helvetica,sans-Serif" font-size="10.00">&#45;cbmc/diffblue&#45;cbmc/jbmc</text>
<text text-anchor="start" x="1098" y="-107.5" font-family="Helvetica,sans-Serif" font-size="10.00">/src/java_bytecode/java_single</text>
<text text-anchor="middle" x="1173.5" y="-96.5" font-family="Helvetica,sans-Serif" font-size="10.00">_path_symex_only_checker.h</text>
</a>
</g>
</g>
<!-- Node16&#45;&gt;Node21 -->
<g id="edge28" class="edge">
<title>Node16&#45;&gt;Node21</title>
<path fill="none" stroke="midnightblue" d="M1311.44,-261.46C1298.89,-252.29 1285.72,-241.8 1274.5,-231 1252.85,-210.16 1252.26,-200.65 1232.5,-178 1221.8,-165.74 1209.4,-152.66 1198.74,-141.73"/>
<polygon fill="midnightblue" stroke="midnightblue" points="1309.41,-264.31 1319.57,-267.29 1313.48,-258.62 1309.41,-264.31"/>
</g>
<!-- Node17&#45;&gt;Node2 -->
<g id="edge22" class="edge">
<title>Node17&#45;&gt;Node2</title>
<path fill="none" stroke="midnightblue" d="M1273.84,-185.92C1218.63,-174.17 1145.09,-157.99 1080.5,-142 1072.94,-140.13 1065.06,-138.1 1057.23,-136.02"/>
<polygon fill="midnightblue" stroke="midnightblue" points="1273.42,-189.41 1283.93,-188.06 1274.87,-182.56 1273.42,-189.41"/>
</g>
<!-- Node18 -->
<g id="node18" class="node">
<title>Node18</title>
<g id="a_node18"><a xlink:href="single__path__symex__checker_8cpp.html" target="_top" xlink:title="Goto Checker using Single Path Symbolic Execution.">
<polygon fill="none" stroke="black" points="1275,-89.5 1275,-141.5 1424,-141.5 1424,-89.5 1275,-89.5"/>
<text text-anchor="start" x="1283" y="-129.5" font-family="Helvetica,sans-Serif" font-size="10.00">/home/runner/work/diffblue</text>
<text text-anchor="start" x="1283" y="-118.5" font-family="Helvetica,sans-Serif" font-size="10.00">&#45;cbmc/diffblue&#45;cbmc/src</text>
<text text-anchor="start" x="1283" y="-107.5" font-family="Helvetica,sans-Serif" font-size="10.00">/goto&#45;checker/single_path</text>
<text text-anchor="middle" x="1349.5" y="-96.5" font-family="Helvetica,sans-Serif" font-size="10.00">_symex_checker.cpp</text>
</a>
</g>
</g>
<!-- Node17&#45;&gt;Node18 -->
<g id="edge23" class="edge">
<title>Node17&#45;&gt;Node18</title>
<path fill="none" stroke="midnightblue" d="M1354.85,-168.19C1353.93,-159.28 1352.96,-149.9 1352.1,-141.61"/>
<polygon fill="midnightblue" stroke="midnightblue" points="1351.39,-168.75 1355.9,-178.34 1358.35,-168.03 1351.39,-168.75"/>
</g>
<!-- Node19 -->
<g id="node19" class="node">
<title>Node19</title>
<g id="a_node19"><a xlink:href="java__single__path__symex__checker_8h.html" target="_top" xlink:title="Goto Checker using Single Path Symbolic Execution for Java.">
<polygon fill="none" stroke="black" points="1442,-89.5 1442,-141.5 1609,-141.5 1609,-89.5 1442,-89.5"/>
<text text-anchor="start" x="1450" y="-129.5" font-family="Helvetica,sans-Serif" font-size="10.00">/home/runner/work/diffblue</text>
<text text-anchor="start" x="1450" y="-118.5" font-family="Helvetica,sans-Serif" font-size="10.00">&#45;cbmc/diffblue&#45;cbmc/jbmc</text>
<text text-anchor="start" x="1450" y="-107.5" font-family="Helvetica,sans-Serif" font-size="10.00">/src/java_bytecode/java_single</text>
<text text-anchor="middle" x="1525.5" y="-96.5" font-family="Helvetica,sans-Serif" font-size="10.00">_path_symex_checker.h</text>
</a>
</g>
</g>
<!-- Node17&#45;&gt;Node19 -->
<g id="edge24" class="edge">
<title>Node17&#45;&gt;Node19</title>
<path fill="none" stroke="midnightblue" d="M1415.83,-173.64C1435.85,-163.2 1458.1,-151.61 1477.31,-141.61"/>
<polygon fill="midnightblue" stroke="midnightblue" points="1414.05,-170.61 1406.8,-178.34 1417.29,-176.82 1414.05,-170.61"/>
</g>
<!-- Node19&#45;&gt;Node10 -->
<g id="edge26" class="edge">
<title>Node19&#45;&gt;Node10</title>
<path fill="none" stroke="midnightblue" d="M1432.08,-88.92C1368.52,-72.76 1307.21,-58.21 1259.13,-47.05"/>
<polygon fill="midnightblue" stroke="midnightblue" points="1431.33,-92.34 1441.88,-91.43 1433.06,-85.56 1431.33,-92.34"/>
</g>
<!-- Node20 -->
<g id="node20" class="node">
<title>Node20</title>
<g id="a_node20"><a xlink:href="java__single__path__symex__checker_8cpp.html" target="_top" xlink:title=" ">
<polygon fill="none" stroke="black" points="1442,-0.5 1442,-52.5 1609,-52.5 1609,-0.5 1442,-0.5"/>
<text text-anchor="start" x="1450" y="-40.5" font-family="Helvetica,sans-Serif" font-size="10.00">/home/runner/work/diffblue</text>
<text text-anchor="start" x="1450" y="-29.5" font-family="Helvetica,sans-Serif" font-size="10.00">&#45;cbmc/diffblue&#45;cbmc/jbmc</text>
<text text-anchor="start" x="1450" y="-18.5" font-family="Helvetica,sans-Serif" font-size="10.00">/src/java_bytecode/java_single</text>
<text text-anchor="middle" x="1525.5" y="-7.5" font-family="Helvetica,sans-Serif" font-size="10.00">_path_symex_checker.cpp</text>
</a>
</g>
</g>
<!-- Node19&#45;&gt;Node20 -->
<g id="edge25" class="edge">
<title>Node19&#45;&gt;Node20</title>
<path fill="none" stroke="midnightblue" d="M1525.5,-79.19C1525.5,-70.28 1525.5,-60.9 1525.5,-52.61"/>
<polygon fill="midnightblue" stroke="midnightblue" points="1522,-79.34 1525.5,-89.34 1529,-79.34 1522,-79.34"/>
</g>
<!-- Node21&#45;&gt;Node10 -->
<g id="edge29" class="edge">
<title>Node21&#45;&gt;Node10</title>
<path fill="none" stroke="midnightblue" d="M1173.5,-79.16C1173.5,-68.21 1173.5,-56.55 1173.5,-47.08"/>
<polygon fill="midnightblue" stroke="midnightblue" points="1170,-79.34 1173.5,-89.34 1177,-79.34 1170,-79.34"/>
</g>
<!-- Node23 -->
<g id="node23" class="node">
<title>Node23</title>
<g id="a_node23"><a xlink:href="accelerate_8cpp.html" target="_top" xlink:title="Loop Acceleration.">
<polygon fill="none" stroke="black" points="1655.5,-178.5 1655.5,-230.5 1807.5,-230.5 1807.5,-178.5 1655.5,-178.5"/>
<text text-anchor="start" x="1663.5" y="-218.5" font-family="Helvetica,sans-Serif" font-size="10.00">/home/runner/work/diffblue</text>
<text text-anchor="start" x="1663.5" y="-207.5" font-family="Helvetica,sans-Serif" font-size="10.00">&#45;cbmc/diffblue&#45;cbmc/src</text>
<text text-anchor="start" x="1663.5" y="-196.5" font-family="Helvetica,sans-Serif" font-size="10.00">/goto&#45;instrument/accelerate</text>
<text text-anchor="middle" x="1731.5" y="-185.5" font-family="Helvetica,sans-Serif" font-size="10.00">/accelerate.cpp</text>
</a>
</g>
</g>
<!-- Node22&#45;&gt;Node23 -->
<g id="edge31" class="edge">
<title>Node22&#45;&gt;Node23</title>
<path fill="none" stroke="midnightblue" d="M1731.5,-257.19C1731.5,-248.28 1731.5,-238.9 1731.5,-230.61"/>
<polygon fill="midnightblue" stroke="midnightblue" points="1728,-257.34 1731.5,-267.34 1735,-257.34 1728,-257.34"/>
</g>
<!-- Node24 -->
<g id="node24" class="node">
<title>Node24</title>
<g id="a_node24"><a xlink:href="acceleration__utils_8cpp.html" target="_top" xlink:title="Loop Acceleration.">
<polygon fill="none" stroke="black" points="1825.5,-178.5 1825.5,-230.5 1977.5,-230.5 1977.5,-178.5 1825.5,-178.5"/>
<text text-anchor="start" x="1833.5" y="-218.5" font-family="Helvetica,sans-Serif" font-size="10.00">/home/runner/work/diffblue</text>
<text text-anchor="start" x="1833.5" y="-207.5" font-family="Helvetica,sans-Serif" font-size="10.00">&#45;cbmc/diffblue&#45;cbmc/src</text>
<text text-anchor="start" x="1833.5" y="-196.5" font-family="Helvetica,sans-Serif" font-size="10.00">/goto&#45;instrument/accelerate</text>
<text text-anchor="middle" x="1901.5" y="-185.5" font-family="Helvetica,sans-Serif" font-size="10.00">/acceleration_utils.cpp</text>
</a>
</g>
</g>
<!-- Node22&#45;&gt;Node24 -->
<g id="edge32" class="edge">
<title>Node22&#45;&gt;Node24</title>
<path fill="none" stroke="midnightblue" d="M1789.58,-262.78C1810.03,-252.31 1832.8,-240.66 1852.44,-230.61"/>
<polygon fill="midnightblue" stroke="midnightblue" points="1787.98,-259.66 1780.67,-267.34 1791.17,-265.9 1787.98,-259.66"/>
</g>
<!-- Node25 -->
<g id="node25" class="node">
<title>Node25</title>
<g id="a_node25"><a xlink:href="disjunctive__polynomial__acceleration_8cpp.html" target="_top" xlink:title="Loop Acceleration.">
<polygon fill="none" stroke="black" points="1995.5,-178.5 1995.5,-230.5 2213.5,-230.5 2213.5,-178.5 1995.5,-178.5"/>
<text text-anchor="start" x="2003.5" y="-218.5" font-family="Helvetica,sans-Serif" font-size="10.00">/home/runner/work/diffblue</text>
<text text-anchor="start" x="2003.5" y="-207.5" font-family="Helvetica,sans-Serif" font-size="10.00">&#45;cbmc/diffblue&#45;cbmc/src</text>
<text text-anchor="start" x="2003.5" y="-196.5" font-family="Helvetica,sans-Serif" font-size="10.00">/goto&#45;instrument/accelerate</text>
<text text-anchor="middle" x="2104.5" y="-185.5" font-family="Helvetica,sans-Serif" font-size="10.00">/disjunctive_polynomial_acceleration.cpp</text>
</a>
</g>
</g>
<!-- Node22&#45;&gt;Node25 -->
<g id="edge33" class="edge">
<title>Node22&#45;&gt;Node25</title>
<path fill="none" stroke="midnightblue" d="M1817.87,-266.99C1893.62,-247.97 1914.49,-246.45 1986.5,-231 1989.37,-230.38 1992.28,-229.76 1995.21,-229.13"/>
<polygon fill="midnightblue" stroke="midnightblue" points="1816.68,-263.68 1807.85,-269.52 1818.4,-270.46 1816.68,-263.68"/>
</g>
<!-- Node26 -->
<g id="node26" class="node">
<title>Node26</title>
<g id="a_node26"><a xlink:href="polynomial__accelerator_8cpp.html" target="_top" xlink:title="Loop Acceleration.">
<polygon fill="none" stroke="black" points="2231.5,-178.5 2231.5,-230.5 2385.5,-230.5 2385.5,-178.5 2231.5,-178.5"/>
<text text-anchor="start" x="2239.5" y="-218.5" font-family="Helvetica,sans-Serif" font-size="10.00">/home/runner/work/diffblue</text>
<text text-anchor="start" x="2239.5" y="-207.5" font-family="Helvetica,sans-Serif" font-size="10.00">&#45;cbmc/diffblue&#45;cbmc/src</text>
<text text-anchor="start" x="2239.5" y="-196.5" font-family="Helvetica,sans-Serif" font-size="10.00">/goto&#45;instrument/accelerate</text>
<text text-anchor="middle" x="2308.5" y="-185.5" font-family="Helvetica,sans-Serif" font-size="10.00">/polynomial_accelerator.cpp</text>
</a>
</g>
</g>
<!-- Node22&#45;&gt;Node26 -->
<g id="edge34" class="edge">
<title>Node22&#45;&gt;Node26</title>
<path fill="none" stroke="midnightblue" d="M1817.75,-267.16C1996.86,-234.27 2048.2,-264.24 2222.5,-231 2225.41,-230.45 2228.36,-229.83 2231.32,-229.17"/>
<polygon fill="midnightblue" stroke="midnightblue" points="1816.92,-263.75 1807.74,-269.04 1818.21,-270.63 1816.92,-263.75"/>
</g>
<!-- Node27 -->
<g id="node27" class="node">
<title>Node27</title>
<g id="a_node27"><a xlink:href="sat__path__enumerator_8cpp.html" target="_top" xlink:title="Loop Acceleration.">
<polygon fill="none" stroke="black" points="2403.5,-178.5 2403.5,-230.5 2555.5,-230.5 2555.5,-178.5 2403.5,-178.5"/>
<text text-anchor="start" x="2411.5" y="-218.5" font-family="Helvetica,sans-Serif" font-size="10.00">/home/runner/work/diffblue</text>
<text text-anchor="start" x="2411.5" y="-207.5" font-family="Helvetica,sans-Serif" font-size="10.00">&#45;cbmc/diffblue&#45;cbmc/src</text>
<text text-anchor="start" x="2411.5" y="-196.5" font-family="Helvetica,sans-Serif" font-size="10.00">/goto&#45;instrument/accelerate</text>
<text text-anchor="middle" x="2479.5" y="-185.5" font-family="Helvetica,sans-Serif" font-size="10.00">/sat_path_enumerator.cpp</text>
</a>
</g>
</g>
<!-- Node22&#45;&gt;Node27 -->
<g id="edge35" class="edge">
<title>Node22&#45;&gt;Node27</title>
<path fill="none" stroke="midnightblue" d="M1817.63,-267.2C2072.34,-223.55 2144.78,-275.64 2394.5,-231 2397.38,-230.48 2400.3,-229.91 2403.24,-229.28"/>
<polygon fill="midnightblue" stroke="midnightblue" points="1816.97,-263.76 1807.72,-268.93 1818.17,-270.66 1816.97,-263.76"/>
</g>
<!-- Node28 -->
<g id="node28" class="node">
<title>Node28</title>
<g id="a_node28"><a xlink:href="scratch__program_8cpp.html" target="_top" xlink:title="Loop Acceleration.">
<polygon fill="none" stroke="black" points="2573.5,-178.5 2573.5,-230.5 2725.5,-230.5 2725.5,-178.5 2573.5,-178.5"/>
<text text-anchor="start" x="2581.5" y="-218.5" font-family="Helvetica,sans-Serif" font-size="10.00">/home/runner/work/diffblue</text>
<text text-anchor="start" x="2581.5" y="-207.5" font-family="Helvetica,sans-Serif" font-size="10.00">&#45;cbmc/diffblue&#45;cbmc/src</text>
<text text-anchor="start" x="2581.5" y="-196.5" font-family="Helvetica,sans-Serif" font-size="10.00">/goto&#45;instrument/accelerate</text>
<text text-anchor="middle" x="2649.5" y="-185.5" font-family="Helvetica,sans-Serif" font-size="10.00">/scratch_program.cpp</text>
</a>
</g>
</g>
<!-- Node22&#45;&gt;Node28 -->
<g id="edge36" class="edge">
<title>Node22&#45;&gt;Node28</title>
<path fill="none" stroke="midnightblue" d="M1818.01,-267.14C2147.1,-212.9 2240.25,-286.59 2564.5,-231 2567.39,-230.51 2570.31,-229.94 2573.25,-229.33"/>
<polygon fill="midnightblue" stroke="midnightblue" points="1816.99,-263.77 1807.71,-268.87 1818.15,-270.67 1816.99,-263.77"/>
</g>
</g>
</svg>
