<?xml version="1.0" encoding="UTF-8" standalone="no"?>
<!DOCTYPE svg PUBLIC "-//W3C//DTD SVG 1.1//EN"
 "http://www.w3.org/Graphics/SVG/1.1/DTD/svg11.dtd">
<!-- Generated by graphviz version 2.43.0 (0)
 -->
<!-- Title: /home/runner/work/diffblue&#45;cbmc/diffblue&#45;cbmc/src/goto&#45;instrument/accelerate/path.h Pages: 1 -->
<svg width="1648pt" height="406pt"
 viewBox="0.00 0.00 1648.31 406.00" xmlns="http://www.w3.org/2000/svg" xmlns:xlink="http://www.w3.org/1999/xlink">
<g id="graph0" class="graph" transform="scale(1 1) rotate(0) translate(4 402)">
<title>/home/runner/work/diffblue&#45;cbmc/diffblue&#45;cbmc/src/goto&#45;instrument/accelerate/path.h</title>
<!-- Node1 -->
<g id="node1" class="node">
<title>Node1</title>
<g id="a_node1"><a xlink:title="Loop Acceleration.">
<polygon fill="#bfbfbf" stroke="black" points="665.31,-356.5 665.31,-397.5 851.31,-397.5 851.31,-356.5 665.31,-356.5"/>
<text text-anchor="start" x="673.31" y="-385.5" font-family="Helvetica,sans-Serif" font-size="10.00">/home/runner/work/diffblue</text>
<text text-anchor="start" x="673.31" y="-374.5" font-family="Helvetica,sans-Serif" font-size="10.00">&#45;cbmc/diffblue&#45;cbmc/src</text>
<text text-anchor="middle" x="758.31" y="-363.5" font-family="Helvetica,sans-Serif" font-size="10.00">/goto&#45;instrument/accelerate/path.h</text>
</a>
</g>
</g>
<!-- Node2 -->
<g id="node2" class="node">
<title>Node2</title>
<g id="a_node2"><a xlink:href="accelerate_8cpp.html" target="_top" xlink:title="Loop Acceleration.">
<polygon fill="none" stroke="black" points="530.31,-0.5 530.31,-52.5 682.31,-52.5 682.31,-0.5 530.31,-0.5"/>
<text text-anchor="start" x="538.31" y="-40.5" font-family="Helvetica,sans-Serif" font-size="10.00">/home/runner/work/diffblue</text>
<text text-anchor="start" x="538.31" y="-29.5" font-family="Helvetica,sans-Serif" font-size="10.00">&#45;cbmc/diffblue&#45;cbmc/src</text>
<text text-anchor="start" x="538.31" y="-18.5" font-family="Helvetica,sans-Serif" font-size="10.00">/goto&#45;instrument/accelerate</text>
<text text-anchor="middle" x="606.31" y="-7.5" font-family="Helvetica,sans-Serif" font-size="10.00">/accelerate.cpp</text>
</a>
</g>
</g>
<!-- Node1&#45;&gt;Node2 -->
<g id="edge1" class="edge">
<title>Node1&#45;&gt;Node2</title>
<path fill="none" stroke="midnightblue" d="M654.76,-372.55C515.37,-366.74 275.47,-352.3 194.31,-320 88.3,-277.8 46.63,-249.82 9.31,-142 1.61,-119.74 -6.47,-106.49 9.31,-89 43.6,-51 376.99,-35.1 530.11,-29.76"/>
<polygon fill="midnightblue" stroke="midnightblue" points="654.9,-376.06 665.03,-372.97 655.18,-369.06 654.9,-376.06"/>
</g>
<!-- Node3 -->
<g id="node3" class="node">
<title>Node3</title>
<g id="a_node3"><a xlink:href="accelerate_8h.html" target="_top" xlink:title="Loop Acceleration.">
<polygon fill="none" stroke="black" points="258.31,-178.5 258.31,-230.5 410.31,-230.5 410.31,-178.5 258.31,-178.5"/>
<text text-anchor="start" x="266.31" y="-218.5" font-family="Helvetica,sans-Serif" font-size="10.00">/home/runner/work/diffblue</text>
<text text-anchor="start" x="266.31" y="-207.5" font-family="Helvetica,sans-Serif" font-size="10.00">&#45;cbmc/diffblue&#45;cbmc/src</text>
<text text-anchor="start" x="266.31" y="-196.5" font-family="Helvetica,sans-Serif" font-size="10.00">/goto&#45;instrument/accelerate</text>
<text text-anchor="middle" x="334.31" y="-185.5" font-family="Helvetica,sans-Serif" font-size="10.00">/accelerate.h</text>
</a>
</g>
</g>
<!-- Node1&#45;&gt;Node3 -->
<g id="edge2" class="edge">
<title>Node1&#45;&gt;Node3</title>
<path fill="none" stroke="midnightblue" d="M655.11,-371.14C597.79,-364.81 526.87,-350.78 470.31,-320 441.6,-304.38 443.99,-288.44 419.31,-267 404.6,-254.22 387.34,-241.37 372.23,-230.76"/>
<polygon fill="midnightblue" stroke="midnightblue" points="654.97,-374.64 665.28,-372.19 655.69,-367.68 654.97,-374.64"/>
</g>
<!-- Node5 -->
<g id="node5" class="node">
<title>Node5</title>
<g id="a_node5"><a xlink:href="acceleration__utils_8h.html" target="_top" xlink:title="Loop Acceleration.">
<polygon fill="none" stroke="black" points="734.31,-267.5 734.31,-319.5 886.31,-319.5 886.31,-267.5 734.31,-267.5"/>
<text text-anchor="start" x="742.31" y="-307.5" font-family="Helvetica,sans-Serif" font-size="10.00">/home/runner/work/diffblue</text>
<text text-anchor="start" x="742.31" y="-296.5" font-family="Helvetica,sans-Serif" font-size="10.00">&#45;cbmc/diffblue&#45;cbmc/src</text>
<text text-anchor="start" x="742.31" y="-285.5" font-family="Helvetica,sans-Serif" font-size="10.00">/goto&#45;instrument/accelerate</text>
<text text-anchor="middle" x="810.31" y="-274.5" font-family="Helvetica,sans-Serif" font-size="10.00">/acceleration_utils.h</text>
</a>
</g>
</g>
<!-- Node1&#45;&gt;Node5 -->
<g id="edge5" class="edge">
<title>Node1&#45;&gt;Node5</title>
<path fill="none" stroke="midnightblue" d="M776.28,-347.83C782.14,-338.66 788.59,-328.54 794.29,-319.61"/>
<polygon fill="midnightblue" stroke="midnightblue" points="773.33,-345.96 770.9,-356.27 779.23,-349.72 773.33,-345.96"/>
</g>
<!-- Node7 -->
<g id="node7" class="node">
<title>Node7</title>
<g id="a_node7"><a xlink:href="disjunctive__polynomial__acceleration_8h.html" target="_top" xlink:title="Loop Acceleration.">
<polygon fill="none" stroke="black" points="636.81,-178.5 636.81,-230.5 843.81,-230.5 843.81,-178.5 636.81,-178.5"/>
<text text-anchor="start" x="644.81" y="-218.5" font-family="Helvetica,sans-Serif" font-size="10.00">/home/runner/work/diffblue</text>
<text text-anchor="start" x="644.81" y="-207.5" font-family="Helvetica,sans-Serif" font-size="10.00">&#45;cbmc/diffblue&#45;cbmc/src</text>
<text text-anchor="start" x="644.81" y="-196.5" font-family="Helvetica,sans-Serif" font-size="10.00">/goto&#45;instrument/accelerate</text>
<text text-anchor="middle" x="740.31" y="-185.5" font-family="Helvetica,sans-Serif" font-size="10.00">/disjunctive_polynomial_acceleration.h</text>
</a>
</g>
</g>
<!-- Node1&#45;&gt;Node7 -->
<g id="edge26" class="edge">
<title>Node1&#45;&gt;Node7</title>
<path fill="none" stroke="midnightblue" d="M737.89,-347.99C732.75,-339.42 727.96,-329.7 725.31,-320 717.14,-290.02 724.36,-254.37 731.33,-230.9"/>
<polygon fill="midnightblue" stroke="midnightblue" points="734.95,-349.89 743.28,-356.44 740.85,-346.13 734.95,-349.89"/>
</g>
<!-- Node9 -->
<g id="node9" class="node">
<title>Node9</title>
<g id="a_node9"><a xlink:href="polynomial__accelerator_8h.html" target="_top" xlink:title="Loop Acceleration.">
<polygon fill="none" stroke="black" points="862.31,-178.5 862.31,-230.5 1014.31,-230.5 1014.31,-178.5 862.31,-178.5"/>
<text text-anchor="start" x="870.31" y="-218.5" font-family="Helvetica,sans-Serif" font-size="10.00">/home/runner/work/diffblue</text>
<text text-anchor="start" x="870.31" y="-207.5" font-family="Helvetica,sans-Serif" font-size="10.00">&#45;cbmc/diffblue&#45;cbmc/src</text>
<text text-anchor="start" x="870.31" y="-196.5" font-family="Helvetica,sans-Serif" font-size="10.00">/goto&#45;instrument/accelerate</text>
<text text-anchor="middle" x="938.31" y="-185.5" font-family="Helvetica,sans-Serif" font-size="10.00">/polynomial_accelerator.h</text>
</a>
</g>
</g>
<!-- Node1&#45;&gt;Node9 -->
<g id="edge32" class="edge">
<title>Node1&#45;&gt;Node9</title>
<path fill="none" stroke="midnightblue" d="M846.53,-352.45C864.39,-344.45 881.82,-333.89 895.31,-320 919.13,-295.48 930,-256.51 934.78,-230.97"/>
<polygon fill="midnightblue" stroke="midnightblue" points="845.01,-349.29 837.16,-356.4 847.74,-355.74 845.01,-349.29"/>
</g>
<!-- Node13 -->
<g id="node13" class="node">
<title>Node13</title>
<g id="a_node13"><a xlink:href="sat__path__enumerator_8h.html" target="_top" xlink:title="Loop Acceleration.">
<polygon fill="none" stroke="black" points="1202.31,-178.5 1202.31,-230.5 1354.31,-230.5 1354.31,-178.5 1202.31,-178.5"/>
<text text-anchor="start" x="1210.31" y="-218.5" font-family="Helvetica,sans-Serif" font-size="10.00">/home/runner/work/diffblue</text>
<text text-anchor="start" x="1210.31" y="-207.5" font-family="Helvetica,sans-Serif" font-size="10.00">&#45;cbmc/diffblue&#45;cbmc/src</text>
<text text-anchor="start" x="1210.31" y="-196.5" font-family="Helvetica,sans-Serif" font-size="10.00">/goto&#45;instrument/accelerate</text>
<text text-anchor="middle" x="1278.31" y="-185.5" font-family="Helvetica,sans-Serif" font-size="10.00">/sat_path_enumerator.h</text>
</a>
</g>
</g>
<!-- Node1&#45;&gt;Node13 -->
<g id="edge33" class="edge">
<title>Node1&#45;&gt;Node13</title>
<path fill="none" stroke="midnightblue" d="M857.62,-354.14C897.06,-344.72 942.63,-332.9 983.31,-320 1067.1,-293.43 1161.39,-255.35 1220.32,-230.52"/>
<polygon fill="midnightblue" stroke="midnightblue" points="856.66,-350.77 847.73,-356.48 858.27,-357.58 856.66,-350.77"/>
</g>
<!-- Node15 -->
<g id="node15" class="node">
<title>Node15</title>
<g id="a_node15"><a xlink:href="accelerator_8h.html" target="_top" xlink:title="Loop Acceleration.">
<polygon fill="none" stroke="black" points="1032.31,-178.5 1032.31,-230.5 1184.31,-230.5 1184.31,-178.5 1032.31,-178.5"/>
<text text-anchor="start" x="1040.31" y="-218.5" font-family="Helvetica,sans-Serif" font-size="10.00">/home/runner/work/diffblue</text>
<text text-anchor="start" x="1040.31" y="-207.5" font-family="Helvetica,sans-Serif" font-size="10.00">&#45;cbmc/diffblue&#45;cbmc/src</text>
<text text-anchor="start" x="1040.31" y="-196.5" font-family="Helvetica,sans-Serif" font-size="10.00">/goto&#45;instrument/accelerate</text>
<text text-anchor="middle" x="1108.31" y="-185.5" font-family="Helvetica,sans-Serif" font-size="10.00">/accelerator.h</text>
</a>
</g>
</g>
<!-- Node1&#45;&gt;Node15 -->
<g id="edge19" class="edge">
<title>Node1&#45;&gt;Node15</title>
<path fill="none" stroke="midnightblue" d="M836.81,-353.39C864.67,-344.31 895.9,-332.93 923.31,-320 978.14,-294.14 1036.94,-255.7 1073.18,-230.62"/>
<polygon fill="midnightblue" stroke="midnightblue" points="835.57,-350.11 827.11,-356.5 837.7,-356.78 835.57,-350.11"/>
</g>
<!-- Node16 -->
<g id="node16" class="node">
<title>Node16</title>
<g id="a_node16"><a xlink:href="all__paths__enumerator_8h.html" target="_top" xlink:title="Loop Acceleration.">
<polygon fill="none" stroke="black" points="1410.31,-178.5 1410.31,-230.5 1562.31,-230.5 1562.31,-178.5 1410.31,-178.5"/>
<text text-anchor="start" x="1418.31" y="-218.5" font-family="Helvetica,sans-Serif" font-size="10.00">/home/runner/work/diffblue</text>
<text text-anchor="start" x="1418.31" y="-207.5" font-family="Helvetica,sans-Serif" font-size="10.00">&#45;cbmc/diffblue&#45;cbmc/src</text>
<text text-anchor="start" x="1418.31" y="-196.5" font-family="Helvetica,sans-Serif" font-size="10.00">/goto&#45;instrument/accelerate</text>
<text text-anchor="middle" x="1486.31" y="-185.5" font-family="Helvetica,sans-Serif" font-size="10.00">/all_paths_enumerator.h</text>
</a>
</g>
</g>
<!-- Node1&#45;&gt;Node16 -->
<g id="edge24" class="edge">
<title>Node1&#45;&gt;Node16</title>
<path fill="none" stroke="midnightblue" d="M861.51,-376.63C1011.36,-375.84 1280.34,-367.57 1363.31,-320 1388.46,-305.58 1380.86,-287.54 1401.31,-267 1414.68,-253.58 1431.21,-240.91 1446.13,-230.6"/>
<polygon fill="midnightblue" stroke="midnightblue" points="861.36,-373.13 851.38,-376.67 861.39,-380.13 861.36,-373.13"/>
</g>
<!-- Node18 -->
<g id="node18" class="node">
<title>Node18</title>
<g id="a_node18"><a xlink:href="path_8cpp.html" target="_top" xlink:title="Loop Acceleration.">
<polygon fill="none" stroke="black" points="1410.31,-267.5 1410.31,-319.5 1562.31,-319.5 1562.31,-267.5 1410.31,-267.5"/>
<text text-anchor="start" x="1418.31" y="-307.5" font-family="Helvetica,sans-Serif" font-size="10.00">/home/runner/work/diffblue</text>
<text text-anchor="start" x="1418.31" y="-296.5" font-family="Helvetica,sans-Serif" font-size="10.00">&#45;cbmc/diffblue&#45;cbmc/src</text>
<text text-anchor="start" x="1418.31" y="-285.5" font-family="Helvetica,sans-Serif" font-size="10.00">/goto&#45;instrument/accelerate</text>
<text text-anchor="middle" x="1486.31" y="-274.5" font-family="Helvetica,sans-Serif" font-size="10.00">/path.cpp</text>
</a>
</g>
</g>
<!-- Node1&#45;&gt;Node18 -->
<g id="edge27" class="edge">
<title>Node1&#45;&gt;Node18</title>
<path fill="none" stroke="midnightblue" d="M861.59,-372.92C988.43,-367.76 1209.72,-354.31 1396.31,-320 1400.78,-319.18 1405.35,-318.23 1409.95,-317.19"/>
<polygon fill="midnightblue" stroke="midnightblue" points="861.35,-369.42 851.5,-373.32 861.63,-376.42 861.35,-369.42"/>
</g>
<!-- Node19 -->
<g id="node19" class="node">
<title>Node19</title>
<g id="a_node19"><a xlink:href="path__enumerator_8h.html" target="_top" xlink:title="Loop Acceleration.">
<polygon fill="none" stroke="black" points="1202.31,-267.5 1202.31,-319.5 1354.31,-319.5 1354.31,-267.5 1202.31,-267.5"/>
<text text-anchor="start" x="1210.31" y="-307.5" font-family="Helvetica,sans-Serif" font-size="10.00">/home/runner/work/diffblue</text>
<text text-anchor="start" x="1210.31" y="-296.5" font-family="Helvetica,sans-Serif" font-size="10.00">&#45;cbmc/diffblue&#45;cbmc/src</text>
<text text-anchor="start" x="1210.31" y="-285.5" font-family="Helvetica,sans-Serif" font-size="10.00">/goto&#45;instrument/accelerate</text>
<text text-anchor="middle" x="1278.31" y="-274.5" font-family="Helvetica,sans-Serif" font-size="10.00">/path_enumerator.h</text>
</a>
</g>
</g>
<!-- Node1&#45;&gt;Node19 -->
<g id="edge28" class="edge">
<title>Node1&#45;&gt;Node19</title>
<path fill="none" stroke="midnightblue" d="M861.7,-361.55C937.75,-350.72 1043.58,-335.19 1136.31,-320 1157.69,-316.5 1180.84,-312.45 1202.11,-308.63"/>
<polygon fill="midnightblue" stroke="midnightblue" points="861.05,-358.11 851.64,-362.98 862.03,-365.04 861.05,-358.11"/>
</g>
<!-- Node20 -->
<g id="node20" class="node">
<title>Node20</title>
<g id="a_node20"><a xlink:href="scratch__program_8h.html" target="_top" xlink:title="Loop Acceleration.">
<polygon fill="none" stroke="black" points="466.31,-178.5 466.31,-230.5 618.31,-230.5 618.31,-178.5 466.31,-178.5"/>
<text text-anchor="start" x="474.31" y="-218.5" font-family="Helvetica,sans-Serif" font-size="10.00">/home/runner/work/diffblue</text>
<text text-anchor="start" x="474.31" y="-207.5" font-family="Helvetica,sans-Serif" font-size="10.00">&#45;cbmc/diffblue&#45;cbmc/src</text>
<text text-anchor="start" x="474.31" y="-196.5" font-family="Helvetica,sans-Serif" font-size="10.00">/goto&#45;instrument/accelerate</text>
<text text-anchor="middle" x="542.31" y="-185.5" font-family="Helvetica,sans-Serif" font-size="10.00">/scratch_program.h</text>
</a>
</g>
</g>
<!-- Node1&#45;&gt;Node20 -->
<g id="edge34" class="edge">
<title>Node1&#45;&gt;Node20</title>
<path fill="none" stroke="midnightblue" d="M732.19,-349.22C709.08,-326.18 673.89,-292.69 640.31,-267 623.4,-254.06 603.69,-241.29 586.4,-230.77"/>
<polygon fill="midnightblue" stroke="midnightblue" points="729.72,-351.69 739.26,-356.31 734.68,-346.75 729.72,-351.69"/>
</g>
<!-- Node22 -->
<g id="node22" class="node">
<title>Node22</title>
<g id="a_node22"><a xlink:href="subsumed_8h.html" target="_top" xlink:title="Loop Acceleration.">
<polygon fill="none" stroke="black" points="479.31,-267.5 479.31,-319.5 631.31,-319.5 631.31,-267.5 479.31,-267.5"/>
<text text-anchor="start" x="487.31" y="-307.5" font-family="Helvetica,sans-Serif" font-size="10.00">/home/runner/work/diffblue</text>
<text text-anchor="start" x="487.31" y="-296.5" font-family="Helvetica,sans-Serif" font-size="10.00">&#45;cbmc/diffblue&#45;cbmc/src</text>
<text text-anchor="start" x="487.31" y="-285.5" font-family="Helvetica,sans-Serif" font-size="10.00">/goto&#45;instrument/accelerate</text>
<text text-anchor="middle" x="555.31" y="-274.5" font-family="Helvetica,sans-Serif" font-size="10.00">/subsumed.h</text>
</a>
</g>
</g>
<!-- Node1&#45;&gt;Node22 -->
<g id="edge41" class="edge">
<title>Node1&#45;&gt;Node22</title>
<path fill="none" stroke="midnightblue" d="M700.4,-352.75C674.58,-342.38 644.11,-330.15 617.77,-319.58"/>
<polygon fill="midnightblue" stroke="midnightblue" points="699.1,-356 709.69,-356.48 701.71,-349.5 699.1,-356"/>
</g>
<!-- Node23 -->
<g id="node23" class="node">
<title>Node23</title>
<g id="a_node23"><a xlink:href="trace__automaton_8cpp.html" target="_top" xlink:title="Loop Acceleration.">
<polygon fill="none" stroke="black" points="88.31,-178.5 88.31,-230.5 240.31,-230.5 240.31,-178.5 88.31,-178.5"/>
<text text-anchor="start" x="96.31" y="-218.5" font-family="Helvetica,sans-Serif" font-size="10.00">/home/runner/work/diffblue</text>
<text text-anchor="start" x="96.31" y="-207.5" font-family="Helvetica,sans-Serif" font-size="10.00">&#45;cbmc/diffblue&#45;cbmc/src</text>
<text text-anchor="start" x="96.31" y="-196.5" font-family="Helvetica,sans-Serif" font-size="10.00">/goto&#45;instrument/accelerate</text>
<text text-anchor="middle" x="164.31" y="-185.5" font-family="Helvetica,sans-Serif" font-size="10.00">/trace_automaton.cpp</text>
</a>
</g>
</g>
<!-- Node1&#45;&gt;Node23 -->
<g id="edge43" class="edge">
<title>Node1&#45;&gt;Node23</title>
<path fill="none" stroke="midnightblue" d="M655.02,-374.27C526.64,-370.48 316.27,-358.42 249.31,-320 213.88,-299.67 188.81,-257.98 175.47,-230.91"/>
<polygon fill="midnightblue" stroke="midnightblue" points="655.17,-377.78 665.26,-374.56 655.37,-370.78 655.17,-377.78"/>
</g>
<!-- Node24 -->
<g id="node24" class="node">
<title>Node24</title>
<g id="a_node24"><a xlink:href="trace__automaton_8h.html" target="_top" xlink:title="Loop Acceleration.">
<polygon fill="none" stroke="black" points="258.31,-267.5 258.31,-319.5 410.31,-319.5 410.31,-267.5 258.31,-267.5"/>
<text text-anchor="start" x="266.31" y="-307.5" font-family="Helvetica,sans-Serif" font-size="10.00">/home/runner/work/diffblue</text>
<text text-anchor="start" x="266.31" y="-296.5" font-family="Helvetica,sans-Serif" font-size="10.00">&#45;cbmc/diffblue&#45;cbmc/src</text>
<text text-anchor="start" x="266.31" y="-285.5" font-family="Helvetica,sans-Serif" font-size="10.00">/goto&#45;instrument/accelerate</text>
<text text-anchor="middle" x="334.31" y="-274.5" font-family="Helvetica,sans-Serif" font-size="10.00">/trace_automaton.h</text>
</a>
</g>
</g>
<!-- Node1&#45;&gt;Node24 -->
<g id="edge44" class="edge">
<title>Node1&#45;&gt;Node24</title>
<path fill="none" stroke="midnightblue" d="M655.19,-361.41C589.37,-351.41 502.43,-336.92 426.31,-320 421.13,-318.85 415.81,-317.59 410.47,-316.26"/>
<polygon fill="midnightblue" stroke="midnightblue" points="654.74,-364.89 665.15,-362.92 655.79,-357.96 654.74,-364.89"/>
</g>
<!-- Node3&#45;&gt;Node2 -->
<g id="edge3" class="edge">
<title>Node3&#45;&gt;Node2</title>
<path fill="none" stroke="midnightblue" d="M273.8,-172.37C263.13,-164.01 253.48,-153.91 247.31,-142 236.48,-121.08 232.13,-107.01 247.31,-89 282.73,-47 435.44,-33.68 529.92,-29.46"/>
<polygon fill="midnightblue" stroke="midnightblue" points="271.97,-175.36 282.12,-178.42 276.09,-169.7 271.97,-175.36"/>
</g>
<!-- Node4 -->
<g id="node4" class="node">
<title>Node4</title>
<g id="a_node4"><a xlink:href="goto__instrument__parse__options_8cpp.html" target="_top" xlink:title="Main Module.">
<polygon fill="none" stroke="black" points="18.31,-89.5 18.31,-141.5 200.31,-141.5 200.31,-89.5 18.31,-89.5"/>
<text text-anchor="start" x="26.31" y="-129.5" font-family="Helvetica,sans-Serif" font-size="10.00">/home/runner/work/diffblue</text>
<text text-anchor="start" x="26.31" y="-118.5" font-family="Helvetica,sans-Serif" font-size="10.00">&#45;cbmc/diffblue&#45;cbmc/src</text>
<text text-anchor="start" x="26.31" y="-107.5" font-family="Helvetica,sans-Serif" font-size="10.00">/goto&#45;instrument/goto_instrument</text>
<text text-anchor="middle" x="109.31" y="-96.5" font-family="Helvetica,sans-Serif" font-size="10.00">_parse_options.cpp</text>
</a>
</g>
</g>
<!-- Node3&#45;&gt;Node4 -->
<g id="edge4" class="edge">
<title>Node3&#45;&gt;Node4</title>
<path fill="none" stroke="midnightblue" d="M259.87,-174.72C232.11,-163.98 200.84,-151.89 174.02,-141.52"/>
<polygon fill="midnightblue" stroke="midnightblue" points="258.94,-178.11 269.53,-178.45 261.47,-171.58 258.94,-178.11"/>
</g>
<!-- Node5&#45;&gt;Node3 -->
<g id="edge6" class="edge">
<title>Node5&#45;&gt;Node3</title>
<path fill="none" stroke="midnightblue" d="M724.23,-279.34C619.49,-263.23 453,-237.33 424.31,-231 419.87,-230.02 415.33,-228.95 410.75,-227.82"/>
<polygon fill="midnightblue" stroke="midnightblue" points="723.75,-282.8 734.17,-280.86 724.82,-275.89 723.75,-282.8"/>
</g>
<!-- Node6 -->
<g id="node6" class="node">
<title>Node6</title>
<g id="a_node6"><a xlink:href="acceleration__utils_8cpp.html" target="_top" xlink:title="Loop Acceleration.">
<polygon fill="none" stroke="black" points="256.31,-89.5 256.31,-141.5 408.31,-141.5 408.31,-89.5 256.31,-89.5"/>
<text text-anchor="start" x="264.31" y="-129.5" font-family="Helvetica,sans-Serif" font-size="10.00">/home/runner/work/diffblue</text>
<text text-anchor="start" x="264.31" y="-118.5" font-family="Helvetica,sans-Serif" font-size="10.00">&#45;cbmc/diffblue&#45;cbmc/src</text>
<text text-anchor="start" x="264.31" y="-107.5" font-family="Helvetica,sans-Serif" font-size="10.00">/goto&#45;instrument/accelerate</text>
<text text-anchor="middle" x="332.31" y="-96.5" font-family="Helvetica,sans-Serif" font-size="10.00">/acceleration_utils.cpp</text>
</a>
</g>
</g>
<!-- Node5&#45;&gt;Node6 -->
<g id="edge7" class="edge">
<title>Node5&#45;&gt;Node6</title>
<path fill="none" stroke="midnightblue" d="M724.08,-279.15C623.26,-263.29 468.61,-238.09 457.31,-231 432.76,-215.59 439.88,-198.43 419.31,-178 405.79,-164.57 389.07,-152 373.91,-141.76"/>
<polygon fill="midnightblue" stroke="midnightblue" points="723.54,-282.61 733.97,-280.7 724.63,-275.69 723.54,-282.61"/>
</g>
<!-- Node5&#45;&gt;Node7 -->
<g id="edge8" class="edge">
<title>Node5&#45;&gt;Node7</title>
<path fill="none" stroke="midnightblue" d="M783.76,-259.5C776.05,-249.92 767.76,-239.62 760.51,-230.61"/>
<polygon fill="midnightblue" stroke="midnightblue" points="781.07,-261.74 790.06,-267.34 786.52,-257.35 781.07,-261.74"/>
</g>
<!-- Node5&#45;&gt;Node9 -->
<g id="edge10" class="edge">
<title>Node5&#45;&gt;Node9</title>
<path fill="none" stroke="midnightblue" d="M855.92,-261.5C870.82,-251.37 887.18,-240.25 901.37,-230.61"/>
<polygon fill="midnightblue" stroke="midnightblue" points="853.64,-258.82 847.33,-267.34 857.57,-264.61 853.64,-258.82"/>
</g>
<!-- Node5&#45;&gt;Node13 -->
<g id="edge16" class="edge">
<title>Node5&#45;&gt;Node13</title>
<path fill="none" stroke="midnightblue" d="M896.73,-281.95C974.76,-271.63 1092.48,-254.11 1193.31,-231 1196.16,-230.35 1199.06,-229.65 1201.98,-228.92"/>
<polygon fill="midnightblue" stroke="midnightblue" points="895.92,-278.52 886.46,-283.29 896.83,-285.46 895.92,-278.52"/>
</g>
<!-- Node8 -->
<g id="node8" class="node">
<title>Node8</title>
<g id="a_node8"><a xlink:href="disjunctive__polynomial__acceleration_8cpp.html" target="_top" xlink:title="Loop Acceleration.">
<polygon fill="none" stroke="black" points="634.31,-89.5 634.31,-141.5 852.31,-141.5 852.31,-89.5 634.31,-89.5"/>
<text text-anchor="start" x="642.31" y="-129.5" font-family="Helvetica,sans-Serif" font-size="10.00">/home/runner/work/diffblue</text>
<text text-anchor="start" x="642.31" y="-118.5" font-family="Helvetica,sans-Serif" font-size="10.00">&#45;cbmc/diffblue&#45;cbmc/src</text>
<text text-anchor="start" x="642.31" y="-107.5" font-family="Helvetica,sans-Serif" font-size="10.00">/goto&#45;instrument/accelerate</text>
<text text-anchor="middle" x="743.31" y="-96.5" font-family="Helvetica,sans-Serif" font-size="10.00">/disjunctive_polynomial_acceleration.cpp</text>
</a>
</g>
</g>
<!-- Node7&#45;&gt;Node8 -->
<g id="edge9" class="edge">
<title>Node7&#45;&gt;Node8</title>
<path fill="none" stroke="midnightblue" d="M741.53,-168.19C741.84,-159.28 742.16,-149.9 742.45,-141.61"/>
<polygon fill="midnightblue" stroke="midnightblue" points="738.03,-168.22 741.18,-178.34 745.02,-168.46 738.03,-168.22"/>
</g>
<!-- Node9&#45;&gt;Node8 -->
<g id="edge11" class="edge">
<title>Node9&#45;&gt;Node8</title>
<path fill="none" stroke="midnightblue" d="M872.85,-174.29C849.03,-163.67 822.33,-151.76 799.39,-141.52"/>
<polygon fill="midnightblue" stroke="midnightblue" points="871.61,-177.57 882.17,-178.45 874.46,-171.18 871.61,-177.57"/>
</g>
<!-- Node10 -->
<g id="node10" class="node">
<title>Node10</title>
<g id="a_node10"><a xlink:href="enumerating__loop__acceleration_8h.html" target="_top" xlink:title="Loop Acceleration.">
<polygon fill="none" stroke="black" points="1288.31,-89.5 1288.31,-141.5 1470.31,-141.5 1470.31,-89.5 1288.31,-89.5"/>
<text text-anchor="start" x="1296.31" y="-129.5" font-family="Helvetica,sans-Serif" font-size="10.00">/home/runner/work/diffblue</text>
<text text-anchor="start" x="1296.31" y="-118.5" font-family="Helvetica,sans-Serif" font-size="10.00">&#45;cbmc/diffblue&#45;cbmc/src</text>
<text text-anchor="start" x="1296.31" y="-107.5" font-family="Helvetica,sans-Serif" font-size="10.00">/goto&#45;instrument/accelerate</text>
<text text-anchor="middle" x="1379.31" y="-96.5" font-family="Helvetica,sans-Serif" font-size="10.00">/enumerating_loop_acceleration.h</text>
</a>
</g>
</g>
<!-- Node9&#45;&gt;Node10 -->
<g id="edge12" class="edge">
<title>Node9&#45;&gt;Node10</title>
<path fill="none" stroke="midnightblue" d="M1024.41,-177.84C1119.27,-155.89 1218.1,-139.6 1287.98,-129.18"/>
<polygon fill="midnightblue" stroke="midnightblue" points="1023.59,-174.44 1014.65,-180.13 1025.18,-181.26 1023.59,-174.44"/>
</g>
<!-- Node12 -->
<g id="node12" class="node">
<title>Node12</title>
<g id="a_node12"><a xlink:href="polynomial__accelerator_8cpp.html" target="_top" xlink:title="Loop Acceleration.">
<polygon fill="none" stroke="black" points="870.31,-89.5 870.31,-141.5 1024.31,-141.5 1024.31,-89.5 870.31,-89.5"/>
<text text-anchor="start" x="878.31" y="-129.5" font-family="Helvetica,sans-Serif" font-size="10.00">/home/runner/work/diffblue</text>
<text text-anchor="start" x="878.31" y="-118.5" font-family="Helvetica,sans-Serif" font-size="10.00">&#45;cbmc/diffblue&#45;cbmc/src</text>
<text text-anchor="start" x="878.31" y="-107.5" font-family="Helvetica,sans-Serif" font-size="10.00">/goto&#45;instrument/accelerate</text>
<text text-anchor="middle" x="947.31" y="-96.5" font-family="Helvetica,sans-Serif" font-size="10.00">/polynomial_accelerator.cpp</text>
</a>
</g>
</g>
<!-- Node9&#45;&gt;Node12 -->
<g id="edge15" class="edge">
<title>Node9&#45;&gt;Node12</title>
<path fill="none" stroke="midnightblue" d="M941.96,-168.19C942.89,-159.28 943.86,-149.9 944.71,-141.61"/>
<polygon fill="midnightblue" stroke="midnightblue" points="938.46,-168.03 940.91,-178.34 945.43,-168.75 938.46,-168.03"/>
</g>
<!-- Node10&#45;&gt;Node2 -->
<g id="edge13" class="edge">
<title>Node10&#45;&gt;Node2</title>
<path fill="none" stroke="midnightblue" d="M1277.85,-95.39C1263.92,-93.06 1249.78,-90.86 1236.31,-89 1037.36,-61.59 801.4,-41.98 682.67,-32.99"/>
<polygon fill="midnightblue" stroke="midnightblue" points="1277.49,-98.88 1287.94,-97.1 1278.66,-91.97 1277.49,-98.88"/>
</g>
<!-- Node11 -->
<g id="node11" class="node">
<title>Node11</title>
<g id="a_node11"><a xlink:href="enumerating__loop__acceleration_8cpp.html" target="_top" xlink:title="Loop Acceleration.">
<polygon fill="none" stroke="black" points="1222.31,-0.5 1222.31,-52.5 1416.31,-52.5 1416.31,-0.5 1222.31,-0.5"/>
<text text-anchor="start" x="1230.31" y="-40.5" font-family="Helvetica,sans-Serif" font-size="10.00">/home/runner/work/diffblue</text>
<text text-anchor="start" x="1230.31" y="-29.5" font-family="Helvetica,sans-Serif" font-size="10.00">&#45;cbmc/diffblue&#45;cbmc/src</text>
<text text-anchor="start" x="1230.31" y="-18.5" font-family="Helvetica,sans-Serif" font-size="10.00">/goto&#45;instrument/accelerate</text>
<text text-anchor="middle" x="1319.31" y="-7.5" font-family="Helvetica,sans-Serif" font-size="10.00">/enumerating_loop_acceleration.cpp</text>
</a>
</g>
</g>
<!-- Node10&#45;&gt;Node11 -->
<g id="edge14" class="edge">
<title>Node10&#45;&gt;Node11</title>
<path fill="none" stroke="midnightblue" d="M1356.16,-80.93C1349.66,-71.51 1342.72,-61.44 1336.63,-52.61"/>
<polygon fill="midnightblue" stroke="midnightblue" points="1353.4,-83.09 1361.96,-89.34 1359.16,-79.12 1353.4,-83.09"/>
</g>
<!-- Node13&#45;&gt;Node10 -->
<g id="edge17" class="edge">
<title>Node13&#45;&gt;Node10</title>
<path fill="none" stroke="midnightblue" d="M1315.29,-171.65C1326.78,-161.75 1339.28,-150.98 1350.16,-141.61"/>
<polygon fill="midnightblue" stroke="midnightblue" points="1312.82,-169.16 1307.52,-178.34 1317.39,-174.46 1312.82,-169.16"/>
</g>
<!-- Node14 -->
<g id="node14" class="node">
<title>Node14</title>
<g id="a_node14"><a xlink:href="sat__path__enumerator_8cpp.html" target="_top" xlink:title="Loop Acceleration.">
<polygon fill="none" stroke="black" points="1042.31,-89.5 1042.31,-141.5 1194.31,-141.5 1194.31,-89.5 1042.31,-89.5"/>
<text text-anchor="start" x="1050.31" y="-129.5" font-family="Helvetica,sans-Serif" font-size="10.00">/home/runner/work/diffblue</text>
<text text-anchor="start" x="1050.31" y="-118.5" font-family="Helvetica,sans-Serif" font-size="10.00">&#45;cbmc/diffblue&#45;cbmc/src</text>
<text text-anchor="start" x="1050.31" y="-107.5" font-family="Helvetica,sans-Serif" font-size="10.00">/goto&#45;instrument/accelerate</text>
<text text-anchor="middle" x="1118.31" y="-96.5" font-family="Helvetica,sans-Serif" font-size="10.00">/sat_path_enumerator.cpp</text>
</a>
</g>
</g>
<!-- Node13&#45;&gt;Node14 -->
<g id="edge18" class="edge">
<title>Node13&#45;&gt;Node14</title>
<path fill="none" stroke="midnightblue" d="M1223.13,-173.49C1204.01,-163.1 1182.8,-151.57 1164.49,-141.61"/>
<polygon fill="midnightblue" stroke="midnightblue" points="1221.58,-176.63 1232.03,-178.34 1224.92,-170.48 1221.58,-176.63"/>
</g>
<!-- Node15&#45;&gt;Node2 -->
<g id="edge20" class="edge">
<title>Node15&#45;&gt;Node2</title>
<path fill="none" stroke="midnightblue" d="M1175.09,-172.7C1186.43,-164.39 1196.66,-154.22 1203.31,-142 1214.57,-121.31 1219.09,-106.49 1203.31,-89 1169.02,-51 835.63,-35.1 682.51,-29.76"/>
<polygon fill="midnightblue" stroke="midnightblue" points="1172.97,-169.91 1166.68,-178.43 1176.91,-175.69 1172.97,-169.91"/>
</g>
<!-- Node15&#45;&gt;Node8 -->
<g id="edge21" class="edge">
<title>Node15&#45;&gt;Node8</title>
<path fill="none" stroke="midnightblue" d="M1021.94,-177.85C992.37,-170.87 917.79,-154.53 852.61,-140.31"/>
<polygon fill="midnightblue" stroke="midnightblue" points="1021.39,-181.31 1031.93,-180.29 1023.05,-174.51 1021.39,-181.31"/>
</g>
<!-- Node15&#45;&gt;Node11 -->
<g id="edge22" class="edge">
<title>Node15&#45;&gt;Node11</title>
<path fill="none" stroke="midnightblue" d="M1185.41,-174.06C1203.17,-165.29 1221.24,-154.58 1236.31,-142 1252.42,-128.55 1284.04,-81.98 1303.27,-52.54"/>
<polygon fill="midnightblue" stroke="midnightblue" points="1183.69,-171.01 1176.17,-178.48 1186.7,-177.33 1183.69,-171.01"/>
</g>
<!-- Node15&#45;&gt;Node12 -->
<g id="edge23" class="edge">
<title>Node15&#45;&gt;Node12</title>
<path fill="none" stroke="midnightblue" d="M1052.78,-173.49C1033.55,-163.1 1012.2,-151.57 993.77,-141.61"/>
<polygon fill="midnightblue" stroke="midnightblue" points="1051.28,-176.66 1061.74,-178.34 1054.61,-170.5 1051.28,-176.66"/>
</g>
<!-- Node17 -->
<g id="node17" class="node">
<title>Node17</title>
<g id="a_node17"><a xlink:href="all__paths__enumerator_8cpp.html" target="_top" xlink:title="Loop Acceleration.">
<polygon fill="none" stroke="black" points="1488.31,-89.5 1488.31,-141.5 1640.31,-141.5 1640.31,-89.5 1488.31,-89.5"/>
<text text-anchor="start" x="1496.31" y="-129.5" font-family="Helvetica,sans-Serif" font-size="10.00">/home/runner/work/diffblue</text>
<text text-anchor="start" x="1496.31" y="-118.5" font-family="Helvetica,sans-Serif" font-size="10.00">&#45;cbmc/diffblue&#45;cbmc/src</text>
<text text-anchor="start" x="1496.31" y="-107.5" font-family="Helvetica,sans-Serif" font-size="10.00">/goto&#45;instrument/accelerate</text>
<text text-anchor="middle" x="1564.31" y="-96.5" font-family="Helvetica,sans-Serif" font-size="10.00">/all_paths_enumerator.cpp</text>
</a>
</g>
</g>
<!-- Node16&#45;&gt;Node17 -->
<g id="edge25" class="edge">
<title>Node16&#45;&gt;Node17</title>
<path fill="none" stroke="midnightblue" d="M1515.64,-170.79C1524.3,-161.13 1533.64,-150.71 1541.8,-141.61"/>
<polygon fill="midnightblue" stroke="midnightblue" points="1512.94,-168.55 1508.87,-178.34 1518.15,-173.23 1512.94,-168.55"/>
</g>
<!-- Node19&#45;&gt;Node10 -->
<g id="edge30" class="edge">
<title>Node19&#45;&gt;Node10</title>
<path fill="none" stroke="midnightblue" d="M1334.86,-261.51C1345.88,-253 1356.21,-242.81 1363.31,-231 1379.76,-203.65 1381.95,-166.11 1381.25,-141.58"/>
<polygon fill="midnightblue" stroke="midnightblue" points="1332.77,-258.7 1326.74,-267.41 1336.89,-264.36 1332.77,-258.7"/>
</g>
<!-- Node19&#45;&gt;Node13 -->
<g id="edge31" class="edge">
<title>Node19&#45;&gt;Node13</title>
<path fill="none" stroke="midnightblue" d="M1278.31,-257.19C1278.31,-248.28 1278.31,-238.9 1278.31,-230.61"/>
<polygon fill="midnightblue" stroke="midnightblue" points="1274.81,-257.34 1278.31,-267.34 1281.81,-257.34 1274.81,-257.34"/>
</g>
<!-- Node19&#45;&gt;Node16 -->
<g id="edge29" class="edge">
<title>Node19&#45;&gt;Node16</title>
<path fill="none" stroke="midnightblue" d="M1347.46,-263.58C1373.04,-252.88 1401.81,-240.85 1426.49,-230.52"/>
<polygon fill="midnightblue" stroke="midnightblue" points="1346.07,-260.36 1338.19,-267.45 1348.77,-266.82 1346.07,-260.36"/>
</g>
<!-- Node20&#45;&gt;Node2 -->
<g id="edge35" class="edge">
<title>Node20&#45;&gt;Node2</title>
<path fill="none" stroke="midnightblue" d="M570.98,-170.21C577.23,-161.5 583.19,-151.8 587.31,-142 599.57,-112.84 603.94,-76.38 605.49,-52.54"/>
<polygon fill="midnightblue" stroke="midnightblue" points="568.17,-168.12 564.96,-178.22 573.76,-172.33 568.17,-168.12"/>
</g>
<!-- Node20&#45;&gt;Node6 -->
<g id="edge36" class="edge">
<title>Node20&#45;&gt;Node6</title>
<path fill="none" stroke="midnightblue" d="M472.5,-174.58C446.67,-163.88 417.63,-151.85 392.71,-141.52"/>
<polygon fill="midnightblue" stroke="midnightblue" points="471.27,-177.86 481.85,-178.45 473.95,-171.39 471.27,-177.86"/>
</g>
<!-- Node20&#45;&gt;Node8 -->
<g id="edge37" class="edge">
<title>Node20&#45;&gt;Node8</title>
<path fill="none" stroke="midnightblue" d="M609.46,-174.44C634.1,-163.77 661.76,-151.8 685.5,-141.52"/>
<polygon fill="midnightblue" stroke="midnightblue" points="607.97,-171.27 600.18,-178.45 610.75,-177.69 607.97,-171.27"/>
</g>
<!-- Node20&#45;&gt;Node12 -->
<g id="edge38" class="edge">
<title>Node20&#45;&gt;Node12</title>
<path fill="none" stroke="midnightblue" d="M628.55,-178.1C732.35,-155.62 762.17,-164.25 861.31,-142 864.2,-141.35 867.13,-140.66 870.09,-139.93"/>
<polygon fill="midnightblue" stroke="midnightblue" points="627.61,-174.72 618.6,-180.3 629.12,-181.56 627.61,-174.72"/>
</g>
<!-- Node20&#45;&gt;Node14 -->
<g id="edge39" class="edge">
<title>Node20&#45;&gt;Node14</title>
<path fill="none" stroke="midnightblue" d="M628.57,-178.16C807.67,-145.28 859.06,-175.52 1033.31,-142 1036.19,-141.45 1039.1,-140.84 1042.04,-140.18"/>
<polygon fill="midnightblue" stroke="midnightblue" points="627.73,-174.75 618.55,-180.04 629.02,-181.63 627.73,-174.75"/>
</g>
<!-- Node21 -->
<g id="node21" class="node">
<title>Node21</title>
<g id="a_node21"><a xlink:href="scratch__program_8cpp.html" target="_top" xlink:title="Loop Acceleration.">
<polygon fill="none" stroke="black" points="426.31,-89.5 426.31,-141.5 578.31,-141.5 578.31,-89.5 426.31,-89.5"/>
<text text-anchor="start" x="434.31" y="-129.5" font-family="Helvetica,sans-Serif" font-size="10.00">/home/runner/work/diffblue</text>
<text text-anchor="start" x="434.31" y="-118.5" font-family="Helvetica,sans-Serif" font-size="10.00">&#45;cbmc/diffblue&#45;cbmc/src</text>
<text text-anchor="start" x="434.31" y="-107.5" font-family="Helvetica,sans-Serif" font-size="10.00">/goto&#45;instrument/accelerate</text>
<text text-anchor="middle" x="502.31" y="-96.5" font-family="Helvetica,sans-Serif" font-size="10.00">/scratch_program.cpp</text>
</a>
</g>
</g>
<!-- Node20&#45;&gt;Node21 -->
<g id="edge40" class="edge">
<title>Node20&#45;&gt;Node21</title>
<path fill="none" stroke="midnightblue" d="M526.48,-169.06C522.26,-159.9 517.79,-150.17 513.86,-141.61"/>
<polygon fill="midnightblue" stroke="midnightblue" points="523.38,-170.71 530.74,-178.34 529.74,-167.79 523.38,-170.71"/>
</g>
<!-- Node22&#45;&gt;Node3 -->
<g id="edge42" class="edge">
<title>Node22&#45;&gt;Node3</title>
<path fill="none" stroke="midnightblue" d="M482.2,-263.72C454.93,-252.98 424.21,-240.89 397.87,-230.52"/>
<polygon fill="midnightblue" stroke="midnightblue" points="481.1,-267.05 491.69,-267.45 483.66,-260.53 481.1,-267.05"/>
</g>
<!-- Node24&#45;&gt;Node3 -->
<g id="edge45" class="edge">
<title>Node24&#45;&gt;Node3</title>
<path fill="none" stroke="midnightblue" d="M334.31,-257.19C334.31,-248.28 334.31,-238.9 334.31,-230.61"/>
<polygon fill="midnightblue" stroke="midnightblue" points="330.81,-257.34 334.31,-267.34 337.81,-257.34 330.81,-257.34"/>
</g>
<!-- Node24&#45;&gt;Node23 -->
<g id="edge46" class="edge">
<title>Node24&#45;&gt;Node23</title>
<path fill="none" stroke="midnightblue" d="M276.23,-262.78C255.78,-252.31 233.01,-240.66 213.37,-230.61"/>
<polygon fill="midnightblue" stroke="midnightblue" points="274.64,-265.9 285.14,-267.34 277.83,-259.66 274.64,-265.9"/>
</g>
</g>
</svg>
