<?xml version="1.0" encoding="UTF-8" standalone="no"?>
<!DOCTYPE svg PUBLIC "-//W3C//DTD SVG 1.1//EN"
 "http://www.w3.org/Graphics/SVG/1.1/DTD/svg11.dtd">
<!-- Generated by graphviz version 2.43.0 (0)
 -->
<!-- Title: /home/runner/work/diffblue&#45;cbmc/diffblue&#45;cbmc/src/goto&#45;instrument/accelerate/path_enumerator.h Pages: 1 -->
<svg width="530pt" height="328pt"
 viewBox="0.00 0.00 530.00 328.00" xmlns="http://www.w3.org/2000/svg" xmlns:xlink="http://www.w3.org/1999/xlink">
<g id="graph0" class="graph" transform="scale(1 1) rotate(0) translate(4 324)">
<title>/home/runner/work/diffblue&#45;cbmc/diffblue&#45;cbmc/src/goto&#45;instrument/accelerate/path_enumerator.h</title>
<!-- Node1 -->
<g id="node1" class="node">
<title>Node1</title>
<g id="a_node1"><a xlink:title="Loop Acceleration.">
<polygon fill="#bfbfbf" stroke="black" points="164,-267.5 164,-319.5 316,-319.5 316,-267.5 164,-267.5"/>
<text text-anchor="start" x="172" y="-307.5" font-family="Helvetica,sans-Serif" font-size="10.00">/home/runner/work/diffblue</text>
<text text-anchor="start" x="172" y="-296.5" font-family="Helvetica,sans-Serif" font-size="10.00">&#45;cbmc/diffblue&#45;cbmc/src</text>
<text text-anchor="start" x="172" y="-285.5" font-family="Helvetica,sans-Serif" font-size="10.00">/goto&#45;instrument/accelerate</text>
<text text-anchor="middle" x="240" y="-274.5" font-family="Helvetica,sans-Serif" font-size="10.00">/path_enumerator.h</text>
</a>
</g>
</g>
<!-- Node2 -->
<g id="node2" class="node">
<title>Node2</title>
<g id="a_node2"><a xlink:href="all__paths__enumerator_8h.html" target="_top" xlink:title="Loop Acceleration.">
<polygon fill="none" stroke="black" points="20,-178.5 20,-230.5 172,-230.5 172,-178.5 20,-178.5"/>
<text text-anchor="start" x="28" y="-218.5" font-family="Helvetica,sans-Serif" font-size="10.00">/home/runner/work/diffblue</text>
<text text-anchor="start" x="28" y="-207.5" font-family="Helvetica,sans-Serif" font-size="10.00">&#45;cbmc/diffblue&#45;cbmc/src</text>
<text text-anchor="start" x="28" y="-196.5" font-family="Helvetica,sans-Serif" font-size="10.00">/goto&#45;instrument/accelerate</text>
<text text-anchor="middle" x="96" y="-185.5" font-family="Helvetica,sans-Serif" font-size="10.00">/all_paths_enumerator.h</text>
</a>
</g>
</g>
<!-- Node1&#45;&gt;Node2 -->
<g id="edge1" class="edge">
<title>Node1&#45;&gt;Node2</title>
<path fill="none" stroke="midnightblue" d="M189.63,-262.07C172.61,-251.79 153.82,-240.43 137.56,-230.61"/>
<polygon fill="midnightblue" stroke="midnightblue" points="187.98,-265.16 198.35,-267.34 191.6,-259.17 187.98,-265.16"/>
</g>
<!-- Node4 -->
<g id="node4" class="node">
<title>Node4</title>
<g id="a_node4"><a xlink:href="enumerating__loop__acceleration_8h.html" target="_top" xlink:title="Loop Acceleration.">
<polygon fill="none" stroke="black" points="170,-89.5 170,-141.5 352,-141.5 352,-89.5 170,-89.5"/>
<text text-anchor="start" x="178" y="-129.5" font-family="Helvetica,sans-Serif" font-size="10.00">/home/runner/work/diffblue</text>
<text text-anchor="start" x="178" y="-118.5" font-family="Helvetica,sans-Serif" font-size="10.00">&#45;cbmc/diffblue&#45;cbmc/src</text>
<text text-anchor="start" x="178" y="-107.5" font-family="Helvetica,sans-Serif" font-size="10.00">/goto&#45;instrument/accelerate</text>
<text text-anchor="middle" x="261" y="-96.5" font-family="Helvetica,sans-Serif" font-size="10.00">/enumerating_loop_acceleration.h</text>
</a>
</g>
</g>
<!-- Node1&#45;&gt;Node4 -->
<g id="edge3" class="edge">
<title>Node1&#45;&gt;Node4</title>
<path fill="none" stroke="midnightblue" d="M244.21,-257.25C248.29,-223.04 254.38,-171.97 258,-141.67"/>
<polygon fill="midnightblue" stroke="midnightblue" points="240.72,-256.94 243.01,-267.28 247.67,-257.77 240.72,-256.94"/>
</g>
<!-- Node7 -->
<g id="node7" class="node">
<title>Node7</title>
<g id="a_node7"><a xlink:href="sat__path__enumerator_8h.html" target="_top" xlink:title="Loop Acceleration.">
<polygon fill="none" stroke="black" points="268,-178.5 268,-230.5 420,-230.5 420,-178.5 268,-178.5"/>
<text text-anchor="start" x="276" y="-218.5" font-family="Helvetica,sans-Serif" font-size="10.00">/home/runner/work/diffblue</text>
<text text-anchor="start" x="276" y="-207.5" font-family="Helvetica,sans-Serif" font-size="10.00">&#45;cbmc/diffblue&#45;cbmc/src</text>
<text text-anchor="start" x="276" y="-196.5" font-family="Helvetica,sans-Serif" font-size="10.00">/goto&#45;instrument/accelerate</text>
<text text-anchor="middle" x="344" y="-185.5" font-family="Helvetica,sans-Serif" font-size="10.00">/sat_path_enumerator.h</text>
</a>
</g>
</g>
<!-- Node1&#45;&gt;Node7 -->
<g id="edge6" class="edge">
<title>Node1&#45;&gt;Node7</title>
<path fill="none" stroke="midnightblue" d="M278.07,-260.65C289.91,-250.75 302.78,-239.98 313.99,-230.61"/>
<polygon fill="midnightblue" stroke="midnightblue" points="275.51,-258.24 270.08,-267.34 280,-263.6 275.51,-258.24"/>
</g>
<!-- Node3 -->
<g id="node3" class="node">
<title>Node3</title>
<g id="a_node3"><a xlink:href="all__paths__enumerator_8cpp.html" target="_top" xlink:title="Loop Acceleration.">
<polygon fill="none" stroke="black" points="0,-89.5 0,-141.5 152,-141.5 152,-89.5 0,-89.5"/>
<text text-anchor="start" x="8" y="-129.5" font-family="Helvetica,sans-Serif" font-size="10.00">/home/runner/work/diffblue</text>
<text text-anchor="start" x="8" y="-118.5" font-family="Helvetica,sans-Serif" font-size="10.00">&#45;cbmc/diffblue&#45;cbmc/src</text>
<text text-anchor="start" x="8" y="-107.5" font-family="Helvetica,sans-Serif" font-size="10.00">/goto&#45;instrument/accelerate</text>
<text text-anchor="middle" x="76" y="-96.5" font-family="Helvetica,sans-Serif" font-size="10.00">/all_paths_enumerator.cpp</text>
</a>
</g>
</g>
<!-- Node2&#45;&gt;Node3 -->
<g id="edge2" class="edge">
<title>Node2&#45;&gt;Node3</title>
<path fill="none" stroke="midnightblue" d="M87.95,-168.48C85.88,-159.49 83.7,-149.99 81.77,-141.61"/>
<polygon fill="midnightblue" stroke="midnightblue" points="84.56,-169.37 90.22,-178.34 91.39,-167.81 84.56,-169.37"/>
</g>
<!-- Node5 -->
<g id="node5" class="node">
<title>Node5</title>
<g id="a_node5"><a xlink:href="accelerate_8cpp.html" target="_top" xlink:title="Loop Acceleration.">
<polygon fill="none" stroke="black" points="89,-0.5 89,-52.5 241,-52.5 241,-0.5 89,-0.5"/>
<text text-anchor="start" x="97" y="-40.5" font-family="Helvetica,sans-Serif" font-size="10.00">/home/runner/work/diffblue</text>
<text text-anchor="start" x="97" y="-29.5" font-family="Helvetica,sans-Serif" font-size="10.00">&#45;cbmc/diffblue&#45;cbmc/src</text>
<text text-anchor="start" x="97" y="-18.5" font-family="Helvetica,sans-Serif" font-size="10.00">/goto&#45;instrument/accelerate</text>
<text text-anchor="middle" x="165" y="-7.5" font-family="Helvetica,sans-Serif" font-size="10.00">/accelerate.cpp</text>
</a>
</g>
</g>
<!-- Node4&#45;&gt;Node5 -->
<g id="edge4" class="edge">
<title>Node4&#45;&gt;Node5</title>
<path fill="none" stroke="midnightblue" d="M225.54,-82.36C214.7,-72.54 202.95,-61.89 192.7,-52.61"/>
<polygon fill="midnightblue" stroke="midnightblue" points="223.47,-85.21 233.23,-89.34 228.17,-80.03 223.47,-85.21"/>
</g>
<!-- Node6 -->
<g id="node6" class="node">
<title>Node6</title>
<g id="a_node6"><a xlink:href="enumerating__loop__acceleration_8cpp.html" target="_top" xlink:title="Loop Acceleration.">
<polygon fill="none" stroke="black" points="259,-0.5 259,-52.5 453,-52.5 453,-0.5 259,-0.5"/>
<text text-anchor="start" x="267" y="-40.5" font-family="Helvetica,sans-Serif" font-size="10.00">/home/runner/work/diffblue</text>
<text text-anchor="start" x="267" y="-29.5" font-family="Helvetica,sans-Serif" font-size="10.00">&#45;cbmc/diffblue&#45;cbmc/src</text>
<text text-anchor="start" x="267" y="-18.5" font-family="Helvetica,sans-Serif" font-size="10.00">/goto&#45;instrument/accelerate</text>
<text text-anchor="middle" x="356" y="-7.5" font-family="Helvetica,sans-Serif" font-size="10.00">/enumerating_loop_acceleration.cpp</text>
</a>
</g>
</g>
<!-- Node4&#45;&gt;Node6 -->
<g id="edge5" class="edge">
<title>Node4&#45;&gt;Node6</title>
<path fill="none" stroke="midnightblue" d="M296.09,-82.36C306.82,-72.54 318.45,-61.89 328.58,-52.61"/>
<polygon fill="midnightblue" stroke="midnightblue" points="293.49,-80 288.48,-89.34 298.22,-85.16 293.49,-80"/>
</g>
<!-- Node7&#45;&gt;Node4 -->
<g id="edge7" class="edge">
<title>Node7&#45;&gt;Node4</title>
<path fill="none" stroke="midnightblue" d="M313.07,-171.08C303.77,-161.34 293.72,-150.8 284.95,-141.61"/>
<polygon fill="midnightblue" stroke="midnightblue" points="310.56,-173.52 319.99,-178.34 315.62,-168.68 310.56,-173.52"/>
</g>
<!-- Node8 -->
<g id="node8" class="node">
<title>Node8</title>
<g id="a_node8"><a xlink:href="sat__path__enumerator_8cpp.html" target="_top" xlink:title="Loop Acceleration.">
<polygon fill="none" stroke="black" points="370,-89.5 370,-141.5 522,-141.5 522,-89.5 370,-89.5"/>
<text text-anchor="start" x="378" y="-129.5" font-family="Helvetica,sans-Serif" font-size="10.00">/home/runner/work/diffblue</text>
<text text-anchor="start" x="378" y="-118.5" font-family="Helvetica,sans-Serif" font-size="10.00">&#45;cbmc/diffblue&#45;cbmc/src</text>
<text text-anchor="start" x="378" y="-107.5" font-family="Helvetica,sans-Serif" font-size="10.00">/goto&#45;instrument/accelerate</text>
<text text-anchor="middle" x="446" y="-96.5" font-family="Helvetica,sans-Serif" font-size="10.00">/sat_path_enumerator.cpp</text>
</a>
</g>
</g>
<!-- Node7&#45;&gt;Node8 -->
<g id="edge8" class="edge">
<title>Node7&#45;&gt;Node8</title>
<path fill="none" stroke="midnightblue" d="M381.34,-171.65C392.95,-161.75 405.58,-150.98 416.56,-141.61"/>
<polygon fill="midnightblue" stroke="midnightblue" points="378.84,-169.18 373.5,-178.34 383.38,-174.51 378.84,-169.18"/>
</g>
</g>
</svg>
