<?xml version="1.0" encoding="UTF-8" standalone="no"?>
<!DOCTYPE svg PUBLIC "-//W3C//DTD SVG 1.1//EN"
 "http://www.w3.org/Graphics/SVG/1.1/DTD/svg11.dtd">
<!-- Generated by graphviz version 2.43.0 (0)
 -->
<!-- Title: /home/runner/work/diffblue&#45;cbmc/diffblue&#45;cbmc/src/util/pointer_predicates.h Pages: 1 -->
<svg width="5525pt" height="150pt"
 viewBox="0.00 0.00 5524.50 150.00" xmlns="http://www.w3.org/2000/svg" xmlns:xlink="http://www.w3.org/1999/xlink">
<g id="graph0" class="graph" transform="scale(1 1) rotate(0) translate(4 146)">
<title>/home/runner/work/diffblue&#45;cbmc/diffblue&#45;cbmc/src/util/pointer_predicates.h</title>
<!-- Node1 -->
<g id="node1" class="node">
<title>Node1</title>
<g id="a_node1"><a xlink:title="Various predicates over pointers in programs.">
<polygon fill="#bfbfbf" stroke="black" points="2721,-100.5 2721,-141.5 2870,-141.5 2870,-100.5 2721,-100.5"/>
<text text-anchor="start" x="2729" y="-129.5" font-family="Helvetica,sans-Serif" font-size="10.00">/home/runner/work/diffblue</text>
<text text-anchor="start" x="2729" y="-118.5" font-family="Helvetica,sans-Serif" font-size="10.00">&#45;cbmc/diffblue&#45;cbmc/src</text>
<text text-anchor="middle" x="2795.5" y="-107.5" font-family="Helvetica,sans-Serif" font-size="10.00">/util/pointer_predicates.h</text>
</a>
</g>
</g>
<!-- Node2 -->
<g id="node2" class="node">
<title>Node2</title>
<g id="a_node2"><a xlink:href="c__typecheck__expr_8cpp.html" target="_top" xlink:title="ANSI&#45;C Language Type Checking.">
<polygon fill="none" stroke="black" points="0,-11.5 0,-52.5 159,-52.5 159,-11.5 0,-11.5"/>
<text text-anchor="start" x="8" y="-40.5" font-family="Helvetica,sans-Serif" font-size="10.00">/home/runner/work/diffblue</text>
<text text-anchor="start" x="8" y="-29.5" font-family="Helvetica,sans-Serif" font-size="10.00">&#45;cbmc/diffblue&#45;cbmc/src</text>
<text text-anchor="middle" x="79.5" y="-18.5" font-family="Helvetica,sans-Serif" font-size="10.00">/ansi&#45;c/c_typecheck_expr.cpp</text>
</a>
</g>
</g>
<!-- Node1&#45;&gt;Node2 -->
<g id="edge1" class="edge">
<title>Node1&#45;&gt;Node2</title>
<path fill="none" stroke="midnightblue" d="M2710.6,-119.79C2288.08,-118.52 422.06,-110.32 167.5,-64 153.79,-61.51 139.37,-57.19 126.25,-52.56"/>
<polygon fill="midnightblue" stroke="midnightblue" points="2710.9,-123.29 2720.91,-119.82 2710.92,-116.29 2710.9,-123.29"/>
</g>
<!-- Node3 -->
<g id="node3" class="node">
<title>Node3</title>
<g id="a_node3"><a xlink:href="goto__check__c_8cpp.html" target="_top" xlink:title="Checks for Errors in C/C++ Programs.">
<polygon fill="none" stroke="black" points="177,-6 177,-58 332,-58 332,-6 177,-6"/>
<text text-anchor="start" x="185" y="-46" font-family="Helvetica,sans-Serif" font-size="10.00">/home/runner/work/diffblue</text>
<text text-anchor="start" x="185" y="-35" font-family="Helvetica,sans-Serif" font-size="10.00">&#45;cbmc/diffblue&#45;cbmc/src</text>
<text text-anchor="start" x="185" y="-24" font-family="Helvetica,sans-Serif" font-size="10.00">/ansi&#45;c/goto&#45;conversion/goto</text>
<text text-anchor="middle" x="254.5" y="-13" font-family="Helvetica,sans-Serif" font-size="10.00">_check_c.cpp</text>
</a>
</g>
</g>
<!-- Node1&#45;&gt;Node3 -->
<g id="edge2" class="edge">
<title>Node1&#45;&gt;Node3</title>
<path fill="none" stroke="midnightblue" d="M2710.63,-119.69C2305.37,-117.97 577.02,-108.11 340.5,-64 332.7,-62.55 324.66,-60.48 316.79,-58.09"/>
<polygon fill="midnightblue" stroke="midnightblue" points="2710.8,-123.19 2720.81,-119.73 2710.83,-116.19 2710.8,-123.19"/>
</g>
<!-- Node4 -->
<g id="node4" class="node">
<title>Node4</title>
<g id="a_node4"><a xlink:href="axioms_8cpp.html" target="_top" xlink:title="Axioms.">
<polygon fill="none" stroke="black" points="350,-11.5 350,-52.5 499,-52.5 499,-11.5 350,-11.5"/>
<text text-anchor="start" x="358" y="-40.5" font-family="Helvetica,sans-Serif" font-size="10.00">/home/runner/work/diffblue</text>
<text text-anchor="start" x="358" y="-29.5" font-family="Helvetica,sans-Serif" font-size="10.00">&#45;cbmc/diffblue&#45;cbmc/src</text>
<text text-anchor="middle" x="424.5" y="-18.5" font-family="Helvetica,sans-Serif" font-size="10.00">/cprover/axioms.cpp</text>
</a>
</g>
</g>
<!-- Node1&#45;&gt;Node4 -->
<g id="edge3" class="edge">
<title>Node1&#45;&gt;Node4</title>
<path fill="none" stroke="midnightblue" d="M2710.74,-119.59C2322.85,-117.5 726.58,-106.35 507.5,-64 494.51,-61.49 480.88,-57.17 468.51,-52.53"/>
<polygon fill="midnightblue" stroke="midnightblue" points="2710.75,-123.09 2720.77,-119.64 2710.79,-116.09 2710.75,-123.09"/>
</g>
<!-- Node5 -->
<g id="node5" class="node">
<title>Node5</title>
<g id="a_node5"><a xlink:href="bv__pointers__wide_8cpp.html" target="_top" xlink:title=" ">
<polygon fill="none" stroke="black" points="517,-11.5 517,-52.5 682,-52.5 682,-11.5 517,-11.5"/>
<text text-anchor="start" x="525" y="-40.5" font-family="Helvetica,sans-Serif" font-size="10.00">/home/runner/work/diffblue</text>
<text text-anchor="start" x="525" y="-29.5" font-family="Helvetica,sans-Serif" font-size="10.00">&#45;cbmc/diffblue&#45;cbmc/src</text>
<text text-anchor="middle" x="599.5" y="-18.5" font-family="Helvetica,sans-Serif" font-size="10.00">/cprover/bv_pointers_wide.cpp</text>
</a>
</g>
</g>
<!-- Node1&#45;&gt;Node5 -->
<g id="edge4" class="edge">
<title>Node1&#45;&gt;Node5</title>
<path fill="none" stroke="midnightblue" d="M2710.73,-119.24C2342.62,-115.71 892.27,-99.67 691.5,-64 677.23,-61.46 662.16,-57.13 648.45,-52.5"/>
<polygon fill="midnightblue" stroke="midnightblue" points="2710.75,-122.74 2720.78,-119.33 2710.82,-115.74 2710.75,-122.74"/>
</g>
<!-- Node6 -->
<g id="node6" class="node">
<title>Node6</title>
<g id="a_node6"><a xlink:href="c__safety__checks_8cpp.html" target="_top" xlink:title="Checks for Errors in C/C++ Programs.">
<polygon fill="none" stroke="black" points="700.5,-11.5 700.5,-52.5 860.5,-52.5 860.5,-11.5 700.5,-11.5"/>
<text text-anchor="start" x="708.5" y="-40.5" font-family="Helvetica,sans-Serif" font-size="10.00">/home/runner/work/diffblue</text>
<text text-anchor="start" x="708.5" y="-29.5" font-family="Helvetica,sans-Serif" font-size="10.00">&#45;cbmc/diffblue&#45;cbmc/src</text>
<text text-anchor="middle" x="780.5" y="-18.5" font-family="Helvetica,sans-Serif" font-size="10.00">/cprover/c_safety_checks.cpp</text>
</a>
</g>
</g>
<!-- Node1&#45;&gt;Node6 -->
<g id="edge5" class="edge">
<title>Node1&#45;&gt;Node6</title>
<path fill="none" stroke="midnightblue" d="M2710.81,-119.06C2362.7,-115 1051.83,-97.58 869.5,-64 855.82,-61.48 841.42,-57.22 828.27,-52.65"/>
<polygon fill="midnightblue" stroke="midnightblue" points="2710.78,-122.56 2720.82,-119.18 2710.86,-115.56 2710.78,-122.56"/>
</g>
<!-- Node7 -->
<g id="node7" class="node">
<title>Node7</title>
<g id="a_node7"><a xlink:href="instrument__contracts_8cpp.html" target="_top" xlink:title="Instrument Contracts.">
<polygon fill="none" stroke="black" points="879,-11.5 879,-52.5 1062,-52.5 1062,-11.5 879,-11.5"/>
<text text-anchor="start" x="887" y="-40.5" font-family="Helvetica,sans-Serif" font-size="10.00">/home/runner/work/diffblue</text>
<text text-anchor="start" x="887" y="-29.5" font-family="Helvetica,sans-Serif" font-size="10.00">&#45;cbmc/diffblue&#45;cbmc/src</text>
<text text-anchor="middle" x="970.5" y="-18.5" font-family="Helvetica,sans-Serif" font-size="10.00">/cprover/instrument_contracts.cpp</text>
</a>
</g>
</g>
<!-- Node1&#45;&gt;Node7 -->
<g id="edge6" class="edge">
<title>Node1&#45;&gt;Node7</title>
<path fill="none" stroke="midnightblue" d="M2710.18,-120.22C2408.36,-120.51 1392.07,-117.43 1071.5,-64 1056.03,-61.42 1039.63,-57.11 1024.64,-52.51"/>
<polygon fill="midnightblue" stroke="midnightblue" points="2710.62,-123.72 2720.62,-120.2 2710.61,-116.72 2710.62,-123.72"/>
</g>
<!-- Node8 -->
<g id="node8" class="node">
<title>Node8</title>
<g id="a_node8"><a xlink:href="may__be__same__object_8cpp.html" target="_top" xlink:title="May Be Same Object.">
<polygon fill="none" stroke="black" points="1080.5,-11.5 1080.5,-52.5 1266.5,-52.5 1266.5,-11.5 1080.5,-11.5"/>
<text text-anchor="start" x="1088.5" y="-40.5" font-family="Helvetica,sans-Serif" font-size="10.00">/home/runner/work/diffblue</text>
<text text-anchor="start" x="1088.5" y="-29.5" font-family="Helvetica,sans-Serif" font-size="10.00">&#45;cbmc/diffblue&#45;cbmc/src</text>
<text text-anchor="middle" x="1173.5" y="-18.5" font-family="Helvetica,sans-Serif" font-size="10.00">/cprover/may_be_same_object.cpp</text>
</a>
</g>
</g>
<!-- Node1&#45;&gt;Node8 -->
<g id="edge7" class="edge">
<title>Node1&#45;&gt;Node8</title>
<path fill="none" stroke="midnightblue" d="M2710.54,-119.75C2432.99,-118.48 1554.79,-110.77 1275.5,-64 1259.98,-61.4 1243.53,-57.11 1228.46,-52.54"/>
<polygon fill="midnightblue" stroke="midnightblue" points="2710.54,-123.25 2720.55,-119.79 2710.57,-116.25 2710.54,-123.25"/>
</g>
<!-- Node9 -->
<g id="node9" class="node">
<title>Node9</title>
<g id="a_node9"><a xlink:href="simplify__state__expr_8cpp.html" target="_top" xlink:title="Simplify State Expressions.">
<polygon fill="none" stroke="black" points="1285,-11.5 1285,-52.5 1460,-52.5 1460,-11.5 1285,-11.5"/>
<text text-anchor="start" x="1293" y="-40.5" font-family="Helvetica,sans-Serif" font-size="10.00">/home/runner/work/diffblue</text>
<text text-anchor="start" x="1293" y="-29.5" font-family="Helvetica,sans-Serif" font-size="10.00">&#45;cbmc/diffblue&#45;cbmc/src</text>
<text text-anchor="middle" x="1372.5" y="-18.5" font-family="Helvetica,sans-Serif" font-size="10.00">/cprover/simplify_state_expr.cpp</text>
</a>
</g>
</g>
<!-- Node1&#45;&gt;Node9 -->
<g id="edge8" class="edge">
<title>Node1&#45;&gt;Node9</title>
<path fill="none" stroke="midnightblue" d="M2710.71,-119.41C2457.31,-117.17 1708.46,-106.99 1468.5,-64 1453.85,-61.37 1438.34,-57.08 1424.16,-52.5"/>
<polygon fill="midnightblue" stroke="midnightblue" points="2710.93,-122.91 2720.96,-119.5 2710.99,-115.91 2710.93,-122.91"/>
</g>
<!-- Node10 -->
<g id="node10" class="node">
<title>Node10</title>
<g id="a_node10"><a xlink:href="dfcc_8cpp.html" target="_top" xlink:title=" ">
<polygon fill="none" stroke="black" points="1478,-6 1478,-58 1627,-58 1627,-6 1478,-6"/>
<text text-anchor="start" x="1486" y="-46" font-family="Helvetica,sans-Serif" font-size="10.00">/home/runner/work/diffblue</text>
<text text-anchor="start" x="1486" y="-35" font-family="Helvetica,sans-Serif" font-size="10.00">&#45;cbmc/diffblue&#45;cbmc/src</text>
<text text-anchor="start" x="1486" y="-24" font-family="Helvetica,sans-Serif" font-size="10.00">/goto&#45;instrument/contracts</text>
<text text-anchor="middle" x="1552.5" y="-13" font-family="Helvetica,sans-Serif" font-size="10.00">/dynamic&#45;frames/dfcc.cpp</text>
</a>
</g>
</g>
<!-- Node1&#45;&gt;Node10 -->
<g id="edge9" class="edge">
<title>Node1&#45;&gt;Node10</title>
<path fill="none" stroke="midnightblue" d="M2710.71,-119.25C2479.56,-116.66 1841.95,-105.84 1636.5,-64 1629.04,-62.48 1621.35,-60.41 1613.81,-58.05"/>
<polygon fill="midnightblue" stroke="midnightblue" points="2710.71,-122.75 2720.75,-119.36 2710.79,-115.75 2710.71,-122.75"/>
</g>
<!-- Node11 -->
<g id="node11" class="node">
<title>Node11</title>
<g id="a_node11"><a xlink:href="dfcc__instrument_8cpp.html" target="_top" xlink:title=" ">
<polygon fill="none" stroke="black" points="1645.5,-6 1645.5,-58 1847.5,-58 1847.5,-6 1645.5,-6"/>
<text text-anchor="start" x="1653.5" y="-46" font-family="Helvetica,sans-Serif" font-size="10.00">/home/runner/work/diffblue</text>
<text text-anchor="start" x="1653.5" y="-35" font-family="Helvetica,sans-Serif" font-size="10.00">&#45;cbmc/diffblue&#45;cbmc/src</text>
<text text-anchor="start" x="1653.5" y="-24" font-family="Helvetica,sans-Serif" font-size="10.00">/goto&#45;instrument/contracts</text>
<text text-anchor="middle" x="1746.5" y="-13" font-family="Helvetica,sans-Serif" font-size="10.00">/dynamic&#45;frames/dfcc_instrument.cpp</text>
</a>
</g>
</g>
<!-- Node1&#45;&gt;Node11 -->
<g id="edge10" class="edge">
<title>Node1&#45;&gt;Node11</title>
<path fill="none" stroke="midnightblue" d="M2710.55,-117.27C2511.49,-110.51 2019.43,-91.49 1856.5,-64 1847.11,-62.42 1837.37,-60.34 1827.75,-58"/>
<polygon fill="midnightblue" stroke="midnightblue" points="2710.55,-120.78 2720.66,-117.62 2710.79,-113.78 2710.55,-120.78"/>
</g>
<!-- Node12 -->
<g id="node12" class="node">
<title>Node12</title>
<g id="a_node12"><a xlink:href="dfcc__library_8cpp.html" target="_top" xlink:title=" ">
<polygon fill="none" stroke="black" points="1866,-6 1866,-58 2045,-58 2045,-6 1866,-6"/>
<text text-anchor="start" x="1874" y="-46" font-family="Helvetica,sans-Serif" font-size="10.00">/home/runner/work/diffblue</text>
<text text-anchor="start" x="1874" y="-35" font-family="Helvetica,sans-Serif" font-size="10.00">&#45;cbmc/diffblue&#45;cbmc/src</text>
<text text-anchor="start" x="1874" y="-24" font-family="Helvetica,sans-Serif" font-size="10.00">/goto&#45;instrument/contracts</text>
<text text-anchor="middle" x="1955.5" y="-13" font-family="Helvetica,sans-Serif" font-size="10.00">/dynamic&#45;frames/dfcc_library.cpp</text>
</a>
</g>
</g>
<!-- Node1&#45;&gt;Node12 -->
<g id="edge11" class="edge">
<title>Node1&#45;&gt;Node12</title>
<path fill="none" stroke="midnightblue" d="M2710.62,-119.93C2571.89,-118.42 2288.46,-109.39 2053.5,-64 2045.27,-62.41 2036.75,-60.36 2028.34,-58.07"/>
<polygon fill="midnightblue" stroke="midnightblue" points="2710.73,-123.44 2720.76,-120.03 2710.8,-116.44 2710.73,-123.44"/>
</g>
<!-- Node13 -->
<g id="node13" class="node">
<title>Node13</title>
<g id="a_node13"><a xlink:href="dfcc__swap__and__wrap_8cpp.html" target="_top" xlink:title=" ">
<polygon fill="none" stroke="black" points="2063,-0.5 2063,-63.5 2240,-63.5 2240,-0.5 2063,-0.5"/>
<text text-anchor="start" x="2071" y="-51.5" font-family="Helvetica,sans-Serif" font-size="10.00">/home/runner/work/diffblue</text>
<text text-anchor="start" x="2071" y="-40.5" font-family="Helvetica,sans-Serif" font-size="10.00">&#45;cbmc/diffblue&#45;cbmc/src</text>
<text text-anchor="start" x="2071" y="-29.5" font-family="Helvetica,sans-Serif" font-size="10.00">/goto&#45;instrument/contracts</text>
<text text-anchor="start" x="2071" y="-18.5" font-family="Helvetica,sans-Serif" font-size="10.00">/dynamic&#45;frames/dfcc_swap_and</text>
<text text-anchor="middle" x="2151.5" y="-7.5" font-family="Helvetica,sans-Serif" font-size="10.00">_wrap.cpp</text>
</a>
</g>
</g>
<!-- Node1&#45;&gt;Node13 -->
<g id="edge12" class="edge">
<title>Node1&#45;&gt;Node13</title>
<path fill="none" stroke="midnightblue" d="M2710.67,-116.76C2602.42,-111.39 2409.87,-97.67 2248.5,-64 2245.73,-63.42 2242.93,-62.8 2240.11,-62.13"/>
<polygon fill="midnightblue" stroke="midnightblue" points="2710.72,-120.27 2720.88,-117.26 2711.06,-113.28 2710.72,-120.27"/>
</g>
<!-- Node14 -->
<g id="node14" class="node">
<title>Node14</title>
<g id="a_node14"><a xlink:href="instrument__spec__assigns_8cpp.html" target="_top" xlink:title="Specify write set in code contracts.">
<polygon fill="none" stroke="black" points="2258,-6 2258,-58 2421,-58 2421,-6 2258,-6"/>
<text text-anchor="start" x="2266" y="-46" font-family="Helvetica,sans-Serif" font-size="10.00">/home/runner/work/diffblue</text>
<text text-anchor="start" x="2266" y="-35" font-family="Helvetica,sans-Serif" font-size="10.00">&#45;cbmc/diffblue&#45;cbmc/src</text>
<text text-anchor="start" x="2266" y="-24" font-family="Helvetica,sans-Serif" font-size="10.00">/goto&#45;instrument/contracts</text>
<text text-anchor="middle" x="2339.5" y="-13" font-family="Helvetica,sans-Serif" font-size="10.00">/instrument_spec_assigns.cpp</text>
</a>
</g>
</g>
<!-- Node1&#45;&gt;Node14 -->
<g id="edge13" class="edge">
<title>Node1&#45;&gt;Node14</title>
<path fill="none" stroke="midnightblue" d="M2710.48,-111.38C2635.75,-102.77 2524.43,-87.41 2429.5,-64 2422.6,-62.3 2415.48,-60.29 2408.41,-58.14"/>
<polygon fill="midnightblue" stroke="midnightblue" points="2710.44,-114.9 2720.77,-112.55 2711.23,-107.94 2710.44,-114.9"/>
</g>
<!-- Node15 -->
<g id="node15" class="node">
<title>Node15</title>
<g id="a_node15"><a xlink:href="utils_8cpp.html" target="_top" xlink:title=" ">
<polygon fill="none" stroke="black" points="2439,-6 2439,-58 2588,-58 2588,-6 2439,-6"/>
<text text-anchor="start" x="2447" y="-46" font-family="Helvetica,sans-Serif" font-size="10.00">/home/runner/work/diffblue</text>
<text text-anchor="start" x="2447" y="-35" font-family="Helvetica,sans-Serif" font-size="10.00">&#45;cbmc/diffblue&#45;cbmc/src</text>
<text text-anchor="start" x="2447" y="-24" font-family="Helvetica,sans-Serif" font-size="10.00">/goto&#45;instrument/contracts</text>
<text text-anchor="middle" x="2513.5" y="-13" font-family="Helvetica,sans-Serif" font-size="10.00">/utils.cpp</text>
</a>
</g>
</g>
<!-- Node1&#45;&gt;Node15 -->
<g id="edge14" class="edge">
<title>Node1&#45;&gt;Node15</title>
<path fill="none" stroke="midnightblue" d="M2711.02,-97.89C2675.46,-88.16 2633.76,-76.18 2596.5,-64 2590.8,-62.14 2584.91,-60.12 2579.02,-58.04"/>
<polygon fill="midnightblue" stroke="midnightblue" points="2710.31,-101.33 2720.87,-100.58 2712.15,-94.57 2710.31,-101.33"/>
</g>
<!-- Node16 -->
<g id="node16" class="node">
<title>Node16</title>
<g id="a_node16"><a xlink:href="race__check_8cpp.html" target="_top" xlink:title="Race Detection for Threaded Goto Programs.">
<polygon fill="none" stroke="black" points="2605.5,-11.5 2605.5,-52.5 2781.5,-52.5 2781.5,-11.5 2605.5,-11.5"/>
<text text-anchor="start" x="2613.5" y="-40.5" font-family="Helvetica,sans-Serif" font-size="10.00">/home/runner/work/diffblue</text>
<text text-anchor="start" x="2613.5" y="-29.5" font-family="Helvetica,sans-Serif" font-size="10.00">&#45;cbmc/diffblue&#45;cbmc/src</text>
<text text-anchor="middle" x="2693.5" y="-18.5" font-family="Helvetica,sans-Serif" font-size="10.00">/goto&#45;instrument/race_check.cpp</text>
</a>
</g>
</g>
<!-- Node1&#45;&gt;Node16 -->
<g id="edge15" class="edge">
<title>Node1&#45;&gt;Node16</title>
<path fill="none" stroke="midnightblue" d="M2764.83,-93.84C2749.37,-80.65 2730.93,-64.92 2716.67,-52.76"/>
<polygon fill="midnightblue" stroke="midnightblue" points="2762.73,-96.65 2772.61,-100.48 2767.27,-91.32 2762.73,-96.65"/>
</g>
<!-- Node17 -->
<g id="node17" class="node">
<title>Node17</title>
<g id="a_node17"><a xlink:href="graphml__witness_8cpp.html" target="_top" xlink:title="Witnesses for Traces and Proofs.">
<polygon fill="none" stroke="black" points="2799.5,-11.5 2799.5,-52.5 2997.5,-52.5 2997.5,-11.5 2799.5,-11.5"/>
<text text-anchor="start" x="2807.5" y="-40.5" font-family="Helvetica,sans-Serif" font-size="10.00">/home/runner/work/diffblue</text>
<text text-anchor="start" x="2807.5" y="-29.5" font-family="Helvetica,sans-Serif" font-size="10.00">&#45;cbmc/diffblue&#45;cbmc/src</text>
<text text-anchor="middle" x="2898.5" y="-18.5" font-family="Helvetica,sans-Serif" font-size="10.00">/goto&#45;programs/graphml_witness.cpp</text>
</a>
</g>
</g>
<!-- Node1&#45;&gt;Node17 -->
<g id="edge16" class="edge">
<title>Node1&#45;&gt;Node17</title>
<path fill="none" stroke="midnightblue" d="M2826.47,-93.84C2842.08,-80.65 2860.71,-64.92 2875.11,-52.76"/>
<polygon fill="midnightblue" stroke="midnightblue" points="2824,-91.35 2818.62,-100.48 2828.51,-96.7 2824,-91.35"/>
</g>
<!-- Node18 -->
<g id="node18" class="node">
<title>Node18</title>
<g id="a_node18"><a xlink:href="mm__io_8cpp.html" target="_top" xlink:title="Perform Memory&#45;mapped I/O instrumentation.">
<polygon fill="none" stroke="black" points="3016,-11.5 3016,-52.5 3165,-52.5 3165,-11.5 3016,-11.5"/>
<text text-anchor="start" x="3024" y="-40.5" font-family="Helvetica,sans-Serif" font-size="10.00">/home/runner/work/diffblue</text>
<text text-anchor="start" x="3024" y="-29.5" font-family="Helvetica,sans-Serif" font-size="10.00">&#45;cbmc/diffblue&#45;cbmc/src</text>
<text text-anchor="middle" x="3090.5" y="-18.5" font-family="Helvetica,sans-Serif" font-size="10.00">/goto&#45;programs/mm_io.cpp</text>
</a>
</g>
</g>
<!-- Node1&#45;&gt;Node18 -->
<g id="edge17" class="edge">
<title>Node1&#45;&gt;Node18</title>
<path fill="none" stroke="midnightblue" d="M2880.39,-99.41C2919.1,-89.53 2965.37,-77.02 3006.5,-64 3017.32,-60.58 3028.8,-56.58 3039.68,-52.63"/>
<polygon fill="midnightblue" stroke="midnightblue" points="2879.04,-96.14 2870.21,-102 2880.76,-102.93 2879.04,-96.14"/>
</g>
<!-- Node19 -->
<g id="node19" class="node">
<title>Node19</title>
<g id="a_node19"><a xlink:href="string__abstraction_8cpp.html" target="_top" xlink:title="String Abstraction.">
<polygon fill="none" stroke="black" points="3183,-11.5 3183,-52.5 3386,-52.5 3386,-11.5 3183,-11.5"/>
<text text-anchor="start" x="3191" y="-40.5" font-family="Helvetica,sans-Serif" font-size="10.00">/home/runner/work/diffblue</text>
<text text-anchor="start" x="3191" y="-29.5" font-family="Helvetica,sans-Serif" font-size="10.00">&#45;cbmc/diffblue&#45;cbmc/src</text>
<text text-anchor="middle" x="3284.5" y="-18.5" font-family="Helvetica,sans-Serif" font-size="10.00">/goto&#45;programs/string_abstraction.cpp</text>
</a>
</g>
</g>
<!-- Node1&#45;&gt;Node19 -->
<g id="edge18" class="edge">
<title>Node1&#45;&gt;Node19</title>
<path fill="none" stroke="midnightblue" d="M2880.23,-110.63C2957.41,-101.35 3074.28,-85.43 3174.5,-64 3189.54,-60.78 3205.55,-56.67 3220.57,-52.51"/>
<polygon fill="midnightblue" stroke="midnightblue" points="2879.59,-107.18 2870.08,-111.84 2880.42,-114.13 2879.59,-107.18"/>
</g>
<!-- Node20 -->
<g id="node20" class="node">
<title>Node20</title>
<g id="a_node20"><a xlink:href="symex__builtin__functions_8cpp.html" target="_top" xlink:title="Symbolic Execution of ANSI&#45;C.">
<polygon fill="none" stroke="black" points="3403.5,-6 3403.5,-58 3553.5,-58 3553.5,-6 3403.5,-6"/>
<text text-anchor="start" x="3411.5" y="-46" font-family="Helvetica,sans-Serif" font-size="10.00">/home/runner/work/diffblue</text>
<text text-anchor="start" x="3411.5" y="-35" font-family="Helvetica,sans-Serif" font-size="10.00">&#45;cbmc/diffblue&#45;cbmc/src</text>
<text text-anchor="start" x="3411.5" y="-24" font-family="Helvetica,sans-Serif" font-size="10.00">/goto&#45;symex/symex_builtin</text>
<text text-anchor="middle" x="3478.5" y="-13" font-family="Helvetica,sans-Serif" font-size="10.00">_functions.cpp</text>
</a>
</g>
</g>
<!-- Node1&#45;&gt;Node20 -->
<g id="edge19" class="edge">
<title>Node1&#45;&gt;Node20</title>
<path fill="none" stroke="midnightblue" d="M2880.74,-119.09C2998.09,-116.26 3215.34,-105.28 3395.5,-64 3402.55,-62.39 3409.8,-60.32 3416.96,-58.02"/>
<polygon fill="midnightblue" stroke="midnightblue" points="2880.31,-115.6 2870.4,-119.33 2880.47,-122.6 2880.31,-115.6"/>
</g>
<!-- Node21 -->
<g id="node21" class="node">
<title>Node21</title>
<g id="a_node21"><a xlink:href="cegis__verifier_8cpp.html" target="_top" xlink:title="Verifier for Counterexample&#45;Guided Synthesis.">
<polygon fill="none" stroke="black" points="3572,-11.5 3572,-52.5 3761,-52.5 3761,-11.5 3572,-11.5"/>
<text text-anchor="start" x="3580" y="-40.5" font-family="Helvetica,sans-Serif" font-size="10.00">/home/runner/work/diffblue</text>
<text text-anchor="start" x="3580" y="-29.5" font-family="Helvetica,sans-Serif" font-size="10.00">&#45;cbmc/diffblue&#45;cbmc/src</text>
<text text-anchor="middle" x="3666.5" y="-18.5" font-family="Helvetica,sans-Serif" font-size="10.00">/goto&#45;synthesizer/cegis_verifier.cpp</text>
</a>
</g>
</g>
<!-- Node1&#45;&gt;Node21 -->
<g id="edge20" class="edge">
<title>Node1&#45;&gt;Node21</title>
<path fill="none" stroke="midnightblue" d="M2880.62,-119.78C3022.96,-118.08 3317.79,-108.86 3562.5,-64 3577.79,-61.2 3594.02,-56.98 3609.01,-52.55"/>
<polygon fill="midnightblue" stroke="midnightblue" points="2880.18,-116.29 2870.22,-119.89 2880.26,-123.29 2880.18,-116.29"/>
</g>
<!-- Node22 -->
<g id="node22" class="node">
<title>Node22</title>
<g id="a_node22"><a xlink:href="enumerative__loop__contracts__synthesizer_8cpp.html" target="_top" xlink:title="Enumerative Loop Contracts Synthesizer.">
<polygon fill="none" stroke="black" points="3779.5,-6 3779.5,-58 3953.5,-58 3953.5,-6 3779.5,-6"/>
<text text-anchor="start" x="3787.5" y="-46" font-family="Helvetica,sans-Serif" font-size="10.00">/home/runner/work/diffblue</text>
<text text-anchor="start" x="3787.5" y="-35" font-family="Helvetica,sans-Serif" font-size="10.00">&#45;cbmc/diffblue&#45;cbmc/src</text>
<text text-anchor="start" x="3787.5" y="-24" font-family="Helvetica,sans-Serif" font-size="10.00">/goto&#45;synthesizer/enumerative</text>
<text text-anchor="middle" x="3866.5" y="-13" font-family="Helvetica,sans-Serif" font-size="10.00">_loop_contracts_synthesizer.cpp</text>
</a>
</g>
</g>
<!-- Node1&#45;&gt;Node22 -->
<g id="edge21" class="edge">
<title>Node1&#45;&gt;Node22</title>
<path fill="none" stroke="midnightblue" d="M2880.11,-117.91C3084.52,-112.4 3600.87,-95.72 3770.5,-64 3778.85,-62.44 3787.48,-60.36 3795.99,-58.01"/>
<polygon fill="midnightblue" stroke="midnightblue" points="2879.93,-114.41 2870.03,-118.18 2880.12,-121.41 2879.93,-114.41"/>
</g>
<!-- Node23 -->
<g id="node23" class="node">
<title>Node23</title>
<g id="a_node23"><a xlink:href="value__set__dereference_8cpp.html" target="_top" xlink:title="Symbolic Execution of ANSI&#45;C.">
<polygon fill="none" stroke="black" points="3972,-6 3972,-58 4121,-58 4121,-6 3972,-6"/>
<text text-anchor="start" x="3980" y="-46" font-family="Helvetica,sans-Serif" font-size="10.00">/home/runner/work/diffblue</text>
<text text-anchor="start" x="3980" y="-35" font-family="Helvetica,sans-Serif" font-size="10.00">&#45;cbmc/diffblue&#45;cbmc/src</text>
<text text-anchor="start" x="3980" y="-24" font-family="Helvetica,sans-Serif" font-size="10.00">/pointer&#45;analysis/value_set</text>
<text text-anchor="middle" x="4046.5" y="-13" font-family="Helvetica,sans-Serif" font-size="10.00">_dereference.cpp</text>
</a>
</g>
</g>
<!-- Node1&#45;&gt;Node23 -->
<g id="edge22" class="edge">
<title>Node1&#45;&gt;Node23</title>
<path fill="none" stroke="midnightblue" d="M2880.46,-119.28C3112.86,-116.77 3755.51,-106.12 3962.5,-64 3969.96,-62.48 3977.65,-60.41 3985.19,-58.05"/>
<polygon fill="midnightblue" stroke="midnightblue" points="2880.33,-115.78 2870.37,-119.39 2880.41,-122.78 2880.33,-115.78"/>
</g>
<!-- Node24 -->
<g id="node24" class="node">
<title>Node24</title>
<g id="a_node24"><a xlink:href="bv__pointers_8cpp.html" target="_top" xlink:title=" ">
<polygon fill="none" stroke="black" points="4139,-11.5 4139,-52.5 4324,-52.5 4324,-11.5 4139,-11.5"/>
<text text-anchor="start" x="4147" y="-40.5" font-family="Helvetica,sans-Serif" font-size="10.00">/home/runner/work/diffblue</text>
<text text-anchor="start" x="4147" y="-29.5" font-family="Helvetica,sans-Serif" font-size="10.00">&#45;cbmc/diffblue&#45;cbmc/src</text>
<text text-anchor="middle" x="4231.5" y="-18.5" font-family="Helvetica,sans-Serif" font-size="10.00">/solvers/flattening/bv_pointers.cpp</text>
</a>
</g>
</g>
<!-- Node1&#45;&gt;Node24 -->
<g id="edge23" class="edge">
<title>Node1&#45;&gt;Node24</title>
<path fill="none" stroke="midnightblue" d="M2880.33,-119.27C3134.75,-116.65 3888.64,-105.48 4130.5,-64 4145.78,-61.38 4161.97,-57.11 4176.82,-52.57"/>
<polygon fill="midnightblue" stroke="midnightblue" points="2880.01,-115.78 2870.04,-119.38 2880.08,-122.78 2880.01,-115.78"/>
</g>
<!-- Node25 -->
<g id="node25" class="node">
<title>Node25</title>
<g id="a_node25"><a xlink:href="pointer__logic_8cpp.html" target="_top" xlink:title="Pointer Logic.">
<polygon fill="none" stroke="black" points="4342,-6 4342,-58 4491,-58 4491,-6 4342,-6"/>
<text text-anchor="start" x="4350" y="-46" font-family="Helvetica,sans-Serif" font-size="10.00">/home/runner/work/diffblue</text>
<text text-anchor="start" x="4350" y="-35" font-family="Helvetica,sans-Serif" font-size="10.00">&#45;cbmc/diffblue&#45;cbmc/src</text>
<text text-anchor="start" x="4350" y="-24" font-family="Helvetica,sans-Serif" font-size="10.00">/solvers/flattening/pointer</text>
<text text-anchor="middle" x="4416.5" y="-13" font-family="Helvetica,sans-Serif" font-size="10.00">_logic.cpp</text>
</a>
</g>
</g>
<!-- Node1&#45;&gt;Node25 -->
<g id="edge24" class="edge">
<title>Node1&#45;&gt;Node25</title>
<path fill="none" stroke="midnightblue" d="M2880.14,-120.48C3159.75,-121.5 4052.02,-120.16 4333.5,-64 4340.89,-62.53 4348.49,-60.48 4355.96,-58.14"/>
<polygon fill="midnightblue" stroke="midnightblue" points="2880.07,-116.98 2870.06,-120.44 2880.05,-123.98 2880.07,-116.98"/>
</g>
<!-- Node26 -->
<g id="node26" class="node">
<title>Node26</title>
<g id="a_node26"><a xlink:href="smt2__conv_8cpp.html" target="_top" xlink:title="SMT Backend.">
<polygon fill="none" stroke="black" points="4508.5,-11.5 4508.5,-52.5 4666.5,-52.5 4666.5,-11.5 4508.5,-11.5"/>
<text text-anchor="start" x="4516.5" y="-40.5" font-family="Helvetica,sans-Serif" font-size="10.00">/home/runner/work/diffblue</text>
<text text-anchor="start" x="4516.5" y="-29.5" font-family="Helvetica,sans-Serif" font-size="10.00">&#45;cbmc/diffblue&#45;cbmc/src</text>
<text text-anchor="middle" x="4587.5" y="-18.5" font-family="Helvetica,sans-Serif" font-size="10.00">/solvers/smt2/smt2_conv.cpp</text>
</a>
</g>
</g>
<!-- Node1&#45;&gt;Node26 -->
<g id="edge25" class="edge">
<title>Node1&#45;&gt;Node26</title>
<path fill="none" stroke="midnightblue" d="M2880.44,-118.75C3202.87,-113.79 4340.93,-94.29 4500.5,-64 4513.89,-61.46 4527.98,-57.19 4540.83,-52.61"/>
<polygon fill="midnightblue" stroke="midnightblue" points="2880.17,-115.25 2870.23,-118.91 2880.28,-122.25 2880.17,-115.25"/>
</g>
<!-- Node27 -->
<g id="node27" class="node">
<title>Node27</title>
<g id="a_node27"><a xlink:href="convert__expr__to__smt_8cpp.html" target="_top" xlink:title=" ">
<polygon fill="none" stroke="black" points="4684,-6 4684,-58 4833,-58 4833,-6 4684,-6"/>
<text text-anchor="start" x="4692" y="-46" font-family="Helvetica,sans-Serif" font-size="10.00">/home/runner/work/diffblue</text>
<text text-anchor="start" x="4692" y="-35" font-family="Helvetica,sans-Serif" font-size="10.00">&#45;cbmc/diffblue&#45;cbmc/src</text>
<text text-anchor="start" x="4692" y="-24" font-family="Helvetica,sans-Serif" font-size="10.00">/solvers/smt2_incremental</text>
<text text-anchor="middle" x="4758.5" y="-13" font-family="Helvetica,sans-Serif" font-size="10.00">/convert_expr_to_smt.cpp</text>
</a>
</g>
</g>
<!-- Node1&#45;&gt;Node27 -->
<g id="edge26" class="edge">
<title>Node1&#45;&gt;Node27</title>
<path fill="none" stroke="midnightblue" d="M2880.16,-119.11C3222.98,-115.27 4498.25,-98.75 4675.5,-64 4683.05,-62.52 4690.81,-60.44 4698.42,-58.04"/>
<polygon fill="midnightblue" stroke="midnightblue" points="2880.01,-115.61 2870.05,-119.22 2880.09,-122.61 2880.01,-115.61"/>
</g>
<!-- Node28 -->
<g id="node28" class="node">
<title>Node28</title>
<g id="a_node28"><a xlink:href="object__tracking_8cpp.html" target="_top" xlink:title=" ">
<polygon fill="none" stroke="black" points="4851,-6 4851,-58 5000,-58 5000,-6 4851,-6"/>
<text text-anchor="start" x="4859" y="-46" font-family="Helvetica,sans-Serif" font-size="10.00">/home/runner/work/diffblue</text>
<text text-anchor="start" x="4859" y="-35" font-family="Helvetica,sans-Serif" font-size="10.00">&#45;cbmc/diffblue&#45;cbmc/src</text>
<text text-anchor="start" x="4859" y="-24" font-family="Helvetica,sans-Serif" font-size="10.00">/solvers/smt2_incremental</text>
<text text-anchor="middle" x="4925.5" y="-13" font-family="Helvetica,sans-Serif" font-size="10.00">/object_tracking.cpp</text>
</a>
</g>
</g>
<!-- Node1&#45;&gt;Node28 -->
<g id="edge27" class="edge">
<title>Node1&#45;&gt;Node28</title>
<path fill="none" stroke="midnightblue" d="M2880.37,-119.33C3242.43,-116.23 4648.19,-101.85 4842.5,-64 4850.05,-62.53 4857.82,-60.45 4865.43,-58.06"/>
<polygon fill="midnightblue" stroke="midnightblue" points="2880.19,-115.83 2870.22,-119.41 2880.25,-122.83 2880.19,-115.83"/>
</g>
<!-- Node29 -->
<g id="node29" class="node">
<title>Node29</title>
<g id="a_node29"><a xlink:href="pointer__expr_8cpp.html" target="_top" xlink:title=" ">
<polygon fill="none" stroke="black" points="5018,-11.5 5018,-52.5 5167,-52.5 5167,-11.5 5018,-11.5"/>
<text text-anchor="start" x="5026" y="-40.5" font-family="Helvetica,sans-Serif" font-size="10.00">/home/runner/work/diffblue</text>
<text text-anchor="start" x="5026" y="-29.5" font-family="Helvetica,sans-Serif" font-size="10.00">&#45;cbmc/diffblue&#45;cbmc/src</text>
<text text-anchor="middle" x="5092.5" y="-18.5" font-family="Helvetica,sans-Serif" font-size="10.00">/util/pointer_expr.cpp</text>
</a>
</g>
</g>
<!-- Node1&#45;&gt;Node29 -->
<g id="edge28" class="edge">
<title>Node1&#45;&gt;Node29</title>
<path fill="none" stroke="midnightblue" d="M2880.3,-119.52C3260.43,-117.12 4798.03,-104.97 5009.5,-64 5022.49,-61.48 5036.12,-57.16 5048.49,-52.53"/>
<polygon fill="midnightblue" stroke="midnightblue" points="2880.18,-116.02 2870.2,-119.58 2880.22,-123.02 2880.18,-116.02"/>
</g>
<!-- Node30 -->
<g id="node30" class="node">
<title>Node30</title>
<g id="a_node30"><a xlink:href="pointer__predicates_8cpp.html" target="_top" xlink:title="Various predicates over pointers in programs.">
<polygon fill="none" stroke="black" points="5185,-11.5 5185,-52.5 5334,-52.5 5334,-11.5 5185,-11.5"/>
<text text-anchor="start" x="5193" y="-40.5" font-family="Helvetica,sans-Serif" font-size="10.00">/home/runner/work/diffblue</text>
<text text-anchor="start" x="5193" y="-29.5" font-family="Helvetica,sans-Serif" font-size="10.00">&#45;cbmc/diffblue&#45;cbmc/src</text>
<text text-anchor="middle" x="5259.5" y="-18.5" font-family="Helvetica,sans-Serif" font-size="10.00">/util/pointer_predicates.cpp</text>
</a>
</g>
</g>
<!-- Node1&#45;&gt;Node30 -->
<g id="edge29" class="edge">
<title>Node1&#45;&gt;Node30</title>
<path fill="none" stroke="midnightblue" d="M2880.4,-119.68C3278.18,-117.95 4947.87,-108.09 5176.5,-64 5189.49,-61.5 5203.12,-57.18 5215.49,-52.54"/>
<polygon fill="midnightblue" stroke="midnightblue" points="2880.1,-116.18 2870.12,-119.72 2880.13,-123.18 2880.1,-116.18"/>
</g>
<!-- Node31 -->
<g id="node31" class="node">
<title>Node31</title>
<g id="a_node31"><a xlink:href="simplify__expr__pointer_8cpp.html" target="_top" xlink:title=" ">
<polygon fill="none" stroke="black" points="5352.5,-11.5 5352.5,-52.5 5516.5,-52.5 5516.5,-11.5 5352.5,-11.5"/>
<text text-anchor="start" x="5360.5" y="-40.5" font-family="Helvetica,sans-Serif" font-size="10.00">/home/runner/work/diffblue</text>
<text text-anchor="start" x="5360.5" y="-29.5" font-family="Helvetica,sans-Serif" font-size="10.00">&#45;cbmc/diffblue&#45;cbmc/src</text>
<text text-anchor="middle" x="5434.5" y="-18.5" font-family="Helvetica,sans-Serif" font-size="10.00">/util/simplify_expr_pointer.cpp</text>
</a>
</g>
</g>
<!-- Node1&#45;&gt;Node31 -->
<g id="edge30" class="edge">
<title>Node1&#45;&gt;Node31</title>
<path fill="none" stroke="midnightblue" d="M2880.17,-119.68C3294.34,-117.89 5096.94,-107.63 5343.5,-64 5357.63,-61.5 5372.54,-57.18 5386.11,-52.55"/>
<polygon fill="midnightblue" stroke="midnightblue" points="2880.05,-116.18 2870.06,-119.72 2880.08,-123.18 2880.05,-116.18"/>
</g>
</g>
</svg>
