<?xml version="1.0" encoding="UTF-8" standalone="no"?>
<!DOCTYPE svg PUBLIC "-//W3C//DTD SVG 1.1//EN"
 "http://www.w3.org/Graphics/SVG/1.1/DTD/svg11.dtd">
<!-- Generated by graphviz version 2.43.0 (0)
 -->
<!-- Title: /home/runner/work/diffblue&#45;cbmc/diffblue&#45;cbmc/src/goto&#45;instrument/accelerate/polynomial_accelerator.h Pages: 1 -->
<svg width="598pt" height="239pt"
 viewBox="0.00 0.00 598.00 239.00" xmlns="http://www.w3.org/2000/svg" xmlns:xlink="http://www.w3.org/1999/xlink">
<g id="graph0" class="graph" transform="scale(1 1) rotate(0) translate(4 235)">
<title>/home/runner/work/diffblue&#45;cbmc/diffblue&#45;cbmc/src/goto&#45;instrument/accelerate/polynomial_accelerator.h</title>
<!-- Node1 -->
<g id="node1" class="node">
<title>Node1</title>
<g id="a_node1"><a xlink:title="Loop Acceleration.">
<polygon fill="#bfbfbf" stroke="black" points="251,-178.5 251,-230.5 403,-230.5 403,-178.5 251,-178.5"/>
<text text-anchor="start" x="259" y="-218.5" font-family="Helvetica,sans-Serif" font-size="10.00">/home/runner/work/diffblue</text>
<text text-anchor="start" x="259" y="-207.5" font-family="Helvetica,sans-Serif" font-size="10.00">&#45;cbmc/diffblue&#45;cbmc/src</text>
<text text-anchor="start" x="259" y="-196.5" font-family="Helvetica,sans-Serif" font-size="10.00">/goto&#45;instrument/accelerate</text>
<text text-anchor="middle" x="327" y="-185.5" font-family="Helvetica,sans-Serif" font-size="10.00">/polynomial_accelerator.h</text>
</a>
</g>
</g>
<!-- Node2 -->
<g id="node2" class="node">
<title>Node2</title>
<g id="a_node2"><a xlink:href="disjunctive__polynomial__acceleration_8cpp.html" target="_top" xlink:title="Loop Acceleration.">
<polygon fill="none" stroke="black" points="0,-89.5 0,-141.5 218,-141.5 218,-89.5 0,-89.5"/>
<text text-anchor="start" x="8" y="-129.5" font-family="Helvetica,sans-Serif" font-size="10.00">/home/runner/work/diffblue</text>
<text text-anchor="start" x="8" y="-118.5" font-family="Helvetica,sans-Serif" font-size="10.00">&#45;cbmc/diffblue&#45;cbmc/src</text>
<text text-anchor="start" x="8" y="-107.5" font-family="Helvetica,sans-Serif" font-size="10.00">/goto&#45;instrument/accelerate</text>
<text text-anchor="middle" x="109" y="-96.5" font-family="Helvetica,sans-Serif" font-size="10.00">/disjunctive_polynomial_acceleration.cpp</text>
</a>
</g>
</g>
<!-- Node1&#45;&gt;Node2 -->
<g id="edge1" class="edge">
<title>Node1&#45;&gt;Node2</title>
<path fill="none" stroke="midnightblue" d="M254.88,-174.72C227.98,-163.98 197.68,-151.89 171.7,-141.52"/>
<polygon fill="midnightblue" stroke="midnightblue" points="253.65,-178 264.24,-178.45 256.25,-171.5 253.65,-178"/>
</g>
<!-- Node3 -->
<g id="node3" class="node">
<title>Node3</title>
<g id="a_node3"><a xlink:href="enumerating__loop__acceleration_8h.html" target="_top" xlink:title="Loop Acceleration.">
<polygon fill="none" stroke="black" points="236,-89.5 236,-141.5 418,-141.5 418,-89.5 236,-89.5"/>
<text text-anchor="start" x="244" y="-129.5" font-family="Helvetica,sans-Serif" font-size="10.00">/home/runner/work/diffblue</text>
<text text-anchor="start" x="244" y="-118.5" font-family="Helvetica,sans-Serif" font-size="10.00">&#45;cbmc/diffblue&#45;cbmc/src</text>
<text text-anchor="start" x="244" y="-107.5" font-family="Helvetica,sans-Serif" font-size="10.00">/goto&#45;instrument/accelerate</text>
<text text-anchor="middle" x="327" y="-96.5" font-family="Helvetica,sans-Serif" font-size="10.00">/enumerating_loop_acceleration.h</text>
</a>
</g>
</g>
<!-- Node1&#45;&gt;Node3 -->
<g id="edge2" class="edge">
<title>Node1&#45;&gt;Node3</title>
<path fill="none" stroke="midnightblue" d="M327,-168.19C327,-159.28 327,-149.9 327,-141.61"/>
<polygon fill="midnightblue" stroke="midnightblue" points="323.5,-168.34 327,-178.34 330.5,-168.34 323.5,-168.34"/>
</g>
<!-- Node6 -->
<g id="node6" class="node">
<title>Node6</title>
<g id="a_node6"><a xlink:href="polynomial__accelerator_8cpp.html" target="_top" xlink:title="Loop Acceleration.">
<polygon fill="none" stroke="black" points="436,-89.5 436,-141.5 590,-141.5 590,-89.5 436,-89.5"/>
<text text-anchor="start" x="444" y="-129.5" font-family="Helvetica,sans-Serif" font-size="10.00">/home/runner/work/diffblue</text>
<text text-anchor="start" x="444" y="-118.5" font-family="Helvetica,sans-Serif" font-size="10.00">&#45;cbmc/diffblue&#45;cbmc/src</text>
<text text-anchor="start" x="444" y="-107.5" font-family="Helvetica,sans-Serif" font-size="10.00">/goto&#45;instrument/accelerate</text>
<text text-anchor="middle" x="513" y="-96.5" font-family="Helvetica,sans-Serif" font-size="10.00">/polynomial_accelerator.cpp</text>
</a>
</g>
</g>
<!-- Node1&#45;&gt;Node6 -->
<g id="edge5" class="edge">
<title>Node1&#45;&gt;Node6</title>
<path fill="none" stroke="midnightblue" d="M389.95,-174.06C412.48,-163.52 437.65,-151.75 459.32,-141.61"/>
<polygon fill="midnightblue" stroke="midnightblue" points="388.37,-170.93 380.8,-178.34 391.34,-177.27 388.37,-170.93"/>
</g>
<!-- Node4 -->
<g id="node4" class="node">
<title>Node4</title>
<g id="a_node4"><a xlink:href="accelerate_8cpp.html" target="_top" xlink:title="Loop Acceleration.">
<polygon fill="none" stroke="black" points="155,-0.5 155,-52.5 307,-52.5 307,-0.5 155,-0.5"/>
<text text-anchor="start" x="163" y="-40.5" font-family="Helvetica,sans-Serif" font-size="10.00">/home/runner/work/diffblue</text>
<text text-anchor="start" x="163" y="-29.5" font-family="Helvetica,sans-Serif" font-size="10.00">&#45;cbmc/diffblue&#45;cbmc/src</text>
<text text-anchor="start" x="163" y="-18.5" font-family="Helvetica,sans-Serif" font-size="10.00">/goto&#45;instrument/accelerate</text>
<text text-anchor="middle" x="231" y="-7.5" font-family="Helvetica,sans-Serif" font-size="10.00">/accelerate.cpp</text>
</a>
</g>
</g>
<!-- Node3&#45;&gt;Node4 -->
<g id="edge3" class="edge">
<title>Node3&#45;&gt;Node4</title>
<path fill="none" stroke="midnightblue" d="M291.54,-82.36C280.7,-72.54 268.95,-61.89 258.7,-52.61"/>
<polygon fill="midnightblue" stroke="midnightblue" points="289.47,-85.21 299.23,-89.34 294.17,-80.03 289.47,-85.21"/>
</g>
<!-- Node5 -->
<g id="node5" class="node">
<title>Node5</title>
<g id="a_node5"><a xlink:href="enumerating__loop__acceleration_8cpp.html" target="_top" xlink:title="Loop Acceleration.">
<polygon fill="none" stroke="black" points="325,-0.5 325,-52.5 519,-52.5 519,-0.5 325,-0.5"/>
<text text-anchor="start" x="333" y="-40.5" font-family="Helvetica,sans-Serif" font-size="10.00">/home/runner/work/diffblue</text>
<text text-anchor="start" x="333" y="-29.5" font-family="Helvetica,sans-Serif" font-size="10.00">&#45;cbmc/diffblue&#45;cbmc/src</text>
<text text-anchor="start" x="333" y="-18.5" font-family="Helvetica,sans-Serif" font-size="10.00">/goto&#45;instrument/accelerate</text>
<text text-anchor="middle" x="422" y="-7.5" font-family="Helvetica,sans-Serif" font-size="10.00">/enumerating_loop_acceleration.cpp</text>
</a>
</g>
</g>
<!-- Node3&#45;&gt;Node5 -->
<g id="edge4" class="edge">
<title>Node3&#45;&gt;Node5</title>
<path fill="none" stroke="midnightblue" d="M362.09,-82.36C372.82,-72.54 384.45,-61.89 394.58,-52.61"/>
<polygon fill="midnightblue" stroke="midnightblue" points="359.49,-80 354.48,-89.34 364.22,-85.16 359.49,-80"/>
</g>
</g>
</svg>
