<?xml version="1.0" encoding="UTF-8" standalone="no"?>
<!DOCTYPE svg PUBLIC "-//W3C//DTD SVG 1.1//EN"
 "http://www.w3.org/Graphics/SVG/1.1/DTD/svg11.dtd">
<!-- Generated by graphviz version 2.43.0 (0)
 -->
<!-- Title: /home/runner/work/diffblue&#45;cbmc/diffblue&#45;cbmc/src/util/preprocessor.h Pages: 1 -->
<svg width="940pt" height="442pt"
 viewBox="0.00 0.00 939.50 442.00" xmlns="http://www.w3.org/2000/svg" xmlns:xlink="http://www.w3.org/1999/xlink">
<g id="graph0" class="graph" transform="scale(1 1) rotate(0) translate(4 438)">
<title>/home/runner/work/diffblue&#45;cbmc/diffblue&#45;cbmc/src/util/preprocessor.h</title>
<!-- Node1 -->
<g id="node1" class="node">
<title>Node1</title>
<g id="a_node1"><a xlink:title="Preprocessing Base Class.">
<polygon fill="#bfbfbf" stroke="black" points="0,-392.5 0,-433.5 149,-433.5 149,-392.5 0,-392.5"/>
<text text-anchor="start" x="8" y="-421.5" font-family="Helvetica,sans-Serif" font-size="10.00">/home/runner/work/diffblue</text>
<text text-anchor="start" x="8" y="-410.5" font-family="Helvetica,sans-Serif" font-size="10.00">&#45;cbmc/diffblue&#45;cbmc/src</text>
<text text-anchor="middle" x="74.5" y="-399.5" font-family="Helvetica,sans-Serif" font-size="10.00">/util/preprocessor.h</text>
</a>
</g>
</g>
<!-- Node2 -->
<g id="node2" class="node">
<title>Node2</title>
<g id="a_node2"><a xlink:title=" ">
<polygon fill="none" stroke="#bfbfbf" points="129.5,-56.5 129.5,-75.5 177.5,-75.5 177.5,-56.5 129.5,-56.5"/>
<text text-anchor="middle" x="153.5" y="-63.5" font-family="Helvetica,sans-Serif" font-size="10.00">iosfwd</text>
</a>
</g>
</g>
<!-- Node1&#45;&gt;Node2 -->
<g id="edge1" class="edge">
<title>Node1&#45;&gt;Node2</title>
<path fill="none" stroke="midnightblue" d="M74.5,-392.3C74.5,-368.35 74.5,-326.71 74.5,-291 74.5,-291 74.5,-291 74.5,-177 74.5,-136.79 109.75,-101.22 133.16,-82.03"/>
<polygon fill="midnightblue" stroke="midnightblue" points="135.47,-84.66 141.16,-75.72 131.14,-79.17 135.47,-84.66"/>
</g>
<!-- Node3 -->
<g id="node3" class="node">
<title>Node3</title>
<g id="a_node3"><a xlink:title=" ">
<polygon fill="none" stroke="#bfbfbf" points="202.5,-0.5 202.5,-19.5 246.5,-19.5 246.5,-0.5 202.5,-0.5"/>
<text text-anchor="middle" x="224.5" y="-7.5" font-family="Helvetica,sans-Serif" font-size="10.00">string</text>
</a>
</g>
</g>
<!-- Node1&#45;&gt;Node3 -->
<g id="edge2" class="edge">
<title>Node1&#45;&gt;Node3</title>
<path fill="none" stroke="midnightblue" d="M64.32,-392.47C53.06,-369.02 36.5,-328.21 36.5,-291 36.5,-291 36.5,-291 36.5,-121 36.5,-49.74 138.36,-23.79 192.13,-15.05"/>
<polygon fill="midnightblue" stroke="midnightblue" points="192.83,-18.48 202.2,-13.53 191.78,-11.56 192.83,-18.48"/>
</g>
<!-- Node4 -->
<g id="node4" class="node">
<title>Node4</title>
<g id="a_node4"><a xlink:href="src_2util_2message_8h.html" target="_top" xlink:title=" ">
<polygon fill="none" stroke="black" points="235.5,-336.5 235.5,-355.5 305.5,-355.5 305.5,-336.5 235.5,-336.5"/>
<text text-anchor="middle" x="270.5" y="-343.5" font-family="Helvetica,sans-Serif" font-size="10.00">message.h</text>
</a>
</g>
</g>
<!-- Node1&#45;&gt;Node4 -->
<g id="edge3" class="edge">
<title>Node1&#45;&gt;Node4</title>
<path fill="none" stroke="midnightblue" d="M133.31,-392.5C166.35,-381.54 206.5,-368.22 234.81,-358.84"/>
<polygon fill="midnightblue" stroke="midnightblue" points="236.28,-362.04 244.67,-355.57 234.07,-355.39 236.28,-362.04"/>
</g>
<!-- Node4&#45;&gt;Node2 -->
<g id="edge33" class="edge">
<title>Node4&#45;&gt;Node2</title>
<path fill="none" stroke="midnightblue" d="M251.09,-336.46C219.51,-321.11 160.5,-285.64 160.5,-235 160.5,-235 160.5,-235 160.5,-177 160.5,-144.88 157.49,-107.6 155.42,-85.73"/>
<polygon fill="midnightblue" stroke="midnightblue" points="158.88,-85.15 154.42,-75.55 151.91,-85.84 158.88,-85.15"/>
</g>
<!-- Node4&#45;&gt;Node3 -->
<g id="edge35" class="edge">
<title>Node4&#45;&gt;Node3</title>
<path fill="none" stroke="midnightblue" d="M235.43,-337.16C188.89,-324.43 112.5,-294.49 112.5,-235 112.5,-235 112.5,-235 112.5,-177 112.5,-123.1 89.44,-100.04 120.5,-56 136.99,-32.61 168.33,-21.27 192.3,-15.84"/>
<polygon fill="midnightblue" stroke="midnightblue" points="193.29,-19.21 202.4,-13.8 191.9,-12.35 193.29,-19.21"/>
</g>
<!-- Node5 -->
<g id="node5" class="node">
<title>Node5</title>
<g id="a_node5"><a xlink:href="src_2util_2invariant_8h.html" target="_top" xlink:title=" ">
<polygon fill="none" stroke="black" points="793,-56.5 793,-75.5 862,-75.5 862,-56.5 793,-56.5"/>
<text text-anchor="middle" x="827.5" y="-63.5" font-family="Helvetica,sans-Serif" font-size="10.00">invariant.h</text>
</a>
</g>
</g>
<!-- Node4&#45;&gt;Node5 -->
<g id="edge4" class="edge">
<title>Node4&#45;&gt;Node5</title>
<path fill="none" stroke="midnightblue" d="M305.94,-342.23C434.03,-331.76 865.5,-292.25 865.5,-235 865.5,-235 865.5,-235 865.5,-177 865.5,-142.81 848.9,-105.76 837.64,-84.57"/>
<polygon fill="midnightblue" stroke="midnightblue" points="840.68,-82.83 832.78,-75.77 834.55,-86.22 840.68,-82.83"/>
</g>
<!-- Node7 -->
<g id="node7" class="node">
<title>Node7</title>
<g id="a_node7"><a xlink:title=" ">
<polygon fill="none" stroke="#bfbfbf" points="875.5,-0.5 875.5,-19.5 931.5,-19.5 931.5,-0.5 875.5,-0.5"/>
<text text-anchor="middle" x="903.5" y="-7.5" font-family="Helvetica,sans-Serif" font-size="10.00">sstream</text>
</a>
</g>
</g>
<!-- Node4&#45;&gt;Node7 -->
<g id="edge34" class="edge">
<title>Node4&#45;&gt;Node7</title>
<path fill="none" stroke="midnightblue" d="M305.71,-345.08C384.94,-344.53 582.76,-338.99 742.5,-300 817.47,-281.7 903.5,-312.17 903.5,-235 903.5,-235 903.5,-235 903.5,-121 903.5,-88.95 903.5,-51.64 903.5,-29.75"/>
<polygon fill="midnightblue" stroke="midnightblue" points="907,-29.56 903.5,-19.56 900,-29.56 907,-29.56"/>
</g>
<!-- Node9 -->
<g id="node9" class="node">
<title>Node9</title>
<g id="a_node9"><a xlink:href="source__location_8h.html" target="_top" xlink:title=" ">
<polygon fill="none" stroke="black" points="219.5,-280.5 219.5,-299.5 321.5,-299.5 321.5,-280.5 219.5,-280.5"/>
<text text-anchor="middle" x="270.5" y="-287.5" font-family="Helvetica,sans-Serif" font-size="10.00">source_location.h</text>
</a>
</g>
</g>
<!-- Node4&#45;&gt;Node9 -->
<g id="edge9" class="edge">
<title>Node4&#45;&gt;Node9</title>
<path fill="none" stroke="midnightblue" d="M270.5,-336.08C270.5,-329.01 270.5,-318.86 270.5,-309.99"/>
<polygon fill="midnightblue" stroke="midnightblue" points="274,-309.75 270.5,-299.75 267,-309.75 274,-309.75"/>
</g>
<!-- Node29 -->
<g id="node24" class="node">
<title>Node29</title>
<g id="a_node24"><a xlink:title=" ">
<polygon fill="none" stroke="#bfbfbf" points="340,-280.5 340,-299.5 405,-299.5 405,-280.5 340,-280.5"/>
<text text-anchor="middle" x="372.5" y="-287.5" font-family="Helvetica,sans-Serif" font-size="10.00">functional</text>
</a>
</g>
</g>
<!-- Node4&#45;&gt;Node29 -->
<g id="edge32" class="edge">
<title>Node4&#45;&gt;Node29</title>
<path fill="none" stroke="midnightblue" d="M286.89,-336.32C303.17,-327.7 328.37,-314.36 347.22,-304.39"/>
<polygon fill="midnightblue" stroke="midnightblue" points="348.95,-307.43 356.15,-299.65 345.68,-301.24 348.95,-307.43"/>
</g>
<!-- Node5&#45;&gt;Node3 -->
<g id="edge7" class="edge">
<title>Node5&#45;&gt;Node3</title>
<path fill="none" stroke="midnightblue" d="M792.91,-61.9C685.84,-52.31 360.78,-23.2 256.83,-13.9"/>
<polygon fill="midnightblue" stroke="midnightblue" points="256.92,-10.39 246.65,-12.98 256.3,-17.36 256.92,-10.39"/>
</g>
<!-- Node6 -->
<g id="node6" class="node">
<title>Node6</title>
<g id="a_node6"><a xlink:title=" ">
<polygon fill="none" stroke="#bfbfbf" points="808,-0.5 808,-19.5 857,-19.5 857,-0.5 808,-0.5"/>
<text text-anchor="middle" x="832.5" y="-7.5" font-family="Helvetica,sans-Serif" font-size="10.00">cstdlib</text>
</a>
</g>
</g>
<!-- Node5&#45;&gt;Node6 -->
<g id="edge5" class="edge">
<title>Node5&#45;&gt;Node6</title>
<path fill="none" stroke="midnightblue" d="M828.33,-56.08C828.98,-49.01 829.92,-38.86 830.74,-29.99"/>
<polygon fill="midnightblue" stroke="midnightblue" points="834.25,-30.03 831.69,-19.75 827.28,-29.39 834.25,-30.03"/>
</g>
<!-- Node5&#45;&gt;Node7 -->
<g id="edge6" class="edge">
<title>Node5&#45;&gt;Node7</title>
<path fill="none" stroke="midnightblue" d="M839.71,-56.32C851.28,-48.11 868.88,-35.6 882.66,-25.81"/>
<polygon fill="midnightblue" stroke="midnightblue" points="884.94,-28.48 891.07,-19.83 880.89,-22.77 884.94,-28.48"/>
</g>
<!-- Node8 -->
<g id="node8" class="node">
<title>Node8</title>
<g id="a_node8"><a xlink:title=" ">
<polygon fill="none" stroke="#bfbfbf" points="721,-0.5 721,-19.5 790,-19.5 790,-0.5 721,-0.5"/>
<text text-anchor="middle" x="755.5" y="-7.5" font-family="Helvetica,sans-Serif" font-size="10.00">type_traits</text>
</a>
</g>
</g>
<!-- Node5&#45;&gt;Node8 -->
<g id="edge8" class="edge">
<title>Node5&#45;&gt;Node8</title>
<path fill="none" stroke="midnightblue" d="M815.93,-56.32C805.08,-48.18 788.62,-35.84 775.62,-26.09"/>
<polygon fill="midnightblue" stroke="midnightblue" points="777.38,-23.03 767.28,-19.83 773.18,-28.63 777.38,-23.03"/>
</g>
<!-- Node9&#45;&gt;Node3 -->
<g id="edge31" class="edge">
<title>Node9&#45;&gt;Node3</title>
<path fill="none" stroke="midnightblue" d="M258.63,-280.29C248.2,-272.04 233.35,-258.75 224.5,-244 209.02,-218.19 205.5,-209.1 205.5,-179 205.5,-179 205.5,-179 205.5,-121 205.5,-88.49 213.66,-51.35 219.28,-29.61"/>
<polygon fill="midnightblue" stroke="midnightblue" points="222.72,-30.32 221.94,-19.75 215.96,-28.5 222.72,-30.32"/>
</g>
<!-- Node10 -->
<g id="node10" class="node">
<title>Node10</title>
<g id="a_node10"><a xlink:href="deprecate_8h.html" target="_top" xlink:title=" ">
<polygon fill="none" stroke="black" points="233.5,-224.5 233.5,-243.5 307.5,-243.5 307.5,-224.5 233.5,-224.5"/>
<text text-anchor="middle" x="270.5" y="-231.5" font-family="Helvetica,sans-Serif" font-size="10.00">deprecate.h</text>
</a>
</g>
</g>
<!-- Node9&#45;&gt;Node10 -->
<g id="edge10" class="edge">
<title>Node9&#45;&gt;Node10</title>
<path fill="none" stroke="midnightblue" d="M270.5,-280.08C270.5,-273.01 270.5,-262.86 270.5,-253.99"/>
<polygon fill="midnightblue" stroke="midnightblue" points="274,-253.75 270.5,-243.75 267,-253.75 274,-253.75"/>
</g>
<!-- Node11 -->
<g id="node11" class="node">
<title>Node11</title>
<g id="a_node11"><a xlink:href="irep_8h.html" target="_top" xlink:title=" ">
<polygon fill="none" stroke="black" points="399.5,-224.5 399.5,-243.5 443.5,-243.5 443.5,-224.5 399.5,-224.5"/>
<text text-anchor="middle" x="421.5" y="-231.5" font-family="Helvetica,sans-Serif" font-size="10.00">irep.h</text>
</a>
</g>
</g>
<!-- Node9&#45;&gt;Node11 -->
<g id="edge11" class="edge">
<title>Node9&#45;&gt;Node11</title>
<path fill="none" stroke="midnightblue" d="M294.43,-280.44C320.17,-271.24 361.22,-256.56 389.67,-246.38"/>
<polygon fill="midnightblue" stroke="midnightblue" points="390.92,-249.65 399.16,-242.99 388.57,-243.06 390.92,-249.65"/>
</g>
<!-- Node28 -->
<g id="node23" class="node">
<title>Node28</title>
<g id="a_node23"><a xlink:title=" ">
<polygon fill="none" stroke="#bfbfbf" points="325.5,-224.5 325.5,-243.5 381.5,-243.5 381.5,-224.5 325.5,-224.5"/>
<text text-anchor="middle" x="353.5" y="-231.5" font-family="Helvetica,sans-Serif" font-size="10.00">optional</text>
</a>
</g>
</g>
<!-- Node9&#45;&gt;Node28 -->
<g id="edge30" class="edge">
<title>Node9&#45;&gt;Node28</title>
<path fill="none" stroke="midnightblue" d="M283.84,-280.32C296.66,-271.98 316.28,-259.21 331.44,-249.35"/>
<polygon fill="midnightblue" stroke="midnightblue" points="333.72,-252.04 340.2,-243.65 329.91,-246.17 333.72,-252.04"/>
</g>
<!-- Node11&#45;&gt;Node3 -->
<g id="edge12" class="edge">
<title>Node11&#45;&gt;Node3</title>
<path fill="none" stroke="midnightblue" d="M399.48,-224.86C374.08,-215.16 334.29,-198.89 322.5,-188 272.68,-141.97 242.26,-64.67 230.32,-29.47"/>
<polygon fill="midnightblue" stroke="midnightblue" points="233.53,-28.02 227.09,-19.61 226.88,-30.2 233.53,-28.02"/>
</g>
<!-- Node11&#45;&gt;Node5 -->
<g id="edge14" class="edge">
<title>Node11&#45;&gt;Node5</title>
<path fill="none" stroke="midnightblue" d="M443.64,-230.35C518.04,-221 757.14,-187.09 807.5,-132 819.07,-119.35 823.95,-100.14 826,-85.88"/>
<polygon fill="midnightblue" stroke="midnightblue" points="829.51,-86.05 827.12,-75.73 822.55,-85.28 829.51,-86.05"/>
</g>
<!-- Node12 -->
<g id="node12" class="node">
<title>Node12</title>
<g id="a_node12"><a xlink:title=" ">
<polygon fill="none" stroke="#bfbfbf" points="367,-0.5 367,-19.5 414,-19.5 414,-0.5 367,-0.5"/>
<text text-anchor="middle" x="390.5" y="-7.5" font-family="Helvetica,sans-Serif" font-size="10.00">vector</text>
</a>
</g>
</g>
<!-- Node11&#45;&gt;Node12 -->
<g id="edge13" class="edge">
<title>Node11&#45;&gt;Node12</title>
<path fill="none" stroke="midnightblue" d="M403.23,-224.35C375.01,-209.83 321.84,-177.6 300.5,-132 280.42,-89.08 333.71,-46.37 366.67,-25.02"/>
<polygon fill="midnightblue" stroke="midnightblue" points="368.73,-27.86 375.35,-19.59 365.02,-21.93 368.73,-27.86"/>
</g>
<!-- Node13 -->
<g id="node13" class="node">
<title>Node13</title>
<g id="a_node13"><a xlink:href="irep__ids_8h.html" target="_top" xlink:title="util">
<polygon fill="none" stroke="black" points="389.5,-168.5 389.5,-187.5 453.5,-187.5 453.5,-168.5 389.5,-168.5"/>
<text text-anchor="middle" x="421.5" y="-175.5" font-family="Helvetica,sans-Serif" font-size="10.00">irep_ids.h</text>
</a>
</g>
</g>
<!-- Node11&#45;&gt;Node13 -->
<g id="edge15" class="edge">
<title>Node11&#45;&gt;Node13</title>
<path fill="none" stroke="midnightblue" d="M421.5,-224.08C421.5,-217.01 421.5,-206.86 421.5,-197.99"/>
<polygon fill="midnightblue" stroke="midnightblue" points="425,-197.75 421.5,-187.75 418,-197.75 425,-197.75"/>
</g>
<!-- Node23 -->
<g id="node18" class="node">
<title>Node23</title>
<g id="a_node18"><a xlink:href="forward__list__as__map_8h.html" target="_top" xlink:title=" ">
<polygon fill="none" stroke="black" points="535,-168.5 535,-187.5 662,-187.5 662,-168.5 535,-168.5"/>
<text text-anchor="middle" x="598.5" y="-175.5" font-family="Helvetica,sans-Serif" font-size="10.00">forward_list_as_map.h</text>
</a>
</g>
</g>
<!-- Node11&#45;&gt;Node23 -->
<g id="edge23" class="edge">
<title>Node11&#45;&gt;Node23</title>
<path fill="none" stroke="midnightblue" d="M443.56,-226.27C472.95,-217.3 525.39,-201.3 561.04,-190.43"/>
<polygon fill="midnightblue" stroke="midnightblue" points="562.07,-193.77 570.62,-187.51 560.03,-187.08 562.07,-193.77"/>
</g>
<!-- Node14 -->
<g id="node14" class="node">
<title>Node14</title>
<g id="a_node14"><a xlink:href="dstring_8h.html" target="_top" xlink:title="Container for C&#45;Strings.">
<polygon fill="none" stroke="black" points="402,-112.5 402,-131.5 461,-131.5 461,-112.5 402,-112.5"/>
<text text-anchor="middle" x="431.5" y="-119.5" font-family="Helvetica,sans-Serif" font-size="10.00">dstring.h</text>
</a>
</g>
</g>
<!-- Node13&#45;&gt;Node14 -->
<g id="edge16" class="edge">
<title>Node13&#45;&gt;Node14</title>
<path fill="none" stroke="midnightblue" d="M423.15,-168.08C424.48,-160.93 426.38,-150.64 428.04,-141.69"/>
<polygon fill="midnightblue" stroke="midnightblue" points="431.5,-142.22 429.88,-131.75 424.62,-140.95 431.5,-142.22"/>
</g>
<!-- Node22 -->
<g id="node17" class="node">
<title>Node22</title>
<g id="a_node17"><a xlink:title=" ">
<polygon fill="none" stroke="#bfbfbf" points="309.5,-112.5 309.5,-131.5 383.5,-131.5 383.5,-112.5 309.5,-112.5"/>
<text text-anchor="middle" x="346.5" y="-119.5" font-family="Helvetica,sans-Serif" font-size="10.00">irep_ids.def</text>
</a>
</g>
</g>
<!-- Node13&#45;&gt;Node22 -->
<g id="edge22" class="edge">
<title>Node13&#45;&gt;Node22</title>
<path fill="none" stroke="midnightblue" d="M409.45,-168.32C398.04,-160.11 380.67,-147.6 367.07,-137.81"/>
<polygon fill="midnightblue" stroke="midnightblue" points="368.93,-134.84 358.77,-131.83 364.84,-140.52 368.93,-134.84"/>
</g>
<!-- Node14&#45;&gt;Node2 -->
<g id="edge17" class="edge">
<title>Node14&#45;&gt;Node2</title>
<path fill="none" stroke="midnightblue" d="M401.72,-114C398.61,-113.3 395.49,-112.63 392.5,-112 319.85,-96.78 234.27,-81.24 187.78,-73"/>
<polygon fill="midnightblue" stroke="midnightblue" points="188.11,-69.51 177.65,-71.21 186.89,-76.4 188.11,-69.51"/>
</g>
<!-- Node14&#45;&gt;Node3 -->
<g id="edge18" class="edge">
<title>Node14&#45;&gt;Node3</title>
<path fill="none" stroke="midnightblue" d="M412.79,-112.4C393.88,-103.6 363.9,-89.37 338.5,-76 306.43,-59.12 270.19,-38.12 247.36,-24.64"/>
<polygon fill="midnightblue" stroke="midnightblue" points="249.11,-21.61 238.72,-19.52 245.54,-27.63 249.11,-21.61"/>
</g>
<!-- Node15 -->
<g id="node15" class="node">
<title>Node15</title>
<g id="a_node15"><a xlink:href="magic_8h.html" target="_top" xlink:title="Magic numbers used throughout the codebase.">
<polygon fill="none" stroke="red" points="347.5,-56.5 347.5,-75.5 403.5,-75.5 403.5,-56.5 347.5,-56.5"/>
<text text-anchor="middle" x="375.5" y="-63.5" font-family="Helvetica,sans-Serif" font-size="10.00">magic.h</text>
</a>
</g>
</g>
<!-- Node14&#45;&gt;Node15 -->
<g id="edge19" class="edge">
<title>Node14&#45;&gt;Node15</title>
<path fill="none" stroke="midnightblue" d="M422.5,-112.32C414.31,-104.42 401.99,-92.55 392.03,-82.94"/>
<polygon fill="midnightblue" stroke="midnightblue" points="394.29,-80.26 384.66,-75.83 389.43,-85.29 394.29,-80.26"/>
</g>
<!-- Node17 -->
<g id="node16" class="node">
<title>Node17</title>
<g id="a_node16"><a xlink:href="string__container_8h.html" target="_top" xlink:title="Container for C&#45;Strings.">
<polygon fill="none" stroke="red" points="421.5,-56.5 421.5,-75.5 525.5,-75.5 525.5,-56.5 421.5,-56.5"/>
<text text-anchor="middle" x="473.5" y="-63.5" font-family="Helvetica,sans-Serif" font-size="10.00">string_container.h</text>
</a>
</g>
</g>
<!-- Node14&#45;&gt;Node17 -->
<g id="edge20" class="edge">
<title>Node14&#45;&gt;Node17</title>
<path fill="none" stroke="midnightblue" d="M438.44,-112.08C444.43,-104.38 453.25,-93.03 460.55,-83.65"/>
<polygon fill="midnightblue" stroke="midnightblue" points="463.32,-85.79 466.69,-75.75 457.79,-81.5 463.32,-85.79"/>
</g>
<!-- Node17&#45;&gt;Node12 -->
<g id="edge21" class="edge">
<title>Node17&#45;&gt;Node12</title>
<path fill="none" stroke="midnightblue" d="M460.16,-56.32C447.34,-47.98 427.72,-35.21 412.56,-25.35"/>
<polygon fill="midnightblue" stroke="midnightblue" points="414.09,-22.17 403.8,-19.65 410.28,-28.04 414.09,-22.17"/>
</g>
<!-- Node24 -->
<g id="node19" class="node">
<title>Node24</title>
<g id="a_node19"><a xlink:title=" ">
<polygon fill="none" stroke="#bfbfbf" points="479.5,-112.5 479.5,-131.5 543.5,-131.5 543.5,-112.5 479.5,-112.5"/>
<text text-anchor="middle" x="511.5" y="-119.5" font-family="Helvetica,sans-Serif" font-size="10.00">algorithm</text>
</a>
</g>
</g>
<!-- Node23&#45;&gt;Node24 -->
<g id="edge24" class="edge">
<title>Node23&#45;&gt;Node24</title>
<path fill="none" stroke="midnightblue" d="M584.52,-168.32C570.95,-159.9 550.12,-146.97 534.18,-137.07"/>
<polygon fill="midnightblue" stroke="midnightblue" points="535.79,-133.95 525.44,-131.65 532.09,-139.9 535.79,-133.95"/>
</g>
<!-- Node25 -->
<g id="node20" class="node">
<title>Node25</title>
<g id="a_node20"><a xlink:title=" ">
<polygon fill="none" stroke="#bfbfbf" points="561.5,-112.5 561.5,-131.5 635.5,-131.5 635.5,-112.5 561.5,-112.5"/>
<text text-anchor="middle" x="598.5" y="-119.5" font-family="Helvetica,sans-Serif" font-size="10.00">forward_list</text>
</a>
</g>
</g>
<!-- Node23&#45;&gt;Node25 -->
<g id="edge25" class="edge">
<title>Node23&#45;&gt;Node25</title>
<path fill="none" stroke="midnightblue" d="M598.5,-168.08C598.5,-161.01 598.5,-150.86 598.5,-141.99"/>
<polygon fill="midnightblue" stroke="midnightblue" points="602,-141.75 598.5,-131.75 595,-141.75 602,-141.75"/>
</g>
<!-- Node26 -->
<g id="node21" class="node">
<title>Node26</title>
<g id="a_node21"><a xlink:href="as__const_8h.html" target="_top" xlink:title=" ">
<polygon fill="none" stroke="black" points="653.5,-112.5 653.5,-131.5 721.5,-131.5 721.5,-112.5 653.5,-112.5"/>
<text text-anchor="middle" x="687.5" y="-119.5" font-family="Helvetica,sans-Serif" font-size="10.00">as_const.h</text>
</a>
</g>
</g>
<!-- Node23&#45;&gt;Node26 -->
<g id="edge26" class="edge">
<title>Node23&#45;&gt;Node26</title>
<path fill="none" stroke="midnightblue" d="M612.8,-168.32C626.68,-159.9 647.99,-146.97 664.3,-137.07"/>
<polygon fill="midnightblue" stroke="midnightblue" points="666.5,-139.83 673.24,-131.65 662.87,-133.85 666.5,-139.83"/>
</g>
<!-- Node27 -->
<g id="node22" class="node">
<title>Node27</title>
<g id="a_node22"><a xlink:href="narrow_8h.html" target="_top" xlink:title=" ">
<polygon fill="none" stroke="black" points="740,-112.5 740,-131.5 799,-131.5 799,-112.5 740,-112.5"/>
<text text-anchor="middle" x="769.5" y="-119.5" font-family="Helvetica,sans-Serif" font-size="10.00">narrow.h</text>
</a>
</g>
</g>
<!-- Node23&#45;&gt;Node27 -->
<g id="edge27" class="edge">
<title>Node23&#45;&gt;Node27</title>
<path fill="none" stroke="midnightblue" d="M625.6,-168.44C654.49,-159.32 700.42,-144.81 732.61,-134.65"/>
<polygon fill="midnightblue" stroke="midnightblue" points="734.05,-137.87 742.53,-131.52 731.94,-131.19 734.05,-137.87"/>
</g>
<!-- Node27&#45;&gt;Node5 -->
<g id="edge29" class="edge">
<title>Node27&#45;&gt;Node5</title>
<path fill="none" stroke="midnightblue" d="M778.82,-112.32C787.39,-104.34 800.31,-92.31 810.69,-82.65"/>
<polygon fill="midnightblue" stroke="midnightblue" points="813.08,-85.21 818.01,-75.83 808.31,-80.09 813.08,-85.21"/>
</g>
<!-- Node27&#45;&gt;Node8 -->
<g id="edge28" class="edge">
<title>Node27&#45;&gt;Node8</title>
<path fill="none" stroke="midnightblue" d="M768.4,-112.37C766.14,-94.62 760.93,-53.67 757.87,-29.6"/>
<polygon fill="midnightblue" stroke="midnightblue" points="761.33,-29.07 756.59,-19.59 754.38,-29.95 761.33,-29.07"/>
</g>
</g>
</svg>
