<?xml version="1.0" encoding="UTF-8" standalone="no"?>
<!DOCTYPE svg PUBLIC "-//W3C//DTD SVG 1.1//EN"
 "http://www.w3.org/Graphics/SVG/1.1/DTD/svg11.dtd">
<!-- Generated by graphviz version 2.43.0 (0)
 -->
<!-- Title: /home/runner/work/diffblue&#45;cbmc/diffblue&#45;cbmc/src/goto&#45;programs/process_goto_program.h Pages: 1 -->
<svg width="1072pt" height="150pt"
 viewBox="0.00 0.00 1072.00 150.00" xmlns="http://www.w3.org/2000/svg" xmlns:xlink="http://www.w3.org/1999/xlink">
<g id="graph0" class="graph" transform="scale(1 1) rotate(0) translate(4 146)">
<title>/home/runner/work/diffblue&#45;cbmc/diffblue&#45;cbmc/src/goto&#45;programs/process_goto_program.h</title>
<!-- Node1 -->
<g id="node1" class="node">
<title>Node1</title>
<g id="a_node1"><a xlink:title=" ">
<polygon fill="#bfbfbf" stroke="black" points="445,-89.5 445,-141.5 604,-141.5 604,-89.5 445,-89.5"/>
<text text-anchor="start" x="453" y="-129.5" font-family="Helvetica,sans-Serif" font-size="10.00">/home/runner/work/diffblue</text>
<text text-anchor="start" x="453" y="-118.5" font-family="Helvetica,sans-Serif" font-size="10.00">&#45;cbmc/diffblue&#45;cbmc/src</text>
<text text-anchor="start" x="453" y="-107.5" font-family="Helvetica,sans-Serif" font-size="10.00">/goto&#45;programs/process_goto</text>
<text text-anchor="middle" x="524.5" y="-96.5" font-family="Helvetica,sans-Serif" font-size="10.00">_program.h</text>
</a>
</g>
</g>
<!-- Node2 -->
<g id="node2" class="node">
<title>Node2</title>
<g id="a_node2"><a xlink:href="cbmc__parse__options_8cpp.html" target="_top" xlink:title="CBMC Command Line Option Processing.">
<polygon fill="none" stroke="black" points="0,-6 0,-47 169,-47 169,-6 0,-6"/>
<text text-anchor="start" x="8" y="-35" font-family="Helvetica,sans-Serif" font-size="10.00">/home/runner/work/diffblue</text>
<text text-anchor="start" x="8" y="-24" font-family="Helvetica,sans-Serif" font-size="10.00">&#45;cbmc/diffblue&#45;cbmc/src</text>
<text text-anchor="middle" x="84.5" y="-13" font-family="Helvetica,sans-Serif" font-size="10.00">/cbmc/cbmc_parse_options.cpp</text>
</a>
</g>
</g>
<!-- Node1&#45;&gt;Node2 -->
<g id="edge1" class="edge">
<title>Node1&#45;&gt;Node2</title>
<path fill="none" stroke="midnightblue" d="M434.68,-100.91C364.36,-89.72 264.26,-72.54 177.5,-53 169.5,-51.2 161.15,-49.15 152.89,-47.02"/>
<polygon fill="midnightblue" stroke="midnightblue" points="434.42,-104.42 444.84,-102.52 435.51,-97.5 434.42,-104.42"/>
</g>
<!-- Node3 -->
<g id="node3" class="node">
<title>Node3</title>
<g id="a_node3"><a xlink:href="goto__analyzer__parse__options_8cpp.html" target="_top" xlink:title="Goto&#45;Analyser Command Line Option Processing.">
<polygon fill="none" stroke="black" points="187,-0.5 187,-52.5 346,-52.5 346,-0.5 187,-0.5"/>
<text text-anchor="start" x="195" y="-40.5" font-family="Helvetica,sans-Serif" font-size="10.00">/home/runner/work/diffblue</text>
<text text-anchor="start" x="195" y="-29.5" font-family="Helvetica,sans-Serif" font-size="10.00">&#45;cbmc/diffblue&#45;cbmc/src</text>
<text text-anchor="start" x="195" y="-18.5" font-family="Helvetica,sans-Serif" font-size="10.00">/goto&#45;analyzer/goto_analyzer</text>
<text text-anchor="middle" x="266.5" y="-7.5" font-family="Helvetica,sans-Serif" font-size="10.00">_parse_options.cpp</text>
</a>
</g>
</g>
<!-- Node1&#45;&gt;Node3 -->
<g id="edge2" class="edge">
<title>Node1&#45;&gt;Node3</title>
<path fill="none" stroke="midnightblue" d="M440.39,-86.14C408.25,-75.3 371.86,-63.03 340.7,-52.52"/>
<polygon fill="midnightblue" stroke="midnightblue" points="439.63,-89.57 450.22,-89.45 441.86,-82.94 439.63,-89.57"/>
</g>
<!-- Node4 -->
<g id="node4" class="node">
<title>Node4</title>
<g id="a_node4"><a xlink:href="goto__diff__parse__options_8cpp.html" target="_top" xlink:title="GOTO&#45;DIFF Command Line Option Processing.">
<polygon fill="none" stroke="black" points="364,-0.5 364,-52.5 513,-52.5 513,-0.5 364,-0.5"/>
<text text-anchor="start" x="372" y="-40.5" font-family="Helvetica,sans-Serif" font-size="10.00">/home/runner/work/diffblue</text>
<text text-anchor="start" x="372" y="-29.5" font-family="Helvetica,sans-Serif" font-size="10.00">&#45;cbmc/diffblue&#45;cbmc/src</text>
<text text-anchor="start" x="372" y="-18.5" font-family="Helvetica,sans-Serif" font-size="10.00">/goto&#45;diff/goto_diff_parse</text>
<text text-anchor="middle" x="438.5" y="-7.5" font-family="Helvetica,sans-Serif" font-size="10.00">_options.cpp</text>
</a>
</g>
</g>
<!-- Node1&#45;&gt;Node4 -->
<g id="edge3" class="edge">
<title>Node1&#45;&gt;Node4</title>
<path fill="none" stroke="midnightblue" d="M492.45,-82.08C482.82,-72.34 472.41,-61.8 463.32,-52.61"/>
<polygon fill="midnightblue" stroke="midnightblue" points="490.11,-84.68 499.63,-89.34 495.08,-79.76 490.11,-84.68"/>
</g>
<!-- Node5 -->
<g id="node5" class="node">
<title>Node5</title>
<g id="a_node5"><a xlink:href="process__goto__program_8cpp.html" target="_top" xlink:title="Get a Goto Program.">
<polygon fill="none" stroke="black" points="531,-0.5 531,-52.5 690,-52.5 690,-0.5 531,-0.5"/>
<text text-anchor="start" x="539" y="-40.5" font-family="Helvetica,sans-Serif" font-size="10.00">/home/runner/work/diffblue</text>
<text text-anchor="start" x="539" y="-29.5" font-family="Helvetica,sans-Serif" font-size="10.00">&#45;cbmc/diffblue&#45;cbmc/src</text>
<text text-anchor="start" x="539" y="-18.5" font-family="Helvetica,sans-Serif" font-size="10.00">/goto&#45;programs/process_goto</text>
<text text-anchor="middle" x="610.5" y="-7.5" font-family="Helvetica,sans-Serif" font-size="10.00">_program.cpp</text>
</a>
</g>
</g>
<!-- Node1&#45;&gt;Node5 -->
<g id="edge4" class="edge">
<title>Node1&#45;&gt;Node5</title>
<path fill="none" stroke="midnightblue" d="M556.55,-82.08C566.18,-72.34 576.59,-61.8 585.68,-52.61"/>
<polygon fill="midnightblue" stroke="midnightblue" points="553.92,-79.76 549.37,-89.34 558.89,-84.68 553.92,-79.76"/>
</g>
<!-- Node6 -->
<g id="node6" class="node">
<title>Node6</title>
<g id="a_node6"><a xlink:href="cegis__verifier_8cpp.html" target="_top" xlink:title="Verifier for Counterexample&#45;Guided Synthesis.">
<polygon fill="none" stroke="black" points="708,-6 708,-47 897,-47 897,-6 708,-6"/>
<text text-anchor="start" x="716" y="-35" font-family="Helvetica,sans-Serif" font-size="10.00">/home/runner/work/diffblue</text>
<text text-anchor="start" x="716" y="-24" font-family="Helvetica,sans-Serif" font-size="10.00">&#45;cbmc/diffblue&#45;cbmc/src</text>
<text text-anchor="middle" x="802.5" y="-13" font-family="Helvetica,sans-Serif" font-size="10.00">/goto&#45;synthesizer/cegis_verifier.cpp</text>
</a>
</g>
</g>
<!-- Node1&#45;&gt;Node6 -->
<g id="edge5" class="edge">
<title>Node1&#45;&gt;Node6</title>
<path fill="none" stroke="midnightblue" d="M613.92,-86.52C655.06,-73.64 702.86,-58.68 740.05,-47.05"/>
<polygon fill="midnightblue" stroke="midnightblue" points="612.66,-83.24 604.16,-89.57 614.75,-89.92 612.66,-83.24"/>
</g>
<!-- Node7 -->
<g id="node7" class="node">
<title>Node7</title>
<g id="a_node7"><a xlink:href="api_8cpp.html" target="_top" xlink:title=" ">
<polygon fill="none" stroke="black" points="915,-6 915,-47 1064,-47 1064,-6 915,-6"/>
<text text-anchor="start" x="923" y="-35" font-family="Helvetica,sans-Serif" font-size="10.00">/home/runner/work/diffblue</text>
<text text-anchor="start" x="923" y="-24" font-family="Helvetica,sans-Serif" font-size="10.00">&#45;cbmc/diffblue&#45;cbmc/src</text>
<text text-anchor="middle" x="989.5" y="-13" font-family="Helvetica,sans-Serif" font-size="10.00">/libcprover&#45;cpp/api.cpp</text>
</a>
</g>
</g>
<!-- Node1&#45;&gt;Node7 -->
<g id="edge6" class="edge">
<title>Node1&#45;&gt;Node7</title>
<path fill="none" stroke="midnightblue" d="M614.39,-103.61C692.24,-93.32 807.57,-76.04 906.5,-53 913.99,-51.26 921.79,-49.19 929.47,-47.01"/>
<polygon fill="midnightblue" stroke="midnightblue" points="613.6,-100.18 604.14,-104.95 614.51,-107.12 613.6,-100.18"/>
</g>
</g>
</svg>
