<?xml version="1.0" encoding="UTF-8" standalone="no"?>
<!DOCTYPE svg PUBLIC "-//W3C//DTD SVG 1.1//EN"
 "http://www.w3.org/Graphics/SVG/1.1/DTD/svg11.dtd">
<!-- Generated by graphviz version 2.43.0 (0)
 -->
<!-- Title: /home/runner/work/diffblue&#45;cbmc/diffblue&#45;cbmc/src/solvers/prop/prop_conv.cpp Pages: 1 -->
<svg width="195pt" height="285pt"
 viewBox="0.00 0.00 195.00 285.00" xmlns="http://www.w3.org/2000/svg" xmlns:xlink="http://www.w3.org/1999/xlink">
<g id="graph0" class="graph" transform="scale(1 1) rotate(0) translate(4 281)">
<title>/home/runner/work/diffblue&#45;cbmc/diffblue&#45;cbmc/src/solvers/prop/prop_conv.cpp</title>
<!-- Node1 -->
<g id="node1" class="node">
<title>Node1</title>
<g id="a_node1"><a xlink:title=" ">
<polygon fill="#bfbfbf" stroke="black" points="0,-235.5 0,-276.5 152,-276.5 152,-235.5 0,-235.5"/>
<text text-anchor="start" x="8" y="-264.5" font-family="Helvetica,sans-Serif" font-size="10.00">/home/runner/work/diffblue</text>
<text text-anchor="start" x="8" y="-253.5" font-family="Helvetica,sans-Serif" font-size="10.00">&#45;cbmc/diffblue&#45;cbmc/src</text>
<text text-anchor="middle" x="76" y="-242.5" font-family="Helvetica,sans-Serif" font-size="10.00">/solvers/prop/prop_conv.cpp</text>
</a>
</g>
</g>
<!-- Node2 -->
<g id="node2" class="node">
<title>Node2</title>
<g id="a_node2"><a xlink:href="prop__conv_8h.html" target="_top" xlink:title=" ">
<polygon fill="none" stroke="black" points="38.5,-179.5 38.5,-198.5 113.5,-198.5 113.5,-179.5 38.5,-179.5"/>
<text text-anchor="middle" x="76" y="-186.5" font-family="Helvetica,sans-Serif" font-size="10.00">prop_conv.h</text>
</a>
</g>
</g>
<!-- Node1&#45;&gt;Node2 -->
<g id="edge1" class="edge">
<title>Node1&#45;&gt;Node2</title>
<path fill="none" stroke="midnightblue" d="M76,-235.5C76,-227.07 76,-217.24 76,-208.87"/>
<polygon fill="midnightblue" stroke="midnightblue" points="79.5,-208.65 76,-198.65 72.5,-208.65 79.5,-208.65"/>
</g>
<!-- Node3 -->
<g id="node3" class="node">
<title>Node3</title>
<g id="a_node3"><a xlink:href="stack__decision__procedure_8h.html" target="_top" xlink:title="Decision procedure with incremental solving with contexts and assumptions.">
<polygon fill="none" stroke="black" points="12.5,-112.5 12.5,-142.5 139.5,-142.5 139.5,-112.5 12.5,-112.5"/>
<text text-anchor="start" x="20.5" y="-130.5" font-family="Helvetica,sans-Serif" font-size="10.00">solvers/stack_decision</text>
<text text-anchor="middle" x="76" y="-119.5" font-family="Helvetica,sans-Serif" font-size="10.00">_procedure.h</text>
</a>
</g>
</g>
<!-- Node2&#45;&gt;Node3 -->
<g id="edge2" class="edge">
<title>Node2&#45;&gt;Node3</title>
<path fill="none" stroke="midnightblue" d="M76,-179.48C76,-172.47 76,-162.19 76,-152.7"/>
<polygon fill="midnightblue" stroke="midnightblue" points="79.5,-152.52 76,-142.52 72.5,-152.52 79.5,-152.52"/>
</g>
<!-- Node4 -->
<g id="node4" class="node">
<title>Node4</title>
<g id="a_node4"><a xlink:title=" ">
<polygon fill="none" stroke="#bfbfbf" points="1.5,-56.5 1.5,-75.5 48.5,-75.5 48.5,-56.5 1.5,-56.5"/>
<text text-anchor="middle" x="25" y="-63.5" font-family="Helvetica,sans-Serif" font-size="10.00">vector</text>
</a>
</g>
</g>
<!-- Node3&#45;&gt;Node4 -->
<g id="edge3" class="edge">
<title>Node3&#45;&gt;Node4</title>
<path fill="none" stroke="midnightblue" d="M63.91,-112.4C56.43,-103.66 46.78,-92.41 38.97,-83.3"/>
<polygon fill="midnightblue" stroke="midnightblue" points="41.59,-80.97 32.42,-75.66 36.27,-85.53 41.59,-80.97"/>
</g>
<!-- Node5 -->
<g id="node5" class="node">
<title>Node5</title>
<g id="a_node5"><a xlink:href="decision__procedure_8h.html" target="_top" xlink:title="Decision Procedure Interface.">
<polygon fill="none" stroke="black" points="67,-56.5 67,-75.5 187,-75.5 187,-56.5 67,-56.5"/>
<text text-anchor="middle" x="127" y="-63.5" font-family="Helvetica,sans-Serif" font-size="10.00">decision_procedure.h</text>
</a>
</g>
</g>
<!-- Node3&#45;&gt;Node5 -->
<g id="edge4" class="edge">
<title>Node3&#45;&gt;Node5</title>
<path fill="none" stroke="midnightblue" d="M88.09,-112.4C95.57,-103.66 105.22,-92.41 113.03,-83.3"/>
<polygon fill="midnightblue" stroke="midnightblue" points="115.73,-85.53 119.58,-75.66 110.41,-80.97 115.73,-85.53"/>
</g>
<!-- Node6 -->
<g id="node6" class="node">
<title>Node6</title>
<g id="a_node6"><a xlink:title=" ">
<polygon fill="none" stroke="#bfbfbf" points="71,-0.5 71,-19.5 119,-19.5 119,-0.5 71,-0.5"/>
<text text-anchor="middle" x="95" y="-7.5" font-family="Helvetica,sans-Serif" font-size="10.00">iosfwd</text>
</a>
</g>
</g>
<!-- Node5&#45;&gt;Node6 -->
<g id="edge5" class="edge">
<title>Node5&#45;&gt;Node6</title>
<path fill="none" stroke="midnightblue" d="M121.72,-56.08C117.29,-48.61 110.84,-37.72 105.38,-28.52"/>
<polygon fill="midnightblue" stroke="midnightblue" points="108.29,-26.57 100.19,-19.75 102.27,-30.14 108.29,-26.57"/>
</g>
<!-- Node7 -->
<g id="node7" class="node">
<title>Node7</title>
<g id="a_node7"><a xlink:title=" ">
<polygon fill="none" stroke="#bfbfbf" points="137,-0.5 137,-19.5 181,-19.5 181,-0.5 137,-0.5"/>
<text text-anchor="middle" x="159" y="-7.5" font-family="Helvetica,sans-Serif" font-size="10.00">string</text>
</a>
</g>
</g>
<!-- Node5&#45;&gt;Node7 -->
<g id="edge6" class="edge">
<title>Node5&#45;&gt;Node7</title>
<path fill="none" stroke="midnightblue" d="M132.28,-56.08C136.71,-48.61 143.16,-37.72 148.62,-28.52"/>
<polygon fill="midnightblue" stroke="midnightblue" points="151.73,-30.14 153.81,-19.75 145.71,-26.57 151.73,-30.14"/>
</g>
</g>
</svg>
