<?xml version="1.0" encoding="UTF-8" standalone="no"?>
<!DOCTYPE svg PUBLIC "-//W3C//DTD SVG 1.1//EN"
 "http://www.w3.org/Graphics/SVG/1.1/DTD/svg11.dtd">
<!-- Generated by graphviz version 2.43.0 (0)
 -->
<!-- Title: /home/runner/work/diffblue&#45;cbmc/diffblue&#45;cbmc/src/solvers/qbf/qdimacs_cnf.h Pages: 1 -->
<svg width="490pt" height="509pt"
 viewBox="0.00 0.00 490.00 509.00" xmlns="http://www.w3.org/2000/svg" xmlns:xlink="http://www.w3.org/1999/xlink">
<g id="graph0" class="graph" transform="scale(1 1) rotate(0) translate(4 505)">
<title>/home/runner/work/diffblue&#45;cbmc/diffblue&#45;cbmc/src/solvers/qbf/qdimacs_cnf.h</title>
<!-- Node1 -->
<g id="node1" class="node">
<title>Node1</title>
<g id="a_node1"><a xlink:title=" ">
<polygon fill="#bfbfbf" stroke="black" points="0,-459.5 0,-500.5 149,-500.5 149,-459.5 0,-459.5"/>
<text text-anchor="start" x="8" y="-488.5" font-family="Helvetica,sans-Serif" font-size="10.00">/home/runner/work/diffblue</text>
<text text-anchor="start" x="8" y="-477.5" font-family="Helvetica,sans-Serif" font-size="10.00">&#45;cbmc/diffblue&#45;cbmc/src</text>
<text text-anchor="middle" x="74.5" y="-466.5" font-family="Helvetica,sans-Serif" font-size="10.00">/solvers/qbf/qdimacs_cnf.h</text>
</a>
</g>
</g>
<!-- Node2 -->
<g id="node2" class="node">
<title>Node2</title>
<g id="a_node2"><a xlink:title=" ">
<polygon fill="none" stroke="#bfbfbf" points="55.5,-112.5 55.5,-131.5 103.5,-131.5 103.5,-112.5 55.5,-112.5"/>
<text text-anchor="middle" x="79.5" y="-119.5" font-family="Helvetica,sans-Serif" font-size="10.00">iosfwd</text>
</a>
</g>
</g>
<!-- Node1&#45;&gt;Node2 -->
<g id="edge1" class="edge">
<title>Node1&#45;&gt;Node2</title>
<path fill="none" stroke="midnightblue" d="M64.37,-459.46C52.22,-434.2 33.5,-388.51 33.5,-347 33.5,-347 33.5,-347 33.5,-233 33.5,-197.82 53.78,-160.86 67.41,-140"/>
<polygon fill="midnightblue" stroke="midnightblue" points="70.38,-141.85 73.1,-131.61 64.59,-137.92 70.38,-141.85"/>
</g>
<!-- Node3 -->
<g id="node3" class="node">
<title>Node3</title>
<g id="a_node3"><a xlink:href="dimacs__cnf_8h.html" target="_top" xlink:title=" ">
<polygon fill="none" stroke="black" points="61.5,-392.5 61.5,-422.5 169.5,-422.5 169.5,-392.5 61.5,-392.5"/>
<text text-anchor="start" x="69.5" y="-410.5" font-family="Helvetica,sans-Serif" font-size="10.00">solvers/sat/dimacs</text>
<text text-anchor="middle" x="115.5" y="-399.5" font-family="Helvetica,sans-Serif" font-size="10.00">_cnf.h</text>
</a>
</g>
</g>
<!-- Node1&#45;&gt;Node3 -->
<g id="edge2" class="edge">
<title>Node1&#45;&gt;Node3</title>
<path fill="none" stroke="midnightblue" d="M85.92,-459.36C90.92,-450.77 96.81,-440.64 102.02,-431.68"/>
<polygon fill="midnightblue" stroke="midnightblue" points="105.13,-433.3 107.13,-422.89 99.08,-429.78 105.13,-433.3"/>
</g>
<!-- Node3&#45;&gt;Node2 -->
<g id="edge3" class="edge">
<title>Node3&#45;&gt;Node2</title>
<path fill="none" stroke="midnightblue" d="M106.17,-392.22C93.25,-371.03 71.5,-329.62 71.5,-291 71.5,-291 71.5,-291 71.5,-233 71.5,-200.86 74.94,-163.58 77.31,-141.72"/>
<polygon fill="midnightblue" stroke="midnightblue" points="80.81,-141.87 78.45,-131.54 73.86,-141.09 80.81,-141.87"/>
</g>
<!-- Node4 -->
<g id="node4" class="node">
<title>Node4</title>
<g id="a_node4"><a xlink:href="cnf__clause__list_8h.html" target="_top" xlink:title="CNF Generation.">
<polygon fill="none" stroke="black" points="120.5,-336.5 120.5,-355.5 218.5,-355.5 218.5,-336.5 120.5,-336.5"/>
<text text-anchor="middle" x="169.5" y="-343.5" font-family="Helvetica,sans-Serif" font-size="10.00">cnf_clause_list.h</text>
</a>
</g>
</g>
<!-- Node3&#45;&gt;Node4 -->
<g id="edge4" class="edge">
<title>Node3&#45;&gt;Node4</title>
<path fill="none" stroke="midnightblue" d="M128.3,-392.4C136.22,-383.66 146.44,-372.41 154.71,-363.3"/>
<polygon fill="midnightblue" stroke="midnightblue" points="157.51,-365.42 161.64,-355.66 152.33,-360.71 157.51,-365.42"/>
</g>
<!-- Node5 -->
<g id="node5" class="node">
<title>Node5</title>
<g id="a_node5"><a xlink:title=" ">
<polygon fill="none" stroke="#bfbfbf" points="228.5,-280.5 228.5,-299.5 260.5,-299.5 260.5,-280.5 228.5,-280.5"/>
<text text-anchor="middle" x="244.5" y="-287.5" font-family="Helvetica,sans-Serif" font-size="10.00">list</text>
</a>
</g>
</g>
<!-- Node4&#45;&gt;Node5 -->
<g id="edge5" class="edge">
<title>Node4&#45;&gt;Node5</title>
<path fill="none" stroke="midnightblue" d="M181.55,-336.32C192.96,-328.11 210.33,-315.6 223.93,-305.81"/>
<polygon fill="midnightblue" stroke="midnightblue" points="226.16,-308.52 232.23,-299.83 222.07,-302.84 226.16,-308.52"/>
</g>
<!-- Node6 -->
<g id="node6" class="node">
<title>Node6</title>
<g id="a_node6"><a xlink:href="threeval_8h.html" target="_top" xlink:title=" ">
<polygon fill="none" stroke="black" points="100,-168.5 100,-187.5 185,-187.5 185,-168.5 100,-168.5"/>
<text text-anchor="middle" x="142.5" y="-175.5" font-family="Helvetica,sans-Serif" font-size="10.00">util/threeval.h</text>
</a>
</g>
</g>
<!-- Node4&#45;&gt;Node6 -->
<g id="edge6" class="edge">
<title>Node4&#45;&gt;Node6</title>
<path fill="none" stroke="midnightblue" d="M167.91,-336.38C166.26,-327.33 163.62,-312.68 161.5,-300 155.44,-263.77 148.91,-221.35 145.3,-197.58"/>
<polygon fill="midnightblue" stroke="midnightblue" points="148.73,-196.88 143.78,-187.52 141.81,-197.93 148.73,-196.88"/>
</g>
<!-- Node7 -->
<g id="node7" class="node">
<title>Node7</title>
<g id="a_node7"><a xlink:href="cnf_8h.html" target="_top" xlink:title="CNF Generation, via Tseitin.">
<polygon fill="none" stroke="black" points="170.5,-280.5 170.5,-299.5 210.5,-299.5 210.5,-280.5 170.5,-280.5"/>
<text text-anchor="middle" x="190.5" y="-287.5" font-family="Helvetica,sans-Serif" font-size="10.00">cnf.h</text>
</a>
</g>
</g>
<!-- Node4&#45;&gt;Node7 -->
<g id="edge8" class="edge">
<title>Node4&#45;&gt;Node7</title>
<path fill="none" stroke="midnightblue" d="M172.97,-336.08C175.81,-328.77 179.93,-318.18 183.46,-309.1"/>
<polygon fill="midnightblue" stroke="midnightblue" points="186.73,-310.34 187.1,-299.75 180.21,-307.8 186.73,-310.34"/>
</g>
<!-- Node6&#45;&gt;Node2 -->
<g id="edge7" class="edge">
<title>Node6&#45;&gt;Node2</title>
<path fill="none" stroke="midnightblue" d="M132.38,-168.32C122.97,-160.26 108.76,-148.08 97.43,-138.37"/>
<polygon fill="midnightblue" stroke="midnightblue" points="99.68,-135.68 89.81,-131.83 95.12,-141 99.68,-135.68"/>
</g>
<!-- Node8 -->
<g id="node8" class="node">
<title>Node8</title>
<g id="a_node8"><a xlink:href="prop_8h.html" target="_top" xlink:title=" ">
<polygon fill="none" stroke="black" points="175.5,-224.5 175.5,-243.5 285.5,-243.5 285.5,-224.5 175.5,-224.5"/>
<text text-anchor="middle" x="230.5" y="-231.5" font-family="Helvetica,sans-Serif" font-size="10.00">solvers/prop/prop.h</text>
</a>
</g>
</g>
<!-- Node7&#45;&gt;Node8 -->
<g id="edge9" class="edge">
<title>Node7&#45;&gt;Node8</title>
<path fill="none" stroke="midnightblue" d="M197.11,-280.08C202.76,-272.46 211.04,-261.26 217.95,-251.94"/>
<polygon fill="midnightblue" stroke="midnightblue" points="220.88,-253.87 224.02,-243.75 215.25,-249.7 220.88,-253.87"/>
</g>
<!-- Node8&#45;&gt;Node6 -->
<g id="edge20" class="edge">
<title>Node8&#45;&gt;Node6</title>
<path fill="none" stroke="midnightblue" d="M216.36,-224.32C202.63,-215.9 181.56,-202.97 165.44,-193.07"/>
<polygon fill="midnightblue" stroke="midnightblue" points="166.96,-189.9 156.6,-187.65 163.3,-195.87 166.96,-189.9"/>
</g>
<!-- Node9 -->
<g id="node9" class="node">
<title>Node9</title>
<g id="a_node9"><a xlink:href="src_2util_2message_8h.html" target="_top" xlink:title=" ">
<polygon fill="none" stroke="black" points="276,-168.5 276,-187.5 365,-187.5 365,-168.5 276,-168.5"/>
<text text-anchor="middle" x="320.5" y="-175.5" font-family="Helvetica,sans-Serif" font-size="10.00">util/message.h</text>
</a>
</g>
</g>
<!-- Node8&#45;&gt;Node9 -->
<g id="edge10" class="edge">
<title>Node8&#45;&gt;Node9</title>
<path fill="none" stroke="midnightblue" d="M244.96,-224.32C259,-215.9 280.55,-202.97 297.04,-193.07"/>
<polygon fill="midnightblue" stroke="midnightblue" points="299.3,-195.8 306.08,-187.65 295.7,-189.8 299.3,-195.8"/>
</g>
<!-- Node35 -->
<g id="node15" class="node">
<title>Node35</title>
<g id="a_node15"><a xlink:href="literal_8h.html" target="_top" xlink:title=" ">
<polygon fill="none" stroke="black" points="203.5,-168.5 203.5,-187.5 257.5,-187.5 257.5,-168.5 203.5,-168.5"/>
<text text-anchor="middle" x="230.5" y="-175.5" font-family="Helvetica,sans-Serif" font-size="10.00">literal.h</text>
</a>
</g>
</g>
<!-- Node8&#45;&gt;Node35 -->
<g id="edge21" class="edge">
<title>Node8&#45;&gt;Node35</title>
<path fill="none" stroke="midnightblue" d="M230.5,-224.08C230.5,-217.01 230.5,-206.86 230.5,-197.99"/>
<polygon fill="midnightblue" stroke="midnightblue" points="234,-197.75 230.5,-187.75 227,-197.75 234,-197.75"/>
</g>
<!-- Node36 -->
<g id="node18" class="node">
<title>Node36</title>
<g id="a_node18"><a xlink:title=" ">
<polygon fill="none" stroke="#bfbfbf" points="383.5,-168.5 383.5,-187.5 433.5,-187.5 433.5,-168.5 383.5,-168.5"/>
<text text-anchor="middle" x="408.5" y="-175.5" font-family="Helvetica,sans-Serif" font-size="10.00">cstdint</text>
</a>
</g>
</g>
<!-- Node8&#45;&gt;Node36 -->
<g id="edge26" class="edge">
<title>Node8&#45;&gt;Node36</title>
<path fill="none" stroke="midnightblue" d="M258.7,-224.44C289.8,-215.01 339.86,-199.82 373.45,-189.63"/>
<polygon fill="midnightblue" stroke="midnightblue" points="374.75,-192.9 383.31,-186.64 372.72,-186.2 374.75,-192.9"/>
</g>
<!-- Node9&#45;&gt;Node2 -->
<g id="edge17" class="edge">
<title>Node9&#45;&gt;Node2</title>
<path fill="none" stroke="midnightblue" d="M281.17,-168.46C240.24,-159.53 174.33,-145.03 117.5,-132 116.24,-131.71 114.95,-131.41 113.65,-131.11"/>
<polygon fill="midnightblue" stroke="midnightblue" points="114.14,-127.63 103.61,-128.77 112.55,-134.45 114.14,-127.63"/>
</g>
<!-- Node10 -->
<g id="node10" class="node">
<title>Node10</title>
<g id="a_node10"><a xlink:href="src_2util_2invariant_8h.html" target="_top" xlink:title=" ">
<polygon fill="none" stroke="red" points="213,-56.5 213,-75.5 282,-75.5 282,-56.5 213,-56.5"/>
<text text-anchor="middle" x="247.5" y="-63.5" font-family="Helvetica,sans-Serif" font-size="10.00">invariant.h</text>
</a>
</g>
</g>
<!-- Node9&#45;&gt;Node10 -->
<g id="edge11" class="edge">
<title>Node9&#45;&gt;Node10</title>
<path fill="none" stroke="midnightblue" d="M318.16,-168.46C314.35,-155.5 305.97,-130.42 293.5,-112 286.02,-100.95 275.51,-90.42 266.42,-82.32"/>
<polygon fill="midnightblue" stroke="midnightblue" points="268.47,-79.47 258.6,-75.63 263.92,-84.79 268.47,-79.47"/>
</g>
<!-- Node12 -->
<g id="node11" class="node">
<title>Node12</title>
<g id="a_node11"><a xlink:title=" ">
<polygon fill="none" stroke="#bfbfbf" points="179.5,-0.5 179.5,-19.5 235.5,-19.5 235.5,-0.5 179.5,-0.5"/>
<text text-anchor="middle" x="207.5" y="-7.5" font-family="Helvetica,sans-Serif" font-size="10.00">sstream</text>
</a>
</g>
</g>
<!-- Node9&#45;&gt;Node12 -->
<g id="edge18" class="edge">
<title>Node9&#45;&gt;Node12</title>
<path fill="none" stroke="midnightblue" d="M277.67,-168.48C229.93,-158.56 158.37,-142.22 150.5,-132 124.56,-98.29 164.92,-50.87 189.99,-26.62"/>
<polygon fill="midnightblue" stroke="midnightblue" points="192.57,-29 197.49,-19.61 187.79,-23.88 192.57,-29"/>
</g>
<!-- Node13 -->
<g id="node12" class="node">
<title>Node13</title>
<g id="a_node12"><a xlink:title=" ">
<polygon fill="none" stroke="#bfbfbf" points="328.5,-0.5 328.5,-19.5 372.5,-19.5 372.5,-0.5 328.5,-0.5"/>
<text text-anchor="middle" x="350.5" y="-7.5" font-family="Helvetica,sans-Serif" font-size="10.00">string</text>
</a>
</g>
</g>
<!-- Node9&#45;&gt;Node13 -->
<g id="edge19" class="edge">
<title>Node9&#45;&gt;Node13</title>
<path fill="none" stroke="midnightblue" d="M322.11,-168.08C326.84,-141.95 340.7,-65.21 347.14,-29.58"/>
<polygon fill="midnightblue" stroke="midnightblue" points="350.62,-30.03 348.95,-19.57 343.73,-28.79 350.62,-30.03"/>
</g>
<!-- Node15 -->
<g id="node13" class="node">
<title>Node15</title>
<g id="a_node13"><a xlink:href="source__location_8h.html" target="_top" xlink:title=" ">
<polygon fill="none" stroke="red" points="378.5,-56.5 378.5,-75.5 480.5,-75.5 480.5,-56.5 378.5,-56.5"/>
<text text-anchor="middle" x="429.5" y="-63.5" font-family="Helvetica,sans-Serif" font-size="10.00">source_location.h</text>
</a>
</g>
</g>
<!-- Node9&#45;&gt;Node15 -->
<g id="edge14" class="edge">
<title>Node9&#45;&gt;Node15</title>
<path fill="none" stroke="midnightblue" d="M329.05,-168.37C347.36,-149.89 390.56,-106.29 413.9,-82.74"/>
<polygon fill="midnightblue" stroke="midnightblue" points="416.43,-85.16 420.99,-75.59 411.46,-80.23 416.43,-85.16"/>
</g>
<!-- Node34 -->
<g id="node14" class="node">
<title>Node34</title>
<g id="a_node14"><a xlink:title=" ">
<polygon fill="none" stroke="#bfbfbf" points="417,-112.5 417,-131.5 482,-131.5 482,-112.5 417,-112.5"/>
<text text-anchor="middle" x="449.5" y="-119.5" font-family="Helvetica,sans-Serif" font-size="10.00">functional</text>
</a>
</g>
</g>
<!-- Node9&#45;&gt;Node34 -->
<g id="edge16" class="edge">
<title>Node9&#45;&gt;Node34</title>
<path fill="none" stroke="midnightblue" d="M340.94,-168.44C362.17,-159.56 395.6,-145.56 419.75,-135.45"/>
<polygon fill="midnightblue" stroke="midnightblue" points="421.28,-138.61 429.16,-131.52 418.58,-132.15 421.28,-138.61"/>
</g>
<!-- Node10&#45;&gt;Node12 -->
<g id="edge12" class="edge">
<title>Node10&#45;&gt;Node12</title>
<path fill="none" stroke="midnightblue" d="M240.89,-56.08C235.24,-48.46 226.96,-37.26 220.05,-27.94"/>
<polygon fill="midnightblue" stroke="midnightblue" points="222.75,-25.7 213.98,-19.75 217.12,-29.87 222.75,-25.7"/>
</g>
<!-- Node10&#45;&gt;Node13 -->
<g id="edge13" class="edge">
<title>Node10&#45;&gt;Node13</title>
<path fill="none" stroke="midnightblue" d="M264.05,-56.32C280.49,-47.7 305.93,-34.36 324.97,-24.39"/>
<polygon fill="midnightblue" stroke="midnightblue" points="326.76,-27.4 333.99,-19.65 323.51,-21.2 326.76,-27.4"/>
</g>
<!-- Node15&#45;&gt;Node13 -->
<g id="edge15" class="edge">
<title>Node15&#45;&gt;Node13</title>
<path fill="none" stroke="midnightblue" d="M416.81,-56.32C404.6,-47.98 385.92,-35.21 371.5,-25.35"/>
<polygon fill="midnightblue" stroke="midnightblue" points="373.39,-22.41 363.16,-19.65 369.44,-28.19 373.39,-22.41"/>
</g>
<!-- Node35&#45;&gt;Node2 -->
<g id="edge22" class="edge">
<title>Node35&#45;&gt;Node2</title>
<path fill="none" stroke="midnightblue" d="M206.57,-168.44C181.28,-159.4 141.2,-145.06 112.82,-134.92"/>
<polygon fill="midnightblue" stroke="midnightblue" points="113.91,-131.59 103.31,-131.52 111.55,-138.18 113.91,-131.59"/>
</g>
<!-- Node32 -->
<g id="node16" class="node">
<title>Node32</title>
<g id="a_node16"><a xlink:href="narrow_8h.html" target="_top" xlink:title=" ">
<polygon fill="none" stroke="red" points="160,-112.5 160,-131.5 219,-131.5 219,-112.5 160,-112.5"/>
<text text-anchor="middle" x="189.5" y="-119.5" font-family="Helvetica,sans-Serif" font-size="10.00">narrow.h</text>
</a>
</g>
</g>
<!-- Node35&#45;&gt;Node32 -->
<g id="edge23" class="edge">
<title>Node35&#45;&gt;Node32</title>
<path fill="none" stroke="midnightblue" d="M223.73,-168.08C217.94,-160.46 209.44,-149.26 202.36,-139.94"/>
<polygon fill="midnightblue" stroke="midnightblue" points="204.98,-137.6 196.14,-131.75 199.4,-141.83 204.98,-137.6"/>
</g>
<!-- Node18 -->
<g id="node17" class="node">
<title>Node18</title>
<g id="a_node17"><a xlink:title=" ">
<polygon fill="none" stroke="#bfbfbf" points="237,-112.5 237,-131.5 284,-131.5 284,-112.5 237,-112.5"/>
<text text-anchor="middle" x="260.5" y="-119.5" font-family="Helvetica,sans-Serif" font-size="10.00">vector</text>
</a>
</g>
</g>
<!-- Node35&#45;&gt;Node18 -->
<g id="edge25" class="edge">
<title>Node35&#45;&gt;Node18</title>
<path fill="none" stroke="midnightblue" d="M235.45,-168.08C239.6,-160.61 245.65,-149.72 250.77,-140.52"/>
<polygon fill="midnightblue" stroke="midnightblue" points="253.84,-142.19 255.64,-131.75 247.72,-138.79 253.84,-142.19"/>
</g>
<!-- Node32&#45;&gt;Node10 -->
<g id="edge24" class="edge">
<title>Node32&#45;&gt;Node10</title>
<path fill="none" stroke="midnightblue" d="M198.82,-112.32C207.39,-104.34 220.31,-92.31 230.69,-82.65"/>
<polygon fill="midnightblue" stroke="midnightblue" points="233.08,-85.21 238.01,-75.83 228.31,-80.09 233.08,-85.21"/>
</g>
</g>
</svg>
