<?xml version="1.0" encoding="UTF-8" standalone="no"?>
<!DOCTYPE svg PUBLIC "-//W3C//DTD SVG 1.1//EN"
 "http://www.w3.org/Graphics/SVG/1.1/DTD/svg11.dtd">
<!-- Generated by graphviz version 2.43.0 (0)
 -->
<!-- Title: /home/runner/work/diffblue&#45;cbmc/diffblue&#45;cbmc/src/solvers/qbf/qdimacs_core.h Pages: 1 -->
<svg width="904pt" height="295pt"
 viewBox="0.00 0.00 904.00 295.00" xmlns="http://www.w3.org/2000/svg" xmlns:xlink="http://www.w3.org/1999/xlink">
<g id="graph0" class="graph" transform="scale(1 1) rotate(0) translate(4 291)">
<title>/home/runner/work/diffblue&#45;cbmc/diffblue&#45;cbmc/src/solvers/qbf/qdimacs_core.h</title>
<!-- Node1 -->
<g id="node1" class="node">
<title>Node1</title>
<g id="a_node1"><a xlink:title=" ">
<polygon fill="#bfbfbf" stroke="black" points="457.5,-245.5 457.5,-286.5 610.5,-286.5 610.5,-245.5 457.5,-245.5"/>
<text text-anchor="start" x="465.5" y="-274.5" font-family="Helvetica,sans-Serif" font-size="10.00">/home/runner/work/diffblue</text>
<text text-anchor="start" x="465.5" y="-263.5" font-family="Helvetica,sans-Serif" font-size="10.00">&#45;cbmc/diffblue&#45;cbmc/src</text>
<text text-anchor="middle" x="534" y="-252.5" font-family="Helvetica,sans-Serif" font-size="10.00">/solvers/qbf/qdimacs_core.h</text>
</a>
</g>
</g>
<!-- Node2 -->
<g id="node2" class="node">
<title>Node2</title>
<g id="a_node2"><a xlink:href="qbf__bdd__core_8h.html" target="_top" xlink:title=" ">
<polygon fill="none" stroke="black" points="186.5,-167.5 186.5,-208.5 337.5,-208.5 337.5,-167.5 186.5,-167.5"/>
<text text-anchor="start" x="194.5" y="-196.5" font-family="Helvetica,sans-Serif" font-size="10.00">/home/runner/work/diffblue</text>
<text text-anchor="start" x="194.5" y="-185.5" font-family="Helvetica,sans-Serif" font-size="10.00">&#45;cbmc/diffblue&#45;cbmc/src</text>
<text text-anchor="middle" x="262" y="-174.5" font-family="Helvetica,sans-Serif" font-size="10.00">/solvers/qbf/qbf_bdd_core.h</text>
</a>
</g>
</g>
<!-- Node1&#45;&gt;Node2 -->
<g id="edge1" class="edge">
<title>Node1&#45;&gt;Node2</title>
<path fill="none" stroke="midnightblue" d="M454.26,-242.72C415.44,-231.87 369.21,-218.96 331.81,-208.51"/>
<polygon fill="midnightblue" stroke="midnightblue" points="453.38,-246.11 463.95,-245.43 455.26,-239.37 453.38,-246.11"/>
</g>
<!-- Node6 -->
<g id="node6" class="node">
<title>Node6</title>
<g id="a_node6"><a xlink:href="qbf__qube__core_8h.html" target="_top" xlink:title=" ">
<polygon fill="none" stroke="black" points="363.5,-167.5 363.5,-208.5 520.5,-208.5 520.5,-167.5 363.5,-167.5"/>
<text text-anchor="start" x="371.5" y="-196.5" font-family="Helvetica,sans-Serif" font-size="10.00">/home/runner/work/diffblue</text>
<text text-anchor="start" x="371.5" y="-185.5" font-family="Helvetica,sans-Serif" font-size="10.00">&#45;cbmc/diffblue&#45;cbmc/src</text>
<text text-anchor="middle" x="442" y="-174.5" font-family="Helvetica,sans-Serif" font-size="10.00">/solvers/qbf/qbf_qube_core.h</text>
</a>
</g>
</g>
<!-- Node1&#45;&gt;Node6 -->
<g id="edge5" class="edge">
<title>Node1&#45;&gt;Node6</title>
<path fill="none" stroke="midnightblue" d="M502.26,-238.78C490.23,-228.84 476.76,-217.72 465.61,-208.51"/>
<polygon fill="midnightblue" stroke="midnightblue" points="500.37,-241.76 510.31,-245.43 504.83,-236.36 500.37,-241.76"/>
</g>
<!-- Node8 -->
<g id="node8" class="node">
<title>Node8</title>
<g id="a_node8"><a xlink:href="qbf__squolem__core_8h.html" target="_top" xlink:title="Squolem Backend (with Proofs)">
<polygon fill="none" stroke="black" points="538.5,-167.5 538.5,-208.5 713.5,-208.5 713.5,-167.5 538.5,-167.5"/>
<text text-anchor="start" x="546.5" y="-196.5" font-family="Helvetica,sans-Serif" font-size="10.00">/home/runner/work/diffblue</text>
<text text-anchor="start" x="546.5" y="-185.5" font-family="Helvetica,sans-Serif" font-size="10.00">&#45;cbmc/diffblue&#45;cbmc/src</text>
<text text-anchor="middle" x="626" y="-174.5" font-family="Helvetica,sans-Serif" font-size="10.00">/solvers/qbf/qbf_squolem_core.h</text>
</a>
</g>
</g>
<!-- Node1&#45;&gt;Node8 -->
<g id="edge7" class="edge">
<title>Node1&#45;&gt;Node8</title>
<path fill="none" stroke="midnightblue" d="M565.74,-238.78C577.77,-228.84 591.24,-217.72 602.39,-208.51"/>
<polygon fill="midnightblue" stroke="midnightblue" points="563.17,-236.36 557.69,-245.43 567.63,-241.76 563.17,-236.36"/>
</g>
<!-- Node10 -->
<g id="node10" class="node">
<title>Node10</title>
<g id="a_node10"><a xlink:href="qdimacs__core_8cpp.html" target="_top" xlink:title=" ">
<polygon fill="none" stroke="black" points="732,-167.5 732,-208.5 896,-208.5 896,-167.5 732,-167.5"/>
<text text-anchor="start" x="740" y="-196.5" font-family="Helvetica,sans-Serif" font-size="10.00">/home/runner/work/diffblue</text>
<text text-anchor="start" x="740" y="-185.5" font-family="Helvetica,sans-Serif" font-size="10.00">&#45;cbmc/diffblue&#45;cbmc/src</text>
<text text-anchor="middle" x="814" y="-174.5" font-family="Helvetica,sans-Serif" font-size="10.00">/solvers/qbf/qdimacs_core.cpp</text>
</a>
</g>
</g>
<!-- Node1&#45;&gt;Node10 -->
<g id="edge9" class="edge">
<title>Node1&#45;&gt;Node10</title>
<path fill="none" stroke="midnightblue" d="M615.84,-242.79C655.84,-231.93 703.56,-218.98 742.14,-208.51"/>
<polygon fill="midnightblue" stroke="midnightblue" points="614.84,-239.43 606.11,-245.43 616.67,-246.19 614.84,-239.43"/>
</g>
<!-- Node3 -->
<g id="node3" class="node">
<title>Node3</title>
<g id="a_node3"><a xlink:href="qbf__bdd__core_8cpp.html" target="_top" xlink:title=" ">
<polygon fill="none" stroke="black" points="0,-84 0,-125 162,-125 162,-84 0,-84"/>
<text text-anchor="start" x="8" y="-113" font-family="Helvetica,sans-Serif" font-size="10.00">/home/runner/work/diffblue</text>
<text text-anchor="start" x="8" y="-102" font-family="Helvetica,sans-Serif" font-size="10.00">&#45;cbmc/diffblue&#45;cbmc/src</text>
<text text-anchor="middle" x="81" y="-91" font-family="Helvetica,sans-Serif" font-size="10.00">/solvers/qbf/qbf_bdd_core.cpp</text>
</a>
</g>
</g>
<!-- Node2&#45;&gt;Node3 -->
<g id="edge2" class="edge">
<title>Node2&#45;&gt;Node3</title>
<path fill="none" stroke="midnightblue" d="M209.34,-163.29C182.34,-151.13 149.85,-136.5 124.31,-125"/>
<polygon fill="midnightblue" stroke="midnightblue" points="208.09,-166.56 218.65,-167.48 210.96,-160.18 208.09,-166.56"/>
</g>
<!-- Node4 -->
<g id="node4" class="node">
<title>Node4</title>
<g id="a_node4"><a xlink:href="qbf__skizzo__core_8h.html" target="_top" xlink:title=" ">
<polygon fill="none" stroke="black" points="180,-84 180,-125 344,-125 344,-84 180,-84"/>
<text text-anchor="start" x="188" y="-113" font-family="Helvetica,sans-Serif" font-size="10.00">/home/runner/work/diffblue</text>
<text text-anchor="start" x="188" y="-102" font-family="Helvetica,sans-Serif" font-size="10.00">&#45;cbmc/diffblue&#45;cbmc/src</text>
<text text-anchor="middle" x="262" y="-91" font-family="Helvetica,sans-Serif" font-size="10.00">/solvers/qbf/qbf_skizzo_core.h</text>
</a>
</g>
</g>
<!-- Node2&#45;&gt;Node4 -->
<g id="edge3" class="edge">
<title>Node2&#45;&gt;Node4</title>
<path fill="none" stroke="midnightblue" d="M262,-157.06C262,-146.38 262,-134.63 262,-125.05"/>
<polygon fill="midnightblue" stroke="midnightblue" points="258.5,-157.27 262,-167.27 265.5,-157.27 258.5,-157.27"/>
</g>
<!-- Node5 -->
<g id="node5" class="node">
<title>Node5</title>
<g id="a_node5"><a xlink:href="qbf__skizzo__core_8cpp.html" target="_top" xlink:title=" ">
<polygon fill="none" stroke="black" points="174.5,-0.5 174.5,-41.5 349.5,-41.5 349.5,-0.5 174.5,-0.5"/>
<text text-anchor="start" x="182.5" y="-29.5" font-family="Helvetica,sans-Serif" font-size="10.00">/home/runner/work/diffblue</text>
<text text-anchor="start" x="182.5" y="-18.5" font-family="Helvetica,sans-Serif" font-size="10.00">&#45;cbmc/diffblue&#45;cbmc/src</text>
<text text-anchor="middle" x="262" y="-7.5" font-family="Helvetica,sans-Serif" font-size="10.00">/solvers/qbf/qbf_skizzo_core.cpp</text>
</a>
</g>
</g>
<!-- Node4&#45;&gt;Node5 -->
<g id="edge4" class="edge">
<title>Node4&#45;&gt;Node5</title>
<path fill="none" stroke="midnightblue" d="M262,-73.56C262,-62.88 262,-51.13 262,-41.55"/>
<polygon fill="midnightblue" stroke="midnightblue" points="258.5,-73.77 262,-83.77 265.5,-73.77 258.5,-73.77"/>
</g>
<!-- Node7 -->
<g id="node7" class="node">
<title>Node7</title>
<g id="a_node7"><a xlink:href="qbf__qube__core_8cpp.html" target="_top" xlink:title=" ">
<polygon fill="none" stroke="black" points="362,-84 362,-125 530,-125 530,-84 362,-84"/>
<text text-anchor="start" x="370" y="-113" font-family="Helvetica,sans-Serif" font-size="10.00">/home/runner/work/diffblue</text>
<text text-anchor="start" x="370" y="-102" font-family="Helvetica,sans-Serif" font-size="10.00">&#45;cbmc/diffblue&#45;cbmc/src</text>
<text text-anchor="middle" x="446" y="-91" font-family="Helvetica,sans-Serif" font-size="10.00">/solvers/qbf/qbf_qube_core.cpp</text>
</a>
</g>
</g>
<!-- Node6&#45;&gt;Node7 -->
<g id="edge6" class="edge">
<title>Node6&#45;&gt;Node7</title>
<path fill="none" stroke="midnightblue" d="M443.47,-157.06C443.99,-146.38 444.57,-134.63 445.04,-125.05"/>
<polygon fill="midnightblue" stroke="midnightblue" points="439.96,-157.11 442.97,-167.27 446.95,-157.45 439.96,-157.11"/>
</g>
<!-- Node9 -->
<g id="node9" class="node">
<title>Node9</title>
<g id="a_node9"><a xlink:href="qbf__squolem__core_8cpp.html" target="_top" xlink:title="Squolem Backend (with proofs)">
<polygon fill="none" stroke="black" points="551.5,-78.5 551.5,-130.5 700.5,-130.5 700.5,-78.5 551.5,-78.5"/>
<text text-anchor="start" x="559.5" y="-118.5" font-family="Helvetica,sans-Serif" font-size="10.00">/home/runner/work/diffblue</text>
<text text-anchor="start" x="559.5" y="-107.5" font-family="Helvetica,sans-Serif" font-size="10.00">&#45;cbmc/diffblue&#45;cbmc/src</text>
<text text-anchor="start" x="559.5" y="-96.5" font-family="Helvetica,sans-Serif" font-size="10.00">/solvers/qbf/qbf_squolem</text>
<text text-anchor="middle" x="626" y="-85.5" font-family="Helvetica,sans-Serif" font-size="10.00">_core.cpp</text>
</a>
</g>
</g>
<!-- Node8&#45;&gt;Node9 -->
<g id="edge8" class="edge">
<title>Node8&#45;&gt;Node9</title>
<path fill="none" stroke="midnightblue" d="M626,-157.12C626,-148.41 626,-138.99 626,-130.61"/>
<polygon fill="midnightblue" stroke="midnightblue" points="622.5,-157.27 626,-167.27 629.5,-157.27 622.5,-157.27"/>
</g>
</g>
</svg>
