<?xml version="1.0" encoding="UTF-8" standalone="no"?>
<!DOCTYPE svg PUBLIC "-//W3C//DTD SVG 1.1//EN"
 "http://www.w3.org/Graphics/SVG/1.1/DTD/svg11.dtd">
<!-- Generated by graphviz version 2.43.0 (0)
 -->
<!-- Title: /home/runner/work/diffblue&#45;cbmc/diffblue&#45;cbmc/src/goto&#45;instrument/reachability_slicer.h Pages: 1 -->
<svg width="974pt" height="239pt"
 viewBox="0.00 0.00 974.00 239.00" xmlns="http://www.w3.org/2000/svg" xmlns:xlink="http://www.w3.org/1999/xlink">
<g id="graph0" class="graph" transform="scale(1 1) rotate(0) translate(4 235)">
<title>/home/runner/work/diffblue&#45;cbmc/diffblue&#45;cbmc/src/goto&#45;instrument/reachability_slicer.h</title>
<!-- Node1 -->
<g id="node1" class="node">
<title>Node1</title>
<g id="a_node1"><a xlink:title="Slicing.">
<polygon fill="#bfbfbf" stroke="black" points="400.5,-178.5 400.5,-230.5 559.5,-230.5 559.5,-178.5 400.5,-178.5"/>
<text text-anchor="start" x="408.5" y="-218.5" font-family="Helvetica,sans-Serif" font-size="10.00">/home/runner/work/diffblue</text>
<text text-anchor="start" x="408.5" y="-207.5" font-family="Helvetica,sans-Serif" font-size="10.00">&#45;cbmc/diffblue&#45;cbmc/src</text>
<text text-anchor="start" x="408.5" y="-196.5" font-family="Helvetica,sans-Serif" font-size="10.00">/goto&#45;instrument/reachability</text>
<text text-anchor="middle" x="480" y="-185.5" font-family="Helvetica,sans-Serif" font-size="10.00">_slicer.h</text>
</a>
</g>
</g>
<!-- Node2 -->
<g id="node2" class="node">
<title>Node2</title>
<g id="a_node2"><a xlink:href="cbmc__parse__options_8cpp.html" target="_top" xlink:title="CBMC Command Line Option Processing.">
<polygon fill="none" stroke="black" points="12.5,-95 12.5,-136 181.5,-136 181.5,-95 12.5,-95"/>
<text text-anchor="start" x="20.5" y="-124" font-family="Helvetica,sans-Serif" font-size="10.00">/home/runner/work/diffblue</text>
<text text-anchor="start" x="20.5" y="-113" font-family="Helvetica,sans-Serif" font-size="10.00">&#45;cbmc/diffblue&#45;cbmc/src</text>
<text text-anchor="middle" x="97" y="-102" font-family="Helvetica,sans-Serif" font-size="10.00">/cbmc/cbmc_parse_options.cpp</text>
</a>
</g>
</g>
<!-- Node1&#45;&gt;Node2 -->
<g id="edge1" class="edge">
<title>Node1&#45;&gt;Node2</title>
<path fill="none" stroke="midnightblue" d="M390.21,-185.72C333.01,-174.07 257.44,-158.07 191,-142 183.28,-140.13 175.22,-138.09 167.21,-136"/>
<polygon fill="midnightblue" stroke="midnightblue" points="389.81,-189.21 400.31,-187.77 391.2,-182.35 389.81,-189.21"/>
</g>
<!-- Node3 -->
<g id="node3" class="node">
<title>Node3</title>
<g id="a_node3"><a xlink:href="goto__instrument__parse__options_8h.html" target="_top" xlink:title="Command Line Parsing.">
<polygon fill="none" stroke="black" points="200,-89.5 200,-141.5 382,-141.5 382,-89.5 200,-89.5"/>
<text text-anchor="start" x="208" y="-129.5" font-family="Helvetica,sans-Serif" font-size="10.00">/home/runner/work/diffblue</text>
<text text-anchor="start" x="208" y="-118.5" font-family="Helvetica,sans-Serif" font-size="10.00">&#45;cbmc/diffblue&#45;cbmc/src</text>
<text text-anchor="start" x="208" y="-107.5" font-family="Helvetica,sans-Serif" font-size="10.00">/goto&#45;instrument/goto_instrument</text>
<text text-anchor="middle" x="291" y="-96.5" font-family="Helvetica,sans-Serif" font-size="10.00">_parse_options.h</text>
</a>
</g>
</g>
<!-- Node1&#45;&gt;Node3 -->
<g id="edge2" class="edge">
<title>Node1&#45;&gt;Node3</title>
<path fill="none" stroke="midnightblue" d="M416.25,-174.15C393.23,-163.56 367.49,-151.71 345.36,-141.52"/>
<polygon fill="midnightblue" stroke="midnightblue" points="415.04,-177.45 425.59,-178.45 417.97,-171.09 415.04,-177.45"/>
</g>
<!-- Node7 -->
<g id="node7" class="node">
<title>Node7</title>
<g id="a_node7"><a xlink:href="reachability__slicer_8cpp.html" target="_top" xlink:title="Reachability Slicer Consider the control flow graph of the goto program and a criterion,...">
<polygon fill="none" stroke="black" points="400.5,-89.5 400.5,-141.5 559.5,-141.5 559.5,-89.5 400.5,-89.5"/>
<text text-anchor="start" x="408.5" y="-129.5" font-family="Helvetica,sans-Serif" font-size="10.00">/home/runner/work/diffblue</text>
<text text-anchor="start" x="408.5" y="-118.5" font-family="Helvetica,sans-Serif" font-size="10.00">&#45;cbmc/diffblue&#45;cbmc/src</text>
<text text-anchor="start" x="408.5" y="-107.5" font-family="Helvetica,sans-Serif" font-size="10.00">/goto&#45;instrument/reachability</text>
<text text-anchor="middle" x="480" y="-96.5" font-family="Helvetica,sans-Serif" font-size="10.00">_slicer.cpp</text>
</a>
</g>
</g>
<!-- Node1&#45;&gt;Node7 -->
<g id="edge6" class="edge">
<title>Node1&#45;&gt;Node7</title>
<path fill="none" stroke="midnightblue" d="M480,-168.19C480,-159.28 480,-149.9 480,-141.61"/>
<polygon fill="midnightblue" stroke="midnightblue" points="476.5,-168.34 480,-178.34 483.5,-168.34 476.5,-168.34"/>
</g>
<!-- Node8 -->
<g id="node8" class="node">
<title>Node8</title>
<g id="a_node8"><a xlink:href="goto__synthesizer__parse__options_8cpp.html" target="_top" xlink:title="Main Module.">
<polygon fill="none" stroke="black" points="578,-89.5 578,-141.5 766,-141.5 766,-89.5 578,-89.5"/>
<text text-anchor="start" x="586" y="-129.5" font-family="Helvetica,sans-Serif" font-size="10.00">/home/runner/work/diffblue</text>
<text text-anchor="start" x="586" y="-118.5" font-family="Helvetica,sans-Serif" font-size="10.00">&#45;cbmc/diffblue&#45;cbmc/src</text>
<text text-anchor="start" x="586" y="-107.5" font-family="Helvetica,sans-Serif" font-size="10.00">/goto&#45;synthesizer/goto_synthesizer</text>
<text text-anchor="middle" x="672" y="-96.5" font-family="Helvetica,sans-Serif" font-size="10.00">_parse_options.cpp</text>
</a>
</g>
</g>
<!-- Node1&#45;&gt;Node8 -->
<g id="edge7" class="edge">
<title>Node1&#45;&gt;Node8</title>
<path fill="none" stroke="midnightblue" d="M544.45,-174.29C567.91,-163.67 594.2,-151.76 616.78,-141.52"/>
<polygon fill="midnightblue" stroke="midnightblue" points="542.94,-171.14 535.28,-178.45 545.83,-177.51 542.94,-171.14"/>
</g>
<!-- Node9 -->
<g id="node9" class="node">
<title>Node9</title>
<g id="a_node9"><a xlink:href="jbmc__parse__options_8cpp.html" target="_top" xlink:title="JBMC Command Line Option Processing.">
<polygon fill="none" stroke="black" points="784,-95 784,-136 966,-136 966,-95 784,-95"/>
<text text-anchor="start" x="792" y="-124" font-family="Helvetica,sans-Serif" font-size="10.00">/home/runner/work/diffblue</text>
<text text-anchor="start" x="792" y="-113" font-family="Helvetica,sans-Serif" font-size="10.00">&#45;cbmc/diffblue&#45;cbmc/jbmc</text>
<text text-anchor="middle" x="875" y="-102" font-family="Helvetica,sans-Serif" font-size="10.00">/src/jbmc/jbmc_parse_options.cpp</text>
</a>
</g>
</g>
<!-- Node1&#45;&gt;Node9 -->
<g id="edge8" class="edge">
<title>Node1&#45;&gt;Node9</title>
<path fill="none" stroke="midnightblue" d="M569.68,-185.87C628.26,-174.1 706.34,-157.9 775,-142 783.12,-140.12 791.58,-138.08 800.01,-136"/>
<polygon fill="midnightblue" stroke="midnightblue" points="568.83,-182.47 559.71,-187.87 570.21,-189.34 568.83,-182.47"/>
</g>
<!-- Node4 -->
<g id="node4" class="node">
<title>Node4</title>
<g id="a_node4"><a xlink:href="goto__instrument__languages_8cpp.html" target="_top" xlink:title="Language Registration.">
<polygon fill="none" stroke="black" points="0,-0.5 0,-52.5 182,-52.5 182,-0.5 0,-0.5"/>
<text text-anchor="start" x="8" y="-40.5" font-family="Helvetica,sans-Serif" font-size="10.00">/home/runner/work/diffblue</text>
<text text-anchor="start" x="8" y="-29.5" font-family="Helvetica,sans-Serif" font-size="10.00">&#45;cbmc/diffblue&#45;cbmc/src</text>
<text text-anchor="start" x="8" y="-18.5" font-family="Helvetica,sans-Serif" font-size="10.00">/goto&#45;instrument/goto_instrument</text>
<text text-anchor="middle" x="91" y="-7.5" font-family="Helvetica,sans-Serif" font-size="10.00">_languages.cpp</text>
</a>
</g>
</g>
<!-- Node3&#45;&gt;Node4 -->
<g id="edge3" class="edge">
<title>Node3&#45;&gt;Node4</title>
<path fill="none" stroke="midnightblue" d="M224.19,-85.44C199.67,-74.77 172.15,-62.8 148.52,-52.52"/>
<polygon fill="midnightblue" stroke="midnightblue" points="222.85,-88.67 233.42,-89.45 225.65,-82.25 222.85,-88.67"/>
</g>
<!-- Node5 -->
<g id="node5" class="node">
<title>Node5</title>
<g id="a_node5"><a xlink:href="goto__instrument__main_8cpp.html" target="_top" xlink:title="Main Module.">
<polygon fill="none" stroke="black" points="200,-0.5 200,-52.5 382,-52.5 382,-0.5 200,-0.5"/>
<text text-anchor="start" x="208" y="-40.5" font-family="Helvetica,sans-Serif" font-size="10.00">/home/runner/work/diffblue</text>
<text text-anchor="start" x="208" y="-29.5" font-family="Helvetica,sans-Serif" font-size="10.00">&#45;cbmc/diffblue&#45;cbmc/src</text>
<text text-anchor="start" x="208" y="-18.5" font-family="Helvetica,sans-Serif" font-size="10.00">/goto&#45;instrument/goto_instrument</text>
<text text-anchor="middle" x="291" y="-7.5" font-family="Helvetica,sans-Serif" font-size="10.00">_main.cpp</text>
</a>
</g>
</g>
<!-- Node3&#45;&gt;Node5 -->
<g id="edge4" class="edge">
<title>Node3&#45;&gt;Node5</title>
<path fill="none" stroke="midnightblue" d="M291,-79.19C291,-70.28 291,-60.9 291,-52.61"/>
<polygon fill="midnightblue" stroke="midnightblue" points="287.5,-79.34 291,-89.34 294.5,-79.34 287.5,-79.34"/>
</g>
<!-- Node6 -->
<g id="node6" class="node">
<title>Node6</title>
<g id="a_node6"><a xlink:href="goto__instrument__parse__options_8cpp.html" target="_top" xlink:title="Main Module.">
<polygon fill="none" stroke="black" points="400,-0.5 400,-52.5 582,-52.5 582,-0.5 400,-0.5"/>
<text text-anchor="start" x="408" y="-40.5" font-family="Helvetica,sans-Serif" font-size="10.00">/home/runner/work/diffblue</text>
<text text-anchor="start" x="408" y="-29.5" font-family="Helvetica,sans-Serif" font-size="10.00">&#45;cbmc/diffblue&#45;cbmc/src</text>
<text text-anchor="start" x="408" y="-18.5" font-family="Helvetica,sans-Serif" font-size="10.00">/goto&#45;instrument/goto_instrument</text>
<text text-anchor="middle" x="491" y="-7.5" font-family="Helvetica,sans-Serif" font-size="10.00">_parse_options.cpp</text>
</a>
</g>
</g>
<!-- Node3&#45;&gt;Node6 -->
<g id="edge5" class="edge">
<title>Node3&#45;&gt;Node6</title>
<path fill="none" stroke="midnightblue" d="M357.81,-85.44C382.33,-74.77 409.85,-62.8 433.48,-52.52"/>
<polygon fill="midnightblue" stroke="midnightblue" points="356.35,-82.25 348.58,-89.45 359.15,-88.67 356.35,-82.25"/>
</g>
</g>
</svg>
