<?xml version="1.0" encoding="UTF-8" standalone="no"?>
<!DOCTYPE svg PUBLIC "-//W3C//DTD SVG 1.1//EN"
 "http://www.w3.org/Graphics/SVG/1.1/DTD/svg11.dtd">
<!-- Generated by graphviz version 2.43.0 (0)
 -->
<!-- Title: /home/runner/work/diffblue&#45;cbmc/diffblue&#45;cbmc/src/util/reference_counting.h Pages: 1 -->
<svg width="1929pt" height="651pt"
 viewBox="0.00 0.00 1929.00 651.00" xmlns="http://www.w3.org/2000/svg" xmlns:xlink="http://www.w3.org/1999/xlink">
<g id="graph0" class="graph" transform="scale(1 1) rotate(0) translate(4 647)">
<title>/home/runner/work/diffblue&#45;cbmc/diffblue&#45;cbmc/src/util/reference_counting.h</title>
<!-- Node1 -->
<g id="node1" class="node">
<title>Node1</title>
<g id="a_node1"><a xlink:title="Reference Counting.">
<polygon fill="#bfbfbf" stroke="black" points="1465,-601.5 1465,-642.5 1614,-642.5 1614,-601.5 1465,-601.5"/>
<text text-anchor="start" x="1473" y="-630.5" font-family="Helvetica,sans-Serif" font-size="10.00">/home/runner/work/diffblue</text>
<text text-anchor="start" x="1473" y="-619.5" font-family="Helvetica,sans-Serif" font-size="10.00">&#45;cbmc/diffblue&#45;cbmc/src</text>
<text text-anchor="middle" x="1539.5" y="-608.5" font-family="Helvetica,sans-Serif" font-size="10.00">/util/reference_counting.h</text>
</a>
</g>
</g>
<!-- Node2 -->
<g id="node2" class="node">
<title>Node2</title>
<g id="a_node2"><a xlink:href="value__set_8h.html" target="_top" xlink:title="Value Set.">
<polygon fill="none" stroke="black" points="1038.5,-523.5 1038.5,-564.5 1196.5,-564.5 1196.5,-523.5 1038.5,-523.5"/>
<text text-anchor="start" x="1046.5" y="-552.5" font-family="Helvetica,sans-Serif" font-size="10.00">/home/runner/work/diffblue</text>
<text text-anchor="start" x="1046.5" y="-541.5" font-family="Helvetica,sans-Serif" font-size="10.00">&#45;cbmc/diffblue&#45;cbmc/src</text>
<text text-anchor="middle" x="1117.5" y="-530.5" font-family="Helvetica,sans-Serif" font-size="10.00">/pointer&#45;analysis/value_set.h</text>
</a>
</g>
</g>
<!-- Node1&#45;&gt;Node2 -->
<g id="edge1" class="edge">
<title>Node1&#45;&gt;Node2</title>
<path fill="none" stroke="midnightblue" d="M1454.62,-605.71C1379.36,-592.16 1270.29,-572.52 1196.78,-559.28"/>
<polygon fill="midnightblue" stroke="midnightblue" points="1454.08,-609.17 1464.54,-607.5 1455.32,-602.28 1454.08,-609.17"/>
</g>
<!-- Node81 -->
<g id="node26" class="node">
<title>Node81</title>
<g id="a_node26"><a xlink:href="value__set__fi_8h.html" target="_top" xlink:title="Value Set (Flow Insensitive, Sharing)">
<polygon fill="none" stroke="black" points="1455,-523.5 1455,-564.5 1624,-564.5 1624,-523.5 1455,-523.5"/>
<text text-anchor="start" x="1463" y="-552.5" font-family="Helvetica,sans-Serif" font-size="10.00">/home/runner/work/diffblue</text>
<text text-anchor="start" x="1463" y="-541.5" font-family="Helvetica,sans-Serif" font-size="10.00">&#45;cbmc/diffblue&#45;cbmc/src</text>
<text text-anchor="middle" x="1539.5" y="-530.5" font-family="Helvetica,sans-Serif" font-size="10.00">/pointer&#45;analysis/value_set_fi.h</text>
</a>
</g>
</g>
<!-- Node1&#45;&gt;Node81 -->
<g id="edge30" class="edge">
<title>Node1&#45;&gt;Node81</title>
<path fill="none" stroke="midnightblue" d="M1539.5,-591.3C1539.5,-582.3 1539.5,-572.65 1539.5,-564.51"/>
<polygon fill="midnightblue" stroke="midnightblue" points="1536,-591.43 1539.5,-601.43 1543,-591.43 1536,-591.43"/>
</g>
<!-- Node89 -->
<g id="node34" class="node">
<title>Node89</title>
<g id="a_node34"><a xlink:href="ref__expr__set_8h.html" target="_top" xlink:title="Value Set.">
<polygon fill="none" stroke="black" points="1728,-523.5 1728,-564.5 1877,-564.5 1877,-523.5 1728,-523.5"/>
<text text-anchor="start" x="1736" y="-552.5" font-family="Helvetica,sans-Serif" font-size="10.00">/home/runner/work/diffblue</text>
<text text-anchor="start" x="1736" y="-541.5" font-family="Helvetica,sans-Serif" font-size="10.00">&#45;cbmc/diffblue&#45;cbmc/src</text>
<text text-anchor="middle" x="1802.5" y="-530.5" font-family="Helvetica,sans-Serif" font-size="10.00">/util/ref_expr_set.h</text>
</a>
</g>
</g>
<!-- Node1&#45;&gt;Node89 -->
<g id="edge38" class="edge">
<title>Node1&#45;&gt;Node89</title>
<path fill="none" stroke="midnightblue" d="M1617.08,-598.58C1654.51,-587.76 1698.99,-574.91 1735,-564.51"/>
<polygon fill="midnightblue" stroke="midnightblue" points="1615.86,-595.29 1607.23,-601.43 1617.81,-602.01 1615.86,-595.29"/>
</g>
<!-- Node3 -->
<g id="node3" class="node">
<title>Node3</title>
<g id="a_node3"><a xlink:href="goto__state_8h.html" target="_top" xlink:title="goto_statet class definition">
<polygon fill="none" stroke="black" points="867,-440 867,-481 1016,-481 1016,-440 867,-440"/>
<text text-anchor="start" x="875" y="-469" font-family="Helvetica,sans-Serif" font-size="10.00">/home/runner/work/diffblue</text>
<text text-anchor="start" x="875" y="-458" font-family="Helvetica,sans-Serif" font-size="10.00">&#45;cbmc/diffblue&#45;cbmc/src</text>
<text text-anchor="middle" x="941.5" y="-447" font-family="Helvetica,sans-Serif" font-size="10.00">/goto&#45;symex/goto_state.h</text>
</a>
</g>
</g>
<!-- Node2&#45;&gt;Node3 -->
<g id="edge2" class="edge">
<title>Node2&#45;&gt;Node3</title>
<path fill="none" stroke="midnightblue" d="M1065.95,-519.13C1039.76,-507 1008.34,-492.45 983.62,-481"/>
<polygon fill="midnightblue" stroke="midnightblue" points="1064.8,-522.45 1075.34,-523.48 1067.74,-516.1 1064.8,-522.45"/>
</g>
<!-- Node73 -->
<g id="node18" class="node">
<title>Node73</title>
<g id="a_node18"><a xlink:href="postcondition_8cpp.html" target="_top" xlink:title="Symbolic Execution.">
<polygon fill="none" stroke="black" points="1034,-440 1034,-481 1201,-481 1201,-440 1034,-440"/>
<text text-anchor="start" x="1042" y="-469" font-family="Helvetica,sans-Serif" font-size="10.00">/home/runner/work/diffblue</text>
<text text-anchor="start" x="1042" y="-458" font-family="Helvetica,sans-Serif" font-size="10.00">&#45;cbmc/diffblue&#45;cbmc/src</text>
<text text-anchor="middle" x="1117.5" y="-447" font-family="Helvetica,sans-Serif" font-size="10.00">/goto&#45;symex/postcondition.cpp</text>
</a>
</g>
</g>
<!-- Node2&#45;&gt;Node73 -->
<g id="edge20" class="edge">
<title>Node2&#45;&gt;Node73</title>
<path fill="none" stroke="midnightblue" d="M1117.5,-513.06C1117.5,-502.38 1117.5,-490.63 1117.5,-481.05"/>
<polygon fill="midnightblue" stroke="midnightblue" points="1114,-513.27 1117.5,-523.27 1121,-513.27 1114,-513.27"/>
</g>
<!-- Node74 -->
<g id="node19" class="node">
<title>Node74</title>
<g id="a_node19"><a xlink:href="value__set_8cpp.html" target="_top" xlink:title="Value Set.">
<polygon fill="none" stroke="black" points="1219,-440 1219,-481 1388,-481 1388,-440 1219,-440"/>
<text text-anchor="start" x="1227" y="-469" font-family="Helvetica,sans-Serif" font-size="10.00">/home/runner/work/diffblue</text>
<text text-anchor="start" x="1227" y="-458" font-family="Helvetica,sans-Serif" font-size="10.00">&#45;cbmc/diffblue&#45;cbmc/src</text>
<text text-anchor="middle" x="1303.5" y="-447" font-family="Helvetica,sans-Serif" font-size="10.00">/pointer&#45;analysis/value_set.cpp</text>
</a>
</g>
</g>
<!-- Node2&#45;&gt;Node74 -->
<g id="edge21" class="edge">
<title>Node2&#45;&gt;Node74</title>
<path fill="none" stroke="midnightblue" d="M1171.25,-519.45C1199.07,-507.26 1232.64,-492.55 1258.99,-481"/>
<polygon fill="midnightblue" stroke="midnightblue" points="1169.81,-516.26 1162.05,-523.48 1172.62,-522.67 1169.81,-516.26"/>
</g>
<!-- Node75 -->
<g id="node20" class="node">
<title>Node75</title>
<g id="a_node20"><a xlink:href="value__set__domain_8h.html" target="_top" xlink:title="Value Set.">
<polygon fill="none" stroke="black" points="614,-434.5 614,-486.5 763,-486.5 763,-434.5 614,-434.5"/>
<text text-anchor="start" x="622" y="-474.5" font-family="Helvetica,sans-Serif" font-size="10.00">/home/runner/work/diffblue</text>
<text text-anchor="start" x="622" y="-463.5" font-family="Helvetica,sans-Serif" font-size="10.00">&#45;cbmc/diffblue&#45;cbmc/src</text>
<text text-anchor="start" x="622" y="-452.5" font-family="Helvetica,sans-Serif" font-size="10.00">/pointer&#45;analysis/value_set</text>
<text text-anchor="middle" x="688.5" y="-441.5" font-family="Helvetica,sans-Serif" font-size="10.00">_domain.h</text>
</a>
</g>
</g>
<!-- Node2&#45;&gt;Node75 -->
<g id="edge22" class="edge">
<title>Node2&#45;&gt;Node75</title>
<path fill="none" stroke="midnightblue" d="M1028.45,-526.08C950.02,-511.18 837.1,-489.73 763.27,-475.71"/>
<polygon fill="midnightblue" stroke="midnightblue" points="1027.84,-529.53 1038.31,-527.96 1029.14,-522.65 1027.84,-529.53"/>
</g>
<!-- Node4 -->
<g id="node4" class="node">
<title>Node4</title>
<g id="a_node4"><a xlink:href="frame_8h.html" target="_top" xlink:title="Class for stack frames.">
<polygon fill="none" stroke="black" points="816,-351 816,-392 965,-392 965,-351 816,-351"/>
<text text-anchor="start" x="824" y="-380" font-family="Helvetica,sans-Serif" font-size="10.00">/home/runner/work/diffblue</text>
<text text-anchor="start" x="824" y="-369" font-family="Helvetica,sans-Serif" font-size="10.00">&#45;cbmc/diffblue&#45;cbmc/src</text>
<text text-anchor="middle" x="890.5" y="-358" font-family="Helvetica,sans-Serif" font-size="10.00">/goto&#45;symex/frame.h</text>
</a>
</g>
</g>
<!-- Node3&#45;&gt;Node4 -->
<g id="edge3" class="edge">
<title>Node3&#45;&gt;Node4</title>
<path fill="none" stroke="midnightblue" d="M924.75,-430.93C917.31,-418.23 908.73,-403.61 902.03,-392.16"/>
<polygon fill="midnightblue" stroke="midnightblue" points="921.85,-432.9 929.93,-439.76 927.89,-429.36 921.85,-432.9"/>
</g>
<!-- Node6 -->
<g id="node6" class="node">
<title>Node6</title>
<g id="a_node6"><a xlink:href="goto__symex__state_8h.html" target="_top" xlink:title="Symbolic Execution.">
<polygon fill="none" stroke="black" points="902.5,-173 902.5,-214 1082.5,-214 1082.5,-173 902.5,-173"/>
<text text-anchor="start" x="910.5" y="-202" font-family="Helvetica,sans-Serif" font-size="10.00">/home/runner/work/diffblue</text>
<text text-anchor="start" x="910.5" y="-191" font-family="Helvetica,sans-Serif" font-size="10.00">&#45;cbmc/diffblue&#45;cbmc/src</text>
<text text-anchor="middle" x="992.5" y="-180" font-family="Helvetica,sans-Serif" font-size="10.00">/goto&#45;symex/goto_symex_state.h</text>
</a>
</g>
</g>
<!-- Node3&#45;&gt;Node6 -->
<g id="edge19" class="edge">
<title>Node3&#45;&gt;Node6</title>
<path fill="none" stroke="midnightblue" d="M959.21,-431.07C964.7,-420.98 970.17,-409.31 973.5,-398 992.75,-332.65 993.81,-250.85 993.14,-214.04"/>
<polygon fill="midnightblue" stroke="midnightblue" points="956.13,-429.41 954.24,-439.83 962.22,-432.87 956.13,-429.41"/>
</g>
<!-- Node9 -->
<g id="node9" class="node">
<title>Node9</title>
<g id="a_node9"><a xlink:href="goto__state_8cpp.html" target="_top" xlink:title=" ">
<polygon fill="none" stroke="black" points="1615,-84 1615,-125 1768,-125 1768,-84 1615,-84"/>
<text text-anchor="start" x="1623" y="-113" font-family="Helvetica,sans-Serif" font-size="10.00">/home/runner/work/diffblue</text>
<text text-anchor="start" x="1623" y="-102" font-family="Helvetica,sans-Serif" font-size="10.00">&#45;cbmc/diffblue&#45;cbmc/src</text>
<text text-anchor="middle" x="1691.5" y="-91" font-family="Helvetica,sans-Serif" font-size="10.00">/goto&#45;symex/goto_state.cpp</text>
</a>
</g>
</g>
<!-- Node3&#45;&gt;Node9 -->
<g id="edge18" class="edge">
<title>Node3&#45;&gt;Node9</title>
<path fill="none" stroke="midnightblue" d="M987.48,-435.18C1061.87,-396.08 1213.49,-317.42 1344.5,-256 1450.33,-206.38 1576.75,-153 1643.96,-125.08"/>
<polygon fill="midnightblue" stroke="midnightblue" points="985.59,-432.22 978.37,-439.97 988.85,-438.41 985.59,-432.22"/>
</g>
<!-- Node5 -->
<g id="node5" class="node">
<title>Node5</title>
<g id="a_node5"><a xlink:href="call__stack_8h.html" target="_top" xlink:title=" ">
<polygon fill="none" stroke="black" points="816,-262 816,-303 965,-303 965,-262 816,-262"/>
<text text-anchor="start" x="824" y="-291" font-family="Helvetica,sans-Serif" font-size="10.00">/home/runner/work/diffblue</text>
<text text-anchor="start" x="824" y="-280" font-family="Helvetica,sans-Serif" font-size="10.00">&#45;cbmc/diffblue&#45;cbmc/src</text>
<text text-anchor="middle" x="890.5" y="-269" font-family="Helvetica,sans-Serif" font-size="10.00">/goto&#45;symex/call_stack.h</text>
</a>
</g>
</g>
<!-- Node4&#45;&gt;Node5 -->
<g id="edge4" class="edge">
<title>Node4&#45;&gt;Node5</title>
<path fill="none" stroke="midnightblue" d="M890.5,-340.44C890.5,-328.1 890.5,-314.16 890.5,-303.16"/>
<polygon fill="midnightblue" stroke="midnightblue" points="887,-340.76 890.5,-350.76 894,-340.76 887,-340.76"/>
</g>
<!-- Node5&#45;&gt;Node6 -->
<g id="edge5" class="edge">
<title>Node5&#45;&gt;Node6</title>
<path fill="none" stroke="midnightblue" d="M921.17,-255.34C936.63,-242.15 955.07,-226.42 969.33,-214.26"/>
<polygon fill="midnightblue" stroke="midnightblue" points="918.73,-252.82 913.39,-261.98 923.27,-258.15 918.73,-252.82"/>
</g>
<!-- Node72 -->
<g id="node17" class="node">
<title>Node72</title>
<g id="a_node17"><a xlink:href="java__enum__static__init__unwind__handler_8cpp.html" target="_top" xlink:title="Unwind loops in static initializers.">
<polygon fill="none" stroke="black" points="712.5,-167.5 712.5,-219.5 884.5,-219.5 884.5,-167.5 712.5,-167.5"/>
<text text-anchor="start" x="720.5" y="-207.5" font-family="Helvetica,sans-Serif" font-size="10.00">/home/runner/work/diffblue</text>
<text text-anchor="start" x="720.5" y="-196.5" font-family="Helvetica,sans-Serif" font-size="10.00">&#45;cbmc/diffblue&#45;cbmc/jbmc</text>
<text text-anchor="start" x="720.5" y="-185.5" font-family="Helvetica,sans-Serif" font-size="10.00">/src/java_bytecode/java_enum</text>
<text text-anchor="middle" x="798.5" y="-174.5" font-family="Helvetica,sans-Serif" font-size="10.00">_static_init_unwind_handler.cpp</text>
</a>
</g>
</g>
<!-- Node5&#45;&gt;Node72 -->
<g id="edge17" class="edge">
<title>Node5&#45;&gt;Node72</title>
<path fill="none" stroke="midnightblue" d="M862.19,-254.73C850.43,-243.6 836.84,-230.75 825.24,-219.79"/>
<polygon fill="midnightblue" stroke="midnightblue" points="859.95,-257.43 869.62,-261.76 864.76,-252.34 859.95,-257.43"/>
</g>
<!-- Node7 -->
<g id="node7" class="node">
<title>Node7</title>
<g id="a_node7"><a xlink:href="complexity__limiter_8cpp.html" target="_top" xlink:title=" ">
<polygon fill="none" stroke="black" points="0,-84 0,-125 193,-125 193,-84 0,-84"/>
<text text-anchor="start" x="8" y="-113" font-family="Helvetica,sans-Serif" font-size="10.00">/home/runner/work/diffblue</text>
<text text-anchor="start" x="8" y="-102" font-family="Helvetica,sans-Serif" font-size="10.00">&#45;cbmc/diffblue&#45;cbmc/src</text>
<text text-anchor="middle" x="96.5" y="-91" font-family="Helvetica,sans-Serif" font-size="10.00">/goto&#45;symex/complexity_limiter.cpp</text>
</a>
</g>
</g>
<!-- Node6&#45;&gt;Node7 -->
<g id="edge6" class="edge">
<title>Node6&#45;&gt;Node7</title>
<path fill="none" stroke="midnightblue" d="M913.88,-170.74C907.02,-169.3 900.16,-168.02 893.5,-167 589.08,-120.36 506.23,-175.53 201.5,-131 191.01,-129.47 180.04,-127.37 169.31,-125.03"/>
<polygon fill="midnightblue" stroke="midnightblue" points="913.38,-174.21 923.9,-172.95 914.89,-167.37 913.38,-174.21"/>
</g>
<!-- Node8 -->
<g id="node8" class="node">
<title>Node8</title>
<g id="a_node8"><a xlink:href="field__sensitivity_8cpp.html" target="_top" xlink:title=" ">
<polygon fill="none" stroke="black" points="211,-84 211,-125 388,-125 388,-84 211,-84"/>
<text text-anchor="start" x="219" y="-113" font-family="Helvetica,sans-Serif" font-size="10.00">/home/runner/work/diffblue</text>
<text text-anchor="start" x="219" y="-102" font-family="Helvetica,sans-Serif" font-size="10.00">&#45;cbmc/diffblue&#45;cbmc/src</text>
<text text-anchor="middle" x="299.5" y="-91" font-family="Helvetica,sans-Serif" font-size="10.00">/goto&#45;symex/field_sensitivity.cpp</text>
</a>
</g>
</g>
<!-- Node6&#45;&gt;Node8 -->
<g id="edge7" class="edge">
<title>Node6&#45;&gt;Node8</title>
<path fill="none" stroke="midnightblue" d="M912.84,-170.67C906.33,-169.28 899.82,-168.03 893.5,-167 674.94,-131.23 614.97,-167.31 396.5,-131 386.97,-129.42 377.01,-127.32 367.26,-125.01"/>
<polygon fill="midnightblue" stroke="midnightblue" points="912.54,-174.19 923.06,-172.94 914.06,-167.35 912.54,-174.19"/>
</g>
<!-- Node6&#45;&gt;Node9 -->
<g id="edge8" class="edge">
<title>Node6&#45;&gt;Node9</title>
<path fill="none" stroke="midnightblue" d="M1092.93,-183.47C1253.89,-168.84 1556.59,-140.62 1605.5,-131 1613.75,-129.38 1622.35,-127.31 1630.78,-125.04"/>
<polygon fill="midnightblue" stroke="midnightblue" points="1092.18,-180.02 1082.54,-184.41 1092.81,-186.99 1092.18,-180.02"/>
</g>
<!-- Node10 -->
<g id="node10" class="node">
<title>Node10</title>
<g id="a_node10"><a xlink:href="goto__symex__state_8cpp.html" target="_top" xlink:title="Symbolic Execution.">
<polygon fill="none" stroke="black" points="406,-84 406,-125 597,-125 597,-84 406,-84"/>
<text text-anchor="start" x="414" y="-113" font-family="Helvetica,sans-Serif" font-size="10.00">/home/runner/work/diffblue</text>
<text text-anchor="start" x="414" y="-102" font-family="Helvetica,sans-Serif" font-size="10.00">&#45;cbmc/diffblue&#45;cbmc/src</text>
<text text-anchor="middle" x="501.5" y="-91" font-family="Helvetica,sans-Serif" font-size="10.00">/goto&#45;symex/goto_symex_state.cpp</text>
</a>
</g>
</g>
<!-- Node6&#45;&gt;Node10 -->
<g id="edge9" class="edge">
<title>Node6&#45;&gt;Node10</title>
<path fill="none" stroke="midnightblue" d="M911.1,-170.66C905.17,-169.33 899.25,-168.1 893.5,-167 767.22,-142.92 732.94,-154.21 606.5,-131 597.09,-129.27 587.26,-127.22 577.56,-125.04"/>
<polygon fill="midnightblue" stroke="midnightblue" points="910.57,-174.13 921.1,-172.96 912.14,-167.3 910.57,-174.13"/>
</g>
<!-- Node11 -->
<g id="node11" class="node">
<title>Node11</title>
<g id="a_node11"><a xlink:href="path__storage_8h.html" target="_top" xlink:title="Storage of symbolic execution paths to resume.">
<polygon fill="none" stroke="red" points="615.5,-84 615.5,-125 769.5,-125 769.5,-84 615.5,-84"/>
<text text-anchor="start" x="623.5" y="-113" font-family="Helvetica,sans-Serif" font-size="10.00">/home/runner/work/diffblue</text>
<text text-anchor="start" x="623.5" y="-102" font-family="Helvetica,sans-Serif" font-size="10.00">&#45;cbmc/diffblue&#45;cbmc/src</text>
<text text-anchor="middle" x="692.5" y="-91" font-family="Helvetica,sans-Serif" font-size="10.00">/goto&#45;symex/path_storage.h</text>
</a>
</g>
</g>
<!-- Node6&#45;&gt;Node11 -->
<g id="edge10" class="edge">
<title>Node6&#45;&gt;Node11</title>
<path fill="none" stroke="midnightblue" d="M914.21,-170.17C873.68,-158.57 823.41,-144.11 778.5,-131 771.92,-129.08 765.07,-127.07 758.22,-125.05"/>
<polygon fill="midnightblue" stroke="midnightblue" points="913.45,-173.6 924.03,-172.98 915.38,-166.87 913.45,-173.6"/>
</g>
<!-- Node48 -->
<g id="node12" class="node">
<title>Node48</title>
<g id="a_node12"><a xlink:href="renaming__level_8cpp.html" target="_top" xlink:title="Renaming levels.">
<polygon fill="none" stroke="black" points="788,-84 788,-125 965,-125 965,-84 788,-84"/>
<text text-anchor="start" x="796" y="-113" font-family="Helvetica,sans-Serif" font-size="10.00">/home/runner/work/diffblue</text>
<text text-anchor="start" x="796" y="-102" font-family="Helvetica,sans-Serif" font-size="10.00">&#45;cbmc/diffblue&#45;cbmc/src</text>
<text text-anchor="middle" x="876.5" y="-91" font-family="Helvetica,sans-Serif" font-size="10.00">/goto&#45;symex/renaming_level.cpp</text>
</a>
</g>
</g>
<!-- Node6&#45;&gt;Node48 -->
<g id="edge11" class="edge">
<title>Node6&#45;&gt;Node48</title>
<path fill="none" stroke="midnightblue" d="M958.11,-166.71C940.42,-153.44 919.21,-137.53 902.85,-125.26"/>
<polygon fill="midnightblue" stroke="midnightblue" points="956.37,-169.78 966.47,-172.98 960.57,-164.18 956.37,-169.78"/>
</g>
<!-- Node49 -->
<g id="node13" class="node">
<title>Node49</title>
<g id="a_node13"><a xlink:href="shadow__memory_8cpp.html" target="_top" xlink:title="Symex Shadow Memory Instrumentation.">
<polygon fill="none" stroke="black" points="962.5,-0.5 962.5,-41.5 1146.5,-41.5 1146.5,-0.5 962.5,-0.5"/>
<text text-anchor="start" x="970.5" y="-29.5" font-family="Helvetica,sans-Serif" font-size="10.00">/home/runner/work/diffblue</text>
<text text-anchor="start" x="970.5" y="-18.5" font-family="Helvetica,sans-Serif" font-size="10.00">&#45;cbmc/diffblue&#45;cbmc/src</text>
<text text-anchor="middle" x="1054.5" y="-7.5" font-family="Helvetica,sans-Serif" font-size="10.00">/goto&#45;symex/shadow_memory.cpp</text>
</a>
</g>
</g>
<!-- Node6&#45;&gt;Node49 -->
<g id="edge12" class="edge">
<title>Node6&#45;&gt;Node49</title>
<path fill="none" stroke="midnightblue" d="M993.1,-162.44C994.53,-138.64 998.72,-105.04 1010.5,-78 1016.33,-64.62 1026.13,-51.68 1035.01,-41.61"/>
<polygon fill="midnightblue" stroke="midnightblue" points="989.59,-162.46 992.62,-172.62 996.58,-162.79 989.59,-162.46"/>
</g>
<!-- Node50 -->
<g id="node14" class="node">
<title>Node50</title>
<g id="a_node14"><a xlink:href="shadow__memory__util_8h.html" target="_top" xlink:title="Symex Shadow Memory Instrumentation Utilities.">
<polygon fill="none" stroke="red" points="1020,-84 1020,-125 1215,-125 1215,-84 1020,-84"/>
<text text-anchor="start" x="1028" y="-113" font-family="Helvetica,sans-Serif" font-size="10.00">/home/runner/work/diffblue</text>
<text text-anchor="start" x="1028" y="-102" font-family="Helvetica,sans-Serif" font-size="10.00">&#45;cbmc/diffblue&#45;cbmc/src</text>
<text text-anchor="middle" x="1117.5" y="-91" font-family="Helvetica,sans-Serif" font-size="10.00">/goto&#45;symex/shadow_memory_util.h</text>
</a>
</g>
</g>
<!-- Node6&#45;&gt;Node50 -->
<g id="edge13" class="edge">
<title>Node6&#45;&gt;Node50</title>
<path fill="none" stroke="midnightblue" d="M1028.78,-167.25C1047.99,-153.88 1071.23,-137.7 1089.11,-125.26"/>
<polygon fill="midnightblue" stroke="midnightblue" points="1026.76,-164.39 1020.55,-172.98 1030.76,-170.14 1026.76,-164.39"/>
</g>
<!-- Node52 -->
<g id="node15" class="node">
<title>Node52</title>
<g id="a_node15"><a xlink:href="symex__assign_8cpp.html" target="_top" xlink:title="Symbolic Execution.">
<polygon fill="none" stroke="black" points="1233,-84 1233,-125 1404,-125 1404,-84 1233,-84"/>
<text text-anchor="start" x="1241" y="-113" font-family="Helvetica,sans-Serif" font-size="10.00">/home/runner/work/diffblue</text>
<text text-anchor="start" x="1241" y="-102" font-family="Helvetica,sans-Serif" font-size="10.00">&#45;cbmc/diffblue&#45;cbmc/src</text>
<text text-anchor="middle" x="1318.5" y="-91" font-family="Helvetica,sans-Serif" font-size="10.00">/goto&#45;symex/symex_assign.cpp</text>
</a>
</g>
</g>
<!-- Node6&#45;&gt;Node52 -->
<g id="edge15" class="edge">
<title>Node6&#45;&gt;Node52</title>
<path fill="none" stroke="midnightblue" d="M1075.89,-170.34C1119.81,-158.66 1174.58,-144.08 1223.5,-131 1230.76,-129.06 1238.33,-127.03 1245.89,-125.01"/>
<polygon fill="midnightblue" stroke="midnightblue" points="1074.88,-166.99 1066.11,-172.94 1076.68,-173.75 1074.88,-166.99"/>
</g>
<!-- Node53 -->
<g id="node16" class="node">
<title>Node53</title>
<g id="a_node16"><a xlink:href="symex__complexity__limit__exceeded__action_8h.html" target="_top" xlink:title=" ">
<polygon fill="none" stroke="red" points="1422.5,-78.5 1422.5,-130.5 1596.5,-130.5 1596.5,-78.5 1422.5,-78.5"/>
<text text-anchor="start" x="1430.5" y="-118.5" font-family="Helvetica,sans-Serif" font-size="10.00">/home/runner/work/diffblue</text>
<text text-anchor="start" x="1430.5" y="-107.5" font-family="Helvetica,sans-Serif" font-size="10.00">&#45;cbmc/diffblue&#45;cbmc/src</text>
<text text-anchor="start" x="1430.5" y="-96.5" font-family="Helvetica,sans-Serif" font-size="10.00">/goto&#45;symex/symex_complexity</text>
<text text-anchor="middle" x="1509.5" y="-85.5" font-family="Helvetica,sans-Serif" font-size="10.00">_limit_exceeded_action.h</text>
</a>
</g>
</g>
<!-- Node6&#45;&gt;Node53 -->
<g id="edge16" class="edge">
<title>Node6&#45;&gt;Node53</title>
<path fill="none" stroke="midnightblue" d="M1092.67,-181.03C1178.11,-170.48 1303.97,-153.14 1412.5,-131 1415.74,-130.34 1419.04,-129.64 1422.36,-128.9"/>
<polygon fill="midnightblue" stroke="midnightblue" points="1092.22,-177.56 1082.72,-182.25 1093.07,-184.5 1092.22,-177.56"/>
</g>
<!-- Node50&#45;&gt;Node49 -->
<g id="edge14" class="edge">
<title>Node50&#45;&gt;Node49</title>
<path fill="none" stroke="midnightblue" d="M1095.9,-75.55C1087.24,-64.36 1077.48,-51.73 1069.61,-41.55"/>
<polygon fill="midnightblue" stroke="midnightblue" points="1093.36,-78 1102.25,-83.77 1098.9,-73.72 1093.36,-78"/>
</g>
<!-- Node76 -->
<g id="node21" class="node">
<title>Node76</title>
<g id="a_node21"><a xlink:href="value__set__analysis_8h.html" target="_top" xlink:title="Value Set Propagation.">
<polygon fill="none" stroke="black" points="476,-345.5 476,-397.5 625,-397.5 625,-345.5 476,-345.5"/>
<text text-anchor="start" x="484" y="-385.5" font-family="Helvetica,sans-Serif" font-size="10.00">/home/runner/work/diffblue</text>
<text text-anchor="start" x="484" y="-374.5" font-family="Helvetica,sans-Serif" font-size="10.00">&#45;cbmc/diffblue&#45;cbmc/src</text>
<text text-anchor="start" x="484" y="-363.5" font-family="Helvetica,sans-Serif" font-size="10.00">/pointer&#45;analysis/value_set</text>
<text text-anchor="middle" x="550.5" y="-352.5" font-family="Helvetica,sans-Serif" font-size="10.00">_analysis.h</text>
</a>
</g>
</g>
<!-- Node75&#45;&gt;Node76 -->
<g id="edge23" class="edge">
<title>Node75&#45;&gt;Node76</title>
<path fill="none" stroke="midnightblue" d="M639.78,-428.79C623.59,-418.58 605.76,-407.34 590.33,-397.61"/>
<polygon fill="midnightblue" stroke="midnightblue" points="638.26,-431.96 648.58,-434.34 641.99,-426.04 638.26,-431.96"/>
</g>
<!-- Node77 -->
<g id="node22" class="node">
<title>Node77</title>
<g id="a_node22"><a xlink:href="goto__instrument__parse__options_8cpp.html" target="_top" xlink:title="Main Module.">
<polygon fill="none" stroke="black" points="334.5,-167.5 334.5,-219.5 516.5,-219.5 516.5,-167.5 334.5,-167.5"/>
<text text-anchor="start" x="342.5" y="-207.5" font-family="Helvetica,sans-Serif" font-size="10.00">/home/runner/work/diffblue</text>
<text text-anchor="start" x="342.5" y="-196.5" font-family="Helvetica,sans-Serif" font-size="10.00">&#45;cbmc/diffblue&#45;cbmc/src</text>
<text text-anchor="start" x="342.5" y="-185.5" font-family="Helvetica,sans-Serif" font-size="10.00">/goto&#45;instrument/goto_instrument</text>
<text text-anchor="middle" x="425.5" y="-174.5" font-family="Helvetica,sans-Serif" font-size="10.00">_parse_options.cpp</text>
</a>
</g>
</g>
<!-- Node76&#45;&gt;Node77 -->
<g id="edge24" class="edge">
<title>Node76&#45;&gt;Node77</title>
<path fill="none" stroke="midnightblue" d="M478.09,-340.17C465.19,-331.8 453.13,-321.49 444.5,-309 426.17,-282.48 423.33,-244.38 423.78,-219.54"/>
<polygon fill="midnightblue" stroke="midnightblue" points="476.3,-343.17 486.67,-345.39 479.95,-337.2 476.3,-343.17"/>
</g>
<!-- Node78 -->
<g id="node23" class="node">
<title>Node78</title>
<g id="a_node23"><a xlink:href="show__value__sets_8cpp.html" target="_top" xlink:title="Show Value Sets.">
<polygon fill="none" stroke="black" points="535,-167.5 535,-219.5 694,-219.5 694,-167.5 535,-167.5"/>
<text text-anchor="start" x="543" y="-207.5" font-family="Helvetica,sans-Serif" font-size="10.00">/home/runner/work/diffblue</text>
<text text-anchor="start" x="543" y="-196.5" font-family="Helvetica,sans-Serif" font-size="10.00">&#45;cbmc/diffblue&#45;cbmc/src</text>
<text text-anchor="start" x="543" y="-185.5" font-family="Helvetica,sans-Serif" font-size="10.00">/pointer&#45;analysis/show_value</text>
<text text-anchor="middle" x="614.5" y="-174.5" font-family="Helvetica,sans-Serif" font-size="10.00">_sets.cpp</text>
</a>
</g>
</g>
<!-- Node76&#45;&gt;Node78 -->
<g id="edge25" class="edge">
<title>Node76&#45;&gt;Node78</title>
<path fill="none" stroke="midnightblue" d="M626.22,-340.09C638.34,-331.83 649.25,-321.58 656.5,-309 673.09,-280.19 653.54,-243.65 635.93,-219.7"/>
<polygon fill="midnightblue" stroke="midnightblue" points="624.25,-337.19 617.67,-345.49 628,-343.11 624.25,-337.19"/>
</g>
<!-- Node79 -->
<g id="node24" class="node">
<title>Node79</title>
<g id="a_node24"><a xlink:href="show__value__sets_8h.html" target="_top" xlink:title="Show Value Sets.">
<polygon fill="none" stroke="black" points="453.5,-262 453.5,-303 647.5,-303 647.5,-262 453.5,-262"/>
<text text-anchor="start" x="461.5" y="-291" font-family="Helvetica,sans-Serif" font-size="10.00">/home/runner/work/diffblue</text>
<text text-anchor="start" x="461.5" y="-280" font-family="Helvetica,sans-Serif" font-size="10.00">&#45;cbmc/diffblue&#45;cbmc/src</text>
<text text-anchor="middle" x="550.5" y="-269" font-family="Helvetica,sans-Serif" font-size="10.00">/pointer&#45;analysis/show_value_sets.h</text>
</a>
</g>
</g>
<!-- Node76&#45;&gt;Node79 -->
<g id="edge26" class="edge">
<title>Node76&#45;&gt;Node79</title>
<path fill="none" stroke="midnightblue" d="M550.5,-335.16C550.5,-324.21 550.5,-312.55 550.5,-303.08"/>
<polygon fill="midnightblue" stroke="midnightblue" points="547,-335.34 550.5,-345.34 554,-335.34 547,-335.34"/>
</g>
<!-- Node80 -->
<g id="node25" class="node">
<title>Node80</title>
<g id="a_node25"><a xlink:href="value__set__analysis_8cpp.html" target="_top" xlink:title="Value Set Propagation.">
<polygon fill="none" stroke="black" points="249,-256.5 249,-308.5 398,-308.5 398,-256.5 249,-256.5"/>
<text text-anchor="start" x="257" y="-296.5" font-family="Helvetica,sans-Serif" font-size="10.00">/home/runner/work/diffblue</text>
<text text-anchor="start" x="257" y="-285.5" font-family="Helvetica,sans-Serif" font-size="10.00">&#45;cbmc/diffblue&#45;cbmc/src</text>
<text text-anchor="start" x="257" y="-274.5" font-family="Helvetica,sans-Serif" font-size="10.00">/pointer&#45;analysis/value_set</text>
<text text-anchor="middle" x="323.5" y="-263.5" font-family="Helvetica,sans-Serif" font-size="10.00">_analysis.cpp</text>
</a>
</g>
</g>
<!-- Node76&#45;&gt;Node80 -->
<g id="edge29" class="edge">
<title>Node76&#45;&gt;Node80</title>
<path fill="none" stroke="midnightblue" d="M475.77,-341.86C447.67,-331.09 415.96,-318.94 388.78,-308.52"/>
<polygon fill="midnightblue" stroke="midnightblue" points="474.56,-345.14 485.15,-345.45 477.06,-338.61 474.56,-345.14"/>
</g>
<!-- Node79&#45;&gt;Node77 -->
<g id="edge27" class="edge">
<title>Node79&#45;&gt;Node77</title>
<path fill="none" stroke="midnightblue" d="M514.1,-256.17C497.56,-244.65 478.04,-231.07 461.54,-219.58"/>
<polygon fill="midnightblue" stroke="midnightblue" points="512.24,-259.14 522.45,-261.98 516.24,-253.39 512.24,-259.14"/>
</g>
<!-- Node79&#45;&gt;Node78 -->
<g id="edge28" class="edge">
<title>Node79&#45;&gt;Node78</title>
<path fill="none" stroke="midnightblue" d="M571.13,-253.45C579.1,-242.63 588.14,-230.34 595.9,-219.79"/>
<polygon fill="midnightblue" stroke="midnightblue" points="568.13,-251.63 565.02,-261.76 573.77,-255.78 568.13,-251.63"/>
</g>
<!-- Node82 -->
<g id="node27" class="node">
<title>Node82</title>
<g id="a_node27"><a xlink:href="value__set__domain__fi_8h.html" target="_top" xlink:title="Value Set (Flow Insensitive)">
<polygon fill="none" stroke="black" points="1605,-434.5 1605,-486.5 1754,-486.5 1754,-434.5 1605,-434.5"/>
<text text-anchor="start" x="1613" y="-474.5" font-family="Helvetica,sans-Serif" font-size="10.00">/home/runner/work/diffblue</text>
<text text-anchor="start" x="1613" y="-463.5" font-family="Helvetica,sans-Serif" font-size="10.00">&#45;cbmc/diffblue&#45;cbmc/src</text>
<text text-anchor="start" x="1613" y="-452.5" font-family="Helvetica,sans-Serif" font-size="10.00">/pointer&#45;analysis/value_set</text>
<text text-anchor="middle" x="1679.5" y="-441.5" font-family="Helvetica,sans-Serif" font-size="10.00">_domain_fi.h</text>
</a>
</g>
</g>
<!-- Node81&#45;&gt;Node82 -->
<g id="edge31" class="edge">
<title>Node81&#45;&gt;Node82</title>
<path fill="none" stroke="midnightblue" d="M1581.8,-518.38C1599.09,-508.31 1619.06,-496.69 1636.42,-486.58"/>
<polygon fill="midnightblue" stroke="midnightblue" points="1579.91,-515.42 1573.03,-523.48 1583.44,-521.47 1579.91,-515.42"/>
</g>
<!-- Node88 -->
<g id="node33" class="node">
<title>Node88</title>
<g id="a_node33"><a xlink:href="value__set__fi_8cpp.html" target="_top" xlink:title="Value Set (Flow Insensitive, Sharing)">
<polygon fill="none" stroke="black" points="1406.5,-440 1406.5,-481 1586.5,-481 1586.5,-440 1406.5,-440"/>
<text text-anchor="start" x="1414.5" y="-469" font-family="Helvetica,sans-Serif" font-size="10.00">/home/runner/work/diffblue</text>
<text text-anchor="start" x="1414.5" y="-458" font-family="Helvetica,sans-Serif" font-size="10.00">&#45;cbmc/diffblue&#45;cbmc/src</text>
<text text-anchor="middle" x="1496.5" y="-447" font-family="Helvetica,sans-Serif" font-size="10.00">/pointer&#45;analysis/value_set_fi.cpp</text>
</a>
</g>
</g>
<!-- Node81&#45;&gt;Node88 -->
<g id="edge37" class="edge">
<title>Node81&#45;&gt;Node88</title>
<path fill="none" stroke="midnightblue" d="M1524.41,-514.39C1518.59,-503.37 1512.08,-491.03 1506.81,-481.05"/>
<polygon fill="midnightblue" stroke="midnightblue" points="1521.33,-516.06 1529.09,-523.27 1527.52,-512.79 1521.33,-516.06"/>
</g>
<!-- Node83 -->
<g id="node28" class="node">
<title>Node83</title>
<g id="a_node28"><a xlink:href="value__set__analysis__fi_8h.html" target="_top" xlink:title="Value Set Propagation (flow insensitive)">
<polygon fill="none" stroke="black" points="1521,-345.5 1521,-397.5 1670,-397.5 1670,-345.5 1521,-345.5"/>
<text text-anchor="start" x="1529" y="-385.5" font-family="Helvetica,sans-Serif" font-size="10.00">/home/runner/work/diffblue</text>
<text text-anchor="start" x="1529" y="-374.5" font-family="Helvetica,sans-Serif" font-size="10.00">&#45;cbmc/diffblue&#45;cbmc/src</text>
<text text-anchor="start" x="1529" y="-363.5" font-family="Helvetica,sans-Serif" font-size="10.00">/pointer&#45;analysis/value_set</text>
<text text-anchor="middle" x="1595.5" y="-352.5" font-family="Helvetica,sans-Serif" font-size="10.00">_analysis_fi.h</text>
</a>
</g>
</g>
<!-- Node82&#45;&gt;Node83 -->
<g id="edge32" class="edge">
<title>Node82&#45;&gt;Node83</title>
<path fill="none" stroke="midnightblue" d="M1648.19,-427.08C1638.79,-417.34 1628.62,-406.8 1619.74,-397.61"/>
<polygon fill="midnightblue" stroke="midnightblue" points="1645.74,-429.57 1655.2,-434.34 1650.78,-424.71 1645.74,-429.57"/>
</g>
<!-- Node87 -->
<g id="node32" class="node">
<title>Node87</title>
<g id="a_node32"><a xlink:href="value__set__domain__fi_8cpp.html" target="_top" xlink:title="Value Set Domain (Flow Insensitive)">
<polygon fill="none" stroke="black" points="1688,-345.5 1688,-397.5 1837,-397.5 1837,-345.5 1688,-345.5"/>
<text text-anchor="start" x="1696" y="-385.5" font-family="Helvetica,sans-Serif" font-size="10.00">/home/runner/work/diffblue</text>
<text text-anchor="start" x="1696" y="-374.5" font-family="Helvetica,sans-Serif" font-size="10.00">&#45;cbmc/diffblue&#45;cbmc/src</text>
<text text-anchor="start" x="1696" y="-363.5" font-family="Helvetica,sans-Serif" font-size="10.00">/pointer&#45;analysis/value_set</text>
<text text-anchor="middle" x="1762.5" y="-352.5" font-family="Helvetica,sans-Serif" font-size="10.00">_domain_fi.cpp</text>
</a>
</g>
</g>
<!-- Node82&#45;&gt;Node87 -->
<g id="edge36" class="edge">
<title>Node82&#45;&gt;Node87</title>
<path fill="none" stroke="midnightblue" d="M1710.43,-427.08C1719.73,-417.34 1729.78,-406.8 1738.55,-397.61"/>
<polygon fill="midnightblue" stroke="midnightblue" points="1707.88,-424.68 1703.51,-434.34 1712.94,-429.52 1707.88,-424.68"/>
</g>
<!-- Node84 -->
<g id="node29" class="node">
<title>Node84</title>
<g id="a_node29"><a xlink:href="reaching__definitions_8cpp.html" target="_top" xlink:title="Range&#45;based reaching definitions analysis (following Field&#45; Sensitive Program Dependence Analysis,...">
<polygon fill="none" stroke="black" points="1688,-262 1688,-303 1873,-303 1873,-262 1688,-262"/>
<text text-anchor="start" x="1696" y="-291" font-family="Helvetica,sans-Serif" font-size="10.00">/home/runner/work/diffblue</text>
<text text-anchor="start" x="1696" y="-280" font-family="Helvetica,sans-Serif" font-size="10.00">&#45;cbmc/diffblue&#45;cbmc/src</text>
<text text-anchor="middle" x="1780.5" y="-269" font-family="Helvetica,sans-Serif" font-size="10.00">/analyses/reaching_definitions.cpp</text>
</a>
</g>
</g>
<!-- Node83&#45;&gt;Node84 -->
<g id="edge33" class="edge">
<title>Node83&#45;&gt;Node84</title>
<path fill="none" stroke="midnightblue" d="M1658.25,-340.99C1684.84,-328.49 1715.1,-314.26 1738.86,-303.08"/>
<polygon fill="midnightblue" stroke="midnightblue" points="1656.57,-337.91 1649.01,-345.34 1659.55,-344.25 1656.57,-337.91"/>
</g>
<!-- Node85 -->
<g id="node30" class="node">
<title>Node85</title>
<g id="a_node30"><a xlink:href="value__set__fi__fp__removal_8cpp.html" target="_top" xlink:title=" ">
<polygon fill="none" stroke="black" points="1354,-256.5 1354,-308.5 1503,-308.5 1503,-256.5 1354,-256.5"/>
<text text-anchor="start" x="1362" y="-296.5" font-family="Helvetica,sans-Serif" font-size="10.00">/home/runner/work/diffblue</text>
<text text-anchor="start" x="1362" y="-285.5" font-family="Helvetica,sans-Serif" font-size="10.00">&#45;cbmc/diffblue&#45;cbmc/src</text>
<text text-anchor="start" x="1362" y="-274.5" font-family="Helvetica,sans-Serif" font-size="10.00">/goto&#45;instrument/value_set</text>
<text text-anchor="middle" x="1428.5" y="-263.5" font-family="Helvetica,sans-Serif" font-size="10.00">_fi_fp_removal.cpp</text>
</a>
</g>
</g>
<!-- Node83&#45;&gt;Node85 -->
<g id="edge34" class="edge">
<title>Node83&#45;&gt;Node85</title>
<path fill="none" stroke="midnightblue" d="M1538.17,-340.64C1518.15,-330.2 1495.9,-318.61 1476.69,-308.61"/>
<polygon fill="midnightblue" stroke="midnightblue" points="1536.71,-343.82 1547.2,-345.34 1539.95,-337.61 1536.71,-343.82"/>
</g>
<!-- Node86 -->
<g id="node31" class="node">
<title>Node86</title>
<g id="a_node31"><a xlink:href="value__set__analysis__fi_8cpp.html" target="_top" xlink:title="Value Set Propagation (Flow Insensitive)">
<polygon fill="none" stroke="black" points="1521,-256.5 1521,-308.5 1670,-308.5 1670,-256.5 1521,-256.5"/>
<text text-anchor="start" x="1529" y="-296.5" font-family="Helvetica,sans-Serif" font-size="10.00">/home/runner/work/diffblue</text>
<text text-anchor="start" x="1529" y="-285.5" font-family="Helvetica,sans-Serif" font-size="10.00">&#45;cbmc/diffblue&#45;cbmc/src</text>
<text text-anchor="start" x="1529" y="-274.5" font-family="Helvetica,sans-Serif" font-size="10.00">/pointer&#45;analysis/value_set</text>
<text text-anchor="middle" x="1595.5" y="-263.5" font-family="Helvetica,sans-Serif" font-size="10.00">_analysis_fi.cpp</text>
</a>
</g>
</g>
<!-- Node83&#45;&gt;Node86 -->
<g id="edge35" class="edge">
<title>Node83&#45;&gt;Node86</title>
<path fill="none" stroke="midnightblue" d="M1595.5,-335.19C1595.5,-326.28 1595.5,-316.9 1595.5,-308.61"/>
<polygon fill="midnightblue" stroke="midnightblue" points="1592,-335.34 1595.5,-345.34 1599,-335.34 1592,-335.34"/>
</g>
<!-- Node90 -->
<g id="node35" class="node">
<title>Node90</title>
<g id="a_node35"><a xlink:href="ref__expr__set_8cpp.html" target="_top" xlink:title="Value Set.">
<polygon fill="none" stroke="black" points="1772,-440 1772,-481 1921,-481 1921,-440 1772,-440"/>
<text text-anchor="start" x="1780" y="-469" font-family="Helvetica,sans-Serif" font-size="10.00">/home/runner/work/diffblue</text>
<text text-anchor="start" x="1780" y="-458" font-family="Helvetica,sans-Serif" font-size="10.00">&#45;cbmc/diffblue&#45;cbmc/src</text>
<text text-anchor="middle" x="1846.5" y="-447" font-family="Helvetica,sans-Serif" font-size="10.00">/util/ref_expr_set.cpp</text>
</a>
</g>
</g>
<!-- Node89&#45;&gt;Node90 -->
<g id="edge39" class="edge">
<title>Node89&#45;&gt;Node90</title>
<path fill="none" stroke="midnightblue" d="M1817.94,-514.39C1823.9,-503.37 1830.56,-491.03 1835.95,-481.05"/>
<polygon fill="midnightblue" stroke="midnightblue" points="1814.82,-512.81 1813.15,-523.27 1820.98,-516.13 1814.82,-512.81"/>
</g>
</g>
</svg>
