<?xml version="1.0" encoding="UTF-8" standalone="no"?>
<!DOCTYPE svg PUBLIC "-//W3C//DTD SVG 1.1//EN"
 "http://www.w3.org/Graphics/SVG/1.1/DTD/svg11.dtd">
<!-- Generated by graphviz version 2.43.0 (0)
 -->
<!-- Title: /home/runner/work/diffblue&#45;cbmc/diffblue&#45;cbmc/src/goto&#45;programs/remove_unused_functions.h Pages: 1 -->
<svg width="1271pt" height="150pt"
 viewBox="0.00 0.00 1270.50 150.00" xmlns="http://www.w3.org/2000/svg" xmlns:xlink="http://www.w3.org/1999/xlink">
<g id="graph0" class="graph" transform="scale(1 1) rotate(0) translate(4 146)">
<title>/home/runner/work/diffblue&#45;cbmc/diffblue&#45;cbmc/src/goto&#45;programs/remove_unused_functions.h</title>
<!-- Node1 -->
<g id="node1" class="node">
<title>Node1</title>
<g id="a_node1"><a xlink:title="Unused function removal.">
<polygon fill="#bfbfbf" stroke="black" points="526,-89.5 526,-141.5 699,-141.5 699,-89.5 526,-89.5"/>
<text text-anchor="start" x="534" y="-129.5" font-family="Helvetica,sans-Serif" font-size="10.00">/home/runner/work/diffblue</text>
<text text-anchor="start" x="534" y="-118.5" font-family="Helvetica,sans-Serif" font-size="10.00">&#45;cbmc/diffblue&#45;cbmc/src</text>
<text text-anchor="start" x="534" y="-107.5" font-family="Helvetica,sans-Serif" font-size="10.00">/goto&#45;programs/remove_unused</text>
<text text-anchor="middle" x="612.5" y="-96.5" font-family="Helvetica,sans-Serif" font-size="10.00">_functions.h</text>
</a>
</g>
</g>
<!-- Node2 -->
<g id="node2" class="node">
<title>Node2</title>
<g id="a_node2"><a xlink:href="cbmc__parse__options_8cpp.html" target="_top" xlink:title="CBMC Command Line Option Processing.">
<polygon fill="none" stroke="black" points="0,-6 0,-47 169,-47 169,-6 0,-6"/>
<text text-anchor="start" x="8" y="-35" font-family="Helvetica,sans-Serif" font-size="10.00">/home/runner/work/diffblue</text>
<text text-anchor="start" x="8" y="-24" font-family="Helvetica,sans-Serif" font-size="10.00">&#45;cbmc/diffblue&#45;cbmc/src</text>
<text text-anchor="middle" x="84.5" y="-13" font-family="Helvetica,sans-Serif" font-size="10.00">/cbmc/cbmc_parse_options.cpp</text>
</a>
</g>
</g>
<!-- Node1&#45;&gt;Node2 -->
<g id="edge1" class="edge">
<title>Node1&#45;&gt;Node2</title>
<path fill="none" stroke="midnightblue" d="M515.66,-104.38C427.1,-94.29 292.75,-76.85 177.5,-53 169.14,-51.27 160.42,-49.22 151.81,-47.04"/>
<polygon fill="midnightblue" stroke="midnightblue" points="515.36,-107.87 525.69,-105.52 516.15,-100.92 515.36,-107.87"/>
</g>
<!-- Node3 -->
<g id="node3" class="node">
<title>Node3</title>
<g id="a_node3"><a xlink:href="contracts__wrangler_8cpp.html" target="_top" xlink:title="Parse and annotate contracts.">
<polygon fill="none" stroke="black" points="187,-0.5 187,-52.5 336,-52.5 336,-0.5 187,-0.5"/>
<text text-anchor="start" x="195" y="-40.5" font-family="Helvetica,sans-Serif" font-size="10.00">/home/runner/work/diffblue</text>
<text text-anchor="start" x="195" y="-29.5" font-family="Helvetica,sans-Serif" font-size="10.00">&#45;cbmc/diffblue&#45;cbmc/src</text>
<text text-anchor="start" x="195" y="-18.5" font-family="Helvetica,sans-Serif" font-size="10.00">/goto&#45;instrument/contracts</text>
<text text-anchor="middle" x="261.5" y="-7.5" font-family="Helvetica,sans-Serif" font-size="10.00">/contracts_wrangler.cpp</text>
</a>
</g>
</g>
<!-- Node1&#45;&gt;Node3 -->
<g id="edge2" class="edge">
<title>Node1&#45;&gt;Node3</title>
<path fill="none" stroke="midnightblue" d="M515.76,-94.08C464.62,-82.83 400.91,-68.12 344.5,-53 341.73,-52.26 338.92,-51.49 336.08,-50.69"/>
<polygon fill="midnightblue" stroke="midnightblue" points="515.29,-97.56 525.81,-96.28 516.79,-90.72 515.29,-97.56"/>
</g>
<!-- Node4 -->
<g id="node4" class="node">
<title>Node4</title>
<g id="a_node4"><a xlink:href="dfcc_8cpp.html" target="_top" xlink:title=" ">
<polygon fill="none" stroke="black" points="354,-0.5 354,-52.5 503,-52.5 503,-0.5 354,-0.5"/>
<text text-anchor="start" x="362" y="-40.5" font-family="Helvetica,sans-Serif" font-size="10.00">/home/runner/work/diffblue</text>
<text text-anchor="start" x="362" y="-29.5" font-family="Helvetica,sans-Serif" font-size="10.00">&#45;cbmc/diffblue&#45;cbmc/src</text>
<text text-anchor="start" x="362" y="-18.5" font-family="Helvetica,sans-Serif" font-size="10.00">/goto&#45;instrument/contracts</text>
<text text-anchor="middle" x="428.5" y="-7.5" font-family="Helvetica,sans-Serif" font-size="10.00">/dynamic&#45;frames/dfcc.cpp</text>
</a>
</g>
</g>
<!-- Node1&#45;&gt;Node4 -->
<g id="edge3" class="edge">
<title>Node1&#45;&gt;Node4</title>
<path fill="none" stroke="midnightblue" d="M550.23,-85.06C527.94,-74.52 503.04,-62.75 481.6,-52.61"/>
<polygon fill="midnightblue" stroke="midnightblue" points="548.74,-88.23 559.28,-89.34 551.74,-81.9 548.74,-88.23"/>
</g>
<!-- Node5 -->
<g id="node5" class="node">
<title>Node5</title>
<g id="a_node5"><a xlink:href="goto__instrument__parse__options_8cpp.html" target="_top" xlink:title="Main Module.">
<polygon fill="none" stroke="black" points="521.5,-0.5 521.5,-52.5 703.5,-52.5 703.5,-0.5 521.5,-0.5"/>
<text text-anchor="start" x="529.5" y="-40.5" font-family="Helvetica,sans-Serif" font-size="10.00">/home/runner/work/diffblue</text>
<text text-anchor="start" x="529.5" y="-29.5" font-family="Helvetica,sans-Serif" font-size="10.00">&#45;cbmc/diffblue&#45;cbmc/src</text>
<text text-anchor="start" x="529.5" y="-18.5" font-family="Helvetica,sans-Serif" font-size="10.00">/goto&#45;instrument/goto_instrument</text>
<text text-anchor="middle" x="612.5" y="-7.5" font-family="Helvetica,sans-Serif" font-size="10.00">_parse_options.cpp</text>
</a>
</g>
</g>
<!-- Node1&#45;&gt;Node5 -->
<g id="edge4" class="edge">
<title>Node1&#45;&gt;Node5</title>
<path fill="none" stroke="midnightblue" d="M612.5,-79.19C612.5,-70.28 612.5,-60.9 612.5,-52.61"/>
<polygon fill="midnightblue" stroke="midnightblue" points="609,-79.34 612.5,-89.34 616,-79.34 609,-79.34"/>
</g>
<!-- Node6 -->
<g id="node6" class="node">
<title>Node6</title>
<g id="a_node6"><a xlink:href="remove__unused__functions_8cpp.html" target="_top" xlink:title="Unused function removal.">
<polygon fill="none" stroke="black" points="722,-0.5 722,-52.5 895,-52.5 895,-0.5 722,-0.5"/>
<text text-anchor="start" x="730" y="-40.5" font-family="Helvetica,sans-Serif" font-size="10.00">/home/runner/work/diffblue</text>
<text text-anchor="start" x="730" y="-29.5" font-family="Helvetica,sans-Serif" font-size="10.00">&#45;cbmc/diffblue&#45;cbmc/src</text>
<text text-anchor="start" x="730" y="-18.5" font-family="Helvetica,sans-Serif" font-size="10.00">/goto&#45;programs/remove_unused</text>
<text text-anchor="middle" x="808.5" y="-7.5" font-family="Helvetica,sans-Serif" font-size="10.00">_functions.cpp</text>
</a>
</g>
</g>
<!-- Node1&#45;&gt;Node6 -->
<g id="edge5" class="edge">
<title>Node1&#45;&gt;Node6</title>
<path fill="none" stroke="midnightblue" d="M678.3,-85.29C702.24,-74.67 729.07,-62.76 752.13,-52.52"/>
<polygon fill="midnightblue" stroke="midnightblue" points="676.65,-82.2 668.93,-89.45 679.49,-88.59 676.65,-82.2"/>
</g>
<!-- Node7 -->
<g id="node7" class="node">
<title>Node7</title>
<g id="a_node7"><a xlink:href="api_8cpp.html" target="_top" xlink:title=" ">
<polygon fill="none" stroke="black" points="913,-6 913,-47 1062,-47 1062,-6 913,-6"/>
<text text-anchor="start" x="921" y="-35" font-family="Helvetica,sans-Serif" font-size="10.00">/home/runner/work/diffblue</text>
<text text-anchor="start" x="921" y="-24" font-family="Helvetica,sans-Serif" font-size="10.00">&#45;cbmc/diffblue&#45;cbmc/src</text>
<text text-anchor="middle" x="987.5" y="-13" font-family="Helvetica,sans-Serif" font-size="10.00">/libcprover&#45;cpp/api.cpp</text>
</a>
</g>
</g>
<!-- Node1&#45;&gt;Node7 -->
<g id="edge6" class="edge">
<title>Node1&#45;&gt;Node7</title>
<path fill="none" stroke="midnightblue" d="M709.32,-96.39C766.42,-85.15 839.91,-69.69 904.5,-53 911.51,-51.19 918.8,-49.16 926.03,-47.06"/>
<polygon fill="midnightblue" stroke="midnightblue" points="708.36,-93.01 699.22,-98.37 709.71,-99.88 708.36,-93.01"/>
</g>
<!-- Node8 -->
<g id="node8" class="node">
<title>Node8</title>
<g id="a_node8"><a xlink:href="jbmc__parse__options_8cpp.html" target="_top" xlink:title="JBMC Command Line Option Processing.">
<polygon fill="none" stroke="black" points="1080.5,-6 1080.5,-47 1262.5,-47 1262.5,-6 1080.5,-6"/>
<text text-anchor="start" x="1088.5" y="-35" font-family="Helvetica,sans-Serif" font-size="10.00">/home/runner/work/diffblue</text>
<text text-anchor="start" x="1088.5" y="-24" font-family="Helvetica,sans-Serif" font-size="10.00">&#45;cbmc/diffblue&#45;cbmc/jbmc</text>
<text text-anchor="middle" x="1171.5" y="-13" font-family="Helvetica,sans-Serif" font-size="10.00">/src/jbmc/jbmc_parse_options.cpp</text>
</a>
</g>
</g>
<!-- Node1&#45;&gt;Node8 -->
<g id="edge7" class="edge">
<title>Node1&#45;&gt;Node8</title>
<path fill="none" stroke="midnightblue" d="M709.26,-104.85C802.52,-94.77 947.37,-77.06 1071.5,-53 1080.47,-51.26 1089.84,-49.2 1099.08,-47.02"/>
<polygon fill="midnightblue" stroke="midnightblue" points="708.85,-101.37 699.28,-105.92 709.59,-108.33 708.85,-101.37"/>
</g>
</g>
</svg>
