<?xml version="1.0" encoding="UTF-8" standalone="no"?>
<!DOCTYPE svg PUBLIC "-//W3C//DTD SVG 1.1//EN"
 "http://www.w3.org/Graphics/SVG/1.1/DTD/svg11.dtd">
<!-- Generated by graphviz version 2.43.0 (0)
 -->
<!-- Title: /home/runner/work/diffblue&#45;cbmc/diffblue&#45;cbmc/src/goto&#45;programs/remove_function_pointers.h Pages: 1 -->
<svg width="1673pt" height="161pt"
 viewBox="0.00 0.00 1672.50 161.00" xmlns="http://www.w3.org/2000/svg" xmlns:xlink="http://www.w3.org/1999/xlink">
<g id="graph0" class="graph" transform="scale(1 1) rotate(0) translate(4 157)">
<title>/home/runner/work/diffblue&#45;cbmc/diffblue&#45;cbmc/src/goto&#45;programs/remove_function_pointers.h</title>
<!-- Node1 -->
<g id="node1" class="node">
<title>Node1</title>
<g id="a_node1"><a xlink:title="Remove Indirect Function Calls.">
<polygon fill="#bfbfbf" stroke="black" points="747.5,-100.5 747.5,-152.5 924.5,-152.5 924.5,-100.5 747.5,-100.5"/>
<text text-anchor="start" x="755.5" y="-140.5" font-family="Helvetica,sans-Serif" font-size="10.00">/home/runner/work/diffblue</text>
<text text-anchor="start" x="755.5" y="-129.5" font-family="Helvetica,sans-Serif" font-size="10.00">&#45;cbmc/diffblue&#45;cbmc/src</text>
<text text-anchor="start" x="755.5" y="-118.5" font-family="Helvetica,sans-Serif" font-size="10.00">/goto&#45;programs/remove_function</text>
<text text-anchor="middle" x="836" y="-107.5" font-family="Helvetica,sans-Serif" font-size="10.00">_pointers.h</text>
</a>
</g>
</g>
<!-- Node2 -->
<g id="node2" class="node">
<title>Node2</title>
<g id="a_node2"><a xlink:href="cprover__parse__options_8cpp.html" target="_top" xlink:title="cprover Command Line Options Processing">
<polygon fill="none" stroke="black" points="0,-11.5 0,-52.5 190,-52.5 190,-11.5 0,-11.5"/>
<text text-anchor="start" x="8" y="-40.5" font-family="Helvetica,sans-Serif" font-size="10.00">/home/runner/work/diffblue</text>
<text text-anchor="start" x="8" y="-29.5" font-family="Helvetica,sans-Serif" font-size="10.00">&#45;cbmc/diffblue&#45;cbmc/src</text>
<text text-anchor="middle" x="95" y="-18.5" font-family="Helvetica,sans-Serif" font-size="10.00">/cprover/cprover_parse_options.cpp</text>
</a>
</g>
</g>
<!-- Node1&#45;&gt;Node2 -->
<g id="edge1" class="edge">
<title>Node1&#45;&gt;Node2</title>
<path fill="none" stroke="midnightblue" d="M737.37,-121.89C611.44,-115.94 387.31,-100.8 199,-64 184.02,-61.07 168.11,-56.9 153.36,-52.55"/>
<polygon fill="midnightblue" stroke="midnightblue" points="737.23,-125.39 747.38,-122.35 737.55,-118.4 737.23,-125.39"/>
</g>
<!-- Node3 -->
<g id="node3" class="node">
<title>Node3</title>
<g id="a_node3"><a xlink:href="multi__path__symex__checker_8cpp.html" target="_top" xlink:title="Goto Checker using Bounded Model Checking.">
<polygon fill="none" stroke="black" points="208.5,-6 208.5,-58 357.5,-58 357.5,-6 208.5,-6"/>
<text text-anchor="start" x="216.5" y="-46" font-family="Helvetica,sans-Serif" font-size="10.00">/home/runner/work/diffblue</text>
<text text-anchor="start" x="216.5" y="-35" font-family="Helvetica,sans-Serif" font-size="10.00">&#45;cbmc/diffblue&#45;cbmc/src</text>
<text text-anchor="start" x="216.5" y="-24" font-family="Helvetica,sans-Serif" font-size="10.00">/goto&#45;checker/multi_path</text>
<text text-anchor="middle" x="283" y="-13" font-family="Helvetica,sans-Serif" font-size="10.00">_symex_checker.cpp</text>
</a>
</g>
</g>
<!-- Node1&#45;&gt;Node3 -->
<g id="edge2" class="edge">
<title>Node1&#45;&gt;Node3</title>
<path fill="none" stroke="midnightblue" d="M737.42,-119.15C641.47,-111.44 492.11,-95.37 366,-64 359.28,-62.33 352.36,-60.29 345.52,-58.06"/>
<polygon fill="midnightblue" stroke="midnightblue" points="737.15,-122.64 747.4,-119.93 737.7,-115.66 737.15,-122.64"/>
</g>
<!-- Node4 -->
<g id="node4" class="node">
<title>Node4</title>
<g id="a_node4"><a xlink:href="dfcc__contract__handler_8cpp.html" target="_top" xlink:title=" ">
<polygon fill="none" stroke="black" points="375,-0.5 375,-63.5 543,-63.5 543,-0.5 375,-0.5"/>
<text text-anchor="start" x="383" y="-51.5" font-family="Helvetica,sans-Serif" font-size="10.00">/home/runner/work/diffblue</text>
<text text-anchor="start" x="383" y="-40.5" font-family="Helvetica,sans-Serif" font-size="10.00">&#45;cbmc/diffblue&#45;cbmc/src</text>
<text text-anchor="start" x="383" y="-29.5" font-family="Helvetica,sans-Serif" font-size="10.00">/goto&#45;instrument/contracts</text>
<text text-anchor="start" x="383" y="-18.5" font-family="Helvetica,sans-Serif" font-size="10.00">/dynamic&#45;frames/dfcc_contract</text>
<text text-anchor="middle" x="459" y="-7.5" font-family="Helvetica,sans-Serif" font-size="10.00">_handler.cpp</text>
</a>
</g>
</g>
<!-- Node1&#45;&gt;Node4 -->
<g id="edge3" class="edge">
<title>Node1&#45;&gt;Node4</title>
<path fill="none" stroke="midnightblue" d="M737.37,-106.88C682.44,-95.83 613.03,-80.73 552,-64 549.05,-63.19 546.05,-62.34 543.02,-61.46"/>
<polygon fill="midnightblue" stroke="midnightblue" points="736.96,-110.37 747.45,-108.9 738.33,-103.5 736.96,-110.37"/>
</g>
<!-- Node5 -->
<g id="node5" class="node">
<title>Node5</title>
<g id="a_node5"><a xlink:href="goto__instrument__parse__options_8cpp.html" target="_top" xlink:title="Main Module.">
<polygon fill="none" stroke="black" points="561,-6 561,-58 743,-58 743,-6 561,-6"/>
<text text-anchor="start" x="569" y="-46" font-family="Helvetica,sans-Serif" font-size="10.00">/home/runner/work/diffblue</text>
<text text-anchor="start" x="569" y="-35" font-family="Helvetica,sans-Serif" font-size="10.00">&#45;cbmc/diffblue&#45;cbmc/src</text>
<text text-anchor="start" x="569" y="-24" font-family="Helvetica,sans-Serif" font-size="10.00">/goto&#45;instrument/goto_instrument</text>
<text text-anchor="middle" x="652" y="-13" font-family="Helvetica,sans-Serif" font-size="10.00">_parse_options.cpp</text>
</a>
</g>
</g>
<!-- Node1&#45;&gt;Node5 -->
<g id="edge4" class="edge">
<title>Node1&#45;&gt;Node5</title>
<path fill="none" stroke="midnightblue" d="M777.1,-95.89C752.85,-83.7 725.05,-69.73 701.83,-58.05"/>
<polygon fill="midnightblue" stroke="midnightblue" points="775.7,-99.1 786.21,-100.47 778.84,-92.85 775.7,-99.1"/>
</g>
<!-- Node6 -->
<g id="node6" class="node">
<title>Node6</title>
<g id="a_node6"><a xlink:href="value__set__fi__fp__removal_8cpp.html" target="_top" xlink:title=" ">
<polygon fill="none" stroke="black" points="761.5,-6 761.5,-58 910.5,-58 910.5,-6 761.5,-6"/>
<text text-anchor="start" x="769.5" y="-46" font-family="Helvetica,sans-Serif" font-size="10.00">/home/runner/work/diffblue</text>
<text text-anchor="start" x="769.5" y="-35" font-family="Helvetica,sans-Serif" font-size="10.00">&#45;cbmc/diffblue&#45;cbmc/src</text>
<text text-anchor="start" x="769.5" y="-24" font-family="Helvetica,sans-Serif" font-size="10.00">/goto&#45;instrument/value_set</text>
<text text-anchor="middle" x="836" y="-13" font-family="Helvetica,sans-Serif" font-size="10.00">_fi_fp_removal.cpp</text>
</a>
</g>
</g>
<!-- Node1&#45;&gt;Node6 -->
<g id="edge5" class="edge">
<title>Node1&#45;&gt;Node6</title>
<path fill="none" stroke="midnightblue" d="M836,-89.99C836,-79.41 836,-68.03 836,-58.25"/>
<polygon fill="midnightblue" stroke="midnightblue" points="832.5,-90.22 836,-100.22 839.5,-90.22 832.5,-90.22"/>
</g>
<!-- Node7 -->
<g id="node7" class="node">
<title>Node7</title>
<g id="a_node7"><a xlink:href="process__goto__program_8cpp.html" target="_top" xlink:title="Get a Goto Program.">
<polygon fill="none" stroke="black" points="928.5,-6 928.5,-58 1087.5,-58 1087.5,-6 928.5,-6"/>
<text text-anchor="start" x="936.5" y="-46" font-family="Helvetica,sans-Serif" font-size="10.00">/home/runner/work/diffblue</text>
<text text-anchor="start" x="936.5" y="-35" font-family="Helvetica,sans-Serif" font-size="10.00">&#45;cbmc/diffblue&#45;cbmc/src</text>
<text text-anchor="start" x="936.5" y="-24" font-family="Helvetica,sans-Serif" font-size="10.00">/goto&#45;programs/process_goto</text>
<text text-anchor="middle" x="1008" y="-13" font-family="Helvetica,sans-Serif" font-size="10.00">_program.cpp</text>
</a>
</g>
</g>
<!-- Node1&#45;&gt;Node7 -->
<g id="edge6" class="edge">
<title>Node1&#45;&gt;Node7</title>
<path fill="none" stroke="midnightblue" d="M891.36,-95.73C913.96,-83.58 939.81,-69.67 961.42,-58.05"/>
<polygon fill="midnightblue" stroke="midnightblue" points="889.7,-92.65 882.55,-100.47 893.01,-98.81 889.7,-92.65"/>
</g>
<!-- Node8 -->
<g id="node8" class="node">
<title>Node8</title>
<g id="a_node8"><a xlink:href="remove__function__pointers_8cpp.html" target="_top" xlink:title="Program Transformation.">
<polygon fill="none" stroke="black" points="1105.5,-6 1105.5,-58 1282.5,-58 1282.5,-6 1105.5,-6"/>
<text text-anchor="start" x="1113.5" y="-46" font-family="Helvetica,sans-Serif" font-size="10.00">/home/runner/work/diffblue</text>
<text text-anchor="start" x="1113.5" y="-35" font-family="Helvetica,sans-Serif" font-size="10.00">&#45;cbmc/diffblue&#45;cbmc/src</text>
<text text-anchor="start" x="1113.5" y="-24" font-family="Helvetica,sans-Serif" font-size="10.00">/goto&#45;programs/remove_function</text>
<text text-anchor="middle" x="1194" y="-13" font-family="Helvetica,sans-Serif" font-size="10.00">_pointers.cpp</text>
</a>
</g>
</g>
<!-- Node1&#45;&gt;Node8 -->
<g id="edge7" class="edge">
<title>Node1&#45;&gt;Node8</title>
<path fill="none" stroke="midnightblue" d="M934.6,-104.17C983.65,-93.08 1043.7,-78.77 1097,-64 1103.73,-62.13 1110.69,-60.11 1117.65,-58.01"/>
<polygon fill="midnightblue" stroke="midnightblue" points="933.61,-100.81 924.63,-106.42 935.15,-107.64 933.61,-100.81"/>
</g>
<!-- Node9 -->
<g id="node9" class="node">
<title>Node9</title>
<g id="a_node9"><a xlink:href="restrict__function__pointers_8cpp.html" target="_top" xlink:title=" ">
<polygon fill="none" stroke="black" points="1301,-6 1301,-58 1475,-58 1475,-6 1301,-6"/>
<text text-anchor="start" x="1309" y="-46" font-family="Helvetica,sans-Serif" font-size="10.00">/home/runner/work/diffblue</text>
<text text-anchor="start" x="1309" y="-35" font-family="Helvetica,sans-Serif" font-size="10.00">&#45;cbmc/diffblue&#45;cbmc/src</text>
<text text-anchor="start" x="1309" y="-24" font-family="Helvetica,sans-Serif" font-size="10.00">/goto&#45;programs/restrict_function</text>
<text text-anchor="middle" x="1388" y="-13" font-family="Helvetica,sans-Serif" font-size="10.00">_pointers.cpp</text>
</a>
</g>
</g>
<!-- Node1&#45;&gt;Node9 -->
<g id="edge8" class="edge">
<title>Node1&#45;&gt;Node9</title>
<path fill="none" stroke="midnightblue" d="M934.64,-117.32C1027.61,-108.4 1170.42,-91.6 1292,-64 1299.52,-62.29 1307.28,-60.26 1314.99,-58.06"/>
<polygon fill="midnightblue" stroke="midnightblue" points="934.3,-113.83 924.68,-118.26 934.96,-120.8 934.3,-113.83"/>
</g>
<!-- Node10 -->
<g id="node10" class="node">
<title>Node10</title>
<g id="a_node10"><a xlink:href="jdiff__parse__options_8cpp.html" target="_top" xlink:title="JDIFF Command Line Option Processing.">
<polygon fill="none" stroke="black" points="1493.5,-11.5 1493.5,-52.5 1664.5,-52.5 1664.5,-11.5 1493.5,-11.5"/>
<text text-anchor="start" x="1501.5" y="-40.5" font-family="Helvetica,sans-Serif" font-size="10.00">/home/runner/work/diffblue</text>
<text text-anchor="start" x="1501.5" y="-29.5" font-family="Helvetica,sans-Serif" font-size="10.00">&#45;cbmc/diffblue&#45;cbmc/jbmc</text>
<text text-anchor="middle" x="1579" y="-18.5" font-family="Helvetica,sans-Serif" font-size="10.00">/src/jdiff/jdiff_parse_options.cpp</text>
</a>
</g>
</g>
<!-- Node1&#45;&gt;Node10 -->
<g id="edge9" class="edge">
<title>Node1&#45;&gt;Node10</title>
<path fill="none" stroke="midnightblue" d="M934.87,-122.89C1062.82,-117.96 1292.12,-103.9 1484,-64 1497.76,-61.14 1512.32,-56.99 1525.8,-52.64"/>
<polygon fill="midnightblue" stroke="midnightblue" points="934.56,-119.39 924.7,-123.27 934.82,-126.39 934.56,-119.39"/>
</g>
</g>
</svg>
