<?xml version="1.0" encoding="UTF-8" standalone="no"?>
<!DOCTYPE svg PUBLIC "-//W3C//DTD SVG 1.1//EN"
 "http://www.w3.org/Graphics/SVG/1.1/DTD/svg11.dtd">
<!-- Generated by graphviz version 2.43.0 (0)
 -->
<!-- Title: /home/runner/work/diffblue&#45;cbmc/diffblue&#45;cbmc/src/goto&#45;programs/remove_virtual_functions.h Pages: 1 -->
<svg width="935pt" height="150pt"
 viewBox="0.00 0.00 934.50 150.00" xmlns="http://www.w3.org/2000/svg" xmlns:xlink="http://www.w3.org/1999/xlink">
<g id="graph0" class="graph" transform="scale(1 1) rotate(0) translate(4 146)">
<title>/home/runner/work/diffblue&#45;cbmc/diffblue&#45;cbmc/src/goto&#45;programs/remove_virtual_functions.h</title>
<!-- Node1 -->
<g id="node1" class="node">
<title>Node1</title>
<g id="a_node1"><a xlink:title="Functions for replacing virtual function call with a static function calls in functions,...">
<polygon fill="#bfbfbf" stroke="black" points="377.5,-89.5 377.5,-141.5 546.5,-141.5 546.5,-89.5 377.5,-89.5"/>
<text text-anchor="start" x="385.5" y="-129.5" font-family="Helvetica,sans-Serif" font-size="10.00">/home/runner/work/diffblue</text>
<text text-anchor="start" x="385.5" y="-118.5" font-family="Helvetica,sans-Serif" font-size="10.00">&#45;cbmc/diffblue&#45;cbmc/src</text>
<text text-anchor="start" x="385.5" y="-107.5" font-family="Helvetica,sans-Serif" font-size="10.00">/goto&#45;programs/remove_virtual</text>
<text text-anchor="middle" x="462" y="-96.5" font-family="Helvetica,sans-Serif" font-size="10.00">_functions.h</text>
</a>
</g>
</g>
<!-- Node2 -->
<g id="node2" class="node">
<title>Node2</title>
<g id="a_node2"><a xlink:href="goto__instrument__parse__options_8cpp.html" target="_top" xlink:title="Main Module.">
<polygon fill="none" stroke="black" points="0,-0.5 0,-52.5 182,-52.5 182,-0.5 0,-0.5"/>
<text text-anchor="start" x="8" y="-40.5" font-family="Helvetica,sans-Serif" font-size="10.00">/home/runner/work/diffblue</text>
<text text-anchor="start" x="8" y="-29.5" font-family="Helvetica,sans-Serif" font-size="10.00">&#45;cbmc/diffblue&#45;cbmc/src</text>
<text text-anchor="start" x="8" y="-18.5" font-family="Helvetica,sans-Serif" font-size="10.00">/goto&#45;instrument/goto_instrument</text>
<text text-anchor="middle" x="91" y="-7.5" font-family="Helvetica,sans-Serif" font-size="10.00">_parse_options.cpp</text>
</a>
</g>
</g>
<!-- Node1&#45;&gt;Node2 -->
<g id="edge1" class="edge">
<title>Node1&#45;&gt;Node2</title>
<path fill="none" stroke="midnightblue" d="M367.43,-93.68C315.31,-82.05 249.49,-67.09 191,-53 188.13,-52.31 185.21,-51.6 182.26,-50.88"/>
<polygon fill="midnightblue" stroke="midnightblue" points="366.81,-97.13 377.34,-95.89 368.34,-90.3 366.81,-97.13"/>
</g>
<!-- Node3 -->
<g id="node3" class="node">
<title>Node3</title>
<g id="a_node3"><a xlink:href="remove__virtual__functions_8cpp.html" target="_top" xlink:title="Remove Virtual Function (Method) Calls.">
<polygon fill="none" stroke="black" points="200.5,-0.5 200.5,-52.5 369.5,-52.5 369.5,-0.5 200.5,-0.5"/>
<text text-anchor="start" x="208.5" y="-40.5" font-family="Helvetica,sans-Serif" font-size="10.00">/home/runner/work/diffblue</text>
<text text-anchor="start" x="208.5" y="-29.5" font-family="Helvetica,sans-Serif" font-size="10.00">&#45;cbmc/diffblue&#45;cbmc/src</text>
<text text-anchor="start" x="208.5" y="-18.5" font-family="Helvetica,sans-Serif" font-size="10.00">/goto&#45;programs/remove_virtual</text>
<text text-anchor="middle" x="285" y="-7.5" font-family="Helvetica,sans-Serif" font-size="10.00">_functions.cpp</text>
</a>
</g>
</g>
<!-- Node1&#45;&gt;Node3 -->
<g id="edge2" class="edge">
<title>Node1&#45;&gt;Node3</title>
<path fill="none" stroke="midnightblue" d="M401.81,-84.92C380.45,-74.41 356.62,-62.7 336.08,-52.61"/>
<polygon fill="midnightblue" stroke="midnightblue" points="400.29,-88.07 410.8,-89.34 403.37,-81.78 400.29,-88.07"/>
</g>
<!-- Node4 -->
<g id="node4" class="node">
<title>Node4</title>
<g id="a_node4"><a xlink:href="janalyzer__parse__options_8cpp.html" target="_top" xlink:title="JANALYZER Command Line Option Processing.">
<polygon fill="none" stroke="black" points="387.5,-0.5 387.5,-52.5 536.5,-52.5 536.5,-0.5 387.5,-0.5"/>
<text text-anchor="start" x="395.5" y="-40.5" font-family="Helvetica,sans-Serif" font-size="10.00">/home/runner/work/diffblue</text>
<text text-anchor="start" x="395.5" y="-29.5" font-family="Helvetica,sans-Serif" font-size="10.00">&#45;cbmc/diffblue&#45;cbmc/jbmc</text>
<text text-anchor="start" x="395.5" y="-18.5" font-family="Helvetica,sans-Serif" font-size="10.00">/src/janalyzer/janalyzer</text>
<text text-anchor="middle" x="462" y="-7.5" font-family="Helvetica,sans-Serif" font-size="10.00">_parse_options.cpp</text>
</a>
</g>
</g>
<!-- Node1&#45;&gt;Node4 -->
<g id="edge3" class="edge">
<title>Node1&#45;&gt;Node4</title>
<path fill="none" stroke="midnightblue" d="M462,-79.19C462,-70.28 462,-60.9 462,-52.61"/>
<polygon fill="midnightblue" stroke="midnightblue" points="458.5,-79.34 462,-89.34 465.5,-79.34 458.5,-79.34"/>
</g>
<!-- Node5 -->
<g id="node5" class="node">
<title>Node5</title>
<g id="a_node5"><a xlink:href="jbmc__parse__options_8cpp.html" target="_top" xlink:title="JBMC Command Line Option Processing.">
<polygon fill="none" stroke="black" points="555,-6 555,-47 737,-47 737,-6 555,-6"/>
<text text-anchor="start" x="563" y="-35" font-family="Helvetica,sans-Serif" font-size="10.00">/home/runner/work/diffblue</text>
<text text-anchor="start" x="563" y="-24" font-family="Helvetica,sans-Serif" font-size="10.00">&#45;cbmc/diffblue&#45;cbmc/jbmc</text>
<text text-anchor="middle" x="646" y="-13" font-family="Helvetica,sans-Serif" font-size="10.00">/src/jbmc/jbmc_parse_options.cpp</text>
</a>
</g>
</g>
<!-- Node1&#45;&gt;Node5 -->
<g id="edge4" class="edge">
<title>Node1&#45;&gt;Node5</title>
<path fill="none" stroke="midnightblue" d="M524.41,-84.99C550.85,-72.49 580.95,-58.26 604.58,-47.08"/>
<polygon fill="midnightblue" stroke="midnightblue" points="522.76,-81.9 515.22,-89.34 525.76,-88.23 522.76,-81.9"/>
</g>
<!-- Node6 -->
<g id="node6" class="node">
<title>Node6</title>
<g id="a_node6"><a xlink:href="jdiff__parse__options_8cpp.html" target="_top" xlink:title="JDIFF Command Line Option Processing.">
<polygon fill="none" stroke="black" points="755.5,-6 755.5,-47 926.5,-47 926.5,-6 755.5,-6"/>
<text text-anchor="start" x="763.5" y="-35" font-family="Helvetica,sans-Serif" font-size="10.00">/home/runner/work/diffblue</text>
<text text-anchor="start" x="763.5" y="-24" font-family="Helvetica,sans-Serif" font-size="10.00">&#45;cbmc/diffblue&#45;cbmc/jbmc</text>
<text text-anchor="middle" x="841" y="-13" font-family="Helvetica,sans-Serif" font-size="10.00">/src/jdiff/jdiff_parse_options.cpp</text>
</a>
</g>
</g>
<!-- Node1&#45;&gt;Node6 -->
<g id="edge5" class="edge">
<title>Node1&#45;&gt;Node6</title>
<path fill="none" stroke="midnightblue" d="M556.55,-95.24C611.91,-83.65 683.1,-68.24 746,-53 753.72,-51.13 761.77,-49.1 769.77,-47.02"/>
<polygon fill="midnightblue" stroke="midnightblue" points="555.83,-91.81 546.75,-97.28 557.25,-98.66 555.83,-91.81"/>
</g>
</g>
</svg>
