<?xml version="1.0" encoding="UTF-8" standalone="no"?>
<!DOCTYPE svg PUBLIC "-//W3C//DTD SVG 1.1//EN"
 "http://www.w3.org/Graphics/SVG/1.1/DTD/svg11.dtd">
<!-- Generated by graphviz version 2.43.0 (0)
 -->
<!-- Title: /home/runner/work/diffblue&#45;cbmc/diffblue&#45;cbmc/src/goto&#45;programs/remove_skip.h Pages: 1 -->
<svg width="6825pt" height="150pt"
 viewBox="0.00 0.00 6825.00 150.00" xmlns="http://www.w3.org/2000/svg" xmlns:xlink="http://www.w3.org/1999/xlink">
<g id="graph0" class="graph" transform="scale(1 1) rotate(0) translate(4 146)">
<title>/home/runner/work/diffblue&#45;cbmc/diffblue&#45;cbmc/src/goto&#45;programs/remove_skip.h</title>
<!-- Node1 -->
<g id="node1" class="node">
<title>Node1</title>
<g id="a_node1"><a xlink:title="Program Transformation.">
<polygon fill="#bfbfbf" stroke="black" points="3316,-100.5 3316,-141.5 3483,-141.5 3483,-100.5 3316,-100.5"/>
<text text-anchor="start" x="3324" y="-129.5" font-family="Helvetica,sans-Serif" font-size="10.00">/home/runner/work/diffblue</text>
<text text-anchor="start" x="3324" y="-118.5" font-family="Helvetica,sans-Serif" font-size="10.00">&#45;cbmc/diffblue&#45;cbmc/src</text>
<text text-anchor="middle" x="3399.5" y="-107.5" font-family="Helvetica,sans-Serif" font-size="10.00">/goto&#45;programs/remove_skip.h</text>
</a>
</g>
</g>
<!-- Node2 -->
<g id="node2" class="node">
<title>Node2</title>
<g id="a_node2"><a xlink:href="goto__check__c_8cpp.html" target="_top" xlink:title="Checks for Errors in C/C++ Programs.">
<polygon fill="none" stroke="black" points="0,-6 0,-58 155,-58 155,-6 0,-6"/>
<text text-anchor="start" x="8" y="-46" font-family="Helvetica,sans-Serif" font-size="10.00">/home/runner/work/diffblue</text>
<text text-anchor="start" x="8" y="-35" font-family="Helvetica,sans-Serif" font-size="10.00">&#45;cbmc/diffblue&#45;cbmc/src</text>
<text text-anchor="start" x="8" y="-24" font-family="Helvetica,sans-Serif" font-size="10.00">/ansi&#45;c/goto&#45;conversion/goto</text>
<text text-anchor="middle" x="77.5" y="-13" font-family="Helvetica,sans-Serif" font-size="10.00">_check_c.cpp</text>
</a>
</g>
</g>
<!-- Node1&#45;&gt;Node2 -->
<g id="edge1" class="edge">
<title>Node1&#45;&gt;Node2</title>
<path fill="none" stroke="midnightblue" d="M3305.95,-120.21C2807.96,-121.07 479.1,-121.96 163.5,-64 155.7,-62.57 147.66,-60.51 139.78,-58.13"/>
<polygon fill="midnightblue" stroke="midnightblue" points="3305.98,-123.71 3315.98,-120.19 3305.97,-116.71 3305.98,-123.71"/>
</g>
<!-- Node3 -->
<g id="node3" class="node">
<title>Node3</title>
<g id="a_node3"><a xlink:href="goto__convert_8cpp.html" target="_top" xlink:title="Program Transformation.">
<polygon fill="none" stroke="black" points="173,-6 173,-58 328,-58 328,-6 173,-6"/>
<text text-anchor="start" x="181" y="-46" font-family="Helvetica,sans-Serif" font-size="10.00">/home/runner/work/diffblue</text>
<text text-anchor="start" x="181" y="-35" font-family="Helvetica,sans-Serif" font-size="10.00">&#45;cbmc/diffblue&#45;cbmc/src</text>
<text text-anchor="start" x="181" y="-24" font-family="Helvetica,sans-Serif" font-size="10.00">/ansi&#45;c/goto&#45;conversion/goto</text>
<text text-anchor="middle" x="250.5" y="-13" font-family="Helvetica,sans-Serif" font-size="10.00">_convert.cpp</text>
</a>
</g>
</g>
<!-- Node1&#45;&gt;Node3 -->
<g id="edge2" class="edge">
<title>Node1&#45;&gt;Node3</title>
<path fill="none" stroke="midnightblue" d="M3305.93,-120.11C2824.15,-120.43 634.16,-118.82 336.5,-64 328.7,-62.56 320.66,-60.5 312.78,-58.12"/>
<polygon fill="midnightblue" stroke="midnightblue" points="3305.98,-123.61 3315.98,-120.1 3305.98,-116.61 3305.98,-123.61"/>
</g>
<!-- Node4 -->
<g id="node4" class="node">
<title>Node4</title>
<g id="a_node4"><a xlink:href="string__instrumentation_8cpp.html" target="_top" xlink:title="String Abstraction.">
<polygon fill="none" stroke="black" points="346,-6 346,-58 507,-58 507,-6 346,-6"/>
<text text-anchor="start" x="354" y="-46" font-family="Helvetica,sans-Serif" font-size="10.00">/home/runner/work/diffblue</text>
<text text-anchor="start" x="354" y="-35" font-family="Helvetica,sans-Serif" font-size="10.00">&#45;cbmc/diffblue&#45;cbmc/src</text>
<text text-anchor="start" x="354" y="-24" font-family="Helvetica,sans-Serif" font-size="10.00">/ansi&#45;c/goto&#45;conversion/string</text>
<text text-anchor="middle" x="426.5" y="-13" font-family="Helvetica,sans-Serif" font-size="10.00">_instrumentation.cpp</text>
</a>
</g>
</g>
<!-- Node1&#45;&gt;Node4 -->
<g id="edge3" class="edge">
<title>Node1&#45;&gt;Node4</title>
<path fill="none" stroke="midnightblue" d="M3305.84,-119.91C2841.32,-119.26 795.86,-113.56 516.5,-64 508.36,-62.56 499.97,-60.49 491.74,-58.11"/>
<polygon fill="midnightblue" stroke="midnightblue" points="3305.86,-123.41 3315.86,-119.93 3305.87,-116.41 3305.86,-123.41"/>
</g>
<!-- Node5 -->
<g id="node5" class="node">
<title>Node5</title>
<g id="a_node5"><a xlink:href="remove__asm_8cpp.html" target="_top" xlink:title="Remove &#39;asm&#39; statements by compiling them into suitable standard goto program instructions.">
<polygon fill="none" stroke="black" points="525.5,-11.5 525.5,-52.5 683.5,-52.5 683.5,-11.5 525.5,-11.5"/>
<text text-anchor="start" x="533.5" y="-40.5" font-family="Helvetica,sans-Serif" font-size="10.00">/home/runner/work/diffblue</text>
<text text-anchor="start" x="533.5" y="-29.5" font-family="Helvetica,sans-Serif" font-size="10.00">&#45;cbmc/diffblue&#45;cbmc/src</text>
<text text-anchor="middle" x="604.5" y="-18.5" font-family="Helvetica,sans-Serif" font-size="10.00">/assembler/remove_asm.cpp</text>
</a>
</g>
</g>
<!-- Node1&#45;&gt;Node5 -->
<g id="edge4" class="edge">
<title>Node1&#45;&gt;Node5</title>
<path fill="none" stroke="midnightblue" d="M3305.41,-119.84C2857.51,-118.86 952.43,-111.88 691.5,-64 677.94,-61.51 663.67,-57.2 650.7,-52.56"/>
<polygon fill="midnightblue" stroke="midnightblue" points="3305.71,-123.34 3315.71,-119.87 3305.72,-116.34 3305.71,-123.34"/>
</g>
<!-- Node6 -->
<g id="node6" class="node">
<title>Node6</title>
<g id="a_node6"><a xlink:href="cbmc__parse__options_8cpp.html" target="_top" xlink:title="CBMC Command Line Option Processing.">
<polygon fill="none" stroke="black" points="701,-11.5 701,-52.5 870,-52.5 870,-11.5 701,-11.5"/>
<text text-anchor="start" x="709" y="-40.5" font-family="Helvetica,sans-Serif" font-size="10.00">/home/runner/work/diffblue</text>
<text text-anchor="start" x="709" y="-29.5" font-family="Helvetica,sans-Serif" font-size="10.00">&#45;cbmc/diffblue&#45;cbmc/src</text>
<text text-anchor="middle" x="785.5" y="-18.5" font-family="Helvetica,sans-Serif" font-size="10.00">/cbmc/cbmc_parse_options.cpp</text>
</a>
</g>
</g>
<!-- Node1&#45;&gt;Node6 -->
<g id="edge5" class="edge">
<title>Node1&#45;&gt;Node6</title>
<path fill="none" stroke="midnightblue" d="M3305.71,-119.56C2877.87,-117.32 1121.61,-105.66 879.5,-64 864.94,-61.49 849.55,-57.17 835.54,-52.54"/>
<polygon fill="midnightblue" stroke="midnightblue" points="3305.86,-123.06 3315.87,-119.61 3305.89,-116.06 3305.86,-123.06"/>
</g>
<!-- Node7 -->
<g id="node7" class="node">
<title>Node7</title>
<g id="a_node7"><a xlink:href="static__simplifier_8cpp.html" target="_top" xlink:title=" ">
<polygon fill="none" stroke="black" points="888.5,-11.5 888.5,-52.5 1076.5,-52.5 1076.5,-11.5 888.5,-11.5"/>
<text text-anchor="start" x="896.5" y="-40.5" font-family="Helvetica,sans-Serif" font-size="10.00">/home/runner/work/diffblue</text>
<text text-anchor="start" x="896.5" y="-29.5" font-family="Helvetica,sans-Serif" font-size="10.00">&#45;cbmc/diffblue&#45;cbmc/src</text>
<text text-anchor="middle" x="982.5" y="-18.5" font-family="Helvetica,sans-Serif" font-size="10.00">/goto&#45;analyzer/static_simplifier.cpp</text>
</a>
</g>
</g>
<!-- Node1&#45;&gt;Node7 -->
<g id="edge6" class="edge">
<title>Node1&#45;&gt;Node7</title>
<path fill="none" stroke="midnightblue" d="M3305.51,-119.21C2899.51,-115.61 1306.81,-99.32 1085.5,-64 1069.64,-61.47 1052.81,-57.14 1037.46,-52.51"/>
<polygon fill="midnightblue" stroke="midnightblue" points="3305.71,-122.71 3315.74,-119.3 3305.77,-115.71 3305.71,-122.71"/>
</g>
<!-- Node8 -->
<g id="node8" class="node">
<title>Node8</title>
<g id="a_node8"><a xlink:href="goto__diff__parse__options_8cpp.html" target="_top" xlink:title="GOTO&#45;DIFF Command Line Option Processing.">
<polygon fill="none" stroke="black" points="1095,-6 1095,-58 1244,-58 1244,-6 1095,-6"/>
<text text-anchor="start" x="1103" y="-46" font-family="Helvetica,sans-Serif" font-size="10.00">/home/runner/work/diffblue</text>
<text text-anchor="start" x="1103" y="-35" font-family="Helvetica,sans-Serif" font-size="10.00">&#45;cbmc/diffblue&#45;cbmc/src</text>
<text text-anchor="start" x="1103" y="-24" font-family="Helvetica,sans-Serif" font-size="10.00">/goto&#45;diff/goto_diff_parse</text>
<text text-anchor="middle" x="1169.5" y="-13" font-family="Helvetica,sans-Serif" font-size="10.00">_options.cpp</text>
</a>
</g>
</g>
<!-- Node1&#45;&gt;Node8 -->
<g id="edge7" class="edge">
<title>Node1&#45;&gt;Node8</title>
<path fill="none" stroke="midnightblue" d="M3305.94,-119.36C2919.24,-116.46 1456.49,-103 1253.5,-64 1245.87,-62.53 1238.01,-60.46 1230.31,-58.07"/>
<polygon fill="midnightblue" stroke="midnightblue" points="3305.94,-122.86 3315.97,-119.43 3305.99,-115.86 3305.94,-122.86"/>
</g>
<!-- Node9 -->
<g id="node9" class="node">
<title>Node9</title>
<g id="a_node9"><a xlink:href="disjunctive__polynomial__acceleration_8cpp.html" target="_top" xlink:title="Loop Acceleration.">
<polygon fill="none" stroke="black" points="1262.5,-6 1262.5,-58 1480.5,-58 1480.5,-6 1262.5,-6"/>
<text text-anchor="start" x="1270.5" y="-46" font-family="Helvetica,sans-Serif" font-size="10.00">/home/runner/work/diffblue</text>
<text text-anchor="start" x="1270.5" y="-35" font-family="Helvetica,sans-Serif" font-size="10.00">&#45;cbmc/diffblue&#45;cbmc/src</text>
<text text-anchor="start" x="1270.5" y="-24" font-family="Helvetica,sans-Serif" font-size="10.00">/goto&#45;instrument/accelerate</text>
<text text-anchor="middle" x="1371.5" y="-13" font-family="Helvetica,sans-Serif" font-size="10.00">/disjunctive_polynomial_acceleration.cpp</text>
</a>
</g>
</g>
<!-- Node1&#45;&gt;Node9 -->
<g id="edge8" class="edge">
<title>Node1&#45;&gt;Node9</title>
<path fill="none" stroke="midnightblue" d="M3305.69,-120.07C2972.37,-119.89 1846.07,-115.38 1489.5,-64 1479.12,-62.5 1468.35,-60.43 1457.71,-58.05"/>
<polygon fill="midnightblue" stroke="midnightblue" points="3305.79,-123.57 3315.79,-120.08 3305.79,-116.57 3305.79,-123.57"/>
</g>
<!-- Node10 -->
<g id="node10" class="node">
<title>Node10</title>
<g id="a_node10"><a xlink:href="sat__path__enumerator_8cpp.html" target="_top" xlink:title="Loop Acceleration.">
<polygon fill="none" stroke="black" points="1498.5,-6 1498.5,-58 1650.5,-58 1650.5,-6 1498.5,-6"/>
<text text-anchor="start" x="1506.5" y="-46" font-family="Helvetica,sans-Serif" font-size="10.00">/home/runner/work/diffblue</text>
<text text-anchor="start" x="1506.5" y="-35" font-family="Helvetica,sans-Serif" font-size="10.00">&#45;cbmc/diffblue&#45;cbmc/src</text>
<text text-anchor="start" x="1506.5" y="-24" font-family="Helvetica,sans-Serif" font-size="10.00">/goto&#45;instrument/accelerate</text>
<text text-anchor="middle" x="1574.5" y="-13" font-family="Helvetica,sans-Serif" font-size="10.00">/sat_path_enumerator.cpp</text>
</a>
</g>
</g>
<!-- Node1&#45;&gt;Node10 -->
<g id="edge9" class="edge">
<title>Node1&#45;&gt;Node10</title>
<path fill="none" stroke="midnightblue" d="M3305.9,-118.72C2967.81,-113.87 1821.12,-95.24 1659.5,-64 1651.79,-62.51 1643.85,-60.42 1636.06,-58.02"/>
<polygon fill="midnightblue" stroke="midnightblue" points="3305.86,-122.22 3315.91,-118.86 3305.96,-115.22 3305.86,-122.22"/>
</g>
<!-- Node11 -->
<g id="node11" class="node">
<title>Node11</title>
<g id="a_node11"><a xlink:href="scratch__program_8cpp.html" target="_top" xlink:title="Loop Acceleration.">
<polygon fill="none" stroke="black" points="1668.5,-6 1668.5,-58 1820.5,-58 1820.5,-6 1668.5,-6"/>
<text text-anchor="start" x="1676.5" y="-46" font-family="Helvetica,sans-Serif" font-size="10.00">/home/runner/work/diffblue</text>
<text text-anchor="start" x="1676.5" y="-35" font-family="Helvetica,sans-Serif" font-size="10.00">&#45;cbmc/diffblue&#45;cbmc/src</text>
<text text-anchor="start" x="1676.5" y="-24" font-family="Helvetica,sans-Serif" font-size="10.00">/goto&#45;instrument/accelerate</text>
<text text-anchor="middle" x="1744.5" y="-13" font-family="Helvetica,sans-Serif" font-size="10.00">/scratch_program.cpp</text>
</a>
</g>
</g>
<!-- Node1&#45;&gt;Node11 -->
<g id="edge10" class="edge">
<title>Node1&#45;&gt;Node11</title>
<path fill="none" stroke="midnightblue" d="M3305.52,-120.5C3011.93,-121.45 2114.56,-119.62 1829.5,-64 1821.95,-62.53 1814.17,-60.48 1806.53,-58.14"/>
<polygon fill="midnightblue" stroke="midnightblue" points="3305.72,-124 3315.71,-120.46 3305.7,-117 3305.72,-124"/>
</g>
<!-- Node12 -->
<g id="node12" class="node">
<title>Node12</title>
<g id="a_node12"><a xlink:href="contracts_8cpp.html" target="_top" xlink:title="Verify and use annotated loop and function contracts.">
<polygon fill="none" stroke="black" points="1839,-6 1839,-58 1988,-58 1988,-6 1839,-6"/>
<text text-anchor="start" x="1847" y="-46" font-family="Helvetica,sans-Serif" font-size="10.00">/home/runner/work/diffblue</text>
<text text-anchor="start" x="1847" y="-35" font-family="Helvetica,sans-Serif" font-size="10.00">&#45;cbmc/diffblue&#45;cbmc/src</text>
<text text-anchor="start" x="1847" y="-24" font-family="Helvetica,sans-Serif" font-size="10.00">/goto&#45;instrument/contracts</text>
<text text-anchor="middle" x="1913.5" y="-13" font-family="Helvetica,sans-Serif" font-size="10.00">/contracts.cpp</text>
</a>
</g>
</g>
<!-- Node1&#45;&gt;Node12 -->
<g id="edge11" class="edge">
<title>Node1&#45;&gt;Node12</title>
<path fill="none" stroke="midnightblue" d="M3305.34,-120.12C3032.98,-119.85 2247.78,-114.59 1996.5,-64 1989.11,-62.51 1981.51,-60.46 1974.05,-58.11"/>
<polygon fill="midnightblue" stroke="midnightblue" points="3305.59,-123.62 3315.59,-120.13 3305.59,-116.62 3305.59,-123.62"/>
</g>
<!-- Node13 -->
<g id="node13" class="node">
<title>Node13</title>
<g id="a_node13"><a xlink:href="dfcc_8cpp.html" target="_top" xlink:title=" ">
<polygon fill="none" stroke="black" points="2006,-6 2006,-58 2155,-58 2155,-6 2006,-6"/>
<text text-anchor="start" x="2014" y="-46" font-family="Helvetica,sans-Serif" font-size="10.00">/home/runner/work/diffblue</text>
<text text-anchor="start" x="2014" y="-35" font-family="Helvetica,sans-Serif" font-size="10.00">&#45;cbmc/diffblue&#45;cbmc/src</text>
<text text-anchor="start" x="2014" y="-24" font-family="Helvetica,sans-Serif" font-size="10.00">/goto&#45;instrument/contracts</text>
<text text-anchor="middle" x="2080.5" y="-13" font-family="Helvetica,sans-Serif" font-size="10.00">/dynamic&#45;frames/dfcc.cpp</text>
</a>
</g>
</g>
<!-- Node1&#45;&gt;Node13 -->
<g id="edge12" class="edge">
<title>Node1&#45;&gt;Node13</title>
<path fill="none" stroke="midnightblue" d="M3305.48,-119.47C3056.16,-117.47 2382.37,-108.04 2164.5,-64 2157.03,-62.49 2149.35,-60.42 2141.8,-58.07"/>
<polygon fill="midnightblue" stroke="midnightblue" points="3305.57,-122.97 3315.6,-119.55 3305.63,-115.97 3305.57,-122.97"/>
</g>
<!-- Node14 -->
<g id="node14" class="node">
<title>Node14</title>
<g id="a_node14"><a xlink:href="dfcc__instrument_8cpp.html" target="_top" xlink:title=" ">
<polygon fill="none" stroke="black" points="2173.5,-6 2173.5,-58 2375.5,-58 2375.5,-6 2173.5,-6"/>
<text text-anchor="start" x="2181.5" y="-46" font-family="Helvetica,sans-Serif" font-size="10.00">/home/runner/work/diffblue</text>
<text text-anchor="start" x="2181.5" y="-35" font-family="Helvetica,sans-Serif" font-size="10.00">&#45;cbmc/diffblue&#45;cbmc/src</text>
<text text-anchor="start" x="2181.5" y="-24" font-family="Helvetica,sans-Serif" font-size="10.00">/goto&#45;instrument/contracts</text>
<text text-anchor="middle" x="2274.5" y="-13" font-family="Helvetica,sans-Serif" font-size="10.00">/dynamic&#45;frames/dfcc_instrument.cpp</text>
</a>
</g>
</g>
<!-- Node1&#45;&gt;Node14 -->
<g id="edge13" class="edge">
<title>Node1&#45;&gt;Node14</title>
<path fill="none" stroke="midnightblue" d="M3305.88,-117.46C3089.57,-111.18 2560.15,-93.23 2384.5,-64 2375.11,-62.44 2365.37,-60.37 2355.74,-58.04"/>
<polygon fill="midnightblue" stroke="midnightblue" points="3305.85,-120.96 3315.95,-117.75 3306.05,-113.97 3305.85,-120.96"/>
</g>
<!-- Node15 -->
<g id="node15" class="node">
<title>Node15</title>
<g id="a_node15"><a xlink:href="dfcc__swap__and__wrap_8cpp.html" target="_top" xlink:title=" ">
<polygon fill="none" stroke="black" points="2394,-0.5 2394,-63.5 2571,-63.5 2571,-0.5 2394,-0.5"/>
<text text-anchor="start" x="2402" y="-51.5" font-family="Helvetica,sans-Serif" font-size="10.00">/home/runner/work/diffblue</text>
<text text-anchor="start" x="2402" y="-40.5" font-family="Helvetica,sans-Serif" font-size="10.00">&#45;cbmc/diffblue&#45;cbmc/src</text>
<text text-anchor="start" x="2402" y="-29.5" font-family="Helvetica,sans-Serif" font-size="10.00">/goto&#45;instrument/contracts</text>
<text text-anchor="start" x="2402" y="-18.5" font-family="Helvetica,sans-Serif" font-size="10.00">/dynamic&#45;frames/dfcc_swap_and</text>
<text text-anchor="middle" x="2482.5" y="-7.5" font-family="Helvetica,sans-Serif" font-size="10.00">_wrap.cpp</text>
</a>
</g>
</g>
<!-- Node1&#45;&gt;Node15 -->
<g id="edge14" class="edge">
<title>Node1&#45;&gt;Node15</title>
<path fill="none" stroke="midnightblue" d="M3305.4,-120.9C3151.97,-120.73 2838.96,-113.57 2579.5,-64 2576.72,-63.47 2573.91,-62.88 2571.08,-62.25"/>
<polygon fill="midnightblue" stroke="midnightblue" points="3305.72,-124.4 3315.72,-120.9 3305.72,-117.4 3305.72,-124.4"/>
</g>
<!-- Node16 -->
<g id="node16" class="node">
<title>Node16</title>
<g id="a_node16"><a xlink:href="cover_8cpp.html" target="_top" xlink:title="Coverage Instrumentation.">
<polygon fill="none" stroke="black" points="2589,-11.5 2589,-52.5 2738,-52.5 2738,-11.5 2589,-11.5"/>
<text text-anchor="start" x="2597" y="-40.5" font-family="Helvetica,sans-Serif" font-size="10.00">/home/runner/work/diffblue</text>
<text text-anchor="start" x="2597" y="-29.5" font-family="Helvetica,sans-Serif" font-size="10.00">&#45;cbmc/diffblue&#45;cbmc/src</text>
<text text-anchor="middle" x="2663.5" y="-18.5" font-family="Helvetica,sans-Serif" font-size="10.00">/goto&#45;instrument/cover.cpp</text>
</a>
</g>
</g>
<!-- Node1&#45;&gt;Node16 -->
<g id="edge15" class="edge">
<title>Node1&#45;&gt;Node16</title>
<path fill="none" stroke="midnightblue" d="M3305.78,-119.91C3177.86,-117.99 2942.12,-108.05 2746.5,-64 2734.19,-61.23 2721.26,-57.05 2709.35,-52.66"/>
<polygon fill="midnightblue" stroke="midnightblue" points="3305.89,-123.41 3315.93,-120.05 3305.98,-116.41 3305.89,-123.41"/>
</g>
<!-- Node17 -->
<g id="node17" class="node">
<title>Node17</title>
<g id="a_node17"><a xlink:href="full__slicer_8cpp.html" target="_top" xlink:title="Slicing.">
<polygon fill="none" stroke="black" points="2755.5,-11.5 2755.5,-52.5 2923.5,-52.5 2923.5,-11.5 2755.5,-11.5"/>
<text text-anchor="start" x="2763.5" y="-40.5" font-family="Helvetica,sans-Serif" font-size="10.00">/home/runner/work/diffblue</text>
<text text-anchor="start" x="2763.5" y="-29.5" font-family="Helvetica,sans-Serif" font-size="10.00">&#45;cbmc/diffblue&#45;cbmc/src</text>
<text text-anchor="middle" x="2839.5" y="-18.5" font-family="Helvetica,sans-Serif" font-size="10.00">/goto&#45;instrument/full_slicer.cpp</text>
</a>
</g>
</g>
<!-- Node1&#45;&gt;Node17 -->
<g id="edge16" class="edge">
<title>Node1&#45;&gt;Node17</title>
<path fill="none" stroke="midnightblue" d="M3305.59,-114.47C3210.41,-107.53 3059.34,-92.86 2931.5,-64 2918.35,-61.03 2904.43,-56.89 2891.51,-52.6"/>
<polygon fill="midnightblue" stroke="midnightblue" points="3305.55,-117.97 3315.77,-115.19 3306.05,-110.99 3305.55,-117.97"/>
</g>
<!-- Node18 -->
<g id="node18" class="node">
<title>Node18</title>
<g id="a_node18"><a xlink:href="generate__function__bodies_8cpp.html" target="_top" xlink:title=" ">
<polygon fill="none" stroke="black" points="2941,-6 2941,-58 3090,-58 3090,-6 2941,-6"/>
<text text-anchor="start" x="2949" y="-46" font-family="Helvetica,sans-Serif" font-size="10.00">/home/runner/work/diffblue</text>
<text text-anchor="start" x="2949" y="-35" font-family="Helvetica,sans-Serif" font-size="10.00">&#45;cbmc/diffblue&#45;cbmc/src</text>
<text text-anchor="start" x="2949" y="-24" font-family="Helvetica,sans-Serif" font-size="10.00">/goto&#45;instrument/generate</text>
<text text-anchor="middle" x="3015.5" y="-13" font-family="Helvetica,sans-Serif" font-size="10.00">_function_bodies.cpp</text>
</a>
</g>
</g>
<!-- Node1&#45;&gt;Node18 -->
<g id="edge17" class="edge">
<title>Node1&#45;&gt;Node18</title>
<path fill="none" stroke="midnightblue" d="M3305.72,-106.67C3246.09,-97.18 3167.58,-82.77 3099.5,-64 3093.21,-62.26 3086.72,-60.26 3080.26,-58.13"/>
<polygon fill="midnightblue" stroke="midnightblue" points="3305.45,-110.17 3315.87,-108.27 3306.54,-103.26 3305.45,-110.17"/>
</g>
<!-- Node19 -->
<g id="node19" class="node">
<title>Node19</title>
<g id="a_node19"><a xlink:href="goto__instrument__parse__options_8cpp.html" target="_top" xlink:title="Main Module.">
<polygon fill="none" stroke="black" points="3108.5,-6 3108.5,-58 3290.5,-58 3290.5,-6 3108.5,-6"/>
<text text-anchor="start" x="3116.5" y="-46" font-family="Helvetica,sans-Serif" font-size="10.00">/home/runner/work/diffblue</text>
<text text-anchor="start" x="3116.5" y="-35" font-family="Helvetica,sans-Serif" font-size="10.00">&#45;cbmc/diffblue&#45;cbmc/src</text>
<text text-anchor="start" x="3116.5" y="-24" font-family="Helvetica,sans-Serif" font-size="10.00">/goto&#45;instrument/goto_instrument</text>
<text text-anchor="middle" x="3199.5" y="-13" font-family="Helvetica,sans-Serif" font-size="10.00">_parse_options.cpp</text>
</a>
</g>
</g>
<!-- Node1&#45;&gt;Node19 -->
<g id="edge18" class="edge">
<title>Node1&#45;&gt;Node19</title>
<path fill="none" stroke="midnightblue" d="M3345.23,-96.39C3317.95,-84.53 3284.9,-70.15 3257.17,-58.08"/>
<polygon fill="midnightblue" stroke="midnightblue" points="3344.05,-99.7 3354.62,-100.48 3346.84,-93.28 3344.05,-99.7"/>
</g>
<!-- Node20 -->
<g id="node20" class="node">
<title>Node20</title>
<g id="a_node20"><a xlink:href="havoc__loops_8cpp.html" target="_top" xlink:title="Havoc Loops.">
<polygon fill="none" stroke="black" points="3308.5,-11.5 3308.5,-52.5 3490.5,-52.5 3490.5,-11.5 3308.5,-11.5"/>
<text text-anchor="start" x="3316.5" y="-40.5" font-family="Helvetica,sans-Serif" font-size="10.00">/home/runner/work/diffblue</text>
<text text-anchor="start" x="3316.5" y="-29.5" font-family="Helvetica,sans-Serif" font-size="10.00">&#45;cbmc/diffblue&#45;cbmc/src</text>
<text text-anchor="middle" x="3399.5" y="-18.5" font-family="Helvetica,sans-Serif" font-size="10.00">/goto&#45;instrument/havoc_loops.cpp</text>
</a>
</g>
</g>
<!-- Node1&#45;&gt;Node20 -->
<g id="edge19" class="edge">
<title>Node1&#45;&gt;Node20</title>
<path fill="none" stroke="midnightblue" d="M3399.5,-89.94C3399.5,-77.6 3399.5,-63.66 3399.5,-52.66"/>
<polygon fill="midnightblue" stroke="midnightblue" points="3396,-90.26 3399.5,-100.26 3403,-90.26 3396,-90.26"/>
</g>
<!-- Node21 -->
<g id="node21" class="node">
<title>Node21</title>
<g id="a_node21"><a xlink:href="k__induction_8cpp.html" target="_top" xlink:title="k&#45;induction">
<polygon fill="none" stroke="black" points="3508.5,-11.5 3508.5,-52.5 3686.5,-52.5 3686.5,-11.5 3508.5,-11.5"/>
<text text-anchor="start" x="3516.5" y="-40.5" font-family="Helvetica,sans-Serif" font-size="10.00">/home/runner/work/diffblue</text>
<text text-anchor="start" x="3516.5" y="-29.5" font-family="Helvetica,sans-Serif" font-size="10.00">&#45;cbmc/diffblue&#45;cbmc/src</text>
<text text-anchor="middle" x="3597.5" y="-18.5" font-family="Helvetica,sans-Serif" font-size="10.00">/goto&#45;instrument/k_induction.cpp</text>
</a>
</g>
</g>
<!-- Node1&#45;&gt;Node21 -->
<g id="edge20" class="edge">
<title>Node1&#45;&gt;Node21</title>
<path fill="none" stroke="midnightblue" d="M3453.36,-96.34C3484.56,-82.62 3523.38,-65.57 3552.87,-52.61"/>
<polygon fill="midnightblue" stroke="midnightblue" points="3451.68,-93.25 3443.94,-100.48 3454.5,-99.66 3451.68,-93.25"/>
</g>
<!-- Node22 -->
<g id="node22" class="node">
<title>Node22</title>
<g id="a_node22"><a xlink:href="model__argc__argv_8cpp.html" target="_top" xlink:title="Initialize command line arguments.">
<polygon fill="none" stroke="black" points="3704.5,-6 3704.5,-58 3862.5,-58 3862.5,-6 3704.5,-6"/>
<text text-anchor="start" x="3712.5" y="-46" font-family="Helvetica,sans-Serif" font-size="10.00">/home/runner/work/diffblue</text>
<text text-anchor="start" x="3712.5" y="-35" font-family="Helvetica,sans-Serif" font-size="10.00">&#45;cbmc/diffblue&#45;cbmc/src</text>
<text text-anchor="start" x="3712.5" y="-24" font-family="Helvetica,sans-Serif" font-size="10.00">/goto&#45;instrument/model_argc</text>
<text text-anchor="middle" x="3783.5" y="-13" font-family="Helvetica,sans-Serif" font-size="10.00">_argv.cpp</text>
</a>
</g>
</g>
<!-- Node1&#45;&gt;Node22 -->
<g id="edge21" class="edge">
<title>Node1&#45;&gt;Node22</title>
<path fill="none" stroke="midnightblue" d="M3493.18,-106.01C3551.82,-96.34 3628.66,-81.98 3695.5,-64 3702.07,-62.23 3708.85,-60.21 3715.6,-58.06"/>
<polygon fill="midnightblue" stroke="midnightblue" points="3492.5,-102.58 3483.2,-107.64 3493.63,-109.49 3492.5,-102.58"/>
</g>
<!-- Node23 -->
<g id="node23" class="node">
<title>Node23</title>
<g id="a_node23"><a xlink:href="race__check_8cpp.html" target="_top" xlink:title="Race Detection for Threaded Goto Programs.">
<polygon fill="none" stroke="black" points="3880.5,-11.5 3880.5,-52.5 4056.5,-52.5 4056.5,-11.5 3880.5,-11.5"/>
<text text-anchor="start" x="3888.5" y="-40.5" font-family="Helvetica,sans-Serif" font-size="10.00">/home/runner/work/diffblue</text>
<text text-anchor="start" x="3888.5" y="-29.5" font-family="Helvetica,sans-Serif" font-size="10.00">&#45;cbmc/diffblue&#45;cbmc/src</text>
<text text-anchor="middle" x="3968.5" y="-18.5" font-family="Helvetica,sans-Serif" font-size="10.00">/goto&#45;instrument/race_check.cpp</text>
</a>
</g>
</g>
<!-- Node1&#45;&gt;Node23 -->
<g id="edge22" class="edge">
<title>Node1&#45;&gt;Node23</title>
<path fill="none" stroke="midnightblue" d="M3493.25,-114.18C3589.13,-107 3741.95,-92.12 3871.5,-64 3885.32,-61 3899.98,-56.85 3913.6,-52.56"/>
<polygon fill="midnightblue" stroke="midnightblue" points="3492.72,-110.71 3483,-114.94 3493.23,-117.69 3492.72,-110.71"/>
</g>
<!-- Node24 -->
<g id="node24" class="node">
<title>Node24</title>
<g id="a_node24"><a xlink:href="reachability__slicer_8cpp.html" target="_top" xlink:title="Reachability Slicer Consider the control flow graph of the goto program and a criterion,...">
<polygon fill="none" stroke="black" points="4074,-6 4074,-58 4233,-58 4233,-6 4074,-6"/>
<text text-anchor="start" x="4082" y="-46" font-family="Helvetica,sans-Serif" font-size="10.00">/home/runner/work/diffblue</text>
<text text-anchor="start" x="4082" y="-35" font-family="Helvetica,sans-Serif" font-size="10.00">&#45;cbmc/diffblue&#45;cbmc/src</text>
<text text-anchor="start" x="4082" y="-24" font-family="Helvetica,sans-Serif" font-size="10.00">/goto&#45;instrument/reachability</text>
<text text-anchor="middle" x="4153.5" y="-13" font-family="Helvetica,sans-Serif" font-size="10.00">_slicer.cpp</text>
</a>
</g>
</g>
<!-- Node1&#45;&gt;Node24 -->
<g id="edge23" class="edge">
<title>Node1&#45;&gt;Node24</title>
<path fill="none" stroke="midnightblue" d="M3493.35,-119.6C3623.3,-117.35 3864.74,-107.06 4065.5,-64 4072.94,-62.4 4080.62,-60.35 4088.19,-58.06"/>
<polygon fill="midnightblue" stroke="midnightblue" points="3492.98,-116.1 3483.04,-119.76 3493.09,-123.1 3492.98,-116.1"/>
</g>
<!-- Node25 -->
<g id="node25" class="node">
<title>Node25</title>
<g id="a_node25"><a xlink:href="weak__memory_8cpp.html" target="_top" xlink:title="Weak Memory Instrumentation for Threaded Goto Programs.">
<polygon fill="none" stroke="black" points="4250.5,-6 4250.5,-58 4408.5,-58 4408.5,-6 4250.5,-6"/>
<text text-anchor="start" x="4258.5" y="-46" font-family="Helvetica,sans-Serif" font-size="10.00">/home/runner/work/diffblue</text>
<text text-anchor="start" x="4258.5" y="-35" font-family="Helvetica,sans-Serif" font-size="10.00">&#45;cbmc/diffblue&#45;cbmc/src</text>
<text text-anchor="start" x="4258.5" y="-24" font-family="Helvetica,sans-Serif" font-size="10.00">/goto&#45;instrument/wmm/weak</text>
<text text-anchor="middle" x="4329.5" y="-13" font-family="Helvetica,sans-Serif" font-size="10.00">_memory.cpp</text>
</a>
</g>
</g>
<!-- Node1&#45;&gt;Node25 -->
<g id="edge24" class="edge">
<title>Node1&#45;&gt;Node25</title>
<path fill="none" stroke="midnightblue" d="M3493.47,-117.02C3682.29,-110.5 4101.73,-93.17 4242.5,-64 4250.04,-62.44 4257.81,-60.37 4265.45,-58.05"/>
<polygon fill="midnightblue" stroke="midnightblue" points="3493.16,-113.53 3483.28,-117.37 3493.4,-120.53 3493.16,-113.53"/>
</g>
<!-- Node26 -->
<g id="node26" class="node">
<title>Node26</title>
<g id="a_node26"><a xlink:href="goto__check_8cpp.html" target="_top" xlink:title="GOTO Programs.">
<polygon fill="none" stroke="black" points="4426.5,-11.5 4426.5,-52.5 4596.5,-52.5 4596.5,-11.5 4426.5,-11.5"/>
<text text-anchor="start" x="4434.5" y="-40.5" font-family="Helvetica,sans-Serif" font-size="10.00">/home/runner/work/diffblue</text>
<text text-anchor="start" x="4434.5" y="-29.5" font-family="Helvetica,sans-Serif" font-size="10.00">&#45;cbmc/diffblue&#45;cbmc/src</text>
<text text-anchor="middle" x="4511.5" y="-18.5" font-family="Helvetica,sans-Serif" font-size="10.00">/goto&#45;programs/goto_check.cpp</text>
</a>
</g>
</g>
<!-- Node1&#45;&gt;Node26 -->
<g id="edge25" class="edge">
<title>Node1&#45;&gt;Node26</title>
<path fill="none" stroke="midnightblue" d="M3493.48,-117.99C3710.63,-112.84 4242.01,-97.16 4417.5,-64 4431.68,-61.32 4446.68,-57.06 4460.43,-52.55"/>
<polygon fill="midnightblue" stroke="midnightblue" points="3493.3,-114.49 3483.38,-118.23 3493.46,-121.49 3493.3,-114.49"/>
</g>
<!-- Node27 -->
<g id="node27" class="node">
<title>Node27</title>
<g id="a_node27"><a xlink:href="remove__function__pointers_8cpp.html" target="_top" xlink:title="Program Transformation.">
<polygon fill="none" stroke="black" points="4615,-6 4615,-58 4792,-58 4792,-6 4615,-6"/>
<text text-anchor="start" x="4623" y="-46" font-family="Helvetica,sans-Serif" font-size="10.00">/home/runner/work/diffblue</text>
<text text-anchor="start" x="4623" y="-35" font-family="Helvetica,sans-Serif" font-size="10.00">&#45;cbmc/diffblue&#45;cbmc/src</text>
<text text-anchor="start" x="4623" y="-24" font-family="Helvetica,sans-Serif" font-size="10.00">/goto&#45;programs/remove_function</text>
<text text-anchor="middle" x="4703.5" y="-13" font-family="Helvetica,sans-Serif" font-size="10.00">_pointers.cpp</text>
</a>
</g>
</g>
<!-- Node1&#45;&gt;Node27 -->
<g id="edge26" class="edge">
<title>Node1&#45;&gt;Node27</title>
<path fill="none" stroke="midnightblue" d="M3493.32,-118.79C3738.19,-115.13 4392.41,-101.98 4605.5,-64 4614.11,-62.47 4623.01,-60.38 4631.78,-58.02"/>
<polygon fill="midnightblue" stroke="midnightblue" points="3492.97,-115.29 3483.02,-118.94 3493.07,-122.29 3492.97,-115.29"/>
</g>
<!-- Node28 -->
<g id="node28" class="node">
<title>Node28</title>
<g id="a_node28"><a xlink:href="remove__returns_8cpp.html" target="_top" xlink:title="Replace function returns by assignments to global variables.">
<polygon fill="none" stroke="black" points="4810.5,-11.5 4810.5,-52.5 5002.5,-52.5 5002.5,-11.5 4810.5,-11.5"/>
<text text-anchor="start" x="4818.5" y="-40.5" font-family="Helvetica,sans-Serif" font-size="10.00">/home/runner/work/diffblue</text>
<text text-anchor="start" x="4818.5" y="-29.5" font-family="Helvetica,sans-Serif" font-size="10.00">&#45;cbmc/diffblue&#45;cbmc/src</text>
<text text-anchor="middle" x="4906.5" y="-18.5" font-family="Helvetica,sans-Serif" font-size="10.00">/goto&#45;programs/remove_returns.cpp</text>
</a>
</g>
</g>
<!-- Node1&#45;&gt;Node28 -->
<g id="edge27" class="edge">
<title>Node1&#45;&gt;Node28</title>
<path fill="none" stroke="midnightblue" d="M3493.44,-119.27C3765.18,-116.68 4548.78,-105.69 4801.5,-64 4817.35,-61.39 4834.17,-57.12 4849.6,-52.58"/>
<polygon fill="midnightblue" stroke="midnightblue" points="3493.18,-115.77 3483.21,-119.37 3493.24,-122.77 3493.18,-115.77"/>
</g>
<!-- Node29 -->
<g id="node29" class="node">
<title>Node29</title>
<g id="a_node29"><a xlink:href="remove__skip_8cpp.html" target="_top" xlink:title="Program Transformation.">
<polygon fill="none" stroke="black" points="5020.5,-11.5 5020.5,-52.5 5198.5,-52.5 5198.5,-11.5 5020.5,-11.5"/>
<text text-anchor="start" x="5028.5" y="-40.5" font-family="Helvetica,sans-Serif" font-size="10.00">/home/runner/work/diffblue</text>
<text text-anchor="start" x="5028.5" y="-29.5" font-family="Helvetica,sans-Serif" font-size="10.00">&#45;cbmc/diffblue&#45;cbmc/src</text>
<text text-anchor="middle" x="5109.5" y="-18.5" font-family="Helvetica,sans-Serif" font-size="10.00">/goto&#45;programs/remove_skip.cpp</text>
</a>
</g>
</g>
<!-- Node1&#45;&gt;Node29 -->
<g id="edge28" class="edge">
<title>Node1&#45;&gt;Node29</title>
<path fill="none" stroke="midnightblue" d="M3493.81,-120.08C3792.76,-119.79 4716.95,-114.73 5011.5,-64 5026.45,-61.43 5042.27,-57.14 5056.75,-52.57"/>
<polygon fill="midnightblue" stroke="midnightblue" points="3493.44,-116.58 3483.44,-120.09 3493.44,-123.58 3493.44,-116.58"/>
</g>
<!-- Node30 -->
<g id="node30" class="node">
<title>Node30</title>
<g id="a_node30"><a xlink:href="remove__virtual__functions_8cpp.html" target="_top" xlink:title="Remove Virtual Function (Method) Calls.">
<polygon fill="none" stroke="black" points="5216,-6 5216,-58 5385,-58 5385,-6 5216,-6"/>
<text text-anchor="start" x="5224" y="-46" font-family="Helvetica,sans-Serif" font-size="10.00">/home/runner/work/diffblue</text>
<text text-anchor="start" x="5224" y="-35" font-family="Helvetica,sans-Serif" font-size="10.00">&#45;cbmc/diffblue&#45;cbmc/src</text>
<text text-anchor="start" x="5224" y="-24" font-family="Helvetica,sans-Serif" font-size="10.00">/goto&#45;programs/remove_virtual</text>
<text text-anchor="middle" x="5300.5" y="-13" font-family="Helvetica,sans-Serif" font-size="10.00">_functions.cpp</text>
</a>
</g>
</g>
<!-- Node1&#45;&gt;Node30 -->
<g id="edge29" class="edge">
<title>Node1&#45;&gt;Node30</title>
<path fill="none" stroke="midnightblue" d="M3493.2,-118.69C3839.88,-113.63 5038.54,-94.11 5207.5,-64 5215.88,-62.51 5224.53,-60.41 5233.03,-58.01"/>
<polygon fill="midnightblue" stroke="midnightblue" points="3493.14,-115.19 3483.19,-118.84 3493.24,-122.19 3493.14,-115.19"/>
</g>
<!-- Node31 -->
<g id="node31" class="node">
<title>Node31</title>
<g id="a_node31"><a xlink:href="cegis__verifier_8cpp.html" target="_top" xlink:title="Verifier for Counterexample&#45;Guided Synthesis.">
<polygon fill="none" stroke="black" points="5403,-11.5 5403,-52.5 5592,-52.5 5592,-11.5 5403,-11.5"/>
<text text-anchor="start" x="5411" y="-40.5" font-family="Helvetica,sans-Serif" font-size="10.00">/home/runner/work/diffblue</text>
<text text-anchor="start" x="5411" y="-29.5" font-family="Helvetica,sans-Serif" font-size="10.00">&#45;cbmc/diffblue&#45;cbmc/src</text>
<text text-anchor="middle" x="5497.5" y="-18.5" font-family="Helvetica,sans-Serif" font-size="10.00">/goto&#45;synthesizer/cegis_verifier.cpp</text>
</a>
</g>
</g>
<!-- Node1&#45;&gt;Node31 -->
<g id="edge30" class="edge">
<title>Node1&#45;&gt;Node31</title>
<path fill="none" stroke="midnightblue" d="M3493.4,-118.82C3862.92,-113.98 5206,-94.46 5394.5,-64 5410.26,-61.45 5426.98,-57.15 5442.27,-52.55"/>
<polygon fill="midnightblue" stroke="midnightblue" points="3493.23,-115.32 3483.27,-118.95 3493.32,-122.32 3493.23,-115.32"/>
</g>
<!-- Node32 -->
<g id="node32" class="node">
<title>Node32</title>
<g id="a_node32"><a xlink:href="api_8cpp.html" target="_top" xlink:title=" ">
<polygon fill="none" stroke="black" points="5610,-11.5 5610,-52.5 5759,-52.5 5759,-11.5 5610,-11.5"/>
<text text-anchor="start" x="5618" y="-40.5" font-family="Helvetica,sans-Serif" font-size="10.00">/home/runner/work/diffblue</text>
<text text-anchor="start" x="5618" y="-29.5" font-family="Helvetica,sans-Serif" font-size="10.00">&#45;cbmc/diffblue&#45;cbmc/src</text>
<text text-anchor="middle" x="5684.5" y="-18.5" font-family="Helvetica,sans-Serif" font-size="10.00">/libcprover&#45;cpp/api.cpp</text>
</a>
</g>
</g>
<!-- Node1&#45;&gt;Node32 -->
<g id="edge31" class="edge">
<title>Node1&#45;&gt;Node32</title>
<path fill="none" stroke="midnightblue" d="M3493.52,-119.44C3887.28,-116.86 5392.93,-104.42 5601.5,-64 5614.49,-61.48 5628.12,-57.16 5640.49,-52.53"/>
<polygon fill="midnightblue" stroke="midnightblue" points="3493.29,-115.94 3483.31,-119.51 3493.34,-122.94 3493.29,-115.94"/>
</g>
<!-- Node33 -->
<g id="node33" class="node">
<title>Node33</title>
<g id="a_node33"><a xlink:href="janalyzer__parse__options_8cpp.html" target="_top" xlink:title="JANALYZER Command Line Option Processing.">
<polygon fill="none" stroke="black" points="5777,-6 5777,-58 5926,-58 5926,-6 5777,-6"/>
<text text-anchor="start" x="5785" y="-46" font-family="Helvetica,sans-Serif" font-size="10.00">/home/runner/work/diffblue</text>
<text text-anchor="start" x="5785" y="-35" font-family="Helvetica,sans-Serif" font-size="10.00">&#45;cbmc/diffblue&#45;cbmc/jbmc</text>
<text text-anchor="start" x="5785" y="-24" font-family="Helvetica,sans-Serif" font-size="10.00">/src/janalyzer/janalyzer</text>
<text text-anchor="middle" x="5851.5" y="-13" font-family="Helvetica,sans-Serif" font-size="10.00">_parse_options.cpp</text>
</a>
</g>
</g>
<!-- Node1&#45;&gt;Node33 -->
<g id="edge32" class="edge">
<title>Node1&#45;&gt;Node33</title>
<path fill="none" stroke="midnightblue" d="M3493.41,-119.63C3905.45,-117.74 5542.79,-107.54 5768.5,-64 5776.05,-62.54 5783.82,-60.47 5791.43,-58.08"/>
<polygon fill="midnightblue" stroke="midnightblue" points="3493.31,-116.13 3483.33,-119.67 3493.34,-123.13 3493.31,-116.13"/>
</g>
<!-- Node34 -->
<g id="node34" class="node">
<title>Node34</title>
<g id="a_node34"><a xlink:href="convert__java__nondet_8cpp.html" target="_top" xlink:title="Convert side_effect_expr_nondett expressions.">
<polygon fill="none" stroke="black" points="5944,-6 5944,-58 6093,-58 6093,-6 5944,-6"/>
<text text-anchor="start" x="5952" y="-46" font-family="Helvetica,sans-Serif" font-size="10.00">/home/runner/work/diffblue</text>
<text text-anchor="start" x="5952" y="-35" font-family="Helvetica,sans-Serif" font-size="10.00">&#45;cbmc/diffblue&#45;cbmc/jbmc</text>
<text text-anchor="start" x="5952" y="-24" font-family="Helvetica,sans-Serif" font-size="10.00">/src/java_bytecode/convert</text>
<text text-anchor="middle" x="6018.5" y="-13" font-family="Helvetica,sans-Serif" font-size="10.00">_java_nondet.cpp</text>
</a>
</g>
</g>
<!-- Node1&#45;&gt;Node34 -->
<g id="edge33" class="edge">
<title>Node1&#45;&gt;Node34</title>
<path fill="none" stroke="midnightblue" d="M3493.21,-119.79C3922.7,-118.55 5692.58,-110.66 5935.5,-64 5943.05,-62.55 5950.82,-60.48 5958.43,-58.1"/>
<polygon fill="midnightblue" stroke="midnightblue" points="3493,-116.29 3483.01,-119.81 3493.02,-123.29 3493,-116.29"/>
</g>
<!-- Node35 -->
<g id="node35" class="node">
<title>Node35</title>
<g id="a_node35"><a xlink:href="remove__exceptions_8cpp.html" target="_top" xlink:title="Remove exception handling.">
<polygon fill="none" stroke="black" points="6111,-6 6111,-58 6260,-58 6260,-6 6111,-6"/>
<text text-anchor="start" x="6119" y="-46" font-family="Helvetica,sans-Serif" font-size="10.00">/home/runner/work/diffblue</text>
<text text-anchor="start" x="6119" y="-35" font-family="Helvetica,sans-Serif" font-size="10.00">&#45;cbmc/diffblue&#45;cbmc/jbmc</text>
<text text-anchor="start" x="6119" y="-24" font-family="Helvetica,sans-Serif" font-size="10.00">/src/java_bytecode/remove</text>
<text text-anchor="middle" x="6185.5" y="-13" font-family="Helvetica,sans-Serif" font-size="10.00">_exceptions.cpp</text>
</a>
</g>
</g>
<!-- Node1&#45;&gt;Node35 -->
<g id="edge34" class="edge">
<title>Node1&#45;&gt;Node35</title>
<path fill="none" stroke="midnightblue" d="M3493.44,-119.92C3940.57,-119.31 5842.42,-113.77 6102.5,-64 6110.05,-62.55 6117.82,-60.49 6125.44,-58.11"/>
<polygon fill="midnightblue" stroke="midnightblue" points="3493.14,-116.42 3483.15,-119.94 3493.15,-123.42 3493.14,-116.42"/>
</g>
<!-- Node36 -->
<g id="node36" class="node">
<title>Node36</title>
<g id="a_node36"><a xlink:href="replace__java__nondet_8cpp.html" target="_top" xlink:title="Replace Java Nondet expressions.">
<polygon fill="none" stroke="black" points="6278,-6 6278,-58 6427,-58 6427,-6 6278,-6"/>
<text text-anchor="start" x="6286" y="-46" font-family="Helvetica,sans-Serif" font-size="10.00">/home/runner/work/diffblue</text>
<text text-anchor="start" x="6286" y="-35" font-family="Helvetica,sans-Serif" font-size="10.00">&#45;cbmc/diffblue&#45;cbmc/jbmc</text>
<text text-anchor="start" x="6286" y="-24" font-family="Helvetica,sans-Serif" font-size="10.00">/src/java_bytecode/replace</text>
<text text-anchor="middle" x="6352.5" y="-13" font-family="Helvetica,sans-Serif" font-size="10.00">_java_nondet.cpp</text>
</a>
</g>
</g>
<!-- Node1&#45;&gt;Node36 -->
<g id="edge35" class="edge">
<title>Node1&#45;&gt;Node36</title>
<path fill="none" stroke="midnightblue" d="M3493.49,-120.05C3957.43,-120.03 5992.2,-116.89 6269.5,-64 6277.05,-62.56 6284.82,-60.5 6292.44,-58.11"/>
<polygon fill="midnightblue" stroke="midnightblue" points="3493.15,-116.55 3483.15,-120.05 3493.15,-123.55 3493.15,-116.55"/>
</g>
<!-- Node37 -->
<g id="node37" class="node">
<title>Node37</title>
<g id="a_node37"><a xlink:href="jbmc__parse__options_8cpp.html" target="_top" xlink:title="JBMC Command Line Option Processing.">
<polygon fill="none" stroke="black" points="6445.5,-11.5 6445.5,-52.5 6627.5,-52.5 6627.5,-11.5 6445.5,-11.5"/>
<text text-anchor="start" x="6453.5" y="-40.5" font-family="Helvetica,sans-Serif" font-size="10.00">/home/runner/work/diffblue</text>
<text text-anchor="start" x="6453.5" y="-29.5" font-family="Helvetica,sans-Serif" font-size="10.00">&#45;cbmc/diffblue&#45;cbmc/jbmc</text>
<text text-anchor="middle" x="6536.5" y="-18.5" font-family="Helvetica,sans-Serif" font-size="10.00">/src/jbmc/jbmc_parse_options.cpp</text>
</a>
</g>
</g>
<!-- Node1&#45;&gt;Node37 -->
<g id="edge36" class="edge">
<title>Node1&#45;&gt;Node37</title>
<path fill="none" stroke="midnightblue" d="M3493.37,-119.84C3973.15,-118.83 6140.45,-111.63 6436.5,-64 6451.93,-61.52 6468.28,-57.2 6483.19,-52.57"/>
<polygon fill="midnightblue" stroke="midnightblue" points="3493.02,-116.34 3483.02,-119.86 3493.03,-123.34 3493.02,-116.34"/>
</g>
<!-- Node38 -->
<g id="node38" class="node">
<title>Node38</title>
<g id="a_node38"><a xlink:href="jdiff__parse__options_8cpp.html" target="_top" xlink:title="JDIFF Command Line Option Processing.">
<polygon fill="none" stroke="black" points="6646,-11.5 6646,-52.5 6817,-52.5 6817,-11.5 6646,-11.5"/>
<text text-anchor="start" x="6654" y="-40.5" font-family="Helvetica,sans-Serif" font-size="10.00">/home/runner/work/diffblue</text>
<text text-anchor="start" x="6654" y="-29.5" font-family="Helvetica,sans-Serif" font-size="10.00">&#45;cbmc/diffblue&#45;cbmc/jbmc</text>
<text text-anchor="middle" x="6731.5" y="-18.5" font-family="Helvetica,sans-Serif" font-size="10.00">/src/jdiff/jdiff_parse_options.cpp</text>
</a>
</g>
</g>
<!-- Node1&#45;&gt;Node38 -->
<g id="edge37" class="edge">
<title>Node1&#45;&gt;Node38</title>
<path fill="none" stroke="midnightblue" d="M3493.04,-120.04C3991.04,-120.04 6319.95,-117.15 6636.5,-64 6651.21,-61.53 6666.76,-57.22 6680.93,-52.59"/>
<polygon fill="midnightblue" stroke="midnightblue" points="3493.02,-116.54 3483.02,-120.04 3493.02,-123.54 3493.02,-116.54"/>
</g>
</g>
</svg>
