<?xml version="1.0" encoding="UTF-8" standalone="no"?>
<!DOCTYPE svg PUBLIC "-//W3C//DTD SVG 1.1//EN"
 "http://www.w3.org/Graphics/SVG/1.1/DTD/svg11.dtd">
<!-- Generated by graphviz version 2.43.0 (0)
 -->
<!-- Title: /home/runner/work/diffblue&#45;cbmc/diffblue&#45;cbmc/src/goto&#45;programs/remove_const_function_pointers.h Pages: 1 -->
<svg width="768pt" height="239pt"
 viewBox="0.00 0.00 767.50 239.00" xmlns="http://www.w3.org/2000/svg" xmlns:xlink="http://www.w3.org/1999/xlink">
<g id="graph0" class="graph" transform="scale(1 1) rotate(0) translate(4 235)">
<title>/home/runner/work/diffblue&#45;cbmc/diffblue&#45;cbmc/src/goto&#45;programs/remove_const_function_pointers.h</title>
<!-- Node1 -->
<g id="node1" class="node">
<title>Node1</title>
<g id="a_node1"><a xlink:title="Goto Programs.">
<polygon fill="#bfbfbf" stroke="black" points="400,-178.5 400,-230.5 564,-230.5 564,-178.5 400,-178.5"/>
<text text-anchor="start" x="408" y="-218.5" font-family="Helvetica,sans-Serif" font-size="10.00">/home/runner/work/diffblue</text>
<text text-anchor="start" x="408" y="-207.5" font-family="Helvetica,sans-Serif" font-size="10.00">&#45;cbmc/diffblue&#45;cbmc/src</text>
<text text-anchor="start" x="408" y="-196.5" font-family="Helvetica,sans-Serif" font-size="10.00">/goto&#45;programs/remove_const</text>
<text text-anchor="middle" x="482" y="-185.5" font-family="Helvetica,sans-Serif" font-size="10.00">_function_pointers.h</text>
</a>
</g>
</g>
<!-- Node2 -->
<g id="node2" class="node">
<title>Node2</title>
<g id="a_node2"><a xlink:href="goto__instrument__parse__options_8h.html" target="_top" xlink:title="Command Line Parsing.">
<polygon fill="none" stroke="black" points="200,-89.5 200,-141.5 382,-141.5 382,-89.5 200,-89.5"/>
<text text-anchor="start" x="208" y="-129.5" font-family="Helvetica,sans-Serif" font-size="10.00">/home/runner/work/diffblue</text>
<text text-anchor="start" x="208" y="-118.5" font-family="Helvetica,sans-Serif" font-size="10.00">&#45;cbmc/diffblue&#45;cbmc/src</text>
<text text-anchor="start" x="208" y="-107.5" font-family="Helvetica,sans-Serif" font-size="10.00">/goto&#45;instrument/goto_instrument</text>
<text text-anchor="middle" x="291" y="-96.5" font-family="Helvetica,sans-Serif" font-size="10.00">_parse_options.h</text>
</a>
</g>
</g>
<!-- Node1&#45;&gt;Node2 -->
<g id="edge1" class="edge">
<title>Node1&#45;&gt;Node2</title>
<path fill="none" stroke="midnightblue" d="M417.88,-174.29C394.55,-163.67 368.4,-151.76 345.93,-141.52"/>
<polygon fill="midnightblue" stroke="midnightblue" points="416.46,-177.49 427.01,-178.45 419.36,-171.12 416.46,-177.49"/>
</g>
<!-- Node6 -->
<g id="node6" class="node">
<title>Node6</title>
<g id="a_node6"><a xlink:href="remove__const__function__pointers_8cpp.html" target="_top" xlink:title="Goto Programs.">
<polygon fill="none" stroke="black" points="400,-89.5 400,-141.5 564,-141.5 564,-89.5 400,-89.5"/>
<text text-anchor="start" x="408" y="-129.5" font-family="Helvetica,sans-Serif" font-size="10.00">/home/runner/work/diffblue</text>
<text text-anchor="start" x="408" y="-118.5" font-family="Helvetica,sans-Serif" font-size="10.00">&#45;cbmc/diffblue&#45;cbmc/src</text>
<text text-anchor="start" x="408" y="-107.5" font-family="Helvetica,sans-Serif" font-size="10.00">/goto&#45;programs/remove_const</text>
<text text-anchor="middle" x="482" y="-96.5" font-family="Helvetica,sans-Serif" font-size="10.00">_function_pointers.cpp</text>
</a>
</g>
</g>
<!-- Node1&#45;&gt;Node6 -->
<g id="edge5" class="edge">
<title>Node1&#45;&gt;Node6</title>
<path fill="none" stroke="midnightblue" d="M482,-168.19C482,-159.28 482,-149.9 482,-141.61"/>
<polygon fill="midnightblue" stroke="midnightblue" points="478.5,-168.34 482,-178.34 485.5,-168.34 478.5,-168.34"/>
</g>
<!-- Node7 -->
<g id="node7" class="node">
<title>Node7</title>
<g id="a_node7"><a xlink:href="remove__function__pointers_8cpp.html" target="_top" xlink:title="Program Transformation.">
<polygon fill="none" stroke="black" points="582.5,-89.5 582.5,-141.5 759.5,-141.5 759.5,-89.5 582.5,-89.5"/>
<text text-anchor="start" x="590.5" y="-129.5" font-family="Helvetica,sans-Serif" font-size="10.00">/home/runner/work/diffblue</text>
<text text-anchor="start" x="590.5" y="-118.5" font-family="Helvetica,sans-Serif" font-size="10.00">&#45;cbmc/diffblue&#45;cbmc/src</text>
<text text-anchor="start" x="590.5" y="-107.5" font-family="Helvetica,sans-Serif" font-size="10.00">/goto&#45;programs/remove_function</text>
<text text-anchor="middle" x="671" y="-96.5" font-family="Helvetica,sans-Serif" font-size="10.00">_pointers.cpp</text>
</a>
</g>
</g>
<!-- Node1&#45;&gt;Node7 -->
<g id="edge6" class="edge">
<title>Node1&#45;&gt;Node7</title>
<path fill="none" stroke="midnightblue" d="M545.75,-174.15C568.77,-163.56 594.51,-151.71 616.64,-141.52"/>
<polygon fill="midnightblue" stroke="midnightblue" points="544.03,-171.09 536.41,-178.45 546.96,-177.45 544.03,-171.09"/>
</g>
<!-- Node3 -->
<g id="node3" class="node">
<title>Node3</title>
<g id="a_node3"><a xlink:href="goto__instrument__languages_8cpp.html" target="_top" xlink:title="Language Registration.">
<polygon fill="none" stroke="black" points="0,-0.5 0,-52.5 182,-52.5 182,-0.5 0,-0.5"/>
<text text-anchor="start" x="8" y="-40.5" font-family="Helvetica,sans-Serif" font-size="10.00">/home/runner/work/diffblue</text>
<text text-anchor="start" x="8" y="-29.5" font-family="Helvetica,sans-Serif" font-size="10.00">&#45;cbmc/diffblue&#45;cbmc/src</text>
<text text-anchor="start" x="8" y="-18.5" font-family="Helvetica,sans-Serif" font-size="10.00">/goto&#45;instrument/goto_instrument</text>
<text text-anchor="middle" x="91" y="-7.5" font-family="Helvetica,sans-Serif" font-size="10.00">_languages.cpp</text>
</a>
</g>
</g>
<!-- Node2&#45;&gt;Node3 -->
<g id="edge2" class="edge">
<title>Node2&#45;&gt;Node3</title>
<path fill="none" stroke="midnightblue" d="M224.19,-85.44C199.67,-74.77 172.15,-62.8 148.52,-52.52"/>
<polygon fill="midnightblue" stroke="midnightblue" points="222.85,-88.67 233.42,-89.45 225.65,-82.25 222.85,-88.67"/>
</g>
<!-- Node4 -->
<g id="node4" class="node">
<title>Node4</title>
<g id="a_node4"><a xlink:href="goto__instrument__main_8cpp.html" target="_top" xlink:title="Main Module.">
<polygon fill="none" stroke="black" points="200,-0.5 200,-52.5 382,-52.5 382,-0.5 200,-0.5"/>
<text text-anchor="start" x="208" y="-40.5" font-family="Helvetica,sans-Serif" font-size="10.00">/home/runner/work/diffblue</text>
<text text-anchor="start" x="208" y="-29.5" font-family="Helvetica,sans-Serif" font-size="10.00">&#45;cbmc/diffblue&#45;cbmc/src</text>
<text text-anchor="start" x="208" y="-18.5" font-family="Helvetica,sans-Serif" font-size="10.00">/goto&#45;instrument/goto_instrument</text>
<text text-anchor="middle" x="291" y="-7.5" font-family="Helvetica,sans-Serif" font-size="10.00">_main.cpp</text>
</a>
</g>
</g>
<!-- Node2&#45;&gt;Node4 -->
<g id="edge3" class="edge">
<title>Node2&#45;&gt;Node4</title>
<path fill="none" stroke="midnightblue" d="M291,-79.19C291,-70.28 291,-60.9 291,-52.61"/>
<polygon fill="midnightblue" stroke="midnightblue" points="287.5,-79.34 291,-89.34 294.5,-79.34 287.5,-79.34"/>
</g>
<!-- Node5 -->
<g id="node5" class="node">
<title>Node5</title>
<g id="a_node5"><a xlink:href="goto__instrument__parse__options_8cpp.html" target="_top" xlink:title="Main Module.">
<polygon fill="none" stroke="black" points="400,-0.5 400,-52.5 582,-52.5 582,-0.5 400,-0.5"/>
<text text-anchor="start" x="408" y="-40.5" font-family="Helvetica,sans-Serif" font-size="10.00">/home/runner/work/diffblue</text>
<text text-anchor="start" x="408" y="-29.5" font-family="Helvetica,sans-Serif" font-size="10.00">&#45;cbmc/diffblue&#45;cbmc/src</text>
<text text-anchor="start" x="408" y="-18.5" font-family="Helvetica,sans-Serif" font-size="10.00">/goto&#45;instrument/goto_instrument</text>
<text text-anchor="middle" x="491" y="-7.5" font-family="Helvetica,sans-Serif" font-size="10.00">_parse_options.cpp</text>
</a>
</g>
</g>
<!-- Node2&#45;&gt;Node5 -->
<g id="edge4" class="edge">
<title>Node2&#45;&gt;Node5</title>
<path fill="none" stroke="midnightblue" d="M357.81,-85.44C382.33,-74.77 409.85,-62.8 433.48,-52.52"/>
<polygon fill="midnightblue" stroke="midnightblue" points="356.35,-82.25 348.58,-89.45 359.15,-88.67 356.35,-82.25"/>
</g>
</g>
</svg>
