<?xml version="1.0" encoding="UTF-8" standalone="no"?>
<!DOCTYPE svg PUBLIC "-//W3C//DTD SVG 1.1//EN"
 "http://www.w3.org/Graphics/SVG/1.1/DTD/svg11.dtd">
<!-- Generated by graphviz version 2.43.0 (0)
 -->
<!-- Title: /home/runner/work/diffblue&#45;cbmc/diffblue&#45;cbmc/src/goto&#45;programs/remove_returns.h Pages: 1 -->
<svg width="1509pt" height="139pt"
 viewBox="0.00 0.00 1508.50 139.00" xmlns="http://www.w3.org/2000/svg" xmlns:xlink="http://www.w3.org/1999/xlink">
<g id="graph0" class="graph" transform="scale(1 1) rotate(0) translate(4 135)">
<title>/home/runner/work/diffblue&#45;cbmc/diffblue&#45;cbmc/src/goto&#45;programs/remove_returns.h</title>
<!-- Node1 -->
<g id="node1" class="node">
<title>Node1</title>
<g id="a_node1"><a xlink:title="Replace function returns by assignments to global variables.">
<polygon fill="#bfbfbf" stroke="black" points="659.5,-89.5 659.5,-130.5 840.5,-130.5 840.5,-89.5 659.5,-89.5"/>
<text text-anchor="start" x="667.5" y="-118.5" font-family="Helvetica,sans-Serif" font-size="10.00">/home/runner/work/diffblue</text>
<text text-anchor="start" x="667.5" y="-107.5" font-family="Helvetica,sans-Serif" font-size="10.00">&#45;cbmc/diffblue&#45;cbmc/src</text>
<text text-anchor="middle" x="750" y="-96.5" font-family="Helvetica,sans-Serif" font-size="10.00">/goto&#45;programs/remove_returns.h</text>
</a>
</g>
</g>
<!-- Node2 -->
<g id="node2" class="node">
<title>Node2</title>
<g id="a_node2"><a xlink:href="static__simplifier_8cpp.html" target="_top" xlink:title=" ">
<polygon fill="none" stroke="black" points="0,-6 0,-47 188,-47 188,-6 0,-6"/>
<text text-anchor="start" x="8" y="-35" font-family="Helvetica,sans-Serif" font-size="10.00">/home/runner/work/diffblue</text>
<text text-anchor="start" x="8" y="-24" font-family="Helvetica,sans-Serif" font-size="10.00">&#45;cbmc/diffblue&#45;cbmc/src</text>
<text text-anchor="middle" x="94" y="-13" font-family="Helvetica,sans-Serif" font-size="10.00">/goto&#45;analyzer/static_simplifier.cpp</text>
</a>
</g>
</g>
<!-- Node1&#45;&gt;Node2 -->
<g id="edge1" class="edge">
<title>Node1&#45;&gt;Node2</title>
<path fill="none" stroke="midnightblue" d="M649.22,-103.1C537.93,-95.59 353.74,-80.2 197,-53 187.38,-51.33 177.33,-49.26 167.44,-47.02"/>
<polygon fill="midnightblue" stroke="midnightblue" points="649.22,-106.61 659.43,-103.78 649.68,-99.62 649.22,-106.61"/>
</g>
<!-- Node3 -->
<g id="node3" class="node">
<title>Node3</title>
<g id="a_node3"><a xlink:href="goto__instrument__parse__options_8cpp.html" target="_top" xlink:title="Main Module.">
<polygon fill="none" stroke="black" points="206,-0.5 206,-52.5 388,-52.5 388,-0.5 206,-0.5"/>
<text text-anchor="start" x="214" y="-40.5" font-family="Helvetica,sans-Serif" font-size="10.00">/home/runner/work/diffblue</text>
<text text-anchor="start" x="214" y="-29.5" font-family="Helvetica,sans-Serif" font-size="10.00">&#45;cbmc/diffblue&#45;cbmc/src</text>
<text text-anchor="start" x="214" y="-18.5" font-family="Helvetica,sans-Serif" font-size="10.00">/goto&#45;instrument/goto_instrument</text>
<text text-anchor="middle" x="297" y="-7.5" font-family="Helvetica,sans-Serif" font-size="10.00">_parse_options.cpp</text>
</a>
</g>
</g>
<!-- Node1&#45;&gt;Node3 -->
<g id="edge2" class="edge">
<title>Node1&#45;&gt;Node3</title>
<path fill="none" stroke="midnightblue" d="M649,-95.51C578.17,-85.43 481.42,-70.42 397,-53 394.1,-52.4 391.17,-51.78 388.21,-51.13"/>
<polygon fill="midnightblue" stroke="midnightblue" points="648.87,-99.02 659.26,-96.96 649.85,-92.09 648.87,-99.02"/>
</g>
<!-- Node4 -->
<g id="node4" class="node">
<title>Node4</title>
<g id="a_node4"><a xlink:href="replace__calls_8cpp.html" target="_top" xlink:title="Replace calls Replaces calls to given functions with calls to other given functions.">
<polygon fill="none" stroke="black" points="406.5,-0.5 406.5,-52.5 555.5,-52.5 555.5,-0.5 406.5,-0.5"/>
<text text-anchor="start" x="414.5" y="-40.5" font-family="Helvetica,sans-Serif" font-size="10.00">/home/runner/work/diffblue</text>
<text text-anchor="start" x="414.5" y="-29.5" font-family="Helvetica,sans-Serif" font-size="10.00">&#45;cbmc/diffblue&#45;cbmc/src</text>
<text text-anchor="start" x="414.5" y="-18.5" font-family="Helvetica,sans-Serif" font-size="10.00">/goto&#45;instrument/replace</text>
<text text-anchor="middle" x="481" y="-7.5" font-family="Helvetica,sans-Serif" font-size="10.00">_calls.cpp</text>
</a>
</g>
</g>
<!-- Node1&#45;&gt;Node4 -->
<g id="edge3" class="edge">
<title>Node1&#45;&gt;Node4</title>
<path fill="none" stroke="midnightblue" d="M674.73,-86.44C640.87,-76.27 600.41,-64.08 564,-53 561.26,-52.17 558.47,-51.32 555.65,-50.46"/>
<polygon fill="midnightblue" stroke="midnightblue" points="673.97,-89.87 684.55,-89.39 675.98,-83.16 673.97,-89.87"/>
</g>
<!-- Node5 -->
<g id="node5" class="node">
<title>Node5</title>
<g id="a_node5"><a xlink:href="process__goto__program_8cpp.html" target="_top" xlink:title="Get a Goto Program.">
<polygon fill="none" stroke="black" points="573.5,-0.5 573.5,-52.5 732.5,-52.5 732.5,-0.5 573.5,-0.5"/>
<text text-anchor="start" x="581.5" y="-40.5" font-family="Helvetica,sans-Serif" font-size="10.00">/home/runner/work/diffblue</text>
<text text-anchor="start" x="581.5" y="-29.5" font-family="Helvetica,sans-Serif" font-size="10.00">&#45;cbmc/diffblue&#45;cbmc/src</text>
<text text-anchor="start" x="581.5" y="-18.5" font-family="Helvetica,sans-Serif" font-size="10.00">/goto&#45;programs/process_goto</text>
<text text-anchor="middle" x="653" y="-7.5" font-family="Helvetica,sans-Serif" font-size="10.00">_program.cpp</text>
</a>
</g>
</g>
<!-- Node1&#45;&gt;Node5 -->
<g id="edge4" class="edge">
<title>Node1&#45;&gt;Node5</title>
<path fill="none" stroke="midnightblue" d="M718.82,-82.8C707.3,-73.13 694.28,-62.19 682.88,-52.61"/>
<polygon fill="midnightblue" stroke="midnightblue" points="716.61,-85.52 726.52,-89.27 721.11,-80.16 716.61,-85.52"/>
</g>
<!-- Node6 -->
<g id="node6" class="node">
<title>Node6</title>
<g id="a_node6"><a xlink:href="remove__returns_8cpp.html" target="_top" xlink:title="Replace function returns by assignments to global variables.">
<polygon fill="none" stroke="black" points="751,-6 751,-47 943,-47 943,-6 751,-6"/>
<text text-anchor="start" x="759" y="-35" font-family="Helvetica,sans-Serif" font-size="10.00">/home/runner/work/diffblue</text>
<text text-anchor="start" x="759" y="-24" font-family="Helvetica,sans-Serif" font-size="10.00">&#45;cbmc/diffblue&#45;cbmc/src</text>
<text text-anchor="middle" x="847" y="-13" font-family="Helvetica,sans-Serif" font-size="10.00">/goto&#45;programs/remove_returns.cpp</text>
</a>
</g>
</g>
<!-- Node1&#45;&gt;Node6 -->
<g id="edge5" class="edge">
<title>Node1&#45;&gt;Node6</title>
<path fill="none" stroke="midnightblue" d="M781.31,-82.69C795.1,-71.1 811.02,-57.73 823.74,-47.05"/>
<polygon fill="midnightblue" stroke="midnightblue" points="778.89,-80.16 773.48,-89.27 783.39,-85.52 778.89,-80.16"/>
</g>
<!-- Node7 -->
<g id="node7" class="node">
<title>Node7</title>
<g id="a_node7"><a xlink:href="janalyzer__parse__options_8cpp.html" target="_top" xlink:title="JANALYZER Command Line Option Processing.">
<polygon fill="none" stroke="black" points="961.5,-0.5 961.5,-52.5 1110.5,-52.5 1110.5,-0.5 961.5,-0.5"/>
<text text-anchor="start" x="969.5" y="-40.5" font-family="Helvetica,sans-Serif" font-size="10.00">/home/runner/work/diffblue</text>
<text text-anchor="start" x="969.5" y="-29.5" font-family="Helvetica,sans-Serif" font-size="10.00">&#45;cbmc/diffblue&#45;cbmc/jbmc</text>
<text text-anchor="start" x="969.5" y="-18.5" font-family="Helvetica,sans-Serif" font-size="10.00">/src/janalyzer/janalyzer</text>
<text text-anchor="middle" x="1036" y="-7.5" font-family="Helvetica,sans-Serif" font-size="10.00">_parse_options.cpp</text>
</a>
</g>
</g>
<!-- Node1&#45;&gt;Node7 -->
<g id="edge6" class="edge">
<title>Node1&#45;&gt;Node7</title>
<path fill="none" stroke="midnightblue" d="M831.79,-86.81C868.59,-76.7 912.54,-64.46 952,-53 955.07,-52.11 958.21,-51.19 961.37,-50.26"/>
<polygon fill="midnightblue" stroke="midnightblue" points="830.82,-83.45 822.11,-89.47 832.68,-90.2 830.82,-83.45"/>
</g>
<!-- Node8 -->
<g id="node8" class="node">
<title>Node8</title>
<g id="a_node8"><a xlink:href="jbmc__parse__options_8cpp.html" target="_top" xlink:title="JBMC Command Line Option Processing.">
<polygon fill="none" stroke="black" points="1129,-6 1129,-47 1311,-47 1311,-6 1129,-6"/>
<text text-anchor="start" x="1137" y="-35" font-family="Helvetica,sans-Serif" font-size="10.00">/home/runner/work/diffblue</text>
<text text-anchor="start" x="1137" y="-24" font-family="Helvetica,sans-Serif" font-size="10.00">&#45;cbmc/diffblue&#45;cbmc/jbmc</text>
<text text-anchor="middle" x="1220" y="-13" font-family="Helvetica,sans-Serif" font-size="10.00">/src/jbmc/jbmc_parse_options.cpp</text>
</a>
</g>
</g>
<!-- Node1&#45;&gt;Node8 -->
<g id="edge7" class="edge">
<title>Node1&#45;&gt;Node8</title>
<path fill="none" stroke="midnightblue" d="M850.87,-96.49C925.53,-86.56 1029.54,-71.33 1120,-53 1128.78,-51.22 1137.94,-49.16 1147.01,-47.01"/>
<polygon fill="midnightblue" stroke="midnightblue" points="849.99,-93.08 840.54,-97.86 850.91,-100.02 849.99,-93.08"/>
</g>
<!-- Node9 -->
<g id="node9" class="node">
<title>Node9</title>
<g id="a_node9"><a xlink:href="jdiff__parse__options_8cpp.html" target="_top" xlink:title="JDIFF Command Line Option Processing.">
<polygon fill="none" stroke="black" points="1329.5,-6 1329.5,-47 1500.5,-47 1500.5,-6 1329.5,-6"/>
<text text-anchor="start" x="1337.5" y="-35" font-family="Helvetica,sans-Serif" font-size="10.00">/home/runner/work/diffblue</text>
<text text-anchor="start" x="1337.5" y="-24" font-family="Helvetica,sans-Serif" font-size="10.00">&#45;cbmc/diffblue&#45;cbmc/jbmc</text>
<text text-anchor="middle" x="1415" y="-13" font-family="Helvetica,sans-Serif" font-size="10.00">/src/jdiff/jdiff_parse_options.cpp</text>
</a>
</g>
</g>
<!-- Node1&#45;&gt;Node9 -->
<g id="edge8" class="edge">
<title>Node1&#45;&gt;Node9</title>
<path fill="none" stroke="midnightblue" d="M851.12,-104.09C965.61,-97.38 1157.38,-82.61 1320,-53 1328.99,-51.36 1338.37,-49.3 1347.59,-47.05"/>
<polygon fill="midnightblue" stroke="midnightblue" points="850.75,-100.61 840.97,-104.68 851.15,-107.6 850.75,-100.61"/>
</g>
</g>
</svg>
