<?xml version="1.0" encoding="UTF-8" standalone="no"?>
<!DOCTYPE svg PUBLIC "-//W3C//DTD SVG 1.1//EN"
 "http://www.w3.org/Graphics/SVG/1.1/DTD/svg11.dtd">
<!-- Generated by graphviz version 2.43.0 (0)
 -->
<!-- Title: /home/runner/work/diffblue&#45;cbmc/diffblue&#45;cbmc/src/goto&#45;programs/remove_calls_no_body.h Pages: 1 -->
<svg width="725pt" height="239pt"
 viewBox="0.00 0.00 725.00 239.00" xmlns="http://www.w3.org/2000/svg" xmlns:xlink="http://www.w3.org/1999/xlink">
<g id="graph0" class="graph" transform="scale(1 1) rotate(0) translate(4 235)">
<title>/home/runner/work/diffblue&#45;cbmc/diffblue&#45;cbmc/src/goto&#45;programs/remove_calls_no_body.h</title>
<!-- Node1 -->
<g id="node1" class="node">
<title>Node1</title>
<g id="a_node1"><a xlink:title="Remove calls to functions without a body.">
<polygon fill="#bfbfbf" stroke="black" points="284,-178.5 284,-230.5 444,-230.5 444,-178.5 284,-178.5"/>
<text text-anchor="start" x="292" y="-218.5" font-family="Helvetica,sans-Serif" font-size="10.00">/home/runner/work/diffblue</text>
<text text-anchor="start" x="292" y="-207.5" font-family="Helvetica,sans-Serif" font-size="10.00">&#45;cbmc/diffblue&#45;cbmc/src</text>
<text text-anchor="start" x="292" y="-196.5" font-family="Helvetica,sans-Serif" font-size="10.00">/goto&#45;programs/remove_calls</text>
<text text-anchor="middle" x="364" y="-185.5" font-family="Helvetica,sans-Serif" font-size="10.00">_no_body.h</text>
</a>
</g>
</g>
<!-- Node2 -->
<g id="node2" class="node">
<title>Node2</title>
<g id="a_node2"><a xlink:href="goto__instrument__parse__options_8cpp.html" target="_top" xlink:title="Main Module.">
<polygon fill="none" stroke="black" points="0,-0.5 0,-52.5 182,-52.5 182,-0.5 0,-0.5"/>
<text text-anchor="start" x="8" y="-40.5" font-family="Helvetica,sans-Serif" font-size="10.00">/home/runner/work/diffblue</text>
<text text-anchor="start" x="8" y="-29.5" font-family="Helvetica,sans-Serif" font-size="10.00">&#45;cbmc/diffblue&#45;cbmc/src</text>
<text text-anchor="start" x="8" y="-18.5" font-family="Helvetica,sans-Serif" font-size="10.00">/goto&#45;instrument/goto_instrument</text>
<text text-anchor="middle" x="91" y="-7.5" font-family="Helvetica,sans-Serif" font-size="10.00">_parse_options.cpp</text>
</a>
</g>
</g>
<!-- Node1&#45;&gt;Node2 -->
<g id="edge1" class="edge">
<title>Node1&#45;&gt;Node2</title>
<path fill="none" stroke="midnightblue" d="M274.18,-188.09C239.23,-178.9 200.38,-164.47 170,-142 138.35,-118.59 114.98,-78.57 102.17,-52.58"/>
<polygon fill="midnightblue" stroke="midnightblue" points="273.37,-191.49 283.92,-190.54 275.08,-184.7 273.37,-191.49"/>
</g>
<!-- Node3 -->
<g id="node3" class="node">
<title>Node3</title>
<g id="a_node3"><a xlink:href="goto__instrument__parse__options_8h.html" target="_top" xlink:title="Command Line Parsing.">
<polygon fill="none" stroke="black" points="179,-89.5 179,-141.5 361,-141.5 361,-89.5 179,-89.5"/>
<text text-anchor="start" x="187" y="-129.5" font-family="Helvetica,sans-Serif" font-size="10.00">/home/runner/work/diffblue</text>
<text text-anchor="start" x="187" y="-118.5" font-family="Helvetica,sans-Serif" font-size="10.00">&#45;cbmc/diffblue&#45;cbmc/src</text>
<text text-anchor="start" x="187" y="-107.5" font-family="Helvetica,sans-Serif" font-size="10.00">/goto&#45;instrument/goto_instrument</text>
<text text-anchor="middle" x="270" y="-96.5" font-family="Helvetica,sans-Serif" font-size="10.00">_parse_options.h</text>
</a>
</g>
</g>
<!-- Node1&#45;&gt;Node3 -->
<g id="edge2" class="edge">
<title>Node1&#45;&gt;Node3</title>
<path fill="none" stroke="midnightblue" d="M329.28,-171.36C318.67,-161.54 307.16,-150.89 297.13,-141.61"/>
<polygon fill="midnightblue" stroke="midnightblue" points="327.09,-174.11 336.81,-178.34 331.85,-168.97 327.09,-174.11"/>
</g>
<!-- Node6 -->
<g id="node6" class="node">
<title>Node6</title>
<g id="a_node6"><a xlink:href="reachability__slicer_8cpp.html" target="_top" xlink:title="Reachability Slicer Consider the control flow graph of the goto program and a criterion,...">
<polygon fill="none" stroke="black" points="379.5,-89.5 379.5,-141.5 538.5,-141.5 538.5,-89.5 379.5,-89.5"/>
<text text-anchor="start" x="387.5" y="-129.5" font-family="Helvetica,sans-Serif" font-size="10.00">/home/runner/work/diffblue</text>
<text text-anchor="start" x="387.5" y="-118.5" font-family="Helvetica,sans-Serif" font-size="10.00">&#45;cbmc/diffblue&#45;cbmc/src</text>
<text text-anchor="start" x="387.5" y="-107.5" font-family="Helvetica,sans-Serif" font-size="10.00">/goto&#45;instrument/reachability</text>
<text text-anchor="middle" x="459" y="-96.5" font-family="Helvetica,sans-Serif" font-size="10.00">_slicer.cpp</text>
</a>
</g>
</g>
<!-- Node1&#45;&gt;Node6 -->
<g id="edge6" class="edge">
<title>Node1&#45;&gt;Node6</title>
<path fill="none" stroke="midnightblue" d="M399.09,-171.36C409.82,-161.54 421.45,-150.89 431.58,-141.61"/>
<polygon fill="midnightblue" stroke="midnightblue" points="396.49,-169 391.48,-178.34 401.22,-174.16 396.49,-169"/>
</g>
<!-- Node7 -->
<g id="node7" class="node">
<title>Node7</title>
<g id="a_node7"><a xlink:href="remove__calls__no__body_8cpp.html" target="_top" xlink:title="Remove calls to functions without a body.">
<polygon fill="none" stroke="black" points="557,-89.5 557,-141.5 717,-141.5 717,-89.5 557,-89.5"/>
<text text-anchor="start" x="565" y="-129.5" font-family="Helvetica,sans-Serif" font-size="10.00">/home/runner/work/diffblue</text>
<text text-anchor="start" x="565" y="-118.5" font-family="Helvetica,sans-Serif" font-size="10.00">&#45;cbmc/diffblue&#45;cbmc/src</text>
<text text-anchor="start" x="565" y="-107.5" font-family="Helvetica,sans-Serif" font-size="10.00">/goto&#45;programs/remove_calls</text>
<text text-anchor="middle" x="637" y="-96.5" font-family="Helvetica,sans-Serif" font-size="10.00">_no_body.cpp</text>
</a>
</g>
</g>
<!-- Node1&#45;&gt;Node7 -->
<g id="edge7" class="edge">
<title>Node1&#45;&gt;Node7</title>
<path fill="none" stroke="midnightblue" d="M452.56,-175.28C486.68,-164.4 525.38,-152.07 558.49,-141.52"/>
<polygon fill="midnightblue" stroke="midnightblue" points="451.06,-172.08 442.6,-178.45 453.19,-178.75 451.06,-172.08"/>
</g>
<!-- Node3&#45;&gt;Node2 -->
<g id="edge5" class="edge">
<title>Node3&#45;&gt;Node2</title>
<path fill="none" stroke="midnightblue" d="M209.13,-84.92C187.52,-74.41 163.43,-62.7 142.66,-52.61"/>
<polygon fill="midnightblue" stroke="midnightblue" points="207.7,-88.11 218.23,-89.34 210.76,-81.82 207.7,-88.11"/>
</g>
<!-- Node4 -->
<g id="node4" class="node">
<title>Node4</title>
<g id="a_node4"><a xlink:href="goto__instrument__languages_8cpp.html" target="_top" xlink:title="Language Registration.">
<polygon fill="none" stroke="black" points="200,-0.5 200,-52.5 382,-52.5 382,-0.5 200,-0.5"/>
<text text-anchor="start" x="208" y="-40.5" font-family="Helvetica,sans-Serif" font-size="10.00">/home/runner/work/diffblue</text>
<text text-anchor="start" x="208" y="-29.5" font-family="Helvetica,sans-Serif" font-size="10.00">&#45;cbmc/diffblue&#45;cbmc/src</text>
<text text-anchor="start" x="208" y="-18.5" font-family="Helvetica,sans-Serif" font-size="10.00">/goto&#45;instrument/goto_instrument</text>
<text text-anchor="middle" x="291" y="-7.5" font-family="Helvetica,sans-Serif" font-size="10.00">_languages.cpp</text>
</a>
</g>
</g>
<!-- Node3&#45;&gt;Node4 -->
<g id="edge3" class="edge">
<title>Node3&#45;&gt;Node4</title>
<path fill="none" stroke="midnightblue" d="M278.45,-79.48C280.62,-70.49 282.92,-60.99 284.94,-52.61"/>
<polygon fill="midnightblue" stroke="midnightblue" points="275.02,-78.79 276.07,-89.34 281.82,-80.44 275.02,-78.79"/>
</g>
<!-- Node5 -->
<g id="node5" class="node">
<title>Node5</title>
<g id="a_node5"><a xlink:href="goto__instrument__main_8cpp.html" target="_top" xlink:title="Main Module.">
<polygon fill="none" stroke="black" points="400,-0.5 400,-52.5 582,-52.5 582,-0.5 400,-0.5"/>
<text text-anchor="start" x="408" y="-40.5" font-family="Helvetica,sans-Serif" font-size="10.00">/home/runner/work/diffblue</text>
<text text-anchor="start" x="408" y="-29.5" font-family="Helvetica,sans-Serif" font-size="10.00">&#45;cbmc/diffblue&#45;cbmc/src</text>
<text text-anchor="start" x="408" y="-18.5" font-family="Helvetica,sans-Serif" font-size="10.00">/goto&#45;instrument/goto_instrument</text>
<text text-anchor="middle" x="491" y="-7.5" font-family="Helvetica,sans-Serif" font-size="10.00">_main.cpp</text>
</a>
</g>
</g>
<!-- Node3&#45;&gt;Node5 -->
<g id="edge4" class="edge">
<title>Node3&#45;&gt;Node5</title>
<path fill="none" stroke="midnightblue" d="M343.12,-85.72C370.39,-74.98 401.1,-62.89 427.44,-52.52"/>
<polygon fill="midnightblue" stroke="midnightblue" points="341.65,-82.53 333.63,-89.45 344.21,-89.05 341.65,-82.53"/>
</g>
</g>
</svg>
