<?xml version="1.0" encoding="UTF-8" standalone="no"?>
<!DOCTYPE svg PUBLIC "-//W3C//DTD SVG 1.1//EN"
 "http://www.w3.org/Graphics/SVG/1.1/DTD/svg11.dtd">
<!-- Generated by graphviz version 2.43.0 (0)
 -->
<!-- Title: /home/runner/work/diffblue&#45;cbmc/diffblue&#45;cbmc/src/goto&#45;symex/renaming_level.h Pages: 1 -->
<svg width="3698pt" height="640pt"
 viewBox="0.00 0.00 3698.00 640.00" xmlns="http://www.w3.org/2000/svg" xmlns:xlink="http://www.w3.org/1999/xlink">
<g id="graph0" class="graph" transform="scale(1 1) rotate(0) translate(4 636)">
<title>/home/runner/work/diffblue&#45;cbmc/diffblue&#45;cbmc/src/goto&#45;symex/renaming_level.h</title>
<!-- Node1 -->
<g id="node1" class="node">
<title>Node1</title>
<g id="a_node1"><a xlink:title="Renaming levels.">
<polygon fill="#bfbfbf" stroke="black" points="2918.5,-590.5 2918.5,-631.5 3084.5,-631.5 3084.5,-590.5 2918.5,-590.5"/>
<text text-anchor="start" x="2926.5" y="-619.5" font-family="Helvetica,sans-Serif" font-size="10.00">/home/runner/work/diffblue</text>
<text text-anchor="start" x="2926.5" y="-608.5" font-family="Helvetica,sans-Serif" font-size="10.00">&#45;cbmc/diffblue&#45;cbmc/src</text>
<text text-anchor="middle" x="3001.5" y="-597.5" font-family="Helvetica,sans-Serif" font-size="10.00">/goto&#45;symex/renaming_level.h</text>
</a>
</g>
</g>
<!-- Node2 -->
<g id="node2" class="node">
<title>Node2</title>
<g id="a_node2"><a xlink:href="goto__state_8h.html" target="_top" xlink:title="goto_statet class definition">
<polygon fill="none" stroke="black" points="2727,-512.5 2727,-553.5 2876,-553.5 2876,-512.5 2727,-512.5"/>
<text text-anchor="start" x="2735" y="-541.5" font-family="Helvetica,sans-Serif" font-size="10.00">/home/runner/work/diffblue</text>
<text text-anchor="start" x="2735" y="-530.5" font-family="Helvetica,sans-Serif" font-size="10.00">&#45;cbmc/diffblue&#45;cbmc/src</text>
<text text-anchor="middle" x="2801.5" y="-519.5" font-family="Helvetica,sans-Serif" font-size="10.00">/goto&#45;symex/goto_state.h</text>
</a>
</g>
</g>
<!-- Node1&#45;&gt;Node2 -->
<g id="edge1" class="edge">
<title>Node1&#45;&gt;Node2</title>
<path fill="none" stroke="midnightblue" d="M2940.31,-586.75C2912.31,-576.11 2879.52,-563.65 2852.83,-553.51"/>
<polygon fill="midnightblue" stroke="midnightblue" points="2939.4,-590.15 2950,-590.43 2941.89,-583.6 2939.4,-590.15"/>
</g>
<!-- Node5 -->
<g id="node5" class="node">
<title>Node5</title>
<g id="a_node5"><a xlink:href="goto__symex__state_8h.html" target="_top" xlink:title="Symbolic Execution.">
<polygon fill="none" stroke="black" points="2793.5,-273 2793.5,-314 2973.5,-314 2973.5,-273 2793.5,-273"/>
<text text-anchor="start" x="2801.5" y="-302" font-family="Helvetica,sans-Serif" font-size="10.00">/home/runner/work/diffblue</text>
<text text-anchor="start" x="2801.5" y="-291" font-family="Helvetica,sans-Serif" font-size="10.00">&#45;cbmc/diffblue&#45;cbmc/src</text>
<text text-anchor="middle" x="2883.5" y="-280" font-family="Helvetica,sans-Serif" font-size="10.00">/goto&#45;symex/goto_symex_state.h</text>
</a>
</g>
</g>
<!-- Node1&#45;&gt;Node5 -->
<g id="edge42" class="edge">
<title>Node1&#45;&gt;Node5</title>
<path fill="none" stroke="midnightblue" d="M2990.59,-580.84C2966.85,-517.35 2910.99,-368 2890.88,-314.23"/>
<polygon fill="midnightblue" stroke="midnightblue" points="2987.34,-582.12 2994.12,-590.26 2993.89,-579.67 2987.34,-582.12"/>
</g>
<!-- Node47 -->
<g id="node27" class="node">
<title>Node47</title>
<g id="a_node27"><a xlink:href="renaming__level_8cpp.html" target="_top" xlink:title="Renaming levels.">
<polygon fill="none" stroke="black" points="3513,-184 3513,-225 3690,-225 3690,-184 3513,-184"/>
<text text-anchor="start" x="3521" y="-213" font-family="Helvetica,sans-Serif" font-size="10.00">/home/runner/work/diffblue</text>
<text text-anchor="start" x="3521" y="-202" font-family="Helvetica,sans-Serif" font-size="10.00">&#45;cbmc/diffblue&#45;cbmc/src</text>
<text text-anchor="middle" x="3601.5" y="-191" font-family="Helvetica,sans-Serif" font-size="10.00">/goto&#45;symex/renaming_level.cpp</text>
</a>
</g>
</g>
<!-- Node1&#45;&gt;Node47 -->
<g id="edge45" class="edge">
<title>Node1&#45;&gt;Node47</title>
<path fill="none" stroke="midnightblue" d="M3001.5,-579.91C3001.5,-548.87 3001.5,-499.05 3001.5,-456 3001.5,-456 3001.5,-456 3001.5,-376 3001.5,-369.21 3370,-268.35 3529.42,-225.03"/>
<polygon fill="midnightblue" stroke="midnightblue" points="2998,-580.06 3001.5,-590.07 3005,-580.07 2998,-580.06"/>
</g>
<!-- Node72 -->
<g id="node35" class="node">
<title>Node72</title>
<g id="a_node35"><a xlink:href="postcondition_8cpp.html" target="_top" xlink:title="Symbolic Execution.">
<polygon fill="none" stroke="black" points="3029,-512.5 3029,-553.5 3196,-553.5 3196,-512.5 3029,-512.5"/>
<text text-anchor="start" x="3037" y="-541.5" font-family="Helvetica,sans-Serif" font-size="10.00">/home/runner/work/diffblue</text>
<text text-anchor="start" x="3037" y="-530.5" font-family="Helvetica,sans-Serif" font-size="10.00">&#45;cbmc/diffblue&#45;cbmc/src</text>
<text text-anchor="middle" x="3112.5" y="-519.5" font-family="Helvetica,sans-Serif" font-size="10.00">/goto&#45;symex/postcondition.cpp</text>
</a>
</g>
</g>
<!-- Node1&#45;&gt;Node72 -->
<g id="edge43" class="edge">
<title>Node1&#45;&gt;Node72</title>
<path fill="none" stroke="midnightblue" d="M3038.55,-584.64C3053.37,-574.49 3070.17,-562.98 3084.01,-553.51"/>
<polygon fill="midnightblue" stroke="midnightblue" points="3036.36,-581.89 3030.09,-590.43 3040.31,-587.67 3036.36,-581.89"/>
</g>
<!-- Node73 -->
<g id="node36" class="node">
<title>Node73</title>
<g id="a_node36"><a xlink:href="precondition_8cpp.html" target="_top" xlink:title="Symbolic Execution.">
<polygon fill="none" stroke="black" points="3214.5,-512.5 3214.5,-553.5 3376.5,-553.5 3376.5,-512.5 3214.5,-512.5"/>
<text text-anchor="start" x="3222.5" y="-541.5" font-family="Helvetica,sans-Serif" font-size="10.00">/home/runner/work/diffblue</text>
<text text-anchor="start" x="3222.5" y="-530.5" font-family="Helvetica,sans-Serif" font-size="10.00">&#45;cbmc/diffblue&#45;cbmc/src</text>
<text text-anchor="middle" x="3295.5" y="-519.5" font-family="Helvetica,sans-Serif" font-size="10.00">/goto&#45;symex/precondition.cpp</text>
</a>
</g>
</g>
<!-- Node1&#45;&gt;Node73 -->
<g id="edge44" class="edge">
<title>Node1&#45;&gt;Node73</title>
<path fill="none" stroke="midnightblue" d="M3086.9,-587.92C3129.01,-577.04 3179.36,-564.02 3220.04,-553.51"/>
<polygon fill="midnightblue" stroke="midnightblue" points="3086.02,-584.54 3077.21,-590.43 3087.77,-591.31 3086.02,-584.54"/>
</g>
<!-- Node3 -->
<g id="node3" class="node">
<title>Node3</title>
<g id="a_node3"><a xlink:href="frame_8h.html" target="_top" xlink:title="Class for stack frames.">
<polygon fill="none" stroke="black" points="2707,-434.5 2707,-475.5 2856,-475.5 2856,-434.5 2707,-434.5"/>
<text text-anchor="start" x="2715" y="-463.5" font-family="Helvetica,sans-Serif" font-size="10.00">/home/runner/work/diffblue</text>
<text text-anchor="start" x="2715" y="-452.5" font-family="Helvetica,sans-Serif" font-size="10.00">&#45;cbmc/diffblue&#45;cbmc/src</text>
<text text-anchor="middle" x="2781.5" y="-441.5" font-family="Helvetica,sans-Serif" font-size="10.00">/goto&#45;symex/frame.h</text>
</a>
</g>
</g>
<!-- Node2&#45;&gt;Node3 -->
<g id="edge2" class="edge">
<title>Node2&#45;&gt;Node3</title>
<path fill="none" stroke="midnightblue" d="M2793.76,-502.59C2791.37,-493.51 2788.8,-483.74 2786.63,-475.51"/>
<polygon fill="midnightblue" stroke="midnightblue" points="2790.42,-503.65 2796.35,-512.43 2797.19,-501.87 2790.42,-503.65"/>
</g>
<!-- Node2&#45;&gt;Node5 -->
<g id="edge41" class="edge">
<title>Node2&#45;&gt;Node5</title>
<path fill="none" stroke="midnightblue" d="M2839.82,-505.98C2849.42,-497.56 2858.65,-487.4 2864.5,-476 2891.92,-422.59 2889.15,-348.8 2885.87,-314.07"/>
<polygon fill="midnightblue" stroke="midnightblue" points="2837.58,-503.3 2832.1,-512.36 2842.04,-508.69 2837.58,-503.3"/>
</g>
<!-- Node8 -->
<g id="node8" class="node">
<title>Node8</title>
<g id="a_node8"><a xlink:href="goto__state_8cpp.html" target="_top" xlink:title=" ">
<polygon fill="none" stroke="black" points="1235,-184 1235,-225 1388,-225 1388,-184 1235,-184"/>
<text text-anchor="start" x="1243" y="-213" font-family="Helvetica,sans-Serif" font-size="10.00">/home/runner/work/diffblue</text>
<text text-anchor="start" x="1243" y="-202" font-family="Helvetica,sans-Serif" font-size="10.00">&#45;cbmc/diffblue&#45;cbmc/src</text>
<text text-anchor="middle" x="1311.5" y="-191" font-family="Helvetica,sans-Serif" font-size="10.00">/goto&#45;symex/goto_state.cpp</text>
</a>
</g>
</g>
<!-- Node2&#45;&gt;Node8 -->
<g id="edge40" class="edge">
<title>Node2&#45;&gt;Node8</title>
<path fill="none" stroke="midnightblue" d="M2716.91,-516.34C2497.56,-475.2 1892.96,-358.43 1396.5,-231 1389.34,-229.16 1381.87,-227.12 1374.47,-225.01"/>
<polygon fill="midnightblue" stroke="midnightblue" points="2716.28,-519.78 2726.75,-518.18 2717.56,-512.9 2716.28,-519.78"/>
</g>
<!-- Node4 -->
<g id="node4" class="node">
<title>Node4</title>
<g id="a_node4"><a xlink:href="call__stack_8h.html" target="_top" xlink:title=" ">
<polygon fill="none" stroke="black" points="2707,-356.5 2707,-397.5 2856,-397.5 2856,-356.5 2707,-356.5"/>
<text text-anchor="start" x="2715" y="-385.5" font-family="Helvetica,sans-Serif" font-size="10.00">/home/runner/work/diffblue</text>
<text text-anchor="start" x="2715" y="-374.5" font-family="Helvetica,sans-Serif" font-size="10.00">&#45;cbmc/diffblue&#45;cbmc/src</text>
<text text-anchor="middle" x="2781.5" y="-363.5" font-family="Helvetica,sans-Serif" font-size="10.00">/goto&#45;symex/call_stack.h</text>
</a>
</g>
</g>
<!-- Node3&#45;&gt;Node4 -->
<g id="edge3" class="edge">
<title>Node3&#45;&gt;Node4</title>
<path fill="none" stroke="midnightblue" d="M2781.5,-424.3C2781.5,-415.3 2781.5,-405.65 2781.5,-397.51"/>
<polygon fill="midnightblue" stroke="midnightblue" points="2778,-424.43 2781.5,-434.43 2785,-424.43 2778,-424.43"/>
</g>
<!-- Node4&#45;&gt;Node5 -->
<g id="edge4" class="edge">
<title>Node4&#45;&gt;Node5</title>
<path fill="none" stroke="midnightblue" d="M2813.76,-350.22C2828.37,-338.55 2845.36,-324.97 2858.91,-314.14"/>
<polygon fill="midnightblue" stroke="midnightblue" points="2811.56,-347.5 2805.93,-356.48 2815.93,-352.97 2811.56,-347.5"/>
</g>
<!-- Node71 -->
<g id="node34" class="node">
<title>Node71</title>
<g id="a_node34"><a xlink:href="java__enum__static__init__unwind__handler_8cpp.html" target="_top" xlink:title="Unwind loops in static initializers.">
<polygon fill="none" stroke="black" points="2603.5,-267.5 2603.5,-319.5 2775.5,-319.5 2775.5,-267.5 2603.5,-267.5"/>
<text text-anchor="start" x="2611.5" y="-307.5" font-family="Helvetica,sans-Serif" font-size="10.00">/home/runner/work/diffblue</text>
<text text-anchor="start" x="2611.5" y="-296.5" font-family="Helvetica,sans-Serif" font-size="10.00">&#45;cbmc/diffblue&#45;cbmc/jbmc</text>
<text text-anchor="start" x="2611.5" y="-285.5" font-family="Helvetica,sans-Serif" font-size="10.00">/src/java_bytecode/java_enum</text>
<text text-anchor="middle" x="2689.5" y="-274.5" font-family="Helvetica,sans-Serif" font-size="10.00">_static_init_unwind_handler.cpp</text>
</a>
</g>
</g>
<!-- Node4&#45;&gt;Node71 -->
<g id="edge39" class="edge">
<title>Node4&#45;&gt;Node71</title>
<path fill="none" stroke="midnightblue" d="M2751.61,-349.52C2740.77,-339.92 2728.55,-329.09 2717.84,-319.61"/>
<polygon fill="midnightblue" stroke="midnightblue" points="2749.42,-352.26 2759.23,-356.27 2754.06,-347.02 2749.42,-352.26"/>
</g>
<!-- Node6 -->
<g id="node6" class="node">
<title>Node6</title>
<g id="a_node6"><a xlink:href="complexity__limiter_8cpp.html" target="_top" xlink:title=" ">
<polygon fill="none" stroke="black" points="3134,-6 3134,-47 3327,-47 3327,-6 3134,-6"/>
<text text-anchor="start" x="3142" y="-35" font-family="Helvetica,sans-Serif" font-size="10.00">/home/runner/work/diffblue</text>
<text text-anchor="start" x="3142" y="-24" font-family="Helvetica,sans-Serif" font-size="10.00">&#45;cbmc/diffblue&#45;cbmc/src</text>
<text text-anchor="middle" x="3230.5" y="-13" font-family="Helvetica,sans-Serif" font-size="10.00">/goto&#45;symex/complexity_limiter.cpp</text>
</a>
</g>
</g>
<!-- Node5&#45;&gt;Node6 -->
<g id="edge5" class="edge">
<title>Node5&#45;&gt;Node6</title>
<path fill="none" stroke="midnightblue" d="M2968.76,-270.76C2975.09,-269.41 2981.38,-268.13 2987.5,-267 3050.05,-255.41 3229.44,-278.73 3271.5,-231 3313.23,-183.65 3289.79,-149.4 3271.5,-89 3266.85,-73.65 3256.97,-58.63 3248.07,-47.27"/>
<polygon fill="midnightblue" stroke="midnightblue" points="2967.84,-267.38 2958.83,-272.96 2969.35,-274.22 2967.84,-267.38"/>
</g>
<!-- Node7 -->
<g id="node7" class="node">
<title>Node7</title>
<g id="a_node7"><a xlink:href="field__sensitivity_8cpp.html" target="_top" xlink:title=" ">
<polygon fill="none" stroke="black" points="3318,-184 3318,-225 3495,-225 3495,-184 3318,-184"/>
<text text-anchor="start" x="3326" y="-213" font-family="Helvetica,sans-Serif" font-size="10.00">/home/runner/work/diffblue</text>
<text text-anchor="start" x="3326" y="-202" font-family="Helvetica,sans-Serif" font-size="10.00">&#45;cbmc/diffblue&#45;cbmc/src</text>
<text text-anchor="middle" x="3406.5" y="-191" font-family="Helvetica,sans-Serif" font-size="10.00">/goto&#45;symex/field_sensitivity.cpp</text>
</a>
</g>
</g>
<!-- Node5&#45;&gt;Node7 -->
<g id="edge6" class="edge">
<title>Node5&#45;&gt;Node7</title>
<path fill="none" stroke="midnightblue" d="M2968.38,-270.75C2974.83,-269.39 2981.25,-268.12 2987.5,-267 3127.09,-242.07 3164.97,-256.25 3304.5,-231 3313.84,-229.31 3323.59,-227.25 3333.21,-225.05"/>
<polygon fill="midnightblue" stroke="midnightblue" points="2967.26,-267.41 2958.24,-272.97 2968.76,-274.25 2967.26,-267.41"/>
</g>
<!-- Node5&#45;&gt;Node8 -->
<g id="edge7" class="edge">
<title>Node5&#45;&gt;Node8</title>
<path fill="none" stroke="midnightblue" d="M2806.13,-270.8C2798.86,-269.3 2791.57,-267.99 2784.5,-267 2173.36,-181.49 2005.84,-328.52 1396.5,-231 1387.52,-229.56 1378.17,-227.43 1369.09,-225.01"/>
<polygon fill="midnightblue" stroke="midnightblue" points="2805.49,-274.24 2816.01,-272.96 2806.98,-267.4 2805.49,-274.24"/>
</g>
<!-- Node9 -->
<g id="node9" class="node">
<title>Node9</title>
<g id="a_node9"><a xlink:href="goto__symex__state_8cpp.html" target="_top" xlink:title="Symbolic Execution.">
<polygon fill="none" stroke="black" points="1406,-184 1406,-225 1597,-225 1597,-184 1406,-184"/>
<text text-anchor="start" x="1414" y="-213" font-family="Helvetica,sans-Serif" font-size="10.00">/home/runner/work/diffblue</text>
<text text-anchor="start" x="1414" y="-202" font-family="Helvetica,sans-Serif" font-size="10.00">&#45;cbmc/diffblue&#45;cbmc/src</text>
<text text-anchor="middle" x="1501.5" y="-191" font-family="Helvetica,sans-Serif" font-size="10.00">/goto&#45;symex/goto_symex_state.cpp</text>
</a>
</g>
</g>
<!-- Node5&#45;&gt;Node9 -->
<g id="edge8" class="edge">
<title>Node5&#45;&gt;Node9</title>
<path fill="none" stroke="midnightblue" d="M2806.13,-270.83C2798.86,-269.32 2791.57,-268.01 2784.5,-267 2265.92,-193.22 2125.58,-301.19 1606.5,-231 1595.72,-229.54 1584.43,-227.44 1573.42,-225.05"/>
<polygon fill="midnightblue" stroke="midnightblue" points="2805.48,-274.28 2816,-273 2806.98,-267.44 2805.48,-274.28"/>
</g>
<!-- Node10 -->
<g id="node10" class="node">
<title>Node10</title>
<g id="a_node10"><a xlink:href="path__storage_8h.html" target="_top" xlink:title="Storage of symbolic execution paths to resume.">
<polygon fill="none" stroke="black" points="1615.5,-184 1615.5,-225 1769.5,-225 1769.5,-184 1615.5,-184"/>
<text text-anchor="start" x="1623.5" y="-213" font-family="Helvetica,sans-Serif" font-size="10.00">/home/runner/work/diffblue</text>
<text text-anchor="start" x="1623.5" y="-202" font-family="Helvetica,sans-Serif" font-size="10.00">&#45;cbmc/diffblue&#45;cbmc/src</text>
<text text-anchor="middle" x="1692.5" y="-191" font-family="Helvetica,sans-Serif" font-size="10.00">/goto&#45;symex/path_storage.h</text>
</a>
</g>
</g>
<!-- Node5&#45;&gt;Node10 -->
<g id="edge9" class="edge">
<title>Node5&#45;&gt;Node10</title>
<path fill="none" stroke="midnightblue" d="M2804.87,-270.77C2798.02,-269.32 2791.16,-268.03 2784.5,-267 2407.36,-208.39 1949.26,-203.9 1769.83,-204.68"/>
<polygon fill="midnightblue" stroke="midnightblue" points="2804.37,-274.24 2814.89,-272.98 2805.88,-267.41 2804.37,-274.24"/>
</g>
<!-- Node5&#45;&gt;Node47 -->
<g id="edge30" class="edge">
<title>Node5&#45;&gt;Node47</title>
<path fill="none" stroke="midnightblue" d="M2966.72,-270.77C2973.72,-269.35 2980.71,-268.06 2987.5,-267 3215.07,-231.44 3277.23,-268.45 3504.5,-231 3514.04,-229.43 3524,-227.34 3533.75,-225.03"/>
<polygon fill="midnightblue" stroke="midnightblue" points="2965.53,-267.44 2956.48,-272.94 2966.99,-274.29 2965.53,-267.44"/>
</g>
<!-- Node48 -->
<g id="node28" class="node">
<title>Node48</title>
<g id="a_node28"><a xlink:href="shadow__memory_8cpp.html" target="_top" xlink:title="Symex Shadow Memory Instrumentation.">
<polygon fill="none" stroke="black" points="2694.5,-95 2694.5,-136 2878.5,-136 2878.5,-95 2694.5,-95"/>
<text text-anchor="start" x="2702.5" y="-124" font-family="Helvetica,sans-Serif" font-size="10.00">/home/runner/work/diffblue</text>
<text text-anchor="start" x="2702.5" y="-113" font-family="Helvetica,sans-Serif" font-size="10.00">&#45;cbmc/diffblue&#45;cbmc/src</text>
<text text-anchor="middle" x="2786.5" y="-102" font-family="Helvetica,sans-Serif" font-size="10.00">/goto&#45;symex/shadow_memory.cpp</text>
</a>
</g>
</g>
<!-- Node5&#45;&gt;Node48 -->
<g id="edge31" class="edge">
<title>Node5&#45;&gt;Node48</title>
<path fill="none" stroke="midnightblue" d="M2800.36,-270.24C2744.55,-254.91 2680.51,-236.37 2676.5,-231 2662.41,-212.12 2664.58,-198.32 2676.5,-178 2687.63,-159.03 2706.97,-145.48 2726.36,-136.01"/>
<polygon fill="midnightblue" stroke="midnightblue" points="2799.74,-273.7 2810.31,-272.97 2801.58,-266.95 2799.74,-273.7"/>
</g>
<!-- Node49 -->
<g id="node29" class="node">
<title>Node49</title>
<g id="a_node29"><a xlink:href="shadow__memory__util_8h.html" target="_top" xlink:title="Symex Shadow Memory Instrumentation Utilities.">
<polygon fill="none" stroke="black" points="2686,-184 2686,-225 2881,-225 2881,-184 2686,-184"/>
<text text-anchor="start" x="2694" y="-213" font-family="Helvetica,sans-Serif" font-size="10.00">/home/runner/work/diffblue</text>
<text text-anchor="start" x="2694" y="-202" font-family="Helvetica,sans-Serif" font-size="10.00">&#45;cbmc/diffblue&#45;cbmc/src</text>
<text text-anchor="middle" x="2783.5" y="-191" font-family="Helvetica,sans-Serif" font-size="10.00">/goto&#45;symex/shadow_memory_util.h</text>
</a>
</g>
</g>
<!-- Node5&#45;&gt;Node49 -->
<g id="edge32" class="edge">
<title>Node5&#45;&gt;Node49</title>
<path fill="none" stroke="midnightblue" d="M2853.19,-266.13C2838.04,-252.95 2820.02,-237.27 2806.1,-225.16"/>
<polygon fill="midnightblue" stroke="midnightblue" points="2850.97,-268.84 2860.81,-272.76 2855.56,-263.55 2850.97,-268.84"/>
</g>
<!-- Node51 -->
<g id="node31" class="node">
<title>Node51</title>
<g id="a_node31"><a xlink:href="symex__assign_8cpp.html" target="_top" xlink:title="Symbolic Execution.">
<polygon fill="none" stroke="black" points="2899,-184 2899,-225 3070,-225 3070,-184 2899,-184"/>
<text text-anchor="start" x="2907" y="-213" font-family="Helvetica,sans-Serif" font-size="10.00">/home/runner/work/diffblue</text>
<text text-anchor="start" x="2907" y="-202" font-family="Helvetica,sans-Serif" font-size="10.00">&#45;cbmc/diffblue&#45;cbmc/src</text>
<text text-anchor="middle" x="2984.5" y="-191" font-family="Helvetica,sans-Serif" font-size="10.00">/goto&#45;symex/symex_assign.cpp</text>
</a>
</g>
</g>
<!-- Node5&#45;&gt;Node51 -->
<g id="edge35" class="edge">
<title>Node5&#45;&gt;Node51</title>
<path fill="none" stroke="midnightblue" d="M2913.87,-266.34C2929.18,-253.15 2947.44,-237.42 2961.56,-225.26"/>
<polygon fill="midnightblue" stroke="midnightblue" points="2911.46,-263.8 2906.17,-272.98 2916.03,-269.1 2911.46,-263.8"/>
</g>
<!-- Node52 -->
<g id="node32" class="node">
<title>Node52</title>
<g id="a_node32"><a xlink:href="symex__complexity__limit__exceeded__action_8h.html" target="_top" xlink:title=" ">
<polygon fill="none" stroke="black" points="3088.5,-178.5 3088.5,-230.5 3262.5,-230.5 3262.5,-178.5 3088.5,-178.5"/>
<text text-anchor="start" x="3096.5" y="-218.5" font-family="Helvetica,sans-Serif" font-size="10.00">/home/runner/work/diffblue</text>
<text text-anchor="start" x="3096.5" y="-207.5" font-family="Helvetica,sans-Serif" font-size="10.00">&#45;cbmc/diffblue&#45;cbmc/src</text>
<text text-anchor="start" x="3096.5" y="-196.5" font-family="Helvetica,sans-Serif" font-size="10.00">/goto&#45;symex/symex_complexity</text>
<text text-anchor="middle" x="3175.5" y="-185.5" font-family="Helvetica,sans-Serif" font-size="10.00">_limit_exceeded_action.h</text>
</a>
</g>
</g>
<!-- Node5&#45;&gt;Node52 -->
<g id="edge36" class="edge">
<title>Node5&#45;&gt;Node52</title>
<path fill="none" stroke="midnightblue" d="M2958.61,-270.12C2999.28,-258 3049.63,-243 3091.58,-230.5"/>
<polygon fill="midnightblue" stroke="midnightblue" points="2957.61,-266.77 2949.03,-272.98 2959.61,-273.47 2957.61,-266.77"/>
</g>
<!-- Node11 -->
<g id="node11" class="node">
<title>Node11</title>
<g id="a_node11"><a xlink:href="cbmc__parse__options_8cpp.html" target="_top" xlink:title="CBMC Command Line Option Processing.">
<polygon fill="none" stroke="black" points="2278,-6 2278,-47 2447,-47 2447,-6 2278,-6"/>
<text text-anchor="start" x="2286" y="-35" font-family="Helvetica,sans-Serif" font-size="10.00">/home/runner/work/diffblue</text>
<text text-anchor="start" x="2286" y="-24" font-family="Helvetica,sans-Serif" font-size="10.00">&#45;cbmc/diffblue&#45;cbmc/src</text>
<text text-anchor="middle" x="2362.5" y="-13" font-family="Helvetica,sans-Serif" font-size="10.00">/cbmc/cbmc_parse_options.cpp</text>
</a>
</g>
</g>
<!-- Node10&#45;&gt;Node11 -->
<g id="edge10" class="edge">
<title>Node10&#45;&gt;Node11</title>
<path fill="none" stroke="midnightblue" d="M1779.98,-203.89C1925.45,-203.01 2209.33,-194.39 2292.5,-142 2301.67,-136.23 2334.47,-78.4 2351.72,-47.21"/>
<polygon fill="midnightblue" stroke="midnightblue" points="1779.73,-200.39 1769.75,-203.94 1779.76,-207.39 1779.73,-200.39"/>
</g>
<!-- Node12 -->
<g id="node12" class="node">
<title>Node12</title>
<g id="a_node12"><a xlink:href="multi__path__symex__only__checker_8h.html" target="_top" xlink:title="Goto Checker using Multi&#45;Path Symbolic Execution only (no SAT solving)">
<polygon fill="none" stroke="red" points="2339,-89.5 2339,-141.5 2488,-141.5 2488,-89.5 2339,-89.5"/>
<text text-anchor="start" x="2347" y="-129.5" font-family="Helvetica,sans-Serif" font-size="10.00">/home/runner/work/diffblue</text>
<text text-anchor="start" x="2347" y="-118.5" font-family="Helvetica,sans-Serif" font-size="10.00">&#45;cbmc/diffblue&#45;cbmc/src</text>
<text text-anchor="start" x="2347" y="-107.5" font-family="Helvetica,sans-Serif" font-size="10.00">/goto&#45;checker/multi_path</text>
<text text-anchor="middle" x="2413.5" y="-96.5" font-family="Helvetica,sans-Serif" font-size="10.00">_symex_only_checker.h</text>
</a>
</g>
</g>
<!-- Node10&#45;&gt;Node12 -->
<g id="edge11" class="edge">
<title>Node10&#45;&gt;Node12</title>
<path fill="none" stroke="midnightblue" d="M1779.74,-200.13C1902.49,-194.24 2132.75,-178.96 2325.5,-142 2329.87,-141.16 2334.34,-140.2 2338.84,-139.16"/>
<polygon fill="midnightblue" stroke="midnightblue" points="1779.47,-196.64 1769.64,-200.61 1779.8,-203.64 1779.47,-196.64"/>
</g>
<!-- Node22 -->
<g id="node13" class="node">
<title>Node22</title>
<g id="a_node13"><a xlink:href="single__loop__incremental__symex__checker_8h.html" target="_top" xlink:title="Goto Checker using multi&#45;path symbolic execution with incremental unwinding of a specified loop.">
<polygon fill="none" stroke="red" points="2506.5,-89.5 2506.5,-141.5 2676.5,-141.5 2676.5,-89.5 2506.5,-89.5"/>
<text text-anchor="start" x="2514.5" y="-129.5" font-family="Helvetica,sans-Serif" font-size="10.00">/home/runner/work/diffblue</text>
<text text-anchor="start" x="2514.5" y="-118.5" font-family="Helvetica,sans-Serif" font-size="10.00">&#45;cbmc/diffblue&#45;cbmc/src</text>
<text text-anchor="start" x="2514.5" y="-107.5" font-family="Helvetica,sans-Serif" font-size="10.00">/goto&#45;checker/single_loop</text>
<text text-anchor="middle" x="2591.5" y="-96.5" font-family="Helvetica,sans-Serif" font-size="10.00">_incremental_symex_checker.h</text>
</a>
</g>
</g>
<!-- Node10&#45;&gt;Node22 -->
<g id="edge13" class="edge">
<title>Node10&#45;&gt;Node22</title>
<path fill="none" stroke="midnightblue" d="M1779.97,-202.12C1928.36,-198.59 2238.44,-186.11 2496.5,-142 2499.78,-141.44 2503.12,-140.82 2506.47,-140.14"/>
<polygon fill="midnightblue" stroke="midnightblue" points="1779.49,-198.63 1769.57,-202.36 1779.65,-205.63 1779.49,-198.63"/>
</g>
<!-- Node24 -->
<g id="node14" class="node">
<title>Node24</title>
<g id="a_node14"><a xlink:href="single__path__symex__only__checker_8cpp.html" target="_top" xlink:title="Goto Checker using Single Path Symbolic Execution only.">
<polygon fill="none" stroke="black" points="0,-0.5 0,-52.5 149,-52.5 149,-0.5 0,-0.5"/>
<text text-anchor="start" x="8" y="-40.5" font-family="Helvetica,sans-Serif" font-size="10.00">/home/runner/work/diffblue</text>
<text text-anchor="start" x="8" y="-29.5" font-family="Helvetica,sans-Serif" font-size="10.00">&#45;cbmc/diffblue&#45;cbmc/src</text>
<text text-anchor="start" x="8" y="-18.5" font-family="Helvetica,sans-Serif" font-size="10.00">/goto&#45;checker/single_path</text>
<text text-anchor="middle" x="74.5" y="-7.5" font-family="Helvetica,sans-Serif" font-size="10.00">_symex_only_checker.cpp</text>
</a>
</g>
</g>
<!-- Node10&#45;&gt;Node24 -->
<g id="edge15" class="edge">
<title>Node10&#45;&gt;Node24</title>
<path fill="none" stroke="midnightblue" d="M1623.44,-181.49C1617.42,-180.11 1611.38,-178.91 1605.5,-178 1562.56,-171.33 71.87,-173.08 41.5,-142 18.08,-118.03 37.51,-78.55 54.95,-52.78"/>
<polygon fill="midnightblue" stroke="midnightblue" points="1622.99,-184.99 1633.54,-183.97 1624.66,-178.19 1622.99,-184.99"/>
</g>
<!-- Node25 -->
<g id="node15" class="node">
<title>Node25</title>
<g id="a_node15"><a xlink:href="single__path__symex__only__checker_8h.html" target="_top" xlink:title="Goto Checker using Single Path Symbolic Execution only.">
<polygon fill="none" stroke="red" points="51,-89.5 51,-141.5 200,-141.5 200,-89.5 51,-89.5"/>
<text text-anchor="start" x="59" y="-129.5" font-family="Helvetica,sans-Serif" font-size="10.00">/home/runner/work/diffblue</text>
<text text-anchor="start" x="59" y="-118.5" font-family="Helvetica,sans-Serif" font-size="10.00">&#45;cbmc/diffblue&#45;cbmc/src</text>
<text text-anchor="start" x="59" y="-107.5" font-family="Helvetica,sans-Serif" font-size="10.00">/goto&#45;checker/single_path</text>
<text text-anchor="middle" x="125.5" y="-96.5" font-family="Helvetica,sans-Serif" font-size="10.00">_symex_only_checker.h</text>
</a>
</g>
</g>
<!-- Node10&#45;&gt;Node25 -->
<g id="edge16" class="edge">
<title>Node10&#45;&gt;Node25</title>
<path fill="none" stroke="midnightblue" d="M1623.44,-181.51C1617.42,-180.13 1611.38,-178.92 1605.5,-178 992.33,-81.91 822.2,-241.04 209.5,-142 206.49,-141.51 203.44,-140.95 200.37,-140.32"/>
<polygon fill="midnightblue" stroke="midnightblue" points="1622.99,-185 1633.53,-183.99 1624.66,-178.21 1622.99,-185"/>
</g>
<!-- Node31 -->
<g id="node16" class="node">
<title>Node31</title>
<g id="a_node16"><a xlink:href="scratch__program_8h.html" target="_top" xlink:title="Loop Acceleration.">
<polygon fill="none" stroke="red" points="218.5,-89.5 218.5,-141.5 370.5,-141.5 370.5,-89.5 218.5,-89.5"/>
<text text-anchor="start" x="226.5" y="-129.5" font-family="Helvetica,sans-Serif" font-size="10.00">/home/runner/work/diffblue</text>
<text text-anchor="start" x="226.5" y="-118.5" font-family="Helvetica,sans-Serif" font-size="10.00">&#45;cbmc/diffblue&#45;cbmc/src</text>
<text text-anchor="start" x="226.5" y="-107.5" font-family="Helvetica,sans-Serif" font-size="10.00">/goto&#45;instrument/accelerate</text>
<text text-anchor="middle" x="294.5" y="-96.5" font-family="Helvetica,sans-Serif" font-size="10.00">/scratch_program.h</text>
</a>
</g>
</g>
<!-- Node10&#45;&gt;Node31 -->
<g id="edge19" class="edge">
<title>Node10&#45;&gt;Node31</title>
<path fill="none" stroke="midnightblue" d="M1623.13,-181.46C1617.21,-180.1 1611.28,-178.92 1605.5,-178 1067.1,-92.64 917.63,-229.07 379.5,-142 376.61,-141.53 373.68,-140.99 370.73,-140.4"/>
<polygon fill="midnightblue" stroke="midnightblue" points="1622.51,-184.91 1633.05,-183.9 1624.18,-178.12 1622.51,-184.91"/>
</g>
<!-- Node38 -->
<g id="node17" class="node">
<title>Node38</title>
<g id="a_node17"><a xlink:href="path__storage_8cpp.html" target="_top" xlink:title=" ">
<polygon fill="none" stroke="black" points="389,-95 389,-136 554,-136 554,-95 389,-95"/>
<text text-anchor="start" x="397" y="-124" font-family="Helvetica,sans-Serif" font-size="10.00">/home/runner/work/diffblue</text>
<text text-anchor="start" x="397" y="-113" font-family="Helvetica,sans-Serif" font-size="10.00">&#45;cbmc/diffblue&#45;cbmc/src</text>
<text text-anchor="middle" x="471.5" y="-102" font-family="Helvetica,sans-Serif" font-size="10.00">/goto&#45;symex/path_storage.cpp</text>
</a>
</g>
</g>
<!-- Node10&#45;&gt;Node38 -->
<g id="edge20" class="edge">
<title>Node10&#45;&gt;Node38</title>
<path fill="none" stroke="midnightblue" d="M1623.12,-181.5C1617.2,-180.13 1611.27,-178.93 1605.5,-178 1148.02,-104.25 1021.51,-212.37 563.5,-142 554,-140.54 544.08,-138.43 534.42,-136.05"/>
<polygon fill="midnightblue" stroke="midnightblue" points="1622.5,-184.95 1633.05,-183.94 1624.18,-178.15 1622.5,-184.95"/>
</g>
<!-- Node39 -->
<g id="node18" class="node">
<title>Node39</title>
<g id="a_node18"><a xlink:href="symex__builtin__functions_8cpp.html" target="_top" xlink:title="Symbolic Execution of ANSI&#45;C.">
<polygon fill="none" stroke="black" points="572.5,-89.5 572.5,-141.5 722.5,-141.5 722.5,-89.5 572.5,-89.5"/>
<text text-anchor="start" x="580.5" y="-129.5" font-family="Helvetica,sans-Serif" font-size="10.00">/home/runner/work/diffblue</text>
<text text-anchor="start" x="580.5" y="-118.5" font-family="Helvetica,sans-Serif" font-size="10.00">&#45;cbmc/diffblue&#45;cbmc/src</text>
<text text-anchor="start" x="580.5" y="-107.5" font-family="Helvetica,sans-Serif" font-size="10.00">/goto&#45;symex/symex_builtin</text>
<text text-anchor="middle" x="647.5" y="-96.5" font-family="Helvetica,sans-Serif" font-size="10.00">_functions.cpp</text>
</a>
</g>
</g>
<!-- Node10&#45;&gt;Node39 -->
<g id="edge21" class="edge">
<title>Node10&#45;&gt;Node39</title>
<path fill="none" stroke="midnightblue" d="M1623.12,-181.54C1617.2,-180.16 1611.27,-178.95 1605.5,-178 1221.89,-114.86 1114.8,-206.99 731.5,-142 728.65,-141.52 725.75,-140.96 722.84,-140.35"/>
<polygon fill="midnightblue" stroke="midnightblue" points="1622.49,-184.99 1633.04,-183.99 1624.17,-178.19 1622.49,-184.99"/>
</g>
<!-- Node40 -->
<g id="node19" class="node">
<title>Node40</title>
<g id="a_node19"><a xlink:href="symex__clean__expr_8cpp.html" target="_top" xlink:title="Symbolic Execution of ANSI&#45;C.">
<polygon fill="none" stroke="black" points="740.5,-95 740.5,-136 932.5,-136 932.5,-95 740.5,-95"/>
<text text-anchor="start" x="748.5" y="-124" font-family="Helvetica,sans-Serif" font-size="10.00">/home/runner/work/diffblue</text>
<text text-anchor="start" x="748.5" y="-113" font-family="Helvetica,sans-Serif" font-size="10.00">&#45;cbmc/diffblue&#45;cbmc/src</text>
<text text-anchor="middle" x="836.5" y="-102" font-family="Helvetica,sans-Serif" font-size="10.00">/goto&#45;symex/symex_clean_expr.cpp</text>
</a>
</g>
</g>
<!-- Node10&#45;&gt;Node40 -->
<g id="edge22" class="edge">
<title>Node10&#45;&gt;Node40</title>
<path fill="none" stroke="midnightblue" d="M1622.8,-181.55C1616.98,-180.18 1611.16,-178.97 1605.5,-178 1314.2,-128.1 1233.89,-185.06 941.5,-142 931.01,-140.46 920.04,-138.35 909.31,-136.01"/>
<polygon fill="midnightblue" stroke="midnightblue" points="1622,-184.96 1632.55,-183.98 1623.69,-178.16 1622,-184.96"/>
</g>
<!-- Node41 -->
<g id="node20" class="node">
<title>Node41</title>
<g id="a_node20"><a xlink:href="symex__decl_8cpp.html" target="_top" xlink:title="Symbolic Execution.">
<polygon fill="none" stroke="black" points="950.5,-95 950.5,-136 1110.5,-136 1110.5,-95 950.5,-95"/>
<text text-anchor="start" x="958.5" y="-124" font-family="Helvetica,sans-Serif" font-size="10.00">/home/runner/work/diffblue</text>
<text text-anchor="start" x="958.5" y="-113" font-family="Helvetica,sans-Serif" font-size="10.00">&#45;cbmc/diffblue&#45;cbmc/src</text>
<text text-anchor="middle" x="1030.5" y="-102" font-family="Helvetica,sans-Serif" font-size="10.00">/goto&#45;symex/symex_decl.cpp</text>
</a>
</g>
</g>
<!-- Node10&#45;&gt;Node41 -->
<g id="edge23" class="edge">
<title>Node10&#45;&gt;Node41</title>
<path fill="none" stroke="midnightblue" d="M1621.75,-181.43C1616.29,-180.13 1610.82,-178.97 1605.5,-178 1392.39,-139.32 1332.73,-180.03 1119.5,-142 1110.8,-140.45 1101.73,-138.39 1092.85,-136.1"/>
<polygon fill="midnightblue" stroke="midnightblue" points="1621.02,-184.85 1631.57,-183.88 1622.72,-178.06 1621.02,-184.85"/>
</g>
<!-- Node42 -->
<g id="node21" class="node">
<title>Node42</title>
<g id="a_node21"><a xlink:href="symex__dereference_8cpp.html" target="_top" xlink:title="Symbolic Execution of ANSI&#45;C.">
<polygon fill="none" stroke="black" points="1128.5,-95 1128.5,-136 1326.5,-136 1326.5,-95 1128.5,-95"/>
<text text-anchor="start" x="1136.5" y="-124" font-family="Helvetica,sans-Serif" font-size="10.00">/home/runner/work/diffblue</text>
<text text-anchor="start" x="1136.5" y="-113" font-family="Helvetica,sans-Serif" font-size="10.00">&#45;cbmc/diffblue&#45;cbmc/src</text>
<text text-anchor="middle" x="1227.5" y="-102" font-family="Helvetica,sans-Serif" font-size="10.00">/goto&#45;symex/symex_dereference.cpp</text>
</a>
</g>
</g>
<!-- Node10&#45;&gt;Node42 -->
<g id="edge24" class="edge">
<title>Node10&#45;&gt;Node42</title>
<path fill="none" stroke="midnightblue" d="M1620.02,-181.36C1615.13,-180.14 1610.25,-179.01 1605.5,-178 1487.07,-152.9 1454.56,-163.94 1335.5,-142 1325.93,-140.24 1315.94,-138.18 1306.05,-136.01"/>
<polygon fill="midnightblue" stroke="midnightblue" points="1619.51,-184.84 1630.06,-183.96 1621.26,-178.07 1619.51,-184.84"/>
</g>
<!-- Node43 -->
<g id="node22" class="node">
<title>Node43</title>
<g id="a_node22"><a xlink:href="symex__function__call_8cpp.html" target="_top" xlink:title="Symbolic Execution of ANSI&#45;C.">
<polygon fill="none" stroke="black" points="1345,-89.5 1345,-141.5 1504,-141.5 1504,-89.5 1345,-89.5"/>
<text text-anchor="start" x="1353" y="-129.5" font-family="Helvetica,sans-Serif" font-size="10.00">/home/runner/work/diffblue</text>
<text text-anchor="start" x="1353" y="-118.5" font-family="Helvetica,sans-Serif" font-size="10.00">&#45;cbmc/diffblue&#45;cbmc/src</text>
<text text-anchor="start" x="1353" y="-107.5" font-family="Helvetica,sans-Serif" font-size="10.00">/goto&#45;symex/symex_function</text>
<text text-anchor="middle" x="1424.5" y="-96.5" font-family="Helvetica,sans-Serif" font-size="10.00">_call.cpp</text>
</a>
</g>
</g>
<!-- Node10&#45;&gt;Node43 -->
<g id="edge25" class="edge">
<title>Node10&#45;&gt;Node43</title>
<path fill="none" stroke="midnightblue" d="M1622.63,-180.82C1585.56,-168.78 1539.91,-153.96 1501.77,-141.58"/>
<polygon fill="midnightblue" stroke="midnightblue" points="1621.76,-184.22 1632.36,-183.98 1623.92,-177.56 1621.76,-184.22"/>
</g>
<!-- Node44 -->
<g id="node23" class="node">
<title>Node44</title>
<g id="a_node23"><a xlink:href="symex__goto_8cpp.html" target="_top" xlink:title="Symbolic Execution.">
<polygon fill="none" stroke="black" points="1522,-95 1522,-136 1683,-136 1683,-95 1522,-95"/>
<text text-anchor="start" x="1530" y="-124" font-family="Helvetica,sans-Serif" font-size="10.00">/home/runner/work/diffblue</text>
<text text-anchor="start" x="1530" y="-113" font-family="Helvetica,sans-Serif" font-size="10.00">&#45;cbmc/diffblue&#45;cbmc/src</text>
<text text-anchor="middle" x="1602.5" y="-102" font-family="Helvetica,sans-Serif" font-size="10.00">/goto&#45;symex/symex_goto.cpp</text>
</a>
</g>
</g>
<!-- Node10&#45;&gt;Node44 -->
<g id="edge26" class="edge">
<title>Node10&#45;&gt;Node44</title>
<path fill="none" stroke="midnightblue" d="M1664.84,-176.76C1651.29,-163.66 1635.25,-148.16 1622.84,-136.16"/>
<polygon fill="midnightblue" stroke="midnightblue" points="1662.46,-179.32 1672.08,-183.76 1667.32,-174.29 1662.46,-179.32"/>
</g>
<!-- Node45 -->
<g id="node24" class="node">
<title>Node45</title>
<g id="a_node24"><a xlink:href="symex__main_8cpp.html" target="_top" xlink:title="Symbolic Execution.">
<polygon fill="none" stroke="black" points="1701.5,-95 1701.5,-136 1865.5,-136 1865.5,-95 1701.5,-95"/>
<text text-anchor="start" x="1709.5" y="-124" font-family="Helvetica,sans-Serif" font-size="10.00">/home/runner/work/diffblue</text>
<text text-anchor="start" x="1709.5" y="-113" font-family="Helvetica,sans-Serif" font-size="10.00">&#45;cbmc/diffblue&#45;cbmc/src</text>
<text text-anchor="middle" x="1783.5" y="-102" font-family="Helvetica,sans-Serif" font-size="10.00">/goto&#45;symex/symex_main.cpp</text>
</a>
</g>
</g>
<!-- Node10&#45;&gt;Node45 -->
<g id="edge27" class="edge">
<title>Node10&#45;&gt;Node45</title>
<path fill="none" stroke="midnightblue" d="M1720.47,-176.76C1734.17,-163.66 1750.38,-148.16 1762.93,-136.16"/>
<polygon fill="midnightblue" stroke="midnightblue" points="1717.96,-174.32 1713.15,-183.76 1722.8,-179.38 1717.96,-174.32"/>
</g>
<!-- Node46 -->
<g id="node25" class="node">
<title>Node46</title>
<g id="a_node25"><a xlink:href="symex__start__thread_8cpp.html" target="_top" xlink:title="Symbolic Execution.">
<polygon fill="none" stroke="black" points="1884,-95 1884,-136 2083,-136 2083,-95 1884,-95"/>
<text text-anchor="start" x="1892" y="-124" font-family="Helvetica,sans-Serif" font-size="10.00">/home/runner/work/diffblue</text>
<text text-anchor="start" x="1892" y="-113" font-family="Helvetica,sans-Serif" font-size="10.00">&#45;cbmc/diffblue&#45;cbmc/src</text>
<text text-anchor="middle" x="1983.5" y="-102" font-family="Helvetica,sans-Serif" font-size="10.00">/goto&#45;symex/symex_start_thread.cpp</text>
</a>
</g>
</g>
<!-- Node10&#45;&gt;Node46 -->
<g id="edge28" class="edge">
<title>Node10&#45;&gt;Node46</title>
<path fill="none" stroke="midnightblue" d="M1767.55,-181.06C1814.16,-167.13 1873.49,-149.39 1918.16,-136.03"/>
<polygon fill="midnightblue" stroke="midnightblue" points="1766.38,-177.76 1757.81,-183.98 1768.39,-184.46 1766.38,-177.76"/>
</g>
<!-- Node19 -->
<g id="node26" class="node">
<title>Node19</title>
<g id="a_node26"><a xlink:href="jbmc__parse__options_8cpp.html" target="_top" xlink:title="JBMC Command Line Option Processing.">
<polygon fill="none" stroke="black" points="2101.5,-95 2101.5,-136 2283.5,-136 2283.5,-95 2101.5,-95"/>
<text text-anchor="start" x="2109.5" y="-124" font-family="Helvetica,sans-Serif" font-size="10.00">/home/runner/work/diffblue</text>
<text text-anchor="start" x="2109.5" y="-113" font-family="Helvetica,sans-Serif" font-size="10.00">&#45;cbmc/diffblue&#45;cbmc/jbmc</text>
<text text-anchor="middle" x="2192.5" y="-102" font-family="Helvetica,sans-Serif" font-size="10.00">/src/jbmc/jbmc_parse_options.cpp</text>
</a>
</g>
</g>
<!-- Node10&#45;&gt;Node19 -->
<g id="edge29" class="edge">
<title>Node10&#45;&gt;Node19</title>
<path fill="none" stroke="midnightblue" d="M1779.91,-192.44C1861.03,-181.61 1984.95,-163.61 2091.5,-142 2100.27,-140.22 2109.43,-138.18 2118.49,-136.03"/>
<polygon fill="midnightblue" stroke="midnightblue" points="1779.2,-189.01 1769.75,-193.79 1780.12,-195.95 1779.2,-189.01"/>
</g>
<!-- Node12&#45;&gt;Node11 -->
<g id="edge12" class="edge">
<title>Node12&#45;&gt;Node11</title>
<path fill="none" stroke="midnightblue" d="M2393.57,-80.51C2386.93,-69.17 2379.76,-56.94 2373.98,-47.08"/>
<polygon fill="midnightblue" stroke="midnightblue" points="2390.67,-82.48 2398.75,-89.34 2396.71,-78.94 2390.67,-82.48"/>
</g>
<!-- Node22&#45;&gt;Node11 -->
<g id="edge14" class="edge">
<title>Node22&#45;&gt;Node11</title>
<path fill="none" stroke="midnightblue" d="M2515.86,-85.76C2482.51,-73.09 2444.18,-58.53 2414.18,-47.13"/>
<polygon fill="midnightblue" stroke="midnightblue" points="2514.98,-89.17 2525.57,-89.45 2517.47,-82.63 2514.98,-89.17"/>
</g>
<!-- Node25&#45;&gt;Node11 -->
<g id="edge17" class="edge">
<title>Node25&#45;&gt;Node11</title>
<path fill="none" stroke="midnightblue" d="M210.28,-89.2C457.77,-54.74 1909.85,-33.49 2277.81,-28.59"/>
<polygon fill="midnightblue" stroke="midnightblue" points="209.74,-85.74 200.37,-90.69 210.78,-92.66 209.74,-85.74"/>
</g>
<!-- Node25&#45;&gt;Node24 -->
<g id="edge18" class="edge">
<title>Node25&#45;&gt;Node24</title>
<path fill="none" stroke="midnightblue" d="M105.65,-80.64C100.18,-71.31 94.34,-61.35 89.22,-52.61"/>
<polygon fill="midnightblue" stroke="midnightblue" points="102.67,-82.48 110.75,-89.34 108.71,-78.94 102.67,-82.48"/>
</g>
<!-- Node49&#45;&gt;Node48 -->
<g id="edge33" class="edge">
<title>Node49&#45;&gt;Node48</title>
<path fill="none" stroke="midnightblue" d="M2784.54,-173.44C2784.96,-161.1 2785.44,-147.16 2785.82,-136.16"/>
<polygon fill="midnightblue" stroke="midnightblue" points="2781.03,-173.64 2784.18,-183.76 2788.02,-173.88 2781.03,-173.64"/>
</g>
<!-- Node50 -->
<g id="node30" class="node">
<title>Node50</title>
<g id="a_node30"><a xlink:href="shadow__memory__util_8cpp.html" target="_top" xlink:title="Symex Shadow Memory Instrumentation Utilities.">
<polygon fill="none" stroke="black" points="2897,-89.5 2897,-141.5 3062,-141.5 3062,-89.5 2897,-89.5"/>
<text text-anchor="start" x="2905" y="-129.5" font-family="Helvetica,sans-Serif" font-size="10.00">/home/runner/work/diffblue</text>
<text text-anchor="start" x="2905" y="-118.5" font-family="Helvetica,sans-Serif" font-size="10.00">&#45;cbmc/diffblue&#45;cbmc/src</text>
<text text-anchor="start" x="2905" y="-107.5" font-family="Helvetica,sans-Serif" font-size="10.00">/goto&#45;symex/shadow_memory</text>
<text text-anchor="middle" x="2979.5" y="-96.5" font-family="Helvetica,sans-Serif" font-size="10.00">_util.cpp</text>
</a>
</g>
</g>
<!-- Node49&#45;&gt;Node50 -->
<g id="edge34" class="edge">
<title>Node49&#45;&gt;Node50</title>
<path fill="none" stroke="midnightblue" d="M2836.69,-179.89C2863.41,-168.03 2895.81,-153.65 2922.99,-141.58"/>
<polygon fill="midnightblue" stroke="midnightblue" points="2835.21,-176.72 2827.49,-183.98 2838.05,-183.12 2835.21,-176.72"/>
</g>
<!-- Node53 -->
<g id="node33" class="node">
<title>Node53</title>
<g id="a_node33"><a xlink:href="complexity__limiter_8h.html" target="_top" xlink:title="Symbolic Execution.">
<polygon fill="none" stroke="red" points="3080.5,-95 3080.5,-136 3262.5,-136 3262.5,-95 3080.5,-95"/>
<text text-anchor="start" x="3088.5" y="-124" font-family="Helvetica,sans-Serif" font-size="10.00">/home/runner/work/diffblue</text>
<text text-anchor="start" x="3088.5" y="-113" font-family="Helvetica,sans-Serif" font-size="10.00">&#45;cbmc/diffblue&#45;cbmc/src</text>
<text text-anchor="middle" x="3171.5" y="-102" font-family="Helvetica,sans-Serif" font-size="10.00">/goto&#45;symex/complexity_limiter.h</text>
</a>
</g>
</g>
<!-- Node52&#45;&gt;Node53 -->
<g id="edge37" class="edge">
<title>Node52&#45;&gt;Node53</title>
<path fill="none" stroke="midnightblue" d="M3173.87,-168.16C3173.37,-157.21 3172.84,-145.55 3172.4,-136.08"/>
<polygon fill="midnightblue" stroke="midnightblue" points="3170.39,-168.51 3174.34,-178.34 3177.38,-168.19 3170.39,-168.51"/>
</g>
<!-- Node53&#45;&gt;Node6 -->
<g id="edge38" class="edge">
<title>Node53&#45;&gt;Node6</title>
<path fill="none" stroke="midnightblue" d="M3190.63,-86.3C3199.29,-73.52 3209.33,-58.72 3217.16,-47.16"/>
<polygon fill="midnightblue" stroke="midnightblue" points="3187.6,-84.52 3184.89,-94.76 3193.4,-88.45 3187.6,-84.52"/>
</g>
</g>
</svg>
