<?xml version="1.0" encoding="UTF-8" standalone="no"?>
<!DOCTYPE svg PUBLIC "-//W3C//DTD SVG 1.1//EN"
 "http://www.w3.org/Graphics/SVG/1.1/DTD/svg11.dtd">
<!-- Generated by graphviz version 2.43.0 (0)
 -->
<!-- Title: /home/runner/work/diffblue&#45;cbmc/diffblue&#45;cbmc/src/util/rename_symbol.h Pages: 1 -->
<svg width="1164pt" height="217pt"
 viewBox="0.00 0.00 1164.00 217.00" xmlns="http://www.w3.org/2000/svg" xmlns:xlink="http://www.w3.org/1999/xlink">
<g id="graph0" class="graph" transform="scale(1 1) rotate(0) translate(4 213)">
<title>/home/runner/work/diffblue&#45;cbmc/diffblue&#45;cbmc/src/util/rename_symbol.h</title>
<!-- Node1 -->
<g id="node1" class="node">
<title>Node1</title>
<g id="a_node1"><a xlink:title=" ">
<polygon fill="#bfbfbf" stroke="black" points="789,-167.5 789,-208.5 938,-208.5 938,-167.5 789,-167.5"/>
<text text-anchor="start" x="797" y="-196.5" font-family="Helvetica,sans-Serif" font-size="10.00">/home/runner/work/diffblue</text>
<text text-anchor="start" x="797" y="-185.5" font-family="Helvetica,sans-Serif" font-size="10.00">&#45;cbmc/diffblue&#45;cbmc/src</text>
<text text-anchor="middle" x="863.5" y="-174.5" font-family="Helvetica,sans-Serif" font-size="10.00">/util/rename_symbol.h</text>
</a>
</g>
</g>
<!-- Node2 -->
<g id="node2" class="node">
<title>Node2</title>
<g id="a_node2"><a xlink:href="link__goto__model_8cpp.html" target="_top" xlink:title="Link Goto Programs.">
<polygon fill="none" stroke="black" points="789,-0.5 789,-52.5 938,-52.5 938,-0.5 789,-0.5"/>
<text text-anchor="start" x="797" y="-40.5" font-family="Helvetica,sans-Serif" font-size="10.00">/home/runner/work/diffblue</text>
<text text-anchor="start" x="797" y="-29.5" font-family="Helvetica,sans-Serif" font-size="10.00">&#45;cbmc/diffblue&#45;cbmc/src</text>
<text text-anchor="start" x="797" y="-18.5" font-family="Helvetica,sans-Serif" font-size="10.00">/goto&#45;programs/link_goto</text>
<text text-anchor="middle" x="863.5" y="-7.5" font-family="Helvetica,sans-Serif" font-size="10.00">_model.cpp</text>
</a>
</g>
</g>
<!-- Node1&#45;&gt;Node2 -->
<g id="edge1" class="edge">
<title>Node1&#45;&gt;Node2</title>
<path fill="none" stroke="midnightblue" d="M843.53,-158.64C838.61,-150.14 834.03,-140.54 831.5,-131 826.71,-112.96 827.06,-107.13 831.5,-89 834.59,-76.37 840.77,-63.45 846.88,-52.74"/>
<polygon fill="midnightblue" stroke="midnightblue" points="840.69,-160.7 848.92,-167.37 846.65,-157.03 840.69,-160.7"/>
</g>
<!-- Node3 -->
<g id="node3" class="node">
<title>Node3</title>
<g id="a_node3"><a xlink:href="name__mangler_8h.html" target="_top" xlink:title="Mangle names of file&#45;local functions to make them unique.">
<polygon fill="none" stroke="black" points="367.5,-89.5 367.5,-130.5 543.5,-130.5 543.5,-89.5 367.5,-89.5"/>
<text text-anchor="start" x="375.5" y="-118.5" font-family="Helvetica,sans-Serif" font-size="10.00">/home/runner/work/diffblue</text>
<text text-anchor="start" x="375.5" y="-107.5" font-family="Helvetica,sans-Serif" font-size="10.00">&#45;cbmc/diffblue&#45;cbmc/src</text>
<text text-anchor="middle" x="455.5" y="-96.5" font-family="Helvetica,sans-Serif" font-size="10.00">/goto&#45;programs/name_mangler.h</text>
</a>
</g>
</g>
<!-- Node1&#45;&gt;Node3 -->
<g id="edge2" class="edge">
<title>Node1&#45;&gt;Node3</title>
<path fill="none" stroke="midnightblue" d="M778.73,-171.21C709.97,-158.4 613.36,-140.41 543.7,-127.43"/>
<polygon fill="midnightblue" stroke="midnightblue" points="778.19,-174.67 788.67,-173.06 779.48,-167.79 778.19,-174.67"/>
</g>
<!-- Node8 -->
<g id="node8" class="node">
<title>Node8</title>
<g id="a_node8"><a xlink:href="linking__class_8h.html" target="_top" xlink:title="ANSI&#45;C Linking.">
<polygon fill="none" stroke="black" points="840,-89.5 840,-130.5 989,-130.5 989,-89.5 840,-89.5"/>
<text text-anchor="start" x="848" y="-118.5" font-family="Helvetica,sans-Serif" font-size="10.00">/home/runner/work/diffblue</text>
<text text-anchor="start" x="848" y="-107.5" font-family="Helvetica,sans-Serif" font-size="10.00">&#45;cbmc/diffblue&#45;cbmc/src</text>
<text text-anchor="middle" x="914.5" y="-96.5" font-family="Helvetica,sans-Serif" font-size="10.00">/linking/linking_class.h</text>
</a>
</g>
</g>
<!-- Node1&#45;&gt;Node8 -->
<g id="edge7" class="edge">
<title>Node1&#45;&gt;Node8</title>
<path fill="none" stroke="midnightblue" d="M882.26,-159.05C888.62,-149.57 895.59,-139.18 901.41,-130.51"/>
<polygon fill="midnightblue" stroke="midnightblue" points="879.3,-157.17 876.63,-167.43 885.11,-161.07 879.3,-157.17"/>
</g>
<!-- Node10 -->
<g id="node10" class="node">
<title>Node10</title>
<g id="a_node10"><a xlink:href="rename__symbol_8cpp.html" target="_top" xlink:title=" ">
<polygon fill="none" stroke="black" points="1007,-89.5 1007,-130.5 1156,-130.5 1156,-89.5 1007,-89.5"/>
<text text-anchor="start" x="1015" y="-118.5" font-family="Helvetica,sans-Serif" font-size="10.00">/home/runner/work/diffblue</text>
<text text-anchor="start" x="1015" y="-107.5" font-family="Helvetica,sans-Serif" font-size="10.00">&#45;cbmc/diffblue&#45;cbmc/src</text>
<text text-anchor="middle" x="1081.5" y="-96.5" font-family="Helvetica,sans-Serif" font-size="10.00">/util/rename_symbol.cpp</text>
</a>
</g>
</g>
<!-- Node1&#45;&gt;Node10 -->
<g id="edge10" class="edge">
<title>Node1&#45;&gt;Node10</title>
<path fill="none" stroke="midnightblue" d="M929.4,-164.03C960.09,-153.33 996.21,-140.73 1025.55,-130.51"/>
<polygon fill="midnightblue" stroke="midnightblue" points="927.93,-160.83 919.64,-167.43 930.24,-167.44 927.93,-160.83"/>
</g>
<!-- Node4 -->
<g id="node4" class="node">
<title>Node4</title>
<g id="a_node4"><a xlink:href="c__typecheck__base_8cpp.html" target="_top" xlink:title="ANSI&#45;C Conversion / Type Checking.">
<polygon fill="none" stroke="black" points="0,-6 0,-47 161,-47 161,-6 0,-6"/>
<text text-anchor="start" x="8" y="-35" font-family="Helvetica,sans-Serif" font-size="10.00">/home/runner/work/diffblue</text>
<text text-anchor="start" x="8" y="-24" font-family="Helvetica,sans-Serif" font-size="10.00">&#45;cbmc/diffblue&#45;cbmc/src</text>
<text text-anchor="middle" x="80.5" y="-13" font-family="Helvetica,sans-Serif" font-size="10.00">/ansi&#45;c/c_typecheck_base.cpp</text>
</a>
</g>
</g>
<!-- Node3&#45;&gt;Node4 -->
<g id="edge3" class="edge">
<title>Node3&#45;&gt;Node4</title>
<path fill="none" stroke="midnightblue" d="M357.29,-91.92C301.9,-81.75 231.55,-67.94 169.5,-53 162,-51.19 154.18,-49.17 146.43,-47.07"/>
<polygon fill="midnightblue" stroke="midnightblue" points="356.99,-95.42 367.46,-93.78 358.25,-88.54 356.99,-95.42"/>
</g>
<!-- Node5 -->
<g id="node5" class="node">
<title>Node5</title>
<g id="a_node5"><a xlink:href="compile_8cpp.html" target="_top" xlink:title="Compile and link source and object files.">
<polygon fill="none" stroke="black" points="179,-6 179,-47 328,-47 328,-6 179,-6"/>
<text text-anchor="start" x="187" y="-35" font-family="Helvetica,sans-Serif" font-size="10.00">/home/runner/work/diffblue</text>
<text text-anchor="start" x="187" y="-24" font-family="Helvetica,sans-Serif" font-size="10.00">&#45;cbmc/diffblue&#45;cbmc/src</text>
<text text-anchor="middle" x="253.5" y="-13" font-family="Helvetica,sans-Serif" font-size="10.00">/goto&#45;cc/compile.cpp</text>
</a>
</g>
</g>
<!-- Node3&#45;&gt;Node5 -->
<g id="edge4" class="edge">
<title>Node3&#45;&gt;Node5</title>
<path fill="none" stroke="midnightblue" d="M397.52,-85.61C367.23,-73.39 330.58,-58.6 301.84,-47"/>
<polygon fill="midnightblue" stroke="midnightblue" points="396.53,-88.98 407.12,-89.48 399.15,-82.49 396.53,-88.98"/>
</g>
<!-- Node6 -->
<g id="node6" class="node">
<title>Node6</title>
<g id="a_node6"><a xlink:href="recursive__initialization_8cpp.html" target="_top" xlink:title=" ">
<polygon fill="none" stroke="black" points="346.5,-6 346.5,-47 564.5,-47 564.5,-6 346.5,-6"/>
<text text-anchor="start" x="354.5" y="-35" font-family="Helvetica,sans-Serif" font-size="10.00">/home/runner/work/diffblue</text>
<text text-anchor="start" x="354.5" y="-24" font-family="Helvetica,sans-Serif" font-size="10.00">&#45;cbmc/diffblue&#45;cbmc/src</text>
<text text-anchor="middle" x="455.5" y="-13" font-family="Helvetica,sans-Serif" font-size="10.00">/goto&#45;harness/recursive_initialization.cpp</text>
</a>
</g>
</g>
<!-- Node3&#45;&gt;Node6 -->
<g id="edge5" class="edge">
<title>Node3&#45;&gt;Node6</title>
<path fill="none" stroke="midnightblue" d="M455.5,-79.06C455.5,-68.38 455.5,-56.63 455.5,-47.05"/>
<polygon fill="midnightblue" stroke="midnightblue" points="452,-79.27 455.5,-89.27 459,-79.27 452,-79.27"/>
</g>
<!-- Node7 -->
<g id="node7" class="node">
<title>Node7</title>
<g id="a_node7"><a xlink:href="name__mangler_8cpp.html" target="_top" xlink:title=" ">
<polygon fill="none" stroke="black" points="582.5,-6 582.5,-47 770.5,-47 770.5,-6 582.5,-6"/>
<text text-anchor="start" x="590.5" y="-35" font-family="Helvetica,sans-Serif" font-size="10.00">/home/runner/work/diffblue</text>
<text text-anchor="start" x="590.5" y="-24" font-family="Helvetica,sans-Serif" font-size="10.00">&#45;cbmc/diffblue&#45;cbmc/src</text>
<text text-anchor="middle" x="676.5" y="-13" font-family="Helvetica,sans-Serif" font-size="10.00">/goto&#45;programs/name_mangler.cpp</text>
</a>
</g>
</g>
<!-- Node3&#45;&gt;Node7 -->
<g id="edge6" class="edge">
<title>Node3&#45;&gt;Node7</title>
<path fill="none" stroke="midnightblue" d="M518.07,-85.92C551.38,-73.64 591.89,-58.7 623.61,-47"/>
<polygon fill="midnightblue" stroke="midnightblue" points="516.61,-82.73 508.44,-89.48 519.03,-89.3 516.61,-82.73"/>
</g>
<!-- Node8&#45;&gt;Node2 -->
<g id="edge8" class="edge">
<title>Node8&#45;&gt;Node2</title>
<path fill="none" stroke="midnightblue" d="M896.7,-80.55C891,-71.45 884.74,-61.45 879.21,-52.61"/>
<polygon fill="midnightblue" stroke="midnightblue" points="893.88,-82.65 902.15,-89.27 899.82,-78.94 893.88,-82.65"/>
</g>
<!-- Node9 -->
<g id="node9" class="node">
<title>Node9</title>
<g id="a_node9"><a xlink:href="linking_8cpp.html" target="_top" xlink:title="ANSI&#45;C Linking.">
<polygon fill="none" stroke="black" points="956,-6 956,-47 1105,-47 1105,-6 956,-6"/>
<text text-anchor="start" x="964" y="-35" font-family="Helvetica,sans-Serif" font-size="10.00">/home/runner/work/diffblue</text>
<text text-anchor="start" x="964" y="-24" font-family="Helvetica,sans-Serif" font-size="10.00">&#45;cbmc/diffblue&#45;cbmc/src</text>
<text text-anchor="middle" x="1030.5" y="-13" font-family="Helvetica,sans-Serif" font-size="10.00">/linking/linking.cpp</text>
</a>
</g>
</g>
<!-- Node8&#45;&gt;Node9 -->
<g id="edge9" class="edge">
<title>Node8&#45;&gt;Node9</title>
<path fill="none" stroke="midnightblue" d="M950.73,-83.54C967.45,-71.8 986.98,-58.07 1002.54,-47.14"/>
<polygon fill="midnightblue" stroke="midnightblue" points="948.46,-80.87 942.28,-89.48 952.48,-86.59 948.46,-80.87"/>
</g>
</g>
</svg>
