<?xml version="1.0" encoding="UTF-8" standalone="no"?>
<!DOCTYPE svg PUBLIC "-//W3C//DTD SVG 1.1//EN"
 "http://www.w3.org/Graphics/SVG/1.1/DTD/svg11.dtd">
<!-- Generated by graphviz version 2.43.0 (0)
 -->
<!-- Title: /home/runner/work/diffblue&#45;cbmc/diffblue&#45;cbmc/src/goto&#45;checker/report_util.h Pages: 1 -->
<svg width="1139pt" height="395pt"
 viewBox="0.00 0.00 1138.50 395.00" xmlns="http://www.w3.org/2000/svg" xmlns:xlink="http://www.w3.org/1999/xlink">
<g id="graph0" class="graph" transform="scale(1 1) rotate(0) translate(4 391)">
<title>/home/runner/work/diffblue&#45;cbmc/diffblue&#45;cbmc/src/goto&#45;checker/report_util.h</title>
<!-- Node1 -->
<g id="node1" class="node">
<title>Node1</title>
<g id="a_node1"><a xlink:title="Bounded Model Checking Utilities.">
<polygon fill="#bfbfbf" stroke="black" points="704,-345.5 704,-386.5 853,-386.5 853,-345.5 704,-345.5"/>
<text text-anchor="start" x="712" y="-374.5" font-family="Helvetica,sans-Serif" font-size="10.00">/home/runner/work/diffblue</text>
<text text-anchor="start" x="712" y="-363.5" font-family="Helvetica,sans-Serif" font-size="10.00">&#45;cbmc/diffblue&#45;cbmc/src</text>
<text text-anchor="middle" x="778.5" y="-352.5" font-family="Helvetica,sans-Serif" font-size="10.00">/goto&#45;checker/report_util.h</text>
</a>
</g>
</g>
<!-- Node2 -->
<g id="node2" class="node">
<title>Node2</title>
<g id="a_node2"><a xlink:href="all__properties__verifier_8h.html" target="_top" xlink:title="Goto Verifier for Verifying all Properties.">
<polygon fill="none" stroke="black" points="422.5,-256.5 422.5,-308.5 574.5,-308.5 574.5,-256.5 422.5,-256.5"/>
<text text-anchor="start" x="430.5" y="-296.5" font-family="Helvetica,sans-Serif" font-size="10.00">/home/runner/work/diffblue</text>
<text text-anchor="start" x="430.5" y="-285.5" font-family="Helvetica,sans-Serif" font-size="10.00">&#45;cbmc/diffblue&#45;cbmc/src</text>
<text text-anchor="start" x="430.5" y="-274.5" font-family="Helvetica,sans-Serif" font-size="10.00">/goto&#45;checker/all_properties</text>
<text text-anchor="middle" x="498.5" y="-263.5" font-family="Helvetica,sans-Serif" font-size="10.00">_verifier.h</text>
</a>
</g>
</g>
<!-- Node1&#45;&gt;Node2 -->
<g id="edge1" class="edge">
<title>Node1&#45;&gt;Node2</title>
<path fill="none" stroke="midnightblue" d="M700.44,-342.61C665.03,-332.41 622.63,-320.16 584.5,-309 581.36,-308.08 578.16,-307.14 574.92,-306.19"/>
<polygon fill="midnightblue" stroke="midnightblue" points="699.65,-346.02 710.23,-345.42 701.59,-339.29 699.65,-346.02"/>
</g>
<!-- Node12 -->
<g id="node12" class="node">
<title>Node12</title>
<g id="a_node12"><a xlink:href="all__properties__verifier__with__fault__localization_8h.html" target="_top" xlink:title="Goto verifier for verifying all properties that stores traces and localizes faults.">
<polygon fill="none" stroke="black" points="593,-256.5 593,-308.5 774,-308.5 774,-256.5 593,-256.5"/>
<text text-anchor="start" x="601" y="-296.5" font-family="Helvetica,sans-Serif" font-size="10.00">/home/runner/work/diffblue</text>
<text text-anchor="start" x="601" y="-285.5" font-family="Helvetica,sans-Serif" font-size="10.00">&#45;cbmc/diffblue&#45;cbmc/src</text>
<text text-anchor="start" x="601" y="-274.5" font-family="Helvetica,sans-Serif" font-size="10.00">/goto&#45;checker/all_properties</text>
<text text-anchor="middle" x="683.5" y="-263.5" font-family="Helvetica,sans-Serif" font-size="10.00">_verifier_with_fault_localization.h</text>
</a>
</g>
</g>
<!-- Node1&#45;&gt;Node12 -->
<g id="edge12" class="edge">
<title>Node1&#45;&gt;Node12</title>
<path fill="none" stroke="midnightblue" d="M747.64,-338.52C736.44,-328.92 723.83,-318.09 712.77,-308.61"/>
<polygon fill="midnightblue" stroke="midnightblue" points="745.63,-341.42 755.5,-345.27 750.19,-336.1 745.63,-341.42"/>
</g>
<!-- Node13 -->
<g id="node13" class="node">
<title>Node13</title>
<g id="a_node13"><a xlink:href="all__properties__verifier__with__trace__storage_8h.html" target="_top" xlink:title="Goto verifier for verifying all properties that stores traces.">
<polygon fill="none" stroke="black" points="792.5,-256.5 792.5,-308.5 956.5,-308.5 956.5,-256.5 792.5,-256.5"/>
<text text-anchor="start" x="800.5" y="-296.5" font-family="Helvetica,sans-Serif" font-size="10.00">/home/runner/work/diffblue</text>
<text text-anchor="start" x="800.5" y="-285.5" font-family="Helvetica,sans-Serif" font-size="10.00">&#45;cbmc/diffblue&#45;cbmc/src</text>
<text text-anchor="start" x="800.5" y="-274.5" font-family="Helvetica,sans-Serif" font-size="10.00">/goto&#45;checker/all_properties</text>
<text text-anchor="middle" x="874.5" y="-263.5" font-family="Helvetica,sans-Serif" font-size="10.00">_verifier_with_trace_storage.h</text>
</a>
</g>
</g>
<!-- Node1&#45;&gt;Node13 -->
<g id="edge15" class="edge">
<title>Node1&#45;&gt;Node13</title>
<path fill="none" stroke="midnightblue" d="M809.69,-338.52C821,-328.92 833.75,-318.09 844.93,-308.61"/>
<polygon fill="midnightblue" stroke="midnightblue" points="807.1,-336.13 801.74,-345.27 811.63,-341.47 807.1,-336.13"/>
</g>
<!-- Node15 -->
<g id="node15" class="node">
<title>Node15</title>
<g id="a_node15"><a xlink:href="report__util_8cpp.html" target="_top" xlink:title="Bounded Model Checking Utilities.">
<polygon fill="none" stroke="black" points="974.5,-262 974.5,-303 1130.5,-303 1130.5,-262 974.5,-262"/>
<text text-anchor="start" x="982.5" y="-291" font-family="Helvetica,sans-Serif" font-size="10.00">/home/runner/work/diffblue</text>
<text text-anchor="start" x="982.5" y="-280" font-family="Helvetica,sans-Serif" font-size="10.00">&#45;cbmc/diffblue&#45;cbmc/src</text>
<text text-anchor="middle" x="1052.5" y="-269" font-family="Helvetica,sans-Serif" font-size="10.00">/goto&#45;checker/report_util.cpp</text>
</a>
</g>
</g>
<!-- Node1&#45;&gt;Node15 -->
<g id="edge20" class="edge">
<title>Node1&#45;&gt;Node15</title>
<path fill="none" stroke="midnightblue" d="M853.96,-342.55C895.65,-330.16 946.93,-314.9 986.93,-303"/>
<polygon fill="midnightblue" stroke="midnightblue" points="852.72,-339.27 844.13,-345.48 854.71,-345.98 852.72,-339.27"/>
</g>
<!-- Node3 -->
<g id="node3" class="node">
<title>Node3</title>
<g id="a_node3"><a xlink:href="cbmc__parse__options_8cpp.html" target="_top" xlink:title="CBMC Command Line Option Processing.">
<polygon fill="none" stroke="black" points="613,-178.5 613,-219.5 782,-219.5 782,-178.5 613,-178.5"/>
<text text-anchor="start" x="621" y="-207.5" font-family="Helvetica,sans-Serif" font-size="10.00">/home/runner/work/diffblue</text>
<text text-anchor="start" x="621" y="-196.5" font-family="Helvetica,sans-Serif" font-size="10.00">&#45;cbmc/diffblue&#45;cbmc/src</text>
<text text-anchor="middle" x="697.5" y="-185.5" font-family="Helvetica,sans-Serif" font-size="10.00">/cbmc/cbmc_parse_options.cpp</text>
</a>
</g>
</g>
<!-- Node2&#45;&gt;Node3 -->
<g id="edge2" class="edge">
<title>Node2&#45;&gt;Node3</title>
<path fill="none" stroke="midnightblue" d="M568.9,-252.67C595.71,-241.69 625.61,-229.44 649.83,-219.52"/>
<polygon fill="midnightblue" stroke="midnightblue" points="567.49,-249.46 559.56,-256.49 570.14,-255.94 567.49,-249.46"/>
</g>
<!-- Node4 -->
<g id="node4" class="node">
<title>Node4</title>
<g id="a_node4"><a xlink:href="cegis__verifier_8h.html" target="_top" xlink:title="Verifier for Counterexample&#45;Guided Synthesis.">
<polygon fill="none" stroke="black" points="216.5,-178.5 216.5,-219.5 394.5,-219.5 394.5,-178.5 216.5,-178.5"/>
<text text-anchor="start" x="224.5" y="-207.5" font-family="Helvetica,sans-Serif" font-size="10.00">/home/runner/work/diffblue</text>
<text text-anchor="start" x="224.5" y="-196.5" font-family="Helvetica,sans-Serif" font-size="10.00">&#45;cbmc/diffblue&#45;cbmc/src</text>
<text text-anchor="middle" x="305.5" y="-185.5" font-family="Helvetica,sans-Serif" font-size="10.00">/goto&#45;synthesizer/cegis_verifier.h</text>
</a>
</g>
</g>
<!-- Node2&#45;&gt;Node4 -->
<g id="edge3" class="edge">
<title>Node2&#45;&gt;Node4</title>
<path fill="none" stroke="midnightblue" d="M429.88,-252.52C403.97,-241.58 375.12,-229.4 351.74,-219.52"/>
<polygon fill="midnightblue" stroke="midnightblue" points="428.71,-255.83 439.28,-256.49 431.43,-249.38 428.71,-255.83"/>
</g>
<!-- Node11 -->
<g id="node11" class="node">
<title>Node11</title>
<g id="a_node11"><a xlink:href="jbmc__parse__options_8cpp.html" target="_top" xlink:title="JBMC Command Line Option Processing.">
<polygon fill="none" stroke="black" points="412.5,-178.5 412.5,-219.5 594.5,-219.5 594.5,-178.5 412.5,-178.5"/>
<text text-anchor="start" x="420.5" y="-207.5" font-family="Helvetica,sans-Serif" font-size="10.00">/home/runner/work/diffblue</text>
<text text-anchor="start" x="420.5" y="-196.5" font-family="Helvetica,sans-Serif" font-size="10.00">&#45;cbmc/diffblue&#45;cbmc/jbmc</text>
<text text-anchor="middle" x="503.5" y="-185.5" font-family="Helvetica,sans-Serif" font-size="10.00">/src/jbmc/jbmc_parse_options.cpp</text>
</a>
</g>
</g>
<!-- Node2&#45;&gt;Node11 -->
<g id="edge11" class="edge">
<title>Node2&#45;&gt;Node11</title>
<path fill="none" stroke="midnightblue" d="M500.67,-246.15C501.23,-237.05 501.81,-227.6 502.3,-219.63"/>
<polygon fill="midnightblue" stroke="midnightblue" points="497.17,-245.96 500.05,-256.16 504.16,-246.39 497.17,-245.96"/>
</g>
<!-- Node5 -->
<g id="node5" class="node">
<title>Node5</title>
<g id="a_node5"><a xlink:href="cegis__evaluator_8h.html" target="_top" xlink:title="Evaluate if an expression is consistent with examples.">
<polygon fill="none" stroke="black" points="112.5,-95 112.5,-136 302.5,-136 302.5,-95 112.5,-95"/>
<text text-anchor="start" x="120.5" y="-124" font-family="Helvetica,sans-Serif" font-size="10.00">/home/runner/work/diffblue</text>
<text text-anchor="start" x="120.5" y="-113" font-family="Helvetica,sans-Serif" font-size="10.00">&#45;cbmc/diffblue&#45;cbmc/src</text>
<text text-anchor="middle" x="207.5" y="-102" font-family="Helvetica,sans-Serif" font-size="10.00">/goto&#45;synthesizer/cegis_evaluator.h</text>
</a>
</g>
</g>
<!-- Node4&#45;&gt;Node5 -->
<g id="edge4" class="edge">
<title>Node4&#45;&gt;Node5</title>
<path fill="none" stroke="midnightblue" d="M273.86,-171.69C259.93,-160.1 243.85,-146.73 231,-136.05"/>
<polygon fill="midnightblue" stroke="midnightblue" points="271.85,-174.57 281.78,-178.27 276.33,-169.19 271.85,-174.57"/>
</g>
<!-- Node8 -->
<g id="node8" class="node">
<title>Node8</title>
<g id="a_node8"><a xlink:href="cegis__verifier_8cpp.html" target="_top" xlink:title="Verifier for Counterexample&#45;Guided Synthesis.">
<polygon fill="none" stroke="black" points="694,-95 694,-136 883,-136 883,-95 694,-95"/>
<text text-anchor="start" x="702" y="-124" font-family="Helvetica,sans-Serif" font-size="10.00">/home/runner/work/diffblue</text>
<text text-anchor="start" x="702" y="-113" font-family="Helvetica,sans-Serif" font-size="10.00">&#45;cbmc/diffblue&#45;cbmc/src</text>
<text text-anchor="middle" x="788.5" y="-102" font-family="Helvetica,sans-Serif" font-size="10.00">/goto&#45;synthesizer/cegis_verifier.cpp</text>
</a>
</g>
</g>
<!-- Node4&#45;&gt;Node8 -->
<g id="edge7" class="edge">
<title>Node4&#45;&gt;Node8</title>
<path fill="none" stroke="midnightblue" d="M404.77,-177.8C509.29,-158.94 618.16,-141.9 693.77,-130.47"/>
<polygon fill="midnightblue" stroke="midnightblue" points="403.88,-174.41 394.67,-179.63 405.13,-181.29 403.88,-174.41"/>
</g>
<!-- Node9 -->
<g id="node9" class="node">
<title>Node9</title>
<g id="a_node9"><a xlink:href="enumerative__loop__contracts__synthesizer_8h.html" target="_top" xlink:title="Enumerative Loop Contracts Synthesizer.">
<polygon fill="none" stroke="black" points="321,-89.5 321,-141.5 488,-141.5 488,-89.5 321,-89.5"/>
<text text-anchor="start" x="329" y="-129.5" font-family="Helvetica,sans-Serif" font-size="10.00">/home/runner/work/diffblue</text>
<text text-anchor="start" x="329" y="-118.5" font-family="Helvetica,sans-Serif" font-size="10.00">&#45;cbmc/diffblue&#45;cbmc/src</text>
<text text-anchor="start" x="329" y="-107.5" font-family="Helvetica,sans-Serif" font-size="10.00">/goto&#45;synthesizer/enumerative</text>
<text text-anchor="middle" x="404.5" y="-96.5" font-family="Helvetica,sans-Serif" font-size="10.00">_loop_contracts_synthesizer.h</text>
</a>
</g>
</g>
<!-- Node4&#45;&gt;Node9 -->
<g id="edge8" class="edge">
<title>Node4&#45;&gt;Node9</title>
<path fill="none" stroke="midnightblue" d="M337.07,-172.01C348.84,-162.32 362.17,-151.35 373.85,-141.73"/>
<polygon fill="midnightblue" stroke="midnightblue" points="334.71,-169.42 329.21,-178.48 339.16,-174.83 334.71,-169.42"/>
</g>
<!-- Node6 -->
<g id="node6" class="node">
<title>Node6</title>
<g id="a_node6"><a xlink:href="cegis__evaluator_8cpp.html" target="_top" xlink:title="Evaluate if an expression is consistent with examples.">
<polygon fill="none" stroke="black" points="0,-6 0,-47 201,-47 201,-6 0,-6"/>
<text text-anchor="start" x="8" y="-35" font-family="Helvetica,sans-Serif" font-size="10.00">/home/runner/work/diffblue</text>
<text text-anchor="start" x="8" y="-24" font-family="Helvetica,sans-Serif" font-size="10.00">&#45;cbmc/diffblue&#45;cbmc/src</text>
<text text-anchor="middle" x="100.5" y="-13" font-family="Helvetica,sans-Serif" font-size="10.00">/goto&#45;synthesizer/cegis_evaluator.cpp</text>
</a>
</g>
</g>
<!-- Node5&#45;&gt;Node6 -->
<g id="edge5" class="edge">
<title>Node5&#45;&gt;Node6</title>
<path fill="none" stroke="midnightblue" d="M175.33,-88.34C159.11,-75.15 139.76,-59.42 124.8,-47.26"/>
<polygon fill="midnightblue" stroke="midnightblue" points="173.52,-91.38 183.49,-94.98 177.94,-85.95 173.52,-91.38"/>
</g>
<!-- Node7 -->
<g id="node7" class="node">
<title>Node7</title>
<g id="a_node7"><a xlink:href="enumerative__loop__contracts__synthesizer_8cpp.html" target="_top" xlink:title="Enumerative Loop Contracts Synthesizer.">
<polygon fill="none" stroke="black" points="219.5,-0.5 219.5,-52.5 393.5,-52.5 393.5,-0.5 219.5,-0.5"/>
<text text-anchor="start" x="227.5" y="-40.5" font-family="Helvetica,sans-Serif" font-size="10.00">/home/runner/work/diffblue</text>
<text text-anchor="start" x="227.5" y="-29.5" font-family="Helvetica,sans-Serif" font-size="10.00">&#45;cbmc/diffblue&#45;cbmc/src</text>
<text text-anchor="start" x="227.5" y="-18.5" font-family="Helvetica,sans-Serif" font-size="10.00">/goto&#45;synthesizer/enumerative</text>
<text text-anchor="middle" x="306.5" y="-7.5" font-family="Helvetica,sans-Serif" font-size="10.00">_loop_contracts_synthesizer.cpp</text>
</a>
</g>
</g>
<!-- Node5&#45;&gt;Node7 -->
<g id="edge6" class="edge">
<title>Node5&#45;&gt;Node7</title>
<path fill="none" stroke="midnightblue" d="M237.6,-88.05C250.34,-76.85 265.13,-63.86 277.72,-52.79"/>
<polygon fill="midnightblue" stroke="midnightblue" points="235.17,-85.53 229.96,-94.76 239.79,-90.79 235.17,-85.53"/>
</g>
<!-- Node9&#45;&gt;Node7 -->
<g id="edge9" class="edge">
<title>Node9&#45;&gt;Node7</title>
<path fill="none" stroke="midnightblue" d="M368.62,-82.65C357.47,-72.75 345.34,-61.98 334.78,-52.61"/>
<polygon fill="midnightblue" stroke="midnightblue" points="366.35,-85.31 376.15,-89.34 371,-80.08 366.35,-85.31"/>
</g>
<!-- Node10 -->
<g id="node10" class="node">
<title>Node10</title>
<g id="a_node10"><a xlink:href="goto__synthesizer__parse__options_8cpp.html" target="_top" xlink:title="Main Module.">
<polygon fill="none" stroke="black" points="411.5,-0.5 411.5,-52.5 599.5,-52.5 599.5,-0.5 411.5,-0.5"/>
<text text-anchor="start" x="419.5" y="-40.5" font-family="Helvetica,sans-Serif" font-size="10.00">/home/runner/work/diffblue</text>
<text text-anchor="start" x="419.5" y="-29.5" font-family="Helvetica,sans-Serif" font-size="10.00">&#45;cbmc/diffblue&#45;cbmc/src</text>
<text text-anchor="start" x="419.5" y="-18.5" font-family="Helvetica,sans-Serif" font-size="10.00">/goto&#45;synthesizer/goto_synthesizer</text>
<text text-anchor="middle" x="505.5" y="-7.5" font-family="Helvetica,sans-Serif" font-size="10.00">_parse_options.cpp</text>
</a>
</g>
</g>
<!-- Node9&#45;&gt;Node10 -->
<g id="edge10" class="edge">
<title>Node9&#45;&gt;Node10</title>
<path fill="none" stroke="midnightblue" d="M441.48,-82.65C452.97,-72.75 465.47,-61.98 476.35,-52.61"/>
<polygon fill="midnightblue" stroke="midnightblue" points="439.01,-80.16 433.71,-89.34 443.57,-85.46 439.01,-80.16"/>
</g>
<!-- Node12&#45;&gt;Node3 -->
<g id="edge13" class="edge">
<title>Node12&#45;&gt;Node3</title>
<path fill="none" stroke="midnightblue" d="M689.57,-246.15C691.13,-237.05 692.76,-227.6 694.13,-219.63"/>
<polygon fill="midnightblue" stroke="midnightblue" points="686.1,-245.71 687.85,-256.16 693,-246.9 686.1,-245.71"/>
</g>
<!-- Node12&#45;&gt;Node11 -->
<g id="edge14" class="edge">
<title>Node12&#45;&gt;Node11</title>
<path fill="none" stroke="midnightblue" d="M618.67,-252.14C594.78,-241.33 568.32,-229.35 546.79,-219.6"/>
<polygon fill="midnightblue" stroke="midnightblue" points="617.47,-255.45 628.03,-256.38 620.36,-249.07 617.47,-255.45"/>
</g>
<!-- Node13&#45;&gt;Node3 -->
<g id="edge16" class="edge">
<title>Node13&#45;&gt;Node3</title>
<path fill="none" stroke="midnightblue" d="M810.75,-252.14C787.26,-241.33 761.24,-229.35 740.07,-219.6"/>
<polygon fill="midnightblue" stroke="midnightblue" points="809.4,-255.38 819.95,-256.38 812.33,-249.02 809.4,-255.38"/>
</g>
<!-- Node13&#45;&gt;Node8 -->
<g id="edge17" class="edge">
<title>Node13&#45;&gt;Node8</title>
<path fill="none" stroke="midnightblue" d="M932.62,-250.3C943.06,-241.91 952.51,-231.82 958.5,-220 966.94,-203.35 969.22,-193.28 958.5,-178 940.92,-152.95 912.08,-138.06 883.09,-129.23"/>
<polygon fill="midnightblue" stroke="midnightblue" points="930.4,-247.59 924.49,-256.38 934.59,-253.19 930.4,-247.59"/>
</g>
<!-- Node13&#45;&gt;Node11 -->
<g id="edge19" class="edge">
<title>Node13&#45;&gt;Node11</title>
<path fill="none" stroke="midnightblue" d="M782.19,-255.89C749.94,-248.94 663.38,-231.7 594.74,-218.08"/>
<polygon fill="midnightblue" stroke="midnightblue" points="781.71,-259.37 792.23,-258.15 783.24,-252.54 781.71,-259.37"/>
</g>
<!-- Node14 -->
<g id="node14" class="node">
<title>Node14</title>
<g id="a_node14"><a xlink:href="api_8cpp.html" target="_top" xlink:title=" ">
<polygon fill="none" stroke="black" points="800,-178.5 800,-219.5 949,-219.5 949,-178.5 800,-178.5"/>
<text text-anchor="start" x="808" y="-207.5" font-family="Helvetica,sans-Serif" font-size="10.00">/home/runner/work/diffblue</text>
<text text-anchor="start" x="808" y="-196.5" font-family="Helvetica,sans-Serif" font-size="10.00">&#45;cbmc/diffblue&#45;cbmc/src</text>
<text text-anchor="middle" x="874.5" y="-185.5" font-family="Helvetica,sans-Serif" font-size="10.00">/libcprover&#45;cpp/api.cpp</text>
</a>
</g>
</g>
<!-- Node13&#45;&gt;Node14 -->
<g id="edge18" class="edge">
<title>Node13&#45;&gt;Node14</title>
<path fill="none" stroke="midnightblue" d="M874.5,-246.15C874.5,-237.05 874.5,-227.6 874.5,-219.63"/>
<polygon fill="midnightblue" stroke="midnightblue" points="871,-246.16 874.5,-256.16 878,-246.16 871,-246.16"/>
</g>
</g>
</svg>
