<?xml version="1.0" encoding="UTF-8" standalone="no"?>
<!DOCTYPE svg PUBLIC "-//W3C//DTD SVG 1.1//EN"
 "http://www.w3.org/Graphics/SVG/1.1/DTD/svg11.dtd">
<!-- Generated by graphviz version 2.43.0 (0)
 -->
<!-- Title: /home/runner/work/diffblue&#45;cbmc/diffblue&#45;cbmc/unit/testing&#45;utils/require_vectors_equal_unordered.h Pages: 1 -->
<svg width="262pt" height="240pt"
 viewBox="0.00 0.00 262.00 240.00" xmlns="http://www.w3.org/2000/svg" xmlns:xlink="http://www.w3.org/1999/xlink">
<g id="graph0" class="graph" transform="scale(1 1) rotate(0) translate(4 236)">
<title>/home/runner/work/diffblue&#45;cbmc/diffblue&#45;cbmc/unit/testing&#45;utils/require_vectors_equal_unordered.h</title>
<!-- Node1 -->
<g id="node1" class="node">
<title>Node1</title>
<g id="a_node1"><a xlink:title=" ">
<polygon fill="#bfbfbf" stroke="black" points="91,-179.5 91,-231.5 248,-231.5 248,-179.5 91,-179.5"/>
<text text-anchor="start" x="99" y="-219.5" font-family="Helvetica,sans-Serif" font-size="10.00">/home/runner/work/diffblue</text>
<text text-anchor="start" x="99" y="-208.5" font-family="Helvetica,sans-Serif" font-size="10.00">&#45;cbmc/diffblue&#45;cbmc/unit</text>
<text text-anchor="start" x="99" y="-197.5" font-family="Helvetica,sans-Serif" font-size="10.00">/testing&#45;utils/require_vectors</text>
<text text-anchor="middle" x="169.5" y="-186.5" font-family="Helvetica,sans-Serif" font-size="10.00">_equal_unordered.h</text>
</a>
</g>
</g>
<!-- Node2 -->
<g id="node2" class="node">
<title>Node2</title>
<g id="a_node2"><a xlink:href="use__catch_8h.html" target="_top" xlink:title=" ">
<polygon fill="none" stroke="black" points="46.5,-123.5 46.5,-142.5 182.5,-142.5 182.5,-123.5 46.5,-123.5"/>
<text text-anchor="middle" x="114.5" y="-130.5" font-family="Helvetica,sans-Serif" font-size="10.00">testing&#45;utils/use_catch.h</text>
</a>
</g>
</g>
<!-- Node1&#45;&gt;Node2 -->
<g id="edge1" class="edge">
<title>Node1&#45;&gt;Node2</title>
<path fill="none" stroke="midnightblue" d="M149.95,-179.45C142.53,-169.93 134.26,-159.33 127.57,-150.76"/>
<polygon fill="midnightblue" stroke="midnightblue" points="130.19,-148.43 121.28,-142.7 124.68,-152.73 130.19,-148.43"/>
</g>
<!-- Node7 -->
<g id="node7" class="node">
<title>Node7</title>
<g id="a_node7"><a xlink:title=" ">
<polygon fill="none" stroke="#bfbfbf" points="201,-123.5 201,-142.5 248,-142.5 248,-123.5 201,-123.5"/>
<text text-anchor="middle" x="224.5" y="-130.5" font-family="Helvetica,sans-Serif" font-size="10.00">vector</text>
</a>
</g>
</g>
<!-- Node1&#45;&gt;Node7 -->
<g id="edge6" class="edge">
<title>Node1&#45;&gt;Node7</title>
<path fill="none" stroke="midnightblue" d="M189.05,-179.45C196.47,-169.93 204.74,-159.33 211.43,-150.76"/>
<polygon fill="midnightblue" stroke="midnightblue" points="214.32,-152.73 217.72,-142.7 208.81,-148.43 214.32,-152.73"/>
</g>
<!-- Node3 -->
<g id="node3" class="node">
<title>Node3</title>
<g id="a_node3"><a xlink:title=" ">
<polygon fill="none" stroke="#bfbfbf" points="0,-62 0,-81 93,-81 93,-62 0,-62"/>
<text text-anchor="middle" x="46.5" y="-69" font-family="Helvetica,sans-Serif" font-size="10.00">catch/catch.hpp</text>
</a>
</g>
</g>
<!-- Node2&#45;&gt;Node3 -->
<g id="edge2" class="edge">
<title>Node2&#45;&gt;Node3</title>
<path fill="none" stroke="midnightblue" d="M104.76,-123.48C94.15,-114.2 76.98,-99.17 64.02,-87.83"/>
<polygon fill="midnightblue" stroke="midnightblue" points="66.06,-84.96 56.22,-81.01 61.45,-90.23 66.06,-84.96"/>
</g>
<!-- Node4 -->
<g id="node4" class="node">
<title>Node4</title>
<g id="a_node4"><a xlink:href="smt__to__smt2__string_8h.html" target="_top" xlink:title="Streaming SMT data structures to a string based output stream.">
<polygon fill="none" stroke="black" points="111,-56.5 111,-86.5 254,-86.5 254,-56.5 111,-56.5"/>
<text text-anchor="start" x="119" y="-74.5" font-family="Helvetica,sans-Serif" font-size="10.00">solvers/smt2_incremental</text>
<text text-anchor="middle" x="182.5" y="-63.5" font-family="Helvetica,sans-Serif" font-size="10.00">/smt_to_smt2_string.h</text>
</a>
</g>
</g>
<!-- Node2&#45;&gt;Node4 -->
<g id="edge3" class="edge">
<title>Node2&#45;&gt;Node4</title>
<path fill="none" stroke="midnightblue" d="M124.24,-123.48C133.19,-115.64 146.83,-103.71 158.65,-93.37"/>
<polygon fill="midnightblue" stroke="midnightblue" points="161.25,-95.74 166.47,-86.52 156.64,-90.47 161.25,-95.74"/>
</g>
<!-- Node5 -->
<g id="node5" class="node">
<title>Node5</title>
<g id="a_node5"><a xlink:title=" ">
<polygon fill="none" stroke="#bfbfbf" points="126.5,-0.5 126.5,-19.5 174.5,-19.5 174.5,-0.5 126.5,-0.5"/>
<text text-anchor="middle" x="150.5" y="-7.5" font-family="Helvetica,sans-Serif" font-size="10.00">iosfwd</text>
</a>
</g>
</g>
<!-- Node4&#45;&gt;Node5 -->
<g id="edge4" class="edge">
<title>Node4&#45;&gt;Node5</title>
<path fill="none" stroke="midnightblue" d="M174.92,-56.4C170.46,-48.11 164.78,-37.55 160.02,-28.71"/>
<polygon fill="midnightblue" stroke="midnightblue" points="162.98,-26.81 155.16,-19.66 156.81,-30.12 162.98,-26.81"/>
</g>
<!-- Node6 -->
<g id="node6" class="node">
<title>Node6</title>
<g id="a_node6"><a xlink:title=" ">
<polygon fill="none" stroke="#bfbfbf" points="192.5,-0.5 192.5,-19.5 236.5,-19.5 236.5,-0.5 192.5,-0.5"/>
<text text-anchor="middle" x="214.5" y="-7.5" font-family="Helvetica,sans-Serif" font-size="10.00">string</text>
</a>
</g>
</g>
<!-- Node4&#45;&gt;Node6 -->
<g id="edge5" class="edge">
<title>Node4&#45;&gt;Node6</title>
<path fill="none" stroke="midnightblue" d="M190.08,-56.4C194.54,-48.11 200.22,-37.55 204.98,-28.71"/>
<polygon fill="midnightblue" stroke="midnightblue" points="208.19,-30.12 209.84,-19.66 202.02,-26.81 208.19,-30.12"/>
</g>
</g>
</svg>
