<?xml version="1.0" encoding="UTF-8" standalone="no"?>
<!DOCTYPE svg PUBLIC "-//W3C//DTD SVG 1.1//EN"
 "http://www.w3.org/Graphics/SVG/1.1/DTD/svg11.dtd">
<!-- Generated by graphviz version 2.43.0 (0)
 -->
<!-- Title: /home/runner/work/diffblue&#45;cbmc/diffblue&#45;cbmc/src/goto&#45;programs/resolve_inherited_component.h Pages: 1 -->
<svg width="3527pt" height="239pt"
 viewBox="0.00 0.00 3526.50 239.00" xmlns="http://www.w3.org/2000/svg" xmlns:xlink="http://www.w3.org/1999/xlink">
<g id="graph0" class="graph" transform="scale(1 1) rotate(0) translate(4 235)">
<title>/home/runner/work/diffblue&#45;cbmc/diffblue&#45;cbmc/src/goto&#45;programs/resolve_inherited_component.h</title>
<!-- Node1 -->
<g id="node1" class="node">
<title>Node1</title>
<g id="a_node1"><a xlink:title="Given a class and a component (either field or method), find the closest parent that defines that com...">
<polygon fill="#bfbfbf" stroke="black" points="529.5,-178.5 529.5,-230.5 708.5,-230.5 708.5,-178.5 529.5,-178.5"/>
<text text-anchor="start" x="537.5" y="-218.5" font-family="Helvetica,sans-Serif" font-size="10.00">/home/runner/work/diffblue</text>
<text text-anchor="start" x="537.5" y="-207.5" font-family="Helvetica,sans-Serif" font-size="10.00">&#45;cbmc/diffblue&#45;cbmc/src</text>
<text text-anchor="start" x="537.5" y="-196.5" font-family="Helvetica,sans-Serif" font-size="10.00">/goto&#45;programs/resolve_inherited</text>
<text text-anchor="middle" x="619" y="-185.5" font-family="Helvetica,sans-Serif" font-size="10.00">_component.h</text>
</a>
</g>
</g>
<!-- Node2 -->
<g id="node2" class="node">
<title>Node2</title>
<g id="a_node2"><a xlink:href="remove__virtual__functions_8cpp.html" target="_top" xlink:title="Remove Virtual Function (Method) Calls.">
<polygon fill="none" stroke="black" points="77.5,-89.5 77.5,-141.5 246.5,-141.5 246.5,-89.5 77.5,-89.5"/>
<text text-anchor="start" x="85.5" y="-129.5" font-family="Helvetica,sans-Serif" font-size="10.00">/home/runner/work/diffblue</text>
<text text-anchor="start" x="85.5" y="-118.5" font-family="Helvetica,sans-Serif" font-size="10.00">&#45;cbmc/diffblue&#45;cbmc/src</text>
<text text-anchor="start" x="85.5" y="-107.5" font-family="Helvetica,sans-Serif" font-size="10.00">/goto&#45;programs/remove_virtual</text>
<text text-anchor="middle" x="162" y="-96.5" font-family="Helvetica,sans-Serif" font-size="10.00">_functions.cpp</text>
</a>
</g>
</g>
<!-- Node1&#45;&gt;Node2 -->
<g id="edge1" class="edge">
<title>Node1&#45;&gt;Node2</title>
<path fill="none" stroke="midnightblue" d="M518.97,-189.36C445.55,-178.32 343.61,-161.58 255,-142 252.22,-141.39 249.4,-140.74 246.56,-140.07"/>
<polygon fill="midnightblue" stroke="midnightblue" points="518.73,-192.86 529.14,-190.88 519.76,-185.94 518.73,-192.86"/>
</g>
<!-- Node3 -->
<g id="node3" class="node">
<title>Node3</title>
<g id="a_node3"><a xlink:href="resolve__inherited__component_8cpp.html" target="_top" xlink:title=" ">
<polygon fill="none" stroke="black" points="264.5,-89.5 264.5,-141.5 443.5,-141.5 443.5,-89.5 264.5,-89.5"/>
<text text-anchor="start" x="272.5" y="-129.5" font-family="Helvetica,sans-Serif" font-size="10.00">/home/runner/work/diffblue</text>
<text text-anchor="start" x="272.5" y="-118.5" font-family="Helvetica,sans-Serif" font-size="10.00">&#45;cbmc/diffblue&#45;cbmc/src</text>
<text text-anchor="start" x="272.5" y="-107.5" font-family="Helvetica,sans-Serif" font-size="10.00">/goto&#45;programs/resolve_inherited</text>
<text text-anchor="middle" x="354" y="-96.5" font-family="Helvetica,sans-Serif" font-size="10.00">_component.cpp</text>
</a>
</g>
</g>
<!-- Node1&#45;&gt;Node3 -->
<g id="edge2" class="edge">
<title>Node1&#45;&gt;Node3</title>
<path fill="none" stroke="midnightblue" d="M533.04,-175.28C499.92,-164.4 462.35,-152.07 430.21,-141.52"/>
<polygon fill="midnightblue" stroke="midnightblue" points="532.11,-178.66 542.71,-178.45 534.3,-172.01 532.11,-178.66"/>
</g>
<!-- Node4 -->
<g id="node4" class="node">
<title>Node4</title>
<g id="a_node4"><a xlink:href="ci__lazy__methods_8cpp.html" target="_top" xlink:title=" ">
<polygon fill="none" stroke="black" points="461.5,-89.5 461.5,-141.5 610.5,-141.5 610.5,-89.5 461.5,-89.5"/>
<text text-anchor="start" x="469.5" y="-129.5" font-family="Helvetica,sans-Serif" font-size="10.00">/home/runner/work/diffblue</text>
<text text-anchor="start" x="469.5" y="-118.5" font-family="Helvetica,sans-Serif" font-size="10.00">&#45;cbmc/diffblue&#45;cbmc/jbmc</text>
<text text-anchor="start" x="469.5" y="-107.5" font-family="Helvetica,sans-Serif" font-size="10.00">/src/java_bytecode/ci_lazy</text>
<text text-anchor="middle" x="536" y="-96.5" font-family="Helvetica,sans-Serif" font-size="10.00">_methods.cpp</text>
</a>
</g>
</g>
<!-- Node1&#45;&gt;Node4 -->
<g id="edge3" class="edge">
<title>Node1&#45;&gt;Node4</title>
<path fill="none" stroke="midnightblue" d="M588.07,-171.08C578.77,-161.34 568.72,-150.8 559.95,-141.61"/>
<polygon fill="midnightblue" stroke="midnightblue" points="585.56,-173.52 594.99,-178.34 590.62,-168.68 585.56,-173.52"/>
</g>
<!-- Node5 -->
<g id="node5" class="node">
<title>Node5</title>
<g id="a_node5"><a xlink:href="ci__lazy__methods__needed_8cpp.html" target="_top" xlink:title="Context&#45;insensitive lazy methods container.">
<polygon fill="none" stroke="black" points="628.5,-89.5 628.5,-141.5 777.5,-141.5 777.5,-89.5 628.5,-89.5"/>
<text text-anchor="start" x="636.5" y="-129.5" font-family="Helvetica,sans-Serif" font-size="10.00">/home/runner/work/diffblue</text>
<text text-anchor="start" x="636.5" y="-118.5" font-family="Helvetica,sans-Serif" font-size="10.00">&#45;cbmc/diffblue&#45;cbmc/jbmc</text>
<text text-anchor="start" x="636.5" y="-107.5" font-family="Helvetica,sans-Serif" font-size="10.00">/src/java_bytecode/ci_lazy</text>
<text text-anchor="middle" x="703" y="-96.5" font-family="Helvetica,sans-Serif" font-size="10.00">_methods_needed.cpp</text>
</a>
</g>
</g>
<!-- Node1&#45;&gt;Node5 -->
<g id="edge4" class="edge">
<title>Node1&#45;&gt;Node5</title>
<path fill="none" stroke="midnightblue" d="M650.31,-171.08C659.71,-161.34 669.88,-150.8 678.76,-141.61"/>
<polygon fill="midnightblue" stroke="midnightblue" points="647.72,-168.71 643.3,-178.34 652.76,-173.57 647.72,-168.71"/>
</g>
<!-- Node6 -->
<g id="node6" class="node">
<title>Node6</title>
<g id="a_node6"><a xlink:href="java__bytecode__convert__method_8cpp.html" target="_top" xlink:title="JAVA Bytecode Language Conversion.">
<polygon fill="none" stroke="black" points="0,-0.5 0,-52.5 182,-52.5 182,-0.5 0,-0.5"/>
<text text-anchor="start" x="8" y="-40.5" font-family="Helvetica,sans-Serif" font-size="10.00">/home/runner/work/diffblue</text>
<text text-anchor="start" x="8" y="-29.5" font-family="Helvetica,sans-Serif" font-size="10.00">&#45;cbmc/diffblue&#45;cbmc/jbmc</text>
<text text-anchor="start" x="8" y="-18.5" font-family="Helvetica,sans-Serif" font-size="10.00">/src/java_bytecode/java_bytecode</text>
<text text-anchor="middle" x="91" y="-7.5" font-family="Helvetica,sans-Serif" font-size="10.00">_convert_method.cpp</text>
</a>
</g>
</g>
<!-- Node1&#45;&gt;Node6 -->
<g id="edge5" class="edge">
<title>Node1&#45;&gt;Node6</title>
<path fill="none" stroke="midnightblue" d="M718.57,-188.22C744.76,-179.17 770.1,-164.8 786,-142 799.47,-122.68 802.15,-106.15 786,-89 740.6,-40.77 256.44,-63.23 191,-53 188.08,-52.54 185.12,-52.04 182.14,-51.5"/>
<polygon fill="midnightblue" stroke="midnightblue" points="717.35,-184.93 708.9,-191.31 719.49,-191.6 717.35,-184.93"/>
</g>
<!-- Node7 -->
<g id="node7" class="node">
<title>Node7</title>
<g id="a_node7"><a xlink:href="java__utils_8h.html" target="_top" xlink:title=" ">
<polygon fill="none" stroke="black" points="1640.5,-95 1640.5,-136 1807.5,-136 1807.5,-95 1640.5,-95"/>
<text text-anchor="start" x="1648.5" y="-124" font-family="Helvetica,sans-Serif" font-size="10.00">/home/runner/work/diffblue</text>
<text text-anchor="start" x="1648.5" y="-113" font-family="Helvetica,sans-Serif" font-size="10.00">&#45;cbmc/diffblue&#45;cbmc/jbmc</text>
<text text-anchor="middle" x="1724" y="-102" font-family="Helvetica,sans-Serif" font-size="10.00">/src/java_bytecode/java_utils.h</text>
</a>
</g>
</g>
<!-- Node1&#45;&gt;Node7 -->
<g id="edge6" class="edge">
<title>Node1&#45;&gt;Node7</title>
<path fill="none" stroke="midnightblue" d="M719.01,-195.63C934.66,-178.65 1440.08,-138.85 1640.24,-123.09"/>
<polygon fill="midnightblue" stroke="midnightblue" points="718.65,-192.14 708.96,-196.42 719.2,-199.12 718.65,-192.14"/>
</g>
<!-- Node7&#45;&gt;Node6 -->
<g id="edge11" class="edge">
<title>Node7&#45;&gt;Node6</title>
<path fill="none" stroke="midnightblue" d="M1630.05,-111.88C1318.75,-103.03 332.75,-73.68 191,-53 188.07,-52.57 185.11,-52.1 182.13,-51.58"/>
<polygon fill="midnightblue" stroke="midnightblue" points="1630.3,-115.39 1640.39,-112.17 1630.5,-108.39 1630.3,-115.39"/>
</g>
<!-- Node8 -->
<g id="node8" class="node">
<title>Node8</title>
<g id="a_node8"><a xlink:href="assignments__from__json_8cpp.html" target="_top" xlink:title=" ">
<polygon fill="none" stroke="black" points="200.5,-0.5 200.5,-52.5 373.5,-52.5 373.5,-0.5 200.5,-0.5"/>
<text text-anchor="start" x="208.5" y="-40.5" font-family="Helvetica,sans-Serif" font-size="10.00">/home/runner/work/diffblue</text>
<text text-anchor="start" x="208.5" y="-29.5" font-family="Helvetica,sans-Serif" font-size="10.00">&#45;cbmc/diffblue&#45;cbmc/jbmc</text>
<text text-anchor="start" x="208.5" y="-18.5" font-family="Helvetica,sans-Serif" font-size="10.00">/src/java_bytecode/assignments</text>
<text text-anchor="middle" x="287" y="-7.5" font-family="Helvetica,sans-Serif" font-size="10.00">_from_json.cpp</text>
</a>
</g>
</g>
<!-- Node7&#45;&gt;Node8 -->
<g id="edge7" class="edge">
<title>Node7&#45;&gt;Node8</title>
<path fill="none" stroke="midnightblue" d="M1630.04,-112.84C1366.36,-107.75 623.08,-90.43 382,-53 379.22,-52.57 376.4,-52.09 373.56,-51.56"/>
<polygon fill="midnightblue" stroke="midnightblue" points="1630.28,-116.34 1640.35,-113.04 1630.41,-109.34 1630.28,-116.34"/>
</g>
<!-- Node9 -->
<g id="node9" class="node">
<title>Node9</title>
<g id="a_node9"><a xlink:href="convert__java__nondet_8cpp.html" target="_top" xlink:title="Convert side_effect_expr_nondett expressions.">
<polygon fill="none" stroke="black" points="391.5,-0.5 391.5,-52.5 540.5,-52.5 540.5,-0.5 391.5,-0.5"/>
<text text-anchor="start" x="399.5" y="-40.5" font-family="Helvetica,sans-Serif" font-size="10.00">/home/runner/work/diffblue</text>
<text text-anchor="start" x="399.5" y="-29.5" font-family="Helvetica,sans-Serif" font-size="10.00">&#45;cbmc/diffblue&#45;cbmc/jbmc</text>
<text text-anchor="start" x="399.5" y="-18.5" font-family="Helvetica,sans-Serif" font-size="10.00">/src/java_bytecode/convert</text>
<text text-anchor="middle" x="466" y="-7.5" font-family="Helvetica,sans-Serif" font-size="10.00">_java_nondet.cpp</text>
</a>
</g>
</g>
<!-- Node7&#45;&gt;Node9 -->
<g id="edge8" class="edge">
<title>Node7&#45;&gt;Node9</title>
<path fill="none" stroke="midnightblue" d="M1630.03,-112.56C1389.5,-107.11 755.97,-89.63 549,-53 546.33,-52.53 543.62,-51.99 540.9,-51.41"/>
<polygon fill="midnightblue" stroke="midnightblue" points="1630.07,-116.06 1640.15,-112.79 1630.23,-109.06 1630.07,-116.06"/>
</g>
<!-- Node10 -->
<g id="node10" class="node">
<title>Node10</title>
<g id="a_node10"><a xlink:href="java__bytecode__concurrency__instrumentation_8cpp.html" target="_top" xlink:title=" ">
<polygon fill="none" stroke="black" points="558.5,-0.5 558.5,-52.5 743.5,-52.5 743.5,-0.5 558.5,-0.5"/>
<text text-anchor="start" x="566.5" y="-40.5" font-family="Helvetica,sans-Serif" font-size="10.00">/home/runner/work/diffblue</text>
<text text-anchor="start" x="566.5" y="-29.5" font-family="Helvetica,sans-Serif" font-size="10.00">&#45;cbmc/diffblue&#45;cbmc/jbmc</text>
<text text-anchor="start" x="566.5" y="-18.5" font-family="Helvetica,sans-Serif" font-size="10.00">/src/java_bytecode/java_bytecode</text>
<text text-anchor="middle" x="651" y="-7.5" font-family="Helvetica,sans-Serif" font-size="10.00">_concurrency_instrumentation.cpp</text>
</a>
</g>
</g>
<!-- Node7&#45;&gt;Node10 -->
<g id="edge9" class="edge">
<title>Node7&#45;&gt;Node10</title>
<path fill="none" stroke="midnightblue" d="M1630.17,-114.2C1456.17,-112.4 1072.12,-102.57 753,-53 749.93,-52.52 746.82,-52 743.69,-51.43"/>
<polygon fill="midnightblue" stroke="midnightblue" points="1630.29,-117.7 1640.32,-114.3 1630.35,-110.7 1630.29,-117.7"/>
</g>
<!-- Node11 -->
<g id="node11" class="node">
<title>Node11</title>
<g id="a_node11"><a xlink:href="java__bytecode__convert__class_8cpp.html" target="_top" xlink:title="JAVA Bytecode Language Conversion.">
<polygon fill="none" stroke="black" points="762,-0.5 762,-52.5 944,-52.5 944,-0.5 762,-0.5"/>
<text text-anchor="start" x="770" y="-40.5" font-family="Helvetica,sans-Serif" font-size="10.00">/home/runner/work/diffblue</text>
<text text-anchor="start" x="770" y="-29.5" font-family="Helvetica,sans-Serif" font-size="10.00">&#45;cbmc/diffblue&#45;cbmc/jbmc</text>
<text text-anchor="start" x="770" y="-18.5" font-family="Helvetica,sans-Serif" font-size="10.00">/src/java_bytecode/java_bytecode</text>
<text text-anchor="middle" x="853" y="-7.5" font-family="Helvetica,sans-Serif" font-size="10.00">_convert_class.cpp</text>
</a>
</g>
</g>
<!-- Node7&#45;&gt;Node11 -->
<g id="edge10" class="edge">
<title>Node7&#45;&gt;Node11</title>
<path fill="none" stroke="midnightblue" d="M1630.19,-112.15C1484.4,-107.36 1195.06,-93.22 953,-53 950.08,-52.52 947.13,-51.99 944.15,-51.42"/>
<polygon fill="midnightblue" stroke="midnightblue" points="1630.32,-115.66 1640.43,-112.48 1630.55,-108.66 1630.32,-115.66"/>
</g>
<!-- Node12 -->
<g id="node12" class="node">
<title>Node12</title>
<g id="a_node12"><a xlink:href="java__bytecode__instrument_8cpp.html" target="_top" xlink:title=" ">
<polygon fill="none" stroke="black" points="962,-0.5 962,-52.5 1144,-52.5 1144,-0.5 962,-0.5"/>
<text text-anchor="start" x="970" y="-40.5" font-family="Helvetica,sans-Serif" font-size="10.00">/home/runner/work/diffblue</text>
<text text-anchor="start" x="970" y="-29.5" font-family="Helvetica,sans-Serif" font-size="10.00">&#45;cbmc/diffblue&#45;cbmc/jbmc</text>
<text text-anchor="start" x="970" y="-18.5" font-family="Helvetica,sans-Serif" font-size="10.00">/src/java_bytecode/java_bytecode</text>
<text text-anchor="middle" x="1053" y="-7.5" font-family="Helvetica,sans-Serif" font-size="10.00">_instrument.cpp</text>
</a>
</g>
</g>
<!-- Node7&#45;&gt;Node12 -->
<g id="edge12" class="edge">
<title>Node7&#45;&gt;Node12</title>
<path fill="none" stroke="midnightblue" d="M1630.2,-108.51C1516.58,-100.31 1319.68,-83.07 1153,-53 1150.09,-52.48 1147.14,-51.91 1144.17,-51.32"/>
<polygon fill="midnightblue" stroke="midnightblue" points="1630.03,-112.01 1640.25,-109.23 1630.53,-105.03 1630.03,-112.01"/>
</g>
<!-- Node13 -->
<g id="node13" class="node">
<title>Node13</title>
<g id="a_node13"><a xlink:href="java__bytecode__language_8cpp.html" target="_top" xlink:title=" ">
<polygon fill="none" stroke="black" points="1162,-0.5 1162,-52.5 1344,-52.5 1344,-0.5 1162,-0.5"/>
<text text-anchor="start" x="1170" y="-40.5" font-family="Helvetica,sans-Serif" font-size="10.00">/home/runner/work/diffblue</text>
<text text-anchor="start" x="1170" y="-29.5" font-family="Helvetica,sans-Serif" font-size="10.00">&#45;cbmc/diffblue&#45;cbmc/jbmc</text>
<text text-anchor="start" x="1170" y="-18.5" font-family="Helvetica,sans-Serif" font-size="10.00">/src/java_bytecode/java_bytecode</text>
<text text-anchor="middle" x="1253" y="-7.5" font-family="Helvetica,sans-Serif" font-size="10.00">_language.cpp</text>
</a>
</g>
</g>
<!-- Node7&#45;&gt;Node13 -->
<g id="edge13" class="edge">
<title>Node7&#45;&gt;Node13</title>
<path fill="none" stroke="midnightblue" d="M1630.44,-101.25C1555.17,-90.05 1446.86,-72.71 1353,-53 1350.11,-52.39 1347.17,-51.76 1344.21,-51.1"/>
<polygon fill="midnightblue" stroke="midnightblue" points="1629.96,-104.72 1640.37,-102.72 1630.99,-97.8 1629.96,-104.72"/>
</g>
<!-- Node14 -->
<g id="node14" class="node">
<title>Node14</title>
<g id="a_node14"><a xlink:href="java__entry__point_8cpp.html" target="_top" xlink:title=" ">
<polygon fill="none" stroke="black" points="1362.5,-0.5 1362.5,-52.5 1525.5,-52.5 1525.5,-0.5 1362.5,-0.5"/>
<text text-anchor="start" x="1370.5" y="-40.5" font-family="Helvetica,sans-Serif" font-size="10.00">/home/runner/work/diffblue</text>
<text text-anchor="start" x="1370.5" y="-29.5" font-family="Helvetica,sans-Serif" font-size="10.00">&#45;cbmc/diffblue&#45;cbmc/jbmc</text>
<text text-anchor="start" x="1370.5" y="-18.5" font-family="Helvetica,sans-Serif" font-size="10.00">/src/java_bytecode/java_entry</text>
<text text-anchor="middle" x="1444" y="-7.5" font-family="Helvetica,sans-Serif" font-size="10.00">_point.cpp</text>
</a>
</g>
</g>
<!-- Node7&#45;&gt;Node14 -->
<g id="edge14" class="edge">
<title>Node7&#45;&gt;Node14</title>
<path fill="none" stroke="midnightblue" d="M1651.48,-91.97C1612.57,-79.88 1564.53,-64.95 1524.47,-52.5"/>
<polygon fill="midnightblue" stroke="midnightblue" points="1650.57,-95.35 1661.16,-94.98 1652.65,-88.67 1650.57,-95.35"/>
</g>
<!-- Node15 -->
<g id="node15" class="node">
<title>Node15</title>
<g id="a_node15"><a xlink:href="java__enum__static__init__unwind__handler_8cpp.html" target="_top" xlink:title="Unwind loops in static initializers.">
<polygon fill="none" stroke="black" points="1544,-0.5 1544,-52.5 1716,-52.5 1716,-0.5 1544,-0.5"/>
<text text-anchor="start" x="1552" y="-40.5" font-family="Helvetica,sans-Serif" font-size="10.00">/home/runner/work/diffblue</text>
<text text-anchor="start" x="1552" y="-29.5" font-family="Helvetica,sans-Serif" font-size="10.00">&#45;cbmc/diffblue&#45;cbmc/jbmc</text>
<text text-anchor="start" x="1552" y="-18.5" font-family="Helvetica,sans-Serif" font-size="10.00">/src/java_bytecode/java_enum</text>
<text text-anchor="middle" x="1630" y="-7.5" font-family="Helvetica,sans-Serif" font-size="10.00">_static_init_unwind_handler.cpp</text>
</a>
</g>
</g>
<!-- Node7&#45;&gt;Node15 -->
<g id="edge15" class="edge">
<title>Node7&#45;&gt;Node15</title>
<path fill="none" stroke="midnightblue" d="M1695.08,-87.73C1683.06,-76.6 1669.17,-63.75 1657.32,-52.79"/>
<polygon fill="midnightblue" stroke="midnightblue" points="1692.95,-90.53 1702.67,-94.76 1697.71,-85.4 1692.95,-90.53"/>
</g>
<!-- Node16 -->
<g id="node16" class="node">
<title>Node16</title>
<g id="a_node16"><a xlink:href="java__object__factory_8cpp.html" target="_top" xlink:title=" ">
<polygon fill="none" stroke="black" points="1734.5,-0.5 1734.5,-52.5 1901.5,-52.5 1901.5,-0.5 1734.5,-0.5"/>
<text text-anchor="start" x="1742.5" y="-40.5" font-family="Helvetica,sans-Serif" font-size="10.00">/home/runner/work/diffblue</text>
<text text-anchor="start" x="1742.5" y="-29.5" font-family="Helvetica,sans-Serif" font-size="10.00">&#45;cbmc/diffblue&#45;cbmc/jbmc</text>
<text text-anchor="start" x="1742.5" y="-18.5" font-family="Helvetica,sans-Serif" font-size="10.00">/src/java_bytecode/java_object</text>
<text text-anchor="middle" x="1818" y="-7.5" font-family="Helvetica,sans-Serif" font-size="10.00">_factory.cpp</text>
</a>
</g>
</g>
<!-- Node7&#45;&gt;Node16 -->
<g id="edge16" class="edge">
<title>Node7&#45;&gt;Node16</title>
<path fill="none" stroke="midnightblue" d="M1752.92,-87.73C1764.94,-76.6 1778.83,-63.75 1790.68,-52.79"/>
<polygon fill="midnightblue" stroke="midnightblue" points="1750.29,-85.4 1745.33,-94.76 1755.05,-90.53 1750.29,-85.4"/>
</g>
<!-- Node17 -->
<g id="node17" class="node">
<title>Node17</title>
<g id="a_node17"><a xlink:href="java__static__initializers_8cpp.html" target="_top" xlink:title=" ">
<polygon fill="none" stroke="black" points="1920,-0.5 1920,-52.5 2084,-52.5 2084,-0.5 1920,-0.5"/>
<text text-anchor="start" x="1928" y="-40.5" font-family="Helvetica,sans-Serif" font-size="10.00">/home/runner/work/diffblue</text>
<text text-anchor="start" x="1928" y="-29.5" font-family="Helvetica,sans-Serif" font-size="10.00">&#45;cbmc/diffblue&#45;cbmc/jbmc</text>
<text text-anchor="start" x="1928" y="-18.5" font-family="Helvetica,sans-Serif" font-size="10.00">/src/java_bytecode/java_static</text>
<text text-anchor="middle" x="2002" y="-7.5" font-family="Helvetica,sans-Serif" font-size="10.00">_initializers.cpp</text>
</a>
</g>
</g>
<!-- Node7&#45;&gt;Node17 -->
<g id="edge17" class="edge">
<title>Node7&#45;&gt;Node17</title>
<path fill="none" stroke="midnightblue" d="M1796,-91.97C1834.63,-79.88 1882.33,-64.95 1922.1,-52.5"/>
<polygon fill="midnightblue" stroke="midnightblue" points="1794.89,-88.65 1786.39,-94.98 1796.98,-95.33 1794.89,-88.65"/>
</g>
<!-- Node18 -->
<g id="node18" class="node">
<title>Node18</title>
<g id="a_node18"><a xlink:href="java__string__library__preprocess_8cpp.html" target="_top" xlink:title="Java_string_libraries_preprocess, gives code for methods on strings of the java standard library.">
<polygon fill="none" stroke="black" points="2102.5,-0.5 2102.5,-52.5 2267.5,-52.5 2267.5,-0.5 2102.5,-0.5"/>
<text text-anchor="start" x="2110.5" y="-40.5" font-family="Helvetica,sans-Serif" font-size="10.00">/home/runner/work/diffblue</text>
<text text-anchor="start" x="2110.5" y="-29.5" font-family="Helvetica,sans-Serif" font-size="10.00">&#45;cbmc/diffblue&#45;cbmc/jbmc</text>
<text text-anchor="start" x="2110.5" y="-18.5" font-family="Helvetica,sans-Serif" font-size="10.00">/src/java_bytecode/java_string</text>
<text text-anchor="middle" x="2185" y="-7.5" font-family="Helvetica,sans-Serif" font-size="10.00">_library_preprocess.cpp</text>
</a>
</g>
</g>
<!-- Node7&#45;&gt;Node18 -->
<g id="edge18" class="edge">
<title>Node7&#45;&gt;Node18</title>
<path fill="none" stroke="midnightblue" d="M1818,-101.62C1892.88,-90.69 2000.19,-73.54 2093,-53 2096.07,-52.32 2099.2,-51.6 2102.35,-50.85"/>
<polygon fill="midnightblue" stroke="midnightblue" points="1817.04,-98.22 1807.65,-103.12 1818.05,-105.15 1817.04,-98.22"/>
</g>
<!-- Node19 -->
<g id="node19" class="node">
<title>Node19</title>
<g id="a_node19"><a xlink:href="java__string__literals_8cpp.html" target="_top" xlink:title=" ">
<polygon fill="none" stroke="black" points="2285.5,-0.5 2285.5,-52.5 2450.5,-52.5 2450.5,-0.5 2285.5,-0.5"/>
<text text-anchor="start" x="2293.5" y="-40.5" font-family="Helvetica,sans-Serif" font-size="10.00">/home/runner/work/diffblue</text>
<text text-anchor="start" x="2293.5" y="-29.5" font-family="Helvetica,sans-Serif" font-size="10.00">&#45;cbmc/diffblue&#45;cbmc/jbmc</text>
<text text-anchor="start" x="2293.5" y="-18.5" font-family="Helvetica,sans-Serif" font-size="10.00">/src/java_bytecode/java_string</text>
<text text-anchor="middle" x="2368" y="-7.5" font-family="Helvetica,sans-Serif" font-size="10.00">_literals.cpp</text>
</a>
</g>
</g>
<!-- Node7&#45;&gt;Node19 -->
<g id="edge19" class="edge">
<title>Node7&#45;&gt;Node19</title>
<path fill="none" stroke="midnightblue" d="M1817.67,-108.74C1928.22,-100.87 2117.23,-84.06 2277,-53 2279.74,-52.47 2282.51,-51.89 2285.31,-51.29"/>
<polygon fill="midnightblue" stroke="midnightblue" points="1817.28,-105.26 1807.55,-109.45 1817.77,-112.24 1817.28,-105.26"/>
</g>
<!-- Node20 -->
<g id="node20" class="node">
<title>Node20</title>
<g id="a_node20"><a xlink:href="java__types_8cpp.html" target="_top" xlink:title=" ">
<polygon fill="none" stroke="black" points="2468.5,-6 2468.5,-47 2653.5,-47 2653.5,-6 2468.5,-6"/>
<text text-anchor="start" x="2476.5" y="-35" font-family="Helvetica,sans-Serif" font-size="10.00">/home/runner/work/diffblue</text>
<text text-anchor="start" x="2476.5" y="-24" font-family="Helvetica,sans-Serif" font-size="10.00">&#45;cbmc/diffblue&#45;cbmc/jbmc</text>
<text text-anchor="middle" x="2561" y="-13" font-family="Helvetica,sans-Serif" font-size="10.00">/src/java_bytecode/java_types.cpp</text>
</a>
</g>
</g>
<!-- Node7&#45;&gt;Node20 -->
<g id="edge20" class="edge">
<title>Node7&#45;&gt;Node20</title>
<path fill="none" stroke="midnightblue" d="M1817.91,-111.58C1958.4,-106.1 2231.27,-91.17 2460,-53 2469.72,-51.38 2479.88,-49.29 2489.85,-47.01"/>
<polygon fill="midnightblue" stroke="midnightblue" points="1817.47,-108.09 1807.61,-111.97 1817.74,-115.09 1817.47,-108.09"/>
</g>
<!-- Node21 -->
<g id="node21" class="node">
<title>Node21</title>
<g id="a_node21"><a xlink:href="java__utils_8cpp.html" target="_top" xlink:title=" ">
<polygon fill="none" stroke="black" points="2671.5,-6 2671.5,-47 2850.5,-47 2850.5,-6 2671.5,-6"/>
<text text-anchor="start" x="2679.5" y="-35" font-family="Helvetica,sans-Serif" font-size="10.00">/home/runner/work/diffblue</text>
<text text-anchor="start" x="2679.5" y="-24" font-family="Helvetica,sans-Serif" font-size="10.00">&#45;cbmc/diffblue&#45;cbmc/jbmc</text>
<text text-anchor="middle" x="2761" y="-13" font-family="Helvetica,sans-Serif" font-size="10.00">/src/java_bytecode/java_utils.cpp</text>
</a>
</g>
</g>
<!-- Node7&#45;&gt;Node21 -->
<g id="edge21" class="edge">
<title>Node7&#45;&gt;Node21</title>
<path fill="none" stroke="midnightblue" d="M1817.97,-114.2C1987.78,-112.37 2356.57,-102.45 2663,-53 2672.72,-51.43 2682.88,-49.33 2692.81,-47"/>
<polygon fill="midnightblue" stroke="midnightblue" points="1817.78,-110.71 1807.81,-114.31 1817.85,-117.71 1817.78,-110.71"/>
</g>
<!-- Node22 -->
<g id="node22" class="node">
<title>Node22</title>
<g id="a_node22"><a xlink:href="lambda__synthesis_8cpp.html" target="_top" xlink:title="Java lambda code synthesis.">
<polygon fill="none" stroke="black" points="2868.5,-0.5 2868.5,-52.5 3017.5,-52.5 3017.5,-0.5 2868.5,-0.5"/>
<text text-anchor="start" x="2876.5" y="-40.5" font-family="Helvetica,sans-Serif" font-size="10.00">/home/runner/work/diffblue</text>
<text text-anchor="start" x="2876.5" y="-29.5" font-family="Helvetica,sans-Serif" font-size="10.00">&#45;cbmc/diffblue&#45;cbmc/jbmc</text>
<text text-anchor="start" x="2876.5" y="-18.5" font-family="Helvetica,sans-Serif" font-size="10.00">/src/java_bytecode/lambda</text>
<text text-anchor="middle" x="2943" y="-7.5" font-family="Helvetica,sans-Serif" font-size="10.00">_synthesis.cpp</text>
</a>
</g>
</g>
<!-- Node7&#45;&gt;Node22 -->
<g id="edge22" class="edge">
<title>Node7&#45;&gt;Node22</title>
<path fill="none" stroke="midnightblue" d="M1817.72,-112.37C2052.4,-106.56 2660.73,-88.46 2860,-53 2862.67,-52.52 2865.38,-51.99 2868.1,-51.41"/>
<polygon fill="midnightblue" stroke="midnightblue" points="1817.42,-108.87 1807.51,-112.62 1817.59,-115.87 1817.42,-108.87"/>
</g>
<!-- Node23 -->
<g id="node23" class="node">
<title>Node23</title>
<g id="a_node23"><a xlink:href="remove__java__new_8cpp.html" target="_top" xlink:title="Remove Java New Operators.">
<polygon fill="none" stroke="black" points="3035.5,-0.5 3035.5,-52.5 3184.5,-52.5 3184.5,-0.5 3035.5,-0.5"/>
<text text-anchor="start" x="3043.5" y="-40.5" font-family="Helvetica,sans-Serif" font-size="10.00">/home/runner/work/diffblue</text>
<text text-anchor="start" x="3043.5" y="-29.5" font-family="Helvetica,sans-Serif" font-size="10.00">&#45;cbmc/diffblue&#45;cbmc/jbmc</text>
<text text-anchor="start" x="3043.5" y="-18.5" font-family="Helvetica,sans-Serif" font-size="10.00">/src/java_bytecode/remove</text>
<text text-anchor="middle" x="3110" y="-7.5" font-family="Helvetica,sans-Serif" font-size="10.00">_java_new.cpp</text>
</a>
</g>
</g>
<!-- Node7&#45;&gt;Node23 -->
<g id="edge23" class="edge">
<title>Node7&#45;&gt;Node23</title>
<path fill="none" stroke="midnightblue" d="M1818.04,-113.12C2076.61,-108.84 2794.46,-93.55 3027,-53 3029.67,-52.53 3032.38,-52.01 3035.1,-51.43"/>
<polygon fill="midnightblue" stroke="midnightblue" points="1817.87,-109.62 1807.92,-113.29 1817.98,-116.62 1817.87,-109.62"/>
</g>
<!-- Node24 -->
<g id="node24" class="node">
<title>Node24</title>
<g id="a_node24"><a xlink:href="simple__method__stubbing_8cpp.html" target="_top" xlink:title="Java simple opaque stub generation.">
<polygon fill="none" stroke="black" points="3202.5,-0.5 3202.5,-52.5 3351.5,-52.5 3351.5,-0.5 3202.5,-0.5"/>
<text text-anchor="start" x="3210.5" y="-40.5" font-family="Helvetica,sans-Serif" font-size="10.00">/home/runner/work/diffblue</text>
<text text-anchor="start" x="3210.5" y="-29.5" font-family="Helvetica,sans-Serif" font-size="10.00">&#45;cbmc/diffblue&#45;cbmc/jbmc</text>
<text text-anchor="start" x="3210.5" y="-18.5" font-family="Helvetica,sans-Serif" font-size="10.00">/src/java_bytecode/simple</text>
<text text-anchor="middle" x="3277" y="-7.5" font-family="Helvetica,sans-Serif" font-size="10.00">_method_stubbing.cpp</text>
</a>
</g>
</g>
<!-- Node7&#45;&gt;Node24 -->
<g id="edge24" class="edge">
<title>Node7&#45;&gt;Node24</title>
<path fill="none" stroke="midnightblue" d="M1818.13,-113.71C2098.96,-110.85 2927.91,-98.66 3194,-53 3196.67,-52.54 3199.38,-52.02 3202.11,-51.45"/>
<polygon fill="midnightblue" stroke="midnightblue" points="1817.93,-110.21 1807.97,-113.81 1818,-117.21 1817.93,-110.21"/>
</g>
<!-- Node25 -->
<g id="node25" class="node">
<title>Node25</title>
<g id="a_node25"><a xlink:href="java__syntactic__diff_8cpp.html" target="_top" xlink:title="Syntactic GOTO&#45;DIFF for Java.">
<polygon fill="none" stroke="black" points="3369.5,-0.5 3369.5,-52.5 3518.5,-52.5 3518.5,-0.5 3369.5,-0.5"/>
<text text-anchor="start" x="3377.5" y="-40.5" font-family="Helvetica,sans-Serif" font-size="10.00">/home/runner/work/diffblue</text>
<text text-anchor="start" x="3377.5" y="-29.5" font-family="Helvetica,sans-Serif" font-size="10.00">&#45;cbmc/diffblue&#45;cbmc/jbmc</text>
<text text-anchor="start" x="3377.5" y="-18.5" font-family="Helvetica,sans-Serif" font-size="10.00">/src/jdiff/java_syntactic</text>
<text text-anchor="middle" x="3444" y="-7.5" font-family="Helvetica,sans-Serif" font-size="10.00">_diff.cpp</text>
</a>
</g>
</g>
<!-- Node7&#45;&gt;Node25 -->
<g id="edge25" class="edge">
<title>Node7&#45;&gt;Node25</title>
<path fill="none" stroke="midnightblue" d="M1817.73,-114.18C2119.11,-112.65 3061.04,-103.81 3361,-53 3363.68,-52.55 3366.38,-52.03 3369.11,-51.46"/>
<polygon fill="midnightblue" stroke="midnightblue" points="1817.7,-110.68 1807.71,-114.23 1817.73,-117.68 1817.7,-110.68"/>
</g>
</g>
</svg>
