<?xml version="1.0" encoding="UTF-8" standalone="no"?>
<!DOCTYPE svg PUBLIC "-//W3C//DTD SVG 1.1//EN"
 "http://www.w3.org/Graphics/SVG/1.1/DTD/svg11.dtd">
<!-- Generated by graphviz version 2.43.0 (0)
 -->
<!-- Title: /home/runner/work/diffblue&#45;cbmc/diffblue&#45;cbmc/src/solvers/smt2_incremental/response_or_error.h Pages: 1 -->
<svg width="1743pt" height="617pt"
 viewBox="0.00 0.00 1743.00 617.00" xmlns="http://www.w3.org/2000/svg" xmlns:xlink="http://www.w3.org/1999/xlink">
<g id="graph0" class="graph" transform="scale(1 1) rotate(0) translate(4 613)">
<title>/home/runner/work/diffblue&#45;cbmc/diffblue&#45;cbmc/src/solvers/smt2_incremental/response_or_error.h</title>
<!-- Node1 -->
<g id="node1" class="node">
<title>Node1</title>
<g id="a_node1"><a xlink:title=" ">
<polygon fill="#bfbfbf" stroke="black" points="1190,-556.5 1190,-608.5 1339,-608.5 1339,-556.5 1190,-556.5"/>
<text text-anchor="start" x="1198" y="-596.5" font-family="Helvetica,sans-Serif" font-size="10.00">/home/runner/work/diffblue</text>
<text text-anchor="start" x="1198" y="-585.5" font-family="Helvetica,sans-Serif" font-size="10.00">&#45;cbmc/diffblue&#45;cbmc/src</text>
<text text-anchor="start" x="1198" y="-574.5" font-family="Helvetica,sans-Serif" font-size="10.00">/solvers/smt2_incremental</text>
<text text-anchor="middle" x="1264.5" y="-563.5" font-family="Helvetica,sans-Serif" font-size="10.00">/response_or_error.h</text>
</a>
</g>
</g>
<!-- Node2 -->
<g id="node2" class="node">
<title>Node2</title>
<g id="a_node2"><a xlink:href="smt__terms_8h.html" target="_top" xlink:title=" ">
<polygon fill="none" stroke="black" points="824,-467.5 824,-519.5 973,-519.5 973,-467.5 824,-467.5"/>
<text text-anchor="start" x="832" y="-507.5" font-family="Helvetica,sans-Serif" font-size="10.00">/home/runner/work/diffblue</text>
<text text-anchor="start" x="832" y="-496.5" font-family="Helvetica,sans-Serif" font-size="10.00">&#45;cbmc/diffblue&#45;cbmc/src</text>
<text text-anchor="start" x="832" y="-485.5" font-family="Helvetica,sans-Serif" font-size="10.00">/solvers/smt2_incremental</text>
<text text-anchor="middle" x="898.5" y="-474.5" font-family="Helvetica,sans-Serif" font-size="10.00">/ast/smt_terms.h</text>
</a>
</g>
</g>
<!-- Node1&#45;&gt;Node2 -->
<g id="edge1" class="edge">
<title>Node1&#45;&gt;Node2</title>
<path fill="none" stroke="midnightblue" d="M1180.16,-561.45C1117.67,-546.6 1033.29,-526.54 973.22,-512.26"/>
<polygon fill="midnightblue" stroke="midnightblue" points="1179.45,-564.88 1189.99,-563.79 1181.07,-558.07 1179.45,-564.88"/>
</g>
<!-- Node19 -->
<g id="node19" class="node">
<title>Node19</title>
<g id="a_node19"><a xlink:href="smt__response__validation_8h.html" target="_top" xlink:title=" ">
<polygon fill="none" stroke="black" points="1567,-106 1567,-158 1718,-158 1718,-106 1567,-106"/>
<text text-anchor="start" x="1575" y="-146" font-family="Helvetica,sans-Serif" font-size="10.00">/home/runner/work/diffblue</text>
<text text-anchor="start" x="1575" y="-135" font-family="Helvetica,sans-Serif" font-size="10.00">&#45;cbmc/diffblue&#45;cbmc/src</text>
<text text-anchor="start" x="1575" y="-124" font-family="Helvetica,sans-Serif" font-size="10.00">/solvers/smt2_incremental</text>
<text text-anchor="middle" x="1642.5" y="-113" font-family="Helvetica,sans-Serif" font-size="10.00">/smt_response_validation.h</text>
</a>
</g>
</g>
<!-- Node1&#45;&gt;Node19 -->
<g id="edge59" class="edge">
<title>Node1&#45;&gt;Node19</title>
<path fill="none" stroke="midnightblue" d="M1349.41,-577.65C1459.2,-567.58 1636.5,-531.77 1636.5,-405.5 1636.5,-405.5 1636.5,-405.5 1636.5,-314.5 1636.5,-258.7 1639.37,-193.29 1641.14,-158.24"/>
<polygon fill="midnightblue" stroke="midnightblue" points="1348.99,-574.17 1339.33,-578.52 1349.6,-581.14 1348.99,-574.17"/>
</g>
<!-- Node3 -->
<g id="node3" class="node">
<title>Node3</title>
<g id="a_node3"><a xlink:href="smt__commands_8h.html" target="_top" xlink:title=" ">
<polygon fill="none" stroke="black" points="493,-378.5 493,-430.5 642,-430.5 642,-378.5 493,-378.5"/>
<text text-anchor="start" x="501" y="-418.5" font-family="Helvetica,sans-Serif" font-size="10.00">/home/runner/work/diffblue</text>
<text text-anchor="start" x="501" y="-407.5" font-family="Helvetica,sans-Serif" font-size="10.00">&#45;cbmc/diffblue&#45;cbmc/src</text>
<text text-anchor="start" x="501" y="-396.5" font-family="Helvetica,sans-Serif" font-size="10.00">/solvers/smt2_incremental</text>
<text text-anchor="middle" x="567.5" y="-385.5" font-family="Helvetica,sans-Serif" font-size="10.00">/ast/smt_commands.h</text>
</a>
</g>
</g>
<!-- Node2&#45;&gt;Node3 -->
<g id="edge2" class="edge">
<title>Node2&#45;&gt;Node3</title>
<path fill="none" stroke="midnightblue" d="M814.08,-470.31C761.06,-456.37 693.28,-438.56 642.21,-425.14"/>
<polygon fill="midnightblue" stroke="midnightblue" points="813.24,-473.71 823.8,-472.87 815.02,-466.94 813.24,-473.71"/>
</g>
<!-- Node5 -->
<g id="node5" class="node">
<title>Node5</title>
<g id="a_node5"><a xlink:href="smt2__incremental__decision__procedure_8cpp.html" target="_top" xlink:title=" ">
<polygon fill="none" stroke="black" points="855.5,-0.5 855.5,-63.5 1009.5,-63.5 1009.5,-0.5 855.5,-0.5"/>
<text text-anchor="start" x="863.5" y="-51.5" font-family="Helvetica,sans-Serif" font-size="10.00">/home/runner/work/diffblue</text>
<text text-anchor="start" x="863.5" y="-40.5" font-family="Helvetica,sans-Serif" font-size="10.00">&#45;cbmc/diffblue&#45;cbmc/src</text>
<text text-anchor="start" x="863.5" y="-29.5" font-family="Helvetica,sans-Serif" font-size="10.00">/solvers/smt2_incremental</text>
<text text-anchor="start" x="863.5" y="-18.5" font-family="Helvetica,sans-Serif" font-size="10.00">/smt2_incremental_decision</text>
<text text-anchor="middle" x="932.5" y="-7.5" font-family="Helvetica,sans-Serif" font-size="10.00">_procedure.cpp</text>
</a>
</g>
</g>
<!-- Node2&#45;&gt;Node5 -->
<g id="edge39" class="edge">
<title>Node2&#45;&gt;Node5</title>
<path fill="none" stroke="midnightblue" d="M910.67,-457.44C921.79,-422.25 936.5,-366.29 936.5,-316.5 936.5,-316.5 936.5,-316.5 936.5,-225.5 936.5,-168.34 934.72,-101.65 933.53,-63.67"/>
<polygon fill="midnightblue" stroke="midnightblue" points="907.26,-456.63 907.51,-467.22 913.92,-458.79 907.26,-456.63"/>
</g>
<!-- Node6 -->
<g id="node6" class="node">
<title>Node6</title>
<g id="a_node6"><a xlink:href="smt__is__dynamic__object_8h.html" target="_top" xlink:title=" ">
<polygon fill="none" stroke="black" points="108,-289.5 108,-341.5 257,-341.5 257,-289.5 108,-289.5"/>
<text text-anchor="start" x="116" y="-329.5" font-family="Helvetica,sans-Serif" font-size="10.00">/home/runner/work/diffblue</text>
<text text-anchor="start" x="116" y="-318.5" font-family="Helvetica,sans-Serif" font-size="10.00">&#45;cbmc/diffblue&#45;cbmc/src</text>
<text text-anchor="start" x="116" y="-307.5" font-family="Helvetica,sans-Serif" font-size="10.00">/solvers/smt2_incremental</text>
<text text-anchor="middle" x="182.5" y="-296.5" font-family="Helvetica,sans-Serif" font-size="10.00">/smt_is_dynamic_object.h</text>
</a>
</g>
</g>
<!-- Node2&#45;&gt;Node6 -->
<g id="edge41" class="edge">
<title>Node2&#45;&gt;Node6</title>
<path fill="none" stroke="midnightblue" d="M813.7,-490.87C713.95,-486.93 544.35,-473.83 405.5,-431 336.88,-409.83 264.08,-368.39 220.99,-341.59"/>
<polygon fill="midnightblue" stroke="midnightblue" points="813.6,-494.37 823.72,-491.25 813.86,-487.37 813.6,-494.37"/>
</g>
<!-- Node7 -->
<g id="node7" class="node">
<title>Node7</title>
<g id="a_node7"><a xlink:href="convert__expr__to__smt_8h.html" target="_top" xlink:title=" ">
<polygon fill="none" stroke="black" points="275,-106 275,-158 424,-158 424,-106 275,-106"/>
<text text-anchor="start" x="283" y="-146" font-family="Helvetica,sans-Serif" font-size="10.00">/home/runner/work/diffblue</text>
<text text-anchor="start" x="283" y="-135" font-family="Helvetica,sans-Serif" font-size="10.00">&#45;cbmc/diffblue&#45;cbmc/src</text>
<text text-anchor="start" x="283" y="-124" font-family="Helvetica,sans-Serif" font-size="10.00">/solvers/smt2_incremental</text>
<text text-anchor="middle" x="349.5" y="-113" font-family="Helvetica,sans-Serif" font-size="10.00">/convert_expr_to_smt.h</text>
</a>
</g>
</g>
<!-- Node2&#45;&gt;Node7 -->
<g id="edge38" class="edge">
<title>Node2&#45;&gt;Node7</title>
<path fill="none" stroke="midnightblue" d="M813.5,-491.28C623.29,-486.4 174.02,-462.13 98.5,-342 45.54,-257.75 183.15,-190.79 274.94,-157.01"/>
<polygon fill="midnightblue" stroke="midnightblue" points="813.65,-494.79 823.74,-491.53 813.82,-487.79 813.65,-494.79"/>
</g>
<!-- Node11 -->
<g id="node11" class="node">
<title>Node11</title>
<g id="a_node11"><a xlink:href="smt2__incremental__decision__procedure_8h.html" target="_top" xlink:title="Decision procedure with incremental SMT2 solving.">
<polygon fill="none" stroke="black" points="687.5,-100.5 687.5,-163.5 841.5,-163.5 841.5,-100.5 687.5,-100.5"/>
<text text-anchor="start" x="695.5" y="-151.5" font-family="Helvetica,sans-Serif" font-size="10.00">/home/runner/work/diffblue</text>
<text text-anchor="start" x="695.5" y="-140.5" font-family="Helvetica,sans-Serif" font-size="10.00">&#45;cbmc/diffblue&#45;cbmc/src</text>
<text text-anchor="start" x="695.5" y="-129.5" font-family="Helvetica,sans-Serif" font-size="10.00">/solvers/smt2_incremental</text>
<text text-anchor="start" x="695.5" y="-118.5" font-family="Helvetica,sans-Serif" font-size="10.00">/smt2_incremental_decision</text>
<text text-anchor="middle" x="764.5" y="-107.5" font-family="Helvetica,sans-Serif" font-size="10.00">_procedure.h</text>
</a>
</g>
</g>
<!-- Node2&#45;&gt;Node11 -->
<g id="edge40" class="edge">
<title>Node2&#45;&gt;Node11</title>
<path fill="none" stroke="midnightblue" d="M899.58,-456.95C899.62,-398.12 892.12,-279.17 836.5,-200 827.27,-186.87 815.11,-174.34 803.42,-163.76"/>
<polygon fill="midnightblue" stroke="midnightblue" points="896.08,-457.18 899.49,-467.21 903.08,-457.24 896.08,-457.18"/>
</g>
<!-- Node14 -->
<g id="node14" class="node">
<title>Node14</title>
<g id="a_node14"><a xlink:href="type__size__mapping_8h.html" target="_top" xlink:title="Utilities for making a map of types to associated sizes.">
<polygon fill="none" stroke="black" points="377,-200.5 377,-252.5 526,-252.5 526,-200.5 377,-200.5"/>
<text text-anchor="start" x="385" y="-240.5" font-family="Helvetica,sans-Serif" font-size="10.00">/home/runner/work/diffblue</text>
<text text-anchor="start" x="385" y="-229.5" font-family="Helvetica,sans-Serif" font-size="10.00">&#45;cbmc/diffblue&#45;cbmc/src</text>
<text text-anchor="start" x="385" y="-218.5" font-family="Helvetica,sans-Serif" font-size="10.00">/solvers/smt2_incremental</text>
<text text-anchor="middle" x="451.5" y="-207.5" font-family="Helvetica,sans-Serif" font-size="10.00">/type_size_mapping.h</text>
</a>
</g>
</g>
<!-- Node2&#45;&gt;Node14 -->
<g id="edge58" class="edge">
<title>Node2&#45;&gt;Node14</title>
<path fill="none" stroke="midnightblue" d="M866.4,-459.6C859.09,-450.82 851.89,-440.99 846.5,-431 815.25,-373.08 853.64,-332.78 804.5,-289 764.33,-253.2 617.24,-237.7 526.09,-231.41"/>
<polygon fill="midnightblue" stroke="midnightblue" points="863.92,-462.07 873.11,-467.34 869.2,-457.49 863.92,-462.07"/>
</g>
<!-- Node15 -->
<g id="node15" class="node">
<title>Node15</title>
<g id="a_node15"><a xlink:href="smt__object__size_8h.html" target="_top" xlink:title=" ">
<polygon fill="none" stroke="black" points="275,-289.5 275,-341.5 424,-341.5 424,-289.5 275,-289.5"/>
<text text-anchor="start" x="283" y="-329.5" font-family="Helvetica,sans-Serif" font-size="10.00">/home/runner/work/diffblue</text>
<text text-anchor="start" x="283" y="-318.5" font-family="Helvetica,sans-Serif" font-size="10.00">&#45;cbmc/diffblue&#45;cbmc/src</text>
<text text-anchor="start" x="283" y="-307.5" font-family="Helvetica,sans-Serif" font-size="10.00">/solvers/smt2_incremental</text>
<text text-anchor="middle" x="349.5" y="-296.5" font-family="Helvetica,sans-Serif" font-size="10.00">/smt_object_size.h</text>
</a>
</g>
</g>
<!-- Node2&#45;&gt;Node15 -->
<g id="edge42" class="edge">
<title>Node2&#45;&gt;Node15</title>
<path fill="none" stroke="midnightblue" d="M813.76,-485.44C710.2,-475.85 541.67,-456.9 484.5,-431 438.31,-410.07 395.58,-368.56 371.04,-341.68"/>
<polygon fill="midnightblue" stroke="midnightblue" points="813.61,-488.94 823.89,-486.36 814.25,-481.97 813.61,-488.94"/>
</g>
<!-- Node16 -->
<g id="node16" class="node">
<title>Node16</title>
<g id="a_node16"><a xlink:href="smt__to__smt2__string_8cpp.html" target="_top" xlink:title=" ">
<polygon fill="none" stroke="black" points="646,-289.5 646,-341.5 795,-341.5 795,-289.5 646,-289.5"/>
<text text-anchor="start" x="654" y="-329.5" font-family="Helvetica,sans-Serif" font-size="10.00">/home/runner/work/diffblue</text>
<text text-anchor="start" x="654" y="-318.5" font-family="Helvetica,sans-Serif" font-size="10.00">&#45;cbmc/diffblue&#45;cbmc/src</text>
<text text-anchor="start" x="654" y="-307.5" font-family="Helvetica,sans-Serif" font-size="10.00">/solvers/smt2_incremental</text>
<text text-anchor="middle" x="720.5" y="-296.5" font-family="Helvetica,sans-Serif" font-size="10.00">/smt_to_smt2_string.cpp</text>
</a>
</g>
</g>
<!-- Node2&#45;&gt;Node16 -->
<g id="edge43" class="edge">
<title>Node2&#45;&gt;Node16</title>
<path fill="none" stroke="midnightblue" d="M847.08,-461.47C833.87,-452.42 820.12,-441.99 808.5,-431 779.54,-403.61 752.6,-366.07 736.35,-341.56"/>
<polygon fill="midnightblue" stroke="midnightblue" points="845.4,-464.56 855.66,-467.21 849.3,-458.74 845.4,-464.56"/>
</g>
<!-- Node17 -->
<g id="node17" class="node">
<title>Node17</title>
<g id="a_node17"><a xlink:href="smt__responses_8h.html" target="_top" xlink:title=" ">
<polygon fill="none" stroke="black" points="1192,-200.5 1192,-252.5 1341,-252.5 1341,-200.5 1192,-200.5"/>
<text text-anchor="start" x="1200" y="-240.5" font-family="Helvetica,sans-Serif" font-size="10.00">/home/runner/work/diffblue</text>
<text text-anchor="start" x="1200" y="-229.5" font-family="Helvetica,sans-Serif" font-size="10.00">&#45;cbmc/diffblue&#45;cbmc/src</text>
<text text-anchor="start" x="1200" y="-218.5" font-family="Helvetica,sans-Serif" font-size="10.00">/solvers/smt2_incremental</text>
<text text-anchor="middle" x="1266.5" y="-207.5" font-family="Helvetica,sans-Serif" font-size="10.00">/ast/smt_responses.h</text>
</a>
</g>
</g>
<!-- Node2&#45;&gt;Node17 -->
<g id="edge26" class="edge">
<title>Node2&#45;&gt;Node17</title>
<path fill="none" stroke="midnightblue" d="M983.17,-493.25C1097.6,-492.24 1292.52,-482.72 1337.5,-431 1352.96,-413.23 1348.34,-398.91 1337.5,-378 1324.74,-353.37 1301.34,-365.44 1286.5,-342 1269.33,-314.89 1265.78,-277.29 1265.54,-252.68"/>
<polygon fill="midnightblue" stroke="midnightblue" points="983.01,-489.75 973.04,-493.32 983.06,-496.75 983.01,-489.75"/>
</g>
<!-- Node23 -->
<g id="node23" class="node">
<title>Node23</title>
<g id="a_node23"><a xlink:href="smt__terms_8cpp.html" target="_top" xlink:title=" ">
<polygon fill="none" stroke="black" points="964,-378.5 964,-430.5 1113,-430.5 1113,-378.5 964,-378.5"/>
<text text-anchor="start" x="972" y="-418.5" font-family="Helvetica,sans-Serif" font-size="10.00">/home/runner/work/diffblue</text>
<text text-anchor="start" x="972" y="-407.5" font-family="Helvetica,sans-Serif" font-size="10.00">&#45;cbmc/diffblue&#45;cbmc/src</text>
<text text-anchor="start" x="972" y="-396.5" font-family="Helvetica,sans-Serif" font-size="10.00">/solvers/smt2_incremental</text>
<text text-anchor="middle" x="1038.5" y="-385.5" font-family="Helvetica,sans-Serif" font-size="10.00">/ast/smt_terms.cpp</text>
</a>
</g>
</g>
<!-- Node2&#45;&gt;Node23 -->
<g id="edge36" class="edge">
<title>Node2&#45;&gt;Node23</title>
<path fill="none" stroke="midnightblue" d="M947.92,-461.79C964.35,-451.58 982.43,-440.34 998.1,-430.61"/>
<polygon fill="midnightblue" stroke="midnightblue" points="945.64,-459.09 938.99,-467.34 949.33,-465.03 945.64,-459.09"/>
</g>
<!-- Node24 -->
<g id="node24" class="node">
<title>Node24</title>
<g id="a_node24"><a xlink:href="construct__value__expr__from__smt_8cpp.html" target="_top" xlink:title=" ">
<polygon fill="none" stroke="black" points="1131,-378.5 1131,-430.5 1328,-430.5 1328,-378.5 1131,-378.5"/>
<text text-anchor="start" x="1139" y="-418.5" font-family="Helvetica,sans-Serif" font-size="10.00">/home/runner/work/diffblue</text>
<text text-anchor="start" x="1139" y="-407.5" font-family="Helvetica,sans-Serif" font-size="10.00">&#45;cbmc/diffblue&#45;cbmc/src</text>
<text text-anchor="start" x="1139" y="-396.5" font-family="Helvetica,sans-Serif" font-size="10.00">/solvers/smt2_incremental</text>
<text text-anchor="middle" x="1229.5" y="-385.5" font-family="Helvetica,sans-Serif" font-size="10.00">/construct_value_expr_from_smt.cpp</text>
</a>
</g>
</g>
<!-- Node2&#45;&gt;Node24 -->
<g id="edge37" class="edge">
<title>Node2&#45;&gt;Node24</title>
<path fill="none" stroke="midnightblue" d="M982.88,-470.32C1029.08,-458.18 1086.49,-443.09 1134.29,-430.52"/>
<polygon fill="midnightblue" stroke="midnightblue" points="981.98,-466.94 973.2,-472.87 983.76,-473.71 981.98,-466.94"/>
</g>
<!-- Node25 -->
<g id="node25" class="node">
<title>Node25</title>
<g id="a_node25"><a xlink:href="smt__array__theory_8h.html" target="_top" xlink:title=" ">
<polygon fill="none" stroke="black" points="1225.5,-106 1225.5,-158 1381.5,-158 1381.5,-106 1225.5,-106"/>
<text text-anchor="start" x="1233.5" y="-146" font-family="Helvetica,sans-Serif" font-size="10.00">/home/runner/work/diffblue</text>
<text text-anchor="start" x="1233.5" y="-135" font-family="Helvetica,sans-Serif" font-size="10.00">&#45;cbmc/diffblue&#45;cbmc/src</text>
<text text-anchor="start" x="1233.5" y="-124" font-family="Helvetica,sans-Serif" font-size="10.00">/solvers/smt2_incremental</text>
<text text-anchor="middle" x="1303.5" y="-113" font-family="Helvetica,sans-Serif" font-size="10.00">/theories/smt_array_theory.h</text>
</a>
</g>
</g>
<!-- Node2&#45;&gt;Node25 -->
<g id="edge44" class="edge">
<title>Node2&#45;&gt;Node25</title>
<path fill="none" stroke="midnightblue" d="M983.11,-491.03C1155.48,-487.16 1534.41,-473.81 1573.5,-431 1651.23,-345.86 1547.31,-269.72 1455.5,-200 1440.8,-188.84 1402.8,-172.09 1368.48,-158.13"/>
<polygon fill="midnightblue" stroke="midnightblue" points="982.98,-487.53 973.06,-491.25 983.14,-494.53 982.98,-487.53"/>
</g>
<!-- Node27 -->
<g id="node27" class="node">
<title>Node27</title>
<g id="a_node27"><a xlink:href="smt__bit__vector__theory_8h.html" target="_top" xlink:title=" ">
<polygon fill="none" stroke="black" points="1385,-378.5 1385,-430.5 1564,-430.5 1564,-378.5 1385,-378.5"/>
<text text-anchor="start" x="1393" y="-418.5" font-family="Helvetica,sans-Serif" font-size="10.00">/home/runner/work/diffblue</text>
<text text-anchor="start" x="1393" y="-407.5" font-family="Helvetica,sans-Serif" font-size="10.00">&#45;cbmc/diffblue&#45;cbmc/src</text>
<text text-anchor="start" x="1393" y="-396.5" font-family="Helvetica,sans-Serif" font-size="10.00">/solvers/smt2_incremental</text>
<text text-anchor="middle" x="1474.5" y="-385.5" font-family="Helvetica,sans-Serif" font-size="10.00">/theories/smt_bit_vector_theory.h</text>
</a>
</g>
</g>
<!-- Node2&#45;&gt;Node27 -->
<g id="edge49" class="edge">
<title>Node2&#45;&gt;Node27</title>
<path fill="none" stroke="midnightblue" d="M983.41,-484.3C1078.24,-474.48 1236.09,-456.15 1370.5,-431 1375.16,-430.13 1379.92,-429.18 1384.72,-428.17"/>
<polygon fill="midnightblue" stroke="midnightblue" points="982.88,-480.84 973.29,-485.34 983.6,-487.8 982.88,-480.84"/>
</g>
<!-- Node29 -->
<g id="node29" class="node">
<title>Node29</title>
<g id="a_node29"><a xlink:href="smt__core__theory_8h.html" target="_top" xlink:title=" ">
<polygon fill="none" stroke="black" points="479.5,-106 479.5,-158 631.5,-158 631.5,-106 479.5,-106"/>
<text text-anchor="start" x="487.5" y="-146" font-family="Helvetica,sans-Serif" font-size="10.00">/home/runner/work/diffblue</text>
<text text-anchor="start" x="487.5" y="-135" font-family="Helvetica,sans-Serif" font-size="10.00">&#45;cbmc/diffblue&#45;cbmc/src</text>
<text text-anchor="start" x="487.5" y="-124" font-family="Helvetica,sans-Serif" font-size="10.00">/solvers/smt2_incremental</text>
<text text-anchor="middle" x="555.5" y="-113" font-family="Helvetica,sans-Serif" font-size="10.00">/theories/smt_core_theory.h</text>
</a>
</g>
</g>
<!-- Node2&#45;&gt;Node29 -->
<g id="edge52" class="edge">
<title>Node2&#45;&gt;Node29</title>
<path fill="none" stroke="midnightblue" d="M894.68,-456.99C888.35,-413.17 872.05,-338.41 831.5,-289 778.95,-224.97 692.8,-182.31 630.71,-158.02"/>
<polygon fill="midnightblue" stroke="midnightblue" points="891.25,-457.73 896.06,-467.17 898.19,-456.79 891.25,-457.73"/>
</g>
<!-- Node4 -->
<g id="node4" class="node">
<title>Node4</title>
<g id="a_node4"><a xlink:href="smt__commands_8cpp.html" target="_top" xlink:title=" ">
<polygon fill="none" stroke="black" points="442,-289.5 442,-341.5 591,-341.5 591,-289.5 442,-289.5"/>
<text text-anchor="start" x="450" y="-329.5" font-family="Helvetica,sans-Serif" font-size="10.00">/home/runner/work/diffblue</text>
<text text-anchor="start" x="450" y="-318.5" font-family="Helvetica,sans-Serif" font-size="10.00">&#45;cbmc/diffblue&#45;cbmc/src</text>
<text text-anchor="start" x="450" y="-307.5" font-family="Helvetica,sans-Serif" font-size="10.00">/solvers/smt2_incremental</text>
<text text-anchor="middle" x="516.5" y="-296.5" font-family="Helvetica,sans-Serif" font-size="10.00">/ast/smt_commands.cpp</text>
</a>
</g>
</g>
<!-- Node3&#45;&gt;Node4 -->
<g id="edge3" class="edge">
<title>Node3&#45;&gt;Node4</title>
<path fill="none" stroke="midnightblue" d="M547.65,-369.64C542.18,-360.31 536.34,-350.35 531.22,-341.61"/>
<polygon fill="midnightblue" stroke="midnightblue" points="544.67,-371.48 552.75,-378.34 550.71,-367.94 544.67,-371.48"/>
</g>
<!-- Node3&#45;&gt;Node5 -->
<g id="edge4" class="edge">
<title>Node3&#45;&gt;Node5</title>
<path fill="none" stroke="midnightblue" d="M585.93,-369.36C602.01,-340.38 624.71,-301.56 637.5,-289 715.81,-212.09 771.78,-240.5 850.5,-164 880.61,-134.74 904.55,-92.29 918.61,-63.72"/>
<polygon fill="midnightblue" stroke="midnightblue" points="582.73,-367.92 580.97,-378.37 588.86,-371.3 582.73,-367.92"/>
</g>
<!-- Node3&#45;&gt;Node6 -->
<g id="edge5" class="edge">
<title>Node3&#45;&gt;Node6</title>
<path fill="none" stroke="midnightblue" d="M482.95,-388.56C422.12,-377.26 338.31,-360.55 265.5,-342 262.72,-341.29 259.9,-340.55 257.06,-339.78"/>
<polygon fill="midnightblue" stroke="midnightblue" points="482.42,-392.02 492.89,-390.4 483.69,-385.14 482.42,-392.02"/>
</g>
<!-- Node3&#45;&gt;Node15 -->
<g id="edge20" class="edge">
<title>Node3&#45;&gt;Node15</title>
<path fill="none" stroke="midnightblue" d="M495.38,-374.72C468.48,-363.98 438.18,-351.89 412.2,-341.52"/>
<polygon fill="midnightblue" stroke="midnightblue" points="494.15,-378 504.74,-378.45 496.75,-371.5 494.15,-378"/>
</g>
<!-- Node3&#45;&gt;Node16 -->
<g id="edge25" class="edge">
<title>Node3&#45;&gt;Node16</title>
<path fill="none" stroke="midnightblue" d="M620.52,-373.35C638.73,-363 658.91,-351.52 676.35,-341.61"/>
<polygon fill="midnightblue" stroke="midnightblue" points="618.72,-370.35 611.75,-378.34 622.18,-376.44 618.72,-370.35"/>
</g>
<!-- Node6&#45;&gt;Node7 -->
<g id="edge6" class="edge">
<title>Node6&#45;&gt;Node7</title>
<path fill="none" stroke="midnightblue" d="M212.81,-281.56C245.52,-246 296.91,-190.16 326.48,-158.02"/>
<polygon fill="midnightblue" stroke="midnightblue" points="209.92,-279.53 205.72,-289.26 215.07,-284.27 209.92,-279.53"/>
</g>
<!-- Node6&#45;&gt;Node11 -->
<g id="edge11" class="edge">
<title>Node6&#45;&gt;Node11</title>
<path fill="none" stroke="midnightblue" d="M266.82,-288.9C385.42,-264.9 424.92,-295.24 534.5,-253 573.26,-238.06 575.2,-220.2 611.5,-200 635.45,-186.68 662.56,-174.06 687.24,-163.44"/>
<polygon fill="midnightblue" stroke="midnightblue" points="266.06,-285.48 257,-290.98 267.51,-292.33 266.06,-285.48"/>
</g>
<!-- Node13 -->
<g id="node13" class="node">
<title>Node13</title>
<g id="a_node13"><a xlink:href="smt__is__dynamic__object_8cpp.html" target="_top" xlink:title=" ">
<polygon fill="none" stroke="black" points="0,-6 0,-58 155,-58 155,-6 0,-6"/>
<text text-anchor="start" x="8" y="-46" font-family="Helvetica,sans-Serif" font-size="10.00">/home/runner/work/diffblue</text>
<text text-anchor="start" x="8" y="-35" font-family="Helvetica,sans-Serif" font-size="10.00">&#45;cbmc/diffblue&#45;cbmc/src</text>
<text text-anchor="start" x="8" y="-24" font-family="Helvetica,sans-Serif" font-size="10.00">/solvers/smt2_incremental</text>
<text text-anchor="middle" x="77.5" y="-13" font-family="Helvetica,sans-Serif" font-size="10.00">/smt_is_dynamic_object.cpp</text>
</a>
</g>
</g>
<!-- Node6&#45;&gt;Node13 -->
<g id="edge14" class="edge">
<title>Node6&#45;&gt;Node13</title>
<path fill="none" stroke="midnightblue" d="M169.49,-279.62C148.03,-222.09 105.72,-108.66 86.91,-58.22"/>
<polygon fill="midnightblue" stroke="midnightblue" points="166.22,-280.88 173,-289.02 172.78,-278.43 166.22,-280.88"/>
</g>
<!-- Node6&#45;&gt;Node14 -->
<g id="edge15" class="edge">
<title>Node6&#45;&gt;Node14</title>
<path fill="none" stroke="midnightblue" d="M266.86,-287.22C302.08,-275.83 342.65,-262.7 376.78,-251.67"/>
<polygon fill="midnightblue" stroke="midnightblue" points="265.51,-283.97 257.07,-290.38 267.67,-290.63 265.51,-283.97"/>
</g>
<!-- Node7&#45;&gt;Node5 -->
<g id="edge8" class="edge">
<title>Node7&#45;&gt;Node5</title>
<path fill="none" stroke="midnightblue" d="M434.37,-107.49C446.43,-104.66 458.73,-102.06 470.5,-100 635.87,-71.08 682.7,-100.75 846.5,-64 849.44,-63.34 852.42,-62.61 855.42,-61.82"/>
<polygon fill="midnightblue" stroke="midnightblue" points="433.21,-104.17 424.3,-109.91 434.84,-110.97 433.21,-104.17"/>
</g>
<!-- Node8 -->
<g id="node8" class="node">
<title>Node8</title>
<g id="a_node8"><a xlink:href="convert__expr__to__smt_8cpp.html" target="_top" xlink:title=" ">
<polygon fill="none" stroke="black" points="688,-6 688,-58 837,-58 837,-6 688,-6"/>
<text text-anchor="start" x="696" y="-46" font-family="Helvetica,sans-Serif" font-size="10.00">/home/runner/work/diffblue</text>
<text text-anchor="start" x="696" y="-35" font-family="Helvetica,sans-Serif" font-size="10.00">&#45;cbmc/diffblue&#45;cbmc/src</text>
<text text-anchor="start" x="696" y="-24" font-family="Helvetica,sans-Serif" font-size="10.00">/solvers/smt2_incremental</text>
<text text-anchor="middle" x="762.5" y="-13" font-family="Helvetica,sans-Serif" font-size="10.00">/convert_expr_to_smt.cpp</text>
</a>
</g>
</g>
<!-- Node7&#45;&gt;Node8 -->
<g id="edge7" class="edge">
<title>Node7&#45;&gt;Node8</title>
<path fill="none" stroke="midnightblue" d="M433.9,-108.46C446.14,-105.45 458.62,-102.54 470.5,-100 562.67,-80.29 588.51,-88.6 679.5,-64 685.89,-62.27 692.47,-60.25 699,-58.09"/>
<polygon fill="midnightblue" stroke="midnightblue" points="433.01,-105.07 424.15,-110.88 434.7,-111.86 433.01,-105.07"/>
</g>
<!-- Node9 -->
<g id="node9" class="node">
<title>Node9</title>
<g id="a_node9"><a xlink:href="smt__object__size_8cpp.html" target="_top" xlink:title=" ">
<polygon fill="none" stroke="black" points="173,-6 173,-58 322,-58 322,-6 173,-6"/>
<text text-anchor="start" x="181" y="-46" font-family="Helvetica,sans-Serif" font-size="10.00">/home/runner/work/diffblue</text>
<text text-anchor="start" x="181" y="-35" font-family="Helvetica,sans-Serif" font-size="10.00">&#45;cbmc/diffblue&#45;cbmc/src</text>
<text text-anchor="start" x="181" y="-24" font-family="Helvetica,sans-Serif" font-size="10.00">/solvers/smt2_incremental</text>
<text text-anchor="middle" x="247.5" y="-13" font-family="Helvetica,sans-Serif" font-size="10.00">/smt_object_size.cpp</text>
</a>
</g>
</g>
<!-- Node7&#45;&gt;Node9 -->
<g id="edge9" class="edge">
<title>Node7&#45;&gt;Node9</title>
<path fill="none" stroke="midnightblue" d="M315.84,-98.66C302.13,-85.48 286.52,-70.49 273.68,-58.15"/>
<polygon fill="midnightblue" stroke="midnightblue" points="313.6,-101.36 323.23,-105.76 318.45,-96.31 313.6,-101.36"/>
</g>
<!-- Node10 -->
<g id="node10" class="node">
<title>Node10</title>
<g id="a_node10"><a xlink:href="type__size__mapping_8cpp.html" target="_top" xlink:title=" ">
<polygon fill="none" stroke="black" points="340,-6 340,-58 489,-58 489,-6 340,-6"/>
<text text-anchor="start" x="348" y="-46" font-family="Helvetica,sans-Serif" font-size="10.00">/home/runner/work/diffblue</text>
<text text-anchor="start" x="348" y="-35" font-family="Helvetica,sans-Serif" font-size="10.00">&#45;cbmc/diffblue&#45;cbmc/src</text>
<text text-anchor="start" x="348" y="-24" font-family="Helvetica,sans-Serif" font-size="10.00">/solvers/smt2_incremental</text>
<text text-anchor="middle" x="414.5" y="-13" font-family="Helvetica,sans-Serif" font-size="10.00">/type_size_mapping.cpp</text>
</a>
</g>
</g>
<!-- Node7&#45;&gt;Node10 -->
<g id="edge10" class="edge">
<title>Node7&#45;&gt;Node10</title>
<path fill="none" stroke="midnightblue" d="M371.93,-97.19C380.42,-84.38 389.94,-70.03 397.82,-58.15"/>
<polygon fill="midnightblue" stroke="midnightblue" points="368.85,-95.49 366.24,-105.76 374.68,-99.36 368.85,-95.49"/>
</g>
<!-- Node11&#45;&gt;Node5 -->
<g id="edge13" class="edge">
<title>Node11&#45;&gt;Node5</title>
<path fill="none" stroke="midnightblue" d="M826.27,-94.97C843.91,-84.68 862.96,-73.56 879.99,-63.63"/>
<polygon fill="midnightblue" stroke="midnightblue" points="824.07,-92.2 817.2,-100.26 827.6,-98.25 824.07,-92.2"/>
</g>
<!-- Node12 -->
<g id="node12" class="node">
<title>Node12</title>
<g id="a_node12"><a xlink:href="solver__factory_8cpp.html" target="_top" xlink:title="Solver Factory.">
<polygon fill="none" stroke="black" points="1027.5,-11.5 1027.5,-52.5 1201.5,-52.5 1201.5,-11.5 1027.5,-11.5"/>
<text text-anchor="start" x="1035.5" y="-40.5" font-family="Helvetica,sans-Serif" font-size="10.00">/home/runner/work/diffblue</text>
<text text-anchor="start" x="1035.5" y="-29.5" font-family="Helvetica,sans-Serif" font-size="10.00">&#45;cbmc/diffblue&#45;cbmc/src</text>
<text text-anchor="middle" x="1114.5" y="-18.5" font-family="Helvetica,sans-Serif" font-size="10.00">/goto&#45;checker/solver_factory.cpp</text>
</a>
</g>
</g>
<!-- Node11&#45;&gt;Node12 -->
<g id="edge12" class="edge">
<title>Node11&#45;&gt;Node12</title>
<path fill="none" stroke="midnightblue" d="M851.74,-109.24C900.9,-96.66 963.33,-80.17 1018.5,-64 1030.6,-60.45 1043.49,-56.45 1055.76,-52.53"/>
<polygon fill="midnightblue" stroke="midnightblue" points="850.6,-105.92 841.78,-111.78 852.33,-112.7 850.6,-105.92"/>
</g>
<!-- Node14&#45;&gt;Node5 -->
<g id="edge17" class="edge">
<title>Node14&#45;&gt;Node5</title>
<path fill="none" stroke="midnightblue" d="M535.88,-211.7C571.05,-202.68 610.58,-187.94 640.5,-164 666.33,-143.33 651.64,-119.3 678.5,-100 740.51,-55.44 773.08,-85 846.5,-64 849.4,-63.17 852.34,-62.29 855.31,-61.38"/>
<polygon fill="midnightblue" stroke="midnightblue" points="534.96,-208.32 526.08,-214.1 536.63,-215.12 534.96,-208.32"/>
</g>
<!-- Node14&#45;&gt;Node7 -->
<g id="edge16" class="edge">
<title>Node14&#45;&gt;Node7</title>
<path fill="none" stroke="midnightblue" d="M416.16,-193.45C403.38,-181.86 389.15,-168.95 377.12,-158.05"/>
<polygon fill="midnightblue" stroke="midnightblue" points="414.14,-196.34 423.9,-200.47 418.84,-191.16 414.14,-196.34"/>
</g>
<!-- Node14&#45;&gt;Node10 -->
<g id="edge19" class="edge">
<title>Node14&#45;&gt;Node10</title>
<path fill="none" stroke="midnightblue" d="M447.23,-190.15C443.91,-164.9 438.82,-130.2 432.5,-100 429.59,-86.09 425.54,-70.77 422.01,-58.29"/>
<polygon fill="midnightblue" stroke="midnightblue" points="443.79,-190.88 448.54,-200.35 450.73,-189.99 443.79,-190.88"/>
</g>
<!-- Node14&#45;&gt;Node11 -->
<g id="edge18" class="edge">
<title>Node14&#45;&gt;Node11</title>
<path fill="none" stroke="midnightblue" d="M535.89,-203.36C577.49,-192.13 628.3,-177.95 673.5,-164 677.97,-162.62 682.54,-161.17 687.15,-159.69"/>
<polygon fill="midnightblue" stroke="midnightblue" points="534.81,-200.02 526.07,-206 536.63,-206.78 534.81,-200.02"/>
</g>
<!-- Node15&#45;&gt;Node7 -->
<g id="edge21" class="edge">
<title>Node15&#45;&gt;Node7</title>
<path fill="none" stroke="midnightblue" d="M349.5,-278.84C349.5,-243.2 349.5,-189.35 349.5,-158.02"/>
<polygon fill="midnightblue" stroke="midnightblue" points="346,-279.26 349.5,-289.26 353,-279.26 346,-279.26"/>
</g>
<!-- Node15&#45;&gt;Node9 -->
<g id="edge23" class="edge">
<title>Node15&#45;&gt;Node9</title>
<path fill="none" stroke="midnightblue" d="M325.71,-280.61C306.28,-251.18 279.78,-206.69 265.5,-164 253.63,-128.51 249.58,-85.11 248.2,-58.25"/>
<polygon fill="midnightblue" stroke="midnightblue" points="323.02,-282.88 331.5,-289.24 328.84,-278.99 323.02,-282.88"/>
</g>
<!-- Node15&#45;&gt;Node11 -->
<g id="edge22" class="edge">
<title>Node15&#45;&gt;Node11</title>
<path fill="none" stroke="midnightblue" d="M434.06,-289.04C513.9,-270.55 541.08,-285.5 611.5,-253 659.32,-230.94 705.67,-191.2 734.59,-163.53"/>
<polygon fill="midnightblue" stroke="midnightblue" points="432.95,-285.71 424.05,-291.47 434.6,-292.51 432.95,-285.71"/>
</g>
<!-- Node15&#45;&gt;Node14 -->
<g id="edge24" class="edge">
<title>Node15&#45;&gt;Node14</title>
<path fill="none" stroke="midnightblue" d="M386.84,-282.65C398.45,-272.75 411.08,-261.98 422.06,-252.61"/>
<polygon fill="midnightblue" stroke="midnightblue" points="384.34,-280.18 379,-289.34 388.88,-285.51 384.34,-280.18"/>
</g>
<!-- Node17&#45;&gt;Node5 -->
<g id="edge28" class="edge">
<title>Node17&#45;&gt;Node5</title>
<path fill="none" stroke="midnightblue" d="M1181.74,-221.3C1128.79,-214.96 1061.58,-199.79 1012.5,-164 977.94,-138.8 955.27,-93.71 943.17,-63.57"/>
<polygon fill="midnightblue" stroke="midnightblue" points="1181.47,-224.79 1191.79,-222.42 1182.24,-217.83 1181.47,-224.79"/>
</g>
<!-- Node18 -->
<g id="node18" class="node">
<title>Node18</title>
<g id="a_node18"><a xlink:href="smt__responses_8cpp.html" target="_top" xlink:title=" ">
<polygon fill="none" stroke="black" points="1021,-106 1021,-158 1170,-158 1170,-106 1021,-106"/>
<text text-anchor="start" x="1029" y="-146" font-family="Helvetica,sans-Serif" font-size="10.00">/home/runner/work/diffblue</text>
<text text-anchor="start" x="1029" y="-135" font-family="Helvetica,sans-Serif" font-size="10.00">&#45;cbmc/diffblue&#45;cbmc/src</text>
<text text-anchor="start" x="1029" y="-124" font-family="Helvetica,sans-Serif" font-size="10.00">/solvers/smt2_incremental</text>
<text text-anchor="middle" x="1095.5" y="-113" font-family="Helvetica,sans-Serif" font-size="10.00">/ast/smt_responses.cpp</text>
</a>
</g>
</g>
<!-- Node17&#45;&gt;Node18 -->
<g id="edge27" class="edge">
<title>Node17&#45;&gt;Node18</title>
<path fill="none" stroke="midnightblue" d="M1211.17,-195.57C1188.77,-183.45 1163.2,-169.62 1141.81,-158.05"/>
<polygon fill="midnightblue" stroke="midnightblue" points="1209.76,-198.79 1220.22,-200.47 1213.09,-192.63 1209.76,-198.79"/>
</g>
<!-- Node17&#45;&gt;Node19 -->
<g id="edge29" class="edge">
<title>Node17&#45;&gt;Node19</title>
<path fill="none" stroke="midnightblue" d="M1351.02,-211.08C1409.75,-200.24 1489.56,-183.87 1558.5,-164 1564.62,-162.24 1570.94,-160.24 1577.23,-158.14"/>
<polygon fill="midnightblue" stroke="midnightblue" points="1350.25,-207.66 1341.04,-212.9 1351.51,-214.55 1350.25,-207.66"/>
</g>
<!-- Node22 -->
<g id="node22" class="node">
<title>Node22</title>
<g id="a_node22"><a xlink:href="smt__solver__process_8h.html" target="_top" xlink:title=" ">
<polygon fill="none" stroke="black" points="1400,-106 1400,-158 1549,-158 1549,-106 1400,-106"/>
<text text-anchor="start" x="1408" y="-146" font-family="Helvetica,sans-Serif" font-size="10.00">/home/runner/work/diffblue</text>
<text text-anchor="start" x="1408" y="-135" font-family="Helvetica,sans-Serif" font-size="10.00">&#45;cbmc/diffblue&#45;cbmc/src</text>
<text text-anchor="start" x="1408" y="-124" font-family="Helvetica,sans-Serif" font-size="10.00">/solvers/smt2_incremental</text>
<text text-anchor="middle" x="1474.5" y="-113" font-family="Helvetica,sans-Serif" font-size="10.00">/smt_solver_process.h</text>
</a>
</g>
</g>
<!-- Node17&#45;&gt;Node22 -->
<g id="edge32" class="edge">
<title>Node17&#45;&gt;Node22</title>
<path fill="none" stroke="midnightblue" d="M1332,-196.37C1359.67,-184.07 1391.57,-169.88 1418.17,-158.05"/>
<polygon fill="midnightblue" stroke="midnightblue" points="1330.5,-193.21 1322.79,-200.47 1333.35,-199.6 1330.5,-193.21"/>
</g>
<!-- Node20 -->
<g id="node20" class="node">
<title>Node20</title>
<g id="a_node20"><a xlink:href="smt__response__validation_8cpp.html" target="_top" xlink:title="Validation of smt response parse trees to produce either a strongly typed smt_responset representatio...">
<polygon fill="none" stroke="black" points="1405.5,-6 1405.5,-58 1567.5,-58 1567.5,-6 1405.5,-6"/>
<text text-anchor="start" x="1413.5" y="-46" font-family="Helvetica,sans-Serif" font-size="10.00">/home/runner/work/diffblue</text>
<text text-anchor="start" x="1413.5" y="-35" font-family="Helvetica,sans-Serif" font-size="10.00">&#45;cbmc/diffblue&#45;cbmc/src</text>
<text text-anchor="start" x="1413.5" y="-24" font-family="Helvetica,sans-Serif" font-size="10.00">/solvers/smt2_incremental</text>
<text text-anchor="middle" x="1486.5" y="-13" font-family="Helvetica,sans-Serif" font-size="10.00">/smt_response_validation.cpp</text>
</a>
</g>
</g>
<!-- Node19&#45;&gt;Node20 -->
<g id="edge30" class="edge">
<title>Node19&#45;&gt;Node20</title>
<path fill="none" stroke="midnightblue" d="M1593.62,-100.3C1572.04,-86.74 1546.99,-71 1526.54,-58.15"/>
<polygon fill="midnightblue" stroke="midnightblue" points="1592,-103.41 1602.33,-105.76 1595.72,-97.48 1592,-103.41"/>
</g>
<!-- Node21 -->
<g id="node21" class="node">
<title>Node21</title>
<g id="a_node21"><a xlink:href="smt__solver__process_8cpp.html" target="_top" xlink:title=" ">
<polygon fill="none" stroke="black" points="1586,-6 1586,-58 1735,-58 1735,-6 1586,-6"/>
<text text-anchor="start" x="1594" y="-46" font-family="Helvetica,sans-Serif" font-size="10.00">/home/runner/work/diffblue</text>
<text text-anchor="start" x="1594" y="-35" font-family="Helvetica,sans-Serif" font-size="10.00">&#45;cbmc/diffblue&#45;cbmc/src</text>
<text text-anchor="start" x="1594" y="-24" font-family="Helvetica,sans-Serif" font-size="10.00">/solvers/smt2_incremental</text>
<text text-anchor="middle" x="1660.5" y="-13" font-family="Helvetica,sans-Serif" font-size="10.00">/smt_solver_process.cpp</text>
</a>
</g>
</g>
<!-- Node19&#45;&gt;Node21 -->
<g id="edge31" class="edge">
<title>Node19&#45;&gt;Node21</title>
<path fill="none" stroke="midnightblue" d="M1648.98,-95.7C1651.27,-83.28 1653.78,-69.57 1655.88,-58.15"/>
<polygon fill="midnightblue" stroke="midnightblue" points="1645.5,-95.29 1647.14,-105.76 1652.38,-96.56 1645.5,-95.29"/>
</g>
<!-- Node22&#45;&gt;Node5 -->
<g id="edge34" class="edge">
<title>Node22&#45;&gt;Node5</title>
<path fill="none" stroke="midnightblue" d="M1402.07,-102.97C1398.19,-101.87 1394.31,-100.87 1390.5,-100 1228.58,-62.94 1180.56,-100.45 1018.5,-64 1015.56,-63.34 1012.58,-62.6 1009.58,-61.81"/>
<polygon fill="midnightblue" stroke="midnightblue" points="1401.15,-106.34 1411.73,-105.86 1403.16,-99.64 1401.15,-106.34"/>
</g>
<!-- Node22&#45;&gt;Node12 -->
<g id="edge33" class="edge">
<title>Node22&#45;&gt;Node12</title>
<path fill="none" stroke="midnightblue" d="M1400.04,-102.84C1396.83,-101.84 1393.64,-100.89 1390.5,-100 1312.42,-77.89 1290.05,-84.38 1211.5,-64 1198.58,-60.65 1184.84,-56.58 1171.9,-52.5"/>
<polygon fill="midnightblue" stroke="midnightblue" points="1399.12,-106.22 1409.71,-105.96 1401.27,-99.56 1399.12,-106.22"/>
</g>
<!-- Node22&#45;&gt;Node21 -->
<g id="edge35" class="edge">
<title>Node22&#45;&gt;Node21</title>
<path fill="none" stroke="midnightblue" d="M1531.41,-101.02C1557.44,-87.3 1587.95,-71.23 1612.76,-58.15"/>
<polygon fill="midnightblue" stroke="midnightblue" points="1529.62,-98 1522.4,-105.76 1532.88,-104.2 1529.62,-98"/>
</g>
<!-- Node25&#45;&gt;Node5 -->
<g id="edge46" class="edge">
<title>Node25&#45;&gt;Node5</title>
<path fill="none" stroke="midnightblue" d="M1222.57,-103.03C1218.84,-101.97 1215.14,-100.95 1211.5,-100 1127.06,-78.01 1102.71,-86.87 1018.5,-64 1015.59,-63.21 1012.64,-62.37 1009.67,-61.48"/>
<polygon fill="midnightblue" stroke="midnightblue" points="1221.9,-106.48 1232.48,-105.97 1223.88,-99.77 1221.9,-106.48"/>
</g>
<!-- Node25&#45;&gt;Node8 -->
<g id="edge45" class="edge">
<title>Node25&#45;&gt;Node8</title>
<path fill="none" stroke="midnightblue" d="M1224.83,-103.2C1220.35,-102.02 1215.88,-100.94 1211.5,-100 1052.13,-65.75 1005.37,-100.52 846.5,-64 839.53,-62.4 832.35,-60.37 825.27,-58.12"/>
<polygon fill="midnightblue" stroke="midnightblue" points="1224.07,-106.63 1234.65,-105.93 1225.95,-99.88 1224.07,-106.63"/>
</g>
<!-- Node25&#45;&gt;Node20 -->
<g id="edge47" class="edge">
<title>Node25&#45;&gt;Node20</title>
<path fill="none" stroke="midnightblue" d="M1359.49,-101.02C1385.1,-87.3 1415.12,-71.23 1439.53,-58.15"/>
<polygon fill="midnightblue" stroke="midnightblue" points="1357.79,-97.96 1350.63,-105.76 1361.09,-104.13 1357.79,-97.96"/>
</g>
<!-- Node26 -->
<g id="node26" class="node">
<title>Node26</title>
<g id="a_node26"><a xlink:href="smt__array__theory_8cpp.html" target="_top" xlink:title=" ">
<polygon fill="none" stroke="black" points="1220,-6 1220,-58 1387,-58 1387,-6 1220,-6"/>
<text text-anchor="start" x="1228" y="-46" font-family="Helvetica,sans-Serif" font-size="10.00">/home/runner/work/diffblue</text>
<text text-anchor="start" x="1228" y="-35" font-family="Helvetica,sans-Serif" font-size="10.00">&#45;cbmc/diffblue&#45;cbmc/src</text>
<text text-anchor="start" x="1228" y="-24" font-family="Helvetica,sans-Serif" font-size="10.00">/solvers/smt2_incremental</text>
<text text-anchor="middle" x="1303.5" y="-13" font-family="Helvetica,sans-Serif" font-size="10.00">/theories/smt_array_theory.cpp</text>
</a>
</g>
</g>
<!-- Node25&#45;&gt;Node26 -->
<g id="edge48" class="edge">
<title>Node25&#45;&gt;Node26</title>
<path fill="none" stroke="midnightblue" d="M1303.5,-95.7C1303.5,-83.28 1303.5,-69.57 1303.5,-58.15"/>
<polygon fill="midnightblue" stroke="midnightblue" points="1300,-95.76 1303.5,-105.76 1307,-95.76 1300,-95.76"/>
</g>
<!-- Node27&#45;&gt;Node8 -->
<g id="edge50" class="edge">
<title>Node27&#45;&gt;Node8</title>
<path fill="none" stroke="midnightblue" d="M1492.27,-368.91C1501.86,-345.1 1509.2,-313.49 1495.5,-289 1477.04,-256.01 1385.23,-214.95 1350.5,-200 1293.86,-175.62 1265.42,-201.54 1216.5,-164 1190.43,-144 1207.03,-117.93 1179.5,-100 1117.13,-59.39 918.96,-81.01 846.5,-64 839.54,-62.37 832.37,-60.32 825.29,-58.06"/>
<polygon fill="midnightblue" stroke="midnightblue" points="1488.99,-367.69 1488.23,-378.26 1495.41,-370.47 1488.99,-367.69"/>
</g>
<!-- Node28 -->
<g id="node28" class="node">
<title>Node28</title>
<g id="a_node28"><a xlink:href="smt__bit__vector__theory_8cpp.html" target="_top" xlink:title=" ">
<polygon fill="none" stroke="black" points="1295,-289.5 1295,-341.5 1486,-341.5 1486,-289.5 1295,-289.5"/>
<text text-anchor="start" x="1303" y="-329.5" font-family="Helvetica,sans-Serif" font-size="10.00">/home/runner/work/diffblue</text>
<text text-anchor="start" x="1303" y="-318.5" font-family="Helvetica,sans-Serif" font-size="10.00">&#45;cbmc/diffblue&#45;cbmc/src</text>
<text text-anchor="start" x="1303" y="-307.5" font-family="Helvetica,sans-Serif" font-size="10.00">/solvers/smt2_incremental</text>
<text text-anchor="middle" x="1390.5" y="-296.5" font-family="Helvetica,sans-Serif" font-size="10.00">/theories/smt_bit_vector_theory.cpp</text>
</a>
</g>
</g>
<!-- Node27&#45;&gt;Node28 -->
<g id="edge51" class="edge">
<title>Node27&#45;&gt;Node28</title>
<path fill="none" stroke="midnightblue" d="M1443.19,-371.08C1433.79,-361.34 1423.62,-350.8 1414.74,-341.61"/>
<polygon fill="midnightblue" stroke="midnightblue" points="1440.74,-373.57 1450.2,-378.34 1445.78,-368.71 1440.74,-373.57"/>
</g>
<!-- Node29&#45;&gt;Node5 -->
<g id="edge54" class="edge">
<title>Node29&#45;&gt;Node5</title>
<path fill="none" stroke="midnightblue" d="M634.65,-102.99C638.3,-101.93 641.93,-100.93 645.5,-100 733.33,-77.15 758.83,-87.47 846.5,-64 849.41,-63.22 852.37,-62.39 855.34,-61.51"/>
<polygon fill="midnightblue" stroke="midnightblue" points="633.52,-99.67 624.95,-105.89 635.53,-106.38 633.52,-99.67"/>
</g>
<!-- Node29&#45;&gt;Node8 -->
<g id="edge53" class="edge">
<title>Node29&#45;&gt;Node8</title>
<path fill="none" stroke="midnightblue" d="M617.84,-101.49C647.11,-87.63 681.63,-71.29 709.6,-58.04"/>
<polygon fill="midnightblue" stroke="midnightblue" points="616.08,-98.45 608.54,-105.89 619.07,-104.77 616.08,-98.45"/>
</g>
<!-- Node29&#45;&gt;Node9 -->
<g id="edge56" class="edge">
<title>Node29&#45;&gt;Node9</title>
<path fill="none" stroke="midnightblue" d="M469.82,-106.74C427.92,-94.54 376.87,-79.14 331.5,-64 325.9,-62.13 320.11,-60.13 314.31,-58.09"/>
<polygon fill="midnightblue" stroke="midnightblue" points="468.86,-110.11 479.44,-109.54 470.81,-103.39 468.86,-110.11"/>
</g>
<!-- Node29&#45;&gt;Node13 -->
<g id="edge55" class="edge">
<title>Node29&#45;&gt;Node13</title>
<path fill="none" stroke="midnightblue" d="M469.51,-108.01C457.14,-105.08 444.53,-102.31 432.5,-100 314.05,-77.22 280.68,-92.61 163.5,-64 156.56,-62.31 149.41,-60.25 142.32,-58.01"/>
<polygon fill="midnightblue" stroke="midnightblue" points="468.82,-111.44 479.36,-110.38 470.46,-104.63 468.82,-111.44"/>
</g>
<!-- Node30 -->
<g id="node30" class="node">
<title>Node30</title>
<g id="a_node30"><a xlink:href="smt__core__theory_8cpp.html" target="_top" xlink:title=" ">
<polygon fill="none" stroke="black" points="507,-6 507,-58 670,-58 670,-6 507,-6"/>
<text text-anchor="start" x="515" y="-46" font-family="Helvetica,sans-Serif" font-size="10.00">/home/runner/work/diffblue</text>
<text text-anchor="start" x="515" y="-35" font-family="Helvetica,sans-Serif" font-size="10.00">&#45;cbmc/diffblue&#45;cbmc/src</text>
<text text-anchor="start" x="515" y="-24" font-family="Helvetica,sans-Serif" font-size="10.00">/solvers/smt2_incremental</text>
<text text-anchor="middle" x="588.5" y="-13" font-family="Helvetica,sans-Serif" font-size="10.00">/theories/smt_core_theory.cpp</text>
</a>
</g>
</g>
<!-- Node29&#45;&gt;Node30 -->
<g id="edge57" class="edge">
<title>Node29&#45;&gt;Node30</title>
<path fill="none" stroke="midnightblue" d="M567.26,-96.08C571.48,-83.55 576.15,-69.69 580.03,-58.15"/>
<polygon fill="midnightblue" stroke="midnightblue" points="563.87,-95.17 564,-105.76 570.51,-97.4 563.87,-95.17"/>
</g>
</g>
</svg>
