<?xml version="1.0" encoding="UTF-8" standalone="no"?>
<!DOCTYPE svg PUBLIC "-//W3C//DTD SVG 1.1//EN"
 "http://www.w3.org/Graphics/SVG/1.1/DTD/svg11.dtd">
<!-- Generated by graphviz version 2.43.0 (0)
 -->
<!-- Title: /home/runner/work/diffblue&#45;cbmc/diffblue&#45;cbmc/src/goto&#45;programs/rewrite_union.h Pages: 1 -->
<svg width="768pt" height="139pt"
 viewBox="0.00 0.00 768.00 139.00" xmlns="http://www.w3.org/2000/svg" xmlns:xlink="http://www.w3.org/1999/xlink">
<g id="graph0" class="graph" transform="scale(1 1) rotate(0) translate(4 135)">
<title>/home/runner/work/diffblue&#45;cbmc/diffblue&#45;cbmc/src/goto&#45;programs/rewrite_union.h</title>
<!-- Node1 -->
<g id="node1" class="node">
<title>Node1</title>
<g id="a_node1"><a xlink:title="Symbolic Execution.">
<polygon fill="#bfbfbf" stroke="black" points="289,-89.5 289,-130.5 459,-130.5 459,-89.5 289,-89.5"/>
<text text-anchor="start" x="297" y="-118.5" font-family="Helvetica,sans-Serif" font-size="10.00">/home/runner/work/diffblue</text>
<text text-anchor="start" x="297" y="-107.5" font-family="Helvetica,sans-Serif" font-size="10.00">&#45;cbmc/diffblue&#45;cbmc/src</text>
<text text-anchor="middle" x="374" y="-96.5" font-family="Helvetica,sans-Serif" font-size="10.00">/goto&#45;programs/rewrite_union.h</text>
</a>
</g>
</g>
<!-- Node2 -->
<g id="node2" class="node">
<title>Node2</title>
<g id="a_node2"><a xlink:href="goto__instrument__parse__options_8cpp.html" target="_top" xlink:title="Main Module.">
<polygon fill="none" stroke="black" points="0,-0.5 0,-52.5 182,-52.5 182,-0.5 0,-0.5"/>
<text text-anchor="start" x="8" y="-40.5" font-family="Helvetica,sans-Serif" font-size="10.00">/home/runner/work/diffblue</text>
<text text-anchor="start" x="8" y="-29.5" font-family="Helvetica,sans-Serif" font-size="10.00">&#45;cbmc/diffblue&#45;cbmc/src</text>
<text text-anchor="start" x="8" y="-18.5" font-family="Helvetica,sans-Serif" font-size="10.00">/goto&#45;instrument/goto_instrument</text>
<text text-anchor="middle" x="91" y="-7.5" font-family="Helvetica,sans-Serif" font-size="10.00">_parse_options.cpp</text>
</a>
</g>
</g>
<!-- Node1&#45;&gt;Node2 -->
<g id="edge1" class="edge">
<title>Node1&#45;&gt;Node2</title>
<path fill="none" stroke="midnightblue" d="M296.54,-86.69C259.78,-76.11 215.7,-63.41 177.81,-52.5"/>
<polygon fill="midnightblue" stroke="midnightblue" points="295.64,-90.07 306.21,-89.48 297.57,-83.35 295.64,-90.07"/>
</g>
<!-- Node3 -->
<g id="node3" class="node">
<title>Node3</title>
<g id="a_node3"><a xlink:href="process__goto__program_8cpp.html" target="_top" xlink:title="Get a Goto Program.">
<polygon fill="none" stroke="black" points="200.5,-0.5 200.5,-52.5 359.5,-52.5 359.5,-0.5 200.5,-0.5"/>
<text text-anchor="start" x="208.5" y="-40.5" font-family="Helvetica,sans-Serif" font-size="10.00">/home/runner/work/diffblue</text>
<text text-anchor="start" x="208.5" y="-29.5" font-family="Helvetica,sans-Serif" font-size="10.00">&#45;cbmc/diffblue&#45;cbmc/src</text>
<text text-anchor="start" x="208.5" y="-18.5" font-family="Helvetica,sans-Serif" font-size="10.00">/goto&#45;programs/process_goto</text>
<text text-anchor="middle" x="280" y="-7.5" font-family="Helvetica,sans-Serif" font-size="10.00">_program.cpp</text>
</a>
</g>
</g>
<!-- Node1&#45;&gt;Node3 -->
<g id="edge2" class="edge">
<title>Node1&#45;&gt;Node3</title>
<path fill="none" stroke="midnightblue" d="M343.46,-82.52C332.38,-72.92 319.9,-62.09 308.96,-52.61"/>
<polygon fill="midnightblue" stroke="midnightblue" points="341.4,-85.36 351.25,-89.27 345.98,-80.08 341.4,-85.36"/>
</g>
<!-- Node4 -->
<g id="node4" class="node">
<title>Node4</title>
<g id="a_node4"><a xlink:href="rewrite__union_8cpp.html" target="_top" xlink:title="Symbolic Execution of ANSI&#45;C.">
<polygon fill="none" stroke="black" points="378,-6 378,-47 560,-47 560,-6 378,-6"/>
<text text-anchor="start" x="386" y="-35" font-family="Helvetica,sans-Serif" font-size="10.00">/home/runner/work/diffblue</text>
<text text-anchor="start" x="386" y="-24" font-family="Helvetica,sans-Serif" font-size="10.00">&#45;cbmc/diffblue&#45;cbmc/src</text>
<text text-anchor="middle" x="469" y="-13" font-family="Helvetica,sans-Serif" font-size="10.00">/goto&#45;programs/rewrite_union.cpp</text>
</a>
</g>
</g>
<!-- Node1&#45;&gt;Node4 -->
<g id="edge3" class="edge">
<title>Node1&#45;&gt;Node4</title>
<path fill="none" stroke="midnightblue" d="M404.67,-82.69C418.17,-71.1 433.76,-57.73 446.21,-47.05"/>
<polygon fill="midnightblue" stroke="midnightblue" points="402.31,-80.1 397,-89.27 406.87,-85.42 402.31,-80.1"/>
</g>
<!-- Node5 -->
<g id="node5" class="node">
<title>Node5</title>
<g id="a_node5"><a xlink:href="build__goto__trace_8cpp.html" target="_top" xlink:title="Traces of GOTO Programs.">
<polygon fill="none" stroke="black" points="578,-6 578,-47 760,-47 760,-6 578,-6"/>
<text text-anchor="start" x="586" y="-35" font-family="Helvetica,sans-Serif" font-size="10.00">/home/runner/work/diffblue</text>
<text text-anchor="start" x="586" y="-24" font-family="Helvetica,sans-Serif" font-size="10.00">&#45;cbmc/diffblue&#45;cbmc/src</text>
<text text-anchor="middle" x="669" y="-13" font-family="Helvetica,sans-Serif" font-size="10.00">/goto&#45;symex/build_goto_trace.cpp</text>
</a>
</g>
</g>
<!-- Node1&#45;&gt;Node5 -->
<g id="edge4" class="edge">
<title>Node1&#45;&gt;Node5</title>
<path fill="none" stroke="midnightblue" d="M454.39,-86.79C499.43,-74.35 555.07,-58.98 598.41,-47"/>
<polygon fill="midnightblue" stroke="midnightblue" points="453.37,-83.44 444.66,-89.48 455.23,-90.19 453.37,-83.44"/>
</g>
</g>
</svg>
