<?xml version="1.0" encoding="UTF-8" standalone="no"?>
<!DOCTYPE svg PUBLIC "-//W3C//DTD SVG 1.1//EN"
 "http://www.w3.org/Graphics/SVG/1.1/DTD/svg11.dtd">
<!-- Generated by graphviz version 2.43.0 (0)
 -->
<!-- Title: /home/runner/work/diffblue&#45;cbmc/diffblue&#45;cbmc/src/solvers/sat/satcheck.h Pages: 1 -->
<svg width="1802pt" height="317pt"
 viewBox="0.00 0.00 1802.00 317.00" xmlns="http://www.w3.org/2000/svg" xmlns:xlink="http://www.w3.org/1999/xlink">
<g id="graph0" class="graph" transform="scale(1 1) rotate(0) translate(4 313)">
<title>/home/runner/work/diffblue&#45;cbmc/diffblue&#45;cbmc/src/solvers/sat/satcheck.h</title>
<!-- Node1 -->
<g id="node1" class="node">
<title>Node1</title>
<g id="a_node1"><a xlink:title=" ">
<polygon fill="#bfbfbf" stroke="black" points="847.5,-267.5 847.5,-308.5 996.5,-308.5 996.5,-267.5 847.5,-267.5"/>
<text text-anchor="start" x="855.5" y="-296.5" font-family="Helvetica,sans-Serif" font-size="10.00">/home/runner/work/diffblue</text>
<text text-anchor="start" x="855.5" y="-285.5" font-family="Helvetica,sans-Serif" font-size="10.00">&#45;cbmc/diffblue&#45;cbmc/src</text>
<text text-anchor="middle" x="922" y="-274.5" font-family="Helvetica,sans-Serif" font-size="10.00">/solvers/sat/satcheck.h</text>
</a>
</g>
</g>
<!-- Node2 -->
<g id="node2" class="node">
<title>Node2</title>
<g id="a_node2"><a xlink:href="counterexample__found_8cpp.html" target="_top" xlink:title="Counterexample Found.">
<polygon fill="none" stroke="black" points="92,-184 92,-225 284,-225 284,-184 92,-184"/>
<text text-anchor="start" x="100" y="-213" font-family="Helvetica,sans-Serif" font-size="10.00">/home/runner/work/diffblue</text>
<text text-anchor="start" x="100" y="-202" font-family="Helvetica,sans-Serif" font-size="10.00">&#45;cbmc/diffblue&#45;cbmc/src</text>
<text text-anchor="middle" x="188" y="-191" font-family="Helvetica,sans-Serif" font-size="10.00">/cprover/counterexample_found.cpp</text>
</a>
</g>
</g>
<!-- Node1&#45;&gt;Node2 -->
<g id="edge1" class="edge">
<title>Node1&#45;&gt;Node2</title>
<path fill="none" stroke="midnightblue" d="M837.14,-283.47C715.83,-277.52 486.13,-262.87 293,-231 283.1,-229.37 272.75,-227.3 262.57,-225.06"/>
<polygon fill="midnightblue" stroke="midnightblue" points="837.32,-286.99 847.47,-283.97 837.65,-279.99 837.32,-286.99"/>
</g>
<!-- Node3 -->
<g id="node3" class="node">
<title>Node3</title>
<g id="a_node3"><a xlink:href="inductiveness_8cpp.html" target="_top" xlink:title="Inductiveness.">
<polygon fill="none" stroke="black" points="302.5,-184 302.5,-225 451.5,-225 451.5,-184 302.5,-184"/>
<text text-anchor="start" x="310.5" y="-213" font-family="Helvetica,sans-Serif" font-size="10.00">/home/runner/work/diffblue</text>
<text text-anchor="start" x="310.5" y="-202" font-family="Helvetica,sans-Serif" font-size="10.00">&#45;cbmc/diffblue&#45;cbmc/src</text>
<text text-anchor="middle" x="377" y="-191" font-family="Helvetica,sans-Serif" font-size="10.00">/cprover/inductiveness.cpp</text>
</a>
</g>
</g>
<!-- Node1&#45;&gt;Node3 -->
<g id="edge2" class="edge">
<title>Node1&#45;&gt;Node3</title>
<path fill="none" stroke="midnightblue" d="M837.29,-281.15C744.27,-273.7 590.83,-258.38 461,-231 453.1,-229.33 444.86,-227.26 436.78,-225.03"/>
<polygon fill="midnightblue" stroke="midnightblue" points="837.25,-284.66 847.49,-281.95 837.8,-277.68 837.25,-284.66"/>
</g>
<!-- Node4 -->
<g id="node4" class="node">
<title>Node4</title>
<g id="a_node4"><a xlink:href="solver__factory_8cpp.html" target="_top" xlink:title="Solver Factory.">
<polygon fill="none" stroke="black" points="470,-184 470,-225 644,-225 644,-184 470,-184"/>
<text text-anchor="start" x="478" y="-213" font-family="Helvetica,sans-Serif" font-size="10.00">/home/runner/work/diffblue</text>
<text text-anchor="start" x="478" y="-202" font-family="Helvetica,sans-Serif" font-size="10.00">&#45;cbmc/diffblue&#45;cbmc/src</text>
<text text-anchor="middle" x="557" y="-191" font-family="Helvetica,sans-Serif" font-size="10.00">/goto&#45;checker/solver_factory.cpp</text>
</a>
</g>
</g>
<!-- Node1&#45;&gt;Node4 -->
<g id="edge3" class="edge">
<title>Node1&#45;&gt;Node4</title>
<path fill="none" stroke="midnightblue" d="M837.21,-270.58C784.12,-259.99 714.38,-245.53 653,-231 645.11,-229.13 636.89,-227.09 628.71,-225"/>
<polygon fill="midnightblue" stroke="midnightblue" points="836.77,-274.06 847.26,-272.57 838.13,-267.19 836.77,-274.06"/>
</g>
<!-- Node5 -->
<g id="node5" class="node">
<title>Node5</title>
<g id="a_node5"><a xlink:href="scratch__program_8h.html" target="_top" xlink:title="Loop Acceleration.">
<polygon fill="none" stroke="black" points="662,-178.5 662,-230.5 814,-230.5 814,-178.5 662,-178.5"/>
<text text-anchor="start" x="670" y="-218.5" font-family="Helvetica,sans-Serif" font-size="10.00">/home/runner/work/diffblue</text>
<text text-anchor="start" x="670" y="-207.5" font-family="Helvetica,sans-Serif" font-size="10.00">&#45;cbmc/diffblue&#45;cbmc/src</text>
<text text-anchor="start" x="670" y="-196.5" font-family="Helvetica,sans-Serif" font-size="10.00">/goto&#45;instrument/accelerate</text>
<text text-anchor="middle" x="738" y="-185.5" font-family="Helvetica,sans-Serif" font-size="10.00">/scratch_program.h</text>
</a>
</g>
</g>
<!-- Node1&#45;&gt;Node5 -->
<g id="edge4" class="edge">
<title>Node1&#45;&gt;Node5</title>
<path fill="none" stroke="midnightblue" d="M868.58,-263.34C845.38,-253.06 818.17,-241.01 794.61,-230.58"/>
<polygon fill="midnightblue" stroke="midnightblue" points="867.37,-266.63 877.93,-267.48 870.2,-260.23 867.37,-266.63"/>
</g>
<!-- Node12 -->
<g id="node12" class="node">
<title>Node12</title>
<g id="a_node12"><a xlink:href="bv__minimize_8h.html" target="_top" xlink:title="SAT&#45;optimizer for minimizing expressions.">
<polygon fill="none" stroke="black" points="832.5,-184 832.5,-225 1011.5,-225 1011.5,-184 832.5,-184"/>
<text text-anchor="start" x="840.5" y="-213" font-family="Helvetica,sans-Serif" font-size="10.00">/home/runner/work/diffblue</text>
<text text-anchor="start" x="840.5" y="-202" font-family="Helvetica,sans-Serif" font-size="10.00">&#45;cbmc/diffblue&#45;cbmc/src</text>
<text text-anchor="middle" x="922" y="-191" font-family="Helvetica,sans-Serif" font-size="10.00">/solvers/flattening/bv_minimize.h</text>
</a>
</g>
</g>
<!-- Node1&#45;&gt;Node12 -->
<g id="edge11" class="edge">
<title>Node1&#45;&gt;Node12</title>
<path fill="none" stroke="midnightblue" d="M922,-257.06C922,-246.38 922,-234.63 922,-225.05"/>
<polygon fill="midnightblue" stroke="midnightblue" points="918.5,-257.27 922,-267.27 925.5,-257.27 918.5,-257.27"/>
</g>
<!-- Node19 -->
<g id="node19" class="node">
<title>Node19</title>
<g id="a_node19"><a xlink:href="refine__arrays_8cpp.html" target="_top" xlink:title=" ">
<polygon fill="none" stroke="black" points="1029.5,-178.5 1029.5,-230.5 1178.5,-230.5 1178.5,-178.5 1029.5,-178.5"/>
<text text-anchor="start" x="1037.5" y="-218.5" font-family="Helvetica,sans-Serif" font-size="10.00">/home/runner/work/diffblue</text>
<text text-anchor="start" x="1037.5" y="-207.5" font-family="Helvetica,sans-Serif" font-size="10.00">&#45;cbmc/diffblue&#45;cbmc/src</text>
<text text-anchor="start" x="1037.5" y="-196.5" font-family="Helvetica,sans-Serif" font-size="10.00">/solvers/refinement/refine</text>
<text text-anchor="middle" x="1104" y="-185.5" font-family="Helvetica,sans-Serif" font-size="10.00">_arrays.cpp</text>
</a>
</g>
</g>
<!-- Node1&#45;&gt;Node19 -->
<g id="edge18" class="edge">
<title>Node1&#45;&gt;Node19</title>
<path fill="none" stroke="midnightblue" d="M974.84,-263.34C997.79,-253.06 1024.7,-241.01 1048,-230.58"/>
<polygon fill="midnightblue" stroke="midnightblue" points="973.29,-260.2 965.59,-267.48 976.15,-266.59 973.29,-260.2"/>
</g>
<!-- Node20 -->
<g id="node20" class="node">
<title>Node20</title>
<g id="a_node20"><a xlink:href="smt2__solver_8cpp.html" target="_top" xlink:title=" ">
<polygon fill="none" stroke="black" points="1196.5,-184 1196.5,-225 1361.5,-225 1361.5,-184 1196.5,-184"/>
<text text-anchor="start" x="1204.5" y="-213" font-family="Helvetica,sans-Serif" font-size="10.00">/home/runner/work/diffblue</text>
<text text-anchor="start" x="1204.5" y="-202" font-family="Helvetica,sans-Serif" font-size="10.00">&#45;cbmc/diffblue&#45;cbmc/src</text>
<text text-anchor="middle" x="1279" y="-191" font-family="Helvetica,sans-Serif" font-size="10.00">/solvers/smt2/smt2_solver.cpp</text>
</a>
</g>
</g>
<!-- Node1&#45;&gt;Node20 -->
<g id="edge19" class="edge">
<title>Node1&#45;&gt;Node20</title>
<path fill="none" stroke="midnightblue" d="M1006.47,-270.69C1058.92,-260.2 1127.61,-245.8 1188,-231 1195.49,-229.16 1203.3,-227.14 1211.05,-225.07"/>
<polygon fill="midnightblue" stroke="midnightblue" points="1005.66,-267.28 996.54,-272.67 1007.03,-274.15 1005.66,-267.28"/>
</g>
<!-- Node21 -->
<g id="node21" class="node">
<title>Node21</title>
<g id="a_node21"><a xlink:href="string__constraint_8cpp.html" target="_top" xlink:title=" ">
<polygon fill="none" stroke="black" points="1380,-184 1380,-225 1576,-225 1576,-184 1380,-184"/>
<text text-anchor="start" x="1388" y="-213" font-family="Helvetica,sans-Serif" font-size="10.00">/home/runner/work/diffblue</text>
<text text-anchor="start" x="1388" y="-202" font-family="Helvetica,sans-Serif" font-size="10.00">&#45;cbmc/diffblue&#45;cbmc/src</text>
<text text-anchor="middle" x="1478" y="-191" font-family="Helvetica,sans-Serif" font-size="10.00">/solvers/strings/string_constraint.cpp</text>
</a>
</g>
</g>
<!-- Node1&#45;&gt;Node21 -->
<g id="edge20" class="edge">
<title>Node1&#45;&gt;Node21</title>
<path fill="none" stroke="midnightblue" d="M1006.88,-279.22C1097.48,-270.26 1245.02,-253.8 1371,-231 1380.58,-229.27 1390.6,-227.21 1400.48,-225.03"/>
<polygon fill="midnightblue" stroke="midnightblue" points="1006.27,-275.76 996.66,-280.22 1006.96,-282.73 1006.27,-275.76"/>
</g>
<!-- Node22 -->
<g id="node22" class="node">
<title>Node22</title>
<g id="a_node22"><a xlink:href="string__refinement_8cpp.html" target="_top" xlink:title="String support via creating string constraints and progressively instantiating the universal constrai...">
<polygon fill="none" stroke="black" points="1594,-184 1594,-225 1794,-225 1794,-184 1594,-184"/>
<text text-anchor="start" x="1602" y="-213" font-family="Helvetica,sans-Serif" font-size="10.00">/home/runner/work/diffblue</text>
<text text-anchor="start" x="1602" y="-202" font-family="Helvetica,sans-Serif" font-size="10.00">&#45;cbmc/diffblue&#45;cbmc/src</text>
<text text-anchor="middle" x="1694" y="-191" font-family="Helvetica,sans-Serif" font-size="10.00">/solvers/strings/string_refinement.cpp</text>
</a>
</g>
</g>
<!-- Node1&#45;&gt;Node22 -->
<g id="edge21" class="edge">
<title>Node1&#45;&gt;Node22</title>
<path fill="none" stroke="midnightblue" d="M1006.51,-283.8C1132.97,-278.13 1378.66,-263.67 1585,-231 1595.37,-229.36 1606.21,-227.28 1616.87,-225.01"/>
<polygon fill="midnightblue" stroke="midnightblue" points="1006.34,-280.31 996.5,-284.24 1006.65,-287.3 1006.34,-280.31"/>
</g>
<!-- Node6 -->
<g id="node6" class="node">
<title>Node6</title>
<g id="a_node6"><a xlink:href="accelerate_8cpp.html" target="_top" xlink:title="Loop Acceleration.">
<polygon fill="none" stroke="black" points="0,-89.5 0,-141.5 152,-141.5 152,-89.5 0,-89.5"/>
<text text-anchor="start" x="8" y="-129.5" font-family="Helvetica,sans-Serif" font-size="10.00">/home/runner/work/diffblue</text>
<text text-anchor="start" x="8" y="-118.5" font-family="Helvetica,sans-Serif" font-size="10.00">&#45;cbmc/diffblue&#45;cbmc/src</text>
<text text-anchor="start" x="8" y="-107.5" font-family="Helvetica,sans-Serif" font-size="10.00">/goto&#45;instrument/accelerate</text>
<text text-anchor="middle" x="76" y="-96.5" font-family="Helvetica,sans-Serif" font-size="10.00">/accelerate.cpp</text>
</a>
</g>
</g>
<!-- Node5&#45;&gt;Node6 -->
<g id="edge5" class="edge">
<title>Node5&#45;&gt;Node6</title>
<path fill="none" stroke="midnightblue" d="M651.66,-177.94C435.5,-139.56 373.36,-181.14 161,-142 158.12,-141.47 155.2,-140.88 152.26,-140.24"/>
<polygon fill="midnightblue" stroke="midnightblue" points="651.27,-181.42 661.74,-179.76 652.52,-174.54 651.27,-181.42"/>
</g>
<!-- Node7 -->
<g id="node7" class="node">
<title>Node7</title>
<g id="a_node7"><a xlink:href="acceleration__utils_8cpp.html" target="_top" xlink:title="Loop Acceleration.">
<polygon fill="none" stroke="black" points="170,-89.5 170,-141.5 322,-141.5 322,-89.5 170,-89.5"/>
<text text-anchor="start" x="178" y="-129.5" font-family="Helvetica,sans-Serif" font-size="10.00">/home/runner/work/diffblue</text>
<text text-anchor="start" x="178" y="-118.5" font-family="Helvetica,sans-Serif" font-size="10.00">&#45;cbmc/diffblue&#45;cbmc/src</text>
<text text-anchor="start" x="178" y="-107.5" font-family="Helvetica,sans-Serif" font-size="10.00">/goto&#45;instrument/accelerate</text>
<text text-anchor="middle" x="246" y="-96.5" font-family="Helvetica,sans-Serif" font-size="10.00">/acceleration_utils.cpp</text>
</a>
</g>
</g>
<!-- Node5&#45;&gt;Node7 -->
<g id="edge6" class="edge">
<title>Node5&#45;&gt;Node7</title>
<path fill="none" stroke="midnightblue" d="M651.78,-177.91C510.07,-150.14 468.92,-170.16 331,-142 328.13,-141.41 325.22,-140.78 322.29,-140.09"/>
<polygon fill="midnightblue" stroke="midnightblue" points="651.22,-181.37 661.71,-179.91 652.59,-174.51 651.22,-181.37"/>
</g>
<!-- Node8 -->
<g id="node8" class="node">
<title>Node8</title>
<g id="a_node8"><a xlink:href="disjunctive__polynomial__acceleration_8cpp.html" target="_top" xlink:title="Loop Acceleration.">
<polygon fill="none" stroke="black" points="340,-89.5 340,-141.5 558,-141.5 558,-89.5 340,-89.5"/>
<text text-anchor="start" x="348" y="-129.5" font-family="Helvetica,sans-Serif" font-size="10.00">/home/runner/work/diffblue</text>
<text text-anchor="start" x="348" y="-118.5" font-family="Helvetica,sans-Serif" font-size="10.00">&#45;cbmc/diffblue&#45;cbmc/src</text>
<text text-anchor="start" x="348" y="-107.5" font-family="Helvetica,sans-Serif" font-size="10.00">/goto&#45;instrument/accelerate</text>
<text text-anchor="middle" x="449" y="-96.5" font-family="Helvetica,sans-Serif" font-size="10.00">/disjunctive_polynomial_acceleration.cpp</text>
</a>
</g>
</g>
<!-- Node5&#45;&gt;Node8 -->
<g id="edge7" class="edge">
<title>Node5&#45;&gt;Node8</title>
<path fill="none" stroke="midnightblue" d="M651.7,-177.52C613.84,-166.12 569.58,-152.8 532.09,-141.51"/>
<polygon fill="midnightblue" stroke="midnightblue" points="651.11,-181 661.69,-180.53 653.12,-174.29 651.11,-181"/>
</g>
<!-- Node9 -->
<g id="node9" class="node">
<title>Node9</title>
<g id="a_node9"><a xlink:href="polynomial__accelerator_8cpp.html" target="_top" xlink:title="Loop Acceleration.">
<polygon fill="none" stroke="black" points="576,-89.5 576,-141.5 730,-141.5 730,-89.5 576,-89.5"/>
<text text-anchor="start" x="584" y="-129.5" font-family="Helvetica,sans-Serif" font-size="10.00">/home/runner/work/diffblue</text>
<text text-anchor="start" x="584" y="-118.5" font-family="Helvetica,sans-Serif" font-size="10.00">&#45;cbmc/diffblue&#45;cbmc/src</text>
<text text-anchor="start" x="584" y="-107.5" font-family="Helvetica,sans-Serif" font-size="10.00">/goto&#45;instrument/accelerate</text>
<text text-anchor="middle" x="653" y="-96.5" font-family="Helvetica,sans-Serif" font-size="10.00">/polynomial_accelerator.cpp</text>
</a>
</g>
</g>
<!-- Node5&#45;&gt;Node9 -->
<g id="edge8" class="edge">
<title>Node5&#45;&gt;Node9</title>
<path fill="none" stroke="midnightblue" d="M706.32,-171.08C696.8,-161.34 686.51,-150.8 677.53,-141.61"/>
<polygon fill="midnightblue" stroke="midnightblue" points="703.92,-173.63 713.41,-178.34 708.93,-168.74 703.92,-173.63"/>
</g>
<!-- Node10 -->
<g id="node10" class="node">
<title>Node10</title>
<g id="a_node10"><a xlink:href="sat__path__enumerator_8cpp.html" target="_top" xlink:title="Loop Acceleration.">
<polygon fill="none" stroke="black" points="748,-89.5 748,-141.5 900,-141.5 900,-89.5 748,-89.5"/>
<text text-anchor="start" x="756" y="-129.5" font-family="Helvetica,sans-Serif" font-size="10.00">/home/runner/work/diffblue</text>
<text text-anchor="start" x="756" y="-118.5" font-family="Helvetica,sans-Serif" font-size="10.00">&#45;cbmc/diffblue&#45;cbmc/src</text>
<text text-anchor="start" x="756" y="-107.5" font-family="Helvetica,sans-Serif" font-size="10.00">/goto&#45;instrument/accelerate</text>
<text text-anchor="middle" x="824" y="-96.5" font-family="Helvetica,sans-Serif" font-size="10.00">/sat_path_enumerator.cpp</text>
</a>
</g>
</g>
<!-- Node5&#45;&gt;Node10 -->
<g id="edge9" class="edge">
<title>Node5&#45;&gt;Node10</title>
<path fill="none" stroke="midnightblue" d="M770.05,-171.08C779.68,-161.34 790.09,-150.8 799.18,-141.61"/>
<polygon fill="midnightblue" stroke="midnightblue" points="767.42,-168.76 762.87,-178.34 772.39,-173.68 767.42,-168.76"/>
</g>
<!-- Node11 -->
<g id="node11" class="node">
<title>Node11</title>
<g id="a_node11"><a xlink:href="scratch__program_8cpp.html" target="_top" xlink:title="Loop Acceleration.">
<polygon fill="none" stroke="black" points="918,-89.5 918,-141.5 1070,-141.5 1070,-89.5 918,-89.5"/>
<text text-anchor="start" x="926" y="-129.5" font-family="Helvetica,sans-Serif" font-size="10.00">/home/runner/work/diffblue</text>
<text text-anchor="start" x="926" y="-118.5" font-family="Helvetica,sans-Serif" font-size="10.00">&#45;cbmc/diffblue&#45;cbmc/src</text>
<text text-anchor="start" x="926" y="-107.5" font-family="Helvetica,sans-Serif" font-size="10.00">/goto&#45;instrument/accelerate</text>
<text text-anchor="middle" x="994" y="-96.5" font-family="Helvetica,sans-Serif" font-size="10.00">/scratch_program.cpp</text>
</a>
</g>
</g>
<!-- Node5&#45;&gt;Node11 -->
<g id="edge10" class="edge">
<title>Node5&#45;&gt;Node11</title>
<path fill="none" stroke="midnightblue" d="M821.46,-175.14C853.35,-164.3 889.46,-152.03 920.37,-141.52"/>
<polygon fill="midnightblue" stroke="midnightblue" points="820.04,-171.92 811.7,-178.45 822.3,-178.55 820.04,-171.92"/>
</g>
<!-- Node13 -->
<g id="node13" class="node">
<title>Node13</title>
<g id="a_node13"><a xlink:href="counterexample__beautification_8h.html" target="_top" xlink:title="Counterexample Beautification.">
<polygon fill="none" stroke="black" points="1088.5,-89.5 1088.5,-141.5 1253.5,-141.5 1253.5,-89.5 1088.5,-89.5"/>
<text text-anchor="start" x="1096.5" y="-129.5" font-family="Helvetica,sans-Serif" font-size="10.00">/home/runner/work/diffblue</text>
<text text-anchor="start" x="1096.5" y="-118.5" font-family="Helvetica,sans-Serif" font-size="10.00">&#45;cbmc/diffblue&#45;cbmc/src</text>
<text text-anchor="start" x="1096.5" y="-107.5" font-family="Helvetica,sans-Serif" font-size="10.00">/goto&#45;checker/counterexample</text>
<text text-anchor="middle" x="1171" y="-96.5" font-family="Helvetica,sans-Serif" font-size="10.00">_beautification.h</text>
</a>
</g>
</g>
<!-- Node12&#45;&gt;Node13 -->
<g id="edge12" class="edge">
<title>Node12&#45;&gt;Node13</title>
<path fill="none" stroke="midnightblue" d="M987.35,-180.67C1021.72,-168.66 1063.93,-153.91 1099.21,-141.58"/>
<polygon fill="midnightblue" stroke="midnightblue" points="986.17,-177.37 977.88,-183.98 988.48,-183.98 986.17,-177.37"/>
</g>
<!-- Node18 -->
<g id="node18" class="node">
<title>Node18</title>
<g id="a_node18"><a xlink:href="bv__minimize_8cpp.html" target="_top" xlink:title=" ">
<polygon fill="none" stroke="black" points="1271.5,-95 1271.5,-136 1462.5,-136 1462.5,-95 1271.5,-95"/>
<text text-anchor="start" x="1279.5" y="-124" font-family="Helvetica,sans-Serif" font-size="10.00">/home/runner/work/diffblue</text>
<text text-anchor="start" x="1279.5" y="-113" font-family="Helvetica,sans-Serif" font-size="10.00">&#45;cbmc/diffblue&#45;cbmc/src</text>
<text text-anchor="middle" x="1367" y="-102" font-family="Helvetica,sans-Serif" font-size="10.00">/solvers/flattening/bv_minimize.cpp</text>
</a>
</g>
</g>
<!-- Node12&#45;&gt;Node18 -->
<g id="edge17" class="edge">
<title>Node12&#45;&gt;Node18</title>
<path fill="none" stroke="midnightblue" d="M1004.37,-181.59C1009.98,-180.31 1015.56,-179.1 1021,-178 1127.57,-156.41 1156.3,-162.97 1263,-142 1272.03,-140.23 1281.46,-138.18 1290.79,-136.04"/>
<polygon fill="midnightblue" stroke="midnightblue" points="1003.19,-178.27 994.25,-183.96 1004.78,-185.09 1003.19,-178.27"/>
</g>
<!-- Node14 -->
<g id="node14" class="node">
<title>Node14</title>
<g id="a_node14"><a xlink:href="counterexample__beautification_8cpp.html" target="_top" xlink:title="Counterexample Beautification using Incremental SAT.">
<polygon fill="none" stroke="black" points="821.5,-0.5 821.5,-52.5 986.5,-52.5 986.5,-0.5 821.5,-0.5"/>
<text text-anchor="start" x="829.5" y="-40.5" font-family="Helvetica,sans-Serif" font-size="10.00">/home/runner/work/diffblue</text>
<text text-anchor="start" x="829.5" y="-29.5" font-family="Helvetica,sans-Serif" font-size="10.00">&#45;cbmc/diffblue&#45;cbmc/src</text>
<text text-anchor="start" x="829.5" y="-18.5" font-family="Helvetica,sans-Serif" font-size="10.00">/goto&#45;checker/counterexample</text>
<text text-anchor="middle" x="904" y="-7.5" font-family="Helvetica,sans-Serif" font-size="10.00">_beautification.cpp</text>
</a>
</g>
</g>
<!-- Node13&#45;&gt;Node14 -->
<g id="edge13" class="edge">
<title>Node13&#45;&gt;Node14</title>
<path fill="none" stroke="midnightblue" d="M1084.39,-86.28C1051.02,-75.4 1013.17,-63.07 980.79,-52.52"/>
<polygon fill="midnightblue" stroke="midnightblue" points="1083.54,-89.68 1094.13,-89.45 1085.71,-83.03 1083.54,-89.68"/>
</g>
<!-- Node15 -->
<g id="node15" class="node">
<title>Node15</title>
<g id="a_node15"><a xlink:href="multi__path__symex__checker_8cpp.html" target="_top" xlink:title="Goto Checker using Bounded Model Checking.">
<polygon fill="none" stroke="black" points="1004.5,-0.5 1004.5,-52.5 1153.5,-52.5 1153.5,-0.5 1004.5,-0.5"/>
<text text-anchor="start" x="1012.5" y="-40.5" font-family="Helvetica,sans-Serif" font-size="10.00">/home/runner/work/diffblue</text>
<text text-anchor="start" x="1012.5" y="-29.5" font-family="Helvetica,sans-Serif" font-size="10.00">&#45;cbmc/diffblue&#45;cbmc/src</text>
<text text-anchor="start" x="1012.5" y="-18.5" font-family="Helvetica,sans-Serif" font-size="10.00">/goto&#45;checker/multi_path</text>
<text text-anchor="middle" x="1079" y="-7.5" font-family="Helvetica,sans-Serif" font-size="10.00">_symex_checker.cpp</text>
</a>
</g>
</g>
<!-- Node13&#45;&gt;Node15 -->
<g id="edge14" class="edge">
<title>Node13&#45;&gt;Node15</title>
<path fill="none" stroke="midnightblue" d="M1137.02,-82.36C1126.63,-72.54 1115.37,-61.89 1105.55,-52.61"/>
<polygon fill="midnightblue" stroke="midnightblue" points="1134.72,-85.01 1144.39,-89.34 1139.53,-79.92 1134.72,-85.01"/>
</g>
<!-- Node16 -->
<g id="node16" class="node">
<title>Node16</title>
<g id="a_node16"><a xlink:href="single__loop__incremental__symex__checker_8cpp.html" target="_top" xlink:title="Goto Checker using multi&#45;path symbolic execution with incremental unwinding of a specified loop.">
<polygon fill="none" stroke="black" points="1171.5,-0.5 1171.5,-52.5 1352.5,-52.5 1352.5,-0.5 1171.5,-0.5"/>
<text text-anchor="start" x="1179.5" y="-40.5" font-family="Helvetica,sans-Serif" font-size="10.00">/home/runner/work/diffblue</text>
<text text-anchor="start" x="1179.5" y="-29.5" font-family="Helvetica,sans-Serif" font-size="10.00">&#45;cbmc/diffblue&#45;cbmc/src</text>
<text text-anchor="start" x="1179.5" y="-18.5" font-family="Helvetica,sans-Serif" font-size="10.00">/goto&#45;checker/single_loop</text>
<text text-anchor="middle" x="1262" y="-7.5" font-family="Helvetica,sans-Serif" font-size="10.00">_incremental_symex_checker.cpp</text>
</a>
</g>
</g>
<!-- Node13&#45;&gt;Node16 -->
<g id="edge15" class="edge">
<title>Node13&#45;&gt;Node16</title>
<path fill="none" stroke="midnightblue" d="M1204.61,-82.36C1214.89,-72.54 1226.03,-61.89 1235.74,-52.61"/>
<polygon fill="midnightblue" stroke="midnightblue" points="1202.13,-79.9 1197.32,-89.34 1206.97,-84.96 1202.13,-79.9"/>
</g>
<!-- Node17 -->
<g id="node17" class="node">
<title>Node17</title>
<g id="a_node17"><a xlink:href="single__path__symex__checker_8cpp.html" target="_top" xlink:title="Goto Checker using Single Path Symbolic Execution.">
<polygon fill="none" stroke="black" points="1370.5,-0.5 1370.5,-52.5 1519.5,-52.5 1519.5,-0.5 1370.5,-0.5"/>
<text text-anchor="start" x="1378.5" y="-40.5" font-family="Helvetica,sans-Serif" font-size="10.00">/home/runner/work/diffblue</text>
<text text-anchor="start" x="1378.5" y="-29.5" font-family="Helvetica,sans-Serif" font-size="10.00">&#45;cbmc/diffblue&#45;cbmc/src</text>
<text text-anchor="start" x="1378.5" y="-18.5" font-family="Helvetica,sans-Serif" font-size="10.00">/goto&#45;checker/single_path</text>
<text text-anchor="middle" x="1445" y="-7.5" font-family="Helvetica,sans-Serif" font-size="10.00">_symex_checker.cpp</text>
</a>
</g>
</g>
<!-- Node13&#45;&gt;Node17 -->
<g id="edge16" class="edge">
<title>Node13&#45;&gt;Node17</title>
<path fill="none" stroke="midnightblue" d="M1259.82,-86.3C1295.55,-74.95 1336.28,-62.02 1370.43,-51.18"/>
<polygon fill="midnightblue" stroke="midnightblue" points="1258.36,-83.09 1249.88,-89.45 1260.47,-89.76 1258.36,-83.09"/>
</g>
</g>
</svg>
