<?xml version="1.0" encoding="UTF-8" standalone="no"?>
<!DOCTYPE svg PUBLIC "-//W3C//DTD SVG 1.1//EN"
 "http://www.w3.org/Graphics/SVG/1.1/DTD/svg11.dtd">
<!-- Generated by graphviz version 2.43.0 (0)
 -->
<!-- Title: /home/runner/work/diffblue&#45;cbmc/diffblue&#45;cbmc/src/goto&#45;programs/show_properties.h Pages: 1 -->
<svg width="2973pt" height="228pt"
 viewBox="0.00 0.00 2973.00 228.00" xmlns="http://www.w3.org/2000/svg" xmlns:xlink="http://www.w3.org/1999/xlink">
<g id="graph0" class="graph" transform="scale(1 1) rotate(0) translate(4 224)">
<title>/home/runner/work/diffblue&#45;cbmc/diffblue&#45;cbmc/src/goto&#45;programs/show_properties.h</title>
<!-- Node1 -->
<g id="node1" class="node">
<title>Node1</title>
<g id="a_node1"><a xlink:title="Show the properties.">
<polygon fill="#bfbfbf" stroke="black" points="1138.5,-178.5 1138.5,-219.5 1322.5,-219.5 1322.5,-178.5 1138.5,-178.5"/>
<text text-anchor="start" x="1146.5" y="-207.5" font-family="Helvetica,sans-Serif" font-size="10.00">/home/runner/work/diffblue</text>
<text text-anchor="start" x="1146.5" y="-196.5" font-family="Helvetica,sans-Serif" font-size="10.00">&#45;cbmc/diffblue&#45;cbmc/src</text>
<text text-anchor="middle" x="1230.5" y="-185.5" font-family="Helvetica,sans-Serif" font-size="10.00">/goto&#45;programs/show_properties.h</text>
</a>
</g>
</g>
<!-- Node2 -->
<g id="node2" class="node">
<title>Node2</title>
<g id="a_node2"><a xlink:href="cbmc__parse__options_8cpp.html" target="_top" xlink:title="CBMC Command Line Option Processing.">
<polygon fill="none" stroke="black" points="0,-95 0,-136 169,-136 169,-95 0,-95"/>
<text text-anchor="start" x="8" y="-124" font-family="Helvetica,sans-Serif" font-size="10.00">/home/runner/work/diffblue</text>
<text text-anchor="start" x="8" y="-113" font-family="Helvetica,sans-Serif" font-size="10.00">&#45;cbmc/diffblue&#45;cbmc/src</text>
<text text-anchor="middle" x="84.5" y="-102" font-family="Helvetica,sans-Serif" font-size="10.00">/cbmc/cbmc_parse_options.cpp</text>
</a>
</g>
</g>
<!-- Node1&#45;&gt;Node2 -->
<g id="edge1" class="edge">
<title>Node1&#45;&gt;Node2</title>
<path fill="none" stroke="midnightblue" d="M1128.02,-195.31C900.54,-188.88 359.25,-170.99 178.5,-142 168.98,-140.47 159.04,-138.36 149.34,-136"/>
<polygon fill="midnightblue" stroke="midnightblue" points="1128.19,-198.81 1138.28,-195.6 1128.39,-191.82 1128.19,-198.81"/>
</g>
<!-- Node3 -->
<g id="node3" class="node">
<title>Node3</title>
<g id="a_node3"><a xlink:href="cprover__parse__options_8cpp.html" target="_top" xlink:title="cprover Command Line Options Processing">
<polygon fill="none" stroke="black" points="187.5,-95 187.5,-136 377.5,-136 377.5,-95 187.5,-95"/>
<text text-anchor="start" x="195.5" y="-124" font-family="Helvetica,sans-Serif" font-size="10.00">/home/runner/work/diffblue</text>
<text text-anchor="start" x="195.5" y="-113" font-family="Helvetica,sans-Serif" font-size="10.00">&#45;cbmc/diffblue&#45;cbmc/src</text>
<text text-anchor="middle" x="282.5" y="-102" font-family="Helvetica,sans-Serif" font-size="10.00">/cprover/cprover_parse_options.cpp</text>
</a>
</g>
</g>
<!-- Node1&#45;&gt;Node3 -->
<g id="edge2" class="edge">
<title>Node1&#45;&gt;Node3</title>
<path fill="none" stroke="midnightblue" d="M1128.2,-196.54C969.59,-193.07 655.17,-181.37 391.5,-142 380.93,-140.42 369.87,-138.34 359.02,-136.06"/>
<polygon fill="midnightblue" stroke="midnightblue" points="1128.34,-200.04 1138.41,-196.76 1128.49,-193.04 1128.34,-200.04"/>
</g>
<!-- Node4 -->
<g id="node4" class="node">
<title>Node4</title>
<g id="a_node4"><a xlink:href="goto__analyzer__parse__options_8cpp.html" target="_top" xlink:title="Goto&#45;Analyser Command Line Option Processing.">
<polygon fill="none" stroke="black" points="79,-0.5 79,-52.5 238,-52.5 238,-0.5 79,-0.5"/>
<text text-anchor="start" x="87" y="-40.5" font-family="Helvetica,sans-Serif" font-size="10.00">/home/runner/work/diffblue</text>
<text text-anchor="start" x="87" y="-29.5" font-family="Helvetica,sans-Serif" font-size="10.00">&#45;cbmc/diffblue&#45;cbmc/src</text>
<text text-anchor="start" x="87" y="-18.5" font-family="Helvetica,sans-Serif" font-size="10.00">/goto&#45;analyzer/goto_analyzer</text>
<text text-anchor="middle" x="158.5" y="-7.5" font-family="Helvetica,sans-Serif" font-size="10.00">_parse_options.cpp</text>
</a>
</g>
</g>
<!-- Node1&#45;&gt;Node4 -->
<g id="edge3" class="edge">
<title>Node1&#45;&gt;Node4</title>
<path fill="none" stroke="midnightblue" d="M1128.36,-195.81C924.91,-190.73 483.4,-175.92 423.5,-142 398.5,-127.84 410.1,-105.38 386.5,-89 333.71,-52.38 308.47,-69.94 246.5,-53 243.74,-52.24 240.93,-51.47 238.09,-50.68"/>
<polygon fill="midnightblue" stroke="midnightblue" points="1128.37,-199.31 1138.46,-196.06 1128.55,-192.31 1128.37,-199.31"/>
</g>
<!-- Node5 -->
<g id="node5" class="node">
<title>Node5</title>
<g id="a_node5"><a xlink:href="goto__analyzer__parse__options_8h.html" target="_top" xlink:title="Goto&#45;Analyser Command Line Option Processing.">
<polygon fill="none" stroke="black" points="433,-89.5 433,-141.5 592,-141.5 592,-89.5 433,-89.5"/>
<text text-anchor="start" x="441" y="-129.5" font-family="Helvetica,sans-Serif" font-size="10.00">/home/runner/work/diffblue</text>
<text text-anchor="start" x="441" y="-118.5" font-family="Helvetica,sans-Serif" font-size="10.00">&#45;cbmc/diffblue&#45;cbmc/src</text>
<text text-anchor="start" x="441" y="-107.5" font-family="Helvetica,sans-Serif" font-size="10.00">/goto&#45;analyzer/goto_analyzer</text>
<text text-anchor="middle" x="512.5" y="-96.5" font-family="Helvetica,sans-Serif" font-size="10.00">_parse_options.h</text>
</a>
</g>
</g>
<!-- Node1&#45;&gt;Node5 -->
<g id="edge4" class="edge">
<title>Node1&#45;&gt;Node5</title>
<path fill="none" stroke="midnightblue" d="M1128.1,-194.98C1002.76,-189.88 784.47,-176.49 600.5,-142 597.84,-141.5 595.15,-140.96 592.44,-140.37"/>
<polygon fill="midnightblue" stroke="midnightblue" points="1128.32,-198.49 1138.45,-195.39 1128.6,-191.49 1128.32,-198.49"/>
</g>
<!-- Node8 -->
<g id="node8" class="node">
<title>Node8</title>
<g id="a_node8"><a xlink:href="goto__diff__base_8cpp.html" target="_top" xlink:title="GOTO&#45;DIFF Base Class.">
<polygon fill="none" stroke="black" points="610,-95 610,-136 765,-136 765,-95 610,-95"/>
<text text-anchor="start" x="618" y="-124" font-family="Helvetica,sans-Serif" font-size="10.00">/home/runner/work/diffblue</text>
<text text-anchor="start" x="618" y="-113" font-family="Helvetica,sans-Serif" font-size="10.00">&#45;cbmc/diffblue&#45;cbmc/src</text>
<text text-anchor="middle" x="687.5" y="-102" font-family="Helvetica,sans-Serif" font-size="10.00">/goto&#45;diff/goto_diff_base.cpp</text>
</a>
</g>
</g>
<!-- Node1&#45;&gt;Node8 -->
<g id="edge8" class="edge">
<title>Node1&#45;&gt;Node8</title>
<path fill="none" stroke="midnightblue" d="M1128.17,-189.61C1036.32,-181.06 898.08,-165.66 779.5,-142 771.05,-140.31 762.23,-138.26 753.55,-136.06"/>
<polygon fill="midnightblue" stroke="midnightblue" points="1128.03,-193.12 1138.31,-190.55 1128.67,-186.14 1128.03,-193.12"/>
</g>
<!-- Node9 -->
<g id="node9" class="node">
<title>Node9</title>
<g id="a_node9"><a xlink:href="goto__diff__parse__options_8cpp.html" target="_top" xlink:title="GOTO&#45;DIFF Command Line Option Processing.">
<polygon fill="none" stroke="black" points="610,-0.5 610,-52.5 759,-52.5 759,-0.5 610,-0.5"/>
<text text-anchor="start" x="618" y="-40.5" font-family="Helvetica,sans-Serif" font-size="10.00">/home/runner/work/diffblue</text>
<text text-anchor="start" x="618" y="-29.5" font-family="Helvetica,sans-Serif" font-size="10.00">&#45;cbmc/diffblue&#45;cbmc/src</text>
<text text-anchor="start" x="618" y="-18.5" font-family="Helvetica,sans-Serif" font-size="10.00">/goto&#45;diff/goto_diff_parse</text>
<text text-anchor="middle" x="684.5" y="-7.5" font-family="Helvetica,sans-Serif" font-size="10.00">_options.cpp</text>
</a>
</g>
</g>
<!-- Node1&#45;&gt;Node9 -->
<g id="edge9" class="edge">
<title>Node1&#45;&gt;Node9</title>
<path fill="none" stroke="midnightblue" d="M1127.91,-193.56C1021.39,-187.33 863.23,-173.07 811.5,-142 786.65,-127.08 794.17,-109.32 773.5,-89 759.7,-75.44 742.6,-62.84 727.09,-52.61"/>
<polygon fill="midnightblue" stroke="midnightblue" points="1127.87,-197.06 1138.05,-194.13 1128.26,-190.07 1127.87,-197.06"/>
</g>
<!-- Node10 -->
<g id="node10" class="node">
<title>Node10</title>
<g id="a_node10"><a xlink:href="goto__diff__parse__options_8h.html" target="_top" xlink:title="GOTO&#45;DIFF Command Line Option Processing.">
<polygon fill="none" stroke="black" points="821,-89.5 821,-141.5 970,-141.5 970,-89.5 821,-89.5"/>
<text text-anchor="start" x="829" y="-129.5" font-family="Helvetica,sans-Serif" font-size="10.00">/home/runner/work/diffblue</text>
<text text-anchor="start" x="829" y="-118.5" font-family="Helvetica,sans-Serif" font-size="10.00">&#45;cbmc/diffblue&#45;cbmc/src</text>
<text text-anchor="start" x="829" y="-107.5" font-family="Helvetica,sans-Serif" font-size="10.00">/goto&#45;diff/goto_diff_parse</text>
<text text-anchor="middle" x="895.5" y="-96.5" font-family="Helvetica,sans-Serif" font-size="10.00">_options.h</text>
</a>
</g>
</g>
<!-- Node1&#45;&gt;Node10 -->
<g id="edge10" class="edge">
<title>Node1&#45;&gt;Node10</title>
<path fill="none" stroke="midnightblue" d="M1128.24,-177.2C1082.26,-167.36 1027.45,-154.94 978.5,-142 975.73,-141.27 972.92,-140.5 970.08,-139.72"/>
<polygon fill="midnightblue" stroke="midnightblue" points="1127.7,-180.67 1138.21,-179.33 1129.16,-173.82 1127.7,-180.67"/>
</g>
<!-- Node13 -->
<g id="node13" class="node">
<title>Node13</title>
<g id="a_node13"><a xlink:href="aggressive__slicer_8cpp.html" target="_top" xlink:title="Aggressive program slicer.">
<polygon fill="none" stroke="black" points="988,-89.5 988,-141.5 1143,-141.5 1143,-89.5 988,-89.5"/>
<text text-anchor="start" x="996" y="-129.5" font-family="Helvetica,sans-Serif" font-size="10.00">/home/runner/work/diffblue</text>
<text text-anchor="start" x="996" y="-118.5" font-family="Helvetica,sans-Serif" font-size="10.00">&#45;cbmc/diffblue&#45;cbmc/src</text>
<text text-anchor="start" x="996" y="-107.5" font-family="Helvetica,sans-Serif" font-size="10.00">/goto&#45;instrument/aggressive</text>
<text text-anchor="middle" x="1065.5" y="-96.5" font-family="Helvetica,sans-Serif" font-size="10.00">_slicer.cpp</text>
</a>
</g>
</g>
<!-- Node1&#45;&gt;Node13 -->
<g id="edge14" class="edge">
<title>Node1&#45;&gt;Node13</title>
<path fill="none" stroke="midnightblue" d="M1181.76,-173.93C1161.14,-163.74 1137.11,-151.87 1116.27,-141.58"/>
<polygon fill="midnightblue" stroke="midnightblue" points="1180.46,-177.19 1190.98,-178.48 1183.56,-170.91 1180.46,-177.19"/>
</g>
<!-- Node14 -->
<g id="node14" class="node">
<title>Node14</title>
<g id="a_node14"><a xlink:href="goto__instrument__parse__options_8cpp.html" target="_top" xlink:title="Main Module.">
<polygon fill="none" stroke="black" points="1153.5,-0.5 1153.5,-52.5 1335.5,-52.5 1335.5,-0.5 1153.5,-0.5"/>
<text text-anchor="start" x="1161.5" y="-40.5" font-family="Helvetica,sans-Serif" font-size="10.00">/home/runner/work/diffblue</text>
<text text-anchor="start" x="1161.5" y="-29.5" font-family="Helvetica,sans-Serif" font-size="10.00">&#45;cbmc/diffblue&#45;cbmc/src</text>
<text text-anchor="start" x="1161.5" y="-18.5" font-family="Helvetica,sans-Serif" font-size="10.00">/goto&#45;instrument/goto_instrument</text>
<text text-anchor="middle" x="1244.5" y="-7.5" font-family="Helvetica,sans-Serif" font-size="10.00">_parse_options.cpp</text>
</a>
</g>
</g>
<!-- Node1&#45;&gt;Node14 -->
<g id="edge15" class="edge">
<title>Node1&#45;&gt;Node14</title>
<path fill="none" stroke="midnightblue" d="M1205.68,-170.38C1199.5,-161.87 1193.73,-152.07 1190.5,-142 1183.31,-119.57 1182.2,-111.04 1190.5,-89 1195.61,-75.44 1205.22,-62.92 1214.93,-52.77"/>
<polygon fill="midnightblue" stroke="midnightblue" points="1203.02,-172.67 1211.91,-178.43 1208.56,-168.38 1203.02,-172.67"/>
</g>
<!-- Node15 -->
<g id="node15" class="node">
<title>Node15</title>
<g id="a_node15"><a xlink:href="goto__instrument__parse__options_8h.html" target="_top" xlink:title="Command Line Parsing.">
<polygon fill="none" stroke="black" points="1199.5,-89.5 1199.5,-141.5 1381.5,-141.5 1381.5,-89.5 1199.5,-89.5"/>
<text text-anchor="start" x="1207.5" y="-129.5" font-family="Helvetica,sans-Serif" font-size="10.00">/home/runner/work/diffblue</text>
<text text-anchor="start" x="1207.5" y="-118.5" font-family="Helvetica,sans-Serif" font-size="10.00">&#45;cbmc/diffblue&#45;cbmc/src</text>
<text text-anchor="start" x="1207.5" y="-107.5" font-family="Helvetica,sans-Serif" font-size="10.00">/goto&#45;instrument/goto_instrument</text>
<text text-anchor="middle" x="1290.5" y="-96.5" font-family="Helvetica,sans-Serif" font-size="10.00">_parse_options.h</text>
</a>
</g>
</g>
<!-- Node1&#45;&gt;Node15 -->
<g id="edge16" class="edge">
<title>Node1&#45;&gt;Node15</title>
<path fill="none" stroke="midnightblue" d="M1251.03,-170.12C1257.84,-160.87 1265.37,-150.63 1272.02,-141.61"/>
<polygon fill="midnightblue" stroke="midnightblue" points="1248.13,-168.14 1245.02,-178.27 1253.77,-172.29 1248.13,-168.14"/>
</g>
<!-- Node18 -->
<g id="node18" class="node">
<title>Node18</title>
<g id="a_node18"><a xlink:href="show__properties_8cpp.html" target="_top" xlink:title="Show Claims.">
<polygon fill="none" stroke="black" points="1400,-95 1400,-136 1595,-136 1595,-95 1400,-95"/>
<text text-anchor="start" x="1408" y="-124" font-family="Helvetica,sans-Serif" font-size="10.00">/home/runner/work/diffblue</text>
<text text-anchor="start" x="1408" y="-113" font-family="Helvetica,sans-Serif" font-size="10.00">&#45;cbmc/diffblue&#45;cbmc/src</text>
<text text-anchor="middle" x="1497.5" y="-102" font-family="Helvetica,sans-Serif" font-size="10.00">/goto&#45;programs/show_properties.cpp</text>
</a>
</g>
</g>
<!-- Node1&#45;&gt;Node18 -->
<g id="edge20" class="edge">
<title>Node1&#45;&gt;Node18</title>
<path fill="none" stroke="midnightblue" d="M1304.03,-175.55C1344.65,-163.16 1394.63,-147.9 1433.61,-136"/>
<polygon fill="midnightblue" stroke="midnightblue" points="1303,-172.21 1294.45,-178.48 1305.04,-178.91 1303,-172.21"/>
</g>
<!-- Node19 -->
<g id="node19" class="node">
<title>Node19</title>
<g id="a_node19"><a xlink:href="goto__synthesizer__parse__options_8cpp.html" target="_top" xlink:title="Main Module.">
<polygon fill="none" stroke="black" points="1613.5,-89.5 1613.5,-141.5 1801.5,-141.5 1801.5,-89.5 1613.5,-89.5"/>
<text text-anchor="start" x="1621.5" y="-129.5" font-family="Helvetica,sans-Serif" font-size="10.00">/home/runner/work/diffblue</text>
<text text-anchor="start" x="1621.5" y="-118.5" font-family="Helvetica,sans-Serif" font-size="10.00">&#45;cbmc/diffblue&#45;cbmc/src</text>
<text text-anchor="start" x="1621.5" y="-107.5" font-family="Helvetica,sans-Serif" font-size="10.00">/goto&#45;synthesizer/goto_synthesizer</text>
<text text-anchor="middle" x="1707.5" y="-96.5" font-family="Helvetica,sans-Serif" font-size="10.00">_parse_options.cpp</text>
</a>
</g>
</g>
<!-- Node1&#45;&gt;Node19 -->
<g id="edge21" class="edge">
<title>Node1&#45;&gt;Node19</title>
<path fill="none" stroke="midnightblue" d="M1332.82,-185.2C1408.02,-175.18 1512.5,-159.95 1603.5,-142 1606.78,-141.35 1610.12,-140.67 1613.48,-139.96"/>
<polygon fill="midnightblue" stroke="midnightblue" points="1332.33,-181.74 1322.88,-186.52 1333.25,-188.68 1332.33,-181.74"/>
</g>
<!-- Node20 -->
<g id="node20" class="node">
<title>Node20</title>
<g id="a_node20"><a xlink:href="janalyzer__parse__options_8cpp.html" target="_top" xlink:title="JANALYZER Command Line Option Processing.">
<polygon fill="none" stroke="black" points="1754,-0.5 1754,-52.5 1903,-52.5 1903,-0.5 1754,-0.5"/>
<text text-anchor="start" x="1762" y="-40.5" font-family="Helvetica,sans-Serif" font-size="10.00">/home/runner/work/diffblue</text>
<text text-anchor="start" x="1762" y="-29.5" font-family="Helvetica,sans-Serif" font-size="10.00">&#45;cbmc/diffblue&#45;cbmc/jbmc</text>
<text text-anchor="start" x="1762" y="-18.5" font-family="Helvetica,sans-Serif" font-size="10.00">/src/janalyzer/janalyzer</text>
<text text-anchor="middle" x="1828.5" y="-7.5" font-family="Helvetica,sans-Serif" font-size="10.00">_parse_options.cpp</text>
</a>
</g>
</g>
<!-- Node1&#45;&gt;Node20 -->
<g id="edge22" class="edge">
<title>Node1&#45;&gt;Node20</title>
<path fill="none" stroke="midnightblue" d="M1332.83,-194.83C1490.04,-188.97 1776.52,-174.01 1810.5,-142 1834.37,-119.51 1835.14,-79.24 1832.55,-52.95"/>
<polygon fill="midnightblue" stroke="midnightblue" points="1332.53,-191.34 1322.66,-195.2 1332.78,-198.33 1332.53,-191.34"/>
</g>
<!-- Node21 -->
<g id="node21" class="node">
<title>Node21</title>
<g id="a_node21"><a xlink:href="janalyzer__parse__options_8h.html" target="_top" xlink:title="JANALYZER Command Line Option Processing.">
<polygon fill="none" stroke="black" points="1857,-89.5 1857,-141.5 2006,-141.5 2006,-89.5 1857,-89.5"/>
<text text-anchor="start" x="1865" y="-129.5" font-family="Helvetica,sans-Serif" font-size="10.00">/home/runner/work/diffblue</text>
<text text-anchor="start" x="1865" y="-118.5" font-family="Helvetica,sans-Serif" font-size="10.00">&#45;cbmc/diffblue&#45;cbmc/jbmc</text>
<text text-anchor="start" x="1865" y="-107.5" font-family="Helvetica,sans-Serif" font-size="10.00">/src/janalyzer/janalyzer</text>
<text text-anchor="middle" x="1931.5" y="-96.5" font-family="Helvetica,sans-Serif" font-size="10.00">_parse_options.h</text>
</a>
</g>
</g>
<!-- Node1&#45;&gt;Node21 -->
<g id="edge23" class="edge">
<title>Node1&#45;&gt;Node21</title>
<path fill="none" stroke="midnightblue" d="M1332.76,-194.62C1455.12,-189.21 1665.78,-175.55 1843.5,-142 1847.88,-141.17 1852.35,-140.22 1856.84,-139.19"/>
<polygon fill="midnightblue" stroke="midnightblue" points="1332.49,-191.13 1322.65,-195.06 1332.79,-198.13 1332.49,-191.13"/>
</g>
<!-- Node23 -->
<g id="node23" class="node">
<title>Node23</title>
<g id="a_node23"><a xlink:href="jbmc__parse__options_8cpp.html" target="_top" xlink:title="JBMC Command Line Option Processing.">
<polygon fill="none" stroke="black" points="2088.5,-6 2088.5,-47 2270.5,-47 2270.5,-6 2088.5,-6"/>
<text text-anchor="start" x="2096.5" y="-35" font-family="Helvetica,sans-Serif" font-size="10.00">/home/runner/work/diffblue</text>
<text text-anchor="start" x="2096.5" y="-24" font-family="Helvetica,sans-Serif" font-size="10.00">&#45;cbmc/diffblue&#45;cbmc/jbmc</text>
<text text-anchor="middle" x="2179.5" y="-13" font-family="Helvetica,sans-Serif" font-size="10.00">/src/jbmc/jbmc_parse_options.cpp</text>
</a>
</g>
</g>
<!-- Node1&#45;&gt;Node23 -->
<g id="edge26" class="edge">
<title>Node1&#45;&gt;Node23</title>
<path fill="none" stroke="midnightblue" d="M1332.8,-197.79C1516.01,-196.26 1892.36,-187.46 2014.5,-142 2051.41,-128.27 2053.23,-111.57 2085.5,-89 2106.12,-74.58 2129.82,-59.08 2148.27,-47.24"/>
<polygon fill="midnightblue" stroke="midnightblue" points="1332.59,-194.3 1322.62,-197.87 1332.65,-201.29 1332.59,-194.3"/>
</g>
<!-- Node24 -->
<g id="node24" class="node">
<title>Node24</title>
<g id="a_node24"><a xlink:href="jbmc__parse__options_8h.html" target="_top" xlink:title="JBMC Command Line Option Processing.">
<polygon fill="none" stroke="black" points="2094.5,-95 2094.5,-136 2264.5,-136 2264.5,-95 2094.5,-95"/>
<text text-anchor="start" x="2102.5" y="-124" font-family="Helvetica,sans-Serif" font-size="10.00">/home/runner/work/diffblue</text>
<text text-anchor="start" x="2102.5" y="-113" font-family="Helvetica,sans-Serif" font-size="10.00">&#45;cbmc/diffblue&#45;cbmc/jbmc</text>
<text text-anchor="middle" x="2179.5" y="-102" font-family="Helvetica,sans-Serif" font-size="10.00">/src/jbmc/jbmc_parse_options.h</text>
</a>
</g>
</g>
<!-- Node1&#45;&gt;Node24 -->
<g id="edge27" class="edge">
<title>Node1&#45;&gt;Node24</title>
<path fill="none" stroke="midnightblue" d="M1332.77,-196.1C1490.56,-192.06 1802.53,-179.62 2064.5,-142 2075.63,-140.4 2087.29,-138.31 2098.73,-136.02"/>
<polygon fill="midnightblue" stroke="midnightblue" points="1332.52,-192.61 1322.61,-196.36 1332.69,-199.61 1332.52,-192.61"/>
</g>
<!-- Node26 -->
<g id="node26" class="node">
<title>Node26</title>
<g id="a_node26"><a xlink:href="jdiff__parse__options_8cpp.html" target="_top" xlink:title="JDIFF Command Line Option Processing.">
<polygon fill="none" stroke="black" points="2456,-6 2456,-47 2627,-47 2627,-6 2456,-6"/>
<text text-anchor="start" x="2464" y="-35" font-family="Helvetica,sans-Serif" font-size="10.00">/home/runner/work/diffblue</text>
<text text-anchor="start" x="2464" y="-24" font-family="Helvetica,sans-Serif" font-size="10.00">&#45;cbmc/diffblue&#45;cbmc/jbmc</text>
<text text-anchor="middle" x="2541.5" y="-13" font-family="Helvetica,sans-Serif" font-size="10.00">/src/jdiff/jdiff_parse_options.cpp</text>
</a>
</g>
</g>
<!-- Node1&#45;&gt;Node26 -->
<g id="edge30" class="edge">
<title>Node1&#45;&gt;Node26</title>
<path fill="none" stroke="midnightblue" d="M1332.87,-197.04C1559.36,-194.17 2096.84,-183.12 2273.5,-142 2361.22,-121.58 2456.52,-74.2 2506.45,-47.22"/>
<polygon fill="midnightblue" stroke="midnightblue" points="1332.6,-193.54 1322.65,-197.16 1332.69,-200.54 1332.6,-193.54"/>
</g>
<!-- Node27 -->
<g id="node27" class="node">
<title>Node27</title>
<g id="a_node27"><a xlink:href="jdiff__parse__options_8h.html" target="_top" xlink:title="JDIFF Command Line Option Processing.">
<polygon fill="none" stroke="black" points="2550.5,-95 2550.5,-136 2710.5,-136 2710.5,-95 2550.5,-95"/>
<text text-anchor="start" x="2558.5" y="-124" font-family="Helvetica,sans-Serif" font-size="10.00">/home/runner/work/diffblue</text>
<text text-anchor="start" x="2558.5" y="-113" font-family="Helvetica,sans-Serif" font-size="10.00">&#45;cbmc/diffblue&#45;cbmc/jbmc</text>
<text text-anchor="middle" x="2630.5" y="-102" font-family="Helvetica,sans-Serif" font-size="10.00">/src/jdiff/jdiff_parse_options.h</text>
</a>
</g>
</g>
<!-- Node1&#45;&gt;Node27 -->
<g id="edge31" class="edge">
<title>Node1&#45;&gt;Node27</title>
<path fill="none" stroke="midnightblue" d="M1332.8,-197.13C1544.78,-194.5 2047.23,-183.97 2466.5,-142 2493.88,-139.26 2523.66,-135.01 2550.23,-130.77"/>
<polygon fill="midnightblue" stroke="midnightblue" points="1332.57,-193.63 1322.62,-197.25 1332.66,-200.63 1332.57,-193.63"/>
</g>
<!-- Node5&#45;&gt;Node4 -->
<g id="edge7" class="edge">
<title>Node5&#45;&gt;Node4</title>
<path fill="none" stroke="midnightblue" d="M423.23,-89.91C421.98,-89.6 420.74,-89.3 419.5,-89 343.15,-70.61 322.72,-71.94 246.5,-53 243.72,-52.31 240.9,-51.59 238.05,-50.85"/>
<polygon fill="midnightblue" stroke="midnightblue" points="422.38,-93.3 432.93,-92.33 424.08,-86.51 422.38,-93.3"/>
</g>
<!-- Node6 -->
<g id="node6" class="node">
<title>Node6</title>
<g id="a_node6"><a xlink:href="goto__analyzer__languages_8cpp.html" target="_top" xlink:title="Language Registration.">
<polygon fill="none" stroke="black" points="256,-0.5 256,-52.5 415,-52.5 415,-0.5 256,-0.5"/>
<text text-anchor="start" x="264" y="-40.5" font-family="Helvetica,sans-Serif" font-size="10.00">/home/runner/work/diffblue</text>
<text text-anchor="start" x="264" y="-29.5" font-family="Helvetica,sans-Serif" font-size="10.00">&#45;cbmc/diffblue&#45;cbmc/src</text>
<text text-anchor="start" x="264" y="-18.5" font-family="Helvetica,sans-Serif" font-size="10.00">/goto&#45;analyzer/goto_analyzer</text>
<text text-anchor="middle" x="335.5" y="-7.5" font-family="Helvetica,sans-Serif" font-size="10.00">_languages.cpp</text>
</a>
</g>
</g>
<!-- Node5&#45;&gt;Node6 -->
<g id="edge5" class="edge">
<title>Node5&#45;&gt;Node6</title>
<path fill="none" stroke="midnightblue" d="M452.31,-84.92C430.95,-74.41 407.12,-62.7 386.58,-52.61"/>
<polygon fill="midnightblue" stroke="midnightblue" points="450.79,-88.07 461.3,-89.34 453.87,-81.78 450.79,-88.07"/>
</g>
<!-- Node7 -->
<g id="node7" class="node">
<title>Node7</title>
<g id="a_node7"><a xlink:href="goto__analyzer__main_8cpp.html" target="_top" xlink:title="Goto&#45;Analyser Main Module.">
<polygon fill="none" stroke="black" points="433,-0.5 433,-52.5 592,-52.5 592,-0.5 433,-0.5"/>
<text text-anchor="start" x="441" y="-40.5" font-family="Helvetica,sans-Serif" font-size="10.00">/home/runner/work/diffblue</text>
<text text-anchor="start" x="441" y="-29.5" font-family="Helvetica,sans-Serif" font-size="10.00">&#45;cbmc/diffblue&#45;cbmc/src</text>
<text text-anchor="start" x="441" y="-18.5" font-family="Helvetica,sans-Serif" font-size="10.00">/goto&#45;analyzer/goto_analyzer</text>
<text text-anchor="middle" x="512.5" y="-7.5" font-family="Helvetica,sans-Serif" font-size="10.00">_main.cpp</text>
</a>
</g>
</g>
<!-- Node5&#45;&gt;Node7 -->
<g id="edge6" class="edge">
<title>Node5&#45;&gt;Node7</title>
<path fill="none" stroke="midnightblue" d="M512.5,-79.19C512.5,-70.28 512.5,-60.9 512.5,-52.61"/>
<polygon fill="midnightblue" stroke="midnightblue" points="509,-79.34 512.5,-89.34 516,-79.34 509,-79.34"/>
</g>
<!-- Node10&#45;&gt;Node9 -->
<g id="edge13" class="edge">
<title>Node10&#45;&gt;Node9</title>
<path fill="none" stroke="midnightblue" d="M825.35,-85.58C799.4,-74.88 770.22,-62.85 745.18,-52.52"/>
<polygon fill="midnightblue" stroke="midnightblue" points="824.17,-88.88 834.75,-89.45 826.84,-82.41 824.17,-88.88"/>
</g>
<!-- Node11 -->
<g id="node11" class="node">
<title>Node11</title>
<g id="a_node11"><a xlink:href="goto__diff__languages_8cpp.html" target="_top" xlink:title="Language Registration.">
<polygon fill="none" stroke="black" points="777.5,-6 777.5,-47 959.5,-47 959.5,-6 777.5,-6"/>
<text text-anchor="start" x="785.5" y="-35" font-family="Helvetica,sans-Serif" font-size="10.00">/home/runner/work/diffblue</text>
<text text-anchor="start" x="785.5" y="-24" font-family="Helvetica,sans-Serif" font-size="10.00">&#45;cbmc/diffblue&#45;cbmc/src</text>
<text text-anchor="middle" x="868.5" y="-13" font-family="Helvetica,sans-Serif" font-size="10.00">/goto&#45;diff/goto_diff_languages.cpp</text>
</a>
</g>
</g>
<!-- Node10&#45;&gt;Node11 -->
<g id="edge11" class="edge">
<title>Node10&#45;&gt;Node11</title>
<path fill="none" stroke="midnightblue" d="M884.64,-79.49C881.21,-68.45 877.55,-56.65 874.58,-47.08"/>
<polygon fill="midnightblue" stroke="midnightblue" points="881.38,-80.82 887.69,-89.34 888.07,-78.75 881.38,-80.82"/>
</g>
<!-- Node12 -->
<g id="node12" class="node">
<title>Node12</title>
<g id="a_node12"><a xlink:href="goto__diff__main_8cpp.html" target="_top" xlink:title="GOTO&#45;DIFF Main Module.">
<polygon fill="none" stroke="black" points="978,-6 978,-47 1135,-47 1135,-6 978,-6"/>
<text text-anchor="start" x="986" y="-35" font-family="Helvetica,sans-Serif" font-size="10.00">/home/runner/work/diffblue</text>
<text text-anchor="start" x="986" y="-24" font-family="Helvetica,sans-Serif" font-size="10.00">&#45;cbmc/diffblue&#45;cbmc/src</text>
<text text-anchor="middle" x="1056.5" y="-13" font-family="Helvetica,sans-Serif" font-size="10.00">/goto&#45;diff/goto_diff_main.cpp</text>
</a>
</g>
</g>
<!-- Node10&#45;&gt;Node12 -->
<g id="edge12" class="edge">
<title>Node10&#45;&gt;Node12</title>
<path fill="none" stroke="midnightblue" d="M951.02,-84.5C973.93,-72.12 999.85,-58.11 1020.26,-47.08"/>
<polygon fill="midnightblue" stroke="midnightblue" points="949.2,-81.5 942.07,-89.34 952.53,-87.66 949.2,-81.5"/>
</g>
<!-- Node15&#45;&gt;Node14 -->
<g id="edge19" class="edge">
<title>Node15&#45;&gt;Node14</title>
<path fill="none" stroke="midnightblue" d="M1272.44,-80.35C1267.55,-71.1 1262.35,-61.26 1257.78,-52.61"/>
<polygon fill="midnightblue" stroke="midnightblue" points="1269.43,-82.13 1277.19,-89.34 1275.61,-78.86 1269.43,-82.13"/>
</g>
<!-- Node16 -->
<g id="node16" class="node">
<title>Node16</title>
<g id="a_node16"><a xlink:href="goto__instrument__languages_8cpp.html" target="_top" xlink:title="Language Registration.">
<polygon fill="none" stroke="black" points="1353.5,-0.5 1353.5,-52.5 1535.5,-52.5 1535.5,-0.5 1353.5,-0.5"/>
<text text-anchor="start" x="1361.5" y="-40.5" font-family="Helvetica,sans-Serif" font-size="10.00">/home/runner/work/diffblue</text>
<text text-anchor="start" x="1361.5" y="-29.5" font-family="Helvetica,sans-Serif" font-size="10.00">&#45;cbmc/diffblue&#45;cbmc/src</text>
<text text-anchor="start" x="1361.5" y="-18.5" font-family="Helvetica,sans-Serif" font-size="10.00">/goto&#45;instrument/goto_instrument</text>
<text text-anchor="middle" x="1444.5" y="-7.5" font-family="Helvetica,sans-Serif" font-size="10.00">_languages.cpp</text>
</a>
</g>
</g>
<!-- Node15&#45;&gt;Node16 -->
<g id="edge17" class="edge">
<title>Node15&#45;&gt;Node16</title>
<path fill="none" stroke="midnightblue" d="M1343.86,-84.35C1362.2,-74 1382.51,-62.52 1400.06,-52.61"/>
<polygon fill="midnightblue" stroke="midnightblue" points="1342.03,-81.37 1335.04,-89.34 1345.47,-87.46 1342.03,-81.37"/>
</g>
<!-- Node17 -->
<g id="node17" class="node">
<title>Node17</title>
<g id="a_node17"><a xlink:href="goto__instrument__main_8cpp.html" target="_top" xlink:title="Main Module.">
<polygon fill="none" stroke="black" points="1553.5,-0.5 1553.5,-52.5 1735.5,-52.5 1735.5,-0.5 1553.5,-0.5"/>
<text text-anchor="start" x="1561.5" y="-40.5" font-family="Helvetica,sans-Serif" font-size="10.00">/home/runner/work/diffblue</text>
<text text-anchor="start" x="1561.5" y="-29.5" font-family="Helvetica,sans-Serif" font-size="10.00">&#45;cbmc/diffblue&#45;cbmc/src</text>
<text text-anchor="start" x="1561.5" y="-18.5" font-family="Helvetica,sans-Serif" font-size="10.00">/goto&#45;instrument/goto_instrument</text>
<text text-anchor="middle" x="1644.5" y="-7.5" font-family="Helvetica,sans-Serif" font-size="10.00">_main.cpp</text>
</a>
</g>
</g>
<!-- Node15&#45;&gt;Node17 -->
<g id="edge18" class="edge">
<title>Node15&#45;&gt;Node17</title>
<path fill="none" stroke="midnightblue" d="M1391.79,-88.7C1460.45,-72.05 1479.29,-68.94 1544.5,-53 1547.37,-52.3 1550.29,-51.58 1553.23,-50.85"/>
<polygon fill="midnightblue" stroke="midnightblue" points="1390.65,-85.38 1381.77,-91.15 1392.31,-92.18 1390.65,-85.38"/>
</g>
<!-- Node21&#45;&gt;Node20 -->
<g id="edge25" class="edge">
<title>Node21&#45;&gt;Node20</title>
<path fill="none" stroke="midnightblue" d="M1893.79,-82.65C1882.07,-72.75 1869.32,-61.98 1858.22,-52.61"/>
<polygon fill="midnightblue" stroke="midnightblue" points="1891.81,-85.56 1901.71,-89.34 1896.33,-80.21 1891.81,-85.56"/>
</g>
<!-- Node22 -->
<g id="node22" class="node">
<title>Node22</title>
<g id="a_node22"><a xlink:href="janalyzer__main_8cpp.html" target="_top" xlink:title="JANALYZER Main Module.">
<polygon fill="none" stroke="black" points="1921,-0.5 1921,-52.5 2070,-52.5 2070,-0.5 1921,-0.5"/>
<text text-anchor="start" x="1929" y="-40.5" font-family="Helvetica,sans-Serif" font-size="10.00">/home/runner/work/diffblue</text>
<text text-anchor="start" x="1929" y="-29.5" font-family="Helvetica,sans-Serif" font-size="10.00">&#45;cbmc/diffblue&#45;cbmc/jbmc</text>
<text text-anchor="start" x="1929" y="-18.5" font-family="Helvetica,sans-Serif" font-size="10.00">/src/janalyzer/janalyzer</text>
<text text-anchor="middle" x="1995.5" y="-7.5" font-family="Helvetica,sans-Serif" font-size="10.00">_main.cpp</text>
</a>
</g>
</g>
<!-- Node21&#45;&gt;Node22 -->
<g id="edge24" class="edge">
<title>Node21&#45;&gt;Node22</title>
<path fill="none" stroke="midnightblue" d="M1955.99,-81.22C1962.97,-71.72 1970.47,-61.53 1977.03,-52.61"/>
<polygon fill="midnightblue" stroke="midnightblue" points="1953.12,-79.21 1950.01,-89.34 1958.76,-83.35 1953.12,-79.21"/>
</g>
<!-- Node24&#45;&gt;Node23 -->
<g id="edge29" class="edge">
<title>Node24&#45;&gt;Node23</title>
<path fill="none" stroke="midnightblue" d="M2179.5,-84.44C2179.5,-72.1 2179.5,-58.16 2179.5,-47.16"/>
<polygon fill="midnightblue" stroke="midnightblue" points="2176,-84.76 2179.5,-94.76 2183,-84.76 2176,-84.76"/>
</g>
<!-- Node25 -->
<g id="node25" class="node">
<title>Node25</title>
<g id="a_node25"><a xlink:href="jbmc__main_8cpp.html" target="_top" xlink:title="CBMC Main Module.">
<polygon fill="none" stroke="black" points="2289,-6 2289,-47 2438,-47 2438,-6 2289,-6"/>
<text text-anchor="start" x="2297" y="-35" font-family="Helvetica,sans-Serif" font-size="10.00">/home/runner/work/diffblue</text>
<text text-anchor="start" x="2297" y="-24" font-family="Helvetica,sans-Serif" font-size="10.00">&#45;cbmc/diffblue&#45;cbmc/jbmc</text>
<text text-anchor="middle" x="2363.5" y="-13" font-family="Helvetica,sans-Serif" font-size="10.00">/src/jbmc/jbmc_main.cpp</text>
</a>
</g>
</g>
<!-- Node24&#45;&gt;Node25 -->
<g id="edge28" class="edge">
<title>Node24&#45;&gt;Node25</title>
<path fill="none" stroke="midnightblue" d="M2229.92,-90.66C2258.86,-76.98 2294.74,-60.01 2322.03,-47.11"/>
<polygon fill="midnightblue" stroke="midnightblue" points="2228.34,-87.54 2220.79,-94.98 2231.33,-93.87 2228.34,-87.54"/>
</g>
<!-- Node27&#45;&gt;Node26 -->
<g id="edge34" class="edge">
<title>Node27&#45;&gt;Node26</title>
<path fill="none" stroke="midnightblue" d="M2603.15,-87.76C2589.74,-74.66 2573.89,-59.16 2561.62,-47.16"/>
<polygon fill="midnightblue" stroke="midnightblue" points="2600.71,-90.27 2610.3,-94.76 2605.6,-85.27 2600.71,-90.27"/>
</g>
<!-- Node28 -->
<g id="node28" class="node">
<title>Node28</title>
<g id="a_node28"><a xlink:href="jdiff__languages_8cpp.html" target="_top" xlink:title="Language Registration.">
<polygon fill="none" stroke="black" points="2645,-6 2645,-47 2798,-47 2798,-6 2645,-6"/>
<text text-anchor="start" x="2653" y="-35" font-family="Helvetica,sans-Serif" font-size="10.00">/home/runner/work/diffblue</text>
<text text-anchor="start" x="2653" y="-24" font-family="Helvetica,sans-Serif" font-size="10.00">&#45;cbmc/diffblue&#45;cbmc/jbmc</text>
<text text-anchor="middle" x="2721.5" y="-13" font-family="Helvetica,sans-Serif" font-size="10.00">/src/jdiff/jdiff_languages.cpp</text>
</a>
</g>
</g>
<!-- Node27&#45;&gt;Node28 -->
<g id="edge32" class="edge">
<title>Node27&#45;&gt;Node28</title>
<path fill="none" stroke="midnightblue" d="M2658.47,-87.76C2672.17,-74.66 2688.38,-59.16 2700.93,-47.16"/>
<polygon fill="midnightblue" stroke="midnightblue" points="2655.96,-85.32 2651.15,-94.76 2660.8,-90.38 2655.96,-85.32"/>
</g>
<!-- Node29 -->
<g id="node29" class="node">
<title>Node29</title>
<g id="a_node29"><a xlink:href="jdiff__main_8cpp.html" target="_top" xlink:title="JDIFF Main Module.">
<polygon fill="none" stroke="black" points="2816,-6 2816,-47 2965,-47 2965,-6 2816,-6"/>
<text text-anchor="start" x="2824" y="-35" font-family="Helvetica,sans-Serif" font-size="10.00">/home/runner/work/diffblue</text>
<text text-anchor="start" x="2824" y="-24" font-family="Helvetica,sans-Serif" font-size="10.00">&#45;cbmc/diffblue&#45;cbmc/jbmc</text>
<text text-anchor="middle" x="2890.5" y="-13" font-family="Helvetica,sans-Serif" font-size="10.00">/src/jdiff/jdiff_main.cpp</text>
</a>
</g>
</g>
<!-- Node27&#45;&gt;Node29 -->
<g id="edge33" class="edge">
<title>Node27&#45;&gt;Node29</title>
<path fill="none" stroke="midnightblue" d="M2698.59,-91.72C2739.99,-77.86 2792.34,-60.35 2831.9,-47.11"/>
<polygon fill="midnightblue" stroke="midnightblue" points="2697.22,-88.48 2688.85,-94.98 2699.44,-95.12 2697.22,-88.48"/>
</g>
</g>
</svg>
