<?xml version="1.0" encoding="UTF-8" standalone="no"?>
<!DOCTYPE svg PUBLIC "-//W3C//DTD SVG 1.1//EN"
 "http://www.w3.org/Graphics/SVG/1.1/DTD/svg11.dtd">
<!-- Generated by graphviz version 2.43.0 (0)
 -->
<!-- Title: /home/runner/work/diffblue&#45;cbmc/diffblue&#45;cbmc/src/util/simplify_expr_class.h Pages: 1 -->
<svg width="1391pt" height="128pt"
 viewBox="0.00 0.00 1390.50 128.00" xmlns="http://www.w3.org/2000/svg" xmlns:xlink="http://www.w3.org/1999/xlink">
<g id="graph0" class="graph" transform="scale(1 1) rotate(0) translate(4 124)">
<title>/home/runner/work/diffblue&#45;cbmc/diffblue&#45;cbmc/src/util/simplify_expr_class.h</title>
<!-- Node1 -->
<g id="node1" class="node">
<title>Node1</title>
<g id="a_node1"><a xlink:title=" ">
<polygon fill="#bfbfbf" stroke="black" points="621,-78.5 621,-119.5 770,-119.5 770,-78.5 621,-78.5"/>
<text text-anchor="start" x="629" y="-107.5" font-family="Helvetica,sans-Serif" font-size="10.00">/home/runner/work/diffblue</text>
<text text-anchor="start" x="629" y="-96.5" font-family="Helvetica,sans-Serif" font-size="10.00">&#45;cbmc/diffblue&#45;cbmc/src</text>
<text text-anchor="middle" x="695.5" y="-85.5" font-family="Helvetica,sans-Serif" font-size="10.00">/util/simplify_expr_class.h</text>
</a>
</g>
</g>
<!-- Node2 -->
<g id="node2" class="node">
<title>Node2</title>
<g id="a_node2"><a xlink:href="simplify__expr_8cpp.html" target="_top" xlink:title=" ">
<polygon fill="none" stroke="black" points="0,-0.5 0,-41.5 149,-41.5 149,-0.5 0,-0.5"/>
<text text-anchor="start" x="8" y="-29.5" font-family="Helvetica,sans-Serif" font-size="10.00">/home/runner/work/diffblue</text>
<text text-anchor="start" x="8" y="-18.5" font-family="Helvetica,sans-Serif" font-size="10.00">&#45;cbmc/diffblue&#45;cbmc/src</text>
<text text-anchor="middle" x="74.5" y="-7.5" font-family="Helvetica,sans-Serif" font-size="10.00">/util/simplify_expr.cpp</text>
</a>
</g>
</g>
<!-- Node1&#45;&gt;Node2 -->
<g id="edge1" class="edge">
<title>Node1&#45;&gt;Node2</title>
<path fill="none" stroke="midnightblue" d="M610.79,-92.58C504.58,-85 317.16,-69.04 158.5,-42 155.4,-41.47 152.24,-40.89 149.05,-40.28"/>
<polygon fill="midnightblue" stroke="midnightblue" points="610.59,-96.07 620.81,-93.29 611.08,-89.09 610.59,-96.07"/>
</g>
<!-- Node3 -->
<g id="node3" class="node">
<title>Node3</title>
<g id="a_node3"><a xlink:href="simplify__expr__array_8cpp.html" target="_top" xlink:title=" ">
<polygon fill="none" stroke="black" points="167.5,-0.5 167.5,-41.5 321.5,-41.5 321.5,-0.5 167.5,-0.5"/>
<text text-anchor="start" x="175.5" y="-29.5" font-family="Helvetica,sans-Serif" font-size="10.00">/home/runner/work/diffblue</text>
<text text-anchor="start" x="175.5" y="-18.5" font-family="Helvetica,sans-Serif" font-size="10.00">&#45;cbmc/diffblue&#45;cbmc/src</text>
<text text-anchor="middle" x="244.5" y="-7.5" font-family="Helvetica,sans-Serif" font-size="10.00">/util/simplify_expr_array.cpp</text>
</a>
</g>
</g>
<!-- Node1&#45;&gt;Node3 -->
<g id="edge2" class="edge">
<title>Node1&#45;&gt;Node3</title>
<path fill="none" stroke="midnightblue" d="M610.54,-86.84C536.37,-76.64 425.95,-60.39 330.5,-42 327.64,-41.45 324.73,-40.87 321.8,-40.27"/>
<polygon fill="midnightblue" stroke="midnightblue" points="610.38,-90.35 620.76,-88.23 611.33,-83.41 610.38,-90.35"/>
</g>
<!-- Node4 -->
<g id="node4" class="node">
<title>Node4</title>
<g id="a_node4"><a xlink:href="simplify__expr__boolean_8cpp.html" target="_top" xlink:title=" ">
<polygon fill="none" stroke="black" points="340,-0.5 340,-41.5 509,-41.5 509,-0.5 340,-0.5"/>
<text text-anchor="start" x="348" y="-29.5" font-family="Helvetica,sans-Serif" font-size="10.00">/home/runner/work/diffblue</text>
<text text-anchor="start" x="348" y="-18.5" font-family="Helvetica,sans-Serif" font-size="10.00">&#45;cbmc/diffblue&#45;cbmc/src</text>
<text text-anchor="middle" x="424.5" y="-7.5" font-family="Helvetica,sans-Serif" font-size="10.00">/util/simplify_expr_boolean.cpp</text>
</a>
</g>
</g>
<!-- Node1&#45;&gt;Node4 -->
<g id="edge3" class="edge">
<title>Node1&#45;&gt;Node4</title>
<path fill="none" stroke="midnightblue" d="M616.05,-75.72C577.38,-64.87 531.32,-51.96 494.05,-41.51"/>
<polygon fill="midnightblue" stroke="midnightblue" points="615.14,-79.1 625.71,-78.43 617.03,-72.36 615.14,-79.1"/>
</g>
<!-- Node5 -->
<g id="node5" class="node">
<title>Node5</title>
<g id="a_node5"><a xlink:href="simplify__expr__floatbv_8cpp.html" target="_top" xlink:title=" ">
<polygon fill="none" stroke="black" points="527,-0.5 527,-41.5 690,-41.5 690,-0.5 527,-0.5"/>
<text text-anchor="start" x="535" y="-29.5" font-family="Helvetica,sans-Serif" font-size="10.00">/home/runner/work/diffblue</text>
<text text-anchor="start" x="535" y="-18.5" font-family="Helvetica,sans-Serif" font-size="10.00">&#45;cbmc/diffblue&#45;cbmc/src</text>
<text text-anchor="middle" x="608.5" y="-7.5" font-family="Helvetica,sans-Serif" font-size="10.00">/util/simplify_expr_floatbv.cpp</text>
</a>
</g>
</g>
<!-- Node1&#45;&gt;Node5 -->
<g id="edge4" class="edge">
<title>Node1&#45;&gt;Node5</title>
<path fill="none" stroke="midnightblue" d="M665.48,-71.78C654.11,-61.84 641.37,-50.72 630.83,-41.51"/>
<polygon fill="midnightblue" stroke="midnightblue" points="663.26,-74.49 673.1,-78.43 667.87,-69.21 663.26,-74.49"/>
</g>
<!-- Node6 -->
<g id="node6" class="node">
<title>Node6</title>
<g id="a_node6"><a xlink:href="simplify__expr__if_8cpp.html" target="_top" xlink:title=" ">
<polygon fill="none" stroke="black" points="708,-0.5 708,-41.5 857,-41.5 857,-0.5 708,-0.5"/>
<text text-anchor="start" x="716" y="-29.5" font-family="Helvetica,sans-Serif" font-size="10.00">/home/runner/work/diffblue</text>
<text text-anchor="start" x="716" y="-18.5" font-family="Helvetica,sans-Serif" font-size="10.00">&#45;cbmc/diffblue&#45;cbmc/src</text>
<text text-anchor="middle" x="782.5" y="-7.5" font-family="Helvetica,sans-Serif" font-size="10.00">/util/simplify_expr_if.cpp</text>
</a>
</g>
</g>
<!-- Node1&#45;&gt;Node6 -->
<g id="edge5" class="edge">
<title>Node1&#45;&gt;Node6</title>
<path fill="none" stroke="midnightblue" d="M725.52,-71.78C736.89,-61.84 749.63,-50.72 760.17,-41.51"/>
<polygon fill="midnightblue" stroke="midnightblue" points="723.13,-69.21 717.9,-78.43 727.74,-74.49 723.13,-69.21"/>
</g>
<!-- Node7 -->
<g id="node7" class="node">
<title>Node7</title>
<g id="a_node7"><a xlink:href="simplify__expr__int_8cpp.html" target="_top" xlink:title=" ">
<polygon fill="none" stroke="black" points="875,-0.5 875,-41.5 1024,-41.5 1024,-0.5 875,-0.5"/>
<text text-anchor="start" x="883" y="-29.5" font-family="Helvetica,sans-Serif" font-size="10.00">/home/runner/work/diffblue</text>
<text text-anchor="start" x="883" y="-18.5" font-family="Helvetica,sans-Serif" font-size="10.00">&#45;cbmc/diffblue&#45;cbmc/src</text>
<text text-anchor="middle" x="949.5" y="-7.5" font-family="Helvetica,sans-Serif" font-size="10.00">/util/simplify_expr_int.cpp</text>
</a>
</g>
</g>
<!-- Node1&#45;&gt;Node7 -->
<g id="edge6" class="edge">
<title>Node1&#45;&gt;Node7</title>
<path fill="none" stroke="midnightblue" d="M770.89,-75.44C806.94,-64.66 849.68,-51.87 884.31,-41.51"/>
<polygon fill="midnightblue" stroke="midnightblue" points="769.49,-72.21 760.91,-78.43 771.49,-78.91 769.49,-72.21"/>
</g>
<!-- Node8 -->
<g id="node8" class="node">
<title>Node8</title>
<g id="a_node8"><a xlink:href="simplify__expr__pointer_8cpp.html" target="_top" xlink:title=" ">
<polygon fill="none" stroke="black" points="1042.5,-0.5 1042.5,-41.5 1206.5,-41.5 1206.5,-0.5 1042.5,-0.5"/>
<text text-anchor="start" x="1050.5" y="-29.5" font-family="Helvetica,sans-Serif" font-size="10.00">/home/runner/work/diffblue</text>
<text text-anchor="start" x="1050.5" y="-18.5" font-family="Helvetica,sans-Serif" font-size="10.00">&#45;cbmc/diffblue&#45;cbmc/src</text>
<text text-anchor="middle" x="1124.5" y="-7.5" font-family="Helvetica,sans-Serif" font-size="10.00">/util/simplify_expr_pointer.cpp</text>
</a>
</g>
</g>
<!-- Node1&#45;&gt;Node8 -->
<g id="edge7" class="edge">
<title>Node1&#45;&gt;Node8</title>
<path fill="none" stroke="midnightblue" d="M780.51,-85.17C849,-74.54 947.67,-58.53 1033.5,-42 1036.36,-41.45 1039.27,-40.88 1042.2,-40.29"/>
<polygon fill="midnightblue" stroke="midnightblue" points="779.56,-81.78 770.21,-86.77 780.63,-88.7 779.56,-81.78"/>
</g>
<!-- Node9 -->
<g id="node9" class="node">
<title>Node9</title>
<g id="a_node9"><a xlink:href="simplify__expr__struct_8cpp.html" target="_top" xlink:title=" ">
<polygon fill="none" stroke="black" points="1224.5,-0.5 1224.5,-41.5 1382.5,-41.5 1382.5,-0.5 1224.5,-0.5"/>
<text text-anchor="start" x="1232.5" y="-29.5" font-family="Helvetica,sans-Serif" font-size="10.00">/home/runner/work/diffblue</text>
<text text-anchor="start" x="1232.5" y="-18.5" font-family="Helvetica,sans-Serif" font-size="10.00">&#45;cbmc/diffblue&#45;cbmc/src</text>
<text text-anchor="middle" x="1303.5" y="-7.5" font-family="Helvetica,sans-Serif" font-size="10.00">/util/simplify_expr_struct.cpp</text>
</a>
</g>
</g>
<!-- Node1&#45;&gt;Node9 -->
<g id="edge8" class="edge">
<title>Node1&#45;&gt;Node9</title>
<path fill="none" stroke="midnightblue" d="M780.42,-91.9C883.71,-83.78 1063.17,-67.42 1215.5,-42 1218.44,-41.51 1221.42,-40.98 1224.43,-40.43"/>
<polygon fill="midnightblue" stroke="midnightblue" points="780.06,-88.42 770.36,-92.69 780.6,-95.4 780.06,-88.42"/>
</g>
</g>
</svg>
