<?xml version="1.0" encoding="UTF-8" standalone="no"?>
<!DOCTYPE svg PUBLIC "-//W3C//DTD SVG 1.1//EN"
 "http://www.w3.org/Graphics/SVG/1.1/DTD/svg11.dtd">
<!-- Generated by graphviz version 2.43.0 (0)
 -->
<!-- Title: /home/runner/work/diffblue&#45;cbmc/diffblue&#45;cbmc/src/cprover/simplify_state_expr.h Pages: 1 -->
<svg width="728pt" height="128pt"
 viewBox="0.00 0.00 728.00 128.00" xmlns="http://www.w3.org/2000/svg" xmlns:xlink="http://www.w3.org/1999/xlink">
<g id="graph0" class="graph" transform="scale(1 1) rotate(0) translate(4 124)">
<title>/home/runner/work/diffblue&#45;cbmc/diffblue&#45;cbmc/src/cprover/simplify_state_expr.h</title>
<!-- Node1 -->
<g id="node1" class="node">
<title>Node1</title>
<g id="a_node1"><a xlink:title="Simplify State Expression.">
<polygon fill="#bfbfbf" stroke="black" points="275.5,-78.5 275.5,-119.5 439.5,-119.5 439.5,-78.5 275.5,-78.5"/>
<text text-anchor="start" x="283.5" y="-107.5" font-family="Helvetica,sans-Serif" font-size="10.00">/home/runner/work/diffblue</text>
<text text-anchor="start" x="283.5" y="-96.5" font-family="Helvetica,sans-Serif" font-size="10.00">&#45;cbmc/diffblue&#45;cbmc/src</text>
<text text-anchor="middle" x="357.5" y="-85.5" font-family="Helvetica,sans-Serif" font-size="10.00">/cprover/simplify_state_expr.h</text>
</a>
</g>
</g>
<!-- Node2 -->
<g id="node2" class="node">
<title>Node2</title>
<g id="a_node2"><a xlink:href="axioms_8cpp.html" target="_top" xlink:title="Axioms.">
<polygon fill="none" stroke="black" points="0,-0.5 0,-41.5 149,-41.5 149,-0.5 0,-0.5"/>
<text text-anchor="start" x="8" y="-29.5" font-family="Helvetica,sans-Serif" font-size="10.00">/home/runner/work/diffblue</text>
<text text-anchor="start" x="8" y="-18.5" font-family="Helvetica,sans-Serif" font-size="10.00">&#45;cbmc/diffblue&#45;cbmc/src</text>
<text text-anchor="middle" x="74.5" y="-7.5" font-family="Helvetica,sans-Serif" font-size="10.00">/cprover/axioms.cpp</text>
</a>
</g>
</g>
<!-- Node1&#45;&gt;Node2 -->
<g id="edge1" class="edge">
<title>Node1&#45;&gt;Node2</title>
<path fill="none" stroke="midnightblue" d="M274.79,-75.79C234.35,-64.93 186.13,-51.98 147.13,-41.51"/>
<polygon fill="midnightblue" stroke="midnightblue" points="274.05,-79.21 284.62,-78.43 275.87,-72.45 274.05,-79.21"/>
</g>
<!-- Node3 -->
<g id="node3" class="node">
<title>Node3</title>
<g id="a_node3"><a xlink:href="counterexample__found_8cpp.html" target="_top" xlink:title="Counterexample Found.">
<polygon fill="none" stroke="black" points="167.5,-0.5 167.5,-41.5 359.5,-41.5 359.5,-0.5 167.5,-0.5"/>
<text text-anchor="start" x="175.5" y="-29.5" font-family="Helvetica,sans-Serif" font-size="10.00">/home/runner/work/diffblue</text>
<text text-anchor="start" x="175.5" y="-18.5" font-family="Helvetica,sans-Serif" font-size="10.00">&#45;cbmc/diffblue&#45;cbmc/src</text>
<text text-anchor="middle" x="263.5" y="-7.5" font-family="Helvetica,sans-Serif" font-size="10.00">/cprover/counterexample_found.cpp</text>
</a>
</g>
</g>
<!-- Node1&#45;&gt;Node3 -->
<g id="edge2" class="edge">
<title>Node1&#45;&gt;Node3</title>
<path fill="none" stroke="midnightblue" d="M325.42,-72.06C313.04,-62.06 299.13,-50.8 287.63,-41.51"/>
<polygon fill="midnightblue" stroke="midnightblue" points="323.32,-74.86 333.29,-78.43 327.72,-69.42 323.32,-74.86"/>
</g>
<!-- Node4 -->
<g id="node4" class="node">
<title>Node4</title>
<g id="a_node4"><a xlink:href="propagate_8cpp.html" target="_top" xlink:title="Propagate.">
<polygon fill="none" stroke="black" points="378,-0.5 378,-41.5 527,-41.5 527,-0.5 378,-0.5"/>
<text text-anchor="start" x="386" y="-29.5" font-family="Helvetica,sans-Serif" font-size="10.00">/home/runner/work/diffblue</text>
<text text-anchor="start" x="386" y="-18.5" font-family="Helvetica,sans-Serif" font-size="10.00">&#45;cbmc/diffblue&#45;cbmc/src</text>
<text text-anchor="middle" x="452.5" y="-7.5" font-family="Helvetica,sans-Serif" font-size="10.00">/cprover/propagate.cpp</text>
</a>
</g>
</g>
<!-- Node1&#45;&gt;Node4 -->
<g id="edge3" class="edge">
<title>Node1&#45;&gt;Node4</title>
<path fill="none" stroke="midnightblue" d="M389.92,-72.06C402.43,-62.06 416.49,-50.8 428.12,-41.51"/>
<polygon fill="midnightblue" stroke="midnightblue" points="387.59,-69.45 381.96,-78.43 391.96,-74.91 387.59,-69.45"/>
</g>
<!-- Node5 -->
<g id="node5" class="node">
<title>Node5</title>
<g id="a_node5"><a xlink:href="simplify__state__expr_8cpp.html" target="_top" xlink:title="Simplify State Expressions.">
<polygon fill="none" stroke="black" points="545,-0.5 545,-41.5 720,-41.5 720,-0.5 545,-0.5"/>
<text text-anchor="start" x="553" y="-29.5" font-family="Helvetica,sans-Serif" font-size="10.00">/home/runner/work/diffblue</text>
<text text-anchor="start" x="553" y="-18.5" font-family="Helvetica,sans-Serif" font-size="10.00">&#45;cbmc/diffblue&#45;cbmc/src</text>
<text text-anchor="middle" x="632.5" y="-7.5" font-family="Helvetica,sans-Serif" font-size="10.00">/cprover/simplify_state_expr.cpp</text>
</a>
</g>
</g>
<!-- Node1&#45;&gt;Node5 -->
<g id="edge4" class="edge">
<title>Node1&#45;&gt;Node5</title>
<path fill="none" stroke="midnightblue" d="M438.12,-75.72C477.36,-64.87 524.11,-51.96 561.92,-41.51"/>
<polygon fill="midnightblue" stroke="midnightblue" points="437.03,-72.39 428.32,-78.43 438.89,-79.14 437.03,-72.39"/>
</g>
</g>
</svg>
