<?xml version="1.0" encoding="UTF-8" standalone="no"?>
<!DOCTYPE svg PUBLIC "-//W3C//DTD SVG 1.1//EN"
 "http://www.w3.org/Graphics/SVG/1.1/DTD/svg11.dtd">
<!-- Generated by graphviz version 2.43.0 (0)
 -->
<!-- Title: /home/runner/work/diffblue&#45;cbmc/diffblue&#45;cbmc/src/goto&#45;symex/slice.h Pages: 1 -->
<svg width="764pt" height="217pt"
 viewBox="0.00 0.00 764.00 217.00" xmlns="http://www.w3.org/2000/svg" xmlns:xlink="http://www.w3.org/1999/xlink">
<g id="graph0" class="graph" transform="scale(1 1) rotate(0) translate(4 213)">
<title>/home/runner/work/diffblue&#45;cbmc/diffblue&#45;cbmc/src/goto&#45;symex/slice.h</title>
<!-- Node1 -->
<g id="node1" class="node">
<title>Node1</title>
<g id="a_node1"><a xlink:title="Slicer for symex traces.">
<polygon fill="#bfbfbf" stroke="black" points="368,-167.5 368,-208.5 517,-208.5 517,-167.5 368,-167.5"/>
<text text-anchor="start" x="376" y="-196.5" font-family="Helvetica,sans-Serif" font-size="10.00">/home/runner/work/diffblue</text>
<text text-anchor="start" x="376" y="-185.5" font-family="Helvetica,sans-Serif" font-size="10.00">&#45;cbmc/diffblue&#45;cbmc/src</text>
<text text-anchor="middle" x="442.5" y="-174.5" font-family="Helvetica,sans-Serif" font-size="10.00">/goto&#45;symex/slice.h</text>
</a>
</g>
</g>
<!-- Node2 -->
<g id="node2" class="node">
<title>Node2</title>
<g id="a_node2"><a xlink:href="bmc__util_8cpp.html" target="_top" xlink:title="Bounded Model Checking Utilities.">
<polygon fill="none" stroke="black" points="0,-84 0,-125 149,-125 149,-84 0,-84"/>
<text text-anchor="start" x="8" y="-113" font-family="Helvetica,sans-Serif" font-size="10.00">/home/runner/work/diffblue</text>
<text text-anchor="start" x="8" y="-102" font-family="Helvetica,sans-Serif" font-size="10.00">&#45;cbmc/diffblue&#45;cbmc/src</text>
<text text-anchor="middle" x="74.5" y="-91" font-family="Helvetica,sans-Serif" font-size="10.00">/goto&#45;checker/bmc_util.cpp</text>
</a>
</g>
</g>
<!-- Node1&#45;&gt;Node2 -->
<g id="edge1" class="edge">
<title>Node1&#45;&gt;Node2</title>
<path fill="none" stroke="midnightblue" d="M357.9,-172.61C301.17,-162.4 224.96,-147.6 158.5,-131 151.25,-129.19 143.71,-127.14 136.23,-125.01"/>
<polygon fill="midnightblue" stroke="midnightblue" points="357.44,-176.08 367.9,-174.4 358.67,-169.19 357.44,-176.08"/>
</g>
<!-- Node3 -->
<g id="node3" class="node">
<title>Node3</title>
<g id="a_node3"><a xlink:href="single__loop__incremental__symex__checker_8cpp.html" target="_top" xlink:title="Goto Checker using multi&#45;path symbolic execution with incremental unwinding of a specified loop.">
<polygon fill="none" stroke="black" points="167,-78.5 167,-130.5 348,-130.5 348,-78.5 167,-78.5"/>
<text text-anchor="start" x="175" y="-118.5" font-family="Helvetica,sans-Serif" font-size="10.00">/home/runner/work/diffblue</text>
<text text-anchor="start" x="175" y="-107.5" font-family="Helvetica,sans-Serif" font-size="10.00">&#45;cbmc/diffblue&#45;cbmc/src</text>
<text text-anchor="start" x="175" y="-96.5" font-family="Helvetica,sans-Serif" font-size="10.00">/goto&#45;checker/single_loop</text>
<text text-anchor="middle" x="257.5" y="-85.5" font-family="Helvetica,sans-Serif" font-size="10.00">_incremental_symex_checker.cpp</text>
</a>
</g>
</g>
<!-- Node1&#45;&gt;Node3 -->
<g id="edge2" class="edge">
<title>Node1&#45;&gt;Node3</title>
<path fill="none" stroke="midnightblue" d="M388.79,-163.34C365.46,-153.06 338.11,-141.01 314.42,-130.58"/>
<polygon fill="midnightblue" stroke="midnightblue" points="387.63,-166.65 398.19,-167.48 390.45,-160.24 387.63,-166.65"/>
</g>
<!-- Node4 -->
<g id="node4" class="node">
<title>Node4</title>
<g id="a_node4"><a xlink:href="scratch__program_8cpp.html" target="_top" xlink:title="Loop Acceleration.">
<polygon fill="none" stroke="black" points="366.5,-78.5 366.5,-130.5 518.5,-130.5 518.5,-78.5 366.5,-78.5"/>
<text text-anchor="start" x="374.5" y="-118.5" font-family="Helvetica,sans-Serif" font-size="10.00">/home/runner/work/diffblue</text>
<text text-anchor="start" x="374.5" y="-107.5" font-family="Helvetica,sans-Serif" font-size="10.00">&#45;cbmc/diffblue&#45;cbmc/src</text>
<text text-anchor="start" x="374.5" y="-96.5" font-family="Helvetica,sans-Serif" font-size="10.00">/goto&#45;instrument/accelerate</text>
<text text-anchor="middle" x="442.5" y="-85.5" font-family="Helvetica,sans-Serif" font-size="10.00">/scratch_program.cpp</text>
</a>
</g>
</g>
<!-- Node1&#45;&gt;Node4 -->
<g id="edge3" class="edge">
<title>Node1&#45;&gt;Node4</title>
<path fill="none" stroke="midnightblue" d="M442.5,-157.12C442.5,-148.41 442.5,-138.99 442.5,-130.61"/>
<polygon fill="midnightblue" stroke="midnightblue" points="439,-157.27 442.5,-167.27 446,-157.27 439,-157.27"/>
</g>
<!-- Node5 -->
<g id="node5" class="node">
<title>Node5</title>
<g id="a_node5"><a xlink:href="slice_8cpp.html" target="_top" xlink:title="Slicer for symex traces.">
<polygon fill="none" stroke="black" points="531,-0.5 531,-41.5 680,-41.5 680,-0.5 531,-0.5"/>
<text text-anchor="start" x="539" y="-29.5" font-family="Helvetica,sans-Serif" font-size="10.00">/home/runner/work/diffblue</text>
<text text-anchor="start" x="539" y="-18.5" font-family="Helvetica,sans-Serif" font-size="10.00">&#45;cbmc/diffblue&#45;cbmc/src</text>
<text text-anchor="middle" x="605.5" y="-7.5" font-family="Helvetica,sans-Serif" font-size="10.00">/goto&#45;symex/slice.cpp</text>
</a>
</g>
</g>
<!-- Node1&#45;&gt;Node5 -->
<g id="edge4" class="edge">
<title>Node1&#45;&gt;Node5</title>
<path fill="none" stroke="midnightblue" d="M487.37,-161.81C501.04,-153.02 515.59,-142.46 527.5,-131 531.38,-127.27 570.39,-72.01 591.72,-41.64"/>
<polygon fill="midnightblue" stroke="midnightblue" points="485.17,-159.05 478.54,-167.32 488.88,-164.99 485.17,-159.05"/>
</g>
<!-- Node6 -->
<g id="node6" class="node">
<title>Node6</title>
<g id="a_node6"><a xlink:href="symex__slice__class_8h.html" target="_top" xlink:title="Slicer for symex traces.">
<polygon fill="none" stroke="black" points="575,-84 575,-125 756,-125 756,-84 575,-84"/>
<text text-anchor="start" x="583" y="-113" font-family="Helvetica,sans-Serif" font-size="10.00">/home/runner/work/diffblue</text>
<text text-anchor="start" x="583" y="-102" font-family="Helvetica,sans-Serif" font-size="10.00">&#45;cbmc/diffblue&#45;cbmc/src</text>
<text text-anchor="middle" x="665.5" y="-91" font-family="Helvetica,sans-Serif" font-size="10.00">/goto&#45;symex/symex_slice_class.h</text>
</a>
</g>
</g>
<!-- Node1&#45;&gt;Node6 -->
<g id="edge5" class="edge">
<title>Node1&#45;&gt;Node6</title>
<path fill="none" stroke="midnightblue" d="M505.64,-163.92C539.25,-151.64 580.13,-136.7 612.14,-125"/>
<polygon fill="midnightblue" stroke="midnightblue" points="504.11,-160.76 495.91,-167.48 506.51,-167.33 504.11,-160.76"/>
</g>
<!-- Node6&#45;&gt;Node5 -->
<g id="edge6" class="edge">
<title>Node6&#45;&gt;Node5</title>
<path fill="none" stroke="midnightblue" d="M644.93,-75.55C636.68,-64.36 627.39,-51.73 619.89,-41.55"/>
<polygon fill="midnightblue" stroke="midnightblue" points="642.23,-77.79 650.98,-83.77 647.87,-73.64 642.23,-77.79"/>
</g>
</g>
</svg>
