<?xml version="1.0" encoding="UTF-8" standalone="no"?>
<!DOCTYPE svg PUBLIC "-//W3C//DTD SVG 1.1//EN"
 "http://www.w3.org/Graphics/SVG/1.1/DTD/svg11.dtd">
<!-- Generated by graphviz version 2.43.0 (0)
 -->
<!-- Title: /home/runner/work/diffblue&#45;cbmc/diffblue&#45;cbmc/src/solvers/smt2/smt2_tokenizer.h Pages: 1 -->
<svg width="706pt" height="206pt"
 viewBox="0.00 0.00 705.50 206.00" xmlns="http://www.w3.org/2000/svg" xmlns:xlink="http://www.w3.org/1999/xlink">
<g id="graph0" class="graph" transform="scale(1 1) rotate(0) translate(4 202)">
<title>/home/runner/work/diffblue&#45;cbmc/diffblue&#45;cbmc/src/solvers/smt2/smt2_tokenizer.h</title>
<!-- Node1 -->
<g id="node1" class="node">
<title>Node1</title>
<g id="a_node1"><a xlink:title=" ">
<polygon fill="#bfbfbf" stroke="black" points="262.5,-156.5 262.5,-197.5 431.5,-197.5 431.5,-156.5 262.5,-156.5"/>
<text text-anchor="start" x="270.5" y="-185.5" font-family="Helvetica,sans-Serif" font-size="10.00">/home/runner/work/diffblue</text>
<text text-anchor="start" x="270.5" y="-174.5" font-family="Helvetica,sans-Serif" font-size="10.00">&#45;cbmc/diffblue&#45;cbmc/src</text>
<text text-anchor="middle" x="347" y="-163.5" font-family="Helvetica,sans-Serif" font-size="10.00">/solvers/smt2/smt2_tokenizer.h</text>
</a>
</g>
</g>
<!-- Node2 -->
<g id="node2" class="node">
<title>Node2</title>
<g id="a_node2"><a xlink:href="smt2__conv_8cpp.html" target="_top" xlink:title="SMT Backend.">
<polygon fill="none" stroke="black" points="0,-78.5 0,-119.5 158,-119.5 158,-78.5 0,-78.5"/>
<text text-anchor="start" x="8" y="-107.5" font-family="Helvetica,sans-Serif" font-size="10.00">/home/runner/work/diffblue</text>
<text text-anchor="start" x="8" y="-96.5" font-family="Helvetica,sans-Serif" font-size="10.00">&#45;cbmc/diffblue&#45;cbmc/src</text>
<text text-anchor="middle" x="79" y="-85.5" font-family="Helvetica,sans-Serif" font-size="10.00">/solvers/smt2/smt2_conv.cpp</text>
</a>
</g>
</g>
<!-- Node1&#45;&gt;Node2 -->
<g id="edge1" class="edge">
<title>Node1&#45;&gt;Node2</title>
<path fill="none" stroke="midnightblue" d="M267.94,-153.58C229.8,-142.76 184.48,-129.91 147.78,-119.51"/>
<polygon fill="midnightblue" stroke="midnightblue" points="267.41,-157.07 277.98,-156.43 269.32,-150.33 267.41,-157.07"/>
</g>
<!-- Node3 -->
<g id="node3" class="node">
<title>Node3</title>
<g id="a_node3"><a xlink:href="smt2__parser_8h.html" target="_top" xlink:title=" ">
<polygon fill="none" stroke="black" points="176.5,-78.5 176.5,-119.5 331.5,-119.5 331.5,-78.5 176.5,-78.5"/>
<text text-anchor="start" x="184.5" y="-107.5" font-family="Helvetica,sans-Serif" font-size="10.00">/home/runner/work/diffblue</text>
<text text-anchor="start" x="184.5" y="-96.5" font-family="Helvetica,sans-Serif" font-size="10.00">&#45;cbmc/diffblue&#45;cbmc/src</text>
<text text-anchor="middle" x="254" y="-85.5" font-family="Helvetica,sans-Serif" font-size="10.00">/solvers/smt2/smt2_parser.h</text>
</a>
</g>
</g>
<!-- Node1&#45;&gt;Node3 -->
<g id="edge2" class="edge">
<title>Node1&#45;&gt;Node3</title>
<path fill="none" stroke="midnightblue" d="M315.26,-150.06C303.02,-140.06 289.25,-128.8 277.87,-119.51"/>
<polygon fill="midnightblue" stroke="midnightblue" points="313.09,-152.81 323.05,-156.43 317.52,-147.39 313.09,-152.81"/>
</g>
<!-- Node6 -->
<g id="node6" class="node">
<title>Node6</title>
<g id="a_node6"><a xlink:href="smt2__tokenizer_8cpp.html" target="_top" xlink:title=" ">
<polygon fill="none" stroke="black" points="350,-78.5 350,-119.5 530,-119.5 530,-78.5 350,-78.5"/>
<text text-anchor="start" x="358" y="-107.5" font-family="Helvetica,sans-Serif" font-size="10.00">/home/runner/work/diffblue</text>
<text text-anchor="start" x="358" y="-96.5" font-family="Helvetica,sans-Serif" font-size="10.00">&#45;cbmc/diffblue&#45;cbmc/src</text>
<text text-anchor="middle" x="440" y="-85.5" font-family="Helvetica,sans-Serif" font-size="10.00">/solvers/smt2/smt2_tokenizer.cpp</text>
</a>
</g>
</g>
<!-- Node1&#45;&gt;Node6 -->
<g id="edge5" class="edge">
<title>Node1&#45;&gt;Node6</title>
<path fill="none" stroke="midnightblue" d="M378.74,-150.06C390.98,-140.06 404.75,-128.8 416.13,-119.51"/>
<polygon fill="midnightblue" stroke="midnightblue" points="376.48,-147.39 370.95,-156.43 380.91,-152.81 376.48,-147.39"/>
</g>
<!-- Node7 -->
<g id="node7" class="node">
<title>Node7</title>
<g id="a_node7"><a xlink:href="src_2solvers_2smt2_2smt2irep_8cpp.html" target="_top" xlink:title=" ">
<polygon fill="none" stroke="black" points="548.5,-78.5 548.5,-119.5 697.5,-119.5 697.5,-78.5 548.5,-78.5"/>
<text text-anchor="start" x="556.5" y="-107.5" font-family="Helvetica,sans-Serif" font-size="10.00">/home/runner/work/diffblue</text>
<text text-anchor="start" x="556.5" y="-96.5" font-family="Helvetica,sans-Serif" font-size="10.00">&#45;cbmc/diffblue&#45;cbmc/src</text>
<text text-anchor="middle" x="623" y="-85.5" font-family="Helvetica,sans-Serif" font-size="10.00">/solvers/smt2/smt2irep.cpp</text>
</a>
</g>
</g>
<!-- Node1&#45;&gt;Node7 -->
<g id="edge6" class="edge">
<title>Node1&#45;&gt;Node7</title>
<path fill="none" stroke="midnightblue" d="M427.92,-153.72C467.3,-142.87 514.21,-129.96 552.16,-119.51"/>
<polygon fill="midnightblue" stroke="midnightblue" points="426.79,-150.4 418.08,-156.43 428.65,-157.15 426.79,-150.4"/>
</g>
<!-- Node4 -->
<g id="node4" class="node">
<title>Node4</title>
<g id="a_node4"><a xlink:href="smt2__parser_8cpp.html" target="_top" xlink:title=" ">
<polygon fill="none" stroke="black" points="79,-0.5 79,-41.5 245,-41.5 245,-0.5 79,-0.5"/>
<text text-anchor="start" x="87" y="-29.5" font-family="Helvetica,sans-Serif" font-size="10.00">/home/runner/work/diffblue</text>
<text text-anchor="start" x="87" y="-18.5" font-family="Helvetica,sans-Serif" font-size="10.00">&#45;cbmc/diffblue&#45;cbmc/src</text>
<text text-anchor="middle" x="162" y="-7.5" font-family="Helvetica,sans-Serif" font-size="10.00">/solvers/smt2/smt2_parser.cpp</text>
</a>
</g>
</g>
<!-- Node3&#45;&gt;Node4 -->
<g id="edge3" class="edge">
<title>Node3&#45;&gt;Node4</title>
<path fill="none" stroke="midnightblue" d="M222.26,-71.78C210.23,-61.84 196.76,-50.72 185.61,-41.51"/>
<polygon fill="midnightblue" stroke="midnightblue" points="220.37,-74.76 230.31,-78.43 224.83,-69.36 220.37,-74.76"/>
</g>
<!-- Node5 -->
<g id="node5" class="node">
<title>Node5</title>
<g id="a_node5"><a xlink:href="smt2__solver_8cpp.html" target="_top" xlink:title=" ">
<polygon fill="none" stroke="black" points="263.5,-0.5 263.5,-41.5 428.5,-41.5 428.5,-0.5 263.5,-0.5"/>
<text text-anchor="start" x="271.5" y="-29.5" font-family="Helvetica,sans-Serif" font-size="10.00">/home/runner/work/diffblue</text>
<text text-anchor="start" x="271.5" y="-18.5" font-family="Helvetica,sans-Serif" font-size="10.00">&#45;cbmc/diffblue&#45;cbmc/src</text>
<text text-anchor="middle" x="346" y="-7.5" font-family="Helvetica,sans-Serif" font-size="10.00">/solvers/smt2/smt2_solver.cpp</text>
</a>
</g>
</g>
<!-- Node3&#45;&gt;Node5 -->
<g id="edge4" class="edge">
<title>Node3&#45;&gt;Node5</title>
<path fill="none" stroke="midnightblue" d="M285.74,-71.78C297.77,-61.84 311.24,-50.72 322.39,-41.51"/>
<polygon fill="midnightblue" stroke="midnightblue" points="283.17,-69.36 277.69,-78.43 287.63,-74.76 283.17,-69.36"/>
</g>
</g>
</svg>
