<?xml version="1.0" encoding="UTF-8" standalone="no"?>
<!DOCTYPE svg PUBLIC "-//W3C//DTD SVG 1.1//EN"
 "http://www.w3.org/Graphics/SVG/1.1/DTD/svg11.dtd">
<!-- Generated by graphviz version 2.43.0 (0)
 -->
<!-- Title: /home/runner/work/diffblue&#45;cbmc/diffblue&#45;cbmc/src/solvers/smt2/smt2_dec.h Pages: 1 -->
<svg width="2596pt" height="495pt"
 viewBox="0.00 0.00 2595.50 495.00" xmlns="http://www.w3.org/2000/svg" xmlns:xlink="http://www.w3.org/1999/xlink">
<g id="graph0" class="graph" transform="scale(1 1) rotate(0) translate(4 491)">
<title>/home/runner/work/diffblue&#45;cbmc/diffblue&#45;cbmc/src/solvers/smt2/smt2_dec.h</title>
<!-- Node1 -->
<g id="node1" class="node">
<title>Node1</title>
<g id="a_node1"><a xlink:title=" ">
<polygon fill="#bfbfbf" stroke="black" points="1892,-445.5 1892,-486.5 2041,-486.5 2041,-445.5 1892,-445.5"/>
<text text-anchor="start" x="1900" y="-474.5" font-family="Helvetica,sans-Serif" font-size="10.00">/home/runner/work/diffblue</text>
<text text-anchor="start" x="1900" y="-463.5" font-family="Helvetica,sans-Serif" font-size="10.00">&#45;cbmc/diffblue&#45;cbmc/src</text>
<text text-anchor="middle" x="1966.5" y="-452.5" font-family="Helvetica,sans-Serif" font-size="10.00">/solvers/smt2/smt2_dec.h</text>
</a>
</g>
</g>
<!-- Node2 -->
<g id="node2" class="node">
<title>Node2</title>
<g id="a_node2"><a xlink:href="solver__factory_8h.html" target="_top" xlink:title="Solver Factory.">
<polygon fill="none" stroke="black" points="1136,-362 1136,-403 1299,-403 1299,-362 1136,-362"/>
<text text-anchor="start" x="1144" y="-391" font-family="Helvetica,sans-Serif" font-size="10.00">/home/runner/work/diffblue</text>
<text text-anchor="start" x="1144" y="-380" font-family="Helvetica,sans-Serif" font-size="10.00">&#45;cbmc/diffblue&#45;cbmc/src</text>
<text text-anchor="middle" x="1217.5" y="-369" font-family="Helvetica,sans-Serif" font-size="10.00">/goto&#45;checker/solver_factory.h</text>
</a>
</g>
</g>
<!-- Node1&#45;&gt;Node2 -->
<g id="edge1" class="edge">
<title>Node1&#45;&gt;Node2</title>
<path fill="none" stroke="midnightblue" d="M1881.75,-455.78C1736.56,-439.98 1442.1,-407.94 1299.1,-392.38"/>
<polygon fill="midnightblue" stroke="midnightblue" points="1881.62,-459.29 1891.94,-456.89 1882.38,-452.33 1881.62,-459.29"/>
</g>
<!-- Node26 -->
<g id="node26" class="node">
<title>Node26</title>
<g id="a_node26"><a xlink:href="scratch__program_8h.html" target="_top" xlink:title="Loop Acceleration.">
<polygon fill="none" stroke="black" points="1890.5,-356.5 1890.5,-408.5 2042.5,-408.5 2042.5,-356.5 1890.5,-356.5"/>
<text text-anchor="start" x="1898.5" y="-396.5" font-family="Helvetica,sans-Serif" font-size="10.00">/home/runner/work/diffblue</text>
<text text-anchor="start" x="1898.5" y="-385.5" font-family="Helvetica,sans-Serif" font-size="10.00">&#45;cbmc/diffblue&#45;cbmc/src</text>
<text text-anchor="start" x="1898.5" y="-374.5" font-family="Helvetica,sans-Serif" font-size="10.00">/goto&#45;instrument/accelerate</text>
<text text-anchor="middle" x="1966.5" y="-363.5" font-family="Helvetica,sans-Serif" font-size="10.00">/scratch_program.h</text>
</a>
</g>
</g>
<!-- Node1&#45;&gt;Node26 -->
<g id="edge28" class="edge">
<title>Node1&#45;&gt;Node26</title>
<path fill="none" stroke="midnightblue" d="M1966.5,-435.12C1966.5,-426.41 1966.5,-416.99 1966.5,-408.61"/>
<polygon fill="midnightblue" stroke="midnightblue" points="1963,-435.27 1966.5,-445.27 1970,-435.27 1963,-435.27"/>
</g>
<!-- Node33 -->
<g id="node33" class="node">
<title>Node33</title>
<g id="a_node33"><a xlink:href="smt2__dec_8cpp.html" target="_top" xlink:title=" ">
<polygon fill="none" stroke="black" points="2061,-362 2061,-403 2214,-403 2214,-362 2061,-362"/>
<text text-anchor="start" x="2069" y="-391" font-family="Helvetica,sans-Serif" font-size="10.00">/home/runner/work/diffblue</text>
<text text-anchor="start" x="2069" y="-380" font-family="Helvetica,sans-Serif" font-size="10.00">&#45;cbmc/diffblue&#45;cbmc/src</text>
<text text-anchor="middle" x="2137.5" y="-369" font-family="Helvetica,sans-Serif" font-size="10.00">/solvers/smt2/smt2_dec.cpp</text>
</a>
</g>
</g>
<!-- Node1&#45;&gt;Node33 -->
<g id="edge35" class="edge">
<title>Node1&#45;&gt;Node33</title>
<path fill="none" stroke="midnightblue" d="M2016.58,-441.13C2042.03,-429 2072.56,-414.45 2096.58,-403"/>
<polygon fill="midnightblue" stroke="midnightblue" points="2014.98,-438.02 2007.46,-445.48 2017.99,-444.34 2014.98,-438.02"/>
</g>
<!-- Node3 -->
<g id="node3" class="node">
<title>Node3</title>
<g id="a_node3"><a xlink:href="goto__symex__property__decider_8h.html" target="_top" xlink:title="Property Decider for Goto&#45;Symex.">
<polygon fill="none" stroke="black" points="681,-267.5 681,-319.5 830,-319.5 830,-267.5 681,-267.5"/>
<text text-anchor="start" x="689" y="-307.5" font-family="Helvetica,sans-Serif" font-size="10.00">/home/runner/work/diffblue</text>
<text text-anchor="start" x="689" y="-296.5" font-family="Helvetica,sans-Serif" font-size="10.00">&#45;cbmc/diffblue&#45;cbmc/src</text>
<text text-anchor="start" x="689" y="-285.5" font-family="Helvetica,sans-Serif" font-size="10.00">/goto&#45;checker/goto_symex</text>
<text text-anchor="middle" x="755.5" y="-274.5" font-family="Helvetica,sans-Serif" font-size="10.00">_property_decider.h</text>
</a>
</g>
</g>
<!-- Node2&#45;&gt;Node3 -->
<g id="edge2" class="edge">
<title>Node2&#45;&gt;Node3</title>
<path fill="none" stroke="midnightblue" d="M1126.14,-364.3C1039.46,-347.97 910.79,-323.74 830.11,-308.55"/>
<polygon fill="midnightblue" stroke="midnightblue" points="1125.49,-367.74 1135.97,-366.15 1126.79,-360.86 1125.49,-367.74"/>
</g>
<!-- Node20 -->
<g id="node20" class="node">
<title>Node20</title>
<g id="a_node20"><a xlink:href="solver__factory_8cpp.html" target="_top" xlink:title="Solver Factory.">
<polygon fill="none" stroke="black" points="931.5,-273 931.5,-314 1105.5,-314 1105.5,-273 931.5,-273"/>
<text text-anchor="start" x="939.5" y="-302" font-family="Helvetica,sans-Serif" font-size="10.00">/home/runner/work/diffblue</text>
<text text-anchor="start" x="939.5" y="-291" font-family="Helvetica,sans-Serif" font-size="10.00">&#45;cbmc/diffblue&#45;cbmc/src</text>
<text text-anchor="middle" x="1018.5" y="-280" font-family="Helvetica,sans-Serif" font-size="10.00">/goto&#45;checker/solver_factory.cpp</text>
</a>
</g>
</g>
<!-- Node2&#45;&gt;Node20 -->
<g id="edge22" class="edge">
<title>Node2&#45;&gt;Node20</title>
<path fill="none" stroke="midnightblue" d="M1163.37,-357.84C1132.01,-344.12 1092.99,-327.07 1063.35,-314.11"/>
<polygon fill="midnightblue" stroke="midnightblue" points="1162.28,-361.18 1172.84,-361.98 1165.08,-354.76 1162.28,-361.18"/>
</g>
<!-- Node21 -->
<g id="node21" class="node">
<title>Node21</title>
<g id="a_node21"><a xlink:href="goto__synthesizer__parse__options_8h.html" target="_top" xlink:title="Command Line Parsing.">
<polygon fill="none" stroke="black" points="1123.5,-267.5 1123.5,-319.5 1311.5,-319.5 1311.5,-267.5 1123.5,-267.5"/>
<text text-anchor="start" x="1131.5" y="-307.5" font-family="Helvetica,sans-Serif" font-size="10.00">/home/runner/work/diffblue</text>
<text text-anchor="start" x="1131.5" y="-296.5" font-family="Helvetica,sans-Serif" font-size="10.00">&#45;cbmc/diffblue&#45;cbmc/src</text>
<text text-anchor="start" x="1131.5" y="-285.5" font-family="Helvetica,sans-Serif" font-size="10.00">/goto&#45;synthesizer/goto_synthesizer</text>
<text text-anchor="middle" x="1217.5" y="-274.5" font-family="Helvetica,sans-Serif" font-size="10.00">_parse_options.h</text>
</a>
</g>
</g>
<!-- Node2&#45;&gt;Node21 -->
<g id="edge23" class="edge">
<title>Node2&#45;&gt;Node21</title>
<path fill="none" stroke="midnightblue" d="M1217.5,-351.51C1217.5,-341.17 1217.5,-329.71 1217.5,-319.79"/>
<polygon fill="midnightblue" stroke="midnightblue" points="1214,-351.76 1217.5,-361.76 1221,-351.76 1214,-351.76"/>
</g>
<!-- Node25 -->
<g id="node25" class="node">
<title>Node25</title>
<g id="a_node25"><a xlink:href="api__options_8cpp.html" target="_top" xlink:title=" ">
<polygon fill="none" stroke="black" points="1330,-273 1330,-314 1499,-314 1499,-273 1330,-273"/>
<text text-anchor="start" x="1338" y="-302" font-family="Helvetica,sans-Serif" font-size="10.00">/home/runner/work/diffblue</text>
<text text-anchor="start" x="1338" y="-291" font-family="Helvetica,sans-Serif" font-size="10.00">&#45;cbmc/diffblue&#45;cbmc/src</text>
<text text-anchor="middle" x="1414.5" y="-280" font-family="Helvetica,sans-Serif" font-size="10.00">/libcprover&#45;cpp/api_options.cpp</text>
</a>
</g>
</g>
<!-- Node2&#45;&gt;Node25 -->
<g id="edge27" class="edge">
<title>Node2&#45;&gt;Node25</title>
<path fill="none" stroke="midnightblue" d="M1271.08,-357.84C1302.13,-344.12 1340.76,-327.07 1370.1,-314.11"/>
<polygon fill="midnightblue" stroke="midnightblue" points="1269.44,-354.73 1261.71,-361.98 1272.27,-361.14 1269.44,-354.73"/>
</g>
<!-- Node4 -->
<g id="node4" class="node">
<title>Node4</title>
<g id="a_node4"><a xlink:href="bmc__util_8cpp.html" target="_top" xlink:title="Bounded Model Checking Utilities.">
<polygon fill="none" stroke="black" points="215,-184 215,-225 364,-225 364,-184 215,-184"/>
<text text-anchor="start" x="223" y="-213" font-family="Helvetica,sans-Serif" font-size="10.00">/home/runner/work/diffblue</text>
<text text-anchor="start" x="223" y="-202" font-family="Helvetica,sans-Serif" font-size="10.00">&#45;cbmc/diffblue&#45;cbmc/src</text>
<text text-anchor="middle" x="289.5" y="-191" font-family="Helvetica,sans-Serif" font-size="10.00">/goto&#45;checker/bmc_util.cpp</text>
</a>
</g>
</g>
<!-- Node3&#45;&gt;Node4 -->
<g id="edge3" class="edge">
<title>Node3&#45;&gt;Node4</title>
<path fill="none" stroke="midnightblue" d="M670.5,-282.3C592.45,-272.11 473.88,-254.59 372.5,-231 365.01,-229.26 357.21,-227.2 349.53,-225.01"/>
<polygon fill="midnightblue" stroke="midnightblue" points="670.4,-285.81 680.77,-283.62 671.3,-278.87 670.4,-285.81"/>
</g>
<!-- Node5 -->
<g id="node5" class="node">
<title>Node5</title>
<g id="a_node5"><a xlink:href="goto__symex__property__decider_8cpp.html" target="_top" xlink:title="Property Decider for Goto&#45;Symex.">
<polygon fill="none" stroke="black" points="382,-178.5 382,-230.5 531,-230.5 531,-178.5 382,-178.5"/>
<text text-anchor="start" x="390" y="-218.5" font-family="Helvetica,sans-Serif" font-size="10.00">/home/runner/work/diffblue</text>
<text text-anchor="start" x="390" y="-207.5" font-family="Helvetica,sans-Serif" font-size="10.00">&#45;cbmc/diffblue&#45;cbmc/src</text>
<text text-anchor="start" x="390" y="-196.5" font-family="Helvetica,sans-Serif" font-size="10.00">/goto&#45;checker/goto_symex</text>
<text text-anchor="middle" x="456.5" y="-185.5" font-family="Helvetica,sans-Serif" font-size="10.00">_property_decider.cpp</text>
</a>
</g>
</g>
<!-- Node3&#45;&gt;Node5 -->
<g id="edge4" class="edge">
<title>Node3&#45;&gt;Node5</title>
<path fill="none" stroke="midnightblue" d="M671.21,-268.94C631.24,-257.65 582.85,-243.83 539.5,-231 536.75,-230.19 533.96,-229.35 531.13,-228.51"/>
<polygon fill="midnightblue" stroke="midnightblue" points="670.34,-272.33 680.92,-271.67 672.24,-265.59 670.34,-272.33"/>
</g>
<!-- Node6 -->
<g id="node6" class="node">
<title>Node6</title>
<g id="a_node6"><a xlink:href="multi__path__symex__checker_8h.html" target="_top" xlink:title="Goto Checker using Multi&#45;Path Symbolic Execution.">
<polygon fill="none" stroke="black" points="549,-178.5 549,-230.5 698,-230.5 698,-178.5 549,-178.5"/>
<text text-anchor="start" x="557" y="-218.5" font-family="Helvetica,sans-Serif" font-size="10.00">/home/runner/work/diffblue</text>
<text text-anchor="start" x="557" y="-207.5" font-family="Helvetica,sans-Serif" font-size="10.00">&#45;cbmc/diffblue&#45;cbmc/src</text>
<text text-anchor="start" x="557" y="-196.5" font-family="Helvetica,sans-Serif" font-size="10.00">/goto&#45;checker/multi_path</text>
<text text-anchor="middle" x="623.5" y="-185.5" font-family="Helvetica,sans-Serif" font-size="10.00">_symex_checker.h</text>
</a>
</g>
</g>
<!-- Node3&#45;&gt;Node6 -->
<g id="edge5" class="edge">
<title>Node3&#45;&gt;Node6</title>
<path fill="none" stroke="midnightblue" d="M708.9,-261.79C693.41,-251.58 676.36,-240.34 661.59,-230.61"/>
<polygon fill="midnightblue" stroke="midnightblue" points="707.04,-264.76 717.32,-267.34 710.9,-258.91 707.04,-264.76"/>
</g>
<!-- Node14 -->
<g id="node14" class="node">
<title>Node14</title>
<g id="a_node14"><a xlink:href="single__loop__incremental__symex__checker_8h.html" target="_top" xlink:title="Goto Checker using multi&#45;path symbolic execution with incremental unwinding of a specified loop.">
<polygon fill="none" stroke="black" points="719.5,-178.5 719.5,-230.5 889.5,-230.5 889.5,-178.5 719.5,-178.5"/>
<text text-anchor="start" x="727.5" y="-218.5" font-family="Helvetica,sans-Serif" font-size="10.00">/home/runner/work/diffblue</text>
<text text-anchor="start" x="727.5" y="-207.5" font-family="Helvetica,sans-Serif" font-size="10.00">&#45;cbmc/diffblue&#45;cbmc/src</text>
<text text-anchor="start" x="727.5" y="-196.5" font-family="Helvetica,sans-Serif" font-size="10.00">/goto&#45;checker/single_loop</text>
<text text-anchor="middle" x="804.5" y="-185.5" font-family="Helvetica,sans-Serif" font-size="10.00">_incremental_symex_checker.h</text>
</a>
</g>
</g>
<!-- Node3&#45;&gt;Node14 -->
<g id="edge13" class="edge">
<title>Node3&#45;&gt;Node14</title>
<path fill="none" stroke="midnightblue" d="M774.73,-258.35C779.94,-249.1 785.49,-239.26 790.36,-230.61"/>
<polygon fill="midnightblue" stroke="midnightblue" points="771.53,-256.91 769.67,-267.34 777.63,-260.34 771.53,-256.91"/>
</g>
<!-- Node16 -->
<g id="node16" class="node">
<title>Node16</title>
<g id="a_node16"><a xlink:href="single__path__symex__checker_8h.html" target="_top" xlink:title="Goto Checker using Single Path Symbolic Execution.">
<polygon fill="none" stroke="black" points="908,-178.5 908,-230.5 1057,-230.5 1057,-178.5 908,-178.5"/>
<text text-anchor="start" x="916" y="-218.5" font-family="Helvetica,sans-Serif" font-size="10.00">/home/runner/work/diffblue</text>
<text text-anchor="start" x="916" y="-207.5" font-family="Helvetica,sans-Serif" font-size="10.00">&#45;cbmc/diffblue&#45;cbmc/src</text>
<text text-anchor="start" x="916" y="-196.5" font-family="Helvetica,sans-Serif" font-size="10.00">/goto&#45;checker/single_path</text>
<text text-anchor="middle" x="982.5" y="-185.5" font-family="Helvetica,sans-Serif" font-size="10.00">_symex_checker.h</text>
</a>
</g>
</g>
<!-- Node3&#45;&gt;Node16 -->
<g id="edge16" class="edge">
<title>Node3&#45;&gt;Node16</title>
<path fill="none" stroke="midnightblue" d="M830.23,-263.86C858.33,-253.09 890.04,-240.94 917.22,-230.52"/>
<polygon fill="midnightblue" stroke="midnightblue" points="828.94,-260.61 820.85,-267.45 831.44,-267.14 828.94,-260.61"/>
</g>
<!-- Node7 -->
<g id="node7" class="node">
<title>Node7</title>
<g id="a_node7"><a xlink:href="cbmc__parse__options_8cpp.html" target="_top" xlink:title="CBMC Command Line Option Processing.">
<polygon fill="none" stroke="black" points="722,-95 722,-136 891,-136 891,-95 722,-95"/>
<text text-anchor="start" x="730" y="-124" font-family="Helvetica,sans-Serif" font-size="10.00">/home/runner/work/diffblue</text>
<text text-anchor="start" x="730" y="-113" font-family="Helvetica,sans-Serif" font-size="10.00">&#45;cbmc/diffblue&#45;cbmc/src</text>
<text text-anchor="middle" x="806.5" y="-102" font-family="Helvetica,sans-Serif" font-size="10.00">/cbmc/cbmc_parse_options.cpp</text>
</a>
</g>
</g>
<!-- Node6&#45;&gt;Node7 -->
<g id="edge6" class="edge">
<title>Node6&#45;&gt;Node7</title>
<path fill="none" stroke="midnightblue" d="M685.57,-173.99C711.87,-161.49 741.8,-147.26 765.31,-136.08"/>
<polygon fill="midnightblue" stroke="midnightblue" points="683.96,-170.88 676.43,-178.34 686.97,-177.2 683.96,-170.88"/>
</g>
<!-- Node8 -->
<g id="node8" class="node">
<title>Node8</title>
<g id="a_node8"><a xlink:href="multi__path__symex__checker_8cpp.html" target="_top" xlink:title="Goto Checker using Bounded Model Checking.">
<polygon fill="none" stroke="black" points="0,-89.5 0,-141.5 149,-141.5 149,-89.5 0,-89.5"/>
<text text-anchor="start" x="8" y="-129.5" font-family="Helvetica,sans-Serif" font-size="10.00">/home/runner/work/diffblue</text>
<text text-anchor="start" x="8" y="-118.5" font-family="Helvetica,sans-Serif" font-size="10.00">&#45;cbmc/diffblue&#45;cbmc/src</text>
<text text-anchor="start" x="8" y="-107.5" font-family="Helvetica,sans-Serif" font-size="10.00">/goto&#45;checker/multi_path</text>
<text text-anchor="middle" x="74.5" y="-96.5" font-family="Helvetica,sans-Serif" font-size="10.00">_symex_checker.cpp</text>
</a>
</g>
</g>
<!-- Node6&#45;&gt;Node8 -->
<g id="edge7" class="edge">
<title>Node6&#45;&gt;Node8</title>
<path fill="none" stroke="midnightblue" d="M538.64,-178.02C370.33,-146.19 321.58,-174.58 157.5,-142 154.84,-141.47 152.14,-140.89 149.43,-140.27"/>
<polygon fill="midnightblue" stroke="midnightblue" points="538.1,-181.48 548.58,-179.94 539.43,-174.61 538.1,-181.48"/>
</g>
<!-- Node9 -->
<g id="node9" class="node">
<title>Node9</title>
<g id="a_node9"><a xlink:href="cegis__verifier_8cpp.html" target="_top" xlink:title="Verifier for Counterexample&#45;Guided Synthesis.">
<polygon fill="none" stroke="black" points="167,-95 167,-136 356,-136 356,-95 167,-95"/>
<text text-anchor="start" x="175" y="-124" font-family="Helvetica,sans-Serif" font-size="10.00">/home/runner/work/diffblue</text>
<text text-anchor="start" x="175" y="-113" font-family="Helvetica,sans-Serif" font-size="10.00">&#45;cbmc/diffblue&#45;cbmc/src</text>
<text text-anchor="middle" x="261.5" y="-102" font-family="Helvetica,sans-Serif" font-size="10.00">/goto&#45;synthesizer/cegis_verifier.cpp</text>
</a>
</g>
</g>
<!-- Node6&#45;&gt;Node9 -->
<g id="edge8" class="edge">
<title>Node6&#45;&gt;Node9</title>
<path fill="none" stroke="midnightblue" d="M539.11,-178C460.84,-158.5 438.92,-158.86 364.5,-142 356.24,-140.13 347.62,-138.1 339.03,-136.05"/>
<polygon fill="midnightblue" stroke="midnightblue" points="538.39,-181.43 548.94,-180.48 540.1,-174.64 538.39,-181.43"/>
</g>
<!-- Node10 -->
<g id="node10" class="node">
<title>Node10</title>
<g id="a_node10"><a xlink:href="api_8cpp.html" target="_top" xlink:title=" ">
<polygon fill="none" stroke="black" points="374,-95 374,-136 523,-136 523,-95 374,-95"/>
<text text-anchor="start" x="382" y="-124" font-family="Helvetica,sans-Serif" font-size="10.00">/home/runner/work/diffblue</text>
<text text-anchor="start" x="382" y="-113" font-family="Helvetica,sans-Serif" font-size="10.00">&#45;cbmc/diffblue&#45;cbmc/src</text>
<text text-anchor="middle" x="448.5" y="-102" font-family="Helvetica,sans-Serif" font-size="10.00">/libcprover&#45;cpp/api.cpp</text>
</a>
</g>
</g>
<!-- Node6&#45;&gt;Node10 -->
<g id="edge9" class="edge">
<title>Node6&#45;&gt;Node10</title>
<path fill="none" stroke="midnightblue" d="M563.82,-173.83C538.74,-161.36 510.27,-147.21 487.89,-136.08"/>
<polygon fill="midnightblue" stroke="midnightblue" points="562.37,-177.02 572.88,-178.34 565.49,-170.75 562.37,-177.02"/>
</g>
<!-- Node11 -->
<g id="node11" class="node">
<title>Node11</title>
<g id="a_node11"><a xlink:href="java__multi__path__symex__checker_8h.html" target="_top" xlink:title="Goto Checker using Bounded Model Checking for Java.">
<polygon fill="none" stroke="black" points="541,-89.5 541,-141.5 704,-141.5 704,-89.5 541,-89.5"/>
<text text-anchor="start" x="549" y="-129.5" font-family="Helvetica,sans-Serif" font-size="10.00">/home/runner/work/diffblue</text>
<text text-anchor="start" x="549" y="-118.5" font-family="Helvetica,sans-Serif" font-size="10.00">&#45;cbmc/diffblue&#45;cbmc/jbmc</text>
<text text-anchor="start" x="549" y="-107.5" font-family="Helvetica,sans-Serif" font-size="10.00">/src/java_bytecode/java_multi</text>
<text text-anchor="middle" x="622.5" y="-96.5" font-family="Helvetica,sans-Serif" font-size="10.00">_path_symex_checker.h</text>
</a>
</g>
</g>
<!-- Node6&#45;&gt;Node11 -->
<g id="edge10" class="edge">
<title>Node6&#45;&gt;Node11</title>
<path fill="none" stroke="midnightblue" d="M623.09,-168.19C622.99,-159.28 622.88,-149.9 622.79,-141.61"/>
<polygon fill="midnightblue" stroke="midnightblue" points="619.6,-168.38 623.21,-178.34 626.6,-168.3 619.6,-168.38"/>
</g>
<!-- Node12 -->
<g id="node12" class="node">
<title>Node12</title>
<g id="a_node12"><a xlink:href="java__multi__path__symex__checker_8cpp.html" target="_top" xlink:title=" ">
<polygon fill="none" stroke="black" points="541,-0.5 541,-52.5 704,-52.5 704,-0.5 541,-0.5"/>
<text text-anchor="start" x="549" y="-40.5" font-family="Helvetica,sans-Serif" font-size="10.00">/home/runner/work/diffblue</text>
<text text-anchor="start" x="549" y="-29.5" font-family="Helvetica,sans-Serif" font-size="10.00">&#45;cbmc/diffblue&#45;cbmc/jbmc</text>
<text text-anchor="start" x="549" y="-18.5" font-family="Helvetica,sans-Serif" font-size="10.00">/src/java_bytecode/java_multi</text>
<text text-anchor="middle" x="622.5" y="-7.5" font-family="Helvetica,sans-Serif" font-size="10.00">_path_symex_checker.cpp</text>
</a>
</g>
</g>
<!-- Node11&#45;&gt;Node12 -->
<g id="edge11" class="edge">
<title>Node11&#45;&gt;Node12</title>
<path fill="none" stroke="midnightblue" d="M622.5,-79.19C622.5,-70.28 622.5,-60.9 622.5,-52.61"/>
<polygon fill="midnightblue" stroke="midnightblue" points="619,-79.34 622.5,-89.34 626,-79.34 619,-79.34"/>
</g>
<!-- Node13 -->
<g id="node13" class="node">
<title>Node13</title>
<g id="a_node13"><a xlink:href="jbmc__parse__options_8cpp.html" target="_top" xlink:title="JBMC Command Line Option Processing.">
<polygon fill="none" stroke="black" points="898.5,-6 898.5,-47 1080.5,-47 1080.5,-6 898.5,-6"/>
<text text-anchor="start" x="906.5" y="-35" font-family="Helvetica,sans-Serif" font-size="10.00">/home/runner/work/diffblue</text>
<text text-anchor="start" x="906.5" y="-24" font-family="Helvetica,sans-Serif" font-size="10.00">&#45;cbmc/diffblue&#45;cbmc/jbmc</text>
<text text-anchor="middle" x="989.5" y="-13" font-family="Helvetica,sans-Serif" font-size="10.00">/src/jbmc/jbmc_parse_options.cpp</text>
</a>
</g>
</g>
<!-- Node11&#45;&gt;Node13 -->
<g id="edge12" class="edge">
<title>Node11&#45;&gt;Node13</title>
<path fill="none" stroke="midnightblue" d="M714.19,-88.62C780.76,-71.97 846.78,-57.35 898.43,-46.34"/>
<polygon fill="midnightblue" stroke="midnightblue" points="713.21,-85.26 704.36,-91.09 714.91,-92.04 713.21,-85.26"/>
</g>
<!-- Node14&#45;&gt;Node7 -->
<g id="edge14" class="edge">
<title>Node14&#45;&gt;Node7</title>
<path fill="none" stroke="midnightblue" d="M805.31,-168.16C805.56,-157.21 805.83,-145.55 806.05,-136.08"/>
<polygon fill="midnightblue" stroke="midnightblue" points="801.81,-168.26 805.08,-178.34 808.81,-168.42 801.81,-168.26"/>
</g>
<!-- Node15 -->
<g id="node15" class="node">
<title>Node15</title>
<g id="a_node15"><a xlink:href="single__loop__incremental__symex__checker_8cpp.html" target="_top" xlink:title="Goto Checker using multi&#45;path symbolic execution with incremental unwinding of a specified loop.">
<polygon fill="none" stroke="black" points="909,-89.5 909,-141.5 1090,-141.5 1090,-89.5 909,-89.5"/>
<text text-anchor="start" x="917" y="-129.5" font-family="Helvetica,sans-Serif" font-size="10.00">/home/runner/work/diffblue</text>
<text text-anchor="start" x="917" y="-118.5" font-family="Helvetica,sans-Serif" font-size="10.00">&#45;cbmc/diffblue&#45;cbmc/src</text>
<text text-anchor="start" x="917" y="-107.5" font-family="Helvetica,sans-Serif" font-size="10.00">/goto&#45;checker/single_loop</text>
<text text-anchor="middle" x="999.5" y="-96.5" font-family="Helvetica,sans-Serif" font-size="10.00">_incremental_symex_checker.cpp</text>
</a>
</g>
</g>
<!-- Node14&#45;&gt;Node15 -->
<g id="edge15" class="edge">
<title>Node14&#45;&gt;Node15</title>
<path fill="none" stroke="midnightblue" d="M869.96,-174.29C893.78,-163.67 920.48,-151.76 943.42,-141.52"/>
<polygon fill="midnightblue" stroke="midnightblue" points="868.35,-171.18 860.64,-178.45 871.2,-177.57 868.35,-171.18"/>
</g>
<!-- Node16&#45;&gt;Node7 -->
<g id="edge17" class="edge">
<title>Node16&#45;&gt;Node7</title>
<path fill="none" stroke="midnightblue" d="M922.48,-173.83C897.26,-161.36 868.62,-147.21 846.11,-136.08"/>
<polygon fill="midnightblue" stroke="midnightblue" points="921.08,-177.04 931.59,-178.34 924.18,-170.77 921.08,-177.04"/>
</g>
<!-- Node17 -->
<g id="node17" class="node">
<title>Node17</title>
<g id="a_node17"><a xlink:href="single__path__symex__checker_8cpp.html" target="_top" xlink:title="Goto Checker using Single Path Symbolic Execution.">
<polygon fill="none" stroke="black" points="1108,-89.5 1108,-141.5 1257,-141.5 1257,-89.5 1108,-89.5"/>
<text text-anchor="start" x="1116" y="-129.5" font-family="Helvetica,sans-Serif" font-size="10.00">/home/runner/work/diffblue</text>
<text text-anchor="start" x="1116" y="-118.5" font-family="Helvetica,sans-Serif" font-size="10.00">&#45;cbmc/diffblue&#45;cbmc/src</text>
<text text-anchor="start" x="1116" y="-107.5" font-family="Helvetica,sans-Serif" font-size="10.00">/goto&#45;checker/single_path</text>
<text text-anchor="middle" x="1182.5" y="-96.5" font-family="Helvetica,sans-Serif" font-size="10.00">_symex_checker.cpp</text>
</a>
</g>
</g>
<!-- Node16&#45;&gt;Node17 -->
<g id="edge18" class="edge">
<title>Node16&#45;&gt;Node17</title>
<path fill="none" stroke="midnightblue" d="M1049.31,-174.44C1073.83,-163.77 1101.35,-151.8 1124.98,-141.52"/>
<polygon fill="midnightblue" stroke="midnightblue" points="1047.85,-171.25 1040.08,-178.45 1050.65,-177.67 1047.85,-171.25"/>
</g>
<!-- Node18 -->
<g id="node18" class="node">
<title>Node18</title>
<g id="a_node18"><a xlink:href="java__single__path__symex__checker_8h.html" target="_top" xlink:title="Goto Checker using Single Path Symbolic Execution for Java.">
<polygon fill="none" stroke="black" points="1275,-89.5 1275,-141.5 1442,-141.5 1442,-89.5 1275,-89.5"/>
<text text-anchor="start" x="1283" y="-129.5" font-family="Helvetica,sans-Serif" font-size="10.00">/home/runner/work/diffblue</text>
<text text-anchor="start" x="1283" y="-118.5" font-family="Helvetica,sans-Serif" font-size="10.00">&#45;cbmc/diffblue&#45;cbmc/jbmc</text>
<text text-anchor="start" x="1283" y="-107.5" font-family="Helvetica,sans-Serif" font-size="10.00">/src/java_bytecode/java_single</text>
<text text-anchor="middle" x="1358.5" y="-96.5" font-family="Helvetica,sans-Serif" font-size="10.00">_path_symex_checker.h</text>
</a>
</g>
</g>
<!-- Node16&#45;&gt;Node18 -->
<g id="edge19" class="edge">
<title>Node16&#45;&gt;Node18</title>
<path fill="none" stroke="midnightblue" d="M1066.98,-178.01C1155.64,-157.23 1180.93,-161.2 1265.5,-142 1268.6,-141.3 1271.76,-140.56 1274.94,-139.79"/>
<polygon fill="midnightblue" stroke="midnightblue" points="1065.95,-174.66 1057.03,-180.39 1067.57,-181.47 1065.95,-174.66"/>
</g>
<!-- Node18&#45;&gt;Node13 -->
<g id="edge21" class="edge">
<title>Node18&#45;&gt;Node13</title>
<path fill="none" stroke="midnightblue" d="M1264.94,-88.91C1197.55,-72.29 1131.91,-57.69 1080.5,-46.62"/>
<polygon fill="midnightblue" stroke="midnightblue" points="1264.35,-92.36 1274.9,-91.37 1266.03,-85.57 1264.35,-92.36"/>
</g>
<!-- Node19 -->
<g id="node19" class="node">
<title>Node19</title>
<g id="a_node19"><a xlink:href="java__single__path__symex__checker_8cpp.html" target="_top" xlink:title=" ">
<polygon fill="none" stroke="black" points="1275,-0.5 1275,-52.5 1442,-52.5 1442,-0.5 1275,-0.5"/>
<text text-anchor="start" x="1283" y="-40.5" font-family="Helvetica,sans-Serif" font-size="10.00">/home/runner/work/diffblue</text>
<text text-anchor="start" x="1283" y="-29.5" font-family="Helvetica,sans-Serif" font-size="10.00">&#45;cbmc/diffblue&#45;cbmc/jbmc</text>
<text text-anchor="start" x="1283" y="-18.5" font-family="Helvetica,sans-Serif" font-size="10.00">/src/java_bytecode/java_single</text>
<text text-anchor="middle" x="1358.5" y="-7.5" font-family="Helvetica,sans-Serif" font-size="10.00">_path_symex_checker.cpp</text>
</a>
</g>
</g>
<!-- Node18&#45;&gt;Node19 -->
<g id="edge20" class="edge">
<title>Node18&#45;&gt;Node19</title>
<path fill="none" stroke="midnightblue" d="M1358.5,-79.19C1358.5,-70.28 1358.5,-60.9 1358.5,-52.61"/>
<polygon fill="midnightblue" stroke="midnightblue" points="1355,-79.34 1358.5,-89.34 1362,-79.34 1355,-79.34"/>
</g>
<!-- Node22 -->
<g id="node22" class="node">
<title>Node22</title>
<g id="a_node22"><a xlink:href="goto__synthesizer__languages_8cpp.html" target="_top" xlink:title="Language Registration.">
<polygon fill="none" stroke="black" points="1075.5,-178.5 1075.5,-230.5 1263.5,-230.5 1263.5,-178.5 1075.5,-178.5"/>
<text text-anchor="start" x="1083.5" y="-218.5" font-family="Helvetica,sans-Serif" font-size="10.00">/home/runner/work/diffblue</text>
<text text-anchor="start" x="1083.5" y="-207.5" font-family="Helvetica,sans-Serif" font-size="10.00">&#45;cbmc/diffblue&#45;cbmc/src</text>
<text text-anchor="start" x="1083.5" y="-196.5" font-family="Helvetica,sans-Serif" font-size="10.00">/goto&#45;synthesizer/goto_synthesizer</text>
<text text-anchor="middle" x="1169.5" y="-185.5" font-family="Helvetica,sans-Serif" font-size="10.00">_languages.cpp</text>
</a>
</g>
</g>
<!-- Node21&#45;&gt;Node22 -->
<g id="edge24" class="edge">
<title>Node21&#45;&gt;Node22</title>
<path fill="none" stroke="midnightblue" d="M1198.66,-258.35C1193.56,-249.1 1188.13,-239.26 1183.35,-230.61"/>
<polygon fill="midnightblue" stroke="midnightblue" points="1195.72,-260.27 1203.62,-267.34 1201.85,-256.89 1195.72,-260.27"/>
</g>
<!-- Node23 -->
<g id="node23" class="node">
<title>Node23</title>
<g id="a_node23"><a xlink:href="goto__synthesizer__main_8cpp.html" target="_top" xlink:title="Main Module.">
<polygon fill="none" stroke="black" points="1281.5,-178.5 1281.5,-230.5 1469.5,-230.5 1469.5,-178.5 1281.5,-178.5"/>
<text text-anchor="start" x="1289.5" y="-218.5" font-family="Helvetica,sans-Serif" font-size="10.00">/home/runner/work/diffblue</text>
<text text-anchor="start" x="1289.5" y="-207.5" font-family="Helvetica,sans-Serif" font-size="10.00">&#45;cbmc/diffblue&#45;cbmc/src</text>
<text text-anchor="start" x="1289.5" y="-196.5" font-family="Helvetica,sans-Serif" font-size="10.00">/goto&#45;synthesizer/goto_synthesizer</text>
<text text-anchor="middle" x="1375.5" y="-185.5" font-family="Helvetica,sans-Serif" font-size="10.00">_main.cpp</text>
</a>
</g>
</g>
<!-- Node21&#45;&gt;Node23 -->
<g id="edge25" class="edge">
<title>Node21&#45;&gt;Node23</title>
<path fill="none" stroke="midnightblue" d="M1271.99,-262.49C1290.87,-252.1 1311.82,-240.57 1329.9,-230.61"/>
<polygon fill="midnightblue" stroke="midnightblue" points="1270.27,-259.45 1263.2,-267.34 1273.65,-265.58 1270.27,-259.45"/>
</g>
<!-- Node24 -->
<g id="node24" class="node">
<title>Node24</title>
<g id="a_node24"><a xlink:href="goto__synthesizer__parse__options_8cpp.html" target="_top" xlink:title="Main Module.">
<polygon fill="none" stroke="black" points="1487.5,-178.5 1487.5,-230.5 1675.5,-230.5 1675.5,-178.5 1487.5,-178.5"/>
<text text-anchor="start" x="1495.5" y="-218.5" font-family="Helvetica,sans-Serif" font-size="10.00">/home/runner/work/diffblue</text>
<text text-anchor="start" x="1495.5" y="-207.5" font-family="Helvetica,sans-Serif" font-size="10.00">&#45;cbmc/diffblue&#45;cbmc/src</text>
<text text-anchor="start" x="1495.5" y="-196.5" font-family="Helvetica,sans-Serif" font-size="10.00">/goto&#45;synthesizer/goto_synthesizer</text>
<text text-anchor="middle" x="1581.5" y="-185.5" font-family="Helvetica,sans-Serif" font-size="10.00">_parse_options.cpp</text>
</a>
</g>
</g>
<!-- Node21&#45;&gt;Node24 -->
<g id="edge26" class="edge">
<title>Node21&#45;&gt;Node24</title>
<path fill="none" stroke="midnightblue" d="M1321.37,-266.81C1392.2,-250.09 1411.44,-246.94 1478.5,-231 1481.46,-230.3 1484.46,-229.58 1487.49,-228.85"/>
<polygon fill="midnightblue" stroke="midnightblue" points="1320.43,-263.44 1311.51,-269.15 1322.04,-270.25 1320.43,-263.44"/>
</g>
<!-- Node27 -->
<g id="node27" class="node">
<title>Node27</title>
<g id="a_node27"><a xlink:href="accelerate_8cpp.html" target="_top" xlink:title="Loop Acceleration.">
<polygon fill="none" stroke="black" points="1517.5,-267.5 1517.5,-319.5 1669.5,-319.5 1669.5,-267.5 1517.5,-267.5"/>
<text text-anchor="start" x="1525.5" y="-307.5" font-family="Helvetica,sans-Serif" font-size="10.00">/home/runner/work/diffblue</text>
<text text-anchor="start" x="1525.5" y="-296.5" font-family="Helvetica,sans-Serif" font-size="10.00">&#45;cbmc/diffblue&#45;cbmc/src</text>
<text text-anchor="start" x="1525.5" y="-285.5" font-family="Helvetica,sans-Serif" font-size="10.00">/goto&#45;instrument/accelerate</text>
<text text-anchor="middle" x="1593.5" y="-274.5" font-family="Helvetica,sans-Serif" font-size="10.00">/accelerate.cpp</text>
</a>
</g>
</g>
<!-- Node26&#45;&gt;Node27 -->
<g id="edge29" class="edge">
<title>Node26&#45;&gt;Node27</title>
<path fill="none" stroke="midnightblue" d="M1880.18,-364.97C1822.75,-353.51 1745.78,-337.24 1678.5,-320 1675.66,-319.27 1672.78,-318.51 1669.87,-317.73"/>
<polygon fill="midnightblue" stroke="midnightblue" points="1879.82,-368.47 1890.31,-366.98 1881.19,-361.6 1879.82,-368.47"/>
</g>
<!-- Node28 -->
<g id="node28" class="node">
<title>Node28</title>
<g id="a_node28"><a xlink:href="acceleration__utils_8cpp.html" target="_top" xlink:title="Loop Acceleration.">
<polygon fill="none" stroke="black" points="1687.5,-267.5 1687.5,-319.5 1839.5,-319.5 1839.5,-267.5 1687.5,-267.5"/>
<text text-anchor="start" x="1695.5" y="-307.5" font-family="Helvetica,sans-Serif" font-size="10.00">/home/runner/work/diffblue</text>
<text text-anchor="start" x="1695.5" y="-296.5" font-family="Helvetica,sans-Serif" font-size="10.00">&#45;cbmc/diffblue&#45;cbmc/src</text>
<text text-anchor="start" x="1695.5" y="-285.5" font-family="Helvetica,sans-Serif" font-size="10.00">/goto&#45;instrument/accelerate</text>
<text text-anchor="middle" x="1763.5" y="-274.5" font-family="Helvetica,sans-Serif" font-size="10.00">/acceleration_utils.cpp</text>
</a>
</g>
</g>
<!-- Node26&#45;&gt;Node28 -->
<g id="edge30" class="edge">
<title>Node26&#45;&gt;Node28</title>
<path fill="none" stroke="midnightblue" d="M1898.68,-352.44C1873.8,-341.77 1845.87,-329.8 1821.88,-319.52"/>
<polygon fill="midnightblue" stroke="midnightblue" points="1897.49,-355.73 1908.06,-356.45 1900.24,-349.3 1897.49,-355.73"/>
</g>
<!-- Node29 -->
<g id="node29" class="node">
<title>Node29</title>
<g id="a_node29"><a xlink:href="disjunctive__polynomial__acceleration_8cpp.html" target="_top" xlink:title="Loop Acceleration.">
<polygon fill="none" stroke="black" points="1857.5,-267.5 1857.5,-319.5 2075.5,-319.5 2075.5,-267.5 1857.5,-267.5"/>
<text text-anchor="start" x="1865.5" y="-307.5" font-family="Helvetica,sans-Serif" font-size="10.00">/home/runner/work/diffblue</text>
<text text-anchor="start" x="1865.5" y="-296.5" font-family="Helvetica,sans-Serif" font-size="10.00">&#45;cbmc/diffblue&#45;cbmc/src</text>
<text text-anchor="start" x="1865.5" y="-285.5" font-family="Helvetica,sans-Serif" font-size="10.00">/goto&#45;instrument/accelerate</text>
<text text-anchor="middle" x="1966.5" y="-274.5" font-family="Helvetica,sans-Serif" font-size="10.00">/disjunctive_polynomial_acceleration.cpp</text>
</a>
</g>
</g>
<!-- Node26&#45;&gt;Node29 -->
<g id="edge31" class="edge">
<title>Node26&#45;&gt;Node29</title>
<path fill="none" stroke="midnightblue" d="M1966.5,-346.19C1966.5,-337.28 1966.5,-327.9 1966.5,-319.61"/>
<polygon fill="midnightblue" stroke="midnightblue" points="1963,-346.34 1966.5,-356.34 1970,-346.34 1963,-346.34"/>
</g>
<!-- Node30 -->
<g id="node30" class="node">
<title>Node30</title>
<g id="a_node30"><a xlink:href="polynomial__accelerator_8cpp.html" target="_top" xlink:title="Loop Acceleration.">
<polygon fill="none" stroke="black" points="2093.5,-267.5 2093.5,-319.5 2247.5,-319.5 2247.5,-267.5 2093.5,-267.5"/>
<text text-anchor="start" x="2101.5" y="-307.5" font-family="Helvetica,sans-Serif" font-size="10.00">/home/runner/work/diffblue</text>
<text text-anchor="start" x="2101.5" y="-296.5" font-family="Helvetica,sans-Serif" font-size="10.00">&#45;cbmc/diffblue&#45;cbmc/src</text>
<text text-anchor="start" x="2101.5" y="-285.5" font-family="Helvetica,sans-Serif" font-size="10.00">/goto&#45;instrument/accelerate</text>
<text text-anchor="middle" x="2170.5" y="-274.5" font-family="Helvetica,sans-Serif" font-size="10.00">/polynomial_accelerator.cpp</text>
</a>
</g>
</g>
<!-- Node26&#45;&gt;Node30 -->
<g id="edge32" class="edge">
<title>Node26&#45;&gt;Node30</title>
<path fill="none" stroke="midnightblue" d="M2034.65,-352.44C2059.66,-341.77 2087.73,-329.8 2111.83,-319.52"/>
<polygon fill="midnightblue" stroke="midnightblue" points="2033.06,-349.31 2025.23,-356.45 2035.8,-355.75 2033.06,-349.31"/>
</g>
<!-- Node31 -->
<g id="node31" class="node">
<title>Node31</title>
<g id="a_node31"><a xlink:href="sat__path__enumerator_8cpp.html" target="_top" xlink:title="Loop Acceleration.">
<polygon fill="none" stroke="black" points="2265.5,-267.5 2265.5,-319.5 2417.5,-319.5 2417.5,-267.5 2265.5,-267.5"/>
<text text-anchor="start" x="2273.5" y="-307.5" font-family="Helvetica,sans-Serif" font-size="10.00">/home/runner/work/diffblue</text>
<text text-anchor="start" x="2273.5" y="-296.5" font-family="Helvetica,sans-Serif" font-size="10.00">&#45;cbmc/diffblue&#45;cbmc/src</text>
<text text-anchor="start" x="2273.5" y="-285.5" font-family="Helvetica,sans-Serif" font-size="10.00">/goto&#45;instrument/accelerate</text>
<text text-anchor="middle" x="2341.5" y="-274.5" font-family="Helvetica,sans-Serif" font-size="10.00">/sat_path_enumerator.cpp</text>
</a>
</g>
</g>
<!-- Node26&#45;&gt;Node31 -->
<g id="edge33" class="edge">
<title>Node26&#45;&gt;Node31</title>
<path fill="none" stroke="midnightblue" d="M2052.74,-356.08C2143.88,-335.28 2169.98,-340.54 2256.5,-320 2259.35,-319.32 2262.24,-318.61 2265.16,-317.86"/>
<polygon fill="midnightblue" stroke="midnightblue" points="2051.76,-352.71 2042.81,-358.38 2053.34,-359.53 2051.76,-352.71"/>
</g>
<!-- Node32 -->
<g id="node32" class="node">
<title>Node32</title>
<g id="a_node32"><a xlink:href="scratch__program_8cpp.html" target="_top" xlink:title="Loop Acceleration.">
<polygon fill="none" stroke="black" points="2435.5,-267.5 2435.5,-319.5 2587.5,-319.5 2587.5,-267.5 2435.5,-267.5"/>
<text text-anchor="start" x="2443.5" y="-307.5" font-family="Helvetica,sans-Serif" font-size="10.00">/home/runner/work/diffblue</text>
<text text-anchor="start" x="2443.5" y="-296.5" font-family="Helvetica,sans-Serif" font-size="10.00">&#45;cbmc/diffblue&#45;cbmc/src</text>
<text text-anchor="start" x="2443.5" y="-285.5" font-family="Helvetica,sans-Serif" font-size="10.00">/goto&#45;instrument/accelerate</text>
<text text-anchor="middle" x="2511.5" y="-274.5" font-family="Helvetica,sans-Serif" font-size="10.00">/scratch_program.cpp</text>
</a>
</g>
</g>
<!-- Node26&#45;&gt;Node32 -->
<g id="edge34" class="edge">
<title>Node26&#45;&gt;Node32</title>
<path fill="none" stroke="midnightblue" d="M2052.78,-356.15C2218.27,-325.19 2265.83,-351.52 2426.5,-320 2429.37,-319.44 2432.29,-318.82 2435.22,-318.15"/>
<polygon fill="midnightblue" stroke="midnightblue" points="2051.91,-352.75 2042.74,-358.07 2053.22,-359.62 2051.91,-352.75"/>
</g>
</g>
</svg>
