<?xml version="1.0" encoding="UTF-8" standalone="no"?>
<!DOCTYPE svg PUBLIC "-//W3C//DTD SVG 1.1//EN"
 "http://www.w3.org/Graphics/SVG/1.1/DTD/svg11.dtd">
<!-- Generated by graphviz version 2.43.0 (0)
 -->
<!-- Title: /home/runner/work/diffblue&#45;cbmc/diffblue&#45;cbmc/src/solvers/smt2/smt2_conv.h Pages: 1 -->
<svg width="2596pt" height="584pt"
 viewBox="0.00 0.00 2595.50 584.00" xmlns="http://www.w3.org/2000/svg" xmlns:xlink="http://www.w3.org/1999/xlink">
<g id="graph0" class="graph" transform="scale(1 1) rotate(0) translate(4 580)">
<title>/home/runner/work/diffblue&#45;cbmc/diffblue&#45;cbmc/src/solvers/smt2/smt2_conv.h</title>
<!-- Node1 -->
<g id="node1" class="node">
<title>Node1</title>
<g id="a_node1"><a xlink:title=" ">
<polygon fill="#bfbfbf" stroke="black" points="1475,-534.5 1475,-575.5 1624,-575.5 1624,-534.5 1475,-534.5"/>
<text text-anchor="start" x="1483" y="-563.5" font-family="Helvetica,sans-Serif" font-size="10.00">/home/runner/work/diffblue</text>
<text text-anchor="start" x="1483" y="-552.5" font-family="Helvetica,sans-Serif" font-size="10.00">&#45;cbmc/diffblue&#45;cbmc/src</text>
<text text-anchor="middle" x="1549.5" y="-541.5" font-family="Helvetica,sans-Serif" font-size="10.00">/solvers/smt2/smt2_conv.h</text>
</a>
</g>
</g>
<!-- Node2 -->
<g id="node2" class="node">
<title>Node2</title>
<g id="a_node2"><a xlink:href="state__encoding__targets_8h.html" target="_top" xlink:title=" ">
<polygon fill="none" stroke="black" points="972.5,-451 972.5,-492 1154.5,-492 1154.5,-451 972.5,-451"/>
<text text-anchor="start" x="980.5" y="-480" font-family="Helvetica,sans-Serif" font-size="10.00">/home/runner/work/diffblue</text>
<text text-anchor="start" x="980.5" y="-469" font-family="Helvetica,sans-Serif" font-size="10.00">&#45;cbmc/diffblue&#45;cbmc/src</text>
<text text-anchor="middle" x="1063.5" y="-458" font-family="Helvetica,sans-Serif" font-size="10.00">/cprover/state_encoding_targets.h</text>
</a>
</g>
</g>
<!-- Node1&#45;&gt;Node2 -->
<g id="edge1" class="edge">
<title>Node1&#45;&gt;Node2</title>
<path fill="none" stroke="midnightblue" d="M1464.82,-539.8C1378.1,-525.26 1243.75,-502.73 1154.72,-487.8"/>
<polygon fill="midnightblue" stroke="midnightblue" points="1464.45,-543.29 1474.89,-541.49 1465.61,-536.38 1464.45,-543.29"/>
</g>
<!-- Node5 -->
<g id="node5" class="node">
<title>Node5</title>
<g id="a_node5"><a xlink:href="horn__encoding_8cpp.html" target="_top" xlink:title="Horn&#45;clause Encoding.">
<polygon fill="none" stroke="black" points="1259,-451 1259,-492 1452,-492 1452,-451 1259,-451"/>
<text text-anchor="start" x="1267" y="-480" font-family="Helvetica,sans-Serif" font-size="10.00">/home/runner/work/diffblue</text>
<text text-anchor="start" x="1267" y="-469" font-family="Helvetica,sans-Serif" font-size="10.00">&#45;cbmc/diffblue&#45;cbmc/src</text>
<text text-anchor="middle" x="1355.5" y="-458" font-family="Helvetica,sans-Serif" font-size="10.00">/goto&#45;instrument/horn_encoding.cpp</text>
</a>
</g>
</g>
<!-- Node1&#45;&gt;Node5 -->
<g id="edge4" class="edge">
<title>Node1&#45;&gt;Node5</title>
<path fill="none" stroke="midnightblue" d="M1493.44,-530.45C1464.42,-518.26 1429.41,-503.55 1401.92,-492"/>
<polygon fill="midnightblue" stroke="midnightblue" points="1492.46,-533.83 1503.03,-534.48 1495.17,-527.38 1492.46,-533.83"/>
</g>
<!-- Node6 -->
<g id="node6" class="node">
<title>Node6</title>
<g id="a_node6"><a xlink:href="smt2__conv_8cpp.html" target="_top" xlink:title="SMT Backend.">
<polygon fill="none" stroke="black" points="1470.5,-451 1470.5,-492 1628.5,-492 1628.5,-451 1470.5,-451"/>
<text text-anchor="start" x="1478.5" y="-480" font-family="Helvetica,sans-Serif" font-size="10.00">/home/runner/work/diffblue</text>
<text text-anchor="start" x="1478.5" y="-469" font-family="Helvetica,sans-Serif" font-size="10.00">&#45;cbmc/diffblue&#45;cbmc/src</text>
<text text-anchor="middle" x="1549.5" y="-458" font-family="Helvetica,sans-Serif" font-size="10.00">/solvers/smt2/smt2_conv.cpp</text>
</a>
</g>
</g>
<!-- Node1&#45;&gt;Node6 -->
<g id="edge5" class="edge">
<title>Node1&#45;&gt;Node6</title>
<path fill="none" stroke="midnightblue" d="M1549.5,-524.06C1549.5,-513.38 1549.5,-501.63 1549.5,-492.05"/>
<polygon fill="midnightblue" stroke="midnightblue" points="1546,-524.27 1549.5,-534.27 1553,-524.27 1546,-524.27"/>
</g>
<!-- Node7 -->
<g id="node7" class="node">
<title>Node7</title>
<g id="a_node7"><a xlink:href="smt2__dec_8h.html" target="_top" xlink:title=" ">
<polygon fill="none" stroke="black" points="1646,-451 1646,-492 1795,-492 1795,-451 1646,-451"/>
<text text-anchor="start" x="1654" y="-480" font-family="Helvetica,sans-Serif" font-size="10.00">/home/runner/work/diffblue</text>
<text text-anchor="start" x="1654" y="-469" font-family="Helvetica,sans-Serif" font-size="10.00">&#45;cbmc/diffblue&#45;cbmc/src</text>
<text text-anchor="middle" x="1720.5" y="-458" font-family="Helvetica,sans-Serif" font-size="10.00">/solvers/smt2/smt2_dec.h</text>
</a>
</g>
</g>
<!-- Node1&#45;&gt;Node7 -->
<g id="edge6" class="edge">
<title>Node1&#45;&gt;Node7</title>
<path fill="none" stroke="midnightblue" d="M1599.58,-530.13C1625.03,-518 1655.56,-503.45 1679.58,-492"/>
<polygon fill="midnightblue" stroke="midnightblue" points="1597.98,-527.02 1590.46,-534.48 1600.99,-533.34 1597.98,-527.02"/>
</g>
<!-- Node40 -->
<g id="node40" class="node">
<title>Node40</title>
<g id="a_node40"><a xlink:href="smt__to__smt2__string_8cpp.html" target="_top" xlink:title=" ">
<polygon fill="none" stroke="black" points="1813,-445.5 1813,-497.5 1962,-497.5 1962,-445.5 1813,-445.5"/>
<text text-anchor="start" x="1821" y="-485.5" font-family="Helvetica,sans-Serif" font-size="10.00">/home/runner/work/diffblue</text>
<text text-anchor="start" x="1821" y="-474.5" font-family="Helvetica,sans-Serif" font-size="10.00">&#45;cbmc/diffblue&#45;cbmc/src</text>
<text text-anchor="start" x="1821" y="-463.5" font-family="Helvetica,sans-Serif" font-size="10.00">/solvers/smt2_incremental</text>
<text text-anchor="middle" x="1887.5" y="-452.5" font-family="Helvetica,sans-Serif" font-size="10.00">/smt_to_smt2_string.cpp</text>
</a>
</g>
</g>
<!-- Node1&#45;&gt;Node40 -->
<g id="edge42" class="edge">
<title>Node1&#45;&gt;Node40</title>
<path fill="none" stroke="midnightblue" d="M1634.09,-537.07C1683.68,-526.72 1747.41,-512.67 1803.5,-498 1806.6,-497.19 1809.75,-496.34 1812.93,-495.47"/>
<polygon fill="midnightblue" stroke="midnightblue" points="1633.13,-533.69 1624.05,-539.16 1634.56,-540.55 1633.13,-533.69"/>
</g>
<!-- Node3 -->
<g id="node3" class="node">
<title>Node3</title>
<g id="a_node3"><a xlink:href="state__encoding_8cpp.html" target="_top" xlink:title=" ">
<polygon fill="none" stroke="black" points="794.5,-362 794.5,-403 948.5,-403 948.5,-362 794.5,-362"/>
<text text-anchor="start" x="802.5" y="-391" font-family="Helvetica,sans-Serif" font-size="10.00">/home/runner/work/diffblue</text>
<text text-anchor="start" x="802.5" y="-380" font-family="Helvetica,sans-Serif" font-size="10.00">&#45;cbmc/diffblue&#45;cbmc/src</text>
<text text-anchor="middle" x="871.5" y="-369" font-family="Helvetica,sans-Serif" font-size="10.00">/cprover/state_encoding.cpp</text>
</a>
</g>
</g>
<!-- Node2&#45;&gt;Node3 -->
<g id="edge2" class="edge">
<title>Node2&#45;&gt;Node3</title>
<path fill="none" stroke="midnightblue" d="M1011.28,-446.84C981.02,-433.12 943.37,-416.07 914.78,-403.11"/>
<polygon fill="midnightblue" stroke="midnightblue" points="1009.86,-450.04 1020.41,-450.98 1012.75,-443.66 1009.86,-450.04"/>
</g>
<!-- Node4 -->
<g id="node4" class="node">
<title>Node4</title>
<g id="a_node4"><a xlink:href="state__encoding__targets_8cpp.html" target="_top" xlink:title=" ">
<polygon fill="none" stroke="black" points="966.5,-362 966.5,-403 1160.5,-403 1160.5,-362 966.5,-362"/>
<text text-anchor="start" x="974.5" y="-391" font-family="Helvetica,sans-Serif" font-size="10.00">/home/runner/work/diffblue</text>
<text text-anchor="start" x="974.5" y="-380" font-family="Helvetica,sans-Serif" font-size="10.00">&#45;cbmc/diffblue&#45;cbmc/src</text>
<text text-anchor="middle" x="1063.5" y="-369" font-family="Helvetica,sans-Serif" font-size="10.00">/cprover/state_encoding_targets.cpp</text>
</a>
</g>
</g>
<!-- Node2&#45;&gt;Node4 -->
<g id="edge3" class="edge">
<title>Node2&#45;&gt;Node4</title>
<path fill="none" stroke="midnightblue" d="M1063.5,-440.44C1063.5,-428.1 1063.5,-414.16 1063.5,-403.16"/>
<polygon fill="midnightblue" stroke="midnightblue" points="1060,-440.76 1063.5,-450.76 1067,-440.76 1060,-440.76"/>
</g>
<!-- Node8 -->
<g id="node8" class="node">
<title>Node8</title>
<g id="a_node8"><a xlink:href="solver__factory_8h.html" target="_top" xlink:title="Solver Factory.">
<polygon fill="none" stroke="black" points="1179,-362 1179,-403 1342,-403 1342,-362 1179,-362"/>
<text text-anchor="start" x="1187" y="-391" font-family="Helvetica,sans-Serif" font-size="10.00">/home/runner/work/diffblue</text>
<text text-anchor="start" x="1187" y="-380" font-family="Helvetica,sans-Serif" font-size="10.00">&#45;cbmc/diffblue&#45;cbmc/src</text>
<text text-anchor="middle" x="1260.5" y="-369" font-family="Helvetica,sans-Serif" font-size="10.00">/goto&#45;checker/solver_factory.h</text>
</a>
</g>
</g>
<!-- Node7&#45;&gt;Node8 -->
<g id="edge7" class="edge">
<title>Node7&#45;&gt;Node8</title>
<path fill="none" stroke="midnightblue" d="M1650.1,-448.15C1645.85,-447.03 1641.63,-445.97 1637.5,-445 1536.77,-421.43 1418.81,-403.75 1342.02,-393.53"/>
<polygon fill="midnightblue" stroke="midnightblue" points="1649.45,-451.6 1660.02,-450.87 1651.3,-444.85 1649.45,-451.6"/>
</g>
<!-- Node32 -->
<g id="node32" class="node">
<title>Node32</title>
<g id="a_node32"><a xlink:href="scratch__program_8h.html" target="_top" xlink:title="Loop Acceleration.">
<polygon fill="none" stroke="black" points="1788.5,-356.5 1788.5,-408.5 1940.5,-408.5 1940.5,-356.5 1788.5,-356.5"/>
<text text-anchor="start" x="1796.5" y="-396.5" font-family="Helvetica,sans-Serif" font-size="10.00">/home/runner/work/diffblue</text>
<text text-anchor="start" x="1796.5" y="-385.5" font-family="Helvetica,sans-Serif" font-size="10.00">&#45;cbmc/diffblue&#45;cbmc/src</text>
<text text-anchor="start" x="1796.5" y="-374.5" font-family="Helvetica,sans-Serif" font-size="10.00">/goto&#45;instrument/accelerate</text>
<text text-anchor="middle" x="1864.5" y="-363.5" font-family="Helvetica,sans-Serif" font-size="10.00">/scratch_program.h</text>
</a>
</g>
</g>
<!-- Node7&#45;&gt;Node32 -->
<g id="edge34" class="edge">
<title>Node7&#45;&gt;Node32</title>
<path fill="none" stroke="midnightblue" d="M1761.39,-445.8C1780.66,-434.15 1803.62,-420.28 1822.98,-408.58"/>
<polygon fill="midnightblue" stroke="midnightblue" points="1759.57,-442.81 1752.82,-450.98 1763.19,-448.8 1759.57,-442.81"/>
</g>
<!-- Node39 -->
<g id="node39" class="node">
<title>Node39</title>
<g id="a_node39"><a xlink:href="smt2__dec_8cpp.html" target="_top" xlink:title=" ">
<polygon fill="none" stroke="black" points="1959,-362 1959,-403 2112,-403 2112,-362 1959,-362"/>
<text text-anchor="start" x="1967" y="-391" font-family="Helvetica,sans-Serif" font-size="10.00">/home/runner/work/diffblue</text>
<text text-anchor="start" x="1967" y="-380" font-family="Helvetica,sans-Serif" font-size="10.00">&#45;cbmc/diffblue&#45;cbmc/src</text>
<text text-anchor="middle" x="2035.5" y="-369" font-family="Helvetica,sans-Serif" font-size="10.00">/solvers/smt2/smt2_dec.cpp</text>
</a>
</g>
</g>
<!-- Node7&#45;&gt;Node39 -->
<g id="edge41" class="edge">
<title>Node7&#45;&gt;Node39</title>
<path fill="none" stroke="midnightblue" d="M1793.54,-448.08C1797.24,-447.02 1800.91,-445.99 1804.5,-445 1868.51,-427.35 1885.43,-426.44 1949.5,-409 1956.41,-407.12 1963.62,-405.09 1970.79,-403.03"/>
<polygon fill="midnightblue" stroke="midnightblue" points="1792.32,-444.79 1783.69,-450.94 1794.27,-451.51 1792.32,-444.79"/>
</g>
<!-- Node9 -->
<g id="node9" class="node">
<title>Node9</title>
<g id="a_node9"><a xlink:href="goto__symex__property__decider_8h.html" target="_top" xlink:title="Property Decider for Goto&#45;Symex.">
<polygon fill="none" stroke="black" points="681,-267.5 681,-319.5 830,-319.5 830,-267.5 681,-267.5"/>
<text text-anchor="start" x="689" y="-307.5" font-family="Helvetica,sans-Serif" font-size="10.00">/home/runner/work/diffblue</text>
<text text-anchor="start" x="689" y="-296.5" font-family="Helvetica,sans-Serif" font-size="10.00">&#45;cbmc/diffblue&#45;cbmc/src</text>
<text text-anchor="start" x="689" y="-285.5" font-family="Helvetica,sans-Serif" font-size="10.00">/goto&#45;checker/goto_symex</text>
<text text-anchor="middle" x="755.5" y="-274.5" font-family="Helvetica,sans-Serif" font-size="10.00">_property_decider.h</text>
</a>
</g>
</g>
<!-- Node8&#45;&gt;Node9 -->
<g id="edge8" class="edge">
<title>Node8&#45;&gt;Node9</title>
<path fill="none" stroke="midnightblue" d="M1184.75,-359.49C1179.61,-358.23 1174.49,-357.06 1169.5,-356 1060.98,-332.99 1032.22,-336.37 922.5,-320 892.33,-315.5 859.11,-310.45 830.3,-306.03"/>
<polygon fill="midnightblue" stroke="midnightblue" points="1184.09,-362.93 1194.64,-361.97 1185.8,-356.14 1184.09,-362.93"/>
</g>
<!-- Node26 -->
<g id="node26" class="node">
<title>Node26</title>
<g id="a_node26"><a xlink:href="solver__factory_8cpp.html" target="_top" xlink:title="Solver Factory.">
<polygon fill="none" stroke="black" points="931.5,-273 931.5,-314 1105.5,-314 1105.5,-273 931.5,-273"/>
<text text-anchor="start" x="939.5" y="-302" font-family="Helvetica,sans-Serif" font-size="10.00">/home/runner/work/diffblue</text>
<text text-anchor="start" x="939.5" y="-291" font-family="Helvetica,sans-Serif" font-size="10.00">&#45;cbmc/diffblue&#45;cbmc/src</text>
<text text-anchor="middle" x="1018.5" y="-280" font-family="Helvetica,sans-Serif" font-size="10.00">/goto&#45;checker/solver_factory.cpp</text>
</a>
</g>
</g>
<!-- Node8&#45;&gt;Node26 -->
<g id="edge28" class="edge">
<title>Node8&#45;&gt;Node26</title>
<path fill="none" stroke="midnightblue" d="M1196.64,-358.54C1158.18,-344.71 1109.71,-327.29 1073.05,-314.11"/>
<polygon fill="midnightblue" stroke="midnightblue" points="1195.6,-361.89 1206.19,-361.98 1197.96,-355.3 1195.6,-361.89"/>
</g>
<!-- Node27 -->
<g id="node27" class="node">
<title>Node27</title>
<g id="a_node27"><a xlink:href="goto__synthesizer__parse__options_8h.html" target="_top" xlink:title="Command Line Parsing.">
<polygon fill="none" stroke="black" points="1123.5,-267.5 1123.5,-319.5 1311.5,-319.5 1311.5,-267.5 1123.5,-267.5"/>
<text text-anchor="start" x="1131.5" y="-307.5" font-family="Helvetica,sans-Serif" font-size="10.00">/home/runner/work/diffblue</text>
<text text-anchor="start" x="1131.5" y="-296.5" font-family="Helvetica,sans-Serif" font-size="10.00">&#45;cbmc/diffblue&#45;cbmc/src</text>
<text text-anchor="start" x="1131.5" y="-285.5" font-family="Helvetica,sans-Serif" font-size="10.00">/goto&#45;synthesizer/goto_synthesizer</text>
<text text-anchor="middle" x="1217.5" y="-274.5" font-family="Helvetica,sans-Serif" font-size="10.00">_parse_options.h</text>
</a>
</g>
</g>
<!-- Node8&#45;&gt;Node27 -->
<g id="edge29" class="edge">
<title>Node8&#45;&gt;Node27</title>
<path fill="none" stroke="midnightblue" d="M1246.16,-352.48C1240.93,-341.9 1235.06,-330.02 1230,-319.79"/>
<polygon fill="midnightblue" stroke="midnightblue" points="1243.17,-354.34 1250.74,-361.76 1249.45,-351.24 1243.17,-354.34"/>
</g>
<!-- Node31 -->
<g id="node31" class="node">
<title>Node31</title>
<g id="a_node31"><a xlink:href="api__options_8cpp.html" target="_top" xlink:title=" ">
<polygon fill="none" stroke="black" points="1330,-273 1330,-314 1499,-314 1499,-273 1330,-273"/>
<text text-anchor="start" x="1338" y="-302" font-family="Helvetica,sans-Serif" font-size="10.00">/home/runner/work/diffblue</text>
<text text-anchor="start" x="1338" y="-291" font-family="Helvetica,sans-Serif" font-size="10.00">&#45;cbmc/diffblue&#45;cbmc/src</text>
<text text-anchor="middle" x="1414.5" y="-280" font-family="Helvetica,sans-Serif" font-size="10.00">/libcprover&#45;cpp/api_options.cpp</text>
</a>
</g>
</g>
<!-- Node8&#45;&gt;Node31 -->
<g id="edge33" class="edge">
<title>Node8&#45;&gt;Node31</title>
<path fill="none" stroke="midnightblue" d="M1303.97,-356.94C1327.96,-343.39 1357.35,-326.79 1379.79,-314.11"/>
<polygon fill="midnightblue" stroke="midnightblue" points="1302.05,-354.01 1295.06,-361.98 1305.49,-360.1 1302.05,-354.01"/>
</g>
<!-- Node10 -->
<g id="node10" class="node">
<title>Node10</title>
<g id="a_node10"><a xlink:href="bmc__util_8cpp.html" target="_top" xlink:title="Bounded Model Checking Utilities.">
<polygon fill="none" stroke="black" points="215,-184 215,-225 364,-225 364,-184 215,-184"/>
<text text-anchor="start" x="223" y="-213" font-family="Helvetica,sans-Serif" font-size="10.00">/home/runner/work/diffblue</text>
<text text-anchor="start" x="223" y="-202" font-family="Helvetica,sans-Serif" font-size="10.00">&#45;cbmc/diffblue&#45;cbmc/src</text>
<text text-anchor="middle" x="289.5" y="-191" font-family="Helvetica,sans-Serif" font-size="10.00">/goto&#45;checker/bmc_util.cpp</text>
</a>
</g>
</g>
<!-- Node9&#45;&gt;Node10 -->
<g id="edge9" class="edge">
<title>Node9&#45;&gt;Node10</title>
<path fill="none" stroke="midnightblue" d="M670.5,-282.3C592.45,-272.11 473.88,-254.59 372.5,-231 365.01,-229.26 357.21,-227.2 349.53,-225.01"/>
<polygon fill="midnightblue" stroke="midnightblue" points="670.4,-285.81 680.77,-283.62 671.3,-278.87 670.4,-285.81"/>
</g>
<!-- Node11 -->
<g id="node11" class="node">
<title>Node11</title>
<g id="a_node11"><a xlink:href="goto__symex__property__decider_8cpp.html" target="_top" xlink:title="Property Decider for Goto&#45;Symex.">
<polygon fill="none" stroke="black" points="382,-178.5 382,-230.5 531,-230.5 531,-178.5 382,-178.5"/>
<text text-anchor="start" x="390" y="-218.5" font-family="Helvetica,sans-Serif" font-size="10.00">/home/runner/work/diffblue</text>
<text text-anchor="start" x="390" y="-207.5" font-family="Helvetica,sans-Serif" font-size="10.00">&#45;cbmc/diffblue&#45;cbmc/src</text>
<text text-anchor="start" x="390" y="-196.5" font-family="Helvetica,sans-Serif" font-size="10.00">/goto&#45;checker/goto_symex</text>
<text text-anchor="middle" x="456.5" y="-185.5" font-family="Helvetica,sans-Serif" font-size="10.00">_property_decider.cpp</text>
</a>
</g>
</g>
<!-- Node9&#45;&gt;Node11 -->
<g id="edge10" class="edge">
<title>Node9&#45;&gt;Node11</title>
<path fill="none" stroke="midnightblue" d="M671.21,-268.94C631.24,-257.65 582.85,-243.83 539.5,-231 536.75,-230.19 533.96,-229.35 531.13,-228.51"/>
<polygon fill="midnightblue" stroke="midnightblue" points="670.34,-272.33 680.92,-271.67 672.24,-265.59 670.34,-272.33"/>
</g>
<!-- Node12 -->
<g id="node12" class="node">
<title>Node12</title>
<g id="a_node12"><a xlink:href="multi__path__symex__checker_8h.html" target="_top" xlink:title="Goto Checker using Multi&#45;Path Symbolic Execution.">
<polygon fill="none" stroke="black" points="549,-178.5 549,-230.5 698,-230.5 698,-178.5 549,-178.5"/>
<text text-anchor="start" x="557" y="-218.5" font-family="Helvetica,sans-Serif" font-size="10.00">/home/runner/work/diffblue</text>
<text text-anchor="start" x="557" y="-207.5" font-family="Helvetica,sans-Serif" font-size="10.00">&#45;cbmc/diffblue&#45;cbmc/src</text>
<text text-anchor="start" x="557" y="-196.5" font-family="Helvetica,sans-Serif" font-size="10.00">/goto&#45;checker/multi_path</text>
<text text-anchor="middle" x="623.5" y="-185.5" font-family="Helvetica,sans-Serif" font-size="10.00">_symex_checker.h</text>
</a>
</g>
</g>
<!-- Node9&#45;&gt;Node12 -->
<g id="edge11" class="edge">
<title>Node9&#45;&gt;Node12</title>
<path fill="none" stroke="midnightblue" d="M708.9,-261.79C693.41,-251.58 676.36,-240.34 661.59,-230.61"/>
<polygon fill="midnightblue" stroke="midnightblue" points="707.04,-264.76 717.32,-267.34 710.9,-258.91 707.04,-264.76"/>
</g>
<!-- Node20 -->
<g id="node20" class="node">
<title>Node20</title>
<g id="a_node20"><a xlink:href="single__loop__incremental__symex__checker_8h.html" target="_top" xlink:title="Goto Checker using multi&#45;path symbolic execution with incremental unwinding of a specified loop.">
<polygon fill="none" stroke="black" points="719.5,-178.5 719.5,-230.5 889.5,-230.5 889.5,-178.5 719.5,-178.5"/>
<text text-anchor="start" x="727.5" y="-218.5" font-family="Helvetica,sans-Serif" font-size="10.00">/home/runner/work/diffblue</text>
<text text-anchor="start" x="727.5" y="-207.5" font-family="Helvetica,sans-Serif" font-size="10.00">&#45;cbmc/diffblue&#45;cbmc/src</text>
<text text-anchor="start" x="727.5" y="-196.5" font-family="Helvetica,sans-Serif" font-size="10.00">/goto&#45;checker/single_loop</text>
<text text-anchor="middle" x="804.5" y="-185.5" font-family="Helvetica,sans-Serif" font-size="10.00">_incremental_symex_checker.h</text>
</a>
</g>
</g>
<!-- Node9&#45;&gt;Node20 -->
<g id="edge19" class="edge">
<title>Node9&#45;&gt;Node20</title>
<path fill="none" stroke="midnightblue" d="M774.73,-258.35C779.94,-249.1 785.49,-239.26 790.36,-230.61"/>
<polygon fill="midnightblue" stroke="midnightblue" points="771.53,-256.91 769.67,-267.34 777.63,-260.34 771.53,-256.91"/>
</g>
<!-- Node22 -->
<g id="node22" class="node">
<title>Node22</title>
<g id="a_node22"><a xlink:href="single__path__symex__checker_8h.html" target="_top" xlink:title="Goto Checker using Single Path Symbolic Execution.">
<polygon fill="none" stroke="black" points="908,-178.5 908,-230.5 1057,-230.5 1057,-178.5 908,-178.5"/>
<text text-anchor="start" x="916" y="-218.5" font-family="Helvetica,sans-Serif" font-size="10.00">/home/runner/work/diffblue</text>
<text text-anchor="start" x="916" y="-207.5" font-family="Helvetica,sans-Serif" font-size="10.00">&#45;cbmc/diffblue&#45;cbmc/src</text>
<text text-anchor="start" x="916" y="-196.5" font-family="Helvetica,sans-Serif" font-size="10.00">/goto&#45;checker/single_path</text>
<text text-anchor="middle" x="982.5" y="-185.5" font-family="Helvetica,sans-Serif" font-size="10.00">_symex_checker.h</text>
</a>
</g>
</g>
<!-- Node9&#45;&gt;Node22 -->
<g id="edge22" class="edge">
<title>Node9&#45;&gt;Node22</title>
<path fill="none" stroke="midnightblue" d="M830.23,-263.86C858.33,-253.09 890.04,-240.94 917.22,-230.52"/>
<polygon fill="midnightblue" stroke="midnightblue" points="828.94,-260.61 820.85,-267.45 831.44,-267.14 828.94,-260.61"/>
</g>
<!-- Node13 -->
<g id="node13" class="node">
<title>Node13</title>
<g id="a_node13"><a xlink:href="cbmc__parse__options_8cpp.html" target="_top" xlink:title="CBMC Command Line Option Processing.">
<polygon fill="none" stroke="black" points="722,-95 722,-136 891,-136 891,-95 722,-95"/>
<text text-anchor="start" x="730" y="-124" font-family="Helvetica,sans-Serif" font-size="10.00">/home/runner/work/diffblue</text>
<text text-anchor="start" x="730" y="-113" font-family="Helvetica,sans-Serif" font-size="10.00">&#45;cbmc/diffblue&#45;cbmc/src</text>
<text text-anchor="middle" x="806.5" y="-102" font-family="Helvetica,sans-Serif" font-size="10.00">/cbmc/cbmc_parse_options.cpp</text>
</a>
</g>
</g>
<!-- Node12&#45;&gt;Node13 -->
<g id="edge12" class="edge">
<title>Node12&#45;&gt;Node13</title>
<path fill="none" stroke="midnightblue" d="M685.57,-173.99C711.87,-161.49 741.8,-147.26 765.31,-136.08"/>
<polygon fill="midnightblue" stroke="midnightblue" points="683.96,-170.88 676.43,-178.34 686.97,-177.2 683.96,-170.88"/>
</g>
<!-- Node14 -->
<g id="node14" class="node">
<title>Node14</title>
<g id="a_node14"><a xlink:href="multi__path__symex__checker_8cpp.html" target="_top" xlink:title="Goto Checker using Bounded Model Checking.">
<polygon fill="none" stroke="black" points="0,-89.5 0,-141.5 149,-141.5 149,-89.5 0,-89.5"/>
<text text-anchor="start" x="8" y="-129.5" font-family="Helvetica,sans-Serif" font-size="10.00">/home/runner/work/diffblue</text>
<text text-anchor="start" x="8" y="-118.5" font-family="Helvetica,sans-Serif" font-size="10.00">&#45;cbmc/diffblue&#45;cbmc/src</text>
<text text-anchor="start" x="8" y="-107.5" font-family="Helvetica,sans-Serif" font-size="10.00">/goto&#45;checker/multi_path</text>
<text text-anchor="middle" x="74.5" y="-96.5" font-family="Helvetica,sans-Serif" font-size="10.00">_symex_checker.cpp</text>
</a>
</g>
</g>
<!-- Node12&#45;&gt;Node14 -->
<g id="edge13" class="edge">
<title>Node12&#45;&gt;Node14</title>
<path fill="none" stroke="midnightblue" d="M538.64,-178.02C370.33,-146.19 321.58,-174.58 157.5,-142 154.84,-141.47 152.14,-140.89 149.43,-140.27"/>
<polygon fill="midnightblue" stroke="midnightblue" points="538.1,-181.48 548.58,-179.94 539.43,-174.61 538.1,-181.48"/>
</g>
<!-- Node15 -->
<g id="node15" class="node">
<title>Node15</title>
<g id="a_node15"><a xlink:href="cegis__verifier_8cpp.html" target="_top" xlink:title="Verifier for Counterexample&#45;Guided Synthesis.">
<polygon fill="none" stroke="black" points="167,-95 167,-136 356,-136 356,-95 167,-95"/>
<text text-anchor="start" x="175" y="-124" font-family="Helvetica,sans-Serif" font-size="10.00">/home/runner/work/diffblue</text>
<text text-anchor="start" x="175" y="-113" font-family="Helvetica,sans-Serif" font-size="10.00">&#45;cbmc/diffblue&#45;cbmc/src</text>
<text text-anchor="middle" x="261.5" y="-102" font-family="Helvetica,sans-Serif" font-size="10.00">/goto&#45;synthesizer/cegis_verifier.cpp</text>
</a>
</g>
</g>
<!-- Node12&#45;&gt;Node15 -->
<g id="edge14" class="edge">
<title>Node12&#45;&gt;Node15</title>
<path fill="none" stroke="midnightblue" d="M539.11,-178C460.84,-158.5 438.92,-158.86 364.5,-142 356.24,-140.13 347.62,-138.1 339.03,-136.05"/>
<polygon fill="midnightblue" stroke="midnightblue" points="538.39,-181.43 548.94,-180.48 540.1,-174.64 538.39,-181.43"/>
</g>
<!-- Node16 -->
<g id="node16" class="node">
<title>Node16</title>
<g id="a_node16"><a xlink:href="api_8cpp.html" target="_top" xlink:title=" ">
<polygon fill="none" stroke="black" points="374,-95 374,-136 523,-136 523,-95 374,-95"/>
<text text-anchor="start" x="382" y="-124" font-family="Helvetica,sans-Serif" font-size="10.00">/home/runner/work/diffblue</text>
<text text-anchor="start" x="382" y="-113" font-family="Helvetica,sans-Serif" font-size="10.00">&#45;cbmc/diffblue&#45;cbmc/src</text>
<text text-anchor="middle" x="448.5" y="-102" font-family="Helvetica,sans-Serif" font-size="10.00">/libcprover&#45;cpp/api.cpp</text>
</a>
</g>
</g>
<!-- Node12&#45;&gt;Node16 -->
<g id="edge15" class="edge">
<title>Node12&#45;&gt;Node16</title>
<path fill="none" stroke="midnightblue" d="M563.82,-173.83C538.74,-161.36 510.27,-147.21 487.89,-136.08"/>
<polygon fill="midnightblue" stroke="midnightblue" points="562.37,-177.02 572.88,-178.34 565.49,-170.75 562.37,-177.02"/>
</g>
<!-- Node17 -->
<g id="node17" class="node">
<title>Node17</title>
<g id="a_node17"><a xlink:href="java__multi__path__symex__checker_8h.html" target="_top" xlink:title="Goto Checker using Bounded Model Checking for Java.">
<polygon fill="none" stroke="black" points="541,-89.5 541,-141.5 704,-141.5 704,-89.5 541,-89.5"/>
<text text-anchor="start" x="549" y="-129.5" font-family="Helvetica,sans-Serif" font-size="10.00">/home/runner/work/diffblue</text>
<text text-anchor="start" x="549" y="-118.5" font-family="Helvetica,sans-Serif" font-size="10.00">&#45;cbmc/diffblue&#45;cbmc/jbmc</text>
<text text-anchor="start" x="549" y="-107.5" font-family="Helvetica,sans-Serif" font-size="10.00">/src/java_bytecode/java_multi</text>
<text text-anchor="middle" x="622.5" y="-96.5" font-family="Helvetica,sans-Serif" font-size="10.00">_path_symex_checker.h</text>
</a>
</g>
</g>
<!-- Node12&#45;&gt;Node17 -->
<g id="edge16" class="edge">
<title>Node12&#45;&gt;Node17</title>
<path fill="none" stroke="midnightblue" d="M623.09,-168.19C622.99,-159.28 622.88,-149.9 622.79,-141.61"/>
<polygon fill="midnightblue" stroke="midnightblue" points="619.6,-168.38 623.21,-178.34 626.6,-168.3 619.6,-168.38"/>
</g>
<!-- Node18 -->
<g id="node18" class="node">
<title>Node18</title>
<g id="a_node18"><a xlink:href="java__multi__path__symex__checker_8cpp.html" target="_top" xlink:title=" ">
<polygon fill="none" stroke="black" points="541,-0.5 541,-52.5 704,-52.5 704,-0.5 541,-0.5"/>
<text text-anchor="start" x="549" y="-40.5" font-family="Helvetica,sans-Serif" font-size="10.00">/home/runner/work/diffblue</text>
<text text-anchor="start" x="549" y="-29.5" font-family="Helvetica,sans-Serif" font-size="10.00">&#45;cbmc/diffblue&#45;cbmc/jbmc</text>
<text text-anchor="start" x="549" y="-18.5" font-family="Helvetica,sans-Serif" font-size="10.00">/src/java_bytecode/java_multi</text>
<text text-anchor="middle" x="622.5" y="-7.5" font-family="Helvetica,sans-Serif" font-size="10.00">_path_symex_checker.cpp</text>
</a>
</g>
</g>
<!-- Node17&#45;&gt;Node18 -->
<g id="edge17" class="edge">
<title>Node17&#45;&gt;Node18</title>
<path fill="none" stroke="midnightblue" d="M622.5,-79.19C622.5,-70.28 622.5,-60.9 622.5,-52.61"/>
<polygon fill="midnightblue" stroke="midnightblue" points="619,-79.34 622.5,-89.34 626,-79.34 619,-79.34"/>
</g>
<!-- Node19 -->
<g id="node19" class="node">
<title>Node19</title>
<g id="a_node19"><a xlink:href="jbmc__parse__options_8cpp.html" target="_top" xlink:title="JBMC Command Line Option Processing.">
<polygon fill="none" stroke="black" points="898.5,-6 898.5,-47 1080.5,-47 1080.5,-6 898.5,-6"/>
<text text-anchor="start" x="906.5" y="-35" font-family="Helvetica,sans-Serif" font-size="10.00">/home/runner/work/diffblue</text>
<text text-anchor="start" x="906.5" y="-24" font-family="Helvetica,sans-Serif" font-size="10.00">&#45;cbmc/diffblue&#45;cbmc/jbmc</text>
<text text-anchor="middle" x="989.5" y="-13" font-family="Helvetica,sans-Serif" font-size="10.00">/src/jbmc/jbmc_parse_options.cpp</text>
</a>
</g>
</g>
<!-- Node17&#45;&gt;Node19 -->
<g id="edge18" class="edge">
<title>Node17&#45;&gt;Node19</title>
<path fill="none" stroke="midnightblue" d="M714.19,-88.62C780.76,-71.97 846.78,-57.35 898.43,-46.34"/>
<polygon fill="midnightblue" stroke="midnightblue" points="713.21,-85.26 704.36,-91.09 714.91,-92.04 713.21,-85.26"/>
</g>
<!-- Node20&#45;&gt;Node13 -->
<g id="edge20" class="edge">
<title>Node20&#45;&gt;Node13</title>
<path fill="none" stroke="midnightblue" d="M805.31,-168.16C805.56,-157.21 805.83,-145.55 806.05,-136.08"/>
<polygon fill="midnightblue" stroke="midnightblue" points="801.81,-168.26 805.08,-178.34 808.81,-168.42 801.81,-168.26"/>
</g>
<!-- Node21 -->
<g id="node21" class="node">
<title>Node21</title>
<g id="a_node21"><a xlink:href="single__loop__incremental__symex__checker_8cpp.html" target="_top" xlink:title="Goto Checker using multi&#45;path symbolic execution with incremental unwinding of a specified loop.">
<polygon fill="none" stroke="black" points="909,-89.5 909,-141.5 1090,-141.5 1090,-89.5 909,-89.5"/>
<text text-anchor="start" x="917" y="-129.5" font-family="Helvetica,sans-Serif" font-size="10.00">/home/runner/work/diffblue</text>
<text text-anchor="start" x="917" y="-118.5" font-family="Helvetica,sans-Serif" font-size="10.00">&#45;cbmc/diffblue&#45;cbmc/src</text>
<text text-anchor="start" x="917" y="-107.5" font-family="Helvetica,sans-Serif" font-size="10.00">/goto&#45;checker/single_loop</text>
<text text-anchor="middle" x="999.5" y="-96.5" font-family="Helvetica,sans-Serif" font-size="10.00">_incremental_symex_checker.cpp</text>
</a>
</g>
</g>
<!-- Node20&#45;&gt;Node21 -->
<g id="edge21" class="edge">
<title>Node20&#45;&gt;Node21</title>
<path fill="none" stroke="midnightblue" d="M869.96,-174.29C893.78,-163.67 920.48,-151.76 943.42,-141.52"/>
<polygon fill="midnightblue" stroke="midnightblue" points="868.35,-171.18 860.64,-178.45 871.2,-177.57 868.35,-171.18"/>
</g>
<!-- Node22&#45;&gt;Node13 -->
<g id="edge23" class="edge">
<title>Node22&#45;&gt;Node13</title>
<path fill="none" stroke="midnightblue" d="M922.48,-173.83C897.26,-161.36 868.62,-147.21 846.11,-136.08"/>
<polygon fill="midnightblue" stroke="midnightblue" points="921.08,-177.04 931.59,-178.34 924.18,-170.77 921.08,-177.04"/>
</g>
<!-- Node23 -->
<g id="node23" class="node">
<title>Node23</title>
<g id="a_node23"><a xlink:href="single__path__symex__checker_8cpp.html" target="_top" xlink:title="Goto Checker using Single Path Symbolic Execution.">
<polygon fill="none" stroke="black" points="1108,-89.5 1108,-141.5 1257,-141.5 1257,-89.5 1108,-89.5"/>
<text text-anchor="start" x="1116" y="-129.5" font-family="Helvetica,sans-Serif" font-size="10.00">/home/runner/work/diffblue</text>
<text text-anchor="start" x="1116" y="-118.5" font-family="Helvetica,sans-Serif" font-size="10.00">&#45;cbmc/diffblue&#45;cbmc/src</text>
<text text-anchor="start" x="1116" y="-107.5" font-family="Helvetica,sans-Serif" font-size="10.00">/goto&#45;checker/single_path</text>
<text text-anchor="middle" x="1182.5" y="-96.5" font-family="Helvetica,sans-Serif" font-size="10.00">_symex_checker.cpp</text>
</a>
</g>
</g>
<!-- Node22&#45;&gt;Node23 -->
<g id="edge24" class="edge">
<title>Node22&#45;&gt;Node23</title>
<path fill="none" stroke="midnightblue" d="M1049.31,-174.44C1073.83,-163.77 1101.35,-151.8 1124.98,-141.52"/>
<polygon fill="midnightblue" stroke="midnightblue" points="1047.85,-171.25 1040.08,-178.45 1050.65,-177.67 1047.85,-171.25"/>
</g>
<!-- Node24 -->
<g id="node24" class="node">
<title>Node24</title>
<g id="a_node24"><a xlink:href="java__single__path__symex__checker_8h.html" target="_top" xlink:title="Goto Checker using Single Path Symbolic Execution for Java.">
<polygon fill="none" stroke="black" points="1275,-89.5 1275,-141.5 1442,-141.5 1442,-89.5 1275,-89.5"/>
<text text-anchor="start" x="1283" y="-129.5" font-family="Helvetica,sans-Serif" font-size="10.00">/home/runner/work/diffblue</text>
<text text-anchor="start" x="1283" y="-118.5" font-family="Helvetica,sans-Serif" font-size="10.00">&#45;cbmc/diffblue&#45;cbmc/jbmc</text>
<text text-anchor="start" x="1283" y="-107.5" font-family="Helvetica,sans-Serif" font-size="10.00">/src/java_bytecode/java_single</text>
<text text-anchor="middle" x="1358.5" y="-96.5" font-family="Helvetica,sans-Serif" font-size="10.00">_path_symex_checker.h</text>
</a>
</g>
</g>
<!-- Node22&#45;&gt;Node24 -->
<g id="edge25" class="edge">
<title>Node22&#45;&gt;Node24</title>
<path fill="none" stroke="midnightblue" d="M1066.98,-178.01C1155.64,-157.23 1180.93,-161.2 1265.5,-142 1268.6,-141.3 1271.76,-140.56 1274.94,-139.79"/>
<polygon fill="midnightblue" stroke="midnightblue" points="1065.95,-174.66 1057.03,-180.39 1067.57,-181.47 1065.95,-174.66"/>
</g>
<!-- Node24&#45;&gt;Node19 -->
<g id="edge27" class="edge">
<title>Node24&#45;&gt;Node19</title>
<path fill="none" stroke="midnightblue" d="M1264.94,-88.91C1197.55,-72.29 1131.91,-57.69 1080.5,-46.62"/>
<polygon fill="midnightblue" stroke="midnightblue" points="1264.35,-92.36 1274.9,-91.37 1266.03,-85.57 1264.35,-92.36"/>
</g>
<!-- Node25 -->
<g id="node25" class="node">
<title>Node25</title>
<g id="a_node25"><a xlink:href="java__single__path__symex__checker_8cpp.html" target="_top" xlink:title=" ">
<polygon fill="none" stroke="black" points="1275,-0.5 1275,-52.5 1442,-52.5 1442,-0.5 1275,-0.5"/>
<text text-anchor="start" x="1283" y="-40.5" font-family="Helvetica,sans-Serif" font-size="10.00">/home/runner/work/diffblue</text>
<text text-anchor="start" x="1283" y="-29.5" font-family="Helvetica,sans-Serif" font-size="10.00">&#45;cbmc/diffblue&#45;cbmc/jbmc</text>
<text text-anchor="start" x="1283" y="-18.5" font-family="Helvetica,sans-Serif" font-size="10.00">/src/java_bytecode/java_single</text>
<text text-anchor="middle" x="1358.5" y="-7.5" font-family="Helvetica,sans-Serif" font-size="10.00">_path_symex_checker.cpp</text>
</a>
</g>
</g>
<!-- Node24&#45;&gt;Node25 -->
<g id="edge26" class="edge">
<title>Node24&#45;&gt;Node25</title>
<path fill="none" stroke="midnightblue" d="M1358.5,-79.19C1358.5,-70.28 1358.5,-60.9 1358.5,-52.61"/>
<polygon fill="midnightblue" stroke="midnightblue" points="1355,-79.34 1358.5,-89.34 1362,-79.34 1355,-79.34"/>
</g>
<!-- Node28 -->
<g id="node28" class="node">
<title>Node28</title>
<g id="a_node28"><a xlink:href="goto__synthesizer__languages_8cpp.html" target="_top" xlink:title="Language Registration.">
<polygon fill="none" stroke="black" points="1075.5,-178.5 1075.5,-230.5 1263.5,-230.5 1263.5,-178.5 1075.5,-178.5"/>
<text text-anchor="start" x="1083.5" y="-218.5" font-family="Helvetica,sans-Serif" font-size="10.00">/home/runner/work/diffblue</text>
<text text-anchor="start" x="1083.5" y="-207.5" font-family="Helvetica,sans-Serif" font-size="10.00">&#45;cbmc/diffblue&#45;cbmc/src</text>
<text text-anchor="start" x="1083.5" y="-196.5" font-family="Helvetica,sans-Serif" font-size="10.00">/goto&#45;synthesizer/goto_synthesizer</text>
<text text-anchor="middle" x="1169.5" y="-185.5" font-family="Helvetica,sans-Serif" font-size="10.00">_languages.cpp</text>
</a>
</g>
</g>
<!-- Node27&#45;&gt;Node28 -->
<g id="edge30" class="edge">
<title>Node27&#45;&gt;Node28</title>
<path fill="none" stroke="midnightblue" d="M1198.66,-258.35C1193.56,-249.1 1188.13,-239.26 1183.35,-230.61"/>
<polygon fill="midnightblue" stroke="midnightblue" points="1195.72,-260.27 1203.62,-267.34 1201.85,-256.89 1195.72,-260.27"/>
</g>
<!-- Node29 -->
<g id="node29" class="node">
<title>Node29</title>
<g id="a_node29"><a xlink:href="goto__synthesizer__main_8cpp.html" target="_top" xlink:title="Main Module.">
<polygon fill="none" stroke="black" points="1281.5,-178.5 1281.5,-230.5 1469.5,-230.5 1469.5,-178.5 1281.5,-178.5"/>
<text text-anchor="start" x="1289.5" y="-218.5" font-family="Helvetica,sans-Serif" font-size="10.00">/home/runner/work/diffblue</text>
<text text-anchor="start" x="1289.5" y="-207.5" font-family="Helvetica,sans-Serif" font-size="10.00">&#45;cbmc/diffblue&#45;cbmc/src</text>
<text text-anchor="start" x="1289.5" y="-196.5" font-family="Helvetica,sans-Serif" font-size="10.00">/goto&#45;synthesizer/goto_synthesizer</text>
<text text-anchor="middle" x="1375.5" y="-185.5" font-family="Helvetica,sans-Serif" font-size="10.00">_main.cpp</text>
</a>
</g>
</g>
<!-- Node27&#45;&gt;Node29 -->
<g id="edge31" class="edge">
<title>Node27&#45;&gt;Node29</title>
<path fill="none" stroke="midnightblue" d="M1271.99,-262.49C1290.87,-252.1 1311.82,-240.57 1329.9,-230.61"/>
<polygon fill="midnightblue" stroke="midnightblue" points="1270.27,-259.45 1263.2,-267.34 1273.65,-265.58 1270.27,-259.45"/>
</g>
<!-- Node30 -->
<g id="node30" class="node">
<title>Node30</title>
<g id="a_node30"><a xlink:href="goto__synthesizer__parse__options_8cpp.html" target="_top" xlink:title="Main Module.">
<polygon fill="none" stroke="black" points="1487.5,-178.5 1487.5,-230.5 1675.5,-230.5 1675.5,-178.5 1487.5,-178.5"/>
<text text-anchor="start" x="1495.5" y="-218.5" font-family="Helvetica,sans-Serif" font-size="10.00">/home/runner/work/diffblue</text>
<text text-anchor="start" x="1495.5" y="-207.5" font-family="Helvetica,sans-Serif" font-size="10.00">&#45;cbmc/diffblue&#45;cbmc/src</text>
<text text-anchor="start" x="1495.5" y="-196.5" font-family="Helvetica,sans-Serif" font-size="10.00">/goto&#45;synthesizer/goto_synthesizer</text>
<text text-anchor="middle" x="1581.5" y="-185.5" font-family="Helvetica,sans-Serif" font-size="10.00">_parse_options.cpp</text>
</a>
</g>
</g>
<!-- Node27&#45;&gt;Node30 -->
<g id="edge32" class="edge">
<title>Node27&#45;&gt;Node30</title>
<path fill="none" stroke="midnightblue" d="M1321.37,-266.81C1392.2,-250.09 1411.44,-246.94 1478.5,-231 1481.46,-230.3 1484.46,-229.58 1487.49,-228.85"/>
<polygon fill="midnightblue" stroke="midnightblue" points="1320.43,-263.44 1311.51,-269.15 1322.04,-270.25 1320.43,-263.44"/>
</g>
<!-- Node33 -->
<g id="node33" class="node">
<title>Node33</title>
<g id="a_node33"><a xlink:href="accelerate_8cpp.html" target="_top" xlink:title="Loop Acceleration.">
<polygon fill="none" stroke="black" points="1517.5,-267.5 1517.5,-319.5 1669.5,-319.5 1669.5,-267.5 1517.5,-267.5"/>
<text text-anchor="start" x="1525.5" y="-307.5" font-family="Helvetica,sans-Serif" font-size="10.00">/home/runner/work/diffblue</text>
<text text-anchor="start" x="1525.5" y="-296.5" font-family="Helvetica,sans-Serif" font-size="10.00">&#45;cbmc/diffblue&#45;cbmc/src</text>
<text text-anchor="start" x="1525.5" y="-285.5" font-family="Helvetica,sans-Serif" font-size="10.00">/goto&#45;instrument/accelerate</text>
<text text-anchor="middle" x="1593.5" y="-274.5" font-family="Helvetica,sans-Serif" font-size="10.00">/accelerate.cpp</text>
</a>
</g>
</g>
<!-- Node32&#45;&gt;Node33 -->
<g id="edge35" class="edge">
<title>Node32&#45;&gt;Node33</title>
<path fill="none" stroke="midnightblue" d="M1778.57,-353.91C1743.59,-342.69 1703.51,-329.82 1669.61,-318.93"/>
<polygon fill="midnightblue" stroke="midnightblue" points="1777.7,-357.31 1788.29,-357.03 1779.84,-350.64 1777.7,-357.31"/>
</g>
<!-- Node34 -->
<g id="node34" class="node">
<title>Node34</title>
<g id="a_node34"><a xlink:href="acceleration__utils_8cpp.html" target="_top" xlink:title="Loop Acceleration.">
<polygon fill="none" stroke="black" points="1687.5,-267.5 1687.5,-319.5 1839.5,-319.5 1839.5,-267.5 1687.5,-267.5"/>
<text text-anchor="start" x="1695.5" y="-307.5" font-family="Helvetica,sans-Serif" font-size="10.00">/home/runner/work/diffblue</text>
<text text-anchor="start" x="1695.5" y="-296.5" font-family="Helvetica,sans-Serif" font-size="10.00">&#45;cbmc/diffblue&#45;cbmc/src</text>
<text text-anchor="start" x="1695.5" y="-285.5" font-family="Helvetica,sans-Serif" font-size="10.00">/goto&#45;instrument/accelerate</text>
<text text-anchor="middle" x="1763.5" y="-274.5" font-family="Helvetica,sans-Serif" font-size="10.00">/acceleration_utils.cpp</text>
</a>
</g>
</g>
<!-- Node32&#45;&gt;Node34 -->
<g id="edge36" class="edge">
<title>Node32&#45;&gt;Node34</title>
<path fill="none" stroke="midnightblue" d="M1827.52,-349.65C1816.03,-339.75 1803.53,-328.98 1792.65,-319.61"/>
<polygon fill="midnightblue" stroke="midnightblue" points="1825.43,-352.46 1835.29,-356.34 1829.99,-347.16 1825.43,-352.46"/>
</g>
<!-- Node35 -->
<g id="node35" class="node">
<title>Node35</title>
<g id="a_node35"><a xlink:href="disjunctive__polynomial__acceleration_8cpp.html" target="_top" xlink:title="Loop Acceleration.">
<polygon fill="none" stroke="black" points="1857.5,-267.5 1857.5,-319.5 2075.5,-319.5 2075.5,-267.5 1857.5,-267.5"/>
<text text-anchor="start" x="1865.5" y="-307.5" font-family="Helvetica,sans-Serif" font-size="10.00">/home/runner/work/diffblue</text>
<text text-anchor="start" x="1865.5" y="-296.5" font-family="Helvetica,sans-Serif" font-size="10.00">&#45;cbmc/diffblue&#45;cbmc/src</text>
<text text-anchor="start" x="1865.5" y="-285.5" font-family="Helvetica,sans-Serif" font-size="10.00">/goto&#45;instrument/accelerate</text>
<text text-anchor="middle" x="1966.5" y="-274.5" font-family="Helvetica,sans-Serif" font-size="10.00">/disjunctive_polynomial_acceleration.cpp</text>
</a>
</g>
</g>
<!-- Node32&#45;&gt;Node35 -->
<g id="edge37" class="edge">
<title>Node32&#45;&gt;Node35</title>
<path fill="none" stroke="midnightblue" d="M1901.84,-349.65C1913.45,-339.75 1926.08,-328.98 1937.06,-319.61"/>
<polygon fill="midnightblue" stroke="midnightblue" points="1899.34,-347.18 1894,-356.34 1903.88,-352.51 1899.34,-347.18"/>
</g>
<!-- Node36 -->
<g id="node36" class="node">
<title>Node36</title>
<g id="a_node36"><a xlink:href="polynomial__accelerator_8cpp.html" target="_top" xlink:title="Loop Acceleration.">
<polygon fill="none" stroke="black" points="2093.5,-267.5 2093.5,-319.5 2247.5,-319.5 2247.5,-267.5 2093.5,-267.5"/>
<text text-anchor="start" x="2101.5" y="-307.5" font-family="Helvetica,sans-Serif" font-size="10.00">/home/runner/work/diffblue</text>
<text text-anchor="start" x="2101.5" y="-296.5" font-family="Helvetica,sans-Serif" font-size="10.00">&#45;cbmc/diffblue&#45;cbmc/src</text>
<text text-anchor="start" x="2101.5" y="-285.5" font-family="Helvetica,sans-Serif" font-size="10.00">/goto&#45;instrument/accelerate</text>
<text text-anchor="middle" x="2170.5" y="-274.5" font-family="Helvetica,sans-Serif" font-size="10.00">/polynomial_accelerator.cpp</text>
</a>
</g>
</g>
<!-- Node32&#45;&gt;Node36 -->
<g id="edge38" class="edge">
<title>Node32&#45;&gt;Node36</title>
<path fill="none" stroke="midnightblue" d="M1950.63,-356C2011.44,-338.96 2028.05,-335.95 2084.5,-320 2087.35,-319.2 2090.25,-318.37 2093.17,-317.53"/>
<polygon fill="midnightblue" stroke="midnightblue" points="1949.58,-352.66 1940.9,-358.73 1951.48,-359.39 1949.58,-352.66"/>
</g>
<!-- Node37 -->
<g id="node37" class="node">
<title>Node37</title>
<g id="a_node37"><a xlink:href="sat__path__enumerator_8cpp.html" target="_top" xlink:title="Loop Acceleration.">
<polygon fill="none" stroke="black" points="2265.5,-267.5 2265.5,-319.5 2417.5,-319.5 2417.5,-267.5 2265.5,-267.5"/>
<text text-anchor="start" x="2273.5" y="-307.5" font-family="Helvetica,sans-Serif" font-size="10.00">/home/runner/work/diffblue</text>
<text text-anchor="start" x="2273.5" y="-296.5" font-family="Helvetica,sans-Serif" font-size="10.00">&#45;cbmc/diffblue&#45;cbmc/src</text>
<text text-anchor="start" x="2273.5" y="-285.5" font-family="Helvetica,sans-Serif" font-size="10.00">/goto&#45;instrument/accelerate</text>
<text text-anchor="middle" x="2341.5" y="-274.5" font-family="Helvetica,sans-Serif" font-size="10.00">/sat_path_enumerator.cpp</text>
</a>
</g>
</g>
<!-- Node32&#45;&gt;Node37 -->
<g id="edge39" class="edge">
<title>Node32&#45;&gt;Node37</title>
<path fill="none" stroke="midnightblue" d="M1950.7,-356.14C2086.46,-329.32 2125.55,-347.13 2256.5,-320 2259.37,-319.41 2262.28,-318.76 2265.21,-318.07"/>
<polygon fill="midnightblue" stroke="midnightblue" points="1949.87,-352.74 1940.76,-358.15 1951.26,-359.6 1949.87,-352.74"/>
</g>
<!-- Node38 -->
<g id="node38" class="node">
<title>Node38</title>
<g id="a_node38"><a xlink:href="scratch__program_8cpp.html" target="_top" xlink:title="Loop Acceleration.">
<polygon fill="none" stroke="black" points="2435.5,-267.5 2435.5,-319.5 2587.5,-319.5 2587.5,-267.5 2435.5,-267.5"/>
<text text-anchor="start" x="2443.5" y="-307.5" font-family="Helvetica,sans-Serif" font-size="10.00">/home/runner/work/diffblue</text>
<text text-anchor="start" x="2443.5" y="-296.5" font-family="Helvetica,sans-Serif" font-size="10.00">&#45;cbmc/diffblue&#45;cbmc/src</text>
<text text-anchor="start" x="2443.5" y="-285.5" font-family="Helvetica,sans-Serif" font-size="10.00">/goto&#45;instrument/accelerate</text>
<text text-anchor="middle" x="2511.5" y="-274.5" font-family="Helvetica,sans-Serif" font-size="10.00">/scratch_program.cpp</text>
</a>
</g>
</g>
<!-- Node32&#45;&gt;Node38 -->
<g id="edge40" class="edge">
<title>Node32&#45;&gt;Node38</title>
<path fill="none" stroke="midnightblue" d="M1950.85,-356.15C2161.03,-318.89 2221.16,-358.1 2426.5,-320 2429.38,-319.47 2432.3,-318.87 2435.24,-318.23"/>
<polygon fill="midnightblue" stroke="midnightblue" points="1949.94,-352.76 1940.73,-357.98 1951.19,-359.64 1949.94,-352.76"/>
</g>
</g>
</svg>
