<?xml version="1.0" encoding="UTF-8" standalone="no"?>
<!DOCTYPE svg PUBLIC "-//W3C//DTD SVG 1.1//EN"
 "http://www.w3.org/Graphics/SVG/1.1/DTD/svg11.dtd">
<!-- Generated by graphviz version 2.43.0 (0)
 -->
<!-- Title: /home/runner/work/diffblue&#45;cbmc/diffblue&#45;cbmc/src/solvers/smt2_incremental/theories/smt_array_theory.h Pages: 1 -->
<svg width="695pt" height="161pt"
 viewBox="0.00 0.00 695.00 161.00" xmlns="http://www.w3.org/2000/svg" xmlns:xlink="http://www.w3.org/1999/xlink">
<g id="graph0" class="graph" transform="scale(1 1) rotate(0) translate(4 157)">
<title>/home/runner/work/diffblue&#45;cbmc/diffblue&#45;cbmc/src/solvers/smt2_incremental/theories/smt_array_theory.h</title>
<!-- Node1 -->
<g id="node1" class="node">
<title>Node1</title>
<g id="a_node1"><a xlink:title=" ">
<polygon fill="#bfbfbf" stroke="black" points="254.5,-100.5 254.5,-152.5 410.5,-152.5 410.5,-100.5 254.5,-100.5"/>
<text text-anchor="start" x="262.5" y="-140.5" font-family="Helvetica,sans-Serif" font-size="10.00">/home/runner/work/diffblue</text>
<text text-anchor="start" x="262.5" y="-129.5" font-family="Helvetica,sans-Serif" font-size="10.00">&#45;cbmc/diffblue&#45;cbmc/src</text>
<text text-anchor="start" x="262.5" y="-118.5" font-family="Helvetica,sans-Serif" font-size="10.00">/solvers/smt2_incremental</text>
<text text-anchor="middle" x="332.5" y="-107.5" font-family="Helvetica,sans-Serif" font-size="10.00">/theories/smt_array_theory.h</text>
</a>
</g>
</g>
<!-- Node2 -->
<g id="node2" class="node">
<title>Node2</title>
<g id="a_node2"><a xlink:href="convert__expr__to__smt_8cpp.html" target="_top" xlink:title=" ">
<polygon fill="none" stroke="black" points="0,-6 0,-58 149,-58 149,-6 0,-6"/>
<text text-anchor="start" x="8" y="-46" font-family="Helvetica,sans-Serif" font-size="10.00">/home/runner/work/diffblue</text>
<text text-anchor="start" x="8" y="-35" font-family="Helvetica,sans-Serif" font-size="10.00">&#45;cbmc/diffblue&#45;cbmc/src</text>
<text text-anchor="start" x="8" y="-24" font-family="Helvetica,sans-Serif" font-size="10.00">/solvers/smt2_incremental</text>
<text text-anchor="middle" x="74.5" y="-13" font-family="Helvetica,sans-Serif" font-size="10.00">/convert_expr_to_smt.cpp</text>
</a>
</g>
</g>
<!-- Node1&#45;&gt;Node2 -->
<g id="edge1" class="edge">
<title>Node1&#45;&gt;Node2</title>
<path fill="none" stroke="midnightblue" d="M251.13,-97C221.89,-86.69 188.69,-74.9 158.5,-64 153.24,-62.1 147.79,-60.12 142.32,-58.12"/>
<polygon fill="midnightblue" stroke="midnightblue" points="250.29,-100.42 260.89,-100.44 252.62,-93.81 250.29,-100.42"/>
</g>
<!-- Node3 -->
<g id="node3" class="node">
<title>Node3</title>
<g id="a_node3"><a xlink:href="smt2__incremental__decision__procedure_8cpp.html" target="_top" xlink:title=" ">
<polygon fill="none" stroke="black" points="167.5,-0.5 167.5,-63.5 321.5,-63.5 321.5,-0.5 167.5,-0.5"/>
<text text-anchor="start" x="175.5" y="-51.5" font-family="Helvetica,sans-Serif" font-size="10.00">/home/runner/work/diffblue</text>
<text text-anchor="start" x="175.5" y="-40.5" font-family="Helvetica,sans-Serif" font-size="10.00">&#45;cbmc/diffblue&#45;cbmc/src</text>
<text text-anchor="start" x="175.5" y="-29.5" font-family="Helvetica,sans-Serif" font-size="10.00">/solvers/smt2_incremental</text>
<text text-anchor="start" x="175.5" y="-18.5" font-family="Helvetica,sans-Serif" font-size="10.00">/smt2_incremental_decision</text>
<text text-anchor="middle" x="244.5" y="-7.5" font-family="Helvetica,sans-Serif" font-size="10.00">_procedure.cpp</text>
</a>
</g>
</g>
<!-- Node1&#45;&gt;Node3 -->
<g id="edge2" class="edge">
<title>Node1&#45;&gt;Node3</title>
<path fill="none" stroke="midnightblue" d="M301.39,-92.8C292.32,-83.27 282.46,-72.9 273.53,-63.51"/>
<polygon fill="midnightblue" stroke="midnightblue" points="299.03,-95.39 308.45,-100.22 304.1,-90.57 299.03,-95.39"/>
</g>
<!-- Node4 -->
<g id="node4" class="node">
<title>Node4</title>
<g id="a_node4"><a xlink:href="smt__response__validation_8cpp.html" target="_top" xlink:title="Validation of smt response parse trees to produce either a strongly typed smt_responset representatio...">
<polygon fill="none" stroke="black" points="339.5,-6 339.5,-58 501.5,-58 501.5,-6 339.5,-6"/>
<text text-anchor="start" x="347.5" y="-46" font-family="Helvetica,sans-Serif" font-size="10.00">/home/runner/work/diffblue</text>
<text text-anchor="start" x="347.5" y="-35" font-family="Helvetica,sans-Serif" font-size="10.00">&#45;cbmc/diffblue&#45;cbmc/src</text>
<text text-anchor="start" x="347.5" y="-24" font-family="Helvetica,sans-Serif" font-size="10.00">/solvers/smt2_incremental</text>
<text text-anchor="middle" x="420.5" y="-13" font-family="Helvetica,sans-Serif" font-size="10.00">/smt_response_validation.cpp</text>
</a>
</g>
</g>
<!-- Node1&#45;&gt;Node4 -->
<g id="edge3" class="edge">
<title>Node1&#45;&gt;Node4</title>
<path fill="none" stroke="midnightblue" d="M363.47,-92.95C374.31,-81.56 386.3,-68.95 396.48,-58.25"/>
<polygon fill="midnightblue" stroke="midnightblue" points="360.9,-90.57 356.55,-100.22 365.97,-95.39 360.9,-90.57"/>
</g>
<!-- Node5 -->
<g id="node5" class="node">
<title>Node5</title>
<g id="a_node5"><a xlink:href="smt__array__theory_8cpp.html" target="_top" xlink:title=" ">
<polygon fill="none" stroke="black" points="520,-6 520,-58 687,-58 687,-6 520,-6"/>
<text text-anchor="start" x="528" y="-46" font-family="Helvetica,sans-Serif" font-size="10.00">/home/runner/work/diffblue</text>
<text text-anchor="start" x="528" y="-35" font-family="Helvetica,sans-Serif" font-size="10.00">&#45;cbmc/diffblue&#45;cbmc/src</text>
<text text-anchor="start" x="528" y="-24" font-family="Helvetica,sans-Serif" font-size="10.00">/solvers/smt2_incremental</text>
<text text-anchor="middle" x="603.5" y="-13" font-family="Helvetica,sans-Serif" font-size="10.00">/theories/smt_array_theory.cpp</text>
</a>
</g>
</g>
<!-- Node1&#45;&gt;Node5 -->
<g id="edge4" class="edge">
<title>Node1&#45;&gt;Node5</title>
<path fill="none" stroke="midnightblue" d="M415.49,-97.17C452.07,-84.69 494.7,-70.14 530.1,-58.05"/>
<polygon fill="midnightblue" stroke="midnightblue" points="414.17,-93.93 405.84,-100.47 416.43,-100.55 414.17,-93.93"/>
</g>
</g>
</svg>
