<?xml version="1.0" encoding="UTF-8" standalone="no"?>
<!DOCTYPE svg PUBLIC "-//W3C//DTD SVG 1.1//EN"
 "http://www.w3.org/Graphics/SVG/1.1/DTD/svg11.dtd">
<!-- Generated by graphviz version 2.43.0 (0)
 -->
<!-- Title: /home/runner/work/diffblue&#45;cbmc/diffblue&#45;cbmc/src/solvers/smt2_incremental/theories/smt_core_theory.h Pages: 1 -->
<svg width="851pt" height="161pt"
 viewBox="0.00 0.00 851.00 161.00" xmlns="http://www.w3.org/2000/svg" xmlns:xlink="http://www.w3.org/1999/xlink">
<g id="graph0" class="graph" transform="scale(1 1) rotate(0) translate(4 157)">
<title>/home/runner/work/diffblue&#45;cbmc/diffblue&#45;cbmc/src/solvers/smt2_incremental/theories/smt_core_theory.h</title>
<!-- Node1 -->
<g id="node1" class="node">
<title>Node1</title>
<g id="a_node1"><a xlink:title=" ">
<polygon fill="#bfbfbf" stroke="black" points="341.5,-100.5 341.5,-152.5 493.5,-152.5 493.5,-100.5 341.5,-100.5"/>
<text text-anchor="start" x="349.5" y="-140.5" font-family="Helvetica,sans-Serif" font-size="10.00">/home/runner/work/diffblue</text>
<text text-anchor="start" x="349.5" y="-129.5" font-family="Helvetica,sans-Serif" font-size="10.00">&#45;cbmc/diffblue&#45;cbmc/src</text>
<text text-anchor="start" x="349.5" y="-118.5" font-family="Helvetica,sans-Serif" font-size="10.00">/solvers/smt2_incremental</text>
<text text-anchor="middle" x="417.5" y="-107.5" font-family="Helvetica,sans-Serif" font-size="10.00">/theories/smt_core_theory.h</text>
</a>
</g>
</g>
<!-- Node2 -->
<g id="node2" class="node">
<title>Node2</title>
<g id="a_node2"><a xlink:href="convert__expr__to__smt_8cpp.html" target="_top" xlink:title=" ">
<polygon fill="none" stroke="black" points="0,-6 0,-58 149,-58 149,-6 0,-6"/>
<text text-anchor="start" x="8" y="-46" font-family="Helvetica,sans-Serif" font-size="10.00">/home/runner/work/diffblue</text>
<text text-anchor="start" x="8" y="-35" font-family="Helvetica,sans-Serif" font-size="10.00">&#45;cbmc/diffblue&#45;cbmc/src</text>
<text text-anchor="start" x="8" y="-24" font-family="Helvetica,sans-Serif" font-size="10.00">/solvers/smt2_incremental</text>
<text text-anchor="middle" x="74.5" y="-13" font-family="Helvetica,sans-Serif" font-size="10.00">/convert_expr_to_smt.cpp</text>
</a>
</g>
</g>
<!-- Node1&#45;&gt;Node2 -->
<g id="edge1" class="edge">
<title>Node1&#45;&gt;Node2</title>
<path fill="none" stroke="midnightblue" d="M331.54,-107.81C280.8,-96.7 215.53,-81.23 158.5,-64 152.55,-62.2 146.4,-60.21 140.28,-58.13"/>
<polygon fill="midnightblue" stroke="midnightblue" points="330.98,-111.27 341.49,-109.98 332.47,-104.43 330.98,-111.27"/>
</g>
<!-- Node3 -->
<g id="node3" class="node">
<title>Node3</title>
<g id="a_node3"><a xlink:href="smt2__incremental__decision__procedure_8cpp.html" target="_top" xlink:title=" ">
<polygon fill="none" stroke="black" points="167.5,-0.5 167.5,-63.5 321.5,-63.5 321.5,-0.5 167.5,-0.5"/>
<text text-anchor="start" x="175.5" y="-51.5" font-family="Helvetica,sans-Serif" font-size="10.00">/home/runner/work/diffblue</text>
<text text-anchor="start" x="175.5" y="-40.5" font-family="Helvetica,sans-Serif" font-size="10.00">&#45;cbmc/diffblue&#45;cbmc/src</text>
<text text-anchor="start" x="175.5" y="-29.5" font-family="Helvetica,sans-Serif" font-size="10.00">/solvers/smt2_incremental</text>
<text text-anchor="start" x="175.5" y="-18.5" font-family="Helvetica,sans-Serif" font-size="10.00">/smt2_incremental_decision</text>
<text text-anchor="middle" x="244.5" y="-7.5" font-family="Helvetica,sans-Serif" font-size="10.00">_procedure.cpp</text>
</a>
</g>
</g>
<!-- Node1&#45;&gt;Node3 -->
<g id="edge2" class="edge">
<title>Node1&#45;&gt;Node3</title>
<path fill="none" stroke="midnightblue" d="M361.77,-95.7C342.61,-85.46 321.13,-73.98 301.85,-63.66"/>
<polygon fill="midnightblue" stroke="midnightblue" points="360.21,-98.84 370.68,-100.47 363.52,-92.67 360.21,-98.84"/>
</g>
<!-- Node4 -->
<g id="node4" class="node">
<title>Node4</title>
<g id="a_node4"><a xlink:href="smt__is__dynamic__object_8cpp.html" target="_top" xlink:title=" ">
<polygon fill="none" stroke="black" points="340,-6 340,-58 495,-58 495,-6 340,-6"/>
<text text-anchor="start" x="348" y="-46" font-family="Helvetica,sans-Serif" font-size="10.00">/home/runner/work/diffblue</text>
<text text-anchor="start" x="348" y="-35" font-family="Helvetica,sans-Serif" font-size="10.00">&#45;cbmc/diffblue&#45;cbmc/src</text>
<text text-anchor="start" x="348" y="-24" font-family="Helvetica,sans-Serif" font-size="10.00">/solvers/smt2_incremental</text>
<text text-anchor="middle" x="417.5" y="-13" font-family="Helvetica,sans-Serif" font-size="10.00">/smt_is_dynamic_object.cpp</text>
</a>
</g>
</g>
<!-- Node1&#45;&gt;Node4 -->
<g id="edge3" class="edge">
<title>Node1&#45;&gt;Node4</title>
<path fill="none" stroke="midnightblue" d="M417.5,-89.99C417.5,-79.41 417.5,-68.03 417.5,-58.25"/>
<polygon fill="midnightblue" stroke="midnightblue" points="414,-90.22 417.5,-100.22 421,-90.22 414,-90.22"/>
</g>
<!-- Node5 -->
<g id="node5" class="node">
<title>Node5</title>
<g id="a_node5"><a xlink:href="smt__object__size_8cpp.html" target="_top" xlink:title=" ">
<polygon fill="none" stroke="black" points="513,-6 513,-58 662,-58 662,-6 513,-6"/>
<text text-anchor="start" x="521" y="-46" font-family="Helvetica,sans-Serif" font-size="10.00">/home/runner/work/diffblue</text>
<text text-anchor="start" x="521" y="-35" font-family="Helvetica,sans-Serif" font-size="10.00">&#45;cbmc/diffblue&#45;cbmc/src</text>
<text text-anchor="start" x="521" y="-24" font-family="Helvetica,sans-Serif" font-size="10.00">/solvers/smt2_incremental</text>
<text text-anchor="middle" x="587.5" y="-13" font-family="Helvetica,sans-Serif" font-size="10.00">/smt_object_size.cpp</text>
</a>
</g>
</g>
<!-- Node1&#45;&gt;Node5 -->
<g id="edge4" class="edge">
<title>Node1&#45;&gt;Node5</title>
<path fill="none" stroke="midnightblue" d="M472.51,-95.57C494.78,-83.45 520.19,-69.62 541.46,-58.05"/>
<polygon fill="midnightblue" stroke="midnightblue" points="470.62,-92.61 463.5,-100.47 473.96,-98.76 470.62,-92.61"/>
</g>
<!-- Node6 -->
<g id="node6" class="node">
<title>Node6</title>
<g id="a_node6"><a xlink:href="smt__core__theory_8cpp.html" target="_top" xlink:title=" ">
<polygon fill="none" stroke="black" points="680,-6 680,-58 843,-58 843,-6 680,-6"/>
<text text-anchor="start" x="688" y="-46" font-family="Helvetica,sans-Serif" font-size="10.00">/home/runner/work/diffblue</text>
<text text-anchor="start" x="688" y="-35" font-family="Helvetica,sans-Serif" font-size="10.00">&#45;cbmc/diffblue&#45;cbmc/src</text>
<text text-anchor="start" x="688" y="-24" font-family="Helvetica,sans-Serif" font-size="10.00">/solvers/smt2_incremental</text>
<text text-anchor="middle" x="761.5" y="-13" font-family="Helvetica,sans-Serif" font-size="10.00">/theories/smt_core_theory.cpp</text>
</a>
</g>
</g>
<!-- Node1&#45;&gt;Node6 -->
<g id="edge5" class="edge">
<title>Node1&#45;&gt;Node6</title>
<path fill="none" stroke="midnightblue" d="M503.59,-106.78C553.02,-95.5 616.09,-80.21 671.5,-64 677.84,-62.14 684.4,-60.11 690.96,-58"/>
<polygon fill="midnightblue" stroke="midnightblue" points="502.55,-103.42 493.57,-109.05 504.1,-110.25 502.55,-103.42"/>
</g>
</g>
</svg>
