<?xml version="1.0" encoding="UTF-8" standalone="no"?>
<!DOCTYPE svg PUBLIC "-//W3C//DTD SVG 1.1//EN"
 "http://www.w3.org/Graphics/SVG/1.1/DTD/svg11.dtd">
<!-- Generated by graphviz version 2.43.0 (0)
 -->
<!-- Title: /home/runner/work/diffblue&#45;cbmc/diffblue&#45;cbmc/src/solvers/smt2_incremental/ast/smt_index.h Pages: 1 -->
<svg width="1743pt" height="617pt"
 viewBox="0.00 0.00 1743.00 617.00" xmlns="http://www.w3.org/2000/svg" xmlns:xlink="http://www.w3.org/1999/xlink">
<g id="graph0" class="graph" transform="scale(1 1) rotate(0) translate(4 613)">
<title>/home/runner/work/diffblue&#45;cbmc/diffblue&#45;cbmc/src/solvers/smt2_incremental/ast/smt_index.h</title>
<!-- Node1 -->
<g id="node1" class="node">
<title>Node1</title>
<g id="a_node1"><a xlink:title=" ">
<polygon fill="#bfbfbf" stroke="black" points="765,-556.5 765,-608.5 914,-608.5 914,-556.5 765,-556.5"/>
<text text-anchor="start" x="773" y="-596.5" font-family="Helvetica,sans-Serif" font-size="10.00">/home/runner/work/diffblue</text>
<text text-anchor="start" x="773" y="-585.5" font-family="Helvetica,sans-Serif" font-size="10.00">&#45;cbmc/diffblue&#45;cbmc/src</text>
<text text-anchor="start" x="773" y="-574.5" font-family="Helvetica,sans-Serif" font-size="10.00">/solvers/smt2_incremental</text>
<text text-anchor="middle" x="839.5" y="-563.5" font-family="Helvetica,sans-Serif" font-size="10.00">/ast/smt_index.h</text>
</a>
</g>
</g>
<!-- Node2 -->
<g id="node2" class="node">
<title>Node2</title>
<g id="a_node2"><a xlink:href="smt__index_8cpp.html" target="_top" xlink:title=" ">
<polygon fill="none" stroke="black" points="598,-467.5 598,-519.5 747,-519.5 747,-467.5 598,-467.5"/>
<text text-anchor="start" x="606" y="-507.5" font-family="Helvetica,sans-Serif" font-size="10.00">/home/runner/work/diffblue</text>
<text text-anchor="start" x="606" y="-496.5" font-family="Helvetica,sans-Serif" font-size="10.00">&#45;cbmc/diffblue&#45;cbmc/src</text>
<text text-anchor="start" x="606" y="-485.5" font-family="Helvetica,sans-Serif" font-size="10.00">/solvers/smt2_incremental</text>
<text text-anchor="middle" x="672.5" y="-474.5" font-family="Helvetica,sans-Serif" font-size="10.00">/ast/smt_index.cpp</text>
</a>
</g>
</g>
<!-- Node1&#45;&gt;Node2 -->
<g id="edge1" class="edge">
<title>Node1&#45;&gt;Node2</title>
<path fill="none" stroke="midnightblue" d="M782.17,-551.64C762.15,-541.2 739.9,-529.61 720.69,-519.61"/>
<polygon fill="midnightblue" stroke="midnightblue" points="780.71,-554.82 791.2,-556.34 783.95,-548.61 780.71,-554.82"/>
</g>
<!-- Node3 -->
<g id="node3" class="node">
<title>Node3</title>
<g id="a_node3"><a xlink:href="smt__terms_8h.html" target="_top" xlink:title=" ">
<polygon fill="none" stroke="black" points="765,-467.5 765,-519.5 914,-519.5 914,-467.5 765,-467.5"/>
<text text-anchor="start" x="773" y="-507.5" font-family="Helvetica,sans-Serif" font-size="10.00">/home/runner/work/diffblue</text>
<text text-anchor="start" x="773" y="-496.5" font-family="Helvetica,sans-Serif" font-size="10.00">&#45;cbmc/diffblue&#45;cbmc/src</text>
<text text-anchor="start" x="773" y="-485.5" font-family="Helvetica,sans-Serif" font-size="10.00">/solvers/smt2_incremental</text>
<text text-anchor="middle" x="839.5" y="-474.5" font-family="Helvetica,sans-Serif" font-size="10.00">/ast/smt_terms.h</text>
</a>
</g>
</g>
<!-- Node1&#45;&gt;Node3 -->
<g id="edge2" class="edge">
<title>Node1&#45;&gt;Node3</title>
<path fill="none" stroke="midnightblue" d="M839.5,-546.19C839.5,-537.28 839.5,-527.9 839.5,-519.61"/>
<polygon fill="midnightblue" stroke="midnightblue" points="836,-546.34 839.5,-556.34 843,-546.34 836,-546.34"/>
</g>
<!-- Node17 -->
<g id="node17" class="node">
<title>Node17</title>
<g id="a_node17"><a xlink:href="smt__to__smt2__string_8cpp.html" target="_top" xlink:title=" ">
<polygon fill="none" stroke="black" points="1153,-289.5 1153,-341.5 1302,-341.5 1302,-289.5 1153,-289.5"/>
<text text-anchor="start" x="1161" y="-329.5" font-family="Helvetica,sans-Serif" font-size="10.00">/home/runner/work/diffblue</text>
<text text-anchor="start" x="1161" y="-318.5" font-family="Helvetica,sans-Serif" font-size="10.00">&#45;cbmc/diffblue&#45;cbmc/src</text>
<text text-anchor="start" x="1161" y="-307.5" font-family="Helvetica,sans-Serif" font-size="10.00">/solvers/smt2_incremental</text>
<text text-anchor="middle" x="1227.5" y="-296.5" font-family="Helvetica,sans-Serif" font-size="10.00">/smt_to_smt2_string.cpp</text>
</a>
</g>
</g>
<!-- Node1&#45;&gt;Node17 -->
<g id="edge60" class="edge">
<title>Node1&#45;&gt;Node17</title>
<path fill="none" stroke="midnightblue" d="M924.25,-575.45C1088.7,-561.77 1441.36,-522.24 1514.5,-431 1575.31,-355.13 1406.15,-329.3 1302.17,-320.68"/>
<polygon fill="midnightblue" stroke="midnightblue" points="923.86,-571.97 914.18,-576.28 924.43,-578.95 923.86,-571.97"/>
</g>
<!-- Node4 -->
<g id="node4" class="node">
<title>Node4</title>
<g id="a_node4"><a xlink:href="smt__commands_8h.html" target="_top" xlink:title=" ">
<polygon fill="none" stroke="black" points="568,-378.5 568,-430.5 717,-430.5 717,-378.5 568,-378.5"/>
<text text-anchor="start" x="576" y="-418.5" font-family="Helvetica,sans-Serif" font-size="10.00">/home/runner/work/diffblue</text>
<text text-anchor="start" x="576" y="-407.5" font-family="Helvetica,sans-Serif" font-size="10.00">&#45;cbmc/diffblue&#45;cbmc/src</text>
<text text-anchor="start" x="576" y="-396.5" font-family="Helvetica,sans-Serif" font-size="10.00">/solvers/smt2_incremental</text>
<text text-anchor="middle" x="642.5" y="-385.5" font-family="Helvetica,sans-Serif" font-size="10.00">/ast/smt_commands.h</text>
</a>
</g>
</g>
<!-- Node3&#45;&gt;Node4 -->
<g id="edge3" class="edge">
<title>Node3&#45;&gt;Node4</title>
<path fill="none" stroke="midnightblue" d="M773.37,-463.29C749.3,-452.67 722.33,-440.76 699.16,-430.52"/>
<polygon fill="midnightblue" stroke="midnightblue" points="772.22,-466.61 782.78,-467.45 775.05,-460.21 772.22,-466.61"/>
</g>
<!-- Node6 -->
<g id="node6" class="node">
<title>Node6</title>
<g id="a_node6"><a xlink:href="smt2__incremental__decision__procedure_8cpp.html" target="_top" xlink:title=" ">
<polygon fill="none" stroke="black" points="855.5,-0.5 855.5,-63.5 1009.5,-63.5 1009.5,-0.5 855.5,-0.5"/>
<text text-anchor="start" x="863.5" y="-51.5" font-family="Helvetica,sans-Serif" font-size="10.00">/home/runner/work/diffblue</text>
<text text-anchor="start" x="863.5" y="-40.5" font-family="Helvetica,sans-Serif" font-size="10.00">&#45;cbmc/diffblue&#45;cbmc/src</text>
<text text-anchor="start" x="863.5" y="-29.5" font-family="Helvetica,sans-Serif" font-size="10.00">/solvers/smt2_incremental</text>
<text text-anchor="start" x="863.5" y="-18.5" font-family="Helvetica,sans-Serif" font-size="10.00">/smt2_incremental_decision</text>
<text text-anchor="middle" x="932.5" y="-7.5" font-family="Helvetica,sans-Serif" font-size="10.00">_procedure.cpp</text>
</a>
</g>
</g>
<!-- Node3&#45;&gt;Node6 -->
<g id="edge40" class="edge">
<title>Node3&#45;&gt;Node6</title>
<path fill="none" stroke="midnightblue" d="M842.9,-457.19C845.31,-434.49 848.93,-404.4 853.5,-378 873.77,-260.84 908.53,-123.69 924.3,-63.7"/>
<polygon fill="midnightblue" stroke="midnightblue" points="839.39,-457.07 841.85,-467.38 846.36,-457.79 839.39,-457.07"/>
</g>
<!-- Node7 -->
<g id="node7" class="node">
<title>Node7</title>
<g id="a_node7"><a xlink:href="smt__is__dynamic__object_8h.html" target="_top" xlink:title=" ">
<polygon fill="none" stroke="black" points="382,-289.5 382,-341.5 531,-341.5 531,-289.5 382,-289.5"/>
<text text-anchor="start" x="390" y="-329.5" font-family="Helvetica,sans-Serif" font-size="10.00">/home/runner/work/diffblue</text>
<text text-anchor="start" x="390" y="-318.5" font-family="Helvetica,sans-Serif" font-size="10.00">&#45;cbmc/diffblue&#45;cbmc/src</text>
<text text-anchor="start" x="390" y="-307.5" font-family="Helvetica,sans-Serif" font-size="10.00">/solvers/smt2_incremental</text>
<text text-anchor="middle" x="456.5" y="-296.5" font-family="Helvetica,sans-Serif" font-size="10.00">/smt_is_dynamic_object.h</text>
</a>
</g>
</g>
<!-- Node3&#45;&gt;Node7 -->
<g id="edge42" class="edge">
<title>Node3&#45;&gt;Node7</title>
<path fill="none" stroke="midnightblue" d="M755.17,-466.88C667.67,-447.81 634.47,-472.88 559.5,-431 521.22,-409.61 489.71,-368.64 472.01,-341.95"/>
<polygon fill="midnightblue" stroke="midnightblue" points="754.43,-470.3 764.96,-469.15 756.01,-463.48 754.43,-470.3"/>
</g>
<!-- Node8 -->
<g id="node8" class="node">
<title>Node8</title>
<g id="a_node8"><a xlink:href="convert__expr__to__smt_8h.html" target="_top" xlink:title=" ">
<polygon fill="none" stroke="black" points="173,-106 173,-158 322,-158 322,-106 173,-106"/>
<text text-anchor="start" x="181" y="-146" font-family="Helvetica,sans-Serif" font-size="10.00">/home/runner/work/diffblue</text>
<text text-anchor="start" x="181" y="-135" font-family="Helvetica,sans-Serif" font-size="10.00">&#45;cbmc/diffblue&#45;cbmc/src</text>
<text text-anchor="start" x="181" y="-124" font-family="Helvetica,sans-Serif" font-size="10.00">/solvers/smt2_incremental</text>
<text text-anchor="middle" x="247.5" y="-113" font-family="Helvetica,sans-Serif" font-size="10.00">/convert_expr_to_smt.h</text>
</a>
</g>
</g>
<!-- Node3&#45;&gt;Node8 -->
<g id="edge39" class="edge">
<title>Node3&#45;&gt;Node8</title>
<path fill="none" stroke="midnightblue" d="M754.6,-466.84C547.16,-430.23 477.19,-505.52 283.5,-431 223.18,-407.79 196.97,-400.02 168.5,-342 137.06,-277.92 191.63,-197.99 224.81,-158.09"/>
<polygon fill="midnightblue" stroke="midnightblue" points="754.12,-470.31 764.59,-468.67 755.38,-463.42 754.12,-470.31"/>
</g>
<!-- Node12 -->
<g id="node12" class="node">
<title>Node12</title>
<g id="a_node12"><a xlink:href="smt2__incremental__decision__procedure_8h.html" target="_top" xlink:title="Decision procedure with incremental SMT2 solving.">
<polygon fill="none" stroke="black" points="657.5,-100.5 657.5,-163.5 811.5,-163.5 811.5,-100.5 657.5,-100.5"/>
<text text-anchor="start" x="665.5" y="-151.5" font-family="Helvetica,sans-Serif" font-size="10.00">/home/runner/work/diffblue</text>
<text text-anchor="start" x="665.5" y="-140.5" font-family="Helvetica,sans-Serif" font-size="10.00">&#45;cbmc/diffblue&#45;cbmc/src</text>
<text text-anchor="start" x="665.5" y="-129.5" font-family="Helvetica,sans-Serif" font-size="10.00">/solvers/smt2_incremental</text>
<text text-anchor="start" x="665.5" y="-118.5" font-family="Helvetica,sans-Serif" font-size="10.00">/smt2_incremental_decision</text>
<text text-anchor="middle" x="734.5" y="-107.5" font-family="Helvetica,sans-Serif" font-size="10.00">_procedure.h</text>
</a>
</g>
</g>
<!-- Node3&#45;&gt;Node12 -->
<g id="edge41" class="edge">
<title>Node3&#45;&gt;Node12</title>
<path fill="none" stroke="midnightblue" d="M831.43,-457.56C829.46,-448.89 827.38,-439.61 825.5,-431 803.19,-328.54 817.15,-297.08 777.5,-200 772.38,-187.46 764.88,-174.7 757.57,-163.73"/>
<polygon fill="midnightblue" stroke="midnightblue" points="828.03,-458.42 833.67,-467.39 834.86,-456.86 828.03,-458.42"/>
</g>
<!-- Node15 -->
<g id="node15" class="node">
<title>Node15</title>
<g id="a_node15"><a xlink:href="type__size__mapping_8h.html" target="_top" xlink:title="Utilities for making a map of types to associated sizes.">
<polygon fill="none" stroke="black" points="275,-200.5 275,-252.5 424,-252.5 424,-200.5 275,-200.5"/>
<text text-anchor="start" x="283" y="-240.5" font-family="Helvetica,sans-Serif" font-size="10.00">/home/runner/work/diffblue</text>
<text text-anchor="start" x="283" y="-229.5" font-family="Helvetica,sans-Serif" font-size="10.00">&#45;cbmc/diffblue&#45;cbmc/src</text>
<text text-anchor="start" x="283" y="-218.5" font-family="Helvetica,sans-Serif" font-size="10.00">/solvers/smt2_incremental</text>
<text text-anchor="middle" x="349.5" y="-207.5" font-family="Helvetica,sans-Serif" font-size="10.00">/type_size_mapping.h</text>
</a>
</g>
</g>
<!-- Node3&#45;&gt;Node15 -->
<g id="edge59" class="edge">
<title>Node3&#45;&gt;Node15</title>
<path fill="none" stroke="midnightblue" d="M755.14,-466.89C640.48,-443.51 601.87,-473.09 496.5,-431 433.5,-405.83 409.29,-398.99 372.5,-342 355.02,-314.92 350.38,-277.31 349.37,-252.69"/>
<polygon fill="midnightblue" stroke="midnightblue" points="754.48,-470.33 764.99,-468.99 755.94,-463.48 754.48,-470.33"/>
</g>
<!-- Node16 -->
<g id="node16" class="node">
<title>Node16</title>
<g id="a_node16"><a xlink:href="smt__object__size_8h.html" target="_top" xlink:title=" ">
<polygon fill="none" stroke="black" points="178,-289.5 178,-341.5 327,-341.5 327,-289.5 178,-289.5"/>
<text text-anchor="start" x="186" y="-329.5" font-family="Helvetica,sans-Serif" font-size="10.00">/home/runner/work/diffblue</text>
<text text-anchor="start" x="186" y="-318.5" font-family="Helvetica,sans-Serif" font-size="10.00">&#45;cbmc/diffblue&#45;cbmc/src</text>
<text text-anchor="start" x="186" y="-307.5" font-family="Helvetica,sans-Serif" font-size="10.00">/solvers/smt2_incremental</text>
<text text-anchor="middle" x="252.5" y="-296.5" font-family="Helvetica,sans-Serif" font-size="10.00">/smt_object_size.h</text>
</a>
</g>
</g>
<!-- Node3&#45;&gt;Node16 -->
<g id="edge43" class="edge">
<title>Node3&#45;&gt;Node16</title>
<path fill="none" stroke="midnightblue" d="M754.55,-466.96C649.89,-450.9 419.27,-474.12 340.5,-431 304,-411.01 277.83,-368.8 263.95,-341.59"/>
<polygon fill="midnightblue" stroke="midnightblue" points="754.13,-470.44 764.58,-468.7 755.33,-463.55 754.13,-470.44"/>
</g>
<!-- Node3&#45;&gt;Node17 -->
<g id="edge44" class="edge">
<title>Node3&#45;&gt;Node17</title>
<path fill="none" stroke="midnightblue" d="M924.26,-487.04C976.99,-480.2 1044.11,-464.94 1094.5,-431 1118.54,-414.81 1111.52,-398 1132.5,-378 1146.86,-364.31 1164.68,-351.84 1180.99,-341.77"/>
<polygon fill="midnightblue" stroke="midnightblue" points="923.76,-483.58 914.26,-488.27 924.61,-490.53 923.76,-483.58"/>
</g>
<!-- Node18 -->
<g id="node18" class="node">
<title>Node18</title>
<g id="a_node18"><a xlink:href="smt__responses_8h.html" target="_top" xlink:title=" ">
<polygon fill="none" stroke="black" points="949,-200.5 949,-252.5 1098,-252.5 1098,-200.5 949,-200.5"/>
<text text-anchor="start" x="957" y="-240.5" font-family="Helvetica,sans-Serif" font-size="10.00">/home/runner/work/diffblue</text>
<text text-anchor="start" x="957" y="-229.5" font-family="Helvetica,sans-Serif" font-size="10.00">&#45;cbmc/diffblue&#45;cbmc/src</text>
<text text-anchor="start" x="957" y="-218.5" font-family="Helvetica,sans-Serif" font-size="10.00">/solvers/smt2_incremental</text>
<text text-anchor="middle" x="1023.5" y="-207.5" font-family="Helvetica,sans-Serif" font-size="10.00">/ast/smt_responses.h</text>
</a>
</g>
</g>
<!-- Node3&#45;&gt;Node18 -->
<g id="edge27" class="edge">
<title>Node3&#45;&gt;Node18</title>
<path fill="none" stroke="midnightblue" d="M847.88,-457.29C861.14,-402.58 886.59,-302.03 897.5,-289 911.02,-272.86 929.79,-260.6 948.71,-251.45"/>
<polygon fill="midnightblue" stroke="midnightblue" points="844.41,-456.72 845.47,-467.27 851.22,-458.36 844.41,-456.72"/>
</g>
<!-- Node24 -->
<g id="node24" class="node">
<title>Node24</title>
<g id="a_node24"><a xlink:href="smt__terms_8cpp.html" target="_top" xlink:title=" ">
<polygon fill="none" stroke="black" points="1141,-378.5 1141,-430.5 1290,-430.5 1290,-378.5 1141,-378.5"/>
<text text-anchor="start" x="1149" y="-418.5" font-family="Helvetica,sans-Serif" font-size="10.00">/home/runner/work/diffblue</text>
<text text-anchor="start" x="1149" y="-407.5" font-family="Helvetica,sans-Serif" font-size="10.00">&#45;cbmc/diffblue&#45;cbmc/src</text>
<text text-anchor="start" x="1149" y="-396.5" font-family="Helvetica,sans-Serif" font-size="10.00">/solvers/smt2_incremental</text>
<text text-anchor="middle" x="1215.5" y="-385.5" font-family="Helvetica,sans-Serif" font-size="10.00">/ast/smt_terms.cpp</text>
</a>
</g>
</g>
<!-- Node3&#45;&gt;Node24 -->
<g id="edge37" class="edge">
<title>Node3&#45;&gt;Node24</title>
<path fill="none" stroke="midnightblue" d="M924.27,-476.06C981.84,-464.49 1059.56,-448.08 1127.5,-431 1131.82,-429.91 1136.25,-428.76 1140.71,-427.57"/>
<polygon fill="midnightblue" stroke="midnightblue" points="923.25,-472.7 914.13,-478.09 924.62,-479.56 923.25,-472.7"/>
</g>
<!-- Node25 -->
<g id="node25" class="node">
<title>Node25</title>
<g id="a_node25"><a xlink:href="construct__value__expr__from__smt_8cpp.html" target="_top" xlink:title=" ">
<polygon fill="none" stroke="black" points="1308,-378.5 1308,-430.5 1505,-430.5 1505,-378.5 1308,-378.5"/>
<text text-anchor="start" x="1316" y="-418.5" font-family="Helvetica,sans-Serif" font-size="10.00">/home/runner/work/diffblue</text>
<text text-anchor="start" x="1316" y="-407.5" font-family="Helvetica,sans-Serif" font-size="10.00">&#45;cbmc/diffblue&#45;cbmc/src</text>
<text text-anchor="start" x="1316" y="-396.5" font-family="Helvetica,sans-Serif" font-size="10.00">/solvers/smt2_incremental</text>
<text text-anchor="middle" x="1406.5" y="-385.5" font-family="Helvetica,sans-Serif" font-size="10.00">/construct_value_expr_from_smt.cpp</text>
</a>
</g>
</g>
<!-- Node3&#45;&gt;Node25 -->
<g id="edge38" class="edge">
<title>Node3&#45;&gt;Node25</title>
<path fill="none" stroke="midnightblue" d="M924.52,-483.74C1017.15,-473.59 1169.5,-455.12 1299.5,-431 1302.22,-430.49 1304.98,-429.97 1307.76,-429.42"/>
<polygon fill="midnightblue" stroke="midnightblue" points="923.92,-480.28 914.36,-484.84 924.68,-487.24 923.92,-480.28"/>
</g>
<!-- Node26 -->
<g id="node26" class="node">
<title>Node26</title>
<g id="a_node26"><a xlink:href="smt__array__theory_8h.html" target="_top" xlink:title=" ">
<polygon fill="none" stroke="black" points="1153.5,-106 1153.5,-158 1309.5,-158 1309.5,-106 1153.5,-106"/>
<text text-anchor="start" x="1161.5" y="-146" font-family="Helvetica,sans-Serif" font-size="10.00">/home/runner/work/diffblue</text>
<text text-anchor="start" x="1161.5" y="-135" font-family="Helvetica,sans-Serif" font-size="10.00">&#45;cbmc/diffblue&#45;cbmc/src</text>
<text text-anchor="start" x="1161.5" y="-124" font-family="Helvetica,sans-Serif" font-size="10.00">/solvers/smt2_incremental</text>
<text text-anchor="middle" x="1231.5" y="-113" font-family="Helvetica,sans-Serif" font-size="10.00">/theories/smt_array_theory.h</text>
</a>
</g>
</g>
<!-- Node3&#45;&gt;Node26 -->
<g id="edge45" class="edge">
<title>Node3&#45;&gt;Node26</title>
<path fill="none" stroke="midnightblue" d="M924.11,-491.03C1096.48,-487.16 1475.41,-473.81 1514.5,-431 1608.31,-328.25 1395.01,-209.13 1288.03,-158.2"/>
<polygon fill="midnightblue" stroke="midnightblue" points="923.98,-487.53 914.06,-491.25 924.14,-494.53 923.98,-487.53"/>
</g>
<!-- Node28 -->
<g id="node28" class="node">
<title>Node28</title>
<g id="a_node28"><a xlink:href="smt__bit__vector__theory_8h.html" target="_top" xlink:title=" ">
<polygon fill="none" stroke="black" points="906,-378.5 906,-430.5 1085,-430.5 1085,-378.5 906,-378.5"/>
<text text-anchor="start" x="914" y="-418.5" font-family="Helvetica,sans-Serif" font-size="10.00">/home/runner/work/diffblue</text>
<text text-anchor="start" x="914" y="-407.5" font-family="Helvetica,sans-Serif" font-size="10.00">&#45;cbmc/diffblue&#45;cbmc/src</text>
<text text-anchor="start" x="914" y="-396.5" font-family="Helvetica,sans-Serif" font-size="10.00">/solvers/smt2_incremental</text>
<text text-anchor="middle" x="995.5" y="-385.5" font-family="Helvetica,sans-Serif" font-size="10.00">/theories/smt_bit_vector_theory.h</text>
</a>
</g>
</g>
<!-- Node3&#45;&gt;Node28 -->
<g id="edge50" class="edge">
<title>Node3&#45;&gt;Node28</title>
<path fill="none" stroke="midnightblue" d="M893.56,-462.35C912.13,-452 932.7,-440.52 950.48,-430.61"/>
<polygon fill="midnightblue" stroke="midnightblue" points="891.65,-459.41 884.62,-467.34 895.06,-465.52 891.65,-459.41"/>
</g>
<!-- Node30 -->
<g id="node30" class="node">
<title>Node30</title>
<g id="a_node30"><a xlink:href="smt__core__theory_8h.html" target="_top" xlink:title=" ">
<polygon fill="none" stroke="black" points="449.5,-106 449.5,-158 601.5,-158 601.5,-106 449.5,-106"/>
<text text-anchor="start" x="457.5" y="-146" font-family="Helvetica,sans-Serif" font-size="10.00">/home/runner/work/diffblue</text>
<text text-anchor="start" x="457.5" y="-135" font-family="Helvetica,sans-Serif" font-size="10.00">&#45;cbmc/diffblue&#45;cbmc/src</text>
<text text-anchor="start" x="457.5" y="-124" font-family="Helvetica,sans-Serif" font-size="10.00">/solvers/smt2_incremental</text>
<text text-anchor="middle" x="525.5" y="-113" font-family="Helvetica,sans-Serif" font-size="10.00">/theories/smt_core_theory.h</text>
</a>
</g>
</g>
<!-- Node3&#45;&gt;Node30 -->
<g id="edge53" class="edge">
<title>Node3&#45;&gt;Node30</title>
<path fill="none" stroke="midnightblue" d="M821.4,-458.41C798.15,-416.23 755.06,-343.36 707.5,-289 662.01,-237.01 598.99,-186.85 560.3,-158.01"/>
<polygon fill="midnightblue" stroke="midnightblue" points="818.47,-460.33 826.33,-467.43 824.61,-456.97 818.47,-460.33"/>
</g>
<!-- Node5 -->
<g id="node5" class="node">
<title>Node5</title>
<g id="a_node5"><a xlink:href="smt__commands_8cpp.html" target="_top" xlink:title=" ">
<polygon fill="none" stroke="black" points="549,-289.5 549,-341.5 698,-341.5 698,-289.5 549,-289.5"/>
<text text-anchor="start" x="557" y="-329.5" font-family="Helvetica,sans-Serif" font-size="10.00">/home/runner/work/diffblue</text>
<text text-anchor="start" x="557" y="-318.5" font-family="Helvetica,sans-Serif" font-size="10.00">&#45;cbmc/diffblue&#45;cbmc/src</text>
<text text-anchor="start" x="557" y="-307.5" font-family="Helvetica,sans-Serif" font-size="10.00">/solvers/smt2_incremental</text>
<text text-anchor="middle" x="623.5" y="-296.5" font-family="Helvetica,sans-Serif" font-size="10.00">/ast/smt_commands.cpp</text>
</a>
</g>
</g>
<!-- Node4&#45;&gt;Node5 -->
<g id="edge4" class="edge">
<title>Node4&#45;&gt;Node5</title>
<path fill="none" stroke="midnightblue" d="M634.85,-368.48C632.89,-359.49 630.81,-349.99 628.98,-341.61"/>
<polygon fill="midnightblue" stroke="midnightblue" points="631.45,-369.31 637,-378.34 638.29,-367.82 631.45,-369.31"/>
</g>
<!-- Node4&#45;&gt;Node6 -->
<g id="edge5" class="edge">
<title>Node4&#45;&gt;Node6</title>
<path fill="none" stroke="midnightblue" d="M679.66,-371.26C689.2,-362.22 699.12,-352.09 707.5,-342 727.93,-317.38 843.23,-124.75 863.5,-100 873.87,-87.34 886.41,-74.56 897.94,-63.6"/>
<polygon fill="midnightblue" stroke="midnightblue" points="677.08,-368.88 672.14,-378.25 681.84,-374.01 677.08,-368.88"/>
</g>
<!-- Node4&#45;&gt;Node7 -->
<g id="edge6" class="edge">
<title>Node4&#45;&gt;Node7</title>
<path fill="none" stroke="midnightblue" d="M579.55,-374.06C557.02,-363.52 531.85,-351.75 510.18,-341.61"/>
<polygon fill="midnightblue" stroke="midnightblue" points="578.16,-377.27 588.7,-378.34 581.13,-370.93 578.16,-377.27"/>
</g>
<!-- Node4&#45;&gt;Node16 -->
<g id="edge21" class="edge">
<title>Node4&#45;&gt;Node16</title>
<path fill="none" stroke="midnightblue" d="M557.83,-384.61C489.14,-369.29 393.22,-347.89 327.31,-333.19"/>
<polygon fill="midnightblue" stroke="midnightblue" points="557.24,-388.07 567.77,-386.83 558.77,-381.24 557.24,-388.07"/>
</g>
<!-- Node4&#45;&gt;Node17 -->
<g id="edge26" class="edge">
<title>Node4&#45;&gt;Node17</title>
<path fill="none" stroke="midnightblue" d="M727.04,-394.25C820.27,-383.59 974.55,-364.61 1106.5,-342 1121.52,-339.43 1137.52,-336.32 1152.8,-333.17"/>
<polygon fill="midnightblue" stroke="midnightblue" points="726.64,-390.77 717.1,-395.38 727.43,-397.73 726.64,-390.77"/>
</g>
<!-- Node7&#45;&gt;Node8 -->
<g id="edge7" class="edge">
<title>Node7&#45;&gt;Node8</title>
<path fill="none" stroke="midnightblue" d="M371.89,-296.51C327.73,-285.38 279.94,-270 265.5,-253 243.14,-226.67 242.04,-184.82 244.14,-158.15"/>
<polygon fill="midnightblue" stroke="midnightblue" points="371.29,-299.97 381.83,-298.96 372.96,-293.17 371.29,-299.97"/>
</g>
<!-- Node7&#45;&gt;Node12 -->
<g id="edge12" class="edge">
<title>Node7&#45;&gt;Node12</title>
<path fill="none" stroke="midnightblue" d="M503.45,-283.85C554.76,-250.35 636.48,-196.99 687.73,-163.54"/>
<polygon fill="midnightblue" stroke="midnightblue" points="501.32,-281.06 494.86,-289.45 505.15,-286.92 501.32,-281.06"/>
</g>
<!-- Node14 -->
<g id="node14" class="node">
<title>Node14</title>
<g id="a_node14"><a xlink:href="smt__is__dynamic__object_8cpp.html" target="_top" xlink:title=" ">
<polygon fill="none" stroke="black" points="334,-6 334,-58 489,-58 489,-6 334,-6"/>
<text text-anchor="start" x="342" y="-46" font-family="Helvetica,sans-Serif" font-size="10.00">/home/runner/work/diffblue</text>
<text text-anchor="start" x="342" y="-35" font-family="Helvetica,sans-Serif" font-size="10.00">&#45;cbmc/diffblue&#45;cbmc/src</text>
<text text-anchor="start" x="342" y="-24" font-family="Helvetica,sans-Serif" font-size="10.00">/solvers/smt2_incremental</text>
<text text-anchor="middle" x="411.5" y="-13" font-family="Helvetica,sans-Serif" font-size="10.00">/smt_is_dynamic_object.cpp</text>
</a>
</g>
</g>
<!-- Node7&#45;&gt;Node14 -->
<g id="edge15" class="edge">
<title>Node7&#45;&gt;Node14</title>
<path fill="none" stroke="midnightblue" d="M450.81,-278.91C441.58,-221.16 423.56,-108.46 415.53,-58.22"/>
<polygon fill="midnightblue" stroke="midnightblue" points="447.39,-279.7 452.43,-289.02 454.3,-278.6 447.39,-279.7"/>
</g>
<!-- Node7&#45;&gt;Node15 -->
<g id="edge16" class="edge">
<title>Node7&#45;&gt;Node15</title>
<path fill="none" stroke="midnightblue" d="M417.68,-282.93C405.41,-272.96 392.02,-262.07 380.38,-252.61"/>
<polygon fill="midnightblue" stroke="midnightblue" points="415.58,-285.74 425.55,-289.34 420,-280.31 415.58,-285.74"/>
</g>
<!-- Node8&#45;&gt;Node6 -->
<g id="edge9" class="edge">
<title>Node8&#45;&gt;Node6</title>
<path fill="none" stroke="midnightblue" d="M332.27,-116.05C365.89,-110.47 404.95,-104.43 440.5,-100 620.26,-77.62 669.6,-103.04 846.5,-64 849.44,-63.35 852.43,-62.63 855.42,-61.84"/>
<polygon fill="midnightblue" stroke="midnightblue" points="331.31,-112.67 322.02,-117.77 332.46,-119.57 331.31,-112.67"/>
</g>
<!-- Node9 -->
<g id="node9" class="node">
<title>Node9</title>
<g id="a_node9"><a xlink:href="convert__expr__to__smt_8cpp.html" target="_top" xlink:title=" ">
<polygon fill="none" stroke="black" points="688,-6 688,-58 837,-58 837,-6 688,-6"/>
<text text-anchor="start" x="696" y="-46" font-family="Helvetica,sans-Serif" font-size="10.00">/home/runner/work/diffblue</text>
<text text-anchor="start" x="696" y="-35" font-family="Helvetica,sans-Serif" font-size="10.00">&#45;cbmc/diffblue&#45;cbmc/src</text>
<text text-anchor="start" x="696" y="-24" font-family="Helvetica,sans-Serif" font-size="10.00">/solvers/smt2_incremental</text>
<text text-anchor="middle" x="762.5" y="-13" font-family="Helvetica,sans-Serif" font-size="10.00">/convert_expr_to_smt.cpp</text>
</a>
</g>
</g>
<!-- Node8&#45;&gt;Node9 -->
<g id="edge8" class="edge">
<title>Node8&#45;&gt;Node9</title>
<path fill="none" stroke="midnightblue" d="M332.43,-117.18C366.07,-111.75 405.1,-105.51 440.5,-100 546.64,-83.48 575.51,-90.94 679.5,-64 686.05,-62.3 692.8,-60.27 699.49,-58.08"/>
<polygon fill="midnightblue" stroke="midnightblue" points="331.48,-113.78 322.17,-118.83 332.6,-120.69 331.48,-113.78"/>
</g>
<!-- Node10 -->
<g id="node10" class="node">
<title>Node10</title>
<g id="a_node10"><a xlink:href="smt__object__size_8cpp.html" target="_top" xlink:title=" ">
<polygon fill="none" stroke="black" points="0,-6 0,-58 149,-58 149,-6 0,-6"/>
<text text-anchor="start" x="8" y="-46" font-family="Helvetica,sans-Serif" font-size="10.00">/home/runner/work/diffblue</text>
<text text-anchor="start" x="8" y="-35" font-family="Helvetica,sans-Serif" font-size="10.00">&#45;cbmc/diffblue&#45;cbmc/src</text>
<text text-anchor="start" x="8" y="-24" font-family="Helvetica,sans-Serif" font-size="10.00">/solvers/smt2_incremental</text>
<text text-anchor="middle" x="74.5" y="-13" font-family="Helvetica,sans-Serif" font-size="10.00">/smt_object_size.cpp</text>
</a>
</g>
</g>
<!-- Node8&#45;&gt;Node10 -->
<g id="edge10" class="edge">
<title>Node8&#45;&gt;Node10</title>
<path fill="none" stroke="midnightblue" d="M193.94,-100.66C169.86,-87.02 141.78,-71.11 118.9,-58.15"/>
<polygon fill="midnightblue" stroke="midnightblue" points="192.52,-103.88 202.95,-105.76 195.97,-97.79 192.52,-103.88"/>
</g>
<!-- Node11 -->
<g id="node11" class="node">
<title>Node11</title>
<g id="a_node11"><a xlink:href="type__size__mapping_8cpp.html" target="_top" xlink:title=" ">
<polygon fill="none" stroke="black" points="167,-6 167,-58 316,-58 316,-6 167,-6"/>
<text text-anchor="start" x="175" y="-46" font-family="Helvetica,sans-Serif" font-size="10.00">/home/runner/work/diffblue</text>
<text text-anchor="start" x="175" y="-35" font-family="Helvetica,sans-Serif" font-size="10.00">&#45;cbmc/diffblue&#45;cbmc/src</text>
<text text-anchor="start" x="175" y="-24" font-family="Helvetica,sans-Serif" font-size="10.00">/solvers/smt2_incremental</text>
<text text-anchor="middle" x="241.5" y="-13" font-family="Helvetica,sans-Serif" font-size="10.00">/type_size_mapping.cpp</text>
</a>
</g>
</g>
<!-- Node8&#45;&gt;Node11 -->
<g id="edge11" class="edge">
<title>Node8&#45;&gt;Node11</title>
<path fill="none" stroke="midnightblue" d="M245.34,-95.7C244.58,-83.28 243.74,-69.57 243.04,-58.15"/>
<polygon fill="midnightblue" stroke="midnightblue" points="241.85,-96 245.95,-105.76 248.84,-95.57 241.85,-96"/>
</g>
<!-- Node12&#45;&gt;Node6 -->
<g id="edge14" class="edge">
<title>Node12&#45;&gt;Node6</title>
<path fill="none" stroke="midnightblue" d="M805.37,-95.92C826.76,-85.34 850.05,-73.81 870.79,-63.54"/>
<polygon fill="midnightblue" stroke="midnightblue" points="803.74,-92.82 796.33,-100.4 806.85,-99.1 803.74,-92.82"/>
</g>
<!-- Node13 -->
<g id="node13" class="node">
<title>Node13</title>
<g id="a_node13"><a xlink:href="solver__factory_8cpp.html" target="_top" xlink:title="Solver Factory.">
<polygon fill="none" stroke="black" points="1213.5,-11.5 1213.5,-52.5 1387.5,-52.5 1387.5,-11.5 1213.5,-11.5"/>
<text text-anchor="start" x="1221.5" y="-40.5" font-family="Helvetica,sans-Serif" font-size="10.00">/home/runner/work/diffblue</text>
<text text-anchor="start" x="1221.5" y="-29.5" font-family="Helvetica,sans-Serif" font-size="10.00">&#45;cbmc/diffblue&#45;cbmc/src</text>
<text text-anchor="middle" x="1300.5" y="-18.5" font-family="Helvetica,sans-Serif" font-size="10.00">/goto&#45;checker/solver_factory.cpp</text>
</a>
</g>
</g>
<!-- Node12&#45;&gt;Node13 -->
<g id="edge13" class="edge">
<title>Node12&#45;&gt;Node13</title>
<path fill="none" stroke="midnightblue" d="M821.89,-117.58C858.52,-112.02 901.56,-105.58 940.5,-100 1057.72,-83.19 1089.04,-90.3 1204.5,-64 1217.99,-60.93 1232.3,-56.8 1245.63,-52.56"/>
<polygon fill="midnightblue" stroke="midnightblue" points="821.1,-114.16 811.74,-119.12 822.15,-121.08 821.1,-114.16"/>
</g>
<!-- Node15&#45;&gt;Node6 -->
<g id="edge18" class="edge">
<title>Node15&#45;&gt;Node6</title>
<path fill="none" stroke="midnightblue" d="M434.38,-198.7C511.23,-181.81 545.92,-209.63 610.5,-164 637.52,-144.91 621.34,-118.88 648.5,-100 721.94,-48.95 760.13,-87.25 846.5,-64 849.41,-63.22 852.37,-62.38 855.34,-61.5"/>
<polygon fill="midnightblue" stroke="midnightblue" points="433.19,-195.38 424.28,-201.12 434.82,-202.19 433.19,-195.38"/>
</g>
<!-- Node15&#45;&gt;Node8 -->
<g id="edge17" class="edge">
<title>Node15&#45;&gt;Node8</title>
<path fill="none" stroke="midnightblue" d="M314.16,-193.45C301.38,-181.86 287.15,-168.95 275.12,-158.05"/>
<polygon fill="midnightblue" stroke="midnightblue" points="312.14,-196.34 321.9,-200.47 316.84,-191.16 312.14,-196.34"/>
</g>
<!-- Node15&#45;&gt;Node11 -->
<g id="edge20" class="edge">
<title>Node15&#45;&gt;Node11</title>
<path fill="none" stroke="midnightblue" d="M351.11,-190.05C350.73,-163.5 346.75,-127.23 330.5,-100 320.39,-83.06 304.21,-68.98 288.4,-58.17"/>
<polygon fill="midnightblue" stroke="midnightblue" points="347.61,-190.05 351.09,-200.06 354.61,-190.07 347.61,-190.05"/>
</g>
<!-- Node15&#45;&gt;Node12 -->
<g id="edge19" class="edge">
<title>Node15&#45;&gt;Node12</title>
<path fill="none" stroke="midnightblue" d="M434.23,-200.77C435.32,-200.51 436.42,-200.25 437.5,-200 528.05,-179.03 553.46,-187.05 643.5,-164 648.03,-162.84 652.65,-161.56 657.3,-160.21"/>
<polygon fill="midnightblue" stroke="midnightblue" points="433.11,-197.44 424.25,-203.24 434.79,-204.23 433.11,-197.44"/>
</g>
<!-- Node16&#45;&gt;Node8 -->
<g id="edge22" class="edge">
<title>Node16&#45;&gt;Node8</title>
<path fill="none" stroke="midnightblue" d="M239.78,-279.73C237.18,-271.11 234.83,-261.82 233.5,-253 228.58,-220.44 234.96,-182.68 240.63,-158.35"/>
<polygon fill="midnightblue" stroke="midnightblue" points="236.51,-281.01 242.9,-289.46 243.18,-278.87 236.51,-281.01"/>
</g>
<!-- Node16&#45;&gt;Node10 -->
<g id="edge24" class="edge">
<title>Node16&#45;&gt;Node10</title>
<path fill="none" stroke="midnightblue" d="M230.89,-280.33C194.66,-223.03 122.48,-108.87 90.45,-58.22"/>
<polygon fill="midnightblue" stroke="midnightblue" points="228.09,-282.44 236.39,-289.02 234,-278.7 228.09,-282.44"/>
</g>
<!-- Node16&#45;&gt;Node12 -->
<g id="edge23" class="edge">
<title>Node16&#45;&gt;Node12</title>
<path fill="none" stroke="midnightblue" d="M336.8,-287.56C367.2,-277.36 401.61,-265.24 432.5,-253 485.57,-231.97 496.62,-221.51 549.5,-200 584.62,-185.71 624.07,-171.22 657.48,-159.38"/>
<polygon fill="midnightblue" stroke="midnightblue" points="335.46,-284.32 327.09,-290.8 337.68,-290.96 335.46,-284.32"/>
</g>
<!-- Node16&#45;&gt;Node15 -->
<g id="edge25" class="edge">
<title>Node16&#45;&gt;Node15</title>
<path fill="none" stroke="midnightblue" d="M288.01,-282.65C299.05,-272.75 311.06,-261.98 321.51,-252.61"/>
<polygon fill="midnightblue" stroke="midnightblue" points="285.66,-280.05 280.56,-289.34 290.34,-285.26 285.66,-280.05"/>
</g>
<!-- Node18&#45;&gt;Node6 -->
<g id="edge29" class="edge">
<title>Node18&#45;&gt;Node6</title>
<path fill="none" stroke="midnightblue" d="M966.94,-194.17C956.46,-185.76 946.84,-175.68 940.5,-164 923.66,-132.96 924.28,-91.48 927.39,-63.59"/>
<polygon fill="midnightblue" stroke="midnightblue" points="964.98,-197.08 975.08,-200.28 969.18,-191.48 964.98,-197.08"/>
</g>
<!-- Node19 -->
<g id="node19" class="node">
<title>Node19</title>
<g id="a_node19"><a xlink:href="smt__responses_8cpp.html" target="_top" xlink:title=" ">
<polygon fill="none" stroke="black" points="949,-106 949,-158 1098,-158 1098,-106 949,-106"/>
<text text-anchor="start" x="957" y="-146" font-family="Helvetica,sans-Serif" font-size="10.00">/home/runner/work/diffblue</text>
<text text-anchor="start" x="957" y="-135" font-family="Helvetica,sans-Serif" font-size="10.00">&#45;cbmc/diffblue&#45;cbmc/src</text>
<text text-anchor="start" x="957" y="-124" font-family="Helvetica,sans-Serif" font-size="10.00">/solvers/smt2_incremental</text>
<text text-anchor="middle" x="1023.5" y="-113" font-family="Helvetica,sans-Serif" font-size="10.00">/ast/smt_responses.cpp</text>
</a>
</g>
</g>
<!-- Node18&#45;&gt;Node19 -->
<g id="edge28" class="edge">
<title>Node18&#45;&gt;Node19</title>
<path fill="none" stroke="midnightblue" d="M1023.5,-189.99C1023.5,-179.41 1023.5,-168.03 1023.5,-158.25"/>
<polygon fill="midnightblue" stroke="midnightblue" points="1020,-190.22 1023.5,-200.22 1027,-190.22 1020,-190.22"/>
</g>
<!-- Node20 -->
<g id="node20" class="node">
<title>Node20</title>
<g id="a_node20"><a xlink:href="smt__response__validation_8h.html" target="_top" xlink:title=" ">
<polygon fill="none" stroke="black" points="1495,-106 1495,-158 1646,-158 1646,-106 1495,-106"/>
<text text-anchor="start" x="1503" y="-146" font-family="Helvetica,sans-Serif" font-size="10.00">/home/runner/work/diffblue</text>
<text text-anchor="start" x="1503" y="-135" font-family="Helvetica,sans-Serif" font-size="10.00">&#45;cbmc/diffblue&#45;cbmc/src</text>
<text text-anchor="start" x="1503" y="-124" font-family="Helvetica,sans-Serif" font-size="10.00">/solvers/smt2_incremental</text>
<text text-anchor="middle" x="1570.5" y="-113" font-family="Helvetica,sans-Serif" font-size="10.00">/smt_response_validation.h</text>
</a>
</g>
</g>
<!-- Node18&#45;&gt;Node20 -->
<g id="edge30" class="edge">
<title>Node18&#45;&gt;Node20</title>
<path fill="none" stroke="midnightblue" d="M1108.21,-219.9C1201.85,-212.41 1356.64,-196.16 1486.5,-164 1493.29,-162.32 1500.29,-160.27 1507.21,-158.04"/>
<polygon fill="midnightblue" stroke="midnightblue" points="1107.91,-216.42 1098.22,-220.69 1108.46,-223.39 1107.91,-216.42"/>
</g>
<!-- Node23 -->
<g id="node23" class="node">
<title>Node23</title>
<g id="a_node23"><a xlink:href="smt__solver__process_8h.html" target="_top" xlink:title=" ">
<polygon fill="none" stroke="black" points="1328,-106 1328,-158 1477,-158 1477,-106 1328,-106"/>
<text text-anchor="start" x="1336" y="-146" font-family="Helvetica,sans-Serif" font-size="10.00">/home/runner/work/diffblue</text>
<text text-anchor="start" x="1336" y="-135" font-family="Helvetica,sans-Serif" font-size="10.00">&#45;cbmc/diffblue&#45;cbmc/src</text>
<text text-anchor="start" x="1336" y="-124" font-family="Helvetica,sans-Serif" font-size="10.00">/solvers/smt2_incremental</text>
<text text-anchor="middle" x="1402.5" y="-113" font-family="Helvetica,sans-Serif" font-size="10.00">/smt_solver_process.h</text>
</a>
</g>
</g>
<!-- Node18&#45;&gt;Node23 -->
<g id="edge33" class="edge">
<title>Node18&#45;&gt;Node23</title>
<path fill="none" stroke="midnightblue" d="M1108.28,-211.27C1167.68,-200.46 1248.62,-184.06 1318.5,-164 1324.63,-162.24 1330.94,-160.25 1337.24,-158.15"/>
<polygon fill="midnightblue" stroke="midnightblue" points="1107.42,-207.87 1098.2,-213.09 1108.66,-214.76 1107.42,-207.87"/>
</g>
<!-- Node21 -->
<g id="node21" class="node">
<title>Node21</title>
<g id="a_node21"><a xlink:href="smt__response__validation_8cpp.html" target="_top" xlink:title="Validation of smt response parse trees to produce either a strongly typed smt_responset representatio...">
<polygon fill="none" stroke="black" points="1405.5,-6 1405.5,-58 1567.5,-58 1567.5,-6 1405.5,-6"/>
<text text-anchor="start" x="1413.5" y="-46" font-family="Helvetica,sans-Serif" font-size="10.00">/home/runner/work/diffblue</text>
<text text-anchor="start" x="1413.5" y="-35" font-family="Helvetica,sans-Serif" font-size="10.00">&#45;cbmc/diffblue&#45;cbmc/src</text>
<text text-anchor="start" x="1413.5" y="-24" font-family="Helvetica,sans-Serif" font-size="10.00">/solvers/smt2_incremental</text>
<text text-anchor="middle" x="1486.5" y="-13" font-family="Helvetica,sans-Serif" font-size="10.00">/smt_response_validation.cpp</text>
</a>
</g>
</g>
<!-- Node20&#45;&gt;Node21 -->
<g id="edge31" class="edge">
<title>Node20&#45;&gt;Node21</title>
<path fill="none" stroke="midnightblue" d="M1542.15,-97.93C1531.01,-84.93 1518.43,-70.26 1508.06,-58.15"/>
<polygon fill="midnightblue" stroke="midnightblue" points="1539.7,-100.45 1548.87,-105.76 1545.02,-95.89 1539.7,-100.45"/>
</g>
<!-- Node22 -->
<g id="node22" class="node">
<title>Node22</title>
<g id="a_node22"><a xlink:href="smt__solver__process_8cpp.html" target="_top" xlink:title=" ">
<polygon fill="none" stroke="black" points="1586,-6 1586,-58 1735,-58 1735,-6 1586,-6"/>
<text text-anchor="start" x="1594" y="-46" font-family="Helvetica,sans-Serif" font-size="10.00">/home/runner/work/diffblue</text>
<text text-anchor="start" x="1594" y="-35" font-family="Helvetica,sans-Serif" font-size="10.00">&#45;cbmc/diffblue&#45;cbmc/src</text>
<text text-anchor="start" x="1594" y="-24" font-family="Helvetica,sans-Serif" font-size="10.00">/solvers/smt2_incremental</text>
<text text-anchor="middle" x="1660.5" y="-13" font-family="Helvetica,sans-Serif" font-size="10.00">/smt_solver_process.cpp</text>
</a>
</g>
</g>
<!-- Node20&#45;&gt;Node22 -->
<g id="edge32" class="edge">
<title>Node20&#45;&gt;Node22</title>
<path fill="none" stroke="midnightblue" d="M1600.54,-98.29C1612.56,-85.21 1626.18,-70.37 1637.4,-58.15"/>
<polygon fill="midnightblue" stroke="midnightblue" points="1597.86,-96.03 1593.68,-105.76 1603.02,-100.76 1597.86,-96.03"/>
</g>
<!-- Node23&#45;&gt;Node6 -->
<g id="edge35" class="edge">
<title>Node23&#45;&gt;Node6</title>
<path fill="none" stroke="midnightblue" d="M1329.47,-102.91C1325.78,-101.85 1322.11,-100.87 1318.5,-100 1188.38,-68.62 1149.79,-94.65 1019.5,-64 1016.22,-63.23 1012.9,-62.38 1009.55,-61.46"/>
<polygon fill="midnightblue" stroke="midnightblue" points="1328.65,-106.32 1339.23,-105.88 1330.68,-99.62 1328.65,-106.32"/>
</g>
<!-- Node23&#45;&gt;Node13 -->
<g id="edge34" class="edge">
<title>Node23&#45;&gt;Node13</title>
<path fill="none" stroke="midnightblue" d="M1368.7,-98.52C1352.88,-83.32 1334.55,-65.72 1320.88,-52.59"/>
<polygon fill="midnightblue" stroke="midnightblue" points="1366.6,-101.36 1376.23,-105.76 1371.45,-96.31 1366.6,-101.36"/>
</g>
<!-- Node23&#45;&gt;Node22 -->
<g id="edge36" class="edge">
<title>Node23&#45;&gt;Node22</title>
<path fill="none" stroke="midnightblue" d="M1478.31,-102.2C1515.19,-88.2 1559.1,-71.52 1594.57,-58.04"/>
<polygon fill="midnightblue" stroke="midnightblue" points="1476.71,-99.07 1468.61,-105.89 1479.2,-105.61 1476.71,-99.07"/>
</g>
<!-- Node26&#45;&gt;Node6 -->
<g id="edge47" class="edge">
<title>Node26&#45;&gt;Node6</title>
<path fill="none" stroke="midnightblue" d="M1148.38,-102.85C1145.38,-101.88 1142.42,-100.93 1139.5,-100 1086.44,-83.11 1072.41,-81.35 1019.5,-64 1016.3,-62.95 1013.04,-61.87 1009.75,-60.76"/>
<polygon fill="midnightblue" stroke="midnightblue" points="1147.41,-106.22 1158.01,-105.99 1149.58,-99.56 1147.41,-106.22"/>
</g>
<!-- Node26&#45;&gt;Node9 -->
<g id="edge46" class="edge">
<title>Node26&#45;&gt;Node9</title>
<path fill="none" stroke="midnightblue" d="M1152.15,-103.15C1147.9,-102.01 1143.66,-100.95 1139.5,-100 1011.57,-70.9 974.01,-94.92 846.5,-64 839.7,-62.35 832.7,-60.32 825.77,-58.1"/>
<polygon fill="midnightblue" stroke="midnightblue" points="1151.53,-106.61 1162.1,-105.96 1153.43,-99.88 1151.53,-106.61"/>
</g>
<!-- Node26&#45;&gt;Node21 -->
<g id="edge48" class="edge">
<title>Node26&#45;&gt;Node21</title>
<path fill="none" stroke="midnightblue" d="M1306.43,-102.2C1342.88,-88.2 1386.28,-71.52 1421.33,-58.04"/>
<polygon fill="midnightblue" stroke="midnightblue" points="1304.92,-99.04 1296.84,-105.89 1307.43,-105.57 1304.92,-99.04"/>
</g>
<!-- Node27 -->
<g id="node27" class="node">
<title>Node27</title>
<g id="a_node27"><a xlink:href="smt__array__theory_8cpp.html" target="_top" xlink:title=" ">
<polygon fill="none" stroke="black" points="1028,-6 1028,-58 1195,-58 1195,-6 1028,-6"/>
<text text-anchor="start" x="1036" y="-46" font-family="Helvetica,sans-Serif" font-size="10.00">/home/runner/work/diffblue</text>
<text text-anchor="start" x="1036" y="-35" font-family="Helvetica,sans-Serif" font-size="10.00">&#45;cbmc/diffblue&#45;cbmc/src</text>
<text text-anchor="start" x="1036" y="-24" font-family="Helvetica,sans-Serif" font-size="10.00">/solvers/smt2_incremental</text>
<text text-anchor="middle" x="1111.5" y="-13" font-family="Helvetica,sans-Serif" font-size="10.00">/theories/smt_array_theory.cpp</text>
</a>
</g>
</g>
<!-- Node26&#45;&gt;Node27 -->
<g id="edge49" class="edge">
<title>Node26&#45;&gt;Node27</title>
<path fill="none" stroke="midnightblue" d="M1192.79,-99.39C1176.45,-86.04 1157.68,-70.71 1142.3,-58.15"/>
<polygon fill="midnightblue" stroke="midnightblue" points="1190.64,-102.15 1200.6,-105.76 1195.07,-96.73 1190.64,-102.15"/>
</g>
<!-- Node28&#45;&gt;Node9 -->
<g id="edge51" class="edge">
<title>Node28&#45;&gt;Node9</title>
<path fill="none" stroke="midnightblue" d="M1075.51,-373.02C1087.85,-364.81 1098.98,-354.6 1106.5,-342 1123.28,-313.88 1132.75,-128.97 1107.5,-100 1069.03,-55.86 903.3,-78.22 846.5,-64 839.71,-62.3 832.72,-60.24 825.8,-58"/>
<polygon fill="midnightblue" stroke="midnightblue" points="1073.48,-370.16 1066.8,-378.39 1077.15,-376.12 1073.48,-370.16"/>
</g>
<!-- Node29 -->
<g id="node29" class="node">
<title>Node29</title>
<g id="a_node29"><a xlink:href="smt__bit__vector__theory_8cpp.html" target="_top" xlink:title=" ">
<polygon fill="none" stroke="black" points="906,-289.5 906,-341.5 1097,-341.5 1097,-289.5 906,-289.5"/>
<text text-anchor="start" x="914" y="-329.5" font-family="Helvetica,sans-Serif" font-size="10.00">/home/runner/work/diffblue</text>
<text text-anchor="start" x="914" y="-318.5" font-family="Helvetica,sans-Serif" font-size="10.00">&#45;cbmc/diffblue&#45;cbmc/src</text>
<text text-anchor="start" x="914" y="-307.5" font-family="Helvetica,sans-Serif" font-size="10.00">/solvers/smt2_incremental</text>
<text text-anchor="middle" x="1001.5" y="-296.5" font-family="Helvetica,sans-Serif" font-size="10.00">/theories/smt_bit_vector_theory.cpp</text>
</a>
</g>
</g>
<!-- Node28&#45;&gt;Node29 -->
<g id="edge52" class="edge">
<title>Node28&#45;&gt;Node29</title>
<path fill="none" stroke="midnightblue" d="M997.94,-368.19C998.55,-359.28 999.2,-349.9 999.77,-341.61"/>
<polygon fill="midnightblue" stroke="midnightblue" points="994.43,-368.12 997.24,-378.34 1001.42,-368.6 994.43,-368.12"/>
</g>
<!-- Node30&#45;&gt;Node6 -->
<g id="edge55" class="edge">
<title>Node30&#45;&gt;Node6</title>
<path fill="none" stroke="midnightblue" d="M604.03,-103.05C607.89,-101.96 611.73,-100.94 615.5,-100 716.35,-74.98 745.83,-89.74 846.5,-64 849.42,-63.25 852.38,-62.45 855.36,-61.59"/>
<polygon fill="midnightblue" stroke="midnightblue" points="603.02,-99.7 594.41,-105.88 604.99,-106.42 603.02,-99.7"/>
</g>
<!-- Node30&#45;&gt;Node9 -->
<g id="edge54" class="edge">
<title>Node30&#45;&gt;Node9</title>
<path fill="none" stroke="midnightblue" d="M595.57,-102.02C629.36,-88.05 669.49,-71.46 701.93,-58.04"/>
<polygon fill="midnightblue" stroke="midnightblue" points="594.13,-98.83 586.23,-105.89 596.8,-105.3 594.13,-98.83"/>
</g>
<!-- Node30&#45;&gt;Node10 -->
<g id="edge57" class="edge">
<title>Node30&#45;&gt;Node10</title>
<path fill="none" stroke="midnightblue" d="M439.14,-117.1C347.6,-102.03 209.25,-78.25 157.5,-64 151.12,-62.24 144.55,-60.2 138.02,-58.02"/>
<polygon fill="midnightblue" stroke="midnightblue" points="438.8,-120.59 449.23,-118.75 439.93,-113.68 438.8,-120.59"/>
</g>
<!-- Node30&#45;&gt;Node14 -->
<g id="edge56" class="edge">
<title>Node30&#45;&gt;Node14</title>
<path fill="none" stroke="midnightblue" d="M488.3,-99.02C472.88,-85.76 455.24,-70.6 440.76,-58.15"/>
<polygon fill="midnightblue" stroke="midnightblue" points="486.28,-101.9 496.14,-105.76 490.84,-96.59 486.28,-101.9"/>
</g>
<!-- Node31 -->
<g id="node31" class="node">
<title>Node31</title>
<g id="a_node31"><a xlink:href="smt__core__theory_8cpp.html" target="_top" xlink:title=" ">
<polygon fill="none" stroke="black" points="507,-6 507,-58 670,-58 670,-6 507,-6"/>
<text text-anchor="start" x="515" y="-46" font-family="Helvetica,sans-Serif" font-size="10.00">/home/runner/work/diffblue</text>
<text text-anchor="start" x="515" y="-35" font-family="Helvetica,sans-Serif" font-size="10.00">&#45;cbmc/diffblue&#45;cbmc/src</text>
<text text-anchor="start" x="515" y="-24" font-family="Helvetica,sans-Serif" font-size="10.00">/solvers/smt2_incremental</text>
<text text-anchor="middle" x="588.5" y="-13" font-family="Helvetica,sans-Serif" font-size="10.00">/theories/smt_core_theory.cpp</text>
</a>
</g>
</g>
<!-- Node30&#45;&gt;Node31 -->
<g id="edge58" class="edge">
<title>Node30&#45;&gt;Node31</title>
<path fill="none" stroke="midnightblue" d="M547.24,-97.19C555.47,-84.38 564.7,-70.03 572.33,-58.15"/>
<polygon fill="midnightblue" stroke="midnightblue" points="544.19,-95.46 541.72,-105.76 550.08,-99.24 544.19,-95.46"/>
</g>
</g>
</svg>
