<?xml version="1.0" encoding="UTF-8" standalone="no"?>
<!DOCTYPE svg PUBLIC "-//W3C//DTD SVG 1.1//EN"
 "http://www.w3.org/Graphics/SVG/1.1/DTD/svg11.dtd">
<!-- Generated by graphviz version 2.43.0 (0)
 -->
<!-- Title: /home/runner/work/diffblue&#45;cbmc/diffblue&#45;cbmc/src/solvers/smt2_incremental/ast/smt_options.h Pages: 1 -->
<svg width="945pt" height="528pt"
 viewBox="0.00 0.00 945.00 528.00" xmlns="http://www.w3.org/2000/svg" xmlns:xlink="http://www.w3.org/1999/xlink">
<g id="graph0" class="graph" transform="scale(1 1) rotate(0) translate(4 524)">
<title>/home/runner/work/diffblue&#45;cbmc/diffblue&#45;cbmc/src/solvers/smt2_incremental/ast/smt_options.h</title>
<!-- Node1 -->
<g id="node1" class="node">
<title>Node1</title>
<g id="a_node1"><a xlink:title=" ">
<polygon fill="#bfbfbf" stroke="black" points="339,-467.5 339,-519.5 488,-519.5 488,-467.5 339,-467.5"/>
<text text-anchor="start" x="347" y="-507.5" font-family="Helvetica,sans-Serif" font-size="10.00">/home/runner/work/diffblue</text>
<text text-anchor="start" x="347" y="-496.5" font-family="Helvetica,sans-Serif" font-size="10.00">&#45;cbmc/diffblue&#45;cbmc/src</text>
<text text-anchor="start" x="347" y="-485.5" font-family="Helvetica,sans-Serif" font-size="10.00">/solvers/smt2_incremental</text>
<text text-anchor="middle" x="413.5" y="-474.5" font-family="Helvetica,sans-Serif" font-size="10.00">/ast/smt_options.h</text>
</a>
</g>
</g>
<!-- Node2 -->
<g id="node2" class="node">
<title>Node2</title>
<g id="a_node2"><a xlink:href="smt__commands_8h.html" target="_top" xlink:title=" ">
<polygon fill="none" stroke="black" points="256,-378.5 256,-430.5 405,-430.5 405,-378.5 256,-378.5"/>
<text text-anchor="start" x="264" y="-418.5" font-family="Helvetica,sans-Serif" font-size="10.00">/home/runner/work/diffblue</text>
<text text-anchor="start" x="264" y="-407.5" font-family="Helvetica,sans-Serif" font-size="10.00">&#45;cbmc/diffblue&#45;cbmc/src</text>
<text text-anchor="start" x="264" y="-396.5" font-family="Helvetica,sans-Serif" font-size="10.00">/solvers/smt2_incremental</text>
<text text-anchor="middle" x="330.5" y="-385.5" font-family="Helvetica,sans-Serif" font-size="10.00">/ast/smt_commands.h</text>
</a>
</g>
</g>
<!-- Node1&#45;&gt;Node2 -->
<g id="edge1" class="edge">
<title>Node1&#45;&gt;Node2</title>
<path fill="none" stroke="midnightblue" d="M382.57,-460.08C373.27,-450.34 363.22,-439.8 354.45,-430.61"/>
<polygon fill="midnightblue" stroke="midnightblue" points="380.06,-462.52 389.49,-467.34 385.12,-457.68 380.06,-462.52"/>
</g>
<!-- Node16 -->
<g id="node16" class="node">
<title>Node16</title>
<g id="a_node16"><a xlink:href="smt__options_8cpp.html" target="_top" xlink:title=" ">
<polygon fill="none" stroke="black" points="423,-378.5 423,-430.5 572,-430.5 572,-378.5 423,-378.5"/>
<text text-anchor="start" x="431" y="-418.5" font-family="Helvetica,sans-Serif" font-size="10.00">/home/runner/work/diffblue</text>
<text text-anchor="start" x="431" y="-407.5" font-family="Helvetica,sans-Serif" font-size="10.00">&#45;cbmc/diffblue&#45;cbmc/src</text>
<text text-anchor="start" x="431" y="-396.5" font-family="Helvetica,sans-Serif" font-size="10.00">/solvers/smt2_incremental</text>
<text text-anchor="middle" x="497.5" y="-385.5" font-family="Helvetica,sans-Serif" font-size="10.00">/ast/smt_options.cpp</text>
</a>
</g>
</g>
<!-- Node1&#45;&gt;Node16 -->
<g id="edge25" class="edge">
<title>Node1&#45;&gt;Node16</title>
<path fill="none" stroke="midnightblue" d="M444.81,-460.08C454.21,-450.34 464.38,-439.8 473.26,-430.61"/>
<polygon fill="midnightblue" stroke="midnightblue" points="442.22,-457.71 437.8,-467.34 447.26,-462.57 442.22,-457.71"/>
</g>
<!-- Node3 -->
<g id="node3" class="node">
<title>Node3</title>
<g id="a_node3"><a xlink:href="smt__commands_8cpp.html" target="_top" xlink:title=" ">
<polygon fill="none" stroke="black" points="0,-289.5 0,-341.5 149,-341.5 149,-289.5 0,-289.5"/>
<text text-anchor="start" x="8" y="-329.5" font-family="Helvetica,sans-Serif" font-size="10.00">/home/runner/work/diffblue</text>
<text text-anchor="start" x="8" y="-318.5" font-family="Helvetica,sans-Serif" font-size="10.00">&#45;cbmc/diffblue&#45;cbmc/src</text>
<text text-anchor="start" x="8" y="-307.5" font-family="Helvetica,sans-Serif" font-size="10.00">/solvers/smt2_incremental</text>
<text text-anchor="middle" x="74.5" y="-296.5" font-family="Helvetica,sans-Serif" font-size="10.00">/ast/smt_commands.cpp</text>
</a>
</g>
</g>
<!-- Node2&#45;&gt;Node3 -->
<g id="edge2" class="edge">
<title>Node2&#45;&gt;Node3</title>
<path fill="none" stroke="midnightblue" d="M247.04,-375.14C215.15,-364.3 179.04,-352.03 148.13,-341.52"/>
<polygon fill="midnightblue" stroke="midnightblue" points="246.2,-378.55 256.8,-378.45 248.46,-371.92 246.2,-378.55"/>
</g>
<!-- Node4 -->
<g id="node4" class="node">
<title>Node4</title>
<g id="a_node4"><a xlink:href="smt2__incremental__decision__procedure_8cpp.html" target="_top" xlink:title=" ">
<polygon fill="none" stroke="black" points="281.5,-0.5 281.5,-63.5 435.5,-63.5 435.5,-0.5 281.5,-0.5"/>
<text text-anchor="start" x="289.5" y="-51.5" font-family="Helvetica,sans-Serif" font-size="10.00">/home/runner/work/diffblue</text>
<text text-anchor="start" x="289.5" y="-40.5" font-family="Helvetica,sans-Serif" font-size="10.00">&#45;cbmc/diffblue&#45;cbmc/src</text>
<text text-anchor="start" x="289.5" y="-29.5" font-family="Helvetica,sans-Serif" font-size="10.00">/solvers/smt2_incremental</text>
<text text-anchor="start" x="289.5" y="-18.5" font-family="Helvetica,sans-Serif" font-size="10.00">/smt2_incremental_decision</text>
<text text-anchor="middle" x="358.5" y="-7.5" font-family="Helvetica,sans-Serif" font-size="10.00">_procedure.cpp</text>
</a>
</g>
</g>
<!-- Node2&#45;&gt;Node4 -->
<g id="edge3" class="edge">
<title>Node2&#45;&gt;Node4</title>
<path fill="none" stroke="midnightblue" d="M276.82,-372.47C265.49,-363.83 254.54,-353.59 246.5,-342 209.98,-289.34 206.53,-262.31 221.5,-200 233.16,-151.49 240.73,-138.47 272.5,-100 283.59,-86.57 297.81,-74.14 311.49,-63.73"/>
<polygon fill="midnightblue" stroke="midnightblue" points="274.95,-375.44 285.1,-378.47 279.06,-369.77 274.95,-375.44"/>
</g>
<!-- Node5 -->
<g id="node5" class="node">
<title>Node5</title>
<g id="a_node5"><a xlink:href="smt__is__dynamic__object_8h.html" target="_top" xlink:title=" ">
<polygon fill="none" stroke="black" points="256,-289.5 256,-341.5 405,-341.5 405,-289.5 256,-289.5"/>
<text text-anchor="start" x="264" y="-329.5" font-family="Helvetica,sans-Serif" font-size="10.00">/home/runner/work/diffblue</text>
<text text-anchor="start" x="264" y="-318.5" font-family="Helvetica,sans-Serif" font-size="10.00">&#45;cbmc/diffblue&#45;cbmc/src</text>
<text text-anchor="start" x="264" y="-307.5" font-family="Helvetica,sans-Serif" font-size="10.00">/solvers/smt2_incremental</text>
<text text-anchor="middle" x="330.5" y="-296.5" font-family="Helvetica,sans-Serif" font-size="10.00">/smt_is_dynamic_object.h</text>
</a>
</g>
</g>
<!-- Node2&#45;&gt;Node5 -->
<g id="edge4" class="edge">
<title>Node2&#45;&gt;Node5</title>
<path fill="none" stroke="midnightblue" d="M330.5,-368.19C330.5,-359.28 330.5,-349.9 330.5,-341.61"/>
<polygon fill="midnightblue" stroke="midnightblue" points="327,-368.34 330.5,-378.34 334,-368.34 327,-368.34"/>
</g>
<!-- Node14 -->
<g id="node14" class="node">
<title>Node14</title>
<g id="a_node14"><a xlink:href="smt__object__size_8h.html" target="_top" xlink:title=" ">
<polygon fill="none" stroke="black" points="443,-289.5 443,-341.5 592,-341.5 592,-289.5 443,-289.5"/>
<text text-anchor="start" x="451" y="-329.5" font-family="Helvetica,sans-Serif" font-size="10.00">/home/runner/work/diffblue</text>
<text text-anchor="start" x="451" y="-318.5" font-family="Helvetica,sans-Serif" font-size="10.00">&#45;cbmc/diffblue&#45;cbmc/src</text>
<text text-anchor="start" x="451" y="-307.5" font-family="Helvetica,sans-Serif" font-size="10.00">/solvers/smt2_incremental</text>
<text text-anchor="middle" x="517.5" y="-296.5" font-family="Helvetica,sans-Serif" font-size="10.00">/smt_object_size.h</text>
</a>
</g>
</g>
<!-- Node2&#45;&gt;Node14 -->
<g id="edge19" class="edge">
<title>Node2&#45;&gt;Node14</title>
<path fill="none" stroke="midnightblue" d="M393.58,-374.15C416.35,-363.56 441.82,-351.71 463.72,-341.52"/>
<polygon fill="midnightblue" stroke="midnightblue" points="391.93,-371.06 384.34,-378.45 394.88,-377.41 391.93,-371.06"/>
</g>
<!-- Node15 -->
<g id="node15" class="node">
<title>Node15</title>
<g id="a_node15"><a xlink:href="smt__to__smt2__string_8cpp.html" target="_top" xlink:title=" ">
<polygon fill="none" stroke="black" points="610,-289.5 610,-341.5 759,-341.5 759,-289.5 610,-289.5"/>
<text text-anchor="start" x="618" y="-329.5" font-family="Helvetica,sans-Serif" font-size="10.00">/home/runner/work/diffblue</text>
<text text-anchor="start" x="618" y="-318.5" font-family="Helvetica,sans-Serif" font-size="10.00">&#45;cbmc/diffblue&#45;cbmc/src</text>
<text text-anchor="start" x="618" y="-307.5" font-family="Helvetica,sans-Serif" font-size="10.00">/solvers/smt2_incremental</text>
<text text-anchor="middle" x="684.5" y="-296.5" font-family="Helvetica,sans-Serif" font-size="10.00">/smt_to_smt2_string.cpp</text>
</a>
</g>
</g>
<!-- Node2&#45;&gt;Node15 -->
<g id="edge24" class="edge">
<title>Node2&#45;&gt;Node15</title>
<path fill="none" stroke="midnightblue" d="M414.96,-378.01C498.43,-358 522.42,-361.7 601.5,-342 604.28,-341.31 607.1,-340.58 609.95,-339.82"/>
<polygon fill="midnightblue" stroke="midnightblue" points="413.93,-374.66 405.04,-380.43 415.59,-381.46 413.93,-374.66"/>
</g>
<!-- Node6 -->
<g id="node6" class="node">
<title>Node6</title>
<g id="a_node6"><a xlink:href="convert__expr__to__smt_8h.html" target="_top" xlink:title=" ">
<polygon fill="none" stroke="black" points="556,-106 556,-158 705,-158 705,-106 556,-106"/>
<text text-anchor="start" x="564" y="-146" font-family="Helvetica,sans-Serif" font-size="10.00">/home/runner/work/diffblue</text>
<text text-anchor="start" x="564" y="-135" font-family="Helvetica,sans-Serif" font-size="10.00">&#45;cbmc/diffblue&#45;cbmc/src</text>
<text text-anchor="start" x="564" y="-124" font-family="Helvetica,sans-Serif" font-size="10.00">/solvers/smt2_incremental</text>
<text text-anchor="middle" x="630.5" y="-113" font-family="Helvetica,sans-Serif" font-size="10.00">/convert_expr_to_smt.h</text>
</a>
</g>
</g>
<!-- Node5&#45;&gt;Node6 -->
<g id="edge5" class="edge">
<title>Node5&#45;&gt;Node6</title>
<path fill="none" stroke="midnightblue" d="M414.85,-293.51C421.49,-291.95 428.1,-290.43 434.5,-289 513.27,-271.39 556.89,-311.5 612.5,-253 636.45,-227.81 637,-185.24 634.37,-158.16"/>
<polygon fill="midnightblue" stroke="midnightblue" points="414.04,-290.1 405.12,-295.82 415.65,-296.92 414.04,-290.1"/>
</g>
<!-- Node10 -->
<g id="node10" class="node">
<title>Node10</title>
<g id="a_node10"><a xlink:href="smt2__incremental__decision__procedure_8h.html" target="_top" xlink:title="Decision procedure with incremental SMT2 solving.">
<polygon fill="none" stroke="black" points="281.5,-100.5 281.5,-163.5 435.5,-163.5 435.5,-100.5 281.5,-100.5"/>
<text text-anchor="start" x="289.5" y="-151.5" font-family="Helvetica,sans-Serif" font-size="10.00">/home/runner/work/diffblue</text>
<text text-anchor="start" x="289.5" y="-140.5" font-family="Helvetica,sans-Serif" font-size="10.00">&#45;cbmc/diffblue&#45;cbmc/src</text>
<text text-anchor="start" x="289.5" y="-129.5" font-family="Helvetica,sans-Serif" font-size="10.00">/solvers/smt2_incremental</text>
<text text-anchor="start" x="289.5" y="-118.5" font-family="Helvetica,sans-Serif" font-size="10.00">/smt2_incremental_decision</text>
<text text-anchor="middle" x="358.5" y="-107.5" font-family="Helvetica,sans-Serif" font-size="10.00">_procedure.h</text>
</a>
</g>
</g>
<!-- Node5&#45;&gt;Node10 -->
<g id="edge10" class="edge">
<title>Node5&#45;&gt;Node10</title>
<path fill="none" stroke="midnightblue" d="M261.95,-283.65C250.53,-275.37 240.23,-265.23 233.5,-253 222.15,-232.36 221.4,-220.21 233.5,-200 244.5,-181.62 262.46,-167.99 281.38,-158.01"/>
<polygon fill="midnightblue" stroke="midnightblue" points="260.17,-286.68 270.42,-289.35 264.08,-280.87 260.17,-286.68"/>
</g>
<!-- Node12 -->
<g id="node12" class="node">
<title>Node12</title>
<g id="a_node12"><a xlink:href="smt__is__dynamic__object_8cpp.html" target="_top" xlink:title=" ">
<polygon fill="none" stroke="black" points="243,-200.5 243,-252.5 398,-252.5 398,-200.5 243,-200.5"/>
<text text-anchor="start" x="251" y="-240.5" font-family="Helvetica,sans-Serif" font-size="10.00">/home/runner/work/diffblue</text>
<text text-anchor="start" x="251" y="-229.5" font-family="Helvetica,sans-Serif" font-size="10.00">&#45;cbmc/diffblue&#45;cbmc/src</text>
<text text-anchor="start" x="251" y="-218.5" font-family="Helvetica,sans-Serif" font-size="10.00">/solvers/smt2_incremental</text>
<text text-anchor="middle" x="320.5" y="-207.5" font-family="Helvetica,sans-Serif" font-size="10.00">/smt_is_dynamic_object.cpp</text>
</a>
</g>
</g>
<!-- Node5&#45;&gt;Node12 -->
<g id="edge13" class="edge">
<title>Node5&#45;&gt;Node12</title>
<path fill="none" stroke="midnightblue" d="M326.44,-279.19C325.42,-270.28 324.34,-260.9 323.39,-252.61"/>
<polygon fill="midnightblue" stroke="midnightblue" points="322.99,-279.8 327.61,-289.34 329.94,-279 322.99,-279.8"/>
</g>
<!-- Node13 -->
<g id="node13" class="node">
<title>Node13</title>
<g id="a_node13"><a xlink:href="type__size__mapping_8h.html" target="_top" xlink:title="Utilities for making a map of types to associated sizes.">
<polygon fill="none" stroke="black" points="454,-200.5 454,-252.5 603,-252.5 603,-200.5 454,-200.5"/>
<text text-anchor="start" x="462" y="-240.5" font-family="Helvetica,sans-Serif" font-size="10.00">/home/runner/work/diffblue</text>
<text text-anchor="start" x="462" y="-229.5" font-family="Helvetica,sans-Serif" font-size="10.00">&#45;cbmc/diffblue&#45;cbmc/src</text>
<text text-anchor="start" x="462" y="-218.5" font-family="Helvetica,sans-Serif" font-size="10.00">/solvers/smt2_incremental</text>
<text text-anchor="middle" x="528.5" y="-207.5" font-family="Helvetica,sans-Serif" font-size="10.00">/type_size_mapping.h</text>
</a>
</g>
</g>
<!-- Node5&#45;&gt;Node13 -->
<g id="edge14" class="edge">
<title>Node5&#45;&gt;Node13</title>
<path fill="none" stroke="midnightblue" d="M396.97,-285.29C421.16,-274.67 448.26,-262.76 471.56,-252.52"/>
<polygon fill="midnightblue" stroke="midnightblue" points="395.25,-282.23 387.5,-289.45 398.07,-288.63 395.25,-282.23"/>
</g>
<!-- Node6&#45;&gt;Node4 -->
<g id="edge7" class="edge">
<title>Node6&#45;&gt;Node4</title>
<path fill="none" stroke="midnightblue" d="M551.22,-102.43C514.82,-89.32 471.82,-73.83 435.68,-60.81"/>
<polygon fill="midnightblue" stroke="midnightblue" points="550.21,-105.79 560.81,-105.89 552.58,-99.21 550.21,-105.79"/>
</g>
<!-- Node7 -->
<g id="node7" class="node">
<title>Node7</title>
<g id="a_node7"><a xlink:href="convert__expr__to__smt_8cpp.html" target="_top" xlink:title=" ">
<polygon fill="none" stroke="black" points="621,-6 621,-58 770,-58 770,-6 621,-6"/>
<text text-anchor="start" x="629" y="-46" font-family="Helvetica,sans-Serif" font-size="10.00">/home/runner/work/diffblue</text>
<text text-anchor="start" x="629" y="-35" font-family="Helvetica,sans-Serif" font-size="10.00">&#45;cbmc/diffblue&#45;cbmc/src</text>
<text text-anchor="start" x="629" y="-24" font-family="Helvetica,sans-Serif" font-size="10.00">/solvers/smt2_incremental</text>
<text text-anchor="middle" x="695.5" y="-13" font-family="Helvetica,sans-Serif" font-size="10.00">/convert_expr_to_smt.cpp</text>
</a>
</g>
</g>
<!-- Node6&#45;&gt;Node7 -->
<g id="edge6" class="edge">
<title>Node6&#45;&gt;Node7</title>
<path fill="none" stroke="midnightblue" d="M652.93,-97.19C661.42,-84.38 670.94,-70.03 678.82,-58.15"/>
<polygon fill="midnightblue" stroke="midnightblue" points="649.85,-95.49 647.24,-105.76 655.68,-99.36 649.85,-95.49"/>
</g>
<!-- Node8 -->
<g id="node8" class="node">
<title>Node8</title>
<g id="a_node8"><a xlink:href="smt__object__size_8cpp.html" target="_top" xlink:title=" ">
<polygon fill="none" stroke="black" points="788,-6 788,-58 937,-58 937,-6 788,-6"/>
<text text-anchor="start" x="796" y="-46" font-family="Helvetica,sans-Serif" font-size="10.00">/home/runner/work/diffblue</text>
<text text-anchor="start" x="796" y="-35" font-family="Helvetica,sans-Serif" font-size="10.00">&#45;cbmc/diffblue&#45;cbmc/src</text>
<text text-anchor="start" x="796" y="-24" font-family="Helvetica,sans-Serif" font-size="10.00">/solvers/smt2_incremental</text>
<text text-anchor="middle" x="862.5" y="-13" font-family="Helvetica,sans-Serif" font-size="10.00">/smt_object_size.cpp</text>
</a>
</g>
</g>
<!-- Node6&#45;&gt;Node8 -->
<g id="edge8" class="edge">
<title>Node6&#45;&gt;Node8</title>
<path fill="none" stroke="midnightblue" d="M699.52,-101.84C732.5,-87.91 771.59,-71.4 803.21,-58.04"/>
<polygon fill="midnightblue" stroke="midnightblue" points="697.79,-98.77 689.94,-105.89 700.52,-105.22 697.79,-98.77"/>
</g>
<!-- Node9 -->
<g id="node9" class="node">
<title>Node9</title>
<g id="a_node9"><a xlink:href="type__size__mapping_8cpp.html" target="_top" xlink:title=" ">
<polygon fill="none" stroke="black" points="454,-6 454,-58 603,-58 603,-6 454,-6"/>
<text text-anchor="start" x="462" y="-46" font-family="Helvetica,sans-Serif" font-size="10.00">/home/runner/work/diffblue</text>
<text text-anchor="start" x="462" y="-35" font-family="Helvetica,sans-Serif" font-size="10.00">&#45;cbmc/diffblue&#45;cbmc/src</text>
<text text-anchor="start" x="462" y="-24" font-family="Helvetica,sans-Serif" font-size="10.00">/solvers/smt2_incremental</text>
<text text-anchor="middle" x="528.5" y="-13" font-family="Helvetica,sans-Serif" font-size="10.00">/type_size_mapping.cpp</text>
</a>
</g>
</g>
<!-- Node6&#45;&gt;Node9 -->
<g id="edge9" class="edge">
<title>Node6&#45;&gt;Node9</title>
<path fill="none" stroke="midnightblue" d="M596.84,-98.66C583.13,-85.48 567.52,-70.49 554.68,-58.15"/>
<polygon fill="midnightblue" stroke="midnightblue" points="594.6,-101.36 604.23,-105.76 599.45,-96.31 594.6,-101.36"/>
</g>
<!-- Node10&#45;&gt;Node4 -->
<g id="edge12" class="edge">
<title>Node10&#45;&gt;Node4</title>
<path fill="none" stroke="midnightblue" d="M358.5,-90.1C358.5,-81.24 358.5,-72.01 358.5,-63.63"/>
<polygon fill="midnightblue" stroke="midnightblue" points="355,-90.26 358.5,-100.26 362,-90.26 355,-90.26"/>
</g>
<!-- Node11 -->
<g id="node11" class="node">
<title>Node11</title>
<g id="a_node11"><a xlink:href="solver__factory_8cpp.html" target="_top" xlink:title="Solver Factory.">
<polygon fill="none" stroke="black" points="89.5,-11.5 89.5,-52.5 263.5,-52.5 263.5,-11.5 89.5,-11.5"/>
<text text-anchor="start" x="97.5" y="-40.5" font-family="Helvetica,sans-Serif" font-size="10.00">/home/runner/work/diffblue</text>
<text text-anchor="start" x="97.5" y="-29.5" font-family="Helvetica,sans-Serif" font-size="10.00">&#45;cbmc/diffblue&#45;cbmc/src</text>
<text text-anchor="middle" x="176.5" y="-18.5" font-family="Helvetica,sans-Serif" font-size="10.00">/goto&#45;checker/solver_factory.cpp</text>
</a>
</g>
</g>
<!-- Node10&#45;&gt;Node11 -->
<g id="edge11" class="edge">
<title>Node10&#45;&gt;Node11</title>
<path fill="none" stroke="midnightblue" d="M292.43,-95.43C265.55,-80.95 235.52,-64.78 212.77,-52.53"/>
<polygon fill="midnightblue" stroke="midnightblue" points="290.95,-98.6 301.41,-100.26 294.27,-92.44 290.95,-98.6"/>
</g>
<!-- Node13&#45;&gt;Node4 -->
<g id="edge16" class="edge">
<title>Node13&#45;&gt;Node4</title>
<path fill="none" stroke="midnightblue" d="M509.68,-191.32C494.17,-164.81 470.54,-127.99 444.5,-100 432.25,-86.84 417.25,-74.22 403.23,-63.55"/>
<polygon fill="midnightblue" stroke="midnightblue" points="506.8,-193.32 514.82,-200.23 512.86,-189.82 506.8,-193.32"/>
</g>
<!-- Node13&#45;&gt;Node6 -->
<g id="edge15" class="edge">
<title>Node13&#45;&gt;Node6</title>
<path fill="none" stroke="midnightblue" d="M563.84,-193.45C576.62,-181.86 590.85,-168.95 602.88,-158.05"/>
<polygon fill="midnightblue" stroke="midnightblue" points="561.16,-191.16 556.1,-200.47 565.86,-196.34 561.16,-191.16"/>
</g>
<!-- Node13&#45;&gt;Node9 -->
<g id="edge18" class="edge">
<title>Node13&#45;&gt;Node9</title>
<path fill="none" stroke="midnightblue" d="M528.5,-190.17C528.5,-151.92 528.5,-91.9 528.5,-58.17"/>
<polygon fill="midnightblue" stroke="midnightblue" points="525,-190.33 528.5,-200.33 532,-190.33 525,-190.33"/>
</g>
<!-- Node13&#45;&gt;Node10 -->
<g id="edge17" class="edge">
<title>Node13&#45;&gt;Node10</title>
<path fill="none" stroke="midnightblue" d="M473.48,-195.56C454.72,-185.35 433.72,-173.93 414.85,-163.66"/>
<polygon fill="midnightblue" stroke="midnightblue" points="472.04,-198.76 482.5,-200.47 475.38,-192.61 472.04,-198.76"/>
</g>
<!-- Node14&#45;&gt;Node6 -->
<g id="edge20" class="edge">
<title>Node14&#45;&gt;Node6</title>
<path fill="none" stroke="midnightblue" d="M594.12,-285.44C617.11,-275.08 637.98,-263.4 644.5,-253 662.55,-224.21 652.15,-183.8 642.08,-158.01"/>
<polygon fill="midnightblue" stroke="midnightblue" points="592.63,-282.27 584.88,-289.5 595.44,-288.69 592.63,-282.27"/>
</g>
<!-- Node14&#45;&gt;Node8 -->
<g id="edge22" class="edge">
<title>Node14&#45;&gt;Node8</title>
<path fill="none" stroke="midnightblue" d="M601.76,-285.99C622.56,-277.05 644.13,-266.04 662.5,-253 742.49,-196.25 813.91,-102.55 845.42,-58.01"/>
<polygon fill="midnightblue" stroke="midnightblue" points="600.15,-282.87 592.28,-289.96 602.85,-289.33 600.15,-282.87"/>
</g>
<!-- Node14&#45;&gt;Node10 -->
<g id="edge21" class="edge">
<title>Node14&#45;&gt;Node10</title>
<path fill="none" stroke="midnightblue" d="M477.14,-282.93C466.39,-273.76 455.1,-263.4 445.5,-253 441.81,-249.01 405.08,-197.99 380.54,-163.77"/>
<polygon fill="midnightblue" stroke="midnightblue" points="474.93,-285.65 484.85,-289.38 479.43,-280.28 474.93,-285.65"/>
</g>
<!-- Node14&#45;&gt;Node13 -->
<g id="edge23" class="edge">
<title>Node14&#45;&gt;Node13</title>
<path fill="none" stroke="midnightblue" d="M521.96,-279.19C523.09,-270.28 524.28,-260.9 525.33,-252.61"/>
<polygon fill="midnightblue" stroke="midnightblue" points="518.46,-278.98 520.68,-289.34 525.41,-279.85 518.46,-278.98"/>
</g>
</g>
</svg>
