<?xml version="1.0" encoding="UTF-8" standalone="no"?>
<!DOCTYPE svg PUBLIC "-//W3C//DTD SVG 1.1//EN"
 "http://www.w3.org/Graphics/SVG/1.1/DTD/svg11.dtd">
<!-- Generated by graphviz version 2.43.0 (0)
 -->
<!-- Title: /home/runner/work/diffblue&#45;cbmc/diffblue&#45;cbmc/src/solvers/smt2_incremental/smt_to_smt2_string.h Pages: 1 -->
<svg width="1724pt" height="317pt"
 viewBox="0.00 0.00 1724.00 317.00" xmlns="http://www.w3.org/2000/svg" xmlns:xlink="http://www.w3.org/1999/xlink">
<g id="graph0" class="graph" transform="scale(1 1) rotate(0) translate(4 313)">
<title>/home/runner/work/diffblue&#45;cbmc/diffblue&#45;cbmc/src/solvers/smt2_incremental/smt_to_smt2_string.h</title>
<!-- Node1 -->
<g id="node1" class="node">
<title>Node1</title>
<g id="a_node1"><a xlink:title="Streaming SMT data structures to a string based output stream.">
<polygon fill="#bfbfbf" stroke="black" points="515,-256.5 515,-308.5 664,-308.5 664,-256.5 515,-256.5"/>
<text text-anchor="start" x="523" y="-296.5" font-family="Helvetica,sans-Serif" font-size="10.00">/home/runner/work/diffblue</text>
<text text-anchor="start" x="523" y="-285.5" font-family="Helvetica,sans-Serif" font-size="10.00">&#45;cbmc/diffblue&#45;cbmc/src</text>
<text text-anchor="start" x="523" y="-274.5" font-family="Helvetica,sans-Serif" font-size="10.00">/solvers/smt2_incremental</text>
<text text-anchor="middle" x="589.5" y="-263.5" font-family="Helvetica,sans-Serif" font-size="10.00">/smt_to_smt2_string.h</text>
</a>
</g>
</g>
<!-- Node2 -->
<g id="node2" class="node">
<title>Node2</title>
<g id="a_node2"><a xlink:href="smt__response__validation_8cpp.html" target="_top" xlink:title="Validation of smt response parse trees to produce either a strongly typed smt_responset representatio...">
<polygon fill="none" stroke="black" points="251.5,-167.5 251.5,-219.5 413.5,-219.5 413.5,-167.5 251.5,-167.5"/>
<text text-anchor="start" x="259.5" y="-207.5" font-family="Helvetica,sans-Serif" font-size="10.00">/home/runner/work/diffblue</text>
<text text-anchor="start" x="259.5" y="-196.5" font-family="Helvetica,sans-Serif" font-size="10.00">&#45;cbmc/diffblue&#45;cbmc/src</text>
<text text-anchor="start" x="259.5" y="-185.5" font-family="Helvetica,sans-Serif" font-size="10.00">/solvers/smt2_incremental</text>
<text text-anchor="middle" x="332.5" y="-174.5" font-family="Helvetica,sans-Serif" font-size="10.00">/smt_response_validation.cpp</text>
</a>
</g>
</g>
<!-- Node1&#45;&gt;Node2 -->
<g id="edge1" class="edge">
<title>Node1&#45;&gt;Node2</title>
<path fill="none" stroke="midnightblue" d="M505.72,-253.14C473.7,-242.3 437.45,-230.03 406.41,-219.52"/>
<polygon fill="midnightblue" stroke="midnightblue" points="504.92,-256.56 515.51,-256.45 507.16,-249.93 504.92,-256.56"/>
</g>
<!-- Node3 -->
<g id="node3" class="node">
<title>Node3</title>
<g id="a_node3"><a xlink:href="smt__solver__process_8cpp.html" target="_top" xlink:title=" ">
<polygon fill="none" stroke="black" points="432,-167.5 432,-219.5 581,-219.5 581,-167.5 432,-167.5"/>
<text text-anchor="start" x="440" y="-207.5" font-family="Helvetica,sans-Serif" font-size="10.00">/home/runner/work/diffblue</text>
<text text-anchor="start" x="440" y="-196.5" font-family="Helvetica,sans-Serif" font-size="10.00">&#45;cbmc/diffblue&#45;cbmc/src</text>
<text text-anchor="start" x="440" y="-185.5" font-family="Helvetica,sans-Serif" font-size="10.00">/solvers/smt2_incremental</text>
<text text-anchor="middle" x="506.5" y="-174.5" font-family="Helvetica,sans-Serif" font-size="10.00">/smt_solver_process.cpp</text>
</a>
</g>
</g>
<!-- Node1&#45;&gt;Node3 -->
<g id="edge2" class="edge">
<title>Node1&#45;&gt;Node3</title>
<path fill="none" stroke="midnightblue" d="M558.57,-249.08C549.27,-239.34 539.22,-228.8 530.45,-219.61"/>
<polygon fill="midnightblue" stroke="midnightblue" points="556.06,-251.52 565.49,-256.34 561.12,-246.68 556.06,-251.52"/>
</g>
<!-- Node4 -->
<g id="node4" class="node">
<title>Node4</title>
<g id="a_node4"><a xlink:href="smt__to__smt2__string_8cpp.html" target="_top" xlink:title=" ">
<polygon fill="none" stroke="black" points="599,-167.5 599,-219.5 748,-219.5 748,-167.5 599,-167.5"/>
<text text-anchor="start" x="607" y="-207.5" font-family="Helvetica,sans-Serif" font-size="10.00">/home/runner/work/diffblue</text>
<text text-anchor="start" x="607" y="-196.5" font-family="Helvetica,sans-Serif" font-size="10.00">&#45;cbmc/diffblue&#45;cbmc/src</text>
<text text-anchor="start" x="607" y="-185.5" font-family="Helvetica,sans-Serif" font-size="10.00">/solvers/smt2_incremental</text>
<text text-anchor="middle" x="673.5" y="-174.5" font-family="Helvetica,sans-Serif" font-size="10.00">/smt_to_smt2_string.cpp</text>
</a>
</g>
</g>
<!-- Node1&#45;&gt;Node4 -->
<g id="edge3" class="edge">
<title>Node1&#45;&gt;Node4</title>
<path fill="none" stroke="midnightblue" d="M620.81,-249.08C630.21,-239.34 640.38,-228.8 649.26,-219.61"/>
<polygon fill="midnightblue" stroke="midnightblue" points="618.22,-246.71 613.8,-256.34 623.26,-251.57 618.22,-246.71"/>
</g>
<!-- Node5 -->
<g id="node5" class="node">
<title>Node5</title>
<g id="a_node5"><a xlink:href="use__catch_8h.html" target="_top" xlink:title=" ">
<polygon fill="none" stroke="black" points="766,-173 766,-214 915,-214 915,-173 766,-173"/>
<text text-anchor="start" x="774" y="-202" font-family="Helvetica,sans-Serif" font-size="10.00">/home/runner/work/diffblue</text>
<text text-anchor="start" x="774" y="-191" font-family="Helvetica,sans-Serif" font-size="10.00">&#45;cbmc/diffblue&#45;cbmc/unit</text>
<text text-anchor="middle" x="840.5" y="-180" font-family="Helvetica,sans-Serif" font-size="10.00">/testing&#45;utils/use_catch.h</text>
</a>
</g>
</g>
<!-- Node1&#45;&gt;Node5 -->
<g id="edge4" class="edge">
<title>Node1&#45;&gt;Node5</title>
<path fill="none" stroke="midnightblue" d="M671.47,-253.09C708.24,-240.34 750.69,-225.63 783.86,-214.13"/>
<polygon fill="midnightblue" stroke="midnightblue" points="670.07,-249.87 661.76,-256.45 672.36,-256.48 670.07,-249.87"/>
</g>
<!-- Node6 -->
<g id="node6" class="node">
<title>Node6</title>
<g id="a_node6"><a xlink:href="load__java__class_8cpp.html" target="_top" xlink:title=" ">
<polygon fill="none" stroke="black" points="0,-78.5 0,-130.5 149,-130.5 149,-78.5 0,-78.5"/>
<text text-anchor="start" x="8" y="-118.5" font-family="Helvetica,sans-Serif" font-size="10.00">/home/runner/work/diffblue</text>
<text text-anchor="start" x="8" y="-107.5" font-family="Helvetica,sans-Serif" font-size="10.00">&#45;cbmc/diffblue&#45;cbmc/jbmc</text>
<text text-anchor="start" x="8" y="-96.5" font-family="Helvetica,sans-Serif" font-size="10.00">/unit/java&#45;testing&#45;utils</text>
<text text-anchor="middle" x="74.5" y="-85.5" font-family="Helvetica,sans-Serif" font-size="10.00">/load_java_class.cpp</text>
</a>
</g>
</g>
<!-- Node5&#45;&gt;Node6 -->
<g id="edge5" class="edge">
<title>Node5&#45;&gt;Node6</title>
<path fill="none" stroke="midnightblue" d="M772.12,-170.31C766.87,-169.04 761.62,-167.92 756.5,-167 494.42,-120.01 420.58,-177.99 158.5,-131 155.5,-130.46 152.46,-129.85 149.39,-129.19"/>
<polygon fill="midnightblue" stroke="midnightblue" points="771.63,-173.79 782.18,-172.89 773.36,-167.01 771.63,-173.79"/>
</g>
<!-- Node7 -->
<g id="node7" class="node">
<title>Node7</title>
<g id="a_node7"><a xlink:href="require__goto__statements_8cpp.html" target="_top" xlink:title=" ">
<polygon fill="none" stroke="black" points="167.5,-78.5 167.5,-130.5 329.5,-130.5 329.5,-78.5 167.5,-78.5"/>
<text text-anchor="start" x="175.5" y="-118.5" font-family="Helvetica,sans-Serif" font-size="10.00">/home/runner/work/diffblue</text>
<text text-anchor="start" x="175.5" y="-107.5" font-family="Helvetica,sans-Serif" font-size="10.00">&#45;cbmc/diffblue&#45;cbmc/jbmc</text>
<text text-anchor="start" x="175.5" y="-96.5" font-family="Helvetica,sans-Serif" font-size="10.00">/unit/java&#45;testing&#45;utils</text>
<text text-anchor="middle" x="248.5" y="-85.5" font-family="Helvetica,sans-Serif" font-size="10.00">/require_goto_statements.cpp</text>
</a>
</g>
</g>
<!-- Node5&#45;&gt;Node7 -->
<g id="edge6" class="edge">
<title>Node5&#45;&gt;Node7</title>
<path fill="none" stroke="midnightblue" d="M771.81,-170.39C766.66,-169.12 761.52,-167.97 756.5,-167 573.4,-131.73 521.92,-164.57 338.5,-131 335.62,-130.47 332.71,-129.9 329.77,-129.28"/>
<polygon fill="midnightblue" stroke="midnightblue" points="771.13,-173.83 781.69,-172.96 772.89,-167.05 771.13,-173.83"/>
</g>
<!-- Node8 -->
<g id="node8" class="node">
<title>Node8</title>
<g id="a_node8"><a xlink:href="require__parse__tree_8cpp.html" target="_top" xlink:title=" ">
<polygon fill="none" stroke="black" points="348,-78.5 348,-130.5 497,-130.5 497,-78.5 348,-78.5"/>
<text text-anchor="start" x="356" y="-118.5" font-family="Helvetica,sans-Serif" font-size="10.00">/home/runner/work/diffblue</text>
<text text-anchor="start" x="356" y="-107.5" font-family="Helvetica,sans-Serif" font-size="10.00">&#45;cbmc/diffblue&#45;cbmc/jbmc</text>
<text text-anchor="start" x="356" y="-96.5" font-family="Helvetica,sans-Serif" font-size="10.00">/unit/java&#45;testing&#45;utils</text>
<text text-anchor="middle" x="422.5" y="-85.5" font-family="Helvetica,sans-Serif" font-size="10.00">/require_parse_tree.cpp</text>
</a>
</g>
</g>
<!-- Node5&#45;&gt;Node8 -->
<g id="edge7" class="edge">
<title>Node5&#45;&gt;Node8</title>
<path fill="none" stroke="midnightblue" d="M769.89,-170.23C765.38,-169.06 760.89,-167.97 756.5,-167 646.48,-142.56 615.47,-155.62 505.5,-131 502.71,-130.37 499.87,-129.7 497.01,-128.99"/>
<polygon fill="midnightblue" stroke="midnightblue" points="769.2,-173.67 779.77,-172.88 771.02,-166.9 769.2,-173.67"/>
</g>
<!-- Node9 -->
<g id="node9" class="node">
<title>Node9</title>
<g id="a_node9"><a xlink:href="require__type_8cpp.html" target="_top" xlink:title=" ">
<polygon fill="none" stroke="black" points="515,-78.5 515,-130.5 664,-130.5 664,-78.5 515,-78.5"/>
<text text-anchor="start" x="523" y="-118.5" font-family="Helvetica,sans-Serif" font-size="10.00">/home/runner/work/diffblue</text>
<text text-anchor="start" x="523" y="-107.5" font-family="Helvetica,sans-Serif" font-size="10.00">&#45;cbmc/diffblue&#45;cbmc/jbmc</text>
<text text-anchor="start" x="523" y="-96.5" font-family="Helvetica,sans-Serif" font-size="10.00">/unit/java&#45;testing&#45;utils</text>
<text text-anchor="middle" x="589.5" y="-85.5" font-family="Helvetica,sans-Serif" font-size="10.00">/require_type.cpp</text>
</a>
</g>
</g>
<!-- Node5&#45;&gt;Node9 -->
<g id="edge8" class="edge">
<title>Node5&#45;&gt;Node9</title>
<path fill="none" stroke="midnightblue" d="M774.62,-169.67C739.98,-157.66 697.43,-142.91 661.87,-130.58"/>
<polygon fill="midnightblue" stroke="midnightblue" points="773.58,-173.01 784.17,-172.98 775.87,-166.39 773.58,-173.01"/>
</g>
<!-- Node10 -->
<g id="node10" class="node">
<title>Node10</title>
<g id="a_node10"><a xlink:href="expr__query_8h.html" target="_top" xlink:title="Helper class for querying expressions Throw CATCH exceptions when the query fails.">
<polygon fill="none" stroke="black" points="682,-84 682,-125 831,-125 831,-84 682,-84"/>
<text text-anchor="start" x="690" y="-113" font-family="Helvetica,sans-Serif" font-size="10.00">/home/runner/work/diffblue</text>
<text text-anchor="start" x="690" y="-102" font-family="Helvetica,sans-Serif" font-size="10.00">&#45;cbmc/diffblue&#45;cbmc/unit</text>
<text text-anchor="middle" x="756.5" y="-91" font-family="Helvetica,sans-Serif" font-size="10.00">/testing&#45;utils/expr_query.h</text>
</a>
</g>
</g>
<!-- Node5&#45;&gt;Node10 -->
<g id="edge9" class="edge">
<title>Node5&#45;&gt;Node10</title>
<path fill="none" stroke="midnightblue" d="M814.33,-165.4C801.76,-152.37 786.96,-137.05 775.49,-125.16"/>
<polygon fill="midnightblue" stroke="midnightblue" points="811.98,-168 821.44,-172.76 817.01,-163.13 811.98,-168"/>
</g>
<!-- Node11 -->
<g id="node11" class="node">
<title>Node11</title>
<g id="a_node11"><a xlink:href="unit_2testing-utils_2invariant_8h.html" target="_top" xlink:title=" ">
<polygon fill="none" stroke="black" points="849,-84 849,-125 998,-125 998,-84 849,-84"/>
<text text-anchor="start" x="857" y="-113" font-family="Helvetica,sans-Serif" font-size="10.00">/home/runner/work/diffblue</text>
<text text-anchor="start" x="857" y="-102" font-family="Helvetica,sans-Serif" font-size="10.00">&#45;cbmc/diffblue&#45;cbmc/unit</text>
<text text-anchor="middle" x="923.5" y="-91" font-family="Helvetica,sans-Serif" font-size="10.00">/testing&#45;utils/invariant.h</text>
</a>
</g>
</g>
<!-- Node5&#45;&gt;Node11 -->
<g id="edge10" class="edge">
<title>Node5&#45;&gt;Node11</title>
<path fill="none" stroke="midnightblue" d="M866.36,-165.4C878.78,-152.37 893.4,-137.05 904.74,-125.16"/>
<polygon fill="midnightblue" stroke="midnightblue" points="863.7,-163.11 859.33,-172.76 868.77,-167.94 863.7,-163.11"/>
</g>
<!-- Node13 -->
<g id="node13" class="node">
<title>Node13</title>
<g id="a_node13"><a xlink:href="require__expr_8cpp.html" target="_top" xlink:title="Helper functions for requiring specific expressions If the expression is of the wrong type,...">
<polygon fill="none" stroke="black" points="1016.5,-84 1016.5,-125 1178.5,-125 1178.5,-84 1016.5,-84"/>
<text text-anchor="start" x="1024.5" y="-113" font-family="Helvetica,sans-Serif" font-size="10.00">/home/runner/work/diffblue</text>
<text text-anchor="start" x="1024.5" y="-102" font-family="Helvetica,sans-Serif" font-size="10.00">&#45;cbmc/diffblue&#45;cbmc/unit</text>
<text text-anchor="middle" x="1097.5" y="-91" font-family="Helvetica,sans-Serif" font-size="10.00">/testing&#45;utils/require_expr.cpp</text>
</a>
</g>
</g>
<!-- Node5&#45;&gt;Node13 -->
<g id="edge12" class="edge">
<title>Node5&#45;&gt;Node13</title>
<path fill="none" stroke="midnightblue" d="M907.8,-169.72C948.73,-155.86 1000.47,-138.35 1039.57,-125.11"/>
<polygon fill="midnightblue" stroke="midnightblue" points="906.53,-166.45 898.18,-172.98 908.77,-173.08 906.53,-166.45"/>
</g>
<!-- Node14 -->
<g id="node14" class="node">
<title>Node14</title>
<g id="a_node14"><a xlink:href="require__symbol_8cpp.html" target="_top" xlink:title=" ">
<polygon fill="none" stroke="black" points="1197,-84 1197,-125 1374,-125 1374,-84 1197,-84"/>
<text text-anchor="start" x="1205" y="-113" font-family="Helvetica,sans-Serif" font-size="10.00">/home/runner/work/diffblue</text>
<text text-anchor="start" x="1205" y="-102" font-family="Helvetica,sans-Serif" font-size="10.00">&#45;cbmc/diffblue&#45;cbmc/unit</text>
<text text-anchor="middle" x="1285.5" y="-91" font-family="Helvetica,sans-Serif" font-size="10.00">/testing&#45;utils/require_symbol.cpp</text>
</a>
</g>
</g>
<!-- Node5&#45;&gt;Node14 -->
<g id="edge13" class="edge">
<title>Node5&#45;&gt;Node14</title>
<path fill="none" stroke="midnightblue" d="M925.45,-179.37C995.93,-168.02 1098.62,-150.41 1187.5,-131 1195.83,-129.18 1204.52,-127.14 1213.14,-125.02"/>
<polygon fill="midnightblue" stroke="midnightblue" points="924.61,-175.96 915.29,-181 925.72,-182.87 924.61,-175.96"/>
</g>
<!-- Node15 -->
<g id="node15" class="node">
<title>Node15</title>
<g id="a_node15"><a xlink:href="require__vectors__equal__unordered_8h.html" target="_top" xlink:title=" ">
<polygon fill="none" stroke="black" points="1392,-78.5 1392,-130.5 1549,-130.5 1549,-78.5 1392,-78.5"/>
<text text-anchor="start" x="1400" y="-118.5" font-family="Helvetica,sans-Serif" font-size="10.00">/home/runner/work/diffblue</text>
<text text-anchor="start" x="1400" y="-107.5" font-family="Helvetica,sans-Serif" font-size="10.00">&#45;cbmc/diffblue&#45;cbmc/unit</text>
<text text-anchor="start" x="1400" y="-96.5" font-family="Helvetica,sans-Serif" font-size="10.00">/testing&#45;utils/require_vectors</text>
<text text-anchor="middle" x="1470.5" y="-85.5" font-family="Helvetica,sans-Serif" font-size="10.00">_equal_unordered.h</text>
</a>
</g>
</g>
<!-- Node5&#45;&gt;Node15 -->
<g id="edge14" class="edge">
<title>Node5&#45;&gt;Node15</title>
<path fill="none" stroke="midnightblue" d="M925.32,-187.33C1032.59,-179.78 1222.6,-163 1382.5,-131 1385.62,-130.38 1388.79,-129.69 1391.98,-128.97"/>
<polygon fill="midnightblue" stroke="midnightblue" points="924.93,-183.85 915.2,-188.03 925.41,-190.83 924.93,-183.85"/>
</g>
<!-- Node16 -->
<g id="node16" class="node">
<title>Node16</title>
<g id="a_node16"><a xlink:href="unit_2testing-utils_2smt2irep_8h.html" target="_top" xlink:title=" ">
<polygon fill="none" stroke="black" points="1567,-84 1567,-125 1716,-125 1716,-84 1567,-84"/>
<text text-anchor="start" x="1575" y="-113" font-family="Helvetica,sans-Serif" font-size="10.00">/home/runner/work/diffblue</text>
<text text-anchor="start" x="1575" y="-102" font-family="Helvetica,sans-Serif" font-size="10.00">&#45;cbmc/diffblue&#45;cbmc/unit</text>
<text text-anchor="middle" x="1641.5" y="-91" font-family="Helvetica,sans-Serif" font-size="10.00">/testing&#45;utils/smt2irep.h</text>
</a>
</g>
</g>
<!-- Node5&#45;&gt;Node16 -->
<g id="edge15" class="edge">
<title>Node5&#45;&gt;Node16</title>
<path fill="none" stroke="midnightblue" d="M925.4,-191.05C1060.59,-187.44 1332.57,-174.86 1558.5,-131 1566.64,-129.42 1575.11,-127.34 1583.4,-125.05"/>
<polygon fill="midnightblue" stroke="midnightblue" points="925.03,-187.56 915.12,-191.32 925.21,-194.56 925.03,-187.56"/>
</g>
<!-- Node12 -->
<g id="node12" class="node">
<title>Node12</title>
<g id="a_node12"><a xlink:href="unit_2testing-utils_2invariant_8cpp.html" target="_top" xlink:title=" ">
<polygon fill="none" stroke="black" points="849,-0.5 849,-41.5 998,-41.5 998,-0.5 849,-0.5"/>
<text text-anchor="start" x="857" y="-29.5" font-family="Helvetica,sans-Serif" font-size="10.00">/home/runner/work/diffblue</text>
<text text-anchor="start" x="857" y="-18.5" font-family="Helvetica,sans-Serif" font-size="10.00">&#45;cbmc/diffblue&#45;cbmc/unit</text>
<text text-anchor="middle" x="923.5" y="-7.5" font-family="Helvetica,sans-Serif" font-size="10.00">/testing&#45;utils/invariant.cpp</text>
</a>
</g>
</g>
<!-- Node11&#45;&gt;Node12 -->
<g id="edge11" class="edge">
<title>Node11&#45;&gt;Node12</title>
<path fill="none" stroke="midnightblue" d="M923.5,-73.56C923.5,-62.88 923.5,-51.13 923.5,-41.55"/>
<polygon fill="midnightblue" stroke="midnightblue" points="920,-73.77 923.5,-83.77 927,-73.77 920,-73.77"/>
</g>
<!-- Node17 -->
<g id="node17" class="node">
<title>Node17</title>
<g id="a_node17"><a xlink:href="unit_2testing-utils_2smt2irep_8cpp.html" target="_top" xlink:title=" ">
<polygon fill="none" stroke="black" points="1567,-0.5 1567,-41.5 1716,-41.5 1716,-0.5 1567,-0.5"/>
<text text-anchor="start" x="1575" y="-29.5" font-family="Helvetica,sans-Serif" font-size="10.00">/home/runner/work/diffblue</text>
<text text-anchor="start" x="1575" y="-18.5" font-family="Helvetica,sans-Serif" font-size="10.00">&#45;cbmc/diffblue&#45;cbmc/unit</text>
<text text-anchor="middle" x="1641.5" y="-7.5" font-family="Helvetica,sans-Serif" font-size="10.00">/testing&#45;utils/smt2irep.cpp</text>
</a>
</g>
</g>
<!-- Node16&#45;&gt;Node17 -->
<g id="edge16" class="edge">
<title>Node16&#45;&gt;Node17</title>
<path fill="none" stroke="midnightblue" d="M1641.5,-73.56C1641.5,-62.88 1641.5,-51.13 1641.5,-41.55"/>
<polygon fill="midnightblue" stroke="midnightblue" points="1638,-73.77 1641.5,-83.77 1645,-73.77 1638,-73.77"/>
</g>
</g>
</svg>
