<?xml version="1.0" encoding="UTF-8" standalone="no"?>
<!DOCTYPE svg PUBLIC "-//W3C//DTD SVG 1.1//EN"
 "http://www.w3.org/Graphics/SVG/1.1/DTD/svg11.dtd">
<!-- Generated by graphviz version 2.43.0 (0)
 -->
<!-- Title: /home/runner/work/diffblue&#45;cbmc/diffblue&#45;cbmc/src/solvers/smt2_incremental/ast/smt_terms.h Pages: 1 -->
<svg width="1877pt" height="528pt"
 viewBox="0.00 0.00 1876.63 528.00" xmlns="http://www.w3.org/2000/svg" xmlns:xlink="http://www.w3.org/1999/xlink">
<g id="graph0" class="graph" transform="scale(1 1) rotate(0) translate(4 524)">
<title>/home/runner/work/diffblue&#45;cbmc/diffblue&#45;cbmc/src/solvers/smt2_incremental/ast/smt_terms.h</title>
<!-- Node1 -->
<g id="node1" class="node">
<title>Node1</title>
<g id="a_node1"><a xlink:title=" ">
<polygon fill="#bfbfbf" stroke="black" points="716.13,-467.5 716.13,-519.5 865.13,-519.5 865.13,-467.5 716.13,-467.5"/>
<text text-anchor="start" x="724.13" y="-507.5" font-family="Helvetica,sans-Serif" font-size="10.00">/home/runner/work/diffblue</text>
<text text-anchor="start" x="724.13" y="-496.5" font-family="Helvetica,sans-Serif" font-size="10.00">&#45;cbmc/diffblue&#45;cbmc/src</text>
<text text-anchor="start" x="724.13" y="-485.5" font-family="Helvetica,sans-Serif" font-size="10.00">/solvers/smt2_incremental</text>
<text text-anchor="middle" x="790.63" y="-474.5" font-family="Helvetica,sans-Serif" font-size="10.00">/ast/smt_terms.h</text>
</a>
</g>
</g>
<!-- Node2 -->
<g id="node2" class="node">
<title>Node2</title>
<g id="a_node2"><a xlink:href="smt__commands_8h.html" target="_top" xlink:title=" ">
<polygon fill="none" stroke="black" points="266.13,-378.5 266.13,-430.5 415.13,-430.5 415.13,-378.5 266.13,-378.5"/>
<text text-anchor="start" x="274.13" y="-418.5" font-family="Helvetica,sans-Serif" font-size="10.00">/home/runner/work/diffblue</text>
<text text-anchor="start" x="274.13" y="-407.5" font-family="Helvetica,sans-Serif" font-size="10.00">&#45;cbmc/diffblue&#45;cbmc/src</text>
<text text-anchor="start" x="274.13" y="-396.5" font-family="Helvetica,sans-Serif" font-size="10.00">/solvers/smt2_incremental</text>
<text text-anchor="middle" x="340.63" y="-385.5" font-family="Helvetica,sans-Serif" font-size="10.00">/ast/smt_commands.h</text>
</a>
</g>
</g>
<!-- Node1&#45;&gt;Node2 -->
<g id="edge1" class="edge">
<title>Node1&#45;&gt;Node2</title>
<path fill="none" stroke="midnightblue" d="M706.08,-476.15C622.37,-459.97 495.44,-435.43 415.33,-419.94"/>
<polygon fill="midnightblue" stroke="midnightblue" points="705.58,-479.62 716.07,-478.08 706.91,-472.75 705.58,-479.62"/>
</g>
<!-- Node4 -->
<g id="node4" class="node">
<title>Node4</title>
<g id="a_node4"><a xlink:href="smt2__incremental__decision__procedure_8cpp.html" target="_top" xlink:title=" ">
<polygon fill="none" stroke="black" points="468.63,-0.5 468.63,-63.5 622.63,-63.5 622.63,-0.5 468.63,-0.5"/>
<text text-anchor="start" x="476.63" y="-51.5" font-family="Helvetica,sans-Serif" font-size="10.00">/home/runner/work/diffblue</text>
<text text-anchor="start" x="476.63" y="-40.5" font-family="Helvetica,sans-Serif" font-size="10.00">&#45;cbmc/diffblue&#45;cbmc/src</text>
<text text-anchor="start" x="476.63" y="-29.5" font-family="Helvetica,sans-Serif" font-size="10.00">/solvers/smt2_incremental</text>
<text text-anchor="start" x="476.63" y="-18.5" font-family="Helvetica,sans-Serif" font-size="10.00">/smt2_incremental_decision</text>
<text text-anchor="middle" x="545.63" y="-7.5" font-family="Helvetica,sans-Serif" font-size="10.00">_procedure.cpp</text>
</a>
</g>
</g>
<!-- Node1&#45;&gt;Node4 -->
<g id="edge38" class="edge">
<title>Node1&#45;&gt;Node4</title>
<path fill="none" stroke="midnightblue" d="M795.08,-457.39C802.62,-381.44 808.89,-200.63 714.63,-100 711.04,-96.17 665.56,-78.24 622.69,-61.89"/>
<polygon fill="midnightblue" stroke="midnightblue" points="791.6,-457.08 794.02,-467.39 798.56,-457.82 791.6,-457.08"/>
</g>
<!-- Node5 -->
<g id="node5" class="node">
<title>Node5</title>
<g id="a_node5"><a xlink:href="smt__is__dynamic__object_8h.html" target="_top" xlink:title=" ">
<polygon fill="none" stroke="black" points="595.13,-289.5 595.13,-341.5 744.13,-341.5 744.13,-289.5 595.13,-289.5"/>
<text text-anchor="start" x="603.13" y="-329.5" font-family="Helvetica,sans-Serif" font-size="10.00">/home/runner/work/diffblue</text>
<text text-anchor="start" x="603.13" y="-318.5" font-family="Helvetica,sans-Serif" font-size="10.00">&#45;cbmc/diffblue&#45;cbmc/src</text>
<text text-anchor="start" x="603.13" y="-307.5" font-family="Helvetica,sans-Serif" font-size="10.00">/solvers/smt2_incremental</text>
<text text-anchor="middle" x="669.63" y="-296.5" font-family="Helvetica,sans-Serif" font-size="10.00">/smt_is_dynamic_object.h</text>
</a>
</g>
</g>
<!-- Node1&#45;&gt;Node5 -->
<g id="edge40" class="edge">
<title>Node1&#45;&gt;Node5</title>
<path fill="none" stroke="midnightblue" d="M767.6,-459C744.09,-424.8 708.12,-372.49 686.93,-341.67"/>
<polygon fill="midnightblue" stroke="midnightblue" points="764.74,-461.03 773.29,-467.28 770.51,-457.06 764.74,-461.03"/>
</g>
<!-- Node6 -->
<g id="node6" class="node">
<title>Node6</title>
<g id="a_node6"><a xlink:href="convert__expr__to__smt_8h.html" target="_top" xlink:title=" ">
<polygon fill="none" stroke="black" points="65.13,-106 65.13,-158 214.13,-158 214.13,-106 65.13,-106"/>
<text text-anchor="start" x="73.13" y="-146" font-family="Helvetica,sans-Serif" font-size="10.00">/home/runner/work/diffblue</text>
<text text-anchor="start" x="73.13" y="-135" font-family="Helvetica,sans-Serif" font-size="10.00">&#45;cbmc/diffblue&#45;cbmc/src</text>
<text text-anchor="start" x="73.13" y="-124" font-family="Helvetica,sans-Serif" font-size="10.00">/solvers/smt2_incremental</text>
<text text-anchor="middle" x="139.63" y="-113" font-family="Helvetica,sans-Serif" font-size="10.00">/convert_expr_to_smt.h</text>
</a>
</g>
</g>
<!-- Node1&#45;&gt;Node6 -->
<g id="edge37" class="edge">
<title>Node1&#45;&gt;Node6</title>
<path fill="none" stroke="midnightblue" d="M705.54,-488.56C558.69,-481.02 263.93,-462.45 165.63,-431 89.97,-406.79 50.43,-410.75 10.63,-342 -28.36,-274.65 53.8,-197.11 104.19,-158.14"/>
<polygon fill="midnightblue" stroke="midnightblue" points="705.69,-492.07 715.85,-489.08 706.05,-485.08 705.69,-492.07"/>
</g>
<!-- Node10 -->
<g id="node10" class="node">
<title>Node10</title>
<g id="a_node10"><a xlink:href="smt2__incremental__decision__procedure_8h.html" target="_top" xlink:title="Decision procedure with incremental SMT2 solving.">
<polygon fill="none" stroke="black" points="551.63,-100.5 551.63,-163.5 705.63,-163.5 705.63,-100.5 551.63,-100.5"/>
<text text-anchor="start" x="559.63" y="-151.5" font-family="Helvetica,sans-Serif" font-size="10.00">/home/runner/work/diffblue</text>
<text text-anchor="start" x="559.63" y="-140.5" font-family="Helvetica,sans-Serif" font-size="10.00">&#45;cbmc/diffblue&#45;cbmc/src</text>
<text text-anchor="start" x="559.63" y="-129.5" font-family="Helvetica,sans-Serif" font-size="10.00">/solvers/smt2_incremental</text>
<text text-anchor="start" x="559.63" y="-118.5" font-family="Helvetica,sans-Serif" font-size="10.00">/smt2_incremental_decision</text>
<text text-anchor="middle" x="628.63" y="-107.5" font-family="Helvetica,sans-Serif" font-size="10.00">_procedure.h</text>
</a>
</g>
</g>
<!-- Node1&#45;&gt;Node10 -->
<g id="edge39" class="edge">
<title>Node1&#45;&gt;Node10</title>
<path fill="none" stroke="midnightblue" d="M789.44,-457.22C786.88,-415.36 778.82,-344.27 753.63,-289 731.24,-239.89 689.93,-192.89 660.95,-163.55"/>
<polygon fill="midnightblue" stroke="midnightblue" points="785.95,-457.41 789.98,-467.21 792.94,-457.03 785.95,-457.41"/>
</g>
<!-- Node13 -->
<g id="node13" class="node">
<title>Node13</title>
<g id="a_node13"><a xlink:href="type__size__mapping_8h.html" target="_top" xlink:title="Utilities for making a map of types to associated sizes.">
<polygon fill="none" stroke="black" points="449.13,-200.5 449.13,-252.5 598.13,-252.5 598.13,-200.5 449.13,-200.5"/>
<text text-anchor="start" x="457.13" y="-240.5" font-family="Helvetica,sans-Serif" font-size="10.00">/home/runner/work/diffblue</text>
<text text-anchor="start" x="457.13" y="-229.5" font-family="Helvetica,sans-Serif" font-size="10.00">&#45;cbmc/diffblue&#45;cbmc/src</text>
<text text-anchor="start" x="457.13" y="-218.5" font-family="Helvetica,sans-Serif" font-size="10.00">/solvers/smt2_incremental</text>
<text text-anchor="middle" x="523.63" y="-207.5" font-family="Helvetica,sans-Serif" font-size="10.00">/type_size_mapping.h</text>
</a>
</g>
</g>
<!-- Node1&#45;&gt;Node13 -->
<g id="edge57" class="edge">
<title>Node1&#45;&gt;Node13</title>
<path fill="none" stroke="midnightblue" d="M737.45,-462.26C693.07,-435.07 630.25,-391.83 586.63,-342 562.86,-314.86 544.32,-277.26 533.67,-252.67"/>
<polygon fill="midnightblue" stroke="midnightblue" points="735.7,-465.3 746.07,-467.48 739.33,-459.31 735.7,-465.3"/>
</g>
<!-- Node14 -->
<g id="node14" class="node">
<title>Node14</title>
<g id="a_node14"><a xlink:href="smt__object__size_8h.html" target="_top" xlink:title=" ">
<polygon fill="none" stroke="black" points="20.13,-289.5 20.13,-341.5 169.13,-341.5 169.13,-289.5 20.13,-289.5"/>
<text text-anchor="start" x="28.13" y="-329.5" font-family="Helvetica,sans-Serif" font-size="10.00">/home/runner/work/diffblue</text>
<text text-anchor="start" x="28.13" y="-318.5" font-family="Helvetica,sans-Serif" font-size="10.00">&#45;cbmc/diffblue&#45;cbmc/src</text>
<text text-anchor="start" x="28.13" y="-307.5" font-family="Helvetica,sans-Serif" font-size="10.00">/solvers/smt2_incremental</text>
<text text-anchor="middle" x="94.63" y="-296.5" font-family="Helvetica,sans-Serif" font-size="10.00">/smt_object_size.h</text>
</a>
</g>
</g>
<!-- Node1&#45;&gt;Node14 -->
<g id="edge41" class="edge">
<title>Node1&#45;&gt;Node14</title>
<path fill="none" stroke="midnightblue" d="M705.88,-487.81C576.8,-479.82 337.52,-461.4 257.63,-431 204.13,-410.64 151.68,-368.75 121.28,-341.68"/>
<polygon fill="midnightblue" stroke="midnightblue" points="705.92,-491.32 716.11,-488.44 706.35,-484.34 705.92,-491.32"/>
</g>
<!-- Node15 -->
<g id="node15" class="node">
<title>Node15</title>
<g id="a_node15"><a xlink:href="smt__to__smt2__string_8cpp.html" target="_top" xlink:title=" ">
<polygon fill="none" stroke="black" points="391.13,-289.5 391.13,-341.5 540.13,-341.5 540.13,-289.5 391.13,-289.5"/>
<text text-anchor="start" x="399.13" y="-329.5" font-family="Helvetica,sans-Serif" font-size="10.00">/home/runner/work/diffblue</text>
<text text-anchor="start" x="399.13" y="-318.5" font-family="Helvetica,sans-Serif" font-size="10.00">&#45;cbmc/diffblue&#45;cbmc/src</text>
<text text-anchor="start" x="399.13" y="-307.5" font-family="Helvetica,sans-Serif" font-size="10.00">/solvers/smt2_incremental</text>
<text text-anchor="middle" x="465.63" y="-296.5" font-family="Helvetica,sans-Serif" font-size="10.00">/smt_to_smt2_string.cpp</text>
</a>
</g>
</g>
<!-- Node1&#45;&gt;Node15 -->
<g id="edge42" class="edge">
<title>Node1&#45;&gt;Node15</title>
<path fill="none" stroke="midnightblue" d="M706.05,-484.26C658.16,-476.38 598.96,-461.01 553.63,-431 519.55,-408.44 493.19,-368.19 478.54,-341.92"/>
<polygon fill="midnightblue" stroke="midnightblue" points="705.66,-487.74 716.08,-485.82 706.74,-480.82 705.66,-487.74"/>
</g>
<!-- Node16 -->
<g id="node16" class="node">
<title>Node16</title>
<g id="a_node16"><a xlink:href="smt__responses_8h.html" target="_top" xlink:title=" ">
<polygon fill="none" stroke="black" points="1129.13,-200.5 1129.13,-252.5 1278.13,-252.5 1278.13,-200.5 1129.13,-200.5"/>
<text text-anchor="start" x="1137.13" y="-240.5" font-family="Helvetica,sans-Serif" font-size="10.00">/home/runner/work/diffblue</text>
<text text-anchor="start" x="1137.13" y="-229.5" font-family="Helvetica,sans-Serif" font-size="10.00">&#45;cbmc/diffblue&#45;cbmc/src</text>
<text text-anchor="start" x="1137.13" y="-218.5" font-family="Helvetica,sans-Serif" font-size="10.00">/solvers/smt2_incremental</text>
<text text-anchor="middle" x="1203.63" y="-207.5" font-family="Helvetica,sans-Serif" font-size="10.00">/ast/smt_responses.h</text>
</a>
</g>
</g>
<!-- Node1&#45;&gt;Node16 -->
<g id="edge25" class="edge">
<title>Node1&#45;&gt;Node16</title>
<path fill="none" stroke="midnightblue" d="M875.13,-487.1C1000.7,-478.19 1224.46,-458.63 1248.63,-431 1293.17,-380.07 1248.63,-294.96 1221.38,-252.78"/>
<polygon fill="midnightblue" stroke="midnightblue" points="874.88,-483.6 865.15,-487.8 875.37,-490.59 874.88,-483.6"/>
</g>
<!-- Node22 -->
<g id="node22" class="node">
<title>Node22</title>
<g id="a_node22"><a xlink:href="smt__terms_8cpp.html" target="_top" xlink:title=" ">
<polygon fill="none" stroke="black" points="875.13,-378.5 875.13,-430.5 1024.13,-430.5 1024.13,-378.5 875.13,-378.5"/>
<text text-anchor="start" x="883.13" y="-418.5" font-family="Helvetica,sans-Serif" font-size="10.00">/home/runner/work/diffblue</text>
<text text-anchor="start" x="883.13" y="-407.5" font-family="Helvetica,sans-Serif" font-size="10.00">&#45;cbmc/diffblue&#45;cbmc/src</text>
<text text-anchor="start" x="883.13" y="-396.5" font-family="Helvetica,sans-Serif" font-size="10.00">/solvers/smt2_incremental</text>
<text text-anchor="middle" x="949.63" y="-385.5" font-family="Helvetica,sans-Serif" font-size="10.00">/ast/smt_terms.cpp</text>
</a>
</g>
</g>
<!-- Node1&#45;&gt;Node22 -->
<g id="edge35" class="edge">
<title>Node1&#45;&gt;Node22</title>
<path fill="none" stroke="midnightblue" d="M845.46,-462.49C864.46,-452.1 885.54,-440.57 903.74,-430.61"/>
<polygon fill="midnightblue" stroke="midnightblue" points="843.71,-459.47 836.62,-467.34 847.07,-465.61 843.71,-459.47"/>
</g>
<!-- Node23 -->
<g id="node23" class="node">
<title>Node23</title>
<g id="a_node23"><a xlink:href="construct__value__expr__from__smt_8cpp.html" target="_top" xlink:title=" ">
<polygon fill="none" stroke="black" points="1042.13,-378.5 1042.13,-430.5 1239.13,-430.5 1239.13,-378.5 1042.13,-378.5"/>
<text text-anchor="start" x="1050.13" y="-418.5" font-family="Helvetica,sans-Serif" font-size="10.00">/home/runner/work/diffblue</text>
<text text-anchor="start" x="1050.13" y="-407.5" font-family="Helvetica,sans-Serif" font-size="10.00">&#45;cbmc/diffblue&#45;cbmc/src</text>
<text text-anchor="start" x="1050.13" y="-396.5" font-family="Helvetica,sans-Serif" font-size="10.00">/solvers/smt2_incremental</text>
<text text-anchor="middle" x="1140.63" y="-385.5" font-family="Helvetica,sans-Serif" font-size="10.00">/construct_value_expr_from_smt.cpp</text>
</a>
</g>
</g>
<!-- Node1&#45;&gt;Node23 -->
<g id="edge36" class="edge">
<title>Node1&#45;&gt;Node23</title>
<path fill="none" stroke="midnightblue" d="M875.13,-471.49C925.35,-459.01 989.29,-443.12 1041.83,-430.06"/>
<polygon fill="midnightblue" stroke="midnightblue" points="874.14,-468.13 865.28,-473.94 875.83,-474.93 874.14,-468.13"/>
</g>
<!-- Node24 -->
<g id="node24" class="node">
<title>Node24</title>
<g id="a_node24"><a xlink:href="smt__array__theory_8h.html" target="_top" xlink:title=" ">
<polygon fill="none" stroke="black" points="1526.63,-106 1526.63,-158 1682.63,-158 1682.63,-106 1526.63,-106"/>
<text text-anchor="start" x="1534.63" y="-146" font-family="Helvetica,sans-Serif" font-size="10.00">/home/runner/work/diffblue</text>
<text text-anchor="start" x="1534.63" y="-135" font-family="Helvetica,sans-Serif" font-size="10.00">&#45;cbmc/diffblue&#45;cbmc/src</text>
<text text-anchor="start" x="1534.63" y="-124" font-family="Helvetica,sans-Serif" font-size="10.00">/solvers/smt2_incremental</text>
<text text-anchor="middle" x="1604.63" y="-113" font-family="Helvetica,sans-Serif" font-size="10.00">/theories/smt_array_theory.h</text>
</a>
</g>
</g>
<!-- Node1&#45;&gt;Node24 -->
<g id="edge43" class="edge">
<title>Node1&#45;&gt;Node24</title>
<path fill="none" stroke="midnightblue" d="M875.54,-491.88C996.9,-489.33 1211.89,-478.06 1271.63,-431 1324.66,-389.21 1281.5,-340.11 1325.63,-289 1380.48,-225.47 1467.9,-182.55 1530.27,-158.07"/>
<polygon fill="midnightblue" stroke="midnightblue" points="875.47,-488.38 865.54,-492.08 875.6,-495.38 875.47,-488.38"/>
</g>
<!-- Node26 -->
<g id="node26" class="node">
<title>Node26</title>
<g id="a_node26"><a xlink:href="smt__bit__vector__theory_8h.html" target="_top" xlink:title=" ">
<polygon fill="none" stroke="black" points="1340.13,-378.5 1340.13,-430.5 1519.13,-430.5 1519.13,-378.5 1340.13,-378.5"/>
<text text-anchor="start" x="1348.13" y="-418.5" font-family="Helvetica,sans-Serif" font-size="10.00">/home/runner/work/diffblue</text>
<text text-anchor="start" x="1348.13" y="-407.5" font-family="Helvetica,sans-Serif" font-size="10.00">&#45;cbmc/diffblue&#45;cbmc/src</text>
<text text-anchor="start" x="1348.13" y="-396.5" font-family="Helvetica,sans-Serif" font-size="10.00">/solvers/smt2_incremental</text>
<text text-anchor="middle" x="1429.63" y="-385.5" font-family="Helvetica,sans-Serif" font-size="10.00">/theories/smt_bit_vector_theory.h</text>
</a>
</g>
</g>
<!-- Node1&#45;&gt;Node26 -->
<g id="edge48" class="edge">
<title>Node1&#45;&gt;Node26</title>
<path fill="none" stroke="midnightblue" d="M875.68,-485.57C980.55,-476.35 1164.02,-457.99 1319.63,-431 1326.29,-429.84 1333.16,-428.54 1340.05,-427.14"/>
<polygon fill="midnightblue" stroke="midnightblue" points="875.13,-482.1 865.47,-486.46 875.74,-489.08 875.13,-482.1"/>
</g>
<!-- Node28 -->
<g id="node28" class="node">
<title>Node28</title>
<g id="a_node28"><a xlink:href="smt__core__theory_8h.html" target="_top" xlink:title=" ">
<polygon fill="none" stroke="black" points="856.63,-106 856.63,-158 1008.63,-158 1008.63,-106 856.63,-106"/>
<text text-anchor="start" x="864.63" y="-146" font-family="Helvetica,sans-Serif" font-size="10.00">/home/runner/work/diffblue</text>
<text text-anchor="start" x="864.63" y="-135" font-family="Helvetica,sans-Serif" font-size="10.00">&#45;cbmc/diffblue&#45;cbmc/src</text>
<text text-anchor="start" x="864.63" y="-124" font-family="Helvetica,sans-Serif" font-size="10.00">/solvers/smt2_incremental</text>
<text text-anchor="middle" x="932.63" y="-113" font-family="Helvetica,sans-Serif" font-size="10.00">/theories/smt_core_theory.h</text>
</a>
</g>
</g>
<!-- Node1&#45;&gt;Node28 -->
<g id="edge51" class="edge">
<title>Node1&#45;&gt;Node28</title>
<path fill="none" stroke="midnightblue" d="M809.94,-458.58C814.67,-449.72 819.54,-440.11 823.63,-431 867.81,-332.48 908.23,-210.14 924.75,-158.2"/>
<polygon fill="midnightblue" stroke="midnightblue" points="806.8,-457.01 805.1,-467.47 812.95,-460.36 806.8,-457.01"/>
</g>
<!-- Node3 -->
<g id="node3" class="node">
<title>Node3</title>
<g id="a_node3"><a xlink:href="smt__commands_8cpp.html" target="_top" xlink:title=" ">
<polygon fill="none" stroke="black" points="224.13,-289.5 224.13,-341.5 373.13,-341.5 373.13,-289.5 224.13,-289.5"/>
<text text-anchor="start" x="232.13" y="-329.5" font-family="Helvetica,sans-Serif" font-size="10.00">/home/runner/work/diffblue</text>
<text text-anchor="start" x="232.13" y="-318.5" font-family="Helvetica,sans-Serif" font-size="10.00">&#45;cbmc/diffblue&#45;cbmc/src</text>
<text text-anchor="start" x="232.13" y="-307.5" font-family="Helvetica,sans-Serif" font-size="10.00">/solvers/smt2_incremental</text>
<text text-anchor="middle" x="298.63" y="-296.5" font-family="Helvetica,sans-Serif" font-size="10.00">/ast/smt_commands.cpp</text>
</a>
</g>
</g>
<!-- Node2&#45;&gt;Node3 -->
<g id="edge2" class="edge">
<title>Node2&#45;&gt;Node3</title>
<path fill="none" stroke="midnightblue" d="M324,-369.06C319.58,-359.9 314.88,-350.17 310.75,-341.61"/>
<polygon fill="midnightblue" stroke="midnightblue" points="320.98,-370.85 328.48,-378.34 327.28,-367.81 320.98,-370.85"/>
</g>
<!-- Node2&#45;&gt;Node4 -->
<g id="edge3" class="edge">
<title>Node2&#45;&gt;Node4</title>
<path fill="none" stroke="midnightblue" d="M256.77,-378.31C240.45,-369.48 225.39,-357.68 215.63,-342 203.18,-322 205.26,-310.15 215.63,-289 269.46,-179.12 395.71,-102.86 475.52,-63.65"/>
<polygon fill="midnightblue" stroke="midnightblue" points="255.44,-381.56 265.95,-382.92 258.59,-375.31 255.44,-381.56"/>
</g>
<!-- Node2&#45;&gt;Node5 -->
<g id="edge4" class="edge">
<title>Node2&#45;&gt;Node5</title>
<path fill="none" stroke="midnightblue" d="M425.24,-381.13C477.71,-367.25 544.49,-349.59 594.98,-336.24"/>
<polygon fill="midnightblue" stroke="midnightblue" points="424.06,-377.82 415.28,-383.76 425.84,-384.59 424.06,-377.82"/>
</g>
<!-- Node2&#45;&gt;Node14 -->
<g id="edge19" class="edge">
<title>Node2&#45;&gt;Node14</title>
<path fill="none" stroke="midnightblue" d="M260.04,-375C229.48,-364.19 194.95,-351.98 165.38,-341.52"/>
<polygon fill="midnightblue" stroke="midnightblue" points="259.21,-378.42 269.8,-378.45 261.54,-371.82 259.21,-378.42"/>
</g>
<!-- Node2&#45;&gt;Node15 -->
<g id="edge24" class="edge">
<title>Node2&#45;&gt;Node15</title>
<path fill="none" stroke="midnightblue" d="M385.16,-372.5C399.72,-362.37 415.7,-351.25 429.55,-341.61"/>
<polygon fill="midnightblue" stroke="midnightblue" points="382.99,-369.75 376.78,-378.34 386.99,-375.5 382.99,-369.75"/>
</g>
<!-- Node5&#45;&gt;Node6 -->
<g id="edge5" class="edge">
<title>Node5&#45;&gt;Node6</title>
<path fill="none" stroke="midnightblue" d="M585.28,-294.36C541.72,-283.33 487.93,-268.72 440.63,-253 354.14,-224.26 256.58,-183.84 196.59,-158.03"/>
<polygon fill="midnightblue" stroke="midnightblue" points="584.43,-297.76 594.98,-296.8 586.13,-290.97 584.43,-297.76"/>
</g>
<!-- Node5&#45;&gt;Node10 -->
<g id="edge10" class="edge">
<title>Node5&#45;&gt;Node10</title>
<path fill="none" stroke="midnightblue" d="M661.7,-279.42C654.13,-245.88 642.82,-195.81 635.58,-163.78"/>
<polygon fill="midnightblue" stroke="midnightblue" points="658.31,-280.28 663.93,-289.26 665.14,-278.74 658.31,-280.28"/>
</g>
<!-- Node12 -->
<g id="node12" class="node">
<title>Node12</title>
<g id="a_node12"><a xlink:href="smt__is__dynamic__object_8cpp.html" target="_top" xlink:title=" ">
<polygon fill="none" stroke="black" points="833.13,-6 833.13,-58 988.13,-58 988.13,-6 833.13,-6"/>
<text text-anchor="start" x="841.13" y="-46" font-family="Helvetica,sans-Serif" font-size="10.00">/home/runner/work/diffblue</text>
<text text-anchor="start" x="841.13" y="-35" font-family="Helvetica,sans-Serif" font-size="10.00">&#45;cbmc/diffblue&#45;cbmc/src</text>
<text text-anchor="start" x="841.13" y="-24" font-family="Helvetica,sans-Serif" font-size="10.00">/solvers/smt2_incremental</text>
<text text-anchor="middle" x="910.63" y="-13" font-family="Helvetica,sans-Serif" font-size="10.00">/smt_is_dynamic_object.cpp</text>
</a>
</g>
</g>
<!-- Node5&#45;&gt;Node12 -->
<g id="edge13" class="edge">
<title>Node5&#45;&gt;Node12</title>
<path fill="none" stroke="midnightblue" d="M695.95,-281.5C730.16,-238.93 792.09,-162.86 847.63,-100 860.1,-85.88 874.46,-70.54 886.32,-58.11"/>
<polygon fill="midnightblue" stroke="midnightblue" points="693.22,-279.32 689.69,-289.31 698.68,-283.7 693.22,-279.32"/>
</g>
<!-- Node5&#45;&gt;Node13 -->
<g id="edge14" class="edge">
<title>Node5&#45;&gt;Node13</title>
<path fill="none" stroke="midnightblue" d="M618.56,-284.07C601.31,-273.79 582.25,-262.43 565.76,-252.61"/>
<polygon fill="midnightblue" stroke="midnightblue" points="617.02,-287.22 627.4,-289.34 620.6,-281.21 617.02,-287.22"/>
</g>
<!-- Node6&#45;&gt;Node4 -->
<g id="edge7" class="edge">
<title>Node6&#45;&gt;Node4</title>
<path fill="none" stroke="midnightblue" d="M217.33,-102.94C220.8,-101.9 224.24,-100.92 227.63,-100 308.89,-77.95 331.29,-81.63 413.63,-64 431.47,-60.18 450.6,-55.83 468.61,-51.63"/>
<polygon fill="midnightblue" stroke="midnightblue" points="216.06,-99.67 207.53,-105.96 218.12,-106.36 216.06,-99.67"/>
</g>
<!-- Node7 -->
<g id="node7" class="node">
<title>Node7</title>
<g id="a_node7"><a xlink:href="convert__expr__to__smt_8cpp.html" target="_top" xlink:title=" ">
<polygon fill="none" stroke="black" points="1187.13,-6 1187.13,-58 1336.13,-58 1336.13,-6 1187.13,-6"/>
<text text-anchor="start" x="1195.13" y="-46" font-family="Helvetica,sans-Serif" font-size="10.00">/home/runner/work/diffblue</text>
<text text-anchor="start" x="1195.13" y="-35" font-family="Helvetica,sans-Serif" font-size="10.00">&#45;cbmc/diffblue&#45;cbmc/src</text>
<text text-anchor="start" x="1195.13" y="-24" font-family="Helvetica,sans-Serif" font-size="10.00">/solvers/smt2_incremental</text>
<text text-anchor="middle" x="1261.63" y="-13" font-family="Helvetica,sans-Serif" font-size="10.00">/convert_expr_to_smt.cpp</text>
</a>
</g>
</g>
<!-- Node6&#45;&gt;Node7 -->
<g id="edge6" class="edge">
<title>Node6&#45;&gt;Node7</title>
<path fill="none" stroke="midnightblue" d="M224.45,-123.97C305.98,-117.34 432.68,-107.34 542.63,-100 825.12,-81.14 901.55,-122.19 1178.63,-64 1185.85,-62.48 1193.29,-60.44 1200.6,-58.13"/>
<polygon fill="midnightblue" stroke="midnightblue" points="223.92,-120.51 214.24,-124.81 224.49,-127.48 223.92,-120.51"/>
</g>
<!-- Node8 -->
<g id="node8" class="node">
<title>Node8</title>
<g id="a_node8"><a xlink:href="smt__object__size_8cpp.html" target="_top" xlink:title=" ">
<polygon fill="none" stroke="black" points="65.13,-6 65.13,-58 214.13,-58 214.13,-6 65.13,-6"/>
<text text-anchor="start" x="73.13" y="-46" font-family="Helvetica,sans-Serif" font-size="10.00">/home/runner/work/diffblue</text>
<text text-anchor="start" x="73.13" y="-35" font-family="Helvetica,sans-Serif" font-size="10.00">&#45;cbmc/diffblue&#45;cbmc/src</text>
<text text-anchor="start" x="73.13" y="-24" font-family="Helvetica,sans-Serif" font-size="10.00">/solvers/smt2_incremental</text>
<text text-anchor="middle" x="139.63" y="-13" font-family="Helvetica,sans-Serif" font-size="10.00">/smt_object_size.cpp</text>
</a>
</g>
</g>
<!-- Node6&#45;&gt;Node8 -->
<g id="edge8" class="edge">
<title>Node6&#45;&gt;Node8</title>
<path fill="none" stroke="midnightblue" d="M139.63,-95.7C139.63,-83.28 139.63,-69.57 139.63,-58.15"/>
<polygon fill="midnightblue" stroke="midnightblue" points="136.13,-95.76 139.63,-105.76 143.13,-95.76 136.13,-95.76"/>
</g>
<!-- Node9 -->
<g id="node9" class="node">
<title>Node9</title>
<g id="a_node9"><a xlink:href="type__size__mapping_8cpp.html" target="_top" xlink:title=" ">
<polygon fill="none" stroke="black" points="255.13,-6 255.13,-58 404.13,-58 404.13,-6 255.13,-6"/>
<text text-anchor="start" x="263.13" y="-46" font-family="Helvetica,sans-Serif" font-size="10.00">/home/runner/work/diffblue</text>
<text text-anchor="start" x="263.13" y="-35" font-family="Helvetica,sans-Serif" font-size="10.00">&#45;cbmc/diffblue&#45;cbmc/src</text>
<text text-anchor="start" x="263.13" y="-24" font-family="Helvetica,sans-Serif" font-size="10.00">/solvers/smt2_incremental</text>
<text text-anchor="middle" x="329.63" y="-13" font-family="Helvetica,sans-Serif" font-size="10.00">/type_size_mapping.cpp</text>
</a>
</g>
</g>
<!-- Node6&#45;&gt;Node9 -->
<g id="edge9" class="edge">
<title>Node6&#45;&gt;Node9</title>
<path fill="none" stroke="midnightblue" d="M197.76,-101.02C224.35,-87.3 255.51,-71.23 280.86,-58.15"/>
<polygon fill="midnightblue" stroke="midnightblue" points="195.84,-98.07 188.56,-105.76 199.05,-104.29 195.84,-98.07"/>
</g>
<!-- Node10&#45;&gt;Node4 -->
<g id="edge12" class="edge">
<title>Node10&#45;&gt;Node4</title>
<path fill="none" stroke="midnightblue" d="M595.94,-92.4C587.85,-82.85 579.29,-72.74 571.57,-63.63"/>
<polygon fill="midnightblue" stroke="midnightblue" points="593.46,-94.89 602.59,-100.26 598.8,-90.37 593.46,-94.89"/>
</g>
<!-- Node11 -->
<g id="node11" class="node">
<title>Node11</title>
<g id="a_node11"><a xlink:href="solver__factory_8cpp.html" target="_top" xlink:title="Solver Factory.">
<polygon fill="none" stroke="black" points="640.63,-11.5 640.63,-52.5 814.63,-52.5 814.63,-11.5 640.63,-11.5"/>
<text text-anchor="start" x="648.63" y="-40.5" font-family="Helvetica,sans-Serif" font-size="10.00">/home/runner/work/diffblue</text>
<text text-anchor="start" x="648.63" y="-29.5" font-family="Helvetica,sans-Serif" font-size="10.00">&#45;cbmc/diffblue&#45;cbmc/src</text>
<text text-anchor="middle" x="727.63" y="-18.5" font-family="Helvetica,sans-Serif" font-size="10.00">/goto&#45;checker/solver_factory.cpp</text>
</a>
</g>
</g>
<!-- Node10&#45;&gt;Node11 -->
<g id="edge11" class="edge">
<title>Node10&#45;&gt;Node11</title>
<path fill="none" stroke="midnightblue" d="M666.87,-93.15C680.88,-79.27 696.17,-64.14 707.9,-52.53"/>
<polygon fill="midnightblue" stroke="midnightblue" points="664.32,-90.74 659.68,-100.26 669.25,-95.71 664.32,-90.74"/>
</g>
<!-- Node13&#45;&gt;Node4 -->
<g id="edge16" class="edge">
<title>Node13&#45;&gt;Node4</title>
<path fill="none" stroke="midnightblue" d="M527.66,-190.2C531.81,-153.93 538.2,-98.02 542.13,-63.57"/>
<polygon fill="midnightblue" stroke="midnightblue" points="524.16,-190 526.5,-200.33 531.12,-190.8 524.16,-190"/>
</g>
<!-- Node13&#45;&gt;Node6 -->
<g id="edge15" class="edge">
<title>Node13&#45;&gt;Node6</title>
<path fill="none" stroke="midnightblue" d="M438.55,-205.01C371.42,-188.84 278.69,-166.5 214.39,-151.01"/>
<polygon fill="midnightblue" stroke="midnightblue" points="438.13,-208.51 448.68,-207.45 439.77,-201.7 438.13,-208.51"/>
</g>
<!-- Node13&#45;&gt;Node9 -->
<g id="edge18" class="edge">
<title>Node13&#45;&gt;Node9</title>
<path fill="none" stroke="midnightblue" d="M490.94,-193.06C452.6,-155.02 389.85,-92.76 355,-58.17"/>
<polygon fill="midnightblue" stroke="midnightblue" points="488.7,-195.77 498.26,-200.33 493.63,-190.81 488.7,-195.77"/>
</g>
<!-- Node13&#45;&gt;Node10 -->
<g id="edge17" class="edge">
<title>Node13&#45;&gt;Node10</title>
<path fill="none" stroke="midnightblue" d="M559.84,-193.6C570.84,-183.91 582.91,-173.28 593.82,-163.66"/>
<polygon fill="midnightblue" stroke="midnightblue" points="557.23,-191.23 552.04,-200.47 561.86,-196.48 557.23,-191.23"/>
</g>
<!-- Node14&#45;&gt;Node6 -->
<g id="edge20" class="edge">
<title>Node14&#45;&gt;Node6</title>
<path fill="none" stroke="midnightblue" d="M103.36,-279.29C112.19,-243.67 125.62,-189.48 133.42,-158.02"/>
<polygon fill="midnightblue" stroke="midnightblue" points="99.89,-278.71 100.88,-289.26 106.69,-280.4 99.89,-278.71"/>
</g>
<!-- Node14&#45;&gt;Node8 -->
<g id="edge22" class="edge">
<title>Node14&#45;&gt;Node8</title>
<path fill="none" stroke="midnightblue" d="M76.13,-280.3C55.11,-236.47 27.17,-159.09 55.63,-100 63.8,-83.02 78.6,-69.02 93.52,-58.27"/>
<polygon fill="midnightblue" stroke="midnightblue" points="73.05,-281.97 80.62,-289.39 79.33,-278.87 73.05,-281.97"/>
</g>
<!-- Node14&#45;&gt;Node10 -->
<g id="edge21" class="edge">
<title>Node14&#45;&gt;Node10</title>
<path fill="none" stroke="midnightblue" d="M179.37,-295.34C191.5,-292.98 203.85,-290.78 215.63,-289 302.13,-275.96 543.3,-312.28 607.63,-253 631.81,-230.71 634.36,-191.23 632.64,-163.66"/>
<polygon fill="midnightblue" stroke="midnightblue" points="178.38,-291.97 169.25,-297.36 179.75,-298.83 178.38,-291.97"/>
</g>
<!-- Node14&#45;&gt;Node13 -->
<g id="edge23" class="edge">
<title>Node14&#45;&gt;Node13</title>
<path fill="none" stroke="midnightblue" d="M178.95,-296.61C191.25,-294.03 203.76,-291.43 215.63,-289 295.21,-272.67 386.5,-254.51 448.9,-242.19"/>
<polygon fill="midnightblue" stroke="midnightblue" points="178.22,-293.19 169.15,-298.66 179.66,-300.04 178.22,-293.19"/>
</g>
<!-- Node16&#45;&gt;Node4 -->
<g id="edge27" class="edge">
<title>Node16&#45;&gt;Node4</title>
<path fill="none" stroke="midnightblue" d="M1118.8,-218.54C1028.07,-209.77 891.32,-192.32 847.63,-164 818.87,-145.36 833.06,-119.13 804.63,-100 739.46,-56.16 707.2,-85.37 631.63,-64 628.73,-63.18 625.78,-62.31 622.82,-61.4"/>
<polygon fill="midnightblue" stroke="midnightblue" points="1118.52,-222.03 1128.81,-219.49 1119.18,-215.06 1118.52,-222.03"/>
</g>
<!-- Node17 -->
<g id="node17" class="node">
<title>Node17</title>
<g id="a_node17"><a xlink:href="smt__responses_8cpp.html" target="_top" xlink:title=" ">
<polygon fill="none" stroke="black" points="1194.13,-106 1194.13,-158 1343.13,-158 1343.13,-106 1194.13,-106"/>
<text text-anchor="start" x="1202.13" y="-146" font-family="Helvetica,sans-Serif" font-size="10.00">/home/runner/work/diffblue</text>
<text text-anchor="start" x="1202.13" y="-135" font-family="Helvetica,sans-Serif" font-size="10.00">&#45;cbmc/diffblue&#45;cbmc/src</text>
<text text-anchor="start" x="1202.13" y="-124" font-family="Helvetica,sans-Serif" font-size="10.00">/solvers/smt2_incremental</text>
<text text-anchor="middle" x="1268.63" y="-113" font-family="Helvetica,sans-Serif" font-size="10.00">/ast/smt_responses.cpp</text>
</a>
</g>
</g>
<!-- Node16&#45;&gt;Node17 -->
<g id="edge26" class="edge">
<title>Node16&#45;&gt;Node17</title>
<path fill="none" stroke="midnightblue" d="M1227.19,-191.97C1235.01,-180.84 1243.58,-168.64 1250.89,-158.25"/>
<polygon fill="midnightblue" stroke="midnightblue" points="1224.27,-190.03 1221.39,-200.22 1230,-194.05 1224.27,-190.03"/>
</g>
<!-- Node18 -->
<g id="node18" class="node">
<title>Node18</title>
<g id="a_node18"><a xlink:href="smt__response__validation_8h.html" target="_top" xlink:title=" ">
<polygon fill="none" stroke="black" points="1701.13,-106 1701.13,-158 1852.13,-158 1852.13,-106 1701.13,-106"/>
<text text-anchor="start" x="1709.13" y="-146" font-family="Helvetica,sans-Serif" font-size="10.00">/home/runner/work/diffblue</text>
<text text-anchor="start" x="1709.13" y="-135" font-family="Helvetica,sans-Serif" font-size="10.00">&#45;cbmc/diffblue&#45;cbmc/src</text>
<text text-anchor="start" x="1709.13" y="-124" font-family="Helvetica,sans-Serif" font-size="10.00">/solvers/smt2_incremental</text>
<text text-anchor="middle" x="1776.63" y="-113" font-family="Helvetica,sans-Serif" font-size="10.00">/smt_response_validation.h</text>
</a>
</g>
</g>
<!-- Node16&#45;&gt;Node18 -->
<g id="edge28" class="edge">
<title>Node16&#45;&gt;Node18</title>
<path fill="none" stroke="midnightblue" d="M1288.3,-220.61C1386.46,-213.61 1552.55,-197.67 1691.63,-164 1698.5,-162.34 1705.58,-160.3 1712.58,-158.07"/>
<polygon fill="midnightblue" stroke="midnightblue" points="1287.87,-217.13 1278.14,-221.32 1288.36,-224.11 1287.87,-217.13"/>
</g>
<!-- Node21 -->
<g id="node21" class="node">
<title>Node21</title>
<g id="a_node21"><a xlink:href="smt__solver__process_8h.html" target="_top" xlink:title=" ">
<polygon fill="none" stroke="black" points="1027.13,-106 1027.13,-158 1176.13,-158 1176.13,-106 1027.13,-106"/>
<text text-anchor="start" x="1035.13" y="-146" font-family="Helvetica,sans-Serif" font-size="10.00">/home/runner/work/diffblue</text>
<text text-anchor="start" x="1035.13" y="-135" font-family="Helvetica,sans-Serif" font-size="10.00">&#45;cbmc/diffblue&#45;cbmc/src</text>
<text text-anchor="start" x="1035.13" y="-124" font-family="Helvetica,sans-Serif" font-size="10.00">/solvers/smt2_incremental</text>
<text text-anchor="middle" x="1101.63" y="-113" font-family="Helvetica,sans-Serif" font-size="10.00">/smt_solver_process.h</text>
</a>
</g>
</g>
<!-- Node16&#45;&gt;Node21 -->
<g id="edge31" class="edge">
<title>Node16&#45;&gt;Node21</title>
<path fill="none" stroke="midnightblue" d="M1168.29,-193.45C1155.51,-181.86 1141.27,-168.95 1129.25,-158.05"/>
<polygon fill="midnightblue" stroke="midnightblue" points="1166.27,-196.34 1176.02,-200.47 1170.97,-191.16 1166.27,-196.34"/>
</g>
<!-- Node19 -->
<g id="node19" class="node">
<title>Node19</title>
<g id="a_node19"><a xlink:href="smt__response__validation_8cpp.html" target="_top" xlink:title="Validation of smt response parse trees to produce either a strongly typed smt_responset representatio...">
<polygon fill="none" stroke="black" points="1706.63,-6 1706.63,-58 1868.63,-58 1868.63,-6 1706.63,-6"/>
<text text-anchor="start" x="1714.63" y="-46" font-family="Helvetica,sans-Serif" font-size="10.00">/home/runner/work/diffblue</text>
<text text-anchor="start" x="1714.63" y="-35" font-family="Helvetica,sans-Serif" font-size="10.00">&#45;cbmc/diffblue&#45;cbmc/src</text>
<text text-anchor="start" x="1714.63" y="-24" font-family="Helvetica,sans-Serif" font-size="10.00">/solvers/smt2_incremental</text>
<text text-anchor="middle" x="1787.63" y="-13" font-family="Helvetica,sans-Serif" font-size="10.00">/smt_response_validation.cpp</text>
</a>
</g>
</g>
<!-- Node18&#45;&gt;Node19 -->
<g id="edge29" class="edge">
<title>Node18&#45;&gt;Node19</title>
<path fill="none" stroke="midnightblue" d="M1780.59,-95.7C1781.98,-83.28 1783.52,-69.57 1784.8,-58.15"/>
<polygon fill="midnightblue" stroke="midnightblue" points="1777.1,-95.43 1779.46,-105.76 1784.05,-96.22 1777.1,-95.43"/>
</g>
<!-- Node20 -->
<g id="node20" class="node">
<title>Node20</title>
<g id="a_node20"><a xlink:href="smt__solver__process_8cpp.html" target="_top" xlink:title=" ">
<polygon fill="none" stroke="black" points="1354.13,-6 1354.13,-58 1503.13,-58 1503.13,-6 1354.13,-6"/>
<text text-anchor="start" x="1362.13" y="-46" font-family="Helvetica,sans-Serif" font-size="10.00">/home/runner/work/diffblue</text>
<text text-anchor="start" x="1362.13" y="-35" font-family="Helvetica,sans-Serif" font-size="10.00">&#45;cbmc/diffblue&#45;cbmc/src</text>
<text text-anchor="start" x="1362.13" y="-24" font-family="Helvetica,sans-Serif" font-size="10.00">/solvers/smt2_incremental</text>
<text text-anchor="middle" x="1428.63" y="-13" font-family="Helvetica,sans-Serif" font-size="10.00">/smt_solver_process.cpp</text>
</a>
</g>
</g>
<!-- Node18&#45;&gt;Node20 -->
<g id="edge30" class="edge">
<title>Node18&#45;&gt;Node20</title>
<path fill="none" stroke="midnightblue" d="M1701.28,-102.85C1698.03,-101.85 1694.8,-100.89 1691.63,-100 1613.51,-78.04 1590.7,-86.11 1512.63,-64 1506.35,-62.22 1499.86,-60.19 1493.42,-58.04"/>
<polygon fill="midnightblue" stroke="midnightblue" points="1700.46,-106.26 1711.05,-105.97 1702.59,-99.6 1700.46,-106.26"/>
</g>
<!-- Node21&#45;&gt;Node4 -->
<g id="edge33" class="edge">
<title>Node21&#45;&gt;Node4</title>
<path fill="none" stroke="midnightblue" d="M1029.46,-103.02C1025.48,-101.9 1021.52,-100.88 1017.63,-100 849.6,-61.85 799.79,-101.51 631.63,-64 628.68,-63.34 625.7,-62.61 622.71,-61.82"/>
<polygon fill="midnightblue" stroke="midnightblue" points="1028.74,-106.46 1039.33,-105.99 1030.76,-99.76 1028.74,-106.46"/>
</g>
<!-- Node21&#45;&gt;Node11 -->
<g id="edge32" class="edge">
<title>Node21&#45;&gt;Node11</title>
<path fill="none" stroke="midnightblue" d="M1027.19,-102.78C1023.97,-101.8 1020.77,-100.87 1017.63,-100 933.51,-76.81 909.24,-85.32 824.63,-64 811.6,-60.72 797.76,-56.65 784.73,-52.56"/>
<polygon fill="midnightblue" stroke="midnightblue" points="1026.27,-106.17 1036.86,-105.87 1028.4,-99.5 1026.27,-106.17"/>
</g>
<!-- Node21&#45;&gt;Node20 -->
<g id="edge34" class="edge">
<title>Node21&#45;&gt;Node20</title>
<path fill="none" stroke="midnightblue" d="M1176.63,-102.76C1179.66,-101.8 1182.67,-100.88 1185.63,-100 1255.53,-79.34 1275.77,-84.8 1345.63,-64 1351.67,-62.2 1357.91,-60.18 1364.12,-58.06"/>
<polygon fill="midnightblue" stroke="midnightblue" points="1175.33,-99.51 1166.92,-105.95 1177.51,-106.16 1175.33,-99.51"/>
</g>
<!-- Node24&#45;&gt;Node4 -->
<g id="edge45" class="edge">
<title>Node24&#45;&gt;Node4</title>
<path fill="none" stroke="midnightblue" d="M1516.35,-118.55C1468.07,-112.14 1407.16,-104.71 1352.63,-100 1032.97,-72.4 946.21,-127.09 631.63,-64 628.67,-63.41 625.68,-62.73 622.67,-61.99"/>
<polygon fill="midnightblue" stroke="midnightblue" points="1516.08,-122.05 1526.46,-119.9 1517.01,-115.11 1516.08,-122.05"/>
</g>
<!-- Node24&#45;&gt;Node7 -->
<g id="edge44" class="edge">
<title>Node24&#45;&gt;Node7</title>
<path fill="none" stroke="midnightblue" d="M1522.95,-102.95C1519.47,-101.92 1516.02,-100.93 1512.63,-100 1439.42,-79.85 1418.54,-85.2 1345.63,-64 1339.51,-62.22 1333.19,-60.22 1326.9,-58.1"/>
<polygon fill="midnightblue" stroke="midnightblue" points="1522.21,-106.38 1532.8,-105.93 1524.24,-99.68 1522.21,-106.38"/>
</g>
<!-- Node24&#45;&gt;Node19 -->
<g id="edge46" class="edge">
<title>Node24&#45;&gt;Node19</title>
<path fill="none" stroke="midnightblue" d="M1660.62,-101.02C1686.23,-87.3 1716.24,-71.23 1740.66,-58.15"/>
<polygon fill="midnightblue" stroke="midnightblue" points="1658.92,-97.96 1651.75,-105.76 1662.22,-104.13 1658.92,-97.96"/>
</g>
<!-- Node25 -->
<g id="node25" class="node">
<title>Node25</title>
<g id="a_node25"><a xlink:href="smt__array__theory_8cpp.html" target="_top" xlink:title=" ">
<polygon fill="none" stroke="black" points="1521.13,-6 1521.13,-58 1688.13,-58 1688.13,-6 1521.13,-6"/>
<text text-anchor="start" x="1529.13" y="-46" font-family="Helvetica,sans-Serif" font-size="10.00">/home/runner/work/diffblue</text>
<text text-anchor="start" x="1529.13" y="-35" font-family="Helvetica,sans-Serif" font-size="10.00">&#45;cbmc/diffblue&#45;cbmc/src</text>
<text text-anchor="start" x="1529.13" y="-24" font-family="Helvetica,sans-Serif" font-size="10.00">/solvers/smt2_incremental</text>
<text text-anchor="middle" x="1604.63" y="-13" font-family="Helvetica,sans-Serif" font-size="10.00">/theories/smt_array_theory.cpp</text>
</a>
</g>
</g>
<!-- Node24&#45;&gt;Node25 -->
<g id="edge47" class="edge">
<title>Node24&#45;&gt;Node25</title>
<path fill="none" stroke="midnightblue" d="M1604.63,-95.7C1604.63,-83.28 1604.63,-69.57 1604.63,-58.15"/>
<polygon fill="midnightblue" stroke="midnightblue" points="1601.13,-95.76 1604.63,-105.76 1608.13,-95.76 1601.13,-95.76"/>
</g>
<!-- Node26&#45;&gt;Node7 -->
<g id="edge49" class="edge">
<title>Node26&#45;&gt;Node7</title>
<path fill="none" stroke="midnightblue" d="M1504.65,-372.97C1516.65,-364.72 1527.46,-354.51 1534.63,-342 1546.34,-321.56 1543.44,-310.85 1534.63,-289 1490.71,-180.08 1372.71,-97.35 1307.14,-58.12"/>
<polygon fill="midnightblue" stroke="midnightblue" points="1502.73,-370.04 1496.18,-378.37 1506.49,-375.94 1502.73,-370.04"/>
</g>
<!-- Node27 -->
<g id="node27" class="node">
<title>Node27</title>
<g id="a_node27"><a xlink:href="smt__bit__vector__theory_8cpp.html" target="_top" xlink:title=" ">
<polygon fill="none" stroke="black" points="1334.13,-289.5 1334.13,-341.5 1525.13,-341.5 1525.13,-289.5 1334.13,-289.5"/>
<text text-anchor="start" x="1342.13" y="-329.5" font-family="Helvetica,sans-Serif" font-size="10.00">/home/runner/work/diffblue</text>
<text text-anchor="start" x="1342.13" y="-318.5" font-family="Helvetica,sans-Serif" font-size="10.00">&#45;cbmc/diffblue&#45;cbmc/src</text>
<text text-anchor="start" x="1342.13" y="-307.5" font-family="Helvetica,sans-Serif" font-size="10.00">/solvers/smt2_incremental</text>
<text text-anchor="middle" x="1429.63" y="-296.5" font-family="Helvetica,sans-Serif" font-size="10.00">/theories/smt_bit_vector_theory.cpp</text>
</a>
</g>
</g>
<!-- Node26&#45;&gt;Node27 -->
<g id="edge50" class="edge">
<title>Node26&#45;&gt;Node27</title>
<path fill="none" stroke="midnightblue" d="M1429.63,-368.19C1429.63,-359.28 1429.63,-349.9 1429.63,-341.61"/>
<polygon fill="midnightblue" stroke="midnightblue" points="1426.13,-368.34 1429.63,-378.34 1433.13,-368.34 1426.13,-368.34"/>
</g>
<!-- Node28&#45;&gt;Node4 -->
<g id="edge53" class="edge">
<title>Node28&#45;&gt;Node4</title>
<path fill="none" stroke="midnightblue" d="M854.08,-103.12C850.22,-102.01 846.39,-100.96 842.63,-100 750.46,-76.43 723.62,-88.22 631.63,-64 628.71,-63.23 625.75,-62.41 622.78,-61.54"/>
<polygon fill="midnightblue" stroke="midnightblue" points="853.11,-106.48 863.69,-105.99 855.11,-99.77 853.11,-106.48"/>
</g>
<!-- Node28&#45;&gt;Node7 -->
<g id="edge52" class="edge">
<title>Node28&#45;&gt;Node7</title>
<path fill="none" stroke="midnightblue" d="M1009.13,-102.88C1012.33,-101.87 1015.5,-100.91 1018.63,-100 1088.6,-79.6 1108.77,-84.8 1178.63,-64 1184.67,-62.2 1190.91,-60.18 1197.12,-58.06"/>
<polygon fill="midnightblue" stroke="midnightblue" points="1007.94,-99.58 999.5,-105.98 1010.09,-106.24 1007.94,-99.58"/>
</g>
<!-- Node28&#45;&gt;Node8 -->
<g id="edge55" class="edge">
<title>Node28&#45;&gt;Node8</title>
<path fill="none" stroke="midnightblue" d="M846.61,-117.46C806.57,-111.5 758.24,-104.77 714.63,-100 507.25,-77.3 451.89,-101.22 246.63,-64 236.07,-62.08 225.05,-59.54 214.28,-56.74"/>
<polygon fill="midnightblue" stroke="midnightblue" points="846.2,-120.94 856.61,-118.96 847.24,-114.02 846.2,-120.94"/>
</g>
<!-- Node28&#45;&gt;Node12 -->
<g id="edge54" class="edge">
<title>Node28&#45;&gt;Node12</title>
<path fill="none" stroke="midnightblue" d="M924.7,-95.7C921.91,-83.28 918.84,-69.57 916.27,-58.15"/>
<polygon fill="midnightblue" stroke="midnightblue" points="921.36,-96.77 926.96,-105.76 928.19,-95.24 921.36,-96.77"/>
</g>
<!-- Node29 -->
<g id="node29" class="node">
<title>Node29</title>
<g id="a_node29"><a xlink:href="smt__core__theory_8cpp.html" target="_top" xlink:title=" ">
<polygon fill="none" stroke="black" points="1006.13,-6 1006.13,-58 1169.13,-58 1169.13,-6 1006.13,-6"/>
<text text-anchor="start" x="1014.13" y="-46" font-family="Helvetica,sans-Serif" font-size="10.00">/home/runner/work/diffblue</text>
<text text-anchor="start" x="1014.13" y="-35" font-family="Helvetica,sans-Serif" font-size="10.00">&#45;cbmc/diffblue&#45;cbmc/src</text>
<text text-anchor="start" x="1014.13" y="-24" font-family="Helvetica,sans-Serif" font-size="10.00">/solvers/smt2_incremental</text>
<text text-anchor="middle" x="1087.63" y="-13" font-family="Helvetica,sans-Serif" font-size="10.00">/theories/smt_core_theory.cpp</text>
</a>
</g>
</g>
<!-- Node28&#45;&gt;Node29 -->
<g id="edge56" class="edge">
<title>Node28&#45;&gt;Node29</title>
<path fill="none" stroke="midnightblue" d="M981.19,-100.3C1002.63,-86.74 1027.53,-71 1047.85,-58.15"/>
<polygon fill="midnightblue" stroke="midnightblue" points="979.13,-97.46 972.54,-105.76 982.87,-103.38 979.13,-97.46"/>
</g>
</g>
</svg>
