<?xml version="1.0" encoding="UTF-8" standalone="no"?>
<!DOCTYPE svg PUBLIC "-//W3C//DTD SVG 1.1//EN"
 "http://www.w3.org/Graphics/SVG/1.1/DTD/svg11.dtd">
<!-- Generated by graphviz version 2.43.0 (0)
 -->
<!-- Title: /home/runner/work/diffblue&#45;cbmc/diffblue&#45;cbmc/src/util/sparse_vector.h Pages: 1 -->
<svg width="342pt" height="228pt"
 viewBox="0.00 0.00 341.50 228.00" xmlns="http://www.w3.org/2000/svg" xmlns:xlink="http://www.w3.org/1999/xlink">
<g id="graph0" class="graph" transform="scale(1 1) rotate(0) translate(4 224)">
<title>/home/runner/work/diffblue&#45;cbmc/diffblue&#45;cbmc/src/util/sparse_vector.h</title>
<!-- Node1 -->
<g id="node1" class="node">
<title>Node1</title>
<g id="a_node1"><a xlink:title="Sparse Vectors.">
<polygon fill="#bfbfbf" stroke="black" points="96.5,-178.5 96.5,-219.5 245.5,-219.5 245.5,-178.5 96.5,-178.5"/>
<text text-anchor="start" x="104.5" y="-207.5" font-family="Helvetica,sans-Serif" font-size="10.00">/home/runner/work/diffblue</text>
<text text-anchor="start" x="104.5" y="-196.5" font-family="Helvetica,sans-Serif" font-size="10.00">&#45;cbmc/diffblue&#45;cbmc/src</text>
<text text-anchor="middle" x="171" y="-185.5" font-family="Helvetica,sans-Serif" font-size="10.00">/util/sparse_vector.h</text>
</a>
</g>
</g>
<!-- Node2 -->
<g id="node2" class="node">
<title>Node2</title>
<g id="a_node2"><a xlink:href="interpreter__class_8h.html" target="_top" xlink:title="Interpreter for GOTO Programs.">
<polygon fill="none" stroke="black" points="96.5,-89.5 96.5,-141.5 245.5,-141.5 245.5,-89.5 96.5,-89.5"/>
<text text-anchor="start" x="104.5" y="-129.5" font-family="Helvetica,sans-Serif" font-size="10.00">/home/runner/work/diffblue</text>
<text text-anchor="start" x="104.5" y="-118.5" font-family="Helvetica,sans-Serif" font-size="10.00">&#45;cbmc/diffblue&#45;cbmc/src</text>
<text text-anchor="start" x="104.5" y="-107.5" font-family="Helvetica,sans-Serif" font-size="10.00">/goto&#45;programs/interpreter</text>
<text text-anchor="middle" x="171" y="-96.5" font-family="Helvetica,sans-Serif" font-size="10.00">_class.h</text>
</a>
</g>
</g>
<!-- Node1&#45;&gt;Node2 -->
<g id="edge1" class="edge">
<title>Node1&#45;&gt;Node2</title>
<path fill="none" stroke="midnightblue" d="M171,-168.12C171,-159.41 171,-149.99 171,-141.61"/>
<polygon fill="midnightblue" stroke="midnightblue" points="167.5,-168.27 171,-178.27 174.5,-168.27 167.5,-168.27"/>
</g>
<!-- Node3 -->
<g id="node3" class="node">
<title>Node3</title>
<g id="a_node3"><a xlink:href="interpreter_8cpp.html" target="_top" xlink:title="Interpreter for GOTO Programs.">
<polygon fill="none" stroke="black" points="0,-6 0,-47 166,-47 166,-6 0,-6"/>
<text text-anchor="start" x="8" y="-35" font-family="Helvetica,sans-Serif" font-size="10.00">/home/runner/work/diffblue</text>
<text text-anchor="start" x="8" y="-24" font-family="Helvetica,sans-Serif" font-size="10.00">&#45;cbmc/diffblue&#45;cbmc/src</text>
<text text-anchor="middle" x="83" y="-13" font-family="Helvetica,sans-Serif" font-size="10.00">/goto&#45;programs/interpreter.cpp</text>
</a>
</g>
</g>
<!-- Node2&#45;&gt;Node3 -->
<g id="edge2" class="edge">
<title>Node2&#45;&gt;Node3</title>
<path fill="none" stroke="midnightblue" d="M138.31,-82.18C126.39,-70.39 113.27,-57.43 102.81,-47.08"/>
<polygon fill="midnightblue" stroke="midnightblue" points="135.97,-84.79 145.55,-89.34 140.9,-79.82 135.97,-84.79"/>
</g>
<!-- Node4 -->
<g id="node4" class="node">
<title>Node4</title>
<g id="a_node4"><a xlink:href="interpreter__evaluate_8cpp.html" target="_top" xlink:title="Interpreter for GOTO Programs.">
<polygon fill="none" stroke="black" points="184.5,-0.5 184.5,-52.5 333.5,-52.5 333.5,-0.5 184.5,-0.5"/>
<text text-anchor="start" x="192.5" y="-40.5" font-family="Helvetica,sans-Serif" font-size="10.00">/home/runner/work/diffblue</text>
<text text-anchor="start" x="192.5" y="-29.5" font-family="Helvetica,sans-Serif" font-size="10.00">&#45;cbmc/diffblue&#45;cbmc/src</text>
<text text-anchor="start" x="192.5" y="-18.5" font-family="Helvetica,sans-Serif" font-size="10.00">/goto&#45;programs/interpreter</text>
<text text-anchor="middle" x="259" y="-7.5" font-family="Helvetica,sans-Serif" font-size="10.00">_evaluate.cpp</text>
</a>
</g>
</g>
<!-- Node2&#45;&gt;Node4 -->
<g id="edge3" class="edge">
<title>Node2&#45;&gt;Node4</title>
<path fill="none" stroke="midnightblue" d="M203.8,-82.08C213.65,-72.34 224.31,-61.8 233.6,-52.61"/>
<polygon fill="midnightblue" stroke="midnightblue" points="201.1,-79.82 196.45,-89.34 206.03,-84.79 201.1,-79.82"/>
</g>
</g>
</svg>
