<?xml version="1.0" encoding="UTF-8" standalone="no"?>
<!DOCTYPE svg PUBLIC "-//W3C//DTD SVG 1.1//EN"
 "http://www.w3.org/Graphics/SVG/1.1/DTD/svg11.dtd">
<!-- Generated by graphviz version 2.43.0 (0)
 -->
<!-- Title: /home/runner/work/diffblue&#45;cbmc/diffblue&#45;cbmc/src/solvers/smt2/smt2irep.h Pages: 1 -->
<svg width="157pt" height="106pt"
 viewBox="0.00 0.00 157.00 106.00" xmlns="http://www.w3.org/2000/svg" xmlns:xlink="http://www.w3.org/1999/xlink">
<g id="graph0" class="graph" transform="scale(1 1) rotate(0) translate(4 102)">
<title>/home/runner/work/diffblue&#45;cbmc/diffblue&#45;cbmc/src/solvers/smt2/smt2irep.h</title>
<!-- Node1 -->
<g id="node1" class="node">
<title>Node1</title>
<g id="a_node1"><a xlink:title=" ">
<polygon fill="#bfbfbf" stroke="black" points="0,-56.5 0,-97.5 149,-97.5 149,-56.5 0,-56.5"/>
<text text-anchor="start" x="8" y="-85.5" font-family="Helvetica,sans-Serif" font-size="10.00">/home/runner/work/diffblue</text>
<text text-anchor="start" x="8" y="-74.5" font-family="Helvetica,sans-Serif" font-size="10.00">&#45;cbmc/diffblue&#45;cbmc/src</text>
<text text-anchor="middle" x="74.5" y="-63.5" font-family="Helvetica,sans-Serif" font-size="10.00">/solvers/smt2/smt2irep.h</text>
</a>
</g>
</g>
<!-- Node2 -->
<g id="node2" class="node">
<title>Node2</title>
<g id="a_node2"><a xlink:title=" ">
<polygon fill="none" stroke="#bfbfbf" points="15.5,-0.5 15.5,-19.5 63.5,-19.5 63.5,-0.5 15.5,-0.5"/>
<text text-anchor="middle" x="39.5" y="-7.5" font-family="Helvetica,sans-Serif" font-size="10.00">iosfwd</text>
</a>
</g>
</g>
<!-- Node1&#45;&gt;Node2 -->
<g id="edge1" class="edge">
<title>Node1&#45;&gt;Node2</title>
<path fill="none" stroke="midnightblue" d="M64,-56.5C59.2,-47.59 53.56,-37.11 48.9,-28.46"/>
<polygon fill="midnightblue" stroke="midnightblue" points="51.98,-26.8 44.16,-19.65 45.82,-30.12 51.98,-26.8"/>
</g>
<!-- Node3 -->
<g id="node3" class="node">
<title>Node3</title>
<g id="a_node3"><a xlink:title=" ">
<polygon fill="none" stroke="#bfbfbf" points="81.5,-0.5 81.5,-19.5 137.5,-19.5 137.5,-0.5 81.5,-0.5"/>
<text text-anchor="middle" x="109.5" y="-7.5" font-family="Helvetica,sans-Serif" font-size="10.00">optional</text>
</a>
</g>
</g>
<!-- Node1&#45;&gt;Node3 -->
<g id="edge2" class="edge">
<title>Node1&#45;&gt;Node3</title>
<path fill="none" stroke="midnightblue" d="M85,-56.5C89.8,-47.59 95.44,-37.11 100.1,-28.46"/>
<polygon fill="midnightblue" stroke="midnightblue" points="103.18,-30.12 104.84,-19.65 97.02,-26.8 103.18,-30.12"/>
</g>
</g>
</svg>
