<?xml version="1.0" encoding="UTF-8" standalone="no"?>
<!DOCTYPE svg PUBLIC "-//W3C//DTD SVG 1.1//EN"
 "http://www.w3.org/Graphics/SVG/1.1/DTD/svg11.dtd">
<!-- Generated by graphviz version 2.43.0 (0)
 -->
<!-- Title: /home/runner/work/diffblue&#45;cbmc/diffblue&#45;cbmc/src/util/invariant.cpp Pages: 1 -->
<svg width="531pt" height="162pt"
 viewBox="0.00 0.00 530.50 162.00" xmlns="http://www.w3.org/2000/svg" xmlns:xlink="http://www.w3.org/1999/xlink">
<g id="graph0" class="graph" transform="scale(1 1) rotate(0) translate(4 158)">
<title>/home/runner/work/diffblue&#45;cbmc/diffblue&#45;cbmc/src/util/invariant.cpp</title>
<!-- Node1 -->
<g id="node1" class="node">
<title>Node1</title>
<g id="a_node1"><a xlink:title=" ">
<polygon fill="#bfbfbf" stroke="black" points="210,-112.5 210,-153.5 359,-153.5 359,-112.5 210,-112.5"/>
<text text-anchor="start" x="218" y="-141.5" font-family="Helvetica,sans-Serif" font-size="10.00">/home/runner/work/diffblue</text>
<text text-anchor="start" x="218" y="-130.5" font-family="Helvetica,sans-Serif" font-size="10.00">&#45;cbmc/diffblue&#45;cbmc/src</text>
<text text-anchor="middle" x="284.5" y="-119.5" font-family="Helvetica,sans-Serif" font-size="10.00">/util/invariant.cpp</text>
</a>
</g>
</g>
<!-- Node2 -->
<g id="node2" class="node">
<title>Node2</title>
<g id="a_node2"><a xlink:href="src_2util_2invariant_8h.html" target="_top" xlink:title=" ">
<polygon fill="none" stroke="black" points="187,-56.5 187,-75.5 256,-75.5 256,-56.5 187,-56.5"/>
<text text-anchor="middle" x="221.5" y="-63.5" font-family="Helvetica,sans-Serif" font-size="10.00">invariant.h</text>
</a>
</g>
</g>
<!-- Node1&#45;&gt;Node2 -->
<g id="edge1" class="edge">
<title>Node1&#45;&gt;Node2</title>
<path fill="none" stroke="midnightblue" d="M265.6,-112.5C256.5,-103.11 245.71,-91.98 237.09,-83.08"/>
<polygon fill="midnightblue" stroke="midnightblue" points="239.36,-80.4 229.89,-75.65 234.33,-85.27 239.36,-80.4"/>
</g>
<!-- Node4 -->
<g id="node4" class="node">
<title>Node4</title>
<g id="a_node4"><a xlink:title=" ">
<polygon fill="none" stroke="#bfbfbf" points="130.5,-0.5 130.5,-19.5 186.5,-19.5 186.5,-0.5 130.5,-0.5"/>
<text text-anchor="middle" x="158.5" y="-7.5" font-family="Helvetica,sans-Serif" font-size="10.00">sstream</text>
</a>
</g>
</g>
<!-- Node1&#45;&gt;Node4 -->
<g id="edge10" class="edge">
<title>Node1&#45;&gt;Node4</title>
<path fill="none" stroke="midnightblue" d="M228.35,-112.42C210.28,-103.72 191.58,-91.79 178.5,-76 167.57,-62.8 162.6,-43.66 160.35,-29.57"/>
<polygon fill="midnightblue" stroke="midnightblue" points="163.81,-29.04 159.07,-19.56 156.87,-29.93 163.81,-29.04"/>
</g>
<!-- Node5 -->
<g id="node5" class="node">
<title>Node5</title>
<g id="a_node5"><a xlink:title=" ">
<polygon fill="none" stroke="#bfbfbf" points="292.5,-0.5 292.5,-19.5 336.5,-19.5 336.5,-0.5 292.5,-0.5"/>
<text text-anchor="middle" x="314.5" y="-7.5" font-family="Helvetica,sans-Serif" font-size="10.00">string</text>
</a>
</g>
</g>
<!-- Node1&#45;&gt;Node5 -->
<g id="edge11" class="edge">
<title>Node1&#45;&gt;Node5</title>
<path fill="none" stroke="midnightblue" d="M289.39,-112.29C295.07,-89.37 304.37,-51.85 309.92,-29.47"/>
<polygon fill="midnightblue" stroke="midnightblue" points="313.36,-30.12 312.37,-19.57 306.57,-28.44 313.36,-30.12"/>
</g>
<!-- Node7 -->
<g id="node7" class="node">
<title>Node7</title>
<g id="a_node7"><a xlink:href="freer_8h.html" target="_top" xlink:title=" ">
<polygon fill="none" stroke="black" points="63.5,-56.5 63.5,-75.5 111.5,-75.5 111.5,-56.5 63.5,-56.5"/>
<text text-anchor="middle" x="87.5" y="-63.5" font-family="Helvetica,sans-Serif" font-size="10.00">freer.h</text>
</a>
</g>
</g>
<!-- Node1&#45;&gt;Node7 -->
<g id="edge6" class="edge">
<title>Node1&#45;&gt;Node7</title>
<path fill="none" stroke="midnightblue" d="M225.39,-112.5C191.33,-101.26 149.74,-87.54 121.2,-78.12"/>
<polygon fill="midnightblue" stroke="midnightblue" points="122.27,-74.79 111.68,-74.98 120.08,-81.44 122.27,-74.79"/>
</g>
<!-- Node9 -->
<g id="node9" class="node">
<title>Node9</title>
<g id="a_node9"><a xlink:title=" ">
<polygon fill="none" stroke="#bfbfbf" points="312.5,-56.5 312.5,-75.5 370.5,-75.5 370.5,-56.5 312.5,-56.5"/>
<text text-anchor="middle" x="341.5" y="-63.5" font-family="Helvetica,sans-Serif" font-size="10.00">memory</text>
</a>
</g>
</g>
<!-- Node1&#45;&gt;Node9 -->
<g id="edge9" class="edge">
<title>Node1&#45;&gt;Node9</title>
<path fill="none" stroke="midnightblue" d="M301.6,-112.5C309.75,-103.2 319.39,-92.21 327.16,-83.36"/>
<polygon fill="midnightblue" stroke="midnightblue" points="329.95,-85.48 333.91,-75.65 324.69,-80.86 329.95,-85.48"/>
</g>
<!-- Node10 -->
<g id="node10" class="node">
<title>Node10</title>
<g id="a_node10"><a xlink:title=" ">
<polygon fill="none" stroke="#bfbfbf" points="388.5,-56.5 388.5,-75.5 448.5,-75.5 448.5,-56.5 388.5,-56.5"/>
<text text-anchor="middle" x="418.5" y="-63.5" font-family="Helvetica,sans-Serif" font-size="10.00">iostream</text>
</a>
</g>
</g>
<!-- Node1&#45;&gt;Node10 -->
<g id="edge12" class="edge">
<title>Node1&#45;&gt;Node10</title>
<path fill="none" stroke="midnightblue" d="M324.7,-112.5C346.34,-102.01 372.43,-89.35 391.6,-80.05"/>
<polygon fill="midnightblue" stroke="midnightblue" points="393.19,-83.17 400.66,-75.65 390.14,-76.87 393.19,-83.17"/>
</g>
<!-- Node11 -->
<g id="node11" class="node">
<title>Node11</title>
<g id="a_node11"><a xlink:title=" ">
<polygon fill="none" stroke="#bfbfbf" points="466.5,-56.5 466.5,-75.5 522.5,-75.5 522.5,-56.5 466.5,-56.5"/>
<text text-anchor="middle" x="494.5" y="-63.5" font-family="Helvetica,sans-Serif" font-size="10.00">assert.h</text>
</a>
</g>
</g>
<!-- Node1&#45;&gt;Node11 -->
<g id="edge13" class="edge">
<title>Node1&#45;&gt;Node11</title>
<path fill="none" stroke="midnightblue" d="M347.51,-112.5C383.22,-101.44 426.69,-87.99 457.06,-78.59"/>
<polygon fill="midnightblue" stroke="midnightblue" points="458.3,-81.87 466.82,-75.57 456.23,-75.18 458.3,-81.87"/>
</g>
<!-- Node3 -->
<g id="node3" class="node">
<title>Node3</title>
<g id="a_node3"><a xlink:title=" ">
<polygon fill="none" stroke="#bfbfbf" points="63,-0.5 63,-19.5 112,-19.5 112,-0.5 63,-0.5"/>
<text text-anchor="middle" x="87.5" y="-7.5" font-family="Helvetica,sans-Serif" font-size="10.00">cstdlib</text>
</a>
</g>
</g>
<!-- Node2&#45;&gt;Node3 -->
<g id="edge2" class="edge">
<title>Node2&#45;&gt;Node3</title>
<path fill="none" stroke="midnightblue" d="M200.27,-56.44C178.12,-47.52 143.18,-33.44 118.06,-23.32"/>
<polygon fill="midnightblue" stroke="midnightblue" points="119.22,-20.01 108.63,-19.52 116.6,-26.5 119.22,-20.01"/>
</g>
<!-- Node2&#45;&gt;Node4 -->
<g id="edge3" class="edge">
<title>Node2&#45;&gt;Node4</title>
<path fill="none" stroke="midnightblue" d="M211.38,-56.32C201.97,-48.26 187.76,-36.08 176.43,-26.37"/>
<polygon fill="midnightblue" stroke="midnightblue" points="178.68,-23.68 168.81,-19.83 174.12,-29 178.68,-23.68"/>
</g>
<!-- Node2&#45;&gt;Node5 -->
<g id="edge4" class="edge">
<title>Node2&#45;&gt;Node5</title>
<path fill="none" stroke="midnightblue" d="M236.44,-56.32C251.09,-47.82 273.63,-34.73 290.74,-24.8"/>
<polygon fill="midnightblue" stroke="midnightblue" points="292.7,-27.7 299.6,-19.65 289.19,-21.65 292.7,-27.7"/>
</g>
<!-- Node6 -->
<g id="node6" class="node">
<title>Node6</title>
<g id="a_node6"><a xlink:title=" ">
<polygon fill="none" stroke="#bfbfbf" points="205,-0.5 205,-19.5 274,-19.5 274,-0.5 205,-0.5"/>
<text text-anchor="middle" x="239.5" y="-7.5" font-family="Helvetica,sans-Serif" font-size="10.00">type_traits</text>
</a>
</g>
</g>
<!-- Node2&#45;&gt;Node6 -->
<g id="edge5" class="edge">
<title>Node2&#45;&gt;Node6</title>
<path fill="none" stroke="midnightblue" d="M224.47,-56.08C226.88,-48.85 230.36,-38.41 233.37,-29.4"/>
<polygon fill="midnightblue" stroke="midnightblue" points="236.74,-30.34 236.58,-19.75 230.1,-28.13 236.74,-30.34"/>
</g>
<!-- Node7&#45;&gt;Node3 -->
<g id="edge7" class="edge">
<title>Node7&#45;&gt;Node3</title>
<path fill="none" stroke="midnightblue" d="M87.5,-56.08C87.5,-49.01 87.5,-38.86 87.5,-29.99"/>
<polygon fill="midnightblue" stroke="midnightblue" points="91,-29.75 87.5,-19.75 84,-29.75 91,-29.75"/>
</g>
<!-- Node8 -->
<g id="node8" class="node">
<title>Node8</title>
<g id="a_node8"><a xlink:title=" ">
<polygon fill="none" stroke="#bfbfbf" points="0,-0.5 0,-19.5 45,-19.5 45,-0.5 0,-0.5"/>
<text text-anchor="middle" x="22.5" y="-7.5" font-family="Helvetica,sans-Serif" font-size="10.00">utility</text>
</a>
</g>
</g>
<!-- Node7&#45;&gt;Node8 -->
<g id="edge8" class="edge">
<title>Node7&#45;&gt;Node8</title>
<path fill="none" stroke="midnightblue" d="M77.06,-56.32C67.35,-48.26 52.68,-36.08 41,-26.37"/>
<polygon fill="midnightblue" stroke="midnightblue" points="43.06,-23.53 33.13,-19.83 38.59,-28.92 43.06,-23.53"/>
</g>
</g>
</svg>
