<?xml version="1.0" encoding="UTF-8" standalone="no"?>
<!DOCTYPE svg PUBLIC "-//W3C//DTD SVG 1.1//EN"
 "http://www.w3.org/Graphics/SVG/1.1/DTD/svg11.dtd">
<!-- Generated by graphviz version 2.43.0 (0)
 -->
<!-- Title: /home/runner/work/diffblue&#45;cbmc/diffblue&#45;cbmc/src/solvers/stack_decision_procedure.h Pages: 1 -->
<svg width="216pt" height="162pt"
 viewBox="0.00 0.00 215.50 162.00" xmlns="http://www.w3.org/2000/svg" xmlns:xlink="http://www.w3.org/1999/xlink">
<g id="graph0" class="graph" transform="scale(1 1) rotate(0) translate(4 158)">
<title>/home/runner/work/diffblue&#45;cbmc/diffblue&#45;cbmc/src/solvers/stack_decision_procedure.h</title>
<!-- Node1 -->
<g id="node1" class="node">
<title>Node1</title>
<g id="a_node1"><a xlink:title="Decision procedure with incremental solving with contexts and assumptions.">
<polygon fill="#bfbfbf" stroke="black" points="0,-112.5 0,-153.5 193,-153.5 193,-112.5 0,-112.5"/>
<text text-anchor="start" x="8" y="-141.5" font-family="Helvetica,sans-Serif" font-size="10.00">/home/runner/work/diffblue</text>
<text text-anchor="start" x="8" y="-130.5" font-family="Helvetica,sans-Serif" font-size="10.00">&#45;cbmc/diffblue&#45;cbmc/src</text>
<text text-anchor="middle" x="96.5" y="-119.5" font-family="Helvetica,sans-Serif" font-size="10.00">/solvers/stack_decision_procedure.h</text>
</a>
</g>
</g>
<!-- Node2 -->
<g id="node2" class="node">
<title>Node2</title>
<g id="a_node2"><a xlink:title=" ">
<polygon fill="none" stroke="#bfbfbf" points="22,-56.5 22,-75.5 69,-75.5 69,-56.5 22,-56.5"/>
<text text-anchor="middle" x="45.5" y="-63.5" font-family="Helvetica,sans-Serif" font-size="10.00">vector</text>
</a>
</g>
</g>
<!-- Node1&#45;&gt;Node2 -->
<g id="edge1" class="edge">
<title>Node1&#45;&gt;Node2</title>
<path fill="none" stroke="midnightblue" d="M81.2,-112.5C73.98,-103.3 65.46,-92.44 58.55,-83.63"/>
<polygon fill="midnightblue" stroke="midnightblue" points="61.22,-81.36 52.29,-75.65 55.71,-85.68 61.22,-81.36"/>
</g>
<!-- Node3 -->
<g id="node3" class="node">
<title>Node3</title>
<g id="a_node3"><a xlink:href="decision__procedure_8h.html" target="_top" xlink:title="Decision Procedure Interface.">
<polygon fill="none" stroke="black" points="87.5,-56.5 87.5,-75.5 207.5,-75.5 207.5,-56.5 87.5,-56.5"/>
<text text-anchor="middle" x="147.5" y="-63.5" font-family="Helvetica,sans-Serif" font-size="10.00">decision_procedure.h</text>
</a>
</g>
</g>
<!-- Node1&#45;&gt;Node3 -->
<g id="edge2" class="edge">
<title>Node1&#45;&gt;Node3</title>
<path fill="none" stroke="midnightblue" d="M111.8,-112.5C119.02,-103.3 127.54,-92.44 134.45,-83.63"/>
<polygon fill="midnightblue" stroke="midnightblue" points="137.29,-85.68 140.71,-75.65 131.78,-81.36 137.29,-85.68"/>
</g>
<!-- Node4 -->
<g id="node4" class="node">
<title>Node4</title>
<g id="a_node4"><a xlink:title=" ">
<polygon fill="none" stroke="#bfbfbf" points="91.5,-0.5 91.5,-19.5 139.5,-19.5 139.5,-0.5 91.5,-0.5"/>
<text text-anchor="middle" x="115.5" y="-7.5" font-family="Helvetica,sans-Serif" font-size="10.00">iosfwd</text>
</a>
</g>
</g>
<!-- Node3&#45;&gt;Node4 -->
<g id="edge3" class="edge">
<title>Node3&#45;&gt;Node4</title>
<path fill="none" stroke="midnightblue" d="M142.22,-56.08C137.79,-48.61 131.34,-37.72 125.88,-28.52"/>
<polygon fill="midnightblue" stroke="midnightblue" points="128.79,-26.57 120.69,-19.75 122.77,-30.14 128.79,-26.57"/>
</g>
<!-- Node5 -->
<g id="node5" class="node">
<title>Node5</title>
<g id="a_node5"><a xlink:title=" ">
<polygon fill="none" stroke="#bfbfbf" points="157.5,-0.5 157.5,-19.5 201.5,-19.5 201.5,-0.5 157.5,-0.5"/>
<text text-anchor="middle" x="179.5" y="-7.5" font-family="Helvetica,sans-Serif" font-size="10.00">string</text>
</a>
</g>
</g>
<!-- Node3&#45;&gt;Node5 -->
<g id="edge4" class="edge">
<title>Node3&#45;&gt;Node5</title>
<path fill="none" stroke="midnightblue" d="M152.78,-56.08C157.21,-48.61 163.66,-37.72 169.12,-28.52"/>
<polygon fill="midnightblue" stroke="midnightblue" points="172.23,-30.14 174.31,-19.75 166.21,-26.57 172.23,-30.14"/>
</g>
</g>
</svg>
