<?xml version="1.0" encoding="UTF-8" standalone="no"?>
<!DOCTYPE svg PUBLIC "-//W3C//DTD SVG 1.1//EN"
 "http://www.w3.org/Graphics/SVG/1.1/DTD/svg11.dtd">
<!-- Generated by graphviz version 2.43.0 (0)
 -->
<!-- Title: /home/runner/work/diffblue&#45;cbmc/diffblue&#45;cbmc/src/statement&#45;list/statement_list_parse_tree.h Pages: 1 -->
<svg width="947pt" height="239pt"
 viewBox="0.00 0.00 947.00 239.00" xmlns="http://www.w3.org/2000/svg" xmlns:xlink="http://www.w3.org/1999/xlink">
<g id="graph0" class="graph" transform="scale(1 1) rotate(0) translate(4 235)">
<title>/home/runner/work/diffblue&#45;cbmc/diffblue&#45;cbmc/src/statement&#45;list/statement_list_parse_tree.h</title>
<!-- Node1 -->
<g id="node1" class="node">
<title>Node1</title>
<g id="a_node1"><a xlink:title="Statement List Language Parse Tree.">
<polygon fill="#bfbfbf" stroke="black" points="502,-178.5 502,-230.5 651,-230.5 651,-178.5 502,-178.5"/>
<text text-anchor="start" x="510" y="-218.5" font-family="Helvetica,sans-Serif" font-size="10.00">/home/runner/work/diffblue</text>
<text text-anchor="start" x="510" y="-207.5" font-family="Helvetica,sans-Serif" font-size="10.00">&#45;cbmc/diffblue&#45;cbmc/src</text>
<text text-anchor="start" x="510" y="-196.5" font-family="Helvetica,sans-Serif" font-size="10.00">/statement&#45;list/statement</text>
<text text-anchor="middle" x="576.5" y="-185.5" font-family="Helvetica,sans-Serif" font-size="10.00">_list_parse_tree.h</text>
</a>
</g>
</g>
<!-- Node2 -->
<g id="node2" class="node">
<title>Node2</title>
<g id="a_node2"><a xlink:href="statement__list__language_8h.html" target="_top" xlink:title="Statement List Language Interface.">
<polygon fill="none" stroke="black" points="85,-89.5 85,-141.5 234,-141.5 234,-89.5 85,-89.5"/>
<text text-anchor="start" x="93" y="-129.5" font-family="Helvetica,sans-Serif" font-size="10.00">/home/runner/work/diffblue</text>
<text text-anchor="start" x="93" y="-118.5" font-family="Helvetica,sans-Serif" font-size="10.00">&#45;cbmc/diffblue&#45;cbmc/src</text>
<text text-anchor="start" x="93" y="-107.5" font-family="Helvetica,sans-Serif" font-size="10.00">/statement&#45;list/statement</text>
<text text-anchor="middle" x="159.5" y="-96.5" font-family="Helvetica,sans-Serif" font-size="10.00">_list_language.h</text>
</a>
</g>
</g>
<!-- Node1&#45;&gt;Node2 -->
<g id="edge1" class="edge">
<title>Node1&#45;&gt;Node2</title>
<path fill="none" stroke="midnightblue" d="M491.48,-190.64C423.63,-179.71 326.39,-162.54 242.5,-142 239.72,-141.32 236.89,-140.6 234.04,-139.85"/>
<polygon fill="midnightblue" stroke="midnightblue" points="491.26,-194.15 501.69,-192.27 492.37,-187.24 491.26,-194.15"/>
</g>
<!-- Node5 -->
<g id="node5" class="node">
<title>Node5</title>
<g id="a_node5"><a xlink:href="statement__list__parse__tree_8cpp.html" target="_top" xlink:title="Statement List Language Parse Tree.">
<polygon fill="none" stroke="black" points="790,-89.5 790,-141.5 939,-141.5 939,-89.5 790,-89.5"/>
<text text-anchor="start" x="798" y="-129.5" font-family="Helvetica,sans-Serif" font-size="10.00">/home/runner/work/diffblue</text>
<text text-anchor="start" x="798" y="-118.5" font-family="Helvetica,sans-Serif" font-size="10.00">&#45;cbmc/diffblue&#45;cbmc/src</text>
<text text-anchor="start" x="798" y="-107.5" font-family="Helvetica,sans-Serif" font-size="10.00">/statement&#45;list/statement</text>
<text text-anchor="middle" x="864.5" y="-96.5" font-family="Helvetica,sans-Serif" font-size="10.00">_list_parse_tree.cpp</text>
</a>
</g>
</g>
<!-- Node1&#45;&gt;Node5 -->
<g id="edge4" class="edge">
<title>Node1&#45;&gt;Node5</title>
<path fill="none" stroke="midnightblue" d="M660.71,-178.06C701.57,-165.72 750.24,-151.02 789.77,-139.07"/>
<polygon fill="midnightblue" stroke="midnightblue" points="659.6,-174.74 651.04,-180.98 661.63,-181.44 659.6,-174.74"/>
</g>
<!-- Node6 -->
<g id="node6" class="node">
<title>Node6</title>
<g id="a_node6"><a xlink:href="statement__list__parse__tree__io_8h.html" target="_top" xlink:title="Statement List Language Parse Tree Output.">
<polygon fill="none" stroke="black" points="252,-89.5 252,-141.5 401,-141.5 401,-89.5 252,-89.5"/>
<text text-anchor="start" x="260" y="-129.5" font-family="Helvetica,sans-Serif" font-size="10.00">/home/runner/work/diffblue</text>
<text text-anchor="start" x="260" y="-118.5" font-family="Helvetica,sans-Serif" font-size="10.00">&#45;cbmc/diffblue&#45;cbmc/src</text>
<text text-anchor="start" x="260" y="-107.5" font-family="Helvetica,sans-Serif" font-size="10.00">/statement&#45;list/statement</text>
<text text-anchor="middle" x="326.5" y="-96.5" font-family="Helvetica,sans-Serif" font-size="10.00">_list_parse_tree_io.h</text>
</a>
</g>
</g>
<!-- Node1&#45;&gt;Node6 -->
<g id="edge5" class="edge">
<title>Node1&#45;&gt;Node6</title>
<path fill="none" stroke="midnightblue" d="M495,-175.14C463.85,-164.3 428.59,-152.03 398.4,-141.52"/>
<polygon fill="midnightblue" stroke="midnightblue" points="493.93,-178.47 504.53,-178.45 496.23,-171.86 493.93,-178.47"/>
</g>
<!-- Node8 -->
<g id="node8" class="node">
<title>Node8</title>
<g id="a_node8"><a xlink:href="statement__list__parser_8cpp.html" target="_top" xlink:title="Statement List Language Parser.">
<polygon fill="none" stroke="black" points="503,-0.5 503,-52.5 652,-52.5 652,-0.5 503,-0.5"/>
<text text-anchor="start" x="511" y="-40.5" font-family="Helvetica,sans-Serif" font-size="10.00">/home/runner/work/diffblue</text>
<text text-anchor="start" x="511" y="-29.5" font-family="Helvetica,sans-Serif" font-size="10.00">&#45;cbmc/diffblue&#45;cbmc/src</text>
<text text-anchor="start" x="511" y="-18.5" font-family="Helvetica,sans-Serif" font-size="10.00">/statement&#45;list/statement</text>
<text text-anchor="middle" x="577.5" y="-7.5" font-family="Helvetica,sans-Serif" font-size="10.00">_list_parser.cpp</text>
</a>
</g>
</g>
<!-- Node1&#45;&gt;Node8 -->
<g id="edge9" class="edge">
<title>Node1&#45;&gt;Node8</title>
<path fill="none" stroke="midnightblue" d="M660.9,-193.13C692.48,-184.69 725.31,-169.46 744.5,-142 757.99,-122.69 757.97,-108.32 744.5,-89 738.62,-80.57 693.78,-64.3 652.04,-50.61"/>
<polygon fill="midnightblue" stroke="midnightblue" points="660.02,-189.75 651.15,-195.54 661.7,-196.54 660.02,-189.75"/>
</g>
<!-- Node9 -->
<g id="node9" class="node">
<title>Node9</title>
<g id="a_node9"><a xlink:href="statement__list__parser_8h.html" target="_top" xlink:title="Statement List Language Parser.">
<polygon fill="none" stroke="black" points="419,-89.5 419,-141.5 568,-141.5 568,-89.5 419,-89.5"/>
<text text-anchor="start" x="427" y="-129.5" font-family="Helvetica,sans-Serif" font-size="10.00">/home/runner/work/diffblue</text>
<text text-anchor="start" x="427" y="-118.5" font-family="Helvetica,sans-Serif" font-size="10.00">&#45;cbmc/diffblue&#45;cbmc/src</text>
<text text-anchor="start" x="427" y="-107.5" font-family="Helvetica,sans-Serif" font-size="10.00">/statement&#45;list/statement</text>
<text text-anchor="middle" x="493.5" y="-96.5" font-family="Helvetica,sans-Serif" font-size="10.00">_list_parser.h</text>
</a>
</g>
</g>
<!-- Node1&#45;&gt;Node9 -->
<g id="edge10" class="edge">
<title>Node1&#45;&gt;Node9</title>
<path fill="none" stroke="midnightblue" d="M545.57,-171.08C536.27,-161.34 526.22,-150.8 517.45,-141.61"/>
<polygon fill="midnightblue" stroke="midnightblue" points="543.06,-173.52 552.49,-178.34 548.12,-168.68 543.06,-173.52"/>
</g>
<!-- Node10 -->
<g id="node10" class="node">
<title>Node10</title>
<g id="a_node10"><a xlink:href="statement__list__typecheck_8h.html" target="_top" xlink:title="Statement List Language Type Checking.">
<polygon fill="none" stroke="black" points="586,-89.5 586,-141.5 735,-141.5 735,-89.5 586,-89.5"/>
<text text-anchor="start" x="594" y="-129.5" font-family="Helvetica,sans-Serif" font-size="10.00">/home/runner/work/diffblue</text>
<text text-anchor="start" x="594" y="-118.5" font-family="Helvetica,sans-Serif" font-size="10.00">&#45;cbmc/diffblue&#45;cbmc/src</text>
<text text-anchor="start" x="594" y="-107.5" font-family="Helvetica,sans-Serif" font-size="10.00">/statement&#45;list/statement</text>
<text text-anchor="middle" x="660.5" y="-96.5" font-family="Helvetica,sans-Serif" font-size="10.00">_list_typecheck.h</text>
</a>
</g>
</g>
<!-- Node1&#45;&gt;Node10 -->
<g id="edge13" class="edge">
<title>Node1&#45;&gt;Node10</title>
<path fill="none" stroke="midnightblue" d="M607.81,-171.08C617.21,-161.34 627.38,-150.8 636.26,-141.61"/>
<polygon fill="midnightblue" stroke="midnightblue" points="605.22,-168.71 600.8,-178.34 610.26,-173.57 605.22,-168.71"/>
</g>
<!-- Node3 -->
<g id="node3" class="node">
<title>Node3</title>
<g id="a_node3"><a xlink:href="cbmc__languages_8cpp.html" target="_top" xlink:title="Language Registration.">
<polygon fill="none" stroke="black" points="0,-6 0,-47 151,-47 151,-6 0,-6"/>
<text text-anchor="start" x="8" y="-35" font-family="Helvetica,sans-Serif" font-size="10.00">/home/runner/work/diffblue</text>
<text text-anchor="start" x="8" y="-24" font-family="Helvetica,sans-Serif" font-size="10.00">&#45;cbmc/diffblue&#45;cbmc/src</text>
<text text-anchor="middle" x="75.5" y="-13" font-family="Helvetica,sans-Serif" font-size="10.00">/cbmc/cbmc_languages.cpp</text>
</a>
</g>
</g>
<!-- Node2&#45;&gt;Node3 -->
<g id="edge2" class="edge">
<title>Node2&#45;&gt;Node3</title>
<path fill="none" stroke="midnightblue" d="M127.97,-81.85C116.68,-70.15 104.3,-57.33 94.41,-47.08"/>
<polygon fill="midnightblue" stroke="midnightblue" points="125.74,-84.57 135.2,-89.34 130.78,-79.71 125.74,-84.57"/>
</g>
<!-- Node4 -->
<g id="node4" class="node">
<title>Node4</title>
<g id="a_node4"><a xlink:href="statement__list__language_8cpp.html" target="_top" xlink:title="Statement List Language Interface.">
<polygon fill="none" stroke="black" points="336,-0.5 336,-52.5 485,-52.5 485,-0.5 336,-0.5"/>
<text text-anchor="start" x="344" y="-40.5" font-family="Helvetica,sans-Serif" font-size="10.00">/home/runner/work/diffblue</text>
<text text-anchor="start" x="344" y="-29.5" font-family="Helvetica,sans-Serif" font-size="10.00">&#45;cbmc/diffblue&#45;cbmc/src</text>
<text text-anchor="start" x="344" y="-18.5" font-family="Helvetica,sans-Serif" font-size="10.00">/statement&#45;list/statement</text>
<text text-anchor="middle" x="410.5" y="-7.5" font-family="Helvetica,sans-Serif" font-size="10.00">_list_language.cpp</text>
</a>
</g>
</g>
<!-- Node2&#45;&gt;Node4 -->
<g id="edge3" class="edge">
<title>Node2&#45;&gt;Node4</title>
<path fill="none" stroke="midnightblue" d="M241.33,-86.14C272.6,-75.3 308,-63.03 338.31,-52.52"/>
<polygon fill="midnightblue" stroke="midnightblue" points="240.07,-82.87 231.76,-89.45 242.36,-89.48 240.07,-82.87"/>
</g>
<!-- Node6&#45;&gt;Node4 -->
<g id="edge6" class="edge">
<title>Node6&#45;&gt;Node4</title>
<path fill="none" stroke="midnightblue" d="M357.81,-82.08C367.21,-72.34 377.38,-61.8 386.26,-52.61"/>
<polygon fill="midnightblue" stroke="midnightblue" points="355.22,-79.71 350.8,-89.34 360.26,-84.57 355.22,-79.71"/>
</g>
<!-- Node7 -->
<g id="node7" class="node">
<title>Node7</title>
<g id="a_node7"><a xlink:href="statement__list__parse__tree__io_8cpp.html" target="_top" xlink:title="Statement List Language Parse Tree Output.">
<polygon fill="none" stroke="black" points="169,-0.5 169,-52.5 318,-52.5 318,-0.5 169,-0.5"/>
<text text-anchor="start" x="177" y="-40.5" font-family="Helvetica,sans-Serif" font-size="10.00">/home/runner/work/diffblue</text>
<text text-anchor="start" x="177" y="-29.5" font-family="Helvetica,sans-Serif" font-size="10.00">&#45;cbmc/diffblue&#45;cbmc/src</text>
<text text-anchor="start" x="177" y="-18.5" font-family="Helvetica,sans-Serif" font-size="10.00">/statement&#45;list/statement</text>
<text text-anchor="middle" x="243.5" y="-7.5" font-family="Helvetica,sans-Serif" font-size="10.00">_list_parse_tree_io.cpp</text>
</a>
</g>
</g>
<!-- Node6&#45;&gt;Node7 -->
<g id="edge7" class="edge">
<title>Node6&#45;&gt;Node7</title>
<path fill="none" stroke="midnightblue" d="M295.57,-82.08C286.27,-72.34 276.22,-61.8 267.45,-52.61"/>
<polygon fill="midnightblue" stroke="midnightblue" points="293.06,-84.52 302.49,-89.34 298.12,-79.68 293.06,-84.52"/>
</g>
<!-- Node6&#45;&gt;Node8 -->
<g id="edge8" class="edge">
<title>Node6&#45;&gt;Node8</title>
<path fill="none" stroke="midnightblue" d="M408.33,-86.14C439.6,-75.3 475,-63.03 505.31,-52.52"/>
<polygon fill="midnightblue" stroke="midnightblue" points="407.07,-82.87 398.76,-89.45 409.36,-89.48 407.07,-82.87"/>
</g>
<!-- Node9&#45;&gt;Node4 -->
<g id="edge11" class="edge">
<title>Node9&#45;&gt;Node4</title>
<path fill="none" stroke="midnightblue" d="M462.57,-82.08C453.27,-72.34 443.22,-61.8 434.45,-52.61"/>
<polygon fill="midnightblue" stroke="midnightblue" points="460.06,-84.52 469.49,-89.34 465.12,-79.68 460.06,-84.52"/>
</g>
<!-- Node9&#45;&gt;Node8 -->
<g id="edge12" class="edge">
<title>Node9&#45;&gt;Node8</title>
<path fill="none" stroke="midnightblue" d="M524.81,-82.08C534.21,-72.34 544.38,-61.8 553.26,-52.61"/>
<polygon fill="midnightblue" stroke="midnightblue" points="522.22,-79.71 517.8,-89.34 527.26,-84.57 522.22,-79.71"/>
</g>
<!-- Node10&#45;&gt;Node4 -->
<g id="edge14" class="edge">
<title>Node10&#45;&gt;Node4</title>
<path fill="none" stroke="midnightblue" d="M579,-86.14C547.85,-75.3 512.59,-63.03 482.4,-52.52"/>
<polygon fill="midnightblue" stroke="midnightblue" points="577.93,-89.47 588.53,-89.45 580.23,-82.86 577.93,-89.47"/>
</g>
<!-- Node11 -->
<g id="node11" class="node">
<title>Node11</title>
<g id="a_node11"><a xlink:href="statement__list__typecheck_8cpp.html" target="_top" xlink:title="Statement List Language Type Checking.">
<polygon fill="none" stroke="black" points="670,-0.5 670,-52.5 819,-52.5 819,-0.5 670,-0.5"/>
<text text-anchor="start" x="678" y="-40.5" font-family="Helvetica,sans-Serif" font-size="10.00">/home/runner/work/diffblue</text>
<text text-anchor="start" x="678" y="-29.5" font-family="Helvetica,sans-Serif" font-size="10.00">&#45;cbmc/diffblue&#45;cbmc/src</text>
<text text-anchor="start" x="678" y="-18.5" font-family="Helvetica,sans-Serif" font-size="10.00">/statement&#45;list/statement</text>
<text text-anchor="middle" x="744.5" y="-7.5" font-family="Helvetica,sans-Serif" font-size="10.00">_list_typecheck.cpp</text>
</a>
</g>
</g>
<!-- Node10&#45;&gt;Node11 -->
<g id="edge15" class="edge">
<title>Node10&#45;&gt;Node11</title>
<path fill="none" stroke="midnightblue" d="M691.81,-82.08C701.21,-72.34 711.38,-61.8 720.26,-52.61"/>
<polygon fill="midnightblue" stroke="midnightblue" points="689.22,-79.71 684.8,-89.34 694.26,-84.57 689.22,-79.71"/>
</g>
</g>
</svg>
