<?xml version="1.0" encoding="UTF-8" standalone="no"?>
<!DOCTYPE svg PUBLIC "-//W3C//DTD SVG 1.1//EN"
 "http://www.w3.org/Graphics/SVG/1.1/DTD/svg11.dtd">
<!-- Generated by graphviz version 2.43.0 (0)
 -->
<!-- Title: /home/runner/work/diffblue&#45;cbmc/diffblue&#45;cbmc/src/statement&#45;list/converters/statement_list_types.h Pages: 1 -->
<svg width="992pt" height="150pt"
 viewBox="0.00 0.00 992.00 150.00" xmlns="http://www.w3.org/2000/svg" xmlns:xlink="http://www.w3.org/1999/xlink">
<g id="graph0" class="graph" transform="scale(1 1) rotate(0) translate(4 146)">
<title>/home/runner/work/diffblue&#45;cbmc/diffblue&#45;cbmc/src/statement&#45;list/converters/statement_list_types.h</title>
<!-- Node1 -->
<g id="node1" class="node">
<title>Node1</title>
<g id="a_node1"><a xlink:title="Statement List Type Helper.">
<polygon fill="#bfbfbf" stroke="black" points="417,-89.5 417,-141.5 566,-141.5 566,-89.5 417,-89.5"/>
<text text-anchor="start" x="425" y="-129.5" font-family="Helvetica,sans-Serif" font-size="10.00">/home/runner/work/diffblue</text>
<text text-anchor="start" x="425" y="-118.5" font-family="Helvetica,sans-Serif" font-size="10.00">&#45;cbmc/diffblue&#45;cbmc/src</text>
<text text-anchor="start" x="425" y="-107.5" font-family="Helvetica,sans-Serif" font-size="10.00">/statement&#45;list/converters</text>
<text text-anchor="middle" x="491.5" y="-96.5" font-family="Helvetica,sans-Serif" font-size="10.00">/statement_list_types.h</text>
</a>
</g>
</g>
<!-- Node2 -->
<g id="node2" class="node">
<title>Node2</title>
<g id="a_node2"><a xlink:href="convert__dint__literal_8cpp.html" target="_top" xlink:title="Statement List Language Conversion.">
<polygon fill="none" stroke="black" points="0,-0.5 0,-52.5 149,-52.5 149,-0.5 0,-0.5"/>
<text text-anchor="start" x="8" y="-40.5" font-family="Helvetica,sans-Serif" font-size="10.00">/home/runner/work/diffblue</text>
<text text-anchor="start" x="8" y="-29.5" font-family="Helvetica,sans-Serif" font-size="10.00">&#45;cbmc/diffblue&#45;cbmc/src</text>
<text text-anchor="start" x="8" y="-18.5" font-family="Helvetica,sans-Serif" font-size="10.00">/statement&#45;list/converters</text>
<text text-anchor="middle" x="74.5" y="-7.5" font-family="Helvetica,sans-Serif" font-size="10.00">/convert_dint_literal.cpp</text>
</a>
</g>
</g>
<!-- Node1&#45;&gt;Node2 -->
<g id="edge1" class="edge">
<title>Node1&#45;&gt;Node2</title>
<path fill="none" stroke="midnightblue" d="M406.48,-101.64C338.63,-90.71 241.39,-73.54 157.5,-53 154.72,-52.32 151.89,-51.6 149.04,-50.85"/>
<polygon fill="midnightblue" stroke="midnightblue" points="406.26,-105.15 416.69,-103.27 407.37,-98.24 406.26,-105.15"/>
</g>
<!-- Node3 -->
<g id="node3" class="node">
<title>Node3</title>
<g id="a_node3"><a xlink:href="convert__int__literal_8cpp.html" target="_top" xlink:title="Statement List Language Conversion.">
<polygon fill="none" stroke="black" points="167,-0.5 167,-52.5 316,-52.5 316,-0.5 167,-0.5"/>
<text text-anchor="start" x="175" y="-40.5" font-family="Helvetica,sans-Serif" font-size="10.00">/home/runner/work/diffblue</text>
<text text-anchor="start" x="175" y="-29.5" font-family="Helvetica,sans-Serif" font-size="10.00">&#45;cbmc/diffblue&#45;cbmc/src</text>
<text text-anchor="start" x="175" y="-18.5" font-family="Helvetica,sans-Serif" font-size="10.00">/statement&#45;list/converters</text>
<text text-anchor="middle" x="241.5" y="-7.5" font-family="Helvetica,sans-Serif" font-size="10.00">/convert_int_literal.cpp</text>
</a>
</g>
</g>
<!-- Node1&#45;&gt;Node3 -->
<g id="edge2" class="edge">
<title>Node1&#45;&gt;Node3</title>
<path fill="none" stroke="midnightblue" d="M410,-86.14C378.85,-75.3 343.59,-63.03 313.4,-52.52"/>
<polygon fill="midnightblue" stroke="midnightblue" points="408.93,-89.47 419.53,-89.45 411.23,-82.86 408.93,-89.47"/>
</g>
<!-- Node4 -->
<g id="node4" class="node">
<title>Node4</title>
<g id="a_node4"><a xlink:href="convert__real__literal_8cpp.html" target="_top" xlink:title="Statement List Language Conversion.">
<polygon fill="none" stroke="black" points="334,-0.5 334,-52.5 483,-52.5 483,-0.5 334,-0.5"/>
<text text-anchor="start" x="342" y="-40.5" font-family="Helvetica,sans-Serif" font-size="10.00">/home/runner/work/diffblue</text>
<text text-anchor="start" x="342" y="-29.5" font-family="Helvetica,sans-Serif" font-size="10.00">&#45;cbmc/diffblue&#45;cbmc/src</text>
<text text-anchor="start" x="342" y="-18.5" font-family="Helvetica,sans-Serif" font-size="10.00">/statement&#45;list/converters</text>
<text text-anchor="middle" x="408.5" y="-7.5" font-family="Helvetica,sans-Serif" font-size="10.00">/convert_real_literal.cpp</text>
</a>
</g>
</g>
<!-- Node1&#45;&gt;Node4 -->
<g id="edge3" class="edge">
<title>Node1&#45;&gt;Node4</title>
<path fill="none" stroke="midnightblue" d="M460.57,-82.08C451.27,-72.34 441.22,-61.8 432.45,-52.61"/>
<polygon fill="midnightblue" stroke="midnightblue" points="458.06,-84.52 467.49,-89.34 463.12,-79.68 458.06,-84.52"/>
</g>
<!-- Node5 -->
<g id="node5" class="node">
<title>Node5</title>
<g id="a_node5"><a xlink:href="statement__list__types_8cpp.html" target="_top" xlink:title="Statement List Type Helper.">
<polygon fill="none" stroke="black" points="501,-0.5 501,-52.5 650,-52.5 650,-0.5 501,-0.5"/>
<text text-anchor="start" x="509" y="-40.5" font-family="Helvetica,sans-Serif" font-size="10.00">/home/runner/work/diffblue</text>
<text text-anchor="start" x="509" y="-29.5" font-family="Helvetica,sans-Serif" font-size="10.00">&#45;cbmc/diffblue&#45;cbmc/src</text>
<text text-anchor="start" x="509" y="-18.5" font-family="Helvetica,sans-Serif" font-size="10.00">/statement&#45;list/converters</text>
<text text-anchor="middle" x="575.5" y="-7.5" font-family="Helvetica,sans-Serif" font-size="10.00">/statement_list_types.cpp</text>
</a>
</g>
</g>
<!-- Node1&#45;&gt;Node5 -->
<g id="edge4" class="edge">
<title>Node1&#45;&gt;Node5</title>
<path fill="none" stroke="midnightblue" d="M522.81,-82.08C532.21,-72.34 542.38,-61.8 551.26,-52.61"/>
<polygon fill="midnightblue" stroke="midnightblue" points="520.22,-79.71 515.8,-89.34 525.26,-84.57 520.22,-79.71"/>
</g>
<!-- Node6 -->
<g id="node6" class="node">
<title>Node6</title>
<g id="a_node6"><a xlink:href="statement__list__parse__tree__io_8cpp.html" target="_top" xlink:title="Statement List Language Parse Tree Output.">
<polygon fill="none" stroke="black" points="668,-0.5 668,-52.5 817,-52.5 817,-0.5 668,-0.5"/>
<text text-anchor="start" x="676" y="-40.5" font-family="Helvetica,sans-Serif" font-size="10.00">/home/runner/work/diffblue</text>
<text text-anchor="start" x="676" y="-29.5" font-family="Helvetica,sans-Serif" font-size="10.00">&#45;cbmc/diffblue&#45;cbmc/src</text>
<text text-anchor="start" x="676" y="-18.5" font-family="Helvetica,sans-Serif" font-size="10.00">/statement&#45;list/statement</text>
<text text-anchor="middle" x="742.5" y="-7.5" font-family="Helvetica,sans-Serif" font-size="10.00">_list_parse_tree_io.cpp</text>
</a>
</g>
</g>
<!-- Node1&#45;&gt;Node6 -->
<g id="edge5" class="edge">
<title>Node1&#45;&gt;Node6</title>
<path fill="none" stroke="midnightblue" d="M573.33,-86.14C604.6,-75.3 640,-63.03 670.31,-52.52"/>
<polygon fill="midnightblue" stroke="midnightblue" points="572.07,-82.87 563.76,-89.45 574.36,-89.48 572.07,-82.87"/>
</g>
<!-- Node7 -->
<g id="node7" class="node">
<title>Node7</title>
<g id="a_node7"><a xlink:href="statement__list__typecheck_8cpp.html" target="_top" xlink:title="Statement List Language Type Checking.">
<polygon fill="none" stroke="black" points="835,-0.5 835,-52.5 984,-52.5 984,-0.5 835,-0.5"/>
<text text-anchor="start" x="843" y="-40.5" font-family="Helvetica,sans-Serif" font-size="10.00">/home/runner/work/diffblue</text>
<text text-anchor="start" x="843" y="-29.5" font-family="Helvetica,sans-Serif" font-size="10.00">&#45;cbmc/diffblue&#45;cbmc/src</text>
<text text-anchor="start" x="843" y="-18.5" font-family="Helvetica,sans-Serif" font-size="10.00">/statement&#45;list/statement</text>
<text text-anchor="middle" x="909.5" y="-7.5" font-family="Helvetica,sans-Serif" font-size="10.00">_list_typecheck.cpp</text>
</a>
</g>
</g>
<!-- Node1&#45;&gt;Node7 -->
<g id="edge6" class="edge">
<title>Node1&#45;&gt;Node7</title>
<path fill="none" stroke="midnightblue" d="M576.45,-101.71C644.51,-90.79 742.23,-73.61 826.5,-53 829.28,-52.32 832.11,-51.6 834.96,-50.85"/>
<polygon fill="midnightblue" stroke="midnightblue" points="575.53,-98.31 566.21,-103.34 576.63,-105.23 575.53,-98.31"/>
</g>
</g>
</svg>
