<?xml version="1.0" encoding="UTF-8" standalone="no"?>
<!DOCTYPE svg PUBLIC "-//W3C//DTD SVG 1.1//EN"
 "http://www.w3.org/Graphics/SVG/1.1/DTD/svg11.dtd">
<!-- Generated by graphviz version 2.43.0 (0)
 -->
<!-- Title: /home/runner/work/diffblue&#45;cbmc/diffblue&#45;cbmc/src/goto&#45;analyzer/static_verifier.h Pages: 1 -->
<svg width="527pt" height="139pt"
 viewBox="0.00 0.00 527.00 139.00" xmlns="http://www.w3.org/2000/svg" xmlns:xlink="http://www.w3.org/1999/xlink">
<g id="graph0" class="graph" transform="scale(1 1) rotate(0) translate(4 135)">
<title>/home/runner/work/diffblue&#45;cbmc/diffblue&#45;cbmc/src/goto&#45;analyzer/static_verifier.h</title>
<!-- Node1 -->
<g id="node1" class="node">
<title>Node1</title>
<g id="a_node1"><a xlink:title=" ">
<polygon fill="#bfbfbf" stroke="black" points="182,-89.5 182,-130.5 347,-130.5 347,-89.5 182,-89.5"/>
<text text-anchor="start" x="190" y="-118.5" font-family="Helvetica,sans-Serif" font-size="10.00">/home/runner/work/diffblue</text>
<text text-anchor="start" x="190" y="-107.5" font-family="Helvetica,sans-Serif" font-size="10.00">&#45;cbmc/diffblue&#45;cbmc/src</text>
<text text-anchor="middle" x="264.5" y="-96.5" font-family="Helvetica,sans-Serif" font-size="10.00">/goto&#45;analyzer/static_verifier.h</text>
</a>
</g>
</g>
<!-- Node2 -->
<g id="node2" class="node">
<title>Node2</title>
<g id="a_node2"><a xlink:href="goto__analyzer__parse__options_8cpp.html" target="_top" xlink:title="Goto&#45;Analyser Command Line Option Processing.">
<polygon fill="none" stroke="black" points="0,-0.5 0,-52.5 159,-52.5 159,-0.5 0,-0.5"/>
<text text-anchor="start" x="8" y="-40.5" font-family="Helvetica,sans-Serif" font-size="10.00">/home/runner/work/diffblue</text>
<text text-anchor="start" x="8" y="-29.5" font-family="Helvetica,sans-Serif" font-size="10.00">&#45;cbmc/diffblue&#45;cbmc/src</text>
<text text-anchor="start" x="8" y="-18.5" font-family="Helvetica,sans-Serif" font-size="10.00">/goto&#45;analyzer/goto_analyzer</text>
<text text-anchor="middle" x="79.5" y="-7.5" font-family="Helvetica,sans-Serif" font-size="10.00">_parse_options.cpp</text>
</a>
</g>
</g>
<!-- Node1&#45;&gt;Node2 -->
<g id="edge1" class="edge">
<title>Node1&#45;&gt;Node2</title>
<path fill="none" stroke="midnightblue" d="M210.79,-85.34C187.46,-75.06 160.11,-63.01 136.42,-52.58"/>
<polygon fill="midnightblue" stroke="midnightblue" points="209.63,-88.65 220.19,-89.48 212.45,-82.24 209.63,-88.65"/>
</g>
<!-- Node3 -->
<g id="node3" class="node">
<title>Node3</title>
<g id="a_node3"><a xlink:href="static__verifier_8cpp.html" target="_top" xlink:title=" ">
<polygon fill="none" stroke="black" points="176.5,-6 176.5,-47 352.5,-47 352.5,-6 176.5,-6"/>
<text text-anchor="start" x="184.5" y="-35" font-family="Helvetica,sans-Serif" font-size="10.00">/home/runner/work/diffblue</text>
<text text-anchor="start" x="184.5" y="-24" font-family="Helvetica,sans-Serif" font-size="10.00">&#45;cbmc/diffblue&#45;cbmc/src</text>
<text text-anchor="middle" x="264.5" y="-13" font-family="Helvetica,sans-Serif" font-size="10.00">/goto&#45;analyzer/static_verifier.cpp</text>
</a>
</g>
</g>
<!-- Node1&#45;&gt;Node3 -->
<g id="edge2" class="edge">
<title>Node1&#45;&gt;Node3</title>
<path fill="none" stroke="midnightblue" d="M264.5,-79.06C264.5,-68.38 264.5,-56.63 264.5,-47.05"/>
<polygon fill="midnightblue" stroke="midnightblue" points="261,-79.27 264.5,-89.27 268,-79.27 261,-79.27"/>
</g>
<!-- Node4 -->
<g id="node4" class="node">
<title>Node4</title>
<g id="a_node4"><a xlink:href="janalyzer__parse__options_8cpp.html" target="_top" xlink:title="JANALYZER Command Line Option Processing.">
<polygon fill="none" stroke="black" points="370,-0.5 370,-52.5 519,-52.5 519,-0.5 370,-0.5"/>
<text text-anchor="start" x="378" y="-40.5" font-family="Helvetica,sans-Serif" font-size="10.00">/home/runner/work/diffblue</text>
<text text-anchor="start" x="378" y="-29.5" font-family="Helvetica,sans-Serif" font-size="10.00">&#45;cbmc/diffblue&#45;cbmc/jbmc</text>
<text text-anchor="start" x="378" y="-18.5" font-family="Helvetica,sans-Serif" font-size="10.00">/src/janalyzer/janalyzer</text>
<text text-anchor="middle" x="444.5" y="-7.5" font-family="Helvetica,sans-Serif" font-size="10.00">_parse_options.cpp</text>
</a>
</g>
</g>
<!-- Node1&#45;&gt;Node4 -->
<g id="edge3" class="edge">
<title>Node1&#45;&gt;Node4</title>
<path fill="none" stroke="midnightblue" d="M316.76,-85.34C339.46,-75.06 366.07,-63.01 389.12,-52.58"/>
<polygon fill="midnightblue" stroke="midnightblue" points="315.28,-82.17 307.61,-89.48 318.17,-88.54 315.28,-82.17"/>
</g>
</g>
</svg>
