<?xml version="1.0" encoding="UTF-8" standalone="no"?>
<!DOCTYPE svg PUBLIC "-//W3C//DTD SVG 1.1//EN"
 "http://www.w3.org/Graphics/SVG/1.1/DTD/svg11.dtd">
<!-- Generated by graphviz version 2.43.0 (0)
 -->
<!-- Title: /home/runner/work/diffblue&#45;cbmc/diffblue&#45;cbmc/src/cprover/state_encoding.h Pages: 1 -->
<svg width="370pt" height="128pt"
 viewBox="0.00 0.00 370.00 128.00" xmlns="http://www.w3.org/2000/svg" xmlns:xlink="http://www.w3.org/1999/xlink">
<g id="graph0" class="graph" transform="scale(1 1) rotate(0) translate(4 124)">
<title>/home/runner/work/diffblue&#45;cbmc/diffblue&#45;cbmc/src/cprover/state_encoding.h</title>
<!-- Node1 -->
<g id="node1" class="node">
<title>Node1</title>
<g id="a_node1"><a xlink:title="State Encoding.">
<polygon fill="#bfbfbf" stroke="black" points="115.5,-78.5 115.5,-119.5 264.5,-119.5 264.5,-78.5 115.5,-78.5"/>
<text text-anchor="start" x="123.5" y="-107.5" font-family="Helvetica,sans-Serif" font-size="10.00">/home/runner/work/diffblue</text>
<text text-anchor="start" x="123.5" y="-96.5" font-family="Helvetica,sans-Serif" font-size="10.00">&#45;cbmc/diffblue&#45;cbmc/src</text>
<text text-anchor="middle" x="190" y="-85.5" font-family="Helvetica,sans-Serif" font-size="10.00">/cprover/state_encoding.h</text>
</a>
</g>
</g>
<!-- Node2 -->
<g id="node2" class="node">
<title>Node2</title>
<g id="a_node2"><a xlink:href="cprover__parse__options_8cpp.html" target="_top" xlink:title="cprover Command Line Options Processing">
<polygon fill="none" stroke="black" points="0,-0.5 0,-41.5 190,-41.5 190,-0.5 0,-0.5"/>
<text text-anchor="start" x="8" y="-29.5" font-family="Helvetica,sans-Serif" font-size="10.00">/home/runner/work/diffblue</text>
<text text-anchor="start" x="8" y="-18.5" font-family="Helvetica,sans-Serif" font-size="10.00">&#45;cbmc/diffblue&#45;cbmc/src</text>
<text text-anchor="middle" x="95" y="-7.5" font-family="Helvetica,sans-Serif" font-size="10.00">/cprover/cprover_parse_options.cpp</text>
</a>
</g>
</g>
<!-- Node1&#45;&gt;Node2 -->
<g id="edge1" class="edge">
<title>Node1&#45;&gt;Node2</title>
<path fill="none" stroke="midnightblue" d="M157.58,-72.06C145.07,-62.06 131.01,-50.8 119.38,-41.51"/>
<polygon fill="midnightblue" stroke="midnightblue" points="155.54,-74.91 165.54,-78.43 159.91,-69.45 155.54,-74.91"/>
</g>
<!-- Node3 -->
<g id="node3" class="node">
<title>Node3</title>
<g id="a_node3"><a xlink:href="state__encoding_8cpp.html" target="_top" xlink:title=" ">
<polygon fill="none" stroke="black" points="208,-0.5 208,-41.5 362,-41.5 362,-0.5 208,-0.5"/>
<text text-anchor="start" x="216" y="-29.5" font-family="Helvetica,sans-Serif" font-size="10.00">/home/runner/work/diffblue</text>
<text text-anchor="start" x="216" y="-18.5" font-family="Helvetica,sans-Serif" font-size="10.00">&#45;cbmc/diffblue&#45;cbmc/src</text>
<text text-anchor="middle" x="285" y="-7.5" font-family="Helvetica,sans-Serif" font-size="10.00">/cprover/state_encoding.cpp</text>
</a>
</g>
</g>
<!-- Node1&#45;&gt;Node3 -->
<g id="edge2" class="edge">
<title>Node1&#45;&gt;Node3</title>
<path fill="none" stroke="midnightblue" d="M222.42,-72.06C234.93,-62.06 248.99,-50.8 260.62,-41.51"/>
<polygon fill="midnightblue" stroke="midnightblue" points="220.09,-69.45 214.46,-78.43 224.46,-74.91 220.09,-69.45"/>
</g>
</g>
</svg>
