<?xml version="1.0" encoding="UTF-8" standalone="no"?>
<!DOCTYPE svg PUBLIC "-//W3C//DTD SVG 1.1//EN"
 "http://www.w3.org/Graphics/SVG/1.1/DTD/svg11.dtd">
<!-- Generated by graphviz version 2.43.0 (0)
 -->
<!-- Title: /home/runner/work/diffblue&#45;cbmc/diffblue&#45;cbmc/src/solvers/strings/string_dependencies.h Pages: 1 -->
<svg width="1088pt" height="295pt"
 viewBox="0.00 0.00 1087.50 295.00" xmlns="http://www.w3.org/2000/svg" xmlns:xlink="http://www.w3.org/1999/xlink">
<g id="graph0" class="graph" transform="scale(1 1) rotate(0) translate(4 291)">
<title>/home/runner/work/diffblue&#45;cbmc/diffblue&#45;cbmc/src/solvers/strings/string_dependencies.h</title>
<!-- Node1 -->
<g id="node1" class="node">
<title>Node1</title>
<g id="a_node1"><a xlink:title="Keeps track of dependencies between strings.">
<polygon fill="#bfbfbf" stroke="black" points="159,-245.5 159,-286.5 362,-286.5 362,-245.5 159,-245.5"/>
<text text-anchor="start" x="167" y="-274.5" font-family="Helvetica,sans-Serif" font-size="10.00">/home/runner/work/diffblue</text>
<text text-anchor="start" x="167" y="-263.5" font-family="Helvetica,sans-Serif" font-size="10.00">&#45;cbmc/diffblue&#45;cbmc/src</text>
<text text-anchor="middle" x="260.5" y="-252.5" font-family="Helvetica,sans-Serif" font-size="10.00">/solvers/strings/string_dependencies.h</text>
</a>
</g>
</g>
<!-- Node2 -->
<g id="node2" class="node">
<title>Node2</title>
<g id="a_node2"><a xlink:href="string__dependencies_8cpp.html" target="_top" xlink:title=" ">
<polygon fill="none" stroke="black" points="17,-167.5 17,-208.5 232,-208.5 232,-167.5 17,-167.5"/>
<text text-anchor="start" x="25" y="-196.5" font-family="Helvetica,sans-Serif" font-size="10.00">/home/runner/work/diffblue</text>
<text text-anchor="start" x="25" y="-185.5" font-family="Helvetica,sans-Serif" font-size="10.00">&#45;cbmc/diffblue&#45;cbmc/src</text>
<text text-anchor="middle" x="124.5" y="-174.5" font-family="Helvetica,sans-Serif" font-size="10.00">/solvers/strings/string_dependencies.cpp</text>
</a>
</g>
</g>
<!-- Node1&#45;&gt;Node2 -->
<g id="edge1" class="edge">
<title>Node1&#45;&gt;Node2</title>
<path fill="none" stroke="midnightblue" d="M216.63,-240.49C198.11,-230.13 176.84,-218.25 159.4,-208.51"/>
<polygon fill="midnightblue" stroke="midnightblue" points="215.04,-243.61 225.48,-245.43 218.45,-237.49 215.04,-243.61"/>
</g>
<!-- Node3 -->
<g id="node3" class="node">
<title>Node3</title>
<g id="a_node3"><a xlink:href="string__refinement_8cpp.html" target="_top" xlink:title="String support via creating string constraints and progressively instantiating the universal constrai...">
<polygon fill="none" stroke="black" points="123.5,-89.5 123.5,-130.5 323.5,-130.5 323.5,-89.5 123.5,-89.5"/>
<text text-anchor="start" x="131.5" y="-118.5" font-family="Helvetica,sans-Serif" font-size="10.00">/home/runner/work/diffblue</text>
<text text-anchor="start" x="131.5" y="-107.5" font-family="Helvetica,sans-Serif" font-size="10.00">&#45;cbmc/diffblue&#45;cbmc/src</text>
<text text-anchor="middle" x="223.5" y="-96.5" font-family="Helvetica,sans-Serif" font-size="10.00">/solvers/strings/string_refinement.cpp</text>
</a>
</g>
</g>
<!-- Node1&#45;&gt;Node3 -->
<g id="edge2" class="edge">
<title>Node1&#45;&gt;Node3</title>
<path fill="none" stroke="midnightblue" d="M255.23,-235.52C251.55,-215.98 246.28,-189.83 240.5,-167 237.41,-154.79 233.32,-141.27 229.93,-130.57"/>
<polygon fill="midnightblue" stroke="midnightblue" points="251.79,-236.16 257.05,-245.35 258.67,-234.88 251.79,-236.16"/>
</g>
<!-- Node4 -->
<g id="node4" class="node">
<title>Node4</title>
<g id="a_node4"><a xlink:href="string__refinement_8h.html" target="_top" xlink:title="String support via creating string constraints and progressively instantiating the universal constrai...">
<polygon fill="none" stroke="black" points="326,-167.5 326,-208.5 515,-208.5 515,-167.5 326,-167.5"/>
<text text-anchor="start" x="334" y="-196.5" font-family="Helvetica,sans-Serif" font-size="10.00">/home/runner/work/diffblue</text>
<text text-anchor="start" x="334" y="-185.5" font-family="Helvetica,sans-Serif" font-size="10.00">&#45;cbmc/diffblue&#45;cbmc/src</text>
<text text-anchor="middle" x="420.5" y="-174.5" font-family="Helvetica,sans-Serif" font-size="10.00">/solvers/strings/string_refinement.h</text>
</a>
</g>
</g>
<!-- Node1&#45;&gt;Node4 -->
<g id="edge3" class="edge">
<title>Node1&#45;&gt;Node4</title>
<path fill="none" stroke="midnightblue" d="M310.92,-241.05C332.99,-230.57 358.55,-218.42 379.44,-208.51"/>
<polygon fill="midnightblue" stroke="midnightblue" points="309.24,-237.98 301.7,-245.43 312.24,-244.3 309.24,-237.98"/>
</g>
<!-- Node4&#45;&gt;Node3 -->
<g id="edge10" class="edge">
<title>Node4&#45;&gt;Node3</title>
<path fill="none" stroke="midnightblue" d="M360.23,-163.75C332.65,-153.11 300.34,-140.65 274.06,-130.51"/>
<polygon fill="midnightblue" stroke="midnightblue" points="359.18,-167.09 369.77,-167.43 361.7,-160.56 359.18,-167.09"/>
</g>
<!-- Node5 -->
<g id="node5" class="node">
<title>Node5</title>
<g id="a_node5"><a xlink:href="cbmc__parse__options_8h.html" target="_top" xlink:title="CBMC Command Line Option Processing.">
<polygon fill="none" stroke="black" points="341.5,-89.5 341.5,-130.5 499.5,-130.5 499.5,-89.5 341.5,-89.5"/>
<text text-anchor="start" x="349.5" y="-118.5" font-family="Helvetica,sans-Serif" font-size="10.00">/home/runner/work/diffblue</text>
<text text-anchor="start" x="349.5" y="-107.5" font-family="Helvetica,sans-Serif" font-size="10.00">&#45;cbmc/diffblue&#45;cbmc/src</text>
<text text-anchor="middle" x="420.5" y="-96.5" font-family="Helvetica,sans-Serif" font-size="10.00">/cbmc/cbmc_parse_options.h</text>
</a>
</g>
</g>
<!-- Node4&#45;&gt;Node5 -->
<g id="edge4" class="edge">
<title>Node4&#45;&gt;Node5</title>
<path fill="none" stroke="midnightblue" d="M420.5,-157.3C420.5,-148.3 420.5,-138.65 420.5,-130.51"/>
<polygon fill="midnightblue" stroke="midnightblue" points="417,-157.43 420.5,-167.43 424,-157.43 417,-157.43"/>
</g>
<!-- Node10 -->
<g id="node10" class="node">
<title>Node10</title>
<g id="a_node10"><a xlink:href="solver__factory_8cpp.html" target="_top" xlink:title="Solver Factory.">
<polygon fill="none" stroke="black" points="517.5,-89.5 517.5,-130.5 691.5,-130.5 691.5,-89.5 517.5,-89.5"/>
<text text-anchor="start" x="525.5" y="-118.5" font-family="Helvetica,sans-Serif" font-size="10.00">/home/runner/work/diffblue</text>
<text text-anchor="start" x="525.5" y="-107.5" font-family="Helvetica,sans-Serif" font-size="10.00">&#45;cbmc/diffblue&#45;cbmc/src</text>
<text text-anchor="middle" x="604.5" y="-96.5" font-family="Helvetica,sans-Serif" font-size="10.00">/goto&#45;checker/solver_factory.cpp</text>
</a>
</g>
</g>
<!-- Node4&#45;&gt;Node10 -->
<g id="edge9" class="edge">
<title>Node4&#45;&gt;Node10</title>
<path fill="none" stroke="midnightblue" d="M477.13,-163.61C502.81,-153 532.83,-140.6 557.28,-130.51"/>
<polygon fill="midnightblue" stroke="midnightblue" points="475.79,-160.38 467.88,-167.43 478.46,-166.85 475.79,-160.38"/>
</g>
<!-- Node11 -->
<g id="node11" class="node">
<title>Node11</title>
<g id="a_node11"><a xlink:href="jbmc__parse__options_8h.html" target="_top" xlink:title="JBMC Command Line Option Processing.">
<polygon fill="none" stroke="black" points="719.5,-89.5 719.5,-130.5 889.5,-130.5 889.5,-89.5 719.5,-89.5"/>
<text text-anchor="start" x="727.5" y="-118.5" font-family="Helvetica,sans-Serif" font-size="10.00">/home/runner/work/diffblue</text>
<text text-anchor="start" x="727.5" y="-107.5" font-family="Helvetica,sans-Serif" font-size="10.00">&#45;cbmc/diffblue&#45;cbmc/jbmc</text>
<text text-anchor="middle" x="804.5" y="-96.5" font-family="Helvetica,sans-Serif" font-size="10.00">/src/jbmc/jbmc_parse_options.h</text>
</a>
</g>
</g>
<!-- Node4&#45;&gt;Node11 -->
<g id="edge11" class="edge">
<title>Node4&#45;&gt;Node11</title>
<path fill="none" stroke="midnightblue" d="M525.46,-166.23C586.44,-154.16 662.28,-139.15 719.5,-127.82"/>
<polygon fill="midnightblue" stroke="midnightblue" points="524.55,-162.84 515.42,-168.21 525.91,-169.71 524.55,-162.84"/>
</g>
<!-- Node6 -->
<g id="node6" class="node">
<title>Node6</title>
<g id="a_node6"><a xlink:href="cbmc__languages_8cpp.html" target="_top" xlink:title="Language Registration.">
<polygon fill="none" stroke="black" points="0,-6 0,-47 151,-47 151,-6 0,-6"/>
<text text-anchor="start" x="8" y="-35" font-family="Helvetica,sans-Serif" font-size="10.00">/home/runner/work/diffblue</text>
<text text-anchor="start" x="8" y="-24" font-family="Helvetica,sans-Serif" font-size="10.00">&#45;cbmc/diffblue&#45;cbmc/src</text>
<text text-anchor="middle" x="75.5" y="-13" font-family="Helvetica,sans-Serif" font-size="10.00">/cbmc/cbmc_languages.cpp</text>
</a>
</g>
</g>
<!-- Node5&#45;&gt;Node6 -->
<g id="edge5" class="edge">
<title>Node5&#45;&gt;Node6</title>
<path fill="none" stroke="midnightblue" d="M331.15,-88.74C254.01,-72.27 232.47,-71.63 159.5,-53 152.41,-51.19 145.03,-49.16 137.71,-47.06"/>
<polygon fill="midnightblue" stroke="midnightblue" points="330.85,-92.26 341.36,-90.94 332.32,-85.41 330.85,-92.26"/>
</g>
<!-- Node7 -->
<g id="node7" class="node">
<title>Node7</title>
<g id="a_node7"><a xlink:href="cbmc__main_8cpp.html" target="_top" xlink:title="CBMC Main Module.">
<polygon fill="none" stroke="black" points="169,-6 169,-47 318,-47 318,-6 169,-6"/>
<text text-anchor="start" x="177" y="-35" font-family="Helvetica,sans-Serif" font-size="10.00">/home/runner/work/diffblue</text>
<text text-anchor="start" x="177" y="-24" font-family="Helvetica,sans-Serif" font-size="10.00">&#45;cbmc/diffblue&#45;cbmc/src</text>
<text text-anchor="middle" x="243.5" y="-13" font-family="Helvetica,sans-Serif" font-size="10.00">/cbmc/cbmc_main.cpp</text>
</a>
</g>
</g>
<!-- Node5&#45;&gt;Node7 -->
<g id="edge6" class="edge">
<title>Node5&#45;&gt;Node7</title>
<path fill="none" stroke="midnightblue" d="M369.01,-85.29C342.6,-73.13 310.83,-58.5 285.86,-47"/>
<polygon fill="midnightblue" stroke="midnightblue" points="367.56,-88.48 378.1,-89.48 370.48,-82.12 367.56,-88.48"/>
</g>
<!-- Node8 -->
<g id="node8" class="node">
<title>Node8</title>
<g id="a_node8"><a xlink:href="cbmc__parse__options_8cpp.html" target="_top" xlink:title="CBMC Command Line Option Processing.">
<polygon fill="none" stroke="black" points="336,-6 336,-47 505,-47 505,-6 336,-6"/>
<text text-anchor="start" x="344" y="-35" font-family="Helvetica,sans-Serif" font-size="10.00">/home/runner/work/diffblue</text>
<text text-anchor="start" x="344" y="-24" font-family="Helvetica,sans-Serif" font-size="10.00">&#45;cbmc/diffblue&#45;cbmc/src</text>
<text text-anchor="middle" x="420.5" y="-13" font-family="Helvetica,sans-Serif" font-size="10.00">/cbmc/cbmc_parse_options.cpp</text>
</a>
</g>
</g>
<!-- Node5&#45;&gt;Node8 -->
<g id="edge7" class="edge">
<title>Node5&#45;&gt;Node8</title>
<path fill="none" stroke="midnightblue" d="M420.5,-79.06C420.5,-68.38 420.5,-56.63 420.5,-47.05"/>
<polygon fill="midnightblue" stroke="midnightblue" points="417,-79.27 420.5,-89.27 424,-79.27 417,-79.27"/>
</g>
<!-- Node9 -->
<g id="node9" class="node">
<title>Node9</title>
<g id="a_node9"><a xlink:href="goto__synthesizer__parse__options_8cpp.html" target="_top" xlink:title="Main Module.">
<polygon fill="none" stroke="black" points="523.5,-0.5 523.5,-52.5 711.5,-52.5 711.5,-0.5 523.5,-0.5"/>
<text text-anchor="start" x="531.5" y="-40.5" font-family="Helvetica,sans-Serif" font-size="10.00">/home/runner/work/diffblue</text>
<text text-anchor="start" x="531.5" y="-29.5" font-family="Helvetica,sans-Serif" font-size="10.00">&#45;cbmc/diffblue&#45;cbmc/src</text>
<text text-anchor="start" x="531.5" y="-18.5" font-family="Helvetica,sans-Serif" font-size="10.00">/goto&#45;synthesizer/goto_synthesizer</text>
<text text-anchor="middle" x="617.5" y="-7.5" font-family="Helvetica,sans-Serif" font-size="10.00">_parse_options.cpp</text>
</a>
</g>
</g>
<!-- Node5&#45;&gt;Node9 -->
<g id="edge8" class="edge">
<title>Node5&#45;&gt;Node9</title>
<path fill="none" stroke="midnightblue" d="M477.03,-85.61C502.02,-75.28 531.44,-63.1 556.89,-52.58"/>
<polygon fill="midnightblue" stroke="midnightblue" points="475.59,-82.42 467.69,-89.48 478.26,-88.89 475.59,-82.42"/>
</g>
<!-- Node12 -->
<g id="node12" class="node">
<title>Node12</title>
<g id="a_node12"><a xlink:href="jbmc__main_8cpp.html" target="_top" xlink:title="CBMC Main Module.">
<polygon fill="none" stroke="black" points="730,-6 730,-47 879,-47 879,-6 730,-6"/>
<text text-anchor="start" x="738" y="-35" font-family="Helvetica,sans-Serif" font-size="10.00">/home/runner/work/diffblue</text>
<text text-anchor="start" x="738" y="-24" font-family="Helvetica,sans-Serif" font-size="10.00">&#45;cbmc/diffblue&#45;cbmc/jbmc</text>
<text text-anchor="middle" x="804.5" y="-13" font-family="Helvetica,sans-Serif" font-size="10.00">/src/jbmc/jbmc_main.cpp</text>
</a>
</g>
</g>
<!-- Node11&#45;&gt;Node12 -->
<g id="edge12" class="edge">
<title>Node11&#45;&gt;Node12</title>
<path fill="none" stroke="midnightblue" d="M804.5,-79.06C804.5,-68.38 804.5,-56.63 804.5,-47.05"/>
<polygon fill="midnightblue" stroke="midnightblue" points="801,-79.27 804.5,-89.27 808,-79.27 801,-79.27"/>
</g>
<!-- Node13 -->
<g id="node13" class="node">
<title>Node13</title>
<g id="a_node13"><a xlink:href="jbmc__parse__options_8cpp.html" target="_top" xlink:title="JBMC Command Line Option Processing.">
<polygon fill="none" stroke="black" points="897.5,-6 897.5,-47 1079.5,-47 1079.5,-6 897.5,-6"/>
<text text-anchor="start" x="905.5" y="-35" font-family="Helvetica,sans-Serif" font-size="10.00">/home/runner/work/diffblue</text>
<text text-anchor="start" x="905.5" y="-24" font-family="Helvetica,sans-Serif" font-size="10.00">&#45;cbmc/diffblue&#45;cbmc/jbmc</text>
<text text-anchor="middle" x="988.5" y="-13" font-family="Helvetica,sans-Serif" font-size="10.00">/src/jbmc/jbmc_parse_options.cpp</text>
</a>
</g>
</g>
<!-- Node11&#45;&gt;Node13 -->
<g id="edge13" class="edge">
<title>Node11&#45;&gt;Node13</title>
<path fill="none" stroke="midnightblue" d="M858.03,-85.29C885.48,-73.13 918.51,-58.5 944.47,-47"/>
<polygon fill="midnightblue" stroke="midnightblue" points="856.3,-82.23 848.57,-89.48 859.13,-88.63 856.3,-82.23"/>
</g>
</g>
</svg>
