<?xml version="1.0" encoding="UTF-8" standalone="no"?>
<!DOCTYPE svg PUBLIC "-//W3C//DTD SVG 1.1//EN"
 "http://www.w3.org/Graphics/SVG/1.1/DTD/svg11.dtd">
<!-- Generated by graphviz version 2.43.0 (0)
 -->
<!-- Title: /home/runner/work/diffblue&#45;cbmc/diffblue&#45;cbmc/src/util/string2int.cpp Pages: 1 -->
<svg width="358pt" height="274pt"
 viewBox="0.00 0.00 357.68 274.00" xmlns="http://www.w3.org/2000/svg" xmlns:xlink="http://www.w3.org/1999/xlink">
<g id="graph0" class="graph" transform="scale(1 1) rotate(0) translate(4 270)">
<title>/home/runner/work/diffblue&#45;cbmc/diffblue&#45;cbmc/src/util/string2int.cpp</title>
<!-- Node1 -->
<g id="node1" class="node">
<title>Node1</title>
<g id="a_node1"><a xlink:title=" ">
<polygon fill="#bfbfbf" stroke="black" points="162.68,-224.5 162.68,-265.5 311.68,-265.5 311.68,-224.5 162.68,-224.5"/>
<text text-anchor="start" x="170.68" y="-253.5" font-family="Helvetica,sans-Serif" font-size="10.00">/home/runner/work/diffblue</text>
<text text-anchor="start" x="170.68" y="-242.5" font-family="Helvetica,sans-Serif" font-size="10.00">&#45;cbmc/diffblue&#45;cbmc/src</text>
<text text-anchor="middle" x="237.18" y="-231.5" font-family="Helvetica,sans-Serif" font-size="10.00">/util/string2int.cpp</text>
</a>
</g>
</g>
<!-- Node2 -->
<g id="node2" class="node">
<title>Node2</title>
<g id="a_node2"><a xlink:href="string2int_8h.html" target="_top" xlink:title=" ">
<polygon fill="none" stroke="black" points="70.18,-168.5 70.18,-187.5 142.18,-187.5 142.18,-168.5 70.18,-168.5"/>
<text text-anchor="middle" x="106.18" y="-175.5" font-family="Helvetica,sans-Serif" font-size="10.00">string2int.h</text>
</a>
</g>
</g>
<!-- Node1&#45;&gt;Node2 -->
<g id="edge1" class="edge">
<title>Node1&#45;&gt;Node2</title>
<path fill="none" stroke="midnightblue" d="M197.88,-224.5C176.83,-214.05 151.46,-201.46 132.74,-192.18"/>
<polygon fill="midnightblue" stroke="midnightblue" points="134.13,-188.96 123.62,-187.65 131.02,-195.23 134.13,-188.96"/>
</g>
<!-- Node5 -->
<g id="node5" class="node">
<title>Node5</title>
<g id="a_node5"><a xlink:href="src_2util_2invariant_8h.html" target="_top" xlink:title=" ">
<polygon fill="none" stroke="black" points="141.68,-56.5 141.68,-75.5 210.68,-75.5 210.68,-56.5 141.68,-56.5"/>
<text text-anchor="middle" x="176.18" y="-63.5" font-family="Helvetica,sans-Serif" font-size="10.00">invariant.h</text>
</a>
</g>
</g>
<!-- Node1&#45;&gt;Node5 -->
<g id="edge14" class="edge">
<title>Node1&#45;&gt;Node5</title>
<path fill="none" stroke="midnightblue" d="M232.78,-224.37C226.65,-198.24 214.52,-150.81 199.18,-112 195.51,-102.72 190.56,-92.8 186.2,-84.64"/>
<polygon fill="midnightblue" stroke="midnightblue" points="189.18,-82.8 181.28,-75.73 183.05,-86.18 189.18,-82.8"/>
</g>
<!-- Node6 -->
<g id="node6" class="node">
<title>Node6</title>
<g id="a_node6"><a xlink:title=" ">
<polygon fill="none" stroke="#bfbfbf" points="228.68,-0.5 228.68,-19.5 277.68,-19.5 277.68,-0.5 228.68,-0.5"/>
<text text-anchor="middle" x="253.18" y="-7.5" font-family="Helvetica,sans-Serif" font-size="10.00">cstdlib</text>
</a>
</g>
</g>
<!-- Node1&#45;&gt;Node6 -->
<g id="edge12" class="edge">
<title>Node1&#45;&gt;Node6</title>
<path fill="none" stroke="midnightblue" d="M238.55,-224.13C241.59,-179.78 248.91,-73.18 251.89,-29.82"/>
<polygon fill="midnightblue" stroke="midnightblue" points="255.4,-29.8 252.59,-19.59 248.42,-29.32 255.4,-29.8"/>
</g>
<!-- Node10 -->
<g id="node10" class="node">
<title>Node10</title>
<g id="a_node10"><a xlink:title=" ">
<polygon fill="none" stroke="#bfbfbf" points="284.68,-168.5 284.68,-187.5 349.68,-187.5 349.68,-168.5 284.68,-168.5"/>
<text text-anchor="middle" x="317.18" y="-175.5" font-family="Helvetica,sans-Serif" font-size="10.00">stdexcept</text>
</a>
</g>
</g>
<!-- Node1&#45;&gt;Node10 -->
<g id="edge13" class="edge">
<title>Node1&#45;&gt;Node10</title>
<path fill="none" stroke="midnightblue" d="M261.19,-224.5C273.22,-214.72 287.56,-203.07 298.71,-194.01"/>
<polygon fill="midnightblue" stroke="midnightblue" points="300.98,-196.67 306.53,-187.65 296.57,-191.24 300.98,-196.67"/>
</g>
<!-- Node3 -->
<g id="node3" class="node">
<title>Node3</title>
<g id="a_node3"><a xlink:href="narrow_8h.html" target="_top" xlink:title=" ">
<polygon fill="none" stroke="black" points="18.68,-112.5 18.68,-131.5 77.68,-131.5 77.68,-112.5 18.68,-112.5"/>
<text text-anchor="middle" x="48.18" y="-119.5" font-family="Helvetica,sans-Serif" font-size="10.00">narrow.h</text>
</a>
</g>
</g>
<!-- Node2&#45;&gt;Node3 -->
<g id="edge2" class="edge">
<title>Node2&#45;&gt;Node3</title>
<path fill="none" stroke="midnightblue" d="M96.86,-168.32C88.29,-160.34 75.37,-148.31 65,-138.65"/>
<polygon fill="midnightblue" stroke="midnightblue" points="67.38,-136.09 57.67,-131.83 62.61,-141.21 67.38,-136.09"/>
</g>
<!-- Node4 -->
<g id="node4" class="node">
<title>Node4</title>
<g id="a_node4"><a xlink:title=" ">
<polygon fill="none" stroke="#bfbfbf" points="0.68,-0.5 0.68,-19.5 69.68,-19.5 69.68,-0.5 0.68,-0.5"/>
<text text-anchor="middle" x="35.18" y="-7.5" font-family="Helvetica,sans-Serif" font-size="10.00">type_traits</text>
</a>
</g>
</g>
<!-- Node2&#45;&gt;Node4 -->
<g id="edge11" class="edge">
<title>Node2&#45;&gt;Node4</title>
<path fill="none" stroke="midnightblue" d="M69.72,-170.23C48.13,-164.14 22.47,-152.81 9.18,-132 -11.54,-99.54 9.49,-53.23 23.98,-28.37"/>
<polygon fill="midnightblue" stroke="midnightblue" points="27.05,-30.04 29.28,-19.68 21.08,-26.39 27.05,-30.04"/>
</g>
<!-- Node8 -->
<g id="node8" class="node">
<title>Node8</title>
<g id="a_node8"><a xlink:title=" ">
<polygon fill="none" stroke="#bfbfbf" points="88.18,-0.5 88.18,-19.5 132.18,-19.5 132.18,-0.5 88.18,-0.5"/>
<text text-anchor="middle" x="110.18" y="-7.5" font-family="Helvetica,sans-Serif" font-size="10.00">string</text>
</a>
</g>
</g>
<!-- Node2&#45;&gt;Node8 -->
<g id="edge10" class="edge">
<title>Node2&#45;&gt;Node8</title>
<path fill="none" stroke="midnightblue" d="M106.4,-168.08C107.03,-141.95 108.88,-65.21 109.74,-29.58"/>
<polygon fill="midnightblue" stroke="midnightblue" points="113.23,-29.65 109.98,-19.57 106.24,-29.48 113.23,-29.65"/>
</g>
<!-- Node9 -->
<g id="node9" class="node">
<title>Node9</title>
<g id="a_node9"><a xlink:title=" ">
<polygon fill="none" stroke="#bfbfbf" points="134.18,-112.5 134.18,-131.5 190.18,-131.5 190.18,-112.5 134.18,-112.5"/>
<text text-anchor="middle" x="162.18" y="-119.5" font-family="Helvetica,sans-Serif" font-size="10.00">optional</text>
</a>
</g>
</g>
<!-- Node2&#45;&gt;Node9 -->
<g id="edge9" class="edge">
<title>Node2&#45;&gt;Node9</title>
<path fill="none" stroke="midnightblue" d="M115.18,-168.32C123.38,-160.42 135.69,-148.55 145.65,-138.94"/>
<polygon fill="midnightblue" stroke="midnightblue" points="148.25,-141.29 153.02,-131.83 143.39,-136.26 148.25,-141.29"/>
</g>
<!-- Node3&#45;&gt;Node4 -->
<g id="edge3" class="edge">
<title>Node3&#45;&gt;Node4</title>
<path fill="none" stroke="midnightblue" d="M47.16,-112.37C45.06,-94.62 40.23,-53.67 37.38,-29.6"/>
<polygon fill="midnightblue" stroke="midnightblue" points="40.85,-29.11 36.2,-19.59 33.9,-29.93 40.85,-29.11"/>
</g>
<!-- Node3&#45;&gt;Node5 -->
<g id="edge4" class="edge">
<title>Node3&#45;&gt;Node5</title>
<path fill="none" stroke="midnightblue" d="M68.46,-112.44C89.53,-103.56 122.7,-89.56 146.67,-79.45"/>
<polygon fill="midnightblue" stroke="midnightblue" points="148.14,-82.63 156,-75.52 145.42,-76.18 148.14,-82.63"/>
</g>
<!-- Node5&#45;&gt;Node4 -->
<g id="edge8" class="edge">
<title>Node5&#45;&gt;Node4</title>
<path fill="none" stroke="midnightblue" d="M153.84,-56.44C130.43,-47.48 93.45,-33.31 66.99,-23.18"/>
<polygon fill="midnightblue" stroke="midnightblue" points="68.01,-19.82 57.42,-19.52 65.51,-26.36 68.01,-19.82"/>
</g>
<!-- Node5&#45;&gt;Node6 -->
<g id="edge5" class="edge">
<title>Node5&#45;&gt;Node6</title>
<path fill="none" stroke="midnightblue" d="M188.55,-56.32C200.34,-48.06 218.32,-35.45 232.32,-25.63"/>
<polygon fill="midnightblue" stroke="midnightblue" points="234.66,-28.26 240.84,-19.65 230.65,-22.53 234.66,-28.26"/>
</g>
<!-- Node7 -->
<g id="node7" class="node">
<title>Node7</title>
<g id="a_node7"><a xlink:title=" ">
<polygon fill="none" stroke="#bfbfbf" points="150.18,-0.5 150.18,-19.5 206.18,-19.5 206.18,-0.5 150.18,-0.5"/>
<text text-anchor="middle" x="178.18" y="-7.5" font-family="Helvetica,sans-Serif" font-size="10.00">sstream</text>
</a>
</g>
</g>
<!-- Node5&#45;&gt;Node7 -->
<g id="edge6" class="edge">
<title>Node5&#45;&gt;Node7</title>
<path fill="none" stroke="midnightblue" d="M176.51,-56.08C176.78,-49.01 177.15,-38.86 177.48,-29.99"/>
<polygon fill="midnightblue" stroke="midnightblue" points="180.99,-29.87 177.86,-19.75 173.99,-29.61 180.99,-29.87"/>
</g>
<!-- Node5&#45;&gt;Node8 -->
<g id="edge7" class="edge">
<title>Node5&#45;&gt;Node8</title>
<path fill="none" stroke="midnightblue" d="M165.58,-56.32C155.73,-48.26 140.83,-36.08 128.97,-26.37"/>
<polygon fill="midnightblue" stroke="midnightblue" points="130.94,-23.46 120.98,-19.83 126.5,-28.88 130.94,-23.46"/>
</g>
</g>
</svg>
