<?xml version="1.0" encoding="UTF-8" standalone="no"?>
<!DOCTYPE svg PUBLIC "-//W3C//DTD SVG 1.1//EN"
 "http://www.w3.org/Graphics/SVG/1.1/DTD/svg11.dtd">
<!-- Generated by graphviz version 2.43.0 (0)
 -->
<!-- Title: /home/runner/work/diffblue&#45;cbmc/diffblue&#45;cbmc/src/solvers/strings/string_builtin_function.h Pages: 1 -->
<svg width="1294pt" height="417pt"
 viewBox="0.00 0.00 1293.50 417.00" xmlns="http://www.w3.org/2000/svg" xmlns:xlink="http://www.w3.org/1999/xlink">
<g id="graph0" class="graph" transform="scale(1 1) rotate(0) translate(4 413)">
<title>/home/runner/work/diffblue&#45;cbmc/diffblue&#45;cbmc/src/solvers/strings/string_builtin_function.h</title>
<!-- Node1 -->
<g id="node1" class="node">
<title>Node1</title>
<g id="a_node1"><a xlink:title=" ">
<polygon fill="#bfbfbf" stroke="black" points="605.5,-356.5 605.5,-408.5 763.5,-408.5 763.5,-356.5 605.5,-356.5"/>
<text text-anchor="start" x="613.5" y="-396.5" font-family="Helvetica,sans-Serif" font-size="10.00">/home/runner/work/diffblue</text>
<text text-anchor="start" x="613.5" y="-385.5" font-family="Helvetica,sans-Serif" font-size="10.00">&#45;cbmc/diffblue&#45;cbmc/src</text>
<text text-anchor="start" x="613.5" y="-374.5" font-family="Helvetica,sans-Serif" font-size="10.00">/solvers/strings/string_builtin</text>
<text text-anchor="middle" x="684.5" y="-363.5" font-family="Helvetica,sans-Serif" font-size="10.00">_function.h</text>
</a>
</g>
</g>
<!-- Node2 -->
<g id="node2" class="node">
<title>Node2</title>
<g id="a_node2"><a xlink:href="string__builtin__function_8cpp.html" target="_top" xlink:title=" ">
<polygon fill="none" stroke="black" points="307.5,-267.5 307.5,-319.5 465.5,-319.5 465.5,-267.5 307.5,-267.5"/>
<text text-anchor="start" x="315.5" y="-307.5" font-family="Helvetica,sans-Serif" font-size="10.00">/home/runner/work/diffblue</text>
<text text-anchor="start" x="315.5" y="-296.5" font-family="Helvetica,sans-Serif" font-size="10.00">&#45;cbmc/diffblue&#45;cbmc/src</text>
<text text-anchor="start" x="315.5" y="-285.5" font-family="Helvetica,sans-Serif" font-size="10.00">/solvers/strings/string_builtin</text>
<text text-anchor="middle" x="386.5" y="-274.5" font-family="Helvetica,sans-Serif" font-size="10.00">_function.cpp</text>
</a>
</g>
</g>
<!-- Node1&#45;&gt;Node2 -->
<g id="edge1" class="edge">
<title>Node1&#45;&gt;Node2</title>
<path fill="none" stroke="midnightblue" d="M595.65,-355.56C554.37,-343.51 505.69,-329.3 465.69,-317.62"/>
<polygon fill="midnightblue" stroke="midnightblue" points="594.84,-358.97 605.42,-358.41 596.81,-352.25 594.84,-358.97"/>
</g>
<!-- Node3 -->
<g id="node3" class="node">
<title>Node3</title>
<g id="a_node3"><a xlink:href="string__dependencies_8h.html" target="_top" xlink:title="Keeps track of dependencies between strings.">
<polygon fill="none" stroke="black" points="483,-273 483,-314 686,-314 686,-273 483,-273"/>
<text text-anchor="start" x="491" y="-302" font-family="Helvetica,sans-Serif" font-size="10.00">/home/runner/work/diffblue</text>
<text text-anchor="start" x="491" y="-291" font-family="Helvetica,sans-Serif" font-size="10.00">&#45;cbmc/diffblue&#45;cbmc/src</text>
<text text-anchor="middle" x="584.5" y="-280" font-family="Helvetica,sans-Serif" font-size="10.00">/solvers/strings/string_dependencies.h</text>
</a>
</g>
</g>
<!-- Node1&#45;&gt;Node3 -->
<g id="edge2" class="edge">
<title>Node1&#45;&gt;Node3</title>
<path fill="none" stroke="midnightblue" d="M647.74,-349.51C634.08,-337.64 619.01,-324.53 607.01,-314.08"/>
<polygon fill="midnightblue" stroke="midnightblue" points="645.73,-352.41 655.58,-356.34 650.33,-347.13 645.73,-352.41"/>
</g>
<!-- Node16 -->
<g id="node16" class="node">
<title>Node16</title>
<g id="a_node16"><a xlink:href="string__format__builtin__function_8h.html" target="_top" xlink:title="Built&#45;in function for String.format.">
<polygon fill="none" stroke="black" points="704.5,-267.5 704.5,-319.5 864.5,-319.5 864.5,-267.5 704.5,-267.5"/>
<text text-anchor="start" x="712.5" y="-307.5" font-family="Helvetica,sans-Serif" font-size="10.00">/home/runner/work/diffblue</text>
<text text-anchor="start" x="712.5" y="-296.5" font-family="Helvetica,sans-Serif" font-size="10.00">&#45;cbmc/diffblue&#45;cbmc/src</text>
<text text-anchor="start" x="712.5" y="-285.5" font-family="Helvetica,sans-Serif" font-size="10.00">/solvers/strings/string_format</text>
<text text-anchor="middle" x="784.5" y="-274.5" font-family="Helvetica,sans-Serif" font-size="10.00">_builtin_function.h</text>
</a>
</g>
</g>
<!-- Node1&#45;&gt;Node16 -->
<g id="edge16" class="edge">
<title>Node1&#45;&gt;Node16</title>
<path fill="none" stroke="midnightblue" d="M721.11,-349.65C732.49,-339.75 744.87,-328.98 755.64,-319.61"/>
<polygon fill="midnightblue" stroke="midnightblue" points="718.67,-347.13 713.42,-356.34 723.27,-352.41 718.67,-347.13"/>
</g>
<!-- Node18 -->
<g id="node18" class="node">
<title>Node18</title>
<g id="a_node18"><a xlink:href="string__insertion__builtin__function_8h.html" target="_top" xlink:title=" ">
<polygon fill="none" stroke="black" points="901.5,-267.5 901.5,-319.5 1071.5,-319.5 1071.5,-267.5 901.5,-267.5"/>
<text text-anchor="start" x="909.5" y="-307.5" font-family="Helvetica,sans-Serif" font-size="10.00">/home/runner/work/diffblue</text>
<text text-anchor="start" x="909.5" y="-296.5" font-family="Helvetica,sans-Serif" font-size="10.00">&#45;cbmc/diffblue&#45;cbmc/src</text>
<text text-anchor="start" x="909.5" y="-285.5" font-family="Helvetica,sans-Serif" font-size="10.00">/solvers/strings/string_insertion</text>
<text text-anchor="middle" x="986.5" y="-274.5" font-family="Helvetica,sans-Serif" font-size="10.00">_builtin_function.h</text>
</a>
</g>
</g>
<!-- Node1&#45;&gt;Node18 -->
<g id="edge19" class="edge">
<title>Node1&#45;&gt;Node18</title>
<path fill="none" stroke="midnightblue" d="M773.67,-355.81C814.02,-344.19 861.48,-330.52 901.33,-319.03"/>
<polygon fill="midnightblue" stroke="midnightblue" points="772.49,-352.51 763.85,-358.64 774.43,-359.24 772.49,-352.51"/>
</g>
<!-- Node4 -->
<g id="node4" class="node">
<title>Node4</title>
<g id="a_node4"><a xlink:href="string__dependencies_8cpp.html" target="_top" xlink:title=" ">
<polygon fill="none" stroke="black" points="840,-95 840,-136 1055,-136 1055,-95 840,-95"/>
<text text-anchor="start" x="848" y="-124" font-family="Helvetica,sans-Serif" font-size="10.00">/home/runner/work/diffblue</text>
<text text-anchor="start" x="848" y="-113" font-family="Helvetica,sans-Serif" font-size="10.00">&#45;cbmc/diffblue&#45;cbmc/src</text>
<text text-anchor="middle" x="947.5" y="-102" font-family="Helvetica,sans-Serif" font-size="10.00">/solvers/strings/string_dependencies.cpp</text>
</a>
</g>
</g>
<!-- Node3&#45;&gt;Node4 -->
<g id="edge3" class="edge">
<title>Node3&#45;&gt;Node4</title>
<path fill="none" stroke="midnightblue" d="M609.39,-265.32C618.76,-254.79 629.34,-242.53 638.5,-231 656.53,-208.3 652.35,-194.03 676.5,-178 680.43,-175.39 780.51,-153.06 857.92,-136.05"/>
<polygon fill="midnightblue" stroke="midnightblue" points="606.59,-263.2 602.52,-272.98 611.8,-267.88 606.59,-263.2"/>
</g>
<!-- Node5 -->
<g id="node5" class="node">
<title>Node5</title>
<g id="a_node5"><a xlink:href="string__refinement_8cpp.html" target="_top" xlink:title="String support via creating string constraints and progressively instantiating the universal constrai...">
<polygon fill="none" stroke="black" points="65.5,-95 65.5,-136 265.5,-136 265.5,-95 65.5,-95"/>
<text text-anchor="start" x="73.5" y="-124" font-family="Helvetica,sans-Serif" font-size="10.00">/home/runner/work/diffblue</text>
<text text-anchor="start" x="73.5" y="-113" font-family="Helvetica,sans-Serif" font-size="10.00">&#45;cbmc/diffblue&#45;cbmc/src</text>
<text text-anchor="middle" x="165.5" y="-102" font-family="Helvetica,sans-Serif" font-size="10.00">/solvers/strings/string_refinement.cpp</text>
</a>
</g>
</g>
<!-- Node3&#45;&gt;Node5 -->
<g id="edge4" class="edge">
<title>Node3&#45;&gt;Node5</title>
<path fill="none" stroke="midnightblue" d="M525.69,-269.25C497.19,-257.88 462.49,-243.9 431.5,-231 353.28,-198.45 262.79,-159.15 210.07,-136.08"/>
<polygon fill="midnightblue" stroke="midnightblue" points="524.52,-272.55 535.11,-273 527.11,-266.05 524.52,-272.55"/>
</g>
<!-- Node6 -->
<g id="node6" class="node">
<title>Node6</title>
<g id="a_node6"><a xlink:href="string__refinement_8h.html" target="_top" xlink:title="String support via creating string constraints and progressively instantiating the universal constrai...">
<polygon fill="none" stroke="black" points="440,-184 440,-225 629,-225 629,-184 440,-184"/>
<text text-anchor="start" x="448" y="-213" font-family="Helvetica,sans-Serif" font-size="10.00">/home/runner/work/diffblue</text>
<text text-anchor="start" x="448" y="-202" font-family="Helvetica,sans-Serif" font-size="10.00">&#45;cbmc/diffblue&#45;cbmc/src</text>
<text text-anchor="middle" x="534.5" y="-191" font-family="Helvetica,sans-Serif" font-size="10.00">/solvers/strings/string_refinement.h</text>
</a>
</g>
</g>
<!-- Node3&#45;&gt;Node6 -->
<g id="edge5" class="edge">
<title>Node3&#45;&gt;Node6</title>
<path fill="none" stroke="midnightblue" d="M568.08,-263.93C560.78,-251.23 552.38,-236.61 545.8,-225.16"/>
<polygon fill="midnightblue" stroke="midnightblue" points="565.14,-265.83 573.15,-272.76 571.21,-262.34 565.14,-265.83"/>
</g>
<!-- Node6&#45;&gt;Node5 -->
<g id="edge12" class="edge">
<title>Node6&#45;&gt;Node5</title>
<path fill="none" stroke="midnightblue" d="M441.92,-181.67C382.44,-167.65 305.83,-149.59 248.35,-136.03"/>
<polygon fill="midnightblue" stroke="midnightblue" points="441.15,-185.09 451.69,-183.98 442.76,-178.27 441.15,-185.09"/>
</g>
<!-- Node7 -->
<g id="node7" class="node">
<title>Node7</title>
<g id="a_node7"><a xlink:href="cbmc__parse__options_8h.html" target="_top" xlink:title="CBMC Command Line Option Processing.">
<polygon fill="none" stroke="black" points="471.5,-95 471.5,-136 629.5,-136 629.5,-95 471.5,-95"/>
<text text-anchor="start" x="479.5" y="-124" font-family="Helvetica,sans-Serif" font-size="10.00">/home/runner/work/diffblue</text>
<text text-anchor="start" x="479.5" y="-113" font-family="Helvetica,sans-Serif" font-size="10.00">&#45;cbmc/diffblue&#45;cbmc/src</text>
<text text-anchor="middle" x="550.5" y="-102" font-family="Helvetica,sans-Serif" font-size="10.00">/cbmc/cbmc_parse_options.h</text>
</a>
</g>
</g>
<!-- Node6&#45;&gt;Node7 -->
<g id="edge6" class="edge">
<title>Node6&#45;&gt;Node7</title>
<path fill="none" stroke="midnightblue" d="M539.96,-173.81C542.25,-161.38 544.84,-147.27 546.88,-136.16"/>
<polygon fill="midnightblue" stroke="midnightblue" points="536.5,-173.29 538.13,-183.76 543.38,-174.56 536.5,-173.29"/>
</g>
<!-- Node12 -->
<g id="node12" class="node">
<title>Node12</title>
<g id="a_node12"><a xlink:href="solver__factory_8cpp.html" target="_top" xlink:title="Solver Factory.">
<polygon fill="none" stroke="black" points="647.5,-95 647.5,-136 821.5,-136 821.5,-95 647.5,-95"/>
<text text-anchor="start" x="655.5" y="-124" font-family="Helvetica,sans-Serif" font-size="10.00">/home/runner/work/diffblue</text>
<text text-anchor="start" x="655.5" y="-113" font-family="Helvetica,sans-Serif" font-size="10.00">&#45;cbmc/diffblue&#45;cbmc/src</text>
<text text-anchor="middle" x="734.5" y="-102" font-family="Helvetica,sans-Serif" font-size="10.00">/goto&#45;checker/solver_factory.cpp</text>
</a>
</g>
</g>
<!-- Node6&#45;&gt;Node12 -->
<g id="edge11" class="edge">
<title>Node6&#45;&gt;Node12</title>
<path fill="none" stroke="midnightblue" d="M588.9,-179.84C620.42,-166.12 659.63,-149.07 689.42,-136.11"/>
<polygon fill="midnightblue" stroke="midnightblue" points="587.16,-176.78 579.38,-183.98 589.95,-183.2 587.16,-176.78"/>
</g>
<!-- Node13 -->
<g id="node13" class="node">
<title>Node13</title>
<g id="a_node13"><a xlink:href="jbmc__parse__options_8h.html" target="_top" xlink:title="JBMC Command Line Option Processing.">
<polygon fill="none" stroke="black" points="283.5,-95 283.5,-136 453.5,-136 453.5,-95 283.5,-95"/>
<text text-anchor="start" x="291.5" y="-124" font-family="Helvetica,sans-Serif" font-size="10.00">/home/runner/work/diffblue</text>
<text text-anchor="start" x="291.5" y="-113" font-family="Helvetica,sans-Serif" font-size="10.00">&#45;cbmc/diffblue&#45;cbmc/jbmc</text>
<text text-anchor="middle" x="368.5" y="-102" font-family="Helvetica,sans-Serif" font-size="10.00">/src/jbmc/jbmc_parse_options.h</text>
</a>
</g>
</g>
<!-- Node6&#45;&gt;Node13 -->
<g id="edge13" class="edge">
<title>Node6&#45;&gt;Node13</title>
<path fill="none" stroke="midnightblue" d="M488.33,-179.3C462.35,-165.68 430.32,-148.9 405.92,-136.11"/>
<polygon fill="midnightblue" stroke="midnightblue" points="486.76,-182.43 497.25,-183.98 490.01,-176.23 486.76,-182.43"/>
</g>
<!-- Node8 -->
<g id="node8" class="node">
<title>Node8</title>
<g id="a_node8"><a xlink:href="cbmc__languages_8cpp.html" target="_top" xlink:title="Language Registration.">
<polygon fill="none" stroke="black" points="762,-6 762,-47 913,-47 913,-6 762,-6"/>
<text text-anchor="start" x="770" y="-35" font-family="Helvetica,sans-Serif" font-size="10.00">/home/runner/work/diffblue</text>
<text text-anchor="start" x="770" y="-24" font-family="Helvetica,sans-Serif" font-size="10.00">&#45;cbmc/diffblue&#45;cbmc/src</text>
<text text-anchor="middle" x="837.5" y="-13" font-family="Helvetica,sans-Serif" font-size="10.00">/cbmc/cbmc_languages.cpp</text>
</a>
</g>
</g>
<!-- Node7&#45;&gt;Node8 -->
<g id="edge7" class="edge">
<title>Node7&#45;&gt;Node8</title>
<path fill="none" stroke="midnightblue" d="M624.5,-92.07C670.39,-78.16 728.78,-60.46 772.81,-47.11"/>
<polygon fill="midnightblue" stroke="midnightblue" points="623.46,-88.72 614.91,-94.98 625.49,-95.42 623.46,-88.72"/>
</g>
<!-- Node9 -->
<g id="node9" class="node">
<title>Node9</title>
<g id="a_node9"><a xlink:href="cbmc__main_8cpp.html" target="_top" xlink:title="CBMC Main Module.">
<polygon fill="none" stroke="black" points="931,-6 931,-47 1080,-47 1080,-6 931,-6"/>
<text text-anchor="start" x="939" y="-35" font-family="Helvetica,sans-Serif" font-size="10.00">/home/runner/work/diffblue</text>
<text text-anchor="start" x="939" y="-24" font-family="Helvetica,sans-Serif" font-size="10.00">&#45;cbmc/diffblue&#45;cbmc/src</text>
<text text-anchor="middle" x="1005.5" y="-13" font-family="Helvetica,sans-Serif" font-size="10.00">/cbmc/cbmc_main.cpp</text>
</a>
</g>
</g>
<!-- Node7&#45;&gt;Node9 -->
<g id="edge8" class="edge">
<title>Node7&#45;&gt;Node9</title>
<path fill="none" stroke="midnightblue" d="M623.42,-92.43C628.5,-91.18 633.56,-90.02 638.5,-89 763.09,-63.22 798.12,-79.78 922.5,-53 930.31,-51.32 938.44,-49.24 946.43,-47"/>
<polygon fill="midnightblue" stroke="midnightblue" points="622.48,-89.06 613.65,-94.92 624.21,-95.84 622.48,-89.06"/>
</g>
<!-- Node10 -->
<g id="node10" class="node">
<title>Node10</title>
<g id="a_node10"><a xlink:href="cbmc__parse__options_8cpp.html" target="_top" xlink:title="CBMC Command Line Option Processing.">
<polygon fill="none" stroke="black" points="368,-6 368,-47 537,-47 537,-6 368,-6"/>
<text text-anchor="start" x="376" y="-35" font-family="Helvetica,sans-Serif" font-size="10.00">/home/runner/work/diffblue</text>
<text text-anchor="start" x="376" y="-24" font-family="Helvetica,sans-Serif" font-size="10.00">&#45;cbmc/diffblue&#45;cbmc/src</text>
<text text-anchor="middle" x="452.5" y="-13" font-family="Helvetica,sans-Serif" font-size="10.00">/cbmc/cbmc_parse_options.cpp</text>
</a>
</g>
</g>
<!-- Node7&#45;&gt;Node10 -->
<g id="edge9" class="edge">
<title>Node7&#45;&gt;Node10</title>
<path fill="none" stroke="midnightblue" d="M520.38,-87.76C505.62,-74.66 488.16,-59.16 474.65,-47.16"/>
<polygon fill="midnightblue" stroke="midnightblue" points="518.46,-90.74 528.26,-94.76 523.11,-85.5 518.46,-90.74"/>
</g>
<!-- Node11 -->
<g id="node11" class="node">
<title>Node11</title>
<g id="a_node11"><a xlink:href="goto__synthesizer__parse__options_8cpp.html" target="_top" xlink:title="Main Module.">
<polygon fill="none" stroke="black" points="555.5,-0.5 555.5,-52.5 743.5,-52.5 743.5,-0.5 555.5,-0.5"/>
<text text-anchor="start" x="563.5" y="-40.5" font-family="Helvetica,sans-Serif" font-size="10.00">/home/runner/work/diffblue</text>
<text text-anchor="start" x="563.5" y="-29.5" font-family="Helvetica,sans-Serif" font-size="10.00">&#45;cbmc/diffblue&#45;cbmc/src</text>
<text text-anchor="start" x="563.5" y="-18.5" font-family="Helvetica,sans-Serif" font-size="10.00">/goto&#45;synthesizer/goto_synthesizer</text>
<text text-anchor="middle" x="649.5" y="-7.5" font-family="Helvetica,sans-Serif" font-size="10.00">_parse_options.cpp</text>
</a>
</g>
</g>
<!-- Node7&#45;&gt;Node11 -->
<g id="edge10" class="edge">
<title>Node7&#45;&gt;Node11</title>
<path fill="none" stroke="midnightblue" d="M580.6,-88.05C593.34,-76.85 608.13,-63.86 620.72,-52.79"/>
<polygon fill="midnightblue" stroke="midnightblue" points="578.17,-85.53 572.96,-94.76 582.79,-90.79 578.17,-85.53"/>
</g>
<!-- Node14 -->
<g id="node14" class="node">
<title>Node14</title>
<g id="a_node14"><a xlink:href="jbmc__main_8cpp.html" target="_top" xlink:title="CBMC Main Module.">
<polygon fill="none" stroke="black" points="0,-6 0,-47 149,-47 149,-6 0,-6"/>
<text text-anchor="start" x="8" y="-35" font-family="Helvetica,sans-Serif" font-size="10.00">/home/runner/work/diffblue</text>
<text text-anchor="start" x="8" y="-24" font-family="Helvetica,sans-Serif" font-size="10.00">&#45;cbmc/diffblue&#45;cbmc/jbmc</text>
<text text-anchor="middle" x="74.5" y="-13" font-family="Helvetica,sans-Serif" font-size="10.00">/src/jbmc/jbmc_main.cpp</text>
</a>
</g>
</g>
<!-- Node13&#45;&gt;Node14 -->
<g id="edge14" class="edge">
<title>Node13&#45;&gt;Node14</title>
<path fill="none" stroke="midnightblue" d="M291.21,-92.06C251.52,-80.49 202.39,-66.09 158.5,-53 152.07,-51.08 145.38,-49.07 138.69,-47.06"/>
<polygon fill="midnightblue" stroke="midnightblue" points="290.25,-95.43 300.83,-94.87 292.21,-88.71 290.25,-95.43"/>
</g>
<!-- Node15 -->
<g id="node15" class="node">
<title>Node15</title>
<g id="a_node15"><a xlink:href="jbmc__parse__options_8cpp.html" target="_top" xlink:title="JBMC Command Line Option Processing.">
<polygon fill="none" stroke="black" points="167.5,-6 167.5,-47 349.5,-47 349.5,-6 167.5,-6"/>
<text text-anchor="start" x="175.5" y="-35" font-family="Helvetica,sans-Serif" font-size="10.00">/home/runner/work/diffblue</text>
<text text-anchor="start" x="175.5" y="-24" font-family="Helvetica,sans-Serif" font-size="10.00">&#45;cbmc/diffblue&#45;cbmc/jbmc</text>
<text text-anchor="middle" x="258.5" y="-13" font-family="Helvetica,sans-Serif" font-size="10.00">/src/jbmc/jbmc_parse_options.cpp</text>
</a>
</g>
</g>
<!-- Node13&#45;&gt;Node15 -->
<g id="edge15" class="edge">
<title>Node13&#45;&gt;Node15</title>
<path fill="none" stroke="midnightblue" d="M335.89,-88.71C319.12,-75.44 299,-59.53 283.48,-47.26"/>
<polygon fill="midnightblue" stroke="midnightblue" points="333.8,-91.52 343.81,-94.98 338.14,-86.03 333.8,-91.52"/>
</g>
<!-- Node16&#45;&gt;Node4 -->
<g id="edge17" class="edge">
<title>Node16&#45;&gt;Node4</title>
<path fill="none" stroke="midnightblue" d="M824.02,-260.56C834.38,-251.46 845.24,-241.22 854.5,-231 873.96,-209.52 874.37,-200.61 892.5,-178 904.06,-163.58 917.93,-148.08 928.86,-136.25"/>
<polygon fill="midnightblue" stroke="midnightblue" points="821.51,-258.11 816.23,-267.29 826.08,-263.41 821.51,-258.11"/>
</g>
<!-- Node17 -->
<g id="node17" class="node">
<title>Node17</title>
<g id="a_node17"><a xlink:href="string__format__builtin__function_8cpp.html" target="_top" xlink:title="Built&#45;in function for String.format.">
<polygon fill="none" stroke="black" points="685.5,-178.5 685.5,-230.5 845.5,-230.5 845.5,-178.5 685.5,-178.5"/>
<text text-anchor="start" x="693.5" y="-218.5" font-family="Helvetica,sans-Serif" font-size="10.00">/home/runner/work/diffblue</text>
<text text-anchor="start" x="693.5" y="-207.5" font-family="Helvetica,sans-Serif" font-size="10.00">&#45;cbmc/diffblue&#45;cbmc/src</text>
<text text-anchor="start" x="693.5" y="-196.5" font-family="Helvetica,sans-Serif" font-size="10.00">/solvers/strings/string_format</text>
<text text-anchor="middle" x="765.5" y="-185.5" font-family="Helvetica,sans-Serif" font-size="10.00">_builtin_function.cpp</text>
</a>
</g>
</g>
<!-- Node16&#45;&gt;Node17 -->
<g id="edge18" class="edge">
<title>Node16&#45;&gt;Node17</title>
<path fill="none" stroke="midnightblue" d="M776.85,-257.48C774.89,-248.49 772.81,-238.99 770.98,-230.61"/>
<polygon fill="midnightblue" stroke="midnightblue" points="773.45,-258.31 779,-267.34 780.29,-256.82 773.45,-258.31"/>
</g>
<!-- Node19 -->
<g id="node19" class="node">
<title>Node19</title>
<g id="a_node19"><a xlink:href="string__concatenation__builtin__function_8h.html" target="_top" xlink:title="Builtin functions for string concatenations.">
<polygon fill="none" stroke="black" points="1089.5,-178.5 1089.5,-230.5 1285.5,-230.5 1285.5,-178.5 1089.5,-178.5"/>
<text text-anchor="start" x="1097.5" y="-218.5" font-family="Helvetica,sans-Serif" font-size="10.00">/home/runner/work/diffblue</text>
<text text-anchor="start" x="1097.5" y="-207.5" font-family="Helvetica,sans-Serif" font-size="10.00">&#45;cbmc/diffblue&#45;cbmc/src</text>
<text text-anchor="start" x="1097.5" y="-196.5" font-family="Helvetica,sans-Serif" font-size="10.00">/solvers/strings/string_concatenation</text>
<text text-anchor="middle" x="1187.5" y="-185.5" font-family="Helvetica,sans-Serif" font-size="10.00">_builtin_function.h</text>
</a>
</g>
</g>
<!-- Node18&#45;&gt;Node19 -->
<g id="edge20" class="edge">
<title>Node18&#45;&gt;Node19</title>
<path fill="none" stroke="midnightblue" d="M1053.65,-263.44C1078.29,-252.77 1105.94,-240.8 1129.69,-230.52"/>
<polygon fill="midnightblue" stroke="midnightblue" points="1052.15,-260.27 1044.37,-267.45 1054.94,-266.69 1052.15,-260.27"/>
</g>
<!-- Node21 -->
<g id="node21" class="node">
<title>Node21</title>
<g id="a_node21"><a xlink:href="string__insertion__builtin__function_8cpp.html" target="_top" xlink:title=" ">
<polygon fill="none" stroke="black" points="901.5,-178.5 901.5,-230.5 1071.5,-230.5 1071.5,-178.5 901.5,-178.5"/>
<text text-anchor="start" x="909.5" y="-218.5" font-family="Helvetica,sans-Serif" font-size="10.00">/home/runner/work/diffblue</text>
<text text-anchor="start" x="909.5" y="-207.5" font-family="Helvetica,sans-Serif" font-size="10.00">&#45;cbmc/diffblue&#45;cbmc/src</text>
<text text-anchor="start" x="909.5" y="-196.5" font-family="Helvetica,sans-Serif" font-size="10.00">/solvers/strings/string_insertion</text>
<text text-anchor="middle" x="986.5" y="-185.5" font-family="Helvetica,sans-Serif" font-size="10.00">_builtin_function.cpp</text>
</a>
</g>
</g>
<!-- Node18&#45;&gt;Node21 -->
<g id="edge23" class="edge">
<title>Node18&#45;&gt;Node21</title>
<path fill="none" stroke="midnightblue" d="M986.5,-257.19C986.5,-248.28 986.5,-238.9 986.5,-230.61"/>
<polygon fill="midnightblue" stroke="midnightblue" points="983,-257.34 986.5,-267.34 990,-257.34 983,-257.34"/>
</g>
<!-- Node19&#45;&gt;Node4 -->
<g id="edge22" class="edge">
<title>Node19&#45;&gt;Node4</title>
<path fill="none" stroke="midnightblue" d="M1108.67,-174.92C1073.62,-162.22 1033.24,-147.58 1001.66,-136.13"/>
<polygon fill="midnightblue" stroke="midnightblue" points="1107.81,-178.34 1118.4,-178.45 1110.2,-171.75 1107.81,-178.34"/>
</g>
<!-- Node20 -->
<g id="node20" class="node">
<title>Node20</title>
<g id="a_node20"><a xlink:href="string__concatenation__builtin__function_8cpp.html" target="_top" xlink:title="Builtin functions for string concatenations.">
<polygon fill="none" stroke="black" points="1089.5,-89.5 1089.5,-141.5 1285.5,-141.5 1285.5,-89.5 1089.5,-89.5"/>
<text text-anchor="start" x="1097.5" y="-129.5" font-family="Helvetica,sans-Serif" font-size="10.00">/home/runner/work/diffblue</text>
<text text-anchor="start" x="1097.5" y="-118.5" font-family="Helvetica,sans-Serif" font-size="10.00">&#45;cbmc/diffblue&#45;cbmc/src</text>
<text text-anchor="start" x="1097.5" y="-107.5" font-family="Helvetica,sans-Serif" font-size="10.00">/solvers/strings/string_concatenation</text>
<text text-anchor="middle" x="1187.5" y="-96.5" font-family="Helvetica,sans-Serif" font-size="10.00">_builtin_function.cpp</text>
</a>
</g>
</g>
<!-- Node19&#45;&gt;Node20 -->
<g id="edge21" class="edge">
<title>Node19&#45;&gt;Node20</title>
<path fill="none" stroke="midnightblue" d="M1187.5,-168.19C1187.5,-159.28 1187.5,-149.9 1187.5,-141.61"/>
<polygon fill="midnightblue" stroke="midnightblue" points="1184,-168.34 1187.5,-178.34 1191,-168.34 1184,-168.34"/>
</g>
</g>
</svg>
