<?xml version="1.0" encoding="UTF-8" standalone="no"?>
<!DOCTYPE svg PUBLIC "-//W3C//DTD SVG 1.1//EN"
 "http://www.w3.org/Graphics/SVG/1.1/DTD/svg11.dtd">
<!-- Generated by graphviz version 2.43.0 (0)
 -->
<!-- Title: /home/runner/work/diffblue&#45;cbmc/diffblue&#45;cbmc/src/solvers/strings/string_insertion_builtin_function.h Pages: 1 -->
<svg width="504pt" height="239pt"
 viewBox="0.00 0.00 504.00 239.00" xmlns="http://www.w3.org/2000/svg" xmlns:xlink="http://www.w3.org/1999/xlink">
<g id="graph0" class="graph" transform="scale(1 1) rotate(0) translate(4 235)">
<title>/home/runner/work/diffblue&#45;cbmc/diffblue&#45;cbmc/src/solvers/strings/string_insertion_builtin_function.h</title>
<!-- Node1 -->
<g id="node1" class="node">
<title>Node1</title>
<g id="a_node1"><a xlink:title=" ">
<polygon fill="#bfbfbf" stroke="black" points="225,-178.5 225,-230.5 395,-230.5 395,-178.5 225,-178.5"/>
<text text-anchor="start" x="233" y="-218.5" font-family="Helvetica,sans-Serif" font-size="10.00">/home/runner/work/diffblue</text>
<text text-anchor="start" x="233" y="-207.5" font-family="Helvetica,sans-Serif" font-size="10.00">&#45;cbmc/diffblue&#45;cbmc/src</text>
<text text-anchor="start" x="233" y="-196.5" font-family="Helvetica,sans-Serif" font-size="10.00">/solvers/strings/string_insertion</text>
<text text-anchor="middle" x="310" y="-185.5" font-family="Helvetica,sans-Serif" font-size="10.00">_builtin_function.h</text>
</a>
</g>
</g>
<!-- Node2 -->
<g id="node2" class="node">
<title>Node2</title>
<g id="a_node2"><a xlink:href="string__concatenation__builtin__function_8h.html" target="_top" xlink:title="Builtin functions for string concatenations.">
<polygon fill="none" stroke="black" points="112,-89.5 112,-141.5 308,-141.5 308,-89.5 112,-89.5"/>
<text text-anchor="start" x="120" y="-129.5" font-family="Helvetica,sans-Serif" font-size="10.00">/home/runner/work/diffblue</text>
<text text-anchor="start" x="120" y="-118.5" font-family="Helvetica,sans-Serif" font-size="10.00">&#45;cbmc/diffblue&#45;cbmc/src</text>
<text text-anchor="start" x="120" y="-107.5" font-family="Helvetica,sans-Serif" font-size="10.00">/solvers/strings/string_concatenation</text>
<text text-anchor="middle" x="210" y="-96.5" font-family="Helvetica,sans-Serif" font-size="10.00">_builtin_function.h</text>
</a>
</g>
</g>
<!-- Node1&#45;&gt;Node2 -->
<g id="edge1" class="edge">
<title>Node1&#45;&gt;Node2</title>
<path fill="none" stroke="midnightblue" d="M273.39,-171.65C262.01,-161.75 249.63,-150.98 238.86,-141.61"/>
<polygon fill="midnightblue" stroke="midnightblue" points="271.23,-174.41 281.08,-178.34 275.83,-169.13 271.23,-174.41"/>
</g>
<!-- Node5 -->
<g id="node5" class="node">
<title>Node5</title>
<g id="a_node5"><a xlink:href="string__insertion__builtin__function_8cpp.html" target="_top" xlink:title=" ">
<polygon fill="none" stroke="black" points="326,-89.5 326,-141.5 496,-141.5 496,-89.5 326,-89.5"/>
<text text-anchor="start" x="334" y="-129.5" font-family="Helvetica,sans-Serif" font-size="10.00">/home/runner/work/diffblue</text>
<text text-anchor="start" x="334" y="-118.5" font-family="Helvetica,sans-Serif" font-size="10.00">&#45;cbmc/diffblue&#45;cbmc/src</text>
<text text-anchor="start" x="334" y="-107.5" font-family="Helvetica,sans-Serif" font-size="10.00">/solvers/strings/string_insertion</text>
<text text-anchor="middle" x="411" y="-96.5" font-family="Helvetica,sans-Serif" font-size="10.00">_builtin_function.cpp</text>
</a>
</g>
</g>
<!-- Node1&#45;&gt;Node5 -->
<g id="edge4" class="edge">
<title>Node1&#45;&gt;Node5</title>
<path fill="none" stroke="midnightblue" d="M346.98,-171.65C358.47,-161.75 370.97,-150.98 381.85,-141.61"/>
<polygon fill="midnightblue" stroke="midnightblue" points="344.51,-169.16 339.21,-178.34 349.07,-174.46 344.51,-169.16"/>
</g>
<!-- Node3 -->
<g id="node3" class="node">
<title>Node3</title>
<g id="a_node3"><a xlink:href="string__concatenation__builtin__function_8cpp.html" target="_top" xlink:title="Builtin functions for string concatenations.">
<polygon fill="none" stroke="black" points="0,-0.5 0,-52.5 196,-52.5 196,-0.5 0,-0.5"/>
<text text-anchor="start" x="8" y="-40.5" font-family="Helvetica,sans-Serif" font-size="10.00">/home/runner/work/diffblue</text>
<text text-anchor="start" x="8" y="-29.5" font-family="Helvetica,sans-Serif" font-size="10.00">&#45;cbmc/diffblue&#45;cbmc/src</text>
<text text-anchor="start" x="8" y="-18.5" font-family="Helvetica,sans-Serif" font-size="10.00">/solvers/strings/string_concatenation</text>
<text text-anchor="middle" x="98" y="-7.5" font-family="Helvetica,sans-Serif" font-size="10.00">_builtin_function.cpp</text>
</a>
</g>
</g>
<!-- Node2&#45;&gt;Node3 -->
<g id="edge2" class="edge">
<title>Node2&#45;&gt;Node3</title>
<path fill="none" stroke="midnightblue" d="M169.36,-82.93C156.52,-72.96 142.5,-62.07 130.32,-52.61"/>
<polygon fill="midnightblue" stroke="midnightblue" points="167.56,-85.97 177.6,-89.34 171.85,-80.44 167.56,-85.97"/>
</g>
<!-- Node4 -->
<g id="node4" class="node">
<title>Node4</title>
<g id="a_node4"><a xlink:href="string__dependencies_8cpp.html" target="_top" xlink:title=" ">
<polygon fill="none" stroke="black" points="214.5,-6 214.5,-47 429.5,-47 429.5,-6 214.5,-6"/>
<text text-anchor="start" x="222.5" y="-35" font-family="Helvetica,sans-Serif" font-size="10.00">/home/runner/work/diffblue</text>
<text text-anchor="start" x="222.5" y="-24" font-family="Helvetica,sans-Serif" font-size="10.00">&#45;cbmc/diffblue&#45;cbmc/src</text>
<text text-anchor="middle" x="322" y="-13" font-family="Helvetica,sans-Serif" font-size="10.00">/solvers/strings/string_dependencies.cpp</text>
</a>
</g>
</g>
<!-- Node2&#45;&gt;Node4 -->
<g id="edge3" class="edge">
<title>Node2&#45;&gt;Node4</title>
<path fill="none" stroke="midnightblue" d="M250.32,-83.18C265.84,-71.13 283.1,-57.72 296.79,-47.08"/>
<polygon fill="midnightblue" stroke="midnightblue" points="248.15,-80.44 242.4,-89.34 252.44,-85.97 248.15,-80.44"/>
</g>
</g>
</svg>
