<?xml version="1.0" encoding="UTF-8" standalone="no"?>
<!DOCTYPE svg PUBLIC "-//W3C//DTD SVG 1.1//EN"
 "http://www.w3.org/Graphics/SVG/1.1/DTD/svg11.dtd">
<!-- Generated by graphviz version 2.43.0 (0)
 -->
<!-- Title: /home/runner/work/diffblue&#45;cbmc/diffblue&#45;cbmc/src/goto&#45;programs/structured_trace_util.h Pages: 1 -->
<svg width="956pt" height="328pt"
 viewBox="0.00 0.00 955.50 328.00" xmlns="http://www.w3.org/2000/svg" xmlns:xlink="http://www.w3.org/1999/xlink">
<g id="graph0" class="graph" transform="scale(1 1) rotate(0) translate(4 324)">
<title>/home/runner/work/diffblue&#45;cbmc/diffblue&#45;cbmc/src/goto&#45;programs/structured_trace_util.h</title>
<!-- Node1 -->
<g id="node1" class="node">
<title>Node1</title>
<g id="a_node1"><a xlink:title="Utilities for printing location info steps in the trace in a format agnostic way.">
<polygon fill="#bfbfbf" stroke="black" points="589.5,-267.5 589.5,-319.5 738.5,-319.5 738.5,-267.5 589.5,-267.5"/>
<text text-anchor="start" x="597.5" y="-307.5" font-family="Helvetica,sans-Serif" font-size="10.00">/home/runner/work/diffblue</text>
<text text-anchor="start" x="597.5" y="-296.5" font-family="Helvetica,sans-Serif" font-size="10.00">&#45;cbmc/diffblue&#45;cbmc/src</text>
<text text-anchor="start" x="597.5" y="-285.5" font-family="Helvetica,sans-Serif" font-size="10.00">/goto&#45;programs/structured</text>
<text text-anchor="middle" x="664" y="-274.5" font-family="Helvetica,sans-Serif" font-size="10.00">_trace_util.h</text>
</a>
</g>
</g>
<!-- Node2 -->
<g id="node2" class="node">
<title>Node2</title>
<g id="a_node2"><a xlink:href="json__goto__trace_8h.html" target="_top" xlink:title="Traces of GOTO Programs.">
<polygon fill="none" stroke="black" points="422.5,-178.5 422.5,-230.5 571.5,-230.5 571.5,-178.5 422.5,-178.5"/>
<text text-anchor="start" x="430.5" y="-218.5" font-family="Helvetica,sans-Serif" font-size="10.00">/home/runner/work/diffblue</text>
<text text-anchor="start" x="430.5" y="-207.5" font-family="Helvetica,sans-Serif" font-size="10.00">&#45;cbmc/diffblue&#45;cbmc/src</text>
<text text-anchor="start" x="430.5" y="-196.5" font-family="Helvetica,sans-Serif" font-size="10.00">/goto&#45;programs/json_goto</text>
<text text-anchor="middle" x="497" y="-185.5" font-family="Helvetica,sans-Serif" font-size="10.00">_trace.h</text>
</a>
</g>
</g>
<!-- Node1&#45;&gt;Node2 -->
<g id="edge1" class="edge">
<title>Node1&#45;&gt;Node2</title>
<path fill="none" stroke="midnightblue" d="M606.67,-262.64C586.65,-252.2 564.4,-240.61 545.19,-230.61"/>
<polygon fill="midnightblue" stroke="midnightblue" points="605.21,-265.82 615.7,-267.34 608.45,-259.61 605.21,-265.82"/>
</g>
<!-- Node10 -->
<g id="node10" class="node">
<title>Node10</title>
<g id="a_node10"><a xlink:href="structured__trace__util_8cpp.html" target="_top" xlink:title="Utilities for printing location info steps in the trace in a format agnostic way.">
<polygon fill="none" stroke="black" points="589.5,-178.5 589.5,-230.5 738.5,-230.5 738.5,-178.5 589.5,-178.5"/>
<text text-anchor="start" x="597.5" y="-218.5" font-family="Helvetica,sans-Serif" font-size="10.00">/home/runner/work/diffblue</text>
<text text-anchor="start" x="597.5" y="-207.5" font-family="Helvetica,sans-Serif" font-size="10.00">&#45;cbmc/diffblue&#45;cbmc/src</text>
<text text-anchor="start" x="597.5" y="-196.5" font-family="Helvetica,sans-Serif" font-size="10.00">/goto&#45;programs/structured</text>
<text text-anchor="middle" x="664" y="-185.5" font-family="Helvetica,sans-Serif" font-size="10.00">_trace_util.cpp</text>
</a>
</g>
</g>
<!-- Node1&#45;&gt;Node10 -->
<g id="edge10" class="edge">
<title>Node1&#45;&gt;Node10</title>
<path fill="none" stroke="midnightblue" d="M664,-257.19C664,-248.28 664,-238.9 664,-230.61"/>
<polygon fill="midnightblue" stroke="midnightblue" points="660.5,-257.34 664,-267.34 667.5,-257.34 660.5,-257.34"/>
</g>
<!-- Node11 -->
<g id="node11" class="node">
<title>Node11</title>
<g id="a_node11"><a xlink:href="xml__goto__trace_8cpp.html" target="_top" xlink:title="Traces of GOTO Programs.">
<polygon fill="none" stroke="black" points="756.5,-184 756.5,-225 947.5,-225 947.5,-184 756.5,-184"/>
<text text-anchor="start" x="764.5" y="-213" font-family="Helvetica,sans-Serif" font-size="10.00">/home/runner/work/diffblue</text>
<text text-anchor="start" x="764.5" y="-202" font-family="Helvetica,sans-Serif" font-size="10.00">&#45;cbmc/diffblue&#45;cbmc/src</text>
<text text-anchor="middle" x="852" y="-191" font-family="Helvetica,sans-Serif" font-size="10.00">/goto&#45;programs/xml_goto_trace.cpp</text>
</a>
</g>
</g>
<!-- Node1&#45;&gt;Node11 -->
<g id="edge11" class="edge">
<title>Node1&#45;&gt;Node11</title>
<path fill="none" stroke="midnightblue" d="M727.51,-263.11C754.55,-250.59 785.37,-236.34 809.57,-225.13"/>
<polygon fill="midnightblue" stroke="midnightblue" points="725.73,-260.08 718.13,-267.45 728.67,-266.43 725.73,-260.08"/>
</g>
<!-- Node3 -->
<g id="node3" class="node">
<title>Node3</title>
<g id="a_node3"><a xlink:href="c__test__input__generator_8cpp.html" target="_top" xlink:title="Test Input Generator for C.">
<polygon fill="none" stroke="black" points="0,-95 0,-136 180,-136 180,-95 0,-95"/>
<text text-anchor="start" x="8" y="-124" font-family="Helvetica,sans-Serif" font-size="10.00">/home/runner/work/diffblue</text>
<text text-anchor="start" x="8" y="-113" font-family="Helvetica,sans-Serif" font-size="10.00">&#45;cbmc/diffblue&#45;cbmc/src</text>
<text text-anchor="middle" x="90" y="-102" font-family="Helvetica,sans-Serif" font-size="10.00">/cbmc/c_test_input_generator.cpp</text>
</a>
</g>
</g>
<!-- Node2&#45;&gt;Node3 -->
<g id="edge2" class="edge">
<title>Node2&#45;&gt;Node3</title>
<path fill="none" stroke="midnightblue" d="M412.26,-187.88C350.24,-176.13 264.15,-159.17 189,-142 180.87,-140.14 172.38,-138.11 163.95,-136.02"/>
<polygon fill="midnightblue" stroke="midnightblue" points="411.91,-191.38 422.38,-189.79 413.21,-184.5 411.91,-191.38"/>
</g>
<!-- Node4 -->
<g id="node4" class="node">
<title>Node4</title>
<g id="a_node4"><a xlink:href="bmc__util_8cpp.html" target="_top" xlink:title="Bounded Model Checking Utilities.">
<polygon fill="none" stroke="black" points="198.5,-95 198.5,-136 347.5,-136 347.5,-95 198.5,-95"/>
<text text-anchor="start" x="206.5" y="-124" font-family="Helvetica,sans-Serif" font-size="10.00">/home/runner/work/diffblue</text>
<text text-anchor="start" x="206.5" y="-113" font-family="Helvetica,sans-Serif" font-size="10.00">&#45;cbmc/diffblue&#45;cbmc/src</text>
<text text-anchor="middle" x="273" y="-102" font-family="Helvetica,sans-Serif" font-size="10.00">/goto&#45;checker/bmc_util.cpp</text>
</a>
</g>
</g>
<!-- Node2&#45;&gt;Node4 -->
<g id="edge3" class="edge">
<title>Node2&#45;&gt;Node4</title>
<path fill="none" stroke="midnightblue" d="M423.01,-174.76C390.39,-162.09 352.9,-147.53 323.55,-136.13"/>
<polygon fill="midnightblue" stroke="midnightblue" points="421.92,-178.09 432.51,-178.45 424.46,-171.57 421.92,-178.09"/>
</g>
<!-- Node5 -->
<g id="node5" class="node">
<title>Node5</title>
<g id="a_node5"><a xlink:href="report__util_8cpp.html" target="_top" xlink:title="Bounded Model Checking Utilities.">
<polygon fill="none" stroke="black" points="366,-95 366,-136 522,-136 522,-95 366,-95"/>
<text text-anchor="start" x="374" y="-124" font-family="Helvetica,sans-Serif" font-size="10.00">/home/runner/work/diffblue</text>
<text text-anchor="start" x="374" y="-113" font-family="Helvetica,sans-Serif" font-size="10.00">&#45;cbmc/diffblue&#45;cbmc/src</text>
<text text-anchor="middle" x="444" y="-102" font-family="Helvetica,sans-Serif" font-size="10.00">/goto&#45;checker/report_util.cpp</text>
</a>
</g>
</g>
<!-- Node2&#45;&gt;Node5 -->
<g id="edge4" class="edge">
<title>Node2&#45;&gt;Node5</title>
<path fill="none" stroke="midnightblue" d="M476.29,-169.51C469.39,-158.17 461.93,-145.94 455.93,-136.08"/>
<polygon fill="midnightblue" stroke="midnightblue" points="473.48,-171.62 481.67,-178.34 479.46,-167.97 473.48,-171.62"/>
</g>
<!-- Node6 -->
<g id="node6" class="node">
<title>Node6</title>
<g id="a_node6"><a xlink:href="interpreter_8cpp.html" target="_top" xlink:title="Interpreter for GOTO Programs.">
<polygon fill="none" stroke="black" points="467,-6 467,-47 633,-47 633,-6 467,-6"/>
<text text-anchor="start" x="475" y="-35" font-family="Helvetica,sans-Serif" font-size="10.00">/home/runner/work/diffblue</text>
<text text-anchor="start" x="475" y="-24" font-family="Helvetica,sans-Serif" font-size="10.00">&#45;cbmc/diffblue&#45;cbmc/src</text>
<text text-anchor="middle" x="550" y="-13" font-family="Helvetica,sans-Serif" font-size="10.00">/goto&#45;programs/interpreter.cpp</text>
</a>
</g>
</g>
<!-- Node2&#45;&gt;Node6 -->
<g id="edge5" class="edge">
<title>Node2&#45;&gt;Node6</title>
<path fill="none" stroke="midnightblue" d="M518.41,-169.63C523.17,-160.89 527.76,-151.32 531,-142 542.19,-109.84 546.88,-70.24 548.78,-47.04"/>
<polygon fill="midnightblue" stroke="midnightblue" points="515.33,-167.95 513.44,-178.38 521.42,-171.41 515.33,-167.95"/>
</g>
<!-- Node7 -->
<g id="node7" class="node">
<title>Node7</title>
<g id="a_node7"><a xlink:href="interpreter__class_8h.html" target="_top" xlink:title="Interpreter for GOTO Programs.">
<polygon fill="none" stroke="black" points="577.5,-89.5 577.5,-141.5 726.5,-141.5 726.5,-89.5 577.5,-89.5"/>
<text text-anchor="start" x="585.5" y="-129.5" font-family="Helvetica,sans-Serif" font-size="10.00">/home/runner/work/diffblue</text>
<text text-anchor="start" x="585.5" y="-118.5" font-family="Helvetica,sans-Serif" font-size="10.00">&#45;cbmc/diffblue&#45;cbmc/src</text>
<text text-anchor="start" x="585.5" y="-107.5" font-family="Helvetica,sans-Serif" font-size="10.00">/goto&#45;programs/interpreter</text>
<text text-anchor="middle" x="652" y="-96.5" font-family="Helvetica,sans-Serif" font-size="10.00">_class.h</text>
</a>
</g>
</g>
<!-- Node2&#45;&gt;Node7 -->
<g id="edge6" class="edge">
<title>Node2&#45;&gt;Node7</title>
<path fill="none" stroke="midnightblue" d="M550.71,-173.35C569.16,-163 589.61,-151.52 607.27,-141.61"/>
<polygon fill="midnightblue" stroke="midnightblue" points="548.84,-170.39 541.83,-178.34 552.27,-176.49 548.84,-170.39"/>
</g>
<!-- Node9 -->
<g id="node9" class="node">
<title>Node9</title>
<g id="a_node9"><a xlink:href="json__goto__trace_8cpp.html" target="_top" xlink:title="Traces of GOTO Programs.">
<polygon fill="none" stroke="black" points="744.5,-89.5 744.5,-141.5 893.5,-141.5 893.5,-89.5 744.5,-89.5"/>
<text text-anchor="start" x="752.5" y="-129.5" font-family="Helvetica,sans-Serif" font-size="10.00">/home/runner/work/diffblue</text>
<text text-anchor="start" x="752.5" y="-118.5" font-family="Helvetica,sans-Serif" font-size="10.00">&#45;cbmc/diffblue&#45;cbmc/src</text>
<text text-anchor="start" x="752.5" y="-107.5" font-family="Helvetica,sans-Serif" font-size="10.00">/goto&#45;programs/json_goto</text>
<text text-anchor="middle" x="819" y="-96.5" font-family="Helvetica,sans-Serif" font-size="10.00">_trace.cpp</text>
</a>
</g>
</g>
<!-- Node2&#45;&gt;Node9 -->
<g id="edge9" class="edge">
<title>Node2&#45;&gt;Node9</title>
<path fill="none" stroke="midnightblue" d="M581.28,-178.01C650.99,-159.74 670.65,-159.61 736,-142 738.77,-141.25 741.58,-140.48 744.41,-139.68"/>
<polygon fill="midnightblue" stroke="midnightblue" points="580.35,-174.63 571.58,-180.58 582.14,-181.4 580.35,-174.63"/>
</g>
<!-- Node7&#45;&gt;Node6 -->
<g id="edge7" class="edge">
<title>Node7&#45;&gt;Node6</title>
<path fill="none" stroke="midnightblue" d="M614.5,-82.51C600.57,-70.64 585.2,-57.53 572.96,-47.08"/>
<polygon fill="midnightblue" stroke="midnightblue" points="612.62,-85.51 622.5,-89.34 617.16,-80.18 612.62,-85.51"/>
</g>
<!-- Node8 -->
<g id="node8" class="node">
<title>Node8</title>
<g id="a_node8"><a xlink:href="interpreter__evaluate_8cpp.html" target="_top" xlink:title="Interpreter for GOTO Programs.">
<polygon fill="none" stroke="black" points="651.5,-0.5 651.5,-52.5 800.5,-52.5 800.5,-0.5 651.5,-0.5"/>
<text text-anchor="start" x="659.5" y="-40.5" font-family="Helvetica,sans-Serif" font-size="10.00">/home/runner/work/diffblue</text>
<text text-anchor="start" x="659.5" y="-29.5" font-family="Helvetica,sans-Serif" font-size="10.00">&#45;cbmc/diffblue&#45;cbmc/src</text>
<text text-anchor="start" x="659.5" y="-18.5" font-family="Helvetica,sans-Serif" font-size="10.00">/goto&#45;programs/interpreter</text>
<text text-anchor="middle" x="726" y="-7.5" font-family="Helvetica,sans-Serif" font-size="10.00">_evaluate.cpp</text>
</a>
</g>
</g>
<!-- Node7&#45;&gt;Node8 -->
<g id="edge8" class="edge">
<title>Node7&#45;&gt;Node8</title>
<path fill="none" stroke="midnightblue" d="M680.07,-81.5C688.22,-71.92 696.98,-61.62 704.64,-52.61"/>
<polygon fill="midnightblue" stroke="midnightblue" points="677.22,-79.45 673.4,-89.34 682.55,-83.99 677.22,-79.45"/>
</g>
</g>
</svg>
