<?xml version="1.0" encoding="UTF-8" standalone="no"?>
<!DOCTYPE svg PUBLIC "-//W3C//DTD SVG 1.1//EN"
 "http://www.w3.org/Graphics/SVG/1.1/DTD/svg11.dtd">
<!-- Generated by graphviz version 2.43.0 (0)
 -->
<!-- Title: /home/runner/work/diffblue&#45;cbmc/diffblue&#45;cbmc/src/solvers/smt2_incremental/encoding/struct_encoding.h Pages: 1 -->
<svg width="435pt" height="261pt"
 viewBox="0.00 0.00 435.00 261.00" xmlns="http://www.w3.org/2000/svg" xmlns:xlink="http://www.w3.org/1999/xlink">
<g id="graph0" class="graph" transform="scale(1 1) rotate(0) translate(4 257)">
<title>/home/runner/work/diffblue&#45;cbmc/diffblue&#45;cbmc/src/solvers/smt2_incremental/encoding/struct_encoding.h</title>
<!-- Node1 -->
<g id="node1" class="node">
<title>Node1</title>
<g id="a_node1"><a xlink:title=" ">
<polygon fill="#bfbfbf" stroke="black" points="93.5,-200.5 93.5,-252.5 246.5,-252.5 246.5,-200.5 93.5,-200.5"/>
<text text-anchor="start" x="101.5" y="-240.5" font-family="Helvetica,sans-Serif" font-size="10.00">/home/runner/work/diffblue</text>
<text text-anchor="start" x="101.5" y="-229.5" font-family="Helvetica,sans-Serif" font-size="10.00">&#45;cbmc/diffblue&#45;cbmc/src</text>
<text text-anchor="start" x="101.5" y="-218.5" font-family="Helvetica,sans-Serif" font-size="10.00">/solvers/smt2_incremental</text>
<text text-anchor="middle" x="170" y="-207.5" font-family="Helvetica,sans-Serif" font-size="10.00">/encoding/struct_encoding.h</text>
</a>
</g>
</g>
<!-- Node2 -->
<g id="node2" class="node">
<title>Node2</title>
<g id="a_node2"><a xlink:href="struct__encoding_8cpp.html" target="_top" xlink:title=" ">
<polygon fill="none" stroke="black" points="0,-106 0,-158 164,-158 164,-106 0,-106"/>
<text text-anchor="start" x="8" y="-146" font-family="Helvetica,sans-Serif" font-size="10.00">/home/runner/work/diffblue</text>
<text text-anchor="start" x="8" y="-135" font-family="Helvetica,sans-Serif" font-size="10.00">&#45;cbmc/diffblue&#45;cbmc/src</text>
<text text-anchor="start" x="8" y="-124" font-family="Helvetica,sans-Serif" font-size="10.00">/solvers/smt2_incremental</text>
<text text-anchor="middle" x="82" y="-113" font-family="Helvetica,sans-Serif" font-size="10.00">/encoding/struct_encoding.cpp</text>
</a>
</g>
</g>
<!-- Node1&#45;&gt;Node2 -->
<g id="edge1" class="edge">
<title>Node1&#45;&gt;Node2</title>
<path fill="none" stroke="midnightblue" d="M139.03,-192.95C128.19,-181.56 116.2,-168.95 106.02,-158.25"/>
<polygon fill="midnightblue" stroke="midnightblue" points="136.53,-195.39 145.95,-200.22 141.6,-190.57 136.53,-195.39"/>
</g>
<!-- Node3 -->
<g id="node3" class="node">
<title>Node3</title>
<g id="a_node3"><a xlink:href="smt2__incremental__decision__procedure_8h.html" target="_top" xlink:title="Decision procedure with incremental SMT2 solving.">
<polygon fill="none" stroke="black" points="182,-100.5 182,-163.5 336,-163.5 336,-100.5 182,-100.5"/>
<text text-anchor="start" x="190" y="-151.5" font-family="Helvetica,sans-Serif" font-size="10.00">/home/runner/work/diffblue</text>
<text text-anchor="start" x="190" y="-140.5" font-family="Helvetica,sans-Serif" font-size="10.00">&#45;cbmc/diffblue&#45;cbmc/src</text>
<text text-anchor="start" x="190" y="-129.5" font-family="Helvetica,sans-Serif" font-size="10.00">/solvers/smt2_incremental</text>
<text text-anchor="start" x="190" y="-118.5" font-family="Helvetica,sans-Serif" font-size="10.00">/smt2_incremental_decision</text>
<text text-anchor="middle" x="259" y="-107.5" font-family="Helvetica,sans-Serif" font-size="10.00">_procedure.h</text>
</a>
</g>
</g>
<!-- Node1&#45;&gt;Node3 -->
<g id="edge2" class="edge">
<title>Node1&#45;&gt;Node3</title>
<path fill="none" stroke="midnightblue" d="M201.46,-192.8C210.63,-183.27 220.61,-172.9 229.64,-163.51"/>
<polygon fill="midnightblue" stroke="midnightblue" points="198.73,-190.59 194.32,-200.22 203.78,-195.44 198.73,-190.59"/>
</g>
<!-- Node4 -->
<g id="node4" class="node">
<title>Node4</title>
<g id="a_node4"><a xlink:href="solver__factory_8cpp.html" target="_top" xlink:title="Solver Factory.">
<polygon fill="none" stroke="black" points="81,-11.5 81,-52.5 255,-52.5 255,-11.5 81,-11.5"/>
<text text-anchor="start" x="89" y="-40.5" font-family="Helvetica,sans-Serif" font-size="10.00">/home/runner/work/diffblue</text>
<text text-anchor="start" x="89" y="-29.5" font-family="Helvetica,sans-Serif" font-size="10.00">&#45;cbmc/diffblue&#45;cbmc/src</text>
<text text-anchor="middle" x="168" y="-18.5" font-family="Helvetica,sans-Serif" font-size="10.00">/goto&#45;checker/solver_factory.cpp</text>
</a>
</g>
</g>
<!-- Node3&#45;&gt;Node4 -->
<g id="edge3" class="edge">
<title>Node3&#45;&gt;Node4</title>
<path fill="none" stroke="midnightblue" d="M223.5,-92.76C210.71,-79 196.82,-64.04 186.13,-52.53"/>
<polygon fill="midnightblue" stroke="midnightblue" points="221.09,-95.31 230.46,-100.26 226.22,-90.55 221.09,-95.31"/>
</g>
<!-- Node5 -->
<g id="node5" class="node">
<title>Node5</title>
<g id="a_node5"><a xlink:href="smt2__incremental__decision__procedure_8cpp.html" target="_top" xlink:title=" ">
<polygon fill="none" stroke="black" points="273,-0.5 273,-63.5 427,-63.5 427,-0.5 273,-0.5"/>
<text text-anchor="start" x="281" y="-51.5" font-family="Helvetica,sans-Serif" font-size="10.00">/home/runner/work/diffblue</text>
<text text-anchor="start" x="281" y="-40.5" font-family="Helvetica,sans-Serif" font-size="10.00">&#45;cbmc/diffblue&#45;cbmc/src</text>
<text text-anchor="start" x="281" y="-29.5" font-family="Helvetica,sans-Serif" font-size="10.00">/solvers/smt2_incremental</text>
<text text-anchor="start" x="281" y="-18.5" font-family="Helvetica,sans-Serif" font-size="10.00">/smt2_incremental_decision</text>
<text text-anchor="middle" x="350" y="-7.5" font-family="Helvetica,sans-Serif" font-size="10.00">_procedure.cpp</text>
</a>
</g>
</g>
<!-- Node3&#45;&gt;Node5 -->
<g id="edge4" class="edge">
<title>Node3&#45;&gt;Node5</title>
<path fill="none" stroke="midnightblue" d="M294.58,-92.69C303.52,-83.05 313.01,-72.83 321.56,-63.63"/>
<polygon fill="midnightblue" stroke="midnightblue" points="291.78,-90.55 287.54,-100.26 296.91,-95.31 291.78,-90.55"/>
</g>
</g>
</svg>
