<?xml version="1.0" encoding="UTF-8" standalone="no"?>
<!DOCTYPE svg PUBLIC "-//W3C//DTD SVG 1.1//EN"
 "http://www.w3.org/Graphics/SVG/1.1/DTD/svg11.dtd">
<!-- Generated by graphviz version 2.43.0 (0)
 -->
<!-- Title: /home/runner/work/diffblue&#45;cbmc/diffblue&#45;cbmc/src/util/symbol_table_builder.h Pages: 1 -->
<svg width="1153pt" height="317pt"
 viewBox="0.00 0.00 1153.00 317.00" xmlns="http://www.w3.org/2000/svg" xmlns:xlink="http://www.w3.org/1999/xlink">
<g id="graph0" class="graph" transform="scale(1 1) rotate(0) translate(4 313)">
<title>/home/runner/work/diffblue&#45;cbmc/diffblue&#45;cbmc/src/util/symbol_table_builder.h</title>
<!-- Node1 -->
<g id="node1" class="node">
<title>Node1</title>
<g id="a_node1"><a xlink:title=" ">
<polygon fill="#bfbfbf" stroke="black" points="344.5,-267.5 344.5,-308.5 496.5,-308.5 496.5,-267.5 344.5,-267.5"/>
<text text-anchor="start" x="352.5" y="-296.5" font-family="Helvetica,sans-Serif" font-size="10.00">/home/runner/work/diffblue</text>
<text text-anchor="start" x="352.5" y="-285.5" font-family="Helvetica,sans-Serif" font-size="10.00">&#45;cbmc/diffblue&#45;cbmc/src</text>
<text text-anchor="middle" x="420.5" y="-274.5" font-family="Helvetica,sans-Serif" font-size="10.00">/util/symbol_table_builder.h</text>
</a>
</g>
</g>
<!-- Node2 -->
<g id="node2" class="node">
<title>Node2</title>
<g id="a_node2"><a xlink:href="goto__convert_8cpp.html" target="_top" xlink:title="Program Transformation.">
<polygon fill="none" stroke="black" points="0,-178.5 0,-230.5 155,-230.5 155,-178.5 0,-178.5"/>
<text text-anchor="start" x="8" y="-218.5" font-family="Helvetica,sans-Serif" font-size="10.00">/home/runner/work/diffblue</text>
<text text-anchor="start" x="8" y="-207.5" font-family="Helvetica,sans-Serif" font-size="10.00">&#45;cbmc/diffblue&#45;cbmc/src</text>
<text text-anchor="start" x="8" y="-196.5" font-family="Helvetica,sans-Serif" font-size="10.00">/ansi&#45;c/goto&#45;conversion/goto</text>
<text text-anchor="middle" x="77.5" y="-185.5" font-family="Helvetica,sans-Serif" font-size="10.00">_convert.cpp</text>
</a>
</g>
</g>
<!-- Node1&#45;&gt;Node2 -->
<g id="edge1" class="edge">
<title>Node1&#45;&gt;Node2</title>
<path fill="none" stroke="midnightblue" d="M334.19,-269.69C284.39,-259.3 220.69,-245.36 164.5,-231 161.45,-230.22 158.35,-229.41 155.21,-228.57"/>
<polygon fill="midnightblue" stroke="midnightblue" points="333.78,-273.17 344.28,-271.78 335.2,-266.32 333.78,-273.17"/>
</g>
<!-- Node3 -->
<g id="node3" class="node">
<title>Node3</title>
<g id="a_node3"><a xlink:href="goto__convert__functions_8cpp.html" target="_top" xlink:title=" ">
<polygon fill="none" stroke="black" points="173,-178.5 173,-230.5 328,-230.5 328,-178.5 173,-178.5"/>
<text text-anchor="start" x="181" y="-218.5" font-family="Helvetica,sans-Serif" font-size="10.00">/home/runner/work/diffblue</text>
<text text-anchor="start" x="181" y="-207.5" font-family="Helvetica,sans-Serif" font-size="10.00">&#45;cbmc/diffblue&#45;cbmc/src</text>
<text text-anchor="start" x="181" y="-196.5" font-family="Helvetica,sans-Serif" font-size="10.00">/ansi&#45;c/goto&#45;conversion/goto</text>
<text text-anchor="middle" x="250.5" y="-185.5" font-family="Helvetica,sans-Serif" font-size="10.00">_convert_functions.cpp</text>
</a>
</g>
</g>
<!-- Node1&#45;&gt;Node3 -->
<g id="edge2" class="edge">
<title>Node1&#45;&gt;Node3</title>
<path fill="none" stroke="midnightblue" d="M370.57,-263.07C349.26,-252.85 324.38,-240.92 302.81,-230.58"/>
<polygon fill="midnightblue" stroke="midnightblue" points="369.25,-266.31 379.78,-267.48 372.28,-260 369.25,-266.31"/>
</g>
<!-- Node4 -->
<g id="node4" class="node">
<title>Node4</title>
<g id="a_node4"><a xlink:href="compile_8cpp.html" target="_top" xlink:title="Compile and link source and object files.">
<polygon fill="none" stroke="black" points="346,-184 346,-225 495,-225 495,-184 346,-184"/>
<text text-anchor="start" x="354" y="-213" font-family="Helvetica,sans-Serif" font-size="10.00">/home/runner/work/diffblue</text>
<text text-anchor="start" x="354" y="-202" font-family="Helvetica,sans-Serif" font-size="10.00">&#45;cbmc/diffblue&#45;cbmc/src</text>
<text text-anchor="middle" x="420.5" y="-191" font-family="Helvetica,sans-Serif" font-size="10.00">/goto&#45;cc/compile.cpp</text>
</a>
</g>
</g>
<!-- Node1&#45;&gt;Node4 -->
<g id="edge3" class="edge">
<title>Node1&#45;&gt;Node4</title>
<path fill="none" stroke="midnightblue" d="M420.5,-257.06C420.5,-246.38 420.5,-234.63 420.5,-225.05"/>
<polygon fill="midnightblue" stroke="midnightblue" points="417,-257.27 420.5,-267.27 424,-257.27 417,-257.27"/>
</g>
<!-- Node5 -->
<g id="node5" class="node">
<title>Node5</title>
<g id="a_node5"><a xlink:href="java__bytecode__language_8cpp.html" target="_top" xlink:title=" ">
<polygon fill="none" stroke="black" points="513.5,-178.5 513.5,-230.5 695.5,-230.5 695.5,-178.5 513.5,-178.5"/>
<text text-anchor="start" x="521.5" y="-218.5" font-family="Helvetica,sans-Serif" font-size="10.00">/home/runner/work/diffblue</text>
<text text-anchor="start" x="521.5" y="-207.5" font-family="Helvetica,sans-Serif" font-size="10.00">&#45;cbmc/diffblue&#45;cbmc/jbmc</text>
<text text-anchor="start" x="521.5" y="-196.5" font-family="Helvetica,sans-Serif" font-size="10.00">/src/java_bytecode/java_bytecode</text>
<text text-anchor="middle" x="604.5" y="-185.5" font-family="Helvetica,sans-Serif" font-size="10.00">_language.cpp</text>
</a>
</g>
</g>
<!-- Node1&#45;&gt;Node5 -->
<g id="edge4" class="edge">
<title>Node1&#45;&gt;Node5</title>
<path fill="none" stroke="midnightblue" d="M473.92,-263.34C497.12,-253.06 524.33,-241.01 547.89,-230.58"/>
<polygon fill="midnightblue" stroke="midnightblue" points="472.3,-260.23 464.57,-267.48 475.13,-266.63 472.3,-260.23"/>
</g>
<!-- Node6 -->
<g id="node6" class="node">
<title>Node6</title>
<g id="a_node6"><a xlink:href="lazy__goto__functions__map_8h.html" target="_top" xlink:title="Author: Diffblue Ltd.">
<polygon fill="none" stroke="black" points="713.5,-178.5 713.5,-230.5 871.5,-230.5 871.5,-178.5 713.5,-178.5"/>
<text text-anchor="start" x="721.5" y="-218.5" font-family="Helvetica,sans-Serif" font-size="10.00">/home/runner/work/diffblue</text>
<text text-anchor="start" x="721.5" y="-207.5" font-family="Helvetica,sans-Serif" font-size="10.00">&#45;cbmc/diffblue&#45;cbmc/jbmc</text>
<text text-anchor="start" x="721.5" y="-196.5" font-family="Helvetica,sans-Serif" font-size="10.00">/src/java_bytecode/lazy_goto</text>
<text text-anchor="middle" x="792.5" y="-185.5" font-family="Helvetica,sans-Serif" font-size="10.00">_functions_map.h</text>
</a>
</g>
</g>
<!-- Node1&#45;&gt;Node6 -->
<g id="edge5" class="edge">
<title>Node1&#45;&gt;Node6</title>
<path fill="none" stroke="midnightblue" d="M506.51,-272.06C563.05,-261.75 638.51,-247.04 704.5,-231 707.44,-230.29 710.42,-229.54 713.43,-228.76"/>
<polygon fill="midnightblue" stroke="midnightblue" points="505.75,-268.64 496.53,-273.87 507,-275.53 505.75,-268.64"/>
</g>
<!-- Node7 -->
<g id="node7" class="node">
<title>Node7</title>
<g id="a_node7"><a xlink:href="lazy__goto__model_8h.html" target="_top" xlink:title="Author: Diffblue Ltd.">
<polygon fill="none" stroke="black" points="713.5,-89.5 713.5,-141.5 871.5,-141.5 871.5,-89.5 713.5,-89.5"/>
<text text-anchor="start" x="721.5" y="-129.5" font-family="Helvetica,sans-Serif" font-size="10.00">/home/runner/work/diffblue</text>
<text text-anchor="start" x="721.5" y="-118.5" font-family="Helvetica,sans-Serif" font-size="10.00">&#45;cbmc/diffblue&#45;cbmc/jbmc</text>
<text text-anchor="start" x="721.5" y="-107.5" font-family="Helvetica,sans-Serif" font-size="10.00">/src/java_bytecode/lazy_goto</text>
<text text-anchor="middle" x="792.5" y="-96.5" font-family="Helvetica,sans-Serif" font-size="10.00">_model.h</text>
</a>
</g>
</g>
<!-- Node6&#45;&gt;Node7 -->
<g id="edge6" class="edge">
<title>Node6&#45;&gt;Node7</title>
<path fill="none" stroke="midnightblue" d="M792.5,-168.19C792.5,-159.28 792.5,-149.9 792.5,-141.61"/>
<polygon fill="midnightblue" stroke="midnightblue" points="789,-168.34 792.5,-178.34 796,-168.34 789,-168.34"/>
</g>
<!-- Node8 -->
<g id="node8" class="node">
<title>Node8</title>
<g id="a_node8"><a xlink:href="janalyzer__parse__options_8cpp.html" target="_top" xlink:title="JANALYZER Command Line Option Processing.">
<polygon fill="none" stroke="black" points="453,-0.5 453,-52.5 602,-52.5 602,-0.5 453,-0.5"/>
<text text-anchor="start" x="461" y="-40.5" font-family="Helvetica,sans-Serif" font-size="10.00">/home/runner/work/diffblue</text>
<text text-anchor="start" x="461" y="-29.5" font-family="Helvetica,sans-Serif" font-size="10.00">&#45;cbmc/diffblue&#45;cbmc/jbmc</text>
<text text-anchor="start" x="461" y="-18.5" font-family="Helvetica,sans-Serif" font-size="10.00">/src/janalyzer/janalyzer</text>
<text text-anchor="middle" x="527.5" y="-7.5" font-family="Helvetica,sans-Serif" font-size="10.00">_parse_options.cpp</text>
</a>
</g>
</g>
<!-- Node7&#45;&gt;Node8 -->
<g id="edge7" class="edge">
<title>Node7&#45;&gt;Node8</title>
<path fill="none" stroke="midnightblue" d="M706.41,-86.24C672.85,-75.22 634.74,-62.71 602.34,-52.07"/>
<polygon fill="midnightblue" stroke="midnightblue" points="705.61,-89.66 716.21,-89.45 707.8,-83.01 705.61,-89.66"/>
</g>
<!-- Node9 -->
<g id="node9" class="node">
<title>Node9</title>
<g id="a_node9"><a xlink:href="lazy__goto__model_8cpp.html" target="_top" xlink:title="Author: Diffblue Ltd.">
<polygon fill="none" stroke="black" points="619.5,-0.5 619.5,-52.5 777.5,-52.5 777.5,-0.5 619.5,-0.5"/>
<text text-anchor="start" x="627.5" y="-40.5" font-family="Helvetica,sans-Serif" font-size="10.00">/home/runner/work/diffblue</text>
<text text-anchor="start" x="627.5" y="-29.5" font-family="Helvetica,sans-Serif" font-size="10.00">&#45;cbmc/diffblue&#45;cbmc/jbmc</text>
<text text-anchor="start" x="627.5" y="-18.5" font-family="Helvetica,sans-Serif" font-size="10.00">/src/java_bytecode/lazy_goto</text>
<text text-anchor="middle" x="698.5" y="-7.5" font-family="Helvetica,sans-Serif" font-size="10.00">_model.cpp</text>
</a>
</g>
</g>
<!-- Node7&#45;&gt;Node9 -->
<g id="edge8" class="edge">
<title>Node7&#45;&gt;Node9</title>
<path fill="none" stroke="midnightblue" d="M757.78,-82.36C747.17,-72.54 735.66,-61.89 725.63,-52.61"/>
<polygon fill="midnightblue" stroke="midnightblue" points="755.59,-85.11 765.31,-89.34 760.35,-79.97 755.59,-85.11"/>
</g>
<!-- Node10 -->
<g id="node10" class="node">
<title>Node10</title>
<g id="a_node10"><a xlink:href="jbmc__parse__options_8cpp.html" target="_top" xlink:title="JBMC Command Line Option Processing.">
<polygon fill="none" stroke="black" points="795.5,-6 795.5,-47 977.5,-47 977.5,-6 795.5,-6"/>
<text text-anchor="start" x="803.5" y="-35" font-family="Helvetica,sans-Serif" font-size="10.00">/home/runner/work/diffblue</text>
<text text-anchor="start" x="803.5" y="-24" font-family="Helvetica,sans-Serif" font-size="10.00">&#45;cbmc/diffblue&#45;cbmc/jbmc</text>
<text text-anchor="middle" x="886.5" y="-13" font-family="Helvetica,sans-Serif" font-size="10.00">/src/jbmc/jbmc_parse_options.cpp</text>
</a>
</g>
</g>
<!-- Node7&#45;&gt;Node10 -->
<g id="edge9" class="edge">
<title>Node7&#45;&gt;Node10</title>
<path fill="none" stroke="midnightblue" d="M827.06,-82.51C839.89,-70.64 854.06,-57.53 865.34,-47.08"/>
<polygon fill="midnightblue" stroke="midnightblue" points="824.65,-79.97 819.69,-89.34 829.41,-85.11 824.65,-79.97"/>
</g>
<!-- Node11 -->
<g id="node11" class="node">
<title>Node11</title>
<g id="a_node11"><a xlink:href="load__java__class_8cpp.html" target="_top" xlink:title=" ">
<polygon fill="none" stroke="black" points="996,-0.5 996,-52.5 1145,-52.5 1145,-0.5 996,-0.5"/>
<text text-anchor="start" x="1004" y="-40.5" font-family="Helvetica,sans-Serif" font-size="10.00">/home/runner/work/diffblue</text>
<text text-anchor="start" x="1004" y="-29.5" font-family="Helvetica,sans-Serif" font-size="10.00">&#45;cbmc/diffblue&#45;cbmc/jbmc</text>
<text text-anchor="start" x="1004" y="-18.5" font-family="Helvetica,sans-Serif" font-size="10.00">/unit/java&#45;testing&#45;utils</text>
<text text-anchor="middle" x="1070.5" y="-7.5" font-family="Helvetica,sans-Serif" font-size="10.00">/load_java_class.cpp</text>
</a>
</g>
</g>
<!-- Node7&#45;&gt;Node11 -->
<g id="edge10" class="edge">
<title>Node7&#45;&gt;Node11</title>
<path fill="none" stroke="midnightblue" d="M881.54,-86.64C918.4,-75.1 960.68,-61.87 995.88,-50.85"/>
<polygon fill="midnightblue" stroke="midnightblue" points="880.29,-83.36 871.79,-89.69 882.38,-90.04 880.29,-83.36"/>
</g>
</g>
</svg>
