<?xml version="1.0" encoding="UTF-8" standalone="no"?>
<!DOCTYPE svg PUBLIC "-//W3C//DTD SVG 1.1//EN"
 "http://www.w3.org/Graphics/SVG/1.1/DTD/svg11.dtd">
<!-- Generated by graphviz version 2.43.0 (0)
 -->
<!-- Title: /home/runner/work/diffblue&#45;cbmc/diffblue&#45;cbmc/src/goto&#45;symex/symex_assign.h Pages: 1 -->
<svg width="1179pt" height="139pt"
 viewBox="0.00 0.00 1179.00 139.00" xmlns="http://www.w3.org/2000/svg" xmlns:xlink="http://www.w3.org/1999/xlink">
<g id="graph0" class="graph" transform="scale(1 1) rotate(0) translate(4 135)">
<title>/home/runner/work/diffblue&#45;cbmc/diffblue&#45;cbmc/src/goto&#45;symex/symex_assign.h</title>
<!-- Node1 -->
<g id="node1" class="node">
<title>Node1</title>
<g id="a_node1"><a xlink:title="Symbolic Execution of assignments.">
<polygon fill="#bfbfbf" stroke="black" points="490.5,-89.5 490.5,-130.5 650.5,-130.5 650.5,-89.5 490.5,-89.5"/>
<text text-anchor="start" x="498.5" y="-118.5" font-family="Helvetica,sans-Serif" font-size="10.00">/home/runner/work/diffblue</text>
<text text-anchor="start" x="498.5" y="-107.5" font-family="Helvetica,sans-Serif" font-size="10.00">&#45;cbmc/diffblue&#45;cbmc/src</text>
<text text-anchor="middle" x="570.5" y="-96.5" font-family="Helvetica,sans-Serif" font-size="10.00">/goto&#45;symex/symex_assign.h</text>
</a>
</g>
</g>
<!-- Node2 -->
<g id="node2" class="node">
<title>Node2</title>
<g id="a_node2"><a xlink:href="goto__symex_8cpp.html" target="_top" xlink:title="Symbolic Execution.">
<polygon fill="none" stroke="black" points="0,-6 0,-47 161,-47 161,-6 0,-6"/>
<text text-anchor="start" x="8" y="-35" font-family="Helvetica,sans-Serif" font-size="10.00">/home/runner/work/diffblue</text>
<text text-anchor="start" x="8" y="-24" font-family="Helvetica,sans-Serif" font-size="10.00">&#45;cbmc/diffblue&#45;cbmc/src</text>
<text text-anchor="middle" x="80.5" y="-13" font-family="Helvetica,sans-Serif" font-size="10.00">/goto&#45;symex/goto_symex.cpp</text>
</a>
</g>
</g>
<!-- Node1&#45;&gt;Node2 -->
<g id="edge1" class="edge">
<title>Node1&#45;&gt;Node2</title>
<path fill="none" stroke="midnightblue" d="M480.17,-100.05C398.48,-91.09 275.18,-75.4 169.5,-53 161.48,-51.3 153.12,-49.27 144.88,-47.1"/>
<polygon fill="midnightblue" stroke="midnightblue" points="480.1,-103.56 490.42,-101.16 480.86,-96.6 480.1,-103.56"/>
</g>
<!-- Node3 -->
<g id="node3" class="node">
<title>Node3</title>
<g id="a_node3"><a xlink:href="symex__assign_8cpp.html" target="_top" xlink:title="Symbolic Execution.">
<polygon fill="none" stroke="black" points="179,-6 179,-47 350,-47 350,-6 179,-6"/>
<text text-anchor="start" x="187" y="-35" font-family="Helvetica,sans-Serif" font-size="10.00">/home/runner/work/diffblue</text>
<text text-anchor="start" x="187" y="-24" font-family="Helvetica,sans-Serif" font-size="10.00">&#45;cbmc/diffblue&#45;cbmc/src</text>
<text text-anchor="middle" x="264.5" y="-13" font-family="Helvetica,sans-Serif" font-size="10.00">/goto&#45;symex/symex_assign.cpp</text>
</a>
</g>
</g>
<!-- Node1&#45;&gt;Node3 -->
<g id="edge2" class="edge">
<title>Node1&#45;&gt;Node3</title>
<path fill="none" stroke="midnightblue" d="M487.08,-86.92C448.28,-76.63 401.53,-64.22 359.5,-53 352.24,-51.06 344.67,-49.04 337.11,-47.01"/>
<polygon fill="midnightblue" stroke="midnightblue" points="486.2,-90.31 496.76,-89.48 487.99,-83.54 486.2,-90.31"/>
</g>
<!-- Node4 -->
<g id="node4" class="node">
<title>Node4</title>
<g id="a_node4"><a xlink:href="symex__clean__expr_8cpp.html" target="_top" xlink:title="Symbolic Execution of ANSI&#45;C.">
<polygon fill="none" stroke="black" points="368.5,-6 368.5,-47 560.5,-47 560.5,-6 368.5,-6"/>
<text text-anchor="start" x="376.5" y="-35" font-family="Helvetica,sans-Serif" font-size="10.00">/home/runner/work/diffblue</text>
<text text-anchor="start" x="376.5" y="-24" font-family="Helvetica,sans-Serif" font-size="10.00">&#45;cbmc/diffblue&#45;cbmc/src</text>
<text text-anchor="middle" x="464.5" y="-13" font-family="Helvetica,sans-Serif" font-size="10.00">/goto&#45;symex/symex_clean_expr.cpp</text>
</a>
</g>
</g>
<!-- Node1&#45;&gt;Node4 -->
<g id="edge3" class="edge">
<title>Node1&#45;&gt;Node4</title>
<path fill="none" stroke="midnightblue" d="M536.97,-83.22C521.79,-71.55 504.13,-57.97 490.05,-47.14"/>
<polygon fill="midnightblue" stroke="midnightblue" points="535.05,-86.16 545.11,-89.48 539.32,-80.61 535.05,-86.16"/>
</g>
<!-- Node5 -->
<g id="node5" class="node">
<title>Node5</title>
<g id="a_node5"><a xlink:href="symex__dereference_8cpp.html" target="_top" xlink:title="Symbolic Execution of ANSI&#45;C.">
<polygon fill="none" stroke="black" points="578.5,-6 578.5,-47 776.5,-47 776.5,-6 578.5,-6"/>
<text text-anchor="start" x="586.5" y="-35" font-family="Helvetica,sans-Serif" font-size="10.00">/home/runner/work/diffblue</text>
<text text-anchor="start" x="586.5" y="-24" font-family="Helvetica,sans-Serif" font-size="10.00">&#45;cbmc/diffblue&#45;cbmc/src</text>
<text text-anchor="middle" x="677.5" y="-13" font-family="Helvetica,sans-Serif" font-size="10.00">/goto&#45;symex/symex_dereference.cpp</text>
</a>
</g>
</g>
<!-- Node1&#45;&gt;Node5 -->
<g id="edge4" class="edge">
<title>Node1&#45;&gt;Node5</title>
<path fill="none" stroke="midnightblue" d="M604.35,-83.22C619.67,-71.55 637.49,-57.97 651.71,-47.14"/>
<polygon fill="midnightblue" stroke="midnightblue" points="601.96,-80.64 596.13,-89.48 606.21,-86.2 601.96,-80.64"/>
</g>
<!-- Node6 -->
<g id="node6" class="node">
<title>Node6</title>
<g id="a_node6"><a xlink:href="symex__function__call_8cpp.html" target="_top" xlink:title="Symbolic Execution of ANSI&#45;C.">
<polygon fill="none" stroke="black" points="795,-0.5 795,-52.5 954,-52.5 954,-0.5 795,-0.5"/>
<text text-anchor="start" x="803" y="-40.5" font-family="Helvetica,sans-Serif" font-size="10.00">/home/runner/work/diffblue</text>
<text text-anchor="start" x="803" y="-29.5" font-family="Helvetica,sans-Serif" font-size="10.00">&#45;cbmc/diffblue&#45;cbmc/src</text>
<text text-anchor="start" x="803" y="-18.5" font-family="Helvetica,sans-Serif" font-size="10.00">/goto&#45;symex/symex_function</text>
<text text-anchor="middle" x="874.5" y="-7.5" font-family="Helvetica,sans-Serif" font-size="10.00">_call.cpp</text>
</a>
</g>
</g>
<!-- Node1&#45;&gt;Node6 -->
<g id="edge5" class="edge">
<title>Node1&#45;&gt;Node6</title>
<path fill="none" stroke="midnightblue" d="M657.05,-86.97C696.32,-76.84 743.31,-64.54 785.5,-53 788.6,-52.15 791.76,-51.28 794.95,-50.4"/>
<polygon fill="midnightblue" stroke="midnightblue" points="656.05,-83.61 647.24,-89.49 657.8,-90.39 656.05,-83.61"/>
</g>
<!-- Node7 -->
<g id="node7" class="node">
<title>Node7</title>
<g id="a_node7"><a xlink:href="symex__start__thread_8cpp.html" target="_top" xlink:title="Symbolic Execution.">
<polygon fill="none" stroke="black" points="972,-6 972,-47 1171,-47 1171,-6 972,-6"/>
<text text-anchor="start" x="980" y="-35" font-family="Helvetica,sans-Serif" font-size="10.00">/home/runner/work/diffblue</text>
<text text-anchor="start" x="980" y="-24" font-family="Helvetica,sans-Serif" font-size="10.00">&#45;cbmc/diffblue&#45;cbmc/src</text>
<text text-anchor="middle" x="1071.5" y="-13" font-family="Helvetica,sans-Serif" font-size="10.00">/goto&#45;symex/symex_start_thread.cpp</text>
</a>
</g>
</g>
<!-- Node1&#45;&gt;Node7 -->
<g id="edge6" class="edge">
<title>Node1&#45;&gt;Node7</title>
<path fill="none" stroke="midnightblue" d="M660.66,-98.5C740.57,-88.64 860.24,-72.51 963.5,-53 972.87,-51.23 982.66,-49.19 992.34,-47.05"/>
<polygon fill="midnightblue" stroke="midnightblue" points="660.13,-95.04 650.63,-99.73 660.99,-101.99 660.13,-95.04"/>
</g>
</g>
</svg>
