<?xml version="1.0" encoding="UTF-8" standalone="no"?>
<!DOCTYPE svg PUBLIC "-//W3C//DTD SVG 1.1//EN"
 "http://www.w3.org/Graphics/SVG/1.1/DTD/svg11.dtd">
<!-- Generated by graphviz version 2.43.0 (0)
 -->
<!-- Title: /home/runner/work/diffblue&#45;cbmc/diffblue&#45;cbmc/src/goto&#45;checker/symex_bmc_incremental_one_loop.h Pages: 1 -->
<svg width="501pt" height="239pt"
 viewBox="0.00 0.00 501.00 239.00" xmlns="http://www.w3.org/2000/svg" xmlns:xlink="http://www.w3.org/1999/xlink">
<g id="graph0" class="graph" transform="scale(1 1) rotate(0) translate(4 235)">
<title>/home/runner/work/diffblue&#45;cbmc/diffblue&#45;cbmc/src/goto&#45;checker/symex_bmc_incremental_one_loop.h</title>
<!-- Node1 -->
<g id="node1" class="node">
<title>Node1</title>
<g id="a_node1"><a xlink:title=" ">
<polygon fill="#bfbfbf" stroke="black" points="180,-178.5 180,-230.5 389,-230.5 389,-178.5 180,-178.5"/>
<text text-anchor="start" x="188" y="-218.5" font-family="Helvetica,sans-Serif" font-size="10.00">/home/runner/work/diffblue</text>
<text text-anchor="start" x="188" y="-207.5" font-family="Helvetica,sans-Serif" font-size="10.00">&#45;cbmc/diffblue&#45;cbmc/src</text>
<text text-anchor="start" x="188" y="-196.5" font-family="Helvetica,sans-Serif" font-size="10.00">/goto&#45;checker/symex_bmc_incremental</text>
<text text-anchor="middle" x="284.5" y="-185.5" font-family="Helvetica,sans-Serif" font-size="10.00">_one_loop.h</text>
</a>
</g>
</g>
<!-- Node2 -->
<g id="node2" class="node">
<title>Node2</title>
<g id="a_node2"><a xlink:href="single__loop__incremental__symex__checker_8h.html" target="_top" xlink:title="Goto Checker using multi&#45;path symbolic execution with incremental unwinding of a specified loop.">
<polygon fill="none" stroke="black" points="95.5,-89.5 95.5,-141.5 265.5,-141.5 265.5,-89.5 95.5,-89.5"/>
<text text-anchor="start" x="103.5" y="-129.5" font-family="Helvetica,sans-Serif" font-size="10.00">/home/runner/work/diffblue</text>
<text text-anchor="start" x="103.5" y="-118.5" font-family="Helvetica,sans-Serif" font-size="10.00">&#45;cbmc/diffblue&#45;cbmc/src</text>
<text text-anchor="start" x="103.5" y="-107.5" font-family="Helvetica,sans-Serif" font-size="10.00">/goto&#45;checker/single_loop</text>
<text text-anchor="middle" x="180.5" y="-96.5" font-family="Helvetica,sans-Serif" font-size="10.00">_incremental_symex_checker.h</text>
</a>
</g>
</g>
<!-- Node1&#45;&gt;Node2 -->
<g id="edge1" class="edge">
<title>Node1&#45;&gt;Node2</title>
<path fill="none" stroke="midnightblue" d="M246.43,-171.65C234.59,-161.75 221.72,-150.98 210.51,-141.61"/>
<polygon fill="midnightblue" stroke="midnightblue" points="244.5,-174.6 254.42,-178.34 248.99,-169.24 244.5,-174.6"/>
</g>
<!-- Node5 -->
<g id="node5" class="node">
<title>Node5</title>
<g id="a_node5"><a xlink:href="symex__bmc__incremental__one__loop_8cpp.html" target="_top" xlink:title=" ">
<polygon fill="none" stroke="black" points="284,-89.5 284,-141.5 493,-141.5 493,-89.5 284,-89.5"/>
<text text-anchor="start" x="292" y="-129.5" font-family="Helvetica,sans-Serif" font-size="10.00">/home/runner/work/diffblue</text>
<text text-anchor="start" x="292" y="-118.5" font-family="Helvetica,sans-Serif" font-size="10.00">&#45;cbmc/diffblue&#45;cbmc/src</text>
<text text-anchor="start" x="292" y="-107.5" font-family="Helvetica,sans-Serif" font-size="10.00">/goto&#45;checker/symex_bmc_incremental</text>
<text text-anchor="middle" x="388.5" y="-96.5" font-family="Helvetica,sans-Serif" font-size="10.00">_one_loop.cpp</text>
</a>
</g>
</g>
<!-- Node1&#45;&gt;Node5 -->
<g id="edge4" class="edge">
<title>Node1&#45;&gt;Node5</title>
<path fill="none" stroke="midnightblue" d="M322.57,-171.65C334.41,-161.75 347.28,-150.98 358.49,-141.61"/>
<polygon fill="midnightblue" stroke="midnightblue" points="320.01,-169.24 314.58,-178.34 324.5,-174.6 320.01,-169.24"/>
</g>
<!-- Node3 -->
<g id="node3" class="node">
<title>Node3</title>
<g id="a_node3"><a xlink:href="cbmc__parse__options_8cpp.html" target="_top" xlink:title="CBMC Command Line Option Processing.">
<polygon fill="none" stroke="black" points="0,-6 0,-47 169,-47 169,-6 0,-6"/>
<text text-anchor="start" x="8" y="-35" font-family="Helvetica,sans-Serif" font-size="10.00">/home/runner/work/diffblue</text>
<text text-anchor="start" x="8" y="-24" font-family="Helvetica,sans-Serif" font-size="10.00">&#45;cbmc/diffblue&#45;cbmc/src</text>
<text text-anchor="middle" x="84.5" y="-13" font-family="Helvetica,sans-Serif" font-size="10.00">/cbmc/cbmc_parse_options.cpp</text>
</a>
</g>
</g>
<!-- Node2&#45;&gt;Node3 -->
<g id="edge2" class="edge">
<title>Node2&#45;&gt;Node3</title>
<path fill="none" stroke="midnightblue" d="M145.21,-82.51C132.1,-70.64 117.63,-57.53 106.11,-47.08"/>
<polygon fill="midnightblue" stroke="midnightblue" points="142.97,-85.21 152.73,-89.34 147.67,-80.03 142.97,-85.21"/>
</g>
<!-- Node4 -->
<g id="node4" class="node">
<title>Node4</title>
<g id="a_node4"><a xlink:href="single__loop__incremental__symex__checker_8cpp.html" target="_top" xlink:title="Goto Checker using multi&#45;path symbolic execution with incremental unwinding of a specified loop.">
<polygon fill="none" stroke="black" points="187,-0.5 187,-52.5 368,-52.5 368,-0.5 187,-0.5"/>
<text text-anchor="start" x="195" y="-40.5" font-family="Helvetica,sans-Serif" font-size="10.00">/home/runner/work/diffblue</text>
<text text-anchor="start" x="195" y="-29.5" font-family="Helvetica,sans-Serif" font-size="10.00">&#45;cbmc/diffblue&#45;cbmc/src</text>
<text text-anchor="start" x="195" y="-18.5" font-family="Helvetica,sans-Serif" font-size="10.00">/goto&#45;checker/single_loop</text>
<text text-anchor="middle" x="277.5" y="-7.5" font-family="Helvetica,sans-Serif" font-size="10.00">_incremental_symex_checker.cpp</text>
</a>
</g>
</g>
<!-- Node2&#45;&gt;Node4 -->
<g id="edge3" class="edge">
<title>Node2&#45;&gt;Node4</title>
<path fill="none" stroke="midnightblue" d="M216.01,-82.65C227.05,-72.75 239.06,-61.98 249.51,-52.61"/>
<polygon fill="midnightblue" stroke="midnightblue" points="213.66,-80.05 208.56,-89.34 218.34,-85.26 213.66,-80.05"/>
</g>
</g>
</svg>
