<?xml version="1.0" encoding="UTF-8" standalone="no"?>
<!DOCTYPE svg PUBLIC "-//W3C//DTD SVG 1.1//EN"
 "http://www.w3.org/Graphics/SVG/1.1/DTD/svg11.dtd">
<!-- Generated by graphviz version 2.43.0 (0)
 -->
<!-- Title: /home/runner/work/diffblue&#45;cbmc/diffblue&#45;cbmc/jbmc/src/java_bytecode/synthetic_methods_map.h Pages: 1 -->
<svg width="2287pt" height="417pt"
 viewBox="0.00 0.00 2286.72 417.00" xmlns="http://www.w3.org/2000/svg" xmlns:xlink="http://www.w3.org/1999/xlink">
<g id="graph0" class="graph" transform="scale(1 1) rotate(0) translate(4 413)">
<title>/home/runner/work/diffblue&#45;cbmc/diffblue&#45;cbmc/jbmc/src/java_bytecode/synthetic_methods_map.h</title>
<!-- Node1 -->
<g id="node1" class="node">
<title>Node1</title>
<g id="a_node1"><a xlink:title="Synthetic methods are particular methods internally generated by the Java frontend,...">
<polygon fill="#bfbfbf" stroke="black" points="1374.5,-356.5 1374.5,-408.5 1530.5,-408.5 1530.5,-356.5 1374.5,-356.5"/>
<text text-anchor="start" x="1382.5" y="-396.5" font-family="Helvetica,sans-Serif" font-size="10.00">/home/runner/work/diffblue</text>
<text text-anchor="start" x="1382.5" y="-385.5" font-family="Helvetica,sans-Serif" font-size="10.00">&#45;cbmc/diffblue&#45;cbmc/jbmc</text>
<text text-anchor="start" x="1382.5" y="-374.5" font-family="Helvetica,sans-Serif" font-size="10.00">/src/java_bytecode/synthetic</text>
<text text-anchor="middle" x="1452.5" y="-363.5" font-family="Helvetica,sans-Serif" font-size="10.00">_methods_map.h</text>
</a>
</g>
</g>
<!-- Node2 -->
<g id="node2" class="node">
<title>Node2</title>
<g id="a_node2"><a xlink:href="ci__lazy__methods_8h.html" target="_top" xlink:title="Collect methods needed to be loaded using the lazy method.">
<polygon fill="none" stroke="black" points="751,-267.5 751,-319.5 900,-319.5 900,-267.5 751,-267.5"/>
<text text-anchor="start" x="759" y="-307.5" font-family="Helvetica,sans-Serif" font-size="10.00">/home/runner/work/diffblue</text>
<text text-anchor="start" x="759" y="-296.5" font-family="Helvetica,sans-Serif" font-size="10.00">&#45;cbmc/diffblue&#45;cbmc/jbmc</text>
<text text-anchor="start" x="759" y="-285.5" font-family="Helvetica,sans-Serif" font-size="10.00">/src/java_bytecode/ci_lazy</text>
<text text-anchor="middle" x="825.5" y="-274.5" font-family="Helvetica,sans-Serif" font-size="10.00">_methods.h</text>
</a>
</g>
</g>
<!-- Node1&#45;&gt;Node2 -->
<g id="edge1" class="edge">
<title>Node1&#45;&gt;Node2</title>
<path fill="none" stroke="midnightblue" d="M1364.14,-369.24C1240.07,-352.02 1016.46,-321 900.22,-304.87"/>
<polygon fill="midnightblue" stroke="midnightblue" points="1363.97,-372.75 1374.36,-370.66 1364.93,-365.82 1363.97,-372.75"/>
</g>
<!-- Node6 -->
<g id="node6" class="node">
<title>Node6</title>
<g id="a_node6"><a xlink:href="java__bytecode__language_8h.html" target="_top" xlink:title=" ">
<polygon fill="none" stroke="black" points="734.5,-178.5 734.5,-230.5 916.5,-230.5 916.5,-178.5 734.5,-178.5"/>
<text text-anchor="start" x="742.5" y="-218.5" font-family="Helvetica,sans-Serif" font-size="10.00">/home/runner/work/diffblue</text>
<text text-anchor="start" x="742.5" y="-207.5" font-family="Helvetica,sans-Serif" font-size="10.00">&#45;cbmc/diffblue&#45;cbmc/jbmc</text>
<text text-anchor="start" x="742.5" y="-196.5" font-family="Helvetica,sans-Serif" font-size="10.00">/src/java_bytecode/java_bytecode</text>
<text text-anchor="middle" x="825.5" y="-185.5" font-family="Helvetica,sans-Serif" font-size="10.00">_language.h</text>
</a>
</g>
</g>
<!-- Node1&#45;&gt;Node6 -->
<g id="edge21" class="edge">
<title>Node1&#45;&gt;Node6</title>
<path fill="none" stroke="midnightblue" d="M1364.54,-356.81C1245.55,-323.41 1034.43,-264.15 914.76,-230.56"/>
<polygon fill="midnightblue" stroke="midnightblue" points="1363.78,-360.23 1374.36,-359.57 1365.68,-353.49 1363.78,-360.23"/>
</g>
<!-- Node18 -->
<g id="node18" class="node">
<title>Node18</title>
<g id="a_node18"><a xlink:href="java__static__initializers_8h.html" target="_top" xlink:title=" ">
<polygon fill="none" stroke="black" points="1370.5,-267.5 1370.5,-319.5 1534.5,-319.5 1534.5,-267.5 1370.5,-267.5"/>
<text text-anchor="start" x="1378.5" y="-307.5" font-family="Helvetica,sans-Serif" font-size="10.00">/home/runner/work/diffblue</text>
<text text-anchor="start" x="1378.5" y="-296.5" font-family="Helvetica,sans-Serif" font-size="10.00">&#45;cbmc/diffblue&#45;cbmc/jbmc</text>
<text text-anchor="start" x="1378.5" y="-285.5" font-family="Helvetica,sans-Serif" font-size="10.00">/src/java_bytecode/java_static</text>
<text text-anchor="middle" x="1452.5" y="-274.5" font-family="Helvetica,sans-Serif" font-size="10.00">_initializers.h</text>
</a>
</g>
</g>
<!-- Node1&#45;&gt;Node18 -->
<g id="edge22" class="edge">
<title>Node1&#45;&gt;Node18</title>
<path fill="none" stroke="midnightblue" d="M1452.5,-346.19C1452.5,-337.28 1452.5,-327.9 1452.5,-319.61"/>
<polygon fill="midnightblue" stroke="midnightblue" points="1449,-346.34 1452.5,-356.34 1456,-346.34 1449,-346.34"/>
</g>
<!-- Node24 -->
<g id="node24" class="node">
<title>Node24</title>
<g id="a_node24"><a xlink:href="lambda__synthesis_8cpp.html" target="_top" xlink:title="Java lambda code synthesis.">
<polygon fill="none" stroke="black" points="2109,-178.5 2109,-230.5 2258,-230.5 2258,-178.5 2109,-178.5"/>
<text text-anchor="start" x="2117" y="-218.5" font-family="Helvetica,sans-Serif" font-size="10.00">/home/runner/work/diffblue</text>
<text text-anchor="start" x="2117" y="-207.5" font-family="Helvetica,sans-Serif" font-size="10.00">&#45;cbmc/diffblue&#45;cbmc/jbmc</text>
<text text-anchor="start" x="2117" y="-196.5" font-family="Helvetica,sans-Serif" font-size="10.00">/src/java_bytecode/lambda</text>
<text text-anchor="middle" x="2183.5" y="-185.5" font-family="Helvetica,sans-Serif" font-size="10.00">_synthesis.cpp</text>
</a>
</g>
</g>
<!-- Node1&#45;&gt;Node24 -->
<g id="edge32" class="edge">
<title>Node1&#45;&gt;Node24</title>
<path fill="none" stroke="midnightblue" d="M1540.5,-362.97C1665.4,-336.22 1901.01,-284.15 2099.5,-231 2102.59,-230.17 2105.74,-229.31 2108.92,-228.42"/>
<polygon fill="midnightblue" stroke="midnightblue" points="1539.64,-359.57 1530.6,-365.08 1541.11,-366.41 1539.64,-359.57"/>
</g>
<!-- Node26 -->
<g id="node26" class="node">
<title>Node26</title>
<g id="a_node26"><a xlink:href="lambda__synthesis_8h.html" target="_top" xlink:title="Java lambda code synthesis.">
<polygon fill="none" stroke="black" points="2017,-267.5 2017,-319.5 2166,-319.5 2166,-267.5 2017,-267.5"/>
<text text-anchor="start" x="2025" y="-307.5" font-family="Helvetica,sans-Serif" font-size="10.00">/home/runner/work/diffblue</text>
<text text-anchor="start" x="2025" y="-296.5" font-family="Helvetica,sans-Serif" font-size="10.00">&#45;cbmc/diffblue&#45;cbmc/jbmc</text>
<text text-anchor="start" x="2025" y="-285.5" font-family="Helvetica,sans-Serif" font-size="10.00">/src/java_bytecode/lambda</text>
<text text-anchor="middle" x="2091.5" y="-274.5" font-family="Helvetica,sans-Serif" font-size="10.00">_synthesis.h</text>
</a>
</g>
</g>
<!-- Node1&#45;&gt;Node26 -->
<g id="edge33" class="edge">
<title>Node1&#45;&gt;Node26</title>
<path fill="none" stroke="midnightblue" d="M1540.58,-369.51C1667.15,-352.28 1898.25,-320.81 2016.88,-304.66"/>
<polygon fill="midnightblue" stroke="midnightblue" points="1539.97,-366.06 1530.53,-370.88 1540.92,-372.99 1539.97,-366.06"/>
</g>
<!-- Node3 -->
<g id="node3" class="node">
<title>Node3</title>
<g id="a_node3"><a xlink:href="ci__lazy__methods_8cpp.html" target="_top" xlink:title=" ">
<polygon fill="none" stroke="black" points="0,-89.5 0,-141.5 149,-141.5 149,-89.5 0,-89.5"/>
<text text-anchor="start" x="8" y="-129.5" font-family="Helvetica,sans-Serif" font-size="10.00">/home/runner/work/diffblue</text>
<text text-anchor="start" x="8" y="-118.5" font-family="Helvetica,sans-Serif" font-size="10.00">&#45;cbmc/diffblue&#45;cbmc/jbmc</text>
<text text-anchor="start" x="8" y="-107.5" font-family="Helvetica,sans-Serif" font-size="10.00">/src/java_bytecode/ci_lazy</text>
<text text-anchor="middle" x="74.5" y="-96.5" font-family="Helvetica,sans-Serif" font-size="10.00">_methods.cpp</text>
</a>
</g>
</g>
<!-- Node2&#45;&gt;Node3 -->
<g id="edge2" class="edge">
<title>Node2&#45;&gt;Node3</title>
<path fill="none" stroke="midnightblue" d="M740.72,-276.01C613.28,-250.64 365.12,-198.94 157.5,-142 154.74,-141.24 151.93,-140.46 149.09,-139.65"/>
<polygon fill="midnightblue" stroke="midnightblue" points="740.32,-279.5 750.81,-278.01 741.68,-272.63 740.32,-279.5"/>
</g>
<!-- Node4 -->
<g id="node4" class="node">
<title>Node4</title>
<g id="a_node4"><a xlink:href="java__bytecode__convert__class_8cpp.html" target="_top" xlink:title="JAVA Bytecode Language Conversion.">
<polygon fill="none" stroke="black" points="534.5,-178.5 534.5,-230.5 716.5,-230.5 716.5,-178.5 534.5,-178.5"/>
<text text-anchor="start" x="542.5" y="-218.5" font-family="Helvetica,sans-Serif" font-size="10.00">/home/runner/work/diffblue</text>
<text text-anchor="start" x="542.5" y="-207.5" font-family="Helvetica,sans-Serif" font-size="10.00">&#45;cbmc/diffblue&#45;cbmc/jbmc</text>
<text text-anchor="start" x="542.5" y="-196.5" font-family="Helvetica,sans-Serif" font-size="10.00">/src/java_bytecode/java_bytecode</text>
<text text-anchor="middle" x="625.5" y="-185.5" font-family="Helvetica,sans-Serif" font-size="10.00">_convert_class.cpp</text>
</a>
</g>
</g>
<!-- Node2&#45;&gt;Node4 -->
<g id="edge3" class="edge">
<title>Node2&#45;&gt;Node4</title>
<path fill="none" stroke="midnightblue" d="M758.69,-263.44C734.17,-252.77 706.65,-240.8 683.02,-230.52"/>
<polygon fill="midnightblue" stroke="midnightblue" points="757.35,-266.67 767.92,-267.45 760.15,-260.25 757.35,-266.67"/>
</g>
<!-- Node5 -->
<g id="node5" class="node">
<title>Node5</title>
<g id="a_node5"><a xlink:href="java__bytecode__language_8cpp.html" target="_top" xlink:title=" ">
<polygon fill="none" stroke="black" points="1482.5,-89.5 1482.5,-141.5 1664.5,-141.5 1664.5,-89.5 1482.5,-89.5"/>
<text text-anchor="start" x="1490.5" y="-129.5" font-family="Helvetica,sans-Serif" font-size="10.00">/home/runner/work/diffblue</text>
<text text-anchor="start" x="1490.5" y="-118.5" font-family="Helvetica,sans-Serif" font-size="10.00">&#45;cbmc/diffblue&#45;cbmc/jbmc</text>
<text text-anchor="start" x="1490.5" y="-107.5" font-family="Helvetica,sans-Serif" font-size="10.00">/src/java_bytecode/java_bytecode</text>
<text text-anchor="middle" x="1573.5" y="-96.5" font-family="Helvetica,sans-Serif" font-size="10.00">_language.cpp</text>
</a>
</g>
</g>
<!-- Node2&#45;&gt;Node5 -->
<g id="edge4" class="edge">
<title>Node2&#45;&gt;Node5</title>
<path fill="none" stroke="midnightblue" d="M878.75,-261.98C894.17,-252.55 910.81,-241.79 925.5,-231 954.45,-209.74 953.34,-191.81 986.5,-178 1086.68,-136.29 1366.4,-159.47 1473.5,-142 1476.42,-141.52 1479.37,-141 1482.35,-140.45"/>
<polygon fill="midnightblue" stroke="midnightblue" points="876.58,-259.2 869.83,-267.37 880.2,-265.19 876.58,-259.2"/>
</g>
<!-- Node2&#45;&gt;Node6 -->
<g id="edge5" class="edge">
<title>Node2&#45;&gt;Node6</title>
<path fill="none" stroke="midnightblue" d="M825.5,-257.19C825.5,-248.28 825.5,-238.9 825.5,-230.61"/>
<polygon fill="midnightblue" stroke="midnightblue" points="822,-257.34 825.5,-267.34 829,-257.34 822,-257.34"/>
</g>
<!-- Node6&#45;&gt;Node3 -->
<g id="edge10" class="edge">
<title>Node6&#45;&gt;Node3</title>
<path fill="none" stroke="midnightblue" d="M724.23,-177.94C473.78,-139.85 403.05,-186.86 157.5,-142 154.83,-141.51 152.13,-140.97 149.41,-140.38"/>
<polygon fill="midnightblue" stroke="midnightblue" points="723.94,-181.44 734.36,-179.51 725.02,-174.52 723.94,-181.44"/>
</g>
<!-- Node6&#45;&gt;Node5 -->
<g id="edge11" class="edge">
<title>Node6&#45;&gt;Node5</title>
<path fill="none" stroke="midnightblue" d="M926.65,-178.61C927.94,-178.4 929.22,-178.2 930.5,-178 1169.57,-141.32 1234.65,-180.04 1473.5,-142 1476.42,-141.54 1479.38,-141.02 1482.36,-140.47"/>
<polygon fill="midnightblue" stroke="midnightblue" points="925.9,-175.19 916.65,-180.37 927.11,-182.08 925.9,-175.19"/>
</g>
<!-- Node7 -->
<g id="node7" class="node">
<title>Node7</title>
<g id="a_node7"><a xlink:href="janalyzer__parse__options_8cpp.html" target="_top" xlink:title="JANALYZER Command Line Option Processing.">
<polygon fill="none" stroke="black" points="1198,-0.5 1198,-52.5 1347,-52.5 1347,-0.5 1198,-0.5"/>
<text text-anchor="start" x="1206" y="-40.5" font-family="Helvetica,sans-Serif" font-size="10.00">/home/runner/work/diffblue</text>
<text text-anchor="start" x="1206" y="-29.5" font-family="Helvetica,sans-Serif" font-size="10.00">&#45;cbmc/diffblue&#45;cbmc/jbmc</text>
<text text-anchor="start" x="1206" y="-18.5" font-family="Helvetica,sans-Serif" font-size="10.00">/src/janalyzer/janalyzer</text>
<text text-anchor="middle" x="1272.5" y="-7.5" font-family="Helvetica,sans-Serif" font-size="10.00">_parse_options.cpp</text>
</a>
</g>
</g>
<!-- Node6&#45;&gt;Node7 -->
<g id="edge6" class="edge">
<title>Node6&#45;&gt;Node7</title>
<path fill="none" stroke="midnightblue" d="M926.66,-178.69C927.95,-178.46 929.23,-178.22 930.5,-178 1001.84,-165.43 1202.13,-192.05 1254.5,-142 1278.21,-119.34 1279.03,-79.12 1276.49,-52.88"/>
<polygon fill="midnightblue" stroke="midnightblue" points="925.85,-175.28 916.7,-180.61 927.18,-182.16 925.85,-175.28"/>
</g>
<!-- Node8 -->
<g id="node8" class="node">
<title>Node8</title>
<g id="a_node8"><a xlink:href="janalyzer__parse__options_8h.html" target="_top" xlink:title="JANALYZER Command Line Option Processing.">
<polygon fill="none" stroke="black" points="1096,-89.5 1096,-141.5 1245,-141.5 1245,-89.5 1096,-89.5"/>
<text text-anchor="start" x="1104" y="-129.5" font-family="Helvetica,sans-Serif" font-size="10.00">/home/runner/work/diffblue</text>
<text text-anchor="start" x="1104" y="-118.5" font-family="Helvetica,sans-Serif" font-size="10.00">&#45;cbmc/diffblue&#45;cbmc/jbmc</text>
<text text-anchor="start" x="1104" y="-107.5" font-family="Helvetica,sans-Serif" font-size="10.00">/src/janalyzer/janalyzer</text>
<text text-anchor="middle" x="1170.5" y="-96.5" font-family="Helvetica,sans-Serif" font-size="10.00">_parse_options.h</text>
</a>
</g>
</g>
<!-- Node6&#45;&gt;Node8 -->
<g id="edge7" class="edge">
<title>Node6&#45;&gt;Node8</title>
<path fill="none" stroke="midnightblue" d="M926.62,-178.92C927.92,-178.61 929.22,-178.3 930.5,-178 1000.17,-161.55 1018.35,-160.52 1087.5,-142 1090.27,-141.26 1093.08,-140.49 1095.92,-139.69"/>
<polygon fill="midnightblue" stroke="midnightblue" points="925.46,-175.6 916.54,-181.31 927.08,-182.41 925.46,-175.6"/>
</g>
<!-- Node10 -->
<g id="node10" class="node">
<title>Node10</title>
<g id="a_node10"><a xlink:href="java__entry__point_8cpp.html" target="_top" xlink:title=" ">
<polygon fill="none" stroke="black" points="1301,-89.5 1301,-141.5 1464,-141.5 1464,-89.5 1301,-89.5"/>
<text text-anchor="start" x="1309" y="-129.5" font-family="Helvetica,sans-Serif" font-size="10.00">/home/runner/work/diffblue</text>
<text text-anchor="start" x="1309" y="-118.5" font-family="Helvetica,sans-Serif" font-size="10.00">&#45;cbmc/diffblue&#45;cbmc/jbmc</text>
<text text-anchor="start" x="1309" y="-107.5" font-family="Helvetica,sans-Serif" font-size="10.00">/src/java_bytecode/java_entry</text>
<text text-anchor="middle" x="1382.5" y="-96.5" font-family="Helvetica,sans-Serif" font-size="10.00">_point.cpp</text>
</a>
</g>
</g>
<!-- Node6&#45;&gt;Node10 -->
<g id="edge12" class="edge">
<title>Node6&#45;&gt;Node10</title>
<path fill="none" stroke="midnightblue" d="M926.66,-178.67C927.94,-178.44 929.23,-178.22 930.5,-178 1087.25,-151.17 1130.05,-170.5 1286.5,-142 1291.25,-141.13 1296.11,-140.15 1301,-139.09"/>
<polygon fill="midnightblue" stroke="midnightblue" points="925.86,-175.26 916.69,-180.56 927.16,-182.14 925.86,-175.26"/>
</g>
<!-- Node11 -->
<g id="node11" class="node">
<title>Node11</title>
<g id="a_node11"><a xlink:href="lazy__goto__model_8cpp.html" target="_top" xlink:title="Author: Diffblue Ltd.">
<polygon fill="none" stroke="black" points="166.5,-89.5 166.5,-141.5 324.5,-141.5 324.5,-89.5 166.5,-89.5"/>
<text text-anchor="start" x="174.5" y="-129.5" font-family="Helvetica,sans-Serif" font-size="10.00">/home/runner/work/diffblue</text>
<text text-anchor="start" x="174.5" y="-118.5" font-family="Helvetica,sans-Serif" font-size="10.00">&#45;cbmc/diffblue&#45;cbmc/jbmc</text>
<text text-anchor="start" x="174.5" y="-107.5" font-family="Helvetica,sans-Serif" font-size="10.00">/src/java_bytecode/lazy_goto</text>
<text text-anchor="middle" x="245.5" y="-96.5" font-family="Helvetica,sans-Serif" font-size="10.00">_model.cpp</text>
</a>
</g>
</g>
<!-- Node6&#45;&gt;Node11 -->
<g id="edge13" class="edge">
<title>Node6&#45;&gt;Node11</title>
<path fill="none" stroke="midnightblue" d="M724.39,-177.94C551.27,-149.24 502.22,-173.89 333.5,-142 330.69,-141.47 327.83,-140.89 324.96,-140.26"/>
<polygon fill="midnightblue" stroke="midnightblue" points="723.9,-181.4 734.34,-179.62 725.07,-174.5 723.9,-181.4"/>
</g>
<!-- Node12 -->
<g id="node12" class="node">
<title>Node12</title>
<g id="a_node12"><a xlink:href="jbmc__parse__options_8cpp.html" target="_top" xlink:title="JBMC Command Line Option Processing.">
<polygon fill="none" stroke="black" points="449.5,-6 449.5,-47 631.5,-47 631.5,-6 449.5,-6"/>
<text text-anchor="start" x="457.5" y="-35" font-family="Helvetica,sans-Serif" font-size="10.00">/home/runner/work/diffblue</text>
<text text-anchor="start" x="457.5" y="-24" font-family="Helvetica,sans-Serif" font-size="10.00">&#45;cbmc/diffblue&#45;cbmc/jbmc</text>
<text text-anchor="middle" x="540.5" y="-13" font-family="Helvetica,sans-Serif" font-size="10.00">/src/jbmc/jbmc_parse_options.cpp</text>
</a>
</g>
</g>
<!-- Node6&#45;&gt;Node12 -->
<g id="edge14" class="edge">
<title>Node6&#45;&gt;Node12</title>
<path fill="none" stroke="midnightblue" d="M724.34,-177.97C648.68,-163.47 609.42,-194.43 559.5,-142 535.32,-116.61 535.23,-72.84 537.66,-47.4"/>
<polygon fill="midnightblue" stroke="midnightblue" points="723.74,-181.42 734.25,-180.09 725.2,-174.57 723.74,-181.42"/>
</g>
<!-- Node13 -->
<g id="node13" class="node">
<title>Node13</title>
<g id="a_node13"><a xlink:href="jbmc__parse__options_8h.html" target="_top" xlink:title="JBMC Command Line Option Processing.">
<polygon fill="none" stroke="black" points="342.5,-95 342.5,-136 512.5,-136 512.5,-95 342.5,-95"/>
<text text-anchor="start" x="350.5" y="-124" font-family="Helvetica,sans-Serif" font-size="10.00">/home/runner/work/diffblue</text>
<text text-anchor="start" x="350.5" y="-113" font-family="Helvetica,sans-Serif" font-size="10.00">&#45;cbmc/diffblue&#45;cbmc/jbmc</text>
<text text-anchor="middle" x="427.5" y="-102" font-family="Helvetica,sans-Serif" font-size="10.00">/src/jbmc/jbmc_parse_options.h</text>
</a>
</g>
</g>
<!-- Node6&#45;&gt;Node13 -->
<g id="edge15" class="edge">
<title>Node6&#45;&gt;Node13</title>
<path fill="none" stroke="midnightblue" d="M724.35,-177.82C635.95,-159.02 611.21,-160.55 526.5,-142 518.18,-140.18 509.5,-138.14 500.88,-136.04"/>
<polygon fill="midnightblue" stroke="midnightblue" points="723.76,-181.27 734.28,-179.96 725.24,-174.43 723.76,-181.27"/>
</g>
<!-- Node15 -->
<g id="node15" class="node">
<title>Node15</title>
<g id="a_node15"><a xlink:href="jdiff__languages_8cpp.html" target="_top" xlink:title="Language Registration.">
<polygon fill="none" stroke="black" points="569,-95 569,-136 722,-136 722,-95 569,-95"/>
<text text-anchor="start" x="577" y="-124" font-family="Helvetica,sans-Serif" font-size="10.00">/home/runner/work/diffblue</text>
<text text-anchor="start" x="577" y="-113" font-family="Helvetica,sans-Serif" font-size="10.00">&#45;cbmc/diffblue&#45;cbmc/jbmc</text>
<text text-anchor="middle" x="645.5" y="-102" font-family="Helvetica,sans-Serif" font-size="10.00">/src/jdiff/jdiff_languages.cpp</text>
</a>
</g>
</g>
<!-- Node6&#45;&gt;Node15 -->
<g id="edge18" class="edge">
<title>Node6&#45;&gt;Node15</title>
<path fill="none" stroke="midnightblue" d="M764.11,-173.83C738.32,-161.36 709.03,-147.21 686.01,-136.08"/>
<polygon fill="midnightblue" stroke="midnightblue" points="762.91,-177.14 773.44,-178.34 765.96,-170.83 762.91,-177.14"/>
</g>
<!-- Node16 -->
<g id="node16" class="node">
<title>Node16</title>
<g id="a_node16"><a xlink:href="jdiff__parse__options_8cpp.html" target="_top" xlink:title="JDIFF Command Line Option Processing.">
<polygon fill="none" stroke="black" points="740,-95 740,-136 911,-136 911,-95 740,-95"/>
<text text-anchor="start" x="748" y="-124" font-family="Helvetica,sans-Serif" font-size="10.00">/home/runner/work/diffblue</text>
<text text-anchor="start" x="748" y="-113" font-family="Helvetica,sans-Serif" font-size="10.00">&#45;cbmc/diffblue&#45;cbmc/jbmc</text>
<text text-anchor="middle" x="825.5" y="-102" font-family="Helvetica,sans-Serif" font-size="10.00">/src/jdiff/jdiff_parse_options.cpp</text>
</a>
</g>
</g>
<!-- Node6&#45;&gt;Node16 -->
<g id="edge19" class="edge">
<title>Node6&#45;&gt;Node16</title>
<path fill="none" stroke="midnightblue" d="M825.5,-168.16C825.5,-157.21 825.5,-145.55 825.5,-136.08"/>
<polygon fill="midnightblue" stroke="midnightblue" points="822,-168.34 825.5,-178.34 829,-168.34 822,-168.34"/>
</g>
<!-- Node17 -->
<g id="node17" class="node">
<title>Node17</title>
<g id="a_node17"><a xlink:href="load__java__class_8cpp.html" target="_top" xlink:title=" ">
<polygon fill="none" stroke="black" points="929,-89.5 929,-141.5 1078,-141.5 1078,-89.5 929,-89.5"/>
<text text-anchor="start" x="937" y="-129.5" font-family="Helvetica,sans-Serif" font-size="10.00">/home/runner/work/diffblue</text>
<text text-anchor="start" x="937" y="-118.5" font-family="Helvetica,sans-Serif" font-size="10.00">&#45;cbmc/diffblue&#45;cbmc/jbmc</text>
<text text-anchor="start" x="937" y="-107.5" font-family="Helvetica,sans-Serif" font-size="10.00">/unit/java&#45;testing&#45;utils</text>
<text text-anchor="middle" x="1003.5" y="-96.5" font-family="Helvetica,sans-Serif" font-size="10.00">/load_java_class.cpp</text>
</a>
</g>
</g>
<!-- Node6&#45;&gt;Node17 -->
<g id="edge20" class="edge">
<title>Node6&#45;&gt;Node17</title>
<path fill="none" stroke="midnightblue" d="M886.03,-173.92C907.52,-163.41 931.48,-151.7 952.13,-141.61"/>
<polygon fill="midnightblue" stroke="midnightblue" points="884.43,-170.8 876.98,-178.34 887.51,-177.09 884.43,-170.8"/>
</g>
<!-- Node8&#45;&gt;Node7 -->
<g id="edge9" class="edge">
<title>Node8&#45;&gt;Node7</title>
<path fill="none" stroke="midnightblue" d="M1207.84,-82.65C1219.45,-72.75 1232.08,-61.98 1243.06,-52.61"/>
<polygon fill="midnightblue" stroke="midnightblue" points="1205.34,-80.18 1200,-89.34 1209.88,-85.51 1205.34,-80.18"/>
</g>
<!-- Node9 -->
<g id="node9" class="node">
<title>Node9</title>
<g id="a_node9"><a xlink:href="janalyzer__main_8cpp.html" target="_top" xlink:title="JANALYZER Main Module.">
<polygon fill="none" stroke="black" points="1031,-0.5 1031,-52.5 1180,-52.5 1180,-0.5 1031,-0.5"/>
<text text-anchor="start" x="1039" y="-40.5" font-family="Helvetica,sans-Serif" font-size="10.00">/home/runner/work/diffblue</text>
<text text-anchor="start" x="1039" y="-29.5" font-family="Helvetica,sans-Serif" font-size="10.00">&#45;cbmc/diffblue&#45;cbmc/jbmc</text>
<text text-anchor="start" x="1039" y="-18.5" font-family="Helvetica,sans-Serif" font-size="10.00">/src/janalyzer/janalyzer</text>
<text text-anchor="middle" x="1105.5" y="-7.5" font-family="Helvetica,sans-Serif" font-size="10.00">_main.cpp</text>
</a>
</g>
</g>
<!-- Node8&#45;&gt;Node9 -->
<g id="edge8" class="edge">
<title>Node8&#45;&gt;Node9</title>
<path fill="none" stroke="midnightblue" d="M1145.63,-81.22C1138.54,-71.72 1130.92,-61.53 1124.26,-52.61"/>
<polygon fill="midnightblue" stroke="midnightblue" points="1142.91,-83.42 1151.7,-89.34 1148.52,-79.23 1142.91,-83.42"/>
</g>
<!-- Node13&#45;&gt;Node12 -->
<g id="edge17" class="edge">
<title>Node13&#45;&gt;Node12</title>
<path fill="none" stroke="midnightblue" d="M461,-88.71C478.23,-75.44 498.89,-59.53 514.83,-47.26"/>
<polygon fill="midnightblue" stroke="midnightblue" points="458.65,-86.1 452.86,-94.98 462.92,-91.65 458.65,-86.1"/>
</g>
<!-- Node14 -->
<g id="node14" class="node">
<title>Node14</title>
<g id="a_node14"><a xlink:href="jbmc__main_8cpp.html" target="_top" xlink:title="CBMC Main Module.">
<polygon fill="none" stroke="black" points="282,-6 282,-47 431,-47 431,-6 282,-6"/>
<text text-anchor="start" x="290" y="-35" font-family="Helvetica,sans-Serif" font-size="10.00">/home/runner/work/diffblue</text>
<text text-anchor="start" x="290" y="-24" font-family="Helvetica,sans-Serif" font-size="10.00">&#45;cbmc/diffblue&#45;cbmc/jbmc</text>
<text text-anchor="middle" x="356.5" y="-13" font-family="Helvetica,sans-Serif" font-size="10.00">/src/jbmc/jbmc_main.cpp</text>
</a>
</g>
</g>
<!-- Node13&#45;&gt;Node14 -->
<g id="edge16" class="edge">
<title>Node13&#45;&gt;Node14</title>
<path fill="none" stroke="midnightblue" d="M404.78,-86.67C394.29,-73.8 382.07,-58.83 372.55,-47.16"/>
<polygon fill="midnightblue" stroke="midnightblue" points="402.35,-89.22 411.39,-94.76 407.78,-84.8 402.35,-89.22"/>
</g>
<!-- Node18&#45;&gt;Node5 -->
<g id="edge26" class="edge">
<title>Node18&#45;&gt;Node5</title>
<path fill="none" stroke="midnightblue" d="M1360.07,-286.29C1235.25,-276.95 1025.63,-257.51 1002.5,-231 987.01,-213.25 986.49,-195.28 1002.5,-178 1038.17,-139.5 1421.71,-150.52 1473.5,-142 1476.42,-141.52 1479.37,-141 1482.35,-140.44"/>
<polygon fill="midnightblue" stroke="midnightblue" points="1360.16,-289.81 1370.39,-287.05 1360.68,-282.83 1360.16,-289.81"/>
</g>
<!-- Node18&#45;&gt;Node6 -->
<g id="edge27" class="edge">
<title>Node18&#45;&gt;Node6</title>
<path fill="none" stroke="midnightblue" d="M1359.99,-282.14C1262.44,-270.89 1104.37,-251.73 968.5,-231 951.67,-228.43 933.78,-225.45 916.55,-222.44"/>
<polygon fill="midnightblue" stroke="midnightblue" points="1359.78,-285.64 1370.11,-283.3 1360.58,-278.68 1359.78,-285.64"/>
</g>
<!-- Node19 -->
<g id="node19" class="node">
<title>Node19</title>
<g id="a_node19"><a xlink:href="assignments__from__json_8cpp.html" target="_top" xlink:title=" ">
<polygon fill="none" stroke="black" points="1011,-178.5 1011,-230.5 1184,-230.5 1184,-178.5 1011,-178.5"/>
<text text-anchor="start" x="1019" y="-218.5" font-family="Helvetica,sans-Serif" font-size="10.00">/home/runner/work/diffblue</text>
<text text-anchor="start" x="1019" y="-207.5" font-family="Helvetica,sans-Serif" font-size="10.00">&#45;cbmc/diffblue&#45;cbmc/jbmc</text>
<text text-anchor="start" x="1019" y="-196.5" font-family="Helvetica,sans-Serif" font-size="10.00">/src/java_bytecode/assignments</text>
<text text-anchor="middle" x="1097.5" y="-185.5" font-family="Helvetica,sans-Serif" font-size="10.00">_from_json.cpp</text>
</a>
</g>
</g>
<!-- Node18&#45;&gt;Node19 -->
<g id="edge23" class="edge">
<title>Node18&#45;&gt;Node19</title>
<path fill="none" stroke="midnightblue" d="M1360.68,-271.32C1311.09,-259.73 1248.86,-244.92 1193.5,-231 1190.41,-230.22 1187.26,-229.42 1184.08,-228.61"/>
<polygon fill="midnightblue" stroke="midnightblue" points="1359.89,-274.73 1370.42,-273.6 1361.48,-267.91 1359.89,-274.73"/>
</g>
<!-- Node20 -->
<g id="node20" class="node">
<title>Node20</title>
<g id="a_node20"><a xlink:href="ci__lazy__methods__needed_8cpp.html" target="_top" xlink:title="Context&#45;insensitive lazy methods container.">
<polygon fill="none" stroke="black" points="1202,-178.5 1202,-230.5 1351,-230.5 1351,-178.5 1202,-178.5"/>
<text text-anchor="start" x="1210" y="-218.5" font-family="Helvetica,sans-Serif" font-size="10.00">/home/runner/work/diffblue</text>
<text text-anchor="start" x="1210" y="-207.5" font-family="Helvetica,sans-Serif" font-size="10.00">&#45;cbmc/diffblue&#45;cbmc/jbmc</text>
<text text-anchor="start" x="1210" y="-196.5" font-family="Helvetica,sans-Serif" font-size="10.00">/src/java_bytecode/ci_lazy</text>
<text text-anchor="middle" x="1276.5" y="-185.5" font-family="Helvetica,sans-Serif" font-size="10.00">_methods_needed.cpp</text>
</a>
</g>
</g>
<!-- Node18&#45;&gt;Node20 -->
<g id="edge24" class="edge">
<title>Node18&#45;&gt;Node20</title>
<path fill="none" stroke="midnightblue" d="M1392.37,-262.78C1371.19,-252.31 1347.62,-240.66 1327.29,-230.61"/>
<polygon fill="midnightblue" stroke="midnightblue" points="1391.08,-266.04 1401.59,-267.34 1394.18,-259.77 1391.08,-266.04"/>
</g>
<!-- Node21 -->
<g id="node21" class="node">
<title>Node21</title>
<g id="a_node21"><a xlink:href="java__bytecode__convert__method_8cpp.html" target="_top" xlink:title="JAVA Bytecode Language Conversion.">
<polygon fill="none" stroke="black" points="1908.5,-178.5 1908.5,-230.5 2090.5,-230.5 2090.5,-178.5 1908.5,-178.5"/>
<text text-anchor="start" x="1916.5" y="-218.5" font-family="Helvetica,sans-Serif" font-size="10.00">/home/runner/work/diffblue</text>
<text text-anchor="start" x="1916.5" y="-207.5" font-family="Helvetica,sans-Serif" font-size="10.00">&#45;cbmc/diffblue&#45;cbmc/jbmc</text>
<text text-anchor="start" x="1916.5" y="-196.5" font-family="Helvetica,sans-Serif" font-size="10.00">/src/java_bytecode/java_bytecode</text>
<text text-anchor="middle" x="1999.5" y="-185.5" font-family="Helvetica,sans-Serif" font-size="10.00">_convert_method.cpp</text>
</a>
</g>
</g>
<!-- Node18&#45;&gt;Node21 -->
<g id="edge25" class="edge">
<title>Node18&#45;&gt;Node21</title>
<path fill="none" stroke="midnightblue" d="M1544.51,-282.92C1635.23,-272.75 1777.61,-254.85 1899.5,-231 1902.4,-230.43 1905.34,-229.83 1908.31,-229.21"/>
<polygon fill="midnightblue" stroke="midnightblue" points="1544.08,-279.44 1534.53,-284.03 1544.85,-286.4 1544.08,-279.44"/>
</g>
<!-- Node22 -->
<g id="node22" class="node">
<title>Node22</title>
<g id="a_node22"><a xlink:href="java__object__factory_8cpp.html" target="_top" xlink:title=" ">
<polygon fill="none" stroke="black" points="1369,-178.5 1369,-230.5 1536,-230.5 1536,-178.5 1369,-178.5"/>
<text text-anchor="start" x="1377" y="-218.5" font-family="Helvetica,sans-Serif" font-size="10.00">/home/runner/work/diffblue</text>
<text text-anchor="start" x="1377" y="-207.5" font-family="Helvetica,sans-Serif" font-size="10.00">&#45;cbmc/diffblue&#45;cbmc/jbmc</text>
<text text-anchor="start" x="1377" y="-196.5" font-family="Helvetica,sans-Serif" font-size="10.00">/src/java_bytecode/java_object</text>
<text text-anchor="middle" x="1452.5" y="-185.5" font-family="Helvetica,sans-Serif" font-size="10.00">_factory.cpp</text>
</a>
</g>
</g>
<!-- Node18&#45;&gt;Node22 -->
<g id="edge28" class="edge">
<title>Node18&#45;&gt;Node22</title>
<path fill="none" stroke="midnightblue" d="M1452.5,-257.19C1452.5,-248.28 1452.5,-238.9 1452.5,-230.61"/>
<polygon fill="midnightblue" stroke="midnightblue" points="1449,-257.34 1452.5,-267.34 1456,-257.34 1449,-257.34"/>
</g>
<!-- Node23 -->
<g id="node23" class="node">
<title>Node23</title>
<g id="a_node23"><a xlink:href="java__static__initializers_8cpp.html" target="_top" xlink:title=" ">
<polygon fill="none" stroke="black" points="1554.5,-178.5 1554.5,-230.5 1718.5,-230.5 1718.5,-178.5 1554.5,-178.5"/>
<text text-anchor="start" x="1562.5" y="-218.5" font-family="Helvetica,sans-Serif" font-size="10.00">/home/runner/work/diffblue</text>
<text text-anchor="start" x="1562.5" y="-207.5" font-family="Helvetica,sans-Serif" font-size="10.00">&#45;cbmc/diffblue&#45;cbmc/jbmc</text>
<text text-anchor="start" x="1562.5" y="-196.5" font-family="Helvetica,sans-Serif" font-size="10.00">/src/java_bytecode/java_static</text>
<text text-anchor="middle" x="1636.5" y="-185.5" font-family="Helvetica,sans-Serif" font-size="10.00">_initializers.cpp</text>
</a>
</g>
</g>
<!-- Node18&#45;&gt;Node23 -->
<g id="edge29" class="edge">
<title>Node18&#45;&gt;Node23</title>
<path fill="none" stroke="midnightblue" d="M1514.77,-263.06C1537.06,-252.52 1561.96,-240.75 1583.4,-230.61"/>
<polygon fill="midnightblue" stroke="midnightblue" points="1513.26,-259.9 1505.72,-267.34 1516.26,-266.23 1513.26,-259.9"/>
</g>
<!-- Node18&#45;&gt;Node24 -->
<g id="edge30" class="edge">
<title>Node18&#45;&gt;Node24</title>
<path fill="none" stroke="midnightblue" d="M1544.83,-286.01C1697.45,-274.9 1995.82,-251.45 2099.5,-231 2102.49,-230.41 2105.53,-229.76 2108.58,-229.05"/>
<polygon fill="midnightblue" stroke="midnightblue" points="1544.26,-282.54 1534.54,-286.76 1544.77,-289.53 1544.26,-282.54"/>
</g>
<!-- Node25 -->
<g id="node25" class="node">
<title>Node25</title>
<g id="a_node25"><a xlink:href="lift__clinit__calls_8cpp.html" target="_top" xlink:title=" ">
<polygon fill="none" stroke="black" points="1737,-178.5 1737,-230.5 1890,-230.5 1890,-178.5 1737,-178.5"/>
<text text-anchor="start" x="1745" y="-218.5" font-family="Helvetica,sans-Serif" font-size="10.00">/home/runner/work/diffblue</text>
<text text-anchor="start" x="1745" y="-207.5" font-family="Helvetica,sans-Serif" font-size="10.00">&#45;cbmc/diffblue&#45;cbmc/jbmc</text>
<text text-anchor="start" x="1745" y="-196.5" font-family="Helvetica,sans-Serif" font-size="10.00">/src/java_bytecode/lift_clinit</text>
<text text-anchor="middle" x="1813.5" y="-185.5" font-family="Helvetica,sans-Serif" font-size="10.00">_calls.cpp</text>
</a>
</g>
</g>
<!-- Node18&#45;&gt;Node25 -->
<g id="edge31" class="edge">
<title>Node18&#45;&gt;Node25</title>
<path fill="none" stroke="midnightblue" d="M1544.5,-273.57C1598.11,-262.13 1666.88,-246.75 1727.5,-231 1730.51,-230.22 1733.58,-229.4 1736.68,-228.56"/>
<polygon fill="midnightblue" stroke="midnightblue" points="1543.73,-270.15 1534.68,-275.66 1545.19,-277 1543.73,-270.15"/>
</g>
<!-- Node26&#45;&gt;Node5 -->
<g id="edge35" class="edge">
<title>Node26&#45;&gt;Node5</title>
<path fill="none" stroke="midnightblue" d="M2176.46,-283.96C2210.53,-275.89 2246.61,-260.43 2267.5,-231 2281.14,-211.79 2283.4,-195.38 2267.5,-178 2227.58,-134.39 1843.9,-121.52 1664.77,-117.87"/>
<polygon fill="midnightblue" stroke="midnightblue" points="2175.47,-280.6 2166.44,-286.15 2176.96,-287.44 2175.47,-280.6"/>
</g>
<!-- Node26&#45;&gt;Node21 -->
<g id="edge34" class="edge">
<title>Node26&#45;&gt;Node21</title>
<path fill="none" stroke="midnightblue" d="M2057.52,-260.36C2047.13,-250.54 2035.87,-239.89 2026.05,-230.61"/>
<polygon fill="midnightblue" stroke="midnightblue" points="2055.22,-263.01 2064.89,-267.34 2060.03,-257.92 2055.22,-263.01"/>
</g>
<!-- Node26&#45;&gt;Node24 -->
<g id="edge36" class="edge">
<title>Node26&#45;&gt;Node24</title>
<path fill="none" stroke="midnightblue" d="M2125.48,-260.36C2135.87,-250.54 2147.13,-239.89 2156.95,-230.61"/>
<polygon fill="midnightblue" stroke="midnightblue" points="2122.97,-257.92 2118.11,-267.34 2127.78,-263.01 2122.97,-257.92"/>
</g>
</g>
</svg>
