<?xml version="1.0" encoding="UTF-8" standalone="no"?>
<!DOCTYPE svg PUBLIC "-//W3C//DTD SVG 1.1//EN"
 "http://www.w3.org/Graphics/SVG/1.1/DTD/svg11.dtd">
<!-- Generated by graphviz version 2.43.0 (0)
 -->
<!-- Title: /home/runner/work/diffblue&#45;cbmc/diffblue&#45;cbmc/src/util/tempfile.h Pages: 1 -->
<svg width="1710pt" height="139pt"
 viewBox="0.00 0.00 1710.00 139.00" xmlns="http://www.w3.org/2000/svg" xmlns:xlink="http://www.w3.org/1999/xlink">
<g id="graph0" class="graph" transform="scale(1 1) rotate(0) translate(4 135)">
<title>/home/runner/work/diffblue&#45;cbmc/diffblue&#45;cbmc/src/util/tempfile.h</title>
<!-- Node1 -->
<g id="node1" class="node">
<title>Node1</title>
<g id="a_node1"><a xlink:title=" ">
<polygon fill="#bfbfbf" stroke="black" points="783,-89.5 783,-130.5 932,-130.5 932,-89.5 783,-89.5"/>
<text text-anchor="start" x="791" y="-118.5" font-family="Helvetica,sans-Serif" font-size="10.00">/home/runner/work/diffblue</text>
<text text-anchor="start" x="791" y="-107.5" font-family="Helvetica,sans-Serif" font-size="10.00">&#45;cbmc/diffblue&#45;cbmc/src</text>
<text text-anchor="middle" x="857.5" y="-96.5" font-family="Helvetica,sans-Serif" font-size="10.00">/util/tempfile.h</text>
</a>
</g>
</g>
<!-- Node2 -->
<g id="node2" class="node">
<title>Node2</title>
<g id="a_node2"><a xlink:href="c__preprocess_8cpp.html" target="_top" xlink:title=" ">
<polygon fill="none" stroke="black" points="0,-6 0,-47 149,-47 149,-6 0,-6"/>
<text text-anchor="start" x="8" y="-35" font-family="Helvetica,sans-Serif" font-size="10.00">/home/runner/work/diffblue</text>
<text text-anchor="start" x="8" y="-24" font-family="Helvetica,sans-Serif" font-size="10.00">&#45;cbmc/diffblue&#45;cbmc/src</text>
<text text-anchor="middle" x="74.5" y="-13" font-family="Helvetica,sans-Serif" font-size="10.00">/ansi&#45;c/c_preprocess.cpp</text>
</a>
</g>
</g>
<!-- Node1&#45;&gt;Node2 -->
<g id="edge1" class="edge">
<title>Node1&#45;&gt;Node2</title>
<path fill="none" stroke="midnightblue" d="M772.89,-108.16C640.48,-105.53 376.76,-94.93 157.5,-53 149.36,-51.44 140.88,-49.38 132.59,-47.09"/>
<polygon fill="midnightblue" stroke="midnightblue" points="772.9,-111.66 782.96,-108.35 773.03,-104.67 772.9,-111.66"/>
</g>
<!-- Node3 -->
<g id="node3" class="node">
<title>Node3</title>
<g id="a_node3"><a xlink:href="gcc__version_8cpp.html" target="_top" xlink:title=" ">
<polygon fill="none" stroke="black" points="167,-6 167,-47 316,-47 316,-6 167,-6"/>
<text text-anchor="start" x="175" y="-35" font-family="Helvetica,sans-Serif" font-size="10.00">/home/runner/work/diffblue</text>
<text text-anchor="start" x="175" y="-24" font-family="Helvetica,sans-Serif" font-size="10.00">&#45;cbmc/diffblue&#45;cbmc/src</text>
<text text-anchor="middle" x="241.5" y="-13" font-family="Helvetica,sans-Serif" font-size="10.00">/ansi&#45;c/gcc_version.cpp</text>
</a>
</g>
</g>
<!-- Node1&#45;&gt;Node3 -->
<g id="edge2" class="edge">
<title>Node1&#45;&gt;Node3</title>
<path fill="none" stroke="midnightblue" d="M772.67,-105.15C666.85,-99.2 480.82,-84.91 324.5,-53 316.52,-51.37 308.22,-49.3 300.08,-47.03"/>
<polygon fill="midnightblue" stroke="midnightblue" points="772.48,-108.65 782.65,-105.7 772.86,-101.66 772.48,-108.65"/>
</g>
<!-- Node4 -->
<g id="node4" class="node">
<title>Node4</title>
<g id="a_node4"><a xlink:href="compile_8cpp.html" target="_top" xlink:title="Compile and link source and object files.">
<polygon fill="none" stroke="black" points="334,-6 334,-47 483,-47 483,-6 334,-6"/>
<text text-anchor="start" x="342" y="-35" font-family="Helvetica,sans-Serif" font-size="10.00">/home/runner/work/diffblue</text>
<text text-anchor="start" x="342" y="-24" font-family="Helvetica,sans-Serif" font-size="10.00">&#45;cbmc/diffblue&#45;cbmc/src</text>
<text text-anchor="middle" x="408.5" y="-13" font-family="Helvetica,sans-Serif" font-size="10.00">/goto&#45;cc/compile.cpp</text>
</a>
</g>
</g>
<!-- Node1&#45;&gt;Node4 -->
<g id="edge3" class="edge">
<title>Node1&#45;&gt;Node4</title>
<path fill="none" stroke="midnightblue" d="M772.66,-99.59C698.06,-90.47 586.81,-74.81 491.5,-53 484.01,-51.29 476.2,-49.24 468.51,-47.07"/>
<polygon fill="midnightblue" stroke="midnightblue" points="772.6,-103.11 782.94,-100.83 773.44,-96.16 772.6,-103.11"/>
</g>
<!-- Node5 -->
<g id="node5" class="node">
<title>Node5</title>
<g id="a_node5"><a xlink:href="goto__cc__cmdline_8cpp.html" target="_top" xlink:title="Command line interpretation for goto&#45;cc.">
<polygon fill="none" stroke="black" points="501,-6 501,-47 662,-47 662,-6 501,-6"/>
<text text-anchor="start" x="509" y="-35" font-family="Helvetica,sans-Serif" font-size="10.00">/home/runner/work/diffblue</text>
<text text-anchor="start" x="509" y="-24" font-family="Helvetica,sans-Serif" font-size="10.00">&#45;cbmc/diffblue&#45;cbmc/src</text>
<text text-anchor="middle" x="581.5" y="-13" font-family="Helvetica,sans-Serif" font-size="10.00">/goto&#45;cc/goto_cc_cmdline.cpp</text>
</a>
</g>
</g>
<!-- Node1&#45;&gt;Node5 -->
<g id="edge4" class="edge">
<title>Node1&#45;&gt;Node5</title>
<path fill="none" stroke="midnightblue" d="M781.75,-86.63C739.72,-74.22 687.93,-58.93 647.55,-47"/>
<polygon fill="midnightblue" stroke="midnightblue" points="780.81,-90 791.39,-89.48 782.79,-83.29 780.81,-90"/>
</g>
<!-- Node6 -->
<g id="node6" class="node">
<title>Node6</title>
<g id="a_node6"><a xlink:href="linker__script__merge_8cpp.html" target="_top" xlink:title=" ">
<polygon fill="none" stroke="black" points="680,-6 680,-47 855,-47 855,-6 680,-6"/>
<text text-anchor="start" x="688" y="-35" font-family="Helvetica,sans-Serif" font-size="10.00">/home/runner/work/diffblue</text>
<text text-anchor="start" x="688" y="-24" font-family="Helvetica,sans-Serif" font-size="10.00">&#45;cbmc/diffblue&#45;cbmc/src</text>
<text text-anchor="middle" x="767.5" y="-13" font-family="Helvetica,sans-Serif" font-size="10.00">/goto&#45;cc/linker_script_merge.cpp</text>
</a>
</g>
</g>
<!-- Node1&#45;&gt;Node6 -->
<g id="edge5" class="edge">
<title>Node1&#45;&gt;Node6</title>
<path fill="none" stroke="midnightblue" d="M828.09,-82.36C815.38,-70.85 800.77,-57.63 789.09,-47.05"/>
<polygon fill="midnightblue" stroke="midnightblue" points="825.95,-85.15 835.71,-89.27 830.65,-79.96 825.95,-85.15"/>
</g>
<!-- Node7 -->
<g id="node7" class="node">
<title>Node7</title>
<g id="a_node7"><a xlink:href="ms__cl__version_8cpp.html" target="_top" xlink:title=" ">
<polygon fill="none" stroke="black" points="873,-6 873,-47 1022,-47 1022,-6 873,-6"/>
<text text-anchor="start" x="881" y="-35" font-family="Helvetica,sans-Serif" font-size="10.00">/home/runner/work/diffblue</text>
<text text-anchor="start" x="881" y="-24" font-family="Helvetica,sans-Serif" font-size="10.00">&#45;cbmc/diffblue&#45;cbmc/src</text>
<text text-anchor="middle" x="947.5" y="-13" font-family="Helvetica,sans-Serif" font-size="10.00">/goto&#45;cc/ms_cl_version.cpp</text>
</a>
</g>
</g>
<!-- Node1&#45;&gt;Node7 -->
<g id="edge6" class="edge">
<title>Node1&#45;&gt;Node7</title>
<path fill="none" stroke="midnightblue" d="M886.91,-82.36C899.62,-70.85 914.23,-57.63 925.91,-47.05"/>
<polygon fill="midnightblue" stroke="midnightblue" points="884.35,-79.96 879.29,-89.27 889.05,-85.15 884.35,-79.96"/>
</g>
<!-- Node8 -->
<g id="node8" class="node">
<title>Node8</title>
<g id="a_node8"><a xlink:href="read__goto__binary_8cpp.html" target="_top" xlink:title="Read Goto Programs.">
<polygon fill="none" stroke="black" points="1040,-0.5 1040,-52.5 1189,-52.5 1189,-0.5 1040,-0.5"/>
<text text-anchor="start" x="1048" y="-40.5" font-family="Helvetica,sans-Serif" font-size="10.00">/home/runner/work/diffblue</text>
<text text-anchor="start" x="1048" y="-29.5" font-family="Helvetica,sans-Serif" font-size="10.00">&#45;cbmc/diffblue&#45;cbmc/src</text>
<text text-anchor="start" x="1048" y="-18.5" font-family="Helvetica,sans-Serif" font-size="10.00">/goto&#45;programs/read_goto</text>
<text text-anchor="middle" x="1114.5" y="-7.5" font-family="Helvetica,sans-Serif" font-size="10.00">_binary.cpp</text>
</a>
</g>
</g>
<!-- Node1&#45;&gt;Node8 -->
<g id="edge7" class="edge">
<title>Node1&#45;&gt;Node8</title>
<path fill="none" stroke="midnightblue" d="M928.61,-86.45C963.16,-75.49 1004.67,-62.33 1039.7,-51.22"/>
<polygon fill="midnightblue" stroke="midnightblue" points="927.53,-83.12 919.06,-89.48 929.65,-89.79 927.53,-83.12"/>
</g>
<!-- Node9 -->
<g id="node9" class="node">
<title>Node9</title>
<g id="a_node9"><a xlink:href="external__sat_8cpp.html" target="_top" xlink:title="Allows call an external SAT solver to allow faster integration of newer SAT solvers.">
<polygon fill="none" stroke="black" points="1207,-6 1207,-47 1364,-47 1364,-6 1207,-6"/>
<text text-anchor="start" x="1215" y="-35" font-family="Helvetica,sans-Serif" font-size="10.00">/home/runner/work/diffblue</text>
<text text-anchor="start" x="1215" y="-24" font-family="Helvetica,sans-Serif" font-size="10.00">&#45;cbmc/diffblue&#45;cbmc/src</text>
<text text-anchor="middle" x="1285.5" y="-13" font-family="Helvetica,sans-Serif" font-size="10.00">/solvers/sat/external_sat.cpp</text>
</a>
</g>
</g>
<!-- Node1&#45;&gt;Node9 -->
<g id="edge8" class="edge">
<title>Node1&#45;&gt;Node9</title>
<path fill="none" stroke="midnightblue" d="M942.18,-98.03C1011.52,-88.35 1111.94,-72.71 1198.5,-53 1206.17,-51.25 1214.17,-49.21 1222.07,-47.07"/>
<polygon fill="midnightblue" stroke="midnightblue" points="941.6,-94.58 932.18,-99.42 942.56,-101.51 941.6,-94.58"/>
</g>
<!-- Node10 -->
<g id="node10" class="node">
<title>Node10</title>
<g id="a_node10"><a xlink:href="smt2__dec_8cpp.html" target="_top" xlink:title=" ">
<polygon fill="none" stroke="black" points="1382,-6 1382,-47 1535,-47 1535,-6 1382,-6"/>
<text text-anchor="start" x="1390" y="-35" font-family="Helvetica,sans-Serif" font-size="10.00">/home/runner/work/diffblue</text>
<text text-anchor="start" x="1390" y="-24" font-family="Helvetica,sans-Serif" font-size="10.00">&#45;cbmc/diffblue&#45;cbmc/src</text>
<text text-anchor="middle" x="1458.5" y="-13" font-family="Helvetica,sans-Serif" font-size="10.00">/solvers/smt2/smt2_dec.cpp</text>
</a>
</g>
</g>
<!-- Node1&#45;&gt;Node10 -->
<g id="edge9" class="edge">
<title>Node1&#45;&gt;Node10</title>
<path fill="none" stroke="midnightblue" d="M942.09,-104.59C1044.9,-98.13 1223.28,-83.42 1373.5,-53 1381.5,-51.38 1389.84,-49.34 1398.02,-47.12"/>
<polygon fill="midnightblue" stroke="midnightblue" points="941.84,-101.1 932.07,-105.21 942.27,-108.08 941.84,-101.1"/>
</g>
<!-- Node11 -->
<g id="node11" class="node">
<title>Node11</title>
<g id="a_node11"><a xlink:href="tempfile_8cpp.html" target="_top" xlink:title=" ">
<polygon fill="none" stroke="black" points="1553,-6 1553,-47 1702,-47 1702,-6 1553,-6"/>
<text text-anchor="start" x="1561" y="-35" font-family="Helvetica,sans-Serif" font-size="10.00">/home/runner/work/diffblue</text>
<text text-anchor="start" x="1561" y="-24" font-family="Helvetica,sans-Serif" font-size="10.00">&#45;cbmc/diffblue&#45;cbmc/src</text>
<text text-anchor="middle" x="1627.5" y="-13" font-family="Helvetica,sans-Serif" font-size="10.00">/util/tempfile.cpp</text>
</a>
</g>
</g>
<!-- Node1&#45;&gt;Node11 -->
<g id="edge10" class="edge">
<title>Node1&#45;&gt;Node11</title>
<path fill="none" stroke="midnightblue" d="M942.5,-107.97C1073.08,-105.07 1330.39,-94.11 1544.5,-53 1552.64,-51.44 1561.12,-49.37 1569.41,-47.08"/>
<polygon fill="midnightblue" stroke="midnightblue" points="942.1,-104.48 932.17,-108.19 942.24,-111.48 942.1,-104.48"/>
</g>
</g>
</svg>
