<?xml version="1.0" encoding="UTF-8" standalone="no"?>
<!DOCTYPE svg PUBLIC "-//W3C//DTD SVG 1.1//EN"
 "http://www.w3.org/Graphics/SVG/1.1/DTD/svg11.dtd">
<!-- Generated by graphviz version 2.43.0 (0)
 -->
<!-- Title: /home/runner/work/diffblue&#45;cbmc/diffblue&#45;cbmc/src/analyses/variable&#45;sensitivity/three_way_merge_abstract_interpreter.h Pages: 1 -->
<svg width="629pt" height="250pt"
 viewBox="0.00 0.00 629.00 250.00" xmlns="http://www.w3.org/2000/svg" xmlns:xlink="http://www.w3.org/1999/xlink">
<g id="graph0" class="graph" transform="scale(1 1) rotate(0) translate(4 246)">
<title>/home/runner/work/diffblue&#45;cbmc/diffblue&#45;cbmc/src/analyses/variable&#45;sensitivity/three_way_merge_abstract_interpreter.h</title>
<!-- Node1 -->
<g id="node1" class="node">
<title>Node1</title>
<g id="a_node1"><a xlink:title="An abstract interpreter, based on the default recursive&#45;interprocedural that uses variable sensitivit...">
<polygon fill="#bfbfbf" stroke="black" points="249.5,-189.5 249.5,-241.5 467.5,-241.5 467.5,-189.5 249.5,-189.5"/>
<text text-anchor="start" x="257.5" y="-229.5" font-family="Helvetica,sans-Serif" font-size="10.00">/home/runner/work/diffblue</text>
<text text-anchor="start" x="257.5" y="-218.5" font-family="Helvetica,sans-Serif" font-size="10.00">&#45;cbmc/diffblue&#45;cbmc/src</text>
<text text-anchor="start" x="257.5" y="-207.5" font-family="Helvetica,sans-Serif" font-size="10.00">/analyses/variable&#45;sensitivity</text>
<text text-anchor="middle" x="358.5" y="-196.5" font-family="Helvetica,sans-Serif" font-size="10.00">/three_way_merge_abstract_interpreter.h</text>
</a>
</g>
</g>
<!-- Node2 -->
<g id="node2" class="node">
<title>Node2</title>
<g id="a_node2"><a xlink:href="three__way__merge__abstract__interpreter_8cpp.html" target="_top" xlink:title="An abstract interpreter, based on the default recursive&#45;interprocedural that uses variable sensitivit...">
<polygon fill="none" stroke="black" points="0,-100.5 0,-152.5 229,-152.5 229,-100.5 0,-100.5"/>
<text text-anchor="start" x="8" y="-140.5" font-family="Helvetica,sans-Serif" font-size="10.00">/home/runner/work/diffblue</text>
<text text-anchor="start" x="8" y="-129.5" font-family="Helvetica,sans-Serif" font-size="10.00">&#45;cbmc/diffblue&#45;cbmc/src</text>
<text text-anchor="start" x="8" y="-118.5" font-family="Helvetica,sans-Serif" font-size="10.00">/analyses/variable&#45;sensitivity</text>
<text text-anchor="middle" x="114.5" y="-107.5" font-family="Helvetica,sans-Serif" font-size="10.00">/three_way_merge_abstract_interpreter.cpp</text>
</a>
</g>
</g>
<!-- Node1&#45;&gt;Node2 -->
<g id="edge1" class="edge">
<title>Node1&#45;&gt;Node2</title>
<path fill="none" stroke="midnightblue" d="M278.56,-186C248.26,-175.19 214.01,-162.98 184.67,-152.52"/>
<polygon fill="midnightblue" stroke="midnightblue" points="277.66,-189.39 288.25,-189.45 280.01,-182.8 277.66,-189.39"/>
</g>
<!-- Node3 -->
<g id="node3" class="node">
<title>Node3</title>
<g id="a_node3"><a xlink:href="variable__sensitivity__dependence__graph_8h.html" target="_top" xlink:title="A forked and modified version of analyses/dependence_graph.">
<polygon fill="none" stroke="black" points="247.5,-100.5 247.5,-152.5 469.5,-152.5 469.5,-100.5 247.5,-100.5"/>
<text text-anchor="start" x="255.5" y="-140.5" font-family="Helvetica,sans-Serif" font-size="10.00">/home/runner/work/diffblue</text>
<text text-anchor="start" x="255.5" y="-129.5" font-family="Helvetica,sans-Serif" font-size="10.00">&#45;cbmc/diffblue&#45;cbmc/src</text>
<text text-anchor="start" x="255.5" y="-118.5" font-family="Helvetica,sans-Serif" font-size="10.00">/analyses/variable&#45;sensitivity</text>
<text text-anchor="middle" x="358.5" y="-107.5" font-family="Helvetica,sans-Serif" font-size="10.00">/variable_sensitivity_dependence_graph.h</text>
</a>
</g>
</g>
<!-- Node1&#45;&gt;Node3 -->
<g id="edge2" class="edge">
<title>Node1&#45;&gt;Node3</title>
<path fill="none" stroke="midnightblue" d="M358.5,-179.19C358.5,-170.28 358.5,-160.9 358.5,-152.61"/>
<polygon fill="midnightblue" stroke="midnightblue" points="355,-179.34 358.5,-189.34 362,-179.34 355,-179.34"/>
</g>
<!-- Node5 -->
<g id="node5" class="node">
<title>Node5</title>
<g id="a_node5"><a xlink:href="build__analyzer_8cpp.html" target="_top" xlink:title=" ">
<polygon fill="none" stroke="black" points="440,-11.5 440,-52.5 621,-52.5 621,-11.5 440,-11.5"/>
<text text-anchor="start" x="448" y="-40.5" font-family="Helvetica,sans-Serif" font-size="10.00">/home/runner/work/diffblue</text>
<text text-anchor="start" x="448" y="-29.5" font-family="Helvetica,sans-Serif" font-size="10.00">&#45;cbmc/diffblue&#45;cbmc/src</text>
<text text-anchor="middle" x="530.5" y="-18.5" font-family="Helvetica,sans-Serif" font-size="10.00">/goto&#45;analyzer/build_analyzer.cpp</text>
</a>
</g>
</g>
<!-- Node1&#45;&gt;Node5 -->
<g id="edge6" class="edge">
<title>Node1&#45;&gt;Node5</title>
<path fill="none" stroke="midnightblue" d="M436.26,-184.6C451.64,-176.1 466.66,-165.64 478.5,-153 505.67,-124.01 520,-78.58 526.34,-52.73"/>
<polygon fill="midnightblue" stroke="midnightblue" points="434.41,-181.62 427.2,-189.38 437.67,-187.82 434.41,-181.62"/>
</g>
<!-- Node4 -->
<g id="node4" class="node">
<title>Node4</title>
<g id="a_node4"><a xlink:href="variable__sensitivity__dependence__graph_8cpp.html" target="_top" xlink:title=" ">
<polygon fill="none" stroke="black" points="74.5,-0.5 74.5,-63.5 254.5,-63.5 254.5,-0.5 74.5,-0.5"/>
<text text-anchor="start" x="82.5" y="-51.5" font-family="Helvetica,sans-Serif" font-size="10.00">/home/runner/work/diffblue</text>
<text text-anchor="start" x="82.5" y="-40.5" font-family="Helvetica,sans-Serif" font-size="10.00">&#45;cbmc/diffblue&#45;cbmc/src</text>
<text text-anchor="start" x="82.5" y="-29.5" font-family="Helvetica,sans-Serif" font-size="10.00">/analyses/variable&#45;sensitivity</text>
<text text-anchor="start" x="82.5" y="-18.5" font-family="Helvetica,sans-Serif" font-size="10.00">/variable_sensitivity_dependence</text>
<text text-anchor="middle" x="164.5" y="-7.5" font-family="Helvetica,sans-Serif" font-size="10.00">_graph.cpp</text>
</a>
</g>
</g>
<!-- Node3&#45;&gt;Node4 -->
<g id="edge3" class="edge">
<title>Node3&#45;&gt;Node4</title>
<path fill="none" stroke="midnightblue" d="M296.88,-96.12C275.18,-85.77 250.73,-74.12 228.81,-63.66"/>
<polygon fill="midnightblue" stroke="midnightblue" points="295.47,-99.32 306,-100.47 298.48,-93 295.47,-99.32"/>
</g>
<!-- Node3&#45;&gt;Node5 -->
<g id="edge4" class="edge">
<title>Node3&#45;&gt;Node5</title>
<path fill="none" stroke="midnightblue" d="M414.11,-95.59C440.3,-81.51 470.8,-65.11 494,-52.63"/>
<polygon fill="midnightblue" stroke="midnightblue" points="412.2,-92.65 405.05,-100.47 415.51,-98.81 412.2,-92.65"/>
</g>
<!-- Node6 -->
<g id="node6" class="node">
<title>Node6</title>
<g id="a_node6"><a xlink:href="static__show__domain_8cpp.html" target="_top" xlink:title=" ">
<polygon fill="none" stroke="black" points="273,-6 273,-58 422,-58 422,-6 273,-6"/>
<text text-anchor="start" x="281" y="-46" font-family="Helvetica,sans-Serif" font-size="10.00">/home/runner/work/diffblue</text>
<text text-anchor="start" x="281" y="-35" font-family="Helvetica,sans-Serif" font-size="10.00">&#45;cbmc/diffblue&#45;cbmc/src</text>
<text text-anchor="start" x="281" y="-24" font-family="Helvetica,sans-Serif" font-size="10.00">/goto&#45;analyzer/static_show</text>
<text text-anchor="middle" x="347.5" y="-13" font-family="Helvetica,sans-Serif" font-size="10.00">_domain.cpp</text>
</a>
</g>
</g>
<!-- Node3&#45;&gt;Node6 -->
<g id="edge5" class="edge">
<title>Node3&#45;&gt;Node6</title>
<path fill="none" stroke="midnightblue" d="M354.28,-89.99C353.02,-79.41 351.67,-68.03 350.5,-58.25"/>
<polygon fill="midnightblue" stroke="midnightblue" points="350.84,-90.71 355.49,-100.22 357.79,-89.88 350.84,-90.71"/>
</g>
</g>
</svg>
