<?xml version="1.0" encoding="UTF-8" standalone="no"?>
<!DOCTYPE svg PUBLIC "-//W3C//DTD SVG 1.1//EN"
 "http://www.w3.org/Graphics/SVG/1.1/DTD/svg11.dtd">
<!-- Generated by graphviz version 2.43.0 (0)
 -->
<!-- Title: /home/runner/work/diffblue&#45;cbmc/diffblue&#45;cbmc/src/goto&#45;instrument/accelerate/trace_automaton.h Pages: 1 -->
<svg width="422pt" height="239pt"
 viewBox="0.00 0.00 422.00 239.00" xmlns="http://www.w3.org/2000/svg" xmlns:xlink="http://www.w3.org/1999/xlink">
<g id="graph0" class="graph" transform="scale(1 1) rotate(0) translate(4 235)">
<title>/home/runner/work/diffblue&#45;cbmc/diffblue&#45;cbmc/src/goto&#45;instrument/accelerate/trace_automaton.h</title>
<!-- Node1 -->
<g id="node1" class="node">
<title>Node1</title>
<g id="a_node1"><a xlink:title="Loop Acceleration.">
<polygon fill="#bfbfbf" stroke="black" points="177,-178.5 177,-230.5 329,-230.5 329,-178.5 177,-178.5"/>
<text text-anchor="start" x="185" y="-218.5" font-family="Helvetica,sans-Serif" font-size="10.00">/home/runner/work/diffblue</text>
<text text-anchor="start" x="185" y="-207.5" font-family="Helvetica,sans-Serif" font-size="10.00">&#45;cbmc/diffblue&#45;cbmc/src</text>
<text text-anchor="start" x="185" y="-196.5" font-family="Helvetica,sans-Serif" font-size="10.00">/goto&#45;instrument/accelerate</text>
<text text-anchor="middle" x="253" y="-185.5" font-family="Helvetica,sans-Serif" font-size="10.00">/trace_automaton.h</text>
</a>
</g>
</g>
<!-- Node2 -->
<g id="node2" class="node">
<title>Node2</title>
<g id="a_node2"><a xlink:href="accelerate_8h.html" target="_top" xlink:title="Loop Acceleration.">
<polygon fill="none" stroke="black" points="92,-89.5 92,-141.5 244,-141.5 244,-89.5 92,-89.5"/>
<text text-anchor="start" x="100" y="-129.5" font-family="Helvetica,sans-Serif" font-size="10.00">/home/runner/work/diffblue</text>
<text text-anchor="start" x="100" y="-118.5" font-family="Helvetica,sans-Serif" font-size="10.00">&#45;cbmc/diffblue&#45;cbmc/src</text>
<text text-anchor="start" x="100" y="-107.5" font-family="Helvetica,sans-Serif" font-size="10.00">/goto&#45;instrument/accelerate</text>
<text text-anchor="middle" x="168" y="-96.5" font-family="Helvetica,sans-Serif" font-size="10.00">/accelerate.h</text>
</a>
</g>
</g>
<!-- Node1&#45;&gt;Node2 -->
<g id="edge1" class="edge">
<title>Node1&#45;&gt;Node2</title>
<path fill="none" stroke="midnightblue" d="M221.32,-171.08C211.8,-161.34 201.51,-150.8 192.53,-141.61"/>
<polygon fill="midnightblue" stroke="midnightblue" points="218.92,-173.63 228.41,-178.34 223.93,-168.74 218.92,-173.63"/>
</g>
<!-- Node5 -->
<g id="node5" class="node">
<title>Node5</title>
<g id="a_node5"><a xlink:href="trace__automaton_8cpp.html" target="_top" xlink:title="Loop Acceleration.">
<polygon fill="none" stroke="black" points="262,-89.5 262,-141.5 414,-141.5 414,-89.5 262,-89.5"/>
<text text-anchor="start" x="270" y="-129.5" font-family="Helvetica,sans-Serif" font-size="10.00">/home/runner/work/diffblue</text>
<text text-anchor="start" x="270" y="-118.5" font-family="Helvetica,sans-Serif" font-size="10.00">&#45;cbmc/diffblue&#45;cbmc/src</text>
<text text-anchor="start" x="270" y="-107.5" font-family="Helvetica,sans-Serif" font-size="10.00">/goto&#45;instrument/accelerate</text>
<text text-anchor="middle" x="338" y="-96.5" font-family="Helvetica,sans-Serif" font-size="10.00">/trace_automaton.cpp</text>
</a>
</g>
</g>
<!-- Node1&#45;&gt;Node5 -->
<g id="edge4" class="edge">
<title>Node1&#45;&gt;Node5</title>
<path fill="none" stroke="midnightblue" d="M284.68,-171.08C294.2,-161.34 304.49,-150.8 313.47,-141.61"/>
<polygon fill="midnightblue" stroke="midnightblue" points="282.07,-168.74 277.59,-178.34 287.08,-173.63 282.07,-168.74"/>
</g>
<!-- Node3 -->
<g id="node3" class="node">
<title>Node3</title>
<g id="a_node3"><a xlink:href="accelerate_8cpp.html" target="_top" xlink:title="Loop Acceleration.">
<polygon fill="none" stroke="black" points="0,-0.5 0,-52.5 152,-52.5 152,-0.5 0,-0.5"/>
<text text-anchor="start" x="8" y="-40.5" font-family="Helvetica,sans-Serif" font-size="10.00">/home/runner/work/diffblue</text>
<text text-anchor="start" x="8" y="-29.5" font-family="Helvetica,sans-Serif" font-size="10.00">&#45;cbmc/diffblue&#45;cbmc/src</text>
<text text-anchor="start" x="8" y="-18.5" font-family="Helvetica,sans-Serif" font-size="10.00">/goto&#45;instrument/accelerate</text>
<text text-anchor="middle" x="76" y="-7.5" font-family="Helvetica,sans-Serif" font-size="10.00">/accelerate.cpp</text>
</a>
</g>
</g>
<!-- Node2&#45;&gt;Node3 -->
<g id="edge2" class="edge">
<title>Node2&#45;&gt;Node3</title>
<path fill="none" stroke="midnightblue" d="M134.02,-82.36C123.63,-72.54 112.37,-61.89 102.55,-52.61"/>
<polygon fill="midnightblue" stroke="midnightblue" points="131.72,-85.01 141.39,-89.34 136.53,-79.92 131.72,-85.01"/>
</g>
<!-- Node4 -->
<g id="node4" class="node">
<title>Node4</title>
<g id="a_node4"><a xlink:href="goto__instrument__parse__options_8cpp.html" target="_top" xlink:title="Main Module.">
<polygon fill="none" stroke="black" points="170,-0.5 170,-52.5 352,-52.5 352,-0.5 170,-0.5"/>
<text text-anchor="start" x="178" y="-40.5" font-family="Helvetica,sans-Serif" font-size="10.00">/home/runner/work/diffblue</text>
<text text-anchor="start" x="178" y="-29.5" font-family="Helvetica,sans-Serif" font-size="10.00">&#45;cbmc/diffblue&#45;cbmc/src</text>
<text text-anchor="start" x="178" y="-18.5" font-family="Helvetica,sans-Serif" font-size="10.00">/goto&#45;instrument/goto_instrument</text>
<text text-anchor="middle" x="261" y="-7.5" font-family="Helvetica,sans-Serif" font-size="10.00">_parse_options.cpp</text>
</a>
</g>
</g>
<!-- Node2&#45;&gt;Node4 -->
<g id="edge3" class="edge">
<title>Node2&#45;&gt;Node4</title>
<path fill="none" stroke="midnightblue" d="M202.35,-82.36C212.85,-72.54 224.24,-61.89 234.16,-52.61"/>
<polygon fill="midnightblue" stroke="midnightblue" points="199.81,-79.95 194.9,-89.34 204.59,-85.06 199.81,-79.95"/>
</g>
</g>
</svg>
