<?xml version="1.0" encoding="UTF-8" standalone="no"?>
<!DOCTYPE svg PUBLIC "-//W3C//DTD SVG 1.1//EN"
 "http://www.w3.org/Graphics/SVG/1.1/DTD/svg11.dtd">
<!-- Generated by graphviz version 2.43.0 (0)
 -->
<!-- Title: /home/runner/work/diffblue&#45;cbmc/diffblue&#45;cbmc/src/solvers/smt2_incremental/type_size_mapping.h Pages: 1 -->
<svg width="856pt" height="261pt"
 viewBox="0.00 0.00 855.50 261.00" xmlns="http://www.w3.org/2000/svg" xmlns:xlink="http://www.w3.org/1999/xlink">
<g id="graph0" class="graph" transform="scale(1 1) rotate(0) translate(4 257)">
<title>/home/runner/work/diffblue&#45;cbmc/diffblue&#45;cbmc/src/solvers/smt2_incremental/type_size_mapping.h</title>
<!-- Node1 -->
<g id="node1" class="node">
<title>Node1</title>
<g id="a_node1"><a xlink:title="Utilities for making a map of types to associated sizes.">
<polygon fill="#bfbfbf" stroke="black" points="331.5,-200.5 331.5,-252.5 480.5,-252.5 480.5,-200.5 331.5,-200.5"/>
<text text-anchor="start" x="339.5" y="-240.5" font-family="Helvetica,sans-Serif" font-size="10.00">/home/runner/work/diffblue</text>
<text text-anchor="start" x="339.5" y="-229.5" font-family="Helvetica,sans-Serif" font-size="10.00">&#45;cbmc/diffblue&#45;cbmc/src</text>
<text text-anchor="start" x="339.5" y="-218.5" font-family="Helvetica,sans-Serif" font-size="10.00">/solvers/smt2_incremental</text>
<text text-anchor="middle" x="406" y="-207.5" font-family="Helvetica,sans-Serif" font-size="10.00">/type_size_mapping.h</text>
</a>
</g>
</g>
<!-- Node2 -->
<g id="node2" class="node">
<title>Node2</title>
<g id="a_node2"><a xlink:href="convert__expr__to__smt_8h.html" target="_top" xlink:title=" ">
<polygon fill="none" stroke="black" points="382.5,-106 382.5,-158 531.5,-158 531.5,-106 382.5,-106"/>
<text text-anchor="start" x="390.5" y="-146" font-family="Helvetica,sans-Serif" font-size="10.00">/home/runner/work/diffblue</text>
<text text-anchor="start" x="390.5" y="-135" font-family="Helvetica,sans-Serif" font-size="10.00">&#45;cbmc/diffblue&#45;cbmc/src</text>
<text text-anchor="start" x="390.5" y="-124" font-family="Helvetica,sans-Serif" font-size="10.00">/solvers/smt2_incremental</text>
<text text-anchor="middle" x="457" y="-113" font-family="Helvetica,sans-Serif" font-size="10.00">/convert_expr_to_smt.h</text>
</a>
</g>
</g>
<!-- Node1&#45;&gt;Node2 -->
<g id="edge1" class="edge">
<title>Node1&#45;&gt;Node2</title>
<path fill="none" stroke="midnightblue" d="M424.85,-191.31C430.89,-180.36 437.46,-168.44 443.08,-158.25"/>
<polygon fill="midnightblue" stroke="midnightblue" points="421.7,-189.78 419.94,-200.22 427.83,-193.16 421.7,-189.78"/>
</g>
<!-- Node4 -->
<g id="node4" class="node">
<title>Node4</title>
<g id="a_node4"><a xlink:href="smt2__incremental__decision__procedure_8cpp.html" target="_top" xlink:title=" ">
<polygon fill="none" stroke="black" points="192,-0.5 192,-63.5 346,-63.5 346,-0.5 192,-0.5"/>
<text text-anchor="start" x="200" y="-51.5" font-family="Helvetica,sans-Serif" font-size="10.00">/home/runner/work/diffblue</text>
<text text-anchor="start" x="200" y="-40.5" font-family="Helvetica,sans-Serif" font-size="10.00">&#45;cbmc/diffblue&#45;cbmc/src</text>
<text text-anchor="start" x="200" y="-29.5" font-family="Helvetica,sans-Serif" font-size="10.00">/solvers/smt2_incremental</text>
<text text-anchor="start" x="200" y="-18.5" font-family="Helvetica,sans-Serif" font-size="10.00">/smt2_incremental_decision</text>
<text text-anchor="middle" x="269" y="-7.5" font-family="Helvetica,sans-Serif" font-size="10.00">_procedure.cpp</text>
</a>
</g>
</g>
<!-- Node1&#45;&gt;Node4 -->
<g id="edge6" class="edge">
<title>Node1&#45;&gt;Node4</title>
<path fill="none" stroke="midnightblue" d="M388.42,-191.54C371.87,-160.05 347.91,-115.76 336,-100 326.38,-87.27 314.43,-74.57 303.3,-63.7"/>
<polygon fill="midnightblue" stroke="midnightblue" points="385.34,-193.21 393.08,-200.45 391.55,-189.97 385.34,-193.21"/>
</g>
<!-- Node6 -->
<g id="node6" class="node">
<title>Node6</title>
<g id="a_node6"><a xlink:href="type__size__mapping_8cpp.html" target="_top" xlink:title=" ">
<polygon fill="none" stroke="black" points="698.5,-6 698.5,-58 847.5,-58 847.5,-6 698.5,-6"/>
<text text-anchor="start" x="706.5" y="-46" font-family="Helvetica,sans-Serif" font-size="10.00">/home/runner/work/diffblue</text>
<text text-anchor="start" x="706.5" y="-35" font-family="Helvetica,sans-Serif" font-size="10.00">&#45;cbmc/diffblue&#45;cbmc/src</text>
<text text-anchor="start" x="706.5" y="-24" font-family="Helvetica,sans-Serif" font-size="10.00">/solvers/smt2_incremental</text>
<text text-anchor="middle" x="773" y="-13" font-family="Helvetica,sans-Serif" font-size="10.00">/type_size_mapping.cpp</text>
</a>
</g>
</g>
<!-- Node1&#45;&gt;Node6 -->
<g id="edge10" class="edge">
<title>Node1&#45;&gt;Node6</title>
<path fill="none" stroke="midnightblue" d="M473.19,-196.27C495.01,-186.41 519.21,-175.09 541,-164 608.81,-129.49 685.27,-85.24 731.26,-58.02"/>
<polygon fill="midnightblue" stroke="midnightblue" points="471.69,-193.11 464,-200.4 474.56,-199.49 471.69,-193.11"/>
</g>
<!-- Node7 -->
<g id="node7" class="node">
<title>Node7</title>
<g id="a_node7"><a xlink:href="smt2__incremental__decision__procedure_8h.html" target="_top" xlink:title="Decision procedure with incremental SMT2 solving.">
<polygon fill="none" stroke="black" points="173,-100.5 173,-163.5 327,-163.5 327,-100.5 173,-100.5"/>
<text text-anchor="start" x="181" y="-151.5" font-family="Helvetica,sans-Serif" font-size="10.00">/home/runner/work/diffblue</text>
<text text-anchor="start" x="181" y="-140.5" font-family="Helvetica,sans-Serif" font-size="10.00">&#45;cbmc/diffblue&#45;cbmc/src</text>
<text text-anchor="start" x="181" y="-129.5" font-family="Helvetica,sans-Serif" font-size="10.00">/solvers/smt2_incremental</text>
<text text-anchor="start" x="181" y="-118.5" font-family="Helvetica,sans-Serif" font-size="10.00">/smt2_incremental_decision</text>
<text text-anchor="middle" x="250" y="-107.5" font-family="Helvetica,sans-Serif" font-size="10.00">_procedure.h</text>
</a>
</g>
</g>
<!-- Node1&#45;&gt;Node7 -->
<g id="edge7" class="edge">
<title>Node1&#45;&gt;Node7</title>
<path fill="none" stroke="midnightblue" d="M355.04,-195.29C337.95,-185.15 318.87,-173.84 301.71,-163.66"/>
<polygon fill="midnightblue" stroke="midnightblue" points="353.4,-198.38 363.78,-200.47 356.97,-192.36 353.4,-198.38"/>
</g>
<!-- Node3 -->
<g id="node3" class="node">
<title>Node3</title>
<g id="a_node3"><a xlink:href="convert__expr__to__smt_8cpp.html" target="_top" xlink:title=" ">
<polygon fill="none" stroke="black" points="531.5,-6 531.5,-58 680.5,-58 680.5,-6 531.5,-6"/>
<text text-anchor="start" x="539.5" y="-46" font-family="Helvetica,sans-Serif" font-size="10.00">/home/runner/work/diffblue</text>
<text text-anchor="start" x="539.5" y="-35" font-family="Helvetica,sans-Serif" font-size="10.00">&#45;cbmc/diffblue&#45;cbmc/src</text>
<text text-anchor="start" x="539.5" y="-24" font-family="Helvetica,sans-Serif" font-size="10.00">/solvers/smt2_incremental</text>
<text text-anchor="middle" x="606" y="-13" font-family="Helvetica,sans-Serif" font-size="10.00">/convert_expr_to_smt.cpp</text>
</a>
</g>
</g>
<!-- Node2&#45;&gt;Node3 -->
<g id="edge2" class="edge">
<title>Node2&#45;&gt;Node3</title>
<path fill="none" stroke="midnightblue" d="M503.96,-100.12C524.51,-86.6 548.31,-70.94 567.76,-58.15"/>
<polygon fill="midnightblue" stroke="midnightblue" points="501.8,-97.34 495.37,-105.76 505.65,-103.19 501.8,-97.34"/>
</g>
<!-- Node2&#45;&gt;Node4 -->
<g id="edge3" class="edge">
<title>Node2&#45;&gt;Node4</title>
<path fill="none" stroke="midnightblue" d="M399.69,-101.13C376.86,-89.23 350.61,-75.54 327.64,-63.57"/>
<polygon fill="midnightblue" stroke="midnightblue" points="398.1,-104.24 408.59,-105.76 401.34,-98.04 398.1,-104.24"/>
</g>
<!-- Node5 -->
<g id="node5" class="node">
<title>Node5</title>
<g id="a_node5"><a xlink:href="smt__object__size_8cpp.html" target="_top" xlink:title=" ">
<polygon fill="none" stroke="black" points="364.5,-6 364.5,-58 513.5,-58 513.5,-6 364.5,-6"/>
<text text-anchor="start" x="372.5" y="-46" font-family="Helvetica,sans-Serif" font-size="10.00">/home/runner/work/diffblue</text>
<text text-anchor="start" x="372.5" y="-35" font-family="Helvetica,sans-Serif" font-size="10.00">&#45;cbmc/diffblue&#45;cbmc/src</text>
<text text-anchor="start" x="372.5" y="-24" font-family="Helvetica,sans-Serif" font-size="10.00">/solvers/smt2_incremental</text>
<text text-anchor="middle" x="439" y="-13" font-family="Helvetica,sans-Serif" font-size="10.00">/smt_object_size.cpp</text>
</a>
</g>
</g>
<!-- Node2&#45;&gt;Node5 -->
<g id="edge4" class="edge">
<title>Node2&#45;&gt;Node5</title>
<path fill="none" stroke="midnightblue" d="M450.52,-95.7C448.23,-83.28 445.72,-69.57 443.62,-58.15"/>
<polygon fill="midnightblue" stroke="midnightblue" points="447.12,-96.56 452.36,-105.76 454,-95.29 447.12,-96.56"/>
</g>
<!-- Node2&#45;&gt;Node6 -->
<g id="edge5" class="edge">
<title>Node2&#45;&gt;Node6</title>
<path fill="none" stroke="midnightblue" d="M541.58,-108.38C586.01,-96.07 641.23,-80.09 690,-64 695.7,-62.12 701.58,-60.09 707.47,-58.01"/>
<polygon fill="midnightblue" stroke="midnightblue" points="540.4,-105.07 531.69,-111.11 542.26,-111.82 540.4,-105.07"/>
</g>
<!-- Node7&#45;&gt;Node4 -->
<g id="edge9" class="edge">
<title>Node7&#45;&gt;Node4</title>
<path fill="none" stroke="midnightblue" d="M257.87,-90.39C259.61,-81.44 261.42,-72.11 263.06,-63.63"/>
<polygon fill="midnightblue" stroke="midnightblue" points="254.43,-89.78 255.96,-100.26 261.3,-91.11 254.43,-89.78"/>
</g>
<!-- Node8 -->
<g id="node8" class="node">
<title>Node8</title>
<g id="a_node8"><a xlink:href="solver__factory_8cpp.html" target="_top" xlink:title="Solver Factory.">
<polygon fill="none" stroke="black" points="0,-11.5 0,-52.5 174,-52.5 174,-11.5 0,-11.5"/>
<text text-anchor="start" x="8" y="-40.5" font-family="Helvetica,sans-Serif" font-size="10.00">/home/runner/work/diffblue</text>
<text text-anchor="start" x="8" y="-29.5" font-family="Helvetica,sans-Serif" font-size="10.00">&#45;cbmc/diffblue&#45;cbmc/src</text>
<text text-anchor="middle" x="87" y="-18.5" font-family="Helvetica,sans-Serif" font-size="10.00">/goto&#45;checker/solver_factory.cpp</text>
</a>
</g>
</g>
<!-- Node7&#45;&gt;Node8 -->
<g id="edge8" class="edge">
<title>Node7&#45;&gt;Node8</title>
<path fill="none" stroke="midnightblue" d="M190.2,-95.05C166.29,-80.67 139.68,-64.68 119.48,-52.53"/>
<polygon fill="midnightblue" stroke="midnightblue" points="188.5,-98.11 198.87,-100.26 192.11,-92.11 188.5,-98.11"/>
</g>
</g>
</svg>
