<?xml version="1.0" encoding="UTF-8" standalone="no"?>
<!DOCTYPE svg PUBLIC "-//W3C//DTD SVG 1.1//EN"
 "http://www.w3.org/Graphics/SVG/1.1/DTD/svg11.dtd">
<!-- Generated by graphviz version 2.43.0 (0)
 -->
<!-- Title: /home/runner/work/diffblue&#45;cbmc/diffblue&#45;cbmc/src/util/unicode.h Pages: 1 -->
<svg width="4268pt" height="139pt"
 viewBox="0.00 0.00 4268.00 139.00" xmlns="http://www.w3.org/2000/svg" xmlns:xlink="http://www.w3.org/1999/xlink">
<g id="graph0" class="graph" transform="scale(1 1) rotate(0) translate(4 135)">
<title>/home/runner/work/diffblue&#45;cbmc/diffblue&#45;cbmc/src/util/unicode.h</title>
<!-- Node1 -->
<g id="node1" class="node">
<title>Node1</title>
<g id="a_node1"><a xlink:title=" ">
<polygon fill="#bfbfbf" stroke="black" points="2035,-89.5 2035,-130.5 2184,-130.5 2184,-89.5 2035,-89.5"/>
<text text-anchor="start" x="2043" y="-118.5" font-family="Helvetica,sans-Serif" font-size="10.00">/home/runner/work/diffblue</text>
<text text-anchor="start" x="2043" y="-107.5" font-family="Helvetica,sans-Serif" font-size="10.00">&#45;cbmc/diffblue&#45;cbmc/src</text>
<text text-anchor="middle" x="2109.5" y="-96.5" font-family="Helvetica,sans-Serif" font-size="10.00">/util/unicode.h</text>
</a>
</g>
</g>
<!-- Node2 -->
<g id="node2" class="node">
<title>Node2</title>
<g id="a_node2"><a xlink:href="c__preprocess_8cpp.html" target="_top" xlink:title=" ">
<polygon fill="none" stroke="black" points="0,-6 0,-47 149,-47 149,-6 0,-6"/>
<text text-anchor="start" x="8" y="-35" font-family="Helvetica,sans-Serif" font-size="10.00">/home/runner/work/diffblue</text>
<text text-anchor="start" x="8" y="-24" font-family="Helvetica,sans-Serif" font-size="10.00">&#45;cbmc/diffblue&#45;cbmc/src</text>
<text text-anchor="middle" x="74.5" y="-13" font-family="Helvetica,sans-Serif" font-size="10.00">/ansi&#45;c/c_preprocess.cpp</text>
</a>
</g>
</g>
<!-- Node1&#45;&gt;Node2 -->
<g id="edge1" class="edge">
<title>Node1&#45;&gt;Node2</title>
<path fill="none" stroke="midnightblue" d="M2024.87,-107.91C1673.98,-103.23 343.1,-83.6 157.5,-53 148.87,-51.58 139.9,-49.49 131.17,-47.11"/>
<polygon fill="midnightblue" stroke="midnightblue" points="2024.92,-111.42 2034.97,-108.05 2025.01,-104.42 2024.92,-111.42"/>
</g>
<!-- Node3 -->
<g id="node3" class="node">
<title>Node3</title>
<g id="a_node3"><a xlink:href="convert__string__literal_8cpp.html" target="_top" xlink:title="C/C++ Language Conversion.">
<polygon fill="none" stroke="black" points="167,-0.5 167,-52.5 316,-52.5 316,-0.5 167,-0.5"/>
<text text-anchor="start" x="175" y="-40.5" font-family="Helvetica,sans-Serif" font-size="10.00">/home/runner/work/diffblue</text>
<text text-anchor="start" x="175" y="-29.5" font-family="Helvetica,sans-Serif" font-size="10.00">&#45;cbmc/diffblue&#45;cbmc/src</text>
<text text-anchor="start" x="175" y="-18.5" font-family="Helvetica,sans-Serif" font-size="10.00">/ansi&#45;c/literals/convert</text>
<text text-anchor="middle" x="241.5" y="-7.5" font-family="Helvetica,sans-Serif" font-size="10.00">_string_literal.cpp</text>
</a>
</g>
</g>
<!-- Node1&#45;&gt;Node3 -->
<g id="edge2" class="edge">
<title>Node1&#45;&gt;Node3</title>
<path fill="none" stroke="midnightblue" d="M2024.8,-109.33C1716.91,-110.06 657.73,-108.39 324.5,-53 321.82,-52.56 319.11,-52.05 316.39,-51.49"/>
<polygon fill="midnightblue" stroke="midnightblue" points="2025.01,-112.83 2035,-109.3 2024.99,-105.83 2025.01,-112.83"/>
</g>
<!-- Node4 -->
<g id="node4" class="node">
<title>Node4</title>
<g id="a_node4"><a xlink:href="unescape__string_8cpp.html" target="_top" xlink:title="ANSI&#45;C Language Conversion.">
<polygon fill="none" stroke="black" points="334,-0.5 334,-52.5 483,-52.5 483,-0.5 334,-0.5"/>
<text text-anchor="start" x="342" y="-40.5" font-family="Helvetica,sans-Serif" font-size="10.00">/home/runner/work/diffblue</text>
<text text-anchor="start" x="342" y="-29.5" font-family="Helvetica,sans-Serif" font-size="10.00">&#45;cbmc/diffblue&#45;cbmc/src</text>
<text text-anchor="start" x="342" y="-18.5" font-family="Helvetica,sans-Serif" font-size="10.00">/ansi&#45;c/literals/unescape</text>
<text text-anchor="middle" x="408.5" y="-7.5" font-family="Helvetica,sans-Serif" font-size="10.00">_string.cpp</text>
</a>
</g>
</g>
<!-- Node1&#45;&gt;Node4 -->
<g id="edge3" class="edge">
<title>Node1&#45;&gt;Node4</title>
<path fill="none" stroke="midnightblue" d="M2024.53,-109.01C1735.32,-108.56 790.61,-103.22 491.5,-53 488.82,-52.55 486.11,-52.04 483.39,-51.47"/>
<polygon fill="midnightblue" stroke="midnightblue" points="2024.53,-112.51 2034.54,-109.02 2024.54,-105.51 2024.53,-112.51"/>
</g>
<!-- Node5 -->
<g id="node5" class="node">
<title>Node5</title>
<g id="a_node5"><a xlink:href="cbmc__parse__options_8cpp.html" target="_top" xlink:title="CBMC Command Line Option Processing.">
<polygon fill="none" stroke="black" points="501,-6 501,-47 670,-47 670,-6 501,-6"/>
<text text-anchor="start" x="509" y="-35" font-family="Helvetica,sans-Serif" font-size="10.00">/home/runner/work/diffblue</text>
<text text-anchor="start" x="509" y="-24" font-family="Helvetica,sans-Serif" font-size="10.00">&#45;cbmc/diffblue&#45;cbmc/src</text>
<text text-anchor="middle" x="585.5" y="-13" font-family="Helvetica,sans-Serif" font-size="10.00">/cbmc/cbmc_parse_options.cpp</text>
</a>
</g>
</g>
<!-- Node1&#45;&gt;Node5 -->
<g id="edge4" class="edge">
<title>Node1&#45;&gt;Node5</title>
<path fill="none" stroke="midnightblue" d="M2024.26,-108.18C1757.54,-105.23 941.09,-93.08 679.5,-53 669.81,-51.51 659.68,-49.39 649.81,-47"/>
<polygon fill="midnightblue" stroke="midnightblue" points="2024.62,-111.69 2034.66,-108.3 2024.7,-104.69 2024.62,-111.69"/>
</g>
<!-- Node6 -->
<g id="node6" class="node">
<title>Node6</title>
<g id="a_node6"><a xlink:href="cprover__parse__options_8cpp.html" target="_top" xlink:title="cprover Command Line Options Processing">
<polygon fill="none" stroke="black" points="688.5,-6 688.5,-47 878.5,-47 878.5,-6 688.5,-6"/>
<text text-anchor="start" x="696.5" y="-35" font-family="Helvetica,sans-Serif" font-size="10.00">/home/runner/work/diffblue</text>
<text text-anchor="start" x="696.5" y="-24" font-family="Helvetica,sans-Serif" font-size="10.00">&#45;cbmc/diffblue&#45;cbmc/src</text>
<text text-anchor="middle" x="783.5" y="-13" font-family="Helvetica,sans-Serif" font-size="10.00">/cprover/cprover_parse_options.cpp</text>
</a>
</g>
</g>
<!-- Node1&#45;&gt;Node6 -->
<g id="edge5" class="edge">
<title>Node1&#45;&gt;Node6</title>
<path fill="none" stroke="midnightblue" d="M2024.96,-107.27C1785.82,-102.03 1107.68,-84.73 887.5,-53 877.01,-51.49 866.04,-49.39 855.32,-47.03"/>
<polygon fill="midnightblue" stroke="midnightblue" points="2024.91,-110.77 2034.99,-107.49 2025.07,-103.77 2024.91,-110.77"/>
</g>
<!-- Node7 -->
<g id="node7" class="node">
<title>Node7</title>
<g id="a_node7"><a xlink:href="show__on__source_8cpp.html" target="_top" xlink:title=" ">
<polygon fill="none" stroke="black" points="897,-6 897,-47 1088,-47 1088,-6 897,-6"/>
<text text-anchor="start" x="905" y="-35" font-family="Helvetica,sans-Serif" font-size="10.00">/home/runner/work/diffblue</text>
<text text-anchor="start" x="905" y="-24" font-family="Helvetica,sans-Serif" font-size="10.00">&#45;cbmc/diffblue&#45;cbmc/src</text>
<text text-anchor="middle" x="992.5" y="-13" font-family="Helvetica,sans-Serif" font-size="10.00">/goto&#45;analyzer/show_on_source.cpp</text>
</a>
</g>
</g>
<!-- Node1&#45;&gt;Node7 -->
<g id="edge6" class="edge">
<title>Node1&#45;&gt;Node7</title>
<path fill="none" stroke="midnightblue" d="M2024.61,-109.52C1850.01,-109.46 1438.42,-103.4 1097.5,-53 1087.11,-51.46 1076.24,-49.38 1065.6,-47.06"/>
<polygon fill="midnightblue" stroke="midnightblue" points="2024.76,-113.02 2034.76,-109.52 2024.75,-106.02 2024.76,-113.02"/>
</g>
<!-- Node8 -->
<g id="node8" class="node">
<title>Node8</title>
<g id="a_node8"><a xlink:href="cl__message__handler_8cpp.html" target="_top" xlink:title=" ">
<polygon fill="none" stroke="black" points="1106.5,-6 1106.5,-47 1284.5,-47 1284.5,-6 1106.5,-6"/>
<text text-anchor="start" x="1114.5" y="-35" font-family="Helvetica,sans-Serif" font-size="10.00">/home/runner/work/diffblue</text>
<text text-anchor="start" x="1114.5" y="-24" font-family="Helvetica,sans-Serif" font-size="10.00">&#45;cbmc/diffblue&#45;cbmc/src</text>
<text text-anchor="middle" x="1195.5" y="-13" font-family="Helvetica,sans-Serif" font-size="10.00">/goto&#45;cc/cl_message_handler.cpp</text>
</a>
</g>
</g>
<!-- Node1&#45;&gt;Node8 -->
<g id="edge7" class="edge">
<title>Node1&#45;&gt;Node8</title>
<path fill="none" stroke="midnightblue" d="M2024.89,-108.44C1875.89,-106.29 1557.36,-96.49 1292.5,-53 1282.96,-51.43 1273,-49.35 1263.25,-47.04"/>
<polygon fill="midnightblue" stroke="midnightblue" points="2024.84,-111.94 2034.89,-108.58 2024.94,-104.94 2024.84,-111.94"/>
</g>
<!-- Node9 -->
<g id="node9" class="node">
<title>Node9</title>
<g id="a_node9"><a xlink:href="compile_8cpp.html" target="_top" xlink:title="Compile and link source and object files.">
<polygon fill="none" stroke="black" points="1302,-6 1302,-47 1451,-47 1451,-6 1302,-6"/>
<text text-anchor="start" x="1310" y="-35" font-family="Helvetica,sans-Serif" font-size="10.00">/home/runner/work/diffblue</text>
<text text-anchor="start" x="1310" y="-24" font-family="Helvetica,sans-Serif" font-size="10.00">&#45;cbmc/diffblue&#45;cbmc/src</text>
<text text-anchor="middle" x="1376.5" y="-13" font-family="Helvetica,sans-Serif" font-size="10.00">/goto&#45;cc/compile.cpp</text>
</a>
</g>
</g>
<!-- Node1&#45;&gt;Node9 -->
<g id="edge8" class="edge">
<title>Node1&#45;&gt;Node9</title>
<path fill="none" stroke="midnightblue" d="M2024.45,-107.41C1899.52,-103.78 1659.57,-91.89 1459.5,-53 1451.36,-51.42 1442.89,-49.34 1434.6,-47.05"/>
<polygon fill="midnightblue" stroke="midnightblue" points="2024.61,-110.91 2034.7,-107.69 2024.81,-103.92 2024.61,-110.91"/>
</g>
<!-- Node10 -->
<g id="node10" class="node">
<title>Node10</title>
<g id="a_node10"><a xlink:href="gcc__message__handler_8cpp.html" target="_top" xlink:title=" ">
<polygon fill="none" stroke="black" points="1468.5,-6 1468.5,-47 1654.5,-47 1654.5,-6 1468.5,-6"/>
<text text-anchor="start" x="1476.5" y="-35" font-family="Helvetica,sans-Serif" font-size="10.00">/home/runner/work/diffblue</text>
<text text-anchor="start" x="1476.5" y="-24" font-family="Helvetica,sans-Serif" font-size="10.00">&#45;cbmc/diffblue&#45;cbmc/src</text>
<text text-anchor="middle" x="1561.5" y="-13" font-family="Helvetica,sans-Serif" font-size="10.00">/goto&#45;cc/gcc_message_handler.cpp</text>
</a>
</g>
</g>
<!-- Node1&#45;&gt;Node10 -->
<g id="edge9" class="edge">
<title>Node1&#45;&gt;Node10</title>
<path fill="none" stroke="midnightblue" d="M2024.74,-101.42C1934.67,-92.64 1788.33,-76.35 1663.5,-53 1654.26,-51.27 1644.61,-49.21 1635.09,-47.01"/>
<polygon fill="midnightblue" stroke="midnightblue" points="2024.61,-104.92 2034.9,-102.4 2025.28,-97.95 2024.61,-104.92"/>
</g>
<!-- Node11 -->
<g id="node11" class="node">
<title>Node11</title>
<g id="a_node11"><a xlink:href="ms__cl__cmdline_8cpp.html" target="_top" xlink:title="A special command line object for the CL options.">
<polygon fill="none" stroke="black" points="1672.5,-6 1672.5,-47 1824.5,-47 1824.5,-6 1672.5,-6"/>
<text text-anchor="start" x="1680.5" y="-35" font-family="Helvetica,sans-Serif" font-size="10.00">/home/runner/work/diffblue</text>
<text text-anchor="start" x="1680.5" y="-24" font-family="Helvetica,sans-Serif" font-size="10.00">&#45;cbmc/diffblue&#45;cbmc/src</text>
<text text-anchor="middle" x="1748.5" y="-13" font-family="Helvetica,sans-Serif" font-size="10.00">/goto&#45;cc/ms_cl_cmdline.cpp</text>
</a>
</g>
</g>
<!-- Node1&#45;&gt;Node11 -->
<g id="edge10" class="edge">
<title>Node1&#45;&gt;Node11</title>
<path fill="none" stroke="midnightblue" d="M2024.97,-93.92C1970.11,-83.62 1897.23,-68.99 1833.5,-53 1826.33,-51.2 1818.86,-49.18 1811.45,-47.08"/>
<polygon fill="midnightblue" stroke="midnightblue" points="2024.52,-97.4 2034.99,-95.79 2025.8,-90.52 2024.52,-97.4"/>
</g>
<!-- Node12 -->
<g id="node12" class="node">
<title>Node12</title>
<g id="a_node12"><a xlink:href="ms__link__cmdline_8cpp.html" target="_top" xlink:title="A special command line object for LINK options.">
<polygon fill="none" stroke="black" points="1843,-6 1843,-47 2004,-47 2004,-6 1843,-6"/>
<text text-anchor="start" x="1851" y="-35" font-family="Helvetica,sans-Serif" font-size="10.00">/home/runner/work/diffblue</text>
<text text-anchor="start" x="1851" y="-24" font-family="Helvetica,sans-Serif" font-size="10.00">&#45;cbmc/diffblue&#45;cbmc/src</text>
<text text-anchor="middle" x="1923.5" y="-13" font-family="Helvetica,sans-Serif" font-size="10.00">/goto&#45;cc/ms_link_cmdline.cpp</text>
</a>
</g>
</g>
<!-- Node1&#45;&gt;Node12 -->
<g id="edge11" class="edge">
<title>Node1&#45;&gt;Node12</title>
<path fill="none" stroke="midnightblue" d="M2055.75,-85.45C2027.93,-73.26 1994.36,-58.55 1968.01,-47"/>
<polygon fill="midnightblue" stroke="midnightblue" points="2054.38,-88.67 2064.95,-89.48 2057.19,-82.26 2054.38,-88.67"/>
</g>
<!-- Node13 -->
<g id="node13" class="node">
<title>Node13</title>
<g id="a_node13"><a xlink:href="solver__factory_8cpp.html" target="_top" xlink:title="Solver Factory.">
<polygon fill="none" stroke="black" points="2022.5,-6 2022.5,-47 2196.5,-47 2196.5,-6 2022.5,-6"/>
<text text-anchor="start" x="2030.5" y="-35" font-family="Helvetica,sans-Serif" font-size="10.00">/home/runner/work/diffblue</text>
<text text-anchor="start" x="2030.5" y="-24" font-family="Helvetica,sans-Serif" font-size="10.00">&#45;cbmc/diffblue&#45;cbmc/src</text>
<text text-anchor="middle" x="2109.5" y="-13" font-family="Helvetica,sans-Serif" font-size="10.00">/goto&#45;checker/solver_factory.cpp</text>
</a>
</g>
</g>
<!-- Node1&#45;&gt;Node13 -->
<g id="edge12" class="edge">
<title>Node1&#45;&gt;Node13</title>
<path fill="none" stroke="midnightblue" d="M2109.5,-79.06C2109.5,-68.38 2109.5,-56.63 2109.5,-47.05"/>
<polygon fill="midnightblue" stroke="midnightblue" points="2106,-79.27 2109.5,-89.27 2113,-79.27 2106,-79.27"/>
</g>
<!-- Node14 -->
<g id="node14" class="node">
<title>Node14</title>
<g id="a_node14"><a xlink:href="goto__instrument__parse__options_8cpp.html" target="_top" xlink:title="Main Module.">
<polygon fill="none" stroke="black" points="2214.5,-0.5 2214.5,-52.5 2396.5,-52.5 2396.5,-0.5 2214.5,-0.5"/>
<text text-anchor="start" x="2222.5" y="-40.5" font-family="Helvetica,sans-Serif" font-size="10.00">/home/runner/work/diffblue</text>
<text text-anchor="start" x="2222.5" y="-29.5" font-family="Helvetica,sans-Serif" font-size="10.00">&#45;cbmc/diffblue&#45;cbmc/src</text>
<text text-anchor="start" x="2222.5" y="-18.5" font-family="Helvetica,sans-Serif" font-size="10.00">/goto&#45;instrument/goto_instrument</text>
<text text-anchor="middle" x="2305.5" y="-7.5" font-family="Helvetica,sans-Serif" font-size="10.00">_parse_options.cpp</text>
</a>
</g>
</g>
<!-- Node1&#45;&gt;Node14 -->
<g id="edge13" class="edge">
<title>Node1&#45;&gt;Node14</title>
<path fill="none" stroke="midnightblue" d="M2165.74,-85.61C2190.61,-75.28 2219.88,-63.1 2245.19,-52.58"/>
<polygon fill="midnightblue" stroke="midnightblue" points="2164.34,-82.41 2156.45,-89.48 2167.02,-88.87 2164.34,-82.41"/>
</g>
<!-- Node15 -->
<g id="node15" class="node">
<title>Node15</title>
<g id="a_node15"><a xlink:href="unwindset_8cpp.html" target="_top" xlink:title=" ">
<polygon fill="none" stroke="black" points="2414.5,-6 2414.5,-47 2586.5,-47 2586.5,-6 2414.5,-6"/>
<text text-anchor="start" x="2422.5" y="-35" font-family="Helvetica,sans-Serif" font-size="10.00">/home/runner/work/diffblue</text>
<text text-anchor="start" x="2422.5" y="-24" font-family="Helvetica,sans-Serif" font-size="10.00">&#45;cbmc/diffblue&#45;cbmc/src</text>
<text text-anchor="middle" x="2500.5" y="-13" font-family="Helvetica,sans-Serif" font-size="10.00">/goto&#45;instrument/unwindset.cpp</text>
</a>
</g>
</g>
<!-- Node1&#45;&gt;Node15 -->
<g id="edge14" class="edge">
<title>Node1&#45;&gt;Node15</title>
<path fill="none" stroke="midnightblue" d="M2194.11,-94.74C2253.5,-84.3 2334.65,-69.19 2405.5,-53 2413.49,-51.17 2421.83,-49.14 2430.09,-47.03"/>
<polygon fill="midnightblue" stroke="midnightblue" points="2193.27,-91.33 2184.03,-96.5 2194.48,-98.23 2193.27,-91.33"/>
</g>
<!-- Node16 -->
<g id="node16" class="node">
<title>Node16</title>
<g id="a_node16"><a xlink:href="initialize__goto__model_8cpp.html" target="_top" xlink:title="Get a Goto Program.">
<polygon fill="none" stroke="black" points="2605,-0.5 2605,-52.5 2754,-52.5 2754,-0.5 2605,-0.5"/>
<text text-anchor="start" x="2613" y="-40.5" font-family="Helvetica,sans-Serif" font-size="10.00">/home/runner/work/diffblue</text>
<text text-anchor="start" x="2613" y="-29.5" font-family="Helvetica,sans-Serif" font-size="10.00">&#45;cbmc/diffblue&#45;cbmc/src</text>
<text text-anchor="start" x="2613" y="-18.5" font-family="Helvetica,sans-Serif" font-size="10.00">/goto&#45;programs/initialize</text>
<text text-anchor="middle" x="2679.5" y="-7.5" font-family="Helvetica,sans-Serif" font-size="10.00">_goto_model.cpp</text>
</a>
</g>
</g>
<!-- Node1&#45;&gt;Node16 -->
<g id="edge15" class="edge">
<title>Node1&#45;&gt;Node16</title>
<path fill="none" stroke="midnightblue" d="M2194.37,-103.87C2291.95,-96.9 2456.55,-81.85 2595.5,-53 2598.48,-52.38 2601.52,-51.7 2604.57,-50.98"/>
<polygon fill="midnightblue" stroke="midnightblue" points="2194,-100.38 2184.27,-104.58 2194.49,-107.37 2194,-100.38"/>
</g>
<!-- Node17 -->
<g id="node17" class="node">
<title>Node17</title>
<g id="a_node17"><a xlink:href="read__goto__binary_8cpp.html" target="_top" xlink:title="Read Goto Programs.">
<polygon fill="none" stroke="black" points="2772,-0.5 2772,-52.5 2921,-52.5 2921,-0.5 2772,-0.5"/>
<text text-anchor="start" x="2780" y="-40.5" font-family="Helvetica,sans-Serif" font-size="10.00">/home/runner/work/diffblue</text>
<text text-anchor="start" x="2780" y="-29.5" font-family="Helvetica,sans-Serif" font-size="10.00">&#45;cbmc/diffblue&#45;cbmc/src</text>
<text text-anchor="start" x="2780" y="-18.5" font-family="Helvetica,sans-Serif" font-size="10.00">/goto&#45;programs/read_goto</text>
<text text-anchor="middle" x="2846.5" y="-7.5" font-family="Helvetica,sans-Serif" font-size="10.00">_binary.cpp</text>
</a>
</g>
</g>
<!-- Node1&#45;&gt;Node17 -->
<g id="edge16" class="edge">
<title>Node1&#45;&gt;Node17</title>
<path fill="none" stroke="midnightblue" d="M2194.57,-107.47C2320.12,-103.92 2561.93,-92.13 2763.5,-53 2766.16,-52.48 2768.86,-51.91 2771.58,-51.3"/>
<polygon fill="midnightblue" stroke="midnightblue" points="2194.16,-103.98 2184.26,-107.75 2194.35,-110.98 2194.16,-103.98"/>
</g>
<!-- Node18 -->
<g id="node18" class="node">
<title>Node18</title>
<g id="a_node18"><a xlink:href="goto__synthesizer__parse__options_8cpp.html" target="_top" xlink:title="Main Module.">
<polygon fill="none" stroke="black" points="2939.5,-0.5 2939.5,-52.5 3127.5,-52.5 3127.5,-0.5 2939.5,-0.5"/>
<text text-anchor="start" x="2947.5" y="-40.5" font-family="Helvetica,sans-Serif" font-size="10.00">/home/runner/work/diffblue</text>
<text text-anchor="start" x="2947.5" y="-29.5" font-family="Helvetica,sans-Serif" font-size="10.00">&#45;cbmc/diffblue&#45;cbmc/src</text>
<text text-anchor="start" x="2947.5" y="-18.5" font-family="Helvetica,sans-Serif" font-size="10.00">/goto&#45;synthesizer/goto_synthesizer</text>
<text text-anchor="middle" x="3033.5" y="-7.5" font-family="Helvetica,sans-Serif" font-size="10.00">_parse_options.cpp</text>
</a>
</g>
</g>
<!-- Node1&#45;&gt;Node18 -->
<g id="edge17" class="edge">
<title>Node1&#45;&gt;Node18</title>
<path fill="none" stroke="midnightblue" d="M2194.17,-108.08C2343.68,-105.39 2663.86,-94.77 2930.5,-53 2933.41,-52.54 2936.36,-52.05 2939.33,-51.51"/>
<polygon fill="midnightblue" stroke="midnightblue" points="2194.07,-104.59 2184.14,-108.26 2194.2,-111.58 2194.07,-104.59"/>
</g>
<!-- Node19 -->
<g id="node19" class="node">
<title>Node19</title>
<g id="a_node19"><a xlink:href="string__constraint__generator__constants_8cpp.html" target="_top" xlink:title="Generates string constraints for constant strings.">
<polygon fill="none" stroke="black" points="3145.5,-0.5 3145.5,-52.5 3321.5,-52.5 3321.5,-0.5 3145.5,-0.5"/>
<text text-anchor="start" x="3153.5" y="-40.5" font-family="Helvetica,sans-Serif" font-size="10.00">/home/runner/work/diffblue</text>
<text text-anchor="start" x="3153.5" y="-29.5" font-family="Helvetica,sans-Serif" font-size="10.00">&#45;cbmc/diffblue&#45;cbmc/src</text>
<text text-anchor="start" x="3153.5" y="-18.5" font-family="Helvetica,sans-Serif" font-size="10.00">/solvers/strings/string_constraint</text>
<text text-anchor="middle" x="3233.5" y="-7.5" font-family="Helvetica,sans-Serif" font-size="10.00">_generator_constants.cpp</text>
</a>
</g>
</g>
<!-- Node1&#45;&gt;Node19 -->
<g id="edge18" class="edge">
<title>Node1&#45;&gt;Node19</title>
<path fill="none" stroke="midnightblue" d="M2194.34,-106.59C2406.46,-100.2 2955.78,-81.38 3136.5,-53 3139.42,-52.54 3142.39,-52.03 3145.37,-51.48"/>
<polygon fill="midnightblue" stroke="midnightblue" points="2194.08,-103.09 2184.19,-106.89 2194.29,-110.09 2194.08,-103.09"/>
</g>
<!-- Node20 -->
<g id="node20" class="node">
<title>Node20</title>
<g id="a_node20"><a xlink:href="string__refinement__util_8cpp.html" target="_top" xlink:title=" ">
<polygon fill="none" stroke="black" points="3339.5,-0.5 3339.5,-52.5 3519.5,-52.5 3519.5,-0.5 3339.5,-0.5"/>
<text text-anchor="start" x="3347.5" y="-40.5" font-family="Helvetica,sans-Serif" font-size="10.00">/home/runner/work/diffblue</text>
<text text-anchor="start" x="3347.5" y="-29.5" font-family="Helvetica,sans-Serif" font-size="10.00">&#45;cbmc/diffblue&#45;cbmc/src</text>
<text text-anchor="start" x="3347.5" y="-18.5" font-family="Helvetica,sans-Serif" font-size="10.00">/solvers/strings/string_refinement</text>
<text text-anchor="middle" x="3429.5" y="-7.5" font-family="Helvetica,sans-Serif" font-size="10.00">_util.cpp</text>
</a>
</g>
</g>
<!-- Node1&#45;&gt;Node20 -->
<g id="edge19" class="edge">
<title>Node1&#45;&gt;Node20</title>
<path fill="none" stroke="midnightblue" d="M2194.42,-107.38C2433.78,-102.47 3110.82,-85.97 3330.5,-53 3333.4,-52.57 3336.33,-52.08 3339.29,-51.55"/>
<polygon fill="midnightblue" stroke="midnightblue" points="2194.3,-103.89 2184.37,-107.59 2194.44,-110.88 2194.3,-103.89"/>
</g>
<!-- Node21 -->
<g id="node21" class="node">
<title>Node21</title>
<g id="a_node21"><a xlink:href="unicode_8cpp.html" target="_top" xlink:title=" ">
<polygon fill="none" stroke="black" points="3538,-6 3538,-47 3687,-47 3687,-6 3538,-6"/>
<text text-anchor="start" x="3546" y="-35" font-family="Helvetica,sans-Serif" font-size="10.00">/home/runner/work/diffblue</text>
<text text-anchor="start" x="3546" y="-24" font-family="Helvetica,sans-Serif" font-size="10.00">&#45;cbmc/diffblue&#45;cbmc/src</text>
<text text-anchor="middle" x="3612.5" y="-13" font-family="Helvetica,sans-Serif" font-size="10.00">/util/unicode.cpp</text>
</a>
</g>
</g>
<!-- Node1&#45;&gt;Node21 -->
<g id="edge20" class="edge">
<title>Node1&#45;&gt;Node21</title>
<path fill="none" stroke="midnightblue" d="M2194.59,-108.48C2459.9,-106.43 3269.7,-96.65 3528.5,-53 3537.22,-51.53 3546.29,-49.42 3555.12,-47.03"/>
<polygon fill="midnightblue" stroke="midnightblue" points="2194.23,-104.99 2184.25,-108.56 2194.28,-111.99 2194.23,-104.99"/>
</g>
<!-- Node22 -->
<g id="node22" class="node">
<title>Node22</title>
<g id="a_node22"><a xlink:href="assignments__from__json_8cpp.html" target="_top" xlink:title=" ">
<polygon fill="none" stroke="black" points="3705,-0.5 3705,-52.5 3878,-52.5 3878,-0.5 3705,-0.5"/>
<text text-anchor="start" x="3713" y="-40.5" font-family="Helvetica,sans-Serif" font-size="10.00">/home/runner/work/diffblue</text>
<text text-anchor="start" x="3713" y="-29.5" font-family="Helvetica,sans-Serif" font-size="10.00">&#45;cbmc/diffblue&#45;cbmc/jbmc</text>
<text text-anchor="start" x="3713" y="-18.5" font-family="Helvetica,sans-Serif" font-size="10.00">/src/java_bytecode/assignments</text>
<text text-anchor="middle" x="3791.5" y="-7.5" font-family="Helvetica,sans-Serif" font-size="10.00">_from_json.cpp</text>
</a>
</g>
</g>
<!-- Node1&#45;&gt;Node22 -->
<g id="edge21" class="edge">
<title>Node1&#45;&gt;Node22</title>
<path fill="none" stroke="midnightblue" d="M2194.67,-108.54C2480.34,-106.6 3402.94,-96.99 3696.5,-53 3699.29,-52.58 3702.11,-52.11 3704.95,-51.6"/>
<polygon fill="midnightblue" stroke="midnightblue" points="2194.35,-105.04 2184.38,-108.61 2194.4,-112.04 2194.35,-105.04"/>
</g>
<!-- Node23 -->
<g id="node23" class="node">
<title>Node23</title>
<g id="a_node23"><a xlink:href="expr2java_8cpp.html" target="_top" xlink:title=" ">
<polygon fill="none" stroke="black" points="3896.5,-6 3896.5,-47 4076.5,-47 4076.5,-6 3896.5,-6"/>
<text text-anchor="start" x="3904.5" y="-35" font-family="Helvetica,sans-Serif" font-size="10.00">/home/runner/work/diffblue</text>
<text text-anchor="start" x="3904.5" y="-24" font-family="Helvetica,sans-Serif" font-size="10.00">&#45;cbmc/diffblue&#45;cbmc/jbmc</text>
<text text-anchor="middle" x="3986.5" y="-13" font-family="Helvetica,sans-Serif" font-size="10.00">/src/java_bytecode/expr2java.cpp</text>
</a>
</g>
</g>
<!-- Node1&#45;&gt;Node23 -->
<g id="edge22" class="edge">
<title>Node1&#45;&gt;Node23</title>
<path fill="none" stroke="midnightblue" d="M2194.31,-108.81C2501.4,-107.72 3554.59,-100.52 3887.5,-53 3897.69,-51.55 3908.35,-49.44 3918.73,-47.06"/>
<polygon fill="midnightblue" stroke="midnightblue" points="2194.13,-105.31 2184.14,-108.84 2194.15,-112.31 2194.13,-105.31"/>
</g>
<!-- Node24 -->
<g id="node24" class="node">
<title>Node24</title>
<g id="a_node24"><a xlink:href="java__string__literals_8cpp.html" target="_top" xlink:title=" ">
<polygon fill="none" stroke="black" points="4095,-0.5 4095,-52.5 4260,-52.5 4260,-0.5 4095,-0.5"/>
<text text-anchor="start" x="4103" y="-40.5" font-family="Helvetica,sans-Serif" font-size="10.00">/home/runner/work/diffblue</text>
<text text-anchor="start" x="4103" y="-29.5" font-family="Helvetica,sans-Serif" font-size="10.00">&#45;cbmc/diffblue&#45;cbmc/jbmc</text>
<text text-anchor="start" x="4103" y="-18.5" font-family="Helvetica,sans-Serif" font-size="10.00">/src/java_bytecode/java_string</text>
<text text-anchor="middle" x="4177.5" y="-7.5" font-family="Helvetica,sans-Serif" font-size="10.00">_literals.cpp</text>
</a>
</g>
</g>
<!-- Node1&#45;&gt;Node24 -->
<g id="edge23" class="edge">
<title>Node1&#45;&gt;Node24</title>
<path fill="none" stroke="midnightblue" d="M2194.48,-109.32C2523.34,-110.15 3712.53,-109.12 4085.5,-53 4088.61,-52.53 4091.77,-51.99 4094.95,-51.39"/>
<polygon fill="midnightblue" stroke="midnightblue" points="2194.09,-105.82 2184.08,-109.3 2194.07,-112.82 2194.09,-105.82"/>
</g>
</g>
</svg>
