<?xml version="1.0" encoding="UTF-8" standalone="no"?>
<!DOCTYPE svg PUBLIC "-//W3C//DTD SVG 1.1//EN"
 "http://www.w3.org/Graphics/SVG/1.1/DTD/svg11.dtd">
<!-- Generated by graphviz version 2.43.0 (0)
 -->
<!-- Title: /home/runner/work/diffblue&#45;cbmc/diffblue&#45;cbmc/src/goto&#45;instrument/uninitialized.h Pages: 1 -->
<svg width="590pt" height="228pt"
 viewBox="0.00 0.00 590.00 228.00" xmlns="http://www.w3.org/2000/svg" xmlns:xlink="http://www.w3.org/1999/xlink">
<g id="graph0" class="graph" transform="scale(1 1) rotate(0) translate(4 224)">
<title>/home/runner/work/diffblue&#45;cbmc/diffblue&#45;cbmc/src/goto&#45;instrument/uninitialized.h</title>
<!-- Node1 -->
<g id="node1" class="node">
<title>Node1</title>
<g id="a_node1"><a xlink:title="Detection for Uninitialized Local Variables.">
<polygon fill="#bfbfbf" stroke="black" points="306,-178.5 306,-219.5 476,-219.5 476,-178.5 306,-178.5"/>
<text text-anchor="start" x="314" y="-207.5" font-family="Helvetica,sans-Serif" font-size="10.00">/home/runner/work/diffblue</text>
<text text-anchor="start" x="314" y="-196.5" font-family="Helvetica,sans-Serif" font-size="10.00">&#45;cbmc/diffblue&#45;cbmc/src</text>
<text text-anchor="middle" x="391" y="-185.5" font-family="Helvetica,sans-Serif" font-size="10.00">/goto&#45;instrument/uninitialized.h</text>
</a>
</g>
</g>
<!-- Node2 -->
<g id="node2" class="node">
<title>Node2</title>
<g id="a_node2"><a xlink:href="goto__instrument__parse__options_8h.html" target="_top" xlink:title="Command Line Parsing.">
<polygon fill="none" stroke="black" points="200,-89.5 200,-141.5 382,-141.5 382,-89.5 200,-89.5"/>
<text text-anchor="start" x="208" y="-129.5" font-family="Helvetica,sans-Serif" font-size="10.00">/home/runner/work/diffblue</text>
<text text-anchor="start" x="208" y="-118.5" font-family="Helvetica,sans-Serif" font-size="10.00">&#45;cbmc/diffblue&#45;cbmc/src</text>
<text text-anchor="start" x="208" y="-107.5" font-family="Helvetica,sans-Serif" font-size="10.00">/goto&#45;instrument/goto_instrument</text>
<text text-anchor="middle" x="291" y="-96.5" font-family="Helvetica,sans-Serif" font-size="10.00">_parse_options.h</text>
</a>
</g>
</g>
<!-- Node1&#45;&gt;Node2 -->
<g id="edge1" class="edge">
<title>Node1&#45;&gt;Node2</title>
<path fill="none" stroke="midnightblue" d="M359.11,-172.01C347.22,-162.32 333.76,-151.35 321.95,-141.73"/>
<polygon fill="midnightblue" stroke="midnightblue" points="357.08,-174.87 367.05,-178.48 361.51,-169.45 357.08,-174.87"/>
</g>
<!-- Node6 -->
<g id="node6" class="node">
<title>Node6</title>
<g id="a_node6"><a xlink:href="uninitialized_8cpp.html" target="_top" xlink:title="Detection for Uninitialized Local Variables.">
<polygon fill="none" stroke="black" points="400,-95 400,-136 582,-136 582,-95 400,-95"/>
<text text-anchor="start" x="408" y="-124" font-family="Helvetica,sans-Serif" font-size="10.00">/home/runner/work/diffblue</text>
<text text-anchor="start" x="408" y="-113" font-family="Helvetica,sans-Serif" font-size="10.00">&#45;cbmc/diffblue&#45;cbmc/src</text>
<text text-anchor="middle" x="491" y="-102" font-family="Helvetica,sans-Serif" font-size="10.00">/goto&#45;instrument/uninitialized.cpp</text>
</a>
</g>
</g>
<!-- Node1&#45;&gt;Node6 -->
<g id="edge5" class="edge">
<title>Node1&#45;&gt;Node6</title>
<path fill="none" stroke="midnightblue" d="M423.03,-171.89C437.26,-160.3 453.73,-146.87 466.9,-136.14"/>
<polygon fill="midnightblue" stroke="midnightblue" points="420.49,-169.45 414.95,-178.48 424.92,-174.87 420.49,-169.45"/>
</g>
<!-- Node3 -->
<g id="node3" class="node">
<title>Node3</title>
<g id="a_node3"><a xlink:href="goto__instrument__languages_8cpp.html" target="_top" xlink:title="Language Registration.">
<polygon fill="none" stroke="black" points="0,-0.5 0,-52.5 182,-52.5 182,-0.5 0,-0.5"/>
<text text-anchor="start" x="8" y="-40.5" font-family="Helvetica,sans-Serif" font-size="10.00">/home/runner/work/diffblue</text>
<text text-anchor="start" x="8" y="-29.5" font-family="Helvetica,sans-Serif" font-size="10.00">&#45;cbmc/diffblue&#45;cbmc/src</text>
<text text-anchor="start" x="8" y="-18.5" font-family="Helvetica,sans-Serif" font-size="10.00">/goto&#45;instrument/goto_instrument</text>
<text text-anchor="middle" x="91" y="-7.5" font-family="Helvetica,sans-Serif" font-size="10.00">_languages.cpp</text>
</a>
</g>
</g>
<!-- Node2&#45;&gt;Node3 -->
<g id="edge2" class="edge">
<title>Node2&#45;&gt;Node3</title>
<path fill="none" stroke="midnightblue" d="M224.19,-85.44C199.67,-74.77 172.15,-62.8 148.52,-52.52"/>
<polygon fill="midnightblue" stroke="midnightblue" points="222.85,-88.67 233.42,-89.45 225.65,-82.25 222.85,-88.67"/>
</g>
<!-- Node4 -->
<g id="node4" class="node">
<title>Node4</title>
<g id="a_node4"><a xlink:href="goto__instrument__main_8cpp.html" target="_top" xlink:title="Main Module.">
<polygon fill="none" stroke="black" points="200,-0.5 200,-52.5 382,-52.5 382,-0.5 200,-0.5"/>
<text text-anchor="start" x="208" y="-40.5" font-family="Helvetica,sans-Serif" font-size="10.00">/home/runner/work/diffblue</text>
<text text-anchor="start" x="208" y="-29.5" font-family="Helvetica,sans-Serif" font-size="10.00">&#45;cbmc/diffblue&#45;cbmc/src</text>
<text text-anchor="start" x="208" y="-18.5" font-family="Helvetica,sans-Serif" font-size="10.00">/goto&#45;instrument/goto_instrument</text>
<text text-anchor="middle" x="291" y="-7.5" font-family="Helvetica,sans-Serif" font-size="10.00">_main.cpp</text>
</a>
</g>
</g>
<!-- Node2&#45;&gt;Node4 -->
<g id="edge3" class="edge">
<title>Node2&#45;&gt;Node4</title>
<path fill="none" stroke="midnightblue" d="M291,-79.19C291,-70.28 291,-60.9 291,-52.61"/>
<polygon fill="midnightblue" stroke="midnightblue" points="287.5,-79.34 291,-89.34 294.5,-79.34 287.5,-79.34"/>
</g>
<!-- Node5 -->
<g id="node5" class="node">
<title>Node5</title>
<g id="a_node5"><a xlink:href="goto__instrument__parse__options_8cpp.html" target="_top" xlink:title="Main Module.">
<polygon fill="none" stroke="black" points="400,-0.5 400,-52.5 582,-52.5 582,-0.5 400,-0.5"/>
<text text-anchor="start" x="408" y="-40.5" font-family="Helvetica,sans-Serif" font-size="10.00">/home/runner/work/diffblue</text>
<text text-anchor="start" x="408" y="-29.5" font-family="Helvetica,sans-Serif" font-size="10.00">&#45;cbmc/diffblue&#45;cbmc/src</text>
<text text-anchor="start" x="408" y="-18.5" font-family="Helvetica,sans-Serif" font-size="10.00">/goto&#45;instrument/goto_instrument</text>
<text text-anchor="middle" x="491" y="-7.5" font-family="Helvetica,sans-Serif" font-size="10.00">_parse_options.cpp</text>
</a>
</g>
</g>
<!-- Node2&#45;&gt;Node5 -->
<g id="edge4" class="edge">
<title>Node2&#45;&gt;Node5</title>
<path fill="none" stroke="midnightblue" d="M357.81,-85.44C382.33,-74.77 409.85,-62.8 433.48,-52.52"/>
<polygon fill="midnightblue" stroke="midnightblue" points="356.35,-82.25 348.58,-89.45 359.15,-88.67 356.35,-82.25"/>
</g>
</g>
</svg>
