<?xml version="1.0" encoding="UTF-8" standalone="no"?>
<!DOCTYPE svg PUBLIC "-//W3C//DTD SVG 1.1//EN"
 "http://www.w3.org/Graphics/SVG/1.1/DTD/svg11.dtd">
<!-- Generated by graphviz version 2.43.0 (0)
 -->
<!-- Title: /home/runner/work/diffblue&#45;cbmc/diffblue&#45;cbmc/src/util/union_find.h Pages: 1 -->
<svg width="358pt" height="218pt"
 viewBox="0.00 0.00 358.00 218.00" xmlns="http://www.w3.org/2000/svg" xmlns:xlink="http://www.w3.org/1999/xlink">
<g id="graph0" class="graph" transform="scale(1 1) rotate(0) translate(4 214)">
<title>/home/runner/work/diffblue&#45;cbmc/diffblue&#45;cbmc/src/util/union_find.h</title>
<!-- Node1 -->
<g id="node1" class="node">
<title>Node1</title>
<g id="a_node1"><a xlink:title=" ">
<polygon fill="#bfbfbf" stroke="black" points="45,-168.5 45,-209.5 194,-209.5 194,-168.5 45,-168.5"/>
<text text-anchor="start" x="53" y="-197.5" font-family="Helvetica,sans-Serif" font-size="10.00">/home/runner/work/diffblue</text>
<text text-anchor="start" x="53" y="-186.5" font-family="Helvetica,sans-Serif" font-size="10.00">&#45;cbmc/diffblue&#45;cbmc/src</text>
<text text-anchor="middle" x="119.5" y="-175.5" font-family="Helvetica,sans-Serif" font-size="10.00">/util/union_find.h</text>
</a>
</g>
</g>
<!-- Node2 -->
<g id="node2" class="node">
<title>Node2</title>
<g id="a_node2"><a xlink:title=" ">
<polygon fill="none" stroke="#bfbfbf" points="30,-56.5 30,-75.5 77,-75.5 77,-56.5 30,-56.5"/>
<text text-anchor="middle" x="53.5" y="-63.5" font-family="Helvetica,sans-Serif" font-size="10.00">vector</text>
</a>
</g>
</g>
<!-- Node1&#45;&gt;Node2 -->
<g id="edge1" class="edge">
<title>Node1&#45;&gt;Node2</title>
<path fill="none" stroke="midnightblue" d="M108.75,-168.29C96.08,-145.06 75.22,-106.82 63.08,-84.56"/>
<polygon fill="midnightblue" stroke="midnightblue" points="66.04,-82.68 58.18,-75.57 59.89,-86.03 66.04,-82.68"/>
</g>
<!-- Node3 -->
<g id="node3" class="node">
<title>Node3</title>
<g id="a_node3"><a xlink:href="src_2util_2invariant_8h.html" target="_top" xlink:title=" ">
<polygon fill="none" stroke="black" points="95,-56.5 95,-75.5 164,-75.5 164,-56.5 95,-56.5"/>
<text text-anchor="middle" x="129.5" y="-63.5" font-family="Helvetica,sans-Serif" font-size="10.00">invariant.h</text>
</a>
</g>
</g>
<!-- Node1&#45;&gt;Node3 -->
<g id="edge2" class="edge">
<title>Node1&#45;&gt;Node3</title>
<path fill="none" stroke="midnightblue" d="M121.13,-168.29C123.01,-145.48 126.1,-108.19 127.95,-85.78"/>
<polygon fill="midnightblue" stroke="midnightblue" points="131.46,-85.83 128.79,-75.57 124.48,-85.25 131.46,-85.83"/>
</g>
<!-- Node8 -->
<g id="node8" class="node">
<title>Node8</title>
<g id="a_node8"><a xlink:href="numbering_8h.html" target="_top" xlink:title=" ">
<polygon fill="none" stroke="black" points="147.5,-112.5 147.5,-131.5 225.5,-131.5 225.5,-112.5 147.5,-112.5"/>
<text text-anchor="middle" x="186.5" y="-119.5" font-family="Helvetica,sans-Serif" font-size="10.00">numbering.h</text>
</a>
</g>
</g>
<!-- Node1&#45;&gt;Node8 -->
<g id="edge7" class="edge">
<title>Node1&#45;&gt;Node8</title>
<path fill="none" stroke="midnightblue" d="M139.6,-168.5C149.38,-159.01 160.98,-147.76 170.2,-138.81"/>
<polygon fill="midnightblue" stroke="midnightblue" points="172.84,-141.13 177.58,-131.65 167.97,-136.1 172.84,-141.13"/>
</g>
<!-- Node4 -->
<g id="node4" class="node">
<title>Node4</title>
<g id="a_node4"><a xlink:title=" ">
<polygon fill="none" stroke="#bfbfbf" points="0,-0.5 0,-19.5 49,-19.5 49,-0.5 0,-0.5"/>
<text text-anchor="middle" x="24.5" y="-7.5" font-family="Helvetica,sans-Serif" font-size="10.00">cstdlib</text>
</a>
</g>
</g>
<!-- Node3&#45;&gt;Node4 -->
<g id="edge3" class="edge">
<title>Node3&#45;&gt;Node4</title>
<path fill="none" stroke="midnightblue" d="M112.63,-56.32C95.79,-47.66 69.69,-34.24 50.26,-24.25"/>
<polygon fill="midnightblue" stroke="midnightblue" points="51.82,-21.12 41.33,-19.65 48.62,-27.34 51.82,-21.12"/>
</g>
<!-- Node5 -->
<g id="node5" class="node">
<title>Node5</title>
<g id="a_node5"><a xlink:title=" ">
<polygon fill="none" stroke="#bfbfbf" points="67.5,-0.5 67.5,-19.5 123.5,-19.5 123.5,-0.5 67.5,-0.5"/>
<text text-anchor="middle" x="95.5" y="-7.5" font-family="Helvetica,sans-Serif" font-size="10.00">sstream</text>
</a>
</g>
</g>
<!-- Node3&#45;&gt;Node5 -->
<g id="edge4" class="edge">
<title>Node3&#45;&gt;Node5</title>
<path fill="none" stroke="midnightblue" d="M123.89,-56.08C119.13,-48.53 112.18,-37.49 106.35,-28.23"/>
<polygon fill="midnightblue" stroke="midnightblue" points="109.3,-26.35 101.01,-19.75 103.38,-30.08 109.3,-26.35"/>
</g>
<!-- Node6 -->
<g id="node6" class="node">
<title>Node6</title>
<g id="a_node6"><a xlink:title=" ">
<polygon fill="none" stroke="#bfbfbf" points="141.5,-0.5 141.5,-19.5 185.5,-19.5 185.5,-0.5 141.5,-0.5"/>
<text text-anchor="middle" x="163.5" y="-7.5" font-family="Helvetica,sans-Serif" font-size="10.00">string</text>
</a>
</g>
</g>
<!-- Node3&#45;&gt;Node6 -->
<g id="edge5" class="edge">
<title>Node3&#45;&gt;Node6</title>
<path fill="none" stroke="midnightblue" d="M135.11,-56.08C139.87,-48.53 146.82,-37.49 152.65,-28.23"/>
<polygon fill="midnightblue" stroke="midnightblue" points="155.62,-30.08 157.99,-19.75 149.7,-26.35 155.62,-30.08"/>
</g>
<!-- Node7 -->
<g id="node7" class="node">
<title>Node7</title>
<g id="a_node7"><a xlink:title=" ">
<polygon fill="none" stroke="#bfbfbf" points="204,-0.5 204,-19.5 273,-19.5 273,-0.5 204,-0.5"/>
<text text-anchor="middle" x="238.5" y="-7.5" font-family="Helvetica,sans-Serif" font-size="10.00">type_traits</text>
</a>
</g>
</g>
<!-- Node3&#45;&gt;Node7 -->
<g id="edge6" class="edge">
<title>Node3&#45;&gt;Node7</title>
<path fill="none" stroke="midnightblue" d="M147.01,-56.32C164.57,-47.62 191.83,-34.12 212.03,-24.11"/>
<polygon fill="midnightblue" stroke="midnightblue" points="213.62,-27.23 221.03,-19.65 210.52,-20.96 213.62,-27.23"/>
</g>
<!-- Node8&#45;&gt;Node2 -->
<g id="edge11" class="edge">
<title>Node8&#45;&gt;Node2</title>
<path fill="none" stroke="midnightblue" d="M165.43,-112.44C143.44,-103.52 108.77,-89.44 83.84,-79.32"/>
<polygon fill="midnightblue" stroke="midnightblue" points="85.06,-76.04 74.48,-75.52 82.42,-82.52 85.06,-76.04"/>
</g>
<!-- Node8&#45;&gt;Node3 -->
<g id="edge8" class="edge">
<title>Node8&#45;&gt;Node3</title>
<path fill="none" stroke="midnightblue" d="M177.34,-112.32C169,-104.42 156.47,-92.55 146.32,-82.94"/>
<polygon fill="midnightblue" stroke="midnightblue" points="148.49,-80.17 138.82,-75.83 143.68,-85.25 148.49,-80.17"/>
</g>
<!-- Node9 -->
<g id="node9" class="node">
<title>Node9</title>
<g id="a_node9"><a xlink:title=" ">
<polygon fill="none" stroke="#bfbfbf" points="182.5,-56.5 182.5,-75.5 238.5,-75.5 238.5,-56.5 182.5,-56.5"/>
<text text-anchor="middle" x="210.5" y="-63.5" font-family="Helvetica,sans-Serif" font-size="10.00">optional</text>
</a>
</g>
</g>
<!-- Node8&#45;&gt;Node9 -->
<g id="edge9" class="edge">
<title>Node8&#45;&gt;Node9</title>
<path fill="none" stroke="midnightblue" d="M190.46,-112.08C193.71,-104.77 198.42,-94.18 202.45,-85.1"/>
<polygon fill="midnightblue" stroke="midnightblue" points="205.75,-86.31 206.61,-75.75 199.35,-83.47 205.75,-86.31"/>
</g>
<!-- Node10 -->
<g id="node10" class="node">
<title>Node10</title>
<g id="a_node10"><a xlink:title=" ">
<polygon fill="none" stroke="#bfbfbf" points="257,-56.5 257,-75.5 350,-75.5 350,-56.5 257,-56.5"/>
<text text-anchor="middle" x="303.5" y="-63.5" font-family="Helvetica,sans-Serif" font-size="10.00">unordered_map</text>
</a>
</g>
</g>
<!-- Node8&#45;&gt;Node10 -->
<g id="edge10" class="edge">
<title>Node8&#45;&gt;Node10</title>
<path fill="none" stroke="midnightblue" d="M205.04,-112.44C224.12,-103.64 254.07,-89.81 275.94,-79.72"/>
<polygon fill="midnightblue" stroke="midnightblue" points="277.43,-82.88 285.05,-75.52 274.5,-76.53 277.43,-82.88"/>
</g>
</g>
</svg>
