<?xml version="1.0" encoding="UTF-8" standalone="no"?>
<!DOCTYPE svg PUBLIC "-//W3C//DTD SVG 1.1//EN"
 "http://www.w3.org/Graphics/SVG/1.1/DTD/svg11.dtd">
<!-- Generated by graphviz version 2.43.0 (0)
 -->
<!-- Title: /home/runner/work/diffblue&#45;cbmc/diffblue&#45;cbmc/src/goto&#45;instrument/contracts/utils.h Pages: 1 -->
<svg width="3668pt" height="428pt"
 viewBox="0.00 0.00 3667.70 428.00" xmlns="http://www.w3.org/2000/svg" xmlns:xlink="http://www.w3.org/1999/xlink">
<g id="graph0" class="graph" transform="scale(1 1) rotate(0) translate(4 424)">
<title>/home/runner/work/diffblue&#45;cbmc/diffblue&#45;cbmc/src/goto&#45;instrument/contracts/utils.h</title>
<!-- Node1 -->
<g id="node1" class="node">
<title>Node1</title>
<g id="a_node1"><a xlink:title=" ">
<polygon fill="#bfbfbf" stroke="black" points="1848,-367.5 1848,-419.5 1997,-419.5 1997,-367.5 1848,-367.5"/>
<text text-anchor="start" x="1856" y="-407.5" font-family="Helvetica,sans-Serif" font-size="10.00">/home/runner/work/diffblue</text>
<text text-anchor="start" x="1856" y="-396.5" font-family="Helvetica,sans-Serif" font-size="10.00">&#45;cbmc/diffblue&#45;cbmc/src</text>
<text text-anchor="start" x="1856" y="-385.5" font-family="Helvetica,sans-Serif" font-size="10.00">/goto&#45;instrument/contracts</text>
<text text-anchor="middle" x="1922.5" y="-374.5" font-family="Helvetica,sans-Serif" font-size="10.00">/utils.h</text>
</a>
</g>
</g>
<!-- Node2 -->
<g id="node2" class="node">
<title>Node2</title>
<g id="a_node2"><a xlink:href="contracts_8cpp.html" target="_top" xlink:title="Verify and use annotated loop and function contracts.">
<polygon fill="none" stroke="black" points="0,-273 0,-325 149,-325 149,-273 0,-273"/>
<text text-anchor="start" x="8" y="-313" font-family="Helvetica,sans-Serif" font-size="10.00">/home/runner/work/diffblue</text>
<text text-anchor="start" x="8" y="-302" font-family="Helvetica,sans-Serif" font-size="10.00">&#45;cbmc/diffblue&#45;cbmc/src</text>
<text text-anchor="start" x="8" y="-291" font-family="Helvetica,sans-Serif" font-size="10.00">/goto&#45;instrument/contracts</text>
<text text-anchor="middle" x="74.5" y="-280" font-family="Helvetica,sans-Serif" font-size="10.00">/contracts.cpp</text>
</a>
</g>
</g>
<!-- Node1&#45;&gt;Node2 -->
<g id="edge1" class="edge">
<title>Node1&#45;&gt;Node2</title>
<path fill="none" stroke="midnightblue" d="M1837.36,-391.14C1507.37,-385.66 322.89,-363.86 157.5,-331 149.96,-329.5 142.19,-327.41 134.58,-325"/>
<polygon fill="midnightblue" stroke="midnightblue" points="1837.75,-394.65 1847.8,-391.32 1837.86,-387.65 1837.75,-394.65"/>
</g>
<!-- Node3 -->
<g id="node3" class="node">
<title>Node3</title>
<g id="a_node3"><a xlink:href="contracts__wrangler_8cpp.html" target="_top" xlink:title="Parse and annotate contracts.">
<polygon fill="none" stroke="black" points="167,-273 167,-325 316,-325 316,-273 167,-273"/>
<text text-anchor="start" x="175" y="-313" font-family="Helvetica,sans-Serif" font-size="10.00">/home/runner/work/diffblue</text>
<text text-anchor="start" x="175" y="-302" font-family="Helvetica,sans-Serif" font-size="10.00">&#45;cbmc/diffblue&#45;cbmc/src</text>
<text text-anchor="start" x="175" y="-291" font-family="Helvetica,sans-Serif" font-size="10.00">/goto&#45;instrument/contracts</text>
<text text-anchor="middle" x="241.5" y="-280" font-family="Helvetica,sans-Serif" font-size="10.00">/contracts_wrangler.cpp</text>
</a>
</g>
</g>
<!-- Node1&#45;&gt;Node3 -->
<g id="edge2" class="edge">
<title>Node1&#45;&gt;Node3</title>
<path fill="none" stroke="midnightblue" d="M1837.54,-392.79C1550.43,-393.2 617.93,-389.86 324.5,-331 317.11,-329.52 309.51,-327.47 302.05,-325.12"/>
<polygon fill="midnightblue" stroke="midnightblue" points="1837.89,-396.29 1847.88,-392.77 1837.88,-389.29 1837.89,-396.29"/>
</g>
<!-- Node4 -->
<g id="node4" class="node">
<title>Node4</title>
<g id="a_node4"><a xlink:href="dfcc_8cpp.html" target="_top" xlink:title=" ">
<polygon fill="none" stroke="black" points="334,-273 334,-325 483,-325 483,-273 334,-273"/>
<text text-anchor="start" x="342" y="-313" font-family="Helvetica,sans-Serif" font-size="10.00">/home/runner/work/diffblue</text>
<text text-anchor="start" x="342" y="-302" font-family="Helvetica,sans-Serif" font-size="10.00">&#45;cbmc/diffblue&#45;cbmc/src</text>
<text text-anchor="start" x="342" y="-291" font-family="Helvetica,sans-Serif" font-size="10.00">/goto&#45;instrument/contracts</text>
<text text-anchor="middle" x="408.5" y="-280" font-family="Helvetica,sans-Serif" font-size="10.00">/dynamic&#45;frames/dfcc.cpp</text>
</a>
</g>
</g>
<!-- Node1&#45;&gt;Node4 -->
<g id="edge3" class="edge">
<title>Node1&#45;&gt;Node4</title>
<path fill="none" stroke="midnightblue" d="M1837.55,-392.29C1570.79,-391.1 752.15,-383.16 492.5,-331 485.03,-329.5 477.35,-327.44 469.8,-325.08"/>
<polygon fill="midnightblue" stroke="midnightblue" points="1837.93,-395.79 1847.94,-392.34 1837.96,-388.79 1837.93,-395.79"/>
</g>
<!-- Node5 -->
<g id="node5" class="node">
<title>Node5</title>
<g id="a_node5"><a xlink:href="dfcc__cfg__info_8cpp.html" target="_top" xlink:title=" ">
<polygon fill="none" stroke="black" points="501.5,-273 501.5,-325 689.5,-325 689.5,-273 501.5,-273"/>
<text text-anchor="start" x="509.5" y="-313" font-family="Helvetica,sans-Serif" font-size="10.00">/home/runner/work/diffblue</text>
<text text-anchor="start" x="509.5" y="-302" font-family="Helvetica,sans-Serif" font-size="10.00">&#45;cbmc/diffblue&#45;cbmc/src</text>
<text text-anchor="start" x="509.5" y="-291" font-family="Helvetica,sans-Serif" font-size="10.00">/goto&#45;instrument/contracts</text>
<text text-anchor="middle" x="595.5" y="-280" font-family="Helvetica,sans-Serif" font-size="10.00">/dynamic&#45;frames/dfcc_cfg_info.cpp</text>
</a>
</g>
</g>
<!-- Node1&#45;&gt;Node5 -->
<g id="edge4" class="edge">
<title>Node1&#45;&gt;Node5</title>
<path fill="none" stroke="midnightblue" d="M1837.73,-390.91C1597.95,-385.99 918.1,-368.98 698.5,-331 689.58,-329.46 680.34,-327.38 671.22,-325.04"/>
<polygon fill="midnightblue" stroke="midnightblue" points="1837.71,-394.41 1847.78,-391.11 1837.86,-387.41 1837.71,-394.41"/>
</g>
<!-- Node6 -->
<g id="node6" class="node">
<title>Node6</title>
<g id="a_node6"><a xlink:href="dfcc__check__loop__normal__form_8cpp.html" target="_top" xlink:title=" ">
<polygon fill="none" stroke="black" points="708,-267.5 708,-330.5 865,-330.5 865,-267.5 708,-267.5"/>
<text text-anchor="start" x="716" y="-318.5" font-family="Helvetica,sans-Serif" font-size="10.00">/home/runner/work/diffblue</text>
<text text-anchor="start" x="716" y="-307.5" font-family="Helvetica,sans-Serif" font-size="10.00">&#45;cbmc/diffblue&#45;cbmc/src</text>
<text text-anchor="start" x="716" y="-296.5" font-family="Helvetica,sans-Serif" font-size="10.00">/goto&#45;instrument/contracts</text>
<text text-anchor="start" x="716" y="-285.5" font-family="Helvetica,sans-Serif" font-size="10.00">/dynamic&#45;frames/dfcc_check</text>
<text text-anchor="middle" x="786.5" y="-274.5" font-family="Helvetica,sans-Serif" font-size="10.00">_loop_normal_form.cpp</text>
</a>
</g>
</g>
<!-- Node1&#45;&gt;Node6 -->
<g id="edge5" class="edge">
<title>Node1&#45;&gt;Node6</title>
<path fill="none" stroke="midnightblue" d="M1837.32,-390.57C1621.62,-385.19 1057.98,-367.94 874.5,-331 871.48,-330.39 868.43,-329.7 865.36,-328.95"/>
<polygon fill="midnightblue" stroke="midnightblue" points="1837.55,-394.08 1847.63,-390.82 1837.72,-387.08 1837.55,-394.08"/>
</g>
<!-- Node7 -->
<g id="node7" class="node">
<title>Node7</title>
<g id="a_node7"><a xlink:href="dfcc__contract__clauses__codegen_8cpp.html" target="_top" xlink:title=" ">
<polygon fill="none" stroke="black" points="883.5,-267.5 883.5,-330.5 1051.5,-330.5 1051.5,-267.5 883.5,-267.5"/>
<text text-anchor="start" x="891.5" y="-318.5" font-family="Helvetica,sans-Serif" font-size="10.00">/home/runner/work/diffblue</text>
<text text-anchor="start" x="891.5" y="-307.5" font-family="Helvetica,sans-Serif" font-size="10.00">&#45;cbmc/diffblue&#45;cbmc/src</text>
<text text-anchor="start" x="891.5" y="-296.5" font-family="Helvetica,sans-Serif" font-size="10.00">/goto&#45;instrument/contracts</text>
<text text-anchor="start" x="891.5" y="-285.5" font-family="Helvetica,sans-Serif" font-size="10.00">/dynamic&#45;frames/dfcc_contract</text>
<text text-anchor="middle" x="967.5" y="-274.5" font-family="Helvetica,sans-Serif" font-size="10.00">_clauses_codegen.cpp</text>
</a>
</g>
</g>
<!-- Node1&#45;&gt;Node7 -->
<g id="edge6" class="edge">
<title>Node1&#45;&gt;Node7</title>
<path fill="none" stroke="midnightblue" d="M1837.43,-393.44C1681.7,-393.62 1340.99,-386.83 1060.5,-331 1057.58,-330.42 1054.62,-329.77 1051.65,-329.07"/>
<polygon fill="midnightblue" stroke="midnightblue" points="1837.88,-396.94 1847.87,-393.42 1837.86,-389.94 1837.88,-396.94"/>
</g>
<!-- Node8 -->
<g id="node8" class="node">
<title>Node8</title>
<g id="a_node8"><a xlink:href="dfcc__contract__functions_8cpp.html" target="_top" xlink:title=" ">
<polygon fill="none" stroke="black" points="1069.5,-267.5 1069.5,-330.5 1237.5,-330.5 1237.5,-267.5 1069.5,-267.5"/>
<text text-anchor="start" x="1077.5" y="-318.5" font-family="Helvetica,sans-Serif" font-size="10.00">/home/runner/work/diffblue</text>
<text text-anchor="start" x="1077.5" y="-307.5" font-family="Helvetica,sans-Serif" font-size="10.00">&#45;cbmc/diffblue&#45;cbmc/src</text>
<text text-anchor="start" x="1077.5" y="-296.5" font-family="Helvetica,sans-Serif" font-size="10.00">/goto&#45;instrument/contracts</text>
<text text-anchor="start" x="1077.5" y="-285.5" font-family="Helvetica,sans-Serif" font-size="10.00">/dynamic&#45;frames/dfcc_contract</text>
<text text-anchor="middle" x="1153.5" y="-274.5" font-family="Helvetica,sans-Serif" font-size="10.00">_functions.cpp</text>
</a>
</g>
</g>
<!-- Node1&#45;&gt;Node8 -->
<g id="edge7" class="edge">
<title>Node1&#45;&gt;Node8</title>
<path fill="none" stroke="midnightblue" d="M1837.7,-391.05C1708.72,-387.44 1456.09,-374.85 1246.5,-331 1243.58,-330.39 1240.63,-329.72 1237.66,-329"/>
<polygon fill="midnightblue" stroke="midnightblue" points="1837.81,-394.55 1847.9,-391.32 1838,-387.55 1837.81,-394.55"/>
</g>
<!-- Node9 -->
<g id="node9" class="node">
<title>Node9</title>
<g id="a_node9"><a xlink:href="dfcc__contract__handler_8cpp.html" target="_top" xlink:title=" ">
<polygon fill="none" stroke="black" points="1255.5,-267.5 1255.5,-330.5 1423.5,-330.5 1423.5,-267.5 1255.5,-267.5"/>
<text text-anchor="start" x="1263.5" y="-318.5" font-family="Helvetica,sans-Serif" font-size="10.00">/home/runner/work/diffblue</text>
<text text-anchor="start" x="1263.5" y="-307.5" font-family="Helvetica,sans-Serif" font-size="10.00">&#45;cbmc/diffblue&#45;cbmc/src</text>
<text text-anchor="start" x="1263.5" y="-296.5" font-family="Helvetica,sans-Serif" font-size="10.00">/goto&#45;instrument/contracts</text>
<text text-anchor="start" x="1263.5" y="-285.5" font-family="Helvetica,sans-Serif" font-size="10.00">/dynamic&#45;frames/dfcc_contract</text>
<text text-anchor="middle" x="1339.5" y="-274.5" font-family="Helvetica,sans-Serif" font-size="10.00">_handler.cpp</text>
</a>
</g>
</g>
<!-- Node1&#45;&gt;Node9 -->
<g id="edge8" class="edge">
<title>Node1&#45;&gt;Node9</title>
<path fill="none" stroke="midnightblue" d="M1837.64,-386.94C1739.24,-379.33 1572.6,-362.82 1432.5,-331 1429.6,-330.34 1426.65,-329.63 1423.69,-328.87"/>
<polygon fill="midnightblue" stroke="midnightblue" points="1837.59,-390.45 1847.83,-387.72 1838.12,-383.47 1837.59,-390.45"/>
</g>
<!-- Node10 -->
<g id="node10" class="node">
<title>Node10</title>
<g id="a_node10"><a xlink:href="dfcc__infer__loop__assigns_8cpp.html" target="_top" xlink:title=" ">
<polygon fill="none" stroke="black" points="1442,-267.5 1442,-330.5 1593,-330.5 1593,-267.5 1442,-267.5"/>
<text text-anchor="start" x="1450" y="-318.5" font-family="Helvetica,sans-Serif" font-size="10.00">/home/runner/work/diffblue</text>
<text text-anchor="start" x="1450" y="-307.5" font-family="Helvetica,sans-Serif" font-size="10.00">&#45;cbmc/diffblue&#45;cbmc/src</text>
<text text-anchor="start" x="1450" y="-296.5" font-family="Helvetica,sans-Serif" font-size="10.00">/goto&#45;instrument/contracts</text>
<text text-anchor="start" x="1450" y="-285.5" font-family="Helvetica,sans-Serif" font-size="10.00">/dynamic&#45;frames/dfcc_infer</text>
<text text-anchor="middle" x="1517.5" y="-274.5" font-family="Helvetica,sans-Serif" font-size="10.00">_loop_assigns.cpp</text>
</a>
</g>
</g>
<!-- Node1&#45;&gt;Node10 -->
<g id="edge9" class="edge">
<title>Node1&#45;&gt;Node10</title>
<path fill="none" stroke="midnightblue" d="M1837.49,-379.96C1772.51,-369.47 1681.04,-352.72 1602.5,-331 1599.47,-330.16 1596.4,-329.27 1593.3,-328.33"/>
<polygon fill="midnightblue" stroke="midnightblue" points="1837.26,-383.47 1847.68,-381.59 1838.36,-376.56 1837.26,-383.47"/>
</g>
<!-- Node11 -->
<g id="node11" class="node">
<title>Node11</title>
<g id="a_node11"><a xlink:href="dfcc__instrument_8cpp.html" target="_top" xlink:title=" ">
<polygon fill="none" stroke="black" points="1611.5,-273 1611.5,-325 1813.5,-325 1813.5,-273 1611.5,-273"/>
<text text-anchor="start" x="1619.5" y="-313" font-family="Helvetica,sans-Serif" font-size="10.00">/home/runner/work/diffblue</text>
<text text-anchor="start" x="1619.5" y="-302" font-family="Helvetica,sans-Serif" font-size="10.00">&#45;cbmc/diffblue&#45;cbmc/src</text>
<text text-anchor="start" x="1619.5" y="-291" font-family="Helvetica,sans-Serif" font-size="10.00">/goto&#45;instrument/contracts</text>
<text text-anchor="middle" x="1712.5" y="-280" font-family="Helvetica,sans-Serif" font-size="10.00">/dynamic&#45;frames/dfcc_instrument.cpp</text>
</a>
</g>
</g>
<!-- Node1&#45;&gt;Node11 -->
<g id="edge10" class="edge">
<title>Node1&#45;&gt;Node11</title>
<path fill="none" stroke="midnightblue" d="M1856.37,-363.37C1828.44,-351.07 1796.23,-336.88 1769.37,-325.05"/>
<polygon fill="midnightblue" stroke="midnightblue" points="1855.11,-366.64 1865.67,-367.47 1857.93,-360.23 1855.11,-366.64"/>
</g>
<!-- Node12 -->
<g id="node12" class="node">
<title>Node12</title>
<g id="a_node12"><a xlink:href="dfcc__instrument__loop_8cpp.html" target="_top" xlink:title=" ">
<polygon fill="none" stroke="black" points="1831.5,-267.5 1831.5,-330.5 2013.5,-330.5 2013.5,-267.5 1831.5,-267.5"/>
<text text-anchor="start" x="1839.5" y="-318.5" font-family="Helvetica,sans-Serif" font-size="10.00">/home/runner/work/diffblue</text>
<text text-anchor="start" x="1839.5" y="-307.5" font-family="Helvetica,sans-Serif" font-size="10.00">&#45;cbmc/diffblue&#45;cbmc/src</text>
<text text-anchor="start" x="1839.5" y="-296.5" font-family="Helvetica,sans-Serif" font-size="10.00">/goto&#45;instrument/contracts</text>
<text text-anchor="start" x="1839.5" y="-285.5" font-family="Helvetica,sans-Serif" font-size="10.00">/dynamic&#45;frames/dfcc_instrument</text>
<text text-anchor="middle" x="1922.5" y="-274.5" font-family="Helvetica,sans-Serif" font-size="10.00">_loop.cpp</text>
</a>
</g>
</g>
<!-- Node1&#45;&gt;Node12 -->
<g id="edge11" class="edge">
<title>Node1&#45;&gt;Node12</title>
<path fill="none" stroke="midnightblue" d="M1922.5,-356.94C1922.5,-348.23 1922.5,-338.97 1922.5,-330.51"/>
<polygon fill="midnightblue" stroke="midnightblue" points="1919,-357.22 1922.5,-367.22 1926,-357.22 1919,-357.22"/>
</g>
<!-- Node13 -->
<g id="node13" class="node">
<title>Node13</title>
<g id="a_node13"><a xlink:href="dfcc__swap__and__wrap_8cpp.html" target="_top" xlink:title=" ">
<polygon fill="none" stroke="black" points="2032,-267.5 2032,-330.5 2209,-330.5 2209,-267.5 2032,-267.5"/>
<text text-anchor="start" x="2040" y="-318.5" font-family="Helvetica,sans-Serif" font-size="10.00">/home/runner/work/diffblue</text>
<text text-anchor="start" x="2040" y="-307.5" font-family="Helvetica,sans-Serif" font-size="10.00">&#45;cbmc/diffblue&#45;cbmc/src</text>
<text text-anchor="start" x="2040" y="-296.5" font-family="Helvetica,sans-Serif" font-size="10.00">/goto&#45;instrument/contracts</text>
<text text-anchor="start" x="2040" y="-285.5" font-family="Helvetica,sans-Serif" font-size="10.00">/dynamic&#45;frames/dfcc_swap_and</text>
<text text-anchor="middle" x="2120.5" y="-274.5" font-family="Helvetica,sans-Serif" font-size="10.00">_wrap.cpp</text>
</a>
</g>
</g>
<!-- Node1&#45;&gt;Node13 -->
<g id="edge12" class="edge">
<title>Node1&#45;&gt;Node13</title>
<path fill="none" stroke="midnightblue" d="M1985.39,-363.12C2007.54,-352.77 2032.49,-341.12 2054.87,-330.66"/>
<polygon fill="midnightblue" stroke="midnightblue" points="1983.66,-360.06 1976.08,-367.47 1986.62,-366.41 1983.66,-360.06"/>
</g>
<!-- Node14 -->
<g id="node14" class="node">
<title>Node14</title>
<g id="a_node14"><a xlink:href="dfcc__utils_8cpp.html" target="_top" xlink:title=" ">
<polygon fill="none" stroke="black" points="2227.5,-273 2227.5,-325 2397.5,-325 2397.5,-273 2227.5,-273"/>
<text text-anchor="start" x="2235.5" y="-313" font-family="Helvetica,sans-Serif" font-size="10.00">/home/runner/work/diffblue</text>
<text text-anchor="start" x="2235.5" y="-302" font-family="Helvetica,sans-Serif" font-size="10.00">&#45;cbmc/diffblue&#45;cbmc/src</text>
<text text-anchor="start" x="2235.5" y="-291" font-family="Helvetica,sans-Serif" font-size="10.00">/goto&#45;instrument/contracts</text>
<text text-anchor="middle" x="2312.5" y="-280" font-family="Helvetica,sans-Serif" font-size="10.00">/dynamic&#45;frames/dfcc_utils.cpp</text>
</a>
</g>
</g>
<!-- Node1&#45;&gt;Node14 -->
<g id="edge13" class="edge">
<title>Node1&#45;&gt;Node14</title>
<path fill="none" stroke="midnightblue" d="M2007.35,-377.37C2066.62,-366.18 2147.37,-349.69 2217.5,-331 2224.29,-329.19 2231.31,-327.18 2238.31,-325.07"/>
<polygon fill="midnightblue" stroke="midnightblue" points="2006.47,-373.98 1997.29,-379.26 2007.76,-380.86 2006.47,-373.98"/>
</g>
<!-- Node15 -->
<g id="node15" class="node">
<title>Node15</title>
<g id="a_node15"><a xlink:href="dfcc__wrapper__program_8cpp.html" target="_top" xlink:title=" ">
<polygon fill="none" stroke="black" points="2415.5,-267.5 2415.5,-330.5 2583.5,-330.5 2583.5,-267.5 2415.5,-267.5"/>
<text text-anchor="start" x="2423.5" y="-318.5" font-family="Helvetica,sans-Serif" font-size="10.00">/home/runner/work/diffblue</text>
<text text-anchor="start" x="2423.5" y="-307.5" font-family="Helvetica,sans-Serif" font-size="10.00">&#45;cbmc/diffblue&#45;cbmc/src</text>
<text text-anchor="start" x="2423.5" y="-296.5" font-family="Helvetica,sans-Serif" font-size="10.00">/goto&#45;instrument/contracts</text>
<text text-anchor="start" x="2423.5" y="-285.5" font-family="Helvetica,sans-Serif" font-size="10.00">/dynamic&#45;frames/dfcc_wrapper</text>
<text text-anchor="middle" x="2499.5" y="-274.5" font-family="Helvetica,sans-Serif" font-size="10.00">_program.cpp</text>
</a>
</g>
</g>
<!-- Node1&#45;&gt;Node15 -->
<g id="edge14" class="edge">
<title>Node1&#45;&gt;Node15</title>
<path fill="none" stroke="midnightblue" d="M2007.16,-386.78C2104.47,-379.04 2268.51,-362.45 2406.5,-331 2409.4,-330.34 2412.35,-329.62 2415.31,-328.86"/>
<polygon fill="midnightblue" stroke="midnightblue" points="2006.78,-383.3 1997.08,-387.57 2007.33,-390.28 2006.78,-383.3"/>
</g>
<!-- Node16 -->
<g id="node16" class="node">
<title>Node16</title>
<g id="a_node16"><a xlink:href="havoc__assigns__clause__targets_8cpp.html" target="_top" xlink:title="Havoc multiple and possibly dependent targets simultaneously.">
<polygon fill="none" stroke="black" points="2601.5,-273 2601.5,-325 2789.5,-325 2789.5,-273 2601.5,-273"/>
<text text-anchor="start" x="2609.5" y="-313" font-family="Helvetica,sans-Serif" font-size="10.00">/home/runner/work/diffblue</text>
<text text-anchor="start" x="2609.5" y="-302" font-family="Helvetica,sans-Serif" font-size="10.00">&#45;cbmc/diffblue&#45;cbmc/src</text>
<text text-anchor="start" x="2609.5" y="-291" font-family="Helvetica,sans-Serif" font-size="10.00">/goto&#45;instrument/contracts</text>
<text text-anchor="middle" x="2695.5" y="-280" font-family="Helvetica,sans-Serif" font-size="10.00">/havoc_assigns_clause_targets.cpp</text>
</a>
</g>
</g>
<!-- Node1&#45;&gt;Node16 -->
<g id="edge15" class="edge">
<title>Node1&#45;&gt;Node16</title>
<path fill="none" stroke="midnightblue" d="M2007.17,-390.17C2135.03,-385.43 2384.57,-371.41 2592.5,-331 2600.93,-329.36 2609.66,-327.31 2618.3,-325.05"/>
<polygon fill="midnightblue" stroke="midnightblue" points="2006.92,-386.68 1997.05,-390.53 2007.17,-393.67 2006.92,-386.68"/>
</g>
<!-- Node17 -->
<g id="node17" class="node">
<title>Node17</title>
<g id="a_node17"><a xlink:href="instrument__spec__assigns_8cpp.html" target="_top" xlink:title="Specify write set in code contracts.">
<polygon fill="none" stroke="black" points="2808,-273 2808,-325 2971,-325 2971,-273 2808,-273"/>
<text text-anchor="start" x="2816" y="-313" font-family="Helvetica,sans-Serif" font-size="10.00">/home/runner/work/diffblue</text>
<text text-anchor="start" x="2816" y="-302" font-family="Helvetica,sans-Serif" font-size="10.00">&#45;cbmc/diffblue&#45;cbmc/src</text>
<text text-anchor="start" x="2816" y="-291" font-family="Helvetica,sans-Serif" font-size="10.00">/goto&#45;instrument/contracts</text>
<text text-anchor="middle" x="2889.5" y="-280" font-family="Helvetica,sans-Serif" font-size="10.00">/instrument_spec_assigns.cpp</text>
</a>
</g>
</g>
<!-- Node1&#45;&gt;Node17 -->
<g id="edge16" class="edge">
<title>Node1&#45;&gt;Node17</title>
<path fill="none" stroke="midnightblue" d="M2007.22,-389.34C2196.48,-381.83 2648.73,-361.24 2798.5,-331 2806.19,-329.45 2814.12,-327.42 2821.95,-325.14"/>
<polygon fill="midnightblue" stroke="midnightblue" points="2006.9,-385.85 1997.04,-389.74 2007.17,-392.84 2006.9,-385.85"/>
</g>
<!-- Node18 -->
<g id="node18" class="node">
<title>Node18</title>
<g id="a_node18"><a xlink:href="memory__predicates_8cpp.html" target="_top" xlink:title="Predicates to specify memory footprint in function contracts.">
<polygon fill="none" stroke="black" points="2989,-273 2989,-325 3138,-325 3138,-273 2989,-273"/>
<text text-anchor="start" x="2997" y="-313" font-family="Helvetica,sans-Serif" font-size="10.00">/home/runner/work/diffblue</text>
<text text-anchor="start" x="2997" y="-302" font-family="Helvetica,sans-Serif" font-size="10.00">&#45;cbmc/diffblue&#45;cbmc/src</text>
<text text-anchor="start" x="2997" y="-291" font-family="Helvetica,sans-Serif" font-size="10.00">/goto&#45;instrument/contracts</text>
<text text-anchor="middle" x="3063.5" y="-280" font-family="Helvetica,sans-Serif" font-size="10.00">/memory_predicates.cpp</text>
</a>
</g>
</g>
<!-- Node1&#45;&gt;Node18 -->
<g id="edge17" class="edge">
<title>Node1&#45;&gt;Node18</title>
<path fill="none" stroke="midnightblue" d="M2007.43,-390.83C2224.46,-386.05 2795.3,-370.04 2980.5,-331 2987.72,-329.48 2995.16,-327.44 3002.47,-325.12"/>
<polygon fill="midnightblue" stroke="midnightblue" points="2007.29,-387.34 1997.37,-391.05 2007.44,-394.33 2007.29,-387.34"/>
</g>
<!-- Node19 -->
<g id="node19" class="node">
<title>Node19</title>
<g id="a_node19"><a xlink:href="utils_8cpp.html" target="_top" xlink:title=" ">
<polygon fill="none" stroke="black" points="3156,-273 3156,-325 3305,-325 3305,-273 3156,-273"/>
<text text-anchor="start" x="3164" y="-313" font-family="Helvetica,sans-Serif" font-size="10.00">/home/runner/work/diffblue</text>
<text text-anchor="start" x="3164" y="-302" font-family="Helvetica,sans-Serif" font-size="10.00">&#45;cbmc/diffblue&#45;cbmc/src</text>
<text text-anchor="start" x="3164" y="-291" font-family="Helvetica,sans-Serif" font-size="10.00">/goto&#45;instrument/contracts</text>
<text text-anchor="middle" x="3230.5" y="-280" font-family="Helvetica,sans-Serif" font-size="10.00">/utils.cpp</text>
</a>
</g>
</g>
<!-- Node1&#45;&gt;Node19 -->
<g id="edge18" class="edge">
<title>Node1&#45;&gt;Node19</title>
<path fill="none" stroke="midnightblue" d="M2007.48,-391.62C2247.81,-388.59 2929.07,-376.14 3147.5,-331 3154.88,-329.47 3162.48,-327.4 3169.94,-325.04"/>
<polygon fill="midnightblue" stroke="midnightblue" points="2007.35,-388.12 1997.4,-391.74 2007.44,-395.12 2007.35,-388.12"/>
</g>
<!-- Node20 -->
<g id="node20" class="node">
<title>Node20</title>
<g id="a_node20"><a xlink:href="cegis__verifier_8cpp.html" target="_top" xlink:title="Verifier for Counterexample&#45;Guided Synthesis.">
<polygon fill="none" stroke="black" points="3427,-95 3427,-136 3616,-136 3616,-95 3427,-95"/>
<text text-anchor="start" x="3435" y="-124" font-family="Helvetica,sans-Serif" font-size="10.00">/home/runner/work/diffblue</text>
<text text-anchor="start" x="3435" y="-113" font-family="Helvetica,sans-Serif" font-size="10.00">&#45;cbmc/diffblue&#45;cbmc/src</text>
<text text-anchor="middle" x="3521.5" y="-102" font-family="Helvetica,sans-Serif" font-size="10.00">/goto&#45;synthesizer/cegis_verifier.cpp</text>
</a>
</g>
</g>
<!-- Node1&#45;&gt;Node20 -->
<g id="edge19" class="edge">
<title>Node1&#45;&gt;Node20</title>
<path fill="none" stroke="midnightblue" d="M2007.28,-392.92C2314.46,-393.92 3358.17,-392.69 3493.5,-331 3549,-305.7 3565.03,-287.71 3587.5,-231 3596.18,-209.1 3596.9,-199.6 3587.5,-178 3580.13,-161.05 3565.53,-146.66 3551.93,-136.07"/>
<polygon fill="midnightblue" stroke="midnightblue" points="2007.12,-389.42 1997.1,-392.88 2007.09,-396.42 2007.12,-389.42"/>
</g>
<!-- Node21 -->
<g id="node21" class="node">
<title>Node21</title>
<g id="a_node21"><a xlink:href="enumerative__loop__contracts__synthesizer_8cpp.html" target="_top" xlink:title="Enumerative Loop Contracts Synthesizer.">
<polygon fill="none" stroke="black" points="3205.5,-0.5 3205.5,-52.5 3379.5,-52.5 3379.5,-0.5 3205.5,-0.5"/>
<text text-anchor="start" x="3213.5" y="-40.5" font-family="Helvetica,sans-Serif" font-size="10.00">/home/runner/work/diffblue</text>
<text text-anchor="start" x="3213.5" y="-29.5" font-family="Helvetica,sans-Serif" font-size="10.00">&#45;cbmc/diffblue&#45;cbmc/src</text>
<text text-anchor="start" x="3213.5" y="-18.5" font-family="Helvetica,sans-Serif" font-size="10.00">/goto&#45;synthesizer/enumerative</text>
<text text-anchor="middle" x="3292.5" y="-7.5" font-family="Helvetica,sans-Serif" font-size="10.00">_loop_contracts_synthesizer.cpp</text>
</a>
</g>
</g>
<!-- Node1&#45;&gt;Node21 -->
<g id="edge20" class="edge">
<title>Node1&#45;&gt;Node21</title>
<path fill="none" stroke="midnightblue" d="M2007.51,-391.53C2332.17,-387.53 3479.02,-370.65 3545.5,-331 3642.79,-272.97 3699.31,-174.93 3625.5,-89 3590.93,-48.76 3441.45,-63.76 3389.5,-53 3386.26,-52.33 3382.97,-51.62 3379.65,-50.87"/>
<polygon fill="midnightblue" stroke="midnightblue" points="2007.18,-388.03 1997.22,-391.65 2007.27,-395.03 2007.18,-388.03"/>
</g>
<!-- Node22 -->
<g id="node22" class="node">
<title>Node22</title>
<g id="a_node22"><a xlink:href="synthesizer__utils_8h.html" target="_top" xlink:title=" ">
<polygon fill="none" stroke="black" points="3323,-273 3323,-325 3484,-325 3484,-273 3323,-273"/>
<text text-anchor="start" x="3331" y="-313" font-family="Helvetica,sans-Serif" font-size="10.00">/home/runner/work/diffblue</text>
<text text-anchor="start" x="3331" y="-302" font-family="Helvetica,sans-Serif" font-size="10.00">&#45;cbmc/diffblue&#45;cbmc/src</text>
<text text-anchor="start" x="3331" y="-291" font-family="Helvetica,sans-Serif" font-size="10.00">/goto&#45;synthesizer/synthesizer</text>
<text text-anchor="middle" x="3403.5" y="-280" font-family="Helvetica,sans-Serif" font-size="10.00">_utils.h</text>
</a>
</g>
</g>
<!-- Node1&#45;&gt;Node22 -->
<g id="edge21" class="edge">
<title>Node1&#45;&gt;Node22</title>
<path fill="none" stroke="midnightblue" d="M2007.42,-391.97C2269.32,-389.85 3062.05,-379.46 3314.5,-331 3322.37,-329.49 3330.49,-327.42 3338.48,-325.06"/>
<polygon fill="midnightblue" stroke="midnightblue" points="2007.18,-388.48 1997.21,-392.06 2007.24,-395.48 2007.18,-388.48"/>
</g>
<!-- Node23 -->
<g id="node23" class="node">
<title>Node23</title>
<g id="a_node23"><a xlink:href="cegis__verifier_8h.html" target="_top" xlink:title="Verifier for Counterexample&#45;Guided Synthesis.">
<polygon fill="none" stroke="black" points="3220.5,-184 3220.5,-225 3398.5,-225 3398.5,-184 3220.5,-184"/>
<text text-anchor="start" x="3228.5" y="-213" font-family="Helvetica,sans-Serif" font-size="10.00">/home/runner/work/diffblue</text>
<text text-anchor="start" x="3228.5" y="-202" font-family="Helvetica,sans-Serif" font-size="10.00">&#45;cbmc/diffblue&#45;cbmc/src</text>
<text text-anchor="middle" x="3309.5" y="-191" font-family="Helvetica,sans-Serif" font-size="10.00">/goto&#45;synthesizer/cegis_verifier.h</text>
</a>
</g>
</g>
<!-- Node22&#45;&gt;Node23 -->
<g id="edge22" class="edge">
<title>Node22&#45;&gt;Node23</title>
<path fill="none" stroke="midnightblue" d="M3370.44,-265.46C3356.77,-252.02 3341.39,-236.88 3329.49,-225.17"/>
<polygon fill="midnightblue" stroke="midnightblue" points="3368.23,-268.2 3377.81,-272.72 3373.14,-263.22 3368.23,-268.2"/>
</g>
<!-- Node28 -->
<g id="node28" class="node">
<title>Node28</title>
<g id="a_node28"><a xlink:href="dump__loop__contracts_8h.html" target="_top" xlink:title="Dump Loop Contracts as JSON.">
<polygon fill="none" stroke="black" points="2850.5,-178.5 2850.5,-230.5 3008.5,-230.5 3008.5,-178.5 2850.5,-178.5"/>
<text text-anchor="start" x="2858.5" y="-218.5" font-family="Helvetica,sans-Serif" font-size="10.00">/home/runner/work/diffblue</text>
<text text-anchor="start" x="2858.5" y="-207.5" font-family="Helvetica,sans-Serif" font-size="10.00">&#45;cbmc/diffblue&#45;cbmc/src</text>
<text text-anchor="start" x="2858.5" y="-196.5" font-family="Helvetica,sans-Serif" font-size="10.00">/goto&#45;synthesizer/dump_loop</text>
<text text-anchor="middle" x="2929.5" y="-185.5" font-family="Helvetica,sans-Serif" font-size="10.00">_contracts.h</text>
</a>
</g>
</g>
<!-- Node22&#45;&gt;Node28 -->
<g id="edge30" class="edge">
<title>Node22&#45;&gt;Node28</title>
<path fill="none" stroke="midnightblue" d="M3326.77,-270.13C3322.64,-268.99 3318.53,-267.94 3314.5,-267 3184.97,-236.96 3147.78,-257.59 3017.5,-231 3014.54,-230.4 3011.53,-229.74 3008.5,-229.05"/>
<polygon fill="midnightblue" stroke="midnightblue" points="3325.82,-273.5 3336.4,-272.93 3327.77,-266.78 3325.82,-273.5"/>
</g>
<!-- Node33 -->
<g id="node33" class="node">
<title>Node33</title>
<g id="a_node33"><a xlink:href="loop__contracts__synthesizer__base_8h.html" target="_top" xlink:title="Loop Contracts Synthesizer Interface.">
<polygon fill="none" stroke="black" points="3026.5,-178.5 3026.5,-230.5 3202.5,-230.5 3202.5,-178.5 3026.5,-178.5"/>
<text text-anchor="start" x="3034.5" y="-218.5" font-family="Helvetica,sans-Serif" font-size="10.00">/home/runner/work/diffblue</text>
<text text-anchor="start" x="3034.5" y="-207.5" font-family="Helvetica,sans-Serif" font-size="10.00">&#45;cbmc/diffblue&#45;cbmc/src</text>
<text text-anchor="start" x="3034.5" y="-196.5" font-family="Helvetica,sans-Serif" font-size="10.00">/goto&#45;synthesizer/loop_contracts</text>
<text text-anchor="middle" x="3114.5" y="-185.5" font-family="Helvetica,sans-Serif" font-size="10.00">_synthesizer_base.h</text>
</a>
</g>
</g>
<!-- Node22&#45;&gt;Node33 -->
<g id="edge36" class="edge">
<title>Node22&#45;&gt;Node33</title>
<path fill="none" stroke="midnightblue" d="M3322.42,-269.62C3319.75,-268.73 3317.11,-267.85 3314.5,-267 3276.53,-254.55 3234.26,-241.45 3198.4,-230.55"/>
<polygon fill="midnightblue" stroke="midnightblue" points="3321.58,-273.03 3332.17,-272.9 3323.81,-266.39 3321.58,-273.03"/>
</g>
<!-- Node34 -->
<g id="node34" class="node">
<title>Node34</title>
<g id="a_node34"><a xlink:href="synthesizer__utils_8cpp.html" target="_top" xlink:title=" ">
<polygon fill="none" stroke="black" points="3417,-178.5 3417,-230.5 3578,-230.5 3578,-178.5 3417,-178.5"/>
<text text-anchor="start" x="3425" y="-218.5" font-family="Helvetica,sans-Serif" font-size="10.00">/home/runner/work/diffblue</text>
<text text-anchor="start" x="3425" y="-207.5" font-family="Helvetica,sans-Serif" font-size="10.00">&#45;cbmc/diffblue&#45;cbmc/src</text>
<text text-anchor="start" x="3425" y="-196.5" font-family="Helvetica,sans-Serif" font-size="10.00">/goto&#45;synthesizer/synthesizer</text>
<text text-anchor="middle" x="3497.5" y="-185.5" font-family="Helvetica,sans-Serif" font-size="10.00">_utils.cpp</text>
</a>
</g>
</g>
<!-- Node22&#45;&gt;Node34 -->
<g id="edge38" class="edge">
<title>Node22&#45;&gt;Node34</title>
<path fill="none" stroke="midnightblue" d="M3436.58,-265.45C3448.16,-254.06 3460.97,-241.45 3471.85,-230.75"/>
<polygon fill="midnightblue" stroke="midnightblue" points="3433.86,-263.22 3429.19,-272.72 3438.77,-268.2 3433.86,-263.22"/>
</g>
<!-- Node23&#45;&gt;Node20 -->
<g id="edge26" class="edge">
<title>Node23&#45;&gt;Node20</title>
<path fill="none" stroke="midnightblue" d="M3366.73,-180.01C3400.22,-166.27 3442,-149.12 3473.72,-136.11"/>
<polygon fill="midnightblue" stroke="midnightblue" points="3365,-176.94 3357.08,-183.98 3367.66,-183.42 3365,-176.94"/>
</g>
<!-- Node24 -->
<g id="node24" class="node">
<title>Node24</title>
<g id="a_node24"><a xlink:href="cegis__evaluator_8h.html" target="_top" xlink:title="Evaluate if an expression is consistent with examples.">
<polygon fill="none" stroke="black" points="3217.5,-95 3217.5,-136 3407.5,-136 3407.5,-95 3217.5,-95"/>
<text text-anchor="start" x="3225.5" y="-124" font-family="Helvetica,sans-Serif" font-size="10.00">/home/runner/work/diffblue</text>
<text text-anchor="start" x="3225.5" y="-113" font-family="Helvetica,sans-Serif" font-size="10.00">&#45;cbmc/diffblue&#45;cbmc/src</text>
<text text-anchor="middle" x="3312.5" y="-102" font-family="Helvetica,sans-Serif" font-size="10.00">/goto&#45;synthesizer/cegis_evaluator.h</text>
</a>
</g>
</g>
<!-- Node23&#45;&gt;Node24 -->
<g id="edge23" class="edge">
<title>Node23&#45;&gt;Node24</title>
<path fill="none" stroke="midnightblue" d="M3310.54,-173.44C3310.96,-161.1 3311.44,-147.16 3311.82,-136.16"/>
<polygon fill="midnightblue" stroke="midnightblue" points="3307.03,-173.64 3310.18,-183.76 3314.02,-173.88 3307.03,-173.64"/>
</g>
<!-- Node26 -->
<g id="node26" class="node">
<title>Node26</title>
<g id="a_node26"><a xlink:href="enumerative__loop__contracts__synthesizer_8h.html" target="_top" xlink:title="Enumerative Loop Contracts Synthesizer.">
<polygon fill="none" stroke="black" points="3032,-89.5 3032,-141.5 3199,-141.5 3199,-89.5 3032,-89.5"/>
<text text-anchor="start" x="3040" y="-129.5" font-family="Helvetica,sans-Serif" font-size="10.00">/home/runner/work/diffblue</text>
<text text-anchor="start" x="3040" y="-118.5" font-family="Helvetica,sans-Serif" font-size="10.00">&#45;cbmc/diffblue&#45;cbmc/src</text>
<text text-anchor="start" x="3040" y="-107.5" font-family="Helvetica,sans-Serif" font-size="10.00">/goto&#45;synthesizer/enumerative</text>
<text text-anchor="middle" x="3115.5" y="-96.5" font-family="Helvetica,sans-Serif" font-size="10.00">_loop_contracts_synthesizer.h</text>
</a>
</g>
</g>
<!-- Node23&#45;&gt;Node26 -->
<g id="edge27" class="edge">
<title>Node23&#45;&gt;Node26</title>
<path fill="none" stroke="midnightblue" d="M3256.51,-179.74C3230.12,-167.9 3198.22,-153.59 3171.44,-141.58"/>
<polygon fill="midnightblue" stroke="midnightblue" points="3255.41,-183.08 3265.96,-183.98 3258.27,-176.69 3255.41,-183.08"/>
</g>
<!-- Node24&#45;&gt;Node21 -->
<g id="edge25" class="edge">
<title>Node24&#45;&gt;Node21</title>
<path fill="none" stroke="midnightblue" d="M3305.68,-84.84C3303.29,-74.42 3300.62,-62.81 3298.31,-52.79"/>
<polygon fill="midnightblue" stroke="midnightblue" points="3302.31,-85.8 3307.96,-94.76 3309.13,-84.23 3302.31,-85.8"/>
</g>
<!-- Node25 -->
<g id="node25" class="node">
<title>Node25</title>
<g id="a_node25"><a xlink:href="cegis__evaluator_8cpp.html" target="_top" xlink:title="Evaluate if an expression is consistent with examples.">
<polygon fill="none" stroke="black" points="3398,-6 3398,-47 3599,-47 3599,-6 3398,-6"/>
<text text-anchor="start" x="3406" y="-35" font-family="Helvetica,sans-Serif" font-size="10.00">/home/runner/work/diffblue</text>
<text text-anchor="start" x="3406" y="-24" font-family="Helvetica,sans-Serif" font-size="10.00">&#45;cbmc/diffblue&#45;cbmc/src</text>
<text text-anchor="middle" x="3498.5" y="-13" font-family="Helvetica,sans-Serif" font-size="10.00">/goto&#45;synthesizer/cegis_evaluator.cpp</text>
</a>
</g>
</g>
<!-- Node24&#45;&gt;Node25 -->
<g id="edge24" class="edge">
<title>Node24&#45;&gt;Node25</title>
<path fill="none" stroke="midnightblue" d="M3363.47,-90.66C3392.72,-76.98 3428.99,-60.01 3456.58,-47.11"/>
<polygon fill="midnightblue" stroke="midnightblue" points="3361.82,-87.57 3354.24,-94.98 3364.78,-93.91 3361.82,-87.57"/>
</g>
<!-- Node26&#45;&gt;Node21 -->
<g id="edge28" class="edge">
<title>Node26&#45;&gt;Node21</title>
<path fill="none" stroke="midnightblue" d="M3175.69,-84.92C3197.05,-74.41 3220.88,-62.7 3241.42,-52.61"/>
<polygon fill="midnightblue" stroke="midnightblue" points="3174.13,-81.78 3166.7,-89.34 3177.21,-88.07 3174.13,-81.78"/>
</g>
<!-- Node27 -->
<g id="node27" class="node">
<title>Node27</title>
<g id="a_node27"><a xlink:href="goto__synthesizer__parse__options_8cpp.html" target="_top" xlink:title="Main Module.">
<polygon fill="none" stroke="black" points="2958.5,-0.5 2958.5,-52.5 3146.5,-52.5 3146.5,-0.5 2958.5,-0.5"/>
<text text-anchor="start" x="2966.5" y="-40.5" font-family="Helvetica,sans-Serif" font-size="10.00">/home/runner/work/diffblue</text>
<text text-anchor="start" x="2966.5" y="-29.5" font-family="Helvetica,sans-Serif" font-size="10.00">&#45;cbmc/diffblue&#45;cbmc/src</text>
<text text-anchor="start" x="2966.5" y="-18.5" font-family="Helvetica,sans-Serif" font-size="10.00">/goto&#45;synthesizer/goto_synthesizer</text>
<text text-anchor="middle" x="3052.5" y="-7.5" font-family="Helvetica,sans-Serif" font-size="10.00">_parse_options.cpp</text>
</a>
</g>
</g>
<!-- Node26&#45;&gt;Node27 -->
<g id="edge29" class="edge">
<title>Node26&#45;&gt;Node27</title>
<path fill="none" stroke="midnightblue" d="M3091.4,-81.22C3084.52,-71.72 3077.14,-61.53 3070.68,-52.61"/>
<polygon fill="midnightblue" stroke="midnightblue" points="3088.58,-83.29 3097.28,-89.34 3094.25,-79.18 3088.58,-83.29"/>
</g>
<!-- Node29 -->
<g id="node29" class="node">
<title>Node29</title>
<g id="a_node29"><a xlink:href="dump__loop__contracts_8cpp.html" target="_top" xlink:title="Dump Loop Contracts as JSON.">
<polygon fill="none" stroke="black" points="2856.5,-89.5 2856.5,-141.5 3014.5,-141.5 3014.5,-89.5 2856.5,-89.5"/>
<text text-anchor="start" x="2864.5" y="-129.5" font-family="Helvetica,sans-Serif" font-size="10.00">/home/runner/work/diffblue</text>
<text text-anchor="start" x="2864.5" y="-118.5" font-family="Helvetica,sans-Serif" font-size="10.00">&#45;cbmc/diffblue&#45;cbmc/src</text>
<text text-anchor="start" x="2864.5" y="-107.5" font-family="Helvetica,sans-Serif" font-size="10.00">/goto&#45;synthesizer/dump_loop</text>
<text text-anchor="middle" x="2935.5" y="-96.5" font-family="Helvetica,sans-Serif" font-size="10.00">_contracts.cpp</text>
</a>
</g>
</g>
<!-- Node28&#45;&gt;Node29 -->
<g id="edge31" class="edge">
<title>Node28&#45;&gt;Node29</title>
<path fill="none" stroke="midnightblue" d="M2931.94,-168.19C2932.55,-159.28 2933.2,-149.9 2933.77,-141.61"/>
<polygon fill="midnightblue" stroke="midnightblue" points="2928.43,-168.12 2931.24,-178.34 2935.42,-168.6 2928.43,-168.12"/>
</g>
<!-- Node30 -->
<g id="node30" class="node">
<title>Node30</title>
<g id="a_node30"><a xlink:href="goto__synthesizer__parse__options_8h.html" target="_top" xlink:title="Command Line Parsing.">
<polygon fill="none" stroke="black" points="2650.5,-89.5 2650.5,-141.5 2838.5,-141.5 2838.5,-89.5 2650.5,-89.5"/>
<text text-anchor="start" x="2658.5" y="-129.5" font-family="Helvetica,sans-Serif" font-size="10.00">/home/runner/work/diffblue</text>
<text text-anchor="start" x="2658.5" y="-118.5" font-family="Helvetica,sans-Serif" font-size="10.00">&#45;cbmc/diffblue&#45;cbmc/src</text>
<text text-anchor="start" x="2658.5" y="-107.5" font-family="Helvetica,sans-Serif" font-size="10.00">/goto&#45;synthesizer/goto_synthesizer</text>
<text text-anchor="middle" x="2744.5" y="-96.5" font-family="Helvetica,sans-Serif" font-size="10.00">_parse_options.h</text>
</a>
</g>
</g>
<!-- Node28&#45;&gt;Node30 -->
<g id="edge32" class="edge">
<title>Node28&#45;&gt;Node30</title>
<path fill="none" stroke="midnightblue" d="M2866.89,-174.06C2844.48,-163.52 2819.45,-151.75 2797.89,-141.61"/>
<polygon fill="midnightblue" stroke="midnightblue" points="2865.45,-177.25 2875.99,-178.34 2868.43,-170.91 2865.45,-177.25"/>
</g>
<!-- Node30&#45;&gt;Node27 -->
<g id="edge35" class="edge">
<title>Node30&#45;&gt;Node27</title>
<path fill="none" stroke="midnightblue" d="M2842.93,-86.7C2881.78,-75.72 2926.09,-63.21 2963.92,-52.52"/>
<polygon fill="midnightblue" stroke="midnightblue" points="2841.85,-83.37 2833.17,-89.45 2843.75,-90.1 2841.85,-83.37"/>
</g>
<!-- Node31 -->
<g id="node31" class="node">
<title>Node31</title>
<g id="a_node31"><a xlink:href="goto__synthesizer__languages_8cpp.html" target="_top" xlink:title="Language Registration.">
<polygon fill="none" stroke="black" points="2465.5,-0.5 2465.5,-52.5 2653.5,-52.5 2653.5,-0.5 2465.5,-0.5"/>
<text text-anchor="start" x="2473.5" y="-40.5" font-family="Helvetica,sans-Serif" font-size="10.00">/home/runner/work/diffblue</text>
<text text-anchor="start" x="2473.5" y="-29.5" font-family="Helvetica,sans-Serif" font-size="10.00">&#45;cbmc/diffblue&#45;cbmc/src</text>
<text text-anchor="start" x="2473.5" y="-18.5" font-family="Helvetica,sans-Serif" font-size="10.00">/goto&#45;synthesizer/goto_synthesizer</text>
<text text-anchor="middle" x="2559.5" y="-7.5" font-family="Helvetica,sans-Serif" font-size="10.00">_languages.cpp</text>
</a>
</g>
</g>
<!-- Node30&#45;&gt;Node31 -->
<g id="edge33" class="edge">
<title>Node30&#45;&gt;Node31</title>
<path fill="none" stroke="midnightblue" d="M2681.89,-85.06C2659.48,-74.52 2634.45,-62.75 2612.89,-52.61"/>
<polygon fill="midnightblue" stroke="midnightblue" points="2680.45,-88.25 2690.99,-89.34 2683.43,-81.91 2680.45,-88.25"/>
</g>
<!-- Node32 -->
<g id="node32" class="node">
<title>Node32</title>
<g id="a_node32"><a xlink:href="goto__synthesizer__main_8cpp.html" target="_top" xlink:title="Main Module.">
<polygon fill="none" stroke="black" points="2671.5,-0.5 2671.5,-52.5 2859.5,-52.5 2859.5,-0.5 2671.5,-0.5"/>
<text text-anchor="start" x="2679.5" y="-40.5" font-family="Helvetica,sans-Serif" font-size="10.00">/home/runner/work/diffblue</text>
<text text-anchor="start" x="2679.5" y="-29.5" font-family="Helvetica,sans-Serif" font-size="10.00">&#45;cbmc/diffblue&#45;cbmc/src</text>
<text text-anchor="start" x="2679.5" y="-18.5" font-family="Helvetica,sans-Serif" font-size="10.00">/goto&#45;synthesizer/goto_synthesizer</text>
<text text-anchor="middle" x="2765.5" y="-7.5" font-family="Helvetica,sans-Serif" font-size="10.00">_main.cpp</text>
</a>
</g>
</g>
<!-- Node30&#45;&gt;Node32 -->
<g id="edge34" class="edge">
<title>Node30&#45;&gt;Node32</title>
<path fill="none" stroke="midnightblue" d="M2752.95,-79.48C2755.12,-70.49 2757.42,-60.99 2759.44,-52.61"/>
<polygon fill="midnightblue" stroke="midnightblue" points="2749.52,-78.79 2750.57,-89.34 2756.32,-80.44 2749.52,-78.79"/>
</g>
<!-- Node33&#45;&gt;Node26 -->
<g id="edge37" class="edge">
<title>Node33&#45;&gt;Node26</title>
<path fill="none" stroke="midnightblue" d="M3114.91,-168.19C3115.01,-159.28 3115.12,-149.9 3115.21,-141.61"/>
<polygon fill="midnightblue" stroke="midnightblue" points="3111.4,-168.3 3114.79,-178.34 3118.4,-168.38 3111.4,-168.3"/>
</g>
</g>
</svg>
