<?xml version="1.0" encoding="UTF-8" standalone="no"?>
<!DOCTYPE svg PUBLIC "-//W3C//DTD SVG 1.1//EN"
 "http://www.w3.org/Graphics/SVG/1.1/DTD/svg11.dtd">
<!-- Generated by graphviz version 2.43.0 (0)
 -->
<!-- Title: /home/runner/work/diffblue&#45;cbmc/diffblue&#45;cbmc/src/pointer&#45;analysis/value_set_domain_fi.h Pages: 1 -->
<svg width="1059pt" height="755pt"
 viewBox="0.00 0.00 1059.00 755.00" xmlns="http://www.w3.org/2000/svg" xmlns:xlink="http://www.w3.org/1999/xlink">
<g id="graph0" class="graph" transform="scale(1 1) rotate(0) translate(4 751)">
<title>/home/runner/work/diffblue&#45;cbmc/diffblue&#45;cbmc/src/pointer&#45;analysis/value_set_domain_fi.h</title>
<!-- Node1 -->
<g id="node1" class="node">
<title>Node1</title>
<g id="a_node1"><a xlink:title="Value Set (Flow Insensitive)">
<polygon fill="#bfbfbf" stroke="black" points="0,-694.5 0,-746.5 149,-746.5 149,-694.5 0,-694.5"/>
<text text-anchor="start" x="8" y="-734.5" font-family="Helvetica,sans-Serif" font-size="10.00">/home/runner/work/diffblue</text>
<text text-anchor="start" x="8" y="-723.5" font-family="Helvetica,sans-Serif" font-size="10.00">&#45;cbmc/diffblue&#45;cbmc/src</text>
<text text-anchor="start" x="8" y="-712.5" font-family="Helvetica,sans-Serif" font-size="10.00">/pointer&#45;analysis/value_set</text>
<text text-anchor="middle" x="74.5" y="-701.5" font-family="Helvetica,sans-Serif" font-size="10.00">_domain_fi.h</text>
</a>
</g>
</g>
<!-- Node2 -->
<g id="node2" class="node">
<title>Node2</title>
<g id="a_node2"><a xlink:href="flow__insensitive__analysis_8h.html" target="_top" xlink:title="Flow Insensitive Static Analysis.">
<polygon fill="none" stroke="black" points="84.5,-627.5 84.5,-657.5 226.5,-657.5 226.5,-627.5 84.5,-627.5"/>
<text text-anchor="start" x="92.5" y="-645.5" font-family="Helvetica,sans-Serif" font-size="10.00">analyses/flow_insensitive</text>
<text text-anchor="middle" x="155.5" y="-634.5" font-family="Helvetica,sans-Serif" font-size="10.00">_analysis.h</text>
</a>
</g>
</g>
<!-- Node1&#45;&gt;Node2 -->
<g id="edge1" class="edge">
<title>Node1&#45;&gt;Node2</title>
<path fill="none" stroke="midnightblue" d="M101.47,-694.19C111.64,-684.65 123.09,-673.91 132.83,-664.77"/>
<polygon fill="midnightblue" stroke="midnightblue" points="135.31,-667.24 140.21,-657.85 130.52,-662.14 135.31,-667.24"/>
</g>
<!-- Node54 -->
<g id="node36" class="node">
<title>Node54</title>
<g id="a_node36"><a xlink:href="value__set__fi_8h.html" target="_top" xlink:title="Value Set (Flow Insensitive, Sharing)">
<polygon fill="none" stroke="black" points="353.5,-448.5 353.5,-467.5 437.5,-467.5 437.5,-448.5 353.5,-448.5"/>
<text text-anchor="middle" x="395.5" y="-455.5" font-family="Helvetica,sans-Serif" font-size="10.00">value_set_fi.h</text>
</a>
</g>
</g>
<!-- Node1&#45;&gt;Node54 -->
<g id="edge59" class="edge">
<title>Node1&#45;&gt;Node54</title>
<path fill="none" stroke="midnightblue" d="M70.93,-694.16C69.17,-675.22 68.69,-648.93 75.5,-627 95.06,-564.02 103.38,-540.2 158.5,-504 162.38,-501.45 274.68,-480.83 343.28,-468.4"/>
<polygon fill="midnightblue" stroke="midnightblue" points="344.27,-471.78 353.48,-466.56 343.02,-464.89 344.27,-471.78"/>
</g>
<!-- Node3 -->
<g id="node3" class="node">
<title>Node3</title>
<g id="a_node3"><a xlink:title=" ">
<polygon fill="none" stroke="#bfbfbf" points="261,-566 261,-585 308,-585 308,-566 261,-566"/>
<text text-anchor="middle" x="284.5" y="-573" font-family="Helvetica,sans-Serif" font-size="10.00">queue</text>
</a>
</g>
</g>
<!-- Node2&#45;&gt;Node3 -->
<g id="edge2" class="edge">
<title>Node2&#45;&gt;Node3</title>
<path fill="none" stroke="midnightblue" d="M183.49,-627.4C205.83,-616.14 236.87,-600.5 258.63,-589.54"/>
<polygon fill="midnightblue" stroke="midnightblue" points="260.26,-592.63 267.62,-585.01 257.11,-586.38 260.26,-592.63"/>
</g>
<!-- Node4 -->
<g id="node4" class="node">
<title>Node4</title>
<g id="a_node4"><a xlink:title=" ">
<polygon fill="none" stroke="#bfbfbf" points="53.5,-392.5 53.5,-411.5 91.5,-411.5 91.5,-392.5 53.5,-392.5"/>
<text text-anchor="middle" x="72.5" y="-399.5" font-family="Helvetica,sans-Serif" font-size="10.00">map</text>
</a>
</g>
</g>
<!-- Node2&#45;&gt;Node4 -->
<g id="edge3" class="edge">
<title>Node2&#45;&gt;Node4</title>
<path fill="none" stroke="midnightblue" d="M143.61,-627.31C136.02,-617.63 126.52,-604.2 120.5,-591 93.74,-532.35 80.17,-456.33 75.02,-421.68"/>
<polygon fill="midnightblue" stroke="midnightblue" points="78.46,-421.01 73.59,-411.61 71.53,-422 78.46,-421.01"/>
</g>
<!-- Node5 -->
<g id="node5" class="node">
<title>Node5</title>
<g id="a_node5"><a xlink:title=" ">
<polygon fill="none" stroke="#bfbfbf" points="81.5,-168.5 81.5,-187.5 129.5,-187.5 129.5,-168.5 81.5,-168.5"/>
<text text-anchor="middle" x="105.5" y="-175.5" font-family="Helvetica,sans-Serif" font-size="10.00">iosfwd</text>
</a>
</g>
</g>
<!-- Node2&#45;&gt;Node5 -->
<g id="edge4" class="edge">
<title>Node2&#45;&gt;Node5</title>
<path fill="none" stroke="midnightblue" d="M135.76,-627.42C99.39,-599.68 25.5,-534.08 25.5,-459 25.5,-459 25.5,-459 25.5,-289 25.5,-248.62 61.19,-213.11 84.9,-193.97"/>
<polygon fill="midnightblue" stroke="midnightblue" points="87.24,-196.58 93,-187.69 82.95,-191.05 87.24,-196.58"/>
</g>
<!-- Node6 -->
<g id="node6" class="node">
<title>Node6</title>
<g id="a_node6"><a xlink:title=" ">
<polygon fill="none" stroke="#bfbfbf" points="745.5,-392.5 745.5,-411.5 831.5,-411.5 831.5,-392.5 745.5,-392.5"/>
<text text-anchor="middle" x="788.5" y="-399.5" font-family="Helvetica,sans-Serif" font-size="10.00">unordered_set</text>
</a>
</g>
</g>
<!-- Node2&#45;&gt;Node6 -->
<g id="edge5" class="edge">
<title>Node2&#45;&gt;Node6</title>
<path fill="none" stroke="midnightblue" d="M203.72,-627.41C235.87,-617.76 278.96,-604.34 316.5,-591 485.97,-530.77 684.93,-447.21 758.88,-415.7"/>
<polygon fill="midnightblue" stroke="midnightblue" points="760.64,-418.75 768.46,-411.61 757.89,-412.32 760.64,-418.75"/>
</g>
<!-- Node7 -->
<g id="node7" class="node">
<title>Node7</title>
<g id="a_node7"><a xlink:href="goto__functions_8h.html" target="_top" xlink:title="Goto Programs with Functions.">
<polygon fill="none" stroke="black" points="130,-560.5 130,-590.5 243,-590.5 243,-560.5 130,-560.5"/>
<text text-anchor="start" x="138" y="-578.5" font-family="Helvetica,sans-Serif" font-size="10.00">goto&#45;programs/goto</text>
<text text-anchor="middle" x="186.5" y="-567.5" font-family="Helvetica,sans-Serif" font-size="10.00">_functions.h</text>
</a>
</g>
</g>
<!-- Node2&#45;&gt;Node7 -->
<g id="edge6" class="edge">
<title>Node2&#45;&gt;Node7</title>
<path fill="none" stroke="midnightblue" d="M162.23,-627.4C166.09,-619.3 171.03,-608.94 175.44,-599.69"/>
<polygon fill="midnightblue" stroke="midnightblue" points="178.64,-601.11 179.79,-590.58 172.32,-598.1 178.64,-601.11"/>
</g>
<!-- Node7&#45;&gt;Node4 -->
<g id="edge58" class="edge">
<title>Node7&#45;&gt;Node4</title>
<path fill="none" stroke="midnightblue" d="M178.61,-560.33C160.5,-527.84 117.39,-450.56 115.5,-448 107.8,-437.6 97.9,-427.08 89.54,-418.84"/>
<polygon fill="midnightblue" stroke="midnightblue" points="91.75,-416.11 82.11,-411.7 86.9,-421.15 91.75,-416.11"/>
</g>
<!-- Node8 -->
<g id="node8" class="node">
<title>Node8</title>
<g id="a_node8"><a xlink:href="goto__function_8h.html" target="_top" xlink:title="Goto Function.">
<polygon fill="none" stroke="black" points="299.5,-504.5 299.5,-523.5 391.5,-523.5 391.5,-504.5 299.5,-504.5"/>
<text text-anchor="middle" x="345.5" y="-511.5" font-family="Helvetica,sans-Serif" font-size="10.00">goto_function.h</text>
</a>
</g>
</g>
<!-- Node7&#45;&gt;Node8 -->
<g id="edge7" class="edge">
<title>Node7&#45;&gt;Node8</title>
<path fill="none" stroke="midnightblue" d="M224.18,-560.4C251.1,-550.33 286.95,-536.91 312.69,-527.28"/>
<polygon fill="midnightblue" stroke="midnightblue" points="314.23,-530.44 322.36,-523.66 311.77,-523.88 314.23,-530.44"/>
</g>
<!-- Node53 -->
<g id="node35" class="node">
<title>Node53</title>
<g id="a_node35"><a xlink:href="cprover__prefix_8h.html" target="_top" xlink:title=" ">
<polygon fill="none" stroke="black" points="167.5,-504.5 167.5,-523.5 281.5,-523.5 281.5,-504.5 167.5,-504.5"/>
<text text-anchor="middle" x="224.5" y="-511.5" font-family="Helvetica,sans-Serif" font-size="10.00">util/cprover_prefix.h</text>
</a>
</g>
</g>
<!-- Node7&#45;&gt;Node53 -->
<g id="edge57" class="edge">
<title>Node7&#45;&gt;Node53</title>
<path fill="none" stroke="midnightblue" d="M195.51,-560.4C200.91,-551.93 207.83,-541.1 213.55,-532.14"/>
<polygon fill="midnightblue" stroke="midnightblue" points="216.54,-533.97 218.97,-523.66 210.64,-530.2 216.54,-533.97"/>
</g>
<!-- Node9 -->
<g id="node9" class="node">
<title>Node9</title>
<g id="a_node9"><a xlink:href="std__types_8h.html" target="_top" xlink:title="Pre&#45;defined types.">
<polygon fill="none" stroke="black" points="553.5,-280.5 553.5,-299.5 645.5,-299.5 645.5,-280.5 553.5,-280.5"/>
<text text-anchor="middle" x="599.5" y="-287.5" font-family="Helvetica,sans-Serif" font-size="10.00">util/std_types.h</text>
</a>
</g>
</g>
<!-- Node8&#45;&gt;Node9 -->
<g id="edge8" class="edge">
<title>Node8&#45;&gt;Node9</title>
<path fill="none" stroke="midnightblue" d="M391.88,-510.74C503.87,-504.23 783.99,-481.21 840.5,-412 895.62,-344.5 743.18,-311.19 655.87,-298.04"/>
<polygon fill="midnightblue" stroke="midnightblue" points="656.23,-294.55 645.83,-296.57 655.21,-301.48 656.23,-294.55"/>
</g>
<!-- Node47 -->
<g id="node28" class="node">
<title>Node47</title>
<g id="a_node28"><a xlink:href="goto__program_8h.html" target="_top" xlink:title="Concrete Goto Program.">
<polygon fill="none" stroke="black" points="241.5,-448.5 241.5,-467.5 335.5,-467.5 335.5,-448.5 241.5,-448.5"/>
<text text-anchor="middle" x="288.5" y="-455.5" font-family="Helvetica,sans-Serif" font-size="10.00">goto_program.h</text>
</a>
</g>
</g>
<!-- Node8&#45;&gt;Node47 -->
<g id="edge39" class="edge">
<title>Node8&#45;&gt;Node47</title>
<path fill="none" stroke="midnightblue" d="M336.34,-504.32C328,-496.42 315.47,-484.55 305.32,-474.94"/>
<polygon fill="midnightblue" stroke="midnightblue" points="307.49,-472.17 297.82,-467.83 302.68,-477.25 307.49,-472.17"/>
</g>
<!-- Node10 -->
<g id="node10" class="node">
<title>Node10</title>
<g id="a_node10"><a xlink:href="expr_8h.html" target="_top" xlink:title=" ">
<polygon fill="none" stroke="black" points="576,-168.5 576,-187.5 623,-187.5 623,-168.5 576,-168.5"/>
<text text-anchor="middle" x="599.5" y="-175.5" font-family="Helvetica,sans-Serif" font-size="10.00">expr.h</text>
</a>
</g>
</g>
<!-- Node9&#45;&gt;Node10 -->
<g id="edge9" class="edge">
<title>Node9&#45;&gt;Node10</title>
<path fill="none" stroke="midnightblue" d="M599.5,-280.37C599.5,-262.62 599.5,-221.67 599.5,-197.6"/>
<polygon fill="midnightblue" stroke="midnightblue" points="603,-197.59 599.5,-187.59 596,-197.59 603,-197.59"/>
</g>
<!-- Node37 -->
<g id="node16" class="node">
<title>Node37</title>
<g id="a_node16"><a xlink:href="validate_8h.html" target="_top" xlink:title=" ">
<polygon fill="none" stroke="red" points="762,-56.5 762,-75.5 827,-75.5 827,-56.5 762,-56.5"/>
<text text-anchor="middle" x="794.5" y="-63.5" font-family="Helvetica,sans-Serif" font-size="10.00">validate.h</text>
</a>
</g>
</g>
<!-- Node9&#45;&gt;Node37 -->
<g id="edge37" class="edge">
<title>Node9&#45;&gt;Node37</title>
<path fill="none" stroke="midnightblue" d="M605.91,-280.39C622.13,-259.07 666.88,-203.04 714.5,-168 743.63,-146.56 766.78,-161.65 787.5,-132 796.74,-118.77 797.88,-100.19 797.06,-86.28"/>
<polygon fill="midnightblue" stroke="midnightblue" points="800.5,-85.52 796.05,-75.91 793.54,-86.2 800.5,-85.52"/>
</g>
<!-- Node43 -->
<g id="node22" class="node">
<title>Node43</title>
<g id="a_node22"><a xlink:href="expr__cast_8h.html" target="_top" xlink:title="Templated functions to cast to specific exprt&#45;derived classes.">
<polygon fill="none" stroke="black" points="490,-224.5 490,-243.5 563,-243.5 563,-224.5 490,-224.5"/>
<text text-anchor="middle" x="526.5" y="-231.5" font-family="Helvetica,sans-Serif" font-size="10.00">expr_cast.h</text>
</a>
</g>
</g>
<!-- Node9&#45;&gt;Node43 -->
<g id="edge24" class="edge">
<title>Node9&#45;&gt;Node43</title>
<path fill="none" stroke="midnightblue" d="M587.77,-280.32C576.66,-272.11 559.76,-259.6 546.52,-249.81"/>
<polygon fill="midnightblue" stroke="midnightblue" points="548.56,-246.97 538.44,-243.83 544.4,-252.59 548.56,-246.97"/>
</g>
<!-- Node18 -->
<g id="node24" class="node">
<title>Node18</title>
<g id="a_node24"><a xlink:href="src_2util_2invariant_8h.html" target="_top" xlink:title=" ">
<polygon fill="none" stroke="red" points="186,-168.5 186,-187.5 255,-187.5 255,-168.5 186,-168.5"/>
<text text-anchor="middle" x="220.5" y="-175.5" font-family="Helvetica,sans-Serif" font-size="10.00">invariant.h</text>
</a>
</g>
</g>
<!-- Node9&#45;&gt;Node18 -->
<g id="edge32" class="edge">
<title>Node9&#45;&gt;Node18</title>
<path fill="none" stroke="midnightblue" d="M574.56,-280.49C550.25,-271.98 512.4,-258.16 480.5,-244 462.7,-236.1 459.88,-230.45 441.5,-224 382.37,-203.26 310.8,-190.86 265.46,-184.49"/>
<polygon fill="midnightblue" stroke="midnightblue" points="265.74,-180.99 255.36,-183.1 264.79,-187.93 265.74,-180.99"/>
</g>
<!-- Node45 -->
<g id="node25" class="node">
<title>Node45</title>
<g id="a_node25"><a xlink:href="mp__arith_8h.html" target="_top" xlink:title=" ">
<polygon fill="none" stroke="black" points="364,-224.5 364,-243.5 433,-243.5 433,-224.5 364,-224.5"/>
<text text-anchor="middle" x="398.5" y="-231.5" font-family="Helvetica,sans-Serif" font-size="10.00">mp_arith.h</text>
</a>
</g>
</g>
<!-- Node9&#45;&gt;Node45 -->
<g id="edge33" class="edge">
<title>Node9&#45;&gt;Node45</title>
<path fill="none" stroke="midnightblue" d="M567.65,-280.44C533.1,-271.16 477.82,-256.31 439.92,-246.13"/>
<polygon fill="midnightblue" stroke="midnightblue" points="440.77,-242.73 430.2,-243.52 438.95,-249.49 440.77,-242.73"/>
</g>
<!-- Node28 -->
<g id="node27" class="node">
<title>Node28</title>
<g id="a_node27"><a xlink:title=" ">
<polygon fill="none" stroke="#bfbfbf" points="724,-168.5 724,-187.5 817,-187.5 817,-168.5 724,-168.5"/>
<text text-anchor="middle" x="770.5" y="-175.5" font-family="Helvetica,sans-Serif" font-size="10.00">unordered_map</text>
</a>
</g>
</g>
<!-- Node9&#45;&gt;Node28 -->
<g id="edge38" class="edge">
<title>Node9&#45;&gt;Node28</title>
<path fill="none" stroke="midnightblue" d="M630.19,-280.37C653.28,-272.98 685.02,-260.84 709.5,-244 728.93,-230.63 746.84,-210.15 758.16,-195.76"/>
<polygon fill="midnightblue" stroke="midnightblue" points="761.02,-197.77 764.31,-187.7 755.46,-193.53 761.02,-197.77"/>
</g>
<!-- Node11 -->
<g id="node11" class="node">
<title>Node11</title>
<g id="a_node11"><a xlink:href="as__const_8h.html" target="_top" xlink:title=" ">
<polygon fill="none" stroke="black" points="421.5,-112.5 421.5,-131.5 489.5,-131.5 489.5,-112.5 421.5,-112.5"/>
<text text-anchor="middle" x="455.5" y="-119.5" font-family="Helvetica,sans-Serif" font-size="10.00">as_const.h</text>
</a>
</g>
</g>
<!-- Node10&#45;&gt;Node11 -->
<g id="edge10" class="edge">
<title>Node10&#45;&gt;Node11</title>
<path fill="none" stroke="midnightblue" d="M576.68,-168.44C552.67,-159.44 514.67,-145.19 487.63,-135.05"/>
<polygon fill="midnightblue" stroke="midnightblue" points="488.8,-131.75 478.21,-131.52 486.34,-138.3 488.8,-131.75"/>
</g>
<!-- Node12 -->
<g id="node12" class="node">
<title>Node12</title>
<g id="a_node12"><a xlink:href="type_8h.html" target="_top" xlink:title="Defines typet, type_with_subtypet and type_with_subtypest.">
<polygon fill="none" stroke="black" points="732,-112.5 732,-131.5 779,-131.5 779,-112.5 732,-112.5"/>
<text text-anchor="middle" x="755.5" y="-119.5" font-family="Helvetica,sans-Serif" font-size="10.00">type.h</text>
</a>
</g>
</g>
<!-- Node10&#45;&gt;Node12 -->
<g id="edge11" class="edge">
<title>Node10&#45;&gt;Node12</title>
<path fill="none" stroke="midnightblue" d="M623.19,-168.8C649.61,-159.65 692.53,-144.8 722.29,-134.49"/>
<polygon fill="midnightblue" stroke="midnightblue" points="723.54,-137.77 731.84,-131.19 721.25,-131.15 723.54,-137.77"/>
</g>
<!-- Node39 -->
<g id="node18" class="node">
<title>Node39</title>
<g id="a_node18"><a xlink:href="validation__mode_8h.html" target="_top" xlink:title=" ">
<polygon fill="none" stroke="black" points="680,-0.5 680,-19.5 787,-19.5 787,-0.5 680,-0.5"/>
<text text-anchor="middle" x="733.5" y="-7.5" font-family="Helvetica,sans-Serif" font-size="10.00">validation_mode.h</text>
</a>
</g>
</g>
<!-- Node10&#45;&gt;Node39 -->
<g id="edge22" class="edge">
<title>Node10&#45;&gt;Node39</title>
<path fill="none" stroke="midnightblue" d="M623.19,-170.2C653.94,-160.1 701.63,-139.36 683.5,-112 660.84,-77.8 621.16,-110.2 598.5,-76 593.59,-68.59 593.3,-63.21 598.5,-56 614.9,-33.25 643.29,-21.83 669.82,-16.16"/>
<polygon fill="midnightblue" stroke="midnightblue" points="670.69,-19.56 679.87,-14.26 669.39,-12.68 670.69,-19.56"/>
</g>
<!-- Node40 -->
<g id="node19" class="node">
<title>Node40</title>
<g id="a_node19"><a xlink:href="validate__types_8h.html" target="_top" xlink:title=" ">
<polygon fill="none" stroke="black" points="607.5,-56.5 607.5,-75.5 705.5,-75.5 705.5,-56.5 607.5,-56.5"/>
<text text-anchor="middle" x="656.5" y="-63.5" font-family="Helvetica,sans-Serif" font-size="10.00">validate_types.h</text>
</a>
</g>
</g>
<!-- Node10&#45;&gt;Node40 -->
<g id="edge21" class="edge">
<title>Node10&#45;&gt;Node40</title>
<path fill="none" stroke="midnightblue" d="M579.87,-168.38C556.03,-156.68 520.84,-134.6 536.5,-112 550.47,-91.84 574.67,-80.7 597.69,-74.54"/>
<polygon fill="midnightblue" stroke="midnightblue" points="598.54,-77.94 607.45,-72.2 596.91,-71.13 598.54,-77.94"/>
</g>
<!-- Node41 -->
<g id="node20" class="node">
<title>Node41</title>
<g id="a_node20"><a xlink:href="validate__expressions_8h.html" target="_top" xlink:title=" ">
<polygon fill="none" stroke="black" points="546,-112.5 546,-131.5 675,-131.5 675,-112.5 546,-112.5"/>
<text text-anchor="middle" x="610.5" y="-119.5" font-family="Helvetica,sans-Serif" font-size="10.00">validate_expressions.h</text>
</a>
</g>
</g>
<!-- Node10&#45;&gt;Node41 -->
<g id="edge20" class="edge">
<title>Node10&#45;&gt;Node41</title>
<path fill="none" stroke="midnightblue" d="M601.32,-168.08C602.77,-160.93 604.87,-150.64 606.69,-141.69"/>
<polygon fill="midnightblue" stroke="midnightblue" points="610.15,-142.25 608.72,-131.75 603.29,-140.85 610.15,-142.25"/>
</g>
<!-- Node42 -->
<g id="node21" class="node">
<title>Node42</title>
<g id="a_node21"><a xlink:title=" ">
<polygon fill="none" stroke="#bfbfbf" points="338,-112.5 338,-131.5 403,-131.5 403,-112.5 338,-112.5"/>
<text text-anchor="middle" x="370.5" y="-119.5" font-family="Helvetica,sans-Serif" font-size="10.00">functional</text>
</a>
</g>
</g>
<!-- Node10&#45;&gt;Node42 -->
<g id="edge23" class="edge">
<title>Node10&#45;&gt;Node42</title>
<path fill="none" stroke="midnightblue" d="M575.75,-170.61C572.31,-169.72 568.82,-168.82 565.5,-168 513.07,-155.01 452.4,-141.2 412.84,-132.36"/>
<polygon fill="midnightblue" stroke="midnightblue" points="413.53,-128.93 403.01,-130.17 412.01,-135.76 413.53,-128.93"/>
</g>
<!-- Node13 -->
<g id="node13" class="node">
<title>Node13</title>
<g id="a_node13"><a xlink:href="source__location_8h.html" target="_top" xlink:title=" ">
<polygon fill="none" stroke="red" points="845.5,-56.5 845.5,-75.5 947.5,-75.5 947.5,-56.5 845.5,-56.5"/>
<text text-anchor="middle" x="896.5" y="-63.5" font-family="Helvetica,sans-Serif" font-size="10.00">source_location.h</text>
</a>
</g>
</g>
<!-- Node12&#45;&gt;Node13 -->
<g id="edge12" class="edge">
<title>Node12&#45;&gt;Node13</title>
<path fill="none" stroke="midnightblue" d="M777.84,-112.44C801.25,-103.48 838.24,-89.31 864.69,-79.18"/>
<polygon fill="midnightblue" stroke="midnightblue" points="866.18,-82.36 874.26,-75.52 863.67,-75.82 866.18,-82.36"/>
</g>
<!-- Node12&#45;&gt;Node37 -->
<g id="edge15" class="edge">
<title>Node12&#45;&gt;Node37</title>
<path fill="none" stroke="midnightblue" d="M761.94,-112.08C767.45,-104.46 775.53,-93.26 782.26,-83.94"/>
<polygon fill="midnightblue" stroke="midnightblue" points="785.16,-85.91 788.18,-75.75 779.49,-81.81 785.16,-85.91"/>
</g>
<!-- Node12&#45;&gt;Node39 -->
<g id="edge19" class="edge">
<title>Node12&#45;&gt;Node39</title>
<path fill="none" stroke="midnightblue" d="M753.77,-112.37C750.22,-94.62 742.03,-53.67 737.22,-29.6"/>
<polygon fill="midnightblue" stroke="midnightblue" points="740.61,-28.71 735.22,-19.59 733.75,-30.08 740.61,-28.71"/>
</g>
<!-- Node12&#45;&gt;Node40 -->
<g id="edge18" class="edge">
<title>Node12&#45;&gt;Node40</title>
<path fill="none" stroke="midnightblue" d="M739.59,-112.32C723.86,-103.74 699.56,-90.49 681.29,-80.52"/>
<polygon fill="midnightblue" stroke="midnightblue" points="682.82,-77.37 672.37,-75.65 679.47,-83.52 682.82,-77.37"/>
</g>
<!-- Node36 -->
<g id="node14" class="node">
<title>Node36</title>
<g id="a_node14"><a xlink:title=" ">
<polygon fill="none" stroke="#bfbfbf" points="907.5,-0.5 907.5,-19.5 963.5,-19.5 963.5,-0.5 907.5,-0.5"/>
<text text-anchor="middle" x="935.5" y="-7.5" font-family="Helvetica,sans-Serif" font-size="10.00">optional</text>
</a>
</g>
</g>
<!-- Node13&#45;&gt;Node36 -->
<g id="edge13" class="edge">
<title>Node13&#45;&gt;Node36</title>
<path fill="none" stroke="midnightblue" d="M902.94,-56.08C908.45,-48.46 916.53,-37.26 923.26,-27.94"/>
<polygon fill="midnightblue" stroke="midnightblue" points="926.16,-29.91 929.18,-19.75 920.49,-25.81 926.16,-29.91"/>
</g>
<!-- Node16 -->
<g id="node15" class="node">
<title>Node16</title>
<g id="a_node15"><a xlink:title=" ">
<polygon fill="none" stroke="#bfbfbf" points="193.5,-0.5 193.5,-19.5 237.5,-19.5 237.5,-0.5 193.5,-0.5"/>
<text text-anchor="middle" x="215.5" y="-7.5" font-family="Helvetica,sans-Serif" font-size="10.00">string</text>
</a>
</g>
</g>
<!-- Node13&#45;&gt;Node16 -->
<g id="edge14" class="edge">
<title>Node13&#45;&gt;Node16</title>
<path fill="none" stroke="midnightblue" d="M845.48,-57.04C842.44,-56.66 839.43,-56.31 836.5,-56 583.64,-29.12 517.94,-50.57 265.5,-20 259.81,-19.31 253.78,-18.39 247.96,-17.4"/>
<polygon fill="midnightblue" stroke="midnightblue" points="248.28,-13.9 237.82,-15.58 247.04,-20.79 248.28,-13.9"/>
</g>
<!-- Node21 -->
<g id="node17" class="node">
<title>Node21</title>
<g id="a_node17"><a xlink:title=" ">
<polygon fill="none" stroke="#bfbfbf" points="275,-0.5 275,-19.5 344,-19.5 344,-0.5 275,-0.5"/>
<text text-anchor="middle" x="309.5" y="-7.5" font-family="Helvetica,sans-Serif" font-size="10.00">type_traits</text>
</a>
</g>
</g>
<!-- Node37&#45;&gt;Node21 -->
<g id="edge16" class="edge">
<title>Node37&#45;&gt;Node21</title>
<path fill="none" stroke="midnightblue" d="M761.81,-61.31C747.31,-59.68 730.06,-57.74 714.5,-56 583.56,-41.36 428.79,-24.2 354.16,-15.94"/>
<polygon fill="midnightblue" stroke="midnightblue" points="354.5,-12.46 344.17,-14.84 353.73,-19.42 354.5,-12.46"/>
</g>
<!-- Node37&#45;&gt;Node39 -->
<g id="edge17" class="edge">
<title>Node37&#45;&gt;Node39</title>
<path fill="none" stroke="midnightblue" d="M784.7,-56.32C775.68,-48.34 762.09,-36.31 751.18,-26.65"/>
<polygon fill="midnightblue" stroke="midnightblue" points="753.29,-23.84 743.48,-19.83 748.65,-29.08 753.29,-23.84"/>
</g>
<!-- Node43&#45;&gt;Node10 -->
<g id="edge31" class="edge">
<title>Node43&#45;&gt;Node10</title>
<path fill="none" stroke="midnightblue" d="M538.23,-224.32C549.34,-216.11 566.24,-203.6 579.48,-193.81"/>
<polygon fill="midnightblue" stroke="midnightblue" points="581.6,-196.59 587.56,-187.83 577.44,-190.97 581.6,-196.59"/>
</g>
<!-- Node43&#45;&gt;Node21 -->
<g id="edge26" class="edge">
<title>Node43&#45;&gt;Node21</title>
<path fill="none" stroke="midnightblue" d="M511.29,-224.49C495.33,-215.53 469.55,-200.96 447.5,-188 432.71,-179.31 429.79,-175.78 414.5,-168 377.57,-149.21 354.07,-164.61 328.5,-132 305.18,-102.27 305.08,-55.51 307.2,-29.69"/>
<polygon fill="midnightblue" stroke="midnightblue" points="310.68,-30.03 308.22,-19.72 303.72,-29.32 310.68,-30.03"/>
</g>
<!-- Node43&#45;&gt;Node42 -->
<g id="edge27" class="edge">
<title>Node43&#45;&gt;Node42</title>
<path fill="none" stroke="midnightblue" d="M517.16,-224.48C502.76,-211.54 474.02,-186.48 447.5,-168 430.88,-156.42 411.13,-144.92 395.8,-136.44"/>
<polygon fill="midnightblue" stroke="midnightblue" points="397.34,-133.3 386.89,-131.58 393.99,-139.45 397.34,-133.3"/>
</g>
<!-- Node44 -->
<g id="node23" class="node">
<title>Node44</title>
<g id="a_node23"><a xlink:title=" ">
<polygon fill="none" stroke="#bfbfbf" points="500,-168.5 500,-187.5 557,-187.5 557,-168.5 500,-168.5"/>
<text text-anchor="middle" x="528.5" y="-175.5" font-family="Helvetica,sans-Serif" font-size="10.00">typeinfo</text>
</a>
</g>
</g>
<!-- Node43&#45;&gt;Node44 -->
<g id="edge25" class="edge">
<title>Node43&#45;&gt;Node44</title>
<path fill="none" stroke="midnightblue" d="M526.83,-224.08C527.09,-217.01 527.47,-206.86 527.8,-197.99"/>
<polygon fill="midnightblue" stroke="midnightblue" points="531.3,-197.87 528.18,-187.75 524.31,-197.61 531.3,-197.87"/>
</g>
<!-- Node43&#45;&gt;Node18 -->
<g id="edge28" class="edge">
<title>Node43&#45;&gt;Node18</title>
<path fill="none" stroke="midnightblue" d="M489.89,-226.54C433.66,-216.62 326.15,-197.64 265.33,-186.91"/>
<polygon fill="midnightblue" stroke="midnightblue" points="265.72,-183.43 255.26,-185.13 264.5,-190.32 265.72,-183.43"/>
</g>
<!-- Node18&#45;&gt;Node16 -->
<g id="edge29" class="edge">
<title>Node18&#45;&gt;Node16</title>
<path fill="none" stroke="midnightblue" d="M220.23,-168.08C219.44,-141.95 217.13,-65.21 216.06,-29.58"/>
<polygon fill="midnightblue" stroke="midnightblue" points="219.56,-29.46 215.76,-19.57 212.56,-29.67 219.56,-29.46"/>
</g>
<!-- Node18&#45;&gt;Node21 -->
<g id="edge30" class="edge">
<title>Node18&#45;&gt;Node21</title>
<path fill="none" stroke="midnightblue" d="M225.29,-168.08C239.42,-141.72 281.15,-63.88 300.03,-28.66"/>
<polygon fill="midnightblue" stroke="midnightblue" points="303.27,-30.04 304.91,-19.57 297.1,-26.73 303.27,-30.04"/>
</g>
<!-- Node45&#45;&gt;Node5 -->
<g id="edge34" class="edge">
<title>Node45&#45;&gt;Node5</title>
<path fill="none" stroke="midnightblue" d="M363.74,-226.59C307.2,-216.17 196,-195.68 139.78,-185.32"/>
<polygon fill="midnightblue" stroke="midnightblue" points="140.09,-181.82 129.62,-183.45 138.82,-188.7 140.09,-181.82"/>
</g>
<!-- Node45&#45;&gt;Node16 -->
<g id="edge35" class="edge">
<title>Node45&#45;&gt;Node16</title>
<path fill="none" stroke="midnightblue" d="M367.67,-224.47C347.11,-217.48 320.63,-205.79 302.5,-188 278.05,-164 238.66,-69.36 222.63,-29.19"/>
<polygon fill="midnightblue" stroke="midnightblue" points="225.86,-27.82 218.92,-19.81 219.35,-30.4 225.86,-27.82"/>
</g>
<!-- Node46 -->
<g id="node26" class="node">
<title>Node46</title>
<g id="a_node26"><a xlink:title=" ">
<polygon fill="none" stroke="#bfbfbf" points="311.5,-168.5 311.5,-187.5 405.5,-187.5 405.5,-168.5 311.5,-168.5"/>
<text text-anchor="middle" x="358.5" y="-175.5" font-family="Helvetica,sans-Serif" font-size="10.00">big&#45;int/bigint.hh</text>
</a>
</g>
</g>
<!-- Node45&#45;&gt;Node46 -->
<g id="edge36" class="edge">
<title>Node45&#45;&gt;Node46</title>
<path fill="none" stroke="midnightblue" d="M391.89,-224.08C386.24,-216.46 377.96,-205.26 371.05,-195.94"/>
<polygon fill="midnightblue" stroke="midnightblue" points="373.75,-193.7 364.98,-187.75 368.12,-197.87 373.75,-193.7"/>
</g>
<!-- Node47&#45;&gt;Node5 -->
<g id="edge52" class="edge">
<title>Node47&#45;&gt;Node5</title>
<path fill="none" stroke="midnightblue" d="M241.3,-453.09C209.96,-448.15 169.89,-437.03 143.5,-412 121.16,-390.81 119.5,-377.8 119.5,-347 119.5,-347 119.5,-347 119.5,-289 119.5,-256.54 113.43,-219.12 109.28,-197.36"/>
<polygon fill="midnightblue" stroke="midnightblue" points="112.71,-196.64 107.33,-187.51 105.84,-198 112.71,-196.64"/>
</g>
<!-- Node47&#45;&gt;Node13 -->
<g id="edge41" class="edge">
<title>Node47&#45;&gt;Node13</title>
<path fill="none" stroke="midnightblue" d="M335.54,-449.37C338.57,-448.9 341.58,-448.44 344.5,-448 459.43,-430.78 497.13,-458.83 603.5,-412 736.74,-353.34 773.27,-316.07 842.5,-188 861.57,-152.73 879.7,-109.39 889.34,-85.33"/>
<polygon fill="midnightblue" stroke="midnightblue" points="892.71,-86.31 893.14,-75.72 886.2,-83.73 892.71,-86.31"/>
</g>
<!-- Node47&#45;&gt;Node16 -->
<g id="edge56" class="edge">
<title>Node47&#45;&gt;Node16</title>
<path fill="none" stroke="midnightblue" d="M262.31,-448.41C224.08,-434.03 157.5,-401.2 157.5,-347 157.5,-347 157.5,-347 157.5,-121 157.5,-84.16 183.27,-47.57 200.45,-27.25"/>
<polygon fill="midnightblue" stroke="midnightblue" points="203.21,-29.41 207.19,-19.59 197.96,-24.79 203.21,-29.41"/>
</g>
<!-- Node47&#45;&gt;Node18 -->
<g id="edge40" class="edge">
<title>Node47&#45;&gt;Node18</title>
<path fill="none" stroke="midnightblue" d="M265.62,-448.41C249.14,-441.1 227.59,-429.06 214.5,-412 196.18,-388.12 195.5,-377.1 195.5,-347 195.5,-347 195.5,-347 195.5,-289 195.5,-256 206.33,-218.77 213.74,-197.19"/>
<polygon fill="midnightblue" stroke="midnightblue" points="217.07,-198.28 217.13,-187.69 210.47,-195.93 217.07,-198.28"/>
</g>
<!-- Node48 -->
<g id="node29" class="node">
<title>Node48</title>
<g id="a_node29"><a xlink:href="goto__instruction__code_8h.html" target="_top" xlink:title=" ">
<polygon fill="none" stroke="black" points="462,-392.5 462,-411.5 595,-411.5 595,-392.5 462,-392.5"/>
<text text-anchor="middle" x="528.5" y="-399.5" font-family="Helvetica,sans-Serif" font-size="10.00">goto_instruction_code.h</text>
</a>
</g>
</g>
<!-- Node47&#45;&gt;Node48 -->
<g id="edge42" class="edge">
<title>Node47&#45;&gt;Node48</title>
<path fill="none" stroke="midnightblue" d="M326.53,-448.44C368.31,-439.04 435.48,-423.93 480.77,-413.74"/>
<polygon fill="midnightblue" stroke="midnightblue" points="481.66,-417.13 490.65,-411.52 480.12,-410.3 481.66,-417.13"/>
</g>
<!-- Node51 -->
<g id="node32" class="node">
<title>Node51</title>
<g id="a_node32"><a xlink:title=" ">
<polygon fill="none" stroke="#bfbfbf" points="223.5,-392.5 223.5,-411.5 267.5,-411.5 267.5,-392.5 223.5,-392.5"/>
<text text-anchor="middle" x="245.5" y="-399.5" font-family="Helvetica,sans-Serif" font-size="10.00">limits</text>
</a>
</g>
</g>
<!-- Node47&#45;&gt;Node51 -->
<g id="edge53" class="edge">
<title>Node47&#45;&gt;Node51</title>
<path fill="none" stroke="midnightblue" d="M281.4,-448.08C275.26,-440.38 266.23,-429.03 258.76,-419.65"/>
<polygon fill="midnightblue" stroke="midnightblue" points="261.44,-417.39 252.47,-411.75 255.96,-421.75 261.44,-417.39"/>
</g>
<!-- Node27 -->
<g id="node33" class="node">
<title>Node27</title>
<g id="a_node33"><a xlink:title=" ">
<polygon fill="none" stroke="#bfbfbf" points="335.5,-392.5 335.5,-411.5 367.5,-411.5 367.5,-392.5 335.5,-392.5"/>
<text text-anchor="middle" x="351.5" y="-399.5" font-family="Helvetica,sans-Serif" font-size="10.00">list</text>
</a>
</g>
</g>
<!-- Node47&#45;&gt;Node27 -->
<g id="edge54" class="edge">
<title>Node47&#45;&gt;Node27</title>
<path fill="none" stroke="midnightblue" d="M298.62,-448.32C308.03,-440.26 322.24,-428.08 333.57,-418.37"/>
<polygon fill="midnightblue" stroke="midnightblue" points="335.88,-421 341.19,-411.83 331.32,-415.68 335.88,-421"/>
</g>
<!-- Node52 -->
<g id="node34" class="node">
<title>Node52</title>
<g id="a_node34"><a xlink:title=" ">
<polygon fill="none" stroke="#bfbfbf" points="285.5,-392.5 285.5,-411.5 317.5,-411.5 317.5,-392.5 285.5,-392.5"/>
<text text-anchor="middle" x="301.5" y="-399.5" font-family="Helvetica,sans-Serif" font-size="10.00">set</text>
</a>
</g>
</g>
<!-- Node47&#45;&gt;Node52 -->
<g id="edge55" class="edge">
<title>Node47&#45;&gt;Node52</title>
<path fill="none" stroke="midnightblue" d="M290.65,-448.08C292.37,-440.93 294.85,-430.64 297,-421.69"/>
<polygon fill="midnightblue" stroke="midnightblue" points="300.46,-422.29 299.39,-411.75 293.65,-420.65 300.46,-422.29"/>
</g>
<!-- Node49 -->
<g id="node30" class="node">
<title>Node49</title>
<g id="a_node30"><a xlink:href="std__code__base_8h.html" target="_top" xlink:title=" ">
<polygon fill="none" stroke="black" points="535.5,-336.5 535.5,-355.5 651.5,-355.5 651.5,-336.5 535.5,-336.5"/>
<text text-anchor="middle" x="593.5" y="-343.5" font-family="Helvetica,sans-Serif" font-size="10.00">util/std_code_base.h</text>
</a>
</g>
</g>
<!-- Node48&#45;&gt;Node49 -->
<g id="edge43" class="edge">
<title>Node48&#45;&gt;Node49</title>
<path fill="none" stroke="midnightblue" d="M538.94,-392.32C548.65,-384.26 563.32,-372.08 575,-362.37"/>
<polygon fill="midnightblue" stroke="midnightblue" points="577.41,-364.92 582.87,-355.83 572.94,-359.53 577.41,-364.92"/>
</g>
<!-- Node50 -->
<g id="node31" class="node">
<title>Node50</title>
<g id="a_node31"><a xlink:href="std__expr_8h.html" target="_top" xlink:title="API to expression classes.">
<polygon fill="none" stroke="black" points="431.5,-336.5 431.5,-355.5 517.5,-355.5 517.5,-336.5 431.5,-336.5"/>
<text text-anchor="middle" x="474.5" y="-343.5" font-family="Helvetica,sans-Serif" font-size="10.00">util/std_expr.h</text>
</a>
</g>
</g>
<!-- Node48&#45;&gt;Node50 -->
<g id="edge48" class="edge">
<title>Node48&#45;&gt;Node50</title>
<path fill="none" stroke="midnightblue" d="M519.58,-392.08C511.72,-384.22 500.07,-372.57 490.58,-363.08"/>
<polygon fill="midnightblue" stroke="midnightblue" points="492.8,-360.35 483.25,-355.75 487.85,-365.3 492.8,-360.35"/>
</g>
<!-- Node49&#45;&gt;Node9 -->
<g id="edge46" class="edge">
<title>Node49&#45;&gt;Node9</title>
<path fill="none" stroke="midnightblue" d="M594.49,-336.08C595.29,-328.93 596.43,-318.64 597.42,-309.69"/>
<polygon fill="midnightblue" stroke="midnightblue" points="600.9,-310.08 598.53,-299.75 593.94,-309.3 600.9,-310.08"/>
</g>
<!-- Node49&#45;&gt;Node37 -->
<g id="edge47" class="edge">
<title>Node49&#45;&gt;Node37</title>
<path fill="none" stroke="midnightblue" d="M619.95,-336.5C670.84,-318.53 781.27,-271.34 825.5,-188 843.63,-153.84 821.46,-108.56 806.34,-84.22"/>
<polygon fill="midnightblue" stroke="midnightblue" points="809.19,-82.19 800.8,-75.72 803.32,-86.01 809.19,-82.19"/>
</g>
<!-- Node49&#45;&gt;Node43 -->
<g id="edge44" class="edge">
<title>Node49&#45;&gt;Node43</title>
<path fill="none" stroke="midnightblue" d="M580.78,-336.49C569.63,-328.38 553.78,-315.17 544.5,-300 535.81,-285.8 531.22,-267.32 528.86,-253.7"/>
<polygon fill="midnightblue" stroke="midnightblue" points="532.29,-252.97 527.35,-243.6 525.36,-254 532.29,-252.97"/>
</g>
<!-- Node49&#45;&gt;Node18 -->
<g id="edge45" class="edge">
<title>Node49&#45;&gt;Node18</title>
<path fill="none" stroke="midnightblue" d="M571.48,-336.42C529.02,-319.72 433.08,-281.2 354.5,-244 337.25,-235.83 333.59,-232.5 316.5,-224 293.8,-212.71 267.74,-200.55 248.5,-191.71"/>
<polygon fill="midnightblue" stroke="midnightblue" points="249.94,-188.52 239.39,-187.54 247.02,-194.88 249.94,-188.52"/>
</g>
<!-- Node50&#45;&gt;Node9 -->
<g id="edge51" class="edge">
<title>Node50&#45;&gt;Node9</title>
<path fill="none" stroke="midnightblue" d="M494.31,-336.44C514.79,-327.6 546.98,-313.69 570.36,-303.59"/>
<polygon fill="midnightblue" stroke="midnightblue" points="571.99,-306.7 579.79,-299.52 569.22,-300.27 571.99,-306.7"/>
</g>
<!-- Node50&#45;&gt;Node43 -->
<g id="edge49" class="edge">
<title>Node50&#45;&gt;Node43</title>
<path fill="none" stroke="midnightblue" d="M478.58,-336.37C487.05,-318.46 506.68,-276.92 518.02,-252.95"/>
<polygon fill="midnightblue" stroke="midnightblue" points="521.33,-254.13 522.44,-243.59 515,-251.14 521.33,-254.13"/>
</g>
<!-- Node50&#45;&gt;Node18 -->
<g id="edge50" class="edge">
<title>Node50&#45;&gt;Node18</title>
<path fill="none" stroke="midnightblue" d="M461.2,-336.31C419.88,-309.3 293.44,-226.67 242.3,-193.25"/>
<polygon fill="midnightblue" stroke="midnightblue" points="243.95,-190.15 233.67,-187.61 240.12,-196.01 243.95,-190.15"/>
</g>
<!-- Node54&#45;&gt;Node4 -->
<g id="edge61" class="edge">
<title>Node54&#45;&gt;Node4</title>
<path fill="none" stroke="midnightblue" d="M353.48,-449.55C350.44,-449.02 347.42,-448.5 344.5,-448 256.15,-432.9 151.52,-415.81 101.69,-407.72"/>
<polygon fill="midnightblue" stroke="midnightblue" points="102.07,-404.24 91.64,-406.09 100.95,-411.15 102.07,-404.24"/>
</g>
<!-- Node54&#45;&gt;Node6 -->
<g id="edge63" class="edge">
<title>Node54&#45;&gt;Node6</title>
<path fill="none" stroke="midnightblue" d="M437.71,-451.67C501.43,-443.55 625.94,-427.4 731.5,-412 732.75,-411.82 734.02,-411.63 735.31,-411.44"/>
<polygon fill="midnightblue" stroke="midnightblue" points="735.89,-414.89 745.26,-409.94 734.85,-407.97 735.89,-414.89"/>
</g>
<!-- Node54&#45;&gt;Node45 -->
<g id="edge64" class="edge">
<title>Node54&#45;&gt;Node45</title>
<path fill="none" stroke="midnightblue" d="M395.72,-448.37C395.94,-439.32 396.29,-424.66 396.5,-412 397.46,-354.53 398.09,-286.56 398.35,-254.11"/>
<polygon fill="midnightblue" stroke="midnightblue" points="401.85,-253.87 398.43,-243.84 394.85,-253.81 401.85,-253.87"/>
</g>
<!-- Node54&#45;&gt;Node27 -->
<g id="edge60" class="edge">
<title>Node54&#45;&gt;Node27</title>
<path fill="none" stroke="midnightblue" d="M388.23,-448.08C381.96,-440.38 372.71,-429.03 365.07,-419.65"/>
<polygon fill="midnightblue" stroke="midnightblue" points="367.66,-417.29 358.63,-411.75 362.23,-421.71 367.66,-417.29"/>
</g>
<!-- Node54&#45;&gt;Node52 -->
<g id="edge62" class="edge">
<title>Node54&#45;&gt;Node52</title>
<path fill="none" stroke="midnightblue" d="M380.4,-448.32C365.6,-439.82 342.81,-426.73 325.52,-416.8"/>
<polygon fill="midnightblue" stroke="midnightblue" points="326.98,-413.6 316.57,-411.65 323.49,-419.67 326.98,-413.6"/>
</g>
<!-- Node55 -->
<g id="node37" class="node">
<title>Node55</title>
<g id="a_node37"><a xlink:href="reference__counting_8h.html" target="_top" xlink:title="Reference Counting.">
<polygon fill="none" stroke="black" points="233.5,-336.5 233.5,-355.5 371.5,-355.5 371.5,-336.5 233.5,-336.5"/>
<text text-anchor="middle" x="302.5" y="-343.5" font-family="Helvetica,sans-Serif" font-size="10.00">util/reference_counting.h</text>
</a>
</g>
</g>
<!-- Node54&#45;&gt;Node55 -->
<g id="edge65" class="edge">
<title>Node54&#45;&gt;Node55</title>
<path fill="none" stroke="midnightblue" d="M394.92,-448.1C393.63,-434.67 389.52,-408.98 376.5,-392 365.76,-378.01 349.33,-367.39 334.67,-359.99"/>
<polygon fill="midnightblue" stroke="midnightblue" points="335.91,-356.7 325.38,-355.59 332.92,-363.03 335.91,-356.7"/>
</g>
<!-- Node56 -->
<g id="node38" class="node">
<title>Node56</title>
<g id="a_node38"><a xlink:href="object__numbering_8h.html" target="_top" xlink:title="Object Numbering.">
<polygon fill="none" stroke="black" points="874,-280.5 874,-299.5 987,-299.5 987,-280.5 874,-280.5"/>
<text text-anchor="middle" x="930.5" y="-287.5" font-family="Helvetica,sans-Serif" font-size="10.00">object_numbering.h</text>
</a>
</g>
</g>
<!-- Node54&#45;&gt;Node56 -->
<g id="edge67" class="edge">
<title>Node54&#45;&gt;Node56</title>
<path fill="none" stroke="midnightblue" d="M437.93,-454.88C496.63,-451 605.33,-440.34 693.5,-412 704.62,-408.43 846.08,-334.98 905.01,-304.29"/>
<polygon fill="midnightblue" stroke="midnightblue" points="906.79,-307.31 914.04,-299.59 903.56,-301.1 906.79,-307.31"/>
</g>
<!-- Node55&#45;&gt;Node18 -->
<g id="edge66" class="edge">
<title>Node55&#45;&gt;Node18</title>
<path fill="none" stroke="midnightblue" d="M297.53,-336.47C292.36,-327.48 284.1,-312.88 277.5,-300 258.95,-263.82 239.11,-220.53 228.42,-196.78"/>
<polygon fill="midnightblue" stroke="midnightblue" points="231.6,-195.3 224.31,-187.6 225.21,-198.16 231.6,-195.3"/>
</g>
<!-- Node56&#45;&gt;Node10 -->
<g id="edge68" class="edge">
<title>Node56&#45;&gt;Node10</title>
<path fill="none" stroke="midnightblue" d="M904.8,-280.46C845.42,-260.73 698.73,-211.98 632.68,-190.03"/>
<polygon fill="midnightblue" stroke="midnightblue" points="633.76,-186.7 623.17,-186.86 631.55,-193.34 633.76,-186.7"/>
</g>
<!-- Node57 -->
<g id="node39" class="node">
<title>Node57</title>
<g id="a_node39"><a xlink:href="numbering_8h.html" target="_top" xlink:title=" ">
<polygon fill="none" stroke="black" points="912,-224.5 912,-243.5 1009,-243.5 1009,-224.5 912,-224.5"/>
<text text-anchor="middle" x="960.5" y="-231.5" font-family="Helvetica,sans-Serif" font-size="10.00">util/numbering.h</text>
</a>
</g>
</g>
<!-- Node56&#45;&gt;Node57 -->
<g id="edge69" class="edge">
<title>Node56&#45;&gt;Node57</title>
<path fill="none" stroke="midnightblue" d="M935.45,-280.08C939.6,-272.61 945.65,-261.72 950.77,-252.52"/>
<polygon fill="midnightblue" stroke="midnightblue" points="953.84,-254.19 955.64,-243.75 947.72,-250.79 953.84,-254.19"/>
</g>
<!-- Node57&#45;&gt;Node36 -->
<g id="edge71" class="edge">
<title>Node57&#45;&gt;Node36</title>
<path fill="none" stroke="midnightblue" d="M961.54,-224.37C964.41,-198.44 971.26,-119.15 956.5,-56 954.27,-46.45 949.87,-36.5 945.68,-28.4"/>
<polygon fill="midnightblue" stroke="midnightblue" points="948.71,-26.64 940.82,-19.57 942.58,-30.02 948.71,-26.64"/>
</g>
<!-- Node57&#45;&gt;Node18 -->
<g id="edge70" class="edge">
<title>Node57&#45;&gt;Node18</title>
<path fill="none" stroke="midnightblue" d="M911.74,-230.35C802.54,-224.27 530.03,-208.26 302.5,-188 290.47,-186.93 277.48,-185.59 265.45,-184.27"/>
<polygon fill="midnightblue" stroke="midnightblue" points="265.51,-180.75 255.18,-183.13 264.73,-187.71 265.51,-180.75"/>
</g>
<!-- Node57&#45;&gt;Node28 -->
<g id="edge72" class="edge">
<title>Node57&#45;&gt;Node28</title>
<path fill="none" stroke="midnightblue" d="M930.39,-224.44C897.87,-215.2 845.92,-200.44 810.11,-190.26"/>
<polygon fill="midnightblue" stroke="midnightblue" points="811.04,-186.88 800.47,-187.52 809.13,-193.62 811.04,-186.88"/>
</g>
<!-- Node17 -->
<g id="node40" class="node">
<title>Node17</title>
<g id="a_node40"><a xlink:title=" ">
<polygon fill="none" stroke="#bfbfbf" points="1004,-168.5 1004,-187.5 1051,-187.5 1051,-168.5 1004,-168.5"/>
<text text-anchor="middle" x="1027.5" y="-175.5" font-family="Helvetica,sans-Serif" font-size="10.00">vector</text>
</a>
</g>
</g>
<!-- Node57&#45;&gt;Node17 -->
<g id="edge73" class="edge">
<title>Node57&#45;&gt;Node17</title>
<path fill="none" stroke="midnightblue" d="M971.26,-224.32C981.27,-216.26 996.39,-204.08 1008.43,-194.37"/>
<polygon fill="midnightblue" stroke="midnightblue" points="1010.95,-196.83 1016.54,-187.83 1006.56,-191.38 1010.95,-196.83"/>
</g>
</g>
</svg>
