<?xml version="1.0" encoding="UTF-8" standalone="no"?>
<!DOCTYPE svg PUBLIC "-//W3C//DTD SVG 1.1//EN"
 "http://www.w3.org/Graphics/SVG/1.1/DTD/svg11.dtd">
<!-- Generated by graphviz version 2.43.0 (0)
 -->
<!-- Title: /home/runner/work/diffblue&#45;cbmc/diffblue&#45;cbmc/src/analyses/variable&#45;sensitivity/variable_sensitivity_configuration.h Pages: 1 -->
<svg width="1500pt" height="361pt"
 viewBox="0.00 0.00 1500.00 361.00" xmlns="http://www.w3.org/2000/svg" xmlns:xlink="http://www.w3.org/1999/xlink">
<g id="graph0" class="graph" transform="scale(1 1) rotate(0) translate(4 357)">
<title>/home/runner/work/diffblue&#45;cbmc/diffblue&#45;cbmc/src/analyses/variable&#45;sensitivity/variable_sensitivity_configuration.h</title>
<!-- Node1 -->
<g id="node1" class="node">
<title>Node1</title>
<g id="a_node1"><a xlink:title="Captures the user&#45;supplied configuration for VSD, determining which domain abstractions are used,...">
<polygon fill="#bfbfbf" stroke="black" points="754.5,-300.5 754.5,-352.5 948.5,-352.5 948.5,-300.5 754.5,-300.5"/>
<text text-anchor="start" x="762.5" y="-340.5" font-family="Helvetica,sans-Serif" font-size="10.00">/home/runner/work/diffblue</text>
<text text-anchor="start" x="762.5" y="-329.5" font-family="Helvetica,sans-Serif" font-size="10.00">&#45;cbmc/diffblue&#45;cbmc/src</text>
<text text-anchor="start" x="762.5" y="-318.5" font-family="Helvetica,sans-Serif" font-size="10.00">/analyses/variable&#45;sensitivity</text>
<text text-anchor="middle" x="851.5" y="-307.5" font-family="Helvetica,sans-Serif" font-size="10.00">/variable_sensitivity_configuration.h</text>
</a>
</g>
</g>
<!-- Node2 -->
<g id="node2" class="node">
<title>Node2</title>
<g id="a_node2"><a xlink:href="full__array__abstract__object_8cpp.html" target="_top" xlink:title=" ">
<polygon fill="none" stroke="black" points="360,-206 360,-258 527,-258 527,-206 360,-206"/>
<text text-anchor="start" x="368" y="-246" font-family="Helvetica,sans-Serif" font-size="10.00">/home/runner/work/diffblue</text>
<text text-anchor="start" x="368" y="-235" font-family="Helvetica,sans-Serif" font-size="10.00">&#45;cbmc/diffblue&#45;cbmc/src</text>
<text text-anchor="start" x="368" y="-224" font-family="Helvetica,sans-Serif" font-size="10.00">/analyses/variable&#45;sensitivity</text>
<text text-anchor="middle" x="443.5" y="-213" font-family="Helvetica,sans-Serif" font-size="10.00">/full_array_abstract_object.cpp</text>
</a>
</g>
</g>
<!-- Node1&#45;&gt;Node2 -->
<g id="edge1" class="edge">
<title>Node1&#45;&gt;Node2</title>
<path fill="none" stroke="midnightblue" d="M744.17,-308.26C682.64,-297.47 604.21,-282.18 535.5,-264 528.74,-262.21 521.75,-260.19 514.79,-258.05"/>
<polygon fill="midnightblue" stroke="midnightblue" points="743.83,-311.75 754.28,-310.02 745.03,-304.86 743.83,-311.75"/>
</g>
<!-- Node3 -->
<g id="node3" class="node">
<title>Node3</title>
<g id="a_node3"><a xlink:href="variable__sensitivity__configuration_8cpp.html" target="_top" xlink:title="Captures the user&#45;supplied configuration for VSD, determining which domain abstractions are used,...">
<polygon fill="none" stroke="black" points="545,-206 545,-258 750,-258 750,-206 545,-206"/>
<text text-anchor="start" x="553" y="-246" font-family="Helvetica,sans-Serif" font-size="10.00">/home/runner/work/diffblue</text>
<text text-anchor="start" x="553" y="-235" font-family="Helvetica,sans-Serif" font-size="10.00">&#45;cbmc/diffblue&#45;cbmc/src</text>
<text text-anchor="start" x="553" y="-224" font-family="Helvetica,sans-Serif" font-size="10.00">/analyses/variable&#45;sensitivity</text>
<text text-anchor="middle" x="647.5" y="-213" font-family="Helvetica,sans-Serif" font-size="10.00">/variable_sensitivity_configuration.cpp</text>
</a>
</g>
</g>
<!-- Node1&#45;&gt;Node3 -->
<g id="edge2" class="edge">
<title>Node1&#45;&gt;Node3</title>
<path fill="none" stroke="midnightblue" d="M786.91,-296.21C759.85,-283.94 728.72,-269.83 702.75,-258.05"/>
<polygon fill="midnightblue" stroke="midnightblue" points="785.74,-299.53 796.29,-300.47 788.63,-293.15 785.74,-299.53"/>
</g>
<!-- Node4 -->
<g id="node4" class="node">
<title>Node4</title>
<g id="a_node4"><a xlink:href="variable__sensitivity__domain_8h.html" target="_top" xlink:title="There are different ways of handling arrays, structures, unions and pointers.">
<polygon fill="none" stroke="black" points="768,-206 768,-258 935,-258 935,-206 768,-206"/>
<text text-anchor="start" x="776" y="-246" font-family="Helvetica,sans-Serif" font-size="10.00">/home/runner/work/diffblue</text>
<text text-anchor="start" x="776" y="-235" font-family="Helvetica,sans-Serif" font-size="10.00">&#45;cbmc/diffblue&#45;cbmc/src</text>
<text text-anchor="start" x="776" y="-224" font-family="Helvetica,sans-Serif" font-size="10.00">/analyses/variable&#45;sensitivity</text>
<text text-anchor="middle" x="851.5" y="-213" font-family="Helvetica,sans-Serif" font-size="10.00">/variable_sensitivity_domain.h</text>
</a>
</g>
</g>
<!-- Node1&#45;&gt;Node4 -->
<g id="edge3" class="edge">
<title>Node1&#45;&gt;Node4</title>
<path fill="none" stroke="midnightblue" d="M851.5,-289.99C851.5,-279.41 851.5,-268.03 851.5,-258.25"/>
<polygon fill="midnightblue" stroke="midnightblue" points="848,-290.22 851.5,-300.22 855,-290.22 848,-290.22"/>
</g>
<!-- Node8 -->
<g id="node8" class="node">
<title>Node8</title>
<g id="a_node8"><a xlink:href="build__analyzer_8cpp.html" target="_top" xlink:title=" ">
<polygon fill="none" stroke="black" points="969,-11.5 969,-52.5 1150,-52.5 1150,-11.5 969,-11.5"/>
<text text-anchor="start" x="977" y="-40.5" font-family="Helvetica,sans-Serif" font-size="10.00">/home/runner/work/diffblue</text>
<text text-anchor="start" x="977" y="-29.5" font-family="Helvetica,sans-Serif" font-size="10.00">&#45;cbmc/diffblue&#45;cbmc/src</text>
<text text-anchor="middle" x="1059.5" y="-18.5" font-family="Helvetica,sans-Serif" font-size="10.00">/goto&#45;analyzer/build_analyzer.cpp</text>
</a>
</g>
</g>
<!-- Node1&#45;&gt;Node8 -->
<g id="edge19" class="edge">
<title>Node1&#45;&gt;Node8</title>
<path fill="none" stroke="midnightblue" d="M920.09,-295.91C971.31,-269.6 1037.3,-225.7 1066.5,-164 1083.65,-127.77 1073.91,-79.44 1066.15,-52.77"/>
<polygon fill="midnightblue" stroke="midnightblue" points="918.4,-292.85 911.03,-300.46 921.54,-299.1 918.4,-292.85"/>
</g>
<!-- Node15 -->
<g id="node15" class="node">
<title>Node15</title>
<g id="a_node15"><a xlink:href="variable__sensitivity__object__factory_8h.html" target="_top" xlink:title="Tracks the user&#45;supplied configuration for VSD and build the correct type of abstract object when nee...">
<polygon fill="none" stroke="black" points="1133,-200.5 1133,-263.5 1294,-263.5 1294,-200.5 1133,-200.5"/>
<text text-anchor="start" x="1141" y="-251.5" font-family="Helvetica,sans-Serif" font-size="10.00">/home/runner/work/diffblue</text>
<text text-anchor="start" x="1141" y="-240.5" font-family="Helvetica,sans-Serif" font-size="10.00">&#45;cbmc/diffblue&#45;cbmc/src</text>
<text text-anchor="start" x="1141" y="-229.5" font-family="Helvetica,sans-Serif" font-size="10.00">/analyses/variable&#45;sensitivity</text>
<text text-anchor="start" x="1141" y="-218.5" font-family="Helvetica,sans-Serif" font-size="10.00">/variable_sensitivity_object</text>
<text text-anchor="middle" x="1213.5" y="-207.5" font-family="Helvetica,sans-Serif" font-size="10.00">_factory.h</text>
</a>
</g>
</g>
<!-- Node1&#45;&gt;Node15 -->
<g id="edge15" class="edge">
<title>Node1&#45;&gt;Node15</title>
<path fill="none" stroke="midnightblue" d="M958.59,-299.5C1002.34,-288.73 1053.4,-275.98 1099.5,-264 1110.32,-261.19 1121.7,-258.17 1132.91,-255.16"/>
<polygon fill="midnightblue" stroke="midnightblue" points="957.67,-296.12 948.8,-301.91 959.34,-302.92 957.67,-296.12"/>
</g>
<!-- Node5 -->
<g id="node5" class="node">
<title>Node5</title>
<g id="a_node5"><a xlink:href="three__way__merge__abstract__interpreter_8cpp.html" target="_top" xlink:title="An abstract interpreter, based on the default recursive&#45;interprocedural that uses variable sensitivit...">
<polygon fill="none" stroke="black" points="354,-106 354,-158 583,-158 583,-106 354,-106"/>
<text text-anchor="start" x="362" y="-146" font-family="Helvetica,sans-Serif" font-size="10.00">/home/runner/work/diffblue</text>
<text text-anchor="start" x="362" y="-135" font-family="Helvetica,sans-Serif" font-size="10.00">&#45;cbmc/diffblue&#45;cbmc/src</text>
<text text-anchor="start" x="362" y="-124" font-family="Helvetica,sans-Serif" font-size="10.00">/analyses/variable&#45;sensitivity</text>
<text text-anchor="middle" x="468.5" y="-113" font-family="Helvetica,sans-Serif" font-size="10.00">/three_way_merge_abstract_interpreter.cpp</text>
</a>
</g>
</g>
<!-- Node4&#45;&gt;Node5 -->
<g id="edge4" class="edge">
<title>Node4&#45;&gt;Node5</title>
<path fill="none" stroke="midnightblue" d="M769.25,-203.06C765.63,-201.99 762.03,-200.97 758.5,-200 685.7,-180.03 666.02,-181.16 592.5,-164 584.4,-162.11 576.01,-160.11 567.59,-158.07"/>
<polygon fill="midnightblue" stroke="midnightblue" points="768.29,-206.43 778.88,-205.96 770.31,-199.72 768.29,-206.43"/>
</g>
<!-- Node6 -->
<g id="node6" class="node">
<title>Node6</title>
<g id="a_node6"><a xlink:href="variable__sensitivity__dependence__graph_8h.html" target="_top" xlink:title="A forked and modified version of analyses/dependence_graph.">
<polygon fill="none" stroke="black" points="601.5,-106 601.5,-158 823.5,-158 823.5,-106 601.5,-106"/>
<text text-anchor="start" x="609.5" y="-146" font-family="Helvetica,sans-Serif" font-size="10.00">/home/runner/work/diffblue</text>
<text text-anchor="start" x="609.5" y="-135" font-family="Helvetica,sans-Serif" font-size="10.00">&#45;cbmc/diffblue&#45;cbmc/src</text>
<text text-anchor="start" x="609.5" y="-124" font-family="Helvetica,sans-Serif" font-size="10.00">/analyses/variable&#45;sensitivity</text>
<text text-anchor="middle" x="712.5" y="-113" font-family="Helvetica,sans-Serif" font-size="10.00">/variable_sensitivity_dependence_graph.h</text>
</a>
</g>
</g>
<!-- Node4&#45;&gt;Node6 -->
<g id="edge5" class="edge">
<title>Node4&#45;&gt;Node6</title>
<path fill="none" stroke="midnightblue" d="M807.44,-199.93C788.32,-186.46 766.23,-170.88 748.17,-158.15"/>
<polygon fill="midnightblue" stroke="midnightblue" points="805.51,-202.86 815.7,-205.76 809.55,-197.14 805.51,-202.86"/>
</g>
<!-- Node4&#45;&gt;Node8 -->
<g id="edge10" class="edge">
<title>Node4&#45;&gt;Node8</title>
<path fill="none" stroke="midnightblue" d="M847.32,-195.71C845.88,-166.84 848.69,-126.58 870.5,-100 885.02,-82.3 934.49,-65.11 979.18,-52.57"/>
<polygon fill="midnightblue" stroke="midnightblue" points="843.83,-196.05 848.01,-205.78 850.82,-195.57 843.83,-196.05"/>
</g>
<!-- Node10 -->
<g id="node10" class="node">
<title>Node10</title>
<g id="a_node10"><a xlink:href="variable__sensitivity__domain_8cpp.html" target="_top" xlink:title=" ">
<polygon fill="none" stroke="black" points="879.5,-106 879.5,-158 1057.5,-158 1057.5,-106 879.5,-106"/>
<text text-anchor="start" x="887.5" y="-146" font-family="Helvetica,sans-Serif" font-size="10.00">/home/runner/work/diffblue</text>
<text text-anchor="start" x="887.5" y="-135" font-family="Helvetica,sans-Serif" font-size="10.00">&#45;cbmc/diffblue&#45;cbmc/src</text>
<text text-anchor="start" x="887.5" y="-124" font-family="Helvetica,sans-Serif" font-size="10.00">/analyses/variable&#45;sensitivity</text>
<text text-anchor="middle" x="968.5" y="-113" font-family="Helvetica,sans-Serif" font-size="10.00">/variable_sensitivity_domain.cpp</text>
</a>
</g>
</g>
<!-- Node4&#45;&gt;Node10 -->
<g id="edge9" class="edge">
<title>Node4&#45;&gt;Node10</title>
<path fill="none" stroke="midnightblue" d="M889.67,-199.02C905.51,-185.76 923.61,-170.6 938.47,-158.15"/>
<polygon fill="midnightblue" stroke="midnightblue" points="887.05,-196.66 881.63,-205.76 891.54,-202.02 887.05,-196.66"/>
</g>
<!-- Node11 -->
<g id="node11" class="node">
<title>Node11</title>
<g id="a_node11"><a xlink:href="goto__analyzer__parse__options_8h.html" target="_top" xlink:title="Goto&#45;Analyser Command Line Option Processing.">
<polygon fill="none" stroke="black" points="177,-106 177,-158 336,-158 336,-106 177,-106"/>
<text text-anchor="start" x="185" y="-146" font-family="Helvetica,sans-Serif" font-size="10.00">/home/runner/work/diffblue</text>
<text text-anchor="start" x="185" y="-135" font-family="Helvetica,sans-Serif" font-size="10.00">&#45;cbmc/diffblue&#45;cbmc/src</text>
<text text-anchor="start" x="185" y="-124" font-family="Helvetica,sans-Serif" font-size="10.00">/goto&#45;analyzer/goto_analyzer</text>
<text text-anchor="middle" x="256.5" y="-113" font-family="Helvetica,sans-Serif" font-size="10.00">_parse_options.h</text>
</a>
</g>
</g>
<!-- Node4&#45;&gt;Node11 -->
<g id="edge11" class="edge">
<title>Node4&#45;&gt;Node11</title>
<path fill="none" stroke="midnightblue" d="M772.65,-203.32C767.89,-202.08 763.15,-200.96 758.5,-200 577.64,-162.54 525.03,-202.99 344.5,-164 337.06,-162.39 329.38,-160.33 321.81,-158.04"/>
<polygon fill="midnightblue" stroke="midnightblue" points="771.85,-206.73 782.42,-206 773.7,-199.98 771.85,-206.73"/>
</g>
<!-- Node7 -->
<g id="node7" class="node">
<title>Node7</title>
<g id="a_node7"><a xlink:href="variable__sensitivity__dependence__graph_8cpp.html" target="_top" xlink:title=" ">
<polygon fill="none" stroke="black" points="577.5,-0.5 577.5,-63.5 757.5,-63.5 757.5,-0.5 577.5,-0.5"/>
<text text-anchor="start" x="585.5" y="-51.5" font-family="Helvetica,sans-Serif" font-size="10.00">/home/runner/work/diffblue</text>
<text text-anchor="start" x="585.5" y="-40.5" font-family="Helvetica,sans-Serif" font-size="10.00">&#45;cbmc/diffblue&#45;cbmc/src</text>
<text text-anchor="start" x="585.5" y="-29.5" font-family="Helvetica,sans-Serif" font-size="10.00">/analyses/variable&#45;sensitivity</text>
<text text-anchor="start" x="585.5" y="-18.5" font-family="Helvetica,sans-Serif" font-size="10.00">/variable_sensitivity_dependence</text>
<text text-anchor="middle" x="667.5" y="-7.5" font-family="Helvetica,sans-Serif" font-size="10.00">_graph.cpp</text>
</a>
</g>
</g>
<!-- Node6&#45;&gt;Node7 -->
<g id="edge6" class="edge">
<title>Node6&#45;&gt;Node7</title>
<path fill="none" stroke="midnightblue" d="M696.74,-96.67C691.81,-85.95 686.42,-74.2 681.62,-63.75"/>
<polygon fill="midnightblue" stroke="midnightblue" points="693.56,-98.14 700.91,-105.76 699.92,-95.21 693.56,-98.14"/>
</g>
<!-- Node6&#45;&gt;Node8 -->
<g id="edge7" class="edge">
<title>Node6&#45;&gt;Node8</title>
<path fill="none" stroke="midnightblue" d="M811.19,-103.13C868.38,-86.98 938.97,-67.04 990.25,-52.56"/>
<polygon fill="midnightblue" stroke="midnightblue" points="810.08,-99.8 801.41,-105.89 811.99,-106.54 810.08,-99.8"/>
</g>
<!-- Node9 -->
<g id="node9" class="node">
<title>Node9</title>
<g id="a_node9"><a xlink:href="static__show__domain_8cpp.html" target="_top" xlink:title=" ">
<polygon fill="none" stroke="black" points="776,-6 776,-58 925,-58 925,-6 776,-6"/>
<text text-anchor="start" x="784" y="-46" font-family="Helvetica,sans-Serif" font-size="10.00">/home/runner/work/diffblue</text>
<text text-anchor="start" x="784" y="-35" font-family="Helvetica,sans-Serif" font-size="10.00">&#45;cbmc/diffblue&#45;cbmc/src</text>
<text text-anchor="start" x="784" y="-24" font-family="Helvetica,sans-Serif" font-size="10.00">/goto&#45;analyzer/static_show</text>
<text text-anchor="middle" x="850.5" y="-13" font-family="Helvetica,sans-Serif" font-size="10.00">_domain.cpp</text>
</a>
</g>
</g>
<!-- Node6&#45;&gt;Node9 -->
<g id="edge8" class="edge">
<title>Node6&#45;&gt;Node9</title>
<path fill="none" stroke="midnightblue" d="M756.25,-99.93C775.22,-86.46 797.15,-70.88 815.08,-58.15"/>
<polygon fill="midnightblue" stroke="midnightblue" points="754.17,-97.12 748.04,-105.76 758.22,-102.83 754.17,-97.12"/>
</g>
<!-- Node12 -->
<g id="node12" class="node">
<title>Node12</title>
<g id="a_node12"><a xlink:href="goto__analyzer__languages_8cpp.html" target="_top" xlink:title="Language Registration.">
<polygon fill="none" stroke="black" points="0,-6 0,-58 159,-58 159,-6 0,-6"/>
<text text-anchor="start" x="8" y="-46" font-family="Helvetica,sans-Serif" font-size="10.00">/home/runner/work/diffblue</text>
<text text-anchor="start" x="8" y="-35" font-family="Helvetica,sans-Serif" font-size="10.00">&#45;cbmc/diffblue&#45;cbmc/src</text>
<text text-anchor="start" x="8" y="-24" font-family="Helvetica,sans-Serif" font-size="10.00">/goto&#45;analyzer/goto_analyzer</text>
<text text-anchor="middle" x="79.5" y="-13" font-family="Helvetica,sans-Serif" font-size="10.00">_languages.cpp</text>
</a>
</g>
</g>
<!-- Node11&#45;&gt;Node12 -->
<g id="edge12" class="edge">
<title>Node11&#45;&gt;Node12</title>
<path fill="none" stroke="midnightblue" d="M202.02,-100.84C177.32,-87.16 148.44,-71.17 124.93,-58.15"/>
<polygon fill="midnightblue" stroke="midnightblue" points="200.47,-103.98 210.92,-105.76 203.86,-97.86 200.47,-103.98"/>
</g>
<!-- Node13 -->
<g id="node13" class="node">
<title>Node13</title>
<g id="a_node13"><a xlink:href="goto__analyzer__main_8cpp.html" target="_top" xlink:title="Goto&#45;Analyser Main Module.">
<polygon fill="none" stroke="black" points="177,-6 177,-58 336,-58 336,-6 177,-6"/>
<text text-anchor="start" x="185" y="-46" font-family="Helvetica,sans-Serif" font-size="10.00">/home/runner/work/diffblue</text>
<text text-anchor="start" x="185" y="-35" font-family="Helvetica,sans-Serif" font-size="10.00">&#45;cbmc/diffblue&#45;cbmc/src</text>
<text text-anchor="start" x="185" y="-24" font-family="Helvetica,sans-Serif" font-size="10.00">/goto&#45;analyzer/goto_analyzer</text>
<text text-anchor="middle" x="256.5" y="-13" font-family="Helvetica,sans-Serif" font-size="10.00">_main.cpp</text>
</a>
</g>
</g>
<!-- Node11&#45;&gt;Node13 -->
<g id="edge13" class="edge">
<title>Node11&#45;&gt;Node13</title>
<path fill="none" stroke="midnightblue" d="M256.5,-95.7C256.5,-83.28 256.5,-69.57 256.5,-58.15"/>
<polygon fill="midnightblue" stroke="midnightblue" points="253,-95.76 256.5,-105.76 260,-95.76 253,-95.76"/>
</g>
<!-- Node14 -->
<g id="node14" class="node">
<title>Node14</title>
<g id="a_node14"><a xlink:href="goto__analyzer__parse__options_8cpp.html" target="_top" xlink:title="Goto&#45;Analyser Command Line Option Processing.">
<polygon fill="none" stroke="black" points="354,-6 354,-58 513,-58 513,-6 354,-6"/>
<text text-anchor="start" x="362" y="-46" font-family="Helvetica,sans-Serif" font-size="10.00">/home/runner/work/diffblue</text>
<text text-anchor="start" x="362" y="-35" font-family="Helvetica,sans-Serif" font-size="10.00">&#45;cbmc/diffblue&#45;cbmc/src</text>
<text text-anchor="start" x="362" y="-24" font-family="Helvetica,sans-Serif" font-size="10.00">/goto&#45;analyzer/goto_analyzer</text>
<text text-anchor="middle" x="433.5" y="-13" font-family="Helvetica,sans-Serif" font-size="10.00">_parse_options.cpp</text>
</a>
</g>
</g>
<!-- Node11&#45;&gt;Node14 -->
<g id="edge14" class="edge">
<title>Node11&#45;&gt;Node14</title>
<path fill="none" stroke="midnightblue" d="M310.98,-100.84C335.68,-87.16 364.56,-71.17 388.07,-58.15"/>
<polygon fill="midnightblue" stroke="midnightblue" points="309.14,-97.86 302.08,-105.76 312.53,-103.98 309.14,-97.86"/>
</g>
<!-- Node15&#45;&gt;Node8 -->
<g id="edge18" class="edge">
<title>Node15&#45;&gt;Node8</title>
<path fill="none" stroke="midnightblue" d="M1170.88,-193.32C1161.43,-184.13 1151.77,-174.04 1143.5,-164 1127.53,-144.6 1090.42,-84.24 1071.32,-52.68"/>
<polygon fill="midnightblue" stroke="midnightblue" points="1168.74,-196.12 1178.39,-200.48 1173.57,-191.05 1168.74,-196.12"/>
</g>
<!-- Node16 -->
<g id="node16" class="node">
<title>Node16</title>
<g id="a_node16"><a xlink:href="abstract__environment_8cpp.html" target="_top" xlink:title=" ">
<polygon fill="none" stroke="black" points="1152,-106 1152,-158 1313,-158 1313,-106 1152,-106"/>
<text text-anchor="start" x="1160" y="-146" font-family="Helvetica,sans-Serif" font-size="10.00">/home/runner/work/diffblue</text>
<text text-anchor="start" x="1160" y="-135" font-family="Helvetica,sans-Serif" font-size="10.00">&#45;cbmc/diffblue&#45;cbmc/src</text>
<text text-anchor="start" x="1160" y="-124" font-family="Helvetica,sans-Serif" font-size="10.00">/analyses/variable&#45;sensitivity</text>
<text text-anchor="middle" x="1232.5" y="-113" font-family="Helvetica,sans-Serif" font-size="10.00">/abstract_environment.cpp</text>
</a>
</g>
</g>
<!-- Node15&#45;&gt;Node16 -->
<g id="edge16" class="edge">
<title>Node15&#45;&gt;Node16</title>
<path fill="none" stroke="midnightblue" d="M1221.37,-190.42C1223.5,-179.45 1225.73,-167.89 1227.64,-158.05"/>
<polygon fill="midnightblue" stroke="midnightblue" points="1217.93,-189.78 1219.46,-200.26 1224.8,-191.11 1217.93,-189.78"/>
</g>
<!-- Node17 -->
<g id="node17" class="node">
<title>Node17</title>
<g id="a_node17"><a xlink:href="variable__sensitivity__object__factory_8cpp.html" target="_top" xlink:title=" ">
<polygon fill="none" stroke="black" points="1331,-100.5 1331,-163.5 1492,-163.5 1492,-100.5 1331,-100.5"/>
<text text-anchor="start" x="1339" y="-151.5" font-family="Helvetica,sans-Serif" font-size="10.00">/home/runner/work/diffblue</text>
<text text-anchor="start" x="1339" y="-140.5" font-family="Helvetica,sans-Serif" font-size="10.00">&#45;cbmc/diffblue&#45;cbmc/src</text>
<text text-anchor="start" x="1339" y="-129.5" font-family="Helvetica,sans-Serif" font-size="10.00">/analyses/variable&#45;sensitivity</text>
<text text-anchor="start" x="1339" y="-118.5" font-family="Helvetica,sans-Serif" font-size="10.00">/variable_sensitivity_object</text>
<text text-anchor="middle" x="1411.5" y="-107.5" font-family="Helvetica,sans-Serif" font-size="10.00">_factory.cpp</text>
</a>
</g>
</g>
<!-- Node15&#45;&gt;Node17 -->
<g id="edge17" class="edge">
<title>Node15&#45;&gt;Node17</title>
<path fill="none" stroke="midnightblue" d="M1284.37,-195.92C1305.76,-185.34 1329.05,-173.81 1349.79,-163.54"/>
<polygon fill="midnightblue" stroke="midnightblue" points="1282.74,-192.82 1275.33,-200.4 1285.85,-199.1 1282.74,-192.82"/>
</g>
</g>
</svg>
