<?xml version="1.0" encoding="UTF-8" standalone="no"?>
<!DOCTYPE svg PUBLIC "-//W3C//DTD SVG 1.1//EN"
 "http://www.w3.org/Graphics/SVG/1.1/DTD/svg11.dtd">
<!-- Generated by graphviz version 2.43.0 (0)
 -->
<!-- Title: /home/runner/work/diffblue&#45;cbmc/diffblue&#45;cbmc/src/libcprover&#45;cpp/verification_result.h Pages: 1 -->
<svg width="426pt" height="239pt"
 viewBox="0.00 0.00 426.00 239.00" xmlns="http://www.w3.org/2000/svg" xmlns:xlink="http://www.w3.org/1999/xlink">
<g id="graph0" class="graph" transform="scale(1 1) rotate(0) translate(4 235)">
<title>/home/runner/work/diffblue&#45;cbmc/diffblue&#45;cbmc/src/libcprover&#45;cpp/verification_result.h</title>
<!-- Node1 -->
<g id="node1" class="node">
<title>Node1</title>
<g id="a_node1"><a xlink:title="Interface for the various verification engines providing results.">
<polygon fill="#bfbfbf" stroke="black" points="102,-178.5 102,-230.5 251,-230.5 251,-178.5 102,-178.5"/>
<text text-anchor="start" x="110" y="-218.5" font-family="Helvetica,sans-Serif" font-size="10.00">/home/runner/work/diffblue</text>
<text text-anchor="start" x="110" y="-207.5" font-family="Helvetica,sans-Serif" font-size="10.00">&#45;cbmc/diffblue&#45;cbmc/src</text>
<text text-anchor="start" x="110" y="-196.5" font-family="Helvetica,sans-Serif" font-size="10.00">/libcprover&#45;cpp/verification</text>
<text text-anchor="middle" x="176.5" y="-185.5" font-family="Helvetica,sans-Serif" font-size="10.00">_result.h</text>
</a>
</g>
</g>
<!-- Node2 -->
<g id="node2" class="node">
<title>Node2</title>
<g id="a_node2"><a xlink:href="goto__bmc__parse__options_8cpp.html" target="_top" xlink:title=" ">
<polygon fill="none" stroke="black" points="0,-0.5 0,-52.5 149,-52.5 149,-0.5 0,-0.5"/>
<text text-anchor="start" x="8" y="-40.5" font-family="Helvetica,sans-Serif" font-size="10.00">/home/runner/work/diffblue</text>
<text text-anchor="start" x="8" y="-29.5" font-family="Helvetica,sans-Serif" font-size="10.00">&#45;cbmc/diffblue&#45;cbmc/src</text>
<text text-anchor="start" x="8" y="-18.5" font-family="Helvetica,sans-Serif" font-size="10.00">/goto&#45;bmc/goto_bmc_parse</text>
<text text-anchor="middle" x="74.5" y="-7.5" font-family="Helvetica,sans-Serif" font-size="10.00">_options.cpp</text>
</a>
</g>
</g>
<!-- Node1&#45;&gt;Node2 -->
<g id="edge1" class="edge">
<title>Node1&#45;&gt;Node2</title>
<path fill="none" stroke="midnightblue" d="M121.52,-172.19C110.73,-163.69 100.58,-153.58 93.5,-142 76.79,-114.67 73.51,-77.12 73.42,-52.59"/>
<polygon fill="midnightblue" stroke="midnightblue" points="119.74,-175.22 129.85,-178.37 123.91,-169.6 119.74,-175.22"/>
</g>
<!-- Node3 -->
<g id="node3" class="node">
<title>Node3</title>
<g id="a_node3"><a xlink:href="api_8h.html" target="_top" xlink:title=" ">
<polygon fill="none" stroke="black" points="102,-95 102,-136 251,-136 251,-95 102,-95"/>
<text text-anchor="start" x="110" y="-124" font-family="Helvetica,sans-Serif" font-size="10.00">/home/runner/work/diffblue</text>
<text text-anchor="start" x="110" y="-113" font-family="Helvetica,sans-Serif" font-size="10.00">&#45;cbmc/diffblue&#45;cbmc/src</text>
<text text-anchor="middle" x="176.5" y="-102" font-family="Helvetica,sans-Serif" font-size="10.00">/libcprover&#45;cpp/api.h</text>
</a>
</g>
</g>
<!-- Node1&#45;&gt;Node3 -->
<g id="edge2" class="edge">
<title>Node1&#45;&gt;Node3</title>
<path fill="none" stroke="midnightblue" d="M176.5,-168.16C176.5,-157.21 176.5,-145.55 176.5,-136.08"/>
<polygon fill="midnightblue" stroke="midnightblue" points="173,-168.34 176.5,-178.34 180,-168.34 173,-168.34"/>
</g>
<!-- Node5 -->
<g id="node5" class="node">
<title>Node5</title>
<g id="a_node5"><a xlink:href="verification__result_8cpp.html" target="_top" xlink:title="Interface for the various verification engines providing results.">
<polygon fill="none" stroke="black" points="269,-89.5 269,-141.5 418,-141.5 418,-89.5 269,-89.5"/>
<text text-anchor="start" x="277" y="-129.5" font-family="Helvetica,sans-Serif" font-size="10.00">/home/runner/work/diffblue</text>
<text text-anchor="start" x="277" y="-118.5" font-family="Helvetica,sans-Serif" font-size="10.00">&#45;cbmc/diffblue&#45;cbmc/src</text>
<text text-anchor="start" x="277" y="-107.5" font-family="Helvetica,sans-Serif" font-size="10.00">/libcprover&#45;cpp/verification</text>
<text text-anchor="middle" x="343.5" y="-96.5" font-family="Helvetica,sans-Serif" font-size="10.00">_result.cpp</text>
</a>
</g>
</g>
<!-- Node1&#45;&gt;Node5 -->
<g id="edge5" class="edge">
<title>Node1&#45;&gt;Node5</title>
<path fill="none" stroke="midnightblue" d="M233.83,-173.64C253.85,-163.2 276.1,-151.61 295.31,-141.61"/>
<polygon fill="midnightblue" stroke="midnightblue" points="232.05,-170.61 224.8,-178.34 235.29,-176.82 232.05,-170.61"/>
</g>
<!-- Node3&#45;&gt;Node2 -->
<g id="edge3" class="edge">
<title>Node3&#45;&gt;Node2</title>
<path fill="none" stroke="midnightblue" d="M145.68,-88.21C132.42,-76.91 117,-63.75 103.91,-52.58"/>
<polygon fill="midnightblue" stroke="midnightblue" points="143.73,-91.15 153.61,-94.98 148.27,-85.82 143.73,-91.15"/>
</g>
<!-- Node4 -->
<g id="node4" class="node">
<title>Node4</title>
<g id="a_node4"><a xlink:href="api_8cpp.html" target="_top" xlink:title=" ">
<polygon fill="none" stroke="black" points="167,-6 167,-47 316,-47 316,-6 167,-6"/>
<text text-anchor="start" x="175" y="-35" font-family="Helvetica,sans-Serif" font-size="10.00">/home/runner/work/diffblue</text>
<text text-anchor="start" x="175" y="-24" font-family="Helvetica,sans-Serif" font-size="10.00">&#45;cbmc/diffblue&#45;cbmc/src</text>
<text text-anchor="middle" x="241.5" y="-13" font-family="Helvetica,sans-Serif" font-size="10.00">/libcprover&#45;cpp/api.cpp</text>
</a>
</g>
</g>
<!-- Node3&#45;&gt;Node4 -->
<g id="edge4" class="edge">
<title>Node3&#45;&gt;Node4</title>
<path fill="none" stroke="midnightblue" d="M197.3,-86.67C206.91,-73.8 218.09,-58.83 226.81,-47.16"/>
<polygon fill="midnightblue" stroke="midnightblue" points="194.43,-84.65 191.25,-94.76 200.04,-88.84 194.43,-84.65"/>
</g>
</g>
</svg>
