<?xml version="1.0" encoding="UTF-8" standalone="no"?>
<!DOCTYPE svg PUBLIC "-//W3C//DTD SVG 1.1//EN"
 "http://www.w3.org/Graphics/SVG/1.1/DTD/svg11.dtd">
<!-- Generated by graphviz version 2.43.0 (0)
 -->
<!-- Title: /home/runner/work/diffblue&#45;cbmc/diffblue&#45;cbmc/src/goto&#45;instrument/wmm/weak_memory.h Pages: 1 -->
<svg width="590pt" height="239pt"
 viewBox="0.00 0.00 590.00 239.00" xmlns="http://www.w3.org/2000/svg" xmlns:xlink="http://www.w3.org/1999/xlink">
<g id="graph0" class="graph" transform="scale(1 1) rotate(0) translate(4 235)">
<title>/home/runner/work/diffblue&#45;cbmc/diffblue&#45;cbmc/src/goto&#45;instrument/wmm/weak_memory.h</title>
<!-- Node1 -->
<g id="node1" class="node">
<title>Node1</title>
<g id="a_node1"><a xlink:title="Weak Memory Instrumentation for Threaded Goto Programs.">
<polygon fill="#bfbfbf" stroke="black" points="306,-178.5 306,-230.5 464,-230.5 464,-178.5 306,-178.5"/>
<text text-anchor="start" x="314" y="-218.5" font-family="Helvetica,sans-Serif" font-size="10.00">/home/runner/work/diffblue</text>
<text text-anchor="start" x="314" y="-207.5" font-family="Helvetica,sans-Serif" font-size="10.00">&#45;cbmc/diffblue&#45;cbmc/src</text>
<text text-anchor="start" x="314" y="-196.5" font-family="Helvetica,sans-Serif" font-size="10.00">/goto&#45;instrument/wmm/weak</text>
<text text-anchor="middle" x="385" y="-185.5" font-family="Helvetica,sans-Serif" font-size="10.00">_memory.h</text>
</a>
</g>
</g>
<!-- Node2 -->
<g id="node2" class="node">
<title>Node2</title>
<g id="a_node2"><a xlink:href="goto__instrument__parse__options_8h.html" target="_top" xlink:title="Command Line Parsing.">
<polygon fill="none" stroke="black" points="200,-89.5 200,-141.5 382,-141.5 382,-89.5 200,-89.5"/>
<text text-anchor="start" x="208" y="-129.5" font-family="Helvetica,sans-Serif" font-size="10.00">/home/runner/work/diffblue</text>
<text text-anchor="start" x="208" y="-118.5" font-family="Helvetica,sans-Serif" font-size="10.00">&#45;cbmc/diffblue&#45;cbmc/src</text>
<text text-anchor="start" x="208" y="-107.5" font-family="Helvetica,sans-Serif" font-size="10.00">/goto&#45;instrument/goto_instrument</text>
<text text-anchor="middle" x="291" y="-96.5" font-family="Helvetica,sans-Serif" font-size="10.00">_parse_options.h</text>
</a>
</g>
</g>
<!-- Node1&#45;&gt;Node2 -->
<g id="edge1" class="edge">
<title>Node1&#45;&gt;Node2</title>
<path fill="none" stroke="midnightblue" d="M350.28,-171.36C339.67,-161.54 328.16,-150.89 318.13,-141.61"/>
<polygon fill="midnightblue" stroke="midnightblue" points="348.09,-174.11 357.81,-178.34 352.85,-168.97 348.09,-174.11"/>
</g>
<!-- Node6 -->
<g id="node6" class="node">
<title>Node6</title>
<g id="a_node6"><a xlink:href="weak__memory_8cpp.html" target="_top" xlink:title="Weak Memory Instrumentation for Threaded Goto Programs.">
<polygon fill="none" stroke="black" points="400,-89.5 400,-141.5 558,-141.5 558,-89.5 400,-89.5"/>
<text text-anchor="start" x="408" y="-129.5" font-family="Helvetica,sans-Serif" font-size="10.00">/home/runner/work/diffblue</text>
<text text-anchor="start" x="408" y="-118.5" font-family="Helvetica,sans-Serif" font-size="10.00">&#45;cbmc/diffblue&#45;cbmc/src</text>
<text text-anchor="start" x="408" y="-107.5" font-family="Helvetica,sans-Serif" font-size="10.00">/goto&#45;instrument/wmm/weak</text>
<text text-anchor="middle" x="479" y="-96.5" font-family="Helvetica,sans-Serif" font-size="10.00">_memory.cpp</text>
</a>
</g>
</g>
<!-- Node1&#45;&gt;Node6 -->
<g id="edge5" class="edge">
<title>Node1&#45;&gt;Node6</title>
<path fill="none" stroke="midnightblue" d="M419.72,-171.36C430.33,-161.54 441.84,-150.89 451.87,-141.61"/>
<polygon fill="midnightblue" stroke="midnightblue" points="417.15,-168.97 412.19,-178.34 421.91,-174.11 417.15,-168.97"/>
</g>
<!-- Node3 -->
<g id="node3" class="node">
<title>Node3</title>
<g id="a_node3"><a xlink:href="goto__instrument__languages_8cpp.html" target="_top" xlink:title="Language Registration.">
<polygon fill="none" stroke="black" points="0,-0.5 0,-52.5 182,-52.5 182,-0.5 0,-0.5"/>
<text text-anchor="start" x="8" y="-40.5" font-family="Helvetica,sans-Serif" font-size="10.00">/home/runner/work/diffblue</text>
<text text-anchor="start" x="8" y="-29.5" font-family="Helvetica,sans-Serif" font-size="10.00">&#45;cbmc/diffblue&#45;cbmc/src</text>
<text text-anchor="start" x="8" y="-18.5" font-family="Helvetica,sans-Serif" font-size="10.00">/goto&#45;instrument/goto_instrument</text>
<text text-anchor="middle" x="91" y="-7.5" font-family="Helvetica,sans-Serif" font-size="10.00">_languages.cpp</text>
</a>
</g>
</g>
<!-- Node2&#45;&gt;Node3 -->
<g id="edge2" class="edge">
<title>Node2&#45;&gt;Node3</title>
<path fill="none" stroke="midnightblue" d="M224.19,-85.44C199.67,-74.77 172.15,-62.8 148.52,-52.52"/>
<polygon fill="midnightblue" stroke="midnightblue" points="222.85,-88.67 233.42,-89.45 225.65,-82.25 222.85,-88.67"/>
</g>
<!-- Node4 -->
<g id="node4" class="node">
<title>Node4</title>
<g id="a_node4"><a xlink:href="goto__instrument__main_8cpp.html" target="_top" xlink:title="Main Module.">
<polygon fill="none" stroke="black" points="200,-0.5 200,-52.5 382,-52.5 382,-0.5 200,-0.5"/>
<text text-anchor="start" x="208" y="-40.5" font-family="Helvetica,sans-Serif" font-size="10.00">/home/runner/work/diffblue</text>
<text text-anchor="start" x="208" y="-29.5" font-family="Helvetica,sans-Serif" font-size="10.00">&#45;cbmc/diffblue&#45;cbmc/src</text>
<text text-anchor="start" x="208" y="-18.5" font-family="Helvetica,sans-Serif" font-size="10.00">/goto&#45;instrument/goto_instrument</text>
<text text-anchor="middle" x="291" y="-7.5" font-family="Helvetica,sans-Serif" font-size="10.00">_main.cpp</text>
</a>
</g>
</g>
<!-- Node2&#45;&gt;Node4 -->
<g id="edge3" class="edge">
<title>Node2&#45;&gt;Node4</title>
<path fill="none" stroke="midnightblue" d="M291,-79.19C291,-70.28 291,-60.9 291,-52.61"/>
<polygon fill="midnightblue" stroke="midnightblue" points="287.5,-79.34 291,-89.34 294.5,-79.34 287.5,-79.34"/>
</g>
<!-- Node5 -->
<g id="node5" class="node">
<title>Node5</title>
<g id="a_node5"><a xlink:href="goto__instrument__parse__options_8cpp.html" target="_top" xlink:title="Main Module.">
<polygon fill="none" stroke="black" points="400,-0.5 400,-52.5 582,-52.5 582,-0.5 400,-0.5"/>
<text text-anchor="start" x="408" y="-40.5" font-family="Helvetica,sans-Serif" font-size="10.00">/home/runner/work/diffblue</text>
<text text-anchor="start" x="408" y="-29.5" font-family="Helvetica,sans-Serif" font-size="10.00">&#45;cbmc/diffblue&#45;cbmc/src</text>
<text text-anchor="start" x="408" y="-18.5" font-family="Helvetica,sans-Serif" font-size="10.00">/goto&#45;instrument/goto_instrument</text>
<text text-anchor="middle" x="491" y="-7.5" font-family="Helvetica,sans-Serif" font-size="10.00">_parse_options.cpp</text>
</a>
</g>
</g>
<!-- Node2&#45;&gt;Node5 -->
<g id="edge4" class="edge">
<title>Node2&#45;&gt;Node5</title>
<path fill="none" stroke="midnightblue" d="M357.81,-85.44C382.33,-74.77 409.85,-62.8 433.48,-52.52"/>
<polygon fill="midnightblue" stroke="midnightblue" points="356.35,-82.25 348.58,-89.45 359.15,-88.67 356.35,-82.25"/>
</g>
</g>
</svg>
