<?xml version="1.0" encoding="UTF-8" standalone="no"?>
<!DOCTYPE svg PUBLIC "-//W3C//DTD SVG 1.1//EN"
 "http://www.w3.org/Graphics/SVG/1.1/DTD/svg11.dtd">
<!-- Generated by graphviz version 2.43.0 (0)
 -->
<!-- Title: /home/runner/work/diffblue&#45;cbmc/diffblue&#45;cbmc/src/analyses/variable&#45;sensitivity/write_location_context.h Pages: 1 -->
<svg width="733pt" height="250pt"
 viewBox="0.00 0.00 732.50 250.00" xmlns="http://www.w3.org/2000/svg" xmlns:xlink="http://www.w3.org/1999/xlink">
<g id="graph0" class="graph" transform="scale(1 1) rotate(0) translate(4 246)">
<title>/home/runner/work/diffblue&#45;cbmc/diffblue&#45;cbmc/src/analyses/variable&#45;sensitivity/write_location_context.h</title>
<!-- Node1 -->
<g id="node1" class="node">
<title>Node1</title>
<g id="a_node1"><a xlink:title="Maintain a context in the variable sensitvity domain that records write locations for a given abstrac...">
<polygon fill="#bfbfbf" stroke="black" points="384.5,-189.5 384.5,-241.5 545.5,-241.5 545.5,-189.5 384.5,-189.5"/>
<text text-anchor="start" x="392.5" y="-229.5" font-family="Helvetica,sans-Serif" font-size="10.00">/home/runner/work/diffblue</text>
<text text-anchor="start" x="392.5" y="-218.5" font-family="Helvetica,sans-Serif" font-size="10.00">&#45;cbmc/diffblue&#45;cbmc/src</text>
<text text-anchor="start" x="392.5" y="-207.5" font-family="Helvetica,sans-Serif" font-size="10.00">/analyses/variable&#45;sensitivity</text>
<text text-anchor="middle" x="465" y="-196.5" font-family="Helvetica,sans-Serif" font-size="10.00">/write_location_context.h</text>
</a>
</g>
</g>
<!-- Node2 -->
<g id="node2" class="node">
<title>Node2</title>
<g id="a_node2"><a xlink:href="data__dependency__context_8h.html" target="_top" xlink:title="Maintain data dependencies as a context in the variable sensitivity domain.">
<polygon fill="none" stroke="black" points="200.5,-100.5 200.5,-152.5 361.5,-152.5 361.5,-100.5 200.5,-100.5"/>
<text text-anchor="start" x="208.5" y="-140.5" font-family="Helvetica,sans-Serif" font-size="10.00">/home/runner/work/diffblue</text>
<text text-anchor="start" x="208.5" y="-129.5" font-family="Helvetica,sans-Serif" font-size="10.00">&#45;cbmc/diffblue&#45;cbmc/src</text>
<text text-anchor="start" x="208.5" y="-118.5" font-family="Helvetica,sans-Serif" font-size="10.00">/analyses/variable&#45;sensitivity</text>
<text text-anchor="middle" x="281" y="-107.5" font-family="Helvetica,sans-Serif" font-size="10.00">/data_dependency_context.h</text>
</a>
</g>
</g>
<!-- Node1&#45;&gt;Node2 -->
<g id="edge1" class="edge">
<title>Node1&#45;&gt;Node2</title>
<path fill="none" stroke="midnightblue" d="M402.73,-185.06C380.44,-174.52 355.54,-162.75 334.1,-152.61"/>
<polygon fill="midnightblue" stroke="midnightblue" points="401.24,-188.23 411.78,-189.34 404.24,-181.9 401.24,-188.23"/>
</g>
<!-- Node6 -->
<g id="node6" class="node">
<title>Node6</title>
<g id="a_node6"><a xlink:href="liveness__context_8h.html" target="_top" xlink:title="Maintain a context in the variable sensitvity domain that records the liveness region for a given abs...">
<polygon fill="none" stroke="black" points="384.5,-100.5 384.5,-152.5 545.5,-152.5 545.5,-100.5 384.5,-100.5"/>
<text text-anchor="start" x="392.5" y="-140.5" font-family="Helvetica,sans-Serif" font-size="10.00">/home/runner/work/diffblue</text>
<text text-anchor="start" x="392.5" y="-129.5" font-family="Helvetica,sans-Serif" font-size="10.00">&#45;cbmc/diffblue&#45;cbmc/src</text>
<text text-anchor="start" x="392.5" y="-118.5" font-family="Helvetica,sans-Serif" font-size="10.00">/analyses/variable&#45;sensitivity</text>
<text text-anchor="middle" x="465" y="-107.5" font-family="Helvetica,sans-Serif" font-size="10.00">/liveness_context.h</text>
</a>
</g>
</g>
<!-- Node1&#45;&gt;Node6 -->
<g id="edge5" class="edge">
<title>Node1&#45;&gt;Node6</title>
<path fill="none" stroke="midnightblue" d="M465,-179.19C465,-170.28 465,-160.9 465,-152.61"/>
<polygon fill="midnightblue" stroke="midnightblue" points="461.5,-179.34 465,-189.34 468.5,-179.34 461.5,-179.34"/>
</g>
<!-- Node8 -->
<g id="node8" class="node">
<title>Node8</title>
<g id="a_node8"><a xlink:href="write__location__context_8cpp.html" target="_top" xlink:title=" ">
<polygon fill="none" stroke="black" points="563.5,-100.5 563.5,-152.5 724.5,-152.5 724.5,-100.5 563.5,-100.5"/>
<text text-anchor="start" x="571.5" y="-140.5" font-family="Helvetica,sans-Serif" font-size="10.00">/home/runner/work/diffblue</text>
<text text-anchor="start" x="571.5" y="-129.5" font-family="Helvetica,sans-Serif" font-size="10.00">&#45;cbmc/diffblue&#45;cbmc/src</text>
<text text-anchor="start" x="571.5" y="-118.5" font-family="Helvetica,sans-Serif" font-size="10.00">/analyses/variable&#45;sensitivity</text>
<text text-anchor="middle" x="644" y="-107.5" font-family="Helvetica,sans-Serif" font-size="10.00">/write_location_context.cpp</text>
</a>
</g>
</g>
<!-- Node1&#45;&gt;Node8 -->
<g id="edge8" class="edge">
<title>Node1&#45;&gt;Node8</title>
<path fill="none" stroke="midnightblue" d="M525.87,-184.92C547.48,-174.41 571.57,-162.7 592.34,-152.61"/>
<polygon fill="midnightblue" stroke="midnightblue" points="524.24,-181.82 516.77,-189.34 527.3,-188.11 524.24,-181.82"/>
</g>
<!-- Node3 -->
<g id="node3" class="node">
<title>Node3</title>
<g id="a_node3"><a xlink:href="data__dependency__context_8cpp.html" target="_top" xlink:title="Maintain data dependencies as a context in the variable sensitivity domain.">
<polygon fill="none" stroke="black" points="0,-6 0,-58 168,-58 168,-6 0,-6"/>
<text text-anchor="start" x="8" y="-46" font-family="Helvetica,sans-Serif" font-size="10.00">/home/runner/work/diffblue</text>
<text text-anchor="start" x="8" y="-35" font-family="Helvetica,sans-Serif" font-size="10.00">&#45;cbmc/diffblue&#45;cbmc/src</text>
<text text-anchor="start" x="8" y="-24" font-family="Helvetica,sans-Serif" font-size="10.00">/analyses/variable&#45;sensitivity</text>
<text text-anchor="middle" x="84" y="-13" font-family="Helvetica,sans-Serif" font-size="10.00">/data_dependency_context.cpp</text>
</a>
</g>
</g>
<!-- Node2&#45;&gt;Node3 -->
<g id="edge2" class="edge">
<title>Node2&#45;&gt;Node3</title>
<path fill="none" stroke="midnightblue" d="M218.63,-96.21C192.5,-83.94 162.43,-69.83 137.35,-58.05"/>
<polygon fill="midnightblue" stroke="midnightblue" points="217.15,-99.39 227.69,-100.47 220.12,-93.05 217.15,-99.39"/>
</g>
<!-- Node4 -->
<g id="node4" class="node">
<title>Node4</title>
<g id="a_node4"><a xlink:href="variable__sensitivity__dependence__graph_8cpp.html" target="_top" xlink:title=" ">
<polygon fill="none" stroke="black" points="186,-0.5 186,-63.5 366,-63.5 366,-0.5 186,-0.5"/>
<text text-anchor="start" x="194" y="-51.5" font-family="Helvetica,sans-Serif" font-size="10.00">/home/runner/work/diffblue</text>
<text text-anchor="start" x="194" y="-40.5" font-family="Helvetica,sans-Serif" font-size="10.00">&#45;cbmc/diffblue&#45;cbmc/src</text>
<text text-anchor="start" x="194" y="-29.5" font-family="Helvetica,sans-Serif" font-size="10.00">/analyses/variable&#45;sensitivity</text>
<text text-anchor="start" x="194" y="-18.5" font-family="Helvetica,sans-Serif" font-size="10.00">/variable_sensitivity_dependence</text>
<text text-anchor="middle" x="276" y="-7.5" font-family="Helvetica,sans-Serif" font-size="10.00">_graph.cpp</text>
</a>
</g>
</g>
<!-- Node2&#45;&gt;Node4 -->
<g id="edge3" class="edge">
<title>Node2&#45;&gt;Node4</title>
<path fill="none" stroke="midnightblue" d="M279.09,-90.23C278.62,-81.43 278.11,-72.06 277.65,-63.51"/>
<polygon fill="midnightblue" stroke="midnightblue" points="275.6,-90.43 279.63,-100.22 282.59,-90.05 275.6,-90.43"/>
</g>
<!-- Node5 -->
<g id="node5" class="node">
<title>Node5</title>
<g id="a_node5"><a xlink:href="variable__sensitivity__object__factory_8cpp.html" target="_top" xlink:title=" ">
<polygon fill="none" stroke="black" points="384.5,-0.5 384.5,-63.5 545.5,-63.5 545.5,-0.5 384.5,-0.5"/>
<text text-anchor="start" x="392.5" y="-51.5" font-family="Helvetica,sans-Serif" font-size="10.00">/home/runner/work/diffblue</text>
<text text-anchor="start" x="392.5" y="-40.5" font-family="Helvetica,sans-Serif" font-size="10.00">&#45;cbmc/diffblue&#45;cbmc/src</text>
<text text-anchor="start" x="392.5" y="-29.5" font-family="Helvetica,sans-Serif" font-size="10.00">/analyses/variable&#45;sensitivity</text>
<text text-anchor="start" x="392.5" y="-18.5" font-family="Helvetica,sans-Serif" font-size="10.00">/variable_sensitivity_object</text>
<text text-anchor="middle" x="465" y="-7.5" font-family="Helvetica,sans-Serif" font-size="10.00">_factory.cpp</text>
</a>
</g>
</g>
<!-- Node2&#45;&gt;Node5 -->
<g id="edge4" class="edge">
<title>Node2&#45;&gt;Node5</title>
<path fill="none" stroke="midnightblue" d="M339.99,-95.84C360.44,-85.56 383.4,-74.02 404.01,-63.66"/>
<polygon fill="midnightblue" stroke="midnightblue" points="338.16,-92.85 330.79,-100.47 341.3,-99.1 338.16,-92.85"/>
</g>
<!-- Node6&#45;&gt;Node5 -->
<g id="edge7" class="edge">
<title>Node6&#45;&gt;Node5</title>
<path fill="none" stroke="midnightblue" d="M465,-89.94C465,-81.23 465,-71.97 465,-63.51"/>
<polygon fill="midnightblue" stroke="midnightblue" points="461.5,-90.22 465,-100.22 468.5,-90.22 461.5,-90.22"/>
</g>
<!-- Node7 -->
<g id="node7" class="node">
<title>Node7</title>
<g id="a_node7"><a xlink:href="liveness__context_8cpp.html" target="_top" xlink:title=" ">
<polygon fill="none" stroke="black" points="563.5,-6 563.5,-58 724.5,-58 724.5,-6 563.5,-6"/>
<text text-anchor="start" x="571.5" y="-46" font-family="Helvetica,sans-Serif" font-size="10.00">/home/runner/work/diffblue</text>
<text text-anchor="start" x="571.5" y="-35" font-family="Helvetica,sans-Serif" font-size="10.00">&#45;cbmc/diffblue&#45;cbmc/src</text>
<text text-anchor="start" x="571.5" y="-24" font-family="Helvetica,sans-Serif" font-size="10.00">/analyses/variable&#45;sensitivity</text>
<text text-anchor="middle" x="644" y="-13" font-family="Helvetica,sans-Serif" font-size="10.00">/liveness_context.cpp</text>
</a>
</g>
</g>
<!-- Node6&#45;&gt;Node7 -->
<g id="edge6" class="edge">
<title>Node6&#45;&gt;Node7</title>
<path fill="none" stroke="midnightblue" d="M522.61,-95.73C546.13,-83.58 573.03,-69.67 595.52,-58.05"/>
<polygon fill="midnightblue" stroke="midnightblue" points="520.72,-92.77 513.44,-100.47 523.93,-98.99 520.72,-92.77"/>
</g>
</g>
</svg>
