<?xml version="1.0" encoding="UTF-8" standalone="no"?>
<!DOCTYPE svg PUBLIC "-//W3C//DTD SVG 1.1//EN"
 "http://www.w3.org/Graphics/SVG/1.1/DTD/svg11.dtd">
<!-- Generated by graphviz version 2.43.0 (0)
 -->
<!-- Title: /home/runner/work/diffblue&#45;cbmc/diffblue&#45;cbmc/src/goto&#45;programs/write_goto_binary.h Pages: 1 -->
<svg width="1660pt" height="150pt"
 viewBox="0.00 0.00 1659.50 150.00" xmlns="http://www.w3.org/2000/svg" xmlns:xlink="http://www.w3.org/1999/xlink">
<g id="graph0" class="graph" transform="scale(1 1) rotate(0) translate(4 146)">
<title>/home/runner/work/diffblue&#45;cbmc/diffblue&#45;cbmc/src/goto&#45;programs/write_goto_binary.h</title>
<!-- Node1 -->
<g id="node1" class="node">
<title>Node1</title>
<g id="a_node1"><a xlink:title="Write GOTO binaries.">
<polygon fill="#bfbfbf" stroke="black" points="748,-89.5 748,-141.5 897,-141.5 897,-89.5 748,-89.5"/>
<text text-anchor="start" x="756" y="-129.5" font-family="Helvetica,sans-Serif" font-size="10.00">/home/runner/work/diffblue</text>
<text text-anchor="start" x="756" y="-118.5" font-family="Helvetica,sans-Serif" font-size="10.00">&#45;cbmc/diffblue&#45;cbmc/src</text>
<text text-anchor="start" x="756" y="-107.5" font-family="Helvetica,sans-Serif" font-size="10.00">/goto&#45;programs/write_goto</text>
<text text-anchor="middle" x="822.5" y="-96.5" font-family="Helvetica,sans-Serif" font-size="10.00">_binary.h</text>
</a>
</g>
</g>
<!-- Node2 -->
<g id="node2" class="node">
<title>Node2</title>
<g id="a_node2"><a xlink:href="cbmc__parse__options_8cpp.html" target="_top" xlink:title="CBMC Command Line Option Processing.">
<polygon fill="none" stroke="black" points="0,-6 0,-47 169,-47 169,-6 0,-6"/>
<text text-anchor="start" x="8" y="-35" font-family="Helvetica,sans-Serif" font-size="10.00">/home/runner/work/diffblue</text>
<text text-anchor="start" x="8" y="-24" font-family="Helvetica,sans-Serif" font-size="10.00">&#45;cbmc/diffblue&#45;cbmc/src</text>
<text text-anchor="middle" x="84.5" y="-13" font-family="Helvetica,sans-Serif" font-size="10.00">/cbmc/cbmc_parse_options.cpp</text>
</a>
</g>
</g>
<!-- Node1&#45;&gt;Node2 -->
<g id="edge1" class="edge">
<title>Node1&#45;&gt;Node2</title>
<path fill="none" stroke="midnightblue" d="M737.39,-110.97C613.54,-104.81 376.8,-89.09 178.5,-53 169.52,-51.36 160.14,-49.28 150.94,-47.02"/>
<polygon fill="midnightblue" stroke="midnightblue" points="737.4,-114.48 747.56,-111.47 737.75,-107.49 737.4,-114.48"/>
</g>
<!-- Node3 -->
<g id="node3" class="node">
<title>Node3</title>
<g id="a_node3"><a xlink:href="static__simplifier_8cpp.html" target="_top" xlink:title=" ">
<polygon fill="none" stroke="black" points="187.5,-6 187.5,-47 375.5,-47 375.5,-6 187.5,-6"/>
<text text-anchor="start" x="195.5" y="-35" font-family="Helvetica,sans-Serif" font-size="10.00">/home/runner/work/diffblue</text>
<text text-anchor="start" x="195.5" y="-24" font-family="Helvetica,sans-Serif" font-size="10.00">&#45;cbmc/diffblue&#45;cbmc/src</text>
<text text-anchor="middle" x="281.5" y="-13" font-family="Helvetica,sans-Serif" font-size="10.00">/goto&#45;analyzer/static_simplifier.cpp</text>
</a>
</g>
</g>
<!-- Node1&#45;&gt;Node3 -->
<g id="edge2" class="edge">
<title>Node1&#45;&gt;Node3</title>
<path fill="none" stroke="midnightblue" d="M737.72,-105.23C649.17,-94.93 506.45,-76.59 384.5,-53 375.46,-51.25 366.02,-49.21 356.68,-47.06"/>
<polygon fill="midnightblue" stroke="midnightblue" points="737.38,-108.71 747.71,-106.38 738.18,-101.76 737.38,-108.71"/>
</g>
<!-- Node4 -->
<g id="node4" class="node">
<title>Node4</title>
<g id="a_node4"><a xlink:href="compile_8cpp.html" target="_top" xlink:title="Compile and link source and object files.">
<polygon fill="none" stroke="black" points="394,-6 394,-47 543,-47 543,-6 394,-6"/>
<text text-anchor="start" x="402" y="-35" font-family="Helvetica,sans-Serif" font-size="10.00">/home/runner/work/diffblue</text>
<text text-anchor="start" x="402" y="-24" font-family="Helvetica,sans-Serif" font-size="10.00">&#45;cbmc/diffblue&#45;cbmc/src</text>
<text text-anchor="middle" x="468.5" y="-13" font-family="Helvetica,sans-Serif" font-size="10.00">/goto&#45;cc/compile.cpp</text>
</a>
</g>
</g>
<!-- Node1&#45;&gt;Node4 -->
<g id="edge3" class="edge">
<title>Node1&#45;&gt;Node4</title>
<path fill="none" stroke="midnightblue" d="M737.84,-96.83C684.44,-85.28 614.16,-69.36 552.5,-53 545.58,-51.16 538.36,-49.14 531.2,-47.06"/>
<polygon fill="midnightblue" stroke="midnightblue" points="737.44,-100.32 747.95,-99 738.91,-93.48 737.44,-100.32"/>
</g>
<!-- Node5 -->
<g id="node5" class="node">
<title>Node5</title>
<g id="a_node5"><a xlink:href="goto__harness__parse__options_8cpp.html" target="_top" xlink:title=" ">
<polygon fill="none" stroke="black" points="561.5,-0.5 561.5,-52.5 713.5,-52.5 713.5,-0.5 561.5,-0.5"/>
<text text-anchor="start" x="569.5" y="-40.5" font-family="Helvetica,sans-Serif" font-size="10.00">/home/runner/work/diffblue</text>
<text text-anchor="start" x="569.5" y="-29.5" font-family="Helvetica,sans-Serif" font-size="10.00">&#45;cbmc/diffblue&#45;cbmc/src</text>
<text text-anchor="start" x="569.5" y="-18.5" font-family="Helvetica,sans-Serif" font-size="10.00">/goto&#45;harness/goto_harness</text>
<text text-anchor="middle" x="637.5" y="-7.5" font-family="Helvetica,sans-Serif" font-size="10.00">_parse_options.cpp</text>
</a>
</g>
</g>
<!-- Node1&#45;&gt;Node5 -->
<g id="edge4" class="edge">
<title>Node1&#45;&gt;Node5</title>
<path fill="none" stroke="midnightblue" d="M759.89,-85.06C737.48,-74.52 712.45,-62.75 690.89,-52.61"/>
<polygon fill="midnightblue" stroke="midnightblue" points="758.45,-88.25 768.99,-89.34 761.43,-81.91 758.45,-88.25"/>
</g>
<!-- Node6 -->
<g id="node6" class="node">
<title>Node6</title>
<g id="a_node6"><a xlink:href="goto__instrument__parse__options_8cpp.html" target="_top" xlink:title="Main Module.">
<polygon fill="none" stroke="black" points="731.5,-0.5 731.5,-52.5 913.5,-52.5 913.5,-0.5 731.5,-0.5"/>
<text text-anchor="start" x="739.5" y="-40.5" font-family="Helvetica,sans-Serif" font-size="10.00">/home/runner/work/diffblue</text>
<text text-anchor="start" x="739.5" y="-29.5" font-family="Helvetica,sans-Serif" font-size="10.00">&#45;cbmc/diffblue&#45;cbmc/src</text>
<text text-anchor="start" x="739.5" y="-18.5" font-family="Helvetica,sans-Serif" font-size="10.00">/goto&#45;instrument/goto_instrument</text>
<text text-anchor="middle" x="822.5" y="-7.5" font-family="Helvetica,sans-Serif" font-size="10.00">_parse_options.cpp</text>
</a>
</g>
</g>
<!-- Node1&#45;&gt;Node6 -->
<g id="edge5" class="edge">
<title>Node1&#45;&gt;Node6</title>
<path fill="none" stroke="midnightblue" d="M822.5,-79.19C822.5,-70.28 822.5,-60.9 822.5,-52.61"/>
<polygon fill="midnightblue" stroke="midnightblue" points="819,-79.34 822.5,-89.34 826,-79.34 819,-79.34"/>
</g>
<!-- Node7 -->
<g id="node7" class="node">
<title>Node7</title>
<g id="a_node7"><a xlink:href="read__bin__goto__object_8cpp.html" target="_top" xlink:title="Read goto object files.">
<polygon fill="none" stroke="black" points="931.5,-0.5 931.5,-52.5 1095.5,-52.5 1095.5,-0.5 931.5,-0.5"/>
<text text-anchor="start" x="939.5" y="-40.5" font-family="Helvetica,sans-Serif" font-size="10.00">/home/runner/work/diffblue</text>
<text text-anchor="start" x="939.5" y="-29.5" font-family="Helvetica,sans-Serif" font-size="10.00">&#45;cbmc/diffblue&#45;cbmc/src</text>
<text text-anchor="start" x="939.5" y="-18.5" font-family="Helvetica,sans-Serif" font-size="10.00">/goto&#45;programs/read_bin_goto</text>
<text text-anchor="middle" x="1013.5" y="-7.5" font-family="Helvetica,sans-Serif" font-size="10.00">_object.cpp</text>
</a>
</g>
</g>
<!-- Node1&#45;&gt;Node7 -->
<g id="edge6" class="edge">
<title>Node1&#45;&gt;Node7</title>
<path fill="none" stroke="midnightblue" d="M886.62,-85.29C909.95,-74.67 936.1,-62.76 958.57,-52.52"/>
<polygon fill="midnightblue" stroke="midnightblue" points="885.14,-82.12 877.49,-89.45 888.04,-88.49 885.14,-82.12"/>
</g>
<!-- Node8 -->
<g id="node8" class="node">
<title>Node8</title>
<g id="a_node8"><a xlink:href="write__goto__binary_8cpp.html" target="_top" xlink:title="Write GOTO binaries.">
<polygon fill="none" stroke="black" points="1114,-0.5 1114,-52.5 1263,-52.5 1263,-0.5 1114,-0.5"/>
<text text-anchor="start" x="1122" y="-40.5" font-family="Helvetica,sans-Serif" font-size="10.00">/home/runner/work/diffblue</text>
<text text-anchor="start" x="1122" y="-29.5" font-family="Helvetica,sans-Serif" font-size="10.00">&#45;cbmc/diffblue&#45;cbmc/src</text>
<text text-anchor="start" x="1122" y="-18.5" font-family="Helvetica,sans-Serif" font-size="10.00">/goto&#45;programs/write_goto</text>
<text text-anchor="middle" x="1188.5" y="-7.5" font-family="Helvetica,sans-Serif" font-size="10.00">_binary.cpp</text>
</a>
</g>
</g>
<!-- Node1&#45;&gt;Node8 -->
<g id="edge7" class="edge">
<title>Node1&#45;&gt;Node8</title>
<path fill="none" stroke="midnightblue" d="M907.02,-97.91C963.26,-86.42 1038.63,-70.15 1104.5,-53 1107.6,-52.19 1110.75,-51.35 1113.93,-50.47"/>
<polygon fill="midnightblue" stroke="midnightblue" points="906.2,-94.5 897.1,-99.93 907.6,-101.36 906.2,-94.5"/>
</g>
<!-- Node9 -->
<g id="node9" class="node">
<title>Node9</title>
<g id="a_node9"><a xlink:href="goto__synthesizer__parse__options_8cpp.html" target="_top" xlink:title="Main Module.">
<polygon fill="none" stroke="black" points="1281.5,-0.5 1281.5,-52.5 1469.5,-52.5 1469.5,-0.5 1281.5,-0.5"/>
<text text-anchor="start" x="1289.5" y="-40.5" font-family="Helvetica,sans-Serif" font-size="10.00">/home/runner/work/diffblue</text>
<text text-anchor="start" x="1289.5" y="-29.5" font-family="Helvetica,sans-Serif" font-size="10.00">&#45;cbmc/diffblue&#45;cbmc/src</text>
<text text-anchor="start" x="1289.5" y="-18.5" font-family="Helvetica,sans-Serif" font-size="10.00">/goto&#45;synthesizer/goto_synthesizer</text>
<text text-anchor="middle" x="1375.5" y="-7.5" font-family="Helvetica,sans-Serif" font-size="10.00">_parse_options.cpp</text>
</a>
</g>
</g>
<!-- Node1&#45;&gt;Node9 -->
<g id="edge8" class="edge">
<title>Node1&#45;&gt;Node9</title>
<path fill="none" stroke="midnightblue" d="M907.31,-105.65C998.11,-95.53 1146.16,-77.2 1272.5,-53 1275.39,-52.45 1278.33,-51.86 1281.29,-51.25"/>
<polygon fill="midnightblue" stroke="midnightblue" points="906.9,-102.17 897.35,-106.75 907.67,-109.13 906.9,-102.17"/>
</g>
<!-- Node10 -->
<g id="node10" class="node">
<title>Node10</title>
<g id="a_node10"><a xlink:href="symtab2gb__parse__options_8cpp.html" target="_top" xlink:title=" ">
<polygon fill="none" stroke="black" points="1487.5,-0.5 1487.5,-52.5 1651.5,-52.5 1651.5,-0.5 1487.5,-0.5"/>
<text text-anchor="start" x="1495.5" y="-40.5" font-family="Helvetica,sans-Serif" font-size="10.00">/home/runner/work/diffblue</text>
<text text-anchor="start" x="1495.5" y="-29.5" font-family="Helvetica,sans-Serif" font-size="10.00">&#45;cbmc/diffblue&#45;cbmc/src</text>
<text text-anchor="start" x="1495.5" y="-18.5" font-family="Helvetica,sans-Serif" font-size="10.00">/symtab2gb/symtab2gb_parse</text>
<text text-anchor="middle" x="1569.5" y="-7.5" font-family="Helvetica,sans-Serif" font-size="10.00">_options.cpp</text>
</a>
</g>
</g>
<!-- Node1&#45;&gt;Node10 -->
<g id="edge9" class="edge">
<title>Node1&#45;&gt;Node10</title>
<path fill="none" stroke="midnightblue" d="M907.71,-111.4C1033.48,-105.72 1275.84,-90.58 1478.5,-53 1481.4,-52.46 1484.35,-51.87 1487.32,-51.24"/>
<polygon fill="midnightblue" stroke="midnightblue" points="907.21,-107.92 897.38,-111.86 907.52,-114.91 907.21,-107.92"/>
</g>
</g>
</svg>
