<?xml version="1.0" encoding="UTF-8" standalone="no"?>
<!DOCTYPE svg PUBLIC "-//W3C//DTD SVG 1.1//EN"
 "http://www.w3.org/Graphics/SVG/1.1/DTD/svg11.dtd">
<!-- Generated by graphviz version 2.43.0 (0)
 -->
<!-- Title: /home/runner/work/diffblue&#45;cbmc/diffblue&#45;cbmc/src/xmllang/xml_parse_tree.h Pages: 1 -->
<svg width="500pt" height="206pt"
 viewBox="0.00 0.00 499.50 206.00" xmlns="http://www.w3.org/2000/svg" xmlns:xlink="http://www.w3.org/1999/xlink">
<g id="graph0" class="graph" transform="scale(1 1) rotate(0) translate(4 202)">
<title>/home/runner/work/diffblue&#45;cbmc/diffblue&#45;cbmc/src/xmllang/xml_parse_tree.h</title>
<!-- Node1 -->
<g id="node1" class="node">
<title>Node1</title>
<g id="a_node1"><a xlink:title=" ">
<polygon fill="#bfbfbf" stroke="black" points="89.5,-156.5 89.5,-197.5 238.5,-197.5 238.5,-156.5 89.5,-156.5"/>
<text text-anchor="start" x="97.5" y="-185.5" font-family="Helvetica,sans-Serif" font-size="10.00">/home/runner/work/diffblue</text>
<text text-anchor="start" x="97.5" y="-174.5" font-family="Helvetica,sans-Serif" font-size="10.00">&#45;cbmc/diffblue&#45;cbmc/src</text>
<text text-anchor="middle" x="164" y="-163.5" font-family="Helvetica,sans-Serif" font-size="10.00">/xmllang/xml_parse_tree.h</text>
</a>
</g>
</g>
<!-- Node2 -->
<g id="node2" class="node">
<title>Node2</title>
<g id="a_node2"><a xlink:href="xml__parse__tree_8cpp.html" target="_top" xlink:title=" ">
<polygon fill="none" stroke="black" points="0,-78.5 0,-119.5 158,-119.5 158,-78.5 0,-78.5"/>
<text text-anchor="start" x="8" y="-107.5" font-family="Helvetica,sans-Serif" font-size="10.00">/home/runner/work/diffblue</text>
<text text-anchor="start" x="8" y="-96.5" font-family="Helvetica,sans-Serif" font-size="10.00">&#45;cbmc/diffblue&#45;cbmc/src</text>
<text text-anchor="middle" x="79" y="-85.5" font-family="Helvetica,sans-Serif" font-size="10.00">/xmllang/xml_parse_tree.cpp</text>
</a>
</g>
</g>
<!-- Node1&#45;&gt;Node2 -->
<g id="edge1" class="edge">
<title>Node1&#45;&gt;Node2</title>
<path fill="none" stroke="midnightblue" d="M134.35,-149.49C123.32,-139.63 111.02,-128.63 100.82,-119.51"/>
<polygon fill="midnightblue" stroke="midnightblue" points="132.32,-152.37 142.11,-156.43 136.99,-147.15 132.32,-152.37"/>
</g>
<!-- Node3 -->
<g id="node3" class="node">
<title>Node3</title>
<g id="a_node3"><a xlink:href="xml__parser_8h.html" target="_top" xlink:title=" ">
<polygon fill="none" stroke="black" points="175.5,-78.5 175.5,-119.5 324.5,-119.5 324.5,-78.5 175.5,-78.5"/>
<text text-anchor="start" x="183.5" y="-107.5" font-family="Helvetica,sans-Serif" font-size="10.00">/home/runner/work/diffblue</text>
<text text-anchor="start" x="183.5" y="-96.5" font-family="Helvetica,sans-Serif" font-size="10.00">&#45;cbmc/diffblue&#45;cbmc/src</text>
<text text-anchor="middle" x="250" y="-85.5" font-family="Helvetica,sans-Serif" font-size="10.00">/xmllang/xml_parser.h</text>
</a>
</g>
</g>
<!-- Node1&#45;&gt;Node3 -->
<g id="edge2" class="edge">
<title>Node1&#45;&gt;Node3</title>
<path fill="none" stroke="midnightblue" d="M193.67,-149.78C204.91,-139.84 217.51,-128.72 227.93,-119.51"/>
<polygon fill="midnightblue" stroke="midnightblue" points="191.32,-147.18 186.15,-156.43 195.96,-152.43 191.32,-147.18"/>
</g>
<!-- Node4 -->
<g id="node4" class="node">
<title>Node4</title>
<g id="a_node4"><a xlink:href="graphml_8cpp.html" target="_top" xlink:title="Read/write graphs as GraphML.">
<polygon fill="none" stroke="black" points="8.5,-0.5 8.5,-41.5 157.5,-41.5 157.5,-0.5 8.5,-0.5"/>
<text text-anchor="start" x="16.5" y="-29.5" font-family="Helvetica,sans-Serif" font-size="10.00">/home/runner/work/diffblue</text>
<text text-anchor="start" x="16.5" y="-18.5" font-family="Helvetica,sans-Serif" font-size="10.00">&#45;cbmc/diffblue&#45;cbmc/src</text>
<text text-anchor="middle" x="83" y="-7.5" font-family="Helvetica,sans-Serif" font-size="10.00">/xmllang/graphml.cpp</text>
</a>
</g>
</g>
<!-- Node3&#45;&gt;Node4 -->
<g id="edge3" class="edge">
<title>Node3&#45;&gt;Node4</title>
<path fill="none" stroke="midnightblue" d="M197.68,-74.19C174.58,-63.67 147.75,-51.47 125.86,-41.51"/>
<polygon fill="midnightblue" stroke="midnightblue" points="196.44,-77.47 206.99,-78.43 199.34,-71.1 196.44,-77.47"/>
</g>
<!-- Node5 -->
<g id="node5" class="node">
<title>Node5</title>
<g id="a_node5"><a xlink:href="xml__interface_8cpp.html" target="_top" xlink:title="XML Interface.">
<polygon fill="none" stroke="black" points="175,-0.5 175,-41.5 325,-41.5 325,-0.5 175,-0.5"/>
<text text-anchor="start" x="183" y="-29.5" font-family="Helvetica,sans-Serif" font-size="10.00">/home/runner/work/diffblue</text>
<text text-anchor="start" x="183" y="-18.5" font-family="Helvetica,sans-Serif" font-size="10.00">&#45;cbmc/diffblue&#45;cbmc/src</text>
<text text-anchor="middle" x="250" y="-7.5" font-family="Helvetica,sans-Serif" font-size="10.00">/xmllang/xml_interface.cpp</text>
</a>
</g>
</g>
<!-- Node3&#45;&gt;Node5 -->
<g id="edge4" class="edge">
<title>Node3&#45;&gt;Node5</title>
<path fill="none" stroke="midnightblue" d="M250,-68.3C250,-59.3 250,-49.65 250,-41.51"/>
<polygon fill="midnightblue" stroke="midnightblue" points="246.5,-68.43 250,-78.43 253.5,-68.43 246.5,-68.43"/>
</g>
<!-- Node6 -->
<g id="node6" class="node">
<title>Node6</title>
<g id="a_node6"><a xlink:href="xml__parser_8cpp.html" target="_top" xlink:title=" ">
<polygon fill="none" stroke="black" points="342.5,-0.5 342.5,-41.5 491.5,-41.5 491.5,-0.5 342.5,-0.5"/>
<text text-anchor="start" x="350.5" y="-29.5" font-family="Helvetica,sans-Serif" font-size="10.00">/home/runner/work/diffblue</text>
<text text-anchor="start" x="350.5" y="-18.5" font-family="Helvetica,sans-Serif" font-size="10.00">&#45;cbmc/diffblue&#45;cbmc/src</text>
<text text-anchor="middle" x="417" y="-7.5" font-family="Helvetica,sans-Serif" font-size="10.00">/xmllang/xml_parser.cpp</text>
</a>
</g>
</g>
<!-- Node3&#45;&gt;Node6 -->
<g id="edge5" class="edge">
<title>Node3&#45;&gt;Node6</title>
<path fill="none" stroke="midnightblue" d="M302.32,-74.19C325.42,-63.67 352.25,-51.47 374.14,-41.51"/>
<polygon fill="midnightblue" stroke="midnightblue" points="300.66,-71.1 293.01,-78.43 303.56,-77.47 300.66,-71.1"/>
</g>
</g>
</svg>
