<?xml version="1.0" encoding="UTF-8" standalone="no"?>
<!DOCTYPE svg PUBLIC "-//W3C//DTD SVG 1.1//EN"
 "http://www.w3.org/Graphics/SVG/1.1/DTD/svg11.dtd">
<!-- Generated by graphviz version 2.43.0 (0)
 -->
<!-- Title: /home/runner/work/diffblue&#45;cbmc/diffblue&#45;cbmc/src/goto&#45;programs/xml_goto_trace.h Pages: 1 -->
<svg width="740pt" height="128pt"
 viewBox="0.00 0.00 739.50 128.00" xmlns="http://www.w3.org/2000/svg" xmlns:xlink="http://www.w3.org/1999/xlink">
<g id="graph0" class="graph" transform="scale(1 1) rotate(0) translate(4 124)">
<title>/home/runner/work/diffblue&#45;cbmc/diffblue&#45;cbmc/src/goto&#45;programs/xml_goto_trace.h</title>
<!-- Node1 -->
<g id="node1" class="node">
<title>Node1</title>
<g id="a_node1"><a xlink:title="Traces of GOTO Programs.">
<polygon fill="#bfbfbf" stroke="black" points="268.5,-78.5 268.5,-119.5 447.5,-119.5 447.5,-78.5 268.5,-78.5"/>
<text text-anchor="start" x="276.5" y="-107.5" font-family="Helvetica,sans-Serif" font-size="10.00">/home/runner/work/diffblue</text>
<text text-anchor="start" x="276.5" y="-96.5" font-family="Helvetica,sans-Serif" font-size="10.00">&#45;cbmc/diffblue&#45;cbmc/src</text>
<text text-anchor="middle" x="358" y="-85.5" font-family="Helvetica,sans-Serif" font-size="10.00">/goto&#45;programs/xml_goto_trace.h</text>
</a>
</g>
</g>
<!-- Node2 -->
<g id="node2" class="node">
<title>Node2</title>
<g id="a_node2"><a xlink:href="c__test__input__generator_8cpp.html" target="_top" xlink:title="Test Input Generator for C.">
<polygon fill="none" stroke="black" points="0,-0.5 0,-41.5 180,-41.5 180,-0.5 0,-0.5"/>
<text text-anchor="start" x="8" y="-29.5" font-family="Helvetica,sans-Serif" font-size="10.00">/home/runner/work/diffblue</text>
<text text-anchor="start" x="8" y="-18.5" font-family="Helvetica,sans-Serif" font-size="10.00">&#45;cbmc/diffblue&#45;cbmc/src</text>
<text text-anchor="middle" x="90" y="-7.5" font-family="Helvetica,sans-Serif" font-size="10.00">/cbmc/c_test_input_generator.cpp</text>
</a>
</g>
</g>
<!-- Node1&#45;&gt;Node2 -->
<g id="edge1" class="edge">
<title>Node1&#45;&gt;Node2</title>
<path fill="none" stroke="midnightblue" d="M278.94,-75.58C240.8,-64.76 195.48,-51.91 158.78,-41.51"/>
<polygon fill="midnightblue" stroke="midnightblue" points="278.41,-79.07 288.98,-78.43 280.32,-72.33 278.41,-79.07"/>
</g>
<!-- Node3 -->
<g id="node3" class="node">
<title>Node3</title>
<g id="a_node3"><a xlink:href="bmc__util_8cpp.html" target="_top" xlink:title="Bounded Model Checking Utilities.">
<polygon fill="none" stroke="black" points="198.5,-0.5 198.5,-41.5 347.5,-41.5 347.5,-0.5 198.5,-0.5"/>
<text text-anchor="start" x="206.5" y="-29.5" font-family="Helvetica,sans-Serif" font-size="10.00">/home/runner/work/diffblue</text>
<text text-anchor="start" x="206.5" y="-18.5" font-family="Helvetica,sans-Serif" font-size="10.00">&#45;cbmc/diffblue&#45;cbmc/src</text>
<text text-anchor="middle" x="273" y="-7.5" font-family="Helvetica,sans-Serif" font-size="10.00">/goto&#45;checker/bmc_util.cpp</text>
</a>
</g>
</g>
<!-- Node1&#45;&gt;Node3 -->
<g id="edge2" class="edge">
<title>Node1&#45;&gt;Node3</title>
<path fill="none" stroke="midnightblue" d="M328.35,-71.49C317.32,-61.63 305.02,-50.63 294.82,-41.51"/>
<polygon fill="midnightblue" stroke="midnightblue" points="326.32,-74.37 336.11,-78.43 330.99,-69.15 326.32,-74.37"/>
</g>
<!-- Node4 -->
<g id="node4" class="node">
<title>Node4</title>
<g id="a_node4"><a xlink:href="report__util_8cpp.html" target="_top" xlink:title="Bounded Model Checking Utilities.">
<polygon fill="none" stroke="black" points="366,-0.5 366,-41.5 522,-41.5 522,-0.5 366,-0.5"/>
<text text-anchor="start" x="374" y="-29.5" font-family="Helvetica,sans-Serif" font-size="10.00">/home/runner/work/diffblue</text>
<text text-anchor="start" x="374" y="-18.5" font-family="Helvetica,sans-Serif" font-size="10.00">&#45;cbmc/diffblue&#45;cbmc/src</text>
<text text-anchor="middle" x="444" y="-7.5" font-family="Helvetica,sans-Serif" font-size="10.00">/goto&#45;checker/report_util.cpp</text>
</a>
</g>
</g>
<!-- Node1&#45;&gt;Node4 -->
<g id="edge3" class="edge">
<title>Node1&#45;&gt;Node4</title>
<path fill="none" stroke="midnightblue" d="M387.67,-71.78C398.91,-61.84 411.51,-50.72 421.93,-41.51"/>
<polygon fill="midnightblue" stroke="midnightblue" points="385.32,-69.18 380.15,-78.43 389.96,-74.43 385.32,-69.18"/>
</g>
<!-- Node5 -->
<g id="node5" class="node">
<title>Node5</title>
<g id="a_node5"><a xlink:href="xml__goto__trace_8cpp.html" target="_top" xlink:title="Traces of GOTO Programs.">
<polygon fill="none" stroke="black" points="540.5,-0.5 540.5,-41.5 731.5,-41.5 731.5,-0.5 540.5,-0.5"/>
<text text-anchor="start" x="548.5" y="-29.5" font-family="Helvetica,sans-Serif" font-size="10.00">/home/runner/work/diffblue</text>
<text text-anchor="start" x="548.5" y="-18.5" font-family="Helvetica,sans-Serif" font-size="10.00">&#45;cbmc/diffblue&#45;cbmc/src</text>
<text text-anchor="middle" x="636" y="-7.5" font-family="Helvetica,sans-Serif" font-size="10.00">/goto&#45;programs/xml_goto_trace.cpp</text>
</a>
</g>
</g>
<!-- Node1&#45;&gt;Node5 -->
<g id="edge4" class="edge">
<title>Node1&#45;&gt;Node5</title>
<path fill="none" stroke="midnightblue" d="M439.25,-75.79C478.97,-64.93 526.34,-51.98 564.65,-41.51"/>
<polygon fill="midnightblue" stroke="midnightblue" points="438.31,-72.41 429.59,-78.43 440.16,-79.17 438.31,-72.41"/>
</g>
</g>
</svg>
